<svg width="966" height="500" viewBox="0 0 966 500" fill="none" xmlns="http://www.w3.org/2000/svg">
<rect width="966" height="500" fill="#E5E5E5"/>
<path d="M871.784 336.161L828.728 336.162H137.686V336.161H94.6279V163.933H871.784V336.161ZM137.686 293.104H828.727V293.104H137.686V293.104Z" fill="white"/>
<rect x="137.959" y="164.206" width="690.493" height="171.68" stroke="#FF5E00" stroke-width="0.548553" stroke-dasharray="1.1 1.1"/>
<rect x="94.9022" y="207.263" width="776.608" height="85.5657" stroke="#FF5E00" stroke-width="0.548553" stroke-dasharray="1.1 1.1"/>
<g clip-path="url(#clip0_1_27419)">
<g clip-path="url(#clip1_1_27419)">
<path d="M253.473 283.598C260.602 283.598 265.796 280.862 265.796 275.794C265.796 263.227 228.114 275.085 228.114 249.85C228.114 240.019 237.483 231.709 252.556 231.709C265.796 231.709 276.591 240.323 276.591 252.688H264.675C264.166 245.999 260.296 242.046 252.149 242.046C244.103 242.046 239.928 245.289 239.928 249.85C239.928 263.531 277.508 250.762 277.508 275.794C277.508 287.348 268.342 293.834 252.862 293.834C238.502 293.834 227.808 284.814 227.401 272.754H239.418C240.029 279.544 245.834 283.598 253.473 283.598ZM280.563 243.465H287.285V233.128H298.385V243.465H306.838V252.89H298.385V283.395H303.376H308.264V292.82H303.274L287.285 292.719V252.89H280.665L280.563 243.465ZM321.606 268.193C321.606 277.517 326.087 284.206 334.234 284.206C343.196 284.206 347.576 277.314 347.576 268.193C347.576 259.072 343.196 251.978 334.234 251.978C326.087 251.978 321.606 258.768 321.606 268.193ZM332.503 242.046C339.53 242.046 344.418 244.884 347.576 249.85V243.465H358.676V292.82H347.576V286.537C344.622 291.3 339.836 294.239 332.503 294.239C318.652 294.239 310.199 283.497 310.199 268.193C310.199 252.89 318.652 242.046 332.503 242.046ZM388.618 294.239C373.342 294.239 363.361 283.497 363.361 268.193C363.361 252.89 373.342 242.046 388.618 242.046C402.163 242.046 411.635 251.978 411.737 262.822H400.127C399.821 257.451 396.562 252.079 388.618 252.079C378.943 252.079 374.768 259.072 374.768 268.193C374.768 277.314 378.943 284.105 388.618 284.105C396.868 284.105 400.127 278.328 400.432 272.146H411.94C411.737 284.915 402.673 294.239 388.618 294.239ZM416.218 233.128H427.42V263.227L443.41 243.465H456.548L440.456 263.329L458.177 292.82H445.752L433.735 271.436L427.42 279.341V292.82H416.218V233.128ZM519.792 262.923C519.792 252.789 514.191 242.046 501.257 242.046C488.221 242.046 482.416 252.789 482.416 262.923C482.416 273.058 488.221 283.902 501.257 283.902C514.191 283.902 519.792 273.058 519.792 262.923ZM470.602 262.923C470.602 245.999 481.499 231.709 501.257 231.709C520.912 231.709 530.689 245.999 531.809 262.923C530.689 280.051 520.912 294.239 501.257 294.239C481.499 294.239 470.602 280.051 470.602 262.923ZM531.911 243.465H543.827L554.928 282.888L566.131 243.465H578.046L562.566 292.82H547.391L531.911 243.465ZM588.842 262.721H613.895C613.284 256.843 609.617 251.978 602.285 251.978C594.545 251.978 590.369 256.437 588.842 262.721ZM602.285 294.239C586.906 294.239 576.926 283.497 576.926 268.193C576.926 252.89 586.906 242.046 602.285 242.046C615.728 242.046 627.236 252.89 624.792 271.842H588.638C589.554 279.037 593.832 284.206 602.285 284.206C608.09 284.206 611.756 281.166 613.284 277.112H624.894C622.755 287.246 614.302 294.239 602.285 294.239ZM629.579 243.465V292.82H640.68V252.89H656.669V243.465H629.579ZM681.926 226.743C671.232 226.743 666.14 231.709 666.14 240.526V243.465H661.048V252.89H666.14V292.82H677.241V252.89H689.055V243.465H677.241V240.526C677.241 237.688 678.871 236.168 682.028 236.168H690.073V226.743H681.926ZM694.453 226.743V292.82H705.655V226.743H694.453ZM721.848 268.193C721.848 277.517 726.533 284.206 735.801 284.206C745.069 284.206 749.753 277.517 749.753 268.193C749.753 259.072 745.069 251.978 735.801 251.978C726.533 251.978 721.848 259.072 721.848 268.193ZM735.801 242.046C751.077 242.046 761.465 252.89 761.058 268.193C761.465 283.497 751.077 294.239 735.801 294.239C720.423 294.239 710.442 283.497 710.442 268.193C710.442 252.89 720.423 242.046 735.801 242.046ZM761.465 243.465H773.381L780.51 280.456L788.759 243.465H800.879L809.128 280.557L816.461 243.465H828.274L816.359 292.82H801.591L794.87 262.619L788.148 292.82H773.381L761.465 243.465Z" fill="#1D1A1B"/>
</g>
</g>
<path d="M201.295 253.753L201.421 253.818L201.388 253.851L201.295 253.759C198.459 257.386 196.08 261.381 194.247 265.65C194.221 265.716 194.194 265.775 194.167 265.841C192.4 270.006 191.145 274.433 190.487 279.057C190.481 279.083 190.481 279.116 190.481 279.142C190.129 281.595 189.949 284.101 189.949 286.645C189.949 288.81 190.082 290.948 190.335 293.047L137.659 293.047L137.659 279.057L183.4 279.057C183.486 278.48 183.586 277.916 183.692 277.345L139.625 265.683L143.292 252.165L187.903 263.971C188.109 263.519 188.322 263.073 188.534 262.627L148.499 239.802L155.58 227.687L196.213 250.847C196.532 250.467 196.858 250.086 197.196 249.712L163.904 216.846L173.927 206.948L207.752 240.353L211.325 243.881C207.566 246.728 204.191 250.047 201.295 253.753Z" fill="#1D1A1B"/>
<rect x="94.6279" y="163.932" width="43.0571" height="43.0571" fill="#FF5E00" fill-opacity="0.14"/>
<rect x="828.727" y="293.104" width="43.0571" height="43.0571" fill="#FF5E00" fill-opacity="0.14"/>
<rect x="828.727" y="163.932" width="43.0571" height="43.0571" fill="#FF5E00" fill-opacity="0.14"/>
<path d="M112.237 250.948C112.272 248.501 115.32 248.872 115.32 247.425C115.32 246.837 114.852 246.446 114.146 246.446C113.272 246.446 112.873 246.935 112.831 247.606H112.293C112.293 246.621 113.062 245.942 114.111 245.942C115.299 245.942 115.866 246.663 115.866 247.397C115.866 249.165 113.321 248.858 112.908 250.473H115.88V250.948H112.237ZM116.216 247.033H116.796L117.747 248.522L118.69 247.033H119.271L118.033 248.977L119.292 250.948H118.711L117.747 249.431L116.775 250.948H116.195L117.453 248.977L116.216 247.033Z" fill="#FF5E00"/>
<path d="M114.623 316.243H114.007L115.622 313.782L114.028 311.349H114.644L115.93 313.307L117.209 311.349H117.825L116.238 313.782L117.846 316.243H117.23L115.93 314.251L114.623 316.243Z" fill="#FF5E00"/>
<path d="M115.862 288.901C115.959 288.997 116.115 288.997 116.211 288.901L117.779 287.333C117.875 287.236 117.875 287.08 117.779 286.984C117.683 286.888 117.527 286.888 117.43 286.984L116.037 288.378L114.643 286.984C114.547 286.888 114.391 286.888 114.294 286.984C114.198 287.08 114.198 287.236 114.294 287.333L115.862 288.901ZM116.037 256.271L115.79 256.271L115.79 288.727L116.037 288.727L116.283 288.727L116.283 256.271L116.037 256.271Z" fill="#FF5E00"/>
<path d="M116.201 211.191C116.105 211.095 115.949 211.095 115.853 211.191L114.285 212.759C114.188 212.855 114.188 213.011 114.285 213.108C114.381 213.204 114.537 213.204 114.633 213.108L116.027 211.714L117.421 213.108C117.517 213.204 117.673 213.204 117.769 213.108C117.865 213.011 117.865 212.855 117.769 212.759L116.201 211.191ZM116.027 243.821L116.273 243.821L116.273 211.365L116.027 211.365L115.78 211.365L115.78 243.821L116.027 243.821Z" fill="#FF5E00"/>
<defs>
<clipPath id="clip0_1_27419">
<rect width="600.873" height="68.4602" fill="white" transform="translate(227.401 226.159)"/>
</clipPath>
<clipPath id="clip1_1_27419">
<rect width="600.873" height="67.4959" fill="white" transform="translate(227.401 226.743)"/>
</clipPath>
</defs>
</svg>
