<svg fill="none" height="500" viewBox="0 0 966 500" width="966" xmlns="http://www.w3.org/2000/svg" xmlns:xlink="http://www.w3.org/1999/xlink"><clipPath id="a"><path d="m0 0h966v500h-966z"/></clipPath><clipPath id="b"><path d="m190.546 208.921h680.136v77.4909h-680.136z"/></clipPath><clipPath id="c"><path d="m190.546 209.584h680.136v76.3994h-680.136z"/></clipPath><g clip-path="url(#a)"><path d="m0 0h966v500h-966z" fill="#e5e5e5"/><g clip-path="url(#b)"><g clip-path="url(#c)"><path d="m220.057 273.939c8.07 0 13.949-3.097 13.949-8.833 0-14.224-42.653-.803-42.653-29.366 0-11.128 10.606-20.534 27.667-20.534 14.986 0 27.205 9.751 27.205 23.746h-13.487c-.577-7.571-4.957-12.045-14.179-12.045-9.107 0-13.834 3.671-13.834 8.833 0 15.486 42.538 1.032 42.538 29.366 0 13.078-10.375 20.42-27.897 20.42-16.254 0-28.359-10.21-28.82-23.861h13.603c.692 7.686 7.263 12.274 15.908 12.274zm30.664-45.426h7.608v-11.701h12.566v11.701h9.568v10.668h-9.568v34.529h5.648 5.533v10.668h-5.648l-18.099-.114v-45.083h-7.493zm46.457 27.99c0 10.554 5.072 18.125 14.294 18.125 10.145 0 15.102-7.801 15.102-18.125s-4.957-18.354-15.102-18.354c-9.222 0-14.294 7.686-14.294 18.354zm12.334-29.596c7.955 0 13.488 3.212 17.062 8.833v-7.227h12.565v55.865h-12.565v-7.112c-3.344 5.392-8.762 8.718-17.062 8.718-15.677 0-25.245-12.159-25.245-29.481s9.568-29.596 25.245-29.596zm63.518 59.077c-17.291 0-28.589-12.159-28.589-29.481s11.298-29.596 28.589-29.596c15.332 0 26.053 11.242 26.168 23.516h-13.141c-.346-6.08-4.035-12.16-13.027-12.16-10.951 0-15.677 7.916-15.677 18.24s4.726 18.01 15.677 18.01c9.338 0 13.027-6.539 13.372-13.536h13.027c-.231 14.454-10.491 25.007-26.399 25.007zm31.24-69.172h12.681v34.07l18.098-22.369h14.871l-18.214 22.484 20.059 33.381h-14.064l-13.603-24.204-7.147 8.947v15.257h-12.681zm117.237 33.726c0-11.472-6.34-23.631-20.98-23.631-14.756 0-21.326 12.159-21.326 23.631 0 11.471 6.57 23.746 21.326 23.746 14.64 0 20.98-12.275 20.98-23.746zm-55.679 0c0-19.157 12.335-35.332 34.699-35.332 22.248 0 33.315 16.175 34.583 35.332-1.268 19.386-12.335 35.446-34.583 35.446-22.364 0-34.699-16.06-34.699-35.446zm69.397-22.025h13.488l12.565 44.623 12.68-44.623h13.488l-17.522 55.865h-17.177zm64.44 21.795h28.358c-.691-6.653-4.841-12.159-13.141-12.159-8.761 0-13.488 5.047-15.217 12.159zm15.217 35.676c-17.407 0-28.704-12.159-28.704-29.481s11.297-29.596 28.704-29.596c15.216 0 28.243 12.274 25.476 33.726h-40.923c1.037 8.144 5.879 13.995 15.447 13.995 6.571 0 10.721-3.442 12.45-8.03h13.141c-2.42 11.471-11.988 19.386-25.591 19.386zm30.894-57.471v55.865h12.565v-45.197h18.099v-10.668zm59.253-18.928c-12.105 0-17.868 5.621-17.868 15.601v3.327h-5.764v10.668h5.764v45.197h12.565v-45.197h13.372v-10.668h-13.372v-3.327c0-3.212 1.844-4.933 5.418-4.933h9.107v-10.668zm14.179 0v74.793h12.68v-74.793zm31.009 46.918c0 10.554 5.303 18.125 15.793 18.125s15.793-7.571 15.793-18.125c0-10.324-5.303-18.354-15.793-18.354s-15.793 8.03-15.793 18.354zm15.793-29.596c17.292 0 29.05 12.274 28.589 29.596.461 17.322-11.297 29.481-28.589 29.481-17.407 0-28.704-12.159-28.704-29.481s11.297-29.596 28.704-29.596zm29.05 1.606h13.488l8.069 41.87 9.337-41.87h13.718l9.338 41.985 8.3-41.985h13.372l-13.487 55.865h-16.716l-7.608-34.184-7.608 34.184h-16.715z" fill="#201c1d"/></g></g><path d="m161.039 240.164.143.074-.038.037-.105-.104c-3.211 4.106-5.903 8.627-7.979 13.46-.03.074-.06.141-.09.215-2.001 4.715-3.422 9.726-4.166 14.96-.008.03-.008.067-.008.097-.399 2.776-.602 5.612-.602 8.493 0 2.45.151 4.87.437 7.246h-59.6359v-15.836h51.7839c.098-.653.211-1.292.331-1.938l-49.8889-13.2 4.1512-15.301 50.5057 13.364c.233-.513.474-1.017.715-1.522l-45.325-25.836 8.017-13.712 46.001 26.214c.361-.431.729-.861 1.113-1.284l-37.691-37.202 11.348-11.203 38.293 37.81 4.046 3.995c-4.257 3.222-8.077 6.978-11.356 11.173z" fill="#201c1d"/><path d="m453.376 227.954h12.3676v56.292h-12.3676z" fill="#b4b4b4"/><path d="m175.45 228.92h15.0966v55.326h-15.0966z" fill="#b4b4b4"/><path d="m-113.491 229.178h1205.88v54.7238h-1205.88z" opacity=".64" stroke="#ff5e00" stroke-dasharray="2.25 2.25" stroke-width=".683005"/><path d="m171.904 228.998h3.5459v55.2476h-3.5459z" fill="#605757" opacity=".66"/><g stroke="#ff5e00" stroke-width=".683005"><circle cx="171.787" cy="229.052" fill="#fff" fill-opacity=".29" r="13.8069" stroke-dasharray="2.25 2.25"/><path d="m171.563 349.792v-65.546"/><path d="m171.563 214.903v-61.931"/><path d="m458.88 349.792v-65.546"/></g><path d="m171.374 361.993h.92v7h-.92zm-1.68 0h1.95v.81h-1.95zm0 6.19h1.95v.81h-1.95zm2.33 0h1.95v.81h-1.95zm2.828-.27h1.05v1.08h-1.05zm1.962 1.08c.006-.5.086-.927.24-1.28.16-.353.366-.653.62-.9.26-.253.54-.467.84-.64.3-.18.6-.343.9-.49.306-.147.583-.297.83-.45.253-.153.456-.327.61-.52.153-.193.23-.427.23-.7 0-.4-.14-.717-.42-.95-.274-.24-.647-.36-1.12-.36-.567 0-.984.14-1.25.42-.267.28-.417.643-.45 1.09h-.96c0-.473.113-.887.34-1.24.226-.36.536-.64.93-.84.393-.2.84-.3 1.34-.3.566 0 1.036.1 1.41.3.38.2.663.463.85.79.193.327.29.68.29 1.06s-.077.7-.23.96c-.147.26-.344.483-.59.67-.247.18-.517.347-.81.5-.294.153-.587.31-.88.47-.294.153-.564.333-.81.54-.247.207-.447.46-.6.76-.147.3-.22.67-.22 1.11zm.83-.82h4.42v.82h-5.25zm8.172-3.88c.553 0 1.017.107 1.39.32.373.207.657.493.85.86s.29.783.29 1.25c0 .453-.103.867-.31 1.24-.207.367-.51.657-.91.87-.393.213-.873.32-1.44.32-.48 0-.923-.1-1.33-.3-.4-.2-.723-.48-.97-.84-.24-.36-.36-.773-.36-1.24h.92c.02.273.097.523.23.75.14.227.34.41.6.55s.58.21.96.21c.367 0 .67-.07.91-.21.247-.147.43-.34.55-.58.127-.24.19-.507.19-.8 0-.48-.147-.857-.44-1.13-.287-.28-.697-.42-1.23-.42-.413 0-.767.087-1.06.26-.287.173-.49.413-.61.72h-.56c.04-.14.113-.313.22-.52.113-.207.263-.41.45-.61.193-.2.427-.367.7-.5s.593-.2.96-.2zm-2.72 1.83.75-4.13h.92l-.78 4.13zm.91-4.13h3.69v.81h-3.69zm5.142 1.4h1.04l3.57 5.6h-1.04zm4.58 0-3.57 5.6h-1.04l3.57-5.6zm4.993 5.6-1.81-7h.94l1.71 7zm1.2 0h-.84l1.71-7h.94zm2.86 0-1.81-7h.94l1.71 7zm1.21 0h-.84l1.71-7h.94zm5.068.16c-.58 0-1.084-.123-1.51-.37-.427-.253-.76-.603-1-1.05-.234-.447-.35-.957-.35-1.53 0-.58.116-1.093.35-1.54.24-.447.573-.797 1-1.05.426-.253.93-.38 1.51-.38s1.083.127 1.51.38c.426.253.756.603.99 1.05.24.447.36.96.36 1.54 0 .573-.12 1.083-.36 1.53-.234.447-.564.797-.99 1.05-.427.247-.93.37-1.51.37zm0-.83c.386 0 .723-.087 1.01-.26.286-.173.51-.417.67-.73.16-.32.24-.697.24-1.13 0-.44-.08-.82-.24-1.14s-.384-.567-.67-.74c-.287-.173-.624-.26-1.01-.26-.387 0-.727.087-1.02.26-.287.173-.51.42-.67.74s-.24.7-.24 1.14c0 .433.08.81.24 1.13.16.313.383.557.67.73.293.173.633.26 1.02.26zm3.961-4.93h.9v5.6h-.9zm.9 2.56-.15-.73c0-.173.023-.373.07-.6.053-.227.15-.443.29-.65.147-.213.357-.39.63-.53s.633-.21 1.08-.21v.93c-.393 0-.733.057-1.02.17s-.51.3-.67.56c-.153.26-.23.613-.23 1.06zm4.867 3.2c-.5 0-.94-.123-1.32-.37-.38-.253-.677-.603-.89-1.05-.207-.447-.31-.957-.31-1.53 0-.58.103-1.093.31-1.54.213-.447.51-.797.89-1.05s.82-.38 1.32-.38c.46 0 .847.103 1.16.31.313.2.56.477.74.83v3.66c-.167.333-.407.603-.72.81s-.707.31-1.18.31zm.1-.83c.4 0 .733-.09 1-.27.267-.187.467-.44.6-.76s.2-.683.2-1.09c0-.413-.067-.78-.2-1.1-.133-.327-.333-.58-.6-.76-.267-.187-.6-.28-1-.28-.347 0-.647.087-.9.26-.247.173-.44.42-.58.74s-.21.7-.21 1.14c0 .433.07.81.21 1.13.14.313.333.557.58.73.253.173.553.26.9.26zm1.8.67v-7.5h.9v7.5zm5.489-2.27c.026.32.126.593.3.82.173.227.4.4.68.52.286.12.606.18.96.18.526 0 .95-.103 1.27-.31.326-.213.49-.503.49-.87 0-.247-.084-.44-.25-.58-.167-.14-.39-.247-.67-.32-.274-.073-.574-.137-.9-.19-.327-.053-.654-.117-.98-.19-.327-.08-.63-.19-.91-.33-.274-.14-.494-.333-.66-.58-.167-.253-.25-.58-.25-.98 0-.38.113-.727.34-1.04.226-.313.546-.56.96-.74.413-.187.9-.28 1.46-.28.506 0 .963.1 1.37.3.406.2.73.48.97.84.246.36.37.773.37 1.24h-1c-.027-.487-.184-.86-.47-1.12-.28-.26-.71-.39-1.29-.39s-1.017.107-1.31.32c-.294.213-.44.503-.44.87 0 .267.083.473.25.62.166.147.386.26.66.34.28.073.583.137.91.19.326.053.653.117.98.19.326.067.626.17.9.31.28.133.503.323.67.57.166.24.25.557.25.95 0 .653-.247 1.16-.74 1.52-.487.353-1.167.53-2.04.53-.54 0-1.027-.103-1.46-.31-.427-.213-.767-.5-1.02-.86-.247-.36-.38-.767-.4-1.22zm8.678 2.43c-.474 0-.867-.103-1.18-.31-.307-.207-.547-.477-.72-.81v-3.66c.18-.353.426-.63.74-.83.313-.207.7-.31 1.16-.31.506 0 .946.127 1.32.38.38.253.673.603.88 1.05.213.447.32.96.32 1.54 0 .573-.107 1.083-.32 1.53-.207.447-.5.797-.88 1.05-.374.247-.814.37-1.32.37zm-2.8 1.84v-7.6h.9v7.6zm2.7-2.67c.346 0 .643-.087.89-.26.253-.173.45-.417.59-.73.14-.32.21-.697.21-1.13 0-.44-.07-.82-.21-1.14s-.337-.567-.59-.74c-.247-.173-.544-.26-.89-.26-.394 0-.727.093-1 .28-.267.18-.467.433-.6.76-.134.32-.2.687-.2 1.1 0 .407.066.77.2 1.09.133.32.333.573.6.76.273.18.606.27 1 .27zm7.365-2.53h.91v3.2h-.91zm-1.36-2.56c.754 0 1.32.23 1.7.69s.57 1.083.57 1.87h-.91c0-.367-.046-.677-.14-.93-.093-.26-.24-.46-.44-.6s-.46-.21-.78-.21c-.473 0-.833.127-1.08.38-.24.253-.36.563-.36.93h-.96c0-.367.09-.71.27-1.03.187-.327.457-.59.81-.79.36-.207.8-.31 1.32-.31zm1.43 2.32.21.69c-1-.107-1.75-.047-2.25.18-.493.22-.74.53-.74.93 0 .333.104.59.31.77.214.173.52.26.92.26.314 0 .58-.07.8-.21.22-.147.387-.34.5-.58.12-.24.18-.51.18-.81l.27.49c-.053.373-.156.703-.31.99-.153.28-.363.5-.63.66-.266.153-.606.23-1.02.23-.366 0-.7-.067-1-.2-.293-.14-.526-.34-.7-.6-.173-.26-.26-.577-.26-.95 0-.36.074-.657.22-.89.147-.24.344-.43.59-.57.254-.14.54-.243.86-.31s.654-.103 1-.11c.354-.007.704.003 1.05.03zm7.39 1.09c-.026.48-.15.91-.37 1.29-.213.38-.513.68-.9.9-.38.213-.833.32-1.36.32-.58 0-1.083-.123-1.51-.37-.426-.253-.76-.603-1-1.05-.233-.447-.35-.957-.35-1.53 0-.58.117-1.093.35-1.54.24-.447.574-.797 1-1.05.427-.253.93-.38 1.51-.38.507 0 .95.113 1.33.34.387.22.69.51.91.87.22.353.344.737.37 1.15h-.95c-.026-.253-.103-.497-.23-.73-.12-.233-.296-.423-.53-.57-.233-.153-.533-.23-.9-.23-.42 0-.773.093-1.06.28-.286.187-.503.44-.65.76-.146.32-.22.687-.22 1.1 0 .407.074.77.22 1.09.147.32.364.573.65.76.287.18.64.27 1.06.27.394 0 .71-.08.95-.24s.417-.367.53-.62c.12-.26.194-.533.22-.82zm1.139-3.25h.9v5.6h-.9zm-.07-1.9h1.05v1.08h-1.05zm2.362 1.9h.9v.95c.087-.187.207-.363.36-.53.154-.173.357-.313.61-.42.254-.107.557-.16.91-.16.36 0 .684.073.97.22.294.147.52.39.68.73.167.333.25.787.25 1.36v3.45h-.9v-3.32c0-.347-.036-.643-.11-.89-.073-.247-.2-.433-.38-.56-.173-.133-.413-.2-.72-.2-.3 0-.576.09-.83.27-.253.173-.456.42-.61.74-.153.313-.23.693-.23 1.14v2.82h-.9zm8.297 5.56c-.5 0-.94-.117-1.32-.35s-.677-.563-.89-.99c-.207-.433-.31-.937-.31-1.51 0-.58.103-1.083.31-1.51.213-.433.51-.767.89-1 .38-.24.82-.36 1.32-.36.706 0 1.246.22 1.62.66.373.433.586 1.027.64 1.78l-.02.88c-.027.467-.124.88-.29 1.24-.16.36-.4.643-.72.85s-.73.31-1.23.31zm.37 2.2c-.594 0-1.07-.093-1.43-.28s-.634-.43-.82-.73c-.18-.293-.297-.597-.35-.91h.94c.066.36.24.63.52.81.28.187.66.28 1.14.28.326 0 .603-.06.83-.18.226-.113.4-.29.52-.53s.18-.547.18-.92h.9c0 .527-.104.973-.31 1.34-.2.367-.484.643-.85.83-.36.193-.784.29-1.27.29zm-.27-3.03c.6 0 1.05-.18 1.35-.54.3-.367.45-.86.45-1.48 0-.627-.15-1.123-.45-1.49s-.75-.55-1.35-.55c-.514 0-.924.177-1.23.53-.307.347-.46.85-.46 1.51 0 .653.153 1.153.46 1.5.306.347.716.52 1.23.52zm1.8.57v-5.3h.9v5.3z" fill="#201c1d"/><path d="m173.327 136.829c.027.32.127.593.3.82.173.226.4.4.68.52.287.12.607.18.96.18.527 0 .95-.104 1.27-.31.327-.214.49-.504.49-.87 0-.247-.083-.44-.25-.58s-.39-.247-.67-.32c-.273-.074-.573-.137-.9-.19-.327-.054-.653-.117-.98-.19-.327-.08-.63-.19-.91-.33-.273-.14-.493-.334-.66-.58-.167-.254-.25-.58-.25-.98 0-.38.113-.727.34-1.04.227-.314.547-.56.96-.74.413-.187.9-.28 1.46-.28.507 0 .963.1 1.37.3s.73.48.97.84c.247.36.37.773.37 1.24h-1c-.027-.487-.183-.86-.47-1.12-.28-.26-.71-.39-1.29-.39s-1.017.106-1.31.32c-.293.213-.44.503-.44.87 0 .266.083.473.25.62.167.146.387.26.66.34.28.073.583.136.91.19.327.053.653.116.98.19.327.066.627.17.9.31.28.133.503.323.67.57.167.24.25.556.25.95 0 .653-.247 1.16-.74 1.52-.487.353-1.167.53-2.04.53-.54 0-1.027-.104-1.46-.31-.427-.214-.767-.5-1.02-.86-.247-.36-.38-.767-.4-1.22zm11.089-.08c-.026.48-.15.91-.37 1.29-.213.38-.513.68-.9.9-.38.213-.833.32-1.36.32-.58 0-1.083-.124-1.51-.37-.426-.254-.76-.604-1-1.05-.233-.447-.35-.957-.35-1.53 0-.58.117-1.094.35-1.54.24-.447.574-.797 1-1.05.427-.254.93-.38 1.51-.38.507 0 .95.113 1.33.34.387.22.69.51.91.87.22.353.344.736.37 1.15h-.95c-.026-.254-.103-.497-.23-.73-.12-.234-.296-.424-.53-.57-.233-.154-.533-.23-.9-.23-.42 0-.773.093-1.06.28-.286.186-.503.44-.65.76-.146.32-.22.686-.22 1.1 0 .406.074.77.22 1.09.147.32.364.573.65.76.287.18.64.27 1.06.27.394 0 .71-.08.95-.24s.417-.367.53-.62c.12-.26.194-.534.22-.82zm4.698-.85h.91v3.2h-.91zm-1.36-2.56c.754 0 1.32.23 1.7.69s.57 1.083.57 1.87h-.91c0-.367-.046-.677-.14-.93-.093-.26-.24-.46-.44-.6s-.46-.21-.78-.21c-.473 0-.833.126-1.08.38-.24.253-.36.563-.36.93h-.96c0-.367.09-.71.27-1.03.187-.327.457-.59.81-.79.36-.207.8-.31 1.32-.31zm1.43 2.32.21.69c-1-.107-1.75-.047-2.25.18-.493.22-.74.53-.74.93 0 .333.104.59.31.77.214.173.52.26.92.26.314 0 .58-.07.8-.21.22-.147.387-.34.5-.58.12-.24.18-.51.18-.81l.27.49c-.053.373-.156.703-.31.99-.153.28-.363.5-.63.66-.266.153-.606.23-1.02.23-.366 0-.7-.067-1-.2-.293-.14-.526-.34-.7-.6-.173-.26-.26-.577-.26-.95 0-.36.074-.657.22-.89.147-.24.344-.43.59-.57.254-.14.54-.244.86-.31.32-.067.654-.104 1-.11.354-.007.704.003 1.05.03zm2.111-4.06h.9v7.5h-.9zm2.507 4.22h4.79l.12.79h-4.91zm4.9 1.51c-.094.386-.254.723-.48 1.01-.227.286-.517.513-.87.68-.347.16-.747.24-1.2.24-.58 0-1.084-.124-1.51-.37-.427-.254-.76-.604-1-1.05-.234-.447-.35-.957-.35-1.53 0-.58.116-1.094.35-1.54.24-.447.573-.797 1-1.05.426-.254.93-.38 1.51-.38.38 0 .733.073 1.06.22.333.146.616.36.85.64.24.28.416.623.53 1.03.12.4.16.86.12 1.38l-.86-.45c0-.387-.067-.73-.2-1.03-.134-.3-.327-.534-.58-.7-.247-.174-.554-.26-.92-.26-.42 0-.774.093-1.06.28-.287.18-.504.433-.65.76-.147.32-.22.686-.22 1.1 0 .406.073.77.22 1.09.146.32.363.573.65.76.286.18.64.27 1.06.27.453 0 .806-.107 1.06-.32.253-.214.43-.474.53-.78zm3.418 1.93c-.5 0-.94-.124-1.32-.37-.38-.254-.677-.604-.89-1.05-.207-.447-.31-.957-.31-1.53 0-.58.103-1.094.31-1.54.213-.447.51-.797.89-1.05.38-.254.82-.38 1.32-.38.46 0 .847.103 1.16.31.313.2.56.476.74.83v3.66c-.167.333-.407.603-.72.81-.313.206-.707.31-1.18.31zm.1-.83c.4 0 .733-.09 1-.27.267-.187.467-.44.6-.76s.2-.684.2-1.09c0-.414-.067-.78-.2-1.1-.133-.327-.333-.58-.6-.76-.267-.187-.6-.28-1-.28-.347 0-.647.086-.9.26-.247.173-.44.42-.58.74s-.21.7-.21 1.14c0 .433.07.81.21 1.13.14.313.333.556.58.73.253.173.553.26.9.26zm1.8.67v-7.5h.9v7.5zm4.349-5.6h2.95v.77h-2.95zm.94-1.4h.9v5.58c0 .226.053.393.16.5.106.1.26.15.46.15h.65v.77h-.66c-.507 0-.887-.13-1.14-.39-.247-.26-.37-.604-.37-1.03zm5.641 7.16c-.58 0-1.083-.124-1.51-.37-.426-.254-.76-.604-1-1.05-.233-.447-.35-.957-.35-1.53 0-.58.117-1.094.35-1.54.24-.447.574-.797 1-1.05.427-.254.93-.38 1.51-.38s1.084.126 1.51.38c.427.253.757.603.99 1.05.24.446.36.96.36 1.54 0 .573-.12 1.083-.36 1.53-.233.446-.563.796-.99 1.05-.426.246-.93.37-1.51.37zm0-.83c.387 0 .724-.087 1.01-.26.287-.174.51-.417.67-.73.16-.32.24-.697.24-1.13 0-.44-.08-.82-.24-1.14s-.383-.567-.67-.74c-.286-.174-.623-.26-1.01-.26-.386 0-.726.086-1.02.26-.286.173-.51.42-.67.74s-.24.7-.24 1.14c0 .433.08.81.24 1.13.16.313.384.556.67.73.294.173.634.26 1.02.26zm10.685.67-4.58-7h1.08l4.58 7zm-3.53 0h-1.08l4.58-7h1.08zm4.921-3.58h3.15v.76h-3.15zm4.377-3.42h.92v7h-.92zm4.61 0h.93v7h-.93zm-4.21 3.08h4.92v.8h-4.92zm6.793.64h4.79l.12.79h-4.91zm4.9 1.51c-.093.386-.253.723-.48 1.01-.226.286-.516.513-.87.68-.346.16-.746.24-1.2.24-.58 0-1.083-.124-1.51-.37-.426-.254-.76-.604-1-1.05-.233-.447-.35-.957-.35-1.53 0-.58.117-1.094.35-1.54.24-.447.574-.797 1-1.05.427-.254.93-.38 1.51-.38.38 0 .734.073 1.06.22.334.146.617.36.85.64.24.28.417.623.53 1.03.12.4.16.86.12 1.38l-.86-.45c0-.387-.066-.73-.2-1.03-.133-.3-.326-.534-.58-.7-.246-.174-.553-.26-.92-.26-.42 0-.773.093-1.06.28-.286.18-.503.433-.65.76-.146.32-.22.686-.22 1.1 0 .406.074.77.22 1.09.147.32.364.573.65.76.287.18.64.27 1.06.27.454 0 .807-.107 1.06-.32.254-.214.43-.474.53-.78zm1.17-3.83h.9v5.6h-.9zm-.07-1.9h1.05v1.08h-1.05zm4.634 7.46c-.5 0-.94-.117-1.32-.35-.38-.234-.677-.564-.89-.99-.207-.434-.31-.937-.31-1.51 0-.58.103-1.084.31-1.51.213-.434.51-.767.89-1 .38-.24.82-.36 1.32-.36.706 0 1.246.22 1.62.66.373.433.586 1.026.64 1.78l-.02.88c-.027.466-.124.88-.29 1.24-.16.36-.4.643-.72.85-.32.206-.73.31-1.23.31zm.37 2.2c-.594 0-1.07-.094-1.43-.28-.36-.187-.634-.43-.82-.73-.18-.294-.297-.597-.35-.91h.94c.066.36.24.63.52.81.28.186.66.28 1.14.28.326 0 .603-.06.83-.18.226-.114.4-.29.52-.53s.18-.547.18-.92h.9c0 .526-.104.973-.31 1.34-.2.366-.484.643-.85.83-.36.193-.784.29-1.27.29zm-.27-3.03c.6 0 1.05-.18 1.35-.54.3-.367.45-.86.45-1.48 0-.627-.15-1.124-.45-1.49-.3-.367-.75-.55-1.35-.55-.514 0-.924.176-1.23.53-.307.346-.46.85-.46 1.51 0 .653.153 1.153.46 1.5.306.346.716.52 1.23.52zm1.8.57v-5.3h.9v5.3zm2.216-7.2h.9v7.5h-.9zm.9 4.68-.16-1.07c0-.174.033-.367.1-.58.066-.214.176-.417.33-.61.16-.2.37-.364.63-.49.266-.127.593-.19.98-.19.36 0 .683.073.97.22.293.146.52.39.68.73.166.333.25.786.25 1.36v3.45h-.9v-3.32c0-.347-.037-.644-.11-.89-.074-.247-.2-.434-.38-.56-.174-.134-.414-.2-.72-.2-.3 0-.577.09-.83.27-.254.173-.457.42-.61.74-.154.313-.23.693-.23 1.14zm4.631-2.78h2.95v.77h-2.95zm.94-1.4h.9v5.58c0 .226.053.393.16.5.106.1.26.15.46.15h.65v.77h-.66c-.507 0-.887-.13-1.14-.39-.247-.26-.37-.604-.37-1.03z" fill="#201c1d"/><path d="m459.854 361.993h.92v7h-.92zm-1.68 0h1.95v.81h-1.95zm0 6.19h1.95v.81h-1.95zm2.33 0h1.95v.81h-1.95zm2.759-4.79h1.04l3.57 5.6h-1.04zm4.58 0-3.57 5.6h-1.04l3.57-5.6zm4.993 5.6-1.81-7h.94l1.71 7zm1.2 0h-.84l1.71-7h.94zm2.86 0-1.81-7h.94l1.71 7zm1.21 0h-.84l1.71-7h.94zm5.068.16c-.58 0-1.083-.123-1.51-.37-.427-.253-.76-.603-1-1.05-.233-.447-.35-.957-.35-1.53 0-.58.117-1.093.35-1.54.24-.447.573-.797 1-1.05s.93-.38 1.51-.38 1.083.127 1.51.38.757.603.99 1.05c.24.447.36.96.36 1.54 0 .573-.12 1.083-.36 1.53-.233.447-.563.797-.99 1.05-.427.247-.93.37-1.51.37zm0-.83c.387 0 .723-.087 1.01-.26s.51-.417.67-.73c.16-.32.24-.697.24-1.13 0-.44-.08-.82-.24-1.14s-.383-.567-.67-.74-.623-.26-1.01-.26-.727.087-1.02.26c-.287.173-.51.42-.67.74s-.24.7-.24 1.14c0 .433.08.81.24 1.13.16.313.383.557.67.73.293.173.633.26 1.02.26zm3.961-4.93h.9v5.6h-.9zm.9 2.56-.15-.73c0-.173.024-.373.07-.6.054-.227.15-.443.29-.65.147-.213.357-.39.63-.53.274-.14.634-.21 1.08-.21v.93c-.393 0-.733.057-1.02.17-.286.113-.51.3-.67.56-.153.26-.23.613-.23 1.06zm4.867 3.2c-.5 0-.94-.123-1.32-.37-.38-.253-.676-.603-.89-1.05-.206-.447-.31-.957-.31-1.53 0-.58.104-1.093.31-1.54.214-.447.51-.797.89-1.05s.82-.38 1.32-.38c.46 0 .847.103 1.16.31.314.2.56.477.74.83v3.66c-.166.333-.406.603-.72.81-.313.207-.706.31-1.18.31zm.1-.83c.4 0 .734-.09 1-.27.267-.187.467-.44.6-.76.134-.32.2-.683.2-1.09 0-.413-.066-.78-.2-1.1-.133-.327-.333-.58-.6-.76-.266-.187-.6-.28-1-.28-.346 0-.646.087-.9.26-.246.173-.44.42-.58.74s-.21.7-.21 1.14c0 .433.07.81.21 1.13.14.313.334.557.58.73.254.173.554.26.9.26zm1.8.67v-7.5h.9v7.5zm5.489-2.27c.027.32.127.593.3.82s.4.4.68.52c.287.12.607.18.96.18.527 0 .95-.103 1.27-.31.327-.213.49-.503.49-.87 0-.247-.083-.44-.25-.58s-.39-.247-.67-.32c-.273-.073-.573-.137-.9-.19s-.653-.117-.98-.19c-.327-.08-.63-.19-.91-.33-.273-.14-.493-.333-.66-.58-.167-.253-.25-.58-.25-.98 0-.38.113-.727.34-1.04s.547-.56.96-.74c.413-.187.9-.28 1.46-.28.507 0 .963.1 1.37.3s.73.48.97.84c.247.36.37.773.37 1.24h-1c-.027-.487-.183-.86-.47-1.12-.28-.26-.71-.39-1.29-.39s-1.017.107-1.31.32-.44.503-.44.87c0 .267.083.473.25.62s.387.26.66.34c.28.073.583.137.91.19s.653.117.98.19c.327.067.627.17.9.31.28.133.503.323.67.57.167.24.25.557.25.95 0 .653-.247 1.16-.74 1.52-.487.353-1.167.53-2.04.53-.54 0-1.027-.103-1.46-.31-.427-.213-.767-.5-1.02-.86-.247-.36-.38-.767-.4-1.22zm8.678 2.43c-.473 0-.867-.103-1.18-.31-.307-.207-.547-.477-.72-.81v-3.66c.18-.353.427-.63.74-.83.313-.207.7-.31 1.16-.31.507 0 .947.127 1.32.38.38.253.673.603.88 1.05.213.447.32.96.32 1.54 0 .573-.107 1.083-.32 1.53-.207.447-.5.797-.88 1.05-.373.247-.813.37-1.32.37zm-2.8 1.84v-7.6h.9v7.6zm2.7-2.67c.347 0 .643-.087.89-.26.253-.173.45-.417.59-.73.14-.32.21-.697.21-1.13 0-.44-.07-.82-.21-1.14s-.337-.567-.59-.74c-.247-.173-.543-.26-.89-.26-.393 0-.727.093-1 .28-.267.18-.467.433-.6.76-.133.32-.2.687-.2 1.1 0 .407.067.77.2 1.09s.333.573.6.76c.273.18.607.27 1 .27zm7.366-2.53h.91v3.2h-.91zm-1.36-2.56c.753 0 1.32.23 1.7.69s.57 1.083.57 1.87h-.91c0-.367-.047-.677-.14-.93-.094-.26-.24-.46-.44-.6s-.46-.21-.78-.21c-.474 0-.834.127-1.08.38-.24.253-.36.563-.36.93h-.96c0-.367.09-.71.27-1.03.186-.327.456-.59.81-.79.36-.207.8-.31 1.32-.31zm1.43 2.32.21.69c-1-.107-1.75-.047-2.25.18-.494.22-.74.53-.74.93 0 .333.103.59.31.77.213.173.52.26.92.26.313 0 .58-.07.8-.21.22-.147.386-.34.5-.58.12-.24.18-.51.18-.81l.27.49c-.054.373-.157.703-.31.99-.154.28-.364.5-.63.66-.267.153-.607.23-1.02.23-.367 0-.7-.067-1-.2-.294-.14-.527-.34-.7-.6-.174-.26-.26-.577-.26-.95 0-.36.073-.657.22-.89.146-.24.343-.43.59-.57.253-.14.54-.243.86-.31s.653-.103 1-.11c.353-.007.703.003 1.05.03zm7.39 1.09c-.027.48-.15.91-.37 1.29-.214.38-.514.68-.9.9-.38.213-.834.32-1.36.32-.58 0-1.084-.123-1.51-.37-.427-.253-.76-.603-1-1.05-.234-.447-.35-.957-.35-1.53 0-.58.116-1.093.35-1.54.24-.447.573-.797 1-1.05.426-.253.93-.38 1.51-.38.506 0 .95.113 1.33.34.386.22.69.51.91.87.22.353.343.737.37 1.15h-.95c-.027-.253-.104-.497-.23-.73-.12-.233-.297-.423-.53-.57-.234-.153-.534-.23-.9-.23-.42 0-.774.093-1.06.28-.287.187-.504.44-.65.76-.147.32-.22.687-.22 1.1 0 .407.073.77.22 1.09.146.32.363.573.65.76.286.18.64.27 1.06.27.393 0 .71-.08.95-.24s.416-.367.53-.62c.12-.26.193-.533.22-.82zm1.138-3.25h.9v5.6h-.9zm-.07-1.9h1.05v1.08h-1.05zm2.363 1.9h.9v.95c.086-.187.206-.363.36-.53.153-.173.356-.313.61-.42.253-.107.556-.16.91-.16.36 0 .683.073.97.22.293.147.52.39.68.73.166.333.25.787.25 1.36v3.45h-.9v-3.32c0-.347-.037-.643-.11-.89-.074-.247-.2-.433-.38-.56-.174-.133-.414-.2-.72-.2-.3 0-.577.09-.83.27-.254.173-.457.42-.61.74-.154.313-.23.693-.23 1.14v2.82h-.9zm8.296 5.56c-.5 0-.94-.117-1.32-.35s-.677-.563-.89-.99c-.207-.433-.31-.937-.31-1.51 0-.58.103-1.083.31-1.51.213-.433.51-.767.89-1 .38-.24.82-.36 1.32-.36.707 0 1.247.22 1.62.66.373.433.587 1.027.64 1.78l-.02.88c-.027.467-.123.88-.29 1.24-.16.36-.4.643-.72.85s-.73.31-1.23.31zm.37 2.2c-.593 0-1.07-.093-1.43-.28s-.633-.43-.82-.73c-.18-.293-.297-.597-.35-.91h.94c.067.36.24.63.52.81.28.187.66.28 1.14.28.327 0 .603-.06.83-.18.227-.113.4-.29.52-.53s.18-.547.18-.92h.9c0 .527-.103.973-.31 1.34-.2.367-.483.643-.85.83-.36.193-.783.29-1.27.29zm-.27-3.03c.6 0 1.05-.18 1.35-.54.3-.367.45-.86.45-1.48 0-.627-.15-1.123-.45-1.49s-.75-.55-1.35-.55c-.513 0-.923.177-1.23.53-.307.347-.46.85-.46 1.51 0 .653.153 1.153.46 1.5s.717.52 1.23.52zm1.8.57v-5.3h.9v5.3z" fill="#201c1d"/></g></svg>