<svg fill="none" height="500" viewBox="0 0 966 500" width="966" xmlns="http://www.w3.org/2000/svg" xmlns:xlink="http://www.w3.org/1999/xlink"><clipPath id="a"><path d="m207.545 222.024h645.055v73.4939h-645.055z"/></clipPath><clipPath id="b"><path d="m207.545 222.653h645.055v72.4588h-645.055z"/></clipPath><path d="m0 0h966v500h-966z" fill="#ff5e00"/><g clip-path="url(#a)"><g clip-path="url(#b)"><path d="m235.534 283.689c7.653 0 13.229-2.937 13.229-8.377 0-13.491-40.452-.762-40.452-27.852 0-10.553 10.058-19.475 26.239-19.475 14.213 0 25.802 9.248 25.802 22.521h-12.791c-.547-7.18-4.702-11.423-13.448-11.423-8.637 0-13.12 3.481-13.12 8.377 0 14.688 40.343.979 40.343 27.852 0 12.403-9.839 19.366-26.458 19.366-15.415 0-26.895-9.683-27.333-22.63h12.902c.655 7.29 6.887 11.641 15.087 11.641zm29.082-43.083h7.216v-11.097h11.917v11.097h9.075v10.118h-9.075v32.748h5.358 5.247v10.118h-5.357l-17.165-.109v-42.757h-7.106zm44.061 26.546c0 10.01 4.81 17.19 13.557 17.19 9.621 0 14.322-7.398 14.322-17.19 0-9.791-4.701-17.407-14.322-17.407-8.747 0-13.557 7.289-13.557 17.407zm11.698-28.069c7.544 0 12.792 3.046 16.181 8.377v-6.854h11.917v52.984h-11.917v-6.745c-3.17 5.113-8.309 8.268-16.181 8.268-14.869 0-23.943-11.532-23.943-27.961 0-16.428 9.074-28.069 23.943-28.069zm60.242 56.03c-16.4 0-27.114-11.532-27.114-27.961 0-16.428 10.714-28.069 27.114-28.069 14.541 0 24.709 10.662 24.818 22.303h-12.464c-.328-5.766-3.826-11.532-12.354-11.532-10.387 0-14.869 7.507-14.869 17.298 0 9.792 4.482 17.081 14.869 17.081 8.856 0 12.354-6.201 12.682-12.838h12.355c-.219 13.709-9.949 23.718-25.037 23.718zm29.629-65.604h12.026v32.312l17.165-21.215h14.104l-17.275 21.324 19.024 31.66h-13.338l-12.901-22.956-6.779 8.486v14.47h-12.026zm111.19 31.986c0-10.88-6.014-22.412-19.899-22.412-13.994 0-20.226 11.532-20.226 22.412s6.232 22.521 20.226 22.521c13.885 0 19.899-11.641 19.899-22.521zm-52.807 0c0-18.169 11.698-33.51 32.908-33.51 21.101 0 31.597 15.341 32.8 33.51-1.203 18.387-11.699 33.618-32.8 33.618-21.21 0-32.908-15.231-32.908-33.618zm65.817-20.889h12.792l11.917 42.322 12.026-42.322h12.792l-16.618 52.984h-16.291zm61.116 20.671h26.896c-.656-6.31-4.592-11.532-12.464-11.532-8.309 0-12.792 4.787-14.432 11.532zm14.432 33.836c-16.509 0-27.224-11.532-27.224-27.961 0-16.428 10.715-28.069 27.224-28.069 14.432 0 26.786 11.641 24.162 31.986h-38.813c.984 7.725 5.576 13.273 14.651 13.273 6.232 0 10.168-3.264 11.808-7.616h12.463c-2.296 10.88-11.37 18.387-24.271 18.387zm29.301-54.507v52.984h11.917v-42.866h17.165v-10.118zm56.196-17.952c-11.48 0-16.946 5.331-16.946 14.797v3.155h-5.467v10.118h5.467v42.866h11.917v-42.866h12.682v-10.118h-12.682v-3.155c0-3.047 1.749-4.679 5.138-4.679h8.637v-10.118zm13.448 0v70.936h12.026v-70.936zm29.41 44.498c0 10.01 5.029 17.19 14.978 17.19s14.979-7.18 14.979-17.19c0-9.791-5.03-17.407-14.979-17.407s-14.978 7.616-14.978 17.407zm14.978-28.069c16.4 0 27.552 11.641 27.114 28.069.438 16.429-10.714 27.961-27.114 27.961-16.509 0-27.223-11.532-27.223-27.961 0-16.428 10.714-28.069 27.223-28.069zm27.552 1.523h12.791l7.654 39.711 8.855-39.711h13.011l8.856 39.82 7.872-39.82h12.682l-12.792 52.984h-15.853l-7.216-32.422-7.216 32.422h-15.853z" fill="#1d1a1b"/></g></g><path d="m179.186 251.145.136.071-.036.035-.1-.099c-3.039 3.886-5.587 8.166-7.551 12.74-.029.071-.057.134-.086.204-1.893 4.462-3.238 9.206-3.943 14.16-.007.028-.007.063-.007.091-.377 2.628-.569 5.313-.569 8.039 0 2.319.142 4.61.412 6.858h-56.442v-14.988h49.012c.092-.619.199-1.223.313-1.834l-47.218-12.494 3.929-14.483 47.801 12.648c.221-.484.449-.962.677-1.44l-42.898-24.454 7.587-12.979 43.538 24.812c.342-.407.691-.815 1.054-1.215l-35.673-35.213 10.74-10.604 36.243 35.789 3.829 3.78c-4.029 3.05-7.644 6.606-10.748 10.576z" fill="#1d1a1b"/></svg>