<svg width="966" height="500" viewBox="0 0 966 500" fill="none" xmlns="http://www.w3.org/2000/svg">
<rect width="966" height="500" fill="#E5E5E5"/>
<rect x="128.402" y="153.914" width="709.194" height="196.501" fill="white"/>
<rect x="165.894" y="190.949" width="634.211" height="74.0342" stroke="#FF5E00" stroke-width="0.474626" stroke-dasharray="0.95 0.95"/>
<rect x="165.894" y="286.345" width="634.211" height="26.5782" stroke="#FF5E00" stroke-width="0.474626" stroke-dasharray="0.95 0.95"/>
<rect x="165.657" y="265.221" width="37.2544" height="20.8872" fill="#FF5E00" fill-opacity="0.14"/>
<rect x="165.657" y="286.107" width="37.2544" height="26.4631" fill="#FF5E00" fill-opacity="0.14"/>
<rect x="165.657" y="190.712" width="37.2544" height="74.5079" fill="#FF5E00" fill-opacity="0.14"/>
<rect x="165.657" y="153.914" width="37.2544" height="37.2535" transform="rotate(90 165.657 153.914)" fill="#FF5E00" fill-opacity="0.14"/>
<rect x="165.657" y="313.16" width="37.2544" height="37.2535" transform="rotate(90 165.657 313.16)" fill="#FF5E00" fill-opacity="0.14"/>
<rect x="837.596" y="313.16" width="37.2544" height="37.2535" transform="rotate(90 837.596 313.16)" fill="#FF5E00" fill-opacity="0.14"/>
<rect x="837.596" y="153.914" width="37.2544" height="37.2535" transform="rotate(90 837.596 153.914)" fill="#FF5E00" fill-opacity="0.14"/>
<path d="M180.893 229.102C180.923 226.984 183.561 227.305 183.561 226.053C183.561 225.545 183.155 225.206 182.544 225.206C181.788 225.206 181.443 225.629 181.407 226.21H180.941C180.941 225.357 181.607 224.77 182.514 224.77C183.542 224.77 184.032 225.393 184.032 226.029C184.032 227.559 181.831 227.293 181.474 228.69H184.044V229.102H180.893ZM184.335 225.714H184.837L185.66 227.003L186.477 225.714H186.979L185.908 227.396L186.997 229.102H186.495L185.66 227.789L184.819 229.102H184.317L185.406 227.396L184.335 225.714Z" fill="#FF5E00"/>
<path d="M179.184 277.804H180.2V274.368H179.184V273.969H180.654V277.804H181.67V278.203H179.184V277.804ZM183.093 273.969H183.559L182.349 278.203H181.883L183.093 273.969ZM183.832 278.203C183.862 276.086 186.499 276.407 186.499 275.154C186.499 274.646 186.094 274.308 185.483 274.308C184.727 274.308 184.382 274.731 184.346 275.312H183.88C183.88 274.459 184.545 273.872 185.453 273.872C186.481 273.872 186.971 274.495 186.971 275.13C186.971 276.661 184.769 276.394 184.412 277.792H186.983V278.203H183.832ZM187.788 278.203H187.256L188.653 276.074L187.274 273.969H187.806L188.919 275.663L190.026 273.969H190.559L189.185 276.074L190.577 278.203H190.044L188.919 276.479L187.788 278.203Z" fill="#FF5E00"/>
<path d="M179.253 299.52H179.676C180.438 299.52 180.771 299.296 180.771 298.794C180.771 298.364 180.378 297.983 179.682 297.983C179.023 297.983 178.527 298.37 178.491 298.987H178.025C178.025 298.135 178.805 297.548 179.67 297.548C180.711 297.548 181.243 298.116 181.243 298.794C181.243 299.163 181.019 299.526 180.547 299.713C181.025 299.871 181.273 300.228 181.273 300.681C181.273 301.407 180.674 301.976 179.676 301.976C178.739 301.976 178.025 301.389 178.025 300.536H178.491C178.527 301.117 179.017 301.54 179.676 301.54C180.39 301.54 180.801 301.141 180.801 300.669C180.801 300.179 180.372 299.943 179.694 299.943H179.253V299.52ZM182.776 297.645H183.242L182.032 301.879H181.566L182.776 297.645ZM185.311 297.645H185.934V300.415H186.696V300.814H185.934V301.879H185.493V300.814H183.454V300.488L185.311 297.645ZM183.992 300.415H185.493V298.068L183.992 300.415ZM187.501 301.879H186.968L188.366 299.75L186.986 297.645H187.519L188.632 299.338L189.739 297.645H190.271L188.898 299.75L190.289 301.879H189.757L188.632 300.155L187.501 301.879Z" fill="#FF5E00"/>
<path d="M184.029 261.585C184.113 261.669 184.248 261.669 184.331 261.585L185.688 260.228C185.771 260.145 185.771 260.01 185.688 259.927C185.604 259.844 185.469 259.844 185.386 259.927L184.18 261.133L182.974 259.927C182.891 259.844 182.756 259.844 182.673 259.927C182.589 260.01 182.589 260.145 182.673 260.228L184.029 261.585ZM184.18 233.353L183.967 233.353L183.967 261.435L184.18 261.435L184.393 261.435L184.393 233.353L184.18 233.353Z" fill="#FF5E00"/>
<path d="M184.323 194.348C184.24 194.265 184.105 194.265 184.022 194.348L182.665 195.705C182.582 195.788 182.582 195.923 182.665 196.007C182.748 196.09 182.883 196.09 182.966 196.007L184.172 194.801L185.378 196.007C185.462 196.09 185.597 196.09 185.68 196.007C185.763 195.923 185.763 195.788 185.68 195.705L184.323 194.348ZM184.172 222.581L184.386 222.581L184.386 194.499L184.172 194.499L183.959 194.499L183.959 222.581L184.172 222.581Z" fill="#FF5E00"/>
<path d="M280.537 312.57L280.537 190.713" stroke="#FF5E00" stroke-width="0.426393" stroke-dasharray="0.85 0.85"/>
<path d="M800.343 286.107L800.343 265.221" stroke="#FF5E00" stroke-width="0.426393" stroke-dasharray="0.85 0.85"/>
<g clip-path="url(#clip0_1_29665)">
<g clip-path="url(#clip1_1_29665)">
<path d="M303.094 256.996C309.263 256.996 313.757 254.629 313.757 250.244C313.757 239.371 281.153 249.63 281.153 227.796C281.153 219.291 289.26 212.1 302.301 212.1C313.757 212.1 323.097 219.554 323.097 230.252H312.787C312.347 224.464 308.998 221.044 301.949 221.044C294.987 221.044 291.375 223.85 291.375 227.796C291.375 239.634 323.89 228.586 323.89 250.244C323.89 260.241 315.959 265.853 302.566 265.853C290.141 265.853 280.889 258.048 280.536 247.614H290.934C291.463 253.489 296.485 256.996 303.094 256.996ZM326.534 222.272H332.349V213.328H341.954V222.272H349.268V230.427H341.954V256.821H346.272H350.502V264.976H346.184L332.349 264.888V230.427H326.622L326.534 222.272ZM362.045 243.668C362.045 251.735 365.922 257.522 372.972 257.522C380.726 257.522 384.515 251.56 384.515 243.668C384.515 235.776 380.726 229.638 372.972 229.638C365.922 229.638 362.045 235.513 362.045 243.668ZM371.474 221.044C377.554 221.044 381.783 223.5 384.515 227.796V222.272H394.12V264.976H384.515V259.539C381.96 263.66 377.818 266.203 371.474 266.203C359.49 266.203 352.176 256.909 352.176 243.668C352.176 230.427 359.49 221.044 371.474 221.044ZM420.027 266.203C406.809 266.203 398.173 256.909 398.173 243.668C398.173 230.427 406.809 221.044 420.027 221.044C431.746 221.044 439.941 229.638 440.029 239.02H429.984C429.719 234.373 426.9 229.725 420.027 229.725C411.655 229.725 408.043 235.776 408.043 243.668C408.043 251.56 411.655 257.435 420.027 257.435C427.164 257.435 429.984 252.436 430.248 247.088H440.205C440.029 258.136 432.187 266.203 420.027 266.203ZM443.906 213.328H453.599V239.371L467.434 222.272H478.801L464.878 239.459L480.211 264.976H469.461L459.063 246.474L453.599 253.313V264.976H443.906V213.328ZM533.522 239.108C533.522 230.339 528.676 221.044 517.485 221.044C506.206 221.044 501.183 230.339 501.183 239.108C501.183 247.877 506.206 257.259 517.485 257.259C528.676 257.259 533.522 247.877 533.522 239.108ZM490.961 239.108C490.961 224.464 500.39 212.1 517.485 212.1C534.491 212.1 542.951 224.464 543.92 239.108C542.951 253.927 534.491 266.203 517.485 266.203C500.39 266.203 490.961 253.927 490.961 239.108ZM544.008 222.272H554.318L563.923 256.382L573.616 222.272H583.926L570.532 264.976H557.402L544.008 222.272ZM593.266 238.933H614.943C614.414 233.847 611.242 229.638 604.898 229.638C598.201 229.638 594.588 233.496 593.266 238.933ZM604.898 266.203C591.592 266.203 582.956 256.909 582.956 243.668C582.956 230.427 591.592 221.044 604.898 221.044C616.529 221.044 626.486 230.427 624.372 246.824H593.09C593.883 253.05 597.584 257.522 604.898 257.522C609.92 257.522 613.093 254.892 614.414 251.384H624.46C622.609 260.153 615.295 266.203 604.898 266.203ZM628.513 222.272V264.976H638.118V230.427H651.952V222.272H628.513ZM673.806 207.804C664.553 207.804 660.147 212.1 660.147 219.729V222.272H655.742V230.427H660.147V264.976H669.752V230.427H679.974V222.272H669.752V219.729C669.752 217.274 671.162 215.959 673.894 215.959H680.855V207.804H673.806ZM684.644 207.804V264.976H694.337V207.804H684.644ZM708.348 243.668C708.348 251.735 712.401 257.522 720.42 257.522C728.439 257.522 732.492 251.735 732.492 243.668C732.492 235.776 728.439 229.638 720.42 229.638C712.401 229.638 708.348 235.776 708.348 243.668ZM720.42 221.044C733.638 221.044 742.626 230.427 742.273 243.668C742.626 256.909 733.638 266.203 720.42 266.203C707.114 266.203 698.479 256.909 698.479 243.668C698.479 230.427 707.114 221.044 720.42 221.044ZM742.626 222.272H752.935L759.104 254.278L766.241 222.272H776.727L783.865 254.366L790.209 222.272H800.431L790.121 264.976H777.344L771.528 238.845L765.712 264.976H752.935L742.626 222.272Z" fill="#201C1D"/>
</g>
</g>
<path d="M257.98 231.172L258.09 231.229L258.061 231.257L257.98 231.178C255.526 234.316 253.468 237.772 251.881 241.467C251.858 241.523 251.835 241.575 251.812 241.631C250.283 245.235 249.197 249.066 248.628 253.066C248.622 253.089 248.622 253.117 248.622 253.14C248.317 255.263 248.162 257.43 248.162 259.632C248.162 261.505 248.277 263.355 248.495 265.171L202.91 265.171L202.91 253.066L242.494 253.066C242.569 252.567 242.655 252.079 242.747 251.585L204.612 241.495L207.785 229.799L246.392 240.014C246.57 239.622 246.754 239.236 246.938 238.851L212.292 219.102L218.42 208.62L253.583 228.658C253.859 228.329 254.14 228 254.434 227.677L225.622 199.239L234.297 190.676L263.568 219.578L266.661 222.632C263.407 225.094 260.487 227.966 257.98 231.172Z" fill="#201C1D"/>
<path d="M281.145 285.358H289.166C295.846 285.358 299.945 287.443 299.945 293.239C299.945 298.999 295.846 301.155 289.166 301.155H284.396V310.096H281.145V285.358ZM289.166 298.292C293.867 298.292 296.552 297.197 296.552 293.239C296.552 289.246 293.867 288.221 289.166 288.221H284.396V298.292H289.166ZM315.221 300.236V290.306H318.401V310.096H315.221V306.703C314.337 308.717 312.358 310.661 308.577 310.661C304.76 310.661 301.862 308.541 301.862 302.498V290.306H305.043V302.038C305.043 305.678 306.103 307.869 309.319 307.869C312.499 307.869 315.221 304.936 315.221 300.236ZM321.313 310.096V283.591H324.494V293.734C325.766 291.26 327.992 289.74 331.208 289.74C336.58 289.74 340.114 294.087 340.114 300.236C340.114 306.35 336.58 310.661 331.208 310.661C327.886 310.661 325.731 309.142 324.494 306.774V310.096H321.313ZM330.855 307.728C334.459 307.728 336.827 304.83 336.827 300.236C336.827 295.571 334.459 292.674 330.855 292.674C326.649 292.674 324.494 295.854 324.494 300.236C324.494 304.583 326.649 307.728 330.855 307.728ZM342.314 283.591H345.494V310.096H342.314V283.591ZM348.475 283.591H352.185V287.408H348.475V283.591ZM348.722 290.306H351.938V310.096H348.722V290.306ZM373.603 301.791C373.321 306.915 369.893 310.661 364.309 310.661C358.196 310.661 354.202 306.35 354.202 300.236C354.202 294.087 358.196 289.74 364.309 289.74C369.681 289.74 373.25 293.734 373.533 298.08H370.176C369.928 295.395 368.161 292.674 364.309 292.674C359.857 292.674 357.489 295.854 357.489 300.236C357.489 304.583 359.857 307.693 364.309 307.693C368.444 307.693 370.07 304.83 370.317 301.791H373.603ZM382.559 285.358H390.581C397.261 285.358 401.36 287.443 401.36 293.239C401.36 298.999 397.261 301.155 390.581 301.155H385.811V310.096H382.559V285.358ZM390.581 298.292C395.282 298.292 397.967 297.197 397.967 293.239C397.967 289.246 395.282 288.221 390.581 288.221H385.811V298.292H390.581ZM403.453 283.591H406.634V310.096H403.453V283.591ZM417.671 289.74C422.971 289.74 425.693 293.239 425.693 298.787V310.096H422.477V307.233C421.416 309.354 419.544 310.661 416.504 310.661C412.617 310.661 409.578 308.435 409.578 304.477C409.578 298.257 416.469 297.515 422.441 297.904C422.229 294.617 420.78 292.638 417.671 292.638C414.349 292.638 412.582 294.688 412.582 297.268H409.189C409.189 293.38 412.158 289.74 417.671 289.74ZM412.935 304.3C412.935 306.668 414.419 307.905 417.246 307.905C420.498 307.905 422.477 305.502 422.477 302.286V300.307C416.116 299.812 412.935 301.614 412.935 304.3ZM426.692 290.306H430.014V285.358H433.195V290.306H437.118V293.027H433.195V305.078C433.195 306.703 433.972 307.375 435.386 307.375H437.683V310.096H435.351C431.781 310.096 430.014 308.081 430.014 305.078V293.027H426.692V290.306ZM441.361 310.096V293.027H439.099V290.306H441.361V288.079C441.361 285.606 442.845 283.591 446.414 283.591H450.089V286.312H446.45C445.177 286.312 444.541 286.913 444.541 288.079V290.306H449.418V293.027H444.541V310.096H441.361ZM459.961 310.661C453.847 310.661 449.854 306.35 449.854 300.236C449.854 294.087 453.847 289.74 459.961 289.74C466.075 289.74 470.068 294.087 470.068 300.236C470.068 306.35 466.075 310.661 459.961 310.661ZM459.961 307.728C464.06 307.728 466.746 304.83 466.746 300.236C466.746 295.571 464.06 292.674 459.961 292.674C455.862 292.674 453.141 295.571 453.141 300.236C453.141 304.83 455.862 307.728 459.961 307.728ZM475.398 299.353V310.096H472.218V290.306H475.398V293.734C476.176 291.684 478.049 289.74 482.183 289.74V293.027C477.978 293.027 475.398 294.653 475.398 299.353ZM487.254 300.13V310.096H484.073V290.306H487.254V293.592C488.066 291.613 489.833 289.74 493.12 289.74C495.982 289.74 498.067 290.977 498.88 294.228C499.622 292.037 501.531 289.74 505.17 289.74C508.881 289.74 511.319 291.861 511.319 297.904V310.096H508.139V298.363C508.139 294.688 507.538 292.532 504.393 292.532C501.566 292.532 499.304 295.43 499.304 300.13V310.096H496.088V298.363C496.088 294.688 495.488 292.532 492.378 292.532C489.551 292.532 487.254 295.43 487.254 300.13ZM516.518 303.699C516.73 306.35 518.991 307.799 521.889 307.799C524.716 307.799 526.589 306.703 526.589 304.406C526.589 299.812 513.655 303.735 513.655 295.819C513.655 292.638 516.765 289.74 521.606 289.74C525.882 289.74 529.452 292.497 529.452 296.525H526.519C526.342 293.84 524.186 292.461 521.465 292.461C518.391 292.461 516.8 293.875 516.8 295.819C516.8 300.837 529.77 296.596 529.77 304.406C529.77 308.152 526.695 310.52 521.712 310.52C517.048 310.52 513.549 307.587 513.408 303.699H516.518Z" fill="#676262"/>
<defs>
<clipPath id="clip0_1_29665">
<rect width="519.895" height="59.2339" fill="white" transform="translate(280.536 207.299)"/>
</clipPath>
<clipPath id="clip1_1_29665">
<rect width="519.895" height="58.3996" fill="white" transform="translate(280.536 207.804)"/>
</clipPath>
</defs>
</svg>
