<svg fill="none" height="260" viewBox="0 0 260 260" width="260" xmlns="http://www.w3.org/2000/svg"><path d="m250.414 259.381h-241.45068v-259.37904688h241.45068z" fill="#fff"/><path d="m58.1455.251953h143.086v258.879h-143.086z" stroke="#ff5e00" stroke-dasharray="1.22 1.22" stroke-width=".5"/><rect height="258.381" rx="127.826" stroke="#ff5e00" width="258.377" x=".5" y=".5"/><path d="m9.28192 179.123h240.812v26.7811h-240.812z" stroke="#ff5e00" stroke-dasharray="1.22 1.22" stroke-width=".5"/><path d="m9.28192 38.5862h240.812v167.317h-240.812z" stroke="#ff5e00" stroke-dasharray="1.22 1.22" stroke-width=".5"/><g fill="#ff5e00"><path d="m9.03192 206.156h48.8631v53.2259h-48.8631z" fill-opacity=".14"/><path d="m9.03192 0h48.8628v38.338h-48.8628z" fill-opacity=".14"/><path d="m201.482 0h48.8632v38.338h-48.8632z" fill-opacity=".14"/><path d="m201.482 206.156h48.9324v53.2259h-48.9324z" fill-opacity=".14"/><path d="m29.6934 190.42h.6445l1.0561 1.654 1.0483-1.654h.6445l-1.3744 2.159 1.3977 2.19h-.6445l-1.0716-1.685-1.0794 1.685h-.6445l1.3978-2.19z"/><path d="m24.2599 237.407h1.3045v-4.41h-1.3045v-.513h1.8869v4.923h1.3045v.513h-3.1914zm3.5422-.209h.6911v.722h-.6911zm1.9349-.816c.0699.365.3572 1.103 1.3045 1.103.8852 0 1.4676-.637 1.553-2.128-.3183.412-.8929.777-1.6073.777-1.2735 0-2.0423-.823-2.0423-1.887s.7688-1.887 2.0889-1.887c1.1647 0 2.1587.645 2.1587 2.695 0 1.91-.7688 2.989-2.1898 2.989-1.0949 0-1.7394-.668-1.9258-1.662zm2.7411-2.096c0-.777-.497-1.367-1.4521-1.367-.9706 0-1.4754.59-1.4754 1.351s.5048 1.32 1.4676 1.32c.9629 0 1.4599-.559 1.4599-1.304zm3.2247-1.926c1.2346 0 2.0344.73 2.0344 1.6 0 .536-.2485 1.009-.8386 1.227.629.217.8774.714.8774 1.258 0 .869-.7532 1.599-2.0732 1.599-1.3123 0-2.0733-.73-2.0733-1.599 0-.544.2485-1.041.8774-1.258-.5901-.218-.8386-.691-.8386-1.227 0-.87.7998-1.6 2.0345-1.6zm-1.4288 1.561c0 .644.5125.994 1.4288.994.9085 0 1.4287-.35 1.4287-.994 0-.575-.5746-1.002-1.4287-1.002-.8542 0-1.4288.427-1.4288 1.002zm-.0388 2.485c0 .66.5358 1.079 1.4676 1.079s1.3899-.419 1.3899-1.079c0-.645-.4193-.994-1.3899-.994-.9707 0-1.4676.349-1.4676.994zm3.9338-2.835h.6445l1.0561 1.654 1.0483-1.654h.6445l-1.3744 2.159 1.3977 2.19h-.6445l-1.0716-1.685-1.0794 1.685h-.6445l1.3978-2.19z"/><path d="m24.2599 21.1643h1.3045v-4.4106h-1.3045v-.5125h1.8869v4.9231h1.3045v.5125h-3.1914zm3.5422-.2097h.6911v.7222h-.6911zm3.4258-4.7134h.7998v3.5564h.9784v.5125h-.9784v1.3667h-.5669v-1.3667h-2.6168v-.4193zm-1.6928 3.5564h1.9257v-3.0129zm3.7811 1.3667h1.3045v-4.4106h-1.3045v-.5125h1.8869v4.9231h1.3046v.5125h-3.1915zm3.4879-3.836h.6445l1.056 1.654 1.0483-1.654h.6445l-1.3744 2.1587 1.3977 2.1898h-.6445l-1.0716-1.6851-1.0793 1.6851h-.6445l1.3977-2.1898z"/></g><path d="m181.931 129.562.246.128-.065.064-.181-.179c-5.528 7.07-10.164 14.855-13.737 23.178-.052.127-.104.243-.155.37-3.444 8.118-5.891 16.748-7.173 25.76-.013.052-.013.116-.013.167-.686 4.781-1.036 9.665-1.036 14.625 0 4.219.259 8.386.751 12.477h-102.6725v-27.269h89.1555c.168-1.125.362-2.224.57-3.336l-85.8931-22.73 7.147-26.349 86.9541 23.012c.402-.882.816-1.752 1.23-2.621l-78.0334-44.489 13.8018-23.6122 79.1986 45.1412c.622-.742 1.256-1.483 1.917-2.212l-64.893-64.0614 19.538-19.2914 65.928 65.1098 6.966 6.878c-7.329 5.548-13.906 12.017-19.551 19.24z" fill="#1d1a1b"/></svg>