<svg width="662" height="118" fill="none" xmlns="http://www.w3.org/2000/svg"><path d="M233.759 44.124c-.162-.647-.809-1.132-1.456-1.132h-6.145c-.646 0-1.293.485-1.455 1.132l-18.597 50.632c-.161.486-.161.971.162 1.456.323.486.808.647 1.294.647h8.247c.647 0 1.294-.485 1.455-1.132l3.073-9.059h17.626l3.073 9.059c.161.647.808 1.132 1.455 1.132h8.247c.486 0 .971-.323 1.294-.647.323-.485.324-.97.162-1.456l-18.435-50.632zm.97 32.838h-10.996l5.66-15.853 5.336 15.853zm61.45-23.132c-.808-2.103-2.102-3.882-3.719-5.662-3.396-3.397-8.247-5.176-14.231-5.176h-17.788c-.97 0-1.617.647-1.617 1.617v50.633c0 .97.647 1.617 1.617 1.617h17.788c5.984 0 10.835-1.779 14.231-5.176 1.617-1.618 2.911-3.559 3.719-5.824.809-2.103 1.294-4.206 1.617-6.47.162-2.103.324-4.53.324-7.28v-5.176c0-2.588-.162-5.015-.324-6.956-.323-2.103-.808-4.044-1.617-6.147zm-9.056 15.853c0 4.206-.161 7.603-.485 9.706-.323 1.941-.808 3.397-1.779 4.53-1.778 1.94-4.204 2.911-7.438 2.911h-7.762V53.183h7.762c3.234 0 5.66.97 7.438 2.912.647.647 1.132 1.617 1.456 2.75.323 1.294.647 2.588.647 4.044.161 1.617.161 3.882.161 6.794zm54.982-26.691h-8.086c-.646 0-1.293.485-1.617 1.132l-10.187 32.03-10.027-32.03c-.161-.647-.808-1.132-1.617-1.132h-7.923c-.486 0-.971.323-1.294.647-.324.323-.324.97-.162 1.456l16.656 50.632c.162.647.809 1.132 1.617 1.132h5.984c.647 0 1.293-.485 1.455-1.132l16.818-50.632c.162-.486 0-.97-.162-1.456-.485-.324-.97-.647-1.455-.647zm41.883 0h-32.342c-.97 0-1.617.647-1.617 1.617v50.633c0 .97.647 1.617 1.617 1.617h32.342c.97 0 1.617-.647 1.617-1.617v-6.956c0-.97-.647-1.618-1.617-1.618h-23.125v-11.97h19.406c.97 0 1.617-.647 1.617-1.618v-6.794c0-.97-.647-1.618-1.617-1.618h-19.406V53.183h23.125c.97 0 1.617-.647 1.617-1.618V44.61c0-.808-.647-1.617-1.617-1.617zm38.811 30.897c2.425-.97 4.528-2.588 6.306-4.691 2.103-2.589 3.073-5.824 3.073-9.706 0-3.074-.647-5.986-2.102-8.412-1.456-2.426-3.558-4.53-6.145-5.824-2.588-1.456-5.66-2.102-9.056-2.102h-19.729c-.97 0-1.617.647-1.617 1.617v50.632c0 .971.647 1.618 1.617 1.618h7.762c.971 0 1.617-.647 1.617-1.618V75.668h6.954l10.188 20.383c.323.485.808.97 1.455.97h8.894c.485 0 1.132-.323 1.456-.809a1.471 1.471 0 0 0 0-1.617l-10.673-20.706zm-1.456-14.397c0 1.94-.647 3.397-1.779 4.53-1.293 1.131-2.91 1.779-5.174 1.779h-9.703V53.183h9.703c2.264 0 3.881.485 5.174 1.78 1.132.97 1.779 2.587 1.779 4.529zm53.527-16.5h-35.577c-.97 0-1.617.647-1.617 1.617v6.956c0 .97.647 1.618 1.617 1.618h12.29v42.059c0 .97.647 1.617 1.617 1.617h7.601c.97 0 1.617-.647 1.617-1.617v-42.06h12.29c.97 0 1.617-.646 1.617-1.617V44.61c.162-.808-.647-1.617-1.455-1.617zm17.949 0h-7.762c-.97 0-1.617.647-1.617 1.617v50.633c0 .97.647 1.617 1.617 1.617h7.762c.971 0 1.618-.647 1.618-1.617V44.609c0-.808-.647-1.617-1.618-1.617zm43.501 26.206c-1.132-1.133-2.588-1.942-4.205-2.589s-3.557-1.132-5.983-1.456l-5.822-.808c-.97-.162-1.94-.324-2.911-.81-.808-.323-1.617-.808-1.94-1.131-.97-.81-1.294-1.942-1.294-3.56 0-1.294.324-2.264.809-3.235.647-.97 1.455-1.617 2.425-2.103 1.132-.485 2.588-.808 4.205-.808 1.455 0 2.749.161 3.881.323 1.132.162 2.102.647 3.234 1.133.97.485 1.941 1.132 2.911 2.102.647.648 1.617.648 2.264 0l5.013-4.852a1.75 1.75 0 0 0 .485-1.133c0-.485-.162-.809-.485-1.132-2.264-2.103-4.851-3.72-7.439-4.691-2.587-.971-5.821-1.456-9.379-1.456-3.719 0-6.953.647-9.703 1.94-2.749 1.295-5.013 3.398-6.468 5.824-1.455 2.427-2.264 5.339-2.264 8.574 0 4.53 1.455 8.25 4.205 10.838 2.587 2.427 5.983 3.882 10.511 4.53l5.983.808c1.294.162 2.426.486 3.073.647.646.162 1.132.486 1.617 1.133.97.809 1.455 2.264 1.455 4.044 0 1.941-.647 3.397-2.102 4.368-1.617 1.132-3.881 1.779-6.792 1.779-1.617 0-3.234-.162-4.528-.485a18.957 18.957 0 0 1-3.881-1.456 15.776 15.776 0 0 1-3.396-2.588c-.323-.324-.647-.486-1.132-.486-.485 0-.808.162-1.132.486l-5.175 5.014c-.323.324-.485.647-.485 1.133 0 .485.162.808.485 1.132 2.588 2.588 5.337 4.368 8.409 5.5 3.073 1.132 6.63 1.618 10.673 1.618 2.749 0 5.498-.324 7.762-1.133a16.683 16.683 0 0 0 6.307-3.235c1.779-1.456 3.234-3.235 4.205-5.338.97-2.103 1.455-4.368 1.455-6.794-.162-5.015-1.779-8.897-4.851-11.647zm21.831-26.206h-7.762c-.971 0-1.618.647-1.618 1.617v50.633c0 .97.647 1.617 1.618 1.617h7.762c.97 0 1.617-.647 1.617-1.617V44.609c0-.808-.647-1.617-1.617-1.617zm52.07 0h-7.6c-.97 0-1.617.647-1.617 1.617v30.25l-20.376-31.058c-.323-.486-.808-.81-1.293-.81h-7.116c-.97 0-1.617.648-1.617 1.618v50.633c0 .97.647 1.617 1.617 1.617h7.763c.97 0 1.617-.647 1.617-1.617v-30.25l20.375 31.059c.324.485.809.808 1.294.808h7.115c.97 0 1.617-.647 1.617-1.617V44.609c-.161-.808-.97-1.617-1.779-1.617zm48.999 23.294h-18.435c-.97 0-1.617.647-1.617 1.617v6.471c0 .97.647 1.618 1.617 1.618h9.217v1.294c0 2.912-.808 5.176-2.102 6.956-1.779 2.103-4.043 3.073-6.953 3.073-1.294 0-2.426-.162-3.558-.647-1.132-.485-2.102-1.132-2.749-1.78-.647-.646-1.132-1.455-1.294-1.94-.323-.647-.485-1.456-.808-2.589a94.774 94.774 0 0 1-.486-4.044c0-1.456-.161-3.559-.161-6.309 0-4.853.161-8.411.647-10.352.323-1.78.97-3.236 2.102-4.368.808-.809 1.617-1.456 2.749-1.941 1.132-.486 2.264-.647 3.558-.647 1.617 0 3.072.323 4.366.97 1.293.647 2.264 1.456 3.072 2.588.809 1.133 1.456 2.589 1.779 4.206.162.81.809 1.294 1.617 1.294h7.762c.485 0 .971-.161 1.294-.647.323-.323.485-.809.323-1.294-.485-3.235-1.617-6.147-3.396-8.573-1.778-2.588-4.042-4.691-6.791-6.147-2.749-1.456-6.145-2.265-9.865-2.265-5.66 0-10.511 1.941-14.392 5.824-1.294 1.294-2.426 2.75-3.072 4.205-.647 1.456-1.294 3.074-1.618 4.692-.323 1.617-.485 3.397-.646 5.176-.162 1.78-.162 4.206-.162 7.441 0 4.044.162 7.118.323 9.382a22.117 22.117 0 0 0 1.456 6.471c.808 2.103 2.102 3.882 3.719 5.824 1.132 1.132 2.587 2.264 4.204 3.235 1.618.97 3.235 1.618 4.852 2.103 1.617.485 3.557.647 5.336.647 6.145 0 11.158-2.103 15.039-6.309a18.373 18.373 0 0 0 3.881-6.632c.809-2.427 1.132-5.338 1.132-8.736V68.39c-.323-1.456-1.132-2.103-1.94-2.103z" fill="#2F3337"/><path fill="#D6D9DC" d="M150.054 41.83H153.27V96.506H150.054z"/><path d="M84.021 75.825v31H11v-31H0v42h95v-42H84.021z" fill="#BCBBBB"/><path d="M21.057 96.825H74v-10H21.057v10zm1.058-23.915l51.429 10.794 2.116-10.265-51.428-10.794-2.117 10.265zm6.773-24.656l47.619 22.222 4.444-9.524L33.332 38.73l-4.444 9.524zm13.227-23.386l40.423 33.65 6.773-8.042-40.53-33.65-6.666 8.042zM68.147 0L59.68 6.243l31.323 42.222 8.465-6.243L68.147 0z" fill="#F48024"/></svg>