<svg width="594" height="118" fill="none" xmlns="http://www.w3.org/2000/svg"><path d="M240.014 43.324H207.62c-.972 0-1.62.648-1.62 1.622v50.782c0 .973.648 1.622 1.62 1.622h7.774c.972 0 1.62-.649 1.62-1.622V75.934h19.437c.972 0 1.619-.649 1.619-1.622v-6.977c0-.973-.647-1.622-1.619-1.622h-19.437V53.545h23.162c.972 0 1.62-.65 1.62-1.623v-6.976c-.162-.811-.972-1.622-1.782-1.622zm84.873 30.989c2.43-.974 4.536-2.596 6.317-4.705 2.106-2.596 3.078-5.841 3.078-9.735 0-3.082-.648-6.003-2.106-8.436-1.458-2.434-3.563-4.543-6.155-5.841-2.591-1.46-5.669-2.11-9.07-2.11H297.19c-.972 0-1.62.65-1.62 1.623v50.782c0 .973.648 1.622 1.62 1.622h7.775c.972 0 1.62-.649 1.62-1.622V76.097h6.964l10.205 20.443c.324.486.809.973 1.457.973h8.909c.486 0 1.134-.324 1.458-.81a1.476 1.476 0 0 0 0-1.623l-10.691-20.767zm-18.302-20.767h9.718c2.268 0 3.887.486 5.183 1.784 1.296 1.136 1.782 2.596 1.782 4.705 0 1.947-.648 3.408-1.782 4.543-1.296 1.136-2.915 1.785-5.183 1.785h-9.718V53.546zm89.894-10.221h-35.634c-.972 0-1.62.648-1.62 1.622v6.976c0 .974.648 1.623 1.62 1.623h12.31v42.183c0 .973.648 1.622 1.62 1.622h7.612c.972 0 1.62-.649 1.62-1.622V53.546h12.31c.972 0 1.62-.65 1.62-1.623v-6.976c.162-.811-.648-1.623-1.458-1.623zm42.761 0h-32.395c-.972 0-1.62.648-1.62 1.622v50.782c0 .973.648 1.622 1.62 1.622h32.395c.971 0 1.619-.649 1.619-1.622v-6.977c0-.973-.648-1.622-1.619-1.622h-23.162V75.124h19.436c.972 0 1.62-.649 1.62-1.623v-6.814c0-.973-.648-1.622-1.62-1.622h-19.436v-11.52h23.162c.971 0 1.619-.648 1.619-1.622v-6.976c0-.811-.81-1.623-1.619-1.623zm34.662 1.135c-.162-.649-.81-1.136-1.458-1.136h-6.155c-.648 0-1.296.487-1.458 1.136l-18.627 50.782c-.162.487-.162.973.162 1.46s.81.65 1.296.65h8.261c.648 0 1.295-.488 1.457-1.137l3.078-9.085h17.655l3.077 9.085c.162.65.81 1.136 1.458 1.136h8.261c.486 0 .971-.324 1.295-.649.324-.487.324-.973.162-1.46L473.902 44.46zm.971 32.935h-11.014l5.669-15.9 5.345 15.9zm70.458-34.07h-7.774c-.648 0-1.134.324-1.458.973L523.141 72.69l-13.282-28.392c-.324-.649-.81-.974-1.457-.974h-7.775c-.972 0-1.62.65-1.62 1.623v50.782c0 .973.648 1.622 1.62 1.622h7.775c.971 0 1.619-.649 1.619-1.622v-26.77l8.909 18.333c.324.487.81.974 1.458.974h5.669c.647 0 1.133-.325 1.457-.974l8.585-18.171v26.77c0 .973.648 1.622 1.62 1.622h7.774c.972 0 1.62-.649 1.62-1.622V45.109c-.162-.973-.81-1.785-1.782-1.785zm43.571 26.445c-1.134-1.136-2.592-1.947-4.212-2.596-1.619-.649-3.563-1.136-5.993-1.46l-5.831-.811c-.971-.163-1.943-.325-2.915-.812-.81-.324-1.62-.81-1.944-1.135-.972-.812-1.296-1.947-1.296-3.57 0-1.297.324-2.271.81-3.244.648-.974 1.458-1.623 2.43-2.11 1.134-.486 2.591-.81 4.211-.81 1.458 0 2.754.161 3.887.324 1.134.162 2.268.649 3.24 1.135a10.962 10.962 0 0 1 2.915 2.11c.648.649 1.62.649 2.268 0l5.021-4.868c.324-.324.486-.81.486-1.135 0-.487-.162-.812-.486-1.136-2.267-2.11-4.859-3.732-7.451-4.705-2.591-.974-5.831-1.46-9.394-1.46-3.725 0-6.965.649-9.718 1.947-2.754 1.298-5.021 3.407-6.479 5.84-1.458 2.434-2.268 5.354-2.268 8.6 0 4.542 1.458 8.273 4.212 10.87 2.591 2.433 5.992 3.893 10.528 4.542l5.993.811c1.295.163 2.429.487 3.077.65.648.162 1.134.486 1.62 1.135.972.811 1.458 2.271 1.458 4.056 0 1.947-.648 3.407-2.106 4.38-1.62 1.136-3.887 1.785-6.803 1.785-1.62 0-3.239-.162-4.535-.486a18.946 18.946 0 0 1-3.887-1.46 15.803 15.803 0 0 1-3.402-2.596c-.324-.325-.648-.487-1.134-.487-.486 0-.809.162-1.133.487l-5.184 5.029c-.323.325-.485.649-.485 1.136 0 .486.162.81.485 1.135 2.592 2.596 5.346 4.38 8.423 5.517C566.387 97.513 569.951 98 574 98c2.754 0 5.507-.325 7.775-1.136a16.712 16.712 0 0 0 6.317-3.245c1.781-1.46 3.239-3.244 4.211-5.353.972-2.11 1.458-4.381 1.458-6.815-.162-5.191-1.782-9.085-4.859-11.681zM268.06 43.007c-2.727-.073-5.44.421-7.969 1.452a19.823 19.823 0 0 0-6.729 4.542C248 54.405 248 61.181 248 69.755v1.49c0 8.573 0 15.401 5.362 20.754a19.8 19.8 0 0 0 6.728 4.544 19.673 19.673 0 0 0 7.97 1.45c2.716.07 5.417-.426 7.933-1.457a19.693 19.693 0 0 0 6.689-4.537C288.121 86.518 288 80.574 288 71.5v-.719c0-9.087.121-16.274-5.318-21.754a19.705 19.705 0 0 0-6.687-4.55 19.581 19.581 0 0 0-7.935-1.47zm-5.871 13.4a7.728 7.728 0 0 1 2.672-1.869 7.681 7.681 0 0 1 3.199-.595 7.43 7.43 0 0 1 3.161.59 7.482 7.482 0 0 1 2.622 1.874c1.77 1.977 2.318 4.171 2.318 14.118 0 9.948-.548 12.078-2.344 14.12a7.439 7.439 0 0 1-2.619 1.883 7.387 7.387 0 0 1-3.163.593 7.67 7.67 0 0 1-3.21-.603 7.719 7.719 0 0 1-2.675-1.887c-1.706-1.912-2.241-4.107-2.241-14.054s.56-12.168 2.28-14.17z" fill="#2F3337"/><path fill="#D6D9DC" d="M150.054 41.83H153.27V96.506H150.054z"/><path d="M84.021 75.825v31H11v-31H0v42h95v-42H84.021z" fill="#BCBBBB"/><path d="M21.057 96.825H74v-10H21.057v10zm1.058-23.915l51.429 10.794 2.116-10.265-51.428-10.794-2.117 10.265zm6.773-24.656l47.619 22.222 4.444-9.524L33.332 38.73l-4.444 9.524zm13.227-23.386l40.423 33.65 6.773-8.042-40.53-33.65-6.666 8.042zM68.147 0L59.68 6.243l31.323 42.222 8.465-6.243L68.147 0z" fill="#F48024"/></svg>