<?xml version="1.0" encoding="UTF-8"?>
<svg width="754px" height="139px" viewBox="0 0 754 139" version="1.1" xmlns="http://www.w3.org/2000/svg" xmlns:xlink="http://www.w3.org/1999/xlink">
    <!-- Generator: Sketch 52.4 (67378) - http://www.bohemiancoding.com/sketch -->
    <title>logo-meta__breakdown</title>
    <desc>Created with Sketch.</desc>
    <defs>
        <rect id="path-1" x="0" y="0" width="737" height="125"></rect>
        <mask id="mask-2" maskContentUnits="userSpaceOnUse" maskUnits="objectBoundingBox" x="0" y="0" width="737" height="125" fill="white">
            <use xlink:href="#path-1"></use>
        </mask>
    </defs>
    <g id="logo-meta__breakdown" stroke="none" stroke-width="1" fill="none" fill-rule="evenodd">
        <rect id="Rectangle" fill="#00AEEF" opacity="0.100000001" transform="translate(628.500000, 70.000000) scale(1, -1) translate(-628.500000, -70.000000) " x="623" y="1" width="11" height="138"></rect>
        <path d="M637,57 L733,57 C734.656854,57 736,58.3431458 736,60 L736,98 C736,99.6568542 734.656854,101 733,101 L637,101 C635.343146,101 634,99.6568542 634,98 L634,60 C634,58.3431458 635.343146,57 637,57 Z M726.399264,90.7874445 C726.468536,90.68863 726.484835,90.5592542 726.444087,90.4461778 L717.979653,67.1789172 C717.927699,67.0312047 717.786099,66.9334089 717.630237,66.9334089 L713.218218,66.9334089 C713.061337,66.9334089 712.921774,67.0312047 712.866764,67.1789172 L704.403349,90.4461778 C704.361582,90.5592542 704.3789,90.68863 704.448172,90.7874445 C704.518463,90.8872778 704.632558,90.9463628 704.753784,90.9463628 L710.733592,90.9463628 C710.895567,90.9463628 711.038186,90.8434734 711.088102,90.6906674 L712.148576,87.48276 L718.758964,87.48276 L719.757296,90.6845551 C719.805175,90.8404173 719.949832,90.9463628 720.112825,90.9463628 L726.093652,90.9463628 C726.213859,90.9463628 726.329992,90.8872778 726.399264,90.7874445 Z M700.255175,90.5735161 L700.255175,72.7767104 L705.601348,72.7767104 C705.807127,72.7767104 705.973176,72.6096425 705.973176,72.4038637 L705.973176,67.3062555 C705.973176,67.1004767 705.807127,66.9334089 705.601348,66.9334089 L688.445309,66.9334089 C688.237493,66.9334089 688.071443,67.1004767 688.071443,67.3062555 L688.071443,72.4038637 C688.071443,72.6096425 688.237493,72.7767104 688.445309,72.7767104 L693.789444,72.7767104 L693.789444,90.5735161 C693.789444,90.7792949 693.956512,90.9463628 694.162291,90.9463628 L699.882329,90.9463628 C700.088108,90.9463628 700.255175,90.7792949 700.255175,90.5735161 Z M685.874093,72.4038637 L685.874093,67.3062555 C685.874093,67.1004767 685.707025,66.9334089 685.502265,66.9334089 L669.683788,66.9334089 C669.478009,66.9334089 669.310941,67.1004767 669.310941,67.3062555 L669.310941,90.5735161 C669.310941,90.7792949 669.478009,90.9463628 669.683788,90.9463628 L685.502265,90.9463628 C685.707025,90.9463628 685.874093,90.7792949 685.874093,90.5735161 L685.874093,85.4759079 C685.874093,85.2701291 685.707025,85.1020425 685.502265,85.1020425 L675.774635,85.1020425 L675.774635,81.7637407 L684.029215,81.7637407 C684.236013,81.7637407 684.403081,81.5976915 684.403081,81.3898754 L684.403081,76.2932858 C684.403081,76.0875071 684.236013,75.9194205 684.029215,75.9194205 L675.774635,75.9194205 L675.774635,72.7767104 L685.502265,72.7767104 C685.707025,72.7767104 685.874093,72.6096425 685.874093,72.4038637 Z M666.256859,90.5735161 L666.256859,67.3062555 C666.256859,67.1004767 666.089791,66.9334089 665.882993,66.9334089 L660.26177,66.9334089 C660.122207,66.9334089 659.992831,67.0118493 659.929671,67.1371502 L655.032748,76.7455916 L650.137863,67.1371502 C650.073684,67.0118493 649.945327,66.9334089 649.804746,66.9334089 L644.184541,66.9334089 C643.978762,66.9334089 643.811694,67.1004767 643.811694,67.3062555 L643.811694,90.5735161 C643.811694,90.7792949 643.978762,90.9463628 644.184541,90.9463628 L649.90356,90.9463628 C650.109339,90.9463628 650.276407,90.7792949 650.276407,90.5735161 L650.276407,80.8295867 L652.88124,85.367925 C652.946437,85.4830388 653.070719,85.5543483 653.205189,85.5543483 L656.864383,85.5543483 C656.997834,85.5543483 657.122116,85.4830388 657.18935,85.367925 L659.792146,80.8306054 L659.792146,90.5735161 C659.792146,90.7792949 659.959214,90.9463628 660.164993,90.9463628 L665.882993,90.9463628 C666.089791,90.9463628 666.256859,90.7792949 666.256859,90.5735161 Z M713.999566,81.9654446 L715.558187,77.3333854 L717.022069,81.9654446 L713.999566,81.9654446 Z" id="Combined-Shape" fill="#F48024"></path>
        <path d="M143.7,76.742 L136.526,76.107 C130.895,75.654 128.716,73.383 128.716,69.568 C128.716,65.028 132.167,62.211 138.706,62.211 C143.338,62.211 147.424,63.302 150.606,65.754 L154.875,61.485 C150.875,58.216 145.156,56.673 138.8,56.673 C129.264,56.673 122.361,61.573 122.361,69.75 C122.361,77.106 126.994,81.011 135.712,81.738 L143.068,82.373 C148.244,82.828 150.515,85.007 150.515,88.912 C150.515,94.18 145.974,96.812 138.615,96.812 C133.074,96.812 128.261,95.359 124.715,91.635 L120.355,95.995 C125.26,100.717 131.163,102.443 138.701,102.443 C149.508,102.443 156.865,97.443 156.865,88.821 C156.865,80.463 151.506,77.468 143.695,76.74 L143.7,76.742 Z M199.613,56.671 C192.444,56.671 187.928,58.084 183.971,63.094 C183.917,63.163 188.261,67.386 188.261,67.386 C190.894,63.663 193.8,62.302 199.521,62.302 C207.695,62.302 210.965,65.571 210.965,72.109 L210.965,76.377 L197.527,76.377 C187.537,76.377 182.089,81.464 182.089,89.277 C181.984058,92.6262953 183.189462,95.884474 185.449,98.359 C188.265,101.266 191.897,102.446 198.072,102.446 C204.066,102.446 207.336,101.266 210.972,97.632 L210.972,101.9 L217.511,101.9 L217.511,71.565 C217.511,61.848 211.611,56.673 199.62,56.673 L199.613,56.671 Z M210.969,86.1 C210.969,89.825 210.242,92.368 208.698,93.82 C205.883,96.545 202.523,96.82 198.709,96.82 C191.625,96.82 188.445,94.367 188.445,89.19 C188.445,84.013 191.715,81.29 198.437,81.29 L210.969,81.29 L210.969,86.1 Z M243.118,62.489 C247.386,62.489 250.018,63.76 253.38,67.483 C253.38,67.483 257.758,63.228 257.722,63.19 C253.137,58.285 249.245,56.677 243.122,56.677 C231.86,56.677 223.322,64.305 223.322,79.562 C223.322,94.819 231.858,102.449 243.122,102.449 C249.297,102.449 253.202,100.813 257.834,95.819 L253.384,91.55 C250.024,95.274 247.39,96.636 243.122,96.636 C239.033212,96.7993765 235.138626,94.8861276 232.769,91.55 C230.68,88.644 229.863,85.193 229.863,79.562 C229.863,73.931 230.68,70.48 232.769,67.574 C235.138117,64.2373869 239.033165,62.3242873 243.122,62.489 L243.118,62.489 Z M299.122,57.155 L290.97,57.155 L270.71,76.875 L270.741,37.236 L264.2,37.236 L264.2,101.9 L270.74,101.9 L270.709,85.591 L278.64,77.632 L293.628,101.9 L301.71,101.9 L283.17,73.1 L299.122,57.155 Z M329.335,56.055 C322.635,56.055 318.108,58.666 315.322,61.625 C311.231,65.89 310.187,71.025 310.187,79.207 C310.187,87.475 311.231,92.607 315.322,96.876 C318.108,99.835 322.633,102.447 329.335,102.447 C336.037,102.447 340.651,99.835 343.435,96.876 C347.526,92.611 348.571,87.476 348.571,79.207 C348.571,71.026 347.526,65.89 343.435,61.625 C340.651,58.666 336.035,56.055 329.335,56.055 Z M334.645,90.261 C333.226419,91.6312106 331.305034,92.3548961 329.335,92.261 C327.391065,92.355011 325.496795,91.6295149 324.113,90.261 C321.762,87.911 321.502,83.908 321.502,79.207 C321.502,74.506 321.762,70.591 324.113,68.241 C325.49659,66.8721679 327.391005,66.1466163 329.335,66.241 C331.30511,66.1466229 333.226679,66.8703779 334.645,68.241 C336.994,70.591 337.256,74.507 337.256,79.207 C337.256,83.907 336.994,87.907 334.645,90.261 Z M378.7,56.575 L369.562,84.6 L360.336,56.573 L348.41,56.573 L365.123,101.92 L374,101.92 L390.623,56.573 L378.7,56.575 Z M409.873,56.053 C398.124,56.053 390.116,64.408 390.116,79.205 C390.116,97.571 400.387,102.445 411.092,102.445 C419.274,102.445 423.714,99.92 428.326,95.306 L421.451,88.606 C418.578,91.479 416.14,92.871 411.179,92.871 C404.825,92.871 401.257,88.606 401.257,82.771 L429.631,82.771 L429.631,77.726 C429.631,65.279 422.494,56.053 409.873,56.053 Z M401.257,75.027 C401.273614,73.3485451 401.629053,71.6907352 402.302,70.153 C403.728026,67.2748247 406.662422,65.4538855 409.8745,65.4538855 C413.086578,65.4538855 416.020974,67.2748247 417.447,70.153 C418.117747,71.6914042 418.472764,73.3488292 418.491,75.027 L401.257,75.027 Z M446.322,60.927 L446.322,56.575 L435.267,56.575 L435.267,101.922 L446.582,101.922 L446.582,74.593 C446.582,68.848 450.412,66.236 453.894,66.236 C456.1886,66.1567159 458.391459,67.1404382 459.864,68.902 L468.43,60.318 C465.296,57.184 462.163,56.053 457.724,56.053 C453.407599,56.0018792 449.269295,57.7711856 446.324,60.927 L446.322,60.927 Z M471.941,51.848 L471.941,101.876 L483.255,101.876 L483.255,66.122 L491.611,66.122 L491.611,57.506 L483.255,57.506 L483.255,52.545 C483.255,49.934 484.562,48.454 487.255,48.454 L491.607,48.454 L491.607,38.881 L485.167,38.881 C475.939,38.881 471.937,45.408 471.937,51.848 L471.941,51.848 Z M538.191,56.048 C531.491,56.048 526.963,58.659 524.178,61.618 C520.088,65.883 519.043,71.018 519.043,79.2 C519.043,87.468 520.088,92.6 524.178,96.869 C526.963,99.828 531.489,102.44 538.191,102.44 C544.893,102.44 549.507,99.828 552.291,96.869 C556.381,92.604 557.426,87.469 557.426,79.2 C557.426,71.019 556.381,65.883 552.291,61.618 C549.506,58.659 544.891,56.048 538.191,56.048 Z M543.501,90.254 C542.082419,91.6242106 540.161034,92.3478961 538.191,92.254 C536.247065,92.348011 534.352795,91.6225149 532.969,90.254 C530.619,87.904 530.358,83.901 530.358,79.2 C530.358,74.499 530.619,70.584 532.969,68.234 C534.35259,66.8651679 536.247005,66.1396163 538.191,66.234 C540.16111,66.1396229 542.082679,66.8633779 543.501,68.234 C545.85,70.584 546.112,74.5 546.112,79.2 C546.112,83.9 545.85,87.9 543.501,90.254 Z M610.883,56.57 L603.573,84.6 L594.26,56.575 L585.993,56.575 L576.765,84.6 L569.455,56.573 L557.444,56.573 L571.37,101.92 L580.683,101.92 L590.17,73.46 L599.657,101.92 L608.97,101.92 L622.809,56.573 L610.883,56.57 Z M508.3,88.257 L508.3,38.881 L496.989,38.881 L496.989,88.953 C496.989,95.394 500.907,101.922 510.219,101.922 L516.659,101.922 L516.659,92.347 L512.308,92.347 C509.436,92.347 508.308,90.955 508.308,88.257 L508.3,88.257 Z M175,64.246 L181.046,58.2 L168.666,58.2 L168.666,43.5 L162.127,43.5 L162.127,89.912 C162.127,96.541 165.941,101.9 173.57,101.9 L178.2,101.9 L178.2,96.269 L174.75,96.269 C170.573,96.269 168.666,93.816 168.666,89.73 L168.666,64.246 L175,64.246 Z" id="Shape" fill="#BBBBBB" fill-rule="nonzero"></path>
        <polygon id="Path" fill="#BBBBBB" points="89 80 100 80 100 124 1 124 1 80 12 80 12 113 89 113"></polygon>
        <path d="M23.9878906,76.73 L78.0128906,88.085 L80.2838906,77.285 L26.2588906,65.925 L23.9878906,76.73 Z M31.1368906,50.861 L81.1828906,74.169 L85.8448906,64.16 L35.7978906,40.852 L31.1368906,50.861 Z M44.9848906,26.308 L87.4128906,61.639 L94.4788906,53.154 L52.0508906,17.824 L44.9848906,26.308 Z M72.3718906,0.192 L63.5118906,6.782 L96.4598906,51.082 L105.319891,44.493 L72.3718906,0.192 Z M23,102 L78,102 L78,91 L23,91 L23,102 Z" id="Shape" fill="#BBBBBB" fill-rule="nonzero"></path>
        <polygon id="Path" fill="#00AEEF" fill-rule="nonzero" points="0 57 0 56 754 56 754 57"></polygon>
        <polygon id="Path" fill="#00AEEF" fill-rule="nonzero" points="0 38 0 37 754 37 754 38"></polygon>
        <polygon id="Path" fill="#00AEEF" fill-rule="nonzero" points="0 102 0 101 754 101 754 102"></polygon>
        <use id="Rectangle" stroke="#E64320" mask="url(#mask-2)" stroke-width="2" stroke-dasharray="2.1" xlink:href="#path-1"></use>
        <polygon id="x" fill="#00AEEF" points="627.168945 130.245117 628.210449 131.976562 629.265137 130.245117 630.21875 130.245117 628.663086 132.591797 630.26709 135 629.32666 135 628.228027 133.21582 627.129395 135 626.18457 135 627.78418 132.591797 626.23291 130.245117"></polygon>
        <polygon id="x" fill="#00AEEF" points="637.168945 130.245117 638.210449 131.976562 639.265137 130.245117 640.21875 130.245117 638.663086 132.591797 640.26709 135 639.32666 135 638.228027 133.21582 637.129395 135 636.18457 135 637.78418 132.591797 636.23291 130.245117"></polygon>
        <polygon id="x" fill="#00AEEF" points="744.168945 59.2451172 745.210449 60.9765625 746.265137 59.2451172 747.21875 59.2451172 745.663086 61.5917969 747.26709 64 746.32666 64 745.228027 62.2158203 744.129395 64 743.18457 64 744.78418 61.5917969 743.23291 59.2451172"></polygon>
        <polygon id="x" fill="#00AEEF" points="744.168945 94.2451172 745.210449 95.9765625 746.265137 94.2451172 747.21875 94.2451172 745.663086 96.5917969 747.26709 99 746.32666 99 745.228027 97.2158203 744.129395 99 743.18457 99 744.78418 96.5917969 743.23291 94.2451172"></polygon>
        <rect id="Rectangle" fill="#00AEEF" x="623" y="1" width="1" height="138"></rect>
        <rect id="Rectangle" fill="#00AEEF" x="633" y="1" width="1" height="138"></rect>
        <rect id="Rectangle" fill="#00AEEF" x="643" y="102" width="1" height="37"></rect>
        <polygon id="Path" fill="#00AEEF" fill-rule="nonzero" points="737 67 737 66 754 66 754 67"></polygon>
        <polygon id="Path" fill="#00AEEF" fill-rule="nonzero" points="737 92 737 91 754 91 754 92"></polygon>
    </g>
</svg>