<svg width="189" height="48" viewBox="0 0 189 48" fill="none" xmlns="http://www.w3.org/2000/svg">
<path d="M42 23.0042L39.8 22.8042C38.1 22.7042 37.5 22.0042 37.5 20.8042C37.5 19.4042 38.5 18.6042 40.5 18.6042C41.8 18.5042 43.1 18.9042 44.1 19.7042L45.4 18.4042C44 17.4042 42.3 16.9042 40.6 17.0042C37.7 17.0042 35.7 18.5042 35.7 20.9042C35.7 23.1042 37.1 24.3042 39.7 24.5042L41.9 24.7042C43.5 24.8042 44.1 25.5042 44.1 26.7042C44.1 28.3042 42.7 29.1042 40.5 29.1042C38.9 29.2042 37.4 28.6042 36.3 27.5042L35 28.8042C36.5 30.2042 38.5 30.8042 40.5 30.7042C43.7 30.7042 46 29.2042 46 26.6042C46 24.0042 44.4 23.2042 42 23.0042ZM58.8 16.9042C56.6 16.9042 55.3 17.3042 54.1 18.8042L55.4 20.1042C56.2 19.0042 57.5 18.4042 58.8 18.6042C61.3 18.6042 62.2 19.6042 62.2 21.5042V22.8042H58.2C55.2 22.8042 53.6 24.3042 53.6 26.7042C53.6 27.7042 53.9 28.7042 54.6 29.4042C55.4 30.3042 56.5 30.6042 58.4 30.6042C59.8 30.7042 61.3 30.2042 62.3 29.2042V30.5042H64.3V21.4042C64.2 18.5042 62.4 16.9042 58.8 16.9042ZM62.2 25.8042C62.3 26.6042 62.1 27.5042 61.5 28.1042C60.7 28.8042 59.6 29.1042 58.5 29.0042C56.4 29.0042 55.4 28.3042 55.4 26.7042C55.4 25.1042 56.4 24.3042 58.4 24.3042H62.2V25.8042ZM71.9 18.7042C73.1 18.7042 74.3 19.2042 75 20.2042L76.3 18.9042C75.2 17.6042 73.6 16.8042 71.9 16.9042C68.5 16.9042 66 19.2042 66 23.8042C66 28.4042 68.6 30.7042 71.9 30.7042C73.6 30.8042 75.2 30.0042 76.3 28.7042L75 27.4042C74.3 28.4042 73.1 28.9042 71.9 28.9042C70.7 29.0042 69.5 28.4042 68.8 27.4042C68.1 26.3042 67.8 25.1042 67.9 23.8042C67.8 22.5042 68.1 21.3042 68.8 20.2042C69.5 19.2042 70.7 18.6042 71.9 18.7042ZM88.7 17.1042H86.3L80.2 23.0042V11.1042H78.2V30.5042H80.2V25.6042L82.6 23.2042L87.1 30.5042H89.5L83.9 21.9042L88.7 17.1042ZM97.9 16.9418C96.3 16.8418 94.7 17.4418 93.6 18.6418C92.3 19.9418 92 21.5418 92 24.0418C92 26.5418 92.3 28.1418 93.6 29.4418C94.7 30.5418 96.3 31.1418 97.9 31.1418C99.5 31.2418 101.1 30.6418 102.2 29.4418C103.5 28.1418 103.8 26.5418 103.8 24.0418C103.8 21.5418 103.5 19.9418 102.2 18.6418C101.1 17.4418 99.5 16.8418 97.9 16.9418ZM99.6 27.4418C98.7 28.2418 97.3 28.2418 96.4 27.4418C95.7 26.7418 95.6 25.4418 95.6 24.0418C95.6 22.6418 95.7 21.3418 96.4 20.6418C97.3 19.8418 98.7 19.8418 99.6 20.6418C100.3 21.3418 100.4 22.5418 100.4 24.0418C100.4 25.5418 100.3 26.7418 99.6 27.4418ZM113.2 17.0418L110.4 25.6418L107.6 17.0418H103.9L109.1 31.0418H111.8L116.9 17.0418H113.2ZM122.8 16.9418C119.2 16.9418 116.7 19.5418 116.7 24.0418C116.7 29.7418 119.9 31.2418 123.2 31.2418C125.2 31.3418 127.2 30.5418 128.5 29.0418L126.4 26.9418C125.6 27.8418 124.4 28.3418 123.2 28.2418C121.6 28.3418 120.2 27.1418 120.1 25.5418V25.1418H128.8V23.5418C128.9 19.7418 126.7 16.9418 122.8 16.9418ZM120.1 22.7418C120.1 22.2418 120.2 21.7418 120.4 21.2418C120.8 20.3418 121.7 19.8418 122.7 19.8418C123.7 19.7418 124.6 20.3418 125 21.2418C125.2 21.7418 125.3 22.2418 125.3 22.7418H120.1ZM134 18.4418V17.1418H130.6V31.1418H134.1V22.7418C134 21.4418 134.9 20.3418 136.2 20.1418H136.4C137.1 20.1418 137.8 20.4418 138.2 20.9418L140.8 18.3418C140 17.4418 138.7 16.9418 137.5 17.0418C136.2 16.9418 134.9 17.4418 134 18.4418ZM141.9 15.6418V31.0418H145.4V20.0418H148V17.3418H145.4V15.8418C145.3 15.2418 145.7 14.6418 146.3 14.5418H147.9V11.5418H145.9C143.8 11.4418 142 13.1418 141.9 15.3418V15.6418ZM162.3 16.9418C160.7 16.8418 159.1 17.4418 158 18.6418C156.7 19.9418 156.4 21.5418 156.4 24.0418C156.4 26.5418 156.7 28.1418 158 29.4418C159.1 30.5418 160.7 31.1418 162.3 31.1418C163.9 31.2418 165.5 30.6418 166.6 29.4418C167.9 28.1418 168.2 26.5418 168.2 24.0418C168.2 21.5418 167.9 19.9418 166.6 18.6418C165.5 17.4418 163.9 16.8418 162.3 16.9418ZM164 27.4418C163.1 28.2418 161.7 28.2418 160.8 27.4418C160.1 26.7418 160 25.4418 160 24.0418C160 22.6418 160.1 21.3418 160.8 20.6418C161.7 19.8418 163.1 19.8418 164 20.6418C164.7 21.3418 164.8 22.5418 164.8 24.0418C164.8 25.5418 164.7 26.7418 164 27.4418ZM184.7 17.0418L182.4 25.6418L179.5 17.0418H177L174.2 25.7418L171.9 17.1418H168.2L172.5 31.1418H175.4L178.3 22.3418L181.2 31.1418H184.2L188.5 17.1418L184.7 17.0418ZM153.1 26.8418V11.6418H149.6V27.0418C149.5 29.1418 151.1 30.9418 153.2 31.0418H155.7V28.0418H154.4C153.8 28.1418 153.3 27.8418 153.1 27.2418V26.8418ZM53.2 17.4042H49.5V13.0042H47.5V26.9042C47.5 28.9042 48.6 30.5042 50.9 30.5042H52.3V28.8042H51.3C50 28.8042 49.5 28.1042 49.5 26.8042V19.1042H51.4L53.2 17.4042Z" fill="#222426"/>
<path d="M26 33V24H30V37H0V24H4V33H26Z" fill="#BCBBBB"/>
<path d="M23.0908 25.9902L23.7844 23.041L7.67993 19.687L7 23L23.0908 25.9902ZM9.1 15.2L24.1 22.2L25.5 19.2L10.5 12.2L9.1 15.2ZM13.3 7.8L26 18.4L28.1 15.9L15.4 5.3L13.3 7.8ZM21.5 0L18.8 2L28.7 15.3L31.4 13.3L21.5 0ZM7 30H23V27H7V30Z" fill="#F48024"/>
<path d="M36.171 41.01H40.357V40.49C40.357 38.228 39.538 37.266 37.601 37.266C35.664 37.266 34.845 38.228 34.845 40.49V40.997C34.845 43.168 35.716 44.13 37.679 44.13C38.94 44.13 39.681 43.805 40.227 42.999L39.239 42.414C38.888 42.882 38.472 43.077 37.809 43.077C36.743 43.077 36.171 42.44 36.171 41.244V41.01ZM36.171 40.061V39.944C36.171 39.554 36.275 39.138 36.431 38.878C36.665 38.475 37.042 38.293 37.64 38.293C38.589 38.293 39.096 38.865 39.096 39.931V40.061H36.171Z" fill="#BCBBBB"/>
<path d="M41.8247 44H43.1507V40.62C43.1507 39.008 43.5277 38.397 44.5287 38.397C45.4647 38.397 45.8287 38.956 45.8287 40.36V44H47.1547V40.217C47.1547 39.424 47.0897 38.917 46.9597 38.54C46.6477 37.695 45.9067 37.266 44.7497 37.266C43.8787 37.266 43.3587 37.5 42.9427 38.059L42.8387 37.396H41.8247V44Z" fill="#BCBBBB"/>
<path d="M52.2839 41.01H56.4699V40.49C56.4699 38.228 55.6509 37.266 53.7139 37.266C51.7769 37.266 50.9579 38.228 50.9579 40.49V40.997C50.9579 43.168 51.8289 44.13 53.7919 44.13C55.0529 44.13 55.7939 43.805 56.3399 42.999L55.3519 42.414C55.0009 42.882 54.5849 43.077 53.9219 43.077C52.8559 43.077 52.2839 42.44 52.2839 41.244V41.01ZM52.2839 40.061V39.944C52.2839 39.554 52.3879 39.138 52.5439 38.878C52.7779 38.475 53.1549 38.293 53.7529 38.293C54.7019 38.293 55.2089 38.865 55.2089 39.931V40.061H52.2839Z" fill="#BCBBBB"/>
<path d="M57.4254 42.999C57.8804 43.74 58.7774 44.13 60.0774 44.13C61.8974 44.13 62.7814 43.48 62.7814 42.128C62.7814 41.426 62.5734 40.893 62.1834 40.62C61.8064 40.347 61.3644 40.217 60.3374 40.1C59.8044 40.035 59.6094 39.983 59.4014 39.879C59.1674 39.749 59.0374 39.515 59.0374 39.229C59.0374 38.644 59.4404 38.319 60.1684 38.319C60.8184 38.319 61.1824 38.501 61.5724 38.995L62.5474 38.423C62.0274 37.63 61.2604 37.266 60.0644 37.266C58.5824 37.266 57.7764 37.981 57.7764 39.294C57.7764 39.879 57.9584 40.334 58.3224 40.633C58.6474 40.906 59.0764 41.049 59.9734 41.166C60.7924 41.27 60.8704 41.283 61.1174 41.4C61.3774 41.517 61.5204 41.777 61.5204 42.102C61.5204 42.752 61.0264 43.077 60.0254 43.077C59.1934 43.077 58.8294 42.921 58.3874 42.401L57.4254 42.999Z" fill="#BCBBBB"/>
<path d="M64.1002 46.925H65.4262V43.61C65.8942 43.974 66.4012 44.13 67.0772 44.13C68.8062 44.13 69.5602 43.233 69.5602 41.192V40.204C69.5602 38.163 68.8062 37.266 67.0772 37.266C66.2712 37.266 65.7512 37.448 65.2572 37.89L65.1272 37.396H64.1002V46.925ZM68.2472 41.101C68.2472 42.44 67.8052 43.064 66.8432 43.064C65.8942 43.064 65.4262 42.479 65.4262 41.296V40.1C65.4262 38.917 65.8942 38.332 66.8432 38.332C67.8052 38.332 68.2472 38.956 68.2472 40.295V41.101Z" fill="#BCBBBB"/>
<path d="M74.6095 40.074H73.1535C71.2815 40.074 70.6575 40.594 70.6575 42.115C70.6575 43.597 71.2685 44.13 72.9325 44.13C73.8945 44.13 74.3755 43.987 74.7915 43.571L74.8825 44H75.9355V39.918C75.9355 39.099 75.8705 38.67 75.6755 38.306C75.3115 37.617 74.5575 37.266 73.4525 37.266C72.3345 37.266 71.5415 37.604 70.9565 38.319L71.8665 38.995C72.2435 38.553 72.7375 38.332 73.3225 38.332C74.2325 38.332 74.6095 38.735 74.6095 39.697V40.074ZM74.6095 41.01V41.868C74.6095 42.349 74.5705 42.531 74.4535 42.7C74.2455 42.973 73.8815 43.09 73.2575 43.09C72.2565 43.09 71.9185 42.843 71.9185 42.089C71.9185 41.309 72.2955 41.01 73.2965 41.01H74.6095Z" fill="#BCBBBB"/>
<path d="M77.6686 44H78.9946V40.62C78.9946 39.008 79.3716 38.397 80.3726 38.397C81.3086 38.397 81.6726 38.956 81.6726 40.36V44H82.9986V40.217C82.9986 39.424 82.9336 38.917 82.8036 38.54C82.4916 37.695 81.7506 37.266 80.5936 37.266C79.7226 37.266 79.2026 37.5 78.7866 38.059L78.6826 37.396H77.6686V44ZM78.9556 36.317C79.0466 35.875 79.2546 35.589 79.5016 35.589C79.6706 35.589 79.7746 35.654 80.1256 35.966C80.4766 36.291 80.7496 36.408 81.1526 36.408C81.6336 36.408 81.9846 36.2 82.1926 35.771C82.2966 35.563 82.3486 35.355 82.4786 34.744H81.6596C81.5426 35.277 81.4126 35.459 81.1656 35.459C80.9836 35.459 80.8926 35.394 80.4896 35.043C80.1646 34.757 79.8786 34.64 79.5146 34.64C79.0466 34.64 78.7086 34.848 78.4616 35.29C78.3316 35.511 78.2796 35.693 78.1366 36.317H78.9556Z" fill="#BCBBBB"/>
<path d="M84.5243 41.205C84.5243 43.233 85.3823 44.13 87.3193 44.13C89.2433 44.13 90.1013 43.233 90.1013 41.205V40.191C90.1013 38.163 89.2433 37.266 87.3193 37.266C85.3823 37.266 84.5243 38.163 84.5243 40.191V41.205ZM88.7753 41.114C88.7753 42.466 88.3333 43.064 87.3063 43.064C86.2923 43.064 85.8503 42.466 85.8503 41.114V40.282C85.8503 38.93 86.2923 38.332 87.3063 38.332C88.3333 38.332 88.7753 38.93 88.7753 40.282V41.114Z" fill="#BCBBBB"/>
<path d="M91.6433 34.718V41.53C91.6433 43.506 92.1243 44 94.0483 44H94.3863V42.921H94.1003C93.2293 42.921 92.9693 42.622 92.9693 41.66V34.718H91.6433Z" fill="#BCBBBB"/>
</svg>
