<?xml version="1.0" encoding="UTF-8"?>
<svg width="662px" height="157px" viewBox="0 0 662 157" version="1.1" xmlns="http://www.w3.org/2000/svg" xmlns:xlink="http://www.w3.org/1999/xlink">
    <!-- Generator: Sketch 52.4 (67378) - http://www.bohemiancoding.com/sketch -->
    <title>logo-community__breakdown</title>
    <desc>Created with Sketch.</desc>
    <defs>
        <rect id="path-1" x="0" y="0" width="623" height="157"></rect>
        <mask id="mask-2" maskContentUnits="userSpaceOnUse" maskUnits="objectBoundingBox" x="0" y="0" width="623" height="157" fill="white">
            <use xlink:href="#path-1"></use>
        </mask>
    </defs>
    <g id="logo-community__breakdown" stroke="none" stroke-width="1" fill="none" fill-rule="evenodd">
        <path d="M143.7,76.742 L136.526,76.107 C130.895,75.654 128.716,73.383 128.716,69.568 C128.716,65.028 132.167,62.211 138.706,62.211 C143.338,62.211 147.424,63.302 150.606,65.754 L154.875,61.485 C150.875,58.216 145.156,56.673 138.8,56.673 C129.264,56.673 122.361,61.573 122.361,69.75 C122.361,77.106 126.994,81.011 135.712,81.738 L143.068,82.373 C148.244,82.828 150.515,85.007 150.515,88.912 C150.515,94.18 145.974,96.812 138.615,96.812 C133.074,96.812 128.261,95.359 124.715,91.635 L120.355,95.995 C125.26,100.717 131.163,102.443 138.701,102.443 C149.508,102.443 156.865,97.443 156.865,88.821 C156.865,80.463 151.506,77.468 143.695,76.74 L143.7,76.742 Z M199.613,56.671 C192.444,56.671 187.928,58.084 183.971,63.094 C183.917,63.163 188.261,67.386 188.261,67.386 C190.894,63.663 193.8,62.302 199.521,62.302 C207.695,62.302 210.965,65.571 210.965,72.109 L210.965,76.377 L197.527,76.377 C187.537,76.377 182.089,81.464 182.089,89.277 C181.984058,92.6262953 183.189462,95.884474 185.449,98.359 C188.265,101.266 191.897,102.446 198.072,102.446 C204.066,102.446 207.336,101.266 210.972,97.632 L210.972,101.9 L217.511,101.9 L217.511,71.565 C217.511,61.848 211.611,56.673 199.62,56.673 L199.613,56.671 Z M210.969,86.1 C210.969,89.825 210.242,92.368 208.698,93.82 C205.883,96.545 202.523,96.82 198.709,96.82 C191.625,96.82 188.445,94.367 188.445,89.19 C188.445,84.013 191.715,81.29 198.437,81.29 L210.969,81.29 L210.969,86.1 Z M243.118,62.489 C247.386,62.489 250.018,63.76 253.38,67.483 C253.38,67.483 257.758,63.228 257.722,63.19 C253.137,58.285 249.245,56.677 243.122,56.677 C231.86,56.677 223.322,64.305 223.322,79.562 C223.322,94.819 231.858,102.449 243.122,102.449 C249.297,102.449 253.202,100.813 257.834,95.819 L253.384,91.55 C250.024,95.274 247.39,96.636 243.122,96.636 C239.033212,96.7993765 235.138626,94.8861276 232.769,91.55 C230.68,88.644 229.863,85.193 229.863,79.562 C229.863,73.931 230.68,70.48 232.769,67.574 C235.138117,64.2373869 239.033165,62.3242873 243.122,62.489 L243.118,62.489 Z M299.122,57.155 L290.97,57.155 L270.71,76.875 L270.741,37.236 L264.2,37.236 L264.2,101.9 L270.74,101.9 L270.709,85.591 L278.64,77.632 L293.628,101.9 L301.71,101.9 L283.17,73.1 L299.122,57.155 Z M329.335,56.055 C322.635,56.055 318.108,58.666 315.322,61.625 C311.231,65.89 310.187,71.025 310.187,79.207 C310.187,87.475 311.231,92.607 315.322,96.876 C318.108,99.835 322.633,102.447 329.335,102.447 C336.037,102.447 340.651,99.835 343.435,96.876 C347.526,92.611 348.571,87.476 348.571,79.207 C348.571,71.026 347.526,65.89 343.435,61.625 C340.651,58.666 336.035,56.055 329.335,56.055 Z M334.645,90.261 C333.226419,91.6312106 331.305034,92.3548961 329.335,92.261 C327.391065,92.355011 325.496795,91.6295149 324.113,90.261 C321.762,87.911 321.502,83.908 321.502,79.207 C321.502,74.506 321.762,70.591 324.113,68.241 C325.49659,66.8721679 327.391005,66.1466163 329.335,66.241 C331.30511,66.1466229 333.226679,66.8703779 334.645,68.241 C336.994,70.591 337.256,74.507 337.256,79.207 C337.256,83.907 336.994,87.907 334.645,90.261 Z M378.7,56.575 L369.562,84.6 L360.336,56.573 L348.41,56.573 L365.123,101.92 L374,101.92 L390.623,56.573 L378.7,56.575 Z M409.873,56.053 C398.124,56.053 390.116,64.408 390.116,79.205 C390.116,97.571 400.387,102.445 411.092,102.445 C419.274,102.445 423.714,99.92 428.326,95.306 L421.451,88.606 C418.578,91.479 416.14,92.871 411.179,92.871 C404.825,92.871 401.257,88.606 401.257,82.771 L429.631,82.771 L429.631,77.726 C429.631,65.279 422.494,56.053 409.873,56.053 Z M401.257,75.027 C401.273614,73.3485451 401.629053,71.6907352 402.302,70.153 C403.728026,67.2748247 406.662422,65.4538855 409.8745,65.4538855 C413.086578,65.4538855 416.020974,67.2748247 417.447,70.153 C418.117747,71.6914042 418.472764,73.3488292 418.491,75.027 L401.257,75.027 Z M446.322,60.927 L446.322,56.575 L435.267,56.575 L435.267,101.922 L446.582,101.922 L446.582,74.593 C446.582,68.848 450.412,66.236 453.894,66.236 C456.1886,66.1567159 458.391459,67.1404382 459.864,68.902 L468.43,60.318 C465.296,57.184 462.163,56.053 457.724,56.053 C453.407599,56.0018792 449.269295,57.7711856 446.324,60.927 L446.322,60.927 Z M471.941,51.848 L471.941,101.876 L483.255,101.876 L483.255,66.122 L491.611,66.122 L491.611,57.506 L483.255,57.506 L483.255,52.545 C483.255,49.934 484.562,48.454 487.255,48.454 L491.607,48.454 L491.607,38.881 L485.167,38.881 C475.939,38.881 471.937,45.408 471.937,51.848 L471.941,51.848 Z M538.191,56.048 C531.491,56.048 526.963,58.659 524.178,61.618 C520.088,65.883 519.043,71.018 519.043,79.2 C519.043,87.468 520.088,92.6 524.178,96.869 C526.963,99.828 531.489,102.44 538.191,102.44 C544.893,102.44 549.507,99.828 552.291,96.869 C556.381,92.604 557.426,87.469 557.426,79.2 C557.426,71.019 556.381,65.883 552.291,61.618 C549.506,58.659 544.891,56.048 538.191,56.048 Z M543.501,90.254 C542.082419,91.6242106 540.161034,92.3478961 538.191,92.254 C536.247065,92.348011 534.352795,91.6225149 532.969,90.254 C530.619,87.904 530.358,83.901 530.358,79.2 C530.358,74.499 530.619,70.584 532.969,68.234 C534.35259,66.8651679 536.247005,66.1396163 538.191,66.234 C540.16111,66.1396229 542.082679,66.8633779 543.501,68.234 C545.85,70.584 546.112,74.5 546.112,79.2 C546.112,83.9 545.85,87.9 543.501,90.254 Z M610.883,56.57 L603.573,84.6 L594.26,56.575 L585.993,56.575 L576.765,84.6 L569.455,56.573 L557.444,56.573 L571.37,101.92 L580.683,101.92 L590.17,73.46 L599.657,101.92 L608.97,101.92 L622.809,56.573 L610.883,56.57 Z M508.3,88.257 L508.3,38.881 L496.989,38.881 L496.989,88.953 C496.989,95.394 500.907,101.922 510.219,101.922 L516.659,101.922 L516.659,92.347 L512.308,92.347 C509.436,92.347 508.308,90.955 508.308,88.257 L508.3,88.257 Z M175,64.246 L181.046,58.2 L168.666,58.2 L168.666,43.5 L162.127,43.5 L162.127,89.912 C162.127,96.541 165.941,101.9 173.57,101.9 L178.2,101.9 L178.2,96.269 L174.75,96.269 C170.573,96.269 168.666,93.816 168.666,89.73 L168.666,64.246 L175,64.246 Z" id="Shape" fill="#1E1B1D" fill-rule="nonzero"></path>
        <polygon id="Path" fill="#BBBBBB" points="89 80 100 80 100 124 1 124 1 80 12 80 12 113 89 113"></polygon>
        <path d="M23.9878906,76.73 L78.0128906,88.085 L80.2838906,77.285 L26.2588906,65.925 L23.9878906,76.73 Z M31.1368906,50.861 L81.1828906,74.169 L85.8448906,64.16 L35.7978906,40.852 L31.1368906,50.861 Z M44.9848906,26.308 L87.4128906,61.639 L94.4788906,53.154 L52.0508906,17.824 L44.9848906,26.308 Z M72.3718906,0.192 L63.5118906,6.782 L96.4598906,51.082 L105.319891,44.493 L72.3718906,0.192 Z M23,102 L78,102 L78,91 L23,91 L23,102 Z" id="Shape" fill="#F58025" fill-rule="nonzero"></path>
        <polygon id="Path" fill="#00AEEF" fill-rule="nonzero" points="0 57 0 56 662 56 662 57"></polygon>
        <polygon id="Path" fill="#00AEEF" fill-rule="nonzero" points="0 38 0 37 662 37 662 38"></polygon>
        <polygon id="Path" fill="#00AEEF" fill-rule="nonzero" points="0 102 0 101 662 101 662 102"></polygon>
        <polygon id="Path" fill="#00AEEF" fill-rule="nonzero" points="0 114 0 113 662 113 662 114"></polygon>
        <polygon id="Path" fill="#00AEEF" fill-rule="nonzero" points="0 148 0 147 662 147 662 148"></polygon>
        <rect id="Rectangle" fill="#00AEEF" opacity="0.100000001" x="0" y="102" width="662" height="11"></rect>
        <rect id="Rectangle" fill="#00AEEF" opacity="0.0514508943" x="0" y="114" width="662" height="33"></rect>
        <use id="Rectangle" stroke="#E64320" mask="url(#mask-2)" stroke-width="2" stroke-dasharray="2.1" xlink:href="#path-1"></use>
        <path d="M135.207349,129.989727 C134.485944,128.262951 132.862088,127.082306 130.696948,127.082306 C128.532731,127.082306 126.863614,128.262951 126.141285,129.989727 C125.690522,131.034538 125.600924,131.715572 125.554739,133.12416 L135.838233,133.12416 C135.793896,131.715572 135.658112,131.034538 135.207349,129.989727 Z M125.554739,136.349769 C125.554739,140.302001 127.630281,142.800057 131.374016,142.800057 C133.943735,142.800057 135.296948,142.073435 136.921727,140.436905 L139.85261,143.210353 C137.507349,145.572574 135.296948,146.797878 131.28257,146.797878 C125.554739,146.797878 121,143.753692 121,134.98677 C121,127.536329 124.834257,123.22125 130.696948,123.22125 C136.831205,123.22125 140.394819,127.76241 140.394819,134.304805 L140.394819,136.349769 L125.554739,136.349769 Z" id="Fill-29" fill="#BBBBBB"></path>
        <path d="M171.646,146.525743 L171.646,132.488248 C171.646,128.899793 169.616643,127.35444 167.046,127.35444 C164.56588,127.35444 162.310217,128.945381 162.310217,132.261237 L162.310217,146.525743 L157.710217,146.525743 L157.710217,132.488248 C157.710217,128.899793 155.680859,127.35444 153.109293,127.35444 C150.538651,127.35444 148.374434,128.945381 148.374434,132.488248 L148.374434,146.525743 L143.77351,146.525743 L143.77351,123.493385 L148.282988,123.493385 L148.282988,125.810018 C149.818169,124.129761 152.071984,123.220785 154.371984,123.220785 C157.213269,123.220785 159.423671,124.357703 160.866482,126.581299 C162.716643,124.312115 165.016643,123.220785 168.038048,123.220785 C170.383309,123.220785 172.457928,123.992066 173.811141,125.310407 C175.570779,127.038113 176.246,129.217051 176.246,131.807214 L176.246,146.525743 L171.646,146.525743 Z" id="Fill-31" fill="#BBBBBB"></path>
        <path d="M201.04859,118.58724 L194.011884,118.58724 L194.011884,129.353537 L201.04859,129.353537 C204.430237,129.353537 206.730237,127.40161 206.730237,123.992717 C206.730237,120.585685 204.430237,118.58724 201.04859,118.58724 M201.319233,133.80538 L194.011884,133.80538 L194.011884,146.524534 L189.142165,146.524534 L189.142165,114.181915 L201.319233,114.181915 C207.587426,114.181915 211.601803,118.359298 211.601803,123.992717 C211.601803,129.627067 207.587426,133.80538 201.319233,133.80538" id="Fill-33" fill="#BBBBBB"></path>
        <path d="M225.22159,128.672316 C224.365325,127.809859 223.192233,127.353975 221.83902,127.353975 C220.484884,127.353975 219.357976,127.809859 218.500787,128.672316 C217.102313,130.080904 216.922193,132.489644 216.922193,134.98677 C216.922193,137.486687 217.102313,139.892636 218.500787,141.300293 C219.357976,142.164611 220.484884,142.664223 221.83902,142.664223 C223.192233,142.664223 224.365325,142.164611 225.22159,141.300293 C226.619141,139.892636 226.800185,137.486687 226.800185,134.98677 C226.800185,132.489644 226.619141,130.080904 225.22159,128.672316 M228.694683,144.073741 C227.204763,145.617232 224.950948,146.797878 221.83902,146.797878 C218.727092,146.797878 216.516691,145.617232 215.028618,144.073741 C212.864402,141.800835 212.322193,138.893414 212.322193,134.98677 C212.322193,131.124784 212.864402,128.217363 215.028618,125.945388 C216.516691,124.401896 218.727092,123.222181 221.83902,123.222181 C224.950948,123.222181 227.204763,124.401896 228.694683,125.945388 C230.8589,128.217363 231.400185,131.124784 231.400185,134.98677 C231.400185,138.893414 230.8589,141.800835 228.694683,144.073741" id="Fill-35" fill="#BBBBBB"></path>
        <path d="M247.671253,128.898583 C246.634867,127.854703 245.82294,127.355092 244.243422,127.355092 C241.763301,127.355092 239.688683,129.353537 239.688683,132.533558 L239.688683,146.524534 L235.088683,146.524534 L235.088683,123.494036 L239.598161,123.494036 L239.598161,125.991162 C240.770329,124.356494 243.11559,123.220506 245.687157,123.220506 C247.897558,123.220506 249.565751,123.811294 251.144345,125.400374 L247.671253,128.898583 Z" id="Fill-37" fill="#BBBBBB"></path>
        <path d="M260.31257,146.525743 C256.028474,146.525743 254.043454,143.436899 254.043454,140.119182 L254.043454,127.444687 L254.043454,123.90275 L254.043454,116.905401 L258.643454,116.905401 L258.643454,123.493385 L264.003655,123.493385 L261.184538,127.038113 L258.643454,127.038113 L258.643454,139.892171 C258.643454,141.574289 259.456305,142.572581 261.168835,142.572581 L263.064257,142.572581 L263.064257,146.525743 L260.31257,146.525743 Z" id="Fill-39" fill="#BBBBBB"></path>
        <path d="M280.960382,146.525743 L280.960382,144.20911 C279.381787,145.934025 277.171386,146.798343 274.871386,146.798343 C272.526124,146.798343 270.588213,146.025202 269.235,144.709652 C267.476285,142.981946 266.934076,140.802078 266.934076,138.210984 L266.934076,123.493385 L271.535,123.493385 L271.535,137.53181 C271.535,141.119335 273.564357,142.664688 276.135,142.664688 C278.706566,142.664688 280.870783,141.074677 280.870783,137.53181 L280.870783,123.493385 L285.470783,123.493385 L285.470783,146.525743 L280.960382,146.525743 Z" id="Fill-41" fill="#BBBBBB"></path>
        <path d="M298.494787,127.354906 C294.346474,127.354906 293.804265,130.942431 293.804265,134.578335 C293.804265,138.212379 294.346474,141.801765 298.494787,141.801765 C302.6431,141.801765 303.140048,138.212379 303.140048,134.578335 C303.140048,130.942431 302.6431,127.354906 298.494787,127.354906 M297.952578,156.109999 C294.48041,156.109999 292.270932,155.2922 289.879486,153.066743 L292.812217,150.114664 C294.255028,151.476733 295.518643,152.157767 297.774305,152.157767 C301.651976,152.157767 303.140048,149.387111 303.140048,146.297336 L303.140048,143.345257 C301.470932,145.344632 299.577357,145.980078 297.232096,145.980078 C294.932096,145.980078 293.037598,145.206937 291.774908,143.936045 C289.564506,141.709658 289.204265,138.484979 289.204265,134.578335 C289.204265,130.669831 289.564506,127.445152 291.774908,125.220626 C293.037598,123.947873 294.977357,123.22125 297.277357,123.22125 C299.712217,123.22125 301.561454,123.856696 303.275831,125.945388 L303.275831,123.49385 L307.740048,123.49385 L307.740048,146.389443 C307.740048,152.021932 304.041574,156.109999 297.952578,156.109999" id="Fill-43" fill="#BBBBBB"></path>
        <path d="M326.132566,146.525743 L326.132566,144.20911 C324.553048,145.934025 322.342647,146.798343 320.04357,146.798343 C317.698309,146.798343 315.760398,146.025202 314.407185,144.709652 C312.647546,142.981946 312.105337,140.802078 312.105337,138.210984 L312.105337,123.493385 L316.706261,123.493385 L316.706261,137.53181 C316.706261,141.119335 318.736542,142.664688 321.306261,142.664688 C323.878751,142.664688 326.042044,141.074677 326.042044,137.53181 L326.042044,123.493385 L330.642968,123.493385 L330.642968,146.525743 L326.132566,146.525743 Z" id="Fill-46" fill="#BBBBBB"></path>
        <path d="M349.304281,129.989727 C348.583799,128.262951 346.959944,127.082306 344.79388,127.082306 C342.629663,127.082306 340.96147,128.262951 340.239141,129.989727 C339.787454,131.034538 339.698779,131.715572 339.652594,133.12416 L349.936088,133.12416 C349.890827,131.715572 349.755044,131.034538 349.304281,129.989727 Z M348.853518,119.312746 L344.930586,114.907421 L341.005807,119.312746 L337.17155,119.312746 L342.989904,112 L346.868498,112 L352.686851,119.312746 L348.853518,119.312746 Z M339.652594,136.349769 C339.652594,140.302001 341.728137,142.800057 345.471871,142.800057 C348.04159,142.800057 349.394803,142.073435 351.018659,140.436905 L353.949542,143.210353 C351.604281,145.572574 349.394803,146.797878 345.379502,146.797878 C339.652594,146.797878 335.096932,143.753692 335.096932,134.98677 C335.096932,127.536329 338.932112,123.22125 344.79388,123.22125 C350.928137,123.22125 354.491751,127.76241 354.491751,134.304805 L354.491751,136.349769 L339.652594,136.349769 Z" id="Fill-48" fill="#BBBBBB"></path>
        <path d="M366.756201,146.797413 C363.011542,146.797413 359.854353,146.161967 357.149775,143.482487 L360.170257,140.437371 C362.021341,142.34743 364.501462,142.845181 366.756201,142.845181 C369.552225,142.845181 371.76355,141.846888 371.76355,139.66609 C371.76355,138.120737 370.904514,137.122445 368.695036,136.939161 L365.041823,136.621904 C360.758651,136.259057 358.276683,134.30527 358.276683,130.262792 C358.276683,125.76536 362.11094,123.220785 366.89106,123.220785 C370.318892,123.220785 373.249775,123.947408 375.370578,125.810018 L372.483108,128.762097 C371.040297,127.536794 369.010016,127.082771 366.846723,127.082771 C364.094112,127.082771 362.695639,128.309005 362.695639,130.03392 C362.695639,131.396919 363.419815,132.44266 365.853751,132.668741 L369.46355,132.986929 C373.745799,133.351636 376.273028,135.39567 376.273028,139.484667 C376.273028,144.298426 372.212466,146.797413 366.756201,146.797413" id="Fill-50" fill="#BBBBBB"></path>
        <path d="M633.241211,81.7338867 C633.182617,81.8891609 633.097657,82.0598135 632.986328,82.2458496 C632.874999,82.4318857 632.726319,82.5908197 632.540283,82.7226562 C632.354247,82.8544928 632.117677,82.9204102 631.830566,82.9204102 C631.763183,82.9204102 631.68042,82.9123536 631.582275,82.8962402 C631.48413,82.8801269 631.414551,82.8647462 631.373535,82.8500977 L631.369141,82.190918 C631.433594,82.2026368 631.506836,82.2084961 631.588867,82.2084961 C631.864259,82.2084961 632.079589,82.1521002 632.234863,82.0393066 C632.390137,81.9265131 632.517578,81.7236343 632.617188,81.4306641 L632.792969,80.9472656 L631.09668,76.2451172 L631.984375,76.2451172 L633.175293,79.8046875 L634.27832,76.2451172 L635.148438,76.2451172 L633.241211,81.7338867 Z" id="y" fill="#00AEEF"></path>
        <path d="M635.666992,127.601562 L635.666992,128.058594 L633.01709,134 L632.160156,134 L634.805664,128.269531 L631.342773,128.269531 L631.342773,127.601562 L635.666992,127.601562 Z M637.618164,130.95459 L636.967773,130.787598 L637.288574,127.601562 L640.571289,127.601562 L640.571289,128.353027 L637.978516,128.353027 L637.785156,130.093262 C637.902344,130.025879 638.051024,129.962891 638.231201,129.904297 C638.411378,129.845703 638.618651,129.816406 638.853027,129.816406 C639.441897,129.816406 639.906981,130.010496 640.248291,130.398682 C640.589601,130.786867 640.760254,131.307614 640.760254,131.960938 C640.760254,132.573245 640.593263,133.080809 640.259277,133.483643 C639.925291,133.886477 639.416996,134.087891 638.734375,134.087891 C638.215818,134.087891 637.76758,133.94214 637.389648,133.650635 C637.011717,133.359129 636.793457,132.914554 636.734863,132.316895 L637.508301,132.316895 C637.61084,133.05225 638.019528,133.419922 638.734375,133.419922 C639.118166,133.419922 639.415526,133.289552 639.626465,133.028809 C639.837403,132.768065 639.942871,132.415041 639.942871,131.969727 C639.942871,131.568357 639.832276,131.230714 639.611084,130.956787 C639.389891,130.68286 639.074221,130.545898 638.664062,130.545898 C638.3916,130.545898 638.185059,130.582519 638.044434,130.655762 C637.903808,130.729004 637.761719,130.828613 637.618164,130.95459 Z M641.577637,129.17041 L641.577637,128.832031 C641.577637,128.468748 641.694823,128.157472 641.929199,127.898193 C642.163575,127.638915 642.482908,127.509277 642.887207,127.509277 C643.297365,127.509277 643.618895,127.638915 643.851807,127.898193 C644.084718,128.157472 644.201172,128.468748 644.201172,128.832031 L644.201172,129.17041 C644.201172,129.527834 644.08545,129.83618 643.854004,130.095459 C643.622557,130.354738 643.303225,130.484375 642.895996,130.484375 C642.488767,130.484375 642.167238,130.354738 641.931396,130.095459 C641.695555,129.83618 641.577637,129.527834 641.577637,129.17041 Z M642.188477,128.832031 L642.188477,129.17041 C642.188477,129.37256 642.246337,129.554198 642.362061,129.715332 C642.477784,129.876466 642.655761,129.957031 642.895996,129.957031 C643.130372,129.957031 643.304687,129.877198 643.418945,129.717529 C643.533204,129.557861 643.590332,129.375489 643.590332,129.17041 L643.590332,128.832031 C643.590332,128.626952 643.532471,128.443116 643.416748,128.280518 C643.301025,128.117919 643.124513,128.036621 642.887207,128.036621 C642.652831,128.036621 642.477784,128.117919 642.362061,128.280518 C642.246337,128.443116 642.188477,128.626952 642.188477,128.832031 Z M646.205078,128.51123 L643.080566,133.512207 L642.623535,133.222168 L645.748047,128.221191 L646.205078,128.51123 Z M644.693359,132.773926 L644.693359,132.431152 C644.693359,132.070799 644.810546,131.760988 645.044922,131.501709 C645.279298,131.24243 645.598631,131.112793 646.00293,131.112793 C646.413088,131.112793 646.734618,131.24243 646.967529,131.501709 C647.200441,131.760988 647.316895,132.070799 647.316895,132.431152 L647.316895,132.773926 C647.316895,133.134279 647.201173,133.444091 646.969727,133.703369 C646.73828,133.962648 646.418947,134.092285 646.011719,134.092285 C645.60156,134.092285 645.279298,133.962648 645.044922,133.703369 C644.810546,133.444091 644.693359,133.134279 644.693359,132.773926 Z M645.304199,132.431152 L645.304199,132.773926 C645.304199,132.979005 645.36206,133.162109 645.477783,133.323242 C645.593506,133.484376 645.771483,133.564941 646.011719,133.564941 C646.249025,133.564941 646.424804,133.485108 646.539062,133.325439 C646.653321,133.165771 646.710449,132.981935 646.710449,132.773926 L646.710449,132.431152 C646.710449,132.223143 646.652588,132.039307 646.536865,131.879639 C646.421142,131.71997 646.243165,131.640137 646.00293,131.640137 C645.768554,131.640137 645.593506,131.71997 645.477783,131.879639 C645.36206,132.039307 645.304199,132.223143 645.304199,132.431152 Z M652.181641,134.733887 C652.123047,134.889161 652.038086,135.059814 651.926758,135.24585 C651.815429,135.431886 651.666749,135.59082 651.480713,135.722656 C651.294677,135.854493 651.058107,135.92041 650.770996,135.92041 C650.703613,135.92041 650.62085,135.912354 650.522705,135.89624 C650.42456,135.880127 650.354981,135.864746 650.313965,135.850098 L650.30957,135.190918 C650.374024,135.202637 650.447265,135.208496 650.529297,135.208496 C650.804689,135.208496 651.020019,135.1521 651.175293,135.039307 C651.330567,134.926513 651.458007,134.723634 651.557617,134.430664 L651.733398,133.947266 L650.037109,129.245117 L650.924805,129.245117 L652.115723,132.804688 L653.21875,129.245117 L654.088867,129.245117 L652.181641,134.733887 Z" id="75%-y" fill="#00AEEF"></path>
        <polygon id="x" fill="#00AEEF" points="632.168945 105.245117 633.210449 106.976562 634.265137 105.245117 635.21875 105.245117 633.663086 107.591797 635.26709 110 634.32666 110 633.228027 108.21582 632.129395 110 631.18457 110 632.78418 107.591797 631.23291 105.245117"></polygon>
        <rect id="Rectangle" fill="#00AEEF" x="622" y="114" width="1" height="33"></rect>
        <rect id="Rectangle" fill="#00AEEF" x="622" y="57" width="1" height="44"></rect>
    </g>
</svg>