<svg aria-hidden="true" class="svg-icon iconFaceFrown" width="18" height="18" viewBox="0 0 18 18"><circle opacity=".4" cx="9" cy="9" r="8" fill="#FFAA3B"/><path opacity=".3" d="M8.41 17a10 10 0 0 1 .38-15.75c.1-.08.2-.16.28-.25a8 8 0 0 0-.66 16z" fill="#FF9700"/><path d="M5.65 5c-.37 0-.64.35-.65.7v.55C5 7.1 5.6 7.97 6.5 8c.91 0 1.52-.9 1.5-1.75v-.54c0-.36-.27-.72-.66-.71H5.65zm7.22 6.64A4.7 4.7 0 0 0 9.02 10a4.7 4.7 0 0 0-3.86 1.64c-.25.33-.24 1.11 0 1.43.22.32.59.42.96.42 1.9-.15 3.8-.15 5.7 0 .38.05.77-.11.98-.4.25-.3.29-1.1.07-1.45zM10.66 5h1.7c.33 0 .63.33.64.7v.55c.02.85-.59 1.73-1.5 1.75-.9-.03-1.5-.9-1.5-1.75v-.54c0-.36.28-.72.66-.71z" fill="#1A1104"/></svg>