<svg aria-hidden="true" class="svg-icon iconFire" width="18" height="18" viewBox="0 0 18 18"><path opacity=".6" d="M13.18 9c-.8.33-1.46.6-1.97 1.3A9.21 9.21 0 0 0 10 13.89a10 10 0 0 0 1.32-.8 2.53 2.53 0 0 1-.63 2.91h.78a3 3 0 0 0 1.66-.5 4.15 4.15 0 0 0 1.26-1.61c.4-.96.47-1.7.55-2.73.05-1.24-.1-2.49-.46-3.68a2 2 0 0 1-.4.91 2.1 2.1 0 0 1-.9.62z" fill="#FF6700"/><path d="M10.4 12.11a7.1 7.1 0 0 1 .78-1.76c.3-.47.81-.8 1.37-1.08 0 0-.05-3.27-1.55-5.27-1.5-2-3.37-2.75-4.95-2.61 0 0 3.73 2.42.72 5.15C4.63 8.45 3.59 10.87 4.13 13a4.14 4.14 0 0 0 3.1 3 4.05 4.05 0 0 1 1.08-3.89C9.42 10.92 8 9.79 8 9.79c.67.02 1.3.28 1.81.72a2 2 0 0 1 .58 1.6z" fill="#EF2E2E"/></svg>