<svg aria-hidden="true" class="svg-icon iconHandNice" width="18" height="18" viewBox="0 0 18 18"><path opacity=".7" d="M9 15.77V15h5v.77A1.23 1.23 0 0 1 12.77 17h-2.54A1.23 1.23 0 0 1 9 15.77z" fill="#07C"/><path d="M6.5 2c.28 0 .5.22.5.5v1a.5.5 0 0 1-1 0v-1c0-.28.22-.5.5-.5zM2 6.5c0-.28.22-.5.5-.5h1a.5.5 0 0 1 0 1h-1a.5.5 0 0 1-.5-.5zm1.85-3.35a.5.5 0 1 0-.7.7l1 1a.5.5 0 1 0 .7-.7l-1-1z" opacity=".4"/><path d="M14.9 7.56v-5.7a.94.94 0 0 0-.88-.9c-.45.01-.83.44-.83.9V5.4l-2.63-4.05a.94.94 0 0 0-1.19-.4A.86.86 0 0 0 9 2.08l1.5 2.15a1.48 1.48 0 0 0-1.32.23l-1.21.94c-.86.66.26 1.97 1.09 1.37l.53-.32c.28-.16.64 0 .83.24l.82.86c.22.22.36.52.4.84.02.32-.06.77-.27 1-.21.24-.35.45-.68.59-.27.1-.57.12-.85.03L7.8 9.67c.72-2.25-1.08-2.4-1.46-1.98a4.5 4.5 0 0 0-.6 2.5C5.82 10.9 9 14 9 14h5s1.47-3.3 1.5-4.5c.03-1.2-.42-1.6-.6-1.94z" fill="#FFC166"/></svg>