<svg aria-hidden="true" class="svg-icon iconJira" width="18" height="18" viewBox="0 0 18 18"><path d="M16.36 1H8.78a3.42 3.42 0 0 0 3.42 3.42h1.4v1.35A3.42 3.42 0 0 0 17 9.2V1.66a.66.66 0 0 0-.64-.66z" fill="#2684FF"/><path d="M12.33 5H4.74a3.42 3.42 0 0 0 3.42 3.43h1.4v1.35a3.42 3.42 0 0 0 3.42 3.42V5.66a.66.66 0 0 0-.65-.66z" fill="url(#paint0_linear)"/><path d="M8.36 9H.76a3.42 3.42 0 0 0 3.44 3.42h1.4v1.35a3.42 3.42 0 0 0 3.42 3.43V9.66A.66.66 0 0 0 8.36 9z" fill="url(#paint1_linear)"/><defs><linearGradient id="paint0_linear" x1="12.82" y1="5.02" x2="9.6" y2="8.34" gradientUnits="userSpaceOnUse"><stop offset=".18" stop-color="#0052CC"/><stop offset="1" stop-color="#2684FF"/></linearGradient><linearGradient id="paint1_linear" x1="346.65" y1="327.03" x2="210.84" y2="460.17" gradientUnits="userSpaceOnUse"><stop offset=".18" stop-color="#0052CC"/><stop offset="1" stop-color="#2684FF"/></linearGradient></defs></svg>