<svg aria-hidden="true" class="svg-icon iconLaunchPad" width="18" height="18" viewBox="0 0 18 18"><path d="M15.25 13.75L12.5 12l-3.47 2L9 17.75l6.25-4z" fill="#9E2831"/><path d="M8 17.75V14l-3.47-2-2.78 1.75 6.25 4z" fill="#BB3A84"/><path d="M12 11V7L8.5 5 5 7v4l3.5 2 3.5-2z" fill="#F8C300"/><path d="M1.03 12.87L4 11V7L1 5l.03 7.87z" fill="#3941BF"/><path d="M13.02 7v4L16 13V5l-2.98 2z" fill="#D08935"/><path d="M1.75 4.25l2.77 1.76L7.99 4 8 .25l-6.25 4z" fill="#3292BB"/><path d="M12.5 6l2.75-1.75L9 .25V4l3.5 2z" fill="#90B636"/></svg>