<svg aria-hidden="true" class="svg-icon iconLightbulb" width="18" height="18" viewBox="0 0 18 18"><path d="M9.5.5a.5.5 0 0 0-1 0v.25a.5.5 0 0 0 1 0V.5zm5.6 2.1a.5.5 0 0 0-.7-.7l-.25.25a.5.5 0 0 0 .7.7l.25-.25zM1 7.5c0-.28.22-.5.5-.5H2a.5.5 0 0 1 0 1h-.5a.5.5 0 0 1-.5-.5zm14.5 0c0-.28.22-.5.5-.5h.5a.5.5 0 0 1 0 1H16a.5.5 0 0 1-.5-.5zM2.9 1.9c.2-.2.5-.2.7 0l.25.25a.5.5 0 1 1-.7.7L2.9 2.6a.5.5 0 0 1 0-.7z" fill-opacity=".4"/><path opacity=".4" d="M7 16h4v1a1 1 0 0 1-1 1H8a1 1 0 0 1-1-1v-1z" fill="#3F3F3F"/><path d="M15 8a6 6 0 0 1-3.5 5.46V14a1 1 0 0 1-1 1h-3a1 1 0 0 1-1-1v-.54A6 6 0 1 1 15 8zm-4.15-3.85a.5.5 0 0 0-.7.7l2 2a.5.5 0 0 0 .7-.7l-2-2z" fill="#FFC166"/></svg>