<svg aria-hidden="true" class="svg-icon iconLogoSEAlternativeSm" width="107" height="15" viewBox="0 0 107 15"><path d="M48.41 11.93l-1.96-3.2-1.04 1.16v2.04h-1.42V2.18h1.42v6.01L48.14 5h1.72l-2.44 2.7 2.74 4.22h-1.75zm-7.06.08c-1.59 0-3.14-.96-3.14-3.56s1.55-3.54 3.14-3.54c.97 0 1.65.27 2.31.97l-.97.93c-.44-.48-.79-.66-1.34-.66s-1 .22-1.3.62c-.31.38-.42.87-.42 1.68 0 .81.1 1.32.41 1.7.3.4.76.62 1.3.62.56 0 .9-.18 1.35-.66l.97.92c-.66.7-1.34.98-2.31.98zm-5.66-3.15h-1.65c-.83 0-1.26.37-1.26 1s.4.99 1.3.99c.53 0 .93-.04 1.3-.4.22-.2.31-.53.31-1.03v-.56zm.03 3.07v-.63c-.51.5-1 .71-1.87.71-.87 0-1.46-.2-1.89-.63a2.1 2.1 0 0 1-.55-1.49c0-1.16.82-2 2.42-2h1.86v-.5c0-.87-.44-1.3-1.54-1.3-.77 0-1.15.18-1.54.68l-.92-.86c.66-.77 1.35-1 2.52-1 1.93 0 2.9.8 2.9 2.38v4.64h-1.39zm-5.9 0c-1.32 0-1.93-.93-1.93-1.93V6.18h-.8V5.1h.8V3h1.41v2.1h1.36v1.07H29.3v3.75c0 .5.25.81.78.81h.58v1.2h-.85zm-6.33.08c-1.48 0-2.55-.34-3.49-1.28l1-.98c.72.72 1.51.94 2.52.94 1.3 0 2.04-.55 2.04-1.5 0-.42-.13-.78-.39-1.01-.25-.23-.5-.33-1.08-.41l-1.16-.17a3.4 3.4 0 0 1-1.88-.78 2.41 2.41 0 0 1-.72-1.86c0-1.7 1.25-2.86 3.3-2.86 1.3 0 2.22.33 3.07 1.1l-.96.94a2.92 2.92 0 0 0-2.15-.75c-1.16 0-1.8.65-1.8 1.52 0 .35.1.67.37.9.25.22.65.38 1.11.45l1.13.17c.91.13 1.42.35 1.84.72.54.47.8 1.17.8 2 0 1.8-1.48 2.86-3.55 2.86z" fill="#fff"/><path d="M104.16 7.09c-.2-.42-.6-.74-1.2-.74s-.99.32-1.18.74c-.1.25-.15.44-.16.75h2.7a2 2 0 0 0-.16-.75zm-2.54 1.96c0 .9.56 1.57 1.55 1.57.78 0 1.16-.21 1.61-.66l1.08 1.04a3.4 3.4 0 0 1-2.7 1.11c-1.68 0-3.29-.76-3.29-3.62 0-2.3 1.26-3.6 3.1-3.6 1.97 0 3.1 1.44 3.1 3.37v.79h-4.45zm-5.48-2.57C95.1 6.48 95 7.37 95 8.3c0 .94.1 1.85 1.15 1.85 1.05 0 1.18-.91 1.18-1.85 0-.93-.13-1.82-1.18-1.82zm-.17 8.22c-1.1 0-1.84-.21-2.58-.92l1.1-1.11c.4.38.8.54 1.4.54 1.06 0 1.43-.74 1.43-1.46v-.72c-.47.51-1 .7-1.7.7-.69 0-1.29-.23-1.68-.62-.67-.66-.73-1.57-.73-2.8 0-1.24.06-2.13.73-2.8.4-.39 1-.62 1.7-.62.75 0 1.24.2 1.73.75v-.67h1.72v6.8c0 1.7-1.21 2.93-3.12 2.93zm-5.76-2.67V7.76c0-.96-.61-1.28-1.17-1.28-.56 0-1.18.32-1.18 1.28v4.27h-1.78V4.97h1.73v.65a2.44 2.44 0 0 1 1.78-.73c.7 0 1.28.23 1.67.62.58.57.73 1.24.73 2v4.52H90.2zm-7.1-2.98h-1.4c-.64 0-1 .3-1 .8 0 .49.33.81 1.02.81.5 0 .8-.04 1.12-.34.2-.17.26-.46.26-.89v-.38zm.04 2.98v-.6c-.48.47-.93.67-1.74.67-.8 0-1.4-.2-1.82-.62-.38-.4-.58-.97-.58-1.59 0-1.12.77-2.05 2.42-2.05h1.68V7.5c0-.77-.38-1.11-1.32-1.11-.68 0-1 .16-1.37.58l-1.13-1.1c.7-.75 1.38-.97 2.57-.97 1.99 0 3.02.84 3.02 2.5v4.64h-1.73zm-6.93 0v-4.3c0-.94-.6-1.25-1.15-1.25-.56 0-1.15.32-1.15 1.24v4.31h-1.77V2.38h1.77v3.24a2.35 2.35 0 0 1 1.7-.73c1.56 0 2.38 1.08 2.38 2.57v4.57h-1.78zm-6.96.08c-1.42 0-3.18-.76-3.18-3.62 0-2.85 1.76-3.6 3.18-3.6.98 0 1.72.3 2.34.95l-1.2 1.2c-.36-.4-.68-.56-1.14-.56-.42 0-.75.14-1.01.46-.27.33-.4.8-.4 1.55s.13 1.24.4 1.58c.26.3.59.46 1 .46.47 0 .79-.16 1.15-.56l1.2 1.18c-.62.65-1.36.96-2.34.96zm-5.53-.08l-1.3-2.11-1.3 2.11H59l2.45-3.6-2.35-3.46h2.12L62.42 7l1.21-2.02h2.13L63.4 8.43l2.46 3.6h-2.13zm-11.75 0V2.06h6.6V3.8h-4.65v2.33h3.96v1.74h-3.96v2.42h4.65v1.74h-6.6z" fill="#2F96E8"/><path d="M0 3c0-1.1.9-2 2-2h8a2 2 0 0 1 2 2H0z" fill="#8FD8F7"/><path d="M12 10H0c0 1.1.9 2 2 2h5v3l3-3a2 2 0 0 0 2-2z" fill="#155397"/><path fill="#46A2D9" d="M0 4h12v2H0z"/><path fill="#2D6DB5" d="M0 7h12v2H0z"/></svg>