<svg width="966" height="500" viewBox="0 0 966 500" fill="none" xmlns="http://www.w3.org/2000/svg">
<rect width="966" height="500" fill="#E5E5E5"/>
<g clip-path="url(#clip0_3536_6210)">
<rect width="235.822" height="264.91" transform="translate(91 117.394)" fill="#201C1D"/>
<path d="M104.055 132.754H109.421C113.249 132.754 116.347 133.862 116.347 137.791C116.347 139.126 115.667 140.613 114.257 141.318C115.97 141.897 117.254 143.333 117.254 145.323C117.254 149.252 114.156 150.386 110.327 150.386H104.055V132.754ZM109.471 140.285C111.965 140.285 113.451 139.756 113.451 137.741C113.451 135.751 112.091 135.172 109.421 135.172H106.826V140.285H109.471ZM106.826 147.968H110.327C112.846 147.968 114.383 147.413 114.383 145.323C114.383 143.358 112.846 142.703 110.378 142.703H106.826V147.968ZM131.467 150.386H128.746V148.043C128.142 149.454 126.781 150.789 124.086 150.789C121.366 150.789 119.351 149.277 119.351 144.97V136.28H122.046V144.643C122.046 146.935 122.625 148.421 124.792 148.421C126.807 148.421 128.746 146.658 128.746 143.308V136.28H131.467V150.386ZM134.116 136.28H136.836V150.386H134.116V136.28ZM133.965 131.494H137.012V134.592H133.965V131.494ZM139.548 131.494H142.269V150.386H139.548V131.494ZM150.654 150.789C146.775 150.789 144.307 147.716 144.307 143.358C144.307 138.975 146.775 135.877 150.654 135.877C152.821 135.877 154.307 136.834 155.188 138.446V131.494H157.909V150.386H155.188V148.245C154.357 149.781 152.896 150.789 150.654 150.789ZM151.032 148.32C153.803 148.32 155.188 146.204 155.188 143.358C155.188 140.487 153.803 138.346 151.032 138.346C148.589 138.346 147.103 140.361 147.103 143.358C147.103 146.33 148.589 148.32 151.032 148.32ZM103.955 156.494H106.675V167.376L111.713 161.28H114.987L110.352 166.897L115.567 175.386H112.468L108.665 168.912L106.675 171.33V175.386H103.955V156.494ZM117.286 161.28H120.006V163.597C120.585 162.187 121.971 160.877 124.641 160.877C127.361 160.877 129.401 162.388 129.401 166.696V175.386H126.681V167.023C126.681 164.731 126.127 163.245 123.961 163.245C121.946 163.245 120.006 165.008 120.006 168.358V175.386H117.286V161.28ZM138.474 175.789C134.116 175.789 131.27 172.716 131.27 168.358C131.27 163.975 134.116 160.877 138.474 160.877C142.831 160.877 145.678 163.975 145.678 168.358C145.678 172.716 142.831 175.789 138.474 175.789ZM138.474 173.32C141.219 173.32 142.882 171.33 142.882 168.358C142.882 165.361 141.219 163.346 138.474 163.346C135.703 163.346 134.066 165.361 134.066 168.358C134.066 171.33 135.703 173.32 138.474 173.32ZM146.443 161.28H149.365L151.682 172.338L154.201 161.28H157.198L159.717 172.338L162.035 161.28H164.957L161.43 175.386H157.904L155.712 165.738L153.496 175.386H149.969L146.443 161.28ZM166.779 156.494H169.499V175.386H166.779V156.494ZM185.066 170.902C184.411 173.799 182.069 175.789 178.643 175.789C174.285 175.789 171.439 172.716 171.439 168.358C171.439 163.975 174.285 160.877 178.643 160.877C182.472 160.877 185.645 163.925 185.066 169.24H174.285C174.562 171.633 175.998 173.32 178.643 173.32C180.608 173.32 181.741 172.262 182.195 170.902H185.066ZM174.361 166.948H182.421C182.195 164.882 180.91 163.346 178.643 163.346C176.174 163.346 174.764 164.806 174.361 166.948ZM192.89 175.789C189.011 175.789 186.542 172.716 186.542 168.358C186.542 163.975 189.011 160.877 192.89 160.877C195.056 160.877 196.542 161.834 197.424 163.446V156.494H200.144V175.386H197.424V173.245C196.593 174.781 195.132 175.789 192.89 175.789ZM193.268 173.32C196.039 173.32 197.424 171.204 197.424 168.358C197.424 165.487 196.039 163.346 193.268 163.346C190.824 163.346 189.338 165.361 189.338 168.358C189.338 171.33 190.824 173.32 193.268 173.32ZM208.534 175.285C204.655 175.285 202.187 172.464 202.187 168.106C202.187 163.723 204.655 160.877 208.534 160.877C210.676 160.877 212.162 161.708 213.068 163.245V161.28H215.789V174.63C215.789 178.61 213.194 180.827 209.542 180.827C205.058 180.827 203.32 178.383 202.917 175.99H205.739C206.066 177.628 207.426 178.358 209.542 178.358C211.683 178.358 213.068 177.275 213.068 174.63V172.968C212.212 174.429 210.751 175.285 208.534 175.285ZM208.912 172.816C211.683 172.816 213.068 170.953 213.068 168.106C213.068 165.235 211.683 163.346 208.912 163.346C206.469 163.346 204.983 165.109 204.983 168.106C204.983 171.078 206.469 172.816 208.912 172.816ZM231.36 170.902C230.705 173.799 228.363 175.789 224.937 175.789C220.579 175.789 217.733 172.716 217.733 168.358C217.733 163.975 220.579 160.877 224.937 160.877C228.766 160.877 231.94 163.925 231.36 169.24H220.579C220.857 171.633 222.292 173.32 224.937 173.32C226.902 173.32 228.035 172.262 228.489 170.902H231.36ZM220.655 166.948H228.715C228.489 164.882 227.204 163.346 224.937 163.346C222.469 163.346 221.058 164.806 220.655 166.948ZM239.464 160.071C239.464 157.93 240.723 156.494 243.519 156.494H245.685V158.812H243.544C242.637 158.812 242.184 159.24 242.184 160.071V161.28H245.333V163.597H242.184V175.386H239.464V163.597H237.852V161.28H239.464V160.071ZM253.348 175.789C248.991 175.789 246.144 172.716 246.144 168.358C246.144 163.975 248.991 160.877 253.348 160.877C257.706 160.877 260.552 163.975 260.552 168.358C260.552 172.716 257.706 175.789 253.348 175.789ZM253.348 173.32C256.094 173.32 257.756 171.33 257.756 168.358C257.756 165.361 256.094 163.346 253.348 163.346C250.577 163.346 248.94 165.361 248.94 168.358C248.94 171.33 250.577 173.32 253.348 173.32ZM262.49 161.28H265.21V163.648C265.765 162.212 267.024 160.877 269.921 160.877V163.597C266.923 163.597 265.21 164.63 265.21 167.98V175.386H262.49V161.28ZM103.274 186.28H105.39V182.754H108.111V186.28H110.705V188.597H108.111V196.557C108.111 197.59 108.614 198.068 109.597 198.068H111.108V200.386H109.572C106.776 200.386 105.39 198.95 105.39 196.557V188.597H103.274V186.28ZM113.13 181.494H115.85V188.623C116.455 187.212 117.79 185.877 120.485 185.877C123.205 185.877 125.246 187.388 125.246 191.696V200.386H122.525V192.023C122.525 189.731 121.971 188.245 119.805 188.245C117.79 188.245 115.85 190.008 115.85 193.358V200.386H113.13V181.494ZM140.74 195.902C140.085 198.799 137.742 200.789 134.317 200.789C129.959 200.789 127.113 197.716 127.113 193.358C127.113 188.975 129.959 185.877 134.317 185.877C138.145 185.877 141.319 188.925 140.74 194.24H129.959C130.236 196.633 131.672 198.32 134.317 198.32C136.281 198.32 137.415 197.262 137.868 195.902H140.74ZM130.035 191.948H138.095C137.868 189.882 136.584 188.346 134.317 188.346C131.848 188.346 130.438 189.806 130.035 191.948ZM148.843 185.071C148.843 182.93 150.103 181.494 152.899 181.494H155.065V183.812H152.924C152.017 183.812 151.564 184.24 151.564 185.071V186.28H154.712V188.597H151.564V200.386H148.843V188.597H147.231V186.28H148.843V185.071ZM168.733 200.386H166.013V198.043C165.408 199.454 164.048 200.789 161.353 200.789C158.632 200.789 156.617 199.277 156.617 194.97V186.28H159.313V194.643C159.313 196.935 159.892 198.421 162.058 198.421C164.073 198.421 166.013 196.658 166.013 193.308V186.28H168.733V200.386ZM170.551 186.28H172.667V182.754H175.387V186.28H177.982V188.597H175.387V196.557C175.387 197.59 175.891 198.068 176.873 198.068H178.385V200.386H176.848C174.052 200.386 172.667 198.95 172.667 196.557V188.597H170.551V186.28ZM192.249 200.386H189.529V198.043C188.924 199.454 187.564 200.789 184.869 200.789C182.148 200.789 180.133 199.277 180.133 194.97V186.28H182.829V194.643C182.829 196.935 183.408 198.421 185.574 198.421C187.589 198.421 189.529 196.658 189.529 193.308V186.28H192.249V200.386ZM194.746 186.28H197.466V188.648C198.021 187.212 199.28 185.877 202.177 185.877V188.597C199.179 188.597 197.466 189.63 197.466 192.98V200.386H194.746V186.28ZM216.183 195.902C215.528 198.799 213.186 200.789 209.76 200.789C205.402 200.789 202.556 197.716 202.556 193.358C202.556 188.975 205.402 185.877 209.76 185.877C213.589 185.877 216.762 188.925 216.183 194.24H205.402C205.679 196.633 207.115 198.32 209.76 198.32C211.725 198.32 212.858 197.262 213.311 195.902H216.183ZM205.478 191.948H213.538C213.311 189.882 212.027 188.346 209.76 188.346C207.291 188.346 205.881 189.806 205.478 191.948ZM217.269 197.288H220.317V200.386H217.269V197.288Z" fill="#EEEEEE"/>
<path d="M312.638 361.138L312.665 361.152L312.658 361.159L312.638 361.139C312.051 361.899 311.559 362.736 311.18 363.631C311.174 363.645 311.169 363.657 311.163 363.671C310.798 364.543 310.538 365.471 310.402 366.44C310.4 366.445 310.4 366.452 310.4 366.457C310.328 366.971 310.29 367.496 310.29 368.029C310.29 368.483 310.318 368.931 310.37 369.371H299.469V366.44H308.935C308.953 366.319 308.974 366.2 308.995 366.081L299.876 363.638L300.635 360.806L309.867 363.279C309.91 363.184 309.954 363.091 309.998 362.997L301.712 358.215L303.178 355.677L311.587 360.529C311.653 360.45 311.72 360.37 311.79 360.292L304.9 353.406L306.975 351.332L313.975 358.331L314.714 359.07C313.936 359.666 313.238 360.362 312.638 361.138Z" fill="#EEEEEE"/>
<g clip-path="url(#clip1_3536_6210)">
<path d="M188.692 289.948C174.213 280.449 160.233 270.122 145.55 260.925L185.349 305.749L169.765 305.987C167.257 303.095 164.51 300.38 161.951 297.544C146.842 280.798 132.429 263.383 117.137 246.79C116.811 246.272 117.026 245.753 117.059 245.218C117.337 240.703 122.383 226.428 121.537 223.401C122.066 223.155 121.933 222.58 122.593 222.463C126.762 221.723 133.218 223.069 137.642 222.49L132.48 246.036L141.588 256.522L144.767 232.795C144.706 232.308 145.959 231.92 146.15 231.909C150.372 231.679 156.073 232.461 160.432 232.517L157.081 257.579C157.255 258.357 165.689 263.842 167.114 264.423L168.331 243.151C170.961 243.141 173.603 243.169 176.233 243.152C178.761 243.136 181.302 243.164 183.83 243.152L182.631 269.877L193.248 272.322L192.635 254.881C192.685 254.519 193.273 254.741 193.553 254.699C197.87 254.063 203.657 255.172 208.139 254.699L208.747 281.439L193.25 281.439L193.25 276.578L180.635 273.845L213.305 296.025L198.025 295.959C194.905 293.976 191.78 291.974 188.691 289.948L188.692 289.948Z" fill="#EEEEEE"/>
<path d="M96.3144 326.713L80.5564 326.975L73.5245 303.62C66.9381 274.674 55.5834 245.716 48.3179 216.828C48.1731 216.254 48.3719 215.803 48.5413 215.279C48.8656 214.275 53.6803 207.503 54.6847 206.078C55.2368 205.296 57.7462 201.433 58.2389 201.276L73.8282 201.52L64.0804 215.324L63.8068 216.519L96.3143 326.713L96.3144 326.713Z" fill="#EEEEEE"/>
<path d="M126.701 321.251C126.535 321.833 126.141 321.797 125.657 321.874C124.347 322.082 111.538 322.075 110.896 321.71L105.431 309.704L70.3043 225.24C72.3644 220.597 74.3366 215.813 76.5633 211.251C77.3028 209.736 78.2541 208.258 78.9006 206.684L94.4914 206.997C92.1623 211.869 89.1604 217.013 87.1462 221.986C86.6931 223.105 85.8818 224.384 86.0438 225.602C99.963 256.901 111.782 289.208 125.875 320.421C126.078 320.869 125.921 321.412 126.701 321.251Z" fill="#EEEEEE"/>
<path d="M96.3148 326.72L63.8072 216.525L64.0809 215.33L73.8286 201.527L76.5635 211.251C74.3368 215.812 72.3646 220.597 70.3045 225.239L105.431 309.703L106.02 312.021C103.389 317.146 99.6402 321.935 96.3148 326.72Z" fill="#FF5E00"/>
<path d="M156.176 314.254L140.595 314.56L134.297 304.834C121.289 281.524 106.87 258.739 93.34 235.619C92.7411 232.757 99.0819 220.954 98.7451 217.017C99.9711 216.312 99.389 213.982 100.717 213.671L115.761 213.978L108.897 234.332L108.899 235.558L156.176 314.254L156.176 314.254Z" fill="#EEEEEE"/>
<path d="M134.297 304.834L126.7 321.242C125.92 321.403 126.077 320.861 125.874 320.413C111.781 289.2 99.962 256.893 86.0429 225.594C85.8807 224.376 86.6919 223.097 87.1452 221.978C89.1593 217.005 92.1612 211.861 94.4905 206.989C94.9395 207.297 98.6778 216.236 98.7446 217.016C99.0814 220.954 92.7404 232.756 93.3394 235.619C106.87 258.738 121.289 281.523 134.297 304.834Z" fill="#FF5E00"/>
<path d="M156.176 314.254L108.899 235.557L108.897 234.331L115.761 213.978C116.247 214.24 121.304 222.57 121.535 223.397C122.381 226.425 117.335 240.7 117.056 245.214C117.023 245.749 116.809 246.269 117.135 246.786C132.426 263.38 146.84 280.795 161.949 297.541L156.176 314.254Z" fill="#FF5E00"/>
<path d="M193.552 254.703C193.272 254.744 192.684 254.522 192.634 254.884L193.246 272.325L182.629 269.881L183.828 243.156L215.734 251.664C208.34 252.623 200.882 253.319 193.552 254.703Z" fill="#FF5E00"/>
<path d="M271.343 289.341C271.601 291.179 272.092 293.021 272.559 294.811L264.354 302.712L259.796 278.098L313.881 225.833L313.472 227.092L271.343 289.341Z" fill="#FF5E00"/>
<path d="M218.166 266.549L219.382 279.917L210.571 281.139C212.061 281.876 213.826 282.213 215.431 282.654L213.304 296.024L180.635 273.844L193.249 276.577L193.249 281.439L208.746 281.439L208.138 254.698L249.768 249.232L218.166 266.549Z" fill="#FF5E00"/>
<path d="M233.663 266.55L282.887 240.421L244.298 278.097C244.501 281.278 245.266 284.392 245.817 287.517C242.686 288.622 239.237 291.624 236.094 292.379L233.663 266.55L233.663 266.55Z" fill="#FF5E00"/>
<path d="M236.094 292.376C234.663 292.72 221.491 293.006 220.88 292.549L219.625 283.626C219.413 283.395 216.109 282.839 215.431 282.653C213.826 282.211 212.061 281.875 210.571 281.137L219.382 279.916L218.166 266.548L233.663 266.548L236.094 292.377L236.094 292.376Z" fill="#EEEEEE"/>
<path d="M264.354 302.709L248.836 302.578C247.848 297.563 246.705 292.546 245.818 287.516C245.266 284.391 244.501 281.277 244.298 278.096L259.795 278.096L264.354 302.709Z" fill="#EEEEEE"/>
<path d="M286.838 289.341L271.341 289.341L313.47 227.092L313.878 225.833L259.794 278.098L244.297 278.098L282.885 240.422L233.661 266.551L218.164 266.551L249.766 249.234L208.137 254.7C203.655 255.174 197.867 254.064 193.551 254.7C200.882 253.317 208.339 252.621 215.733 251.662C228.813 249.966 241.87 248.021 255.007 246.723C260.57 244.915 270.149 237.103 275.217 235.938C278.747 235.127 284.297 236.513 288.046 235.701L298.602 225.595L314.446 225.806L320.772 216.467C323.123 216.76 334.826 215.776 336.064 216.717L286.838 289.341L286.838 289.341Z" fill="#5074EF"/>
<path d="M336.977 219.454C324.127 246.143 311.901 273.171 299.297 299.978C299.56 300.628 299.432 301.905 299.601 302.409L293.524 311.526C292.951 311.32 292.916 310.796 292.759 310.316C290.5 303.44 288.794 296.311 286.838 289.343L336.065 216.719C336.593 217.121 336.883 218.759 336.977 219.454L336.977 219.454Z" fill="#FF5E00"/>
<path d="M272.557 294.812C272.09 293.022 271.599 291.18 271.341 289.342L286.838 289.342C288.794 296.31 290.499 303.439 292.759 310.315C292.916 310.795 292.951 311.319 293.523 311.525L292.797 311.846L277.706 311.693C276.211 306.032 274.028 300.463 272.557 294.812Z" fill="#EEEEEE"/>
<path d="M322.695 319.418L314.795 299.97L357.64 209.114L365.793 228.633L322.695 319.418Z" fill="#FF5E00"/>
<path d="M314.795 299.973L299.298 299.973C311.902 273.165 324.128 246.137 336.978 219.449C338.664 215.946 340.441 212.464 342.142 208.964L357.641 209.117L314.795 299.973L314.795 299.973Z" fill="#5074EF"/>
<path d="M322.695 319.423L307.188 319.281C304.893 313.789 302.351 308.376 300.301 302.782C300.121 302.292 299.614 302.444 299.601 302.407C299.433 301.902 299.56 300.625 299.298 299.976L314.795 299.976L322.695 319.423Z" fill="#EEEEEE"/>
<path d="M185.347 305.746L145.548 260.922C160.231 270.119 174.211 280.445 188.689 289.945L185.347 305.746L185.347 305.746Z" fill="#FF5E00"/>
<path d="M176.23 243.151C173.601 243.168 170.958 243.14 168.328 243.15L167.111 264.422C165.686 263.841 157.252 258.356 157.078 257.578L160.429 232.516L176.23 243.152L176.23 243.151Z" fill="#FF5E00"/>
<path d="M146.148 231.907C145.957 231.918 144.704 232.305 144.765 232.792L141.587 256.52L132.478 246.034L137.64 222.487L146.148 231.907L146.148 231.907Z" fill="#FF5E00"/>
</g>
</g>
<rect width="94.7503" height="63.5029" transform="translate(345.514 318.832)" fill="#EEEEEE"/>
<path d="M354.917 376.194C353.133 376.194 352.149 374.882 352.149 373.258C352.149 371.65 353.133 370.338 354.917 370.338C356.693 370.338 357.677 371.65 357.677 373.258C357.677 374.882 356.693 376.194 354.917 376.194ZM354.917 375.378C356.165 375.378 356.757 374.378 356.757 373.258C356.757 372.154 356.165 371.154 354.917 371.154C353.661 371.154 353.061 372.154 353.061 373.258C353.061 374.378 353.661 375.378 354.917 375.378ZM358.886 371.202C358.886 370.522 359.286 370.066 360.174 370.066H360.862V370.802H360.182C359.894 370.802 359.75 370.938 359.75 371.202V371.586H360.75V372.322H359.75V376.066H358.886V372.322H358.374V371.586H358.886V371.202ZM362.058 371.202C362.058 370.522 362.458 370.066 363.346 370.066H364.034V370.802H363.354C363.066 370.802 362.922 370.938 362.922 371.202V371.586H363.922V372.322H362.922V376.066H362.058V372.322H361.546V371.586H362.058V371.202ZM364.605 373.138H367.125V373.874H364.605V373.138ZM369.057 376.066L367.609 370.466H368.489L369.641 375.162L370.785 370.466H371.801L372.953 375.162L374.097 370.466H374.977L373.529 376.066H372.369L371.297 371.906L370.217 376.066H369.057ZM375.817 370.066H376.681V372.33C376.873 371.882 377.297 371.458 378.153 371.458C379.017 371.458 379.665 371.938 379.665 373.306V376.066H378.801V373.41C378.801 372.682 378.625 372.21 377.937 372.21C377.297 372.21 376.681 372.77 376.681 373.834V376.066H375.817V370.066ZM380.693 371.586H381.557V376.066H380.693V371.586ZM380.645 370.066H381.613V371.05H380.645V370.066ZM382.46 371.586H383.132V370.466H383.996V371.586H384.82V372.322H383.996V374.85C383.996 375.178 384.156 375.33 384.468 375.33H384.948V376.066H384.46C383.572 376.066 383.132 375.61 383.132 374.85V372.322H382.46V371.586ZM389.797 374.642C389.589 375.562 388.845 376.194 387.757 376.194C386.373 376.194 385.469 375.218 385.469 373.834C385.469 372.442 386.373 371.458 387.757 371.458C388.973 371.458 389.981 372.426 389.797 374.114H386.373C386.461 374.874 386.917 375.41 387.757 375.41C388.381 375.41 388.741 375.074 388.885 374.642H389.797ZM386.397 373.386H388.957C388.885 372.73 388.477 372.242 387.757 372.242C386.973 372.242 386.525 372.706 386.397 373.386Z" fill="#201C1D"/>
<path d="M416.62 376.066C416.66 373.266 419.932 373.562 419.932 372.122C419.932 371.522 419.5 371.154 418.82 371.154C418.004 371.154 417.644 371.594 417.596 372.242H416.676C416.676 371.114 417.58 370.338 418.78 370.338C420.14 370.338 420.844 371.162 420.844 372.106C420.844 373.946 418.404 373.73 417.804 375.29H420.86V376.066H416.62ZM423.893 372.306C425.245 372.306 425.941 373.122 425.941 374.25C425.941 375.346 425.165 376.194 423.805 376.194C422.637 376.194 421.645 375.418 421.645 374.29H422.541C422.589 374.898 423.013 375.378 423.845 375.378C424.629 375.378 425.021 374.85 425.021 374.226C425.021 373.546 424.613 373.106 423.837 373.106C423.245 373.106 422.781 373.37 422.581 373.77H421.685L422.285 370.466H425.445V371.234H423.013L422.725 372.738C423.021 372.49 423.405 372.306 423.893 372.306ZM431.222 370.466H432.166L429.046 376.066H428.102L431.222 370.466ZM428.062 373.85C427.086 373.85 426.638 373.066 426.638 372.09C426.638 371.122 427.086 370.338 428.062 370.338C429.03 370.338 429.478 371.122 429.478 372.09C429.478 373.066 429.03 373.85 428.062 373.85ZM428.062 373.09C428.462 373.09 428.686 372.674 428.686 372.09C428.686 371.514 428.462 371.098 428.062 371.098C427.662 371.098 427.438 371.514 427.438 372.09C427.438 372.674 427.662 373.09 428.062 373.09ZM432.182 376.194C431.206 376.194 430.758 375.41 430.758 374.434C430.758 373.466 431.206 372.682 432.182 372.682C433.15 372.682 433.598 373.466 433.598 374.434C433.598 375.41 433.15 376.194 432.182 376.194ZM432.182 375.434C432.582 375.434 432.806 375.018 432.806 374.434C432.806 373.858 432.582 373.442 432.182 373.442C431.782 373.442 431.558 373.858 431.558 374.434C431.558 375.018 431.782 375.434 432.182 375.434Z" fill="#201C1D"/>
<rect width="94.7503" height="62.4949" transform="translate(345.514 256.337)" fill="#FF5E00"/>
<path d="M353.149 310.779C353.205 311.467 353.789 311.875 354.557 311.875C355.301 311.875 355.813 311.579 355.813 311.051C355.813 309.787 352.269 310.755 352.269 308.483C352.269 307.555 353.157 306.835 354.477 306.835C355.693 306.835 356.645 307.627 356.645 308.739H355.709C355.661 308.051 355.269 307.651 354.437 307.651C353.613 307.651 353.181 307.987 353.181 308.483C353.181 309.843 356.733 308.803 356.733 311.051C356.733 312.091 355.909 312.691 354.509 312.691C353.213 312.691 352.245 311.875 352.205 310.779H353.149ZM357.445 308.083H358.117V306.963H358.981V308.083H359.805V308.819H358.981V311.347C358.981 311.675 359.141 311.827 359.453 311.827H359.933V312.563H359.445C358.557 312.563 358.117 312.107 358.117 311.347V308.819H357.445V308.083ZM362.579 307.955C363.803 307.955 364.435 308.747 364.435 310.003V312.563H363.571V311.947C363.331 312.403 362.915 312.691 362.275 312.691C361.395 312.691 360.731 312.187 360.731 311.291C360.731 309.891 362.267 309.739 363.563 309.787C363.515 309.139 363.243 308.723 362.579 308.723C361.891 308.723 361.531 309.147 361.531 309.659H360.619C360.619 308.771 361.315 307.955 362.579 307.955ZM361.627 311.243C361.627 311.691 361.939 311.931 362.467 311.931C363.091 311.931 363.571 311.523 363.571 310.795V310.395C362.251 310.331 361.627 310.707 361.627 311.243ZM369.65 310.683C369.61 311.843 368.81 312.691 367.546 312.691C366.162 312.691 365.258 311.715 365.258 310.331C365.258 308.939 366.162 307.955 367.546 307.955C368.762 307.955 369.594 308.859 369.634 309.843H368.722C368.682 309.299 368.338 308.747 367.546 308.747C366.602 308.747 366.146 309.419 366.146 310.331C366.146 311.235 366.602 311.899 367.546 311.899C368.386 311.899 368.714 311.315 368.754 310.683H369.65ZM370.512 306.563H371.376V310.019L372.976 308.083H374.016L372.544 309.867L374.2 312.563H373.216L372.008 310.507L371.376 311.275V312.563H370.512V306.563ZM379.394 312.691C377.61 312.691 376.626 311.379 376.626 309.755C376.626 308.147 377.61 306.835 379.394 306.835C381.17 306.835 382.154 308.147 382.154 309.755C382.154 311.379 381.17 312.691 379.394 312.691ZM379.394 311.875C380.642 311.875 381.234 310.875 381.234 309.755C381.234 308.651 380.642 307.651 379.394 307.651C378.138 307.651 377.538 308.651 377.538 309.755C377.538 310.875 378.138 311.875 379.394 311.875ZM383.051 308.083H383.915V308.835C384.091 308.379 384.491 307.955 385.411 307.955V308.819C384.459 308.819 383.915 309.147 383.915 310.211V312.563H383.051V308.083ZM387.876 307.955C389.1 307.955 389.732 308.747 389.732 310.003V312.563H388.868V311.947C388.628 312.403 388.212 312.691 387.572 312.691C386.692 312.691 386.028 312.187 386.028 311.291C386.028 309.891 387.564 309.739 388.86 309.787C388.812 309.139 388.54 308.723 387.876 308.723C387.188 308.723 386.828 309.147 386.828 309.659H385.916C385.916 308.771 386.612 307.955 387.876 307.955ZM386.924 311.243C386.924 311.691 387.236 311.931 387.764 311.931C388.388 311.931 388.868 311.523 388.868 310.795V310.395C387.548 310.331 386.924 310.707 386.924 311.243ZM390.731 308.083H391.595V308.819C391.779 308.371 392.219 307.955 393.067 307.955C393.931 307.955 394.579 308.435 394.579 309.803V312.563H393.715V309.907C393.715 309.179 393.539 308.707 392.851 308.707C392.211 308.707 391.595 309.267 391.595 310.331V312.563H390.731V308.083ZM397.454 312.531C396.222 312.531 395.438 311.635 395.438 310.251C395.438 308.859 396.222 307.955 397.454 307.955C398.134 307.955 398.606 308.219 398.894 308.707V308.083H399.758V312.323C399.758 313.587 398.934 314.291 397.774 314.291C396.35 314.291 395.798 313.515 395.67 312.755H396.566C396.67 313.275 397.102 313.507 397.774 313.507C398.454 313.507 398.894 313.163 398.894 312.323V311.795C398.622 312.259 398.158 312.531 397.454 312.531ZM397.574 311.747C398.454 311.747 398.894 311.155 398.894 310.251C398.894 309.339 398.454 308.739 397.574 308.739C396.798 308.739 396.326 309.299 396.326 310.251C396.326 311.195 396.798 311.747 397.574 311.747ZM404.945 311.139C404.737 312.059 403.993 312.691 402.905 312.691C401.521 312.691 400.617 311.715 400.617 310.331C400.617 308.939 401.521 307.955 402.905 307.955C404.121 307.955 405.129 308.923 404.945 310.611H401.521C401.609 311.371 402.065 311.907 402.905 311.907C403.529 311.907 403.889 311.571 404.033 311.139H404.945ZM401.545 309.883H404.105C404.033 309.227 403.625 308.739 402.905 308.739C402.121 308.739 401.673 309.203 401.545 309.883Z" fill="#201C1D"/>
<path d="M416.621 312.563C416.661 309.763 419.933 310.059 419.933 308.619C419.933 308.019 419.501 307.651 418.821 307.651C418.005 307.651 417.645 308.091 417.597 308.739H416.677C416.677 307.611 417.581 306.835 418.781 306.835C420.141 306.835 420.845 307.659 420.845 308.603C420.845 310.443 418.405 310.227 417.805 311.787H420.861V312.563H416.621ZM423.894 308.803C425.246 308.803 425.942 309.619 425.942 310.747C425.942 311.843 425.166 312.691 423.806 312.691C422.638 312.691 421.646 311.915 421.646 310.787H422.542C422.59 311.395 423.014 311.875 423.846 311.875C424.63 311.875 425.022 311.347 425.022 310.723C425.022 310.043 424.614 309.603 423.838 309.603C423.246 309.603 422.782 309.867 422.582 310.267H421.686L422.286 306.963H425.446V307.731H423.014L422.726 309.235C423.022 308.987 423.406 308.803 423.894 308.803ZM431.222 306.963H432.166L429.046 312.563H428.102L431.222 306.963ZM428.062 310.347C427.086 310.347 426.638 309.563 426.638 308.587C426.638 307.619 427.086 306.835 428.062 306.835C429.03 306.835 429.478 307.619 429.478 308.587C429.478 309.563 429.03 310.347 428.062 310.347ZM428.062 309.587C428.462 309.587 428.686 309.171 428.686 308.587C428.686 308.011 428.462 307.595 428.062 307.595C427.662 307.595 427.438 308.011 427.438 308.587C427.438 309.171 427.662 309.587 428.062 309.587ZM432.182 312.691C431.206 312.691 430.758 311.907 430.758 310.931C430.758 309.963 431.206 309.179 432.182 309.179C433.15 309.179 433.598 309.963 433.598 310.931C433.598 311.907 433.15 312.691 432.182 312.691ZM432.182 311.931C432.582 311.931 432.806 311.515 432.806 310.931C432.806 310.355 432.582 309.939 432.182 309.939C431.782 309.939 431.558 310.355 431.558 310.931C431.558 311.515 431.782 311.931 432.182 311.931Z" fill="#201C1D"/>
<rect width="94.8605" height="101.965" transform="translate(345.459 117.394)" fill="#201C1D"/>
<path d="M354.863 213.218C353.079 213.218 352.095 211.906 352.095 210.282C352.095 208.674 353.079 207.362 354.863 207.362C356.639 207.362 357.623 208.674 357.623 210.282C357.623 211.906 356.639 213.218 354.863 213.218ZM354.863 212.402C356.111 212.402 356.703 211.402 356.703 210.282C356.703 209.178 356.111 208.178 354.863 208.178C353.607 208.178 353.007 209.178 353.007 210.282C353.007 211.402 353.607 212.402 354.863 212.402ZM358.832 208.226C358.832 207.546 359.232 207.09 360.12 207.09H360.808V207.826H360.128C359.84 207.826 359.696 207.962 359.696 208.226V208.61H360.696V209.346H359.696V213.09H358.832V209.346H358.32V208.61H358.832V208.226ZM362.004 208.226C362.004 207.546 362.404 207.09 363.292 207.09H363.98V207.826H363.299C363.012 207.826 362.868 207.962 362.868 208.226V208.61H363.868V209.346H362.868V213.09H362.004V209.346H361.492V208.61H362.004V208.226ZM364.55 210.162H367.07V210.898H364.55V210.162ZM368.044 207.49H369.748C370.964 207.49 371.948 207.842 371.948 209.09C371.948 209.514 371.732 209.986 371.284 210.21C371.828 210.394 372.236 210.85 372.236 211.482C372.236 212.73 371.252 213.09 370.036 213.09H368.044V207.49ZM369.764 209.882C370.556 209.882 371.028 209.714 371.028 209.074C371.028 208.442 370.596 208.258 369.748 208.258H368.924V209.882H369.764ZM368.924 212.322H370.036C370.836 212.322 371.324 212.146 371.324 211.482C371.324 210.858 370.836 210.65 370.052 210.65H368.924V212.322ZM373.161 207.09H374.025V213.09H373.161V207.09ZM376.954 208.482C378.178 208.482 378.81 209.274 378.81 210.53V213.09H377.946V212.474C377.706 212.93 377.29 213.218 376.65 213.218C375.77 213.218 375.106 212.714 375.106 211.818C375.106 210.418 376.642 210.266 377.938 210.314C377.89 209.666 377.618 209.25 376.954 209.25C376.266 209.25 375.906 209.674 375.906 210.186H374.994C374.994 209.298 375.69 208.482 376.954 208.482ZM376.002 211.77C376.002 212.218 376.314 212.458 376.842 212.458C377.466 212.458 377.946 212.05 377.946 211.322V210.922C376.626 210.858 376.002 211.234 376.002 211.77ZM384.025 211.21C383.985 212.37 383.185 213.218 381.921 213.218C380.537 213.218 379.633 212.242 379.633 210.858C379.633 209.466 380.537 208.482 381.921 208.482C383.137 208.482 383.969 209.386 384.009 210.37H383.097C383.057 209.826 382.713 209.274 381.921 209.274C380.977 209.274 380.521 209.946 380.521 210.858C380.521 211.762 380.977 212.426 381.921 212.426C382.761 212.426 383.089 211.842 383.129 211.21H384.025ZM384.887 207.09H385.751V210.546L387.351 208.61H388.391L386.919 210.394L388.575 213.09H387.591L386.383 211.034L385.751 211.802V213.09H384.887V207.09Z" fill="#EEEEEE"/>
<path d="M418.274 209.85C419.178 209.85 419.522 209.57 419.522 209.01C419.522 208.562 419.138 208.178 418.378 208.178C417.626 208.178 417.106 208.594 417.058 209.266H416.146C416.146 208.138 417.178 207.362 418.346 207.362C419.674 207.362 420.442 208.114 420.442 209.01C420.442 209.53 420.162 210.01 419.538 210.25C420.178 210.466 420.482 210.954 420.482 211.538C420.482 212.466 419.69 213.218 418.346 213.218C417.13 213.218 416.146 212.442 416.146 211.314H417.058C417.106 211.962 417.618 212.402 418.37 212.402C419.154 212.402 419.562 211.994 419.562 211.49C419.562 210.938 419.13 210.65 418.274 210.65H417.81V209.85H418.274ZM423.576 213.218C421.952 213.218 421.208 211.906 421.208 210.282C421.208 208.674 421.952 207.362 423.576 207.362C425.192 207.362 425.936 208.674 425.936 210.282C425.936 211.906 425.192 213.218 423.576 213.218ZM423.576 212.402C424.544 212.402 425.016 211.442 425.016 210.282C425.016 209.138 424.544 208.178 423.576 208.178C422.6 208.178 422.12 209.138 422.12 210.282C422.12 211.442 422.6 212.402 423.576 212.402ZM431.277 207.49H432.221L429.101 213.09H428.157L431.277 207.49ZM428.117 210.874C427.141 210.874 426.693 210.09 426.693 209.114C426.693 208.146 427.141 207.362 428.117 207.362C429.085 207.362 429.533 208.146 429.533 209.114C429.533 210.09 429.085 210.874 428.117 210.874ZM428.117 210.114C428.517 210.114 428.741 209.698 428.741 209.114C428.741 208.538 428.517 208.122 428.117 208.122C427.717 208.122 427.493 208.538 427.493 209.114C427.493 209.698 427.717 210.114 428.117 210.114ZM432.237 213.218C431.261 213.218 430.813 212.434 430.813 211.458C430.813 210.49 431.261 209.706 432.237 209.706C433.205 209.706 433.653 210.49 433.653 211.458C433.653 212.434 433.205 213.218 432.237 213.218ZM432.237 212.458C432.637 212.458 432.861 212.042 432.861 211.458C432.861 210.882 432.637 210.466 432.237 210.466C431.837 210.466 431.613 210.882 431.613 211.458C431.613 212.042 431.837 212.458 432.237 212.458Z" fill="#EEEEEE"/>
<rect width="94.7503" height="37.2953" transform="translate(345.543 219.121)" fill="#5074EF"/>
<path d="M352.371 244.548H354.075C355.291 244.548 356.275 244.9 356.275 246.148C356.275 246.572 356.059 247.044 355.611 247.268C356.155 247.452 356.563 247.908 356.563 248.54C356.563 249.788 355.579 250.148 354.363 250.148H352.371V244.548ZM354.091 246.94C354.883 246.94 355.355 246.772 355.355 246.132C355.355 245.5 354.923 245.316 354.075 245.316H353.251V246.94H354.091ZM353.251 249.38H354.363C355.163 249.38 355.651 249.204 355.651 248.54C355.651 247.916 355.163 247.708 354.379 247.708H353.251V249.38ZM357.487 244.148H358.351V250.148H357.487V244.148ZM363.209 250.148H362.345V249.404C362.153 249.852 361.721 250.276 360.865 250.276C360.001 250.276 359.361 249.796 359.361 248.428V245.668H360.217V248.324C360.217 249.052 360.401 249.524 361.089 249.524C361.729 249.524 362.345 248.964 362.345 247.9V245.668H363.209V250.148ZM368.397 248.724C368.189 249.644 367.445 250.276 366.357 250.276C364.973 250.276 364.069 249.3 364.069 247.916C364.069 246.524 364.973 245.54 366.357 245.54C367.573 245.54 368.581 246.508 368.397 248.196H364.973C365.061 248.956 365.517 249.492 366.357 249.492C366.981 249.492 367.341 249.156 367.485 248.724H368.397ZM364.997 247.468H367.557C367.485 246.812 367.077 246.324 366.357 246.324C365.573 246.324 365.125 246.788 364.997 247.468Z" fill="#201C1D"/>
<path d="M416.173 250.148C416.213 247.348 419.485 247.644 419.485 246.204C419.485 245.604 419.053 245.236 418.373 245.236C417.557 245.236 417.197 245.676 417.149 246.324H416.229C416.229 245.196 417.133 244.42 418.333 244.42C419.693 244.42 420.397 245.244 420.397 246.188C420.397 248.028 417.957 247.812 417.357 249.372H420.413V250.148H416.173ZM423.55 250.276C421.926 250.276 421.182 248.964 421.182 247.34C421.182 245.732 421.926 244.42 423.55 244.42C425.166 244.42 425.91 245.732 425.91 247.34C425.91 248.964 425.166 250.276 423.55 250.276ZM423.55 249.46C424.518 249.46 424.99 248.5 424.99 247.34C424.99 246.196 424.518 245.236 423.55 245.236C422.574 245.236 422.094 246.196 422.094 247.34C422.094 248.5 422.574 249.46 423.55 249.46ZM431.251 244.548H432.195L429.075 250.148H428.131L431.251 244.548ZM428.091 247.932C427.115 247.932 426.667 247.148 426.667 246.172C426.667 245.204 427.115 244.42 428.091 244.42C429.059 244.42 429.507 245.204 429.507 246.172C429.507 247.148 429.059 247.932 428.091 247.932ZM428.091 247.172C428.491 247.172 428.715 246.756 428.715 246.172C428.715 245.596 428.491 245.18 428.091 245.18C427.691 245.18 427.467 245.596 427.467 246.172C427.467 246.756 427.691 247.172 428.091 247.172ZM432.211 250.276C431.235 250.276 430.787 249.492 430.787 248.516C430.787 247.548 431.235 246.764 432.211 246.764C433.179 246.764 433.627 247.548 433.627 248.516C433.627 249.492 433.179 250.276 432.211 250.276ZM432.211 249.516C432.611 249.516 432.835 249.1 432.835 248.516C432.835 247.94 432.611 247.524 432.211 247.524C431.811 247.524 431.587 247.94 431.587 248.516C431.587 249.1 431.811 249.516 432.211 249.516Z" fill="#201C1D"/>
<rect width="94.7109" height="40.3025" transform="translate(767.035 342.001)" fill="#C6D1E1"/>
<path d="M773.861 370.438H774.741V375.27H777.229V376.038H773.861V370.438ZM777.986 371.558H778.85V376.038H777.986V371.558ZM777.938 370.038H778.906V371.022H777.938V370.038ZM781.755 376.006C780.523 376.006 779.739 375.11 779.739 373.726C779.739 372.334 780.523 371.43 781.755 371.43C782.435 371.43 782.907 371.694 783.195 372.182V371.558H784.059V375.798C784.059 377.062 783.235 377.766 782.075 377.766C780.651 377.766 780.099 376.99 779.971 376.23H780.867C780.971 376.75 781.403 376.982 782.075 376.982C782.755 376.982 783.195 376.638 783.195 375.798V375.27C782.923 375.734 782.459 376.006 781.755 376.006ZM781.875 375.222C782.755 375.222 783.195 374.63 783.195 373.726C783.195 372.814 782.755 372.214 781.875 372.214C781.099 372.214 780.627 372.774 780.627 373.726C780.627 374.67 781.099 375.222 781.875 375.222ZM785.094 370.038H785.958V372.302C786.15 371.854 786.574 371.43 787.43 371.43C788.294 371.43 788.942 371.91 788.942 373.278V376.038H788.078V373.382C788.078 372.654 787.902 372.182 787.214 372.182C786.574 372.182 785.958 372.742 785.958 373.806V376.038H785.094V370.038ZM789.644 371.558H790.316V370.438H791.18V371.558H792.004V372.294H791.18V374.822C791.18 375.15 791.34 375.302 791.652 375.302H792.132V376.038H791.644C790.756 376.038 790.316 375.582 790.316 374.822V372.294H789.644V371.558ZM794.978 370.438H796.682C797.898 370.438 798.882 370.79 798.882 372.038C798.882 372.462 798.666 372.934 798.218 373.158C798.762 373.342 799.17 373.798 799.17 374.43C799.17 375.678 798.186 376.038 796.97 376.038H794.978V370.438ZM796.698 372.83C797.49 372.83 797.962 372.662 797.962 372.022C797.962 371.39 797.53 371.206 796.682 371.206H795.858V372.83H796.698ZM795.858 375.27H796.97C797.77 375.27 798.258 375.094 798.258 374.43C798.258 373.806 797.77 373.598 796.986 373.598H795.858V375.27ZM800.094 370.038H800.958V376.038H800.094V370.038ZM805.817 376.038H804.953V375.294C804.761 375.742 804.329 376.166 803.473 376.166C802.609 376.166 801.969 375.686 801.969 374.318V371.558H802.825V374.214C802.825 374.942 803.009 375.414 803.697 375.414C804.337 375.414 804.953 374.854 804.953 373.79V371.558H805.817V376.038ZM811.004 374.614C810.796 375.534 810.052 376.166 808.964 376.166C807.58 376.166 806.676 375.19 806.676 373.806C806.676 372.414 807.58 371.43 808.964 371.43C810.18 371.43 811.188 372.398 811.004 374.086H807.58C807.668 374.846 808.124 375.382 808.964 375.382C809.588 375.382 809.948 375.046 810.092 374.614H811.004ZM807.604 373.358H810.164C810.092 372.702 809.684 372.214 808.964 372.214C808.18 372.214 807.732 372.678 807.604 373.358Z" fill="#201C1D"/>
<path d="M837.628 376.038C837.668 373.238 840.94 373.534 840.94 372.094C840.94 371.494 840.508 371.126 839.828 371.126C839.012 371.126 838.652 371.566 838.604 372.214H837.684C837.684 371.086 838.588 370.31 839.788 370.31C841.148 370.31 841.852 371.134 841.852 372.078C841.852 373.918 839.412 373.702 838.812 375.262H841.868V376.038H837.628ZM845.005 376.166C843.381 376.166 842.637 374.854 842.637 373.23C842.637 371.622 843.381 370.31 845.005 370.31C846.621 370.31 847.365 371.622 847.365 373.23C847.365 374.854 846.621 376.166 845.005 376.166ZM845.005 375.35C845.973 375.35 846.445 374.39 846.445 373.23C846.445 372.086 845.973 371.126 845.005 371.126C844.029 371.126 843.549 372.086 843.549 373.23C843.549 374.39 844.029 375.35 845.005 375.35ZM852.707 370.438H853.651L850.531 376.038H849.587L852.707 370.438ZM849.547 373.822C848.571 373.822 848.123 373.038 848.123 372.062C848.123 371.094 848.571 370.31 849.547 370.31C850.515 370.31 850.963 371.094 850.963 372.062C850.963 373.038 850.515 373.822 849.547 373.822ZM849.547 373.062C849.947 373.062 850.171 372.646 850.171 372.062C850.171 371.486 849.947 371.07 849.547 371.07C849.147 371.07 848.923 371.486 848.923 372.062C848.923 372.646 849.147 373.062 849.547 373.062ZM853.667 376.166C852.691 376.166 852.243 375.382 852.243 374.406C852.243 373.438 852.691 372.654 853.667 372.654C854.635 372.654 855.083 373.438 855.083 374.406C855.083 375.382 854.635 376.166 853.667 376.166ZM853.667 375.406C854.067 375.406 854.291 374.99 854.291 374.406C854.291 373.83 854.067 373.414 853.667 373.414C853.267 373.414 853.043 373.83 853.043 374.406C853.043 374.99 853.267 375.406 853.667 375.406Z" fill="#201C1D"/>
<rect x="767.287" y="301.447" width="94.2071" height="40.3025" fill="#201C1D"/>
<rect x="767.287" y="301.447" width="94.2071" height="40.3025" stroke="#5B5151" stroke-width="0.503781"/>
<path d="M776.437 335.863C774.653 335.863 773.669 334.551 773.669 332.927C773.669 331.319 774.653 330.007 776.437 330.007C778.213 330.007 779.197 331.319 779.197 332.927C779.197 334.551 778.213 335.863 776.437 335.863ZM776.437 335.047C777.685 335.047 778.277 334.047 778.277 332.927C778.277 331.823 777.685 330.823 776.437 330.823C775.181 330.823 774.581 331.823 774.581 332.927C774.581 334.047 775.181 335.047 776.437 335.047ZM780.406 330.871C780.406 330.191 780.806 329.735 781.694 329.735H782.382V330.471H781.702C781.414 330.471 781.27 330.607 781.27 330.871V331.255H782.27V331.991H781.27V335.735H780.406V331.991H779.894V331.255H780.406V330.871ZM783.578 330.871C783.578 330.191 783.978 329.735 784.866 329.735H785.554V330.471H784.874C784.586 330.471 784.442 330.607 784.442 330.871V331.255H785.442V331.991H784.442V335.735H783.578V331.991H783.066V331.255H783.578V330.871ZM786.124 332.807H788.644V333.543H786.124V332.807ZM789.619 330.135H791.323C792.539 330.135 793.523 330.487 793.523 331.735C793.523 332.159 793.307 332.631 792.859 332.855C793.403 333.039 793.811 333.495 793.811 334.127C793.811 335.375 792.827 335.735 791.611 335.735H789.619V330.135ZM791.339 332.527C792.131 332.527 792.603 332.359 792.603 331.719C792.603 331.087 792.171 330.903 791.323 330.903H790.499V332.527H791.339ZM790.499 334.967H791.611C792.411 334.967 792.899 334.791 792.899 334.127C792.899 333.503 792.411 333.295 791.627 333.295H790.499V334.967ZM794.735 329.735H795.599V335.735H794.735V329.735ZM798.529 331.127C799.753 331.127 800.385 331.919 800.385 333.175V335.735H799.521V335.119C799.281 335.575 798.865 335.863 798.225 335.863C797.345 335.863 796.681 335.359 796.681 334.463C796.681 333.063 798.217 332.911 799.513 332.959C799.465 332.311 799.193 331.895 798.529 331.895C797.841 331.895 797.481 332.319 797.481 332.831H796.569C796.569 331.943 797.265 331.127 798.529 331.127ZM797.577 334.415C797.577 334.863 797.889 335.103 798.417 335.103C799.041 335.103 799.521 334.695 799.521 333.967V333.567C798.201 333.503 797.577 333.879 797.577 334.415ZM805.599 333.855C805.559 335.015 804.759 335.863 803.495 335.863C802.111 335.863 801.207 334.887 801.207 333.503C801.207 332.111 802.111 331.127 803.495 331.127C804.711 331.127 805.543 332.031 805.583 333.015H804.671C804.631 332.471 804.287 331.919 803.495 331.919C802.551 331.919 802.095 332.591 802.095 333.503C802.095 334.407 802.551 335.071 803.495 335.071C804.335 335.071 804.663 334.487 804.703 333.855H805.599ZM806.462 329.735H807.326V333.191L808.926 331.255H809.966L808.494 333.039L810.15 335.735H809.166L807.958 333.679L807.326 334.447V335.735H806.462V329.735Z" fill="#EEEEEE"/>
<path d="M840.626 330.135V334.967H841.97V335.735H838.402V334.967H839.746V330.903H838.402V330.135H840.626ZM845.005 335.863C843.381 335.863 842.637 334.551 842.637 332.927C842.637 331.319 843.381 330.007 845.005 330.007C846.621 330.007 847.365 331.319 847.365 332.927C847.365 334.551 846.621 335.863 845.005 335.863ZM845.005 335.047C845.973 335.047 846.445 334.087 846.445 332.927C846.445 331.783 845.973 330.823 845.005 330.823C844.029 330.823 843.549 331.783 843.549 332.927C843.549 334.087 844.029 335.047 845.005 335.047ZM852.707 330.135H853.651L850.531 335.735H849.587L852.707 330.135ZM849.547 333.519C848.571 333.519 848.123 332.735 848.123 331.759C848.123 330.791 848.571 330.007 849.547 330.007C850.515 330.007 850.963 330.791 850.963 331.759C850.963 332.735 850.515 333.519 849.547 333.519ZM849.547 332.759C849.947 332.759 850.171 332.343 850.171 331.759C850.171 331.183 849.947 330.767 849.547 330.767C849.147 330.767 848.923 331.183 848.923 331.759C848.923 332.343 849.147 332.759 849.547 332.759ZM853.667 335.863C852.691 335.863 852.243 335.079 852.243 334.103C852.243 333.135 852.691 332.351 853.667 332.351C854.635 332.351 855.083 333.135 855.083 334.103C855.083 335.079 854.635 335.863 853.667 335.863ZM853.667 335.103C854.067 335.103 854.291 334.687 854.291 334.103C854.291 333.527 854.067 333.111 853.667 333.111C853.267 333.111 853.043 333.527 853.043 334.103C853.043 334.687 853.267 335.103 853.667 335.103Z" fill="#EEEEEE"/>
<rect width="94.7109" height="27.2042" transform="translate(767.064 274.07)" fill="#FFCC00"/>
<path d="M773.634 289.408H774.578L775.866 292.184L777.146 289.408H778.09L776.298 293.088V295.008H775.418V293.072L773.634 289.408ZM782.393 293.584C782.185 294.504 781.441 295.136 780.353 295.136C778.969 295.136 778.065 294.16 778.065 292.776C778.065 291.384 778.969 290.4 780.353 290.4C781.569 290.4 782.577 291.368 782.393 293.056H778.969C779.057 293.816 779.513 294.352 780.353 294.352C780.977 294.352 781.337 294.016 781.481 293.584H782.393ZM778.993 292.328H781.553C781.481 291.672 781.073 291.184 780.353 291.184C779.569 291.184 779.121 291.648 778.993 292.328ZM783.288 289.008H784.152V295.008H783.288V289.008ZM785.202 289.008H786.066V295.008H785.202V289.008ZM789.212 295.136C787.828 295.136 786.924 294.16 786.924 292.776C786.924 291.384 787.828 290.4 789.212 290.4C790.596 290.4 791.5 291.384 791.5 292.776C791.5 294.16 790.596 295.136 789.212 295.136ZM789.212 294.352C790.084 294.352 790.612 293.72 790.612 292.776C790.612 291.824 790.084 291.184 789.212 291.184C788.332 291.184 787.812 291.824 787.812 292.776C787.812 293.72 788.332 294.352 789.212 294.352ZM791.985 290.528H792.913L793.649 294.04L794.449 290.528H795.401L796.201 294.04L796.937 290.528H797.865L796.745 295.008H795.625L794.929 291.944L794.225 295.008H793.105L791.985 290.528Z" fill="#201C1D"/>
<path d="M840.655 289.408V294.24H841.999V295.008H838.431V294.24H839.775V290.176H838.431V289.408H840.655ZM845.035 295.136C843.411 295.136 842.667 293.824 842.667 292.2C842.667 290.592 843.411 289.28 845.035 289.28C846.651 289.28 847.395 290.592 847.395 292.2C847.395 293.824 846.651 295.136 845.035 295.136ZM845.035 294.32C846.003 294.32 846.475 293.36 846.475 292.2C846.475 291.056 846.003 290.096 845.035 290.096C844.059 290.096 843.579 291.056 843.579 292.2C843.579 293.36 844.059 294.32 845.035 294.32ZM852.736 289.408H853.68L850.56 295.008H849.616L852.736 289.408ZM849.576 292.792C848.6 292.792 848.152 292.008 848.152 291.032C848.152 290.064 848.6 289.28 849.576 289.28C850.544 289.28 850.992 290.064 850.992 291.032C850.992 292.008 850.544 292.792 849.576 292.792ZM849.576 292.032C849.976 292.032 850.2 291.616 850.2 291.032C850.2 290.456 849.976 290.04 849.576 290.04C849.176 290.04 848.952 290.456 848.952 291.032C848.952 291.616 849.176 292.032 849.576 292.032ZM853.696 295.136C852.72 295.136 852.272 294.352 852.272 293.376C852.272 292.408 852.72 291.624 853.696 291.624C854.664 291.624 855.112 292.408 855.112 293.376C855.112 294.352 854.664 295.136 853.696 295.136ZM853.696 294.376C854.096 294.376 854.32 293.96 854.32 293.376C854.32 292.8 854.096 292.384 853.696 292.384C853.296 292.384 853.072 292.8 853.072 293.376C853.072 293.96 853.296 294.376 853.696 294.376Z" fill="#201C1D"/>
<rect width="94.7109" height="40.8063" transform="translate(767.064 233.263)" fill="#390A91"/>
<path d="M773.89 267.804V262.204H775.786C777.562 262.204 778.546 263.388 778.546 264.996C778.546 266.62 777.562 267.804 775.786 267.804H773.89ZM775.786 267.028C777.05 267.028 777.626 266.116 777.626 264.996C777.626 263.892 777.05 262.98 775.786 262.98H774.77V267.028H775.786ZM781.284 263.196C782.508 263.196 783.14 263.988 783.14 265.244V267.804H782.276V267.188C782.036 267.644 781.62 267.932 780.98 267.932C780.1 267.932 779.436 267.428 779.436 266.532C779.436 265.132 780.972 264.98 782.268 265.028C782.22 264.38 781.948 263.964 781.284 263.964C780.596 263.964 780.236 264.388 780.236 264.9H779.324C779.324 264.012 780.02 263.196 781.284 263.196ZM780.332 266.484C780.332 266.932 780.644 267.172 781.172 267.172C781.796 267.172 782.276 266.764 782.276 266.036V265.636C780.956 265.572 780.332 265.948 780.332 266.484ZM784.139 263.324H785.003V264.076C785.179 263.62 785.579 263.196 786.499 263.196V264.06C785.547 264.06 785.003 264.388 785.003 265.452V267.804H784.139V263.324ZM787.327 261.804H788.191V265.26L789.791 263.324H790.831L789.359 265.108L791.015 267.804H790.031L788.823 265.748L788.191 266.516V267.804H787.327V261.804ZM793.632 262.204H795.336C796.552 262.204 797.536 262.556 797.536 263.804C797.536 264.228 797.32 264.7 796.872 264.924C797.416 265.108 797.824 265.564 797.824 266.196C797.824 267.444 796.84 267.804 795.624 267.804H793.632V262.204ZM795.352 264.596C796.144 264.596 796.616 264.428 796.616 263.788C796.616 263.156 796.184 262.972 795.336 262.972H794.512V264.596H795.352ZM794.512 267.036H795.624C796.424 267.036 796.912 266.86 796.912 266.196C796.912 265.572 796.424 265.364 795.64 265.364H794.512V267.036ZM798.749 261.804H799.613V267.804H798.749V261.804ZM804.471 267.804H803.607V267.06C803.415 267.508 802.983 267.932 802.127 267.932C801.263 267.932 800.623 267.452 800.623 266.084V263.324H801.479V265.98C801.479 266.708 801.663 267.18 802.351 267.18C802.991 267.18 803.607 266.62 803.607 265.556V263.324H804.471V267.804ZM809.658 266.38C809.45 267.3 808.706 267.932 807.618 267.932C806.234 267.932 805.33 266.956 805.33 265.572C805.33 264.18 806.234 263.196 807.618 263.196C808.834 263.196 809.842 264.164 809.658 265.852H806.234C806.322 266.612 806.778 267.148 807.618 267.148C808.242 267.148 808.602 266.812 808.746 266.38H809.658ZM806.258 265.124H808.818C808.746 264.468 808.338 263.98 807.618 263.98C806.834 263.98 806.386 264.444 806.258 265.124Z" fill="#EEEEEE"/>
<path d="M837.365 267.804C837.407 264.88 840.824 265.189 840.824 263.685C840.824 263.058 840.373 262.674 839.662 262.674C838.81 262.674 838.434 263.134 838.384 263.81H837.423C837.423 262.632 838.368 261.822 839.621 261.822C841.041 261.822 841.776 262.683 841.776 263.668C841.776 265.59 839.228 265.364 838.601 266.993H841.793V267.804H837.365ZM844.96 263.877C846.372 263.877 847.099 264.729 847.099 265.907C847.099 267.052 846.288 267.937 844.868 267.937C843.648 267.937 842.612 267.127 842.612 265.949H843.548C843.598 266.584 844.041 267.085 844.91 267.085C845.729 267.085 846.138 266.534 846.138 265.882C846.138 265.172 845.712 264.713 844.902 264.713C844.283 264.713 843.799 264.988 843.59 265.406H842.654L843.281 261.956H846.581V262.758H844.041L843.74 264.328C844.049 264.069 844.45 263.877 844.96 263.877ZM852.613 261.956H853.599L850.341 267.804H849.355L852.613 261.956ZM849.313 265.49C848.294 265.49 847.826 264.671 847.826 263.652C847.826 262.641 848.294 261.822 849.313 261.822C850.324 261.822 850.792 262.641 850.792 263.652C850.792 264.671 850.324 265.49 849.313 265.49ZM849.313 264.696C849.731 264.696 849.965 264.262 849.965 263.652C849.965 263.05 849.731 262.616 849.313 262.616C848.895 262.616 848.662 263.05 848.662 263.652C848.662 264.262 848.895 264.696 849.313 264.696ZM853.616 267.937C852.596 267.937 852.129 267.119 852.129 266.099C852.129 265.089 852.596 264.27 853.616 264.27C854.626 264.27 855.094 265.089 855.094 266.099C855.094 267.119 854.626 267.937 853.616 267.937ZM853.616 267.144C854.033 267.144 854.267 266.709 854.267 266.099C854.267 265.498 854.033 265.064 853.616 265.064C853.198 265.064 852.964 265.498 852.964 266.099C852.964 266.709 853.198 267.144 853.616 267.144Z" fill="#EEEEEE"/>
<rect width="94.7109" height="115.87" transform="translate(767.064 117.394)" fill="#FF5E00"/>
<path d="M774.698 225.214C774.754 225.902 775.338 226.31 776.106 226.31C776.85 226.31 777.362 226.014 777.362 225.486C777.362 224.222 773.818 225.19 773.818 222.918C773.818 221.99 774.706 221.27 776.026 221.27C777.242 221.27 778.194 222.062 778.194 223.174H777.258C777.21 222.486 776.818 222.086 775.986 222.086C775.162 222.086 774.73 222.422 774.73 222.918C774.73 224.278 778.282 223.238 778.282 225.486C778.282 226.526 777.458 227.126 776.058 227.126C774.762 227.126 773.794 226.31 773.754 225.214H774.698ZM778.994 222.518H779.666V221.398H780.53V222.518H781.354V223.254H780.53V225.782C780.53 226.11 780.69 226.262 781.002 226.262H781.482V226.998H780.994C780.106 226.998 779.666 226.542 779.666 225.782V223.254H778.994V222.518ZM784.128 222.39C785.352 222.39 785.984 223.182 785.984 224.438V226.998H785.12V226.382C784.88 226.838 784.464 227.126 783.824 227.126C782.944 227.126 782.28 226.622 782.28 225.726C782.28 224.326 783.816 224.174 785.112 224.222C785.064 223.574 784.792 223.158 784.128 223.158C783.44 223.158 783.08 223.582 783.08 224.094H782.168C782.168 223.206 782.864 222.39 784.128 222.39ZM783.176 225.678C783.176 226.126 783.488 226.366 784.016 226.366C784.64 226.366 785.12 225.958 785.12 225.23V224.83C783.8 224.766 783.176 225.142 783.176 225.678ZM791.199 225.118C791.159 226.278 790.359 227.126 789.095 227.126C787.711 227.126 786.807 226.15 786.807 224.766C786.807 223.374 787.711 222.39 789.095 222.39C790.311 222.39 791.143 223.294 791.183 224.278H790.271C790.231 223.734 789.887 223.182 789.095 223.182C788.151 223.182 787.695 223.854 787.695 224.766C787.695 225.67 788.151 226.334 789.095 226.334C789.935 226.334 790.263 225.75 790.303 225.118H791.199ZM792.061 220.998H792.925V224.454L794.525 222.518H795.565L794.093 224.302L795.749 226.998H794.765L793.557 224.942L792.925 225.71V226.998H792.061V220.998ZM800.943 227.126C799.159 227.126 798.175 225.814 798.175 224.19C798.175 222.582 799.159 221.27 800.943 221.27C802.719 221.27 803.703 222.582 803.703 224.19C803.703 225.814 802.719 227.126 800.943 227.126ZM800.943 226.31C802.191 226.31 802.783 225.31 802.783 224.19C802.783 223.086 802.191 222.086 800.943 222.086C799.687 222.086 799.087 223.086 799.087 224.19C799.087 225.31 799.687 226.31 800.943 226.31ZM804.6 222.518H805.464V223.27C805.64 222.814 806.04 222.39 806.96 222.39V223.254C806.008 223.254 805.464 223.582 805.464 224.646V226.998H804.6V222.518ZM809.425 222.39C810.649 222.39 811.281 223.182 811.281 224.438V226.998H810.417V226.382C810.177 226.838 809.761 227.126 809.121 227.126C808.241 227.126 807.577 226.622 807.577 225.726C807.577 224.326 809.113 224.174 810.409 224.222C810.361 223.574 810.089 223.158 809.425 223.158C808.737 223.158 808.377 223.582 808.377 224.094H807.465C807.465 223.206 808.161 222.39 809.425 222.39ZM808.473 225.678C808.473 226.126 808.785 226.366 809.313 226.366C809.937 226.366 810.417 225.958 810.417 225.23V224.83C809.097 224.766 808.473 225.142 808.473 225.678ZM812.28 222.518H813.144V223.254C813.328 222.806 813.768 222.39 814.616 222.39C815.48 222.39 816.128 222.87 816.128 224.238V226.998H815.264V224.342C815.264 223.614 815.088 223.142 814.4 223.142C813.76 223.142 813.144 223.702 813.144 224.766V226.998H812.28V222.518ZM819.003 226.966C817.771 226.966 816.987 226.07 816.987 224.686C816.987 223.294 817.771 222.39 819.003 222.39C819.683 222.39 820.155 222.654 820.443 223.142V222.518H821.307V226.758C821.307 228.022 820.483 228.726 819.323 228.726C817.899 228.726 817.347 227.95 817.219 227.19H818.115C818.219 227.71 818.651 227.942 819.323 227.942C820.003 227.942 820.443 227.598 820.443 226.758V226.23C820.171 226.694 819.707 226.966 819.003 226.966ZM819.123 226.182C820.003 226.182 820.443 225.59 820.443 224.686C820.443 223.774 820.003 223.174 819.123 223.174C818.347 223.174 817.875 223.734 817.875 224.686C817.875 225.63 818.347 226.182 819.123 226.182ZM826.494 225.574C826.286 226.494 825.542 227.126 824.454 227.126C823.07 227.126 822.166 226.15 822.166 224.766C822.166 223.374 823.07 222.39 824.454 222.39C825.67 222.39 826.678 223.358 826.494 225.046H823.07C823.158 225.806 823.614 226.342 824.454 226.342C825.078 226.342 825.438 226.006 825.582 225.574H826.494ZM823.094 224.318H825.654C825.582 223.662 825.174 223.174 824.454 223.174C823.67 223.174 823.222 223.638 823.094 224.318Z" fill="#201C1D"/>
<path d="M839.733 223.758C840.637 223.758 840.981 223.478 840.981 222.918C840.981 222.47 840.597 222.086 839.837 222.086C839.085 222.086 838.565 222.502 838.517 223.174H837.605C837.605 222.046 838.637 221.27 839.805 221.27C841.133 221.27 841.901 222.022 841.901 222.918C841.901 223.438 841.621 223.918 840.997 224.158C841.637 224.374 841.941 224.862 841.941 225.446C841.941 226.374 841.149 227.126 839.805 227.126C838.589 227.126 837.605 226.35 837.605 225.222H838.517C838.565 225.87 839.077 226.31 839.829 226.31C840.613 226.31 841.021 225.902 841.021 225.398C841.021 224.846 840.589 224.558 839.733 224.558H839.269V223.758H839.733ZM845.035 227.126C843.411 227.126 842.667 225.814 842.667 224.19C842.667 222.582 843.411 221.27 845.035 221.27C846.651 221.27 847.395 222.582 847.395 224.19C847.395 225.814 846.651 227.126 845.035 227.126ZM845.035 226.31C846.003 226.31 846.475 225.35 846.475 224.19C846.475 223.046 846.003 222.086 845.035 222.086C844.059 222.086 843.579 223.046 843.579 224.19C843.579 225.35 844.059 226.31 845.035 226.31ZM852.736 221.398H853.68L850.56 226.998H849.616L852.736 221.398ZM849.576 224.782C848.6 224.782 848.152 223.998 848.152 223.022C848.152 222.054 848.6 221.27 849.576 221.27C850.544 221.27 850.992 222.054 850.992 223.022C850.992 223.998 850.544 224.782 849.576 224.782ZM849.576 224.022C849.976 224.022 850.2 223.606 850.2 223.022C850.2 222.446 849.976 222.03 849.576 222.03C849.176 222.03 848.952 222.446 848.952 223.022C848.952 223.606 849.176 224.022 849.576 224.022ZM853.696 227.126C852.72 227.126 852.272 226.342 852.272 225.366C852.272 224.398 852.72 223.614 853.696 223.614C854.664 223.614 855.112 224.398 855.112 225.366C855.112 226.342 854.664 227.126 853.696 227.126ZM853.696 226.366C854.096 226.366 854.32 225.95 854.32 225.366C854.32 224.79 854.096 224.374 853.696 224.374C853.296 224.374 853.072 224.79 853.072 225.366C853.072 225.95 853.296 226.366 853.696 226.366Z" fill="#201C1D"/>
<g clip-path="url(#clip2_3536_6210)">
<rect width="259.242" height="264.8" transform="translate(492 117.473)" fill="#998B7A"/>
<rect x="492.598" y="100.907" width="273.153" height="297.93" fill="#FF5E00"/>
<rect x="604.303" y="342.97" width="177.081" height="6.3645" transform="rotate(180 604.303 342.97)" fill="#390A91"/>
<rect x="604.303" y="342.975" width="6.36524" height="6.36524" transform="rotate(180 604.303 342.975)" fill="#FFCC00"/>
<rect x="680.371" y="332.656" width="253.151" height="6.3645" transform="rotate(180 680.371 332.656)" fill="#390A91"/>
<rect x="575.832" y="322.336" width="148.61" height="6.3645" transform="rotate(180 575.832 322.336)" fill="#390A91"/>
<rect x="575.832" y="322.343" width="6.36524" height="6.36524" transform="rotate(180 575.832 322.343)" fill="#FFCC00"/>
<rect x="718.178" y="312.019" width="290.958" height="6.3645" transform="rotate(180 718.178 312.019)" fill="#390A91"/>
<rect x="617.803" y="301.704" width="190.584" height="6.3645" transform="rotate(180 617.803 301.704)" fill="#390A91"/>
<rect x="617.803" y="301.707" width="6.36524" height="6.36524" transform="rotate(180 617.803 301.707)" fill="#FFCC00"/>
<rect x="656.551" y="281.069" width="6.36524" height="6.36524" transform="rotate(180 656.551 281.069)" fill="#FFCC00"/>
<rect x="666.414" y="250.12" width="6.36524" height="6.36524" transform="rotate(180 666.414 250.12)" fill="#FFCC00"/>
<rect x="724.541" y="312.018" width="6.36524" height="6.36524" transform="rotate(180 724.541 312.018)" fill="#FFCC00"/>
<rect x="686.734" y="332.655" width="6.36524" height="6.36524" transform="rotate(180 686.734 332.655)" fill="#FFCC00"/>
<rect x="536.656" y="291.384" width="109.437" height="6.3645" transform="rotate(180 536.656 291.384)" fill="#390A91"/>
<rect x="536.656" y="291.388" width="6.36524" height="6.36524" transform="rotate(180 536.656 291.388)" fill="#FFCC00"/>
<rect x="650.188" y="281.069" width="222.966" height="6.3645" transform="rotate(180 650.188 281.069)" fill="#390A91"/>
<rect x="584.879" y="270.754" width="157.658" height="6.3645" transform="rotate(180 584.879 270.754)" fill="#390A91"/>
<rect x="584.879" y="270.755" width="6.36524" height="6.36524" transform="rotate(180 584.879 270.755)" fill="#FFCC00"/>
<rect x="629.539" y="260.437" width="202.32" height="6.3645" transform="rotate(180 629.539 260.437)" fill="#390A91"/>
<rect x="629.539" y="260.441" width="6.36524" height="6.36524" transform="rotate(180 629.539 260.441)" fill="#FFCC00"/>
<rect x="660.051" y="250.12" width="232.833" height="6.3645" transform="rotate(180 660.051 250.12)" fill="#390A91"/>
<rect x="629.539" y="239.806" width="202.32" height="6.3645" transform="rotate(180 629.539 239.806)" fill="#390A91"/>
<rect x="629.539" y="239.811" width="6.36524" height="6.36524" transform="rotate(180 629.539 239.811)" fill="#FFCC00"/>
<rect width="10.5072" height="10.5072" transform="translate(501.527 364.229)" fill="#423101"/>
<circle cx="506.781" cy="369.482" r="1.57626" fill="#FFCC00"/>
<rect width="37.5472" height="10.4971" transform="translate(512.033 364.267)" fill="#C6D1E1"/>
<path d="M517.517 371.596C516.502 371.596 516.037 370.776 516.037 369.761C516.037 368.756 516.502 367.936 517.517 367.936C518.527 367.936 518.992 368.756 518.992 369.761C518.992 370.776 518.527 371.596 517.517 371.596ZM517.517 371.086C518.122 371.086 518.417 370.486 518.417 369.761C518.417 369.046 518.122 368.446 517.517 368.446C516.907 368.446 516.607 369.046 516.607 369.761C516.607 370.486 516.907 371.086 517.517 371.086ZM520.785 369.491C521.35 369.491 521.565 369.316 521.565 368.966C521.565 368.686 521.325 368.446 520.85 368.446C520.38 368.446 520.055 368.706 520.025 369.126L519.455 369.126C519.455 368.421 520.1 367.936 520.83 367.936C521.66 367.936 522.14 368.406 522.14 368.966C522.14 369.291 521.965 369.591 521.575 369.741C521.975 369.876 522.165 370.181 522.165 370.546C522.165 371.126 521.67 371.596 520.83 371.596C520.07 371.596 519.455 371.111 519.455 370.406L520.025 370.406C520.055 370.811 520.375 371.086 520.845 371.086C521.335 371.086 521.59 370.831 521.59 370.516C521.59 370.171 521.32 369.991 520.785 369.991L520.495 369.991L520.495 369.491L520.785 369.491ZM523.579 368.016L524.124 368.016L523.124 371.516L522.579 371.516L523.579 368.016ZM526.023 371.596C525.008 371.596 524.543 370.776 524.543 369.761C524.543 368.756 525.008 367.936 526.023 367.936C527.033 367.936 527.498 368.756 527.498 369.761C527.498 370.776 527.033 371.596 526.023 371.596ZM526.023 371.086C526.628 371.086 526.923 370.486 526.923 369.761C526.923 369.046 526.628 368.446 526.023 368.446C525.413 368.446 525.113 369.046 525.113 369.761C525.113 370.486 525.413 371.086 526.023 371.086ZM530.061 368.016L530.061 370.206L530.616 370.206L530.616 370.686L530.061 370.686L530.061 371.516L529.521 371.516L529.521 370.686L527.921 370.686L527.921 370.236L529.371 368.016L530.061 368.016ZM528.521 370.206L529.521 370.206L529.521 368.656L528.521 370.206ZM531.967 368.016L532.512 368.016L531.512 371.516L530.967 371.516L531.967 368.016ZM532.901 371.516C532.926 369.766 534.971 369.951 534.971 369.051C534.971 368.676 534.701 368.446 534.276 368.446C533.766 368.446 533.541 368.721 533.511 369.126L532.936 369.126C532.936 368.421 533.501 367.936 534.251 367.936C535.101 367.936 535.541 368.451 535.541 369.041C535.541 370.191 534.016 370.056 533.641 371.031L535.551 371.031L535.551 371.516L532.901 371.516ZM537.512 371.596C536.497 371.596 536.032 370.776 536.032 369.761C536.032 368.756 536.497 367.936 537.512 367.936C538.522 367.936 538.987 368.756 538.987 369.761C538.987 370.776 538.522 371.596 537.512 371.596ZM537.512 371.086C538.117 371.086 538.412 370.486 538.412 369.761C538.412 369.046 538.117 368.446 537.512 368.446C536.902 368.446 536.602 369.046 536.602 369.761C536.602 370.486 536.902 371.086 537.512 371.086ZM539.41 371.516C539.435 369.766 541.48 369.951 541.48 369.051C541.48 368.676 541.21 368.446 540.785 368.446C540.275 368.446 540.05 368.721 540.02 369.126L539.445 369.126C539.445 368.421 540.01 367.936 540.76 367.936C541.61 367.936 542.05 368.451 542.05 369.041C542.05 370.191 540.525 370.056 540.15 371.031L542.06 371.031L542.06 371.516L539.41 371.516ZM544.591 369.006C544.546 368.771 544.401 368.446 543.926 368.446C543.501 368.446 543.161 368.751 543.096 369.516C543.286 369.316 543.596 369.166 543.961 369.166C544.781 369.166 545.276 369.696 545.276 370.381C545.276 371.066 544.781 371.596 543.931 371.596C543.181 371.596 542.541 371.181 542.541 369.861C542.541 368.631 543.036 367.936 543.951 367.936C544.656 367.936 545.071 368.366 545.191 369.006L544.591 369.006ZM543.176 370.356C543.176 370.776 543.451 371.086 543.931 371.086C544.426 371.086 544.701 370.776 544.701 370.366C544.701 369.946 544.426 369.666 543.936 369.666C543.451 369.666 543.176 369.946 543.176 370.356Z" fill="black"/>
<path d="M519.615 130.934V133.849H512.905V152.188H509.565V133.849H502.886V130.934H519.615ZM522.126 129.416H525.405V138.008C526.134 136.308 527.743 134.699 530.992 134.699C534.271 134.699 536.73 136.521 536.73 141.713V152.188H533.451V142.107C533.451 139.344 532.783 137.553 530.172 137.553C527.743 137.553 525.405 139.678 525.405 143.717V152.188H522.126V129.416ZM555.71 146.783C554.921 150.275 552.097 152.673 547.968 152.673C542.715 152.673 539.285 148.969 539.285 143.717C539.285 138.434 542.715 134.699 547.968 134.699C552.583 134.699 556.409 138.373 555.71 144.779H542.715C543.049 147.664 544.78 149.698 547.968 149.698C550.336 149.698 551.703 148.423 552.249 146.783H555.71ZM542.807 142.016H552.522C552.249 139.527 550.701 137.674 547.968 137.674C544.993 137.674 543.292 139.435 542.807 142.016ZM573.737 152.673C571.034 152.673 569.304 151.52 568.271 149.698V152.188H564.992V129.416H568.271V137.735C569.364 135.822 571.125 134.699 573.737 134.699C578.412 134.699 581.388 138.434 581.388 143.717C581.388 148.969 578.412 152.673 573.737 152.673ZM573.281 149.698C576.226 149.698 578.018 147.299 578.018 143.717C578.018 140.103 576.226 137.674 573.281 137.674C569.911 137.674 568.271 140.255 568.271 143.717C568.271 147.147 569.911 149.698 573.281 149.698ZM584.063 135.185H587.342V138.039C588.01 136.308 589.528 134.699 593.02 134.699V137.978C589.407 137.978 587.342 139.223 587.342 143.261V152.188H584.063V135.185ZM601.879 134.699C606.524 134.699 608.923 137.705 608.923 142.472V152.188H605.644V149.85C604.733 151.58 603.154 152.673 600.725 152.673C597.385 152.673 594.865 150.76 594.865 147.36C594.865 142.047 600.695 141.47 605.613 141.652C605.431 139.193 604.399 137.614 601.879 137.614C599.268 137.614 597.901 139.223 597.901 141.166H594.44C594.44 137.796 597.082 134.699 601.879 134.699ZM598.266 147.178C598.266 148.878 599.45 149.789 601.454 149.789C603.822 149.789 605.644 148.24 605.644 145.478V143.959C600.634 143.717 598.266 145.144 598.266 147.178ZM612.192 135.185H615.471V152.188H612.192V135.185ZM612.009 129.416H615.683V133.151H612.009V129.416ZM618.983 135.185H622.262V137.978C622.96 136.278 624.63 134.699 627.849 134.699C631.128 134.699 633.587 136.521 633.587 141.713V152.188H630.308V142.107C630.308 139.344 629.64 137.553 627.029 137.553C624.6 137.553 622.262 139.678 622.262 143.717V152.188H618.983V135.185ZM512.48 182.673C509.778 182.673 508.017 181.459 507.015 179.607V188.26H503.736V165.185H507.015V167.796C508.078 165.853 509.869 164.699 512.48 164.699C517.156 164.699 520.131 168.434 520.131 173.717C520.131 178.969 517.156 182.673 512.48 182.673ZM512.025 179.698C514.97 179.698 516.761 177.299 516.761 173.717C516.761 170.103 514.97 167.674 512.025 167.674C508.655 167.674 507.015 170.255 507.015 173.717C507.015 177.147 508.655 179.698 512.025 179.698ZM530.793 182.673C525.541 182.673 522.11 178.969 522.11 173.717C522.11 168.434 525.541 164.699 530.793 164.699C536.046 164.699 539.477 168.434 539.477 173.717C539.477 178.969 536.046 182.673 530.793 182.673ZM530.793 179.698C534.103 179.698 536.107 177.299 536.107 173.717C536.107 170.103 534.103 167.674 530.793 167.674C527.454 167.674 525.48 170.103 525.48 173.717C525.48 177.299 527.454 179.698 530.793 179.698ZM540.703 165.185H544.225L547.018 178.514L550.054 165.185H553.667L556.704 178.514L559.497 165.185H563.019L558.768 182.188H554.517L551.876 170.559L549.204 182.188H544.953L540.703 165.185ZM580.683 176.783C579.894 180.275 577.07 182.673 572.941 182.673C567.688 182.673 564.257 178.969 564.257 173.717C564.257 168.434 567.688 164.699 572.941 164.699C577.556 164.699 581.381 168.373 580.683 174.779H567.688C568.022 177.664 569.753 179.698 572.941 179.698C575.309 179.698 576.675 178.423 577.222 176.783H580.683ZM567.779 172.016H577.495C577.222 169.527 575.673 167.674 572.941 167.674C569.965 167.674 568.265 169.435 567.779 172.016ZM583.463 165.185H586.742V168.039C587.41 166.308 588.928 164.699 592.42 164.699V167.978C588.807 167.978 586.742 169.223 586.742 173.261V182.188H583.463V165.185ZM610.191 182.673C607.489 182.673 605.758 181.52 604.726 179.698V182.188H601.447V159.416H604.726V167.735C605.819 165.822 607.58 164.699 610.191 164.699C614.867 164.699 617.842 168.434 617.842 173.717C617.842 178.969 614.867 182.673 610.191 182.673ZM609.736 179.698C612.681 179.698 614.472 177.299 614.472 173.717C614.472 170.103 612.681 167.674 609.736 167.674C606.365 167.674 604.726 170.255 604.726 173.717C604.726 177.147 606.365 179.698 609.736 179.698ZM636.247 176.783C635.457 180.275 632.634 182.673 628.504 182.673C623.252 182.673 619.821 178.969 619.821 173.717C619.821 168.434 623.252 164.699 628.504 164.699C633.119 164.699 636.945 168.373 636.247 174.779H623.252C623.586 177.664 625.316 179.698 628.504 179.698C630.873 179.698 632.239 178.423 632.785 176.783H636.247ZM623.343 172.016H633.059C632.785 169.527 631.237 167.674 628.504 167.674C625.529 167.674 623.829 169.435 623.343 172.016ZM639.028 159.416H642.307V168.008C643.036 166.308 644.645 164.699 647.894 164.699C651.173 164.699 653.632 166.521 653.632 171.713V182.188H650.353V172.107C650.353 169.344 649.685 167.553 647.074 167.553C644.645 167.553 642.307 169.678 642.307 173.717V182.188H639.028V159.416ZM656.919 165.185H660.198V182.188H656.919V165.185ZM656.736 159.416H660.41V163.151H656.736V159.416ZM663.71 165.185H666.989V167.978C667.687 166.278 669.357 164.699 672.576 164.699C675.855 164.699 678.314 166.521 678.314 171.713V182.188H675.035V172.107C675.035 169.344 674.367 167.553 671.756 167.553C669.327 167.553 666.989 169.678 666.989 173.717V182.188H663.71V165.185ZM688.58 182.673C683.904 182.673 680.929 178.969 680.929 173.717C680.929 168.434 683.904 164.699 688.58 164.699C691.191 164.699 692.983 165.853 694.045 167.796V159.416H697.324V182.188H694.045V179.607C693.043 181.459 691.282 182.673 688.58 182.673ZM689.036 179.698C692.375 179.698 694.045 177.147 694.045 173.717C694.045 170.255 692.375 167.674 689.036 167.674C686.09 167.674 684.299 170.103 684.299 173.717C684.299 177.299 686.09 179.698 689.036 179.698ZM512.48 212.673C509.778 212.673 508.017 211.459 507.015 209.607V218.26H503.736V195.185H507.015V197.796C508.078 195.853 509.869 194.699 512.48 194.699C517.156 194.699 520.131 198.434 520.131 203.717C520.131 208.969 517.156 212.673 512.48 212.673ZM512.025 209.698C514.97 209.698 516.761 207.299 516.761 203.717C516.761 200.103 514.97 197.674 512.025 197.674C508.655 197.674 507.015 200.255 507.015 203.717C507.015 207.147 508.655 209.698 512.025 209.698ZM522.807 195.185H526.086V198.039C526.754 196.308 528.272 194.699 531.764 194.699V197.978C528.151 197.978 526.086 199.223 526.086 203.261V212.188H522.807V195.185ZM541.208 212.673C535.955 212.673 532.524 208.969 532.524 203.717C532.524 198.434 535.955 194.699 541.208 194.699C546.46 194.699 549.891 198.434 549.891 203.717C549.891 208.969 546.46 212.673 541.208 212.673ZM541.208 209.698C544.517 209.698 546.521 207.299 546.521 203.717C546.521 200.103 544.517 197.674 541.208 197.674C537.868 197.674 535.894 200.103 535.894 203.717C535.894 207.299 537.868 209.698 541.208 209.698ZM559.515 212.066C554.839 212.066 551.863 208.666 551.863 203.413C551.863 198.13 554.839 194.699 559.515 194.699C562.095 194.699 563.887 195.701 564.98 197.553V195.185H568.259V211.277C568.259 216.074 565.132 218.746 560.729 218.746C555.325 218.746 553.23 215.801 552.744 212.916H556.144C556.539 214.89 558.179 215.77 560.729 215.77C563.31 215.77 564.98 214.465 564.98 211.277V209.273C563.947 211.034 562.186 212.066 559.515 212.066ZM559.97 209.091C563.31 209.091 564.98 206.844 564.98 203.413C564.98 199.952 563.31 197.674 559.97 197.674C557.025 197.674 555.234 199.8 555.234 203.413C555.234 206.996 557.025 209.091 559.97 209.091ZM571.573 195.185H574.852V198.039C575.52 196.308 577.038 194.699 580.53 194.699V197.978C576.917 197.978 574.852 199.223 574.852 203.261V212.188H571.573V195.185ZM597.717 206.783C596.927 210.275 594.104 212.673 589.974 212.673C584.722 212.673 581.291 208.969 581.291 203.717C581.291 198.434 584.722 194.699 589.974 194.699C594.589 194.699 598.415 198.373 597.717 204.779H584.722C585.056 207.664 586.786 209.698 589.974 209.698C592.343 209.698 593.709 208.423 594.255 206.783H597.717ZM584.813 202.016H594.529C594.255 199.527 592.707 197.674 589.974 197.674C586.999 197.674 585.299 199.435 584.813 202.016ZM603.344 206.813C603.526 208.878 605.318 209.88 607.504 209.88C609.629 209.88 611.087 209.091 611.087 207.36C611.087 203.777 600.338 206.813 600.338 200.012C600.338 197.28 603.101 194.699 607.261 194.699C610.935 194.699 614.062 197.067 614.062 200.529H610.935C610.783 198.464 609.174 197.492 607.139 197.492C604.802 197.492 603.587 198.555 603.587 200.012C603.587 203.929 614.335 200.65 614.335 207.36C614.335 210.578 611.633 212.673 607.352 212.673C603.344 212.673 600.247 210.153 600.126 206.813H603.344ZM619.54 206.813C619.723 208.878 621.514 209.88 623.7 209.88C625.825 209.88 627.283 209.091 627.283 207.36C627.283 203.777 616.535 206.813 616.535 200.012C616.535 197.28 619.298 194.699 623.457 194.699C627.131 194.699 630.258 197.067 630.258 200.529H627.131C626.979 198.464 625.37 197.492 623.336 197.492C620.998 197.492 619.783 198.555 619.783 200.012C619.783 203.929 630.531 200.65 630.531 207.36C630.531 210.578 627.829 212.673 623.548 212.673C619.54 212.673 616.443 210.153 616.322 206.813H619.54ZM632.344 208.453H636.018V212.188H632.344V208.453Z" fill="#201C1D"/>
</g>
<defs>
<clipPath id="clip0_3536_6210">
<rect width="235.822" height="264.91" fill="white" transform="translate(91 117.394)"/>
</clipPath>
<clipPath id="clip1_3536_6210">
<rect width="135.946" height="526.245" fill="white" transform="translate(365.793 196.191) rotate(90)"/>
</clipPath>
<clipPath id="clip2_3536_6210">
<rect width="259.242" height="264.8" fill="white" transform="translate(492 117.473)"/>
</clipPath>
</defs>
</svg>
