<svg width="966" height="500" viewBox="0 0 966 500" fill="none" xmlns="http://www.w3.org/2000/svg">
<rect width="966" height="500" fill="#E5E5E5"/>
<rect x="199.929" y="70.1309" width="32.6014" height="27.6014" stroke="#575757" stroke-width="0.398617"/>
<path d="M206.418 85.2006L207.393 79.8316H212.528V81.0796H208.576L208.108 83.5236C208.589 83.1206 209.213 82.8216 210.006 82.8216C212.203 82.8216 213.334 84.1476 213.334 85.9806C213.334 87.7616 212.073 89.1396 209.863 89.1396C207.965 89.1396 206.353 87.8786 206.353 86.0456H207.809C207.887 87.0336 208.576 87.8136 209.928 87.8136C211.202 87.8136 211.839 86.9556 211.839 85.9416C211.839 84.8366 211.176 84.1216 209.915 84.1216C208.953 84.1216 208.199 84.5506 207.874 85.2006H206.418ZM216.78 85.3306C215.194 85.3306 214.466 84.0566 214.466 82.4706C214.466 80.8976 215.194 79.6236 216.78 79.6236C218.353 79.6236 219.081 80.8976 219.081 82.4706C219.081 84.0566 218.353 85.3306 216.78 85.3306ZM221.915 79.8316H223.449L218.379 88.9316H216.845L221.915 79.8316ZM216.78 84.0956C217.43 84.0956 217.794 83.4196 217.794 82.4706C217.794 81.5346 217.43 80.8586 216.78 80.8586C216.13 80.8586 215.766 81.5346 215.766 82.4706C215.766 83.4196 216.13 84.0956 216.78 84.0956ZM223.475 89.1396C221.889 89.1396 221.161 87.8656 221.161 86.2796C221.161 84.7066 221.889 83.4326 223.475 83.4326C225.048 83.4326 225.776 84.7066 225.776 86.2796C225.776 87.8656 225.048 89.1396 223.475 89.1396ZM223.475 87.9046C224.125 87.9046 224.489 87.2286 224.489 86.2796C224.489 85.3436 224.125 84.6676 223.475 84.6676C222.825 84.6676 222.461 85.3436 222.461 86.2796C222.461 87.2286 222.825 87.9046 223.475 87.9046Z" fill="#201C1D"/>
<g clip-path="url(#clip0_15_382)">
<rect x="107" y="127.932" width="218.458" height="301.976" fill="#F6F6F6"/>
<g clip-path="url(#clip1_15_382)">
<path d="M132.811 167.047C132.811 163.053 136.049 159.814 140.044 159.814H1167.12C1171.12 159.814 1174.36 163.053 1174.36 167.047V839.713H132.811V167.047Z" fill="white"/>
<mask id="path-5-inside-1_15_382" fill="white">
<path d="M132.811 200.319H326.654V839.713H132.811V200.319Z"/>
</mask>
<path d="M132.811 200.319H326.654V839.713H132.811V200.319Z" fill="white"/>
<path d="M326.654 200.319H325.931V839.713H326.654H327.377V200.319H326.654Z" fill="#E5E5E5" mask="url(#path-5-inside-1_15_382)"/>
<g clip-path="url(#clip2_15_382)">
<rect x="150.17" y="217.678" width="159.125" height="28.9319" rx="7.23296" fill="#F7F7F7"/>
<path d="M167.85 231.127V236.366C167.85 236.583 167.669 236.765 167.448 236.765H161.421C161.2 236.765 161.019 236.583 161.019 236.366V231.128L164.434 228.125L167.85 231.127Z" fill="#FF5E00" stroke="#FF5E00" stroke-width="1.20549"/>
<path d="M165.941 233.349H162.928V237.368H165.941V233.349Z" fill="#F7F7F7"/>
<mask id="path-10-inside-2_15_382" fill="white">
<path d="M163.932 236.363H162.928V237.368H163.932V236.363Z"/>
</mask>
<path d="M163.932 236.363H165.138V235.158H163.932V236.363ZM162.928 236.363V235.158H161.722V236.363H162.928ZM162.928 237.368H161.722V238.573H162.928V237.368ZM163.932 237.368V238.573H165.138V237.368H163.932ZM163.932 236.363V235.158H162.928V236.363V237.569H163.932V236.363ZM162.928 236.363H161.722V237.368H162.928H164.133V236.363H162.928ZM162.928 237.368V238.573H163.932V237.368V236.162H162.928V237.368ZM163.932 237.368H165.138V236.363H163.932H162.727V237.368H163.932Z" fill="#FF5E00" mask="url(#path-10-inside-2_15_382)"/>
<g clip-path="url(#clip3_15_382)">
<path d="M179.919 235.144V228.519H181.103V231.274H184.326V228.519H185.506V235.144H184.326V232.27H181.103V235.144H179.919ZM189.193 235.245C187.687 235.245 186.778 234.263 186.778 232.637V232.628C186.778 231.017 187.701 230.029 189.193 230.029C190.69 230.029 191.608 231.012 191.608 232.628V232.637C191.608 234.263 190.694 235.245 189.193 235.245ZM189.193 234.318C189.987 234.318 190.437 233.698 190.437 232.642V232.633C190.437 231.577 189.983 230.952 189.193 230.952C188.399 230.952 187.944 231.577 187.944 232.633V232.642C187.944 233.698 188.399 234.318 189.193 234.318ZM192.756 235.144V230.126H193.899V230.906H193.977C194.193 230.346 194.698 230.029 195.354 230.029C196.034 230.029 196.53 230.378 196.746 230.934H196.824C197.067 230.388 197.646 230.029 198.343 230.029C199.353 230.029 199.96 230.649 199.96 231.691V235.144H198.816V231.971C198.816 231.32 198.518 230.989 197.907 230.989C197.31 230.989 196.925 231.434 196.925 232.008V235.144H195.781V231.889C195.781 231.333 195.437 230.989 194.877 230.989C194.312 230.989 193.899 231.466 193.899 232.091V235.144H192.756ZM203.463 235.245C201.97 235.245 201.066 234.244 201.066 232.646V232.642C201.066 231.062 201.98 230.029 203.408 230.029C204.835 230.029 205.717 231.03 205.717 232.545V232.922H202.209C202.223 233.822 202.71 234.345 203.486 234.345C204.105 234.345 204.459 234.033 204.569 233.803L204.583 233.771H205.671L205.657 233.813C205.497 234.46 204.826 235.245 203.463 235.245ZM203.421 230.925C202.783 230.925 202.306 231.356 202.218 232.155H204.601C204.523 231.333 204.059 230.925 203.421 230.925Z" fill="#191919"/>
</g>
</g>
<path d="M159.814 255.59H169.458C169.821 255.591 170.121 255.89 170.121 256.254V264.089C170.121 264.453 169.821 264.752 169.458 264.753H162.097L161.983 264.81L160.459 265.572C159.858 265.872 159.15 265.434 159.15 264.762V256.254C159.151 255.89 159.45 255.591 159.814 255.59Z" stroke="#191919" stroke-width="1.08494"/>
<path d="M170.663 264.084H169.458V265.609H170.663V264.084Z" fill="white"/>
<path d="M165.589 259.22C165.589 258.774 165.257 258.466 164.769 258.466C164.214 258.466 163.841 258.87 163.835 259.443L162.828 259.34C162.846 258.255 163.66 257.46 164.835 257.46C165.83 257.46 166.655 258.038 166.655 259.123C166.655 260.509 165.185 260.672 165.185 261.444H164.19C164.19 260.015 165.589 260.094 165.589 259.22Z" fill="#191919"/>
<path d="M165.317 261.932H164.112V263.137H165.317V261.932Z" fill="#191919"/>
<g clip-path="url(#clip4_15_382)">
<path d="M182.775 264.241C180.832 264.241 179.639 262.896 179.639 260.766V260.756C179.639 258.622 180.851 257.285 182.775 257.285C184.703 257.285 185.906 258.622 185.906 260.756V260.766C185.906 262.005 185.497 262.983 184.776 263.58L185.658 264.765H184.501L183.964 264.044C183.606 264.172 183.211 264.241 182.775 264.241ZM182.775 263.217C182.958 263.217 183.133 263.194 183.298 263.148L182.444 262.001H183.601L184.088 262.657C184.478 262.226 184.698 261.574 184.698 260.766V260.756C184.698 259.26 183.95 258.309 182.775 258.309C181.599 258.309 180.846 259.26 180.846 260.756V260.766C180.846 262.253 181.581 263.217 182.775 263.217ZM188.807 264.177C187.678 264.177 187.099 263.497 187.099 262.304V259.058H188.243V262.042C188.243 262.818 188.532 263.213 189.221 263.213C189.96 263.213 190.355 262.735 190.355 261.982V259.058H191.498V264.076H190.355V263.314H190.277C190.042 263.851 189.533 264.177 188.807 264.177ZM195.042 264.177C193.55 264.177 192.646 263.176 192.646 261.578V261.574C192.646 259.994 193.559 258.961 194.987 258.961C196.415 258.961 197.297 259.962 197.297 261.477V261.854H193.789C193.803 262.754 194.289 263.277 195.065 263.277C195.685 263.277 196.039 262.965 196.149 262.735L196.163 262.703H197.251L197.237 262.744C197.076 263.392 196.406 264.177 195.042 264.177ZM195.001 259.857C194.363 259.857 193.885 260.288 193.798 261.087H196.181C196.103 260.265 195.639 259.857 195.001 259.857ZM200.336 264.177C199.06 264.177 198.288 263.589 198.192 262.74V262.731H199.326L199.331 262.74C199.45 263.089 199.785 263.332 200.354 263.332C200.924 263.332 201.319 263.075 201.319 262.699V262.689C201.319 262.396 201.098 262.203 200.547 262.079L199.735 261.895C198.78 261.684 198.325 261.234 198.325 260.495V260.49C198.325 259.586 199.151 258.961 200.336 258.961C201.557 258.961 202.287 259.567 202.361 260.38V260.389H201.286L201.282 260.375C201.199 260.059 200.869 259.801 200.331 259.801C199.822 259.801 199.454 260.049 199.454 260.426V260.43C199.454 260.724 199.666 260.903 200.207 261.027L201.02 261.206C202.003 261.427 202.466 261.845 202.466 262.575V262.584C202.466 263.539 201.571 264.177 200.336 264.177ZM205.556 264.099C204.404 264.099 203.931 263.713 203.931 262.744V259.944H203.15V259.058H203.931V257.827H205.093V259.058H206.153V259.944H205.093V262.474C205.093 262.974 205.29 263.185 205.767 263.185C205.928 263.185 206.015 263.181 206.153 263.167V264.048C205.988 264.081 205.777 264.099 205.556 264.099ZM207.879 258.218C207.503 258.218 207.195 257.919 207.195 257.543C207.195 257.171 207.503 256.868 207.879 256.868C208.251 256.868 208.559 257.171 208.559 257.543C208.559 257.919 208.251 258.218 207.879 258.218ZM207.305 264.076V259.058H208.449V264.076H207.305ZM212.021 264.177C210.515 264.177 209.606 263.194 209.606 261.569V261.56C209.606 259.948 210.529 258.961 212.021 258.961C213.517 258.961 214.436 259.944 214.436 261.56V261.569C214.436 263.194 213.522 264.177 212.021 264.177ZM212.021 263.25C212.815 263.25 213.265 262.63 213.265 261.574V261.565C213.265 260.509 212.81 259.884 212.021 259.884C211.226 259.884 210.772 260.509 210.772 261.565V261.574C210.772 262.63 211.226 263.25 212.021 263.25ZM215.583 264.076V259.058H216.727V259.824H216.805C217.043 259.287 217.526 258.961 218.251 258.961C219.371 258.961 219.982 259.636 219.982 260.83V264.076H218.839V261.096C218.839 260.316 218.522 259.921 217.829 259.921C217.149 259.921 216.727 260.398 216.727 261.151V264.076H215.583ZM223.228 264.177C221.952 264.177 221.18 263.589 221.084 262.74V262.731H222.218L222.222 262.74C222.342 263.089 222.677 263.332 223.246 263.332C223.816 263.332 224.21 263.075 224.21 262.699V262.689C224.21 262.396 223.99 262.203 223.439 262.079L222.626 261.895C221.671 261.684 221.217 261.234 221.217 260.495V260.49C221.217 259.586 222.043 258.961 223.228 258.961C224.449 258.961 225.179 259.567 225.253 260.38V260.389H224.178L224.174 260.375C224.091 260.059 223.76 259.801 223.223 259.801C222.714 259.801 222.346 260.049 222.346 260.426V260.43C222.346 260.724 222.558 260.903 223.099 261.027L223.912 261.206C224.895 261.427 225.358 261.845 225.358 262.575V262.584C225.358 263.539 224.463 264.177 223.228 264.177Z" fill="#191919"/>
</g>
<path d="M163.43 287.959H162.225V289.164H163.43V287.959Z" fill="#191919"/>
<path d="M167.047 287.959H165.841V289.164H167.047V287.959Z" fill="#191919"/>
<path d="M163.43 284.583H161.501C160.702 284.583 160.055 285.231 160.055 286.03L160.055 288.009C160.055 288.475 159.677 288.853 159.211 288.853V288.853V290.56V290.56C159.677 290.56 160.055 290.938 160.055 291.404V293.383C160.055 294.182 160.702 294.83 161.501 294.83H163.43" stroke="#191919" stroke-width="1.08494"/>
<path d="M165.841 284.583H167.77C168.569 284.583 169.216 285.231 169.216 286.03L169.216 288.009C169.216 288.475 169.594 288.853 170.06 288.853V288.853V290.56V290.56C169.594 290.56 169.216 290.938 169.216 291.404V293.383C169.216 294.182 168.569 294.83 167.77 294.83H165.841" stroke="#191919" stroke-width="1.08494"/>
<g clip-path="url(#clip5_15_382)">
<path d="M179.427 293.008L181.778 286.383H183.114L185.465 293.008H184.225L183.67 291.295H181.218L180.667 293.008H179.427ZM182.407 287.613L181.517 290.382H183.376L182.485 287.613H182.407ZM186.604 293.008V286.383H187.788V293.008H186.604ZM191.438 293.008L193.789 286.383H195.125L197.476 293.008H196.236L195.68 291.295H193.229L192.678 293.008H191.438ZM194.418 287.613L193.527 290.382H195.387L194.496 287.613H194.418ZM200.272 293.109C198.995 293.109 198.224 292.521 198.128 291.672V291.663H199.262L199.266 291.672C199.386 292.021 199.721 292.264 200.29 292.264C200.859 292.264 201.254 292.007 201.254 291.63V291.621C201.254 291.327 201.034 291.135 200.483 291.011L199.67 290.827C198.715 290.616 198.261 290.166 198.261 289.427V289.422C198.261 288.518 199.087 287.893 200.272 287.893C201.493 287.893 202.223 288.499 202.296 289.312V289.321H201.222L201.218 289.307C201.135 288.99 200.804 288.733 200.267 288.733C199.757 288.733 199.39 288.981 199.39 289.358V289.362C199.39 289.656 199.601 289.835 200.143 289.959L200.956 290.138C201.938 290.359 202.402 290.776 202.402 291.506V291.516C202.402 292.471 201.507 293.109 200.272 293.109ZM205.359 293.109C204.082 293.109 203.311 292.521 203.215 291.672V291.663H204.349L204.353 291.672C204.473 292.021 204.808 292.264 205.377 292.264C205.946 292.264 206.341 292.007 206.341 291.63V291.621C206.341 291.327 206.121 291.135 205.57 291.011L204.757 290.827C203.802 290.616 203.348 290.166 203.348 289.427V289.422C203.348 288.518 204.174 287.893 205.359 287.893C206.58 287.893 207.31 288.499 207.384 289.312V289.321H206.309L206.305 289.307C206.222 288.99 205.891 288.733 205.354 288.733C204.845 288.733 204.477 288.981 204.477 289.358V289.362C204.477 289.656 204.688 289.835 205.23 289.959L206.043 290.138C207.025 290.359 207.489 290.776 207.489 291.506V291.516C207.489 292.471 206.594 293.109 205.359 293.109ZM209.229 287.149C208.853 287.149 208.545 286.851 208.545 286.474C208.545 286.103 208.853 285.8 209.229 285.8C209.601 285.8 209.909 286.103 209.909 286.474C209.909 286.851 209.601 287.149 209.229 287.149ZM208.655 293.008V287.99H209.799V293.008H208.655ZM213.1 293.109C211.823 293.109 211.052 292.521 210.956 291.672V291.663H212.09L212.094 291.672C212.214 292.021 212.549 292.264 213.118 292.264C213.687 292.264 214.082 292.007 214.082 291.63V291.621C214.082 291.327 213.862 291.135 213.311 291.011L212.498 290.827C211.543 290.616 211.089 290.166 211.089 289.427V289.422C211.089 288.518 211.915 287.893 213.1 287.893C214.321 287.893 215.051 288.499 215.124 289.312V289.321H214.05L214.045 289.307C213.963 288.99 213.632 288.733 213.095 288.733C212.585 288.733 212.218 288.981 212.218 289.358V289.362C212.218 289.656 212.429 289.835 212.971 289.959L213.784 290.138C214.766 290.359 215.23 290.776 215.23 291.506V291.516C215.23 292.471 214.335 293.109 213.1 293.109ZM218.32 293.031C217.167 293.031 216.695 292.645 216.695 291.676V288.876H215.914V287.99H216.695V286.759H217.856V287.99H218.917V288.876H217.856V291.405C217.856 291.906 218.054 292.117 218.531 292.117C218.692 292.117 218.779 292.113 218.917 292.099V292.98C218.751 293.012 218.54 293.031 218.32 293.031Z" fill="#191919"/>
</g>
<path d="M166.835 323.93L170.505 320.259" stroke="#191919" stroke-width="1.08494" stroke-miterlimit="10"/>
<path d="M167.239 319.097L163.659 315.516C163.43 315.287 163.129 315.161 162.809 315.161H160.416C159.753 315.161 159.211 315.703 159.211 316.366V318.759C159.211 319.079 159.337 319.386 159.566 319.609L163.147 323.189C163.617 323.66 164.382 323.66 164.853 323.189L167.245 320.796C167.716 320.326 167.716 319.561 167.245 319.091L167.239 319.097Z" stroke="#191919" stroke-width="1.08494" stroke-miterlimit="10"/>
<path d="M161.352 316.961L161.693 317.302L161.352 317.643L161.011 317.302L161.352 316.961Z" fill="white" stroke="#191919" stroke-width="0.723296"/>
<path d="M170.506 319.41L165.214 314.118" stroke="#191919" stroke-width="1.08494" stroke-miterlimit="10"/>
<path d="M161.352 316.961L161.693 317.302L161.352 317.643L161.011 317.302L161.352 316.961Z" fill="white" stroke="#191919" stroke-width="0.723296"/>
<g clip-path="url(#clip6_15_382)">
<path d="M181.567 321.94V316.311H179.529V315.315H184.795V316.311H182.752V321.94H181.567ZM186.374 322.022C185.419 322.022 184.726 321.435 184.726 320.521V320.512C184.726 319.617 185.41 319.093 186.631 319.02L187.921 318.942V318.51C187.921 318.01 187.595 317.734 186.98 317.734C186.457 317.734 186.117 317.922 186.002 318.253L185.998 318.271H184.919L184.923 318.23C185.033 317.385 185.841 316.825 187.035 316.825C188.325 316.825 189.051 317.449 189.051 318.51V321.94H187.921V321.251H187.843C187.568 321.738 187.035 322.022 186.374 322.022ZM185.855 320.466C185.855 320.893 186.218 321.145 186.723 321.145C187.412 321.145 187.921 320.695 187.921 320.099V319.695L186.792 319.768C186.154 319.809 185.855 320.044 185.855 320.457V320.466ZM192.581 323.703C191.259 323.703 190.465 323.138 190.35 322.293L190.355 322.279H191.498L191.502 322.293C191.58 322.615 191.962 322.84 192.6 322.84C193.38 322.84 193.835 322.477 193.835 321.834V320.875H193.757C193.467 321.412 192.921 321.706 192.228 321.706C190.956 321.706 190.166 320.723 190.166 319.3V319.291C190.166 317.84 190.956 316.839 192.251 316.839C192.944 316.839 193.486 317.179 193.771 317.748H193.83V316.921H194.973V321.816C194.973 322.973 194.046 323.703 192.581 323.703ZM192.581 320.796C193.376 320.796 193.853 320.186 193.853 319.3V319.291C193.853 318.404 193.371 317.789 192.581 317.789C191.787 317.789 191.337 318.404 191.337 319.291V319.3C191.337 320.186 191.787 320.796 192.581 320.796ZM198.27 322.041C196.994 322.041 196.222 321.453 196.126 320.604V320.594H197.26L197.264 320.604C197.384 320.953 197.719 321.196 198.288 321.196C198.858 321.196 199.252 320.939 199.252 320.562V320.553C199.252 320.259 199.032 320.066 198.481 319.943L197.668 319.759C196.713 319.548 196.259 319.098 196.259 318.359V318.354C196.259 317.449 197.085 316.825 198.27 316.825C199.491 316.825 200.221 317.431 200.295 318.244V318.253H199.22L199.216 318.239C199.133 317.922 198.803 317.665 198.265 317.665C197.756 317.665 197.388 317.913 197.388 318.29V318.294C197.388 318.588 197.6 318.767 198.141 318.891L198.954 319.07C199.937 319.291 200.4 319.708 200.4 320.438V320.448C200.4 321.403 199.505 322.041 198.27 322.041Z" fill="#191919"/>
</g>
<path d="M160.264 344.797H166.597C166.809 344.797 167.106 345.027 167.106 345.46V353.075L163.643 351.592L163.43 351.5L163.217 351.592L159.753 353.076V345.46C159.753 345.024 160.047 344.797 160.264 344.797Z" stroke="#191919" stroke-width="1.08494"/>
<path d="M169.458 343.05V352.694" stroke="#191919" stroke-width="1.08494"/>
<path d="M168.855 342.447H161.019" stroke="#191919" stroke-width="1.08494"/>
<g clip-path="url(#clip7_15_382)">
<path d="M182.219 351.037C180.681 351.037 179.703 350.279 179.62 349.136L179.616 349.072H180.764L180.768 349.118C180.823 349.673 181.416 350.041 182.256 350.041C183.055 350.041 183.615 349.646 183.615 349.076V349.072C183.615 348.594 183.27 348.305 182.416 348.121L181.705 347.975C180.35 347.69 179.763 347.056 179.763 346.069V346.065C179.763 344.88 180.782 344.081 182.214 344.081C183.684 344.081 184.597 344.885 184.68 345.95L184.684 346.009H183.55L183.541 345.954C183.459 345.44 182.967 345.073 182.21 345.077C181.475 345.077 180.952 345.422 180.952 345.987V345.991C180.952 346.459 181.287 346.753 182.113 346.928L182.825 347.079C184.221 347.373 184.804 347.933 184.804 348.934V348.939C184.804 350.229 183.808 351.037 182.219 351.037ZM187.338 350.954C186.383 350.954 185.69 350.367 185.69 349.453V349.444C185.69 348.548 186.374 348.025 187.595 347.952L188.885 347.874V347.442C188.885 346.941 188.559 346.666 187.944 346.666C187.421 346.666 187.081 346.854 186.966 347.185L186.962 347.203H185.883L185.887 347.162C185.998 346.317 186.806 345.757 187.999 345.757C189.289 345.757 190.015 346.381 190.015 347.442V350.872H188.885V350.183H188.807C188.532 350.67 187.999 350.954 187.338 350.954ZM186.819 349.398C186.819 349.825 187.182 350.077 187.687 350.077C188.376 350.077 188.885 349.627 188.885 349.03V348.626L187.756 348.7C187.118 348.741 186.819 348.975 186.819 349.389V349.398ZM192.581 350.872L190.795 345.853H192.017L193.178 349.756H193.256L194.409 345.853H195.612L193.835 350.872H192.581ZM198.522 350.973C197.03 350.973 196.126 349.972 196.126 348.374V348.369C196.126 346.79 197.039 345.757 198.467 345.757C199.895 345.757 200.777 346.758 200.777 348.273V348.649H197.269C197.283 349.549 197.769 350.073 198.545 350.073C199.165 350.073 199.519 349.761 199.629 349.531L199.643 349.499H200.731L200.717 349.54C200.556 350.187 199.886 350.973 198.522 350.973ZM198.481 346.652C197.843 346.652 197.365 347.084 197.278 347.883H199.661C199.583 347.061 199.119 346.652 198.481 346.652ZM203.816 350.973C202.54 350.973 201.768 350.385 201.672 349.536V349.526H202.806L202.811 349.536C202.93 349.884 203.265 350.128 203.835 350.128C204.404 350.128 204.799 349.871 204.799 349.494V349.485C204.799 349.191 204.578 348.998 204.027 348.874L203.215 348.691C202.26 348.48 201.805 348.03 201.805 347.29V347.286C201.805 346.381 202.632 345.757 203.816 345.757C205.037 345.757 205.767 346.363 205.841 347.176V347.185H204.767L204.762 347.171C204.679 346.854 204.349 346.597 203.812 346.597C203.302 346.597 202.935 346.845 202.935 347.222V347.226C202.935 347.52 203.146 347.699 203.688 347.823L204.5 348.002C205.483 348.222 205.946 348.64 205.946 349.37V349.379C205.946 350.334 205.051 350.973 203.816 350.973Z" fill="#191919"/>
</g>
<mask id="path-36-inside-3_15_382" fill="white">
<path d="M133.037 159.814H1174.58V200.319H133.037V159.814Z"/>
</mask>
<path d="M133.037 159.814H1174.58V200.319H133.037V159.814Z" fill="white"/>
<path d="M1174.58 200.319V199.596H133.037V200.319V201.042H1174.58V200.319Z" fill="#E5E5E5" mask="url(#path-36-inside-3_15_382)"/>
<path d="M158.69 180.456L158.707 180.465L158.702 180.469L158.69 180.457C158.321 180.935 158.011 181.462 157.772 182.026C157.768 182.034 157.765 182.042 157.761 182.051C157.531 182.6 157.367 183.185 157.282 183.795C157.281 183.798 157.281 183.802 157.281 183.806C157.235 184.13 157.212 184.46 157.212 184.796C157.212 185.082 157.229 185.364 157.262 185.641H150.396V183.795H156.358C156.369 183.718 156.382 183.644 156.396 183.569L150.653 182.03L151.13 180.246L156.945 181.804C156.972 181.744 156.999 181.686 157.027 181.627L151.809 178.615L152.732 177.017L158.028 180.072C158.07 180.022 158.112 179.972 158.156 179.923L153.817 175.586L155.123 174.28L159.532 178.688L159.998 179.153C159.508 179.529 159.068 179.967 158.69 180.456Z" fill="#191919"/>
<path d="M177.494 178.015C178.544 178.015 179.275 178.441 179.747 179.187V178.228H181.406V185.64H179.747V184.697C179.305 185.412 178.59 185.853 177.494 185.853C175.424 185.853 174.161 184.24 174.161 181.942C174.161 179.643 175.424 178.015 177.494 178.015ZM186.033 178.015C188.057 178.015 189.473 179.506 189.488 181.135H187.753C187.707 180.328 187.22 179.522 186.033 179.522C184.587 179.522 183.962 180.572 183.962 181.942C183.963 183.311 184.587 184.331 186.033 184.331C187.265 184.331 187.753 183.464 187.798 182.535H189.518C189.488 184.453 188.133 185.853 186.033 185.853C183.75 185.853 182.257 184.24 182.257 181.942C182.257 179.643 183.75 178.015 186.033 178.015ZM202.73 176.462C205.668 176.462 207.296 178.608 207.296 181.15C207.296 183.722 205.668 185.853 202.73 185.853C199.777 185.853 198.149 183.722 198.149 181.15C198.149 178.608 199.778 176.462 202.73 176.462ZM218.316 178.015C220.325 178.015 222.046 179.643 221.68 182.49H216.277C216.414 183.57 217.053 184.346 218.316 184.346C219.184 184.346 219.732 183.889 219.961 183.281H221.695C221.375 184.803 220.112 185.853 218.316 185.853C216.018 185.853 214.526 184.24 214.526 181.942C214.526 179.643 216.018 178.015 218.316 178.015ZM238.408 178.015C240.691 178.015 242.182 179.643 242.182 181.942C242.182 184.24 240.691 185.853 238.408 185.853C236.11 185.853 234.618 184.24 234.618 181.942C234.618 179.643 236.109 178.015 238.408 178.015ZM165.379 176.462C167.357 176.462 168.97 177.756 168.97 179.613H167.189C167.113 178.608 166.535 178.015 165.317 178.015C164.115 178.015 163.491 178.502 163.491 179.187C163.491 181.241 169.107 179.324 169.107 183.083C169.107 184.818 167.737 185.792 165.423 185.792C163.277 185.792 161.68 184.437 161.619 182.626H163.415C163.506 183.646 164.374 184.255 165.515 184.255C166.581 184.255 167.357 183.844 167.357 183.083C167.357 181.196 161.725 182.976 161.725 179.187C161.725 177.71 163.126 176.462 165.379 176.462ZM172.349 178.228H173.613V179.643H172.349V184.225H173.826V185.64H173.08L170.69 185.625V179.643H169.701L169.685 178.228H170.69V176.675H172.349V178.228ZM191.999 181.196L194.388 178.228H196.352L193.947 181.211L196.595 185.64H194.739L192.943 182.429L191.999 183.615V185.64H190.325V176.675H191.999V181.196ZM211.041 184.149L212.715 178.228H214.496L212.182 185.64H209.915L207.601 178.228H209.381L211.041 184.149ZM226.596 178.228V179.643H224.207V185.64H222.547V178.228H226.596ZM231.209 175.716V177.132H230.326C229.854 177.132 229.61 177.36 229.61 177.786V178.228H232.106V175.716H233.781V185.64H232.106V179.643H229.61V185.64H227.951V179.643H227.098V178.228H227.951V177.786C227.951 176.462 228.712 175.716 230.31 175.716H231.209ZM245.18 183.783L246.414 178.228H248.225L249.458 183.798L250.553 178.228H252.319L250.539 185.64H248.332L247.327 181.105L246.322 185.64H244.115L242.335 178.228H244.115L245.18 183.783ZM177.753 179.506C176.535 179.506 175.865 180.526 175.865 181.942C175.865 183.342 176.535 184.346 177.753 184.346C179.092 184.346 179.747 183.311 179.747 181.942C179.747 180.572 179.092 179.506 177.753 179.506ZM238.408 179.506C237.023 179.506 236.322 180.572 236.322 181.942C236.322 183.342 237.023 184.346 238.408 184.346C239.793 184.346 240.493 183.342 240.493 181.942C240.493 180.572 239.793 179.506 238.408 179.506ZM202.73 178.015C200.782 178.015 199.915 179.628 199.915 181.15C199.915 182.672 200.782 184.301 202.73 184.301C204.663 184.301 205.501 182.672 205.501 181.15C205.5 179.628 204.663 178.015 202.73 178.015ZM218.316 179.506C217.159 179.506 216.536 180.176 216.307 181.119H220.051C219.96 180.237 219.412 179.506 218.316 179.506Z" fill="#191919"/>
</g>
</g>
<rect x="461.887" y="70.1309" width="41.6014" height="27.6014" stroke="#575757" stroke-width="0.398617"/>
<path d="M468.208 88.9316C468.273 84.3816 473.59 84.8626 473.59 82.5226C473.59 81.5476 472.888 80.9496 471.783 80.9496C470.457 80.9496 469.872 81.6646 469.794 82.7176H468.299C468.299 80.8846 469.768 79.6236 471.718 79.6236C473.928 79.6236 475.072 80.9626 475.072 82.4966C475.072 85.4866 471.107 85.1356 470.119 87.6706H475.098V88.9316H468.208ZM480.195 89.1396C477.556 89.1396 476.347 87.0076 476.347 84.3686C476.347 81.7556 477.556 79.6236 480.195 79.6236C482.821 79.6236 484.03 81.7556 484.03 84.3686C484.03 87.0076 482.821 89.1396 480.195 89.1396ZM480.195 87.8136C481.768 87.8136 482.535 86.2536 482.535 84.3686C482.535 82.5096 481.768 80.9496 480.195 80.9496C478.609 80.9496 477.829 82.5096 477.829 84.3686C477.829 86.2536 478.609 87.8136 480.195 87.8136ZM487.575 85.3306C485.989 85.3306 485.261 84.0566 485.261 82.4706C485.261 80.8976 485.989 79.6236 487.575 79.6236C489.148 79.6236 489.876 80.8976 489.876 82.4706C489.876 84.0566 489.148 85.3306 487.575 85.3306ZM492.71 79.8316H494.244L489.174 88.9316H487.64L492.71 79.8316ZM487.575 84.0956C488.225 84.0956 488.589 83.4196 488.589 82.4706C488.589 81.5346 488.225 80.8586 487.575 80.8586C486.925 80.8586 486.561 81.5346 486.561 82.4706C486.561 83.4196 486.925 84.0956 487.575 84.0956ZM494.27 89.1396C492.684 89.1396 491.956 87.8656 491.956 86.2796C491.956 84.7066 492.684 83.4326 494.27 83.4326C495.843 83.4326 496.571 84.7066 496.571 86.2796C496.571 87.8656 495.843 89.1396 494.27 89.1396ZM494.27 87.9046C494.92 87.9046 495.284 87.2286 495.284 86.2796C495.284 85.3436 494.92 84.6676 494.27 84.6676C493.62 84.6676 493.256 85.3436 493.256 86.2796C493.256 87.2286 493.62 87.9046 494.27 87.9046Z" fill="#201C1D"/>
<g clip-path="url(#clip8_15_382)">
<rect width="218.458" height="301.976" transform="translate(373.458 127.932)" fill="#1D1A1B"/>
<rect x="373.458" y="127.932" width="218.458" height="301.976" fill="#1D1A1B"/>
<rect x="465.025" y="387.758" width="180.668" height="6.49341" transform="rotate(180 465.025 387.758)" fill="#FF5E00"/>
<rect x="465.025" y="387.763" width="6.4934" height="6.4934" transform="rotate(180 465.025 387.763)" fill="#FFCC00"/>
<rect x="542.634" y="377.237" width="258.279" height="6.49341" transform="rotate(180 542.634 377.237)" fill="#FF5E00"/>
<rect x="542.634" y="377.239" width="6.4934" height="6.4934" transform="rotate(180 542.634 377.239)" fill="#FFCC00"/>
<rect x="435.978" y="366.71" width="151.62" height="6.49341" transform="rotate(180 435.978 366.71)" fill="#FF5E00"/>
<rect x="435.978" y="366.714" width="6.4934" height="6.4934" transform="rotate(180 435.978 366.714)" fill="#FFCC00"/>
<rect x="581.205" y="356.182" width="296.852" height="6.49341" transform="rotate(180 581.205 356.182)" fill="#FF5E00"/>
<rect x="581.199" y="356.183" width="6.4934" height="6.4934" transform="rotate(180 581.199 356.183)" fill="#FFCC00"/>
<rect width="296.852" height="6.49341" transform="matrix(-1 -2.42389e-08 7.54821e-08 1 581.205 244.437)" fill="#FF5E00"/>
<rect width="6.4934" height="6.4934" transform="matrix(-1 0 0 1 581.199 244.436)" fill="#FFCC00"/>
<rect x="478.798" y="345.656" width="194.445" height="6.49341" transform="rotate(180 478.798 345.656)" fill="#FF5E00"/>
<rect x="478.798" y="345.659" width="6.4934" height="6.4934" transform="rotate(180 478.798 345.659)" fill="#FFCC00"/>
<rect width="194.445" height="6.49341" transform="matrix(-1 -2.4009e-08 7.8662e-08 1 478.797 254.963)" fill="#FF5E00"/>
<rect width="6.4934" height="6.4934" transform="matrix(-1 0 0 1 478.797 254.96)" fill="#FFCC00"/>
<rect x="396.007" y="335.128" width="111.654" height="6.49341" transform="rotate(180 396.007 335.128)" fill="#FF5E00"/>
<rect x="396.007" y="335.131" width="6.4934" height="6.4934" transform="rotate(180 396.007 335.131)" fill="#FFCC00"/>
<rect width="111.654" height="6.49341" transform="matrix(-1 -2.4009e-08 7.8662e-08 1 396.007 265.49)" fill="#FF5E00"/>
<rect width="6.4934" height="6.4934" transform="matrix(-1 0 0 1 396.007 265.487)" fill="#FFCC00"/>
<rect x="511.839" y="324.606" width="227.483" height="6.49341" transform="rotate(180 511.839 324.606)" fill="#FF5E00"/>
<rect x="511.839" y="324.606" width="6.4934" height="6.4934" transform="rotate(180 511.839 324.606)" fill="#FFCC00"/>
<rect x="445.207" y="314.079" width="160.852" height="6.49341" transform="rotate(180 445.207 314.079)" fill="#FF5E00"/>
<rect x="445.207" y="314.08" width="6.4934" height="6.4934" transform="rotate(180 445.207 314.08)" fill="#FFCC00"/>
<rect x="490.772" y="303.554" width="206.418" height="6.49341" transform="rotate(180 490.772 303.554)" fill="#FF5E00"/>
<rect x="490.772" y="303.558" width="6.4934" height="6.4934" transform="rotate(180 490.772 303.558)" fill="#FFCC00"/>
<rect x="521.902" y="293.029" width="237.549" height="6.49341" transform="rotate(180 521.902 293.029)" fill="#FF5E00"/>
<rect x="521.901" y="293.031" width="6.4934" height="6.4934" transform="rotate(180 521.901 293.031)" fill="#FFCC00"/>
<rect x="490.771" y="282.503" width="206.418" height="6.49341" transform="rotate(180 490.771 282.503)" fill="#FF5E00"/>
<rect x="490.771" y="282.508" width="6.4934" height="6.4934" transform="rotate(180 490.771 282.508)" fill="#FFCC00"/>
<path d="M401.008 140.858V143.738H394.378V161.858H391.078V143.738H384.478V140.858H401.008ZM403.189 139.358H406.429V147.848C407.149 146.168 408.739 144.578 411.949 144.578C415.189 144.578 417.619 146.378 417.619 151.508V161.858H414.379V151.898C414.379 149.168 413.719 147.398 411.139 147.398C408.739 147.398 406.429 149.498 406.429 153.488V161.858H403.189V139.358ZM436.072 156.518C435.292 159.968 432.502 162.338 428.422 162.338C423.232 162.338 419.842 158.678 419.842 153.488C419.842 148.268 423.232 144.578 428.422 144.578C432.982 144.578 436.762 148.208 436.072 154.538H423.232C423.562 157.388 425.272 159.398 428.422 159.398C430.762 159.398 432.112 158.138 432.652 156.518H436.072ZM423.322 151.808H432.922C432.652 149.348 431.122 147.518 428.422 147.518C425.482 147.518 423.802 149.258 423.322 151.808ZM452.834 147.518C449.504 147.518 447.884 150.068 447.884 153.488C447.884 156.878 449.504 159.398 452.834 159.398C455.744 159.398 457.514 157.028 457.514 153.488C457.514 149.918 455.744 147.518 452.834 147.518ZM460.844 153.488C460.844 158.678 457.904 162.338 453.284 162.338C450.614 162.338 448.904 161.198 447.884 159.398V161.858H444.644V139.358H447.884V147.578C448.964 145.688 450.704 144.578 453.284 144.578C457.904 144.578 460.844 148.268 460.844 153.488ZM463.187 145.058H466.427V147.878C467.087 146.168 468.587 144.578 472.037 144.578V147.818C468.467 147.818 466.427 149.048 466.427 153.038V161.858H463.187V145.058ZM480.49 144.578C485.08 144.578 487.45 147.548 487.45 152.258V161.858H484.21V159.548C483.31 161.258 481.75 162.338 479.35 162.338C476.05 162.338 473.56 160.448 473.56 157.088C473.56 151.838 479.32 151.268 484.18 151.448C484 149.018 482.98 147.458 480.49 147.458C477.91 147.458 476.56 149.048 476.56 150.968H473.14C473.14 147.638 475.75 144.578 480.49 144.578ZM476.92 156.908C476.92 158.588 478.09 159.488 480.07 159.488C482.41 159.488 484.21 157.958 484.21 155.228V153.728C479.26 153.488 476.92 154.898 476.92 156.908ZM490.38 145.058H493.62V161.858H490.38V145.058ZM490.2 139.358H493.83V143.048H490.2V139.358ZM496.791 145.058H500.031V147.818C500.721 146.138 502.371 144.578 505.551 144.578C508.791 144.578 511.221 146.378 511.221 151.508V161.858H507.981V151.898C507.981 149.168 507.321 147.398 504.741 147.398C502.341 147.398 500.031 149.498 500.031 153.488V161.858H496.791V145.058ZM393.958 187.338C391.288 187.338 389.548 186.138 388.558 184.308V192.858H385.318V170.058H388.558V172.638C389.608 170.718 391.378 169.578 393.958 169.578C398.578 169.578 401.518 173.268 401.518 178.488C401.518 183.678 398.578 187.338 393.958 187.338ZM393.508 184.398C396.418 184.398 398.188 182.028 398.188 178.488C398.188 174.918 396.418 172.518 393.508 172.518C390.178 172.518 388.558 175.068 388.558 178.488C388.558 181.878 390.178 184.398 393.508 184.398ZM411.753 172.518C408.453 172.518 406.503 174.918 406.503 178.488C406.503 182.028 408.453 184.398 411.753 184.398C415.023 184.398 417.003 182.028 417.003 178.488C417.003 174.918 415.023 172.518 411.753 172.518ZM403.173 178.488C403.173 173.268 406.563 169.578 411.753 169.578C416.943 169.578 420.333 173.268 420.333 178.488C420.333 183.678 416.943 187.338 411.753 187.338C406.563 187.338 403.173 183.678 403.173 178.488ZM421.244 170.058H424.724L427.484 183.228L430.484 170.058H434.054L437.054 183.228L439.814 170.058H443.294L439.094 186.858H434.894L432.284 175.368L429.644 186.858H425.444L421.244 170.058ZM460.447 181.518C459.667 184.968 456.877 187.338 452.797 187.338C447.607 187.338 444.217 183.678 444.217 178.488C444.217 173.268 447.607 169.578 452.797 169.578C457.357 169.578 461.137 173.208 460.447 179.538H447.607C447.937 182.388 449.647 184.398 452.797 184.398C455.137 184.398 456.487 183.138 457.027 181.518H460.447ZM447.697 176.808H457.297C457.027 174.348 455.497 172.518 452.797 172.518C449.857 172.518 448.177 174.258 447.697 176.808ZM462.894 170.058H466.134V172.878C466.794 171.168 468.294 169.578 471.744 169.578V172.818C468.174 172.818 466.134 174.048 466.134 178.038V186.858H462.894V170.058ZM488.254 172.518C484.924 172.518 483.304 175.068 483.304 178.488C483.304 181.878 484.924 184.398 488.254 184.398C491.164 184.398 492.934 182.028 492.934 178.488C492.934 174.918 491.164 172.518 488.254 172.518ZM496.264 178.488C496.264 183.678 493.324 187.338 488.704 187.338C486.034 187.338 484.324 186.198 483.304 184.398V186.858H480.064V164.358H483.304V172.578C484.384 170.688 486.124 169.578 488.704 169.578C493.324 169.578 496.264 173.268 496.264 178.488ZM514.149 181.518C513.369 184.968 510.579 187.338 506.499 187.338C501.309 187.338 497.919 183.678 497.919 178.488C497.919 173.268 501.309 169.578 506.499 169.578C511.059 169.578 514.839 173.208 514.149 179.538H501.309C501.639 182.388 503.349 184.398 506.499 184.398C508.839 184.398 510.189 183.138 510.729 181.518H514.149ZM501.399 176.808H510.999C510.729 174.348 509.199 172.518 506.499 172.518C503.559 172.518 501.879 174.258 501.399 176.808ZM516.597 164.358H519.837V172.848C520.557 171.168 522.147 169.578 525.357 169.578C528.597 169.578 531.027 171.378 531.027 176.508V186.858H527.787V176.898C527.787 174.168 527.127 172.398 524.547 172.398C522.147 172.398 519.837 174.498 519.837 178.488V186.858H516.597V164.358ZM533.974 170.058H537.214V186.858H533.974V170.058ZM533.794 164.358H537.424V168.048H533.794V164.358ZM540.385 170.058H543.625V172.818C544.315 171.138 545.965 169.578 549.145 169.578C552.385 169.578 554.815 171.378 554.815 176.508V186.858H551.575V176.898C551.575 174.168 550.915 172.398 548.335 172.398C545.935 172.398 543.625 174.498 543.625 178.488V186.858H540.385V170.058ZM564.658 187.338C560.038 187.338 557.098 183.678 557.098 178.488C557.098 173.268 560.038 169.578 564.658 169.578C567.238 169.578 569.008 170.718 570.058 172.638V164.358H573.298V186.858H570.058V184.308C569.068 186.138 567.328 187.338 564.658 187.338ZM565.108 184.398C568.408 184.398 570.058 181.878 570.058 178.488C570.058 175.068 568.408 172.518 565.108 172.518C562.198 172.518 560.428 174.918 560.428 178.488C560.428 182.028 562.198 184.398 565.108 184.398ZM393.958 212.338C391.288 212.338 389.548 211.138 388.558 209.308V217.858H385.318V195.058H388.558V197.638C389.608 195.718 391.378 194.578 393.958 194.578C398.578 194.578 401.518 198.268 401.518 203.488C401.518 208.678 398.578 212.338 393.958 212.338ZM393.508 209.398C396.418 209.398 398.188 207.028 398.188 203.488C398.188 199.918 396.418 197.518 393.508 197.518C390.178 197.518 388.558 200.068 388.558 203.488C388.558 206.878 390.178 209.398 393.508 209.398ZM403.861 195.058H407.101V197.878C407.761 196.168 409.261 194.578 412.711 194.578V197.818C409.141 197.818 407.101 199.048 407.101 203.038V211.858H403.861V195.058ZM421.743 197.518C418.443 197.518 416.493 199.918 416.493 203.488C416.493 207.028 418.443 209.398 421.743 209.398C425.013 209.398 426.993 207.028 426.993 203.488C426.993 199.918 425.013 197.518 421.743 197.518ZM413.163 203.488C413.163 198.268 416.553 194.578 421.743 194.578C426.933 194.578 430.323 198.268 430.323 203.488C430.323 208.678 426.933 212.338 421.743 212.338C416.553 212.338 413.163 208.678 413.163 203.488ZM439.531 211.738C434.911 211.738 431.971 208.378 431.971 203.188C431.971 197.968 434.911 194.578 439.531 194.578C442.081 194.578 443.851 195.568 444.931 197.398V195.058H448.171V210.958C448.171 215.698 445.081 218.338 440.731 218.338C435.391 218.338 433.321 215.428 432.841 212.578H436.201C436.591 214.528 438.211 215.398 440.731 215.398C443.281 215.398 444.931 214.108 444.931 210.958V208.978C443.911 210.718 442.171 211.738 439.531 211.738ZM439.981 208.798C443.281 208.798 444.931 206.578 444.931 203.188C444.931 199.768 443.281 197.518 439.981 197.518C437.071 197.518 435.301 199.618 435.301 203.188C435.301 206.728 437.071 208.798 439.981 208.798ZM451.146 195.058H454.386V197.878C455.046 196.168 456.546 194.578 459.996 194.578V197.818C456.426 197.818 454.386 199.048 454.386 203.038V211.858H451.146V195.058ZM476.678 206.518C475.898 209.968 473.108 212.338 469.028 212.338C463.838 212.338 460.448 208.678 460.448 203.488C460.448 198.268 463.838 194.578 469.028 194.578C473.588 194.578 477.368 198.208 476.678 204.538H463.838C464.168 207.388 465.878 209.398 469.028 209.398C471.368 209.398 472.718 208.138 473.258 206.518H476.678ZM463.928 201.808H473.528C473.258 199.348 471.728 197.518 469.028 197.518C466.088 197.518 464.408 199.258 463.928 201.808ZM481.938 206.428C482.118 208.468 483.888 209.458 486.048 209.458C488.148 209.458 489.588 208.678 489.588 206.968C489.588 203.428 478.968 206.548 478.968 199.828C478.968 197.128 481.698 194.578 485.808 194.578C489.438 194.578 492.528 196.918 492.528 200.338H489.438C489.288 198.298 487.698 197.338 485.688 197.338C483.378 197.338 482.178 198.388 482.178 199.828C482.178 203.698 492.798 200.338 492.798 206.968C492.798 210.148 490.128 212.218 485.898 212.218C481.938 212.218 478.878 209.728 478.758 206.428H481.938ZM497.642 206.428C497.822 208.468 499.592 209.458 501.752 209.458C503.852 209.458 505.292 208.678 505.292 206.968C505.292 203.428 494.672 206.548 494.672 199.828C494.672 197.128 497.402 194.578 501.512 194.578C505.142 194.578 508.232 196.918 508.232 200.338H505.142C504.992 198.298 503.402 197.338 501.392 197.338C499.082 197.338 497.882 198.388 497.882 199.828C497.882 203.698 508.502 200.338 508.502 206.968C508.502 210.148 505.832 212.218 501.602 212.218C497.642 212.218 494.582 209.728 494.462 206.428H497.642ZM509.992 208.168H513.622V211.858H509.992V208.168Z" fill="#EEEEEE"/>
<g clip-path="url(#clip9_15_382)">
<g clip-path="url(#clip10_15_382)">
<path d="M394.801 416.715C395.48 416.715 395.974 416.455 395.974 415.973C395.974 414.778 392.389 415.905 392.389 413.505C392.389 412.57 393.28 411.779 394.714 411.779C395.974 411.779 397 412.599 397 413.775H395.867C395.819 413.139 395.45 412.763 394.675 412.763C393.91 412.763 393.513 413.071 393.513 413.505C393.513 414.806 397.088 413.592 397.088 415.973C397.088 417.072 396.216 417.689 394.743 417.689C393.377 417.689 392.36 416.831 392.321 415.684H393.465C393.523 416.33 394.075 416.715 394.801 416.715ZM397.378 412.898H398.018V411.914H399.073V412.898H399.878V413.794H399.073V416.696H399.548H400.013V417.592H399.538L398.018 417.583V413.794H397.388L397.378 412.898ZM401.282 415.25C401.282 416.137 401.708 416.773 402.483 416.773C403.336 416.773 403.752 416.117 403.752 415.25C403.752 414.382 403.336 413.707 402.483 413.707C401.708 413.707 401.282 414.353 401.282 415.25ZM402.319 412.763C402.987 412.763 403.452 413.033 403.752 413.505V412.898H404.808V417.592H403.752V416.995C403.472 417.448 403.016 417.727 402.319 417.727C401.001 417.727 400.197 416.706 400.197 415.25C400.197 413.794 401.001 412.763 402.319 412.763ZM407.656 417.727C406.203 417.727 405.254 416.706 405.254 415.25C405.254 413.794 406.203 412.763 407.656 412.763C408.945 412.763 409.846 413.707 409.855 414.739H408.751C408.722 414.228 408.412 413.717 407.656 413.717C406.736 413.717 406.339 414.382 406.339 415.25C406.339 416.117 406.736 416.763 407.656 416.763C408.441 416.763 408.751 416.214 408.78 415.626H409.875C409.855 416.84 408.993 417.727 407.656 417.727ZM410.282 411.914H411.347V414.778L412.868 412.898H414.118L412.587 414.787L414.273 417.592H413.091L411.948 415.558L411.347 416.31V417.592H410.282V411.914ZM420.134 414.749C420.134 413.785 419.601 412.763 418.371 412.763C417.131 412.763 416.578 413.785 416.578 414.749C416.578 415.713 417.131 416.744 418.371 416.744C419.601 416.744 420.134 415.713 420.134 414.749ZM415.455 414.749C415.455 413.139 416.491 411.779 418.371 411.779C420.24 411.779 421.17 413.139 421.277 414.749C421.17 416.378 420.24 417.727 418.371 417.727C416.491 417.727 415.455 416.378 415.455 414.749ZM421.286 412.898H422.42L423.476 416.648L424.541 412.898H425.675L424.202 417.592H422.759L421.286 412.898ZM426.702 414.729H429.085C429.027 414.17 428.678 413.707 427.98 413.707C427.244 413.707 426.847 414.132 426.702 414.729ZM427.98 417.727C426.518 417.727 425.568 416.706 425.568 415.25C425.568 413.794 426.518 412.763 427.98 412.763C429.259 412.763 430.354 413.794 430.121 415.597H426.682C426.769 416.281 427.176 416.773 427.98 416.773C428.533 416.773 428.881 416.484 429.027 416.098H430.131C429.928 417.062 429.124 417.727 427.98 417.727ZM430.577 412.898V417.592H431.633V413.794H433.153V412.898H430.577ZM435.556 411.307C434.539 411.307 434.054 411.779 434.054 412.618V412.898H433.57V413.794H434.054V417.592H435.11V413.794H436.234V412.898H435.11V412.618C435.11 412.348 435.265 412.204 435.566 412.204H436.331V411.307H435.556ZM436.747 411.307V417.592H437.813V411.307H436.747ZM439.353 415.25C439.353 416.137 439.799 416.773 440.68 416.773C441.562 416.773 442.008 416.137 442.008 415.25C442.008 414.382 441.562 413.707 440.68 413.707C439.799 413.707 439.353 414.382 439.353 415.25ZM440.68 412.763C442.134 412.763 443.122 413.794 443.083 415.25C443.122 416.706 442.134 417.727 440.68 417.727C439.218 417.727 438.268 416.706 438.268 415.25C438.268 413.794 439.218 412.763 440.68 412.763ZM443.122 412.898H444.255L444.933 416.416L445.718 412.898H446.871L447.655 416.426L448.353 412.898H449.477L448.343 417.592H446.938L446.299 414.72L445.66 417.592H444.255L443.122 412.898Z" fill="#EEEEEE"/>
</g>
</g>
<path d="M389.842 413.881L389.854 413.887L389.851 413.89L389.842 413.882C389.572 414.227 389.346 414.607 389.171 415.013C389.169 415.019 389.166 415.025 389.164 415.031C388.995 415.427 388.876 415.849 388.813 416.288C388.813 416.291 388.813 416.294 388.813 416.297C388.779 416.53 388.762 416.768 388.762 417.01C388.762 417.216 388.775 417.42 388.799 417.619L383.787 417.619L383.787 416.288L388.139 416.288C388.147 416.234 388.157 416.18 388.167 416.126L383.975 415.016L384.323 413.73L388.568 414.853C388.587 414.81 388.607 414.768 388.628 414.725L384.819 412.554L385.493 411.401L389.358 413.605C389.389 413.568 389.42 413.532 389.452 413.497L386.284 410.37L387.238 409.428L390.456 412.606L390.796 412.942C390.438 413.213 390.117 413.529 389.842 413.881Z" fill="#EEEEEE"/>
</g>
<rect x="728.346" y="70.1309" width="41.6014" height="27.6014" stroke="#575757" stroke-width="0.398617"/>
<path d="M734.835 85.2006L735.81 79.8316H740.945V81.0796H736.993L736.525 83.5236C737.006 83.1206 737.63 82.8216 738.423 82.8216C740.62 82.8216 741.751 84.1476 741.751 85.9806C741.751 87.7616 740.49 89.1396 738.28 89.1396C736.382 89.1396 734.77 87.8786 734.77 86.0456H736.226C736.304 87.0336 736.993 87.8136 738.345 87.8136C739.619 87.8136 740.256 86.9556 740.256 85.9416C740.256 84.8366 739.593 84.1216 738.332 84.1216C737.37 84.1216 736.616 84.5506 736.291 85.2006H734.835ZM746.679 89.1396C744.04 89.1396 742.831 87.0076 742.831 84.3686C742.831 81.7556 744.04 79.6236 746.679 79.6236C749.305 79.6236 750.514 81.7556 750.514 84.3686C750.514 87.0076 749.305 89.1396 746.679 89.1396ZM746.679 87.8136C748.252 87.8136 749.019 86.2536 749.019 84.3686C749.019 82.5096 748.252 80.9496 746.679 80.9496C745.093 80.9496 744.313 82.5096 744.313 84.3686C744.313 86.2536 745.093 87.8136 746.679 87.8136ZM754.058 85.3306C752.472 85.3306 751.744 84.0566 751.744 82.4706C751.744 80.8976 752.472 79.6236 754.058 79.6236C755.631 79.6236 756.359 80.8976 756.359 82.4706C756.359 84.0566 755.631 85.3306 754.058 85.3306ZM759.193 79.8316H760.727L755.657 88.9316H754.123L759.193 79.8316ZM754.058 84.0956C754.708 84.0956 755.072 83.4196 755.072 82.4706C755.072 81.5346 754.708 80.8586 754.058 80.8586C753.408 80.8586 753.044 81.5346 753.044 82.4706C753.044 83.4196 753.408 84.0956 754.058 84.0956ZM760.753 89.1396C759.167 89.1396 758.439 87.8656 758.439 86.2796C758.439 84.7066 759.167 83.4326 760.753 83.4326C762.326 83.4326 763.054 84.7066 763.054 86.2796C763.054 87.8656 762.326 89.1396 760.753 89.1396ZM760.753 87.9046C761.403 87.9046 761.767 87.2286 761.767 86.2796C761.767 85.3436 761.403 84.6676 760.753 84.6676C760.103 84.6676 759.739 85.3436 759.739 86.2796C759.739 87.2286 760.103 87.9046 760.753 87.9046Z" fill="#201C1D"/>
<g clip-path="url(#clip11_15_382)">
<rect x="639.917" y="127.932" width="218.458" height="301.976" fill="#FF5E00"/>
<g clip-path="url(#clip12_15_382)">
<path d="M740.618 312.194C766.071 324.276 791.584 336.34 817.194 348.046C840.161 349.52 863.285 348.968 886.274 350.071C887.289 350.119 888.715 350.33 889.697 350.585L813.373 382.507L812.36 382.627L699.405 329.484L740.618 312.194Z" fill="#FFCC00"/>
<path d="M836.021 293.378L895.043 329.99L822.283 327.959C785.403 310.428 748.596 292.684 711.527 275.543C711.04 275.318 709.786 274.975 709.837 274.307L781.324 276.339L723.829 240.743C761.607 257.37 798.213 276.833 836.021 293.378Z" fill="#FFCC00"/>
<path d="M905.477 207.434L918.703 295.157L880.037 229.555C852.679 216.451 825.328 203.013 797.864 190.143L792.522 154.036L905.477 207.434Z" fill="#FFCC00"/>
<path d="M812.361 401.952L889.446 369.917L817.195 432.719L703.985 379.322L724.846 361.014C753.952 374.715 783.266 388.165 812.361 401.952Z" fill="#FFCC00"/>
<path d="M835.005 132.932L947.706 186.329L934.474 285.494C929.384 256.41 925.593 226.951 920.739 197.772C891.29 183.299 861.453 169.451 831.697 155.562L834.483 133.086L835.005 132.932Z" fill="#FFCC00"/>
<path d="M836.021 471.368L723.066 418.479C722.583 418.127 722.921 417.753 723.103 417.374C724.856 413.729 729.171 409.467 731.207 405.766L822.283 448.484L894.783 386.057L836.021 471.368Z" fill="#FFCC00"/>
<path d="M785.142 245.574C805.44 255.12 825.729 265.083 845.945 274.815L836.023 293.377C798.215 276.833 761.609 257.37 723.83 240.743C723.537 240.614 723.132 240.576 722.814 240.486L722.865 239.911L733.104 221.418L784.477 245.65C784.944 245.87 785.112 245.56 785.142 245.574Z" fill="#F39FFF"/>
<path d="M709.839 274.307C709.789 274.975 711.043 275.318 711.53 275.543C748.599 292.684 785.406 310.427 822.286 327.958L817.198 348.046C791.588 336.34 766.075 324.276 740.622 312.194C728.507 306.443 716.475 300.496 704.211 295.051L709.839 274.307Z" fill="#F39FFF"/>
<path d="M812.36 382.627V401.952C783.265 388.165 753.951 374.715 724.845 361.014C716.379 357.029 707.977 352.847 699.531 348.81L699.405 329.484L812.36 382.627Z" fill="#F39FFF"/>
<path d="M831.7 155.562C861.456 169.451 891.292 183.298 920.741 197.771L905.477 207.434L792.522 154.037C797.491 150.621 802.547 147.18 807.886 144.386C815.952 147.838 823.759 151.856 831.7 155.562V155.562Z" fill="#F39FFF"/>
<path d="M817.195 432.719L822.283 448.484L731.206 405.766L709.445 395.351L703.985 379.322L817.195 432.719Z" fill="#F39FFF"/>
<path d="M871.643 139.798C902.269 154.06 932.708 168.79 963.228 183.278L947.71 186.33L835.008 132.932L850.118 129.888C857.3 133.175 864.485 136.465 871.643 139.798Z" fill="#F39FFF"/>
<path d="M836.022 471.368L845.689 482.048C815.725 467.889 785.754 453.73 755.802 439.54C755.215 439.262 754.448 439.239 754.103 439.076C746.968 435.696 739.906 432.108 732.75 428.76L723.066 418.48L836.022 471.368Z" fill="#F39FFF"/>
<path d="M963.223 183.279L949.867 282.448L988.409 184.042L1001.89 187.856L1001.13 190.144L963.988 285.24L1022.75 200.569C1026.19 203.35 1029.3 207.894 1032.65 210.904C1029.86 215.083 1027.11 219.308 1024.28 223.454C1007.53 247.996 990.105 272.1 973.778 296.932L1046.16 234.133C1046.7 234.931 1051.08 247.768 1051.19 248.82C1051.37 250.589 1050.87 250.207 1049.98 251.169L1049.47 251.678C1048.44 252.665 1047.22 253.52 1046.16 254.475L1045.65 254.983C1044.58 255.941 1043.42 256.827 1042.34 257.78L1041.83 258.289C1041.34 258.721 1040.8 259.129 1040.31 259.56L1039.8 260.069C1039.4 260.42 1038.93 260.735 1038.53 261.086L1038.02 261.595C1037.53 262.026 1036.98 262.436 1036.49 262.866L1035.98 263.375C1034.9 264.323 1033.76 265.227 1032.68 266.172L1032.17 266.68C1031.58 267.19 1031.12 267.79 1030.64 268.206C1013.51 283.139 995.842 297.615 979.12 312.951L1056.08 280.665L1056.05 299.955C1042.3 305.352 1028.74 311.293 1015.12 317.026C1003.08 322.096 990.951 327.018 978.998 332.279L1051.5 334.316L1045.99 354.673L973.401 352.627L1032.37 388.78L1022.75 407.801H1022.25C1022.08 407.784 1021.9 407.812 1021.74 407.801C1021.77 407.183 1021.35 407.154 1020.98 406.905C1002.86 394.764 982.944 384.412 964.667 372.413L963.484 372.073L970.347 383.391L1001.84 437.717L988.664 453.061L949.866 387.206C952.268 404.513 955.005 421.797 957.627 439.077C959.445 451.06 961.397 463.036 963.161 475.03L947.959 484.846L934.473 397.123C930.334 422.587 927.547 448.329 924.045 473.912C923.025 481.362 921.744 488.83 920.738 496.288L919.72 496.542C917.512 496.975 915.312 497.35 913.106 497.813C912.03 498.04 910.789 498.09 909.799 498.576C908.625 498.753 906.396 499.334 905.474 499.339L918.7 400.683C906.612 430.062 895.632 459.916 883.849 489.422C882.629 492.478 881.287 495.511 880.129 498.592C875.506 497.987 871.113 496.03 866.55 495.016L904.962 396.613L845.689 482.049L836.021 471.369L894.783 386.058L822.283 448.485L817.195 432.72L889.446 369.918L812.362 401.953V382.628L813.375 382.508L889.699 350.587C888.717 350.332 887.29 350.121 886.276 350.072C863.287 348.969 840.162 349.521 817.195 348.047L822.283 327.96L895.043 329.991L836.021 293.379L845.943 274.817L905.213 310.799L866.804 244.558L880.033 229.556L918.7 295.158L905.474 207.435L920.738 197.772C925.592 226.952 929.383 256.411 934.473 285.495L947.705 186.33L963.223 183.279ZM963.859 285.496V285.75L963.987 285.623L963.859 285.496ZM963.605 286.005V286.259L963.732 286.132L963.605 286.005Z" fill="#FF5E00"/>
<path d="M866.547 495.016L753.356 441.597L754.1 439.077C754.445 439.24 755.212 439.262 755.799 439.541C785.751 453.731 815.722 467.89 845.686 482.049L904.959 396.613L866.547 495.016Z" fill="#FFCC00"/>
<path d="M797.862 190.144C825.325 203.014 852.676 216.452 880.034 229.556L866.805 244.558L753.595 191.415L766.953 176.129C776.259 180.044 785.247 184.642 794.383 188.916C795.427 189.405 797.047 189.762 797.862 190.144Z" fill="#F39FFF"/>
<path d="M866.805 244.558L905.214 310.799L845.944 274.816C825.728 265.084 805.44 255.121 785.141 245.575L753.595 191.415L866.805 244.558Z" fill="#FFCC00"/>
</g>
<rect x="650.008" y="143.18" width="88.8928" height="26.2433" fill="#201C1D"/>
<rect x="650.008" y="166.812" width="155.064" height="27.5537" fill="#201C1D"/>
<path d="M672.087 158.703C671.74 163.186 669.04 166.158 664.161 166.158C658.638 166.158 655.592 162.096 655.592 157.069C655.592 152.09 658.638 148.029 664.161 148.029C668.817 148.029 671.468 150.679 671.988 154.839H669.09C668.743 152.61 667.505 150.555 664.161 150.555C660.273 150.555 658.415 153.651 658.415 157.069C658.415 160.536 660.273 163.632 664.161 163.632C667.777 163.632 669.04 161.254 669.238 158.703H672.087ZM679.538 151.496C683.327 151.496 685.284 153.948 685.284 157.836V165.762H682.609V163.855C681.866 165.266 680.578 166.158 678.597 166.158C675.872 166.158 673.817 164.598 673.817 161.824C673.817 157.49 678.572 157.019 682.584 157.168C682.435 155.161 681.593 153.874 679.538 153.874C677.408 153.874 676.293 155.186 676.293 156.771H673.47C673.47 154.022 675.625 151.496 679.538 151.496ZM676.59 161.675C676.59 163.062 677.556 163.805 679.191 163.805C681.123 163.805 682.609 162.542 682.609 160.288V159.05C678.522 158.852 676.59 160.016 676.59 161.675ZM687.626 147.186H690.301V165.762H687.626V147.186ZM692.802 147.186H695.477V165.762H692.802V147.186ZM698.127 151.892H700.802V165.762H698.127V151.892ZM697.978 147.186H700.975V150.233H697.978V147.186ZM703.419 151.892H706.094V154.171C706.664 152.784 708.026 151.496 710.651 151.496C713.326 151.496 715.332 152.982 715.332 157.217V165.762H712.657V157.539C712.657 155.285 712.112 153.824 709.982 153.824C708.001 153.824 706.094 155.558 706.094 158.852V165.762H703.419V151.892ZM723.483 165.663C719.669 165.663 717.242 162.889 717.242 158.604C717.242 154.295 719.669 151.496 723.483 151.496C725.588 151.496 727.049 152.313 727.941 153.824V151.892H730.616V165.019C730.616 168.932 728.065 171.111 724.474 171.111C720.065 171.111 718.356 168.709 717.96 166.356H720.734C721.056 167.966 722.393 168.684 724.474 168.684C726.579 168.684 727.941 167.619 727.941 165.019V163.384C727.099 164.821 725.662 165.663 723.483 165.663ZM723.854 163.235C726.579 163.235 727.941 161.403 727.941 158.604C727.941 155.781 726.579 153.923 723.854 153.923C721.452 153.923 719.991 155.657 719.991 158.604C719.991 161.527 721.452 163.235 723.854 163.235ZM661.833 174.496C665.623 174.496 667.579 176.948 667.579 180.836V188.762H664.904V186.855C664.161 188.266 662.873 189.158 660.892 189.158C658.168 189.158 656.112 187.598 656.112 184.824C656.112 180.49 660.867 180.019 664.879 180.168C664.731 178.161 663.889 176.874 661.833 176.874C659.703 176.874 658.589 178.186 658.589 179.771H655.765C655.765 177.022 657.92 174.496 661.833 174.496ZM658.886 184.675C658.886 186.062 659.852 186.805 661.486 186.805C663.418 186.805 664.904 185.542 664.904 183.288V182.05C660.818 181.852 658.886 183.016 658.886 184.675ZM669.922 170.186H672.597V188.762H669.922V170.186ZM675.098 170.186H677.773V188.762H675.098V170.186ZM684.61 174.892H687.483L689.761 185.765L692.238 174.892H695.185L697.662 185.765L699.941 174.892H702.814L699.346 188.762H695.879L693.724 179.276L691.545 188.762H688.077L684.61 174.892ZM704.605 170.186H707.28V177.196C707.875 175.809 709.187 174.496 711.837 174.496C714.512 174.496 716.518 175.982 716.518 180.217V188.762H713.843V180.539C713.843 178.285 713.299 176.824 711.169 176.824C709.187 176.824 707.28 178.558 707.28 181.852V188.762H704.605V170.186ZM725.438 176.923C722.713 176.923 721.103 178.904 721.103 181.852C721.103 184.774 722.713 186.731 725.438 186.731C728.137 186.731 729.772 184.774 729.772 181.852C729.772 178.904 728.137 176.923 725.438 176.923ZM718.354 181.852C718.354 177.542 721.153 174.496 725.438 174.496C729.722 174.496 732.521 177.542 732.521 181.852C732.521 186.136 729.722 189.158 725.438 189.158C721.153 189.158 718.354 186.136 718.354 181.852ZM752.558 182.941C752.434 186.533 749.958 189.158 746.044 189.158C741.76 189.158 738.961 186.136 738.961 181.852C738.961 177.542 741.76 174.496 746.044 174.496C749.809 174.496 752.385 177.295 752.509 180.341H749.685C749.561 178.657 748.496 176.948 746.044 176.948C743.122 176.948 741.71 179.028 741.71 181.852C741.71 184.65 743.122 186.706 746.044 186.706C748.645 186.706 749.66 184.898 749.784 182.941H752.558ZM760.943 176.923C758.219 176.923 756.609 178.904 756.609 181.852C756.609 184.774 758.219 186.731 760.943 186.731C763.643 186.731 765.278 184.774 765.278 181.852C765.278 178.904 763.643 176.923 760.943 176.923ZM753.86 181.852C753.86 177.542 756.659 174.496 760.943 174.496C765.228 174.496 768.027 177.542 768.027 181.852C768.027 186.136 765.228 189.158 760.943 189.158C756.659 189.158 753.86 186.136 753.86 181.852ZM775.629 189.158C771.815 189.158 769.388 186.136 769.388 181.852C769.388 177.542 771.815 174.496 775.629 174.496C777.759 174.496 779.22 175.437 780.087 177.022V170.186H782.762V188.762H780.087V186.657C779.27 188.167 777.833 189.158 775.629 189.158ZM776.001 186.731C778.725 186.731 780.087 184.65 780.087 181.852C780.087 179.028 778.725 176.923 776.001 176.923C773.598 176.923 772.137 178.904 772.137 181.852C772.137 184.774 773.598 186.731 776.001 186.731ZM798.073 184.353C797.429 187.201 795.125 189.158 791.757 189.158C787.472 189.158 784.674 186.136 784.674 181.852C784.674 177.542 787.472 174.496 791.757 174.496C795.522 174.496 798.642 177.493 798.073 182.719H787.472C787.745 185.071 789.156 186.731 791.757 186.731C793.689 186.731 794.803 185.691 795.249 184.353H798.073ZM787.547 180.465H795.472C795.249 178.434 793.986 176.923 791.757 176.923C789.33 176.923 787.943 178.36 787.547 180.465Z" fill="white"/>
<g clip-path="url(#clip13_15_382)">
<g clip-path="url(#clip14_15_382)">
<path d="M661.287 416.716C661.965 416.716 662.459 416.455 662.459 415.973C662.459 414.778 658.875 415.906 658.875 413.506C658.875 412.57 659.766 411.78 661.2 411.78C662.459 411.78 663.486 412.599 663.486 413.775H662.353C662.304 413.139 661.936 412.763 661.161 412.763C660.396 412.763 659.999 413.072 659.999 413.506C659.999 414.807 663.573 413.592 663.573 415.973C663.573 417.072 662.702 417.689 661.229 417.689C659.863 417.689 658.846 416.831 658.807 415.684H659.95C660.009 416.33 660.561 416.716 661.287 416.716ZM663.864 412.898H664.503V411.915H665.559V412.898H666.363V413.795H665.559V416.696H666.034H666.499V417.593H666.024L664.503 417.583V413.795H663.874L663.864 412.898ZM667.768 415.25C667.768 416.137 668.194 416.773 668.969 416.773C669.822 416.773 670.238 416.118 670.238 415.25C670.238 414.383 669.822 413.708 668.969 413.708C668.194 413.708 667.768 414.354 667.768 415.25ZM668.805 412.763C669.473 412.763 669.938 413.033 670.238 413.506V412.898H671.294V417.593H670.238V416.995C669.957 417.448 669.502 417.728 668.805 417.728C667.487 417.728 666.683 416.706 666.683 415.25C666.683 413.795 667.487 412.763 668.805 412.763ZM674.142 417.728C672.689 417.728 671.74 416.706 671.74 415.25C671.74 413.795 672.689 412.763 674.142 412.763C675.431 412.763 676.332 413.708 676.341 414.739H675.237C675.208 414.229 674.898 413.718 674.142 413.718C673.222 413.718 672.825 414.383 672.825 415.25C672.825 416.118 673.222 416.764 674.142 416.764C674.927 416.764 675.237 416.214 675.266 415.626H676.361C676.341 416.841 675.479 417.728 674.142 417.728ZM676.768 411.915H677.833V414.778L679.354 412.898H680.604L679.073 414.788L680.759 417.593H679.577L678.434 415.559L677.833 416.311V417.593H676.768V411.915ZM686.62 414.749C686.62 413.785 686.087 412.763 684.856 412.763C683.616 412.763 683.064 413.785 683.064 414.749C683.064 415.713 683.616 416.745 684.856 416.745C686.087 416.745 686.62 415.713 686.62 414.749ZM681.941 414.749C681.941 413.139 682.977 411.78 684.856 411.78C686.726 411.78 687.656 413.139 687.763 414.749C687.656 416.378 686.726 417.728 684.856 417.728C682.977 417.728 681.941 416.378 681.941 414.749ZM687.772 412.898H688.906L689.962 416.648L691.027 412.898H692.161L690.688 417.593H689.245L687.772 412.898ZM693.188 414.73H695.571C695.513 414.171 695.164 413.708 694.466 413.708C693.73 413.708 693.333 414.132 693.188 414.73ZM694.466 417.728C693.003 417.728 692.054 416.706 692.054 415.25C692.054 413.795 693.003 412.763 694.466 412.763C695.745 412.763 696.84 413.795 696.607 415.597H693.168C693.255 416.282 693.662 416.773 694.466 416.773C695.018 416.773 695.367 416.484 695.513 416.099H696.617C696.413 417.063 695.609 417.728 694.466 417.728ZM697.062 412.898V417.593H698.118V413.795H699.639V412.898H697.062ZM702.042 411.308C701.025 411.308 700.54 411.78 700.54 412.619V412.898H700.056V413.795H700.54V417.593H701.596V413.795H702.72V412.898H701.596V412.619C701.596 412.349 701.751 412.204 702.051 412.204H702.817V411.308H702.042ZM703.233 411.308V417.593H704.299V411.308H703.233ZM705.839 415.25C705.839 416.137 706.285 416.773 707.166 416.773C708.048 416.773 708.493 416.137 708.493 415.25C708.493 414.383 708.048 413.708 707.166 413.708C706.285 413.708 705.839 414.383 705.839 415.25ZM707.166 412.763C708.619 412.763 709.608 413.795 709.569 415.25C709.608 416.706 708.619 417.728 707.166 417.728C705.704 417.728 704.754 416.706 704.754 415.25C704.754 413.795 705.704 412.763 707.166 412.763ZM709.608 412.898H710.741L711.419 416.417L712.204 412.898H713.357L714.141 416.426L714.839 412.898H715.962L714.829 417.593H713.424L712.785 414.72L712.146 417.593H710.741L709.608 412.898Z" fill="#1D1A1B"/>
</g>
</g>
<path d="M656.328 413.882L656.34 413.888L656.336 413.891L656.328 413.882C656.058 414.227 655.831 414.607 655.657 415.013C655.654 415.02 655.652 415.025 655.649 415.032C655.481 415.428 655.362 415.849 655.299 416.289C655.299 416.291 655.299 416.295 655.299 416.297C655.265 416.53 655.248 416.769 655.248 417.011C655.248 417.217 655.261 417.42 655.285 417.62L650.273 417.62L650.273 416.289L654.625 416.289C654.633 416.234 654.643 416.18 654.653 416.126L650.46 415.017L650.809 413.731L655.053 414.854C655.073 414.811 655.093 414.768 655.114 414.726L651.305 412.554L651.978 411.402L655.844 413.605C655.874 413.569 655.905 413.533 655.938 413.497L652.77 410.37L653.724 409.429L656.942 412.607L657.282 412.942C656.924 413.213 656.603 413.529 656.328 413.882Z" fill="#1D1A1B"/>
</g>
<defs>
<clipPath id="clip0_15_382">
<rect width="218.458" height="301.976" fill="white" transform="translate(107 127.932)"/>
</clipPath>
<clipPath id="clip1_15_382">
<path d="M132.811 167.047C132.811 163.053 136.049 159.814 140.044 159.814H1167.12C1171.12 159.814 1174.36 163.053 1174.36 167.047V839.713H132.811V167.047Z" fill="white"/>
</clipPath>
<clipPath id="clip2_15_382">
<rect x="150.17" y="217.678" width="159.125" height="28.9319" rx="7.23296" fill="white"/>
</clipPath>
<clipPath id="clip3_15_382">
<rect width="130.193" height="28.9319" fill="white" transform="translate(179.102 217.678)"/>
</clipPath>
<clipPath id="clip4_15_382">
<rect width="130.193" height="28.9319" fill="white" transform="translate(179.102 246.61)"/>
</clipPath>
<clipPath id="clip5_15_382">
<rect width="130.193" height="28.9319" fill="white" transform="translate(179.102 275.542)"/>
</clipPath>
<clipPath id="clip6_15_382">
<rect width="130.193" height="28.9319" fill="white" transform="translate(179.102 304.474)"/>
</clipPath>
<clipPath id="clip7_15_382">
<rect width="130.193" height="28.9319" fill="white" transform="translate(179.102 333.406)"/>
</clipPath>
<clipPath id="clip8_15_382">
<rect width="218.458" height="301.976" fill="white" transform="translate(373.458 127.932)"/>
</clipPath>
<clipPath id="clip9_15_382">
<rect width="57.1551" height="6.51193" fill="white" transform="translate(392.321 411.251)"/>
</clipPath>
<clipPath id="clip10_15_382">
<rect width="57.1551" height="6.42022" fill="white" transform="translate(392.321 411.307)"/>
</clipPath>
<clipPath id="clip11_15_382">
<rect width="218.458" height="301.976" fill="white" transform="translate(639.917 127.932)"/>
</clipPath>
<clipPath id="clip12_15_382">
<rect width="356.675" height="369.451" fill="white" transform="translate(699.408 129.888)"/>
</clipPath>
<clipPath id="clip13_15_382">
<rect width="57.1551" height="6.51193" fill="white" transform="translate(658.807 411.252)"/>
</clipPath>
<clipPath id="clip14_15_382">
<rect width="57.1551" height="6.42022" fill="white" transform="translate(658.807 411.307)"/>
</clipPath>
</defs>
</svg>
