<svg aria-hidden="true" class="svg-icon iconBalloon" width="18" height="18" viewBox="0 0 18 18"><path d="M10.26 17h-.2a3.61 3.61 0 0 1-3.61-3.61.5.5 0 1 1 1 0A2.61 2.61 0 0 0 10.06 16h.2a2.61 2.61 0 0 0 2.61-2.82 3.62 3.62 0 0 1 3.61-3.4.5.5 0 0 1 .5.5.51.51 0 0 1-.5.5 2.61 2.61 0 0 0-2.61 2.61c0 .07-.02.14-.05.2A3.61 3.61 0 0 1 10.26 17z" fill-opacity=".4"/><path d="M11.81 6.72c0-2.69-2.18-5.49-4.87-5.49S2.06 4 2.06 6.72c0 2.49 1.87 6 4.28 6.49v.07a.63.63 0 0 0 1.26 0v-.08c2.4-.53 4.21-4 4.21-6.48zM6.51 4.3L4.82 6a.48.48 0 0 1-.34.14.48.48 0 0 1-.33-.82l1.69-1.7a.47.47 0 0 1 .67 0 .48.48 0 0 1 0 .68z" fill="#F75D37"/></svg>