<svg aria-hidden="true" class="svg-icon iconClap" width="18" height="18" viewBox="0 0 18 18"><path d="M12.5 3a.5.5 0 0 1-.5-.5v-2a.5.5 0 0 1 1 0v2a.5.5 0 0 1-.5.5zM14 4.5c0-.28.22-.5.5-.5h2a.5.5 0 0 1 0 1h-2a.5.5 0 0 1-.5-.5zm-.35-1.85a.5.5 0 0 0 .7.7l1.5-1.5a.5.5 0 0 0-.7-.7l-1.5 1.5z" opacity=".4"/><path d="M2.58 8.69c.33.45.73.8 1.15 1.06L5.8 6c.17-.29.4-.56.68-.74.44-.28.99-.26 1.4-.02h.02c.32-.04 1.6-.06 2.73-.08a41.5 41.5 0 0 0 1.77-.04c.49-.04.68-.3.65-.75-.02-.46-.44-.65-.9-.6l-6.76.36c-.05.01-.1-.07-.07-.11l1.03-1.36c.3-.4.16-.97-.21-1.26a.87.87 0 0 0-1.25.13C4.3 2.26 3.74 3 3.19 3.76c-1.08 1.47-1.83 3.29-.61 4.93zm10.1.41h-.75c.11-.23.18-.47.17-.73 0-.19-.06-.37-.15-.53l.73.01c.41.03.68.35.68.6 0 .24-.23.66-.68.65z" fill="#FFC166"/><path d="M10.9 7.15l2.6-.02a.66.66 0 0 0 .6-.77c-.08-.41-.47-.64-.87-.64l-2.66.04c.35.37.48.9.33 1.4zM5.52 17c-2.04 0-3.15-1.78-3.7-3.52a53.2 53.2 0 0 1-.77-2.7c-.15-.46.14-.94.63-1.07.47-.13 1 .1 1.15.58l.47 1.63c.02.06.11.06.14 0l3.01-5.54c.24-.4.6-.73.97-.54.4.2.47.54.25 1.02-.08.18-.33.66-.63 1.22-.51.96-1.15 2.16-1.26 2.49-.01.04-.03.21.08.29.1.07.28-.06.3-.09l2.71-4.14c.2-.34.63-.66.98-.48.34.18.46.6.26.93L7.37 11.2c-.02.03-.14.32.05.43.19.12.4-.04.42-.07L10.2 8.3c.27-.31.51-.51.9-.32.34.18.33.61.06.97-.45.6-.8 1.13-1.16 1.64-.4.58-.8 1.15-1.28 1.8-.02.03-.13.23 0 .37.12.13.27 0 .27 0l1.9-2.3c.23-.3.48-.42.8-.25.28.14.22.58.09.8-.53.91-1.2 1.72-1.86 2.53C8.75 14.94 7.55 17 5.52 17z" fill="#FFC166"/></svg>