<svg aria-hidden="true" class="svg-icon iconCoins" width="18" height="18" viewBox="0 0 18 18"><path d="M17 6.29c0-.29-.2-.41-.36-.29a6.15 6.15 0 0 1-6.28.01c-.16-.12-.36.03-.36.29v1.07C10 8.14 11.5 9 13.5 9S17 8.14 17 7.37V6.29zm.03 4c0-.29-.2-.41-.36-.29a6.26 6.26 0 0 1-6.31-.02c-.16-.12-.36.04-.36.29v1.07c0 .77 1.53 1.66 3.53 1.66 2 0 3.5-.87 3.5-1.64v-1.07zM16.67 14c.16-.11.36 0 .36.29v1.07c0 .77-1.5 1.64-3.5 1.64S10 16.15 10 15.38v-1.07c0-.25.2-.4.36-.29a6.1 6.1 0 0 0 6.31-.02zM8 14.29c0-.29-.2-.4-.36-.29a6.06 6.06 0 0 1-6.28.02c-.16-.11-.36.04-.36.29v1.07C1 16.15 2.5 17 4.5 17S8 16.15 8 15.36v-1.07z" fill="#FFC166"/><path d="M13.49 1.15c-2 0-3.49.98-3.49 1.85 0 .84 1.5 1.84 3.5 1.84S17 3.84 17 3c0-.87-1.51-1.85-3.51-1.85zm-9 8.01c-2 0-3.49.97-3.49 1.84 0 .87 1.47 1.87 3.47 1.87S8 11.87 8 11c0-.87-1.51-1.84-3.51-1.84z" fill="#FFA836"/></svg>