<svg aria-hidden="true" class="svg-icon iconCoins" width="18" height="18" viewBox="0 0 18 18"><path d="M17 6.29c0-.29-.2-.41-.36-.29a5.7 5.7 0 0 1-3.14.85 5.7 5.7 0 0 1-3.14-.84c-.16-.12-.36.03-.36.29v1.07C10 8.14 11.5 9 13.5 9S17 8.14 17 7.37V6.29zm.03 4c0-.29-.2-.41-.36-.29a5.7 5.7 0 0 1-3.17.82 5.7 5.7 0 0 1-3.14-.84c-.16-.12-.36.04-.36.29v1.07c0 .77 1.53 1.66 3.53 1.66 2 0 3.5-.87 3.5-1.64v-1.07zM16.67 14c.16-.11.36 0 .36.29v1.07c0 .77-1.5 1.64-3.5 1.64S10 16.15 10 15.38v-1.07c0-.25.2-.4.36-.29a5.6 5.6 0 0 0 3.14.85 5.62 5.62 0 0 0 3.17-.87zM8 14.29c0-.29-.2-.4-.36-.29-.94.6-2.03.9-3.14.87-1.1.03-2.2-.26-3.14-.85-.16-.11-.36.04-.36.29v1.07C1 16.15 2.5 17 4.5 17S8 16.15 8 15.36v-1.07z" fill="#FFC166"/><path d="M13.49 1c-2 0-3.49.98-3.49 1.85 0 .84 1.5 1.84 3.5 1.84s3.5-1 3.5-1.84C17 1.98 15.49 1 13.49 1zm-9 7.98c-2 0-3.49.97-3.49 1.84 0 .87 1.47 1.87 3.47 1.87S8 11.69 8 10.82c0-.87-1.51-1.84-3.51-1.84z" fill="#FFA836"/></svg>