<svg aria-hidden="true" class="svg-icon iconCurrency" width="18" height="18" viewBox="0 0 18 18"><path d="M13.92 3H4c.07-.6.62-1.05 1.22-1h7.48c.6-.05 1.15.4 1.22 1zm.57 1c.6-.05 1.15.4 1.22 1H2.29c.07-.6.6-1.04 1.2-1h11zM1 7h16a1.14 1.14 0 0 0-1.22-1H2.22c-.6-.05-1.15.4-1.22 1zm8 6.9a1.9 1.9 0 1 0 0-3.8 1.9 1.9 0 0 0 0 3.8z" fill="#5FBA7D"/><path d="M2.5 8C1.67 8 1 8.67 1 9.5v5c0 .83.67 1.5 1.5 1.5h13c.83 0 1.5-.67 1.5-1.5v-5c0-.83-.67-1.5-1.5-1.5h-13zM5 15a3 3 0 1 1 0-6h8a3 3 0 1 1 0 6H5z" fill="#5FBA7D"/></svg>