<svg aria-hidden="true" class="svg-icon iconCurrency" width="18" height="18" viewBox="0 0 18 18"><path d="M9 13.9a1.9 1.9 0 1 0 0-3.8 1.9 1.9 0 0 0 0 3.8z" fill="#367D4D"/><path d="M13.51 2.25c.23.19.38.46.41.75H4a1.13 1.13 0 0 1 1.22-1h7.48c.3-.03.59.07.81.25zM15.71 5a1.13 1.13 0 0 0-1.22-1h-11a1.13 1.13 0 0 0-1.2 1h13.42zm.89 1.25c.22.19.37.46.4.75H1a1.13 1.13 0 0 1 1.22-1h13.56c.3-.03.59.07.81.25zM2.22 8h13.56A1.18 1.18 0 0 1 17 9.14v5.72A1.18 1.18 0 0 1 15.78 16H2.22A1.18 1.18 0 0 1 1 14.86V9.14A1.18 1.18 0 0 1 2.22 8zm3.12 7.11h7.32a3.06 3.06 0 0 0 0-6.11H5.34a3.06 3.06 0 0 0 0 6.11z" fill="#5FBA7D"/></svg>