<svg aria-hidden="true" class="svg-icon iconDevTo" width="18" height="18" viewBox="0 0 18 18"><path d="M15 1a2 2 0 0 1 2 2v12a2 2 0 0 1-2 2H3a2 2 0 0 1-2-2V3c0-1.1.9-2 2-2h12zm-3 5.02h-1.18l1.4 5.24c.36.86 1.16 1.1 1.65.13l.06-.13 1.39-5.24h-1.18l-1.07 4.12L12 6.02zm-1.96 0H7.75a.72.72 0 0 0-.7.65l-.01.1v4.53c0 .37.29.67.65.7l.1.01h2.25v-1.07H8.1V9.26h1.18V8.19H8.1v-1.1h1.93V6.02zm-5.32 0H3v5.99h1.68c1.33 0 1.75-1.03 1.75-1.71V7.73c0-.68-.43-1.71-1.71-1.71zm.06 1.12a.7.7 0 0 1 .42.16c.14.1.21.26.21.47v2.52c0 .21-.07.37-.2.47a.7.7 0 0 1-.43.16h-.63V7.14h.63z" fill="#010101"/></svg>