<svg aria-hidden="true" class="svg-icon iconEyes" width="18" height="18" viewBox="0 0 18 18"><path opacity=".4" d="M9.5 3.44A4.5 4.5 0 0 0 1 5.5v8a4.5 4.5 0 0 0 8.5 2.06A4.5 4.5 0 0 0 18 13.5v-8a4.5 4.5 0 0 0-8.5-2.06zM9 5.5v8a3.5 3.5 0 1 1-7 0v-8a3.5 3.5 0 1 1 7 0zm1 8v-8a3.5 3.5 0 1 1 7 0v8a3.5 3.5 0 1 1-7 0z" fill="#888"/><path d="M5.5 2A3.5 3.5 0 0 1 9 5.5v8a3.5 3.5 0 1 1-7 0v-8A3.5 3.5 0 0 1 5.5 2zm8 0A3.5 3.5 0 0 1 17 5.5v8a3.5 3.5 0 1 1-7 0v-8A3.5 3.5 0 0 1 13.5 2z" opacity=".1" fill="#8E8E8E"/><path d="M5.44 10.44A1.5 1.5 0 0 1 8 11.5v2a1.5 1.5 0 0 1-3 0v-2c0-.4.16-.78.44-1.06zm8 0A1.5 1.5 0 0 1 16 11.5v2a1.5 1.5 0 1 1-3 0v-2c0-.4.16-.78.44-1.06z"/></svg>