<svg aria-hidden="true" class="svg-icon iconFaceFrown" width="18" height="18" viewBox="0 0 18 18"><path d="M9 17A8 8 0 1 1 9 1a8 8 0 0 1 0 16zm0-2A6 6 0 1 0 9 3a6 6 0 0 0 0 12z"/><path d="M11.94 11.44a3.33 3.33 0 0 0-2.93-1.4 3.33 3.33 0 0 0-2.93 1.4.74.74 0 0 0 0 .8.76.76 0 0 0 .65.37h.08a24 24 0 0 1 4.33 0 .77.77 0 0 0 .74-.34.76.76 0 0 0 .06-.83zM6.3 6a.53.53 0 0 0-.5.32.54.54 0 0 0-.05.21v.41A1.3 1.3 0 0 0 7 8.25a1.25 1.25 0 0 0 1.17-.81c.06-.16.08-.33.08-.5v-.41a.54.54 0 0 0-.34-.5.53.53 0 0 0-.2-.03H6.3zm4 0a.54.54 0 0 0-.55.53v.41A1.3 1.3 0 0 0 11 8.25a1.26 1.26 0 0 0 1.25-1.31v-.41A.54.54 0 0 0 11.7 6h-1.4z"/></svg>