<svg aria-hidden="true" class="svg-icon iconFaceSad" width="18" height="18" viewBox="0 0 18 18"><circle opacity=".4" cx="9" cy="9" r="8" fill="#FFAA3B"/><path opacity=".3" d="M8.41 17a10 10 0 0 1 .38-15.75c.1-.08.2-.16.28-.25a8 8 0 0 0-.66 16z" fill="#FF9700"/><path d="M6.5 8a1.5 1.5 0 1 0 0-3 1.5 1.5 0 0 0 0 3zm6.05 3.05a6.56 6.56 0 0 0-7.1 0c-.35.24-.52.73-.42 1.16.15.6.82.99 1.38.63a4.78 4.78 0 0 1 5.12 0 .93.93 0 0 0 1.32-.34c.27-.47.15-1.14-.3-1.45zM13 6.5a1.5 1.5 0 1 1-3 0 1.5 1.5 0 0 1 3 0z" fill="#1A1104"/></svg>