<svg aria-hidden="true" class="svg-icon iconFaceFrown" width="18" height="18" viewBox="0 0 18 18"><circle opacity=".4" cx="9" cy="9" r="8" fill="#FFAA3B"/><path opacity=".3" d="M8.41 17a10 10 0 0 1 .38-15.75c.1-.08.2-.16.28-.25a8 8 0 0 0-.66 16z" fill="#FF9700"/><path d="M11.94 11.44a3.33 3.33 0 0 0-2.93-1.4 3.33 3.33 0 0 0-2.93 1.4.74.74 0 0 0-.12.4c0 .14.04.7.12.82a.76.76 0 0 0 .65.36h.08c1.44-.13 2.89-.13 4.33 0a.77.77 0 0 0 .74-.34c.09-.12.14-.67.15-.82a.76.76 0 0 0-.09-.42zM6.3 7a.53.53 0 0 0-.5.32.54.54 0 0 0-.05.21v.41A1.3 1.3 0 0 0 7 9.25a1.25 1.25 0 0 0 1.17-.81c.06-.16.08-.33.08-.5v-.41a.54.54 0 0 0-.34-.5.53.53 0 0 0-.2-.03H6.3zm4 0a.54.54 0 0 0-.55.53v.41A1.3 1.3 0 0 0 11 9.25a1.26 1.26 0 0 0 1.25-1.31v-.41A.54.54 0 0 0 11.7 7h-1.4z" fill="#735424"/></svg>