<svg aria-hidden="true" class="svg-icon iconFaceMindBlown" width="18" height="18" viewBox="0 0 18 18"><path opacity=".4" d="M1.06 8a8 8 0 1 0 15.88 0H16l-1 .5-1-.5h-1.5l-1.5.5L9 8l-.5.5-1-.5H6l-1 .5-.5-.5h-1l-.5.5L2 8h-.94z" fill="#FFAA3B"/><path opacity=".3" d="M3.5 8h.41a11.5 11.5 0 0 0 10.38 7A8 8 0 0 1 1.06 8H2l1 .5.5-.5z" fill="#FF9700"/><path d="M6.07 14.68a.7.7 0 0 0 .67.28c1.5-.16 3.01-.16 4.51 0a.71.71 0 0 0 .67-.28.7.7 0 0 0 .06-.72A3.23 3.23 0 0 0 9 12.36a3.3 3.3 0 0 0-3 1.6.7.7 0 0 0 .07.72z" fill="#1A1104"/><path d="M7.36 4.37c.18.23.4.42.68.55a2.19 2.19 0 0 0 1.95 0c.26-.13.48-.31.65-.53.15.93.36 2.29.36 2.61 0 .5-4 .5-4 0 0-.32.21-1.7.36-2.63z" fill="#F75D37"/><path opacity=".67" d="M15.33 2.43a2.8 2.8 0 0 0-1.73-.53c-.06-.4-.28-.76-.64-1.05-.35-.26-.8-.44-1.27-.5-.49-.06-.98 0-1.42.16A2.9 2.9 0 0 0 8.4.08c-.39.05-.75.17-1.06.36A3.04 3.04 0 0 0 6.02.37c-.8.13-1.48.6-1.72 1.2-.11.27-.13.55-.07.83-.77.07-1.47.45-1.8.99-.6.98.26 2.4 1.6 2.6.97.14 2.13-.15 2.63-.79.22-.27.33-.58.34-.9.21.26.5.47.86.62a2.92 2.92 0 0 0 2.28 0c.35-.15.64-.37.85-.63.04.43.27.83.65 1.14a2.93 2.93 0 0 0 3.03.25c.81-.42 1.42-1.42 1.32-2.16-.05-.41-.28-.8-.66-1.09z" fill="#FFC166"/><path opacity=".78" d="M7.4 2c1.19 0 2.3-.2 3.26-.55.9 1.2 2.88 2.13 5.32 2.44A2.61 2.61 0 0 1 13.1 6a2.68 2.68 0 0 1-1.45-.56A1.65 1.65 0 0 1 11 4.3c-.2.26-.5.48-.85.63a2.92 2.92 0 0 1-2.28 0A2.21 2.21 0 0 1 7 4.3c0 .32-.12.63-.34.9-.5.64-1.66.93-2.62.78-1.35-.2-2.22-1.6-1.6-2.6a2.36 2.36 0 0 1 1.79-.98 1.4 1.4 0 0 1 .1-.88c.9.3 1.95.48 3.07.48z" fill="#FFC166"/><path opacity=".52" d="M11.09 3.47a7.43 7.43 0 0 1-5.43.05c-1 .27-2.17.44-3.42.47-.06.88.71 1.83 1.8 2 .96.14 2.12-.15 2.62-.79.22-.27.33-.58.34-.9.21.26.5.47.86.62a2.92 2.92 0 0 0 2.28 0c.35-.15.64-.37.85-.63.04.43.27.83.65 1.14a2.93 2.93 0 0 0 3.03.25c.35-.18.66-.47.9-.8a11.57 11.57 0 0 1-4.48-1.4z" fill="#F75D37"/><circle cx="11" cy="10.5" r="1.35" fill="#1A1104"/><circle cx="7" cy="10.5" r="1.35" fill="#1A1104"/><circle opacity=".6" cx="3.5" cy="6.5" r=".5"/><circle opacity=".6" cx="14.5" cy=".5" r=".5"/><circle opacity=".6" cx="14.5" cy="6.5" r=".5"/><circle opacity=".6" cx="16.5" cy="4.5" r=".5"/><circle opacity=".6" cx="3.5" cy=".5" r=".5"/><circle opacity=".6" cx="1.5" cy="3.5" r=".5"/></svg>