<svg aria-hidden="true" class="svg-icon iconFaceNeutral" width="18" height="18" viewBox="0 0 18 18"><circle opacity=".4" cx="9" cy="9" r="8" fill="#FFAA3B"/><path opacity=".3" d="M8.41 17a10 10 0 0 1 .38-15.75c.1-.08.2-.16.28-.25a8 8 0 0 0-.66 16z" fill="#FF9700"/><path d="M11.25 12h-4.5a.83.83 0 0 1-.62-.3 1.07 1.07 0 0 1-.26-.7c0-.27.1-.52.26-.7.16-.2.39-.3.62-.3h4.5c.23 0 .46.1.62.3.17.18.26.43.26.7 0 .27-.1.52-.26.7a.83.83 0 0 1-.62.3zM7 8.25a1.25 1.25 0 1 0 0-2.5 1.25 1.25 0 0 0 0 2.5zm4 0a1.25 1.25 0 1 0 0-2.5 1.25 1.25 0 0 0 0 2.5z" fill="#735424"/></svg>