<svg aria-hidden="true" class="svg-icon iconFaceSad" width="18" height="18" viewBox="0 0 18 18"><circle opacity=".4" cx="9" cy="9" r="8" fill="#FFAA3B"/><path opacity=".3" d="M8.41 17a10 10 0 0 1 .38-15.75c.1-.08.2-.16.28-.25a8 8 0 0 0-.66 16z" fill="#FF9700"/><path d="M12.31 10.9a6.52 6.52 0 0 0-6.57 0 .88.88 0 0 0 .44 1.62c.16 0 .31-.04.44-.12a4.75 4.75 0 0 1 4.75 0 .9.9 0 0 0 .94-1.5zM7 8.25a1.25 1.25 0 1 0 0-2.5 1.25 1.25 0 0 0 0 2.5zm4 0a1.25 1.25 0 1 0 0-2.5 1.25 1.25 0 0 0 0 2.5z" fill="#735424"/></svg>