<svg aria-hidden="true" class="svg-icon iconFaceJoy" width="18" height="18" viewBox="0 0 18 18"><circle opacity=".4" cx="9" cy="9" r="8" fill="#FFAA3B"/><path opacity=".3" d="M8.41 17a10 10 0 0 1 .38-15.75c.1-.08.2-.16.28-.25a8 8 0 0 0-.66 16z" fill="#FF9700"/><path d="M7.35 8A.71.71 0 0 0 8 7.28v-.9C8 5.5 7.35 4.6 6.48 4.6 5.56 4.6 5 5.5 5 6.39v.89c-.02.36.29.7.65.72h1.7zm5.07 2c-2.27.26-4.55.26-6.82 0-.83-.1-1.45.8-1.09 1.55A5.06 5.06 0 0 0 9 14c1.92 0 3.6-.87 4.52-2.46a1.1 1.1 0 0 0-1.1-1.54zm-.07-2h-1.7a.71.71 0 0 1-.65-.72v-.89c0-.89.58-1.79 1.48-1.79.87 0 1.52.9 1.52 1.78v.9c.02.36-.29.7-.65.72z" fill="#1A1104"/></svg>
