<svg aria-hidden="true" class="svg-icon iconFaceSmile" width="18" height="18" viewBox="0 0 18 18"><circle opacity=".4" cx="9" cy="9" r="8" fill="#FFAA3B"/><path opacity=".3" d="M8.41 17a10 10 0 0 1 .38-15.75c.1-.08.2-.16.28-.25a8 8 0 0 0-.66 16z" fill="#FF9700"/><path d="M6.5 8a1.5 1.5 0 1 0 0-3 1.5 1.5 0 0 0 0 3zm2.6 6a7.37 7.37 0 0 1-4.79-2.06 1.1 1.1 0 0 1 0-1.54c.42-.51 1.15-.51 1.67-.1.31.3 3.23 2.88 6.14 0a1.06 1.06 0 0 1 1.57.1 1.1 1.1 0 0 1 0 1.54C12.13 13.38 10.56 14 9.1 14zM13 6.5a1.5 1.5 0 1 1-3 0 1.5 1.5 0 0 1 3 0z" fill="#1A1104"/></svg>