<svg aria-hidden="true" class="svg-icon iconFaceShocked" width="18" height="18" viewBox="0 0 18 18"><circle opacity=".4" cx="9" cy="9" r="8" fill="#FFAA3B"/><path opacity=".3" d="M8.41 17a10 10 0 0 1 .38-15.75c.1-.08.2-.16.28-.25a8 8 0 0 0-.66 16z" fill="#FF9700"/><path d="M9 14.62A2.56 2.56 0 1 0 9 9.5a2.56 2.56 0 0 0 0 5.12zM6.5 7.55c.86 0 1.56-.7 1.56-1.55a1.56 1.56 0 1 0-3.12 0c0 .86.7 1.55 1.56 1.55zm5 0c.86 0 1.56-.7 1.56-1.55a1.56 1.56 0 1 0-3.12 0c0 .86.7 1.55 1.56 1.55z" fill="#735424"/></svg>