<svg aria-hidden="true" class="svg-icon iconFaceJoy" width="18" height="18" viewBox="0 0 18 18"><circle opacity=".4" cx="9" cy="9" r="8" fill="#FFAA3B"/><path opacity=".3" d="M8.41 17a10 10 0 0 1 .38-15.75c.1-.08.2-.16.28-.25a8 8 0 0 0-.66 16z" fill="#FF9700"/><path d="M13.42 10.44a1.07 1.07 0 0 0-1-.44c-2.27.26-4.55.26-6.82 0a1.07 1.07 0 0 0-1.2.99c-.01.2.03.39.11.56A4.92 4.92 0 0 0 9 14a4.92 4.92 0 0 0 4.52-2.46 1.08 1.08 0 0 0-.1-1.1zM7.35 8A.69.69 0 0 0 8 7.28v-.9A1.68 1.68 0 0 0 6.48 4.6 1.66 1.66 0 0 0 5 6.39v.89a.69.69 0 0 0 .65.72h1.7zm5 0a.69.69 0 0 0 .65-.72v-.9a1.68 1.68 0 0 0-1.52-1.78A1.66 1.66 0 0 0 10 6.39v.89a.69.69 0 0 0 .65.72h1.7z" fill="#735424"/></svg>