<svg aria-hidden="true" class="svg-icon iconFaceSmile" width="18" height="18" viewBox="0 0 18 18"><circle opacity=".4" cx="9" cy="9" r="8" fill="#FFAA3B"/><path opacity=".3" d="M8.41 17a10 10 0 0 1 .38-15.75c.1-.08.2-.16.28-.25a8 8 0 0 0-.66 16z" fill="#FF9700"/><path d="M9.1 13.22a5.51 5.51 0 0 1-3.72-1.6.88.88 0 0 1 1.24-1.24 3.24 3.24 0 0 0 4.76 0 .88.88 0 0 1 1.24 1.24 4.9 4.9 0 0 1-3.52 1.6zM7 8.25a1.25 1.25 0 1 0 0-2.5 1.25 1.25 0 0 0 0 2.5zm4 0a1.25 1.25 0 1 0 0-2.5 1.25 1.25 0 0 0 0 2.5z" fill="#735424"/></svg>