<svg aria-hidden="true" class="svg-icon iconFaceJoy" width="18" height="18" viewBox="0 0 18 18"><path d="M12.58 10.49a.86.86 0 0 0-.82-.36c-1.84.21-3.7.21-5.53 0a.87.87 0 0 0-.89 1.25 4 4 0 0 0 3.66 2 4 4 0 0 0 3.66-2 .87.87 0 0 0-.08-.89z"/><path d="M9 17A8 8 0 1 1 9 1a8 8 0 0 1 0 16zm0-2A6 6 0 1 0 9 3a6 6 0 0 0 0 12z"/><path d="M7.57 8a.4.4 0 0 0 .17-.06.4.4 0 0 0 .14-.12.6.6 0 0 0 .12-.38v-.67c.01-.33-.08-.65-.27-.9A1.02 1.02 0 0 0 7 5.43a.95.95 0 0 0-.4.13 1.1 1.1 0 0 0-.34.3 1.45 1.45 0 0 0-.26.91v.67a.6.6 0 0 0 .12.38c.04.05.09.1.14.12a.4.4 0 0 0 .17.05h1.14zm4 0a.4.4 0 0 0 .17-.06.4.4 0 0 0 .14-.12.54.54 0 0 0 .1-.17.6.6 0 0 0 .02-.2v-.68c.01-.33-.08-.65-.27-.9a1.02 1.02 0 0 0-.73-.44.95.95 0 0 0-.4.13 1.1 1.1 0 0 0-.34.3 1.45 1.45 0 0 0-.26.91v.67c0 .07 0 .14.03.2a.5.5 0 0 0 .09.18c.04.05.09.1.14.12a.4.4 0 0 0 .17.05h1.14z"/></svg>