<svg aria-hidden="true" class="svg-icon iconFire" width="18" height="18" viewBox="0 0 18 18"><path opacity=".6" d="M13.28 9c-.85.15-1.6.63-2.11 1.33-.6 1.1-1 2.31-1.17 3.56a10 10 0 0 0 1.32-.8 2.53 2.53 0 0 1-.63 2.91h.78a3 3 0 0 0 2.76-1.84c.4-.96.63-1.97.71-3 .05-1.24-.1-2.49-.46-3.68A2 2 0 0 1 13.28 9z" fill="#FF6700"/><path d="M10.4 12.1c.15-.63.41-1.23.77-1.77.32-.5.8-.87 1.36-1.06 0 0-.75-5.08-2.18-6.37a5.52 5.52 0 0 0-4.3-1.51s3.73 2.42.72 5.15c-2.24 2-3.47 4.23-2.34 7.52A3.49 3.49 0 0 0 7.23 16a4.05 4.05 0 0 1 1.08-3.89C9.42 10.92 8 9.79 8 9.79c.67.02 1.3.28 1.81.72a2 2 0 0 1 .59 1.59z" fill="#EF2E2E"/></svg>