<svg aria-hidden="true" class="svg-icon iconFloat" width="18" height="18" viewBox="0 0 18 18"><path d="M11 6V1.08C10.34 1 9.68 1 9 1c-.68 0-1.34 0-2 .08V6a14.1 14.1 0 0 1 4 0zM1.08 7H6a14.11 14.11 0 0 0 0 4H1.08C1 10.34 1 9.68 1 9c0-.68 0-1.34.08-2zm15.84 0H12a14.1 14.1 0 0 1 0 4h4.92c.08-.66.08-1.32.08-2 0-.34-.02-.68-.04-1.01-.02-.33-.04-.66-.04-.99zM7 16.92V12c1.33.19 2.67.19 4 0v4.92c-.66.08-1.32.08-2 .08-.34 0-.68-.02-1.01-.04-.33-.02-.66-.04-.99-.04z" opacity=".4" fill="#AFAFAF"/><path d="M7 5.51c-.3.18-.6.4-.85.64a4.4 4.4 0 0 0-.64.85H1.26A7.93 7.93 0 0 1 7 1.26v4.25zM12.45 7c-.17-.3-.38-.58-.62-.83a4.08 4.08 0 0 0-.83-.62V1.26A7.93 7.93 0 0 1 16.74 7h-4.29zm0 4c-.17.3-.38.58-.62.83-.25.24-.53.45-.83.62v4.29A7.93 7.93 0 0 0 16.74 11h-4.29zm-6.9 0c.17.3.38.58.62.83.25.24.53.45.83.62v4.29A7.93 7.93 0 0 1 1.26 11h4.29z" fill="#F75D37"/></svg>