<svg aria-hidden="true" class="svg-icon iconFloat" width="18" height="18" viewBox="0 0 18 18"><path d="M11 6V1.08c-1.3-.16-2.7-.16-4 0V6a14.1 14.1 0 0 1 4 0zM1.08 7H6a14.11 14.11 0 0 0 0 4H1.08c-.16-1.3-.16-2.7 0-4zm15.84 0H12a14.1 14.1 0 0 1 0 4h4.92c.16-1.34.16-2.67 0-4zM7 16.92V12c1.33.19 2.67.19 4 0v4.92c-1.34.16-2.7.16-4 0z" opacity=".4" fill="#AFAFAF"/><path d="M7 5.51c-.3.18-.6.4-.85.64a4.4 4.4 0 0 0-.64.85H1.26A8 8 0 0 1 7 1.26v4.25zM12.45 7c-.34-.6-.85-1.1-1.45-1.45V1.26A8 8 0 0 1 16.74 7h-4.29zm0 4c-.34.6-.85 1.1-1.45 1.45v4.29A8 8 0 0 0 16.74 11h-4.29zm-6.9 0c.34.6.85 1.1 1.45 1.45v4.29A8 8 0 0 1 1.26 11h4.29z" fill="#F75D37"/></svg>