<svg aria-hidden="true" class="svg-icon iconHandRock" width="18" height="18" viewBox="0 0 18 18"><path d="M14.14 7.86c-.5.3-.97.66-1.38 1.1-.27.25-.35.7-.67.48-.26-.19-.35-1.21-.28-1.85.06-.64.2-2.45.22-3.07.02-.61.38-2.11-.71-2.26-1.09-.15-1.24 1.64-1.37 2.5-.13.87-.49 2.54-.49 2.54a.79.79 0 0 0-.8-.44C8.08 6.94 8 7.44 8 7.9a.74.74 0 0 0-.74-.66.78.78 0 0 0-.77.66l-1.4-3.14c-.38-1.15-2.08-.24-1.57.89.49 1.18.89 2.4 1.2 3.63.18.92.22 1.54.37 2.45.23.72.41 1.71.91 2.27h5c.76-.66 1.41-1.42 1.95-2.27.6-.9 1.32-1.76 1.88-2.66.45-.74.31-1.68-.69-1.21z" fill="#FFC166"/><path opacity=".7" d="M6 15.77V15h5v.77c0 .67-.55 1.23-1.21 1.23H7.2c-.65 0-1.2-.56-1.2-1.23z" fill="#07C"/><path d="M7.5 0c.28 0 .5.22.5.5v1a.5.5 0 0 1-1 0v-1c0-.28.22-.5.5-.5zM0 8.5c0-.28.22-.5.5-.5h1a.5.5 0 0 1 0 1h-1a.5.5 0 0 1-.5-.5zM16.5 8a.5.5 0 0 0 0 1h1a.5.5 0 0 0 0-1h-1zM1.15 2.15c.2-.2.5-.2.7 0l1 1a.5.5 0 1 1-.7.7l-1-1a.5.5 0 0 1 0-.7zm13.7.7a.5.5 0 0 0-.7-.7l-1 1a.5.5 0 0 0 .7.7l1-1z" opacity=".4"/></svg>