<svg aria-hidden="true" class="svg-icon iconHandsTogether" width="18" height="18" viewBox="0 0 18 18"><path d="M4 17H2.46A1.46 1.46 0 0 1 1 15.54v-3.08A1.46 1.46 0 0 1 2.46 11H4v6zm12.54 0H15v-6h1.54A1.46 1.46 0 0 1 18 12.46v3.08A1.46 1.46 0 0 1 16.54 17z" opacity=".7" fill="#07C"/><path d="M5.3 4c.1.08.22.12.35.12A.48.48 0 0 0 6 4a.49.49 0 0 0 0-.74l-2.2-2.1a.5.5 0 0 0-.69.72L5.3 4zM3.5 7h2a.5.5 0 1 0 0-1h-2a.5.5 0 1 0 0 1zm12 0h-2a.5.5 0 0 1 0-1h2a.5.5 0 0 1 0 1zm-2.3-2.9c.06.03.14.03.21.02.12 0 .25-.04.34-.12l2.15-2.1a.49.49 0 0 0 0-.7.5.5 0 0 0-.71 0L13 3.3a.49.49 0 0 0 0 .7c.05.05.12.09.2.1z" opacity=".4"/><path d="M8.21 16.49c-.44.37-1.02.55-1.6.51H5v-6h2.05L8 3.37c0-.2.23-.37.5-.37s.5.17.5.37V15a2.23 2.23 0 0 1-.79 1.49zm2.58 0c.44.37 1.02.55 1.6.51H14v-6h-2l-1-7.63c0-.2-.23-.37-.5-.37s-.5.17-.5.37V15c.06.58.34 1.11.79 1.49z" fill="#FFC166"/></svg>