<svg aria-hidden="true" class="svg-icon iconHandPointRight" width="18" height="18" viewBox="0 0 18 18"><path opacity=".7" d="M3.46 14H5V7H3.46A1.45 1.45 0 0 0 2 8.45v4.09A1.46 1.46 0 0 0 3.46 14z" fill="#07C"/><path d="M6 7.41l1.78-1a9.73 9.73 0 0 1 4.91-1.38h2.81a1.5 1.5 0 0 1 1.5 1.5 1.5 1.5 0 0 1-1.5 1.5h-3.28a5.17 5.17 0 0 1-.39 5.58c-.89 1.1-3 1.31-4.36 1.06L6 14.41v-7z" fill="#FFC166"/><path d="M15.17 2.05l.74.77a.58.58 0 0 0 .82 0 .62.62 0 0 0 0-.85L16 1.2a.57.57 0 0 0-.82 0 .6.6 0 0 0 0 .84zm1.57 9l-.74.77a.58.58 0 0 1-.83 0 .62.62 0 0 1 0-.85l.75-.76a.57.57 0 0 1 .82 0 .6.6 0 0 1 0 .84z" opacity=".4"/></svg>