<svg aria-hidden="true" class="svg-icon iconHandsTogether" width="18" height="18" viewBox="0 0 18 18"><path d="M3.85 1.15a.5.5 0 1 0-.7.7l2 2a.5.5 0 1 0 .7-.7l-2-2zM5.5 6h-2a.5.5 0 0 0 0 1h2a.5.5 0 0 0 0-1zm10 1h-2a.5.5 0 0 1 0-1h2a.5.5 0 0 1 0 1zm.35-5.15a.5.5 0 0 0-.7-.7l-2 2a.5.5 0 0 0 .7.7l2-2z" opacity=".4"/><path d="M8.21 16.49c-.44.37-1.02.55-1.6.51H5v-6h2l1-7.63c0-.2.23-.37.5-.37s.5.17.5.37V15a2.23 2.23 0 0 1-.79 1.49zm2.58 0c.44.37 1.02.55 1.6.51H14v-6h-2l-1-7.63c0-.2-.23-.37-.5-.37s-.5.17-.5.37V15c.06.58.34 1.11.79 1.49z" fill="#FFC166"/><path d="M2.5 11c-.83 0-1.5.67-1.5 1.5v3c0 .83.67 1.5 1.5 1.5H4v-6H2.5zm14 0H15v6h1.5c.83 0 1.5-.67 1.5-1.5v-3c0-.83-.67-1.5-1.5-1.5z" opacity=".7" fill="#07C"/></svg>