<svg aria-hidden="true" class="svg-icon iconHelpSm" width="14" height="14" viewBox="0 0 14 14"><path d="M7 1a6 6 0 1 0 0 12A6 6 0 0 0 7 1zm1.06 9.06c-.02.63-.48 1.02-1.1 1-.57-.02-1.03-.43-1.01-1.06.02-.63.5-1.04 1.08-1.02.6.02 1.05.45 1.03 1.08zm.73-3.07l-.47.3a1.2 1.2 0 0 0-.44.6 3.6 3.6 0 0 0-.08.65c0 .04-.03.14-.16.14h-1.4c-.14 0-.16-.09-.16-.13a2.7 2.7 0 0 1 .36-1.42A4.67 4.67 0 0 1 7.7 6.07c.15-.1.21-.21.3-.33a1.14 1.14 0 0 0 .02-1.48c-.22-.26-.46-.4-.92-.4-.45 0-.83.23-1.02.52-.19.3-.16.63-.16.94H4.2c0-1.17.31-1.92.98-2.36a3.5 3.5 0 0 1 1.83-.44c.88 0 1.58.16 2.2.62.58.42.88 1.02.88 1.82 0 .5-.17.9-.43 1.24-.15.2-.44.47-.86.79z"/></svg>