<svg aria-hidden="true" class="svg-icon iconHundred" width="18" height="18" viewBox="0 0 18 18"><path d="M14 8a3 3 0 1 1 3-2.36A3 3 0 0 1 14.53 8H14zm0-5a2 2 0 0 0-1.92 1.55 1.9 1.9 0 0 0-.01.76 2 2 0 0 0 3.54.78 1.9 1.9 0 0 0 .32-1.46A2 2 0 0 0 14 3zM3.5 14.08a.5.5 0 0 1-.5-.5V9.24l-.77.76a.5.5 0 0 1-.85-.36.5.5 0 0 1 .15-.35l1.62-1.61a.51.51 0 0 1 .54-.11A.5.5 0 0 1 4 8v5.54a.5.5 0 0 1-.5.54zM6.4 10.5A3 3 0 0 0 8 11h.53A3 3 0 0 0 11 7.44a3 3 0 1 0-4.6 3.07zm.7-4.27A2 2 0 0 1 8 6a2 2 0 0 1 1.92 2.4 1.9 1.9 0 0 1-.31.69 2 2 0 0 1-3.54-.78 1.9 1.9 0 0 1 .32-1.46 2 2 0 0 1 .7-.62zM6.81 15a.51.51 0 0 1-.44-.26.5.5 0 0 1 .21-.68l9.14-4.87a.51.51 0 0 1 .74.4.5.5 0 0 1-.27.49L7.05 15a.53.53 0 0 1-.24 0zm3.44.75c.1.06.2.1.32.09a.5.5 0 0 0 .24-.06l4.81-2.64a.5.5 0 0 0 .07-.83.5.5 0 0 0-.56-.05l-4.8 2.65a.49.49 0 0 0-.08.84z" fill="#F75D37"/></svg>