<svg aria-hidden="true" class="svg-icon iconLightbulb" width="18" height="18" viewBox="0 0 18 18"><path d="M9.5.5a.5.5 0 0 0-1 0v.25a.5.5 0 0 0 1 0V.5zm5.6 2.1a.5.5 0 0 0-.7-.7l-.25.25a.5.5 0 0 0 .7.7l.25-.25zM1 7.5c0-.28.22-.5.5-.5H2a.5.5 0 0 1 0 1h-.5a.5.5 0 0 1-.5-.5zm14.5 0c0-.28.22-.5.5-.5h.5a.5.5 0 0 1 0 1H16a.5.5 0 0 1-.5-.5zM2.9 1.9c.2-.2.5-.2.7 0l.25.25a.5.5 0 1 1-.7.7L2.9 2.6a.5.5 0 0 1 0-.7z" fill-opacity=".4"/><path opacity=".4" d="M7 16h4v1a1 1 0 0 1-1 1H8a1 1 0 0 1-1-1v-1z" fill="#3F3F3F"/><path d="M11.5 13.46a6 6 0 1 0-5 0V14a1 1 0 0 0 1 1h3a1 1 0 0 0 1-1v-.54zm.66-6.27a.5.5 0 0 1-.68 0l-1.7-1.65a.48.48 0 1 1 .68-.68l1.69 1.69a.48.48 0 0 1 0 .68l.01-.04z" fill="#FFC166"/></svg>