<svg aria-hidden="true" class="svg-icon iconLogoEnterpriseWordmarkSm" width="85" height="8" viewBox="0 0 85 8"><path d="M.08 7.86V0h5v1.6H2.03v1.58h2.52v1.58H2.04v3.1H.08zm5.83-2.98V3.11c0-1.2.17-1.82.65-2.33C7.1.23 7.76 0 8.91 0c1.23 0 1.95.27 2.47.92.38.48.53 1.08.53 2.19v1.77c0 1.2-.17 1.82-.65 2.33-.53.55-1.2.78-2.35.78-1.22 0-1.95-.27-2.47-.92-.38-.48-.53-1.08-.53-2.19zm4.07-.15V3.26c0-1.34-.22-1.71-1.07-1.71-.84 0-1.07.37-1.07 1.7v1.48c0 1.34.23 1.71 1.07 1.71.85 0 1.07-.37 1.07-1.7zm5 .1v3.03h-1.95V0h3.08c1.1 0 1.67.16 2.09.57.4.41.57.94.57 1.8 0 1.36-.38 2-1.35 2.3l1.69 3.18h-2.17l-1.43-3.04h-.53zm-.03-1.49h.96c.7 0 .92-.22.92-.89s-.23-.89-.92-.89h-.96v1.78zm8.03 4.52V0h5.09v1.6h-3.15v1.52h2.65V4.7h-2.65v1.58h3.21v1.59h-5.15zm6.05 0V0h1.9l2.41 4.58V.01h1.9v7.85h-1.9l-2.42-4.58v4.58h-1.89zm9.11 0V1.59h-2.02V.01h6V1.6H40.1v6.27h-1.96zm4.84 0V0h5.08v1.6h-3.14v1.52h2.65V4.7h-2.65v1.58h3.2v1.59h-5.14zm8-3.04v3.04h-1.95V0h3.08c1.1 0 1.67.16 2.09.57.4.41.57.94.57 1.8 0 1.36-.38 2-1.35 2.3l1.69 3.18h-2.17l-1.43-3.04h-.53zm-.03-1.48h.96c.7 0 .92-.22.92-.89s-.23-.89-.92-.89h-.96v1.78zm6.99 1.9v2.62h-1.96V0h2.74c1.2 0 1.82.18 2.27.64.44.45.6 1 .6 2 0 .99-.22 1.61-.71 2.04-.45.4-1.05.54-2.16.54h-.78zm-.03-1.57h.82c.7 0 .93-.26.93-1.05 0-.8-.24-1.06-.93-1.06h-.82v2.11zM64 4.82v3.04h-1.95V0h3.08c1.1 0 1.67.16 2.09.57.4.41.57.94.57 1.8 0 1.36-.38 2-1.36 2.3l1.7 3.18h-2.17l-1.43-3.04H64zm-.03-1.48h.96c.7 0 .92-.22.92-.89s-.23-.89-.92-.89h-.96v1.78zm5.1 4.52V0h1.96v7.85h-1.96zm2.74-1.3l1.47-.93c.34.6.8.82 1.62.82.69 0 1.01-.25 1.01-.77 0-.4-.22-.62-.78-.77-1.35-.33-1.64-.43-2.05-.69-.62-.4-.9-.97-.9-1.85C72.2.82 73.13 0 74.9 0c1.33 0 2.18.43 2.71 1.36l-1.42.9c-.38-.53-.74-.72-1.32-.72-.54 0-.84.25-.84.7 0 .52.3.74 1.34 1a4.6 4.6 0 0 1 1.61.58c.53.35.78.91.78 1.78 0 .84-.2 1.4-.65 1.77-.49.41-1.25.63-2.22.63-.89 0-1.71-.2-2.25-.55a2.17 2.17 0 0 1-.82-.89zm7.2 1.3V0h5.08v1.6h-3.15v1.52h2.65V4.7h-2.65v1.58h3.21v1.59h-5.14z" fill="#F48024"/></svg>