<svg aria-hidden="true" class="svg-icon iconLogoWordmarkMd" width="154" height="20" viewBox="0 0 154 20"><path d="M7 12l-2.2-.2c-1.7-.1-2.3-.8-2.3-2 0-1.4 1-2.2 3-2.2 1.3-.1 2.6.3 3.6 1.1l1.3-1.3C9 6.4 7.3 5.9 5.6 6 2.7 6 .7 7.5.7 9.9c0 2.2 1.4 3.4 4 3.6l2.2.2c1.6.1 2.2.8 2.2 2 0 1.6-1.4 2.4-3.6 2.4-1.6.1-3.1-.5-4.2-1.6L0 17.8c1.5 1.4 3.5 2 5.5 1.9 3.2 0 5.5-1.5 5.5-4.1 0-2.6-1.6-3.4-4-3.6zm16.8-6.1c-2.2 0-3.5.4-4.7 1.9l1.3 1.3c.8-1.1 2.1-1.7 3.4-1.5 2.5 0 3.4 1 3.4 2.9v1.3h-4c-3 0-4.6 1.5-4.6 3.9 0 1 .3 2 1 2.7.8.9 1.9 1.2 3.8 1.2 1.4.1 2.9-.4 3.9-1.4v1.3h2v-9.1c-.1-2.9-1.9-4.5-5.5-4.5zm3.4 8.9c.1.8-.1 1.7-.7 2.3a4 4 0 0 1-3 .9c-2.1 0-3.1-.7-3.1-2.3 0-1.6 1-2.4 3-2.4h3.8v1.5zm9.7-7.1c1.2 0 2.4.5 3.1 1.5l1.3-1.3a5.4 5.4 0 0 0-4.4-2c-3.4 0-5.9 2.3-5.9 6.9 0 4.6 2.6 6.9 5.9 6.9 1.7.1 3.3-.7 4.4-2L40 16.4c-.7 1-1.9 1.5-3.1 1.5-1.2.1-2.4-.5-3.1-1.5-.7-1.1-1-2.3-.9-3.6-.1-1.3.2-2.5.9-3.6.7-1 1.9-1.6 3.1-1.5zm16.8-1.6h-2.4L45.2 12V.1h-2v19.4h2v-4.9l2.4-2.4 4.5 7.3h2.4l-5.6-8.6 4.8-4.8zm9.2-.53c-1.6-.1-3.2.5-4.3 1.7-1.3 1.3-1.6 2.9-1.6 5.4 0 2.5.3 4.1 1.6 5.4 1.1 1.1 2.7 1.7 4.3 1.7 1.6.1 3.2-.5 4.3-1.7 1.3-1.3 1.6-2.9 1.6-5.4 0-2.5-.3-4.1-1.6-5.4a5.38 5.38 0 0 0-4.3-1.7zm1.7 10.5c-.9.8-2.3.8-3.2 0-.7-.7-.8-2-.8-3.4s.1-2.7.8-3.4c.9-.8 2.3-.8 3.2 0 .7.7.8 1.9.8 3.4s-.1 2.7-.8 3.4zm13.6-10.4l-2.8 8.6-2.8-8.6h-3.7l5.2 14h2.7l5.1-14h-3.7zm3.5 7c0 5.7 3.2 7.2 6.5 7.2 2 .1 4-.7 5.3-2.2l-2.1-2.1c-.8.9-2 1.4-3.2 1.3-1.6.1-3-1.1-3.1-2.7v-.4h8.7v-1.6c.1-3.8-2.1-6.6-6-6.6-3.6 0-6.1 2.6-6.1 7.1zm3.7-2.8c.4-.9 1.3-1.4 2.3-1.4 1-.1 1.9.5 2.3 1.4.2.5.3 1 .3 1.5h-5.2c0-.5.1-1 .3-1.5zM99 5.77h-3.4v14h3.5v-8.4c-.1-1.3.8-2.4 2.1-2.6h.2c.7 0 1.4.3 1.8.8l2.6-2.6a4.1 4.1 0 0 0-3.3-1.3c-1.3-.1-2.6.4-3.5 1.4v-1.3zm7.9 13.9h3.5v-11h2.6v-2.7h-2.6v-1.5c-.1-.6.3-1.2.9-1.3h1.6v-3h-2a3.9 3.9 0 0 0-4 3.8v15.7zM123 7.27c-1.3 1.3-1.6 2.9-1.6 5.4 0 2.5.3 4.1 1.6 5.4 1.1 1.1 2.7 1.7 4.3 1.7 1.6.1 3.2-.5 4.3-1.7 1.3-1.3 1.6-2.9 1.6-5.4 0-2.5-.3-4.1-1.6-5.4a5.38 5.38 0 0 0-4.3-1.7c-1.6-.1-3.2.5-4.3 1.7zm6 8.8c-.9.8-2.3.8-3.2 0-.7-.7-.8-2-.8-3.4s.1-2.7.8-3.4c.9-.8 2.3-.8 3.2 0 .7.7.8 1.9.8 3.4s-.1 2.7-.8 3.4zm18.4-1.8l-2.9-8.6H142l-2.8 8.7-2.3-8.6h-3.7l4.3 14h2.9l2.9-8.8 2.9 8.8h3l4.3-14-3.8-.1-2.3 8.6zm-29.3-14h-3.5v15.4a3.8 3.8 0 0 0 3.6 4h2.5v-3h-1.3c-.6.1-1.1-.2-1.3-.8V.27zM18.2 6.4h-3.7V2h-2v13.9c0 2 1.1 3.6 3.4 3.6h1.4v-1.7h-1c-1.3 0-1.8-.7-1.8-2V8.1h1.9l1.8-1.7z" fill="#222426"/></svg>