<svg aria-hidden="true" class="svg-icon iconLogoEnterpriseWordmarkSm" width="62" height="8" viewBox="0 0 62 8"><path d="M60.71 1.63h-3.3v1.56h2.78c.16 0 .28.13.28.29v.99c0 .15-.12.28-.28.28h-2.77v1.63h3.3c.15 0 .28.13.28.28v1c0 .16-.13.29-.29.29h-4.7a.29.29 0 0 1-.28-.29V.35c0-.16.12-.29.28-.29h4.7c.16 0 .29.13.29.29v1c0 .15-.13.28-.29.28zm-6.76 2.23c.45.4.69.98.69 1.71 0 1.45-1.18 2.43-2.93 2.43-1.23 0-2.07-.31-2.8-1.05a.28.28 0 0 1 0-.4l.74-.73c.12-.11.3-.11.4 0 .45.44.93.61 1.68.61.46 0 1.23-.1 1.23-.83 0-.17-.03-.4-.19-.55-.13-.12-.25-.18-.65-.23l-.87-.13a2.82 2.82 0 0 1-1.55-.66 2.1 2.1 0 0 1-.63-1.6C49.07.98 50.17 0 51.82 0c1.05 0 1.79.27 2.47.9a.28.28 0 0 1 0 .42l-.7.7a.29.29 0 0 1-.4 0c-.36-.34-.78-.49-1.4-.49-.67 0-1.06.32-1.06.86 0 .2.06.35.18.46.15.13.4.23.68.27l.83.13c.72.1 1.16.28 1.53.61zM48.18.06c.16 0 .28.13.28.29v7.28c0 .16-.12.28-.28.28h-1.11a.29.29 0 0 1-.29-.28V.35c0-.16.13-.29.29-.29h1.1zM44.23 4.6l1.55 2.96a.29.29 0 0 1-.25.42h-1.31c-.1 0-.2-.06-.26-.16L42.5 4.88h-.94V7.7c0 .16-.13.29-.28.29h-1.12a.29.29 0 0 1-.3-.29V.35a.3.3 0 0 1 .3-.29H43c1.52 0 2.58 1 2.58 2.43a2.2 2.2 0 0 1-1.36 2.11zm-1.3-1.24c.28 0 .96-.08.96-.86 0-.54-.36-.86-.97-.86h-1.37v1.72h1.37zM36 .06c1.56 0 2.65 1.03 2.65 2.51 0 1.48-1.09 2.5-2.65 2.5h-1.39v2.6c0 .16-.12.29-.28.29H33.2a.29.29 0 0 1-.29-.29V.35c0-.16.13-.29.29-.29H36zm-.06 3.44c.65 0 1.02-.34 1.02-.93 0-.59-.38-.94-1.02-.94h-1.33V3.5h1.33zM30.3 4.56l1.53 2.93a.28.28 0 0 1-.25.42h-1.3c-.1 0-.2-.06-.25-.16l-1.46-2.9h-.93v2.78c0 .15-.13.28-.29.28h-1.1a.28.28 0 0 1-.3-.28V.35a.3.3 0 0 1 .3-.29h2.83c1.5 0 2.56 1 2.56 2.41 0 .96-.5 1.74-1.34 2.1zM29 3.33c.29 0 .96-.08.96-.85 0-.54-.36-.86-.96-.86h-1.36v1.71H29zM24.87.06c.16 0 .29.13.29.29v.99c0 .16-.13.28-.29.28H21.6v1.56h2.76c.16 0 .28.13.28.29v.98c0 .16-.12.29-.28.29H21.6v1.62h3.28c.16 0 .29.13.29.28v1c0 .15-.13.28-.29.28H20.2a.29.29 0 0 1-.29-.28V.34c0-.15.13-.28.29-.28h4.68zm-6.4 0c.16 0 .29.13.29.29v1c0 .16-.13.28-.3.28h-1.73V7.7c0 .15-.13.28-.3.28h-1.11a.29.29 0 0 1-.29-.28V1.63H13.3a.29.29 0 0 1-.29-.28v-1c0-.16.13-.29.29-.29h5.18zm-6.67 0c.16 0 .29.13.29.29v7.33c0 .16-.13.28-.29.28h-1.02a.29.29 0 0 1-.25-.12L7.66 3.48v4.2c0 .16-.13.28-.29.28H6.25a.29.29 0 0 1-.29-.28V.35a.3.3 0 0 1 .3-.29h1.02c.1 0 .18.05.24.13l2.87 4.35V.34c0-.15.13-.28.3-.28h1.11zM.29.06h4.67c.16 0 .3.13.3.29v.99c0 .16-.14.28-.3.28H1.68v1.56h2.76c.16 0 .29.13.29.29v.98c0 .15-.13.28-.29.28H1.68v1.62h3.28c.16 0 .3.13.3.29v.99c0 .16-.14.28-.3.28H.3a.28.28 0 0 1-.3-.28V.35C0 .19.13.06.29.06z" fill="#F48024"/></svg>