<svg aria-hidden="true" class="svg-icon iconLogoTeamsAltMd" width="185" height="37" viewBox="0 0 185 37"><path d="M26 33v-9h4v13H0V24h4v9h22z" fill="#BCBBBB"/><path d="M23.1 25.99l.68-2.95-16.1-3.35L7 23l16.1 2.99zM9.1 15.2l15 7 1.4-3-15-7-1.4 3zm4.2-7.4L26 18.4l2.1-2.5L15.4 5.3l-2.1 2.5zM21.5 0l-2.7 2 9.9 13.3 2.7-2L21.5 0zM7 30h16v-3H7v3z" fill="#F48024"/><path d="M75.51 13.2h-10c-.3 0-.5.2-.5.5v15.67c0 .3.2.5.5.5h2.4c.3 0 .5-.2.5-.5v-6.11h6c.3 0 .5-.2.5-.5V20.6c0-.3-.2-.5-.5-.5h-6v-3.75h7.15c.3 0 .5-.2.5-.5v-2.16c-.05-.25-.3-.5-.55-.5zm14.09 3.5a5.02 5.02 0 0 0-1.15-1.8 6.18 6.18 0 0 0-4.5-1.8 6.07 6.07 0 0 0-5.4 3.1c-.2.45-.4.95-.5 1.45-.1.5-.15 1.05-.2 1.6-.05.55-.05 1.35-.05 2.3 0 1.26.05 2.2.1 2.9.05.71.2 1.36.45 2.01.25.65.65 1.2 1.15 1.8 1.2 1.2 2.7 1.8 4.45 1.8a5.8 5.8 0 0 0 5.65-3.66c.25-.59.35-1.29.4-2 .05-.64.05-1.64.05-2.9 0-1.25 0-2.2-.05-2.9a5 5 0 0 0-.4-1.9zm-8.25 1.65c.1-.55.3-1 .6-1.35.2-.25.5-.45.85-.6.35-.15.75-.2 1.1-.2.4 0 .75.1 1.1.2.35.15.65.35.85.6.3.35.5.75.6 1.3.1.6.15 1.7.15 3.2 0 1 0 1.8-.05 2.4a4 4 0 0 1-.25 1.31c-.1.3-.25.55-.5.8-.5.55-1.15.8-1.95.8a2.69 2.69 0 0 1-1.95-.75c-.2-.2-.35-.4-.4-.6-.05-.1-.15-.35-.2-.75l-.15-1.25c0-.5-.05-1.15-.05-1.96.1-1.45.15-2.55.25-3.15zm20.72 4.41a4.6 4.6 0 0 0 2.9-4.46 4.71 4.71 0 0 0-2.55-4.4 5.64 5.64 0 0 0-2.8-.66h-6.1c-.3 0-.5.2-.5.5v15.68c0 .3.2.5.5.5h2.4c.3 0 .5-.2.5-.5V23.3h2.15l3.15 6.3c.1.16.25.3.45.3h2.75a.6.6 0 0 0 .45-.24c.1-.15.1-.35 0-.5l-3.3-6.41zm-5.65-6.41h3c.7 0 1.2.15 1.6.55.4.35.55.8.55 1.45 0 .6-.2 1.05-.55 1.4-.4.35-.9.55-1.6.55h-3v-3.95zm27.62-3.15h-11c-.3 0-.5.2-.5.5v2.15c0 .3.2.5.5.5h3.8v13.02c0 .3.2.5.5.5h2.35c.3 0 .5-.2.5-.5V16.35h3.8c.3 0 .5-.2.5-.5v-2.16c.05-.25-.2-.5-.45-.5zm13.48 0h-10c-.3 0-.5.2-.5.5v15.67c0 .3.2.5.5.5h10c.3 0 .5-.2.5-.5V27.2c0-.3-.2-.5-.5-.5h-7.15V23h6c.3 0 .5-.2.5-.5v-2.1c0-.3-.2-.5-.5-.5h-6v-3.56h7.15c.3 0 .5-.2.5-.5v-2.16c0-.25-.25-.5-.5-.5zm10.42.34a.48.48 0 0 0-.45-.35h-1.9c-.2 0-.4.15-.45.35l-5.75 15.68c-.05.15-.05.3.05.45.1.15.25.2.4.2h2.55c.2 0 .4-.15.45-.35l.95-2.8h5.45l.95 2.8c.05.2.25.35.45.35h2.55c.15 0 .3-.1.4-.2.1-.15.1-.3.05-.45l-5.7-15.68zm.3 10.17h-3.4l1.75-4.9 1.65 4.9zm21.75-10.51h-2.4c-.2 0-.35.1-.45.3l-4 8.76-4.1-8.77c-.1-.2-.25-.3-.45-.3h-2.4c-.3 0-.5.2-.5.5v15.68c0 .3.2.5.5.5h2.4c.3 0 .5-.2.5-.5V21.1l2.75 5.66c.1.15.25.3.45.3h1.75c.2 0 .35-.1.45-.3l2.65-5.6v8.26c0 .3.2.5.5.5h2.4c.3 0 .5-.2.5-.5V13.74c-.05-.3-.25-.55-.55-.55zm13.45 8.15a3.8 3.8 0 0 0-1.3-.8 7.7 7.7 0 0 0-1.85-.45l-1.8-.25c-.3-.05-.6-.1-.9-.25a2.1 2.1 0 0 1-.6-.35c-.3-.25-.4-.6-.4-1.1 0-.4.1-.7.25-1 .2-.3.45-.5.75-.65.35-.15.8-.25 1.3-.25.45 0 .85.05 1.2.1s.7.2 1 .35c.3.15.6.35.9.65.2.2.5.2.7 0l1.55-1.5c.1-.1.15-.25.15-.35a.45.45 0 0 0-.15-.35 7.11 7.11 0 0 0-2.3-1.46 8.4 8.4 0 0 0-2.9-.45c-1.15 0-2.15.2-3 .6a4.67 4.67 0 0 0-2 1.8c-.45.76-.7 1.66-.7 2.66 0 1.4.45 2.55 1.3 3.36.8.75 1.85 1.2 3.25 1.4l1.85.25c.4.05.75.15.95.2.2.05.35.15.5.35.3.25.45.7.45 1.25 0 .6-.2 1.05-.65 1.35-.5.35-1.2.55-2.1.55-.5 0-1-.05-1.4-.15-.4-.1-.8-.25-1.2-.45-.35-.2-.7-.45-1.05-.8a.45.45 0 0 0-.35-.15.45.45 0 0 0-.35.15l-1.6 1.55c-.1.1-.15.2-.15.35 0 .15.05.25.15.35a7.1 7.1 0 0 0 2.6 1.7c.95.36 2.05.5 3.3.5.85 0 1.7-.1 2.4-.34a5.16 5.16 0 0 0 3.25-2.66c.3-.65.45-1.35.45-2.1-.05-1.6-.55-2.8-1.5-3.6z" fill="#2F3337"/><path fill="#D6D9DC" d="M47 13h1v17h-1z"/></svg>