<svg aria-hidden="true" class="svg-icon iconLogoSEAlternativeSm" width="110" height="15" viewBox="0 0 110 15"><g><path d="M50.4 11.92l-1.98-3.23-1.05 1.17v2.06h-1.42V2.08h1.42v6.07l2.76-3.24h1.73L49.4 7.66l2.77 4.26h-1.76zm-7.86.08c-1.6 0-3.16-.97-3.16-3.6 0-2.62 1.56-3.57 3.16-3.57.97 0 1.66.28 2.33.98l-.98.94c-.45-.48-.8-.66-1.35-.66s-1.01.22-1.32.62c-.3.39-.42.88-.42 1.7 0 .81.11 1.32.42 1.71.3.4.77.62 1.32.62s.9-.18 1.35-.66l.98.93c-.67.7-1.36.99-2.33.99zm-5.7-3.18h-1.67c-.84 0-1.27.38-1.27 1.01 0 .64.4 1 1.3 1 .54 0 .95-.05 1.33-.4.2-.21.3-.54.3-1.04v-.57zm.02 3.1v-.64c-.51.51-1 .72-1.88.72-.89 0-1.47-.2-1.9-.64a2.13 2.13 0 0 1-.57-1.5c0-1.17.83-2.02 2.45-2.02h1.87v-.5c0-.88-.44-1.3-1.55-1.3-.78 0-1.16.17-1.55.67l-.94-.87c.67-.77 1.37-1 2.55-1 1.94 0 2.92.8 2.92 2.4v4.68h-1.4zm-6.44 0c-1.33 0-1.95-.94-1.95-1.95V6.12h-.8V5.04h.8V2.9h1.43v2.13h1.37v1.08H29.9V9.9c0 .51.25.82.78.82h.59v1.2h-.85zm-6.9.08c-1.5 0-2.57-.35-3.52-1.3l1-.98a3.3 3.3 0 0 0 2.55.94c1.3 0 2.06-.55 2.06-1.5 0-.43-.13-.8-.4-1.03-.25-.23-.5-.33-1.09-.41l-1.17-.17a3.43 3.43 0 0 1-1.89-.79 2.43 2.43 0 0 1-.72-1.87c0-1.72 1.25-2.89 3.32-2.89 1.32 0 2.24.33 3.1 1.12l-.97.94a2.94 2.94 0 0 0-2.17-.76c-1.17 0-1.82.66-1.82 1.53 0 .36.12.68.38.91.25.22.66.39 1.12.46l1.13.16c.93.14 1.44.36 1.86.74.55.47.81 1.17.81 2.01 0 1.81-1.5 2.89-3.58 2.89z" fill="#FFF"/><path d="M107.4 6.88c-.2-.44-.61-.76-1.23-.76-.63 0-1.04.32-1.23.76-.12.27-.16.46-.17.79h2.8a2 2 0 0 0-.17-.8zm-2.63 2.04c0 .94.58 1.63 1.6 1.63.81 0 1.21-.23 1.68-.69l1.11 1.08a3.52 3.52 0 0 1-2.8 1.16c-1.74 0-3.4-.8-3.4-3.76 0-2.39 1.3-3.74 3.2-3.74 2.06 0 3.22 1.5 3.22 3.5v.82h-4.61zm-5.68-2.67c-1.1 0-1.2.92-1.2 1.9 0 .96.1 1.9 1.2 1.9 1.08 0 1.21-.94 1.21-1.9 0-.98-.13-1.9-1.21-1.9zm-.19 8.53c-1.13 0-1.9-.22-2.67-.96l1.14-1.15c.41.4.83.56 1.45.56 1.1 0 1.48-.77 1.48-1.51v-.75c-.48.53-1.03.73-1.75.73s-1.34-.24-1.76-.65c-.69-.68-.74-1.63-.74-2.9 0-1.29.05-2.21.74-2.9a2.5 2.5 0 0 1 1.77-.65c.78 0 1.29.21 1.8.77V4.7h1.78v7.05c0 1.76-1.26 3.04-3.24 3.04zm-5.58-2.77V7.58c0-1-.63-1.33-1.21-1.33s-1.23.33-1.23 1.33v4.43h-1.84V4.7h1.8v.67c.47-.5 1.15-.76 1.83-.76.74 0 1.33.24 1.74.65.6.59.75 1.28.75 2.08V12h-1.84zm-7.14-3.1h-1.46c-.66 0-1.03.32-1.03.84 0 .5.34.84 1.06.84.51 0 .84-.04 1.16-.35.2-.18.27-.48.27-.93v-.4zm.04 3.1v-.63c-.5.49-.96.7-1.8.7-.84 0-1.45-.21-1.89-.65-.4-.4-.6-1-.6-1.64 0-1.17.8-2.12 2.51-2.12h1.74V7.3c0-.8-.4-1.15-1.37-1.15-.7 0-1.03.17-1.42.6l-1.17-1.14c.72-.78 1.43-1 2.66-1 2.06 0 3.14.86 3.14 2.58V12h-1.8zm-7 0V7.54c0-.97-.62-1.3-1.2-1.3-.57 0-1.18.34-1.18 1.3v4.47H75V2h1.84v3.36c.5-.5 1.11-.76 1.76-.76 1.62 0 2.47 1.13 2.47 2.67v4.74h-1.84zm-7.7.09c-1.48 0-3.3-.8-3.3-3.76 0-2.97 1.82-3.74 3.3-3.74 1 0 1.77.31 2.42.99L72.7 6.82c-.38-.4-.7-.57-1.19-.57-.44 0-.78.15-1.05.47-.28.36-.4.85-.4 1.62 0 .77.12 1.28.4 1.63.27.33.61.48 1.05.48.48 0 .8-.17 1.19-.58l1.24 1.23c-.65.67-1.41 1-2.43 1zm-6.07-.1l-1.36-2.2-1.34 2.2h-2.2l2.54-3.74-2.45-3.58h2.2l1.25 2.1 1.26-2.1h2.2l-2.44 3.58L67.65 12h-2.2zm-12.46 0V2h6.63v1.74h-4.66V6.1h3.97v1.75h-3.97v2.43h4.66V12H53z" fill="#2F96E8"/><path d="M2 1h8a2 2 0 0 1 2 2H0c0-1.1.9-2 2-2z" fill="#8FD8F7"/><path d="M0 10h12a2 2 0 0 1-2 2H2a2 2 0 0 1-2-2zm7 2v3l3-3z" fill="#155397"/><path fill="#46A2D9" d="M0 4h12v2H0z"/><path fill="#2D6DB5" d="M0 7h12v2H0z"/></g></svg>