<svg aria-hidden="true" class="svg-icon iconLogoEnterpriseWordmarkSm" width="61" height="8" viewBox="0 0 61 8"><path d="M0 7.86V0h5.08v1.6H1.94v1.52h2.65V4.7H1.94v1.58h3.2v1.59H0zm6.05 0V0h1.9l2.4 4.58V.01h1.9v7.85h-1.9L7.94 3.28v4.58h-1.9zm9.1 0V1.59h-2.02V.01h6V1.6h-2.02v6.27h-1.95zm4.85 0V0h5.08v1.6h-3.15v1.52h2.65V4.7h-2.65v1.58h3.21v1.59H20zm8-3.04v3.04h-1.96V0h3.08c1.1 0 1.67.16 2.1.57.4.41.56.94.56 1.8 0 1.36-.37 2-1.35 2.3l1.7 3.18h-2.17l-1.43-3.04H28zm-.03-1.48h.95c.7 0 .93-.22.93-.89s-.23-.89-.93-.89h-.95v1.78zm6.99 1.9v2.62H33V0h2.74c1.2 0 1.81.18 2.26.64.44.45.6 1 .6 2 0 .99-.21 1.61-.7 2.04-.46.4-1.05.54-2.16.54h-.78zm-.04-1.57h.83c.7 0 .92-.26.92-1.05 0-.8-.23-1.06-.92-1.06h-.83v2.11zm6.11 1.15v3.04h-1.96V0h3.08c1.1 0 1.67.16 2.1.57.4.41.56.94.56 1.8 0 1.36-.37 2-1.35 2.3l1.7 3.18h-2.17l-1.43-3.04h-.53zM41 3.34h.95c.7 0 .93-.22.93-.89s-.23-.89-.93-.89H41v1.78zm5.1 4.52V0h1.96v7.85H46.1zm2.74-1.3l1.46-.93c.35.6.8.82 1.63.82.68 0 1-.25 1-.77 0-.4-.21-.62-.77-.77-1.36-.33-1.64-.43-2.05-.69-.62-.4-.9-.97-.9-1.85C49.2.82 50.15 0 51.9 0c1.34 0 2.19.43 2.72 1.36l-1.42.9c-.38-.53-.74-.72-1.33-.72-.54 0-.83.25-.83.7 0 .52.3.74 1.33 1a4.6 4.6 0 0 1 1.62.58c.53.35.78.91.78 1.78 0 .84-.2 1.4-.65 1.77-.49.41-1.26.63-2.22.63-.9 0-1.72-.2-2.26-.55a2.17 2.17 0 0 1-.81-.89zm6.99 1.3V0h5.08v1.6h-3.15v1.52h2.66V4.7h-2.66v1.58h3.22v1.59h-5.15z" fill="#F48024"/></svg>