<svg aria-hidden="true" class="svg-icon iconLogoEnterpriseWordmarkSm" width="85" height="8" viewBox="0 0 85 8"><path d="M.08 7.86V0h5v1.6H2.03v1.57h2.52v1.58H2.04v3.12H.08zm5.83-2.98V3.1c0-1.19.17-1.82.65-2.33C7.1.22 7.76 0 8.91 0c1.23 0 1.95.27 2.47.92.38.48.53 1.09.53 2.2v1.77c0 1.2-.17 1.82-.65 2.33-.53.55-1.2.78-2.35.78-1.22 0-1.95-.27-2.47-.92-.38-.48-.53-1.09-.53-2.2zm4.07-.15V3.25c0-1.34-.22-1.7-1.07-1.7-.84 0-1.07.36-1.07 1.7v1.48c0 1.34.23 1.71 1.07 1.71.85 0 1.07-.37 1.07-1.71zm5 .1v3.03h-1.95V0h3.08c1.1 0 1.67.16 2.09.58.4.4.57.93.57 1.8 0 1.35-.38 1.99-1.35 2.29l1.69 3.19h-2.17l-1.43-3.04h-.53zm-.03-1.5h.96c.7 0 .92-.21.92-.88 0-.68-.23-.9-.92-.9h-.96v1.79zm8.03 4.53V0h5.09v1.6h-3.15v1.5h2.65v1.58h-2.65v1.58h3.21v1.59h-5.15zm6.05 0V0h1.9l2.41 4.59V0h1.9v7.86h-1.9l-2.42-4.59v4.59h-1.89zm9.11 0V1.59h-2.02V0h6v1.6H40.1v6.27h-1.96zm4.84 0V0h5.08v1.6h-3.14v1.5h2.65v1.58h-2.65v1.58h3.2v1.59h-5.14zm8-3.04v3.04h-1.95V0h3.08c1.1 0 1.67.16 2.09.58.4.4.57.93.57 1.8 0 1.35-.38 1.99-1.35 2.29l1.69 3.19h-2.17l-1.43-3.04h-.53zm-.03-1.48h.96c.7 0 .92-.22.92-.9 0-.67-.23-.89-.92-.89h-.96v1.79zm6.99 1.89v2.63h-1.96V0h2.74c1.2 0 1.82.18 2.27.64.44.45.6 1 .6 2s-.22 1.62-.71 2.05c-.45.4-1.05.54-2.16.54h-.78zm-.03-1.56h.82c.7 0 .93-.27.93-1.06 0-.8-.24-1.06-.93-1.06h-.82v2.12zM64 4.82v3.04h-1.95V0h3.08c1.1 0 1.67.16 2.09.58.4.4.57.93.57 1.8 0 1.35-.38 1.99-1.36 2.29l1.7 3.19h-2.17l-1.43-3.04H64zm-.03-1.48h.96c.7 0 .92-.22.92-.9 0-.67-.23-.89-.92-.89h-.96v1.79zm5.1 4.52V0h1.96v7.86h-1.96zm2.74-1.3l1.47-.93c.34.6.8.82 1.62.82.68 0 1.01-.25 1.01-.77 0-.41-.22-.63-.78-.77-1.35-.33-1.64-.43-2.05-.7-.62-.4-.9-.97-.9-1.85C72.2.81 73.13 0 74.9 0c1.33 0 2.18.43 2.71 1.37l-1.42.9c-.38-.53-.74-.73-1.32-.73-.54 0-.84.25-.84.7 0 .52.3.74 1.34 1a4.6 4.6 0 0 1 1.61.59c.53.34.78.9.78 1.77 0 .85-.2 1.4-.65 1.78-.49.41-1.25.63-2.22.63-.89 0-1.71-.2-2.25-.55a2.17 2.17 0 0 1-.82-.9zm7.2 1.3V0h5.08v1.6h-3.15v1.5h2.65v1.58h-2.65v1.58h3.21v1.59h-5.14z" fill="#F48024"/></svg>