<svg aria-hidden="true" class="svg-icon iconLogoTeamsAlt" width="143" height="30" viewBox="0 0 143 30"><path d="M21 27v-8h3v11H0V19h3v8h18z" fill="#BCBBBB"/><path d="M5.4 19.1l13.56 1.96.17-2.38-13.26-2.55-.47 2.97zm1.8-6.8l12 5.6 1.1-2.4-12-5.6-1.1 2.4zm3.4-5.9l10.2 8.5 1.7-2-10.2-8.5-1.7 2zM17.1.2L15 1.8l7.9 10.6 2.1-1.6L17.1.2zM5 25h14v-3H5v3z" fill="#F48024"/><path d="M59.14 11h-7.77c-.24 0-.4.16-.4.4v12.18c0 .23.16.39.4.39h1.86c.24 0 .4-.16.4-.39v-4.75h4.66c.23 0 .38-.16.38-.39v-1.67c0-.24-.15-.4-.38-.4h-4.67v-2.91h5.56c.23 0 .39-.16.39-.4V11.4c-.04-.2-.23-.39-.43-.39zm10.29 2.73a3.9 3.9 0 0 0-.9-1.4 4.8 4.8 0 0 0-3.49-1.4 4.72 4.72 0 0 0-4.2 2.41 5.54 5.54 0 0 0-.54 2.38c-.04.42-.04 1.05-.04 1.79 0 .97.04 1.7.08 2.25s.15 1.06.35 1.56c.2.5.5.94.9 1.4.92.94 2.09 1.4 3.45 1.4a4.51 4.51 0 0 0 4.7-4.4c.04-.5.04-1.28.04-2.25 0-.98 0-1.72-.04-2.26a4 4 0 0 0-.3-1.48zM63.02 15c.08-.42.23-.77.47-1.05.15-.2.38-.35.66-.46.27-.12.58-.16.85-.16.31 0 .59.08.86.16.27.11.5.27.66.46.23.28.39.59.46 1.02a18 18 0 0 1 .12 2.49c0 .78 0 1.4-.04 1.87a3.1 3.1 0 0 1-.2 1 1.94 1.94 0 0 1-1.9 1.25 2.09 2.09 0 0 1-1.51-.58 1.1 1.1 0 0 1-.31-.47 1.88 1.88 0 0 1-.16-.58l-.12-.97c0-.4-.03-.9-.03-1.52.07-1.13.11-1.99.19-2.46zm15.05 3.44a3.58 3.58 0 0 0 2.25-3.47 3.66 3.66 0 0 0-1.98-3.43 4.39 4.39 0 0 0-2.17-.5h-4.75c-.23 0-.38.16-.38.4v12.18c0 .23.15.39.38.39h1.87c.23 0 .39-.16.39-.4v-4.74h1.67l2.45 4.9c.08.12.2.24.35.24h2.14c.11 0 .27-.08.35-.2a.35.35 0 0 0 0-.39l-2.57-4.98zm-4.4-4.98h2.34c.55 0 .93.11 1.25.42.3.28.42.63.42 1.13 0 .47-.15.82-.42 1.1-.32.27-.7.42-1.25.42h-2.33v-3.07zM95.88 11h-8.55c-.24 0-.4.16-.4.4v1.67c0 .23.16.39.4.39h2.95v10.12c0 .23.16.39.39.39h1.83c.23 0 .38-.16.38-.39V13.46h2.96c.23 0 .39-.16.39-.4V11.4c.04-.2-.16-.39-.35-.39zm10.26 0h-7.77c-.24 0-.4.16-.4.4v12.18c0 .23.16.39.4.39h7.77c.23 0 .39-.16.39-.39v-1.67c0-.24-.16-.4-.4-.4h-5.55v-2.87h4.67c.23 0 .38-.16.38-.4v-1.63c0-.23-.15-.39-.38-.39h-4.67v-2.76h5.56c.23 0 .39-.16.39-.4V11.4c0-.2-.2-.39-.4-.39zm8.13.28a.37.37 0 0 0-.35-.28h-1.48a.37.37 0 0 0-.35.28l-4.47 12.18a.38.38 0 0 0 .04.35c.08.12.2.16.31.16h1.99c.15 0 .3-.12.35-.27l.73-2.18h4.24l.74 2.18c.04.15.2.27.35.27h1.98c.12 0 .23-.08.31-.16a.38.38 0 0 0 .04-.35l-4.43-12.18zm.23 7.9h-2.64l1.36-3.82 1.28 3.82zM131.22 11h-1.86c-.16 0-.27.08-.35.24l-3.11 6.81-3.19-6.81c-.08-.16-.2-.24-.35-.24h-1.86c-.24 0-.4.16-.4.4v12.18c0 .23.16.39.4.39h1.86c.23 0 .4-.16.4-.39v-6.42l2.13 4.4c.08.11.2.23.35.23h1.36c.16 0 .27-.08.35-.23l2.06-4.37v6.43c0 .23.16.39.39.39h1.86c.24 0 .4-.16.4-.4V11.44c-.05-.23-.2-.43-.44-.43zm10.46 6.35a2.95 2.95 0 0 0-1.01-.62 5.98 5.98 0 0 0-1.44-.35l-1.4-.2a2.35 2.35 0 0 1-.7-.2c-.2-.07-.39-.19-.46-.27-.24-.19-.31-.46-.31-.85 0-.31.07-.55.19-.78.16-.23.35-.39.58-.5.28-.12.63-.2 1.01-.2.35 0 .66.04.94.08.27.04.54.15.77.27.24.12.47.27.7.5.16.16.4.16.55 0l1.2-1.16c.08-.08.12-.2.12-.28a.36.36 0 0 0-.12-.27c-.54-.5-1.16-.9-1.79-1.13a6.53 6.53 0 0 0-2.25-.35c-.9 0-1.67.16-2.33.47-.66.31-1.2.82-1.56 1.4a3.98 3.98 0 0 0-.54 2.07c0 1.09.35 1.98 1.01 2.6.62.59 1.44.94 2.53 1.1l1.43.19c.31.04.59.12.74.15.16.04.28.12.4.28.22.2.34.54.34.97 0 .47-.15.82-.5 1.05a2.8 2.8 0 0 1-1.64.43 4.55 4.55 0 0 1-2.02-.47 3.8 3.8 0 0 1-.81-.62.35.35 0 0 0-.28-.12.36.36 0 0 0-.27.12l-1.24 1.2a.35.35 0 0 0-.12.28c0 .12.04.2.12.27a5.52 5.52 0 0 0 2.02 1.33c.74.27 1.6.39 2.56.39a5.7 5.7 0 0 0 3.39-1.06 3.63 3.63 0 0 0 1.36-2.92c-.04-1.24-.43-2.18-1.17-2.8z" fill="#2F3337"/><path fill="#D6D9DC" d="M38 11h1v13h-1z"/></svg>