<svg aria-hidden="true" class="svg-icon iconLogoEnterprise" width="150" height="36" viewBox="0 0 150 36"><g><path d="M33.9 18.6l-1.7-.2c-1.3-.1-1.9-.6-1.9-1.6 0-1.1.8-1.8 2.4-1.8 1.1 0 2.1.3 2.8.8l1-1c-1-.8-2.3-1.1-3.8-1.1-2.3 0-3.9 1.2-3.9 3.1 0 1.8 1.1 2.7 3.2 2.9l1.8.2c1.2.1 1.8.6 1.8 1.6 0 1.3-1.1 1.9-2.8 1.9-1.3 0-2.5-.3-3.3-1.2l-1 1c1.2 1.1 2.6 1.5 4.4 1.5 2.6 0 4.3-1.2 4.3-3.2-.2-2-1.5-2.7-3.3-2.9zm13.3-4.8c-1.7 0-2.8.3-3.7 1.5l1 1c.6-.9 1.3-1.2 2.7-1.2 1.9 0 2.7.8 2.7 2.3v1h-3.2c-2.4 0-3.7 1.2-3.7 3.1 0 .8.3 1.6.8 2.2.7.7 1.5 1 3 1 1.4 0 2.2-.3 3.1-1.1v1h1.6v-7.2c-.1-2.4-1.5-3.6-4.3-3.6zm2.7 7c0 .9-.2 1.5-.5 1.8-.7.6-1.5.7-2.4.7-1.7 0-2.4-.6-2.4-1.8 0-1.2.8-1.9 2.4-1.9h3l-.1 1.2zm7.6-5.6c1 0 1.6.3 2.4 1.2l1-1c-1.1-1.2-2-1.6-3.5-1.6-2.7 0-4.7 1.8-4.7 5.5 0 3.6 2 5.5 4.7 5.5 1.5 0 2.4-.4 3.5-1.6l-1.1-1c-.8.9-1.4 1.2-2.4 1.2s-1.9-.4-2.5-1.2c-.5-.7-.7-1.5-.7-2.9 0-1.3.2-2.2.7-2.9.7-.8 1.6-1.2 2.6-1.2zm13.4-1.3H69l-4.8 4.7V9.1h-1.6v15.4h1.6v-3.9l1.9-1.9 3.6 5.8h1.9l-4.4-6.9 3.7-3.7zm7.3-.3c-1.6 0-2.7.6-3.4 1.4-1 1-1.3 2.3-1.3 4.3s.3 3.3 1.3 4.3c.7.7 1.8 1.4 3.4 1.4 1.6 0 2.8-.6 3.4-1.4 1-1 1.3-2.3 1.3-4.3s-.3-3.3-1.3-4.3c-.6-.8-1.7-1.4-3.4-1.4zm1.3 8.3c-.3.3-.7.5-1.3.5-.6 0-1-.2-1.3-.5-.6-.6-.6-1.6-.6-2.7 0-1.2.1-2.1.6-2.7.3-.3.7-.5 1.3-.5.6 0 1 .2 1.3.5.6.6.6 1.5.6 2.7.1 1.2 0 2.2-.6 2.7zm10.8-8.2l-2.2 6.9-2.3-6.9h-2.9L87 24.8h2.2l4.1-11.1h-3zm7.6-.1c-2.9 0-4.8 2-4.8 5.7 0 4.5 2.5 5.7 5.1 5.7 2 0 3.1-.6 4.2-1.7l-1.7-1.6c-.7.7-1.3 1-2.5 1-1.6 0-2.4-1-2.4-2.5h6.9V19c0-3.2-1.7-5.4-4.8-5.4zm-2.1 4.6c0-.5.1-.8.3-1.2.3-.7.9-1.2 1.9-1.2.9 0 1.6.5 1.9 1.2.2.4.2.7.3 1.2h-4.4zm11-3.4v-1.1h-2.7v11.1h2.8v-6.7c0-1.4.9-2 1.8-2 .7 0 1 .2 1.5.7l2.1-2.1c-.8-.8-1.5-1-2.6-1-1.3-.1-2.3.4-2.9 1.1zm6.3-2.3v12.3h2.8V16h2v-2.1h-2v-1.2c0-.6.3-1 1-1h1.1V9.4h-1.6c-2.3 0-3.3 1.6-3.3 3.1zm16.2 1.1c-1.6 0-2.7.6-3.4 1.4-1 1-1.3 2.3-1.3 4.3s.3 3.3 1.3 4.3c.7.7 1.8 1.4 3.4 1.4 1.6 0 2.8-.6 3.4-1.4 1-1 1.3-2.3 1.3-4.3s-.3-3.3-1.3-4.3c-.6-.8-1.8-1.4-3.4-1.4zm1.3 8.3c-.3.3-.7.5-1.3.5-.6 0-1-.2-1.3-.5-.6-.6-.6-1.6-.6-2.7 0-1.2.1-2.1.6-2.7.3-.3.7-.5 1.3-.5.6 0 1 .2 1.3.5.6.6.6 1.5.6 2.7 0 1.2 0 2.2-.6 2.7zm16.5-8.2l-1.8 6.9-2.3-6.9h-2l-2.3 6.9-1.8-6.9H134l3.4 11.1h2.3l2.3-7 2.3 7h2.3l3.4-11.1h-2.9zM122 21.4V9.3h-2.8v12.3c0 1.6 1 3.2 3.2 3.2h1.6v-2.3h-1c-.7 0-1-.4-1-1.1zm-80.7-5.8l1.4-1.4h-3v-3.5h-1.6v11.1c0 1.6.9 2.9 2.7 2.9h1.1v-1.3h-.8c-1 0-1.5-.6-1.5-1.6v-6.1l1.7-.1z" fill="#222426"/><path fill="#BCBBBB" d="M21 27v-8h3v11H0V19h3v8z"/><path d="M5.4 19.1l13.6 2 .2-2.4-13.3-2.6-.5 3zm1.8-6.8l12 5.6 1.1-2.4-12-5.6-1.1 2.4zm3.4-5.9l10.2 8.5 1.7-2-10.2-8.5-1.7 2zM17.1.2L15 1.8l7.9 10.6 2.1-1.6L17.1.2zM5 25h14v-3H5v3zm29.02 4.7h-3v1.4h2.7v1.5h-2.8v1.7h3v1.5h-4.9V28h5zm7.04-1.6v7.8h-1.5l-2.8-4.3v4.3h-1.8v-7.8h1.5l2.9 4.4v-4.4zm6.85-.09v1.69h-2v6.2h-1.9v-6.2h-2v-1.69zm6 1.69h-3v1.4h2.7v1.5h-2.7v1.7h3v1.5h-4.9V28h4.9zm5.32 6.2l-1.3-2.9h-1v2.9h-1.9v-7.88h2.9c1.8 0 2.9.98 2.9 2.58 0 1-.4 1.7-1.2 2l1.5 3.2h-1.9v.1zm-1.4-4.5c.8 0 1.3-.1 1.3-.8 0-.7-.5-.9-1.3-.9h-.8v1.7h.8zm6.07 1.9v2.6H62v-7.85h2.9c1.8 0 2.9.95 2.9 2.65s-1.1 2.6-2.9 2.6h-1zm.7-1.7c1 0 1.4-.2 1.4-1 0-.6-.4-1-1.4-1h-.7v2h.7zm8.5 4.3L71.8 33h-1v2.9H69v-7.86h2.9c1.8 0 2.9.96 2.9 2.56 0 1-.4 1.7-1.2 2l1.5 3.2h-2v.1zm-1.4-4.5c.8 0 1.3-.1 1.3-.8 0-.7-.5-.9-1.3-.9h-.8v1.7h.8zm6.2 4.5H76v-7.87h1.9zm5.5-5.6c-.3-.5-.7-.7-1.4-.7-.6 0-.9.3-.9.7 0 .5.4.7 1.4 1 1.7.5 2.3 1.1 2.3 2.4 0 1.4-.9 2.3-2.7 2.3-1.4 0-2.4-.3-3.1-1.3l1.4-1c.4.5.9.7 1.5.7.7 0 1-.3 1-.7 0-.4-.3-.7-1.5-1-1.6-.5-2.2-1.2-2.2-2.5S80 28 81.9 28c1.2 0 2.2.4 2.8 1.3l-1.3 1zm7.5-.6h-3v1.4h2.7v1.5h-2.7v1.7h3v1.5H86V28h4.9z" fill="#F48024"/></g></svg>