<svg aria-hidden="true" class="svg-icon iconPlusOne" width="18" height="18" viewBox="0 0 18 18"><path d="M7 9h3v2H7v3H5v-3H2V9h3V6h2v3zm10 6h-2V6.31l-3 .99V5.46l4.76-1.79H17V15z" fill="#9966CB"/><path d="M2.7 6.95a.5.5 0 0 1-.19.03.49.49 0 0 1-.35-.09l-1-1a.5.5 0 0 1 .36-.85.5.5 0 0 1 .35.14l1 .95a.51.51 0 0 1 0 .71.5.5 0 0 1-.16.1zm6.65 0a.5.5 0 0 0 .2.03c.12.02.25-.01.35-.09l1-1a.5.5 0 0 0-.36-.85.51.51 0 0 0-.35.14l-1 .95a.51.51 0 0 0 0 .71c.05.05.1.08.16.1zm1.15 8.03a.5.5 0 0 0 .36-.14.51.51 0 0 0 0-.7l-1-.96a.51.51 0 0 0-.71 0 .5.5 0 0 0 0 .71l1 1c.1.08.22.1.35.1zm-9.18-.03a.5.5 0 0 0 .2.03c.12.02.25-.01.35-.09l1-1a.5.5 0 0 0-.36-.85.51.51 0 0 0-.35.14l-1 .95a.51.51 0 0 0 0 .71c.05.05.1.08.16.1z" opacity=".7" fill="#F75D37"/><path d="M6 5a.5.5 0 1 0 0-1 .5.5 0 0 0 0 1zM.5 10.5a.5.5 0 1 0 0-1 .5.5 0 0 0 0 1zM12 10a.5.5 0 1 1-1 0 .5.5 0 0 1 1 0zm-6 6a.5.5 0 1 0 0-1 .5.5 0 0 0 0 1z" opacity=".4"/></svg>