<svg aria-hidden="true" class="svg-icon iconSkull" width="18" height="18" viewBox="0 0 18 18"><path opacity=".2" d="M9.95 1h-1.9A6.17 6.17 0 0 0 2 7.17c0 1.59.24 3.21.36 4.8.01.85.7 1.55 1.55 1.55h.51c.34 0 .44.28.48.55l.18 1.39c.16.85.7 1.54 1.54 1.54h4.76c.84 0 1.4-.7 1.54-1.54l.18-1.39c.04-.27.14-.55.48-.55h.51c.85 0 1.54-.7 1.55-1.56.12-1.58.36-3.2.36-4.79A6.18 6.18 0 0 0 9.95 1z"/><path opacity=".3" d="M9.14 1H8.05A6.17 6.17 0 0 0 2 7.17c0 1.06.1 2.14.21 3.21l.15 1.58c.01.86.7 1.56 1.55 1.56h.51c.34 0 .44.28.48.55l.18 1.39c.16.85.7 1.54 1.54 1.54h2.52A11.5 11.5 0 0 1 6 9c0-3.15 1.2-6 3.14-8z"/><path d="M10.08 12.25a.41.41 0 0 0-.82 0l-.13.65c-.05.26.14.5.4.5h.28c.26 0 .45-.24.4-.5l-.13-.65zm-1.35 0a.41.41 0 0 0-.8 0l-.14.65c-.05.26.14.5.4.5h.27a.4.4 0 0 0 .4-.5l-.13-.65z"/><circle cx="11.5" cy="9.5" r="1.75"/><circle cx="6.5" cy="9.5" r="1.75"/><path d="M7.5 15a.5.5 0 0 0-.5.5V17h1v-1.5a.5.5 0 0 0-.5-.5zm3.5 2v-1.5a.5.5 0 0 0-1 0V17h1zm-1.5 0v-1.5a.5.5 0 0 0-1 0V17h1z"/></svg>