<svg aria-hidden="true" class="svg-icon iconSOS" width="18" height="18" viewBox="0 0 18 18"><path d="M4 2a2 2 0 0 0-2 2v11c0 1.1.9 2 2 2h11a2 2 0 0 0 2-2V4a2 2 0 0 0-2-2H4zm2 7a1 1 0 0 1 1 1v2a1 1 0 0 1-1 1H5a1 1 0 0 1-1-1h2v-2H5a1 1 0 0 1-1-1V7a1 1 0 0 1 1-1h1a1 1 0 0 1 1 1H5v2h1zm4-3a1 1 0 0 1 1 1v5a1 1 0 0 1-1 1H9a1 1 0 0 1-1-1V7a1 1 0 0 1 1-1h1zm0 1H9v5h1V7zm4.7 2.3a1 1 0 0 1 .3.7v2a1 1 0 0 1-1 1h-1a1 1 0 0 1-1-1h2v-2h-1a1 1 0 0 1-1-1V7a1 1 0 0 1 1-1h1a1 1 0 0 1 1 1h-2v2h1a1 1 0 0 1 .7.3z" fill="#F75D37"/></svg>