<svg aria-hidden="true" class="svg-icon iconTada" width="18" height="18" viewBox="0 0 18 18"><path opacity=".4" d="M10.38 7.48c-2.9-2.9-5.4-3.73-5.51-3.38l-3.8 11.45c-.14.4-.03.86.27 1.15.3.3.78.38 1.17.22l11.42-3.31c.3-.15-.64-3.22-3.54-6.13z" fill="#FF9700"/><path d="M6.8 11.07a18.02 18.02 0 0 1-2.93-3.96l1-3C5.47 6.15 6.65 8 8.25 9.4a21.72 21.72 0 0 0 5.59 4.22l-2.86.83a31.19 31.19 0 0 1-4.17-3.39zM3.6 14.2a4.26 4.26 0 0 1-1.33-2.24l.91-2.74c.5 1.27 1.25 2.43 2.2 3.4.95.95 2 1.81 3.1 2.57l-2.57.74a9.03 9.03 0 0 1-2.31-1.72z" opacity=".6" fill="#FF9700"/><path d="M15.5 2.5l-4 4" stroke="#F75D37" stroke-linecap="round"/><path d="M10 1.5a.5.5 0 0 0-1 0v3a.5.5 0 0 0 1 0v-3zM13.5 8a.5.5 0 0 0 0 1h3a.5.5 0 0 0 0-1h-3z" fill="#07C"/><path d="M7.5 3a.5.5 0 1 0 0-1 .5.5 0 0 0 0 1zm5 0a.5.5 0 1 0 0-1 .5.5 0 0 0 0 1zM16 5.5a.5.5 0 1 1-1 0 .5.5 0 0 1 1 0zm-.5 5.5a.5.5 0 1 0 0-1 .5.5 0 0 0 0 1z" opacity=".6" fill="#07C"/></svg>