<svg aria-hidden="true" class="svg-icon iconTada" width="18" height="18" viewBox="0 0 18 18"><path opacity=".4" d="M10.32 7.43c-2.9-2.9-5.4-3.73-5.52-3.37L2.2 11.9l-1.18 3.6a1.09 1.09 0 0 0 1.44 1.38l11.42-3.32c.3-.14-.64-3.22-3.55-6.13z" fill="#FF9700"/><path d="M13 2.5a.5.5 0 1 1-1 0 .5.5 0 0 1 1 0zm3 3a.5.5 0 1 1-1 0 .5.5 0 0 1 1 0zm-.46 5.45a.5.5 0 1 0 0-1 .5.5 0 0 0 0 1zM7.96 2.54a.5.5 0 1 1-1 0 .5.5 0 0 1 1 0z" opacity=".6" fill="#07C"/><path d="M9.15 4.85A.5.5 0 0 0 10 4.5v-3a.5.5 0 1 0-1 0v3c0 .13.05.26.15.35zM13.5 9h3a.5.5 0 0 0 0-1h-3a.5.5 0 0 0 0 1z" fill="#07C"/><path d="M11.58 6.92a.5.5 0 0 1-.36-.14.51.51 0 0 1 0-.71l4-3.95a.51.51 0 0 1 .71 0 .5.5 0 0 1 0 .71l-4 4c-.1.07-.23.1-.35.09z" fill="#F75D37"/><path d="M6.74 11.02a18.02 18.02 0 0 1-2.93-3.95l1-3.01c.6 2.05 1.78 3.9 3.38 5.31a22.3 22.3 0 0 0 5.58 4.22l-2.85.82a31.18 31.18 0 0 1-4.18-3.39zm-3.2 3.14a4.26 4.26 0 0 1-1.33-2.25l.9-2.74c.5 1.27 1.26 2.43 2.2 3.41.96.95 2 1.8 3.1 2.56l-2.56.75a9.03 9.03 0 0 1-2.31-1.73z" opacity=".6" fill="#FF9700"/></svg>