<svg aria-hidden="true" class="svg-icon iconThumbsUp" width="18" height="18" viewBox="0 0 18 18"><path opacity=".7" d="M2.46 15H4V9H2.46A1.46 1.46 0 0 0 1 10.46v3.08A1.46 1.46 0 0 0 2.46 15z" fill="#07C"/><path d="M5 15V9l4.27-5.7a1.27 1.27 0 0 1 1.73 0c.34.32.48 1.23.44 1.89A3.32 3.32 0 0 1 10.75 7c-.23.31.04.78.49.71 0 0 1.71-.33 2.3-.36.59-.03 2.71.13 2.71 1.68-.1 1.89-.58 3.74-1.4 5.44-.66 1.6-1.19 2.15-2.11 2.38-.87.23-1.78.21-2.64-.05L5 15z" fill="#FFC166"/><path d="M10.3 1.96a.5.5 0 0 0 .19.04.51.51 0 0 0 .51-.49V.68a.5.5 0 0 0-.49-.51.52.52 0 0 0-.51.49v.83a.5.5 0 0 0 .3.47zM6.84 3.35l-.64-.63A.5.5 0 0 1 6.9 2l.64.63a.5.5 0 0 1 0 .71.48.48 0 0 1-.7.02zm6.87-.62l-.64.63a.48.48 0 0 1-.7 0 .5.5 0 0 1 0-.71L13 2a.5.5 0 0 1 .71.71v.02z" opacity=".4"/></svg>