<svg aria-hidden="true" class="svg-icon iconThumbsUp" width="18" height="18" viewBox="0 0 18 18"><path d="M5 15V9s3.94-5.28 4.2-5.6c.27-.33.64-.46.96-.46.32 0 .6.14.84.36.34.32.48 1.23.44 1.89A3.32 3.32 0 0 1 10.75 7c-.23.31.04.78.49.71 0 0 1.71-.33 2.3-.36.59-.03 2.71-.13 2.71 1.68 0 1.8-.97 4.52-1.4 5.44-.43.92-1.19 2.15-2.11 2.38-.87.23-1.78.21-2.64-.05L5 15z" fill="#FFC166"/><path opacity=".7" d="M1 10.5C1 9.67 1.67 9 2.5 9H4v6H2.5A1.5 1.5 0 0 1 1 13.5v-3z" fill="#07C"/><path d="M11 .5a.5.5 0 0 0-1 0v1a.5.5 0 0 0 1 0v-1zM6.15 2.15c.2-.2.5-.2.7 0l1 1a.5.5 0 1 1-.7.7l-1-1a.5.5 0 0 1 0-.7zm8.7 0c.2.2.2.5 0 .7l-1 1a.5.5 0 0 1-.7-.7l1-1c.2-.2.5-.2.7 0z" opacity=".4"/></svg>