<svg aria-hidden="true" class="svg-icon iconVK" width="18" height="18" viewBox="0 0 18 18"><path d="M8.44 14.93h1.04s.3-.04.47-.22c.15-.17.15-.48.15-.48s-.03-1.47.62-1.68c.64-.22 1.45 1.41 2.31 2.04.66.48 1.16.38 1.16.38l2.3-.04s1.22-.08.64-1.08c-.04-.08-.32-.75-1.7-2.1-1.45-1.42-1.25-1.2.49-3.65 1.05-1.5 1.48-2.4 1.34-2.8-.12-.36-.9-.27-.9-.27l-2.6.02s-.19-.02-.33.07c-.14.09-.22.3-.22.3s-.42 1.16-.96 2.14c-1.17 2.08-1.64 2.2-1.82 2.06-.43-.3-.32-1.2-.32-1.85 0-2.01.29-3.38-.56-3.6a4.5 4.5 0 0 0-1.22-.13 5.3 5.3 0 0 0-2.15.24c-.3.15-.52.5-.39.51.17.03.56.11.77.41.27.39.25 1.77.25 1.77s.16 2.38-.35 2.67c-.36.2-.83-.21-1.87-2.1-.53-.96-.93-2.03-.93-2.03s-.07-.2-.21-.3c-.16-.13-.4-.18-.4-.18l-2.47.02s-.37.02-.5.19c-.12.14-.01.46-.01.46S2 10.5 4.19 12.9c2.01 2.21 4.29 2.07 4.29 2.07l-.04-.04z" fill="#507299"/></svg>