<svg aria-hidden="true" class="svg-spot spotBell" width="48" height="48" viewBox="0 0 48 48"><path d="M32.2 40.36a1 1 0 0 0 .98-1.03 6.5 6.5 0 0 0-.3-1.7c-.58-1.92-.2-3.98 1.2-8.52a1466.5 1466.5 0 0 1 .7-2.34c.28-.9.5-1.68.7-2.43a19.36 19.36 0 0 0-2.15-15.21 14.65 14.65 0 0 0-1.04-1.46 1 1 0 0 1-.16-1.09c.42-.89.1-1.76-.7-2.13-.8-.37-1.67-.05-2.08.84a1 1 0 0 1-.93.57l-.44.02A18.6 18.6 0 0 0 22.2 7.3a19.65 19.65 0 0 0-8.44 6.91 74.5 74.5 0 0 0-2.08 3.12L11 18.34c-2.58 3.98-3.91 5.6-5.75 6.4-.57.24-1.07.53-1.5.84a1 1 0 0 0 .17 1.71l27.83 12.98c.14.06.3.1.45.09zm2.83-32.29a21.35 21.35 0 0 1 2.39 16.78 77.64 77.64 0 0 1-1.08 3.7l-.36 1.15c-1.25 4.1-1.6 5.98-1.18 7.34.23.78.36 1.53.38 2.24a3 3 0 0 1-4.27 2.8L3.1 29.1a3 3 0 0 1-.52-5.12 9.53 9.53 0 0 1 1.9-1.08c1.31-.57 2.53-2.04 4.86-5.65l.66-1a189.57 189.57 0 0 1 2.13-3.2 21.65 21.65 0 0 1 9.3-7.6 20.59 20.59 0 0 1 6.43-1.57c1-1.47 2.82-2 4.43-1.24a3.49 3.49 0 0 1 1.9 4.18c.23.32.53.74.85 1.25zM18.55 38.86a1 1 0 1 1 1.79.9 2.44 2.44 0 0 0 4.44 2.03 1 1 0 0 1 1.84.77 4.44 4.44 0 1 1-8.07-3.7z"/><path d="M9.85 3.53a1 1 0 0 1 1.81-.84l2.09 4.51a1 1 0 0 1-1.82.84L9.85 3.53zM9.81 9.7a1 1 0 0 1-1.28 1.53l-4.3-3.6A1 1 0 1 1 5.5 6.08l4.31 3.6zm-2.26 3.4a1 1 0 1 1-.04 2l-5.08-.12a1 1 0 0 1 .05-2l5.07.12zm33.78 22.2l-3.69-3.35c-.98-.9.36-2.38 1.35-1.48l3.68 3.34c1 .9-.35 2.38-1.34 1.48zm-1.36-9.11l5.4 1.56c1.27.37.72 2.3-.56 1.92l-5.4-1.56c-1.28-.37-.72-2.3.56-1.92zm.23-4.31l4.7-1.63c1.26-.44 1.92 1.45.66 1.89l-4.7 1.63c-1.26.43-1.92-1.46-.66-1.9zm-25.12-.58a1 1 0 0 1-1.78-.92c3.62-7.07 8.02-10.8 13.34-11.26a1 1 0 1 1 .18 2c-4.54.39-8.4 3.66-11.74 10.17z" opacity=".5"/></svg>