<svg aria-hidden="true" class="svg-spot spotBrand" width="48" height="48" viewBox="0 0 48 48"><path d="M30.94 33a1 1 0 1 1 0-2H44a3 3 0 0 1 3 3v10a3 3 0 0 1-3 3H19a1 1 0 1 1 0-2h25a1 1 0 0 0 1-1V34a1 1 0 0 0-1-1H30.94z" opacity=".5"/><path d="M9 43a4 4 0 1 1 0-8 4 4 0 0 1 0 8zm0-2a2 2 0 1 0 0-4 2 2 0 0 0 0 4z"/><path d="M19.67 19.85a1 1 0 1 1-1.42-1.42L29.5 7.2a3 3 0 0 1 4.24 0l7.07 7.07a3 3 0 0 1 0 4.24L19.74 39.58a1 1 0 1 1-1.42-1.42L39.38 17.1a1 1 0 0 0 0-1.41l-7.07-7.07a1 1 0 0 0-1.41 0L19.67 19.85z" opacity=".5"/><path d="M4 3a1 1 0 0 0-1 1v40a1 1 0 0 0 1 1h10a1 1 0 0 0 1-1V4a1 1 0 0 0-1-1H4zm0-2h10a3 3 0 0 1 3 3v40a3 3 0 0 1-3 3H4a3 3 0 0 1-3-3V4a3 3 0 0 1 3-3z"/></svg>