<svg aria-hidden="true" class="svg-spot spotContent" width="48" height="48" viewBox="0 0 48 48"><path d="M44 3a1 1 0 0 1 1 1v40a1 1 0 0 1-1 1H4a1 1 0 0 1-1-1V4a1 1 0 0 1 1-1h40zm0-2H4a3 3 0 0 0-3 3v40a3 3 0 0 0 3 3h40a3 3 0 0 0 3-3V4a3 3 0 0 0-3-3z"/><path d="M38 7a1 1 0 0 1 1 1v32a1 1 0 0 1-2 0V8a1 1 0 0 1 1-1z"/><path d="M20.73 30.17l-.85-2.24H12.6l-.85 2.3c-.34.89-.62 1.5-.86 1.8-.23.32-.62.48-1.16.48a1.7 1.7 0 0 1-1.2-.5A1.53 1.53 0 0 1 8 30.87c0-.24.04-.5.12-.76.08-.26.22-.62.4-1.08L13.1 17.4l.47-1.2c.19-.47.38-.86.59-1.17a2.39 2.39 0 0 1 2.07-1.04c.5 0 .92.1 1.26.29.34.19.61.43.82.74.2.3.38.62.52.97.15.34.33.8.55 1.38l4.67 11.55c.37.88.55 1.52.55 1.92 0 .41-.17.8-.52 1.14a1.7 1.7 0 0 1-1.25.52 1.5 1.5 0 0 1-1.25-.57 3.82 3.82 0 0 1-.44-.8c-.16-.37-.3-.69-.4-.97zm-7.18-4.96h5.35l-2.7-7.39-2.65 7.39zm21.9 5.42c-.8.62-1.58 1.1-2.33 1.4-.76.32-1.6.48-2.54.48a4.8 4.8 0 0 1-2.25-.51 3.7 3.7 0 0 1-1.5-1.37 3.56 3.56 0 0 1-.52-1.88c0-.92.29-1.7.87-2.34a4.33 4.33 0 0 1 2.38-1.29l1.57-.33a41.21 41.21 0 0 0 4.1-.99 3.48 3.48 0 0 0-.53-1.93c-.31-.41-.96-.62-1.94-.62a4.1 4.1 0 0 0-1.91.35c-.43.24-.8.6-1.1 1.07-.3.47-.52.78-.65.93-.13.15-.4.23-.81.23-.38 0-.7-.12-.97-.36s-.41-.55-.41-.93c0-.58.2-1.15.62-1.7a4.44 4.44 0 0 1 1.94-1.37 8.74 8.74 0 0 1 3.29-.54 9.3 9.3 0 0 1 3.45.52c.84.35 1.43.9 1.78 1.64.34.75.52 1.74.52 2.98a273.17 273.17 0 0 1-.03 3.8c0 .64.1 1.29.31 1.97.21.68.31 1.12.31 1.31 0 .34-.16.65-.48.93-.32.29-.68.43-1.1.43-.33 0-.67-.16-1-.49a7.16 7.16 0 0 1-1.07-1.4zm-.22-4.83c-.48.18-1.2.37-2.13.57-.93.2-1.57.35-1.93.44-.36.1-.7.28-1.03.55a1.4 1.4 0 0 0-.48 1.14c0 .5.19.94.57 1.29.38.35.88.53 1.5.53a3.9 3.9 0 0 0 1.83-.43 2.9 2.9 0 0 0 1.22-1.12c.3-.5.45-1.33.45-2.49v-.48z" opacity=".5"/></svg>