<svg aria-hidden="true" class="svg-spot spotEmail" width="48" height="48" viewBox="0 0 48 48"><path d="M17.16 6c-.8.04-1.48.62-1.62 1.41 0 .06 0 .06 0 0-.2-.8-.9-1.37-1.71-1.4a1.76 1.76 0 0 0-1.81 2c0 1.67 2.22 3.22 3.09 3.84.24.2.58.2.82 0 .8-.59 3.09-2.17 3.09-3.85 0-.88-.26-2-1.86-2zM1.56 16.5a1 1 0 0 1 1.04-1.7l20.36 12.4a2 2 0 0 0 2.08 0l20.5-12.49a1 1 0 1 1 1.05 1.71L26.08 28.9a4 4 0 0 1-4.16 0L1.56 16.5z"/><path d="M7.7 39.7a1 1 0 1 1-1.4-1.4l12-12a1 1 0 0 1 1.4 1.4l-12 12zm32.6 0a1 1 0 0 0 1.4-1.4l-12-12a1 1 0 0 0-1.4 1.4l12 12zM23 14a1 1 0 0 1 0-2h13a1 1 0 0 1 0 2H23zm0-5a1 1 0 0 1 0-2h8a1 1 0 0 1 0 2h-8zm0 10a1 1 0 0 1 0-2h8a1 1 0 0 1 0 2h-8z" opacity=".5"/><path d="M44 12a1 1 0 0 1 0-2 3 3 0 0 1 3 3v31a3 3 0 0 1-3 3H4a3 3 0 0 1-3-3V13a3 3 0 0 1 3-3 1 1 0 0 1 0 2 1 1 0 0 0-1 1v31a1 1 0 0 0 1 1h40a1 1 0 0 0 1-1V13a1 1 0 0 0-1-1z"/><path d="M8 14a1 1 0 0 1-2 0V4a3 3 0 0 1 3-3h30a3 3 0 0 1 3 3v10a1 1 0 0 1-2 0V4a1 1 0 0 0-1-1H9a1 1 0 0 0-1 1v10z" opacity=".5"/></svg>