<svg aria-hidden="true" class="svg-spot spotLocation" width="48" height="48" viewBox="0 0 48 48"><path d="M23.92 38.88l.02.04c.1.1.13.1.26-.04l.57-.67 1.53-1.86c1.58-1.97 3.16-4.07 4.63-6.2a67.5 67.5 0 0 0 3.59-5.77c1.96-3.58 3.03-6.61 3.03-8.84C37.55 8 31.92 3 24.05 3c-7.86 0-13.5 5-13.5 12.54 0 2.23 1.08 5.26 3.04 8.85a66.2 66.2 0 0 0 3.6 5.76 106.07 106.07 0 0 0 6.73 8.73zm-2.1.62a108.04 108.04 0 0 1-6.28-8.22 69.5 69.5 0 0 1-3.7-5.93c-2.11-3.86-3.29-7.16-3.29-9.81C8.55 6.84 15.13 1 24.05 1s15.5 5.83 15.5 14.54c0 2.64-1.17 5.95-3.28 9.8a69.45 69.45 0 0 1-3.7 5.94 107.96 107.96 0 0 1-6.84 8.88 2.1 2.1 0 0 1-3.33.03 55 55 0 0 1-.59-.69zm2.23-16.85a7.14 7.14 0 1 1 0-14.27 7.14 7.14 0 0 1 0 14.27zm0-2a5.14 5.14 0 1 0 0-10.27 5.14 5.14 0 0 0 0 10.27z"/><path d="M35.55 33a1 1 0 0 1 0-2h1.77c1.13 0 2.17.64 2.64 1.6L46 42.65A3 3 0 0 1 43.32 47H4a3 3 0 0 1-2.57-4.55l6.68-9.94a3 3 0 0 1 2.6-1.51h1.84a1 1 0 1 1 0 2h-1.84c-.35 0-.69.2-.9.57L3.13 43.5A1 1 0 0 0 4 45h39.32a1 1 0 0 0 .44-.1c.5-.25.7-.85.49-1.28L38.2 33.55a1 1 0 0 0-.9-.55h-1.76z" opacity=".5"/></svg>