<svg aria-hidden="true" class="svg-spot spotLocation" width="48" height="48" viewBox="0 0 48 48"><path d="M35.55 33a1 1 0 0 1 0-2h1.77c1.13 0 2.17.64 2.64 1.6L46 42.65A3 3 0 0 1 43.32 47H4a3 3 0 0 1-2.57-4.55l6.68-9.94a3 3 0 0 1 2.6-1.51h1.84a1 1 0 1 1 0 2h-1.84c-.35 0-.69.2-.9.57L3.13 43.5A1 1 0 0 0 4 45h39.32a1 1 0 0 0 .44-.1c.5-.25.7-.85.49-1.28L38.2 33.55a1 1 0 0 0-.9-.55h-1.76z" opacity=".5"/><path d="M23.93 39.92c.08.1.06.1.14-.01l.56-.73a128.54 128.54 0 0 0 8.72-13.3C35.7 21.61 37 18.15 37 15.9 37 8.77 31.18 3 24 3S11 8.77 11 15.9c0 2.25 1.3 5.71 3.65 9.99a88.52 88.52 0 0 0 2.77 4.66 132.62 132.62 0 0 0 6.51 9.37zm-2.15.47a130.63 130.63 0 0 1-8.89-13.54C10.4 22.3 9 18.59 9 15.89 9 7.67 15.72 1 24 1c8.28 0 15 6.67 15 14.9 0 2.69-1.4 6.4-3.9 10.94a90.07 90.07 0 0 1-2.82 4.78 134.49 134.49 0 0 1-6.61 9.5 2.02 2.02 0 0 1-3.32.02l-.57-.75z"/><path d="M24 23a7 7 0 1 1 0-14 7 7 0 0 1 0 14zm0-2a5 5 0 1 0 0-10 5 5 0 0 0 0 10z"/></svg>