<svg aria-hidden="true" class="svg-spot spotProduct" width="48" height="48" viewBox="0 0 48 48"><path d="M7 8a1 1 0 1 1 0-2h19a1 1 0 0 1 0 2H7z" opacity=".5"/><path d="M6 22l3 3 6-6v3l-6 6-3-3z"/><path d="M19 23a1 1 0 0 1 0-2h19a1 1 0 0 1 0 2H19zm0 4a1 1 0 0 1 0-2h9.5a1 1 0 0 1 0 2H19z" opacity=".5"/><path d="M4 17a1 1 0 0 0-1 1v12a1 1 0 0 0 1 1h40a1 1 0 0 0 1-1V18a1 1 0 0 0-1-1H4zm0-2h40a3 3 0 0 1 3 3v12a3 3 0 0 1-3 3H4a3 3 0 0 1-3-3V18a3 3 0 0 1 3-3z"/><path d="M4 3a1 1 0 0 0-1 1v6a1 1 0 0 0 1 1h40a1 1 0 0 0 1-1V4a1 1 0 0 0-1-1H4zm0-2h40a3 3 0 0 1 3 3v6a3 3 0 0 1-3 3H4a3 3 0 0 1-3-3V4a3 3 0 0 1 3-3zM7 42a1 1 0 0 1 0-2h19a1 1 0 0 1 0 2H7z" opacity=".5"/><path d="M4 37a1 1 0 0 0-1 1v6a1 1 0 0 0 1 1h40a1 1 0 0 0 1-1v-6a1 1 0 0 0-1-1H4zm0-2h40a3 3 0 0 1 3 3v6a3 3 0 0 1-3 3H4a3 3 0 0 1-3-3v-6a3 3 0 0 1 3-3z" opacity=".5"/></svg>