<svg aria-hidden="true" class="svg-spot spotShield" width="48" height="48" viewBox="0 0 48 48"><path d="M21.04 24h6v-1a1 1 0 1 1 2 0v1.13a4 4 0 0 1 3 3.87v7a4 4 0 0 1-4 4h-8a4 4 0 0 1-4-4v-7a4 4 0 0 1 3-3.87V20a5 5 0 0 1 8.78-3.27 1 1 0 1 1-1.51 1.3A2.99 2.99 0 0 0 21.04 20v4zm-1 2a2 2 0 0 0-2 2v7c0 1.1.9 2 2 2h8a2 2 0 0 0 2-2v-7a2 2 0 0 0-2-2h-8zm2 9l1.14-2.8a.57.57 0 0 0-.25-.59 1.9 1.9 0 0 1-.9-1.61 2 2 0 0 1 1.99-2c1.08 0 2.02.91 2.02 2a1.9 1.9 0 0 1-.9 1.61.58.58 0 0 0-.24.59l1.14 2.8h-4z"/><path d="M7.2 9.76A2 2 0 0 0 6 11.6v9.46a1 1 0 1 1-2 0V11.6a4 4 0 0 1 2.44-3.7l17.19-6.84a1 1 0 0 1 .74 0l17.21 6.86A4 4 0 0 1 44 11.6v1.68a1 1 0 0 1-2 0V11.6a2 2 0 0 0-1.18-1.83L24 3.07 7.2 9.78zM4.39 27.84a1 1 0 1 1 1.96-.4c1.01 4.99 4 9.46 8.2 12.92C17.96 43.18 21.89 45 24 45c2.38 0 6.96-2.3 10.63-5.67C39.23 35.1 42 29.82 42 24.06v-4.04a1 1 0 1 1 2 0v4.04c0 6.37-3.03 12.16-8.01 16.74-4 3.68-9.03 6.2-11.99 6.2-2.66 0-7-2.01-10.73-5.1-4.53-3.73-7.78-8.59-8.89-14.06z"/><path d="M1.4 20.02a1 1 0 1 1 1.51 1.3c-1.25 1.45-1.2 1.89-.05 2.29.82.28 5.78-.34 13.97-1.9a1 1 0 1 1 .38 1.96c-8.94 1.7-13.65 2.29-15 1.83-2.68-.92-2.89-3.07-.81-5.48zm21.83 2.5a1 1 0 1 1-.4-1.95c9.26-1.87 19.63-4.67 21.7-5.65 1.55-.74 1.64-1.17.54-2.19a1 1 0 1 1 1.35-1.46c2.19 2.01 1.75 4.13-1.04 5.46-2.25 1.07-12.74 3.9-22.15 5.8z" opacity=".5"/></svg>