<svg aria-hidden="true" class="svg-spot spotTrash" width="48" height="48" viewBox="0 0 48 48"><path d="M39 14H9v30a1 1 0 0 0 1 1h28a1 1 0 0 0 1-1V14zM7 12h34a2 2 0 1 0 0-4H7a2 2 0 1 0 0 4zm34 2v30a3 3 0 0 1-3 3H10a3 3 0 0 1-3-3V14a4 4 0 1 1 0-8h34a4 4 0 1 1 0 8z"/><path d="M18 39a1 1 0 0 1-2 0V20a1 1 0 0 1 2 0v19zm7 0a1 1 0 0 1-2 0V20a1 1 0 0 1 2 0v19zm7 0a1 1 0 0 1-2 0V20a1 1 0 0 1 2 0v19zM12.43 4.45a1 1 0 0 1-1.71-1.03A5 5 0 0 1 15 1h18a5 5 0 0 1 4.28 2.42 1 1 0 0 1-1.7 1.03A3 3 0 0 0 33 3H15a3 3 0 0 0-2.57 1.45z" opacity=".5"/></svg>