<svg aria-hidden="true" class="svg-spot spotWave" width="48" height="48" viewBox="0 0 48 48"><path d="M21.52 3.38c-.95.55-1.09 1.22-.4 2.53.8 1.51 5.13 11.6 6.4 14.75a1.27 1.27 0 0 1-2.21 1.2L14.22 5.9a1.83 1.83 0 0 0-2.46-.55c-.4.23-.65.56-.73.95-.09.38 0 .8.25 1.19L21.6 23.15c.38.57.22 1.32-.39 1.74-.58.35-1.19.24-1.62-.22L9.31 13.32c-.58-.62-1.22-.96-1.88-.93-.3.02-.6.11-.9.3-.32.18-.5.4-.54.66-.07.38.1.9.52 1.39.4.45 2.22 2.71 5.08 6.28l5.63 7.03.06.08c.41.51.35 1.24-.12 1.68a1.3 1.3 0 0 1-1.61.11l-9.82-6.9a2.92 2.92 0 0 0-1.76-.61c-.26.01-.5.08-.74.21-.05.03-.13.18-.17.4-.04.28.02.56.17.8.42.64 1.52 1.6 4.4 3.92L9.8 29.5a61.5 61.5 0 0 1 3.65 3.22 31.17 31.17 0 0 1 2.49 2.68c5.44 6.23 8.69 8.67 13.29 8.43a11.1 11.1 0 0 0 4.98-1.6c4.3-2.48 5.53-4.76 7.27-11.6l.22-.9c.94-3.63 1.67-6.91 2.16-9.35.3-1.21-.5-2.42-1.83-2.71a2.71 2.71 0 0 0-1.92.29c-.56.32-.94.82-1.08 1.37l-1.45 6.21c-.12.53-.57.91-1.1.97a1 1 0 0 1-.27 0c-.45-.08-.77-.23-1-.68L24.17 4.1c-.67-.96-1.77-1.24-2.65-.73zm14.57 19.76l1-4.28c.28-1.1 1-2.04 2.02-2.63 1-.58 2.2-.76 3.34-.52a4.23 4.23 0 0 1 3.36 5.11 195.2 195.2 0 0 1-2.17 9.41l-.22.89c-1.86 7.32-3.31 10.02-8.2 12.85a13.11 13.11 0 0 1-5.89 1.86c-3.08.16-5.94-.92-8.75-3.03-2-1.5-3.44-2.98-6.15-6.09a29.19 29.19 0 0 0-2.37-2.55c-.97-.94-2.1-1.94-3.53-3.12-.6-.5-1.08-.88-2.15-1.74-3.16-2.55-4.22-3.48-4.82-4.38a3.12 3.12 0 0 1-.47-2.22 2.5 2.5 0 0 1 1.14-1.8 3.6 3.6 0 0 1 1.63-.5 4.8 4.8 0 0 1 3.02 1l5.6 3.92A4665.34 4665.34 0 0 0 5 16.04a3.71 3.71 0 0 1-.98-3.06 3 3 0 0 1 1.5-2.03 4.01 4.01 0 0 1 1.8-.55c1.35-.07 2.5.54 3.46 1.56l3.87 4.27L9.6 8.59a3.54 3.54 0 0 1-.53-2.73c.2-.94.81-1.74 1.67-2.24a3.88 3.88 0 0 1 5.13 1.16l7.08 10.2a229.6 229.6 0 0 0-3.6-8.13c-1.16-2.21-.8-4.07 1.15-5.2 1.83-1.06 4.11-.46 5.36 1.39l.06.1 10.16 20z"/><path d="M33.61 7.97a1 1 0 0 1 .97-1.75c3.2 1.76 5.2 3.77 5.97 6.06a1 1 0 0 1-1.9.63c-.58-1.74-2.24-3.4-5.04-4.94zm.2-4.91a1 1 0 0 1 .57-1.92c5.97 1.75 10.05 5.65 12.16 11.62a1 1 0 1 1-1.89.67c-1.9-5.37-5.48-8.8-10.84-10.37zM14.58 40.22a1 1 0 0 1-.97 1.75c-3.2-1.76-5.2-3.77-5.96-6.06a1 1 0 0 1 1.9-.63c.57 1.74 2.23 3.4 5.03 4.94zm-.2 4.92a1 1 0 1 1-.57 1.92C7.84 45.3 3.76 41.4 1.65 35.43a1 1 0 0 1 1.89-.67c1.9 5.37 5.48 8.8 10.84 10.38z" opacity=".5"/></svg>