<svg fill="none" height="136" viewBox="0 0 700 136" width="700" xmlns="http://www.w3.org/2000/svg"><path d="m84.0211 75.8252v30.9998h-73.0211v-30.9998h-11v41.9998h95v-41.9998z" fill="#bcbbbb"/><path d="m21.0566 96.8252h52.9432v-10h-52.9432zm1.0582-23.9153 51.4286 10.7936 2.1164-10.2645-51.4286-10.7936zm6.7725-24.656 47.619 22.2222 4.4445-9.5238-47.619-22.2222zm13.2275-23.3862 40.4233 33.6507 6.7724-8.0423-40.529-33.6507zm26.0317-24.8677-8.4656 6.24337 31.3228 42.22213 8.4656-6.2434z" fill="#f48024"/><path d="m150.054 41.8301h3.216v54.6757h-3.216z" fill="#d6d9dc"/><path d="m699.25 42.3125v-16.0125h-3.562l-4.575 8.55-4.575-8.55h-3.563v16.0125h3.563v-9.45l3 5.8875h3.15l3-5.8875v9.45zm-18.75-12.825v-3.1875h-11.812v3.1875h4.124v12.825h3.563v-12.825z" fill="#858585" opacity=".3"/><g fill="#2f3337"><path d="m245.564 77.4674h-7.673c-.799 0-1.439.4793-1.598 1.2781-.32 1.4379-.96 2.8758-1.759 3.9941-.799 1.1184-1.758 1.9172-2.877 2.5562-1.119.6391-2.557.9586-3.996.9586-1.279 0-2.398-.1598-3.517-.6391-1.119-.4792-2.078-1.1183-2.717-1.7573-.639-.6391-.959-1.4379-1.279-1.9172-.319-.6391-.479-1.4379-.799-2.5562-.16-1.1184-.32-2.5562-.48-3.9941 0-1.4379-.159-3.5148-.159-6.2308 0-2.7159 0-4.7929.159-6.2307 0-1.4379.16-2.716.48-3.9941.16-1.1184.48-1.9172.799-2.5562.32-.6391.64-1.2781 1.279-1.9172.799-.7988 1.598-1.4379 2.717-1.7574 1.119-.4793 2.238-.639 3.517-.639 2.238 0 4.156.639 5.594 1.9171 1.439 1.2781 2.398 3.0355 3.038 5.432.159.7988.799 1.2781 1.598 1.2781h7.832c.48 0 .959-.1598 1.279-.6391.32-.3195.48-.7988.32-1.2781-.959-5.2722-3.197-9.426-6.554-12.3018-3.516-2.8757-7.832-4.3136-12.787-4.3136-2.718 0-5.435.4793-7.833 1.4379-2.717.7988-4.955 2.2367-6.873 4.1538-1.279 1.4379-2.238 2.8758-3.037 4.3137-.64 1.2781-1.279 2.8757-1.599 4.4733-.319 1.5977-.479 3.3551-.639 5.1125v7.3491c0 3.994.16 7.0296.32 9.2662.16 2.2367.639 4.3136 1.438 6.3906.8 2.0769 2.078 3.8343 3.677 5.7514 1.119 1.1184 2.557 2.2367 4.156 3.1953 1.598.9586 3.197 1.5976 4.795 2.0769s3.517.6391 5.275.6391c2.398 0 4.795-.3195 6.873-1.1184 2.238-.7988 4.156-1.7573 5.914-3.1952 1.759-1.4379 3.197-3.1953 4.316-5.2722s1.918-4.4734 2.398-7.1894c0-.4792 0-.9585-.32-1.2781-.479-.639-.959-.7988-1.278-.7988z"/><path d="m291.599 53.503c-.799-2.077-1.918-3.9941-3.677-5.7515-3.996-3.8343-8.791-5.7515-14.386-5.7515-5.594 0-10.39 1.9172-14.226 5.7515-1.279 1.2781-2.397 2.716-3.037 4.1538-.639 1.4379-1.279 3.0355-1.598 4.6332-.32 1.5976-.48 3.355-.64 5.1124s-.16 4.3136-.16 7.3491c0 3.9941.16 7.0296.32 9.2663s.64 4.3136 1.439 6.3905 2.078 3.8343 3.676 5.7515c3.836 3.8343 8.632 5.7515 14.226 5.7515 5.595 0 10.39-1.9172 14.386-5.9113 1.599-1.7574 2.878-3.6745 3.677-5.7515.799-1.9171 1.119-4.1538 1.279-6.3905.159-2.0769.159-5.2722.159-9.2663 0-3.994 0-7.0296-.159-9.2662-.16-2.077-.64-4.1539-1.279-6.071zm-9.271 15.497c0 3.1953 0 5.7515-.16 7.6686-.16 1.7574-.32 3.1953-.799 4.1539-.32.9586-.799 1.7574-1.599 2.5562-1.598 1.7574-3.676 2.5562-6.234 2.5562-1.278 0-2.397-.1598-3.516-.639-1.119-.4793-2.078-1.1184-2.718-1.7574-.639-.6391-1.118-1.2781-1.278-1.9172-.16-.3195-.48-1.1183-.64-2.3965-.16-1.1183-.319-2.3964-.479-3.994 0-1.5977-.16-3.6746-.16-6.2308 0-4.7929.16-8.3077.479-10.2249.32-1.7573.96-3.1952 1.919-4.3136.639-.7988 1.598-1.4378 2.717-1.9171s2.398-.6391 3.517-.6391c1.278 0 2.397.3196 3.516.6391 1.119.4793 2.078 1.1183 2.717 1.9171.96 1.1184 1.599 2.3965 1.919 4.1539.639 2.0769.799 5.5917.799 10.3846z"/><path d="m335.396 85.6154h-22.538v-41.5385c0-.9585-.639-1.5976-1.598-1.5976h-7.673c-.959 0-1.598.6391-1.598 1.5976v50.006c0 .9585.639 1.5976 1.598 1.5976h31.809c.959 0 1.599-.6391 1.599-1.5976v-6.8699c0-.7988-.64-1.5976-1.599-1.5976z"/><path d="m377.435 85.6154h-22.538v-41.5385c0-.9585-.639-1.5976-1.598-1.5976h-7.673c-.959 0-1.598.6391-1.598 1.5976v50.006c0 .9585.639 1.5976 1.598 1.5976h31.809c.959 0 1.599-.6391 1.599-1.5976v-6.8699c0-.7988-.799-1.5976-1.599-1.5976z"/><path d="m419.634 42.4793h-31.969c-.959 0-1.598.6391-1.598 1.5976v50.006c0 .9585.639 1.5976 1.598 1.5976h31.969c.959 0 1.599-.6391 1.599-1.5976v-6.8699c0-.9585-.64-1.5976-1.599-1.5976h-22.858v-11.8225h19.182c.959 0 1.598-.639 1.598-1.5976v-6.7101c0-.9586-.639-1.5976-1.598-1.5976h-19.182v-11.503h22.858c.959 0 1.599-.639 1.599-1.5976v-6.7101c0-.9585-.799-1.5976-1.599-1.5976z"/><path d="m464.391 77.4675h-7.673c-.799 0-1.438.4792-1.598 1.2781-.32 1.4378-.959 2.8757-1.758 3.994-.8 1.1184-1.759 1.9172-2.878 2.5563-1.118.639-2.557.9585-3.996.9585-1.278 0-2.397-.1597-3.516-.639s-2.078-1.1184-2.718-1.7574c-.639-.6391-.959-1.4379-1.278-1.9172-.32-.639-.48-1.4378-.8-2.5562-.159-1.1183-.319-2.5562-.479-3.9941 0-1.4378-.16-3.5148-.16-6.2307 0-2.716 0-4.7929.16-6.2308 0-1.4379.16-2.716.479-3.9941.16-1.1183.48-1.9172.8-2.5562.319-.6391.799-1.2781 1.278-1.7574.8-.7988 1.599-1.4379 2.718-1.7574 1.119-.4793 2.238-.6391 3.516-.6391 2.238 0 4.156.6391 5.595 1.9172s2.398 3.0355 3.037 5.432c.16.7988.799 1.2781 1.598 1.2781h7.833c.479 0 .959-.1598 1.279-.6391.319-.3195.479-.7988.319-1.2781-.959-5.2722-3.197-9.426-6.553-12.3018-3.517-2.8757-7.833-4.3136-12.788-4.3136-2.717 0-5.435.4793-7.832 1.4379-2.398.9586-4.636 2.3964-6.554 4.3136-1.279 1.2781-2.398 2.716-3.037 4.1538-.639 1.4379-1.279 3.0356-1.598 4.6332-.32 1.5976-.48 3.355-.64 5.1124s-.16 4.3136-.16 7.3491c0 3.9941.16 7.0296.32 9.2663s.639 4.3136 1.439 6.3905c.799 2.077 2.078 3.8343 3.676 5.7515 1.119 1.1184 2.558 2.2367 4.156 3.1953s3.197 1.5976 4.795 2.0769c1.599.4793 3.517.6391 5.275.6391 2.398 0 4.796-.3196 6.874-1.1184 2.237-.7988 4.156-1.7574 5.914-3.1953 1.758-1.4378 3.197-3.1952 4.316-5.2721 1.119-2.077 1.918-4.4734 2.397-7.1894 0-.4793 0-.9586-.319-1.2781-.48-.9586-.959-1.1183-1.439-1.1183z"/><path d="m507.069 42.4793h-35.165c-.959 0-1.599.6391-1.599 1.5976v6.8699c0 .9585.64 1.5976 1.599 1.5976h12.148v41.5385c0 .9585.639 1.5976 1.598 1.5976h7.513c.959 0 1.598-.6391 1.598-1.5976v-41.5385h12.149c.959 0 1.598-.6391 1.598-1.5976v-6.8699c.16-.9585-.639-1.5976-1.439-1.5976z"/><path d="m524.812 42.4793h-7.673c-.959 0-1.598.6391-1.598 1.5976v50.006c0 .9585.639 1.5976 1.598 1.5976h7.673c.959 0 1.598-.6391 1.598-1.5976v-50.006c0-.9585-.639-1.5976-1.598-1.5976z"/><path d="m573.245 42.4793h-7.992c-.639 0-1.279.4793-1.598 1.1184l-10.071 31.6331-9.91-31.6331c-.16-.6391-.799-1.1184-1.598-1.1184h-7.833c-.479 0-.959.3195-1.278.6391-.32.3195-.32.9585-.16 1.4378l16.464 50.006c.16.639.799 1.1183 1.598 1.1183h5.914c.64 0 1.279-.4793 1.439-1.1183l16.624-50.006c.16-.4793 0-.9585-.16-1.4378-.48-.4793-.959-.6391-1.439-.6391z"/><path d="m614.645 42.4793h-31.969c-.959 0-1.598.6391-1.598 1.5976v50.006c0 .9585.639 1.5976 1.598 1.5976h31.969c.959 0 1.598-.6391 1.598-1.5976v-6.8699c0-.9585-.639-1.5976-1.598-1.5976h-22.858v-11.8225h19.182c.959 0 1.598-.639 1.598-1.5976v-6.7101c0-.9586-.639-1.5976-1.598-1.5976h-19.182v-11.503h22.858c.959 0 1.598-.639 1.598-1.5976v-6.7101c0-.9585-.639-1.5976-1.598-1.5976z"/><path d="m656.364 68.361c-1.119-1.1184-2.557-1.9172-4.156-2.5562-1.598-.6391-3.516-1.1184-5.914-1.4379l-5.754-.7988c-.959-.1598-1.918-.3196-2.878-.7989-.799-.3195-1.598-.7988-1.918-1.1183-.959-.7988-1.278-1.9172-1.278-3.5148 0-1.2781.319-2.2367.799-3.1953.639-.9585 1.438-1.5976 2.397-2.0769 1.119-.4793 2.558-.7988 4.156-.7988 1.439 0 2.718.1598 3.837.3195 1.119.1598 2.078.6391 3.197 1.1184.959.4793 1.918 1.1183 2.877 2.0769.639.6391 1.598.6391 2.238 0l4.955-4.7929c.32-.3195.479-.7988.479-1.1183 0-.4793-.159-.7989-.479-1.1184-2.238-2.0769-4.796-3.6745-7.353-4.6331-2.558-.9586-5.754-1.4379-9.271-1.4379-3.676 0-6.873.6391-9.591 1.9172-2.717 1.2781-4.955 3.355-6.393 5.7514-1.439 2.3965-2.238 5.2722-2.238 8.4675 0 4.4734 1.438 8.1479 4.156 10.7041 2.557 2.3965 5.914 3.8344 10.39 4.4734l5.914.7988c1.279.1598 2.397.4793 3.037.6391.639.1598 1.119.4793 1.598 1.1183.959.7988 1.439 2.2367 1.439 3.9941 0 1.9172-.639 3.355-2.078 4.3136-1.599 1.1184-3.836 1.7574-6.714 1.7574-1.598 0-3.196-.1597-4.475-.4793-1.279-.3195-2.558-.7988-3.836-1.4378-1.119-.6391-2.238-1.4379-3.357-2.5563-.32-.3195-.64-.4792-1.119-.4792-.48 0-.799.1597-1.119.4792l-5.115 4.9527c-.32.3195-.48.6391-.48 1.1184 0 .4792.16.7988.48 1.1183 2.557 2.5562 5.275 4.3136 8.312 5.432 3.037 1.1183 6.553 1.5976 10.55 1.5976 2.717 0 5.434-.3195 7.672-1.1184 2.398-.639 4.476-1.7574 6.234-3.1952 1.758-1.4379 3.197-3.1953 4.156-5.2722s1.439-4.3136 1.439-6.7101c-.16-4.9526-1.759-8.787-4.796-11.5029z"/></g><path d="m428.195 123.067-3.424-.311c-2.698-.208-3.736-1.314-3.736-3.113 0-2.179 1.66-3.528 4.773-3.528 2.214 0 4.151.519 5.672 1.695l2.041-2.041c-1.902-1.556-4.635-2.282-7.678-2.282-4.566 0-7.852 2.351-7.852 6.26 0 3.528 2.214 5.395 6.364 5.741l3.528.312c2.456.207 3.563 1.245 3.563 3.112 0 2.525-2.179 3.77-5.672 3.77-2.664 0-4.946-.691-6.641-2.455l-2.075 2.075c2.352 2.248 5.153 3.078 8.75 3.078 5.154 0 8.681-2.386 8.681-6.502 0-4.012-2.559-5.465-6.294-5.811zm26.701-9.58c-3.424 0-5.569.691-7.471 3.078-.035.034 2.041 2.04 2.041 2.04 1.245-1.764 2.663-2.421 5.395-2.421 3.909 0 5.465 1.557 5.465 4.67v2.04h-6.433c-4.773 0-7.367 2.421-7.367 6.157 0 1.694.553 3.285 1.591 4.323 1.349 1.384 3.078 1.937 6.018 1.937 2.871 0 4.427-.553 6.156-2.283v2.041h3.113v-14.492c.035-4.6-2.767-7.09-8.508-7.09zm5.43 14.042c0 1.764-.346 3.009-1.072 3.701-1.349 1.314-2.94 1.418-4.773 1.418-3.39 0-4.912-1.176-4.912-3.632s1.557-3.77 4.773-3.77h5.984zm15.357-11.276c2.04 0 3.285.623 4.911 2.387l2.075-2.041c-2.179-2.352-4.046-3.112-6.986-3.112-5.396 0-9.443 3.631-9.443 10.929s4.082 10.93 9.443 10.93c2.94 0 4.807-.796 7.021-3.182l-2.11-2.041c-1.591 1.764-2.871 2.421-4.911 2.421-2.076 0-3.805-.83-4.946-2.421-1.003-1.384-1.384-3.044-1.384-5.742 0-2.697.381-4.323 1.384-5.741 1.141-1.556 2.87-2.387 4.946-2.387zm26.735-2.524h-3.908l-9.684 9.407v-18.919h-3.113v30.886h3.113v-7.782l3.804-3.804 7.16 11.586h3.874l-8.855-13.765zm14.7-1.107c-3.286 0-5.499 1.28-6.883 2.732-2.006 2.075-2.525 4.6-2.525 8.612 0 4.047.519 6.572 2.525 8.647 1.349 1.453 3.597 2.733 6.883 2.733s5.534-1.28 6.917-2.733c2.006-2.075 2.525-4.6 2.525-8.647 0-4.012-.519-6.537-2.525-8.612-1.383-1.452-3.631-2.732-6.917-2.732zm2.594 16.74c-.657.657-1.487.968-2.594.968s-1.937-.345-2.56-.968c-1.141-1.141-1.279-3.113-1.279-5.43 0-2.318.138-4.22 1.279-5.361.658-.657 1.453-.969 2.56-.969s1.971.346 2.594.969c1.141 1.141 1.28 3.078 1.28 5.361 0 2.317-.139 4.289-1.28 5.43zm21.582-16.498-4.496 13.731-4.531-13.731h-5.811l8.198 22.239h4.357l8.163-22.239zm15.288-.242c-5.776 0-9.685 4.081-9.685 11.344 0 8.993 5.05 11.38 10.273 11.38 4.012 0 6.191-1.246 8.439-3.494l-3.355-3.286c-1.418 1.419-2.594 2.076-5.05 2.076-3.113 0-4.877-2.076-4.877-4.946h13.904v-2.491c.035-6.087-3.458-10.583-9.649-10.583zm-4.22 9.269c.035-.968.173-1.591.519-2.386.588-1.315 1.833-2.318 3.701-2.318 1.867 0 3.113.969 3.701 2.318.345.795.484 1.418.518 2.386zm22.101-6.883v-2.144h-5.43v22.239h5.534v-13.385c0-2.801 1.868-4.081 3.597-4.081 1.349 0 2.075.45 2.94 1.314l4.185-4.219c-1.522-1.522-3.078-2.076-5.257-2.076-2.352-.034-4.497 1.073-5.569 2.352zm12.555-4.461v24.522h5.534v-17.536h4.116v-4.219h-4.081v-2.421c0-1.28.657-2.007 1.971-2.007h2.145v-4.703h-3.148c-4.565 0-6.537 3.216-6.537 6.364zm32.478 2.075c-3.286 0-5.5 1.28-6.883 2.732-2.006 2.075-2.525 4.6-2.525 8.612 0 4.047.519 6.572 2.525 8.647 1.349 1.453 3.597 2.733 6.883 2.733 3.285 0 5.533-1.28 6.917-2.733 2.006-2.075 2.525-4.6 2.525-8.647 0-4.012-.519-6.537-2.525-8.612-1.349-1.452-3.632-2.732-6.917-2.732zm2.628 16.74c-.657.657-1.487.968-2.594.968s-1.937-.345-2.559-.968c-1.142-1.141-1.28-3.113-1.28-5.43 0-2.318.138-4.22 1.28-5.361.657-.657 1.452-.969 2.559-.969s1.972.346 2.594.969c1.142 1.141 1.28 3.078 1.28 5.361 0 2.317-.138 4.289-1.28 5.43zm33.031-16.498-3.597 13.731-4.566-13.731h-4.046l-4.531 13.731-3.597-13.731h-5.88l6.813 22.239h4.566l4.635-13.938 4.634 13.938h4.566l6.848-22.239zm-50.29 15.53v-24.211h-5.534v24.556c0 3.148 1.937 6.364 6.503 6.364h3.147v-4.703h-2.144c-1.418 0-1.972-.692-1.972-2.006zm-161.729-11.276 2.871-2.871h-5.914v-7.055h-3.113v22.17c0 3.182 1.833 5.741 5.465 5.741h2.213v-2.697h-1.66c-2.006 0-2.905-1.176-2.905-3.113v-12.175z" fill="#9fa6ad"/><path d="m383.886 124.422c0-3.268-.43-6.235-2.58-8.428-1.462-1.462-3.483-2.408-6.063-2.408s-4.601.946-6.063 2.408c-2.15 2.193-2.58 5.16-2.58 8.428s.43 6.235 2.58 8.428c1.462 1.462 3.483 2.408 6.063 2.408s4.601-.946 6.063-2.408c2.15-2.193 2.58-5.16 2.58-8.428zm-3.096 0c0 2.365-.129 4.988-1.677 6.536-.989.989-2.365 1.548-3.87 1.548s-2.838-.559-3.827-1.548c-1.548-1.548-1.72-4.171-1.72-6.536s.172-4.988 1.72-6.536c.989-.989 2.322-1.548 3.827-1.548s2.881.559 3.87 1.548c1.548 1.548 1.677 4.171 1.677 6.536z" fill="#9fa6ad"/><path d="m404.365 135v-13.545c0-2.451-.688-4.429-2.193-5.891-1.29-1.29-3.139-1.978-5.418-1.978-2.365 0-4.429.86-5.934 2.58v-2.322h-3.096v21.156h3.096v-13.029c0-3.698 2.064-5.633 5.246-5.633s5.203 1.892 5.203 5.633v13.029z" fill="#9fa6ad"/></svg>