<svg fill="none" height="500" viewBox="0 0 966 500" width="966" xmlns="http://www.w3.org/2000/svg" xmlns:xlink="http://www.w3.org/1999/xlink"><clipPath id="a"><path d="m0 0h966v500h-966z"/></clipPath><clipPath id="b"><path d="m0 0h478v500h-478z"/></clipPath><clipPath id="c"><path d="m134.601 53.7178h736.775v763.166h-736.775z"/></clipPath><g clip-path="url(#a)"><g clip-path="url(#b)"><path d="m0 0h478v500h-478z" fill="#c6d1e1"/><g clip-path="url(#c)"><path d="m219.729 430.302c52.577 24.96 105.279 49.879 158.18 74.06 47.442 3.045 95.21 1.904 142.698 4.182 2.096.101 5.042.537 7.071 1.063l-157.661 65.939-2.092.249-233.33-109.776z" fill="#ff5e00"/><path d="m416.8 391.435 121.92 75.629-150.298-4.196c-76.183-36.214-152.214-72.866-228.787-108.273-1.004-.465-3.596-1.173-3.491-2.553l147.67 4.195-118.767-73.528c78.038 34.346 153.655 74.55 231.753 108.726z" fill="#ff5e00"/><path d="m560.274 213.903 27.321 181.208-79.873-135.512c-56.513-27.07-113.011-54.827-169.742-81.413l-11.036-74.585z" fill="#ff5e00"/><path d="m414.7 60.0068 232.804 110.3012-27.333 204.842c-10.514-60.078-18.344-120.931-28.372-181.206-60.832-29.897-122.465-58.502-183.93-87.191l5.753-46.4293z" fill="#ff5e00"/><g fill="#f39fff"><path d="m311.7 292.688c41.93 19.719 83.839 40.299 125.599 60.403l-20.495 38.343c-78.099-34.176-153.716-74.38-231.753-108.725-.607-.267-1.443-.345-2.1-.532l.105-1.186 21.151-38.201 106.12 50.056c.964.453 1.311-.187 1.373-.158z"/><path d="m156.15 352.041c-.105 1.38 2.486 2.089 3.491 2.553 76.573 35.407 152.604 72.06 228.787 108.273l-10.51 41.495c-52.901-24.182-105.603-49.101-158.181-74.06-25.025-11.88-49.88-24.162-75.214-35.41z"/><path d="m367.925 575.795v39.919c-60.103-28.479-120.656-56.263-180.778-84.565-17.489-8.232-34.845-16.869-52.292-25.209l-.26-39.92z"/><path d="m407.874 106.753c61.465 28.689 123.098 57.294 183.931 87.19l-31.531 19.959-233.33-110.3c10.265-7.0558 20.71-14.1637 31.738-19.9365 16.661 7.1321 32.789 15.4313 49.192 23.0875z"/><path d="m490.382 74.1885c63.265 29.4605 126.142 59.8895 189.187 89.8165l-32.057 6.303-232.804-110.3011 31.211-6.2891c14.835 6.7912 29.679 13.5859 44.463 20.4707z"/></g><path d="m679.558 164.006-27.589 204.851 79.616-203.275 27.852 7.878-1.577 4.728-76.722 196.437 121.391-174.902c7.107 5.744 13.515 15.131 20.434 21.349-5.75 8.632-11.436 17.359-17.281 25.922-34.597 50.697-70.595 100.488-104.321 151.783l149.516-129.722c1.119 1.648 10.165 28.165 10.39 30.338.38 3.653-.661 2.866-2.507 4.853l-1.051 1.05c-2.115 2.04-4.633 3.805-6.832 5.778l-1.051 1.051c-2.214 1.978-4.604 3.807-6.832 5.777l-1.051 1.051c-1.011.892-2.14 1.735-3.153 2.626l-1.051 1.051c-.826.725-1.802 1.376-2.628 2.101l-1.051 1.05c-1.015.89-2.136 1.737-3.153 2.627l-1.051 1.05c-2.241 1.96-4.594 3.827-6.832 5.778l-1.051 1.05c-1.206 1.053-2.168 2.294-3.153 3.152-35.387 30.848-71.881 60.75-106.424 92.429l158.976-66.692-.07 39.846c-28.403 11.15-56.408 23.421-84.538 35.264-24.875 10.471-49.93 20.639-74.621 31.508l149.77 4.208-11.392 42.051-149.939-4.227 121.819 74.679-19.871 39.292h-1.051c-.345-.034-.705.023-1.052 0 .063-1.276-.792-1.336-1.562-1.852-37.425-25.078-78.569-46.462-116.325-71.247l-2.443-.704 14.176 23.38 65.052 112.22-27.215 31.696-80.144-136.035c4.961 35.751 10.616 71.452 16.031 107.147 3.756 24.755 7.79 49.493 11.433 74.269l-31.402 20.275-27.859-181.206c-8.548 52.6-14.305 105.776-21.54 158.621-2.107 15.39-4.752 30.816-6.832 46.221l-2.102.525c-4.562.895-9.106 1.669-13.663 2.627-2.222.467-4.787.571-6.832 1.575-2.424.365-7.028 1.565-8.934 1.576l27.321-203.791c-24.969 60.687-47.651 122.357-71.99 183.307-2.52 6.312-5.292 12.577-7.685 18.942-9.549-1.252-18.625-5.294-28.05-7.387l79.347-203.269-122.439 176.481-19.97-22.06 121.382-176.225-149.76 128.953-10.51-32.565 149.247-129.729-159.232 66.175v-39.919l2.093-.248 157.661-65.939c-2.029-.527-4.975-.963-7.072-1.063-47.488-2.279-95.255-1.138-142.697-4.183l10.51-41.494 150.298 4.196-121.92-75.629 20.495-38.343 122.433 74.329-79.34-136.833 27.327-30.989 79.872 135.512-27.321-181.209 31.531-19.959c10.028 60.275 17.858 121.128 28.372 181.206l27.333-204.842zm1.314 211.148v.525l.263-.262zm-.525 1.05v.526l.262-.263z" fill="#86af25"/><path d="m337.975 178.187c56.731 26.586 113.229 54.344 169.742 81.413l-27.327 30.99-233.855-109.776 27.592-31.577c19.224 8.086 37.791 17.585 56.663 26.414 2.157 1.009 5.503 1.748 7.185 2.536z" fill="#f39fff"/><path d="m480.39 290.589 79.34 136.832-122.432-74.328c-41.76-20.105-83.669-40.685-125.599-60.403l-65.164-111.877z" fill="#ff5e00"/></g><path d="m26 28.125h196.719v70.9581h-196.719z" fill="#201c1d"/><path d="m26 81.3438h327.999v70.9581h-327.999z" fill="#201c1d"/><path d="m77.0712 67.0962c-.7081 9.1551-6.2214 15.2248-16.1858 15.2248-11.2796 0-17.501-8.2952-17.501-18.5631 0-10.1668 6.2214-18.462 17.501-18.462 9.5091 0 14.9213 5.4121 15.9835 13.9097h-5.918c-.7081-4.5523-3.2371-8.7505-10.0655-8.7505-7.9412 0-11.7348 6.3226-11.7348 13.3028 0 7.0813 3.7936 13.4039 11.7348 13.4039 7.3848 0 9.9644-4.8558 10.369-10.0656zm13.2948 15.2248c-5.5638 0-9.762-3.1866-9.762-8.8516 0-8.8517 9.762-9.5598 17.9561-9.5598v3.0349h5.4629v14.5672h-5.4629v-3.136c-1.6691 2.4785-4.5017 3.9453-8.1941 3.9453zm-10.4702-18.6643c0-5.7662 4.4006-11.2795 12.3923-11.2795 7.2836 0 11.1779 4.4005 11.6839 11.5324h-5.4119c-.2529-4.097-2.0232-6.5249-6.272-6.5249-4.8557 0-6.6261 2.9337-6.6261 6.272zm6.3732 9.6104c0 2.8325 1.9727 4.2487 5.311 4.2487 3.9453 0 6.9801-2.5796 6.9801-7.1824v-1.8715c-8.3964-.2529-12.2911 1.4162-12.2911 4.8052zm22.538-29.691h5.463v37.9356h-5.463zm10.571 0h5.463v37.9356h-5.463zm11.448 9.6104h5.463v28.3252h-5.463zm-1.618-9.8633 6.069-1.3656 1.366 6.1708-6.07 1.3657zm12.445 9.8633h5.463v4.6534c1.163-2.8325 3.945-5.4627 9.307-5.4627 5.462 0 9.559 3.0348 9.559 11.6842v17.4503h-5.462v-16.7928c0-4.6028-1.113-7.5871-5.463-7.5871-4.047 0-7.941 3.5406-7.941 10.2679v14.112h-5.463zm40.976 28.1229c-7.79 0-12.747-5.6651-12.747-14.4155 0-8.8011 4.957-14.5167 12.747-14.5167 4.299 0 7.283 1.6692 9.104 4.7546v-3.9453h5.463v26.8078c0 7.9918-5.21 12.4429-12.544 12.4429-9.004 0-12.494-4.9064-13.303-9.7115h5.665c.658 3.2877 3.389 4.7546 7.638 4.7546 4.299 0 7.081-2.175 7.081-7.486v-3.3383c-1.72 2.9336-4.653 4.6534-9.104 4.6534zm.758-4.9569c5.564 0 8.346-3.743 8.346-9.4586 0-5.7662-2.782-9.5598-8.346-9.5598-4.906 0-7.89 3.5407-7.89 9.5598 0 5.9685 2.984 9.4586 7.89 9.4586zm-129.1783 58.9685c-5.5639 0-9.7621-3.187-9.7621-8.852 0-8.851 9.7621-9.559 17.9562-9.559v3.034h5.4627v14.568h-5.4627v-3.136c-1.6692 2.478-4.5017 3.945-8.1941 3.945zm-10.4702-18.664c0-5.767 4.4005-11.28 12.3923-11.28 7.2836 0 11.1783 4.401 11.6841 11.533h-5.4121c-.2529-4.097-2.0232-6.525-6.272-6.525-4.8558 0-6.6261 2.933-6.6261 6.272zm6.3732 9.61c0 2.833 1.9726 4.249 5.3109 4.249 3.9453 0 6.9802-2.58 6.9802-7.183v-1.871c-8.3964-.253-12.2911 1.416-12.2911 4.805zm22.5384-29.6909h5.4628v37.9359h-5.4628zm10.5706 0h5.4627v37.9359h-5.4627zm19.4263 9.6099h5.867l4.654 22.205 5.058-22.205h6.019l5.058 22.205 4.653-22.205h5.868l-7.082 28.326h-7.081l-4.4-19.373-4.451 19.373h-7.082zm40.836-9.6099h5.463v14.3139c1.214-2.832 3.894-5.513 9.307-5.513 5.462 0 9.559 3.035 9.559 11.684v17.451h-5.462v-16.793c0-4.603-1.113-7.587-5.463-7.587-4.047 0-7.941 3.54-7.941 10.268v14.112h-5.463zm42.545 38.7449c-8.751 0-14.466-6.171-14.466-14.921 0-8.801 5.715-15.023 14.466-15.023 8.75 0 14.466 6.222 14.466 15.023 0 8.75-5.716 14.921-14.466 14.921zm0-4.957c5.513 0 8.851-3.996 8.851-9.964 0-6.019-3.338-10.066-8.851-10.066-5.564 0-8.852 4.047-8.852 10.066 0 5.968 3.288 9.964 8.852 9.964zm55.387-7.739c-.253 7.334-5.311 12.696-13.303 12.696-8.75 0-14.466-6.171-14.466-14.921 0-8.801 5.716-15.023 14.466-15.023 7.689 0 12.949 5.716 13.202 11.937h-5.766c-.253-3.439-2.428-6.929-7.436-6.929-5.968 0-8.851 4.248-8.851 10.015 0 5.715 2.883 9.914 8.851 9.914 5.311 0 7.385-3.693 7.638-7.689zm17.125 12.696c-8.75 0-14.466-6.171-14.466-14.921 0-8.801 5.716-15.023 14.466-15.023s14.466 6.222 14.466 15.023c0 8.75-5.716 14.921-14.466 14.921zm0-4.957c5.513 0 8.852-3.996 8.852-9.964 0-6.019-3.339-10.066-8.852-10.066-5.564 0-8.852 4.047-8.852 10.066 0 5.968 3.288 9.964 8.852 9.964zm29.992 4.957c-7.789 0-12.746-6.171-12.746-14.921 0-8.801 4.957-15.023 12.746-15.023 4.35 0 7.334 1.922 9.105 5.159v-13.9599h5.462v37.9359h-5.462v-4.3c-1.67 3.086-4.603 5.109-9.105 5.109zm.759-4.957c5.564 0 8.346-4.249 8.346-9.964 0-5.767-2.782-10.066-8.346-10.066-4.907 0-7.891 4.047-7.891 10.066 0 5.968 2.984 9.964 7.891 9.964zm32.128 4.957c-8.144 0-13.606-5.362-14.365-13.151h5.716c.505 4.805 3.338 8.194 8.649 8.194 3.945 0 6.221-2.124 7.182-4.856h5.767c-1.366 5.817-6.07 9.813-12.949 9.813zm-8.649-13.151v-3.338h-5.767c.709-8.397 6.627-13.455 14.416-13.455 7.688 0 14.061 6.12 12.949 16.793zm.151-4.603h16.085c-.455-4.147-3.035-7.233-7.587-7.233-4.502 0-7.789 2.681-8.498 7.233z" fill="#eee"/><path d="m57.7023 454.908.0629.033-.0166.017-.0463-.047c-1.413 1.829-2.5977 3.844-3.5111 5.997-.0132.033-.0265.063-.0397.096-.8802 2.101-1.5057 4.334-1.8333 6.666-.0033.013-.0033.03-.0033.043-.1754 1.237-.2647 2.501-.2647 3.784 0 1.092.0661 2.17.1919 3.228h-26.2421v-7.055h22.7873c.043-.291.0926-.576.1456-.864l-21.9534-5.881 1.8267-6.818 22.2247 5.955c.1026-.229.2085-.454.3144-.679l-19.9447-11.511 3.5277-6.11 20.2425 11.68c.1588-.191.3209-.383.4897-.572l-16.5858-16.576 4.9936-4.991 16.8506 16.847 1.7803 1.779c-1.873 1.436-3.5541 3.11-4.9969 4.979z" fill="#201c1d"/></g><path d="m0 0h478v500h-478z" fill="#998b7a" transform="translate(488)"/><path d="m516.125 84.5469h352.36v75.2301h-352.36z" fill="#ff5e00"/><path d="m516.125 28.125h318.429v75.23h-318.429z" fill="#ff5e00"/><path d="m535.843 46.3564h5.845v18.9835l15.069-18.9835h7.186l-13.085 16.4631 14.104 21.075h-7.401l-10.349-16.4631-5.524 6.9713v9.4918h-5.845zm32.514 7.5076h5.791v4.9336c1.234-3.0031 4.183-5.7916 9.867-5.7916 5.792 0 10.136 3.2175 10.136 12.3876v18.5009h-5.792v-17.8038c0-4.88-1.18-8.0439-5.791-8.0439-4.291 0-8.42 3.7538-8.42 10.8861v14.9616h-5.791zm45.108 30.8885c-9.277 0-15.337-6.5423-15.337-15.8196 0-9.3309 6.06-15.9269 15.337-15.9269 9.278 0 15.337 6.596 15.337 15.9269 0 9.2773-6.059 15.8196-15.337 15.8196zm0-5.2553c5.846 0 9.385-4.2364 9.385-10.5643 0-6.3815-3.539-10.6716-9.385-10.6716-5.899 0-9.384 4.2901-9.384 10.6716 0 6.3279 3.485 10.5643 9.384 10.5643zm16.966-25.6332h6.221l4.933 23.5418 5.363-23.5418h6.382l5.362 23.5418 4.934-23.5418h6.22l-7.507 30.0305h-7.508l-4.665-20.5387-4.719 20.5387h-7.508zm43.295-10.1889h5.791v40.2194h-5.791zm25.204 41.0774c-8.633 0-14.425-5.6843-15.229-13.9427h6.059c.537 5.0945 3.54 8.6874 9.17 8.6874 4.183 0 6.596-2.2523 7.615-5.1481h6.114c-1.448 6.167-6.435 10.4034-13.729 10.4034zm-9.17-13.9427v-3.5393h-6.113c.751-8.9019 7.025-14.2645 15.283-14.2645 8.152 0 14.908 6.4887 13.729 17.8038zm.161-4.88h17.053c-.482-4.3973-3.217-7.6685-8.044-7.6685-4.772 0-8.258 2.8422-9.009 7.6685zm39.394 18.8227c-8.258 0-13.513-6.5423-13.513-15.8196 0-9.3309 5.255-15.9269 13.513-15.9269 4.612 0 7.776 2.0378 9.653 5.4698v-14.8007h5.792v40.2194h-5.792v-4.5582c-1.77 3.2712-4.88 5.4162-9.653 5.4162zm.805-5.2553c5.899 0 8.848-4.5046 8.848-10.5643 0-6.1134-2.949-10.6716-8.848-10.6716-5.202 0-8.366 4.2901-8.366 10.6716 0 6.3279 3.164 10.5643 8.366 10.5643zm32.502 4.1828c-8.258 0-13.514-6.0061-13.514-15.2834 0-9.3309 5.256-15.3906 13.514-15.3906 4.558 0 7.722 1.7696 9.653 5.0408v-4.1828h5.791v28.4218c0 8.4729-5.523 13.1919-13.299 13.1919-9.545 0-13.245-5.2017-14.103-10.2961h6.006c.697 3.4856 3.593 5.0408 8.097 5.0408 4.558 0 7.508-2.3059 7.508-7.9366v-3.5394c-1.823 3.1103-4.934 4.9336-9.653 4.9336zm.805-5.2553c5.898 0 8.848-3.9683 8.848-10.0281 0-6.1133-2.95-10.1353-8.848-10.1353-5.202 0-8.366 3.7538-8.366 10.1353 0 6.3279 3.164 10.0281 8.366 10.0281zm34.01 6.3278c-8.634 0-14.426-5.6843-15.23-13.9427h6.06c.536 5.0945 3.539 8.6874 9.17 8.6874 4.183 0 6.596-2.2523 7.615-5.1481h6.113c-1.448 6.167-6.435 10.4034-13.728 10.4034zm-9.17-13.9427v-3.5393h-6.114c.751-8.9019 7.025-14.2645 15.284-14.2645 8.151 0 14.908 6.4887 13.728 17.8038zm.161-4.88h17.053c-.483-4.3973-3.218-7.6685-8.044-7.6685-4.773 0-8.259 2.8422-9.009 7.6685zm-240.519 74.8232c-8.259 0-13.514-6.543-13.514-15.82 0-9.331 5.255-15.927 13.514-15.927 4.612 0 7.776 2.038 9.652 5.47v-14.8009h5.792v40.2199h-5.792v-4.559c-1.769 3.272-4.879 5.417-9.652 5.417zm.804-5.256c5.899 0 8.848-4.504 8.848-10.564 0-6.113-2.949-10.672-8.848-10.672-5.202 0-8.365 4.29-8.365 10.672 0 6.328 3.163 10.564 8.365 10.564zm34.116 5.256c-9.277 0-15.337-6.543-15.337-15.82 0-9.331 6.06-15.927 15.337-15.927 9.278 0 15.337 6.596 15.337 15.927 0 9.277-6.059 15.82-15.337 15.82zm0-5.256c5.846 0 9.385-4.236 9.385-10.564 0-6.382-3.539-10.672-9.385-10.672-5.898 0-9.384 4.29-9.384 10.672 0 6.328 3.486 10.564 9.384 10.564zm33.568 5.256c-8.634 0-14.426-5.685-15.23-13.943h6.06c.536 5.094 3.539 8.687 9.17 8.687 4.183 0 6.596-2.252 7.615-5.148h6.113c-1.448 6.167-6.435 10.404-13.728 10.404zm-9.17-13.943v-3.54h-6.114c.751-8.901 7.025-14.264 15.284-14.264 8.151 0 14.908 6.489 13.728 17.804zm.161-4.88h17.053c-.483-4.397-3.218-7.669-8.044-7.669-4.773 0-8.259 2.842-9.009 7.669zm32.14 8.473c.322 3.646 3.486 5.416 7.347 5.416 3.754 0 6.328-1.394 6.328-4.451 0-6.328-18.984-.965-18.984-12.977 0-4.827 4.88-9.385 12.227-9.385 6.489 0 12.012 4.183 12.012 10.296h-5.523c-.268-3.646-3.11-5.362-6.703-5.362-4.13 0-6.275 1.876-6.275 4.451 0 6.917 18.984 1.126 18.984 12.977 0 5.684-4.773 9.385-12.334 9.385-7.079 0-12.548-4.451-12.763-10.35zm23.983-20.539h5.792v4.934c1.233-3.003 4.183-5.792 9.867-5.792 5.792 0 10.135 3.218 10.135 12.388v18.501h-5.791v-17.804c0-4.88-1.18-8.044-5.792-8.044-4.29 0-8.419 3.754-8.419 10.886v14.962h-5.792zm26.322-10.1889h6.649v6.5959c0 3.271-2.037 4.934-5.148 4.934v-2.843c1.448 0 1.877-.804 1.877-2.091h-3.378zm13.029 40.2199v-25.097h-4.504v-4.934h4.504v-7.508h5.792v7.508h6.06v4.934h-6.06v20.163h6.918v4.934zm28.051-40.2199h5.791v40.2199h-5.791zm25.258 41.0779c-9.277 0-15.337-6.543-15.337-15.82 0-9.331 6.06-15.927 15.337-15.927s15.337 6.596 15.337 15.927c0 9.277-6.06 15.82-15.337 15.82zm0-5.256c5.845 0 9.385-4.236 9.385-10.564 0-6.382-3.54-10.672-9.385-10.672-5.899 0-9.384 4.29-9.384 10.672 0 6.328 3.485 10.564 9.384 10.564zm33.621 5.256c-9.277 0-15.337-6.543-15.337-15.82 0-9.331 6.06-15.927 15.337-15.927s15.337 6.596 15.337 15.927c0 9.277-6.06 15.82-15.337 15.82zm0-5.256c5.845 0 9.385-4.236 9.385-10.564 0-6.382-3.54-10.672-9.385-10.672-5.899 0-9.384 4.29-9.384 10.672 0 6.328 3.485 10.564 9.384 10.564zm34.962 5.256c-4.773 0-7.883-2.145-9.653-5.417v15.284h-5.792v-40.756h5.792v4.612c1.877-3.432 5.041-5.47 9.653-5.47 8.258 0 13.513 6.596 13.513 15.927 0 9.277-5.255 15.82-13.513 15.82zm-.805-5.256c5.202 0 8.366-4.236 8.366-10.564 0-6.382-3.164-10.672-8.366-10.672-5.952 0-8.848 4.559-8.848 10.672 0 6.06 2.896 10.564 8.848 10.564zm16.131-2.198h6.489v6.596h-6.489z" fill="#201c1d"/><path d="m516.125 159.777h250v75.23h-250z" fill="#fc0"/><g fill="#201c1d"><path d="m535.843 178.011h5.899v37.538h-5.899zm14.782 37.538v-25.097h-4.504v-4.934h4.504v-7.507h5.792v7.507h6.06v4.934h-6.06v20.163h6.918v4.934zm32.502-9.492c.322 3.647 3.486 5.416 7.347 5.416 3.753 0 6.327-1.394 6.327-4.451 0-6.328-18.983-.965-18.983-12.977 0-4.827 4.88-9.385 12.227-9.385 6.488 0 12.012 4.183 12.012 10.296h-5.524c-.268-3.646-3.11-5.362-6.703-5.362-4.129 0-6.274 1.877-6.274 4.451 0 6.918 18.983 1.126 18.983 12.977 0 5.685-4.772 9.385-12.334 9.385-7.078 0-12.548-4.451-12.763-10.35zm26.256 9.492v-25.097h-4.504v-4.934h4.504v-7.507h5.792v7.507h6.06v4.934h-6.06v20.163h6.918v4.934zm26.514.858c-5.899 0-10.35-3.379-10.35-9.385 0-9.384 10.35-10.135 19.038-10.135v3.218h5.791v15.444h-5.791v-3.325c-1.77 2.628-4.773 4.183-8.688 4.183zm-11.1-19.788c0-6.113 4.665-11.959 13.138-11.959 7.722 0 11.851 4.666 12.388 12.227h-5.738c-.268-4.344-2.145-6.918-6.65-6.918-5.148 0-7.025 3.111-7.025 6.65zm6.757 10.189c0 3.003 2.091 4.504 5.63 4.504 4.183 0 7.401-2.735 7.401-7.615v-1.984c-8.902-.268-13.031 1.502-13.031 5.095zm52.05-3.861c-.268 7.775-5.631 13.46-14.104 13.46-9.277 0-15.337-6.543-15.337-15.82 0-9.331 6.06-15.927 15.337-15.927 8.151 0 13.729 6.06 13.997 12.656h-6.114c-.268-3.647-2.574-7.347-7.883-7.347-6.328 0-9.384 4.505-9.384 10.618 0 6.06 3.056 10.511 9.384 10.511 5.631 0 7.83-3.915 8.098-8.151zm4.157-27.618h5.791v23.167l10.726-12.978h6.971l-9.867 11.959 11.1 18.072h-6.596l-8.097-13.782-4.237 5.148v8.634h-5.791zm31.107 30.728c.321 3.647 3.485 5.416 7.346 5.416 3.754 0 6.328-1.394 6.328-4.451 0-6.328-18.983-.965-18.983-12.977 0-4.827 4.88-9.385 12.226-9.385 6.489 0 12.013 4.183 12.013 10.296h-5.524c-.268-3.646-3.11-5.362-6.703-5.362-4.129 0-6.274 1.877-6.274 4.451 0 6.918 18.983 1.126 18.983 12.977 0 5.685-4.773 9.385-12.334 9.385-7.078 0-12.548-4.451-12.763-10.35zm22.077 2.896h6.489v6.596h-6.489z"/><path d="m545.702 454.908.063.033-.016.017-.047-.047c-1.413 1.829-2.597 3.844-3.511 5.997-.013.033-.026.063-.039.096-.881 2.101-1.506 4.334-1.834 6.666-.003.013-.003.03-.003.043-.175 1.237-.265 2.501-.265 3.784 0 1.092.066 2.17.192 3.228h-26.242v-7.055h22.787c.043-.291.093-.576.146-.864l-21.953-5.881 1.826-6.818 22.225 5.955c.103-.229.208-.454.314-.679l-19.944-11.511 3.527-6.11 20.243 11.68c.159-.191.321-.383.49-.572l-16.586-16.576 4.993-4.991 16.851 16.847 1.78 1.779c-1.873 1.436-3.554 3.11-4.997 4.979z"/></g></g></svg>