<svg fill="none" height="72" viewBox="0 0 72 72" width="72" xmlns="http://www.w3.org/2000/svg"><path fill="#5075f1" d="m58.1448 39.16.1042.0521-.0289.0289-.0753-.0752c-2.3734 3.0333-4.3589 6.3734-5.8929 9.945-.0232.0521-.0463.1042-.0695.1563-1.4761 3.4848-2.5296 7.1838-3.0796 11.0506v.0695c-.2952 2.0492-.4457 4.1447-.4457 6.275 0 1.8118.11 3.6005.3242 5.3545h-44.05791v-11.699h38.25761c.0695-.4804.1563-.9551.2431-1.4298l-36.85671-9.754 3.06802-11.3053 37.31399 9.8755c.1737-.3762.3474-.7525.5268-1.123l-33.4877-19.0911 5.9219-10.1303 33.9855 19.369c.2663-.3183.5383-.6367.822-.9493l-27.8437-27.48481 8.382-8.2778626 28.2895 27.9363726 2.987 2.9522c-3.1433 2.3792-5.9682 5.1577-8.3879 8.2547z"/></svg>
