<svg fill="none" height="500" viewBox="0 0 966 500" width="966" xmlns="http://www.w3.org/2000/svg" xmlns:xlink="http://www.w3.org/1999/xlink"><clipPath id="a"><path d="m445.277 249.981h95.3245v81.4988h-95.3245z"/></clipPath><clipPath id="b"><path d="m39.5637 165.487h142.946v169.231h-142.946z"/></clipPath><clipPath id="c"><path d="m39.564 165.486h142.944v169.231h-142.944z"/></clipPath><mask id="d" height="141" maskUnits="userSpaceOnUse" width="110" x="253" y="180"><path d="m253.174 180.168h109.673v140.146h-109.673z" fill="#6e1527"/></mask><mask id="e" height="135" maskUnits="userSpaceOnUse" width="152" x="611" y="183"><path d="m611.012 183.118h151.029v133.968h-151.029z" fill="#d9d9d9"/></mask><path d="m0 0h966v500h-966z" fill="#201c1d"/><path d="m800.306 196.218h97.0819v35.9226h-97.0819z" fill="#eee"/><path d="m800.306 232.141h125.311v35.9226h-125.311z" fill="#ff5e00"/><path d="m800.306 268.064h70.5064v35.9226h-70.5064z" fill="#9d9cff"/><g clip-path="url(#a)"><path d="m0 0h95.3245v81.4988h-95.3245z" fill="#ff5817" transform="translate(445.277 249.981)"/><path d="m540.602 249.981h-95.325v81.499h95.325z" fill="#9d9cff"/></g><path d="m557.339 318.382-128.798-.684 13.685-67.717h99.013z" fill="#ff5e00"/><path d="m561.947 289.033h-138.014l12.107-39.052h105.73z" fill="#eee"/><path d="m566.313 263.079h-146.746l15.752-13.098h115.242z" fill="#c6d1e1"/><path d="m0 0h94.8394v81.2563h-94.8394z" fill="#9d9cff" transform="matrix(-1 -0 0 -1 540.36 249.981)"/><path d="m428.541 181.823 128.798.682-13.685 67.476h-99.013z" fill="#ff5e00"/><path d="m423.933 210.93h138.015l-12.107 39.051h-105.73z" fill="#eee"/><path d="m419.567 237.126h146.746l-15.752 12.855h-115.242z" fill="#c6d1e1"/><path d="m231.785 210.237h152.451v80.0091h-152.451z" fill="#ff5e00"/><g mask="url(#d)"><path d="m253.174 180.168h109.673v145.201h-109.673z" fill="#86af25"/></g><path d="m245.353 201.211h125.311v98.0617h-125.311z" fill="#eee"/><g mask="url(#e)"><path d="m0 0h113.159v133.969h-113.159z" fill="#ff5e00" transform="matrix(-.955007 -.296582 -.296582 .955007 756.878 210.064)"/><path d="m0 0h113.159v133.969h-113.159z" fill="#86af25" transform="matrix(-.992417 -.122915 -.122915 .992417 738.571 197.722)"/></g><path d="m610.714 183.118h113.159v133.969h-113.159z" fill="#eee"/><g clip-path="url(#b)"><g clip-path="url(#c)"><path d="m39.5641 165.485h142.944v169.231h-142.944z" fill="#ff5e00"/></g><path d="m60.7983 165.486h123.34v139.153h-123.34z" fill="#31070f"/><path d="m97.8458 165.486h86.293v100.299h-86.293z" fill="#eee"/><path d="m166.971 249.972h15.8129v15.8129h-15.8129z" fill="#86af25"/></g><g fill="#fff"><path d="m441.802 413.4h6.776c5.236 0 8.54 1.568 8.54 6.216 0 3.052-1.456 4.788-3.92 5.628l3.78 7.756h-3.5l-3.192-7.196c-.532.028-1.12.056-1.708.056h-3.696v7.14h-3.08zm6.776 9.772c3.388 0 5.32-.756 5.32-3.556s-1.932-3.528-5.32-3.528h-3.696v7.084zm18.112 10.276c-4.844 0-8.008-3.416-8.008-8.26 0-4.872 3.164-8.316 8.008-8.316s8.008 3.444 8.008 8.316c0 4.844-3.164 8.26-8.008 8.26zm0-2.744c3.052 0 4.9-2.212 4.9-5.516 0-3.332-1.848-5.572-4.9-5.572-3.08 0-4.9 2.24-4.9 5.572 0 3.304 1.82 5.516 4.9 5.516zm10.164-18.704h3.024v21h-3.024zm13.188 21.448c-4.844 0-8.008-3.416-8.008-8.26 0-4.872 3.164-8.316 8.008-8.316s8.008 3.444 8.008 8.316c0 4.844-3.164 8.26-8.008 8.26zm0-2.744c3.052 0 4.9-2.212 4.9-5.516 0-3.332-1.848-5.572-4.9-5.572-3.08 0-4.9 2.24-4.9 5.572 0 3.304 1.82 5.516 4.9 5.516zm16.603 2.744c-4.312 0-7.056-3.416-7.056-8.26 0-4.872 2.744-8.316 7.056-8.316 2.408 0 4.06 1.064 5.04 2.856v-7.728h3.024v21h-3.024v-2.38c-.924 1.708-2.548 2.828-5.04 2.828zm.42-2.744c3.08 0 4.62-2.352 4.62-5.516 0-3.192-1.54-5.572-4.62-5.572-2.716 0-4.368 2.24-4.368 5.572 0 3.304 1.652 5.516 4.368 5.516zm17.813 2.744c-4.844 0-8.008-3.416-8.008-8.26 0-4.872 3.164-8.316 8.008-8.316 4.256 0 7.784 3.388 7.14 9.296h-11.984c.308 2.66 1.876 4.536 4.844 4.536 2.184 0 3.444-1.176 3.948-2.688h3.192c-.728 3.22-3.332 5.432-7.14 5.432zm0-13.832c-2.744 0-4.312 1.624-4.76 4.004h8.932c-.196-2.24-1.652-4.004-4.172-4.004zm7.741-2.296h3.5l3.192 5.04 3.22-5.04h3.5l-4.956 7.784 5.04 7.896h-3.5l-3.304-5.152-3.276 5.152h-3.5l5.04-7.896z"/><path d="m283.959 425.02c-.392 5.068-3.444 8.428-8.96 8.428-6.244 0-9.688-4.592-9.688-10.276 0-5.628 3.444-10.22 9.688-10.22 5.264 0 8.26 2.996 8.848 7.7h-3.276c-.392-2.52-1.792-4.844-5.572-4.844-4.396 0-6.496 3.5-6.496 7.364 0 3.92 2.1 7.42 6.496 7.42 4.088 0 5.516-2.688 5.74-5.572zm8.451-8.148c4.284 0 6.496 2.772 6.496 7.168v8.96h-3.024v-2.128c-.84 1.596-2.324 2.576-4.536 2.576-3.08 0-5.404-1.764-5.404-4.9 0-4.9 5.376-5.432 9.912-5.264-.168-2.268-1.148-3.724-3.444-3.724-2.408 0-3.668 1.484-3.668 3.276h-3.192c0-3.108 2.436-5.964 6.86-5.964zm-3.332 11.508c0 1.568 1.092 2.408 2.94 2.408 2.184 0 3.864-1.428 3.864-3.976v-1.4c-4.62-.224-6.804 1.092-6.804 2.968zm15.5-3.612v8.232h-3.024v-15.68h3.024v2.632c.588-1.596 2.016-3.08 5.236-3.08v3.024c-3.332 0-5.236 1.148-5.236 4.872zm6.502-7.448h2.352v-3.92h3.024v3.92h2.884v2.576h-2.884v8.848c0 1.148.56 1.68 1.652 1.68h1.68v2.576h-1.708c-3.108 0-4.648-1.596-4.648-4.256v-8.848h-2.352zm17.581 16.128c-4.844 0-8.008-3.416-8.008-8.26 0-4.872 3.164-8.316 8.008-8.316s8.008 3.444 8.008 8.316c0 4.844-3.164 8.26-8.008 8.26zm0-2.744c3.052 0 4.9-2.212 4.9-5.516 0-3.332-1.848-5.572-4.9-5.572-3.08 0-4.9 2.24-4.9 5.572 0 3.304 1.82 5.516 4.9 5.516zm10.135-13.384h3.024v2.576c.644-1.568 2.184-3.024 5.152-3.024 3.024 0 5.292 1.68 5.292 6.468v9.66h-3.024v-9.296c0-2.548-.616-4.2-3.024-4.2-2.24 0-4.396 1.96-4.396 5.684v7.812h-3.024z"/><path d="m65.9249 433-5.068-19.6h3.08l4.004 16.408 4.032-16.408h3.556l4.004 16.408 4.032-16.408h3.08l-5.068 19.6h-4.06l-3.78-14.532-3.752 14.532zm22.7863-21h3.388v3.444h-3.388zm.168 5.32h3.024v15.68h-3.024zm5.983 0h3.024v2.576c.644-1.568 2.1838-3.024 5.1518-3.024 3.024 0 5.292 1.68 5.292 6.468v9.66h-3.024v-9.296c0-2.548-.616-4.2-3.024-4.2-2.24 0-4.3958 1.96-4.3958 5.684v7.812h-3.024zm22.6558 16.128c-4.312 0-7.056-3.416-7.056-8.26 0-4.872 2.744-8.316 7.056-8.316 2.408 0 4.06 1.064 5.04 2.856v-7.728h3.024v21h-3.024v-2.38c-.924 1.708-2.548 2.828-5.04 2.828zm.42-2.744c3.08 0 4.62-2.352 4.62-5.516 0-3.192-1.54-5.572-4.62-5.572-2.716 0-4.368 2.24-4.368 5.572 0 3.304 1.652 5.516 4.368 5.516zm17.813 2.744c-4.844 0-8.008-3.416-8.008-8.26 0-4.872 3.164-8.316 8.008-8.316s8.008 3.444 8.008 8.316c0 4.844-3.164 8.26-8.008 8.26zm0-2.744c3.052 0 4.9-2.212 4.9-5.516 0-3.332-1.848-5.572-4.9-5.572-3.08 0-4.9 2.24-4.9 5.572 0 3.304 1.82 5.516 4.9 5.516zm8.886-13.384h3.248l2.548 12.292 2.828-12.292h3.332l2.8 12.292 2.576-12.292h3.248l-3.92 15.68h-3.92l-2.464-10.724-2.436 10.724h-3.92z"/><path d="m641.546 413.4h6.496c5.236 0 8.54 1.708 8.54 6.356s-3.304 6.384-8.54 6.384h-3.416v6.86h-3.08zm6.496 10.052c3.388 0 5.32-.756 5.32-3.696s-1.932-3.668-5.32-3.668h-3.416v7.364zm17.06-6.58c4.284 0 6.496 2.772 6.496 7.168v8.96h-3.024v-2.128c-.84 1.596-2.324 2.576-4.536 2.576-3.08 0-5.404-1.764-5.404-4.9 0-4.9 5.376-5.432 9.912-5.264-.168-2.268-1.148-3.724-3.444-3.724-2.408 0-3.668 1.484-3.668 3.276h-3.192c0-3.108 2.436-5.964 6.86-5.964zm-3.332 11.508c0 1.568 1.092 2.408 2.94 2.408 2.184 0 3.864-1.428 3.864-3.976v-1.4c-4.62-.224-6.804 1.092-6.804 2.968zm27.259-1.96c-.14 4.06-2.94 7.028-7.364 7.028-4.844 0-8.008-3.416-8.008-8.26 0-4.872 3.164-8.316 8.008-8.316 4.256 0 7.168 3.164 7.308 6.608h-3.192c-.14-1.904-1.344-3.836-4.116-3.836-3.304 0-4.9 2.352-4.9 5.544 0 3.164 1.596 5.488 4.9 5.488 2.94 0 4.088-2.044 4.228-4.256zm14.434-9.1-5.18 6.244 5.824 9.436h-3.444l-4.256-7.168-2.184 2.66v4.508h-3.024v-21h3.024v12.096l5.6-6.776zm8.772 16.128c-4.844 0-8.008-3.416-8.008-8.26 0-4.872 3.164-8.316 8.008-8.316 4.256 0 7.784 3.388 7.14 9.296h-11.984c.308 2.66 1.876 4.536 4.844 4.536 2.184 0 3.444-1.176 3.948-2.688h3.192c-.728 3.22-3.332 5.432-7.14 5.432zm0-13.832c-2.744 0-4.312 1.624-4.76 4.004h8.932c-.196-2.24-1.652-4.004-4.172-4.004zm8.205-2.296h2.352v-3.92h3.024v3.92h2.884v2.576h-2.884v8.848c0 1.148.56 1.68 1.652 1.68h1.68v2.576h-1.708c-3.108 0-4.648-1.596-4.648-4.256v-8.848h-2.352z"/><path d="m836.007 413.4h5.964c4.256 0 7.7 1.232 7.7 5.6 0 1.484-.784 3.164-2.352 3.92 1.932.644 3.36 2.24 3.36 4.452 0 4.368-3.444 5.628-7.7 5.628h-6.972zm5.964 2.688h-2.884v5.684h2.94c2.772 0 4.424-.588 4.424-2.828 0-2.212-1.512-2.856-4.48-2.856zm1.064 8.372h-3.948v5.852h3.892c2.8 0 4.508-.616 4.508-2.94 0-2.184-1.708-2.912-4.452-2.912zm16.282-7.588c4.284 0 6.496 2.772 6.496 7.168v8.96h-3.024v-2.128c-.84 1.596-2.324 2.576-4.536 2.576-3.08 0-5.404-1.764-5.404-4.9 0-4.9 5.376-5.432 9.912-5.264-.168-2.268-1.148-3.724-3.444-3.724-2.408 0-3.668 1.484-3.668 3.276h-3.192c0-3.108 2.436-5.964 6.86-5.964zm-3.332 11.508c0 1.568 1.092 2.408 2.94 2.408 2.184 0 3.864-1.428 3.864-3.976v-1.4c-4.62-.224-6.804 1.092-6.804 2.968zm15.499-3.612v8.232h-3.024v-15.68h3.024v2.632c.588-1.596 2.016-3.08 5.236-3.08v3.024c-3.332 0-5.236 1.148-5.236 4.872zm9.145 3.276c.168 1.904 1.82 2.828 3.836 2.828 1.96 0 3.304-.728 3.304-2.324 0-3.304-9.912-.504-9.912-6.776 0-2.52 2.548-4.9 6.384-4.9 3.388 0 6.272 2.184 6.272 5.376h-2.884c-.14-1.904-1.624-2.8-3.5-2.8-2.156 0-3.276.98-3.276 2.324 0 3.612 9.912.588 9.912 6.776 0 2.968-2.492 4.9-6.44 4.9-3.696 0-6.552-2.324-6.664-5.404z"/></g></svg>