<svg aria-hidden="true" class="svg-icon iconGearSm" width="14" height="14" viewBox="0 0 14 14"><path d="M8.17 11.42l-.39 1.53a6.06 6.06 0 0 1-1.58 0l-.39-1.53c-.39-.1-.76-.26-1.1-.46l-1.35.8c-.42-.31-.8-.69-1.12-1.1l.8-1.37c-.2-.34-.35-.7-.46-1.1L1.05 7.8a6.06 6.06 0 0 1 0-1.57l1.53-.4c.1-.4.25-.76.45-1.11l-.8-1.36c.32-.42.7-.8 1.1-1.11l1.36.8c.35-.2.73-.36 1.13-.47l.4-1.53a6.06 6.06 0 0 1 1.55 0l.4 1.53c.4.1.78.26 1.13.47l1.36-.8c.41.31.78.68 1.1 1.1l-.8 1.36c.2.35.36.73.46 1.13l1.53.39a6.06 6.06 0 0 1 0 1.57l-1.53.39c-.1.4-.27.77-.47 1.11l.8 1.36c-.32.42-.7.8-1.11 1.11l-1.36-.8c-.34.2-.71.35-1.1.45zM7 9a2 2 0 1 0 0-4 2 2 0 0 0 0 4z"/></svg>