<svg aria-hidden="true" class="svg-icon iconLogoEnterprise" width="150" height="36" viewBox="0 0 150 36"><g><path d="M33.9 18.6l-1.7-.2c-1.3-.1-1.9-.6-1.9-1.6 0-1.1.8-1.8 2.4-1.8 1.1 0 2.1.3 2.8.8l1-1c-1-.8-2.3-1.1-3.8-1.1-2.3 0-3.9 1.2-3.9 3.1 0 1.8 1.1 2.7 3.2 2.9l1.8.2c1.2.1 1.8.6 1.8 1.6 0 1.3-1.1 1.9-2.8 1.9-1.3 0-2.5-.3-3.3-1.2l-1 1c1.2 1.1 2.6 1.5 4.4 1.5 2.6 0 4.3-1.2 4.3-3.2-.2-2-1.5-2.7-3.3-2.9zm13.3-4.8c-1.7 0-2.8.3-3.7 1.5l1 1c.6-.9 1.3-1.2 2.7-1.2 1.9 0 2.7.8 2.7 2.3v1h-3.2c-2.4 0-3.7 1.2-3.7 3.1 0 .8.3 1.6.8 2.2.7.7 1.5 1 3 1 1.4 0 2.2-.3 3.1-1.1v1h1.6v-7.2c-.1-2.4-1.5-3.6-4.3-3.6zm2.7 7c0 .9-.2 1.5-.5 1.8-.7.6-1.5.7-2.4.7-1.7 0-2.4-.6-2.4-1.8 0-1.2.8-1.9 2.4-1.9h3l-.1 1.2zm7.6-5.6c1 0 1.6.3 2.4 1.2l1-1c-1.1-1.2-2-1.6-3.5-1.6-2.7 0-4.7 1.8-4.7 5.5 0 3.6 2 5.5 4.7 5.5 1.5 0 2.4-.4 3.5-1.6l-1.1-1c-.8.9-1.4 1.2-2.4 1.2s-1.9-.4-2.5-1.2c-.5-.7-.7-1.5-.7-2.9 0-1.3.2-2.2.7-2.9.7-.8 1.6-1.2 2.6-1.2zm13.4-1.3H69l-4.8 4.7V9.1h-1.6v15.4h1.6v-3.9l1.9-1.9 3.6 5.8h1.9l-4.4-6.9 3.7-3.7zm7.3-.33c-1.6 0-2.7.6-3.4 1.4-1 1-1.3 2.3-1.3 4.3s.3 3.3 1.3 4.3c.7.7 1.8 1.4 3.4 1.4 1.6 0 2.8-.6 3.4-1.4 1-1 1.3-2.3 1.3-4.3s-.3-3.3-1.3-4.3c-.6-.8-1.7-1.4-3.4-1.4zm1.3 8.3c-.3.3-.7.5-1.3.5-.6 0-1-.2-1.3-.5-.6-.6-.6-1.6-.6-2.7 0-1.2.1-2.1.6-2.7.3-.3.7-.5 1.3-.5.6 0 1 .2 1.3.5.6.6.6 1.5.6 2.7.1 1.2 0 2.2-.6 2.7zm10.8-8.2l-2.2 6.9-2.3-6.9h-2.9l4.1 11.1h2.2l4.1-11.1h-3zm7.6-.1c-2.9 0-4.8 2-4.8 5.7 0 4.5 2.5 5.7 5.1 5.7 2 0 3.1-.6 4.2-1.7l-1.7-1.6c-.7.7-1.3 1-2.5 1-1.6 0-2.4-1-2.4-2.5h6.9v-1.2c0-3.2-1.7-5.4-4.8-5.4zm-2.1 4.6c0-.5.1-.8.3-1.2.3-.7.9-1.2 1.9-1.2.9 0 1.6.5 1.9 1.2.2.4.2.7.3 1.2h-4.4zm11-3.4v-1.1h-2.7v11.1h2.8v-6.7c0-1.4.9-2 1.8-2 .7 0 1 .2 1.5.7l2.1-2.1c-.8-.8-1.5-1-2.6-1-1.3-.1-2.3.4-2.9 1.1zm6.3-2.3v12.3h2.8v-8.8h2v-2.1h-2v-1.2c0-.6.3-1 1-1h1.1v-2.3h-1.6c-2.3 0-3.3 1.6-3.3 3.1zm16.2 1.1c-1.6 0-2.7.6-3.4 1.4-1 1-1.3 2.3-1.3 4.3s.3 3.3 1.3 4.3c.7.7 1.8 1.4 3.4 1.4 1.6 0 2.8-.6 3.4-1.4 1-1 1.3-2.3 1.3-4.3s-.3-3.3-1.3-4.3c-.6-.8-1.8-1.4-3.4-1.4zm1.3 8.3c-.3.3-.7.5-1.3.5-.6 0-1-.2-1.3-.5-.6-.6-.6-1.6-.6-2.7 0-1.2.1-2.1.6-2.7.3-.3.7-.5 1.3-.5.6 0 1 .2 1.3.5.6.6.6 1.5.6 2.7 0 1.2 0 2.2-.6 2.7zm16.5-8.2l-1.8 6.9-2.3-6.9h-2l-2.3 6.9-1.8-6.9H134l3.4 11.1h2.3l2.3-7 2.3 7h2.3l3.4-11.1h-2.9zm-25.1 7.7V9.27h-2.8v12.3c0 1.6 1 3.2 3.2 3.2h1.6v-2.3h-1c-.7 0-1-.4-1-1.1zM41.3 15.6l1.4-1.4h-3v-3.5h-1.6v11.1c0 1.6.9 2.9 2.7 2.9h1.1v-1.3h-.8c-1 0-1.5-.6-1.5-1.6v-6.1h1.7v-.1z" fill="#222426"/><path fill="#BCBBBB" d="M21 27v-8h3v11H0V19h3v8z"/><path d="M5.4 19.1l13.56 1.96.17-2.38-13.26-2.55-.47 2.97zm1.8-6.8l12 5.6 1.1-2.4-12-5.6-1.1 2.4zm3.4-5.9l10.2 8.5 1.7-2-10.2-8.5-1.7 2zM17.1.2L15 1.8l7.9 10.6 2.1-1.6L17.1.2zM5 25h14v-3H5v3zM89.71 29.63h-3.3v1.56h2.78c.16 0 .28.13.28.29v.99c0 .15-.12.28-.28.28h-2.77v1.63h3.3c.15 0 .28.13.28.28v1c0 .16-.13.29-.29.29h-4.7a.29.29 0 0 1-.28-.29v-7.31c0-.16.12-.29.28-.29h4.7c.16 0 .29.13.29.29v1c0 .15-.13.28-.29.28zm-8.29 1.62c.72.1 1.16.28 1.53.61.45.4.69.98.69 1.71 0 1.45-1.18 2.43-2.93 2.43-1.23 0-2.07-.31-2.8-1.05a.28.28 0 0 1 0-.4l.74-.73c.12-.11.3-.11.4 0 .45.44.93.61 1.68.61.46 0 1.23-.1 1.23-.83 0-.17-.03-.4-.19-.55-.13-.12-.25-.18-.65-.23l-.87-.13a2.82 2.82 0 0 1-1.55-.66 2.1 2.1 0 0 1-.63-1.6c0-1.45 1.1-2.43 2.75-2.43 1.05 0 1.79.27 2.47.9a.28.28 0 0 1 0 .42l-.7.7a.29.29 0 0 1-.4 0c-.36-.34-.78-.49-1.4-.49-.67 0-1.06.32-1.06.86 0 .2.06.35.18.46.15.13.4.23.68.27l.83.13zm-5.35-3.19h1.1c.17 0 .3.13.3.29v7.28c0 .16-.13.28-.3.28h-1.1a.29.29 0 0 1-.29-.28v-7.28c0-.16.13-.29.29-.29zm-2.84 4.54l1.55 2.96a.29.29 0 0 1-.25.42h-1.31c-.1 0-.2-.06-.26-.16l-1.47-2.94h-.94v2.81c0 .16-.13.29-.28.29h-1.12a.29.29 0 0 1-.3-.29v-7.34a.3.3 0 0 1 .3-.29H72c1.52 0 2.58 1 2.58 2.43a2.2 2.2 0 0 1-1.36 2.11zm-2.68-1.24h1.37c.3 0 .97-.08.97-.86 0-.54-.36-.86-.97-.86h-1.37v1.72zm-8.34-3.3h2.8c1.55 0 2.64 1.03 2.64 2.51 0 1.48-1.09 2.5-2.65 2.5h-1.39v2.6c0 .16-.12.29-.28.29H62.2a.29.29 0 0 1-.29-.29v-7.32c0-.16.13-.29.29-.29zm1.4 3.44h1.33c.65 0 1.02-.34 1.02-.93 0-.59-.38-.94-1.02-.94h-1.33v1.87zm-4.31 1.06l1.53 2.93a.28.28 0 0 1-.25.42h-1.3c-.1 0-.2-.06-.25-.16l-1.46-2.9h-.93v2.78c0 .15-.13.28-.29.28h-1.1a.28.28 0 0 1-.3-.28v-7.28a.3.3 0 0 1 .3-.29h2.83c1.5 0 2.56 1 2.56 2.41 0 .96-.5 1.74-1.34 2.1zm-2.66-1.23H58c.29 0 .96-.08.96-.85 0-.54-.36-.86-.96-.86h-1.36v1.71zm-7.45-3.27h4.68c.16 0 .29.13.29.29v.99c0 .16-.13.28-.29.28H50.6v1.56h2.76c.16 0 .28.13.28.29v.98c0 .16-.12.29-.28.29H50.6v1.62h3.28c.16 0 .29.13.29.28v1c0 .15-.13.28-.29.28H49.2a.29.29 0 0 1-.29-.28v-7.3c0-.15.13-.28.29-.28zm-6.9 0h5.18c.16 0 .29.13.29.29v1c0 .16-.13.28-.3.28h-1.73v6.06c0 .15-.13.28-.3.28h-1.11a.29.29 0 0 1-.29-.28v-6.06H42.3a.29.29 0 0 1-.29-.28v-1c0-.16.13-.29.29-.29zm-2.6 0h1.11c.16 0 .29.13.29.29v7.33c0 .16-.13.28-.29.28h-1.02a.29.29 0 0 1-.25-.12l-2.87-4.36v4.2c0 .16-.13.28-.29.28h-1.12a.29.29 0 0 1-.29-.28v-7.33a.3.3 0 0 1 .3-.29h1.02c.1 0 .18.05.24.13l2.87 4.35v-4.2c0-.15.13-.28.3-.28zm-10.4 0h4.67c.16 0 .3.13.3.29v.99c0 .16-.14.28-.3.28h-3.28v1.56h2.76c.16 0 .29.13.29.29v.98c0 .15-.13.28-.29.28h-2.76v1.62h3.28c.16 0 .3.13.3.29v.99c0 .16-.14.28-.3.28H29.3a.28.28 0 0 1-.29-.28v-7.28c0-.16.13-.29.29-.29z" fill="#F48024"/></g></svg>