<svg width="966" height="500" viewBox="0 0 966 500" fill="none" xmlns="http://www.w3.org/2000/svg">
<rect width="966" height="500" fill="#E5E5E5"/>
<rect x="121.773" y="139.107" width="722.454" height="221.877" fill="white"/>
<path d="M276.858 271.089H294.187C308.155 271.089 316.97 275.645 316.97 288.045C316.97 300.444 308.155 305.075 294.187 305.075H285.074V323.376H276.858V271.089ZM294.187 297.905C303.226 297.905 308.38 295.888 308.38 288.045C308.38 280.202 303.226 278.26 294.187 278.26H285.074V297.905H294.187ZM356.724 323.376H348.656V316.429C346.864 320.612 342.83 324.571 334.838 324.571C326.771 324.571 320.795 320.089 320.795 307.316V281.546H328.787L328.713 306.345C328.638 313.143 330.505 317.55 336.929 317.55C342.905 317.55 348.656 312.321 348.656 302.386V281.546H356.724V323.376ZM383.029 287.671C374.738 287.671 370.705 294.02 370.705 302.536C370.705 310.976 374.738 317.251 383.029 317.251C390.275 317.251 394.682 311.35 394.682 302.536C394.682 293.647 390.275 287.671 383.029 287.671ZM402.973 302.536C402.973 315.458 395.653 324.571 384.15 324.571C377.502 324.571 373.244 321.733 370.705 317.251V323.376H362.637V267.354H370.705V287.821C373.394 283.115 377.726 280.351 384.15 280.351C395.653 280.351 402.973 289.539 402.973 302.536ZM407.537 267.354H415.604V323.376H407.537V267.354ZM422.101 281.546H430.169V323.376H422.101V281.546ZM421.653 267.354H430.691V276.542H421.653V267.354ZM475.716 305.822C475.343 316.653 467.873 324.571 456.071 324.571C443.149 324.571 434.708 315.458 434.708 302.536C434.708 289.539 443.149 280.351 456.071 280.351C467.425 280.351 475.193 288.792 475.567 297.979H467.051C466.678 292.9 463.466 287.746 456.071 287.746C447.257 287.746 442.999 294.02 442.999 302.536C442.999 310.976 447.257 317.176 456.071 317.176C463.914 317.176 466.977 311.723 467.35 305.822H475.716ZM494.136 271.089H511.465C525.433 271.089 534.248 275.645 534.248 288.045C534.248 300.444 525.433 305.075 511.465 305.075H502.352V323.376H494.136V271.089ZM511.465 297.905C520.504 297.905 525.658 295.888 525.658 288.045C525.658 280.202 520.504 278.26 511.465 278.26H502.352V297.905H511.465ZM538.445 267.354H546.512V323.376H538.445V267.354ZM570.109 280.351C581.538 280.351 587.439 287.746 587.439 299.473V323.376H579.372V317.624C577.131 321.882 573.247 324.571 567.271 324.571C559.054 324.571 552.855 319.865 552.855 311.499C552.855 298.427 567.196 297.008 579.297 297.456C578.849 291.406 576.309 287.522 570.109 287.522C563.685 287.522 560.324 291.481 560.324 296.261H551.809C551.809 287.97 558.307 280.351 570.109 280.351ZM561.22 311.051C561.22 315.234 564.134 317.475 569.064 317.475C574.89 317.475 579.372 313.665 579.372 306.868V303.133C567.047 302.536 561.22 306.046 561.22 311.051ZM589.606 281.546H595.955V271.089H604.022V281.546H611.716V288.418H604.022V312.022C604.022 315.085 605.516 316.504 608.43 316.504H612.911V323.376H608.355C600.064 323.376 595.955 319.118 595.955 312.022V288.418H589.681L589.606 281.546ZM620.466 277.961C620.466 271.612 624.201 267.354 632.492 267.354H638.916V274.226H632.567C629.878 274.226 628.533 275.496 628.533 277.961V281.546H637.87V288.418H628.533V323.376H620.466V288.418H615.686V281.546H620.466V277.961ZM660.146 287.671C651.929 287.671 647.074 293.647 647.074 302.536C647.074 311.35 651.929 317.251 660.146 317.251C668.288 317.251 673.218 311.35 673.218 302.536C673.218 293.647 668.288 287.671 660.146 287.671ZM638.783 302.536C638.783 289.539 647.224 280.351 660.146 280.351C673.068 280.351 681.509 289.539 681.509 302.536C681.509 315.458 673.068 324.571 660.146 324.571C647.224 324.571 638.783 315.458 638.783 302.536ZM685.762 281.546H693.829V288.568C695.472 284.31 699.207 280.351 707.797 280.351V288.418C698.908 288.418 693.829 291.481 693.829 301.415V323.376H685.762V281.546ZM711.549 281.546H719.616V288.344C721.334 284.235 724.995 280.351 731.867 280.351C737.618 280.351 741.951 282.816 743.818 289.24C745.611 284.833 749.719 280.351 757.114 280.351C764.882 280.351 770.111 284.833 770.111 297.606V323.376H762.044V298.577C762.044 291.78 761.147 287.372 755.097 287.372C749.868 287.372 744.864 292.601 744.864 302.536V323.376H736.797V298.577C736.797 291.78 735.9 287.372 729.85 287.372C724.621 287.372 719.616 292.601 719.616 302.536V323.376H711.549V281.546ZM782.128 309.856C782.576 314.935 786.984 317.4 792.362 317.4C797.59 317.4 801.176 315.458 801.176 311.201C801.176 302.386 774.733 310.155 774.733 293.423C774.733 286.7 781.531 280.351 791.764 280.351C800.802 280.351 808.496 286.177 808.496 294.693H800.802C800.429 289.613 796.47 287.223 791.465 287.223C785.714 287.223 782.726 289.837 782.726 293.423C782.726 303.059 809.168 294.693 809.168 311.201C809.168 319.118 802.52 324.272 791.988 324.272C782.128 324.272 774.509 318.073 774.21 309.856H782.128Z" fill="#676262"/>
<rect x="159.961" y="176.144" width="646.078" height="74.0342" stroke="#FF5E00" stroke-width="0.474626" stroke-dasharray="0.95 0.95"/>
<rect x="159.961" y="271.538" width="646.078" height="51.8736" stroke="#FF5E00" stroke-width="0.474626" stroke-dasharray="0.95 0.95"/>
<rect x="159.724" y="250.413" width="37.9509" height="20.8872" fill="#FF5E00" fill-opacity="0.14"/>
<rect x="159.724" y="271.301" width="37.9509" height="52.3482" fill="#FF5E00" fill-opacity="0.14"/>
<rect x="159.724" y="175.906" width="37.9509" height="74.5079" fill="#FF5E00" fill-opacity="0.14"/>
<rect x="159.724" y="139.107" width="37.2544" height="37.9501" transform="rotate(90 159.724 139.107)" fill="#FF5E00" fill-opacity="0.14"/>
<rect x="159.724" y="323.65" width="37.2544" height="37.9501" transform="rotate(90 159.724 323.65)" fill="#FF5E00" fill-opacity="0.14"/>
<rect x="844.227" y="323.65" width="37.2544" height="37.9501" transform="rotate(90 844.227 323.65)" fill="#FF5E00" fill-opacity="0.14"/>
<rect x="844.227" y="139.107" width="37.2544" height="37.9501" transform="rotate(90 844.227 139.107)" fill="#FF5E00" fill-opacity="0.14"/>
<path d="M147.868 215.159C147.899 213.042 150.536 213.363 150.536 212.11C150.536 211.602 150.131 211.264 149.52 211.264C148.764 211.264 148.419 211.687 148.383 212.268H147.917C147.917 211.415 148.582 210.828 149.49 210.828C150.518 210.828 151.008 211.451 151.008 212.086C151.008 213.617 148.806 213.351 148.449 214.748H151.02V215.159H147.868ZM151.311 211.772H151.813L152.635 213.06L153.452 211.772H153.954L152.884 213.453L153.972 215.159H153.47L152.635 213.847L151.795 215.159H151.293L152.381 213.453L151.311 211.772Z" fill="#FF5E00"/>
<path d="M173.502 225.163H174.518V221.727H173.502V221.328H174.972V225.163H175.988V225.562H173.502V225.163ZM176.261 225H176.8V225.562H176.261V225ZM177.224 223.826L177.678 221.328H179.946V221.727H178.053L177.775 223.191C178.004 222.937 178.355 222.719 178.839 222.719C179.825 222.719 180.352 223.361 180.352 224.189C180.352 225.018 179.783 225.659 178.755 225.659C177.896 225.659 177.164 225.073 177.164 224.22H177.605C177.642 224.74 178.004 225.224 178.785 225.224C179.499 225.224 179.88 224.764 179.88 224.171C179.88 223.536 179.468 223.143 178.761 223.143C178.222 223.143 177.835 223.403 177.69 223.826H177.224ZM180.611 222.175H181.113L181.936 223.463L182.753 222.175H183.255L182.184 223.857L183.273 225.562H182.771L181.936 224.25L181.095 225.562H180.593L181.682 223.857L180.611 222.175Z" fill="#FF5E00"/>
<path d="M173.502 298.255H174.518V294.819H173.502V294.42H174.972V298.255H175.988V298.654H173.502V298.255ZM176.261 298.092H176.8V298.654H176.261V298.092ZM177.224 296.918L177.678 294.42H179.946V294.819H178.053L177.775 296.283C178.004 296.029 178.355 295.811 178.839 295.811C179.825 295.811 180.352 296.452 180.352 297.281C180.352 298.11 179.783 298.751 178.755 298.751C177.896 298.751 177.164 298.164 177.164 297.311H177.605C177.642 297.832 178.004 298.316 178.785 298.316C179.499 298.316 179.88 297.856 179.88 297.263C179.88 296.628 179.468 296.235 178.761 296.235C178.222 296.235 177.835 296.495 177.69 296.918H177.224ZM180.611 295.267H181.113L181.936 296.555L182.753 295.267H183.255L182.184 296.948L183.273 298.654H182.771L181.936 297.342L181.095 298.654H180.593L181.682 296.948L180.611 295.267Z" fill="#FF5E00"/>
<path d="M173.502 262.997H174.518V259.561H173.502V259.162H174.972V262.997H175.988V263.396H173.502V262.997ZM177.411 259.162H177.876L176.667 263.396H176.201L177.411 259.162ZM178.149 263.396C178.18 261.279 180.817 261.6 180.817 260.348C180.817 259.84 180.412 259.501 179.801 259.501C179.045 259.501 178.7 259.924 178.664 260.505H178.198C178.198 259.652 178.863 259.065 179.771 259.065C180.799 259.065 181.289 259.688 181.289 260.324C181.289 261.854 179.087 261.588 178.73 262.985H181.301V263.396H178.149ZM182.106 263.396H181.574L182.971 261.267L181.592 259.162H182.124L183.237 260.856L184.344 259.162H184.876L183.503 261.267L184.895 263.396H184.362L183.237 261.672L182.106 263.396Z" fill="#FF5E00"/>
<path d="M178.519 246.78C178.602 246.863 178.737 246.863 178.82 246.78L180.177 245.423C180.26 245.34 180.26 245.205 180.177 245.122C180.094 245.038 179.959 245.038 179.875 245.122L178.669 246.328L177.463 245.122C177.38 245.038 177.245 245.038 177.162 245.122C177.079 245.205 177.079 245.34 177.162 245.423L178.519 246.78ZM178.669 231.571L178.456 231.571L178.456 246.629L178.669 246.629L178.883 246.629L178.883 231.571L178.669 231.571Z" fill="#FF5E00"/>
<path d="M151.07 246.778C151.153 246.861 151.288 246.861 151.371 246.778L152.728 245.421C152.811 245.338 152.811 245.203 152.728 245.119C152.645 245.036 152.51 245.036 152.427 245.119L151.221 246.325L150.015 245.119C149.931 245.036 149.796 245.036 149.713 245.119C149.63 245.203 149.63 245.338 149.713 245.421L151.07 246.778ZM151.221 218.545L151.008 218.545L151.008 246.627L151.221 246.627L151.434 246.627L151.434 218.545L151.221 218.545Z" fill="#FF5E00"/>
<path d="M178.82 201.988C178.737 201.905 178.602 201.905 178.519 201.988L177.162 203.345C177.079 203.428 177.079 203.563 177.162 203.647C177.245 203.73 177.38 203.73 177.463 203.647L178.669 202.441L179.875 203.647C179.959 203.73 180.094 203.73 180.177 203.647C180.26 203.563 180.26 203.428 180.177 203.345L178.82 201.988ZM178.669 216.18L178.883 216.18L178.883 202.139L178.669 202.139L178.456 202.139L178.456 216.18L178.669 216.18Z" fill="#FF5E00"/>
<path d="M178.519 319.871C178.602 319.954 178.737 319.954 178.82 319.871L180.177 318.514C180.26 318.431 180.26 318.296 180.177 318.212C180.094 318.129 179.959 318.129 179.875 318.212L178.669 319.418L177.463 318.212C177.38 318.129 177.245 318.129 177.162 318.212C177.079 318.296 177.079 318.431 177.162 318.514L178.519 319.871ZM178.669 304.662L178.456 304.662L178.456 319.72L178.669 319.72L178.883 319.72L178.883 304.662L178.669 304.662Z" fill="#FF5E00"/>
<path d="M151.363 179.541C151.28 179.457 151.145 179.457 151.062 179.541L149.705 180.897C149.622 180.981 149.622 181.116 149.705 181.199C149.788 181.282 149.923 181.282 150.006 181.199L151.212 179.993L152.418 181.199C152.502 181.282 152.637 181.282 152.72 181.199C152.803 181.116 152.803 180.981 152.72 180.897L151.363 179.541ZM151.212 207.773L151.426 207.773L151.426 179.691L151.212 179.691L150.999 179.691L150.999 207.773L151.212 207.773Z" fill="#FF5E00"/>
<path d="M178.82 275.08C178.737 274.997 178.602 274.997 178.519 275.08L177.162 276.437C177.079 276.52 177.079 276.655 177.162 276.738C177.245 276.822 177.38 276.822 177.463 276.738L178.669 275.532L179.875 276.738C179.959 276.822 180.094 276.822 180.177 276.738C180.26 276.655 180.26 276.52 180.177 276.437L178.82 275.08ZM178.669 289.271L178.883 289.271L178.883 275.231L178.669 275.231L178.456 275.231L178.456 289.271L178.669 289.271Z" fill="#FF5E00"/>
<path d="M276.752 297.765L276.752 175.907" stroke="#FF5E00" stroke-width="0.426393" stroke-dasharray="0.85 0.85"/>
<path d="M806.276 271.301L806.276 250.414" stroke="#FF5E00" stroke-width="0.426393" stroke-dasharray="0.85 0.85"/>
<rect x="159.265" y="197.287" width="646.774" height="52.8892" stroke="#FF5E00" stroke-width="0.474626" stroke-dasharray="0.95 0.95"/>
<g clip-path="url(#clip0_1_30045)">
<g clip-path="url(#clip1_1_30045)">
<path d="M296.465 242.192C302.634 242.192 307.128 239.825 307.128 235.441C307.128 224.567 274.524 234.827 274.524 212.993C274.524 204.487 282.631 197.297 295.672 197.297C307.128 197.297 316.468 204.75 316.468 215.448H306.158C305.718 209.661 302.369 206.241 295.32 206.241C288.359 206.241 284.746 209.047 284.746 212.993C284.746 224.83 317.261 213.782 317.261 235.441C317.261 245.437 309.331 251.049 295.937 251.049C283.512 251.049 274.26 243.245 273.907 232.81H284.305C284.834 238.685 289.857 242.192 296.465 242.192ZM319.905 207.468H325.72V198.524H335.325V207.468H342.639V215.623H335.325V242.017H339.643H343.873V250.172H339.555L325.72 250.084V215.623H319.993L319.905 207.468ZM355.416 228.864C355.416 236.931 359.293 242.719 366.343 242.719C374.097 242.719 377.886 236.756 377.886 228.864C377.886 220.972 374.097 214.834 366.343 214.834C359.293 214.834 355.416 220.709 355.416 228.864ZM364.845 206.241C370.925 206.241 375.155 208.696 377.886 212.993V207.468H387.491V250.172H377.886V244.735C375.331 248.857 371.189 251.4 364.845 251.4C352.861 251.4 345.547 242.105 345.547 228.864C345.547 215.623 352.861 206.241 364.845 206.241ZM413.398 251.4C400.18 251.4 391.544 242.105 391.544 228.864C391.544 215.623 400.18 206.241 413.398 206.241C425.117 206.241 433.312 214.834 433.4 224.217H423.355C423.091 219.569 420.271 214.922 413.398 214.922C405.026 214.922 401.414 220.972 401.414 228.864C401.414 236.756 405.026 242.631 413.398 242.631C420.535 242.631 423.355 237.633 423.619 232.284H433.577C433.4 243.332 425.558 251.4 413.398 251.4ZM437.278 198.524H446.97V224.567L460.805 207.468H472.172L458.25 224.655L473.582 250.172H462.832L452.434 231.67L446.97 238.51V250.172H437.278V198.524ZM526.893 224.304C526.893 215.536 522.047 206.241 510.856 206.241C499.577 206.241 494.554 215.536 494.554 224.304C494.554 233.073 499.577 242.456 510.856 242.456C522.047 242.456 526.893 233.073 526.893 224.304ZM484.332 224.304C484.332 209.661 493.761 197.297 510.856 197.297C527.863 197.297 536.322 209.661 537.291 224.304C536.322 239.123 527.863 251.4 510.856 251.4C493.761 251.4 484.332 239.123 484.332 224.304ZM537.379 207.468H547.689L557.294 241.579L566.987 207.468H577.297L563.903 250.172H550.773L537.379 207.468ZM586.637 224.129H608.314C607.785 219.043 604.613 214.834 598.269 214.834C591.572 214.834 587.959 218.692 586.637 224.129ZM598.269 251.4C584.963 251.4 576.327 242.105 576.327 228.864C576.327 215.623 584.963 206.241 598.269 206.241C609.9 206.241 619.858 215.623 617.743 232.021H586.461C587.254 238.247 590.955 242.719 598.269 242.719C603.291 242.719 606.464 240.088 607.785 236.581H617.831C615.98 245.349 608.667 251.4 598.269 251.4ZM621.884 207.468V250.172H631.489V215.623H645.324V207.468H621.884ZM667.177 193C657.924 193 653.518 197.297 653.518 204.925V207.468H649.113V215.623H653.518V250.172H663.123V215.623H673.345V207.468H663.123V204.925C663.123 202.47 664.533 201.155 667.265 201.155H674.226V193H667.177ZM678.015 193V250.172H687.708V193H678.015ZM701.719 228.864C701.719 236.931 705.772 242.719 713.791 242.719C721.81 242.719 725.863 236.931 725.863 228.864C725.863 220.972 721.81 214.834 713.791 214.834C705.772 214.834 701.719 220.972 701.719 228.864ZM713.791 206.241C727.009 206.241 735.997 215.623 735.644 228.864C735.997 242.105 727.009 251.4 713.791 251.4C700.485 251.4 691.85 242.105 691.85 228.864C691.85 215.623 700.485 206.241 713.791 206.241ZM735.997 207.468H746.306L752.475 239.474L759.612 207.468H770.098L777.236 239.562L783.58 207.468H793.802L783.492 250.172H770.715L764.899 224.041L759.084 250.172H746.306L735.997 207.468Z" fill="#201C1D"/>
</g>
</g>
<path d="M251.352 216.369L251.461 216.425L251.432 216.454L251.352 216.374C248.897 219.513 246.839 222.969 245.252 226.663C245.229 226.72 245.206 226.771 245.183 226.828C243.654 230.431 242.568 234.262 241.999 238.263C241.993 238.285 241.993 238.314 241.993 238.336C241.688 240.459 241.533 242.627 241.533 244.829C241.533 246.701 241.648 248.551 241.867 250.367L196.281 250.367L196.281 238.263L235.865 238.263C235.94 237.763 236.026 237.275 236.118 236.782L197.983 226.691L201.156 214.995L239.763 225.21C239.941 224.819 240.125 224.433 240.309 224.047L205.663 204.298L211.791 193.816L246.954 213.855C247.23 213.525 247.512 213.196 247.805 212.873L218.993 184.436L227.668 175.872L256.939 204.775L260.032 207.828C256.778 210.291 253.858 213.162 251.352 216.369Z" fill="#201C1D"/>
<defs>
<clipPath id="clip0_1_30045">
<rect width="519.895" height="59.2339" fill="white" transform="translate(273.907 192.494)"/>
</clipPath>
<clipPath id="clip1_1_30045">
<rect width="519.895" height="58.3996" fill="white" transform="translate(273.907 192.999)"/>
</clipPath>
</defs>
</svg>
