<svg fill="none" height="500" viewBox="0 0 966 500" width="966" xmlns="http://www.w3.org/2000/svg"><path d="m0 0h966v500h-966z" fill="#201c1d"/><path d="m165.029 241.058h64.4578v6.76744h-64.4578z" fill="#ff5e00" transform="matrix(0 1 -1 0 406.087 76.029)"/><path d="m165.033 241.058h6.76743v6.76743h-6.76743z" fill="#fc0" transform="matrix(0 1 -1 0 406.091 76.025)"/><path d="m154.065 213.368h92.1476v6.76744h-92.1476z" fill="#ff5e00" transform="matrix(0 1 -1 0 367.433 59.303)"/><path d="m154.065 213.368h6.76743v6.76743h-6.76743z" fill="#fc0" transform="matrix(0 1 -1 0 367.433 59.303)"/><path d="m143.094 251.422h54.0943v6.76744h-54.0943z" fill="#ff5e00" transform="matrix(0 1 -1 0 394.516 108.328)"/><path d="m143.096 251.422h6.76743v6.76743h-6.76743z" fill="#fc0" transform="matrix(0 1 -1 0 394.518 108.326)"/><path d="m132.121 199.606h105.909v6.76744h-105.909z" fill="#ff5e00" transform="matrix(0 1 -1 0 331.727 67.485)"/><path d="m132.124 199.606h6.76743v6.76743h-6.76743z" fill="#fc0" transform="matrix(0 1 -1 0 331.73 67.482)"/><path d="m121.15 236.143h69.3731v6.76744h-69.3731z" fill="#ff5e00" transform="matrix(0 1 -1 0 357.293 114.993)"/><path d="m121.153 236.143h6.76743v6.76743h-6.76743z" fill="#fc0" transform="matrix(0 1 -1 0 357.296 114.99)"/><path d="m110.18 265.68h39.8354v6.76744h-39.8354z" fill="#ff5e00" transform="matrix(0 1 -1 0 375.86 155.5)"/><path d="m110.182 265.68h6.76743v6.76743h-6.76743z" fill="#fc0" transform="matrix(0 1 -1 0 375.862 155.498)"/><path d="m99.2095 224.356h81.1602v6.76744h-81.1602z" fill="#ff5e00" transform="matrix(0 1 -1 0 323.5655 125.1465)"/><path d="m99.2095 224.356h6.76743v6.76743h-6.76743z" fill="#fc0" transform="matrix(0 1 -1 0 323.5655 125.1465)"/><path d="m88.2408 248.128h57.3879v6.76744h-57.3879z" fill="#ff5e00" transform="matrix(0 1 -1 0 336.3688 159.8872)"/><path d="m88.2424 248.038h6.76743v6.76743h-6.76743z" fill="#fc0" transform="matrix(0 1 -1 0 336.2804 159.7956)"/><path d="m77.2727 231.871h73.6448v6.76744h-73.6448z" fill="#ff5e00" transform="matrix(0 1 -1 0 309.1437 154.5983)"/><path d="m77.2743 231.871h6.76743v6.76743h-6.76743z" fill="#fc0" transform="matrix(0 1 -1 0 309.1453 154.5967)"/><path d="m66.2997 220.764h84.7518v6.76744h-84.7518z" fill="#ff5e00" transform="matrix(0 1 -1 0 287.0637 154.4643)"/><path d="m66.3033 220.764h6.76743v6.76743h-6.76743z" fill="#fc0" transform="matrix(0 1 -1 0 287.0673 154.4607)"/><path d="m55.3344 231.871h73.6448v6.76744h-73.6448z" fill="#ff5e00" transform="matrix(0 1 -1 0 287.2054 176.5366)"/><path d="m55.3363 231.871h6.76743v6.76743h-6.76743z" fill="#fc0" transform="matrix(0 1 -1 0 287.2073 176.5347)"/><path d="m650.775 218.103h15.8294v11.2211h-15.8294z" fill="#86af25" transform="matrix(-1 -0 0 -1 1301.55 436.206)"/><path d="m650.775 233.118h23.6856v11.2211h-23.6856z" fill="#ff5e00" transform="matrix(-1 -0 0 -1 1301.55 466.236)"/><path d="m650.775 248.128h35.5288v11.2211h-35.5288z" fill="#ff5e00" transform="matrix(-1 -0 0 -1 1301.55 496.256)"/><path d="m650.775 263.144h47.4892v11.2211h-47.4892z" fill="#ff5e00" transform="matrix(-1 -0 0 -1 1301.55 526.288)"/><path d="m650.772 278.159h59.2144v11.2211h-59.2144z" fill="#ff5e00" transform="matrix(-1 -0 0 -1 1301.544 556.318)"/><path d="m0 0h71.0566v11.2211h-71.0566z" fill="#ff5e00" transform="matrix(-1 -.0000001 -.00000008 1 650.772 281.949)"/><path d="m650.775 233.116h23.6856v11.2211h-23.6856z" fill="#86af25" transform="matrix(-1 -0 0 -1 1301.55 466.232)"/><path d="m650.775 248.13h35.5284v11.2211h-35.5284z" fill="#86af25" transform="matrix(-1 -0 0 -1 1301.55 496.26)"/><path d="m650.775 263.144h47.3711v11.2211h-47.3711z" fill="#86af25" transform="matrix(-1 -0 0 -1 1301.55 526.288)"/><path d="m650.775 278.159h59.2139v11.2211h-59.2139z" fill="#86af25" transform="matrix(-1 -0 0 -1 1301.55 556.318)"/><path d="m0 0h71.0567v11.2211h-71.0567z" fill="#86af25" transform="matrix(-1 -.0000001 -.00000008 1 650.775 281.946)"/><path d="m650.775 218.103h15.8294v11.2211h-15.8294z" fill="#ff5e00" transform="matrix(-1 -0 0 -1 1301.55 436.206)"/><path d="m650.772 233.12h23.6845v11.2211h-23.6845z" fill="#ff5e00" transform="matrix(-1 -0 0 -1 1301.544 466.24)"/><path d="m650.775 248.13h35.5288v11.2211h-35.5288z" fill="#ff5e00" transform="matrix(-1 -0 0 -1 1301.55 496.26)"/><path d="m650.775 263.141h47.3711v11.2211h-47.3711z" fill="#ff5e00" transform="matrix(-1 -0 0 -1 1301.55 526.282)"/><path d="m650.775 278.157h59.214v11.2211h-59.214z" fill="#ff5e00" transform="matrix(-1 -0 0 -1 1301.55 556.314)"/><path d="m0 0h71.0566v11.2211h-71.0566z" fill="#ff5e00" transform="matrix(-1 -.0000001 -.00000008 1 650.775 281.946)"/><path d="m0 0h15.8294v11.2211h-15.8294z" fill="#86af25" transform="matrix(1 .00000017 .0000002 -1 650.766 218.098)"/><path d="m0 0h23.6856v11.2211h-23.6856z" fill="#ff5e00" transform="matrix(1 .00000017 .0000002 -1 650.766 233.115)"/><path d="m0 0h35.5285v11.2211h-35.5285z" fill="#ff5e00" transform="matrix(1 .00000017 .0000002 -1 650.766 248.126)"/><path d="m0 0h47.4882v11.2211h-47.4882z" fill="#ff5e00" transform="matrix(1 .00000017 .0000002 -1 650.766 263.145)"/><path d="m0 0h59.214v11.2211h-59.214z" fill="#ff5e00" transform="matrix(1 .00000017 .0000002 -1 650.766 278.154)"/><path d="m0 0h71.0566v11.2211h-71.0566z" fill="#ff5e00" transform="matrix(1 .00000017 .0000002 -1 650.766 293.174)"/><path d="m0 0h23.6856v11.2211h-23.6856z" fill="#86af25" transform="matrix(1 .00000017 .0000002 -1 650.766 233.118)"/><path d="m0 0h35.5284v11.2211h-35.5284z" fill="#86af25" transform="matrix(1 .00000017 .0000002 -1 650.766 248.126)"/><path d="m0 0h47.3711v11.2211h-47.3711z" fill="#86af25" transform="matrix(1 .00000017 .0000002 -1 650.766 263.145)"/><path d="m0 0h59.2139v11.2211h-59.2139z" fill="#86af25" transform="matrix(1 .00000017 .0000002 -1 650.766 278.154)"/><path d="m0 0h71.0567v11.2211h-71.0567z" fill="#86af25" transform="matrix(1 .00000017 .0000002 -1 650.766 293.172)"/><path d="m0 0h7.58428v11.2211h-7.58428z" fill="#ff5e00" transform="matrix(1 .00000017 .0000002 -1 650.766 218.098)"/><path d="m0 0h15.1686v11.2211h-15.1686z" fill="#ff5e00" transform="matrix(1 .00000017 .0000002 -1 650.766 233.118)"/><path d="m0 0h22.7528v11.2211h-22.7528z" fill="#ff5e00" transform="matrix(1 .00000017 .0000002 -1 650.766 248.126)"/><path d="m0 0h30.3371v11.2211h-30.3371z" fill="#ff5e00" transform="matrix(1 .00000017 .0000002 -1 650.766 263.145)"/><path d="m0 0h37.9214v11.2211h-37.9214z" fill="#ff5e00" transform="matrix(1 .00000017 .0000002 -1 650.766 278.154)"/><path d="m0 0h45.5057v11.2211h-45.5057z" fill="#ff5e00" transform="matrix(1 .00000017 .0000002 -1 650.766 293.172)"/><path d="m0 0h45.5057v11.2211h-45.5057z" fill="#ff5e00" transform="matrix(1 .00000017 .0000002 -1 650.769 293.172)"/><path d="m650.768 218.099h4.33389v11.2211h-4.33389z" fill="#ff5e00" transform="matrix(-1 -0 0 -1 1301.536 436.198)"/><path d="m0 0h4.33389v11.2211h-4.33389z" fill="#ff5e00" transform="matrix(1 .00000017 .0000002 -1 650.768 218.098)"/><path d="m230.449 169.622h44.3351v10.2526h-44.3351z" fill="#ff5e00"/><path d="m229.614 183.392h63.2049v10.2526h-63.2049z" fill="#ff5e00"/><path d="m235.016 197.162h74.4161v10.2526h-74.4161z" fill="#ff5e00"/><path d="m245.99 210.932h77.142v10.2526h-77.142z" fill="#ff5e00"/><path d="m261.216 224.702h70.3867v10.2526h-70.3867z" fill="#ff5e00"/><path d="m279.509 238.472h54.4184v10.2526h-54.4184z" fill="#ff5e00"/><path d="m297.776 252.242h32.5508v10.2526h-32.5508z" fill="#ff5e00"/><path d="m313.862 266.012h6.67824v10.2526h-6.67824z" fill="#ff5e00"/><path d="m257.282 278.868h68.7091v10.2526h-68.7091z" fill="#f39fff"/><path d="m274.659 292.638h58.2904v10.2526h-58.2904z" fill="#f39fff"/><path d="m292.86 306.408h40.9695v10.2526h-40.9695z" fill="#f39fff"/><path d="m237.303 320.178h19.9783v10.2526h-19.9783z" fill="#f39fff"/><path d="m274.785 169.622h58.0516v10.2526h-58.0516z" fill="#f39fff"/><path d="m292.819 183.392h41.109v10.2526h-41.109z" fill="#f39fff"/><path d="m309.432 197.162h18.7759v10.2526h-18.7759z" fill="#f39fff"/><path d="m240.065 210.932h5.92376v10.2526h-5.92376z" fill="#f39fff"/><path d="m231.519 224.702h29.6968v10.2526h-29.6968z" fill="#f39fff"/><path d="m229.173 238.473h50.3358v10.2526h-50.3358z" fill="#f39fff"/><path d="m233.15 252.242h64.6251v10.2526h-64.6251z" fill="#f39fff"/><path d="m243.028 266.012h70.8351v10.2526h-70.8351z" fill="#f39fff"/><path d="m237.303 278.868h19.9783v10.2526h-19.9783z" fill="#ff5e00"/><path d="m230.32 292.638h44.3376v10.2526h-44.3376z" fill="#ff5e00"/><path d="m229.173 306.408h63.6865v10.2526h-63.6865z" fill="#ff5e00"/><path d="m257.282 320.178h68.7091v10.2526h-68.7091z" fill="#ff5e00"/><path d="m451.287 250.024v-58.752h11.069v58.752z" fill="#9d9cff"/><path d="m452.029 247.257 29.376-50.881 9.586 5.534-29.376 50.882z" fill="#9d9cff"/><path d="m454.054 245.231 50.882-29.376 5.534 9.586-50.881 29.377z" fill="#9d9cff"/><path d="m456.822 244.49h58.753v11.069h-58.753z" fill="#9d9cff"/><path d="m459.589 245.231 50.881 29.377-5.534 9.586-50.882-29.376z" fill="#9d9cff"/><path d="m461.615 247.257 29.376 50.882-9.586 5.534-29.376-50.881z" fill="#9d9cff"/><path d="m462.356 250.024v58.753h-11.069v-58.753z" fill="#9d9cff"/><path d="m461.615 252.792-29.377 50.881-9.586-5.534 29.377-50.882z" fill="#9d9cff"/><path d="m459.589 254.818-50.881 29.376-5.535-9.586 50.881-29.377z" fill="#9d9cff"/><path d="m456.822 255.559h-58.753v-11.069h58.753z" fill="#9d9cff"/><path d="m454.054 254.818-50.881-29.377 5.535-9.586 50.881 29.376z" fill="#9d9cff"/><path d="m452.029 252.792-29.377-50.882 9.586-5.534 29.377 50.881z" fill="#9d9cff"/><g fill="#ff5e00"><path d="m451.287 287.205h74.3605v11.0692h-74.3605z" transform="matrix(0 -1 1 0 164.082 738.492)"/><path d="m451.287 200.762h9.49027v11.0692h-9.49027z" transform="matrix(0 -1 1 0 250.525 652.049)"/><path d="m451.287 308.777h9.49027v11.0692h-9.49027z" transform="matrix(0 -1 1 0 142.51 760.064)"/><path d="m427.395 210.133h9.49027v11.0692h-9.49027z" transform="matrix(-.50009069 -.86597304 .86597304 -.50009069 459.161747 685.331103)"/><path d="m481.411 303.671h9.49027v11.0692h-9.49027z" transform="matrix(-.50009069 -.86597304 .86597304 -.50009069 459.189259 872.422986)"/><path d="m411.396 230.188h9.49027v11.0692h-9.49027z" transform="matrix(-.8660254 -.5 .5 -.8660254 652.581387 635.234656)"/><path d="m504.939 284.195h9.49027v11.0692h-9.49027z" transform="matrix(-.8660254 -.5 .5 -.8660254 800.131501 782.78459)"/><path d="m407.562 255.56h9.49027v11.0692h-9.49027z" transform="matrix(-1 0 -0 -1 815.124 511.12)"/><path d="m515.577 255.56h9.49027v11.0692h-9.49027z" transform="matrix(-1 0 -0 -1 1031.154 511.12)"/><path d="m416.927 279.448h9.49027v11.0692h-9.49027z" transform="matrix(-.8660254 .5 -.5 -.8660254 917.720374 312.993567)"/><path d="m510.471 225.441h9.49027v11.0692h-9.49027z" transform="matrix(-.8660254 .5 -.5 -.8660254 1065.272354 165.443133)"/><path d="m436.985 295.452h9.49027v11.0692h-9.49027z" transform="matrix(-.5 .8660254 -.8660254 -.5 911.346438 64.737889)"/><path d="m490.992 201.909h9.49027v11.0692h-9.49027z" transform="matrix(-.5 .8660254 -.8660254 -.5 911.346323 -122.348045)"/><path d="m470.618 284.991h74.3605v11.0692h-74.3605z" transform="matrix(-.5 -.8660254 .8660254 -.5 459.117554 835.053643)"/><path d="m486.254 273.408h74.3605v11.0692h-74.3605z" transform="matrix(-.8660254 -.5 .5 -.8660254 770.658317 753.313274)"/><path d="m494.001 255.559h74.3605v11.0692h-74.3605z" transform="matrix(-1 0 -0 -1 988.002 511.118)"/><path d="m491.787 236.228h74.3605v11.0692h-74.3605z" transform="matrix(-.8660254 .5 -.5 -.8660254 1035.801035 194.913949)"/><path d="m480.205 220.593h74.3605v11.0692h-74.3605z" transform="matrix(-.5 .8660254 -.8660254 -.5 911.346642 -84.980229)"/></g><path d="m0 0h11.8691v11.8691h-11.8691z" fill="#c6d1e1" transform="matrix(-.00000004 1 1 .00000004 785.966 265.751)"/><path d="m0 0h11.8691v11.8691h-11.8691z" fill="#c6d1e1" transform="matrix(.00000013 -1 -1 -.00000013 919.094 234.677)"/><path d="m0 0h11.8691v11.8691h-11.8691z" fill="#c6d1e1" transform="matrix(-1 -.00000009 -.00000009 1 836.513 184.077)"/><path d="m0 0h11.8691v11.8691h-11.8691z" fill="#c6d1e1" transform="matrix(1 .00000017 .00000017 -1 867.723 315.973)"/><path d="m919.097 265.751h11.8691v11.8691h-11.8691z" fill="#c6d1e1" transform="matrix(0 1 -1 0 1184.848 -653.346)"/><path d="m867.587 184.074h11.8691v11.8691h-11.8691z" fill="#c6d1e1"/><path d="m836.646 315.977h11.8691v11.8691h-11.8691z" fill="#c6d1e1" transform="matrix(-1 0 -0 -1 1673.292 631.954)"/><path d="m785.966 234.677h11.8691v11.8691h-11.8691z" fill="#c6d1e1" transform="matrix(0 -1 1 0 551.289 1020.643)"/><path d="m857.936 244.365v11.771l49.308-21.45v-11.806z" fill="#ff5e00"/><path d="m846.2 245.236h11.771l-21.45-49.309h-11.806z" fill="#ff5e00"/><path d="m858.033 254.814h-11.771l21.45 49.308h11.806z" fill="#ff5e00"/><path d="m847.143 244.365v11.771l-49.308-21.45v-11.806z" fill="#ff5e00"/><path d="m907.244 265.985v11.771l-49.308-21.449v-11.807z" fill="#ff5e00"/><path d="m867.82 195.927h11.77l-21.449 49.308h-11.807z" fill="#ff5e00"/><path d="m836.413 304.123h-11.771l21.45-49.308h11.806z" fill="#ff5e00"/><path d="m797.835 265.985v11.771l49.308-21.449v-11.807z" fill="#ff5e00"/><path d="m845.412 243.509h13.4072v13.4072h-13.4072z" fill="#c6d1e1"/><path d="m412.6 427.174c.196 2.408 2.24 3.836 4.928 3.836 2.604 0 4.396-1.036 4.396-2.884 0-4.424-12.404-1.036-12.404-8.988 0-3.248 3.108-5.768 7.728-5.768 4.256 0 7.588 2.772 7.588 6.664h-3.276c-.168-2.408-1.54-3.808-4.452-3.808-2.884 0-4.396 1.176-4.396 2.912 0 4.76 12.432 1.12 12.432 8.988 0 3.64-2.884 5.74-7.784 5.74-4.536 0-7.924-2.856-8.064-6.692zm15.08 11.844v-21.28h3.024v2.408c.98-1.792 2.632-2.856 5.04-2.856 4.312 0 7.056 3.444 7.056 8.316 0 4.844-2.744 8.26-7.056 8.26-2.492 0-4.116-1.12-5.04-2.828v7.98zm7.644-7.896c2.716 0 4.368-2.212 4.368-5.516 0-3.332-1.652-5.572-4.368-5.572-3.108 0-4.62 2.38-4.62 5.572 0 3.164 1.512 5.516 4.62 5.516zm9.583-18.704h3.388v3.444h-3.388zm.168 5.32h3.024v15.68h-3.024zm5.983 0h3.024v2.576c.644-1.568 2.184-3.024 5.152-3.024 3.024 0 5.292 1.68 5.292 6.468v9.66h-3.024v-9.296c0-2.548-.616-4.2-3.024-4.2-2.24 0-4.396 1.96-4.396 5.684v7.812h-3.024zm22.655 16.128c-4.312 0-7.056-3.416-7.056-8.26 0-4.872 2.744-8.316 7.056-8.316 2.408 0 4.06 1.064 5.04 2.856v-7.728h3.024v21h-3.024v-2.38c-.924 1.708-2.548 2.828-5.04 2.828zm.42-2.744c3.08 0 4.62-2.352 4.62-5.516 0-3.192-1.54-5.572-4.62-5.572-2.716 0-4.368 2.24-4.368 5.572 0 3.304 1.652 5.516 4.368 5.516zm10.477-18.704h3.024v21h-3.024zm13.188 21.448c-4.844 0-8.008-3.416-8.008-8.26 0-4.872 3.164-8.316 8.008-8.316 4.256 0 7.784 3.388 7.14 9.296h-11.984c.308 2.66 1.876 4.536 4.844 4.536 2.184 0 3.444-1.176 3.948-2.688h3.192c-.728 3.22-3.332 5.432-7.14 5.432zm0-13.832c-2.744 0-4.312 1.624-4.76 4.004h8.932c-.196-2.24-1.652-4.004-4.172-4.004z" fill="#fff"/><path d="m254.827 433.418v-19.6h6.636c6.216 0 9.66 4.144 9.66 9.772 0 5.684-3.444 9.828-9.66 9.828zm3.08-2.716h3.556c4.424 0 6.44-3.192 6.44-7.112 0-3.864-2.016-7.056-6.44-7.056h-3.556zm26.628 2.716-8.092-15.82v15.82h-2.94v-19.6h4.368l8.12 15.82v-15.82h2.94v19.6zm12.884-19.6h4.2l6.468 19.6h-3.22l-1.456-4.536h-7.728l-1.372 4.536h-3.22zm-.896 12.376h6.048l-3.052-9.688z" fill="#fff"/><path d="m78.913 433.418v-19.6h6.636c6.216 0 9.66 4.144 9.66 9.772 0 5.684-3.444 9.828-9.66 9.828zm3.08-2.716h3.556c4.424 0 6.44-3.192 6.44-7.112 0-3.864-2.016-7.056-6.44-7.056h-3.556zm21.952-13.412c4.284 0 6.496 2.772 6.496 7.168v8.96h-3.024v-2.128c-.84 1.596-2.324 2.576-4.536 2.576-3.0795 0-5.4035-1.764-5.4035-4.9 0-4.9 5.3755-5.432 9.9115-5.264-.168-2.268-1.148-3.724-3.444-3.724-2.408 0-3.668 1.484-3.668 3.276h-3.1915c0-3.108 2.436-5.964 6.8595-5.964zm-3.332 11.508c0 1.568 1.092 2.408 2.94 2.408 2.184 0 3.864-1.428 3.864-3.976v-1.4c-4.62-.224-6.804 1.092-6.804 2.968zm11.256-11.06h2.352v-3.92h3.024v3.92h2.884v2.576h-2.884v8.848c0 1.148.56 1.68 1.652 1.68h1.68v2.576h-1.708c-3.108 0-4.648-1.596-4.648-4.256v-8.848h-2.352zm16.987-.448c4.284 0 6.496 2.772 6.496 7.168v8.96h-3.024v-2.128c-.84 1.596-2.324 2.576-4.536 2.576-3.08 0-5.404-1.764-5.404-4.9 0-4.9 5.376-5.432 9.912-5.264-.168-2.268-1.148-3.724-3.444-3.724-2.408 0-3.668 1.484-3.668 3.276h-3.192c0-3.108 2.436-5.964 6.86-5.964zm-3.332 11.508c0 1.568 1.092 2.408 2.94 2.408 2.184 0 3.864-1.428 3.864-3.976v-1.4c-4.62-.224-6.804 1.092-6.804 2.968z" fill="#fff"/><path d="m600.02 413.818h6.496c5.236 0 8.54 1.708 8.54 6.356s-3.304 6.384-8.54 6.384h-3.416v6.86h-3.08zm6.496 10.052c3.388 0 5.32-.756 5.32-3.696s-1.932-3.668-5.32-3.668h-3.416v7.364zm15.038 9.548-5.04-15.68h3.248l3.836 12.88 3.948-12.88h3.248l-5.04 15.68c-1.232 3.864-2.24 5.6-5.964 5.6h-1.848v-2.576h1.82c1.988 0 2.38-1.344 2.968-3.024zm14.135-8.232v8.232h-3.024v-15.68h3.024v2.632c.588-1.596 2.016-3.08 5.236-3.08v3.024c-3.332 0-5.236 1.148-5.236 4.872zm13.126-7.896c4.284 0 6.496 2.772 6.496 7.168v8.96h-3.024v-2.128c-.84 1.596-2.324 2.576-4.536 2.576-3.08 0-5.404-1.764-5.404-4.9 0-4.9 5.376-5.432 9.912-5.264-.168-2.268-1.148-3.724-3.444-3.724-2.408 0-3.668 1.484-3.668 3.276h-3.192c0-3.108 2.436-5.964 6.86-5.964zm-3.332 11.508c0 1.568 1.092 2.408 2.94 2.408 2.184 0 3.864-1.428 3.864-3.976v-1.4c-4.62-.224-6.804 1.092-6.804 2.968zm15.499-3.192v7.812h-3.024v-15.68h3.024v2.548c.616-1.54 1.988-2.996 4.592-2.996 2.156 0 3.78.924 4.48 3.332.644-1.652 2.184-3.332 4.984-3.332 2.912 0 4.872 1.68 4.872 6.468v9.66h-3.024v-9.296c0-2.548-.336-4.2-2.604-4.2-1.96 0-3.836 1.96-3.836 5.684v7.812h-3.024v-9.296c0-2.548-.336-4.2-2.604-4.2-1.96 0-3.836 1.96-3.836 5.684zm21.505-13.188h3.388v3.444h-3.388zm.168 5.32h3.024v15.68h-3.024zm12.396 16.128c-4.312 0-7.056-3.416-7.056-8.26 0-4.872 2.744-8.316 7.056-8.316 2.408 0 4.06 1.064 5.04 2.856v-7.728h3.024v21h-3.024v-2.38c-.924 1.708-2.548 2.828-5.04 2.828zm.42-2.744c3.08 0 4.62-2.352 4.62-5.516 0-3.192-1.54-5.572-4.62-5.572-2.716 0-4.368 2.24-4.368 5.572 0 3.304 1.652 5.516 4.368 5.516z" fill="#fff"/><path d="m818.682 427.174c.196 2.408 2.24 3.836 4.928 3.836 2.604 0 4.396-1.036 4.396-2.884 0-4.424-12.404-1.036-12.404-8.988 0-3.248 3.108-5.768 7.728-5.768 4.256 0 7.588 2.772 7.588 6.664h-3.276c-.168-2.408-1.54-3.808-4.452-3.808-2.884 0-4.396 1.176-4.396 2.912 0 4.76 12.432 1.12 12.432 8.988 0 3.64-2.884 5.74-7.784 5.74-4.536 0-7.924-2.856-8.064-6.692zm15.08 11.844v-21.28h3.024v2.408c.98-1.792 2.632-2.856 5.04-2.856 4.312 0 7.056 3.444 7.056 8.316 0 4.844-2.744 8.26-7.056 8.26-2.492 0-4.116-1.12-5.04-2.828v7.98zm7.644-7.896c2.716 0 4.368-2.212 4.368-5.516 0-3.332-1.652-5.572-4.368-5.572-3.108 0-4.62 2.38-4.62 5.572 0 3.164 1.512 5.516 4.62 5.516zm16.188-13.832c4.284 0 6.496 2.772 6.496 7.168v8.96h-3.024v-2.128c-.84 1.596-2.324 2.576-4.536 2.576-3.08 0-5.404-1.764-5.404-4.9 0-4.9 5.376-5.432 9.912-5.264-.168-2.268-1.148-3.724-3.444-3.724-2.408 0-3.668 1.484-3.668 3.276h-3.192c0-3.108 2.436-5.964 6.86-5.964zm-3.332 11.508c0 1.568 1.092 2.408 2.94 2.408 2.184 0 3.864-1.428 3.864-3.976v-1.4c-4.62-.224-6.804 1.092-6.804 2.968zm15.499-3.612v8.232h-3.024v-15.68h3.024v2.632c.588-1.596 2.016-3.08 5.236-3.08v3.024c-3.332 0-5.236 1.148-5.236 4.872zm19.66-7.448-5.18 6.244 5.824 9.436h-3.444l-4.256-7.168-2.184 2.66v4.508h-3.024v-21h3.024v12.096l5.6-6.776z" fill="#fff"/></svg>