<svg height="26" viewBox="0 0 23 26" width="23" xmlns="http://www.w3.org/2000/svg"><path d="m19.1004 14.1343.0377.0198-.0099.0099-.0278-.0278c-.847 1.0953-1.5572 2.3016-2.1047 3.591-.008.0198-.0159.0376-.0238.0574-.5277 1.2577-.9027 2.5947-1.0991 3.991-.0019.0079-.0019.0178-.0019.0258-.1052.7407-.1587 1.4973-.1587 2.2658 0 .6536.0396 1.2993.115 1.9331h-15.731268v-4.2247h13.660268c.0258-.1743.0555-.3446.0873-.5169l-13.160372-3.5216 1.095042-4.0822 13.32303 3.5652c.0615-.1366.1249-.2713.1884-.406l-11.95616-6.89268 2.1147-3.65826 12.13476 6.99364c.0952-.1148.1924-.2297.2936-.3426l-9.9427-9.92505 2.9935-2.98880501 11.1686 11.15305501c-1.1228.8596-2.1305 1.8618-2.9955 2.9809z" style="fill:#201c1d" /></svg>
