<svg fill="none" height="32" viewBox="0 0 32 32" width="32" xmlns="http://www.w3.org/2000/svg"><path d="m0 0h32v32h-32z" fill="#5074ef"/><path d="m23.0825 16.3014.0354.0177-.0099.0098-.0255-.0255c-.8062 1.0303-1.4806 2.1648-2.0016 3.378-.0079.0177-.0158.0354-.0236.0531-.5014 1.1836-.8593 2.4401-1.0461 3.7535v.0236c-.1003.6961-.1514 1.4078-.1514 2.1314 0 .6155.0374 1.223.1101 1.8188h-14.96504v-3.9738h12.99494c.0235-.1632.053-.3244.0825-.4856l-12.51902-3.3132 1.0421-3.84 12.67442 3.3544c.059-.1278.118-.2556.1789-.3815l-11.3747-6.4846 2.0115-3.44096 11.5438 6.57906c.0904-.1082.1828-.2163.2792-.3225l-9.4576-9.33569 2.8471-2.81173 9.609 9.48912 1.0146 1.0027c-1.0677.8082-2.0272 1.752-2.8491 2.8039z" fill="#fff"/></svg>