<svg fill="none" height="27" viewBox="0 0 208 27" width="208"><title>Stack Overflow</title><path fill="currentColor" d="m34.8746 23.0752c2.1472 0 3.7116-.8242 3.7116-2.3504 0-3.785-11.3495-.2137-11.3495-7.8142 0-2.96091 2.8221-5.4639 7.3618-5.4639 3.9877 0 7.2392 2.5946 7.2392 6.3185h-3.5889c-.1534-2.0146-1.319-3.205-3.773-3.205-2.4232 0-3.6809.9768-3.6809 2.3504 0 4.1207 11.3188.2747 11.3188 7.8142 0 3.4798-2.7606 5.4333-7.4231 5.4333-4.3251 0-7.5459-2.7166-7.6686-6.349h3.6196c.184 2.0451 1.9324 3.2661 4.233 3.2661zm8.1594-12.0877h2.0245v-3.11346h3.3435v3.11346h2.5459v2.8388h-2.5459v9.1878h2.9754v2.8388h-1.5031l-4.8158-.0305v-11.9961h-1.9939zm12.3617 7.448c0 2.8082 1.3497 4.8228 3.8036 4.8228 2.6993 0 4.0183-2.0756 4.0183-4.8228s-1.319-4.8839-4.0183-4.8839c-2.4539 0-3.8036 2.0451-3.8036 4.8839zm3.2821-7.8753c2.1166 0 3.5889.8547 4.5398 2.3504v-1.9231h3.3435v14.8654h-3.3435v-1.8925c-.8895 1.4346-2.3312 2.3198-4.5398 2.3198-4.1717 0-6.7176-3.2356-6.7176-7.8447 0-4.6092 2.5459-7.8753 6.7176-7.8753zm16.9016 15.72c-4.6012 0-7.6073-3.2356-7.6073-7.8447 0-4.6092 3.0061-7.8753 7.6073-7.8753 4.0796 0 6.9323 2.9914 6.963 6.2575h-3.4969c-.092-1.6178-1.0735-3.2356-3.4661-3.2356-2.9141 0-4.1717 2.1062-4.1717 4.8534s1.2576 4.7923 4.1717 4.7923c2.4846 0 3.4662-1.7399 3.5582-3.6019h3.4662c-.0614 3.8461-2.7914 6.6543-7.0244 6.6543zm8.3127-18.40616h3.3742v9.06576l4.8158-5.9523h3.957l-4.8465 5.9828 5.3373 8.8826h-3.7423l-3.6195-6.4407-1.9018 2.3809v4.0598h-3.3742zm31.1959 8.97416c0-3.0524-1.687-6.288-5.583-6.288-3.926 0-5.675 3.2356-5.675 6.288s1.749 6.3185 5.675 6.3185c3.896 0 5.583-3.2661 5.583-6.3185zm-14.816 0c0-5.0976 3.282-9.4015 9.233-9.4015 5.92 0 8.865 4.3039 9.202 9.4015-.337 5.1586-3.282 9.432-9.202 9.432-5.951 0-9.233-4.2734-9.233-9.432zm18.466-5.8607h3.589l3.343 11.874 3.375-11.874h3.588l-4.662 14.8654h-4.57zm17.147 5.7996h7.546c-.184-1.7704-1.288-3.2355-3.497-3.2355-2.331 0-3.589 1.343-4.049 3.2355zm4.049 9.4931c-4.632 0-7.638-3.2356-7.638-7.8447 0-4.6092 3.006-7.8753 7.638-7.8753 4.049 0 7.515 3.2661 6.779 8.9741h-10.889c.276 2.1673 1.564 3.724 4.11 3.724 1.748 0 2.853-.9157 3.313-2.1367h3.497c-.645 3.0524-3.19 5.1586-6.81 5.1586zm8.221-15.2927v14.8654h3.343v-12.0266h4.816v-2.8388zm15.766-5.0365c-3.221 0-4.754 1.4957-4.754 4.1513v.8852h-1.534v2.8388h1.534v12.0266h3.343v-12.0266h3.558v-2.8388h-3.558v-.8852c0-.85467.491-1.31253 1.442-1.31253h2.423v-2.83877zm3.773 0v19.9019h3.374v-19.9019zm8.252 12.4845c0 2.8082 1.411 4.8228 4.202 4.8228s4.202-2.0146 4.202-4.8228c0-2.7472-1.411-4.8839-4.202-4.8839s-4.202 2.1367-4.202 4.8839zm4.202-7.8753c4.601 0 7.73 3.2661 7.607 7.8753.123 4.6091-3.006 7.8447-7.607 7.8447-4.632 0-7.638-3.2356-7.638-7.8447 0-4.6092 3.006-7.8753 7.638-7.8753zm7.73.4273h3.589l2.147 11.1414 2.485-11.1414h3.65l2.484 11.1719 2.209-11.1719h3.558l-3.589 14.8654h-4.448l-2.024-9.0963-2.025 9.0963h-4.447z"/><path fill="currentColor" d="m19.1701 14.1.038.0198-.01.0099-.028-.0277c-.8545 1.0926-1.5709 2.2959-2.1232 3.5822-.008.0198-.016.0376-.024.0573-.5323 1.2547-.9105 2.5884-1.1086 3.9814-.002.0079-.002.0177-.002.0256-.106.739-.1601 1.4938-.1601 2.2604 0 .652.0401 1.2962.1161 1.9285h-15.86848305l-.00000001-4.2145h13.77938306c.026-.1739.056-.3438.088-.5157l-13.275066-3.5131 1.104586-4.0722 13.43918 3.5565c.062-.1363.1261-.2707.1901-.4051l-12.06044-6.87591 2.13314-3.6494 12.2405 6.97671c.0961-.1146.1941-.2292.2962-.3418l-10.02936-9.901 3.01966-2.98155501 11.266 11.12605501c-1.1326.8575-2.1492 1.8573-3.0216 2.9736z"/></svg>
