<svg width="596" height="141" fill="none" xmlns="http://www.w3.org/2000/svg"><path d="M129.16 107.8c-.1-.4-.5-.7-.9-.7h-3.798c-.4 0-.8.3-.9.7l-11.496 31.3c-.1.3-.1.6.1.9.2.3.499.4.799.4h5.099c.4 0 .799-.3.899-.7l1.9-5.6h10.896l1.899 5.6c.1.4.5.7.9.7h5.098c.3 0 .6-.2.8-.4.2-.3.2-.6.1-.9l-11.396-31.3zm.6 20.3h-6.798l3.499-9.8 3.299 9.8zm37.987-14.3c-.5-1.3-1.299-2.4-2.299-3.5-2.099-2.1-5.098-3.2-8.797-3.2h-10.997c-.599 0-.999.4-.999 1v31.3c0 .6.4 1 .999 1h10.997c3.699 0 6.698-1.1 8.797-3.2 1-1 1.799-2.2 2.299-3.6.5-1.3.8-2.6 1-4 .1-1.3.2-2.8.2-4.5v-3.2c0-1.6-.1-3.1-.2-4.3-.2-1.3-.5-2.5-1-3.8zm-5.598 9.8c0 2.6-.1 4.7-.3 6-.2 1.2-.5 2.1-1.1 2.8-1.099 1.2-2.599 1.8-4.598 1.8h-4.798v-20.8h4.798c1.999 0 3.499.6 4.598 1.8.4.4.7 1 .9 1.7.2.8.4 1.6.4 2.5.1 1 .1 2.4.1 4.2zm33.989-16.5h-4.999c-.4 0-.799.3-.999.7l-6.298 19.8-6.198-19.8c-.1-.4-.5-.7-1-.7h-4.898c-.3 0-.6.2-.8.4-.2.2-.2.6-.1.9l10.297 31.3c.1.4.499.7.999.7h3.699c.4 0 .8-.3.9-.7l10.396-31.3c.1-.3 0-.6-.1-.9-.3-.2-.599-.4-.899-.4zm25.891 0h-19.993c-.6 0-1 .4-1 1v31.3c0 .6.4 1 1 1h19.993c.6 0 1-.4 1-1v-4.3c0-.6-.4-1-1-1h-14.295v-7.4h11.996c.6 0 .999-.4.999-1v-4.2c0-.6-.399-1-.999-1h-11.996v-7.1h14.295c.6 0 1-.4 1-1v-4.3c0-.5-.4-1-1-1zm23.992 19.1c1.5-.6 2.799-1.6 3.899-2.9 1.299-1.6 1.899-3.6 1.899-6 0-1.9-.4-3.7-1.299-5.2-.9-1.5-2.2-2.8-3.799-3.6-1.6-.9-3.499-1.3-5.598-1.3h-12.196c-.6 0-1 .4-1 1v31.3c0 .6.4 1 1 1h4.798c.6 0 1-.4 1-1v-12.2h4.298l6.298 12.6c.2.3.5.6.9.6h5.498c.3 0 .7-.2.9-.5.2-.3.2-.7 0-1l-6.598-12.8zm-.9-8.9c0 1.2-.4 2.1-1.099 2.8-.8.7-1.8 1.1-3.199 1.1h-5.998v-7.8h5.998c1.399 0 2.399.3 3.199 1.1.699.6 1.099 1.6 1.099 2.8zm33.089-10.2h-21.992c-.6 0-1 .4-1 1v4.3c0 .6.4 1 1 1h7.597v26c0 .6.4 1 1 1h4.698c.6 0 1-.4 1-1v-26h7.597c.6 0 1-.4 1-1v-4.3c.1-.5-.4-1-.9-1zm11.097 0h-4.799c-.6 0-1 .4-1 1v31.3c0 .6.4 1 1 1h4.799c.599 0 .999-.4.999-1v-31.3c0-.5-.4-1-.999-1zm26.891 16.2c-.7-.7-1.6-1.2-2.6-1.6-.999-.4-2.199-.7-3.698-.9l-3.599-.5c-.6-.1-1.2-.2-1.8-.5-.499-.2-.999-.5-1.199-.7-.6-.5-.8-1.2-.8-2.2 0-.8.2-1.4.5-2 .4-.6.9-1 1.499-1.3.7-.3 1.6-.5 2.6-.5.899 0 1.699.1 2.399.2s1.299.4 1.999.7c.6.3 1.2.7 1.8 1.3.399.4.999.4 1.399 0l3.099-3c.2-.2.3-.5.3-.7 0-.3-.1-.5-.3-.7-1.399-1.3-2.999-2.3-4.598-2.9-1.6-.6-3.599-.9-5.798-.9-2.3 0-4.299.4-5.998 1.2-1.7.8-3.099 2.1-3.999 3.6-.9 1.5-1.4 3.3-1.4 5.3 0 2.8.9 5.1 2.599 6.7 1.6 1.5 3.699 2.4 6.498 2.8l3.699.5c.8.1 1.5.3 1.899.4.4.1.7.3 1 .7.6.5.9 1.4.9 2.5 0 1.2-.4 2.1-1.3 2.7-.999.7-2.399 1.1-4.198 1.1-1 0-2-.1-2.799-.3-.8-.2-1.6-.5-2.4-.9-.699-.4-1.399-.9-2.099-1.6-.2-.2-.4-.3-.7-.3-.3 0-.5.1-.699.3l-3.199 3.1c-.2.2-.3.4-.3.7 0 .3.1.5.3.7 1.599 1.6 3.299 2.7 5.198 3.4 1.899.7 4.098 1 6.598 1 1.699 0 3.399-.2 4.798-.7 1.5-.4 2.799-1.1 3.899-2 1.099-.9 1.999-2 2.599-3.3.6-1.3.9-2.7.9-4.2-.1-3.1-1.1-5.5-2.999-7.2zm13.495-16.2h-4.798c-.6 0-1 .4-1 1v31.3c0 .6.4 1 1 1h4.798c.6 0 1-.4 1-1v-31.3c0-.5-.4-1-1-1zm32.189 0h-4.698c-.6 0-1 .4-1 1v18.7l-12.596-19.2c-.199-.3-.499-.5-.799-.5h-4.399c-.6 0-.999.4-.999 1v31.3c0 .6.399 1 .999 1h4.799c.599 0 .999-.4.999-1v-18.7l12.596 19.2c.2.3.5.5.8.5h4.398c.6 0 1-.4 1-1v-31.3c-.1-.5-.6-1-1.1-1zm30.29 14.4h-11.396c-.6 0-1 .4-1 1v4c0 .6.4 1 1 1h5.698v.8c0 1.8-.5 3.2-1.299 4.3-1.1 1.3-2.5 1.9-4.299 1.9-.8 0-1.499-.1-2.199-.4-.7-.3-1.3-.7-1.7-1.1-.4-.4-.699-.9-.799-1.2-.2-.4-.3-.9-.5-1.6-.1-.7-.2-1.5-.3-2.5 0-.9-.1-2.2-.1-3.9 0-3 .1-5.2.4-6.4.2-1.1.6-2 1.299-2.7.5-.5 1-.9 1.7-1.2.7-.3 1.399-.4 2.199-.4 1 0 1.899.2 2.699.6.8.4 1.4.9 1.9 1.6.499.7.899 1.6 1.099 2.6.1.5.5.8 1 .8h4.798c.3 0 .6-.1.8-.4.2-.2.3-.5.2-.8-.3-2-1-3.8-2.099-5.3-1.1-1.6-2.5-2.9-4.199-3.8-1.699-.9-3.799-1.4-6.098-1.4-3.499 0-6.498 1.2-8.897 3.6-.8.8-1.5 1.7-1.899 2.6-.4.9-.8 1.9-1 2.9-.2 1-.3 2.1-.4 3.2-.1 1.1-.1 2.6-.1 4.6 0 2.5.1 4.4.2 5.8.1 1.4.4 2.7.9 4 .5 1.3 1.299 2.4 2.299 3.6.7.7 1.599 1.4 2.599 2 1 .6 1.999 1 2.999 1.3 1 .3 2.199.4 3.299.4 3.799 0 6.898-1.3 9.297-3.9 1.1-1.2 1.899-2.6 2.399-4.1.5-1.5.7-3.3.7-5.4v-4.8c-.2-.9-.7-1.3-1.2-1.3z" fill="#F48024"/><path d="M84.021 75.995v31H11v-31H0v42h95v-42H84.021z" fill="#BCBBBB"/><path d="M21.057 96.995H74v-10H21.057v10zm1.058-23.915l51.428 10.794 2.117-10.265L24.23 62.815 22.115 73.08zm6.773-24.656l47.618 22.222 4.445-9.524L33.33 38.9l-4.444 9.524zm13.227-23.386l40.423 33.65 6.773-8.042-40.53-33.65-6.666 8.042zM68.147.17L59.68 6.413l31.323 42.223 8.465-6.244L68.147.17z" fill="#F48024"/><path d="M135.965 73.416l-6.753-.614c-5.321-.41-7.367-2.592-7.367-6.14 0-4.297 3.274-6.958 9.414-6.958 4.365 0 8.185 1.024 11.187 3.343l4.025-4.025c-3.752-3.07-9.141-4.502-15.144-4.502-9.005 0-15.485 4.639-15.485 12.347 0 6.958 4.366 10.642 12.551 11.324l6.958.614c4.844.41 7.027 2.456 7.027 6.14 0 4.979-4.298 7.435-11.188 7.435-5.252 0-9.754-1.365-13.097-4.844L114 91.63c4.639 4.434 10.164 6.072 17.259 6.072 10.164 0 17.122-4.707 17.122-12.825 0-7.913-5.048-10.778-12.416-11.46zm52.663-18.896c-6.753 0-10.983 1.364-14.735 6.071-.068.068 4.025 4.025 4.025 4.025 2.456-3.479 5.253-4.775 10.642-4.775 7.708 0 10.778 3.07 10.778 9.209v4.025H186.65c-9.414 0-14.53 4.775-14.53 12.142 0 3.343 1.091 6.48 3.138 8.527 2.66 2.729 6.071 3.82 11.869 3.82 5.662 0 8.732-1.091 12.143-4.502v4.025h6.139V68.504c.068-9.072-5.457-13.984-16.781-13.984zm10.71 27.696c0 3.479-.682 5.934-2.115 7.299-2.66 2.592-5.798 2.796-9.414 2.796-6.685 0-9.686-2.319-9.686-7.162 0-4.844 3.069-7.436 9.413-7.436h11.802v4.503zm30.287-22.239c4.025 0 6.481 1.228 9.687 4.707l4.093-4.025c-4.298-4.638-7.981-6.139-13.78-6.139-10.641 0-18.622 7.163-18.622 21.556 0 14.394 8.049 21.556 18.622 21.556 5.799 0 9.482-1.569 13.848-6.276l-4.161-4.024c-3.138 3.479-5.662 4.775-9.687 4.775-4.092 0-7.503-1.637-9.754-4.775-1.979-2.729-2.729-6.003-2.729-11.324 0-5.32.75-8.527 2.729-11.324 2.251-3.07 5.662-4.707 9.754-4.707zm52.731-4.98h-7.708l-19.101 18.555V36.238h-6.139v60.917h6.139V81.806l7.504-7.503 14.121 22.852h7.64l-17.463-27.15 15.007-15.007zm28.992-2.182c-6.481 0-10.847 2.524-13.575 5.389-3.957 4.093-4.98 9.072-4.98 16.985 0 7.982 1.023 12.961 4.98 17.054 2.66 2.865 7.094 5.39 13.575 5.39 6.48 0 10.914-2.525 13.643-5.39 3.956-4.093 4.98-9.072 4.98-17.054 0-7.913-1.024-12.892-4.98-16.985-2.729-2.865-7.163-5.39-13.643-5.39zm5.116 33.016c-1.296 1.296-2.933 1.91-5.116 1.91s-3.82-.682-5.048-1.91c-2.251-2.251-2.524-6.14-2.524-10.71 0-4.57.273-8.322 2.524-10.573 1.296-1.296 2.865-1.91 5.048-1.91s3.888.682 5.116 1.91c2.251 2.25 2.524 6.07 2.524 10.573 0 4.57-.273 8.459-2.524 10.71zm42.566-32.539l-8.868 27.082-8.936-27.082h-11.46l16.167 43.863h8.595l16.099-43.863H359.03zm30.152-.477c-11.392 0-19.101 8.05-19.101 22.374 0 17.736 9.96 22.443 20.26 22.443 7.913 0 12.211-2.456 16.645-6.89l-6.617-6.48c-2.797 2.797-5.116 4.093-9.959 4.093-6.14 0-9.619-4.093-9.619-9.755h27.423V73.69c.068-12.006-6.822-20.874-19.032-20.874zm-8.323 18.281c.069-1.91.342-3.138 1.024-4.706 1.159-2.593 3.615-4.57 7.299-4.57 3.683 0 6.139 1.91 7.299 4.57.682 1.569.955 2.796 1.023 4.706h-16.645zm43.59-13.575v-4.229h-10.71v43.863h10.915v-26.4c0-5.525 3.683-8.05 7.094-8.05 2.661 0 4.093.888 5.799 2.593l8.254-8.322c-3.002-3.002-6.072-4.093-10.369-4.093-4.639-.068-8.868 2.114-10.983 4.639zm24.762-8.8v48.366h10.915V62.5h8.118V54.18h-8.05v-4.775c0-2.524 1.296-3.957 3.888-3.957h4.23V36.17h-6.208c-9.004 0-12.893 6.344-12.893 12.552zm64.055 4.094c-6.481 0-10.846 2.524-13.575 5.389-3.957 4.093-4.98 9.072-4.98 16.985 0 7.982 1.023 12.961 4.98 17.054 2.66 2.865 7.094 5.39 13.575 5.39 6.48 0 10.914-2.525 13.643-5.39 3.957-4.093 4.98-9.072 4.98-17.054 0-7.913-1.023-12.892-4.98-16.985-2.66-2.865-7.163-5.39-13.643-5.39zm5.184 33.016c-1.296 1.296-2.933 1.91-5.116 1.91s-3.82-.682-5.048-1.91c-2.251-2.251-2.524-6.14-2.524-10.71 0-4.57.273-8.322 2.524-10.573 1.296-1.296 2.865-1.91 5.048-1.91s3.888.682 5.116 1.91c2.251 2.25 2.524 6.07 2.524 10.573 0 4.57-.273 8.459-2.524 10.71zm65.146-32.539l-7.094 27.082-9.005-27.082h-7.981l-8.936 27.082-7.095-27.082h-11.596l13.438 43.863h9.005l9.141-27.491 9.14 27.49h9.005l13.507-43.862h-11.529zm-99.185 30.629V36.17h-10.915v48.433c0 6.208 3.82 12.552 12.825 12.552h6.207v-9.278h-4.229c-2.797 0-3.888-1.364-3.888-3.956zM165.435 61.683l5.661-5.662h-11.664V42.105h-6.14V85.83c0 6.276 3.616 11.324 10.778 11.324h4.366v-5.321h-3.274c-3.957 0-5.73-2.32-5.73-6.14V61.684h6.003z" fill="#222426"/></svg>