<svg width="966" height="500" viewBox="0 0 966 500" fill="none" xmlns="http://www.w3.org/2000/svg">
<rect width="966" height="500" fill="#FF5E00"/>
<path d="M568.229 239.384L568.63 239.593L568.524 239.697L568.229 239.405C559.21 250.936 551.648 263.635 545.818 277.21C545.733 277.419 545.649 277.607 545.564 277.815C539.946 291.056 535.954 305.132 533.863 319.833C533.842 319.916 533.842 320.02 533.842 320.104C532.722 327.902 532.152 335.868 532.152 343.959C532.152 350.84 532.574 357.638 533.377 364.311L365.876 364.311L365.876 319.833L511.325 319.833C511.6 317.998 511.917 316.204 512.255 314.39L372.129 277.315L383.788 234.338L525.646 271.872C526.301 270.433 526.977 269.015 527.653 267.597L400.348 195.031L422.865 156.517L552.07 230.147C553.084 228.937 554.119 227.728 555.196 226.539L449.331 122.048L481.205 90.582L588.76 196.783L600.124 208.001C588.168 217.051 577.438 227.603 568.229 239.384Z" fill="#201C1D"/>
</svg>
