<svg fill="none" height="24" viewBox="0 0 24 24" width="24"><path d="m18.1543 2.00684c1.0348.03254 2.0201.34864 2.7549 1.08691h-.001c.7364.7345 1.0524 1.71845 1.085 2.75195.0322 1.02739-.2103 2.161-.6475 3.31641-.1758.46467-.3884.93959-.6309 1.42189l-1.3437-1.86818c.0357-.08793.0717-.1751.1045-.26172.3774-.99768.54-1.86152.5185-2.5459-.0213-.67691-.2176-1.12035-.499-1.40039l-.0039-.00293c-.28-.2813-.7226-.47769-1.3994-.49902-.6844-.02148-1.5482.14111-2.5459.51855-.5515.20871-1.1301.47917-1.7256.80567.7233.55149 1.442 1.16348 2.1426 1.83008l.4433.43066.003.00293c2.3357 2.34605 4.0609 4.92955 4.9365 7.24315.4372 1.1555.6796 2.289.6475 3.3164-.0325 1.0332-.3493 2.0155-1.085 2.75l.001.001c-.7349.7385-1.7199 1.0554-2.7549 1.0879-1.0275.0322-2.1608-.2102-3.3164-.6475-.9148-.3461-1.8712-.8258-2.8389-1.4228-.967.5964-1.9219 1.0769-2.83591 1.4228-1.15545.4373-2.28897.6796-3.31641.6475-1.03366-.0325-2.01735-.3485-2.75195-1.085v.001c-.73836-.7349-1.05443-1.72-1.08692-2.7549-.03216-1.0274.21023-2.1609.64746-3.3164.13184-.3483.28359-.7027.45313-1.0615l1.35742 1.9336c-.33447.9287-.47921 1.7351-.45898 2.3818.01862.5924.17108 1.0055.39746 1.2871l.10156.1123.00293.0039c.28009.2815.72324.4778 1.40039.4991.68444.0214 1.54817-.1411 2.5459-.5186.55148-.2087 1.12916-.4802 1.72462-.8066-.87632-.6681-1.74613-1.4246-2.58497-2.2598l-.00293-.0029c-2.33572-2.3461-4.061-4.9295-4.93653-7.24319-.4372-1.15546-.67965-2.28897-.64746-3.31641.03256-1.03472.34868-2.0201 1.08692-2.75488.73454-.73606 1.71857-1.05154 2.75195-1.08398 1.02749-.03218 2.16089.2102 3.31641.64746.91411.3459 1.86911.82642 2.83591 1.42285.9677-.59696 1.9242-1.07673 2.8389-1.42285 1.1555-.43719 2.289-.6797 3.3164-.64746zm.5137 11.80956c-.6679.8775-1.423 1.7493-2.2588 2.5889l-.003.0029c-.8395.8359-1.7107 1.5922-2.5878 2.2607.596.327 1.1754.5968 1.7275.8057.9978.3776 1.8614.5401 2.5459.5186.6769-.0213 1.1193-.2177 1.3994-.4991l.0039-.0039c.2812-.2801.4778-.7226.499-1.3994.0214-.6844-.141-1.5482-.5185-2.5459-.2091-.5525-.4803-1.1319-.8076-1.7285zm-6.669-7.34277c-.9986.7077-2.0117 1.55712-2.99314 2.53418-.97618.98083-1.82414 1.99409-2.53125 2.99219.70706.9979 1.55512 2.0104 2.53125 2.9912l.41309.4014c.85125.8097 1.72185 1.5228 2.58105 2.1318.9989-.7078 2.0135-1.5559 2.9951-2.5332.9763-.981 1.8215-1.9959 2.5283-2.9941-.7066-.997-1.5532-2.0095-2.5283-2.98929l-.4131-.40136c-.8519-.81036-1.7232-1.52358-2.583-2.13282zm.001 3.52637c1.1045 0 2 .8955 2 2s-.8955 2-2 2-2-.8955-2-2c0-1.1046.8954-2 2-2zm-6.09082-5.99414c-.67699.02125-1.12029.21769-1.40039.49902l-.00293.00293c-.28141.28004-.4777.72344-.49902 1.40039-.02147.68443.14104 1.54812.51855 2.5459.20865.5514.47834 1.13027.80469 1.7256.66818-.87702 1.42614-1.74668 2.26172-2.58595l.00293-.00293c.83923-.8355 1.70918-1.59241 2.58597-2.26074-.59553-.32655-1.17404-.59694-1.72562-.80567-.99785-.37756-1.86142-.54-2.5459-.51855z" fill="currentColor"/></svg>
