<svg fill="none" height="32" viewBox="0 0 32 32" width="32" xmlns="http://www.w3.org/2000/svg"><path d="m0 0h32v32.0005h-32z" fill="#201c1d"/><path d="m22.4593 16.4664.0318.0159-.0088.0089-.023-.023c-.7252.9268-1.3319 1.9474-1.8006 3.0387-.0071.016-.0142.0319-.0213.0478-.451 1.0648-.7729 2.1951-.9409 3.3766v.0212c-.0903.6262-.1362 1.2665-.1362 1.9174 0 .5536.0336 1.1001.099 1.6361h-13.46213v-3.5747h11.68983c.0212-.1468.0478-.2919.0743-.4369l-11.26179-2.9804.93745-3.4544 11.40154 3.0175c.053-.1149.1061-.2299.1609-.3431l-10.23233-5.8334 1.80943-3.09537 10.3845 5.91827c.0814-.0972.1645-.1945.2512-.29l-8.5078-8.39817 2.5611-2.52935 8.644 8.53612.9127.9021c-.9604.7269-1.8236 1.5759-2.5629 2.5222z" fill="#ff5e00"/></svg>