<svg width="966" height="575" viewBox="0 0 966 575" fill="none" xmlns="http://www.w3.org/2000/svg">
<g clip-path="url(#clip0_27_1535)">
<rect width="185" height="185" fill="#E5E5E5"/>
<path d="M153.69 79.3197L96.7374 102.86L43.2021 77.4212L99.9645 53.6641C117.895 62.1244 136.138 70.1769 153.69 79.3197Z" fill="#FF5E00"/>
<path d="M153.681 79.3203C153.711 82.4788 153.64 85.6541 153.681 88.8124C153.713 91.2469 153.987 107.202 153.312 107.997C134.404 115.609 115.748 124.244 96.7285 131.337V102.861L153.681 79.3203Z" fill="#FFCC00"/>
<path d="M96.7321 102.859V131.335L94.959 131.023L43.1926 106.47C42.4965 105.602 42.7892 91.165 42.8169 88.8105C42.8394 86.9031 42.4553 78.3537 43.1966 77.4199L96.7319 102.859L96.7321 102.859Z" fill="#F39FFF"/>
<circle cx="75.9521" cy="166.503" r="7.05566" fill="#FF5E00"/>
<circle cx="92.6982" cy="166.503" r="7.05566" fill="#F39FFF"/>
<circle cx="109.443" cy="166.503" r="7.05566" fill="#FFCC00"/>
<rect width="185" height="185" transform="translate(195.2)" fill="#E5E5E5"/>
<path d="M343.143 79.3197L286.191 102.86L232.655 77.4212L289.418 53.6641C307.348 62.1244 325.591 70.1769 343.143 79.3197Z" fill="#FF5E00"/>
<path d="M343.134 79.3203C343.164 82.4788 343.093 85.6541 343.134 88.8124C343.166 91.2469 343.44 107.202 342.765 107.997C323.857 115.609 305.201 124.244 286.182 131.337V102.861L343.134 79.3203Z" fill="#C6D1E1"/>
<path d="M286.185 102.859V131.335L284.412 131.023L232.646 106.47C231.95 105.602 232.242 91.165 232.27 88.8105C232.292 86.9031 231.908 78.3537 232.65 77.4199L286.185 102.859L286.185 102.859Z" fill="#86AF25"/>
<circle cx="271.153" cy="166.503" r="7.05566" fill="#FF5E00"/>
<circle cx="287.899" cy="166.503" r="7.05566" fill="#86AF25"/>
<circle cx="304.645" cy="166.503" r="7.05566" fill="#C6D1E1"/>
<rect width="185" height="185" transform="translate(390.4)" fill="#E5E5E5"/>
<path d="M538.342 79.3197L481.39 102.86L427.854 77.4212L484.617 53.6641C502.547 62.1244 520.791 70.1769 538.342 79.3197Z" fill="#FF5E00"/>
<path d="M538.333 79.3203C538.363 82.4788 538.292 85.6541 538.333 88.8124C538.365 91.2469 538.639 107.202 537.965 107.997C519.056 115.609 500.4 124.244 481.381 131.337V102.861L538.333 79.3203Z" fill="#F39FFF"/>
<path d="M481.384 102.859V131.335L479.611 131.023L427.845 106.47C427.149 105.602 427.442 91.165 427.469 88.8105C427.492 86.9031 427.108 78.3537 427.849 77.4199L481.384 102.859L481.384 102.859Z" fill="#9D9CFF"/>
<circle cx="466.353" cy="166.503" r="7.05566" fill="#FF5E00"/>
<circle cx="483.099" cy="166.503" r="7.05566" fill="#9D9CFF"/>
<circle cx="499.844" cy="166.503" r="7.05566" fill="#F39FFF"/>
<rect width="185" height="185" transform="translate(585.6)" fill="#E5E5E5"/>
<path d="M733.542 79.3197L676.59 102.86L623.055 77.4212L679.817 53.6641C697.747 62.1244 715.991 70.1769 733.542 79.3197Z" fill="#FF5E00"/>
<path d="M733.534 79.3203C733.564 82.4788 733.493 85.6541 733.534 88.8124C733.565 91.2469 733.839 107.202 733.165 107.997C714.256 115.609 695.601 124.244 676.581 131.337V102.861L733.534 79.3203Z" fill="#9D9CFF"/>
<path d="M676.585 102.859V131.335L674.812 131.023L623.045 106.47C622.349 105.602 622.642 91.165 622.669 88.8105C622.692 86.9031 622.308 78.3537 623.049 77.4199L676.584 102.859L676.585 102.859Z" fill="#FFCC00"/>
<circle cx="661.552" cy="166.503" r="7.05566" fill="#FF5E00"/>
<circle cx="678.298" cy="166.503" r="7.05566" fill="#FFCC00"/>
<circle cx="695.043" cy="166.503" r="7.05566" fill="#9D9CFF"/>
<rect width="185" height="185" transform="translate(780.8)" fill="#E5E5E5"/>
<path d="M928.743 79.3197L871.79 102.86L818.255 77.4212L875.017 53.6641C892.947 62.1244 911.191 70.1769 928.743 79.3197Z" fill="#FF5E00"/>
<path d="M928.734 79.3203C928.764 82.4788 928.693 85.6541 928.734 88.8124C928.765 91.2469 929.04 107.202 928.365 107.997C909.457 115.609 890.801 124.244 871.781 131.337V102.861L928.734 79.3203Z" fill="#C6D1E1"/>
<path d="M871.785 102.859V131.335L870.012 131.023L818.245 106.47C817.549 105.602 817.842 91.165 817.87 88.8105C817.892 86.9031 817.508 78.3537 818.249 77.4199L871.785 102.859L871.785 102.859Z" fill="#5074EF"/>
<circle cx="856.753" cy="166.503" r="7.05566" fill="#FF5E00"/>
<circle cx="873.499" cy="166.503" r="7.05566" fill="#5074EF"/>
<circle cx="890.244" cy="166.503" r="7.05566" fill="#C6D1E1"/>
<rect width="185" height="185" transform="translate(0 195)" fill="#E5E5E5"/>
<path d="M147.943 274.32L90.9904 297.86L37.4551 272.421L94.2175 248.664C112.148 257.124 130.391 265.177 147.943 274.32Z" fill="#FF5E00"/>
<path d="M147.934 274.32C147.964 277.479 147.893 280.654 147.934 283.812C147.966 286.247 148.24 302.202 147.565 302.997C128.657 310.609 110.001 319.244 90.9814 326.337V297.861L147.934 274.32Z" fill="#C6D1E1"/>
<path d="M90.985 297.859V326.335L89.212 326.023L37.4456 301.47C36.7494 300.602 37.0421 286.165 37.0699 283.81C37.0923 281.903 36.7082 273.354 37.4496 272.42L90.9849 297.859L90.985 297.859Z" fill="#F39FFF"/>
<circle cx="74.2354" cy="361.503" r="7.05566" fill="#FF5E00"/>
<circle cx="90.9814" cy="361.503" r="7.05566" fill="#F39FFF"/>
<circle cx="107.727" cy="361.503" r="7.05566" fill="#C6D1E1"/>
<rect width="185" height="185" transform="translate(195.2 195)" fill="#E5E5E5"/>
<path d="M343.143 274.32L286.191 297.86L232.655 272.421L289.418 248.664C307.348 257.124 325.591 265.177 343.143 274.32Z" fill="#FF5E00"/>
<path d="M343.134 274.32C343.164 277.479 343.093 280.654 343.134 283.812C343.166 286.247 343.44 302.202 342.765 302.997C323.857 310.609 305.201 319.244 286.182 326.337V297.861L343.134 274.32Z" fill="#6E1527"/>
<path d="M286.185 297.859V326.335L284.412 326.023L232.646 301.47C231.95 300.602 232.242 286.165 232.27 283.81C232.292 281.903 231.908 273.354 232.65 272.42L286.185 297.859L286.185 297.859Z" fill="#86AF25"/>
<circle cx="269.435" cy="361.503" r="7.05566" fill="#FF5E00"/>
<circle cx="286.181" cy="361.503" r="7.05566" fill="#86AF25"/>
<circle cx="302.926" cy="361.503" r="7.05566" fill="#6E1527"/>
<rect width="185" height="185" transform="translate(390.4 195)" fill="#E5E5E5"/>
<path d="M538.342 274.32L481.39 297.86L427.854 272.421L484.617 248.664C502.547 257.124 520.791 265.177 538.342 274.32Z" fill="#FF5E00"/>
<path d="M538.333 274.32C538.363 277.479 538.292 280.654 538.333 283.812C538.365 286.247 538.639 302.202 537.965 302.997C519.056 310.609 500.4 319.244 481.381 326.337V297.861L538.333 274.32Z" fill="#6E1527"/>
<path d="M481.384 297.859V326.335L479.611 326.023L427.845 301.47C427.149 300.602 427.442 286.165 427.469 283.81C427.492 281.903 427.108 273.354 427.849 272.42L481.384 297.859L481.384 297.859Z" fill="#9D9CFF"/>
<circle cx="464.636" cy="361.503" r="7.05566" fill="#FF5E00"/>
<circle cx="481.382" cy="361.503" r="7.05566" fill="#9D9CFF"/>
<circle cx="498.127" cy="361.503" r="7.05566" fill="#6E1527"/>
<rect width="185" height="185" transform="translate(585.6 195)" fill="#E5E5E5"/>
<path d="M733.542 274.32L676.59 297.86L623.055 272.421L679.817 248.664C697.747 257.124 715.991 265.177 733.542 274.32Z" fill="#FF5E00"/>
<path d="M733.534 274.32C733.564 277.479 733.493 280.654 733.534 283.812C733.565 286.247 733.839 302.202 733.165 302.997C714.256 310.609 695.601 319.244 676.581 326.337V297.861L733.534 274.32Z" fill="#6E1527"/>
<path d="M676.585 297.859V326.335L674.812 326.023L623.045 301.47C622.349 300.602 622.642 286.165 622.669 283.81C622.692 281.903 622.308 273.354 623.049 272.42L676.584 297.859L676.585 297.859Z" fill="#FFCC00"/>
<circle cx="659.835" cy="361.503" r="7.05566" fill="#FF5E00"/>
<circle cx="676.581" cy="361.503" r="7.05566" fill="#FFCC00"/>
<circle cx="693.326" cy="361.503" r="7.05566" fill="#6E1527"/>
<rect width="185" height="185" transform="translate(780.8 195)" fill="#E5E5E5"/>
<path d="M928.743 274.32L871.79 297.86L818.255 272.421L875.017 248.664C892.947 257.124 911.191 265.177 928.743 274.32Z" fill="#FF5E00"/>
<path d="M928.734 274.32C928.764 277.479 928.693 280.654 928.734 283.812C928.765 286.247 929.04 302.202 928.365 302.997C909.457 310.609 890.801 319.244 871.781 326.337V297.861L928.734 274.32Z" fill="#998B7A"/>
<path d="M871.785 297.859V326.335L870.012 326.023L818.245 301.47C817.549 300.602 817.842 286.165 817.87 283.81C817.892 281.903 817.508 273.354 818.249 272.42L871.785 297.859L871.785 297.859Z" fill="#5074EF"/>
<circle cx="855.034" cy="361.503" r="7.05566" fill="#FF5E00"/>
<circle cx="871.78" cy="361.503" r="7.05566" fill="#5074EF"/>
<circle cx="888.525" cy="361.503" r="7.05566" fill="#998B7A"/>
<rect width="185" height="185" transform="translate(0 390)" fill="#E5E5E5"/>
<path d="M147.943 469.32L90.9904 492.86L37.4551 467.421L94.2175 443.664C112.148 452.124 130.391 460.177 147.943 469.32Z" fill="#FF5E00"/>
<path d="M147.934 469.32C147.964 472.479 147.893 475.654 147.934 478.812C147.966 481.247 148.24 497.202 147.565 497.997C128.657 505.609 110.001 514.244 90.9814 521.337V492.861L147.934 469.32Z" fill="#9D9CFF"/>
<path d="M90.985 492.859V521.335L89.212 521.023L37.4456 496.47C36.7494 495.602 37.0421 481.165 37.0699 478.81C37.0923 476.903 36.7082 468.354 37.4496 467.42L90.9849 492.859L90.985 492.859Z" fill="#F39FFF"/>
<circle cx="74.2354" cy="556.503" r="7.05566" fill="#FF5E00"/>
<circle cx="90.9814" cy="556.503" r="7.05566" fill="#F39FFF"/>
<circle cx="107.727" cy="556.503" r="7.05566" fill="#9D9CFF"/>
<rect width="185" height="185" transform="translate(195.2 390)" fill="#E5E5E5"/>
<path d="M343.143 469.32L286.191 492.86L232.655 467.421L289.418 443.664C307.348 452.124 325.591 460.177 343.143 469.32Z" fill="#FF5E00"/>
<path d="M343.134 469.32C343.164 472.479 343.093 475.654 343.134 478.812C343.166 481.247 343.44 497.202 342.765 497.997C323.857 505.609 305.201 514.244 286.182 521.337V492.861L343.134 469.32Z" fill="#5074EF"/>
<path d="M286.185 492.859V521.335L284.412 521.023L232.646 496.47C231.95 495.602 232.242 481.165 232.27 478.81C232.292 476.903 231.908 468.354 232.65 467.42L286.185 492.859L286.185 492.859Z" fill="#86AF25"/>
<circle cx="269.435" cy="556.503" r="7.05566" fill="#FF5E00"/>
<circle cx="286.181" cy="556.503" r="7.05566" fill="#86AF25"/>
<circle cx="302.926" cy="556.503" r="7.05566" fill="#5074EF"/>
<rect width="185" height="185" transform="translate(390.4 390)" fill="#E5E5E5"/>
<path d="M538.342 469.32L481.39 492.86L427.854 467.421L484.617 443.664C502.547 452.124 520.791 460.177 538.342 469.32Z" fill="#FF5E00"/>
<path d="M538.333 469.32C538.363 472.479 538.292 475.654 538.333 478.812C538.365 481.247 538.639 497.202 537.965 497.997C519.056 505.609 500.4 514.244 481.381 521.337V492.861L538.333 469.32Z" fill="#86AF25"/>
<path d="M481.384 492.859V521.335L479.611 521.023L427.845 496.47C427.149 495.602 427.442 481.165 427.469 478.81C427.492 476.903 427.108 468.354 427.849 467.42L481.384 492.859L481.384 492.859Z" fill="#9D9CFF"/>
<circle cx="464.636" cy="556.503" r="7.05566" fill="#FF5E00"/>
<circle cx="481.382" cy="556.503" r="7.05566" fill="#9D9CFF"/>
<circle cx="498.127" cy="556.503" r="7.05566" fill="#86AF25"/>
<rect width="185" height="185" transform="translate(585.6 390)" fill="#E5E5E5"/>
<path d="M733.542 469.32L676.59 492.86L623.055 467.421L679.817 443.664C697.747 452.124 715.991 460.177 733.542 469.32Z" fill="#FF5E00"/>
<path d="M733.534 469.32C733.564 472.479 733.493 475.654 733.534 478.812C733.565 481.247 733.839 497.202 733.165 497.997C714.256 505.609 695.601 514.244 676.581 521.337V492.861L733.534 469.32Z" fill="#C6D1E1"/>
<path d="M676.585 492.859V521.335L674.812 521.023L623.045 496.47C622.349 495.602 622.642 481.165 622.669 478.81C622.692 476.903 622.308 468.354 623.049 467.42L676.584 492.859L676.585 492.859Z" fill="#FFCC00"/>
<circle cx="659.835" cy="556.503" r="7.05566" fill="#FF5E00"/>
<circle cx="676.581" cy="556.503" r="7.05566" fill="#FFCC00"/>
<circle cx="693.326" cy="556.503" r="7.05566" fill="#C6D1E1"/>
<rect width="185" height="185" transform="translate(780.8 390)" fill="#E5E5E5"/>
<path d="M928.743 469.32L871.79 492.86L818.255 467.421L875.017 443.664C892.947 452.124 911.191 460.177 928.743 469.32Z" fill="#FF5E00"/>
<path d="M928.734 469.32C928.764 472.479 928.693 475.654 928.734 478.812C928.765 481.247 929.04 497.202 928.365 497.997C909.457 505.609 890.801 514.244 871.781 521.337V492.861L928.734 469.32Z" fill="#FFCC00"/>
<path d="M871.785 492.859V521.335L870.012 521.023L818.245 496.47C817.549 495.602 817.842 481.165 817.87 478.81C817.892 476.903 817.508 468.354 818.249 467.42L871.785 492.859L871.785 492.859Z" fill="#5074EF"/>
<circle cx="855.034" cy="556.503" r="7.05566" fill="#FF5E00"/>
<circle cx="871.78" cy="556.503" r="7.05566" fill="#5074EF"/>
<circle cx="888.525" cy="556.503" r="7.05566" fill="#FFCC00"/>
</g>
<defs>
<clipPath id="clip0_27_1535">
<rect width="966" height="575" fill="white"/>
</clipPath>
</defs>
</svg>
