<svg width="966" height="500" viewBox="0 0 966 500" fill="none" xmlns="http://www.w3.org/2000/svg">
<g clip-path="url(#clip0_137_3764)">
<rect width="966" height="500" transform="translate(0 -0.161133)" fill="#1D1A1B"/>
<g clip-path="url(#clip1_137_3764)">
<path d="M126.269 309.843C125.942 310.082 125.522 310.045 125.15 310.101C125.485 309.937 125.905 309.92 126.269 309.843Z" fill="#FFCC00"/>
<path d="M128.85 309.328C128.773 309.471 128.612 309.393 128.506 309.414L128.85 309.328Z" fill="#FFCC00"/>
<path d="M163.352 279.402C163.296 279.583 163.199 279.404 163.179 279.402H163.352Z" fill="#FFCC00"/>
<path d="M67.9361 247.069C76.5441 251.156 85.1724 255.235 93.8334 259.194C101.601 259.693 109.421 259.506 117.196 259.879C117.539 259.896 118.021 259.967 118.353 260.053L92.5413 270.849L92.1987 270.889L53.998 252.917L67.9361 247.069Z" fill="#FF5E00"/>
<path d="M100.2 240.706L120.161 253.088L95.5543 252.401C83.0816 246.472 70.6339 240.471 58.0974 234.674C57.9329 234.598 57.5087 234.482 57.5258 234.256L81.7023 234.943L62.2578 222.905C75.0341 228.528 87.4141 235.111 100.2 240.706Z" fill="#FF5E00"/>
<path d="M123.689 211.641L128.162 241.308L115.085 219.122C105.833 214.69 96.583 210.146 87.2951 205.793L85.4883 193.582L123.689 211.641Z" fill="#FF5E00"/>
<path d="M92.1984 277.425L118.268 266.591L93.8331 287.83L55.5464 269.772L62.6015 263.58C72.4447 268.214 82.3584 272.762 92.1984 277.425Z" fill="#FF5E00"/>
<path d="M99.8558 186.444L137.97 204.503L133.495 238.039C131.774 228.204 130.492 218.241 128.85 208.372C118.891 203.478 108.8 198.795 98.7373 194.098L99.6792 186.496L99.8558 186.444Z" fill="#FF5E00"/>
<path d="M100.199 300.901L61.9985 283.014C61.8352 282.895 61.9495 282.769 62.0111 282.641C62.604 281.408 64.0634 279.967 64.7517 278.715L95.5531 293.161L120.072 272.049L100.199 300.901Z" fill="#FF5E00"/>
<path d="M82.9923 224.54C89.8569 227.768 96.7183 231.137 103.555 234.429L100.2 240.706C87.4135 235.111 75.0335 228.529 62.2572 222.906C62.1579 222.862 62.021 222.849 61.9135 222.819L61.9306 222.624L65.3935 216.37L82.7673 224.565C82.9253 224.64 82.982 224.535 82.9923 224.54Z" fill="#FFCC00"/>
<path d="M57.5259 234.256C57.5088 234.482 57.9331 234.598 58.0975 234.674C70.634 240.471 83.0818 246.472 95.5545 252.401L93.8338 259.194C85.1728 255.235 76.5444 251.156 67.9365 247.069C63.8393 245.124 59.7701 243.113 55.6224 241.272L57.5259 234.256Z" fill="#FFCC00"/>
<path d="M92.1987 270.889V277.424C82.3588 272.762 72.445 268.213 62.6018 263.58C59.7386 262.232 56.897 260.818 54.0407 259.452L53.998 252.917L92.1987 270.889Z" fill="#FFCC00"/>
<path d="M98.7381 194.097C108.801 198.794 118.892 203.477 128.851 208.372L123.689 211.64L85.4883 193.581C87.1688 192.426 88.8788 191.263 90.6844 190.317C93.4121 191.485 96.0525 192.844 98.7381 194.097V194.097Z" fill="#FFCC00"/>
<path d="M93.8331 287.83L95.5538 293.162L64.7524 278.715L57.3929 275.193L55.5464 269.772L93.8331 287.83Z" fill="#FFCC00"/>
<path d="M112.246 188.766C122.603 193.589 132.897 198.571 143.219 203.471L137.971 204.503L99.8562 186.444L104.966 185.415C107.395 186.526 109.825 187.639 112.246 188.766Z" fill="#FFCC00"/>
<path d="M100.199 300.901L103.469 304.513C93.3354 299.724 83.1992 294.936 73.0699 290.137C72.8713 290.043 72.6119 290.035 72.4954 289.98C70.0824 288.837 67.694 287.624 65.274 286.492L61.9988 283.015L100.199 300.901Z" fill="#FFCC00"/>
<path d="M156.296 205.019L151.736 203.729L113.88 185.757C115.279 185.935 116.919 186.73 118.326 187.031L156.296 205.019Z" fill="#FFCC00"/>
<path d="M143.218 203.471L138.701 237.009L151.735 203.729L156.295 205.019L156.037 205.793L143.476 237.953L163.35 209.318C164.514 210.259 165.563 211.796 166.696 212.813C165.754 214.227 164.824 215.655 163.867 217.058C158.202 225.358 152.309 233.509 146.787 241.907L171.266 220.669C171.449 220.939 172.93 225.281 172.967 225.636C173.029 226.234 172.859 226.105 172.556 226.431L172.384 226.603C172.038 226.937 171.626 227.226 171.266 227.549L171.094 227.721C170.731 228.044 170.34 228.344 169.975 228.667L169.803 228.839C169.638 228.985 169.453 229.123 169.287 229.269L169.115 229.441C168.98 229.559 168.82 229.666 168.685 229.784L168.513 229.956C168.346 230.102 168.163 230.241 167.996 230.386L167.824 230.558C167.457 230.879 167.072 231.185 166.706 231.504L166.534 231.676C166.336 231.849 166.179 232.052 166.018 232.192C160.224 237.243 154.249 242.138 148.594 247.325L174.621 236.406L174.61 242.93C169.96 244.755 165.375 246.764 160.769 248.703C156.697 250.417 152.595 252.082 148.552 253.861L173.073 254.55L171.208 261.435L146.66 260.743L166.604 272.969L163.351 279.402H163.178C163.122 279.397 163.063 279.406 163.006 279.402C163.017 279.193 162.877 279.184 162.751 279.099C156.623 274.993 149.887 271.492 143.706 267.434L143.306 267.319L145.627 271.147L156.277 289.52L151.821 294.709L138.7 272.437C139.513 278.29 140.438 284.135 141.325 289.979C141.94 294.032 142.6 298.082 143.197 302.139L138.055 305.458L133.495 275.791C132.095 284.403 131.152 293.109 129.968 301.76C129.623 304.28 129.19 306.806 128.849 309.328L128.505 309.414C127.758 309.56 127.014 309.687 126.268 309.844C125.905 309.92 125.485 309.937 125.15 310.102C124.753 310.161 123.999 310.358 123.687 310.36L128.16 276.995C124.072 286.931 120.359 297.027 116.374 307.006C115.961 308.04 115.508 309.065 115.116 310.107C113.552 309.902 112.067 309.241 110.523 308.898L123.514 275.619L103.468 304.512L100.199 300.901L120.072 272.049L95.553 293.161L93.8322 287.83L118.267 266.59L92.1975 277.424V270.889L92.5401 270.848L118.352 260.053C118.02 259.967 117.538 259.895 117.195 259.879C109.42 259.506 101.599 259.693 93.8322 259.194L95.553 252.401L120.16 253.088L100.199 240.706L103.554 234.428L123.599 246.597L110.61 224.195L115.083 219.121L128.16 241.307L123.687 211.64L128.849 208.372C130.491 218.241 131.773 228.203 133.495 238.039L137.969 204.503L143.218 203.471ZM143.433 238.04V238.126L143.476 238.083L143.433 238.04ZM143.347 238.212V238.298L143.39 238.255L143.347 238.212Z" fill="#9D9CFF"/>
<path d="M113.88 185.756L151.736 203.729L138.702 237.009L143.219 203.471C132.897 198.571 122.603 193.59 112.245 188.766L113.408 185.756C113.545 185.583 113.729 185.737 113.88 185.756Z" fill="#FF5E00"/>
<path d="M110.524 308.899L72.2438 290.833L72.4955 289.98C72.6121 290.036 72.8714 290.043 73.0701 290.137C83.1994 294.936 93.3355 299.725 103.469 304.513L123.515 275.62L110.524 308.899Z" fill="#FF5E00"/>
<path d="M163.351 209.319L143.477 237.954L156.038 205.793C158.12 206.867 160.473 207.707 162.521 208.815C162.856 208.996 163.041 209.068 163.351 209.319Z" fill="#FF5E00"/>
<path d="M123.688 310.361C123.547 310.362 123.413 310.364 123.284 310.294L116.375 307.007C120.359 297.028 124.073 286.932 128.161 276.996L123.688 310.361Z" fill="#FF5E00"/>
<path d="M163.866 217.059L171.204 220.499L171.265 220.67L146.787 241.908C152.308 233.51 158.202 225.359 163.866 217.059Z" fill="#FF5E00"/>
<path d="M138.056 305.459L137.802 305.51L129.969 301.761C131.153 293.11 132.096 284.404 133.495 275.792L138.056 305.459Z" fill="#FF5E00"/>
<path d="M151.822 294.71L141.325 289.98C140.439 284.136 139.513 278.291 138.701 272.438L151.822 294.71Z" fill="#FF5E00"/>
<path d="M173.073 254.551L148.553 253.862C152.596 252.083 156.697 250.418 160.77 248.704L173.073 254.551Z" fill="#FF5E00"/>
<path d="M163.006 279.403L145.627 271.148L143.306 267.32L143.706 267.435C149.887 271.493 156.623 274.994 162.75 279.1C162.876 279.184 163.017 279.194 163.006 279.403Z" fill="#FF5E00"/>
<path d="M166.534 231.677L166.706 231.504C166.658 231.547 166.606 231.614 166.534 231.677Z" fill="#FFCC00"/>
<path d="M167.825 230.56L167.998 230.388C167.949 230.43 167.897 230.497 167.825 230.56Z" fill="#FFCC00"/>
<path d="M168.513 229.958L168.686 229.785C168.637 229.828 168.585 229.895 168.513 229.958Z" fill="#FFCC00"/>
<path d="M169.116 229.442L169.288 229.27C169.239 229.313 169.187 229.379 169.116 229.442Z" fill="#FFCC00"/>
<path d="M169.803 228.84L169.976 228.667C169.926 228.711 169.874 228.777 169.803 228.84Z" fill="#FFCC00"/>
<path d="M171.094 227.721L171.267 227.548C171.216 227.594 171.164 227.659 171.094 227.721Z" fill="#FFCC00"/>
<path d="M172.385 226.604L172.558 226.432C172.497 226.497 172.448 226.544 172.385 226.604Z" fill="#FFCC00"/>
<path d="M143.348 238.212L143.391 238.255L143.348 238.299V238.212Z" fill="#FF5E00"/>
<path d="M166.019 232.193L174.568 236.228L174.622 236.407L148.595 247.325C154.25 242.139 160.225 237.243 166.019 232.193Z" fill="#FF5E00"/>
<path d="M143.433 238.041L143.476 238.084L143.433 238.127V238.041Z" fill="#FF5E00"/>
<path d="M87.2936 205.793C96.5816 210.145 105.831 214.69 115.084 219.121L110.61 224.195L72.3231 206.223L76.8405 201.053C79.9878 202.377 83.0276 203.932 86.1173 205.377C86.4704 205.543 87.0183 205.664 87.2936 205.793Z" fill="#FFCC00"/>
<path d="M110.61 224.195L123.599 246.597L103.555 234.428C96.7178 231.136 89.8564 227.767 82.9918 224.539L72.3231 206.222L110.61 224.195Z" fill="#FF5E00"/>
</g>
<g clip-path="url(#clip2_137_3764)">
<path d="M641.261 242.137C641.241 242.77 641.183 247.042 641.37 247.244L702.838 276.279L703.646 276.515L769.518 248.973C769.747 248.89 769.737 248.769 769.773 248.569C769.971 247.432 769.788 244.753 769.766 243.455L785.802 251.033L703.207 285.631C677.393 273.687 651.899 261.011 626.031 249.184C625.839 249.096 625.4 249.008 625.445 248.727L641.261 242.137Z" fill="#FF5E00"/>
<path d="M785.801 251.033L785.732 259.282L703.316 293.868L703.207 285.63L785.801 251.033Z" fill="#9D9CFF"/>
<path d="M625.445 248.727C625.4 249.007 625.839 249.096 626.031 249.184C651.9 261.011 677.393 273.686 703.208 285.631L703.317 293.868L703.103 293.936L625.281 257.074C625.208 256.957 625.237 256.822 625.219 256.696C625.05 255.502 625.046 250.289 625.22 249.105C625.246 248.929 625.234 248.785 625.445 248.727Z" fill="#FFCC00"/>
<path d="M657.191 232.253L657.479 237.318L704.09 259.272L753.445 238.609C753.681 238.498 753.699 238.365 753.74 238.135C753.94 236.996 753.754 234.324 753.734 233.022L769.66 240.601L703.65 268.279L641.484 238.843L657.191 232.253Z" fill="#FF5E00"/>
<path d="M769.769 243.457C769.791 244.755 769.974 247.434 769.776 248.571C769.741 248.772 769.75 248.892 769.521 248.975L703.649 276.517V268.279L769.659 240.601C769.883 240.944 769.76 242.894 769.769 243.457Z" fill="#9D9CFF"/>
<path d="M703.65 268.278V276.516L702.842 276.28L641.374 247.245C641.187 247.044 641.245 242.771 641.265 242.138C641.279 241.691 641.385 238.977 641.484 238.843L703.65 268.278Z" fill="#FFCC00"/>
<path d="M673.446 222.259C673.437 222.914 673.359 227.154 673.556 227.366L704.639 241.919L737.523 228.203C737.623 226.34 737.617 224.455 737.589 222.588L753.734 230.277L704.527 250.873L704.09 250.925C688.559 243.593 672.944 236.374 657.52 228.849L673.446 222.259H673.446Z" fill="#FF5E00"/>
<path d="M753.736 230.276C753.746 231.19 753.722 232.109 753.736 233.022C753.755 234.324 753.941 236.996 753.741 238.135C753.7 238.365 753.682 238.498 753.446 238.609L704.091 259.272V250.925L704.528 250.873L753.736 230.276Z" fill="#9D9CFF"/>
<path d="M704.09 250.924V259.271L657.479 237.317L657.191 232.252L657.418 231.979L657.52 228.848C672.944 236.373 688.559 243.592 704.09 250.924V250.924Z" fill="#FFCC00"/>
<path d="M689.478 212.264C689.47 212.945 689.386 217.122 689.587 217.373L704.562 224.475L705.075 224.566C710.577 222.514 715.973 220.016 721.443 217.814C721.638 217.584 721.559 212.968 721.55 212.264L737.586 219.843L704.636 233.682L673.553 218.964L689.478 212.264L689.478 212.264Z" fill="#FF5E00"/>
<path d="M737.587 222.589C737.615 224.455 737.62 226.34 737.521 228.203L704.636 241.919V233.682L737.587 219.843C737.597 220.756 737.573 221.675 737.587 222.589Z" fill="#9D9CFF"/>
<path d="M704.635 233.682V241.92L673.552 227.367C673.355 227.155 673.433 222.914 673.442 222.259C673.451 221.671 673.33 219.288 673.552 218.964L704.635 233.682Z" fill="#FFCC00"/>
<path d="M721.55 209.519L705.075 216.328L689.589 208.97L706.009 202.097C711.195 204.545 716.473 206.874 721.55 209.519Z" fill="#FF5E00"/>
<path d="M721.548 209.519C721.556 210.433 721.536 211.351 721.548 212.265C721.557 212.969 721.636 217.585 721.441 217.815C715.971 220.017 710.574 222.514 705.073 224.566V216.329L721.548 209.519Z" fill="#9D9CFF"/>
<path d="M705.073 216.328V224.565L704.56 224.475L689.585 217.372C689.384 217.121 689.469 212.945 689.477 212.264C689.483 211.712 689.372 209.239 689.586 208.969L705.073 216.328L705.073 216.328Z" fill="#FFCC00"/>
</g>
<g clip-path="url(#clip3_137_3764)">
<path d="M341.901 266.754C341.654 269.311 342.085 272.247 341.902 274.844C340.944 274.835 339.983 274.782 339.027 274.737C317.154 273.705 295.241 272.358 273.399 271.232C273.347 269.328 273.308 267.388 273.353 265.477C273.37 264.734 273.34 263.985 273.353 263.242L341.901 266.754Z" fill="#FFCC00"/>
<path d="M334.769 281.124L334.769 289.214L333.598 289.107L268.774 280.486C268.868 279.742 268.697 278.971 268.668 278.25C268.613 276.869 268.474 273.609 268.775 272.396L334.769 281.124Z" fill="#FFCC00"/>
<path d="M326.998 294.962V302.945L326.77 303.032L265.374 289.315L265.262 288.682L265.368 281.231L326.998 294.962Z" fill="#FFCC00"/>
<path d="M318.696 308.16V316.143L318.489 316.209L264.071 298.123C263.868 298.067 263.544 297.996 263.347 298.048L263.453 289.852L318.696 308.16V308.16Z" fill="#FFCC00"/>
<path d="M360.421 299.751L360.407 307.828L310.287 328.81L310.18 320.72L360.421 299.751Z" fill="#9D9CFF"/>
<path d="M310.181 320.721L310.287 328.81L262.92 306.512L262.809 298.734C262.753 298.484 262.968 298.448 263.027 298.368L310.181 320.721Z" fill="#FFCC00"/>
<path d="M352.758 296.026L360.422 299.752L310.181 320.721L263.028 298.368C263.055 298.331 263.325 298.055 263.347 298.049C263.544 297.996 263.868 298.067 264.071 298.123L318.489 316.21L318.697 316.144C330.015 309.394 341.461 302.76 352.758 296.026Z" fill="#FF5E00"/>
<path d="M352.118 280.911L359.889 283.678L318.696 308.16L263.453 289.852L265.262 288.681L265.375 289.314L326.771 303.031L326.998 302.944C335.334 295.561 343.775 288.274 352.118 280.911Z" fill="#FF5E00"/>
<path d="M359.889 283.679L359.836 291.663C357.458 293.079 355.132 294.611 352.757 296.026C341.46 302.76 330.015 309.394 318.696 316.144V308.161L359.889 283.679V283.679Z" fill="#9D9CFF"/>
<path d="M279.207 261.113C279.221 261.324 279.195 261.541 279.206 261.752C300.666 261.068 322.144 260.715 343.604 260.048C343.293 262.184 342.104 264.657 341.901 266.754L273.353 263.242L277.397 248.021C277.979 252.384 278.563 256.758 279.207 261.113H279.207Z" fill="#FF5E00"/>
<path d="M339.027 274.738L334.77 281.124L268.776 272.396C268.806 272.275 268.777 272.131 268.874 272.02L273.353 265.478C273.308 267.389 273.347 269.328 273.4 271.232C295.242 272.358 317.154 273.706 339.027 274.738Z" fill="#FF5E00"/>
<path d="M268.669 278.25C268.698 278.971 268.869 279.742 268.775 280.486L333.598 289.107L326.999 294.961L265.369 281.23L265.401 281.051L268.669 278.25Z" fill="#FF5E00"/>
<path d="M279.206 253.663L348.073 251.853V259.943C347.287 259.861 346.505 260.02 345.731 260.049C345.025 260.076 344.309 260.027 343.603 260.049C322.142 260.716 300.664 261.069 279.205 261.753C279.194 261.541 279.22 261.325 279.206 261.113C279.04 258.696 279.329 256.099 279.206 253.663Z" fill="#FFCC00"/>
<path d="M350.629 265.903C350.619 265.918 350.426 265.922 350.324 266.073C345.825 272.728 341.321 279.386 336.95 286.125L357.867 267.606C358.098 270.235 357.935 272.958 357.95 275.62C356.015 277.389 354.083 279.178 352.119 280.912C343.775 288.275 335.334 295.562 326.999 302.945V294.962L333.598 289.107L334.769 289.214L334.769 281.124L339.026 274.738C339.983 274.783 340.943 274.836 341.901 274.845C342.084 272.248 341.653 269.311 341.9 266.755C342.103 264.658 343.292 262.185 343.603 260.049C344.31 260.027 345.026 260.076 345.732 260.049L343.869 267.606L354.567 251.853L354.54 259.969C353.149 261.886 351.954 263.946 350.629 265.903Z" fill="#9D9CFF"/>
<path d="M350.629 265.903L357.867 267.606L336.95 286.124C341.321 279.386 345.826 272.728 350.324 266.072C350.426 265.921 350.619 265.917 350.629 265.903L350.629 265.903Z" fill="#FF5E00"/>
<path d="M360.312 188.838L310.178 209.807C294.454 202.38 278.645 195.07 263.025 187.454L313.103 166.478C328.857 173.885 344.669 181.235 360.312 188.838Z" fill="#FF5E00"/>
<path d="M360.311 188.838L360.399 196.91C357.79 197.951 355.235 199.143 352.647 200.228C338.535 206.139 324.301 211.947 310.177 217.897V209.807L360.311 188.838Z" fill="#FFCC00"/>
<path d="M310.18 209.808V217.898L264.411 196.398L301.771 221.73V229.819L269.626 208.106L293.575 232.906V240.889L273.991 220.772L286.018 243.55V251.533L276.759 234.29L279.206 253.662C279.329 256.098 279.04 258.696 279.206 261.113C278.562 256.758 277.977 252.384 277.396 248.021C276.659 242.488 275.954 236.947 275.216 231.413L270.207 222.053L270.102 216.836L266.349 212.925L266.305 205.944L263.877 204.196L263.882 196.15C263.473 195.825 262.917 195.892 262.809 195.284C262.654 194.416 262.664 188.724 262.808 187.821C262.835 187.652 262.822 187.514 263.026 187.456C278.647 195.071 294.456 202.381 310.18 209.808Z" fill="#6E1527"/>
<path d="M356.908 220.772L357.008 228.962L349.989 230.458L349.663 230.294L293.829 241.001L293.575 240.889V232.906L356.908 220.772Z" fill="#FFCC00"/>
<path d="M359.356 204.913C359.592 207.561 359.413 210.306 359.447 212.987C356.868 213.752 354.275 214.484 351.692 215.237C335.051 220.094 318.396 224.914 301.771 229.82V221.73L359.356 204.913Z" fill="#FFCC00"/>
<path d="M310.18 217.898C324.304 211.948 338.538 206.14 352.65 200.229L359.356 204.912L301.771 221.73L264.411 196.398L310.18 217.898Z" fill="#FF5E00"/>
<path d="M301.77 229.818C318.395 224.913 335.05 220.092 351.691 215.236L356.906 220.771L293.574 232.905L269.624 208.105L301.77 229.818Z" fill="#FF5E00"/>
<path d="M353.076 236.525C353.574 238.797 352.937 242.14 353.167 244.546C353.133 244.689 353.035 244.693 352.917 244.721C352.202 244.891 350.605 244.959 349.776 245.04C349.085 245.108 348.277 245.177 347.541 245.253C327.186 247.347 306.829 249.41 286.489 251.642L286.018 251.533V243.55L353.076 236.525Z" fill="#FFCC00"/>
<path d="M286.018 251.533L286.489 251.642C306.829 249.41 327.187 247.347 347.541 245.253C347.028 247.214 347.834 249.428 347.968 251.426C348.008 251.305 348.267 250.953 348.286 250.894L354.566 251.852L343.869 267.605L345.732 260.048C346.506 260.019 347.287 259.86 348.073 259.942V251.852L279.206 253.662L276.759 234.29L286.018 251.533Z" fill="#FF5E00"/>
<path d="M293.575 240.889L293.829 241.001L349.662 230.294L349.989 230.458C350.605 232.296 352.681 234.729 353.075 236.525L286.017 243.55L273.991 220.772L293.575 240.889Z" fill="#FF5E00"/>
<path d="M349.777 245.04C349.106 246.867 348.889 249.086 348.286 250.894C348.267 250.953 348.009 251.305 347.969 251.425C347.834 249.428 347.028 247.214 347.541 245.252C348.277 245.177 349.086 245.108 349.777 245.04Z" fill="#9D9CFF"/>
</g>
<g clip-path="url(#clip4_137_3764)">
<path d="M524.196 234.677C532.779 244.616 541.252 254.681 549.915 264.563C550.028 264.693 549.999 264.768 549.957 264.914C549.902 265.104 547.998 267.696 547.686 268.148C546.129 270.402 544.484 272.605 542.847 274.802L535.939 266.939C535.754 266.892 535.567 267.852 535.516 268.026C535.216 269.062 535.044 270.131 534.781 271.172C534.137 273.731 533.504 276.305 532.701 278.821L509.376 278.229V289.218L455.943 311.6V300.107L508.164 278.177L508.216 278.027L482.558 277.322L485.684 265.325L535.386 266.635L535.587 266.486L509.88 236.794L517.239 226.712C519.536 229.384 521.893 232.01 524.196 234.676L524.196 234.677Z" fill="#9D9CFF"/>
<path d="M482.56 277.324L508.217 278.029L508.165 278.179L455.944 300.108L436.486 290.934L475.805 274.299C478.029 275.319 480.333 276.272 482.56 277.324Z" fill="#6E1527"/>
<path d="M455.944 300.108V311.601L436.435 302.427L436.486 290.934L455.944 300.108Z" fill="#FF5E00"/>
<path d="M515.022 257.36H516.034L535.387 266.636L485.684 265.325L466.327 256.151C466.757 255.964 467.6 256.04 468.095 256.046C483.732 256.233 499.378 257.253 515.022 257.36L515.022 257.36Z" fill="#6E1527"/>
<path d="M466.327 256.15L485.684 265.325L482.559 277.322C480.332 276.27 478.028 275.317 475.804 274.297C471.52 272.333 467.335 270.119 463.009 268.237L466.125 256.221C466.16 256.103 466.284 256.169 466.328 256.15L466.327 256.15Z" fill="#FF5E00"/>
<path d="M542.847 274.802L534.782 271.172C535.044 270.132 535.216 269.063 535.516 268.026C535.567 267.852 535.755 266.892 535.939 266.939L542.847 274.802Z" fill="#FFCC00"/>
<path d="M509.88 236.793L535.587 266.485L535.386 266.635L516.304 257.539L515.021 257.359L516.029 257.31L490.422 227.719L509.88 236.793Z" fill="#FFCC00"/>
<path d="M517.239 226.711L509.88 236.793L490.422 227.719L497.729 217.527L517.239 226.711Z" fill="#FF5E00"/>
<path d="M534.476 216.226L552.724 270.365L547.683 268.147C547.995 267.695 549.899 265.103 549.954 264.914C549.997 264.767 550.026 264.692 549.912 264.562C541.249 254.68 532.777 244.615 524.193 234.676L515.019 207.052L534.476 216.226Z" fill="#FFCC00"/>
<path d="M537.602 205.943C539.454 206.852 541.291 207.857 543.147 208.766L534.476 216.227L515.019 207.052L523.747 199.493C528.347 201.669 533.034 203.703 537.602 205.943V205.943Z" fill="#FF5E00"/>
<path d="M565.228 198.685C565.444 198.981 565.574 201.12 565.63 201.661C567.662 221.353 568.824 241.148 570.871 260.84L570.824 261.696C570.711 261.942 569.968 262.136 569.731 262.296C569.636 262.36 569.673 262.496 569.664 262.502C567.255 264.056 564.307 265.298 561.8 266.736L561.397 262.906C560.556 263.493 559.738 264.186 558.977 264.871C558.777 265.051 558.612 265.393 558.574 265.426C556.674 267.118 554.685 268.74 552.727 270.366L534.479 216.227L543.149 208.767L561.295 262.199L556.155 203.726L565.228 198.685L565.228 198.685Z" fill="#9D9CFF"/>
<path d="M556.154 203.727L561.295 262.2L543.149 208.767C541.293 207.858 539.456 206.853 537.604 205.945L536.696 194.552L556.154 203.727Z" fill="#FFCC00"/>
<path d="M551.718 192.132C552.041 192.286 552.488 192.631 552.892 192.823C557.002 194.78 561.166 196.63 565.228 198.685L556.154 203.726L536.696 194.551L545.835 189.432C547.805 190.306 549.774 191.204 551.718 192.132Z" fill="#FF5E00"/>
<path d="M571.378 263.109L571.277 197.376L580.552 193.545V259.126C580.535 259.358 580.337 259.376 580.187 259.466C579.258 260.022 572.283 262.961 571.378 263.109Z" fill="#9D9CFF"/>
<path d="M571.277 197.375L571.378 263.107C570.727 263.213 570.311 262.632 569.664 262.502C569.673 262.496 569.636 262.36 569.731 262.296C569.967 262.136 570.711 261.942 570.823 261.696L570.871 260.84C568.823 241.148 567.662 221.353 565.63 201.661C565.574 201.12 565.444 198.981 565.228 198.685C561.167 196.63 557.002 194.781 552.892 192.823C552.488 192.631 552.042 192.286 551.719 192.132L551.819 188.2L571.277 197.375H571.277Z" fill="#FFCC00"/>
<path d="M580.553 193.544L571.278 197.375L551.821 188.201L561.121 184.286L580.553 193.544Z" fill="#FF5E00"/>
<path d="M558.573 265.427C558.61 265.393 558.775 265.052 558.976 264.871C559.737 264.187 560.555 263.493 561.395 262.907L561.799 266.737L561.603 266.799L558.573 265.427L558.573 265.427Z" fill="#FFCC00"/>
</g>
<g clip-path="url(#clip5_137_3764)">
<path d="M898.537 220.595C895.506 225.216 892.21 229.678 889.275 234.364L903.58 221.662L903.656 226.636C902.733 227.436 901.867 228.313 900.962 229.129C895.617 233.951 890.059 238.552 884.763 243.432C884.598 243.536 884.433 243.467 884.262 243.457C882.821 243.368 878.265 241.758 877.299 242.028C877.221 241.859 877.037 241.901 877 241.69C876.764 240.36 877.193 238.3 877.008 236.888L884.523 238.535L887.869 235.628L880.297 234.614C880.141 234.633 880.018 234.233 880.014 234.172C879.941 232.825 880.191 231.006 880.208 229.614L888.207 230.684C888.455 230.628 890.205 227.937 890.391 227.482L883.602 227.093C883.599 226.254 883.608 225.411 883.602 224.572C883.597 223.765 883.606 222.954 883.602 222.147L892.132 222.53L892.912 219.141L887.346 219.337C887.23 219.321 887.301 219.133 887.288 219.044C887.085 217.666 887.439 215.819 887.288 214.389L895.822 214.195V219.141H894.27L893.398 223.167L900.477 212.74L900.456 217.617C899.823 218.612 899.184 219.61 898.537 220.595L898.537 220.595Z" fill="#FFCC00"/>
<path d="M911.92 269.667C912.175 271.072 911.73 273.222 911.921 274.71L900.283 275.97C890.595 276.475 880.739 278.257 871.045 278.985C870.208 279.126 869.916 276.973 869.347 276.843C869.388 276.238 868.76 275.803 868.666 275.148C868.601 274.692 868.564 270.477 868.765 270.345L870.753 274.041L911.92 269.667Z" fill="#FFCC00"/>
<path d="M868.959 276.844L869.346 280.53L911.726 279.559C911.812 281.198 911.662 282.865 911.727 284.506L899.313 284.893C890.081 284.716 880.598 285.412 871.34 285.577C870.695 285.588 870.048 285.553 869.404 285.579C869.377 285.569 869.265 285.248 869.25 285.184C869.076 284.461 868.903 282.633 868.858 281.842C868.828 281.299 868.737 276.958 868.959 276.844Z" fill="#FFCC00"/>
<path d="M868.764 287.123L910.853 289.256L910.949 294.008C910.922 294.057 910.956 294.198 910.858 294.253L910.611 294.308L900.087 293.815C890.023 292.824 879.669 293.082 869.636 292.166C869.365 292.141 869.071 292 868.763 292.07C868.877 290.48 868.612 288.687 868.764 287.123L868.764 287.123Z" fill="#FFCC00"/>
<path d="M868.765 293.62L909.399 298.953L909.496 303.9L901.544 303.027C891.591 301.181 881.24 300.503 871.231 298.855C871.035 298.819 870.879 298.881 870.704 298.954C870.76 298.642 870.548 298.79 870.367 298.763C869.836 298.682 869.301 298.61 868.766 298.565C868.958 297.132 868.504 294.96 868.765 293.62L868.765 293.62Z" fill="#FFCC00"/>
<path d="M910.271 250.077L910.354 255.106L902.9 257.351C893.663 259.453 884.421 263.076 875.201 265.395C875.018 265.441 874.874 265.378 874.707 265.324C874.386 265.22 872.225 263.684 871.77 263.363C871.521 263.187 870.288 262.386 870.238 262.229L870.316 257.254L874.721 260.365L875.102 260.452L910.271 250.077L910.271 250.077Z" fill="#FFCC00"/>
<path d="M869.539 300.02L907.35 308.565L907.361 313.5C906.106 313.38 904.822 312.777 903.579 312.821C893.498 309.906 882.535 308.123 872.255 305.742C871.325 305.526 870.402 305.204 869.453 305.053C869.305 304.849 869.423 300.284 869.539 300.02Z" fill="#FFCC00"/>
<path d="M901.541 303.027C904.79 303.629 907.996 304.48 911.225 305.174L911.187 310.104L907.359 313.5L907.348 308.565L869.538 300.02C869.586 299.912 870.593 298.999 870.702 298.954C870.876 298.881 871.032 298.819 871.228 298.855C881.237 300.503 891.588 301.181 901.541 303.027Z" fill="#FF5E00"/>
<path d="M870.8 306.713L904.731 317.876L904.936 322.811L904.839 323.005C897.894 320.149 889.524 317.795 882.293 315.439C880.179 314.75 876.465 313.192 874.486 312.867C874.314 312.838 874.18 312.81 874 312.823L870.75 311.563C870.631 311.351 870.666 306.989 870.8 306.713L870.8 306.713Z" fill="#FFCC00"/>
<path d="M903.578 312.822C905.706 313.437 907.809 314.162 909.886 314.924L909.834 319.902L904.936 322.811L904.731 317.876L870.8 306.712L872.254 305.743C882.535 308.124 893.498 309.907 903.578 312.822Z" fill="#FF5E00"/>
<path d="M900.089 293.814C904.041 294.203 907.973 294.866 911.909 295.377L911.898 300.24L909.496 303.899L909.4 298.953L868.765 293.62C868.849 293.192 869.545 292.648 869.638 292.165C879.67 293.081 890.025 292.823 900.089 293.814Z" fill="#FF5E00"/>
<path d="M901.738 332.023L872.662 318.333L872.742 313.403L901.642 327.028L901.738 332.023Z" fill="#FFCC00"/>
<path d="M874.002 312.822C874.182 312.809 874.316 312.838 874.488 312.866C876.467 313.192 880.18 314.749 882.295 315.439C889.526 317.795 897.896 320.149 904.841 323.005C905.226 323.163 907.92 324.396 907.992 324.556L908.022 329.338L907.775 329.575L901.737 332.024L901.641 327.028L872.741 313.404C872.862 313.204 873.763 312.839 874.002 312.822L874.002 312.822Z" fill="#FF5E00"/>
<path d="M899.313 284.892C903.486 284.972 907.658 285.372 911.83 285.516C912.033 285.666 911.974 290.027 911.912 290.557C911.857 291.026 911.155 293.644 910.951 294.008L910.854 289.256L868.765 287.123C868.827 286.486 869.106 285.807 869.25 285.183C869.266 285.247 869.377 285.569 869.404 285.578C870.049 285.552 870.695 285.587 871.34 285.576C880.599 285.411 890.082 284.716 899.313 284.892Z" fill="#FF5E00"/>
<path d="M900.282 275.971C903.905 275.782 907.561 275.952 911.182 275.672C911.368 275.733 911.703 279.117 911.726 279.559L869.346 280.529L868.958 276.843C869.079 276.86 869.238 276.819 869.346 276.843C869.915 276.974 870.207 279.126 871.044 278.985C880.739 278.258 890.595 276.475 900.282 275.971Z" fill="#FF5E00"/>
<path d="M911.921 269.666L870.753 274.041L868.765 270.345L870.317 270.151C870.536 270.394 872.266 272.127 872.397 272.192C872.526 272.257 872.628 272.325 872.782 272.288C882.301 270.769 891.916 268.134 901.447 266.854C904.25 266.477 907.111 266.384 909.915 265.991C910.114 266.056 911.876 269.418 911.921 269.666L911.921 269.666Z" fill="#FF5E00"/>
<path d="M908.528 240.379C908.714 240.432 908.703 240.558 908.727 240.713C908.794 241.131 908.791 245.219 908.675 245.423L904.843 247.168L877.887 258.378C876.405 257.721 874.878 257.091 873.422 256.381C872.939 256.145 872.467 255.841 871.965 255.635L872.065 250.659C873.619 251.402 875.261 252.36 876.848 253.003C877.205 253.148 877.614 253.407 878.002 253.355C887.991 248.913 898.302 245.141 908.264 240.643C908.406 240.578 908.58 240.628 908.528 240.379Z" fill="#FFCC00"/>
<path d="M910.273 250.077L875.105 260.452L874.723 260.365L870.318 257.254L873.421 256.381C874.877 257.091 876.404 257.721 877.886 258.378L904.842 247.168L905.582 246.98C907.217 247.819 908.746 249.016 910.273 250.077Z" fill="#FF5E00"/>
<path d="M906.295 230.972L906.392 235.945L903.288 237.955C895.849 242.106 888.577 246.708 881.198 251.026C880.285 251.217 876.518 249.193 875.262 249.301C875.037 248.91 874.293 249.096 874.194 248.672L874.292 243.87L880.788 246.061L881.179 246.06L906.295 230.972H906.295Z" fill="#FFCC00"/>
<path d="M903.289 237.955L908.526 240.379C908.577 240.628 908.404 240.578 908.261 240.643C898.3 245.141 887.989 248.912 878 253.355C877.611 253.406 877.203 253.148 876.846 253.003C875.259 252.36 873.617 251.402 872.062 250.659C872.16 250.515 875.013 249.322 875.262 249.301C876.519 249.193 880.286 251.217 881.199 251.026C888.578 246.708 895.849 242.106 903.289 237.955Z" fill="#FF5E00"/>
<path d="M906.295 230.972L881.179 246.061L880.788 246.061L874.292 243.871C874.376 243.715 877.034 242.102 877.298 242.028C878.264 241.758 882.82 243.368 884.261 243.457C884.432 243.468 884.598 243.536 884.763 243.432C890.059 238.552 895.616 233.952 900.961 229.13L906.295 230.972Z" fill="#FF5E00"/>
<path d="M887.289 219.044C887.302 219.134 887.231 219.321 887.347 219.337L892.913 219.142L892.133 222.53L883.604 222.148L886.319 211.965C886.625 214.325 886.847 216.705 887.289 219.044Z" fill="#FF5E00"/>
<path d="M898.344 194.217C898.931 194.135 899.518 193.978 900.09 193.829L902.611 196.448L894.756 197.903L878.076 180.642L878.477 180.772L898.344 194.217Z" fill="#FF5E00"/>
<path d="M891.071 211.189L895.337 210.8L895.727 213.612C895.962 213.137 896.07 212.574 896.21 212.061L900.477 212.74L893.399 223.167L894.271 219.141H895.822V214.195L887.288 214.389L885.544 201.103L891.071 211.189Z" fill="#FF5E00"/>
<path d="M891.071 206.243L882.732 190.534L894.756 202.849C895.772 202.784 896.765 202.54 897.763 202.364C898.115 203.363 899.074 204.464 899.314 205.468L891.071 206.243V206.243Z" fill="#FF5E00"/>
<path d="M899.314 205.467C899.424 205.924 899.515 210.128 899.369 210.323L896.521 210.723C896.447 210.791 896.27 211.845 896.211 212.062C896.07 212.574 895.962 213.137 895.727 213.613L895.337 210.801L891.071 211.189V206.243L899.314 205.467H899.314Z" fill="#FFCC00"/>
<path d="M902.611 196.447L902.569 201.4C900.968 201.715 899.367 202.08 897.762 202.363C896.764 202.539 895.771 202.783 894.755 202.848V197.902L902.611 196.447Z" fill="#FFCC00"/>
<path d="M898.345 189.271V194.217L878.478 180.772L878.076 180.641L894.757 197.902V202.848L882.732 190.532L891.071 206.242V211.188L885.545 201.102L887.289 214.388C887.44 215.819 887.086 217.666 887.289 219.043C886.848 216.704 886.625 214.324 886.319 211.964C885.778 207.79 885.157 203.622 884.743 199.43C884.166 197.654 881.673 194.597 881.301 192.98C881.042 191.853 881.485 190.082 881.226 188.886L878 185.516L878.068 180.46L875.087 178.441C875.18 177.691 874.867 173.956 875.167 173.561L898.345 189.271V189.271Z" fill="#9D9CFF"/>
<path d="M876.04 173.269C884.558 177.37 893.183 181.272 901.739 185.294C901.946 185.211 902.354 185.251 902.515 185.197L905.424 187.137C905.359 187.32 905.191 187.331 905.038 187.381C902.844 188.102 900.569 188.646 898.345 189.27L875.167 173.56C875.295 173.391 875.818 173.299 876.04 173.269H876.04Z" fill="#FF5E00"/>
<path d="M900.091 193.83C899.519 193.979 898.932 194.135 898.345 194.218V189.272C900.569 188.648 902.844 188.103 905.038 187.382C905.191 187.332 905.359 187.321 905.424 187.138L905.527 187.37L905.478 192.186C903.672 192.663 901.894 193.36 900.091 193.83Z" fill="#FFCC00"/>
<path d="M907.943 177.829L901.737 180.35L872.74 166.676L878.97 164.074L907.943 177.829Z" fill="#FF5E00"/>
<path d="M901.738 180.351V185.297C893.183 181.274 884.557 177.372 876.039 173.271C874.921 172.733 873.81 172.166 872.693 171.623L872.742 166.677L901.738 180.351V180.351Z" fill="#9D9CFF"/>
<path d="M907.944 177.828L907.899 182.777C906.146 183.51 904.418 184.321 902.633 184.975C902.477 185.033 902.525 185.194 902.513 185.198C902.352 185.252 901.945 185.212 901.738 185.295V180.35L907.944 177.828Z" fill="#FFCC00"/>
<path d="M903.58 221.664L889.274 234.366C892.21 229.68 895.505 225.218 898.537 220.597L903.58 221.664V221.664Z" fill="#FF5E00"/>
<path d="M883.603 224.572C883.608 225.412 883.599 226.255 883.602 227.094L890.391 227.483C890.206 227.937 888.455 230.629 888.207 230.685L880.208 229.615L883.603 224.572H883.603Z" fill="#FF5E00"/>
<path d="M880.014 234.173C880.017 234.234 880.141 234.634 880.296 234.614L887.869 235.629L884.522 238.536L877.008 236.888L880.014 234.173H880.014Z" fill="#FF5E00"/>
<path d="M911.436 259.872C911.555 260.426 911.635 264.713 911.439 264.869L901.447 266.854C891.916 268.134 882.301 270.769 872.782 272.289C872.628 272.325 872.526 272.257 872.397 272.193C872.266 272.128 870.536 270.395 870.317 270.151C870.157 269.974 869.176 268.831 869.156 268.742L869.153 263.945L872.398 267.249L872.678 267.334L911.436 259.872L911.436 259.872Z" fill="#FFCC00"/>
<path d="M911.436 259.872L872.678 267.334L872.398 267.249L869.153 263.945L871.772 263.363C872.226 263.684 874.388 265.22 874.708 265.324C874.875 265.378 875.019 265.441 875.202 265.395C884.422 263.076 893.664 259.452 902.902 257.35C904.601 256.964 906.366 256.769 908.071 256.398L911.436 259.872L911.436 259.872Z" fill="#FF5E00"/>
</g>
</g>
<defs>
<clipPath id="clip0_137_3764">
<rect width="966" height="500" fill="white"/>
</clipPath>
<clipPath id="clip1_137_3764">
<rect width="120.625" height="124.945" fill="white" transform="translate(53.998 185.414)"/>
</clipPath>
<clipPath id="clip2_137_3764">
<rect width="160.712" height="91.8416" fill="white" transform="translate(625.093 202.095)"/>
</clipPath>
<clipPath id="clip3_137_3764">
<rect width="97.7243" height="162.331" fill="white" transform="translate(262.696 166.479)"/>
</clipPath>
<clipPath id="clip4_137_3764">
<rect width="144.118" height="127.314" fill="white" transform="translate(436.434 184.287)"/>
</clipPath>
<clipPath id="clip5_137_3764">
<rect width="43.3867" height="167.95" fill="white" transform="translate(868.615 164.074)"/>
</clipPath>
</defs>
</svg>
