<svg width="966" height="500" viewBox="0 0 966 500" fill="none" xmlns="http://www.w3.org/2000/svg">
<rect width="966" height="500" fill="#201C1D"/>
<rect x="165.029" y="241.058" width="64.4578" height="6.76744" transform="rotate(90 165.029 241.058)" fill="#FF5E00"/>
<rect x="165.033" y="241.058" width="6.76743" height="6.76743" transform="rotate(90 165.033 241.058)" fill="#FFCC00"/>
<rect x="154.065" y="213.368" width="92.1476" height="6.76744" transform="rotate(90 154.065 213.368)" fill="#FF5E00"/>
<rect x="154.065" y="213.368" width="6.76743" height="6.76743" transform="rotate(90 154.065 213.368)" fill="#FFCC00"/>
<rect x="143.094" y="251.422" width="54.0943" height="6.76744" transform="rotate(90 143.094 251.422)" fill="#FF5E00"/>
<rect x="143.096" y="251.422" width="6.76743" height="6.76743" transform="rotate(90 143.096 251.422)" fill="#FFCC00"/>
<rect x="132.121" y="199.606" width="105.909" height="6.76744" transform="rotate(90 132.121 199.606)" fill="#FF5E00"/>
<rect x="132.124" y="199.606" width="6.76743" height="6.76743" transform="rotate(90 132.124 199.606)" fill="#FFCC00"/>
<rect x="121.15" y="236.143" width="69.3731" height="6.76744" transform="rotate(90 121.15 236.143)" fill="#FF5E00"/>
<rect x="121.153" y="236.143" width="6.76743" height="6.76743" transform="rotate(90 121.153 236.143)" fill="#FFCC00"/>
<rect x="110.18" y="265.68" width="39.8354" height="6.76744" transform="rotate(90 110.18 265.68)" fill="#FF5E00"/>
<rect x="110.182" y="265.68" width="6.76743" height="6.76743" transform="rotate(90 110.182 265.68)" fill="#FFCC00"/>
<rect x="99.2095" y="224.356" width="81.1602" height="6.76744" transform="rotate(90 99.2095 224.356)" fill="#FF5E00"/>
<rect x="99.2095" y="224.356" width="6.76743" height="6.76743" transform="rotate(90 99.2095 224.356)" fill="#FFCC00"/>
<rect x="88.2408" y="248.128" width="57.3879" height="6.76744" transform="rotate(90 88.2408 248.128)" fill="#FF5E00"/>
<rect x="88.2424" y="248.038" width="6.76743" height="6.76743" transform="rotate(90 88.2424 248.038)" fill="#FFCC00"/>
<rect x="77.2727" y="231.871" width="73.6448" height="6.76744" transform="rotate(90 77.2727 231.871)" fill="#FF5E00"/>
<rect x="77.2743" y="231.871" width="6.76743" height="6.76743" transform="rotate(90 77.2743 231.871)" fill="#FFCC00"/>
<rect x="66.2997" y="220.764" width="84.7518" height="6.76744" transform="rotate(90 66.2997 220.764)" fill="#FF5E00"/>
<rect x="66.3033" y="220.764" width="6.76743" height="6.76743" transform="rotate(90 66.3033 220.764)" fill="#FFCC00"/>
<rect x="55.3344" y="231.871" width="73.6448" height="6.76744" transform="rotate(90 55.3344 231.871)" fill="#FF5E00"/>
<rect x="55.3363" y="231.871" width="6.76743" height="6.76743" transform="rotate(90 55.3363 231.871)" fill="#FFCC00"/>
<rect x="650.775" y="218.103" width="15.8294" height="11.2211" transform="rotate(-180 650.775 218.103)" fill="#86AF25"/>
<rect x="650.775" y="233.118" width="23.6856" height="11.2211" transform="rotate(-180 650.775 233.118)" fill="#FF5E00"/>
<rect x="650.775" y="248.128" width="35.5288" height="11.2211" transform="rotate(-180 650.775 248.128)" fill="#FF5E00"/>
<rect x="650.775" y="263.144" width="47.4892" height="11.2211" transform="rotate(-180 650.775 263.144)" fill="#FF5E00"/>
<rect x="650.772" y="278.159" width="59.2144" height="11.2211" transform="rotate(-180 650.772 278.159)" fill="#FF5E00"/>
<rect width="71.0566" height="11.2211" transform="matrix(-1 -1.01049e-07 -8.05786e-08 1 650.772 281.949)" fill="#FF5E00"/>
<rect x="650.775" y="233.116" width="23.6856" height="11.2211" transform="rotate(-180 650.775 233.116)" fill="#86AF25"/>
<rect x="650.775" y="248.13" width="35.5284" height="11.2211" transform="rotate(-180 650.775 248.13)" fill="#86AF25"/>
<rect x="650.775" y="263.144" width="47.3711" height="11.2211" transform="rotate(-180 650.775 263.144)" fill="#86AF25"/>
<rect x="650.775" y="278.159" width="59.2139" height="11.2211" transform="rotate(-180 650.775 278.159)" fill="#86AF25"/>
<rect width="71.0567" height="11.2211" transform="matrix(-1 -1.01049e-07 -8.05786e-08 1 650.775 281.946)" fill="#86AF25"/>
<rect x="650.775" y="218.103" width="15.8294" height="11.2211" transform="rotate(-180 650.775 218.103)" fill="#FF5E00"/>
<rect x="650.772" y="233.12" width="23.6845" height="11.2211" transform="rotate(-180 650.772 233.12)" fill="#FF5E00"/>
<rect x="650.775" y="248.13" width="35.5288" height="11.2211" transform="rotate(-180 650.775 248.13)" fill="#FF5E00"/>
<rect x="650.775" y="263.141" width="47.3711" height="11.2211" transform="rotate(-180 650.775 263.141)" fill="#FF5E00"/>
<rect x="650.775" y="278.157" width="59.214" height="11.2211" transform="rotate(-180 650.775 278.157)" fill="#FF5E00"/>
<rect width="71.0566" height="11.2211" transform="matrix(-1 -1.01049e-07 -8.05786e-08 1 650.775 281.946)" fill="#FF5E00"/>
<rect width="15.8294" height="11.2211" transform="matrix(1 1.65712e-07 1.98771e-07 -1 650.766 218.098)" fill="#86AF25"/>
<rect width="23.6856" height="11.2211" transform="matrix(1 1.65712e-07 1.98771e-07 -1 650.766 233.115)" fill="#FF5E00"/>
<rect width="35.5285" height="11.2211" transform="matrix(1 1.65712e-07 1.98771e-07 -1 650.766 248.126)" fill="#FF5E00"/>
<rect width="47.4882" height="11.2211" transform="matrix(1 1.65712e-07 1.98771e-07 -1 650.766 263.145)" fill="#FF5E00"/>
<rect width="59.214" height="11.2211" transform="matrix(1 1.65712e-07 1.98771e-07 -1 650.766 278.154)" fill="#FF5E00"/>
<rect width="71.0566" height="11.2211" transform="matrix(1 1.65712e-07 1.98771e-07 -1 650.766 293.174)" fill="#FF5E00"/>
<rect width="23.6856" height="11.2211" transform="matrix(1 1.65712e-07 1.98771e-07 -1 650.766 233.118)" fill="#86AF25"/>
<rect width="35.5284" height="11.2211" transform="matrix(1 1.65712e-07 1.98771e-07 -1 650.766 248.126)" fill="#86AF25"/>
<rect width="47.3711" height="11.2211" transform="matrix(1 1.65712e-07 1.98771e-07 -1 650.766 263.145)" fill="#86AF25"/>
<rect width="59.2139" height="11.2211" transform="matrix(1 1.65712e-07 1.98771e-07 -1 650.766 278.154)" fill="#86AF25"/>
<rect width="71.0567" height="11.2211" transform="matrix(1 1.65712e-07 1.98771e-07 -1 650.766 293.172)" fill="#86AF25"/>
<rect width="7.58428" height="11.2211" transform="matrix(1 1.65712e-07 1.98771e-07 -1 650.766 218.098)" fill="#FF5E00"/>
<rect width="15.1686" height="11.2211" transform="matrix(1 1.65712e-07 1.98771e-07 -1 650.766 233.118)" fill="#FF5E00"/>
<rect width="22.7528" height="11.2211" transform="matrix(1 1.65712e-07 1.98771e-07 -1 650.766 248.126)" fill="#FF5E00"/>
<rect width="30.3371" height="11.2211" transform="matrix(1 1.65712e-07 1.98771e-07 -1 650.766 263.145)" fill="#FF5E00"/>
<rect width="37.9214" height="11.2211" transform="matrix(1 1.65712e-07 1.98771e-07 -1 650.766 278.154)" fill="#FF5E00"/>
<rect width="45.5057" height="11.2211" transform="matrix(1 1.65712e-07 1.98771e-07 -1 650.766 293.172)" fill="#FF5E00"/>
<rect width="45.5057" height="11.2211" transform="matrix(1 1.65712e-07 1.98771e-07 -1 650.769 293.172)" fill="#FF5E00"/>
<rect x="650.768" y="218.099" width="4.33389" height="11.2211" transform="rotate(-180 650.768 218.099)" fill="#FF5E00"/>
<rect width="4.33389" height="11.2211" transform="matrix(1 1.65712e-07 1.98771e-07 -1 650.768 218.098)" fill="#FF5E00"/>
<rect x="230.449" y="169.622" width="44.3351" height="10.2526" fill="#FF5E00"/>
<rect x="229.614" y="183.392" width="63.2049" height="10.2526" fill="#FF5E00"/>
<rect x="235.016" y="197.162" width="74.4161" height="10.2526" fill="#FF5E00"/>
<rect x="245.99" y="210.932" width="77.142" height="10.2526" fill="#FF5E00"/>
<rect x="261.216" y="224.702" width="70.3867" height="10.2526" fill="#FF5E00"/>
<rect x="279.509" y="238.472" width="54.4184" height="10.2526" fill="#FF5E00"/>
<rect x="297.776" y="252.242" width="32.5508" height="10.2526" fill="#FF5E00"/>
<rect x="313.862" y="266.012" width="6.67824" height="10.2526" fill="#FF5E00"/>
<rect x="257.282" y="278.868" width="68.7091" height="10.2526" fill="#F39FFF"/>
<rect x="274.659" y="292.638" width="58.2904" height="10.2526" fill="#F39FFF"/>
<rect x="292.86" y="306.408" width="40.9695" height="10.2526" fill="#F39FFF"/>
<rect x="237.303" y="320.178" width="19.9783" height="10.2526" fill="#F39FFF"/>
<rect x="274.785" y="169.622" width="58.0516" height="10.2526" fill="#F39FFF"/>
<rect x="292.819" y="183.392" width="41.109" height="10.2526" fill="#F39FFF"/>
<rect x="309.432" y="197.162" width="18.7759" height="10.2526" fill="#F39FFF"/>
<rect x="240.065" y="210.932" width="5.92376" height="10.2526" fill="#F39FFF"/>
<rect x="231.519" y="224.702" width="29.6968" height="10.2526" fill="#F39FFF"/>
<rect x="229.173" y="238.473" width="50.3358" height="10.2526" fill="#F39FFF"/>
<rect x="233.15" y="252.242" width="64.6251" height="10.2526" fill="#F39FFF"/>
<rect x="243.028" y="266.012" width="70.8351" height="10.2526" fill="#F39FFF"/>
<rect x="237.303" y="278.868" width="19.9783" height="10.2526" fill="#FF5E00"/>
<rect x="230.32" y="292.638" width="44.3376" height="10.2526" fill="#FF5E00"/>
<rect x="229.173" y="306.408" width="63.6865" height="10.2526" fill="#FF5E00"/>
<rect x="257.282" y="320.178" width="68.7091" height="10.2526" fill="#FF5E00"/>
<path d="M451.287 250.024L451.287 191.272L462.356 191.272V250.024H451.287Z" fill="#9D9CFF"/>
<path d="M452.029 247.257L481.405 196.376L490.991 201.91L461.615 252.792L452.029 247.257Z" fill="#9D9CFF"/>
<path d="M454.054 245.231L504.936 215.855L510.47 225.441L459.589 254.818L454.054 245.231Z" fill="#9D9CFF"/>
<path d="M456.822 244.49H515.575V255.559H456.822V244.49Z" fill="#9D9CFF"/>
<path d="M459.589 245.231L510.47 274.608L504.936 284.194L454.054 254.818L459.589 245.231Z" fill="#9D9CFF"/>
<path d="M461.615 247.257L490.991 298.139L481.405 303.673L452.029 252.792L461.615 247.257Z" fill="#9D9CFF"/>
<path d="M462.356 250.024V308.777H451.287L451.287 250.024H462.356Z" fill="#9D9CFF"/>
<path d="M461.615 252.792L432.238 303.673L422.652 298.139L452.029 247.257L461.615 252.792Z" fill="#9D9CFF"/>
<path d="M459.589 254.818L408.708 284.194L403.173 274.608L454.054 245.231L459.589 254.818Z" fill="#9D9CFF"/>
<path d="M456.822 255.559H398.069L398.069 244.49H456.822V255.559Z" fill="#9D9CFF"/>
<path d="M454.054 254.818L403.173 225.441L408.708 215.855L459.589 245.231L454.054 254.818Z" fill="#9D9CFF"/>
<path d="M452.029 252.792L422.652 201.91L432.238 196.376L461.615 247.257L452.029 252.792Z" fill="#9D9CFF"/>
<rect x="451.287" y="287.205" width="74.3605" height="11.0692" transform="rotate(-90 451.287 287.205)" fill="#FF5E00"/>
<rect x="451.287" y="200.762" width="9.49027" height="11.0692" transform="rotate(-90 451.287 200.762)" fill="#FF5E00"/>
<rect x="451.287" y="308.777" width="9.49027" height="11.0692" transform="rotate(-90 451.287 308.777)" fill="#FF5E00"/>
<rect x="427.395" y="210.133" width="9.49027" height="11.0692" transform="rotate(-120.006 427.395 210.133)" fill="#FF5E00"/>
<rect x="481.411" y="303.671" width="9.49027" height="11.0692" transform="rotate(-120.006 481.411 303.671)" fill="#FF5E00"/>
<rect x="411.396" y="230.188" width="9.49027" height="11.0692" transform="rotate(-150 411.396 230.188)" fill="#FF5E00"/>
<rect x="504.939" y="284.195" width="9.49027" height="11.0692" transform="rotate(-150 504.939 284.195)" fill="#FF5E00"/>
<rect x="407.562" y="255.56" width="9.49027" height="11.0692" transform="rotate(180 407.562 255.56)" fill="#FF5E00"/>
<rect x="515.577" y="255.56" width="9.49027" height="11.0692" transform="rotate(180 515.577 255.56)" fill="#FF5E00"/>
<rect x="416.927" y="279.448" width="9.49027" height="11.0692" transform="rotate(150 416.927 279.448)" fill="#FF5E00"/>
<rect x="510.471" y="225.441" width="9.49027" height="11.0692" transform="rotate(150 510.471 225.441)" fill="#FF5E00"/>
<rect x="436.985" y="295.452" width="9.49027" height="11.0692" transform="rotate(120 436.985 295.452)" fill="#FF5E00"/>
<rect x="490.992" y="201.909" width="9.49027" height="11.0692" transform="rotate(120 490.992 201.909)" fill="#FF5E00"/>
<rect x="470.618" y="284.991" width="74.3605" height="11.0692" transform="rotate(-120 470.618 284.991)" fill="#FF5E00"/>
<rect x="486.254" y="273.408" width="74.3605" height="11.0692" transform="rotate(-150 486.254 273.408)" fill="#FF5E00"/>
<rect x="494.001" y="255.559" width="74.3605" height="11.0692" transform="rotate(180 494.001 255.559)" fill="#FF5E00"/>
<rect x="491.787" y="236.228" width="74.3605" height="11.0692" transform="rotate(150 491.787 236.228)" fill="#FF5E00"/>
<rect x="480.205" y="220.593" width="74.3605" height="11.0692" transform="rotate(120 480.205 220.593)" fill="#FF5E00"/>
<rect width="11.8691" height="11.8691" transform="matrix(-4.37114e-08 1 1 4.37114e-08 785.966 265.751)" fill="#C6D1E1"/>
<rect width="11.8691" height="11.8691" transform="matrix(1.31134e-07 -1 -1 -1.31134e-07 919.094 234.677)" fill="#C6D1E1"/>
<rect width="11.8691" height="11.8691" transform="matrix(-1 -8.74228e-08 -8.74228e-08 1 836.513 184.077)" fill="#C6D1E1"/>
<rect width="11.8691" height="11.8691" transform="matrix(1 1.74846e-07 1.74846e-07 -1 867.723 315.973)" fill="#C6D1E1"/>
<rect x="919.097" y="265.751" width="11.8691" height="11.8691" transform="rotate(90 919.097 265.751)" fill="#C6D1E1"/>
<rect x="867.587" y="184.074" width="11.8691" height="11.8691" fill="#C6D1E1"/>
<rect x="836.646" y="315.977" width="11.8691" height="11.8691" transform="rotate(180 836.646 315.977)" fill="#C6D1E1"/>
<rect x="785.966" y="234.677" width="11.8691" height="11.8691" transform="rotate(-90 785.966 234.677)" fill="#C6D1E1"/>
<path d="M857.936 244.365L857.936 256.136L907.244 234.686V222.88L857.936 244.365Z" fill="#FF5E00"/>
<path d="M846.2 245.236L857.971 245.236L836.521 195.927L824.715 195.927L846.2 245.236Z" fill="#FF5E00"/>
<path d="M858.033 254.814L846.262 254.814L867.712 304.122L879.518 304.122L858.033 254.814Z" fill="#FF5E00"/>
<path d="M847.143 244.365L847.143 256.136L797.835 234.686V222.88L847.143 244.365Z" fill="#FF5E00"/>
<path d="M907.244 265.985L907.244 277.756L857.936 256.307V244.5L907.244 265.985Z" fill="#FF5E00"/>
<path d="M867.82 195.927L879.59 195.927L858.141 245.235L846.334 245.235L867.82 195.927Z" fill="#FF5E00"/>
<path d="M836.413 304.123L824.642 304.123L846.092 254.815L857.898 254.815L836.413 304.123Z" fill="#FF5E00"/>
<path d="M797.835 265.985L797.835 277.756L847.143 256.307V244.5L797.835 265.985Z" fill="#FF5E00"/>
<rect x="845.412" y="243.509" width="13.4072" height="13.4072" fill="#C6D1E1"/>
</svg>
