<svg fill="none" height="200" viewBox="0 0 316 200" width="316" xmlns="http://www.w3.org/2000/svg"><path d="m0 0h316v200h-316z" fill="#e5e5e5"/><path d="m117.945 106v-11.6364h4.148c.902 0 1.65.1553 2.244.4659.599.3107 1.046.7406 1.341 1.2898.296.5455.444 1.1762.444 1.8921 0 .7121-.15 1.339-.449 1.8806-.296.538-.743.956-1.341 1.256-.595.299-1.343.449-2.245.449h-3.142v-1.512h2.983c.569 0 1.031-.081 1.387-.2441.36-.1629.623-.3996.789-.7102.167-.3106.25-.6837.25-1.1193 0-.4394-.085-.8201-.255-1.1421-.167-.322-.43-.5682-.79-.7386-.356-.1743-.824-.2614-1.403-.2614h-2.205v10.1307zm5.745-5.25 2.875 5.25h-2l-2.818-5.25zm8.084 5.426c-.86 0-1.601-.184-2.222-.551-.617-.371-1.095-.892-1.432-1.563-.333-.674-.5-1.464-.5-2.369 0-.894.167-1.682.5-2.3635.337-.6818.807-1.214 1.409-1.5965.606-.3826 1.315-.5739 2.125-.5739.493 0 .97.0814 1.432.2443s.877.4186 1.244.7671c.368.3484.658.8011.87 1.3579.212.5526.318 1.2256.318 2.0166v.603h-6.938v-1.273h5.273c0-.447-.091-.843-.273-1.1875-.181-.3485-.437-.6231-.767-.8239-.325-.2007-.708-.3011-1.147-.3011-.478 0-.894.1174-1.25.3523-.353.231-.625.5341-.819.9091-.189.3711-.284.7741-.284 1.2101v.994c0 .584.103 1.08.307 1.489.208.409.498.722.869.938.372.212.805.318 1.302.318.322 0 .615-.046.88-.137.265-.094.495-.234.688-.42s.341-.415.443-.688l1.608.29c-.129.474-.36.888-.693 1.244-.33.353-.745.627-1.245.824-.496.194-1.062.29-1.698.29zm8.169.017c-.553 0-1.053-.102-1.5-.307-.447-.208-.802-.509-1.063-.903-.258-.394-.386-.877-.386-1.449 0-.492.094-.898.284-1.216.189-.318.445-.57.767-.756.322-.185.682-.325 1.079-.42.398-.095.803-.167 1.216-.216.523-.06.947-.11 1.273-.148.326-.041.563-.108.71-.198.148-.091.222-.239.222-.444v-.039c0-.4966-.14-.8811-.421-1.1538-.276-.2727-.689-.4091-1.238-.4091-.572 0-1.023.1269-1.353.3807-.325.25-.551.5284-.676.8352l-1.596-.3636c.189-.5303.466-.9584.829-1.2841.368-.3296.79-.5682 1.267-.7159.478-.1516.979-.2273 1.506-.2273.348 0 .718.0417 1.108.125.394.0795.761.2273 1.102.4432.345.2159.627.5246.847.9261.22.3977.329.9148.329 1.5516v5.795h-1.659v-1.193h-.068c-.11.22-.275.435-.494.648-.22.212-.502.388-.847.528s-.757.21-1.238.21zm.369-1.363c.47 0 .871-.093 1.204-.279.338-.185.593-.428.767-.727.179-.303.268-.627.268-.972v-1.125c-.061.061-.179.118-.353.171-.17.049-.365.093-.585.13-.22.034-.434.067-.642.097-.208.027-.383.049-.523.068-.329.042-.63.112-.903.21-.269.099-.485.241-.648.427-.159.181-.239.424-.239.727 0 .42.156.738.466.954.311.212.707.319 1.188.319zm9.467 1.34c-.704 0-1.333-.179-1.886-.539-.549-.364-.981-.881-1.296-1.551-.31-.675-.466-1.483-.466-2.427 0-.943.158-1.7496.472-2.42.318-.6705.754-1.1838 1.307-1.5398.553-.3561 1.18-.5341 1.881-.5341.541 0 .977.0909 1.306.2727.334.178.591.3864.773.625.186.2387.33.4489.432.6307h.102v-4.3239h1.699v11.6364h-1.659v-1.358h-.142c-.102.186-.25.398-.443.636-.19.239-.451.447-.784.625-.334.178-.765.267-1.296.267zm.375-1.448c.489 0 .902-.129 1.239-.387.341-.261.598-.623.773-1.085.178-.462.267-1 .267-1.614 0-.606-.088-1.136-.262-1.591-.174-.4541-.43-.8083-.767-1.062-.337-.2538-.754-.3807-1.25-.3807-.511 0-.937.1325-1.278.3977s-.599.6269-.773 1.085c-.17.459-.256.976-.256 1.551 0 .584.088 1.108.262 1.574s.432.835.772 1.108c.345.269.769.404 1.273.404zm10.608 1.278v-8.7273h1.631v1.4205h.108c.182-.4811.479-.8561.892-1.125.413-.2727.907-.4091 1.483-.4091.583 0 1.072.1364 1.466.4091.397.2727.691.6477.88 1.125h.091c.209-.4659.54-.8371.995-1.1137.454-.2803.996-.4204 1.625-.4204.791 0 1.437.2481 1.937.7443.504.4962.756 1.2443.756 2.2446v5.852h-1.699v-5.693c0-.5911-.161-1.0191-.483-1.2843-.322-.2651-.706-.3977-1.153-.3977-.553 0-.983.1705-1.29.5114-.307.3371-.46.7708-.46 1.3016v5.562h-1.694v-5.801c0-.4736-.147-.8543-.443-1.1422-.295-.2879-.68-.4318-1.153-.4318-.322 0-.62.0852-.892.2557-.269.1666-.487.3996-.654.6988-.163.2993-.244.6455-.244 1.0395v5.381zm17.817.176c-.818 0-1.532-.187-2.142-.562s-1.083-.9-1.421-1.574c-.337-.674-.505-1.462-.505-2.364 0-.905.168-1.6968.505-2.3749.338-.678.811-1.2045 1.421-1.5795s1.324-.5625 2.142-.5625 1.532.1875 2.142.5625 1.083.9015 1.42 1.5795c.338.6781.506 1.4699.506 2.3749 0 .902-.168 1.69-.506 2.364-.337.674-.81 1.199-1.42 1.574s-1.324.562-2.142.562zm.006-1.426c.53 0 .969-.14 1.318-.42.348-.281.606-.654.773-1.12.17-.466.255-.979.255-1.54 0-.556-.085-1.068-.255-1.534-.167-.4693-.425-.8462-.773-1.1303-.349-.2841-.788-.4262-1.318-.4262-.534 0-.978.1421-1.33.4262-.348.2841-.608.661-.778 1.1303-.167.466-.25.978-.25 1.534 0 .561.083 1.074.25 1.54.17.466.43.839.778 1.12.352.28.796.42 1.33.42zm5.958 1.25v-8.7273h1.642v1.3864h.091c.159-.4697.44-.839.841-1.108.406-.2727.864-.4091 1.375-.4091.106 0 .231.0038.375.0114.148.0076.264.0171.347.0284v1.625c-.068-.0189-.19-.0398-.364-.0625-.174-.0265-.348-.0398-.522-.0398-.402 0-.76.0853-1.074.2557-.311.1667-.557.3996-.739.6989-.182.2954-.273.6329-.273 1.0109v5.33zm9.59.176c-.86 0-1.6-.184-2.222-.551-.617-.371-1.094-.892-1.432-1.563-.333-.674-.5-1.464-.5-2.369 0-.894.167-1.682.5-2.3635.338-.6818.807-1.214 1.41-1.5965.606-.3826 1.314-.5739 2.125-.5739.492 0 .969.0814 1.431.2443.463.1629.877.4186 1.245.7671.367.3484.657.8011.869 1.3579.212.5526.318 1.2256.318 2.0166v.603h-6.937v-1.273h5.272c0-.447-.09-.843-.272-1.1875-.182-.3485-.438-.6231-.767-.8239-.326-.2007-.709-.3011-1.148-.3011-.477 0-.894.1174-1.25.3523-.352.231-.625.5341-.818.9091-.19.3711-.284.7741-.284 1.2101v.994c0 .584.102 1.08.306 1.489.209.409.499.722.87.938.371.212.805.318 1.301.318.322 0 .615-.046.881-.137.265-.094.494-.234.687-.42s.341-.415.443-.688l1.608.29c-.129.474-.36.888-.693 1.244-.329.353-.744.627-1.244.824-.496.194-1.063.29-1.699.29z" fill="#00e"/></svg>