<svg fill="none" height="200" viewBox="0 0 316 200" width="316" xmlns="http://www.w3.org/2000/svg" xmlns:xlink="http://www.w3.org/1999/xlink"><clipPath id="a"><path d="m44 93h228v14.6h-228z"/></clipPath><path d="m0 0h316v200h-316z" fill="#e5e5e5"/><g clip-path="url(#a)"><path d="m0 0h228v14.6h-228z" fill="#fff" transform="translate(44 93)"/><path d="m0 0h3.04v3.04h-3.04z" fill="#ff5e00" transform="matrix(-1 0 0 1 56.1602 102.58)"/><path d="m59.442 102.849v-.671h3.528v.671h-1.3667v3.751h-.7946v-3.751zm4.9551 1.807v1.944h-.7816v-4.422h.7644v1.669h.0388c.0777-.187.1979-.335.3606-.443.1641-.109.3728-.164.6261-.164.2303 0 .4311.048.6024.145.1713.096.3037.237.3973.423.095.186.1425.412.1425.68v2.112h-.7816v-1.991c0-.223-.0576-.397-.1727-.52-.1137-.126-.2735-.188-.4794-.188-.1381 0-.2619.03-.3713.09-.108.059-.1929.145-.2548.257-.0604.113-.0907.249-.0907.408zm4.4154 2.008c-.3325 0-.6197-.069-.8615-.207-.2404-.14-.4253-.337-.5549-.591-.1295-.257-.1943-.558-.1943-.905 0-.341.0648-.641.1943-.898.131-.259.3138-.461.5484-.605.2346-.145.5103-.218.8269-.218.2044 0 .3973.033.5787.099.1828.065.344.166.4836.303.1411.136.2519.311.3325.522.0806.21.1209.461.1209.752v.239h-2.7183v-.527h1.9691c-.0014-.149-.0338-.282-.0971-.399-.0634-.118-.1519-.211-.2656-.279-.1123-.067-.2433-.101-.393-.101-.1597 0-.3001.039-.421.117-.1209.076-.2152.177-.2828.302-.0662.124-.1001.26-.1015.408v.46c0 .193.0353.358.1058.496.0705.137.1691.242.2958.316.1267.072.2749.108.4448.108.1137 0 .2166-.016.3087-.048.0921-.033.172-.081.2397-.145.0676-.063.1187-.141.1533-.235l.7297.082c-.046.193-.1338.361-.2634.505-.1281.143-.2922.254-.4922.333-.2001.078-.429.116-.6866.116zm3.644-.064v-3.317h.7578v.553h.0346c.0604-.191.1641-.339.3109-.443.1482-.105.3174-.157.5074-.157.0431 0 .0914.002.1446.006.0547.003.1001.008.136.015v.719c-.0331-.011-.0856-.021-.1576-.03-.0705-.01-.1389-.015-.2051-.015-.1425 0-.2706.031-.3843.093-.1123.06-.2008.144-.2656.252-.0647.108-.0971.233-.0971.374v1.95zm3.7422.064c-.3325 0-.6196-.069-.8615-.207-.2403-.14-.4253-.337-.5548-.591-.1296-.257-.1944-.558-.1944-.905 0-.341.0648-.641.1944-.898.1309-.259.3137-.461.5484-.605.2346-.145.5102-.218.8269-.218.2044 0 .3973.033.5786.099.1828.065.344.166.4837.303.141.136.2519.311.3325.522.0806.21.1209.461.1209.752v.239h-2.7183v-.527h1.9691c-.0015-.149-.0339-.282-.0972-.399-.0633-.118-.1518-.211-.2656-.279-.1122-.067-.2432-.101-.3929-.101-.1598 0-.3001.039-.421.117-.1209.076-.2152.177-.2829.302-.0662.124-.1.26-.1015.408v.46c0 .193.0353.358.1058.496.0706.137.1692.242.2958.316.1267.072.275.108.4448.108.1137 0 .2166-.016.3088-.048.0921-.033.172-.081.2396-.145.0677-.063.1188-.141.1533-.235l.7298.082c-.0461.193-.1339.361-.2634.505-.1281.143-.2922.254-.4923.333-.2001.078-.4289.116-.6866.116zm4.757-2.504-.7125.078c-.0201-.072-.0554-.14-.1058-.203-.0489-.064-.1151-.115-.1986-.154s-.1857-.058-.3066-.058c-.1626 0-.2994.035-.4102.106-.1094.07-.1634.162-.1619.274-.0015.096.0338.175.1057.235.0735.061.1944.11.3628.149l.5657.121c.3137.068.5469.175.6995.322.154.147.2317.339.2332.576-.0015.209-.0626.393-.1835.553-.1195.158-.2858.282-.4988.372-.213.089-.4577.133-.7341.133-.4059 0-.7326-.085-.9802-.254-.2476-.172-.3951-.41-.4426-.715l.7621-.073c.0346.149.108.262.2203.339.1122.076.2583.114.4383.114.1856 0 .3346-.038.4469-.114.1137-.077.1706-.171.1706-.283 0-.095-.0367-.174-.1102-.236-.0719-.062-.1842-.109-.3368-.142l-.5657-.119c-.3181-.066-.5534-.178-.706-.335-.1525-.158-.2281-.358-.2267-.6-.0014-.204.054-.381.1663-.531.1137-.151.2713-.268.4728-.35.203-.083.4369-.125.7017-.125.3887 0 .6945.083.9176.248.2246.166.3635.39.4167.672zm2.8295 1.045v-1.922h.7816v3.317h-.7578v-.59h-.0346c-.0748.186-.1979.338-.3692.456-.1698.118-.3793.177-.6283.177-.2173 0-.4095-.048-.5764-.145-.1656-.098-.2951-.24-.3887-.425-.0935-.187-.1403-.413-.1403-.678v-2.112h.7816v1.991c0 .21.0575.377.1727.501.1151.124.2663.186.4534.186.1152 0 .2267-.029.3347-.085.1079-.056.1964-.139.2655-.25.0706-.112.1058-.253.1058-.421zm2.3669-3.027v4.422h-.7816v-4.422zm2.4598 1.105v.605h-1.9065v-.605zm-1.4358-.794h.7816v3.113c0 .105.0158.186.0475.242.0331.055.0763.092.1295.112.0533.02.1123.03.1771.03.0489 0 .0935-.003.1338-.01.0418-.008.0734-.014.095-.02l.1317.611c-.0417.015-.1015.03-.1792.048-.0763.017-.1698.027-.2807.03-.1957.006-.372-.024-.5289-.089-.1569-.066-.2814-.168-.3736-.306-.0906-.138-.1353-.311-.1338-.518zm4.6631 1.671-.7125.078c-.0202-.072-.0554-.14-.1058-.203-.049-.064-.1152-.115-.1987-.154-.0834-.039-.1856-.058-.3066-.058-.1626 0-.2993.035-.4102.106-.1094.07-.1633.162-.1619.274-.0014.096.0338.175.1058.235.0734.061.1943.11.3627.149l.5657.121c.3138.068.547.175.6995.322.1541.147.2318.339.2332.576-.0014.209-.0626.393-.1835.553-.1195.158-.2857.282-.4988.372-.213.089-.4577.133-.734.133-.406 0-.7327-.085-.9803-.254-.2475-.172-.3951-.41-.4426-.715l.7622-.073c.0345.149.1079.262.2202.339.1123.076.2584.114.4383.114.1857 0 .3347-.038.4469-.114.1137-.077.1706-.171.1706-.283 0-.095-.0367-.174-.1101-.236-.072-.062-.1843-.109-.3368-.142l-.5657-.119c-.3181-.066-.5535-.178-.706-.335-.1526-.158-.2282-.358-.2267-.6-.0015-.204.0539-.381.1662-.531.1137-.151.2713-.268.4728-.35.203-.083.4369-.125.7018-.125.3886 0 .6945.083.9176.248.2245.166.3634.39.4167.672zm3.1782 2.507c-.2102 0-.3995-.038-.5679-.113-.167-.076-.2994-.188-.3973-.337-.0964-.148-.1446-.331-.1446-.548 0-.187.0345-.342.1036-.464.0691-.123.1634-.22.2829-.294.1194-.073.254-.129.4037-.166.1511-.039.3073-.067.4685-.084.1944-.02.352-.038.4729-.054.1209-.018.2087-.043.2634-.078.0561-.036.0842-.091.0842-.166v-.013c0-.163-.0482-.289-.1447-.378-.0964-.089-.2353-.134-.4167-.134-.1914 0-.3433.042-.4555.125-.1109.084-.1857.182-.2246.296l-.7298-.103c.0576-.202.1526-.37.285-.506.1325-.136.2944-.239.4858-.306.1915-.069.4031-.104.6348-.104.1598 0 .3188.019.4772.056.1583.038.303.1.4339.186.131.085.2361.201.3153.347.0806.147.1209.331.1209.551v2.22h-.7514v-.456h-.0259c-.0475.092-.1144.179-.2008.259-.0849.079-.1921.143-.3217.192-.1281.048-.2785.072-.4512.072zm.2029-.575c.1569 0 .2929-.031.4081-.093.1151-.063.2037-.146.2655-.25.0634-.104.095-.217.095-.339v-.391c-.0244.02-.0662.039-.1252.056-.0576.018-.1223.033-.1943.046s-.1432.024-.2137.034c-.0706.01-.1318.019-.1836.026-.1166.016-.2209.042-.313.078-.0922.036-.1649.086-.2181.151-.0533.063-.0799.145-.0799.246 0 .144.0525.253.1576.326.1051.074.239.11.4016.11zm2.334.508v-3.317h.7578v.553h.0346c.0604-.191.1641-.339.3109-.443.1482-.105.3174-.157.5074-.157.0431 0 .0914.002.1446.006.0547.003.1001.008.136.015v.719c-.0331-.011-.0856-.021-.1576-.03-.0705-.01-.1389-.015-.2051-.015-.1425 0-.2706.031-.3843.093-.1123.06-.2008.144-.2656.252-.0647.108-.0971.233-.0971.374v1.95zm3.7427.064c-.333 0-.62-.069-.862-.207-.24-.14-.425-.337-.5548-.591-.1296-.257-.1944-.558-.1944-.905 0-.341.0648-.641.1944-.898.1308-.259.3138-.461.5488-.605.234-.145.51-.218.827-.218.204 0 .397.033.578.099.183.065.344.166.484.303.141.136.252.311.332.522.081.21.121.461.121.752v.239h-2.718v-.527h1.969c-.001-.149-.034-.282-.097-.399-.064-.118-.152-.211-.266-.279-.112-.067-.243-.101-.393-.101-.159 0-.3.039-.421.117-.121.076-.215.177-.283.302-.066.124-.1.26-.101.408v.46c0 .193.035.358.106.496.07.137.169.242.296.316.126.072.274.108.444.108.114 0 .217-.016.309-.048.092-.033.172-.081.24-.145.067-.063.118-.141.153-.235l.73.082c-.046.193-.134.361-.264.505-.128.143-.292.254-.492.333-.2.078-.429.116-.686.116zm3.644-.064v-3.317h.781v3.317zm.392-3.787c-.123 0-.23-.041-.319-.124s-.134-.183-.134-.3c0-.118.045-.218.134-.3.089-.083.196-.125.319-.125.126 0 .232.042.32.125.089.082.134.182.134.3 0 .117-.045.217-.134.3-.088.083-.194.124-.32.124zm1.974 1.843v1.944h-.781v-3.317h.747v.564h.039c.076-.186.198-.333.365-.443.168-.109.376-.164.624-.164.228 0 .428.049.598.147.171.098.303.24.397.425.095.186.142.411.14.676v2.112h-.781v-1.991c0-.222-.058-.395-.173-.52-.114-.126-.271-.188-.473-.188-.137 0-.258.03-.365.09-.105.059-.188.145-.248.257-.059.113-.089.249-.089.408zm3.88-2.478-.071 3.122h-.695l-.069-3.122zm-.419 4.469c-.131 0-.243-.046-.336-.138-.092-.092-.139-.204-.139-.337 0-.129.047-.24.139-.332.093-.093.205-.139.336-.139.129 0 .239.046.333.139.095.092.142.203.142.332 0 .088-.022.168-.066.24s-.101.129-.173.172c-.071.042-.149.063-.236.063z" fill="#201c1d"/></g></svg>