<svg fill="none" height="200" viewBox="0 0 316 200" width="316" xmlns="http://www.w3.org/2000/svg"><path d="m0 0h316v200h-316z" fill="#e5e5e5"/><path d="m44 67h228v66.6h-228z" fill="#fff"/><path d="m53.8369 80.5996h-.5613l1.6236-4.4218h.5527l1.6237 4.4218h-.5614l-1.3214-3.7223h-.0345zm.2073-1.7273h2.2627v.475h-2.2627zm7.7101-.8463-.4577.1295c-.0288-.0763-.0713-.1504-.1274-.2224-.0547-.0734-.1295-.1338-.2245-.1813s-.2167-.0713-.3649-.0713c-.203 0-.3721.0468-.5074.1404-.1339.0921-.2008.2094-.2008.3519 0 .1267.0461.2267.1382.3001s.236.1346.4318.1835l.4923.1209c.2965.072.5174.1821.6628.3304.1454.1468.2181.3361.2181.5678 0 .19-.0547.3599-.1641.5096-.108.1497-.2591.2677-.4534.3541-.1943.0863-.4203.1295-.678.1295-.3382 0-.6182-.0734-.8399-.2202-.2216-.1468-.362-.3613-.421-.6434l.4836-.1209c.0461.1784.1332.3123.2613.4015.1295.0893.2987.1339.5074.1339.2375 0 .426-.0504.5657-.1511.141-.1022.2116-.2246.2116-.3671 0-.1151-.0403-.2116-.121-.2893-.0806-.0792-.2043-.1382-.3713-.177l-.5527-.1296c-.3038-.072-.5269-.1835-.6694-.3346-.141-.1526-.2116-.3433-.2116-.5722 0-.1871.0526-.3527.1577-.4966.1065-.1439.2511-.2569.4339-.339.1843-.082.393-.123.6262-.123.3282 0 .5858.0719.7729.2159.1886.1439.3225.3339.4016.57zm2.2698-.7428v.4319h-1.7187v-.4319zm-1.2178-.7945h.5096v3.1609c0 .1439.0209.2519.0626.3239.0432.0705.0979.118.1641.1425.0676.023.1389.0345.2137.0345.0562 0 .1022-.0029.1382-.0086.036-.0072.0648-.013.0864-.0173l.1036.4577c-.0345.013-.0827.0259-.1446.0389-.0619.0144-.1404.0216-.2354.0216-.1439 0-.285-.031-.4232-.0928-.1367-.0619-.2504-.1562-.3411-.2829-.0892-.1267-.1339-.2864-.1339-.4793zm2.9602 4.1886c-.2102 0-.4009-.0395-.5722-.1187-.1713-.0806-.3073-.1965-.4081-.3476-.1007-.1526-.1511-.3368-.1511-.5528 0-.19.0374-.344.1123-.462.0748-.1195.1748-.213.3001-.2807.1252-.0676.2634-.118.4145-.1511.1526-.0346.3059-.0619.4599-.0821.2015-.0259.3649-.0453.4901-.0583.1267-.0144.2188-.0381.2764-.0712.059-.0331.0885-.0907.0885-.1727v-.0173c0-.213-.0583-.3786-.1749-.4966-.1151-.118-.29-.177-.5246-.177-.2433 0-.434.0532-.5722.1597s-.2353.2203-.2915.3412l-.4836-.1728c.0864-.2015.2015-.3584.3454-.4706.1454-.1138.3038-.1929.475-.2375.1728-.0461.3426-.0691.5096-.0691.1065 0 .2289.0129.367.0388.1397.0245.2742.0756.4038.1533.131.0778.2396.1951.326.352.0864.1568.1296.367.1296.6304v2.185h-.5096v-.4491h-.0259c-.0345.072-.0921.149-.1727.231-.0806.0821-.1879.1519-.3217.2095-.1339.0575-.2973.0863-.4901.0863zm.0777-.4577c.2015 0 .3713-.0396.5095-.1187.1396-.0792.2447-.1814.3153-.3066.0719-.1253.1079-.257.1079-.3951v-.4664c-.0216.0259-.0691.0497-.1425.0712-.072.0202-.1554.0382-.2504.054-.0936.0144-.185.0274-.2743.0389-.0878.0101-.159.0187-.2137.0259-.1324.0173-.2562.0453-.3714.0842-.1137.0374-.2058.0943-.2763.1706-.0691.0748-.1037.177-.1037.3066 0 .177.0655.3109.1965.4015.1324.0893.3001.1339.5031.1339zm2.3723.38v-3.3164h.4923v.501h.0345c.0605-.1641.1698-.2973.3282-.3995.1583-.1022.3368-.1533.5354-.1533.0375 0 .0842.0007.1404.0022.0561.0014.0986.0036.1274.0065v.5181c-.0173-.0043-.0569-.0107-.1188-.0194-.0604-.0101-.1245-.0151-.1921-.0151-.1613 0-.3052.0338-.4319.1015-.1252.0662-.2245.1583-.2979.2763-.072.1166-.108.2498-.108.3995v2.0986zm3.9123-3.3164v.4319h-1.7187v-.4319zm-1.2178-.7945h.5096v3.1609c0 .1439.0208.2519.0626.3239.0432.0705.0979.118.1641.1425.0676.023.1389.0345.2137.0345.0562 0 .1022-.0029.1382-.0086.036-.0072.0648-.013.0864-.0173l.1036.4577c-.0345.013-.0828.0259-.1447.0389-.0618.0144-.1403.0216-.2353.0216-.1439 0-.285-.031-.4232-.0928-.1367-.0619-.2504-.1562-.3411-.2829-.0893-.1267-.1339-.2864-.1339-.4793zm1.9842 4.1109v-3.3164h.5096v3.3164zm.2591-3.8691c-.0993 0-.1849-.0338-.2569-.1015-.0705-.0676-.1058-.1489-.1058-.2439s.0353-.1764.1058-.244c.072-.0677.1576-.1015.2569-.1015s.1843.0338.2548.1015c.072.0676.1079.149.1079.244s-.0359.1763-.1079.2439c-.0705.0677-.1555.1015-.2548.1015zm1.6933 1.8741v1.995h-.5096v-3.3164h.4923v.5182h.0432c.0777-.1684.1958-.3037.3541-.4059.1583-.1036.3627-.1554.6132-.1554.2245 0 .421.046.5894.1381.1684.0907.2994.2289.393.4146.0935.1842.1403.4174.1403.6995v2.1073h-.5095v-2.0727c0-.2605-.0677-.4635-.203-.6089-.1353-.1468-.321-.2202-.557-.2202-.1627 0-.3081.0353-.4362.1058-.1267.0705-.2267.1734-.3001.3087s-.1101.2994-.1101.4923zm4.3856 3.3077c-.2461 0-.4577-.0316-.6347-.095-.1771-.0619-.3246-.1439-.4426-.2461-.1166-.1008-.2095-.2087-.2786-.3239l.4059-.285c.0461.0605.1044.1296.1749.2073.0706.0792.167.1475.2893.2051.1238.059.2858.0885.4858.0885.2678 0 .4887-.0647.6629-.1943.1741-.1295.2612-.3325.2612-.6088v-.6737h-.0431c-.0375.0605-.0907.1353-.1598.2246-.0677.0878-.1656.1662-.2937.2353-.1266.0677-.2979.1015-.5138.1015-.2677 0-.5081-.0633-.7212-.19-.2115-.1267-.3792-.3109-.503-.5527-.1224-.2419-.1835-.5355-.1835-.8809 0-.3397.0597-.6355.1792-.8874.1194-.2534.2857-.4491.4987-.5873.213-.1396.4592-.2094.7384-.2094.2159 0 .3872.0359.5139.1079.1281.0705.226.1512.2936.2418.0691.0893.1224.1627.1598.2203h.0518v-.5269h.4923v3.4114c0 .285-.0648.5168-.1943.6952-.1281.18-.3009.3117-.5182.3952-.2159.0849-.4563.1273-.7212.1273zm-.0172-1.8222c.2044 0 .3771-.0468.5182-.1404.141-.0935.2482-.2281.3217-.4037.0734-.1756.1101-.3858.1101-.6305 0-.2389-.036-.4498-.108-.6326s-.1785-.326-.3195-.4297c-.1411-.1036-.3153-.1554-.5225-.1554-.2159 0-.3959.0547-.5398.1641-.1425.1094-.2497.2562-.3217.4404-.0705.1843-.1058.3887-.1058.6132 0 .2303.036.434.108.611.0734.1756.1813.3138.3238.4146.144.0993.3224.149.5355.149zm4.0936 1.7531v-4.56h.4923v.5269h.0604c.0375-.0576.0893-.131.1555-.2203.0676-.0906.1641-.1713.2893-.2418.1267-.072.298-.1079.5139-.1079.2792 0 .5253.0698.7384.2094.213.1396.3793.3375.4987.5937.1195.2563.1792.5585.1792.9069 0 .3512-.0597.6556-.1792.9133-.1194.2562-.285.4548-.4966.5959-.2116.1396-.4555.2094-.7319.2094-.213 0-.3836-.0353-.5117-.1058-.1281-.072-.2267-.1533-.2958-.244-.0691-.0921-.1223-.1684-.1598-.2288h-.0431v1.7531zm.5009-2.9018c0 .2505.0367.4714.1101.6629.0734.19.1807.3389.3217.4469.1411.1065.3138.1598.5182.1598.213 0 .3908-.0562.5333-.1684.144-.1137.2519-.2663.3239-.4578.0734-.1928.1101-.4073.1101-.6434 0-.2332-.036-.4433-.108-.6304-.0705-.1886-.1777-.3376-.3217-.447-.1425-.1108-.3217-.1662-.5376-.1662-.2073 0-.3814.0525-.5225.1576-.141.1036-.2476.249-.3195.4361-.072.1857-.108.4024-.108.6499zm4.5514 1.7273c-.2994 0-.5621-.0712-.7881-.2137-.2245-.1425-.4001-.3419-.5268-.5981-.1252-.2562-.1879-.5556-.1879-.8982 0-.3455.0627-.647.1879-.9047.1267-.2576.3023-.4577.5268-.6002.226-.1425.4887-.2137.7881-.2137s.5613.0712.7859.2137c.226.1425.4016.3426.5268.6002.1267.2577.19.5592.19.9047 0 .3426-.0633.642-.19.8982-.1252.2562-.3008.4556-.5268.5981-.2246.1425-.4865.2137-.7859.2137zm0-.4577c.2274 0 .4145-.0583.5613-.1749.1469-.1166.2555-.2699.3261-.4599.0705-.19.1058-.3958.1058-.6175s-.0353-.4282-.1058-.6197c-.0706-.1914-.1792-.3461-.3261-.4642-.1468-.118-.3339-.177-.5613-.177s-.4146.059-.5614.177c-.1468.1181-.2555.2728-.326.4642-.0705.1915-.1058.398-.1058.6197s.0353.4275.1058.6175.1792.3433.326.4599.334.1749.5614.1749zm2.2805.3886v-3.3164h.5096v3.3164zm.2591-3.8691c-.0993 0-.185-.0338-.2569-.1015-.0706-.0676-.1058-.1489-.1058-.2439s.0352-.1764.1058-.244c.0719-.0677.1576-.1015.2569-.1015s.1843.0338.2548.1015c.072.0676.1079.149.1079.244s-.0359.1763-.1079.2439c-.0705.0677-.1555.1015-.2548.1015zm1.6933 1.8741v1.995h-.5096v-3.3164h.4923v.5182h.0432c.0777-.1684.1957-.3037.3541-.4059.1583-.1036.3627-.1554.6132-.1554.2245 0 .421.046.5894.1381.1684.0907.2994.2289.3929.4146.0936.1842.1404.4174.1404.6995v2.1073h-.5096v-2.0727c0-.2605-.0676-.4635-.2029-.6089-.1353-.1468-.321-.2202-.5571-.2202-.1626 0-.308.0353-.4361.1058-.1267.0705-.2267.1734-.3001.3087s-.1101.2994-.1101.4923zm4.4893-1.3214v.4319h-1.7187v-.4319zm-1.2178-.7945h.5096v3.1609c0 .1439.0209.2519.0626.3239.0432.0705.0979.118.1641.1425.0676.023.1389.0345.2137.0345.0562 0 .1022-.0029.1382-.0086.036-.0072.0648-.013.0864-.0173l.1036.4577c-.0345.013-.0827.0259-.1446.0389-.0619.0144-.1404.0216-.2354.0216-.1439 0-.285-.031-.4232-.0928-.1367-.0619-.2504-.1562-.3411-.2829-.0892-.1267-.1339-.2864-.1339-.4793zm5.1707.7945v.4319h-1.7874v-.4319zm-1.2519 3.3164v-3.7741c0-.19.0446-.3483.1338-.475.0891-.1266.2051-.2216.3481-.285.142-.0633.292-.095.451-.095.125 0 .227.0101.306.0302.08.0202.139.0389.177.0562l-.146.4404c-.026-.0086-.062-.0194-.108-.0323-.045-.013-.104-.0195-.177-.0195-.169 0-.29.0425-.365.1274-.074.0849-.11.2094-.11.3735v3.6532zm3.1769.0691c-.299 0-.562-.0712-.788-.2137-.224-.1425-.4-.3419-.527-.5981-.125-.2562-.188-.5556-.188-.8982 0-.3455.063-.647.188-.9047.127-.2576.303-.4577.527-.6002.226-.1425.489-.2137.788-.2137.3 0 .562.0712.786.2137.226.1425.402.3426.527.6002.127.2577.19.5592.19.9047 0 .3426-.063.642-.19.8982-.125.2562-.301.4556-.527.5981-.224.1425-.486.2137-.786.2137zm0-.4577c.228 0 .415-.0583.562-.1749.146-.1166.255-.2699.326-.4599.07-.19.105-.3958.105-.6175s-.035-.4282-.105-.6197c-.071-.1914-.18-.3461-.326-.4642-.147-.118-.334-.177-.562-.177-.227 0-.414.059-.561.177-.147.1181-.256.2728-.326.4642-.071.1915-.106.398-.106.6197s.035.4275.106.6175c.07.19.179.3433.326.4599s.334.1749.561.1749zm2.281.3886v-3.3164h.492v.501h.035c.06-.1641.169-.2973.328-.3995.158-.1022.337-.1533.535-.1533.038 0 .084.0007.141.0022.056.0014.098.0036.127.0065v.5181c-.017-.0043-.057-.0107-.119-.0194-.06-.0101-.124-.0151-.192-.0151-.161 0-.305.0338-.432.1015-.125.0662-.224.1583-.298.2763-.072.1166-.108.2498-.108.3995v2.0986zm3.972 0v-3.3164h.492v.5182h.043c.069-.177.181-.3145.335-.4124.154-.0993.339-.1489.555-.1489.219 0 .401.0496.546.1489.147.0979.261.2354.343.4124h.035c.085-.1713.212-.3073.382-.408.17-.1022.374-.1533.611-.1533.297 0 .539.0928.728.2785.188.1842.283.4714.283.8615v2.2195h-.51v-2.2195c0-.2447-.067-.4196-.201-.5247s-.291-.1576-.473-.1576c-.233 0-.413.0705-.541.2116-.129.1396-.193.3166-.193.5311v2.1591h-.518v-2.2714c0-.1885-.061-.3404-.183-.4555-.123-.1166-.28-.1749-.473-.1749-.133 0-.256.0353-.372.1058-.113.0705-.205.1684-.276.2936-.069.1238-.104.267-.104.4297v2.0727zm6.632.0691c-.3 0-.563-.0712-.789-.2137-.224-.1425-.4-.3419-.526-.5981s-.188-.5556-.188-.8982c0-.3455.062-.647.188-.9047.126-.2576.302-.4577.526-.6002.226-.1425.489-.2137.789-.2137.299 0 .561.0712.785.2137.226.1425.402.3426.527.6002.127.2577.19.5592.19.9047 0 .3426-.063.642-.19.8982-.125.2562-.301.4556-.527.5981-.224.1425-.486.2137-.785.2137zm0-.4577c.227 0 .414-.0583.561-.1749s.255-.2699.326-.4599c.07-.19.106-.3958.106-.6175s-.036-.4282-.106-.6197c-.071-.1914-.179-.3461-.326-.4642-.147-.118-.334-.177-.561-.177-.228 0-.415.059-.562.177-.147.1181-.255.2728-.326.4642-.07.1915-.106.398-.106.6197s.036.4275.106.6175c.071.19.179.3433.326.4599s.334.1749.562.1749zm2.28.3886v-3.3164h.492v.501h.035c.06-.1641.17-.2973.328-.3995s.337-.1533.536-.1533c.037 0 .084.0007.14.0022.056.0014.099.0036.127.0065v.5181c-.017-.0043-.057-.0107-.118-.0194-.061-.0101-.125-.0151-.193-.0151-.161 0-.305.0338-.431.1015-.126.0662-.225.1583-.298.2763-.072.1166-.108.2498-.108.3995v2.0986zm3.552.0691c-.32 0-.595-.0705-.827-.2116-.23-.1425-.408-.3411-.533-.5959-.124-.2562-.186-.5542-.186-.8939s.062-.6391.186-.8981c.125-.2606.299-.4635.522-.6089.225-.1468.487-.2202.786-.2202.173 0 .343.0288.512.0863.168.0576.321.1512.46.2807.138.1281.248.298.33.5096.082.2115.123.4721.123.7815v.216h-2.556v-.4405h2.038c0-.1871-.038-.3541-.112-.5009s-.179-.2627-.316-.3476c-.135-.0849-.295-.1274-.479-.1274-.203 0-.379.0504-.527.1511-.147.0993-.26.2289-.339.3887-.079.1597-.119.331-.119.5138v.2937c0 .2504.044.4627.13.6369.088.1727.209.3044.365.3951.155.0893.336.1339.542.1339.134 0 .255-.0187.363-.0562.109-.0388.203-.0964.282-.1727.08-.0777.141-.1742.184-.2893l.492.1382c-.052.1669-.139.3138-.261.4404-.122.1253-.274.2231-.453.2937-.18.0691-.383.1036-.607.1036zm6.207-2.6427-.458.1295c-.028-.0763-.071-.1504-.127-.2224-.055-.0734-.129-.1338-.224-.1813s-.217-.0713-.365-.0713c-.203 0-.372.0468-.508.1404-.134.0921-.201.2094-.201.3519 0 .1267.047.2267.139.3001s.236.1346.431.1835l.493.1209c.296.072.517.1821.663.3304.145.1468.218.3361.218.5678 0 .19-.055.3599-.164.5096-.108.1497-.26.2677-.454.3541-.194.0863-.42.1295-.678.1295-.338 0-.618-.0734-.84-.2202-.221-.1468-.362-.3613-.421-.6434l.484-.1209c.046.1784.133.3123.261.4015.13.0893.299.1339.508.1339.237 0 .426-.0504.565-.1511.141-.1022.212-.2246.212-.3671 0-.1151-.04-.2116-.121-.2893-.081-.0792-.204-.1382-.371-.177l-.553-.1296c-.304-.072-.527-.1835-.669-.3346-.142-.1526-.212-.3433-.212-.5722 0-.1871.052-.3527.158-.4966s.251-.2569.434-.339c.184-.082.392-.123.626-.123.328 0 .585.0719.773.2159.188.1439.322.3339.401.57zm.828 2.5736v-3.3164h.509v3.3164zm.259-3.8691c-.1 0-.185-.0338-.257-.1015-.071-.0676-.106-.1489-.106-.2439s.035-.1764.106-.244c.072-.0677.157-.1015.257-.1015.099 0 .184.0338.255.1015.072.0676.107.149.107.244s-.035.1763-.107.2439c-.071.0677-.156.1015-.255.1015zm1.183 3.8691v-3.3164h.493v.5182h.043c.069-.177.181-.3145.335-.4124.154-.0993.339-.1489.554-.1489.219 0 .401.0496.547.1489.147.0979.261.2354.343.4124h.035c.084-.1713.212-.3073.382-.408.17-.1022.373-.1533.611-.1533.296 0 .539.0928.727.2785.189.1842.283.4714.283.8615v2.2195h-.509v-2.2195c0-.2447-.067-.4196-.201-.5247s-.292-.1576-.473-.1576c-.233 0-.414.0705-.542.2116-.128.1396-.192.3166-.192.5311v2.1591h-.518v-2.2714c0-.1885-.061-.3404-.184-.4555-.122-.1166-.28-.1749-.473-.1749-.132 0-.256.0353-.371.1058-.114.0705-.206.1684-.276.2936-.069.1238-.104.267-.104.4297v2.0727zm5.285 1.2436v-4.56h.492v.5269h.061c.037-.0576.089-.131.155-.2203.068-.0906.164-.1713.289-.2418.127-.072.298-.1079.514-.1079.279 0 .526.0698.739.2094s.379.3375.498.5937c.12.2563.18.5585.18.9069 0 .3512-.06.6556-.18.9133-.119.2562-.285.4548-.496.5959-.212.1396-.456.2094-.732.2094-.213 0-.384-.0353-.512-.1058-.128-.072-.227-.1533-.296-.244-.069-.0921-.122-.1684-.159-.2288h-.044v1.7531zm.501-2.9018c0 .2505.036.4714.11.6629.073.19.181.3389.322.4469.141.1065.313.1598.518.1598.213 0 .391-.0562.533-.1684.144-.1137.252-.2663.324-.4578.073-.1928.11-.4073.11-.6434 0-.2332-.036-.4433-.108-.6304-.07-.1886-.178-.3376-.322-.447-.142-.1108-.321-.1662-.537-.1662-.208 0-.382.0525-.523.1576-.141.1036-.247.249-.319.4361-.072.1857-.108.4024-.108.6499zm3.713-2.7636v4.4218h-.509v-4.4218zm2.324 4.4909c-.319 0-.595-.0705-.827-.2116-.23-.1425-.408-.3411-.533-.5959-.124-.2562-.186-.5542-.186-.8939s.062-.6391.186-.8981c.125-.2606.299-.4635.522-.6089.225-.1468.487-.2202.786-.2202.173 0 .344.0288.512.0863.168.0576.322.1512.46.2807.138.1281.248.298.33.5096.082.2115.123.4721.123.7815v.216h-2.556v-.4405h2.038c0-.1871-.037-.3541-.112-.5009-.074-.1468-.179-.2627-.315-.3476s-.295-.1274-.48-.1274c-.203 0-.378.0504-.527.1511-.146.0993-.259.2289-.338.3887-.08.1597-.119.331-.119.5138v.2937c0 .2504.043.4627.129.6369.088.1727.21.3044.365.3951.156.0893.336.1339.542.1339.134 0 .255-.0187.363-.0562.109-.0388.204-.0964.283-.1727.079-.0777.14-.1742.183-.2893l.492.1382c-.051.1669-.138.3138-.261.4404-.122.1253-.273.2231-.453.2937-.18.0691-.382.1036-.607.1036zm5.301-3.3855v.4319h-1.719v-.4319zm-1.218-.7945h.51v3.1609c0 .1439.02.2519.062.3239.043.0705.098.118.164.1425.068.023.139.0345.214.0345.056 0 .102-.0029.138-.0086.036-.0072.065-.013.087-.0173l.103.4577c-.034.013-.083.0259-.145.0389-.061.0144-.14.0216-.235.0216-.144 0-.285-.031-.423-.0928-.137-.0619-.25-.1562-.341-.2829-.089-.1267-.134-.2864-.134-.4793zm1.984 4.1109v-3.3164h.492v.501h.035c.06-.1641.17-.2973.328-.3995.159-.1022.337-.1533.536-.1533.037 0 .084.0007.14.0022.056.0014.099.0036.127.0065v.5181c-.017-.0043-.057-.0107-.118-.0194-.061-.0101-.125-.0151-.193-.0151-.161 0-.305.0338-.431.1015-.126.0662-.225.1583-.298.2763-.072.1166-.108.2498-.108.3995v2.0986zm3.238.0777c-.21 0-.401-.0395-.572-.1187-.171-.0806-.307-.1965-.408-.3476-.101-.1526-.151-.3368-.151-.5528 0-.19.037-.344.112-.462.075-.1195.175-.213.3-.2807.126-.0676.264-.118.415-.1511.152-.0346.306-.0619.46-.0821.201-.0259.365-.0453.49-.0583.126-.0144.219-.0381.276-.0712.059-.0331.089-.0907.089-.1727v-.0173c0-.213-.059-.3786-.175-.4966-.115-.118-.29-.177-.525-.177-.243 0-.434.0532-.572.1597s-.235.2203-.291.3412l-.484-.1728c.086-.2015.201-.3584.345-.4706.146-.1138.304-.1929.475-.2375.173-.0461.343-.0691.51-.0691.106 0 .229.0129.367.0388.14.0245.274.0756.404.1533.131.0778.239.1951.326.352.086.1568.129.367.129.6304v2.185h-.509v-.4491h-.026c-.035.072-.092.149-.173.231-.081.0821-.188.1519-.322.2095-.133.0575-.297.0863-.49.0863zm.078-.4577c.202 0 .371-.0396.51-.1187.139-.0792.244-.1814.315-.3066.072-.1253.108-.257.108-.3951v-.4664c-.022.0259-.069.0497-.143.0712-.072.0202-.155.0382-.25.054-.094.0144-.185.0274-.274.0389-.088.0101-.159.0187-.214.0259-.133.0173-.256.0453-.372.0842-.113.0374-.205.0943-.276.1706-.069.0748-.104.177-.104.3066 0 .177.066.3109.197.4015.132.0893.3.1339.503.1339zm2.882-1.615v1.995h-.51v-3.3164h.493v.5182h.043c.077-.1684.196-.3037.354-.4059.158-.1036.363-.1554.613-.1554.225 0 .421.046.589.1381.169.0907.3.2289.393.4146.094.1842.141.4174.141.6995v2.1073h-.51v-2.0727c0-.2605-.067-.4635-.203-.6089-.135-.1468-.321-.2202-.557-.2202-.162 0-.308.0353-.436.1058-.127.0705-.227.1734-.3.3087s-.11.2994-.11.4923zm5.396-.5786-.458.1295c-.029-.0763-.071-.1504-.127-.2224-.055-.0734-.13-.1338-.225-.1813s-.216-.0713-.365-.0713c-.203 0-.372.0468-.507.1404-.134.0921-.201.2094-.201.3519 0 .1267.046.2267.138.3001.093.0734.236.1346.432.1835l.492.1209c.297.072.518.1821.663.3304.146.1468.218.3361.218.5678 0 .19-.054.3599-.164.5096-.108.1497-.259.2677-.453.3541-.194.0863-.42.1295-.678.1295-.338 0-.618-.0734-.84-.2202s-.362-.3613-.421-.6434l.484-.1209c.046.1784.133.3123.261.4015.129.0893.299.1339.507.1339.238 0 .426-.0504.566-.1511.141-.1022.212-.2246.212-.3671 0-.1151-.041-.2116-.121-.2893-.081-.0792-.205-.1382-.372-.177l-.552-.1296c-.304-.072-.527-.1835-.67-.3346-.141-.1526-.211-.3433-.211-.5722 0-.1871.052-.3527.157-.4966.107-.1439.251-.2569.434-.339.185-.082.393-.123.626-.123.329 0 .586.0719.773.2159.189.1439.323.3339.402.57zm1.803 2.6513c-.21 0-.401-.0395-.572-.1187-.171-.0806-.307-.1965-.408-.3476-.101-.1526-.151-.3368-.151-.5528 0-.19.037-.344.112-.462.075-.1195.175-.213.3-.2807.126-.0676.264-.118.415-.1511.152-.0346.306-.0619.46-.0821.201-.0259.365-.0453.49-.0583.127-.0144.219-.0381.276-.0712.059-.0331.089-.0907.089-.1727v-.0173c0-.213-.059-.3786-.175-.4966-.115-.118-.29-.177-.525-.177-.243 0-.434.0532-.572.1597s-.235.2203-.291.3412l-.484-.1728c.086-.2015.201-.3584.345-.4706.146-.1138.304-.1929.475-.2375.173-.0461.343-.0691.51-.0691.106 0 .229.0129.367.0388.14.0245.274.0756.404.1533.131.0778.239.1951.326.352.086.1568.129.367.129.6304v2.185h-.509v-.4491h-.026c-.035.072-.092.149-.173.231-.08.0821-.188.1519-.322.2095-.133.0575-.297.0863-.49.0863zm.078-.4577c.202 0 .371-.0396.51-.1187.139-.0792.244-.1814.315-.3066.072-.1253.108-.257.108-.3951v-.4664c-.022.0259-.069.0497-.143.0712-.072.0202-.155.0382-.25.054-.094.0144-.185.0274-.274.0389-.088.0101-.159.0187-.214.0259-.133.0173-.256.0453-.371.0842-.114.0374-.206.0943-.277.1706-.069.0748-.103.177-.103.3066 0 .177.065.3109.196.4015.132.0893.3.1339.503.1339zm3.72.4491c-.311 0-.579-.0734-.804-.2202-.224-.1468-.397-.3491-.518-.6067-.121-.2577-.181-.552-.181-.8831 0-.3368.062-.6341.186-.8917.125-.2591.299-.4613.522-.6067.225-.1468.487-.2202.786-.2202.233 0 .443.0431.63.1295.188.0864.341.2073.46.3627.12.1555.194.3369.223.5441h-.51c-.039-.1511-.125-.285-.259-.4016-.132-.118-.311-.177-.535-.177-.199 0-.373.0518-.523.1554-.148.1022-.264.2469-.347.434-.083.1857-.124.4038-.124.6542 0 .2562.041.4793.121.6693.082.19.198.3376.346.4427.15.105.325.1576.527.1576.132 0 .252-.0231.36-.0691.108-.0461.2-.1123.274-.1987.075-.0863.129-.19.16-.3109h.51c-.029.1958-.1.3721-.214.529-.112.1555-.261.2793-.447.3714-.184.0907-.399.136-.643.136zm3.491-3.3855v.4319h-1.719v-.4319zm-1.218-.7945h.51v3.1609c0 .1439.021.2519.062.3239.043.0705.098.118.164.1425.068.023.139.0345.214.0345.056 0 .102-.0029.138-.0086.036-.0072.065-.013.087-.0173l.103.4577c-.034.013-.082.0259-.144.0389-.062.0144-.141.0216-.236.0216-.144 0-.285-.031-.423-.0928-.137-.0619-.25-.1562-.341-.2829-.089-.1267-.134-.2864-.134-.4793zm1.984 4.1109v-3.3164h.51v3.3164zm.259-3.8691c-.099 0-.185-.0338-.256-.1015-.071-.0676-.106-.1489-.106-.2439s.035-.1764.106-.244c.071-.0677.157-.1015.256-.1015.1 0 .185.0338.255.1015.072.0676.108.149.108.244s-.036.1763-.108.2439c-.07.0677-.155.1015-.255.1015zm2.531 3.9382c-.299 0-.562-.0712-.788-.2137-.224-.1425-.4-.3419-.526-.5981s-.188-.5556-.188-.8982c0-.3455.062-.647.188-.9047.126-.2576.302-.4577.526-.6002.226-.1425.489-.2137.788-.2137.3 0 .562.0712.786.2137.226.1425.402.3426.527.6002.127.2577.19.5592.19.9047 0 .3426-.063.642-.19.8982-.125.2562-.301.4556-.527.5981-.224.1425-.486.2137-.786.2137zm0-.4577c.228 0 .415-.0583.562-.1749s.255-.2699.326-.4599c.07-.19.106-.3958.106-.6175s-.036-.4282-.106-.6197c-.071-.1914-.179-.3461-.326-.4642-.147-.118-.334-.177-.562-.177-.227 0-.414.059-.561.177-.147.1181-.255.2728-.326.4642-.07.1915-.106.398-.106.6197s.036.4275.106.6175c.071.19.179.3433.326.4599s.334.1749.561.1749zm2.791-1.6064v1.995h-.51v-3.3164h.492v.5182h.043c.078-.1684.196-.3037.355-.4059.158-.1036.362-.1554.613-.1554.224 0 .421.046.589.1381.169.0907.3.2289.393.4146.094.1842.14.4174.14.6995v2.1073h-.509v-2.0727c0-.2605-.068-.4635-.203-.6089-.135-.1468-.321-.2202-.557-.2202-.163 0-.308.0353-.436.1058-.127.0705-.227.1734-.3.3087-.074.1353-.11.2994-.11.4923zm4.022 2.0727c-.21 0-.4-.0395-.572-.1187-.171-.0806-.307-.1965-.408-.3476-.101-.1526-.151-.3368-.151-.5528 0-.19.038-.344.112-.462.075-.1195.175-.213.3-.2807.126-.0676.264-.118.415-.1511.153-.0346.306-.0619.46-.0821.201-.0259.365-.0453.49-.0583.127-.0144.219-.0381.276-.0712.059-.0331.089-.0907.089-.1727v-.0173c0-.213-.058-.3786-.175-.4966-.115-.118-.29-.177-.525-.177-.243 0-.434.0532-.572.1597s-.235.2203-.291.3412l-.484-.1728c.086-.2015.202-.3584.346-.4706.145-.1138.303-.1929.475-.2375.172-.0461.342-.0691.509-.0691.107 0 .229.0129.367.0388.14.0245.274.0756.404.1533.131.0778.24.1951.326.352.086.1568.129.367.129.6304v2.185h-.509v-.4491h-.026c-.035.072-.092.149-.173.231-.08.0821-.188.1519-.321.2095-.134.0575-.298.0863-.491.0863zm.078-.4577c.202 0 .372-.0396.51-.1187.139-.0792.244-.1814.315-.3066.072-.1253.108-.257.108-.3951v-.4664c-.022.0259-.069.0497-.143.0712-.072.0202-.155.0382-.25.054-.094.0144-.185.0274-.274.0389-.088.0101-.159.0187-.214.0259-.132.0173-.256.0453-.371.0842-.114.0374-.206.0943-.277.1706-.069.0748-.103.177-.103.3066 0 .177.065.3109.196.4015.133.0893.3.1339.503.1339zm2.882-4.0418v4.4218h-.51v-4.4218zm4.034 4.4909c-.32 0-.595-.0705-.827-.2116-.23-.1425-.408-.3411-.533-.5959-.124-.2562-.186-.5542-.186-.8939s.062-.6391.186-.8981c.125-.2606.299-.4635.522-.6089.225-.1468.487-.2202.786-.2202.173 0 .343.0288.512.0863.168.0576.321.1512.46.2807.138.1281.248.298.33.5096.082.2115.123.4721.123.7815v.216h-2.556v-.4405h2.038c0-.1871-.038-.3541-.113-.5009-.073-.1468-.178-.2627-.315-.3476-.135-.0849-.295-.1274-.479-.1274-.203 0-.379.0504-.527.1511-.147.0993-.26.2289-.339.3887-.079.1597-.119.331-.119.5138v.2937c0 .2504.044.4627.13.6369.088.1727.209.3044.365.3951.155.0893.336.1339.542.1339.134 0 .255-.0187.362-.0562.11-.0388.204-.0964.283-.1727.079-.0777.141-.1742.184-.2893l.492.1382c-.052.1669-.139.3138-.261.4404-.122.1253-.274.2231-.454.2937-.179.0691-.382.1036-.606.1036zm2.148-.0691v-3.3164h.492v.5182h.043c.07-.177.181-.3145.335-.4124.154-.0993.339-.1489.555-.1489.219 0 .401.0496.546.1489.147.0979.262.2354.344.4124h.034c.085-.1713.212-.3073.382-.408.17-.1022.374-.1533.611-.1533.297 0 .539.0928.728.2785.188.1842.283.4714.283.8615v2.2195h-.51v-2.2195c0-.2447-.067-.4196-.201-.5247-.133-.1051-.291-.1576-.472-.1576-.234 0-.414.0705-.542.2116-.128.1396-.193.3166-.193.5311v2.1591h-.518v-2.2714c0-.1885-.061-.3404-.183-.4555-.123-.1166-.28-.1749-.473-.1749-.132 0-.256.0353-.371.1058-.114.0705-.206.1684-.277.2936-.069.1238-.103.267-.103.4297v2.0727zm6.26.0777c-.21 0-.401-.0395-.572-.1187-.171-.0806-.307-.1965-.408-.3476-.101-.1526-.151-.3368-.151-.5528 0-.19.037-.344.112-.462.075-.1195.175-.213.3-.2807.126-.0676.264-.118.415-.1511.152-.0346.306-.0619.46-.0821.201-.0259.365-.0453.49-.0583.127-.0144.219-.0381.276-.0712.059-.0331.089-.0907.089-.1727v-.0173c0-.213-.059-.3786-.175-.4966-.115-.118-.29-.177-.525-.177-.243 0-.434.0532-.572.1597s-.235.2203-.291.3412l-.484-.1728c.086-.2015.201-.3584.345-.4706.146-.1138.304-.1929.475-.2375.173-.0461.343-.0691.51-.0691.106 0 .229.0129.367.0388.14.0245.274.0756.404.1533.131.0778.239.1951.326.352.086.1568.129.367.129.6304v2.185h-.509v-.4491h-.026c-.035.072-.092.149-.173.231-.08.0821-.188.1519-.322.2095-.133.0575-.297.0863-.49.0863zm.078-.4577c.202 0 .371-.0396.51-.1187.139-.0792.244-.1814.315-.3066.072-.1253.108-.257.108-.3951v-.4664c-.022.0259-.069.0497-.143.0712-.072.0202-.155.0382-.25.054-.094.0144-.185.0274-.274.0389-.088.0101-.159.0187-.214.0259-.133.0173-.256.0453-.371.0842-.114.0374-.206.0943-.277.1706-.069.0748-.103.177-.103.3066 0 .177.065.3109.196.4015.132.0893.3.1339.503.1339zm2.372.38v-3.3164h.51v3.3164zm.259-3.8691c-.099 0-.185-.0338-.256-.1015-.071-.0676-.106-.1489-.106-.2439s.035-.1764.106-.244c.071-.0677.157-.1015.256-.1015.1 0 .185.0338.255.1015.072.0676.108.149.108.244s-.036.1763-.108.2439c-.07.0677-.155.1015-.255.1015zm1.694-.5527v4.4218h-.51v-4.4218zm3.282 1.8482-.458.1295c-.028-.0763-.071-.1504-.127-.2224-.055-.0734-.13-.1338-.225-.1813s-.216-.0713-.364-.0713c-.203 0-.373.0468-.508.1404-.134.0921-.201.2094-.201.3519 0 .1267.046.2267.139.3001.092.0734.236.1346.431.1835l.493.1209c.296.072.517.1821.662.3304.146.1468.219.3361.219.5678 0 .19-.055.3599-.165.5096-.108.1497-.259.2677-.453.3541-.194.0863-.42.1295-.678.1295-.338 0-.618-.0734-.84-.2202-.221-.1468-.362-.3613-.421-.6434l.484-.1209c.046.1784.133.3123.261.4015.13.0893.299.1339.507.1339.238 0 .426-.0504.566-.1511.141-.1022.212-.2246.212-.3671 0-.1151-.041-.2116-.121-.2893-.081-.0792-.205-.1382-.372-.177l-.552-.1296c-.304-.072-.527-.1835-.67-.3346-.141-.1526-.211-.3433-.211-.5722 0-.1871.052-.3527.157-.4966.107-.1439.252-.2569.434-.339.185-.082.393-.123.627-.123.328 0 .585.0719.772.2159.189.1439.323.3339.402.57zm3.289 2.5736-1.011-3.3164h.536l.717 2.5391h.034l.708-2.5391h.545l.699 2.5305h.035l.716-2.5305h.536l-1.011 3.3164h-.5l-.726-2.5477h-.052l-.725 2.5477zm4.189 0v-3.3164h.509v3.3164zm.259-3.8691c-.1 0-.185-.0338-.257-.1015-.071-.0676-.106-.1489-.106-.2439s.035-.1764.106-.244c.072-.0677.157-.1015.257-.1015.099 0 .184.0338.254.1015.072.0676.108.149.108.244s-.036.1763-.108.2439c-.07.0677-.155.1015-.254.1015zm2.626.5527v.4319h-1.719v-.4319zm-1.218-.7945h.509v3.1609c0 .1439.021.2519.063.3239.043.0705.098.118.164.1425.068.023.139.0345.214.0345.056 0 .102-.0029.138-.0086.036-.0072.065-.013.086-.0173l.104.4577c-.034.013-.083.0259-.145.0389-.061.0144-.14.0216-.235.0216-.144 0-.285-.031-.423-.0928-.137-.0619-.251-.1562-.341-.2829-.089-.1267-.134-.2864-.134-.4793zm2.565 2.1159v1.995h-.51v-4.4218h.51v1.6236h.043c.078-.1713.194-.3073.35-.408.157-.1022.365-.1533.626-.1533.226 0 .424.0453.594.136.17.0892.301.2267.395.4124.095.1842.142.4188.142.7038v2.1073h-.509v-2.0727c0-.2634-.069-.4671-.205-.611-.136-.1454-.323-.2181-.564-.2181-.167 0-.316.0353-.449.1058-.131.0705-.235.1734-.311.3087-.075.1353-.112.2994-.112.4923zm5.768 2.0727c-.21 0-.4-.0395-.572-.1187-.171-.0806-.307-.1965-.408-.3476-.101-.1526-.151-.3368-.151-.5528 0-.19.038-.344.112-.462.075-.1195.175-.213.3-.2807.126-.0676.264-.118.415-.1511.153-.0346.306-.0619.46-.0821.201-.0259.365-.0453.49-.0583.127-.0144.219-.0381.276-.0712.059-.0331.089-.0907.089-.1727v-.0173c0-.213-.058-.3786-.175-.4966-.115-.118-.29-.177-.525-.177-.243 0-.434.0532-.572.1597s-.235.2203-.291.3412l-.484-.1728c.086-.2015.202-.3584.346-.4706.145-.1138.303-.1929.475-.2375.172-.0461.342-.0691.509-.0691.107 0 .229.0129.367.0388.14.0245.274.0756.404.1533.131.0778.24.1951.326.352.086.1568.129.367.129.6304v2.185h-.509v-.4491h-.026c-.035.072-.092.149-.173.231-.08.0821-.188.1519-.321.2095-.134.0575-.298.0863-.491.0863zm.078-.4577c.202 0 .372-.0396.51-.1187.139-.0792.244-.1814.315-.3066.072-.1253.108-.257.108-.3951v-.4664c-.022.0259-.069.0497-.143.0712-.072.0202-.155.0382-.25.054-.094.0144-.185.0274-.274.0389-.088.0101-.159.0187-.214.0259-.132.0173-.256.0453-.371.0842-.114.0374-.206.0943-.277.1706-.069.0748-.103.177-.103.3066 0 .177.065.3109.196.4015.133.0893.3.1339.503.1339zm6.432-2.1936-.458.1295c-.029-.0763-.071-.1504-.128-.2224-.054-.0734-.129-.1338-.224-.1813s-.217-.0713-.365-.0713c-.203 0-.372.0468-.507.1404-.134.0921-.201.2094-.201.3519 0 .1267.046.2267.138.3001s.236.1346.432.1835l.492.1209c.297.072.518.1821.663.3304.145.1468.218.3361.218.5678 0 .19-.055.3599-.164.5096-.108.1497-.259.2677-.453.3541-.195.0863-.421.1295-.678.1295-.339 0-.619-.0734-.84-.2202-.222-.1468-.362-.3613-.421-.6434l.483-.1209c.046.1784.133.3123.262.4015.129.0893.298.1339.507.1339.237 0 .426-.0504.566-.1511.141-.1022.211-.2246.211-.3671 0-.1151-.04-.2116-.121-.2893-.08-.0792-.204-.1382-.371-.177l-.553-.1296c-.304-.072-.527-.1835-.669-.3346-.141-.1526-.212-.3433-.212-.5722 0-.1871.053-.3527.158-.4966.106-.1439.251-.2569.434-.339.184-.082.393-.123.626-.123.328 0 .586.0719.773.2159.189.1439.322.3339.402.57zm.827 2.5736v-3.3164h.51v3.3164zm.259-3.8691c-.099 0-.185-.0338-.257-.1015-.07-.0676-.106-.1489-.106-.2439s.036-.1764.106-.244c.072-.0677.158-.1015.257-.1015s.184.0338.255.1015c.072.0676.108.149.108.244s-.036.1763-.108.2439c-.071.0677-.156.1015-.255.1015zm1.693 1.8741v1.995h-.509v-3.3164h.492v.5182h.043c.078-.1684.196-.3037.354-.4059.159-.1036.363-.1554.614-.1554.224 0 .421.046.589.1381.168.0907.299.2289.393.4146.094.1842.14.4174.14.6995v2.1073h-.509v-2.0727c0-.2605-.068-.4635-.203-.6089-.135-.1468-.321-.2202-.557-.2202-.163 0-.308.0353-.436.1058-.127.0705-.227.1734-.3.3087-.074.1353-.111.2994-.111.4923zm4.386 3.3077c-.246 0-.458-.0316-.635-.095-.177-.0619-.324-.1439-.442-.2461-.117-.1008-.21-.2087-.279-.3239l.406-.285c.046.0605.104.1296.175.2073.07.0792.167.1475.289.2051.124.059.286.0885.486.0885.268 0 .489-.0647.663-.1943.174-.1295.261-.3325.261-.6088v-.6737h-.043c-.037.0605-.091.1353-.16.2246-.067.0878-.165.1662-.293.2353-.127.0677-.298.1015-.514.1015-.268 0-.508-.0633-.721-.19-.212-.1267-.38-.3109-.504-.5527-.122-.2419-.183-.5355-.183-.8809 0-.3397.06-.6355.179-.8874.12-.2534.286-.4491.499-.5873.213-.1396.459-.2094.738-.2094.216 0 .388.0359.514.1079.128.0705.226.1512.294.2418.069.0893.122.1627.16.2203h.051v-.5269h.493v3.4114c0 .285-.065.5168-.195.6952-.128.18-.3.3117-.518.3952-.216.0849-.456.1273-.721.1273zm-.017-1.8222c.204 0 .377-.0468.518-.1404.141-.0935.248-.2281.322-.4037.073-.1756.11-.3858.11-.6305 0-.2389-.036-.4498-.108-.6326s-.179-.326-.32-.4297c-.141-.1036-.315-.1554-.522-.1554-.216 0-.396.0547-.54.1641-.142.1094-.25.2562-.322.4404-.07.1843-.105.3887-.105.6132 0 .2303.035.434.107.611.074.1756.182.3138.324.4146.144.0993.323.149.536.149zm2.893-3.9123v4.4218h-.51v-4.4218zm2.324 4.4909c-.32 0-.596-.0705-.827-.2116-.231-.1425-.408-.3411-.534-.5959-.123-.2562-.185-.5542-.185-.8939s.062-.6391.185-.8981c.126-.2606.3-.4635.523-.6089.225-.1468.486-.2202.786-.2202.173 0 .343.0288.512.0863.168.0576.321.1512.459.2807.139.1281.249.298.331.5096.082.2115.123.4721.123.7815v.216h-2.556v-.4405h2.038c0-.1871-.038-.3541-.113-.5009-.073-.1468-.178-.2627-.315-.3476-.135-.0849-.295-.1274-.479-.1274-.203 0-.379.0504-.527.1511-.147.0993-.26.2289-.339.3887-.079.1597-.119.331-.119.5138v.2937c0 .2504.044.4627.13.6369.088.1727.209.3044.365.3951.155.0893.336.1339.542.1339.134 0 .254-.0187.362-.0562.11-.0388.204-.0964.283-.1727.079-.0777.141-.1742.184-.2893l.492.1382c-.052.1669-.139.3138-.261.4404-.123.1253-.274.2231-.454.2937-.18.0691-.382.1036-.606.1036zm-184.9545 6.9309v-3.3164h.4923v.5182h.0431c.0691-.177.1807-.3145.3347-.4124.154-.0993.339-.1489.5549-.1489.2188 0 .4009.0496.5462.1489.1468.0979.2613.2354.3433.4124h.0346c.0849-.1713.2123-.3073.3821-.408.1699-.1022.3736-.1533.6111-.1533.2965 0 .539.0928.7276.2785.1885.1842.2828.4714.2828.8615v2.2195h-.5095v-2.2195c0-.2447-.067-.4196-.2008-.5247-.1339-.1051-.2915-.1576-.4729-.1576-.2332 0-.4138.0705-.5419.2116-.1281.1396-.1922.3166-.1922.5311v2.1591h-.5181v-2.2714c0-.1885-.0612-.3404-.1836-.4555-.1223-.1166-.2799-.1749-.4728-.1749-.1324 0-.2562.0353-.3714.1058-.1137.0705-.2058.1684-.2763.2936-.0691.1238-.1037.267-.1037.4297v2.0727zm6.6748.0691c-.3195 0-.5952-.0705-.8269-.2116-.2303-.1425-.4081-.3411-.5333-.5959-.1238-.2562-.1857-.5542-.1857-.8939s.0619-.6391.1857-.8981c.1252-.2606.2994-.4635.5225-.6089.2245-.1468.4865-.2202.7859-.2202.1727 0 .3433.0288.5117.0863.1684.0576.3217.1512.4599.2807.1382.1281.2483.298.3303.5096.0821.2115.1231.4721.1231.7815v.216h-2.5564v-.4405h2.0382c0-.1871-.0374-.3541-.1123-.5009-.0734-.1468-.1784-.2627-.3152-.3476-.1353-.0849-.2951-.1274-.4793-.1274-.203 0-.3786.0504-.5268.1511-.1468.0993-.2598.2289-.339.3887-.0792.1597-.1188.331-.1188.5138v.2937c0 .2504.0432.4627.1296.6369.0878.1727.2094.3044.3649.3951.1554.0893.3361.1339.5419.1339.1339 0 .2548-.0187.3627-.0562.1094-.0388.2037-.0964.2829-.1727.0791-.0777.1403-.1742.1835-.2893l.4923.1382c-.0518.1669-.1389.3138-.2613.4404-.1223.1253-.2735.2231-.4534.2937-.1799.0691-.3821.1036-.6067.1036zm4.4974-2.6427-.4577.1295c-.0288-.0763-.0713-.1504-.1274-.2224-.0547-.0734-.1296-.1338-.2246-.1813s-.2166-.0713-.3648-.0713c-.203 0-.3721.0468-.5074.1404-.1339.0921-.2008.2094-.2008.3519 0 .1267.046.2267.1382.3001.0921.0734.236.1346.4318.1835l.4922.1209c.2966.072.5175.1821.6629.3304.1454.1468.2181.3361.2181.5678 0 .19-.0547.3599-.1641.5096-.108.1497-.2591.2677-.4534.3541-.1944.0863-.4204.1295-.678.1295-.3383 0-.6182-.0734-.8399-.2202s-.362-.3613-.421-.6434l.4836-.1209c.0461.1784.1332.3123.2613.4015.1295.0893.2986.1339.5074.1339.2375 0 .426-.0504.5656-.1511.1411-.1022.2116-.2246.2116-.3671 0-.1151-.0403-.2116-.1209-.2893-.0806-.0792-.2044-.1382-.3713-.177l-.5528-.1296c-.3037-.072-.5268-.1835-.6693-.3346-.141-.1526-.2116-.3433-.2116-.5722 0-.1871.0526-.3527.1576-.4966.1066-.1439.2512-.2569.434-.339.1843-.082.393-.123.6262-.123.3281 0 .5858.0719.7729.2159.1886.1439.3224.3339.4016.57zm3.1766 0-.4578.1295c-.0288-.0763-.0712-.1504-.1274-.2224-.0547-.0734-.1295-.1338-.2245-.1813s-.2166-.0713-.3649-.0713c-.2029 0-.3721.0468-.5074.1404-.1338.0921-.2008.2094-.2008.3519 0 .1267.0461.2267.1382.3001s.2361.1346.4318.1835l.4923.1209c.2965.072.5175.1821.6628.3304.1454.1468.2181.3361.2181.5678 0 .19-.0547.3599-.1641.5096-.1079.1497-.2591.2677-.4534.3541-.1943.0863-.4203.1295-.6779.1295-.3383 0-.6183-.0734-.8399-.2202-.2217-.1468-.362-.3613-.4211-.6434l.4837-.1209c.046.1784.1331.3123.2612.4015.1296.0893.2987.1339.5074.1339.2375 0 .4261-.0504.5657-.1511.1411-.1022.2116-.2246.2116-.3671 0-.1151-.0403-.2116-.1209-.2893-.0806-.0792-.2044-.1382-.3714-.177l-.5527-.1296c-.3037-.072-.5268-.1835-.6693-.3346-.1411-.1526-.2116-.3433-.2116-.5722 0-.1871.0525-.3527.1576-.4966.1065-.1439.2512-.2569.434-.339.1842-.082.3929-.123.6261-.123.3282 0 .5858.0719.773.2159.1885.1439.3224.3339.4016.57zm1.8033 2.6513c-.2101 0-.4008-.0395-.5721-.1187-.1713-.0806-.3073-.1965-.4081-.3476-.1007-.1526-.1511-.3368-.1511-.5528 0-.19.0374-.344.1122-.462.0749-.1195.1749-.213.3002-.2807.1252-.0676.2634-.118.4145-.1511.1526-.0346.3059-.0619.4599-.0821.2015-.0259.3649-.0453.4901-.0583.1267-.0144.2188-.0381.2764-.0712.059-.0331.0885-.0907.0885-.1727v-.0173c0-.213-.0583-.3786-.1749-.4966-.1151-.118-.29-.177-.5247-.177-.2432 0-.4339.0532-.5721.1597s-.2354.2203-.2915.3412l-.4836-.1728c.0863-.2015.2015-.3584.3454-.4706.1454-.1138.3037-.1929.475-.2375.1728-.0461.3426-.0691.5096-.0691.1065 0 .2288.0129.367.0388.1396.0245.2742.0756.4038.1533.131.0778.2396.1951.326.352.0864.1568.1295.367.1295.6304v2.185h-.5095v-.4491h-.0259c-.0346.072-.0921.149-.1727.231-.0806.0821-.1879.1519-.3217.2095-.1339.0575-.2973.0863-.4902.0863zm.0778-.4577c.2015 0 .3713-.0396.5095-.1187.1396-.0792.2447-.1814.3152-.3066.072-.1253.108-.257.108-.3951v-.4664c-.0216.0259-.0691.0497-.1425.0712-.072.0202-.1555.0382-.2505.054-.0935.0144-.1849.0274-.2742.0389-.0878.0101-.159.0187-.2137.0259-.1324.0173-.2562.0453-.3714.0842-.1137.0374-.2058.0943-.2763.1706-.0691.0748-.1037.177-.1037.3066 0 .177.0655.3109.1965.4015.1324.0893.3001.1339.5031.1339zm3.7109 1.6927c-.2461 0-.4577-.0316-.6348-.095-.177-.0619-.3246-.1439-.4426-.2461-.1166-.1008-.2094-.2087-.2785-.3239l.4059-.285c.0461.0605.1044.1296.1749.2073.0705.0792.167.1475.2893.2051.1238.059.2857.0885.4858.0885.2677 0 .4887-.0647.6628-.1943.1742-.1295.2613-.3325.2613-.6088v-.6737h-.0432c-.0374.0605-.0907.1353-.1598.2246-.0676.0878-.1655.1662-.2936.2353-.1267.0677-.2979.1015-.5139.1015-.2677 0-.5081-.0633-.7211-.19-.2116-.1267-.3793-.3109-.5031-.5527-.1223-.2419-.1835-.5355-.1835-.8809 0-.3397.0597-.6355.1792-.8874.1195-.2534.2857-.4491.4988-.5873.213-.1396.4591-.2094.7384-.2094.2159 0 .3872.0359.5138.1079.1281.0705.226.1512.2937.2418.0691.0893.1223.1627.1598.2203h.0518v-.5269h.4922v3.4114c0 .285-.0647.5168-.1943.6952-.1281.18-.3008.3117-.5182.3952-.2159.0849-.4562.1273-.7211.1273zm-.0173-1.8222c.2044 0 .3772-.0468.5182-.1404.1411-.0935.2483-.2281.3217-.4037s.1101-.3858.1101-.6305c0-.2389-.036-.4498-.1079-.6326-.072-.1828-.1785-.326-.3196-.4297-.141-.1036-.3152-.1554-.5225-.1554-.2159 0-.3958.0547-.5397.1641-.1425.1094-.2498.2562-.3217.4404-.0706.1843-.1058.3887-.1058.6132 0 .2303.0359.434.1079.611.0734.1756.1814.3138.3239.4146.1439.0993.3224.149.5354.149zm3.7741.5786c-.3195 0-.5952-.0705-.8269-.2116-.2303-.1425-.4081-.3411-.5333-.5959-.1238-.2562-.1857-.5542-.1857-.8939s.0619-.6391.1857-.8981c.1252-.2606.2994-.4635.5225-.6089.2245-.1468.4865-.2202.7859-.2202.1727 0 .3433.0288.5117.0863.1684.0576.3217.1512.4599.2807.1382.1281.2483.298.3303.5096.0821.2115.1231.4721.1231.7815v.216h-2.5564v-.4405h2.0382c0-.1871-.0374-.3541-.1123-.5009-.0734-.1468-.1784-.2627-.3152-.3476-.1353-.0849-.2951-.1274-.4793-.1274-.203 0-.3786.0504-.5268.1511-.1468.0993-.2598.2289-.339.3887-.0792.1597-.1187.331-.1187.5138v.2937c0 .2504.0431.4627.1295.6369.0878.1727.2094.3044.3649.3951.1554.0893.3361.1339.5419.1339.1339 0 .2548-.0187.3627-.0562.1094-.0388.2037-.0964.2829-.1727.0792-.0777.1403-.1742.1835-.2893l.4923.1382c-.0518.1669-.1389.3138-.2613.4404-.1223.1253-.2734.2231-.4534.2937-.1799.0691-.3821.1036-.6067.1036zm2.5197-.0345c-.1065 0-.1979-.0382-.2742-.1145s-.1145-.1677-.1145-.2742.0382-.1979.1145-.2742.1677-.1144.2742-.1144.1979.0381.2742.1144.1144.1677.1144.2742c0 .0705-.018.1353-.054.1943-.0345.0591-.0813.1066-.1403.1425-.0576.0346-.1223.0519-.1943.0519zm3.6175-4.4564v4.4218h-.5354v-4.4218zm2.4468 1.1054v.4319h-1.7186v-.4319zm-1.2177-.7945h.5095v3.1609c0 .1439.0209.2519.0627.3239.0431.0705.0978.118.1641.1425.0676.023.1389.0345.2137.0345.0561 0 .1022-.0029.1382-.0086.036-.0072.0648-.013.0863-.0173l.1037.4577c-.0346.013-.0828.0259-.1447.0389-.0619.0144-.1403.0216-.2353.0216-.144 0-.285-.031-.4232-.0928-.1367-.0619-.2505-.1562-.3411-.2829-.0893-.1267-.1339-.2864-.1339-.4793zm5.0415 4.18c-.3109 0-.5787-.0734-.8032-.2202s-.3973-.3491-.5182-.6067c-.1209-.2577-.1813-.552-.1813-.8831 0-.3368.0618-.6341.1856-.8917.1253-.2591.2994-.4613.5225-.6067.2246-.1468.4865-.2202.7859-.2202.2332 0 .4434.0431.6305.1295s.3404.2073.4599.3627c.1195.1555.1936.3369.2224.5441h-.5096c-.0388-.1511-.1252-.285-.2591-.4016-.1324-.118-.3109-.177-.5354-.177-.1987 0-.3728.0518-.5225.1554-.1483.1022-.2641.2469-.3476.434-.0821.1857-.1231.4038-.1231.6542 0 .2562.0403.4793.1209.6693.0821.19.1972.3376.3455.4427.1497.105.3253.1576.5268.1576.1324 0 .2526-.0231.3605-.0691.108-.0461.1994-.1123.2743-.1987.0748-.0863.1281-.19.1597-.3109h.5096c-.0288.1958-.1001.3721-.2138.529-.1123.1555-.2612.2793-.4469.3714-.1843.0907-.3987.136-.6434.136zm3.0249.0086c-.2102 0-.4009-.0395-.5722-.1187-.1713-.0806-.3073-.1965-.4081-.3476-.1007-.1526-.1511-.3368-.1511-.5528 0-.19.0374-.344.1123-.462.0748-.1195.1749-.213.3001-.2807.1252-.0676.2634-.118.4145-.1511.1526-.0346.3059-.0619.4599-.0821.2015-.0259.3649-.0453.4901-.0583.1267-.0144.2188-.0381.2764-.0712.059-.0331.0885-.0907.0885-.1727v-.0173c0-.213-.0583-.3786-.1749-.4966-.1151-.118-.29-.177-.5246-.177-.2433 0-.434.0532-.5722.1597s-.2353.2203-.2915.3412l-.4836-.1728c.0864-.2015.2015-.3584.3455-.4706.1453-.1138.3037-.1929.475-.2375.1727-.0461.3425-.0691.5095-.0691.1065 0 .2289.0129.367.0388.1397.0245.2742.0756.4038.1533.131.0778.2397.1951.326.352.0864.1568.1296.367.1296.6304v2.185h-.5096v-.4491h-.0259c-.0345.072-.0921.149-.1727.231-.0806.0821-.1879.1519-.3217.2095-.1339.0575-.2973.0863-.4901.0863zm.0777-.4577c.2015 0 .3714-.0396.5095-.1187.1397-.0792.2447-.1814.3153-.3066.0719-.1253.1079-.257.1079-.3951v-.4664c-.0216.0259-.0691.0497-.1425.0712-.072.0202-.1554.0382-.2504.054-.0936.0144-.185.0274-.2742.0389-.0878.0101-.1591.0187-.2138.0259-.1324.0173-.2562.0453-.3714.0842-.1137.0374-.2058.0943-.2763.1706-.0691.0748-.1037.177-.1037.3066 0 .177.0655.3109.1965.4015.1324.0893.3001.1339.5031.1339zm2.8818-1.615v1.995h-.5095v-3.3164h.4923v.5182h.0431c.0778-.1684.1958-.3037.3541-.4059.1584-.1036.3628-.1554.6132-.1554.2246 0 .421.046.5895.1381.1684.0907.2993.2289.3929.4146.0936.1842.1403.4174.1403.6995v2.1073h-.5095v-2.0727c0-.2605-.0677-.4635-.203-.6089-.1353-.1468-.3209-.2202-.557-.2202-.1627 0-.308.0353-.4361.1058-.1267.0705-.2267.1734-.3001.3087-.0735.1353-.1102.2994-.1102.4923zm6.1047 2.0641c-.311 0-.579-.0734-.804-.2202-.224-.1468-.397-.3491-.518-.6067-.121-.2577-.181-.552-.181-.8831 0-.3368.062-.6341.186-.8917.125-.2591.299-.4613.522-.6067.225-.1468.487-.2202.786-.2202.233 0 .443.0431.63.1295.188.0864.341.2073.46.3627.12.1555.194.3369.223.5441h-.51c-.039-.1511-.125-.285-.259-.4016-.132-.118-.311-.177-.535-.177-.199 0-.373.0518-.523.1554-.148.1022-.264.2469-.347.434-.083.1857-.124.4038-.124.6542 0 .2562.041.4793.121.6693.082.19.198.3376.346.4427.15.105.325.1576.527.1576.132 0 .252-.0231.36-.0691.108-.0461.2-.1123.274-.1987.075-.0863.129-.19.16-.3109h.51c-.029.1958-.1.3721-.214.529-.112.1555-.261.2793-.447.3714-.184.0907-.399.136-.643.136zm3.396 0c-.3 0-.562-.0712-.788-.2137-.225-.1425-.4-.3419-.527-.5981-.125-.2562-.188-.5556-.188-.8982 0-.3455.063-.647.188-.9047.127-.2576.302-.4577.527-.6002.226-.1425.488-.2137.788-.2137.299 0 .561.0712.786.2137.226.1425.401.3426.527.6002.126.2577.19.5592.19.9047 0 .3426-.064.642-.19.8982s-.301.4556-.527.5981c-.225.1425-.487.2137-.786.2137zm0-.4577c.227 0 .414-.0583.561-.1749s.256-.2699.326-.4599c.071-.19.106-.3958.106-.6175s-.035-.4282-.106-.6197c-.07-.1914-.179-.3461-.326-.4642-.147-.118-.334-.177-.561-.177-.228 0-.415.059-.561.177-.147.1181-.256.2728-.327.4642-.07.1915-.105.398-.105.6197s.035.4275.105.6175c.071.19.18.3433.327.4599.146.1166.333.1749.561.1749zm2.79-1.6064v1.995h-.51v-3.3164h.493v.5182h.043c.078-.1684.196-.3037.354-.4059.158-.1036.363-.1554.613-.1554.225 0 .421.046.59.1381.168.0907.299.2289.393.4146.093.1842.14.4174.14.6995v2.1073h-.51v-2.0727c0-.2605-.067-.4635-.203-.6089-.135-.1468-.321-.2202-.557-.2202-.162 0-.308.0353-.436.1058-.126.0705-.227.1734-.3.3087s-.11.2994-.11.4923zm4.489-1.3214v.4319h-1.718v-.4319zm-1.217-.7945h.509v3.1609c0 .1439.021.2519.063.3239.043.0705.098.118.164.1425.067.023.139.0345.214.0345.056 0 .102-.0029.138-.0086.036-.0072.064-.013.086-.0173l.104.4577c-.035.013-.083.0259-.145.0389-.062.0144-.14.0216-.235.0216-.144 0-.285-.031-.423-.0928-.137-.0619-.251-.1562-.342-.2829-.089-.1267-.133-.2864-.133-.4793zm2.96 4.1886c-.211 0-.401-.0395-.573-.1187-.171-.0806-.307-.1965-.408-.3476-.1-.1526-.151-.3368-.151-.5528 0-.19.038-.344.113-.462.074-.1195.174-.213.3-.2807.125-.0676.263-.118.414-.1511.153-.0346.306-.0619.46-.0821.202-.0259.365-.0453.49-.0583.127-.0144.219-.0381.277-.0712.059-.0331.088-.0907.088-.1727v-.0173c0-.213-.058-.3786-.175-.4966-.115-.118-.29-.177-.524-.177-.244 0-.434.0532-.573.1597-.138.1065-.235.2203-.291.3412l-.484-.1728c.087-.2015.202-.3584.346-.4706.145-.1138.303-.1929.475-.2375.172-.0461.342-.0691.509-.0691.107 0 .229.0129.367.0388.14.0245.275.0756.404.1533.131.0778.24.1951.326.352.086.1568.13.367.13.6304v2.185h-.51v-.4491h-.026c-.034.072-.092.149-.173.231-.08.0821-.187.1519-.321.2095-.134.0575-.297.0863-.49.0863zm.077-.4577c.202 0 .372-.0396.51-.1187.14-.0792.245-.1814.315-.3066.072-.1253.108-.257.108-.3951v-.4664c-.021.0259-.069.0497-.142.0712-.072.0202-.156.0382-.251.054-.093.0144-.185.0274-.274.0389-.088.0101-.159.0187-.214.0259-.132.0173-.256.0453-.371.0842-.114.0374-.206.0943-.277.1706-.069.0748-.103.177-.103.3066 0 .177.065.3109.196.4015.133.0893.3.1339.503.1339zm2.373.38v-3.3164h.509v3.3164zm.259-3.8691c-.1 0-.185-.0338-.257-.1015-.071-.0676-.106-.1489-.106-.2439s.035-.1764.106-.244c.072-.0677.157-.1015.257-.1015.099 0 .184.0338.255.1015.072.0676.107.149.107.244s-.035.1763-.107.2439c-.071.0677-.156.1015-.255.1015zm1.693 1.8741v1.995h-.51v-3.3164h.493v.5182h.043c.078-.1684.196-.3037.354-.4059.158-.1036.363-.1554.613-.1554.225 0 .421.046.59.1381.168.0907.299.2289.393.4146.093.1842.14.4174.14.6995v2.1073h-.51v-2.0727c0-.2605-.067-.4635-.203-.6089-.135-.1468-.321-.2202-.557-.2202-.162 0-.308.0353-.436.1058-.126.0705-.226.1734-.3.3087-.073.1353-.11.2994-.11.4923zm20.74 2.0641c-.299 0-.562-.0712-.788-.2137-.224-.1425-.4-.3419-.527-.5981-.125-.2562-.187-.5556-.187-.8982 0-.3455.062-.647.187-.9047.127-.2576.303-.4577.527-.6002.226-.1425.489-.2137.788-.2137.3 0 .562.0712.786.2137.226.1425.402.3426.527.6002.127.2577.19.5592.19.9047 0 .3426-.063.642-.19.8982-.125.2562-.301.4556-.527.5981-.224.1425-.486.2137-.786.2137zm0-.4577c.228 0 .415-.0583.562-.1749.146-.1166.255-.2699.326-.4599.07-.19.105-.3958.105-.6175s-.035-.4282-.105-.6197c-.071-.1914-.18-.3461-.326-.4642-.147-.118-.334-.177-.562-.177-.227 0-.414.059-.561.177-.147.1181-.256.2728-.326.4642-.071.1915-.106.398-.106.6197s.035.4275.106.6175c.07.19.179.3433.326.4599s.334.1749.561.1749zm2.281.3886v-3.3164h.492v.501h.035c.06-.1641.169-.2973.328-.3995.158-.1022.337-.1533.535-.1533.038 0 .084.0007.141.0022.056.0014.098.0036.127.0065v.5181c-.017-.0043-.057-.0107-.119-.0194-.06-.0101-.124-.0151-.192-.0151-.161 0-.305.0338-.432.1015-.125.0662-.224.1583-.298.2763-.072.1166-.108.2498-.108.3995v2.0986zm3.972 0v-3.3164h.492v.501h.035c.06-.1641.17-.2973.328-.3995s.337-.1533.535-.1533c.038 0 .085.0007.141.0022.056.0014.098.0036.127.0065v.5181c-.017-.0043-.057-.0107-.119-.0194-.06-.0101-.124-.0151-.192-.0151-.161 0-.305.0338-.432.1015-.125.0662-.224.1583-.298.2763-.071.1166-.107.2498-.107.3995v2.0986zm2.262 0v-3.3164h.51v3.3164zm.259-3.8691c-.099 0-.185-.0338-.257-.1015-.07-.0676-.105-.1489-.105-.2439s.035-.1764.105-.244c.072-.0677.158-.1015.257-.1015.1 0 .184.0338.255.1015.072.0676.108.149.108.244s-.036.1763-.108.2439c-.071.0677-.155.1015-.255.1015zm2.531 3.9382c-.311 0-.578-.0734-.803-.2202-.224-.1468-.397-.3491-.518-.6067-.121-.2577-.181-.552-.181-.8831 0-.3368.061-.6341.185-.8917.125-.2591.3-.4613.523-.6067.224-.1468.486-.2202.786-.2202.233 0 .443.0431.63.1295s.34.2073.46.3627c.119.1555.194.3369.222.5441h-.509c-.039-.1511-.125-.285-.259-.4016-.133-.118-.311-.177-.536-.177-.198 0-.373.0518-.522.1554-.149.1022-.264.2469-.348.434-.082.1857-.123.4038-.123.6542 0 .2562.04.4793.121.6693.082.19.197.3376.345.4427.15.105.326.1576.527.1576.133 0 .253-.0231.361-.0691.108-.0461.199-.1123.274-.1987.075-.0863.128-.19.16-.3109h.509c-.028.1958-.1.3721-.213.529-.113.1555-.262.2793-.447.3714-.185.0907-.399.136-.644.136zm2.559-2.0641v1.995h-.51v-4.4218h.51v1.6236h.043c.078-.1713.194-.3073.35-.408.157-.1022.365-.1533.626-.1533.226 0 .424.0453.594.136.169.0892.301.2267.395.4124.095.1842.142.4188.142.7038v2.1073h-.509v-2.0727c0-.2634-.069-.4671-.205-.611-.136-.1454-.324-.2181-.564-.2181-.167 0-.317.0353-.449.1058-.131.0705-.235.1734-.311.3087-.075.1353-.112.2994-.112.4923zm6.235-1.3214v.4319h-1.719v-.4319zm-1.218-.7945h.51v3.1609c0 .1439.02.2519.062.3239.043.0705.098.118.164.1425.068.023.139.0345.214.0345.056 0 .102-.0029.138-.0086.036-.0072.065-.013.087-.0173l.103.4577c-.034.013-.083.0259-.145.0389-.061.0144-.14.0216-.235.0216-.144 0-.285-.031-.423-.0928-.137-.0619-.25-.1562-.341-.2829-.089-.1267-.134-.2864-.134-.4793zm3.339 4.18c-.32 0-.595-.0705-.827-.2116-.23-.1425-.408-.3411-.533-.5959-.124-.2562-.186-.5542-.186-.8939s.062-.6391.186-.8981c.125-.2606.299-.4635.522-.6089.225-.1468.487-.2202.786-.2202.173 0 .343.0288.512.0863.168.0576.322.1512.46.2807.138.1281.248.298.33.5096.082.2115.123.4721.123.7815v.216h-2.556v-.4405h2.038c0-.1871-.037-.3541-.112-.5009-.074-.1468-.179-.2627-.316-.3476-.135-.0849-.295-.1274-.479-.1274-.203 0-.378.0504-.527.1511-.146.0993-.259.2289-.339.3887-.079.1597-.118.331-.118.5138v.2937c0 .2504.043.4627.129.6369.088.1727.21.3044.365.3951.156.0893.336.1339.542.1339.134 0 .255-.0187.363-.0562.109-.0388.203-.0964.283-.1727.079-.0777.14-.1742.183-.2893l.492.1382c-.051.1669-.139.3138-.261.4404-.122.1253-.273.2231-.453.2937-.18.0691-.382.1036-.607.1036zm2.439-3.3855.795 1.356.794-1.356h.588l-1.071 1.6582 1.071 1.6582h-.588l-.794-1.2868-.795 1.2868h-.587l1.054-1.6582-1.054-1.6582zm4.346 0v.4319h-1.719v-.4319zm-1.218-.7945h.51v3.1609c0 .1439.021.2519.062.3239.044.0705.098.118.164.1425.068.023.139.0345.214.0345.056 0 .102-.0029.138-.0086.036-.0072.065-.013.087-.0173l.103.4577c-.034.013-.082.0259-.144.0389-.062.0144-.141.0216-.236.0216-.144 0-.285-.031-.423-.0928-.137-.0619-.25-.1562-.341-.2829-.089-.1267-.134-.2864-.134-.4793zm2.356 4.1455c-.107 0-.198-.0382-.274-.1145-.077-.0763-.115-.1677-.115-.2742s.038-.1979.115-.2742c.076-.0763.167-.1144.274-.1144.106 0 .198.0381.274.1144s.114.1677.114.2742c0 .0705-.018.1353-.054.1943-.034.0591-.081.1066-.14.1425-.057.0346-.122.0519-.194.0519zm31.519-.0346v-3.3164h.509v3.3164zm.259-3.8691c-.1 0-.185-.0338-.257-.1015-.071-.0676-.106-.1489-.106-.2439s.035-.1764.106-.244c.072-.0677.157-.1015.257-.1015.099 0 .184.0338.255.1015.072.0676.108.149.108.244s-.036.1763-.108.2439c-.071.0677-.156.1015-.255.1015zm2.66.5527v.4319h-1.787v-.4319zm-1.252 3.3164v-3.7741c0-.19.045-.3483.134-.475.089-.1266.205-.2216.348-.285.142-.0633.292-.095.451-.095.125 0 .227.0101.306.0302.08.0202.139.0389.177.0562l-.146.4404c-.026-.0086-.062-.0194-.108-.0323-.045-.013-.104-.0195-.177-.0195-.169 0-.29.0425-.365.1274-.074.0849-.11.2094-.11.3735v3.6532zm5.119-3.3164v.4319h-1.719v-.4319zm-1.218-.7945h.51v3.1609c0 .1439.02.2519.062.3239.043.0705.098.118.164.1425.068.023.139.0345.214.0345.056 0 .102-.0029.138-.0086.036-.0072.065-.013.087-.0173l.103.4577c-.034.013-.083.0259-.144.0389-.062.0144-.141.0216-.236.0216-.144 0-.285-.031-.423-.0928-.137-.0619-.25-.1562-.341-.2829-.089-.1267-.134-.2864-.134-.4793zm3.339 4.18c-.319 0-.595-.0705-.827-.2116-.23-.1425-.408-.3411-.533-.5959-.124-.2562-.186-.5542-.186-.8939s.062-.6391.186-.8981c.125-.2606.299-.4635.522-.6089.225-.1468.487-.2202.786-.2202.173 0 .344.0288.512.0863.168.0576.322.1512.46.2807.138.1281.248.298.33.5096.082.2115.123.4721.123.7815v.216h-2.556v-.4405h2.038c0-.1871-.037-.3541-.112-.5009-.074-.1468-.179-.2627-.315-.3476s-.296-.1274-.48-.1274c-.203 0-.378.0504-.527.1511-.146.0993-.259.2289-.339.3887-.079.1597-.118.331-.118.5138v.2937c0 .2504.043.4627.129.6369.088.1727.21.3044.365.3951.156.0893.336.1339.542.1339.134 0 .255-.0187.363-.0562.109-.0388.203-.0964.283-.1727.079-.0777.14-.1742.183-.2893l.492.1382c-.051.1669-.138.3138-.261.4404-.122.1253-.273.2231-.453.2937-.18.0691-.382.1036-.607.1036zm2.439-3.3855.795 1.356.794-1.356h.588l-1.071 1.6582 1.071 1.6582h-.588l-.794-1.2868-.795 1.2868h-.587l1.054-1.6582-1.054-1.6582zm4.346 0v.4319h-1.719v-.4319zm-1.218-.7945h.51v3.1609c0 .1439.021.2519.062.3239.044.0705.098.118.165.1425.067.023.138.0345.213.0345.056 0 .102-.0029.138-.0086.036-.0072.065-.013.087-.0173l.103.4577c-.034.013-.082.0259-.144.0389-.062.0144-.141.0216-.236.0216-.143 0-.285-.031-.423-.0928-.136-.0619-.25-.1562-.341-.2829-.089-.1267-.134-.2864-.134-.4793zm3.694 4.1109v-3.3164h.51v3.3164zm.26-3.8691c-.1 0-.185-.0338-.257-.1015-.071-.0676-.106-.1489-.106-.2439s.035-.1764.106-.244c.072-.0677.157-.1015.257-.1015.099 0 .184.0338.254.1015.072.0676.108.149.108.244s-.036.1763-.108.2439c-.07.0677-.155.1015-.254.1015zm3.532 1.2955-.457.1295c-.029-.0763-.072-.1504-.128-.2224-.054-.0734-.129-.1338-.224-.1813s-.217-.0713-.365-.0713c-.203 0-.372.0468-.508.1404-.133.0921-.2.2094-.2.3519 0 .1267.046.2267.138.3001s.236.1346.432.1835l.492.1209c.296.072.517.1821.663.3304.145.1468.218.3361.218.5678 0 .19-.055.3599-.164.5096-.108.1497-.259.2677-.454.3541-.194.0863-.42.1295-.678.1295-.338 0-.618-.0734-.839-.2202-.222-.1468-.363-.3613-.422-.6434l.484-.1209c.046.1784.133.3123.261.4015.13.0893.299.1339.508.1339.237 0 .426-.0504.565-.1511.141-.1022.212-.2246.212-.3671 0-.1151-.04-.2116-.121-.2893-.08-.0792-.204-.1382-.371-.177l-.553-.1296c-.304-.072-.527-.1835-.669-.3346-.141-.1526-.212-.3433-.212-.5722 0-.1871.053-.3527.158-.4966.106-.1439.251-.2569.434-.339.184-.082.393-.123.626-.123.328 0 .586.0719.773.2159.188.1439.322.3339.401.57zm3.289 2.5736-1.01-3.3164h.535l.717 2.5391h.035l.708-2.5391h.544l.699 2.5305h.035l.717-2.5305h.535l-1.01 3.3164h-.501l-.726-2.5477h-.051l-.726 2.5477zm4.189 0v-3.3164h.492v.501h.035c.06-.1641.17-.2973.328-.3995s.337-.1533.535-.1533c.038 0 .085.0007.141.0022.056.0014.098.0036.127.0065v.5181c-.017-.0043-.057-.0107-.119-.0194-.06-.0101-.124-.0151-.192-.0151-.161 0-.305.0338-.432.1015-.125.0662-.224.1583-.298.2763-.072.1166-.108.2498-.108.3995v2.0986zm2.262 0v-3.3164h.51v3.3164zm.259-3.8691c-.099 0-.185-.0338-.257-.1015-.07-.0676-.106-.1489-.106-.2439s.036-.1764.106-.244c.072-.0677.158-.1015.257-.1015s.184.0338.255.1015c.072.0676.108.149.108.244s-.036.1763-.108.2439c-.071.0677-.156.1015-.255.1015zm2.626.5527v.4319h-1.719v-.4319zm-1.218-.7945h.51v3.1609c0 .1439.021.2519.063.3239.043.0705.097.118.164.1425.067.023.139.0345.213.0345.057 0 .103-.0029.139-.0086.036-.0072.064-.013.086-.0173l.104.4577c-.035.013-.083.0259-.145.0389-.062.0144-.14.0216-.235.0216-.144 0-.285-.031-.424-.0928-.136-.0619-.25-.1562-.341-.2829-.089-.1267-.134-.2864-.134-.4793zm3.427.7945v.4319h-1.719v-.4319zm-1.218-.7945h.51v3.1609c0 .1439.021.2519.062.3239.043.0705.098.118.164.1425.068.023.139.0345.214.0345.056 0 .102-.0029.138-.0086.036-.0072.065-.013.087-.0173l.103.4577c-.034.013-.082.0259-.144.0389-.062.0144-.141.0216-.236.0216-.144 0-.285-.031-.423-.0928-.137-.0619-.25-.1562-.341-.2829-.089-.1267-.134-.2864-.134-.4793zm3.339 4.18c-.319 0-.595-.0705-.827-.2116-.23-.1425-.408-.3411-.533-.5959-.124-.2562-.186-.5542-.186-.8939s.062-.6391.186-.8981c.125-.2606.299-.4635.522-.6089.225-.1468.487-.2202.786-.2202.173 0 .344.0288.512.0863.168.0576.322.1512.46.2807.138.1281.248.298.33.5096.082.2115.123.4721.123.7815v.216h-2.556v-.4405h2.038c0-.1871-.037-.3541-.112-.5009-.073-.1468-.179-.2627-.315-.3476s-.295-.1274-.48-.1274c-.203 0-.378.0504-.526.1511-.147.0993-.26.2289-.339.3887-.08.1597-.119.331-.119.5138v.2937c0 .2504.043.4627.129.6369.088.1727.21.3044.365.3951.156.0893.336.1339.542.1339.134 0 .255-.0187.363-.0562.109-.0388.204-.0964.283-.1727.079-.0777.14-.1742.183-.2893l.493.1382c-.052.1669-.139.3138-.262.4404-.122.1253-.273.2231-.453.2937-.18.0691-.382.1036-.607.1036zm2.658-2.0641v1.995h-.51v-3.3164h.493v.5182h.043c.078-.1684.196-.3037.354-.4059.158-.1036.363-.1554.613-.1554.225 0 .421.046.59.1381.168.0907.299.2289.393.4146.093.1842.14.4174.14.6995v2.1073h-.51v-2.0727c0-.2605-.067-.4635-.203-.6089-.135-.1468-.321-.2202-.557-.2202-.162 0-.308.0353-.436.1058-.126.0705-.226.1734-.3.3087-.073.1353-.11.2994-.11.4923zm4.757 1.995v-3.3164h.51v3.3164zm.259-3.8691c-.099 0-.185-.0338-.257-.1015-.07-.0676-.106-.1489-.106-.2439s.036-.1764.106-.244c.072-.0677.158-.1015.257-.1015s.184.0338.255.1015c.072.0676.108.149.108.244s-.036.1763-.108.2439c-.071.0677-.156.1015-.255.1015zm1.693 1.8741v1.995h-.509v-3.3164h.492v.5182h.043c.078-.1684.196-.3037.354-.4059.159-.1036.363-.1554.614-.1554.224 0 .421.046.589.1381.168.0907.299.2289.393.4146.094.1842.14.4174.14.6995v2.1073h-.509v-2.0727c0-.2605-.068-.4635-.203-.6089-.135-.1468-.321-.2202-.557-.2202-.163 0-.308.0353-.436.1058-.127.0705-.227.1734-.3.3087-.074.1353-.111.2994-.111.4923zm-195.6985 8.995v-3.3164h.4923v.5182h.0431c.0691-.177.1807-.3145.3347-.4124.154-.0993.339-.1489.5549-.1489.2188 0 .4009.0496.5462.1489.1468.0979.2613.2354.3433.4124h.0346c.0849-.1713.2123-.3073.3821-.408.1699-.1022.3736-.1533.6111-.1533.2965 0 .539.0928.7276.2785.1885.1842.2828.4714.2828.8615v2.2195h-.5095v-2.2195c0-.2447-.067-.4196-.2008-.5247-.1339-.1051-.2915-.1576-.4729-.1576-.2332 0-.4138.0705-.5419.2116-.1281.1396-.1922.3166-.1922.5311v2.1591h-.5181v-2.2714c0-.1885-.0612-.3404-.1836-.4555-.1223-.1166-.2799-.1749-.4728-.1749-.1324 0-.2562.0353-.3714.1058-.1137.0705-.2058.1684-.2763.2936-.0691.1238-.1037.267-.1037.4297v2.0727zm6.2603.0777c-.2102 0-.4009-.0395-.5722-.1187-.1713-.0806-.3073-.1965-.4081-.3476-.1007-.1526-.1511-.3368-.1511-.5528 0-.19.0374-.344.1123-.462.0748-.1195.1749-.213.3001-.2807.1252-.0676.2634-.118.4145-.1511.1526-.0346.3059-.0619.4599-.0821.2015-.0259.3649-.0453.4901-.0583.1267-.0144.2188-.0381.2764-.0712.059-.0331.0885-.0907.0885-.1727v-.0173c0-.213-.0583-.3786-.1749-.4966-.1151-.118-.29-.177-.5246-.177-.2433 0-.434.0532-.5722.1597s-.2353.2203-.2915.3412l-.4836-.1728c.0864-.2015.2015-.3584.3455-.4706.1453-.1138.3037-.1929.475-.2375.1727-.0461.3425-.0691.5095-.0691.1065 0 .2289.0129.367.0388.1397.0245.2743.0756.4038.1533.131.0778.2397.1951.326.352.0864.1568.1296.367.1296.6304v2.185h-.5096v-.4491h-.0259c-.0345.072-.0921.149-.1727.231-.0806.0821-.1879.1519-.3217.2095-.1339.0575-.2973.0863-.4901.0863zm.0777-.4577c.2015 0 .3714-.0396.5095-.1187.1397-.0792.2447-.1814.3153-.3066.0719-.1253.1079-.257.1079-.3951v-.4664c-.0216.0259-.0691.0497-.1425.0712-.072.0202-.1554.0382-.2504.054-.0936.0144-.185.0274-.2742.0389-.0878.0101-.1591.0187-.2138.0259-.1324.0173-.2562.0453-.3714.0842-.1137.0374-.2058.0943-.2763.1706-.0691.0748-.1037.177-.1037.3066 0 .177.0655.3109.1965.4015.1324.0893.3001.1339.5031.1339zm2.3723.38v-3.3164h.4923v.501h.0345c.0605-.1641.1699-.2973.3282-.3995s.3368-.1533.5354-.1533c.0375 0 .0843.0007.1404.0022.0561.0014.0986.0036.1274.0065v.5181c-.0173-.0043-.0569-.0107-.1188-.0194-.0604-.0101-.1245-.0151-.1921-.0151-.1612 0-.3052.0338-.4319.1015-.1252.0662-.2245.1583-.2979.2763-.072.1166-.108.2498-.108.3995v2.0986zm2.7372-1.2091-.0087-.6304h.1037l1.4509-1.4769h.6304l-1.5459 1.5632h-.0431zm-.475 1.2091v-4.4218h.5095v4.4218zm2.1073 0-1.2955-1.6409.3627-.3541 1.5805 1.995zm2.3156.0691c-.2764 0-.5204-.0698-.732-.2094-.2115-.1411-.3771-.3397-.4965-.5959-.1195-.2577-.1792-.5621-.1792-.9133 0-.3484.0597-.6506.1792-.9069.1194-.2562.2857-.4541.4987-.5937s.4592-.2094.7384-.2094c.2159 0 .3865.0359.5117.1079.1267.0705.2231.1512.2893.2418.0677.0893.1202.1627.1577.2203h.0431v-1.6323h.5096v4.4218h-.4923v-.5095h-.0604c-.0375.0604-.0907.1367-.1598.2288-.0691.0907-.1677.172-.2958.244-.1281.0705-.2987.1058-.5117.1058zm.0691-.4577c.2044 0 .3771-.0533.5182-.1598.141-.108.2482-.2569.3217-.4469.0734-.1915.1101-.4124.1101-.6629 0-.2475-.036-.4642-.108-.6499-.072-.1871-.1785-.3325-.3195-.4361-.1411-.1051-.3153-.1576-.5225-.1576-.2159 0-.3959.0554-.5398.1662-.1425.1094-.2497.2584-.3217.447-.0705.1871-.1058.3972-.1058.6304 0 .2361.036.4506.108.6434.0734.1915.1813.3441.3238.4578.144.1122.3224.1684.5355.1684zm3.8021.4577c-.2994 0-.5621-.0712-.788-.2137-.2246-.1425-.4002-.3419-.5269-.5981-.1252-.2562-.1878-.5556-.1878-.8982 0-.3455.0626-.647.1878-.9047.1267-.2576.3023-.4577.5269-.6002.2259-.1425.4886-.2137.788-.2137s.5614.0712.7859.2137c.226.1425.4016.3426.5269.6002.1266.2577.19.5592.19.9047 0 .3426-.0634.642-.19.8982-.1253.2562-.3009.4556-.5269.5981-.2245.1425-.4865.2137-.7859.2137zm0-.4577c.2275 0 .4146-.0583.5614-.1749s.2555-.2699.326-.4599.1058-.3958.1058-.6175-.0353-.4282-.1058-.6197c-.0705-.1914-.1792-.3461-.326-.4642-.1468-.118-.3339-.177-.5614-.177-.2274 0-.4145.059-.5613.177-.1469.1181-.2555.2728-.3261.4642-.0705.1915-.1058.398-.1058.6197s.0353.4275.1058.6175c.0706.19.1792.3433.3261.4599.1468.1166.3339.1749.5613.1749zm2.9191.3886-1.0104-3.3164h.5354l.7168 2.5391h.0346l.7082-2.5391h.5441l.6995 2.5305h.0345l.7169-2.5305h.5354l-1.0104 3.3164h-.5009l-.7255-2.5477h-.0518l-.7255 2.5477zm4.6982-1.995v1.995h-.5095v-3.3164h.4922v.5182h.0432c.0777-.1684.1958-.3037.3541-.4059.1583-.1036.3627-.1554.6132-.1554.2245 0 .421.046.5894.1381.1684.0907.2994.2289.393.4146.0935.1842.1403.4174.1403.6995v2.1073h-.5095v-2.0727c0-.2605-.0677-.4635-.203-.6089-.1353-.1468-.321-.2202-.557-.2202-.1627 0-.3081.0353-.4362.1058-.1266.0705-.2267.1734-.3001.3087s-.1101.2994-.1101.4923zm3.4184 2.0296c-.1065 0-.1979-.0382-.2742-.1145s-.1145-.1677-.1145-.2742.0382-.1979.1145-.2742.1677-.1144.2742-.1144.1979.0381.2742.1144.1144.1677.1144.2742c0 .0705-.018.1353-.054.1943-.0345.0591-.0813.1066-.1403.1425-.0576.0346-.1223.0519-.1943.0519z" fill="#201c1d"/><path d="m123.868 83.1778v4.4218h-.51v-4.4218zm.933 4.4218v-3.3164h.509v3.3164zm.259-3.8691c-.099 0-.185-.0338-.257-.1015-.071-.0676-.106-.1489-.106-.2439s.035-.1764.106-.244c.072-.0677.158-.1015.257-.1015s.184.0338.255.1015c.072.0676.108.149.108.244s-.036.1763-.108.2439c-.071.0677-.156.1015-.255.1015zm1.693 1.8741v1.995h-.509v-3.3164h.492v.5182h.043c.078-.1684.196-.3037.354-.4059.159-.1036.363-.1554.613-.1554.225 0 .421.046.59.1381.168.0907.299.2289.393.4146.093.1842.14.4174.14.6995v2.1073h-.509v-2.0727c0-.2605-.068-.4635-.203-.6089-.136-.1468-.321-.2202-.557-.2202-.163 0-.308.0353-.437.1058-.126.0705-.226.1734-.3.3087-.073.1353-.11.2994-.11.4923zm3.522.7859-.008-.6304h.103l1.451-1.4769h.631l-1.546 1.5632h-.044zm-.475 1.2091v-4.4218h.51v4.4218zm2.107 0-1.295-1.6409.363-.3541 1.58 1.995zm3.55-2.5736-.458.1295c-.029-.0763-.071-.1504-.128-.2224-.054-.0734-.129-.1338-.224-.1813s-.217-.0713-.365-.0713c-.203 0-.372.0468-.507.1404-.134.0921-.201.2094-.201.3519 0 .1267.046.2267.138.3001s.236.1346.432.1835l.492.1209c.297.072.518.1821.663.3304.145.1468.218.3361.218.5678 0 .19-.055.3599-.164.5096-.108.1497-.259.2677-.454.3541-.194.0863-.42.1295-.677.1295-.339 0-.619-.0734-.84-.2202-.222-.1468-.362-.3613-.421-.6434l.483-.1209c.046.1784.133.3123.261.4015.13.0893.299.1339.508.1339.237 0 .426-.0504.566-.1511.141-.1022.211-.2246.211-.3671 0-.1151-.04-.2116-.121-.2893-.08-.0792-.204-.1382-.371-.177l-.553-.1296c-.304-.072-.527-.1835-.669-.3346-.141-.1526-.212-.3433-.212-.5722 0-.1871.053-.3527.158-.4966.106-.1439.251-.2569.434-.339.184-.082.393-.123.626-.123.328 0 .586.0719.773.2159.188.1439.322.3339.402.57zm37.109 2.5736v-4.4218h1.494c.345 0 .629.059.851.177.221.1166.385.2771.492.4815.106.2044.16.4369.16.6974s-.054.4916-.16.6931c-.107.2015-.27.3598-.49.475-.22.1137-.502.1705-.844.1705h-1.209v-.4836h1.191c.236 0 .426-.0345.57-.1036.146-.0691.251-.167.316-.2937.066-.1281.099-.2807.099-.4577s-.033-.3318-.099-.4642c-.067-.1324-.172-.2346-.318-.3066-.145-.0734-.337-.1101-.576-.1101h-.942v3.9468zm2.081-1.9864 1.088 1.9864h-.621l-1.071-1.9864zm3.094 2.0555c-.32 0-.596-.0705-.827-.2116-.231-.1425-.408-.3411-.534-.5959-.123-.2562-.185-.5542-.185-.8939s.062-.6391.185-.8981c.126-.2606.3-.4635.523-.6089.225-.1468.486-.2202.786-.2202.173 0 .343.0288.512.0863.168.0576.321.1512.459.2807.139.1281.249.298.331.5096.082.2115.123.4721.123.7815v.216h-2.556v-.4405h2.038c0-.1871-.038-.3541-.113-.5009-.073-.1468-.178-.2627-.315-.3476-.135-.0849-.295-.1274-.479-.1274-.203 0-.379.0504-.527.1511-.147.0993-.26.2289-.339.3887-.079.1597-.119.331-.119.5138v.2937c0 .2504.044.4627.13.6369.088.1727.209.3044.365.3951.155.0893.336.1339.542.1339.134 0 .254-.0187.362-.0562.11-.0388.204-.0964.283-.1727.079-.0777.141-.1742.184-.2893l.492.1382c-.052.1669-.139.3138-.261.4404-.123.1253-.274.2231-.454.2937-.18.0691-.382.1036-.606.1036zm3.124.0086c-.21 0-.401-.0395-.572-.1187-.172-.0806-.308-.1965-.408-.3476-.101-.1526-.151-.3368-.151-.5528 0-.19.037-.344.112-.462.075-.1195.175-.213.3-.2807.125-.0676.263-.118.414-.1511.153-.0346.306-.0619.46-.0821.202-.0259.365-.0453.49-.0583.127-.0144.219-.0381.277-.0712.059-.0331.088-.0907.088-.1727v-.0173c0-.213-.058-.3786-.175-.4966-.115-.118-.29-.177-.524-.177-.243 0-.434.0532-.572.1597-.139.1065-.236.2203-.292.3412l-.483-.1728c.086-.2015.201-.3584.345-.4706.145-.1138.304-.1929.475-.2375.173-.0461.343-.0691.51-.0691.106 0 .228.0129.367.0388.139.0245.274.0756.403.1533.131.0778.24.1951.326.352.087.1568.13.367.13.6304v2.185h-.51v-.4491h-.026c-.034.072-.092.149-.172.231-.081.0821-.188.1519-.322.2095-.134.0575-.297.0863-.49.0863zm.078-.4577c.201 0 .371-.0396.509-.1187.14-.0792.245-.1814.315-.3066.072-.1253.108-.257.108-.3951v-.4664c-.021.0259-.069.0497-.142.0712-.072.0202-.156.0382-.251.054-.093.0144-.185.0274-.274.0389-.088.0101-.159.0187-.214.0259-.132.0173-.256.0453-.371.0842-.114.0374-.206.0943-.276.1706-.069.0748-.104.177-.104.3066 0 .177.066.3109.197.4015.132.0893.3.1339.503.1339zm3.624.4491c-.276 0-.52-.0698-.732-.2094-.211-.1411-.377-.3397-.496-.5959-.12-.2577-.18-.5621-.18-.9133 0-.3484.06-.6506.18-.9069.119-.2562.285-.4541.498-.5937s.46-.2094.739-.2094c.216 0 .386.0359.512.1079.126.0705.223.1512.289.2418.068.0893.12.1627.157.2203h.044v-1.6323h.509v4.4218h-.492v-.5095h-.061c-.037.0604-.09.1367-.159.2288-.069.0907-.168.172-.296.244-.128.0705-.299.1058-.512.1058zm.069-.4577c.205 0 .377-.0533.518-.1598.142-.108.249-.2569.322-.4469.074-.1915.11-.4124.11-.6629 0-.2475-.036-.4642-.108-.6499-.072-.1871-.178-.3325-.319-.4361-.141-.1051-.315-.1576-.523-.1576-.216 0-.396.0554-.539.1662-.143.1094-.25.2584-.322.447-.071.1871-.106.3972-.106.6304 0 .2361.036.4506.108.6434.073.1915.181.3441.324.4578.144.1122.322.1684.535.1684zm5.607-2.9278v.4319h-1.718v-.4319zm-1.217-.7945h.509v3.1609c0 .1439.021.2519.063.3239.043.0705.098.118.164.1425.068.023.139.0345.214.0345.056 0 .102-.0029.138-.0086.036-.0072.065-.013.086-.0173l.104.4577c-.035.013-.083.0259-.145.0389-.062.0144-.14.0216-.235.0216-.144 0-.285-.031-.423-.0928-.137-.0619-.251-.1562-.341-.2829s-.134-.2864-.134-.4793zm2.565 2.1159v1.995h-.51v-4.4218h.51v1.6236h.043c.078-.1713.194-.3073.35-.408.157-.1022.365-.1533.626-.1533.226 0 .424.0453.594.136.169.0892.301.2267.395.4124.095.1842.142.4188.142.7038v2.1073h-.509v-2.0727c0-.2634-.069-.4671-.205-.611-.136-.1454-.324-.2181-.564-.2181-.167 0-.317.0353-.449.1058-.131.0705-.235.1734-.311.3087-.075.1353-.112.2994-.112.4923zm3.082 1.995v-3.3164h.51v3.3164zm.259-3.8691c-.099 0-.185-.0338-.256-.1015-.071-.0676-.106-.1489-.106-.2439s.035-.1764.106-.244c.071-.0677.157-.1015.256-.1015.1 0 .185.0338.255.1015.072.0676.108.149.108.244s-.036.1763-.108.2439c-.07.0677-.155.1015-.255.1015zm3.533 1.2955-.457.1295c-.029-.0763-.072-.1504-.128-.2224-.055-.0734-.129-.1338-.224-.1813s-.217-.0713-.365-.0713c-.203 0-.372.0468-.508.1404-.134.0921-.2.2094-.2.3519 0 .1267.046.2267.138.3001s.236.1346.432.1835l.492.1209c.296.072.517.1821.663.3304.145.1468.218.3361.218.5678 0 .19-.055.3599-.164.5096-.108.1497-.259.2677-.454.3541-.194.0863-.42.1295-.678.1295-.338 0-.618-.0734-.84-.2202-.221-.1468-.362-.3613-.421-.6434l.484-.1209c.046.1784.133.3123.261.4015.13.0893.299.1339.508.1339.237 0 .426-.0504.565-.1511.141-.1022.212-.2246.212-.3671 0-.1151-.04-.2116-.121-.2893-.081-.0792-.204-.1382-.371-.177l-.553-.1296c-.304-.072-.527-.1835-.669-.3346-.141-.1526-.212-.3433-.212-.5722 0-.1871.053-.3527.158-.4966.106-.1439.251-.2569.434-.339.184-.082.393-.123.626-.123.328 0 .586.0719.773.2159.188.1439.322.3339.401.57z" fill="#3416f5"/><rect fill="#201c1d" height="15.2" rx="7.6" width="45.16" x="53.1201" y="103.2"/><path d="m59.9919 112.8v-3.869h2.4787v.587h-1.7778v1.051h1.6077v.587h-1.6077v1.644zm3.087 0v-2.902h.6839v2.902zm.3438-3.314c-.1083 0-.2015-.036-.2796-.108-.0781-.073-.1171-.16-.1171-.262 0-.103.039-.191.1171-.263.0781-.073.1713-.109.2796-.109.1096 0 .2028.036.2796.109.0781.072.1172.16.1172.263 0 .102-.0391.189-.1172.262-.0768.072-.17.108-.2796.108zm1.7272-.555v3.869h-.6839v-3.869zm1.3872 0v3.869h-.6839v-3.869zm1.9879 3.925c-.2909 0-.5422-.06-.7538-.181-.2103-.122-.3722-.295-.4855-.518-.1134-.224-.17-.488-.17-.791 0-.299.0566-.561.17-.786.1146-.227.2745-.403.4798-.529.2053-.127.4465-.191.7236-.191.1788 0 .3476.029.5063.087.16.057.301.145.4232.265.1234.119.2204.272.2909.457.0706.184.1058.403.1058.657v.21h-2.3785v-.461h1.723c-.0013-.131-.0296-.248-.085-.35-.0555-.103-.1329-.184-.2324-.243-.0983-.059-.2129-.089-.3439-.089-.1398 0-.2626.034-.3683.102-.1058.067-.1883.155-.2475.264-.058.109-.0876.228-.0888.358v.402c0 .169.0308.314.0925.434.0618.12.148.212.2589.276.1108.063.2405.095.3891.095.0995 0 .1896-.014.2702-.042.0806-.029.1505-.071.2097-.126.0592-.056.1039-.124.1341-.206l.6386.071c-.0403.169-.1171.317-.2305.443-.1121.124-.2557.221-.4307.29-.1751.068-.3754.102-.6008.102zm2.9457-.005c-.2279 0-.432-.059-.6121-.176s-.3224-.287-.4269-.51c-.1046-.223-.1568-.494-.1568-.812 0-.323.0529-.595.1587-.816.107-.223.2512-.392.4326-.505.1814-.114.3835-.172.6064-.172.1701 0 .3099.029.4194.087.1096.057.1965.125.2607.206.0643.079.114.154.1493.225h.0283v-1.447h.6858v3.869h-.6725v-.457h-.0416c-.0353.07-.0863.145-.153.224-.0668.079-.155.145-.2645.201-.1096.055-.2475.083-.4138.083zm.1908-.561c.1449 0 .2683-.039.3703-.117.102-.08.1795-.19.2324-.331s.0794-.305.0794-.493-.0265-.351-.0794-.489c-.0516-.139-.1285-.247-.2305-.323-.1007-.077-.2248-.116-.3722-.116-.1523 0-.2796.04-.3816.119-.102.08-.1788.189-.2305.329-.0516.14-.0774.3-.0774.48 0 .181.0258.343.0774.485.0529.141.1304.253.2324.335.1033.08.2299.121.3797.121zm3.4332.51v-3.869h.6839v1.447h.0283c.0353-.071.085-.146.1493-.225.0642-.081.1511-.149.2607-.206.1096-.058.2494-.087.4194-.087.2242 0 .4263.058.6064.172.1814.113.325.282.4308.505.107.221.1606.493.1606.816 0 .318-.0523.589-.1569.812-.1045.223-.2468.393-.4269.51s-.3842.176-.6121.176c-.1663 0-.3042-.028-.4138-.083-.1095-.056-.1977-.122-.2644-.201-.0655-.079-.1165-.154-.1531-.224h-.0396v.457zm.6707-1.451c0 .188.0264.352.0793.493.0542.141.1316.251.2324.331.102.078.2254.117.3703.117.1511 0 .2777-.041.3797-.121.102-.082.1789-.194.2305-.335.0529-.142.0793-.304.0793-.485 0-.18-.0258-.34-.0774-.48-.0517-.14-.1285-.249-.2305-.329-.102-.079-.2292-.119-.3816-.119-.1461 0-.2702.039-.3722.116-.102.076-.1795.184-.2324.323-.0516.138-.0774.301-.0774.489zm4.4996.23v-1.681h.6839v2.902h-.6631v-.516h-.0303c-.0655.163-.1731.295-.323.399-.1486.103-.3319.155-.5498.155-.1902 0-.3583-.043-.5044-.127-.1448-.086-.2582-.21-.34-.372-.0819-.164-.1228-.362-.1228-.593v-1.848h.6838v1.742c0 .184.0504.33.1512.438.1007.108.233.163.3967.163.1008 0 .1984-.025.2928-.074.0945-.049.172-.122.2324-.219.0617-.098.0926-.221.0926-.369zm2.8362-1.681v.529h-1.6682v-.529zm-1.2564-.695h.6839v2.724c0 .092.0139.162.0416.212.029.047.0667.08.1133.098.0466.017.0983.026.155.026.0428 0 .0818-.003.1171-.009.0365-.006.0642-.012.0831-.017l.1153.534c-.0366.013-.0888.027-.1569.042-.0667.015-.1486.024-.2455.026-.1713.006-.3256-.02-.4629-.077-.1373-.058-.2462-.147-.3268-.268-.0794-.121-.1184-.272-.1172-.454zm3.2773.695v.529h-1.6681v-.529zm-1.2563-.695h.6839v2.724c0 .092.0139.162.0416.212.0289.047.0667.08.1133.098.0466.017.0983.026.1549.026.0429 0 .0819-.003.1172-.009.0365-.006.0642-.012.0831-.017l.1152.534c-.0365.013-.0888.027-.1568.042-.0667.015-.1486.024-.2456.026-.1713.006-.3255-.02-.4628-.077-.1373-.058-.2463-.147-.3269-.268-.0793-.121-.1184-.272-.1171-.454zm3.0629 3.653c-.2834 0-.529-.062-.7368-.187-.2078-.124-.369-.299-.4836-.523-.1134-.224-.1701-.486-.1701-.786s.0567-.562.1701-.788c.1146-.225.2758-.4.4836-.525.2078-.124.4534-.187.7368-.187s.529.063.7368.187c.2078.125.3684.3.4817.525.1146.226.1719.488.1719.788s-.0573.562-.1719.786c-.1133.224-.2739.399-.4817.523-.2078.125-.4534.187-.7368.187zm.0038-.547c.1536 0 .2821-.043.3854-.127.1032-.086.1801-.2.2304-.344.0517-.143.0775-.303.0775-.48s-.0258-.338-.0775-.481c-.0503-.145-.1272-.26-.2304-.346-.1033-.086-.2318-.129-.3854-.129-.1575 0-.2885.043-.393.129-.1033.086-.1807.201-.2324.346-.0503.143-.0755.304-.0755.481s.0252.337.0755.48c.0517.144.1291.258.2324.344.1045.084.2355.127.393.127zm2.651-1.209v1.7h-.6839v-2.902h.6537v.493h.034c.0667-.162.1731-.291.3192-.387.1474-.096.3294-.144.546-.144.2003 0 .3747.043.5233.129.1499.085.2658.209.3476.372.0832.162.1241.359.1228.591v1.848h-.6838v-1.742c0-.194-.0504-.346-.1512-.455-.0995-.11-.2374-.165-.4137-.165-.1197 0-.2261.027-.3193.08-.0919.051-.1644.126-.2173.224-.0516.099-.0774.218-.0774.358z" fill="#eee"/></svg>