<svg fill="none" height="200" viewBox="0 0 316 200" width="316" xmlns="http://www.w3.org/2000/svg"><path d="m0 0h316v200h-316z" fill="#e5e5e5"/><path d="m43.667 54h228v92.34h-228z" fill="#201c1d"/><path d="m59.4251 74.0823.013.0065-.0036.0036-.0094-.0094c-.296.3784-.5436.7949-.735 1.2404-.0029.0065-.0058.013-.0086.0195-.1841.4346-.3156.896-.3841 1.3783v.0087c-.0369.2555-.0556.5169-.0556.7826 0 .226.0137.4491.0404.6678h-5.4951v-1.4591h4.7717c.0086-.0599.0195-.1191.0303-.1783l-4.5969-1.2166.3826-1.41 4.654 1.2317c.0216-.047.0433-.0939.0657-.1401l-4.1767-2.3811.7385-1.2635 4.2389 2.4158c.0332-.0397.0671-.0794.1025-.1184l-3.4728-3.4281 1.0455-1.0324 3.5283 3.4843.3726.3682c-.3921.2968-.7444.6433-1.0462 1.0296zm58.6699-1.0173h1.229l.736 3.8345.851-3.8345h1.25l.851 3.8446.756-3.8446h1.219l-1.229 5.1161h-1.523l-.693-3.1306-.693 3.1306h-1.524l-1.229-5.1161zm-2.71-.1473c1.576 0 2.605 1.1242 2.605 2.7104s-1.03 2.6995-2.605 2.6995c-1.576 0-2.616-1.1133-2.616-2.6995s1.029-2.7104 2.616-2.7104zm-1.439 2.7104c0 .9667.483 1.6599 1.439 1.6599s1.439-.6932 1.439-1.6599c0-.9668-.483-1.6808-1.439-1.6808s-1.439.7357-1.439 1.6808zm-2.911-4.2966v6.8496h1.156v-6.8496zm-1.239 0c-1.104 0-1.628.5148-1.628 1.4288v.3047h-.526v.9769h.526v4.1392h1.145v-4.1392h1.124v-.9769h-1.124v-.3047c0-.2938.168-.4519.493-.4519h.736v-.9769zm-5.358 1.7335v5.1161h1.146v-4.1392h1.649v-.9769zm-2.92 5.2626c-1.5862 0-2.6158-1.1133-2.6158-2.6995s1.0296-2.7104 2.6158-2.7104c1.387 0 2.574 1.1242 2.322 3.0887h-3.729c.094.7458.536 1.2816 1.408 1.2816.598 0 .977-.3156 1.134-.7358h1.198c-.221 1.0505-1.093 1.7754-2.332 1.7754zm-1.387-3.267h2.584c-.063-.6094-.441-1.1133-1.198-1.1133-.798 0-1.229.4621-1.387 1.1133zm-6.0091-1.9956h1.2288l1.1451 4.0865 1.1559-4.0865h1.2289l-1.5971 5.1161h-1.5653l-1.597-5.1161zm-6.5232 2.0165c0-1.7544 1.1242-3.2352 3.1623-3.2352 2.0382 0 3.1515 1.4815 3.1515 3.2352 0 1.7538-1.1241 3.2461-3.1515 3.2461-2.0273 0-3.1623-1.4707-3.1623-3.2461zm5.0735 0c0-1.0505-.5776-2.1638-1.9119-2.1638-1.3342 0-1.9436 1.1133-1.9436 2.1638s.5985 2.1747 1.9436 2.1747 1.9119-1.1242 1.9119-2.1747zm-10.6733-3.0886h1.1559v3.1197l1.6491-2.0483h1.3552l-1.6599 2.0591 1.8281 3.0569h-1.2816l-1.2396-2.2165-.6513.8195v1.397h-1.1559zm-2.9623 6.3347c-1.5761 0-2.6049-1.1133-2.6049-2.6995s1.0295-2.7104 2.6049-2.7104c1.3971 0 2.3739 1.0296 2.3847 2.1537h-1.1977c-.0318-.5566-.3675-1.1133-1.187-1.1133-.9978 0-1.4288.7249-1.4288 1.67s.431 1.649 1.4288 1.649c.8512 0 1.187-.5985 1.2187-1.2396h1.187c-.021 1.3234-.9559 2.2901-2.4057 2.2901zm-5.8936-5.4099c.7249 0 1.2288.2939 1.5544.8087v-.6621h1.1451v5.116h-1.1451v-.6512c-.3047.4938-.7985.7985-1.5544.7985-1.4289 0-2.301-1.1133-2.301-2.6995s.8721-2.7104 2.301-2.7104zm-1.1234 2.7104c0 .9667.462 1.6599 1.3024 1.6599.9242 0 1.3761-.7141 1.3761-1.6599s-.4519-1.6808-1.3761-1.6808c-.8404 0-1.3024.7039-1.3024 1.6808zm-4.2548-2.5631h.6831v-1.0714h1.145v1.0714h.8722v.9769h-.8722v3.1623h1.0188v.9769h-2.1638v-4.1392h-.6831zm-2.8894 4.202c.7357 0 1.2715-.2837 1.2715-.8086 0-1.3025-3.8872-.1155-3.8872-2.7313 0-1.0187.9667-1.8801 2.5212-1.8801 1.366 0 2.4793.8931 2.4793 2.1747h-1.2289c-.0527-.6932-.4519-1.1032-1.2923-1.1032s-1.2606.3364-1.2606.8086c0 1.418 3.8764.1364 3.8764 2.7313 0 1.1978-.9459 1.8699-2.5422 1.8699-1.4815 0-2.584-.9349-2.6266-2.1847h1.2397c.0628.7039.662 1.1241 1.4497 1.1241z" fill="#fff"/><g fill="#ccc8c2"><path d="m55.7947 100.739h.4685v2.562c0 .265-.0623.501-.187.709-.1234.206-.2979.369-.5233.489-.2254.118-.4899.177-.7935.177-.3035 0-.568-.059-.7934-.177-.2255-.12-.4005-.283-.5252-.489-.1235-.208-.1852-.444-.1852-.709v-2.562h.4686v2.524c0 .189.0415.357.1246.505.0832.146.2016.261.3552.345.1549.084.3401.125.5554.125.2154 0 .4006-.041.5555-.125s.2733-.199.3551-.345c.0832-.148.1247-.316.1247-.505zm1.7896 2.124v1.745h-.4459v-2.901h.4308v.453h.0377c.0681-.147.1713-.266.3099-.355.1385-.091.3174-.136.5365-.136.1965 0 .3684.04.5158.121.1473.079.2619.2.3438.362s.1228.366.1228.613v1.843h-.4459v-1.813c0-.228-.0592-.406-.1775-.533-.1184-.128-.2809-.193-.4875-.193-.1423 0-.2695.031-.3816.093-.1108.062-.1983.152-.2626.27-.0642.118-.0963.262-.0963.431zm4.7216-.507-.4005.114c-.0252-.067-.0624-.132-.1115-.195-.0479-.064-.1134-.117-.1965-.158-.0831-.042-.1895-.063-.3193-.063-.1775 0-.3255.041-.4439.123-.1172.081-.1757.183-.1757.308 0 .111.0403.198.1209.263.0806.064.2065.117.3778.16l.4308.106c.2594.063.4527.159.58.289.1272.128.1908.294.1908.497 0 .166-.0479.315-.1436.446-.0945.131-.2267.234-.3967.31-.1701.075-.3678.113-.5933.113-.2959 0-.5409-.064-.7349-.193-.1939-.128-.3167-.316-.3684-.563l.4232-.106c.0403.157.1165.274.2286.352.1134.078.2614.117.444.117.2078 0 .3728-.044.495-.132.1234-.09.1851-.197.1851-.322 0-.1-.0353-.185-.1058-.253-.0705-.069-.1788-.121-.3249-.155l-.4837-.113c-.2657-.063-.4609-.161-.5856-.293-.1235-.133-.1852-.3-.1852-.5 0-.164.046-.309.1379-.435.0932-.126.2198-.225.3798-.297.1612-.071.3438-.107.5478-.107.2872 0 .5126.063.6764.189.165.126.2821.292.3514.498zm2.5528 1.066v-1.715h.4458v2.901h-.4458v-.491h-.0303c-.068.148-.1738.273-.3174.376-.1435.102-.3249.153-.5441.153-.1813 0-.3425-.039-.4836-.119-.141-.08-.2519-.201-.3325-.363s-.1209-.367-.1209-.614v-1.843h.4459v1.813c0 .212.0592.381.1775.507.1197.125.2721.188.4572.188.1109 0 .2236-.028.3382-.085.1159-.056.2128-.143.2909-.26.0794-.117.1191-.267.1191-.448zm1.3229 1.186v-3.869h.4458v1.429h.0378c.0328-.051.0781-.115.136-.193.0592-.079.1436-.15.2532-.212.1108-.063.2607-.094.4496-.094.2444 0 .4597.061.6461.183s.3319.295.4364.52c.1046.224.1568.488.1568.793 0 .307-.0522.574-.1568.799-.1045.224-.2493.398-.4345.522-.1851.122-.3986.183-.6404.183-.1864 0-.3357-.031-.4478-.093-.1121-.063-.1983-.134-.2588-.213-.0604-.081-.107-.148-.1398-.2h-.0529v.445zm.4383-1.451c0 .22.0321.413.0963.58s.1581.297.2815.392c.1234.093.2746.139.4534.139.1864 0 .342-.049.4666-.147.126-.1.2205-.233.2834-.401.0643-.168.0964-.356.0964-.563 0-.204-.0315-.387-.0945-.551-.0617-.165-.1555-.296-.2815-.391-.1247-.097-.2815-.146-.4704-.146-.1813 0-.3337.046-.4572.138-.1234.091-.2166.218-.2796.382-.0629.162-.0944.352-.0944.568zm4.8609-.801-.4005.114c-.0252-.067-.0624-.132-.1115-.195-.0478-.064-.1133-.117-.1965-.158-.0831-.042-.1895-.063-.3192-.063-.1776 0-.3256.041-.444.123-.1171.081-.1757.183-.1757.308 0 .111.0403.198.1209.263.0806.064.2066.117.3779.16l.4307.106c.2594.063.4528.159.58.289.1272.128.1908.294.1908.497 0 .166-.0479.315-.1436.446-.0945.131-.2267.234-.3967.31-.1701.075-.3678.113-.5932.113-.296 0-.541-.064-.7349-.193-.194-.128-.3168-.316-.3684-.563l.4231-.106c.0404.157.1166.274.2286.352.1134.078.2614.117.444.117.2078 0 .3728-.044.495-.132.1234-.09.1851-.197.1851-.322 0-.1-.0352-.185-.1058-.253-.0705-.069-.1788-.121-.3249-.155l-.4837-.113c-.2657-.063-.4609-.161-.5856-.293-.1234-.133-.1852-.3-.1852-.5 0-.164.046-.309.138-.435.0932-.126.2197-.225.3797-.297.1612-.071.3438-.107.5479-.107.2871 0 .5126.063.6763.189.165.126.2821.292.3514.498zm1.9029 2.313c-.2721 0-.5063-.064-.7028-.193-.1965-.128-.3476-.305-.4534-.531-.1058-.225-.1587-.483-.1587-.772 0-.295.0542-.555.1625-.781.1095-.226.2619-.403.4572-.531.1964-.128.4257-.192.6876-.192.2041 0 .3879.038.5517.113.1637.076.2978.182.4024.318.1045.136.1694.294.1946.476h-.4459c-.034-.133-.1096-.25-.2267-.352-.1159-.103-.272-.155-.4685-.155-.1738 0-.3262.046-.4572.136-.1297.09-.2311.216-.3042.38-.0718.163-.1076.353-.1076.572 0 .225.0352.42.1057.586.0718.166.1726.295.3023.387.131.092.2847.138.461.138.1159 0 .221-.02.3155-.06.0944-.04.1744-.098.2399-.174.0655-.075.1121-.166.1398-.272h.4459c-.0252.171-.0876.326-.1871.463-.0982.136-.2286.244-.391.325-.1612.079-.3489.119-.563.119zm1.7928-.061v-2.901h.4308v.438h.0302c.0529-.144.1486-.26.2872-.35.1385-.089.2947-.134.4685-.134.0327 0 .0737.001.1228.002s.0863.003.1115.006v.453c-.0152-.004-.0498-.009-.104-.017-.0529-.009-.1089-.013-.1681-.013-.1411 0-.267.03-.3778.089-.1096.058-.1965.138-.2607.242-.063.102-.0945.218-.0945.349v1.836zm1.9795 0v-2.901h.4458v2.901zm.2267-3.385c-.0869 0-.1619-.03-.2249-.089-.0617-.059-.0925-.13-.0925-.213s.0308-.155.0925-.214c.063-.059.138-.089.2249-.089s.1612.03.2229.089c.063.059.0944.131.0944.214s-.0314.154-.0944.213c-.0617.059-.136.089-.2229.089zm1.0962 3.385v-3.869h.4458v1.429h.0378c.0328-.051.0781-.115.136-.193.0592-.079.1436-.15.2532-.212.1108-.063.2607-.094.4496-.094.2444 0 .4597.061.6461.183s.3319.295.4364.52c.1046.224.1568.488.1568.793 0 .307-.0522.574-.1568.799-.1045.224-.2493.398-.4345.522-.1851.122-.3986.183-.6404.183-.1864 0-.3357-.031-.4478-.093-.1121-.063-.1983-.134-.2588-.213-.0604-.081-.107-.148-.1398-.2h-.0529v.445zm.4383-1.451c0 .22.0321.413.0963.58.0643.167.1581.297.2815.392.1234.093.2746.139.4534.139.1864 0 .342-.049.4667-.147.1259-.1.2204-.233.2833-.401.0643-.168.0964-.356.0964-.563 0-.204-.0315-.387-.0945-.551-.0617-.165-.1555-.296-.2815-.391-.1247-.097-.2815-.146-.4704-.146-.1813 0-.3337.046-.4572.138-.1234.091-.2166.218-.2796.382-.0629.162-.0944.352-.0944.568zm4.0221 1.512c-.2796 0-.5208-.062-.7236-.185-.2015-.125-.357-.299-.4666-.522-.1083-.224-.1625-.485-.1625-.782s.0542-.559.1625-.786c.1096-.228.262-.405.4572-.533.1965-.128.4257-.192.6876-.192.1512 0 .3004.025.4478.075.1473.051.2815.133.4024.246.1209.112.2172.261.289.446s.1077.413.1077.684v.189h-2.2368v-.386h1.7834c0-.164-.0327-.31-.0982-.438-.0643-.129-.1562-.23-.2759-.304-.1183-.075-.2581-.112-.4194-.112-.1775 0-.3312.044-.4609.133-.1285.086-.2274.2-.2966.34-.0693.139-.1039.289-.1039.449v.257c0 .219.0378.405.1133.557.0768.152.1833.267.3193.346.136.078.2941.117.4742.117.1171 0 .2229-.016.3174-.049.0957-.034.1782-.084.2475-.151.0692-.068.1228-.152.1605-.253l.4308.121c-.0454.146-.1216.274-.2286.385-.1071.11-.2393.195-.3967.257-.1575.061-.3344.091-.5309.091z"/><path d="m52.7871 105.666h31.6258v.363h-31.6258z"/><path d="m89.0554 104.608v-3.869h2.3351v.416h-1.8665v1.307h1.7456v.416h-1.7456v1.315h1.8967v.415zm4.2149.061c-.2419 0-.4553-.061-.6405-.183-.1851-.124-.33-.298-.4345-.522-.1045-.225-.1568-.492-.1568-.799 0-.305.0523-.569.1568-.793.1045-.225.25-.398.4364-.52s.4018-.183.6461-.183c.1889 0 .3382.031.4478.094.1108.062.1952.133.2531.212.0592.078.1052.142.1379.193h.0378v-1.429h.4459v3.869h-.4308v-.445h-.0529c-.0327.052-.0793.119-.1398.2-.0604.079-.1467.15-.2588.213-.1121.062-.2613.093-.4477.093zm.0604-.401c.1789 0 .33-.046.4534-.139.1234-.095.2173-.225.2815-.392s.0964-.36.0964-.58c0-.216-.0315-.406-.0945-.568-.063-.164-.1562-.291-.2796-.382-.1234-.092-.2758-.138-.4572-.138-.1889 0-.3463.049-.4723.146-.1247.095-.2185.226-.2815.391-.0617.164-.0926.347-.0926.551 0 .207.0315.395.0945.563.0642.168.1587.301.2834.401.1259.098.2821.147.4685.147zm2.148.34v-2.901h.4459v2.901zm.2267-3.385c-.0869 0-.1618-.03-.2248-.089-.0617-.059-.0926-.13-.0926-.213s.0309-.155.0926-.214c.063-.059.1379-.089.2248-.089s.1612.03.223.089c.0629.059.0944.131.0944.214s-.0315.154-.0944.213c-.0618.059-.1361.089-.223.089zm2.2978.484v.377h-1.5038v-.377zm-1.0655-.696h.4458v2.766c0 .126.0183.221.0548.284.0378.061.0857.103.1436.124.0592.02.1215.03.187.03.0491 0 .0894-.002.1209-.007.0315-.006.0567-.011.0756-.015l.0907.4c-.0302.012-.0724.023-.1266.034-.0542.013-.1228.019-.2059.019-.126 0-.2494-.027-.3703-.081-.1197-.054-.2192-.137-.2985-.248-.0781-.11-.1171-.25-.1171-.419zm4.4493 3.658c-.28 0-.521-.062-.724-.185-.201-.125-.357-.299-.466-.522-.109-.224-.163-.485-.163-.782s.054-.559.163-.786c.109-.228.262-.405.457-.533.196-.128.425-.192.687-.192.152 0 .301.025.448.075.148.051.282.133.403.246.12.112.217.261.289.446.071.185.107.413.107.684v.189h-2.237v-.386h1.784c0-.164-.033-.31-.098-.438-.065-.129-.157-.23-.276-.304-.119-.075-.258-.112-.42-.112-.177 0-.331.044-.461.133-.128.086-.227.2-.296.34-.069.139-.104.289-.104.449v.257c0 .219.038.405.113.557.077.152.184.267.32.346.136.078.294.117.474.117.117 0 .223-.016.317-.049.096-.034.178-.084.248-.151.069-.068.122-.152.16-.253l.431.121c-.045.146-.122.274-.229.385-.107.11-.239.195-.396.257-.158.061-.335.091-.531.091zm1.88-.061v-2.901h.43v.453h.038c.06-.155.158-.275.293-.361.135-.087.296-.13.485-.13.192 0 .351.043.478.13.129.086.229.206.301.361h.03c.074-.15.186-.269.334-.357.149-.089.327-.134.535-.134.259 0 .472.081.637.244.165.161.247.412.247.753v1.942h-.446v-1.942c0-.214-.058-.367-.175-.459-.118-.092-.255-.138-.414-.138-.204 0-.362.062-.474.185s-.168.278-.168.465v1.889h-.454v-1.987c0-.165-.053-.298-.16-.399-.108-.102-.245-.153-.414-.153-.116 0-.224.031-.325.093-.1.062-.18.147-.242.257-.06.108-.091.233-.091.376v1.813zm5.477.068c-.184 0-.351-.034-.5-.103-.15-.071-.269-.172-.357-.305-.089-.133-.133-.294-.133-.483 0-.167.033-.301.099-.405.065-.104.153-.186.262-.245.11-.059.231-.103.363-.132.133-.031.268-.055.402-.072.177-.023.32-.04.429-.051.111-.013.192-.034.242-.063.052-.029.077-.079.077-.151v-.015c0-.186-.051-.331-.153-.434-.1-.104-.253-.155-.459-.155-.213 0-.379.046-.5.14-.121.093-.206.192-.255.298l-.424-.151c.076-.176.177-.314.303-.412.127-.099.265-.169.415-.208.151-.04.3-.06.446-.06.093 0 .2.011.321.034.123.021.24.066.354.134s.209.171.285.308c.075.137.113.321.113.552v1.911h-.446v-.393h-.022c-.03.063-.081.131-.151.203-.071.071-.165.132-.282.183-.117.05-.26.075-.429.075zm.068-.4c.177 0 .325-.035.446-.104.122-.069.214-.159.276-.268.063-.11.094-.225.094-.346v-.408c-.018.023-.06.043-.124.062-.063.018-.136.034-.219.048-.082.012-.162.023-.24.034-.077.008-.14.016-.187.022-.116.015-.225.04-.325.074-.1.033-.18.082-.242.149-.061.066-.091.155-.091.268 0 .155.057.272.172.352.116.078.263.117.44.117zm2.076.332v-2.901h.446v2.901zm.227-3.385c-.087 0-.162-.03-.225-.089-.062-.059-.093-.13-.093-.213s.031-.155.093-.214c.063-.059.138-.089.225-.089s.161.03.223.089c.063.059.094.131.094.214s-.031.154-.094.213c-.062.059-.136.089-.223.089zm1.481-.484v3.869h-.446v-3.869zm4.369 1.617-.401.114c-.025-.067-.062-.132-.111-.195-.048-.064-.114-.117-.197-.158-.083-.042-.189-.063-.319-.063-.178 0-.326.041-.444.123-.117.081-.176.183-.176.308 0 .111.041.198.121.263.081.064.207.117.378.16l.431.106c.259.063.453.159.58.289.127.128.191.294.191.497 0 .166-.048.315-.144.446-.094.131-.227.234-.397.31-.17.075-.368.113-.593.113-.296 0-.541-.064-.735-.193-.194-.128-.317-.316-.368-.563l.423-.106c.04.157.116.274.229.352s.261.117.443.117c.208 0 .373-.044.495-.132.124-.09.186-.197.186-.322 0-.1-.036-.185-.106-.253-.071-.069-.179-.121-.325-.155l-.484-.113c-.266-.063-.461-.161-.585-.293-.124-.133-.186-.3-.186-.5 0-.164.046-.309.138-.435.094-.126.22-.225.38-.297.161-.071.344-.107.548-.107.287 0 .513.063.676.189.165.126.282.292.352.498zm1.94 2.313c-.279 0-.52-.062-.723-.185-.202-.125-.357-.299-.467-.522-.108-.224-.162-.485-.162-.782s.054-.559.162-.786c.11-.228.262-.405.457-.533.197-.128.426-.192.688-.192.151 0 .3.025.448.075.147.051.281.133.402.246.121.112.217.261.289.446s.108.413.108.684v.189h-2.237v-.386h1.783c0-.164-.032-.31-.098-.438-.064-.129-.156-.23-.276-.304-.118-.075-.258-.112-.419-.112-.178 0-.331.044-.461.133-.128.086-.227.2-.297.34-.069.139-.103.289-.103.449v.257c0 .219.037.405.113.557.077.152.183.267.319.346.136.078.294.117.474.117.117 0 .223-.016.318-.049.095-.034.178-.084.247-.151.069-.068.123-.152.161-.253l.431.121c-.046.146-.122.274-.229.385-.107.11-.239.195-.397.257-.157.061-.334.091-.531.091zm3.142-2.962v.377h-1.504v-.377zm-1.065-.696h.445v2.766c0 .126.019.221.055.284.038.061.086.103.144.124.059.02.121.03.187.03.049 0 .089-.002.121-.007.031-.006.056-.011.075-.015l.091.4c-.03.012-.072.023-.127.034-.054.013-.122.019-.206.019-.125 0-.249-.027-.37-.081-.119-.054-.219-.137-.298-.248-.078-.11-.117-.25-.117-.419zm2.998.696v.377h-1.504v-.377zm-1.066-.696h.446v2.766c0 .126.018.221.055.284.038.061.086.103.143.124.06.02.122.03.187.03.05 0 .09-.002.121-.007.032-.006.057-.011.076-.015l.091.4c-.031.012-.073.023-.127.034-.054.013-.123.019-.206.019-.126 0-.249-.027-.37-.081-.12-.054-.219-.137-.299-.248-.078-.11-.117-.25-.117-.419zm1.736 3.597v-2.901h.446v2.901zm.227-3.385c-.087 0-.162-.03-.225-.089-.061-.059-.092-.13-.092-.213s.031-.155.092-.214c.063-.059.138-.089.225-.089s.161.03.223.089c.063.059.094.131.094.214s-.031.154-.094.213c-.062.059-.136.089-.223.089zm1.482 1.64v1.745h-.446v-2.901h.431v.453h.037c.068-.147.172-.266.31-.355.139-.091.318-.136.537-.136.196 0 .368.04.516.121.147.079.261.2.343.362s.123.366.123.613v1.843h-.446v-1.813c0-.228-.059-.406-.177-.533-.119-.128-.281-.193-.488-.193-.142 0-.269.031-.381.093-.111.062-.199.152-.263.27s-.096.262-.096.431zm3.837 2.894c-.215 0-.4-.028-.555-.083-.155-.054-.284-.126-.388-.215-.102-.089-.183-.183-.243-.284l.355-.249c.04.053.091.113.153.181.062.069.146.129.253.18.108.051.25.077.425.077.234 0 .428-.057.58-.17.153-.113.229-.291.229-.533v-.589h-.038c-.033.053-.079.118-.14.196-.059.077-.145.146-.257.206-.111.059-.26.089-.449.089-.235 0-.445-.055-.631-.166s-.332-.272-.441-.484c-.107-.211-.16-.468-.16-.771 0-.297.052-.556.157-.776.104-.222.25-.393.436-.514.186-.122.402-.183.646-.183.189 0 .339.031.45.094.112.062.198.133.257.212.06.078.107.142.14.193h.045v-.461h.431v2.985c0 .249-.057.452-.17.608-.113.157-.264.273-.454.346-.189.074-.399.111-.631.111zm-.015-1.594c.179 0 .33-.041.453-.123.124-.082.218-.2.282-.354.064-.153.096-.337.096-.551 0-.209-.031-.394-.094-.554s-.156-.285-.28-.376c-.123-.09-.276-.136-.457-.136-.189 0-.346.048-.472.144-.125.096-.219.224-.282.385-.061.161-.092.34-.092.537 0 .201.031.38.094.534.064.154.159.275.284.363.125.087.282.131.468.131zm4.141-1.807-.4.114c-.026-.067-.063-.132-.112-.195-.048-.064-.113-.117-.196-.158-.083-.042-.19-.063-.32-.063-.177 0-.325.041-.443.123-.118.081-.176.183-.176.308 0 .111.04.198.121.263.08.064.206.117.378.16l.43.106c.26.063.453.159.58.289.127.128.191.294.191.497 0 .166-.048.315-.143.446s-.227.234-.397.31c-.17.075-.368.113-.593.113-.296 0-.541-.064-.735-.193-.194-.128-.317-.316-.369-.563l.423-.106c.041.157.117.274.229.352.113.078.261.117.444.117.208 0 .373-.044.495-.132.123-.09.185-.197.185-.322 0-.1-.035-.185-.106-.253-.07-.069-.179-.121-.325-.155l-.483-.113c-.266-.063-.461-.161-.586-.293-.123-.133-.185-.3-.185-.5 0-.164.046-.309.138-.435.093-.126.22-.225.38-.297.161-.071.343-.107.547-.107.288 0 .513.063.677.189.165.126.282.292.351.498z"/><path d="m88.5869 105.666h46.0531v.363h-46.0531z"/><path d="m142.969 101.948h-.469c-.028-.134-.076-.253-.145-.355-.068-.102-.151-.187-.25-.257-.097-.07-.204-.123-.323-.158-.118-.036-.242-.053-.37-.053-.234 0-.447.059-.637.177-.189.119-.339.293-.451.524-.111.23-.166.513-.166.848s.055.618.166.848c.112.231.262.405.451.523.19.119.403.178.637.178.128 0 .252-.018.37-.053.119-.035.226-.087.323-.157.099-.07.182-.157.25-.259.069-.103.117-.221.145-.355h.469c-.036.198-.1.375-.193.531s-.209.289-.348.399c-.138.108-.294.191-.466.247-.172.057-.355.085-.55.085-.33 0-.623-.08-.88-.242-.257-.161-.46-.39-.607-.687s-.221-.65-.221-1.058.074-.761.221-1.058.35-.527.607-.688.55-.242.88-.242c.195 0 .378.029.55.085.172.057.328.14.466.25.139.108.255.24.348.397.093.154.157.331.193.53zm1.875 2.721c-.262 0-.492-.062-.689-.187s-.351-.299-.461-.523c-.11-.225-.165-.487-.165-.786 0-.303.055-.567.165-.792s.264-.4.461-.525.427-.187.689-.187.491.062.688.187c.198.125.351.3.461.525.111.225.166.489.166.792 0 .299-.055.561-.166.786-.11.224-.263.398-.461.523-.197.125-.426.187-.688.187zm0-.401c.199 0 .363-.051.491-.153.129-.102.224-.236.286-.402.061-.166.092-.346.092-.54s-.031-.375-.092-.543c-.062-.167-.157-.303-.286-.406-.128-.103-.292-.155-.491-.155s-.363.052-.491.155c-.129.103-.224.239-.285.406-.062.168-.093.349-.093.543s.031.374.093.54c.061.166.156.3.285.402.128.102.292.153.491.153zm2.441-1.405v1.745h-.445v-2.901h.43v.453h.038c.068-.147.171-.266.31-.355.139-.091.317-.136.537-.136.196 0 .368.04.515.121.148.079.262.2.344.362s.123.366.123.613v1.843h-.446v-1.813c0-.228-.059-.406-.178-.533-.118-.128-.28-.193-.487-.193-.142 0-.269.031-.382.093-.11.062-.198.152-.262.27s-.097.262-.097.431zm3.929-1.156v.377h-1.504v-.377zm-1.066-.696h.446v2.766c0 .126.018.221.055.284.038.061.085.103.143.124.06.02.122.03.187.03.049 0 .09-.002.121-.007.032-.006.057-.011.076-.015l.091.4c-.031.012-.073.023-.127.034-.054.013-.123.019-.206.019-.126 0-.249-.027-.37-.081-.12-.054-.219-.137-.299-.248-.078-.11-.117-.25-.117-.419zm2.59 3.665c-.184 0-.351-.034-.5-.103-.15-.071-.269-.172-.357-.305-.089-.133-.133-.294-.133-.483 0-.167.033-.301.098-.405.066-.104.154-.186.263-.245.11-.059.231-.103.363-.132.133-.031.267-.055.402-.072.177-.023.319-.04.429-.051.111-.013.192-.034.242-.063.052-.029.077-.079.077-.151v-.015c0-.186-.051-.331-.153-.434-.1-.104-.253-.155-.459-.155-.213 0-.379.046-.5.14-.121.093-.206.192-.255.298l-.424-.151c.076-.176.177-.314.303-.412.127-.099.265-.169.415-.208.151-.04.3-.06.446-.06.093 0 .2.011.321.034.122.021.24.066.354.134s.209.171.285.308c.075.137.113.321.113.552v1.911h-.446v-.393h-.022c-.031.063-.081.131-.151.203-.071.071-.165.132-.282.183-.117.05-.26.075-.429.075zm.068-.4c.177 0 .325-.035.446-.104.122-.069.214-.159.276-.268.063-.11.094-.225.094-.346v-.408c-.019.023-.06.043-.124.062-.063.018-.136.034-.219.048-.082.012-.162.023-.24.034-.077.008-.14.016-.187.022-.116.015-.225.04-.325.074-.1.033-.18.082-.242.149-.061.066-.091.155-.091.268 0 .155.057.272.172.352.116.078.263.117.44.117zm3.255.393c-.272 0-.506-.064-.703-.193-.196-.128-.348-.305-.453-.531-.106-.225-.159-.483-.159-.772 0-.295.054-.555.162-.781.11-.226.262-.403.458-.531s.425-.192.687-.192c.204 0 .388.038.552.113.164.076.298.182.402.318.105.136.17.294.195.476h-.446c-.034-.133-.11-.25-.227-.352-.116-.103-.272-.155-.468-.155-.174 0-.326.046-.457.136-.13.09-.231.216-.305.38-.071.163-.107.353-.107.572 0 .225.035.42.106.586s.172.295.302.387c.131.092.285.138.461.138.116 0 .221-.02.315-.06.095-.04.175-.098.24-.174.066-.075.112-.166.14-.272h.446c-.025.171-.088.326-.187.463-.098.136-.229.244-.391.325-.161.079-.349.119-.563.119zm3.055-2.962v.377h-1.504v-.377zm-1.066-.696h.446v2.766c0 .126.018.221.055.284.038.061.085.103.143.124.06.02.122.03.187.03.05 0 .09-.002.121-.007.032-.006.057-.011.076-.015l.091.4c-.031.012-.073.023-.127.034-.054.013-.123.019-.206.019-.126 0-.249-.027-.37-.081-.12-.054-.219-.137-.299-.248-.078-.11-.117-.25-.117-.419zm5.061 2.411v-1.715h.446v2.901h-.446v-.491h-.03c-.068.148-.174.273-.317.376-.144.102-.325.153-.544.153-.182 0-.343-.039-.484-.119s-.252-.201-.332-.363c-.081-.162-.121-.367-.121-.614v-1.843h.445v1.813c0 .212.06.381.178.507.12.125.272.188.457.188.111 0 .224-.028.338-.085.116-.056.213-.143.291-.26.08-.117.119-.267.119-.448zm3.318-1.066-.4.114c-.025-.067-.063-.132-.112-.195-.048-.064-.113-.117-.196-.158-.083-.042-.19-.063-.319-.063-.178 0-.326.041-.444.123-.118.081-.176.183-.176.308 0 .111.04.198.121.263.08.064.206.117.378.16l.43.106c.26.063.453.159.58.289.128.128.191.294.191.497 0 .166-.048.315-.143.446s-.227.234-.397.31c-.17.075-.368.113-.593.113-.296 0-.541-.064-.735-.193-.194-.128-.317-.316-.369-.563l.424-.106c.04.157.116.274.228.352.113.078.261.117.444.117.208 0 .373-.044.495-.132.123-.09.185-.197.185-.322 0-.1-.035-.185-.106-.253-.07-.069-.178-.121-.325-.155l-.483-.113c-.266-.063-.461-.161-.586-.293-.123-.133-.185-.3-.185-.5 0-.164.046-.309.138-.435.093-.126.22-.225.38-.297.161-.071.344-.107.548-.107.287 0 .512.063.676.189.165.126.282.292.351.498z"/><path d="m139.387 105.666h27.36v.363h-27.36z"/><path d="m171.656 104.608v-3.869h1.307c.304 0 .552.055.745.165.194.108.337.255.43.44.094.185.14.392.14.62 0 .227-.046.435-.14.621-.092.186-.234.335-.427.446-.192.109-.439.164-.74.164h-.937v-.415h.922c.208 0 .374-.036.5-.108s.218-.169.274-.291c.058-.123.087-.263.087-.417 0-.155-.029-.294-.087-.416-.056-.122-.148-.218-.275-.287-.128-.071-.296-.106-.507-.106h-.823v3.453zm3.317 0v-2.901h.43v.438h.03c.053-.144.149-.26.288-.35.138-.089.294-.134.468-.134.033 0 .074.001.123.002s.086.003.111.006v.453c-.015-.004-.049-.009-.103-.017-.053-.009-.109-.013-.169-.013-.141 0-.267.03-.377.089-.11.058-.197.138-.261.242-.063.102-.095.218-.095.349v1.836zm1.979 0v-2.901h.446v2.901zm.227-3.385c-.087 0-.162-.03-.225-.089-.062-.059-.093-.13-.093-.213s.031-.155.093-.214c.063-.059.138-.089.225-.089s.161.03.223.089c.063.059.094.131.094.214s-.031.154-.094.213c-.062.059-.136.089-.223.089zm3.408.484-1.073 2.901h-.453l-1.073-2.901h.483l.801 2.312h.031l.801-2.312zm1.354 2.969c-.184 0-.35-.034-.5-.103-.15-.071-.269-.172-.357-.305-.089-.133-.133-.294-.133-.483 0-.167.033-.301.099-.405.065-.104.153-.186.262-.245.11-.059.231-.103.363-.132.133-.031.268-.055.402-.072.177-.023.32-.04.429-.051.111-.013.192-.034.242-.063.052-.029.077-.079.077-.151v-.015c0-.186-.051-.331-.153-.434-.1-.104-.253-.155-.459-.155-.212 0-.379.046-.5.14-.121.093-.206.192-.255.298l-.423-.151c.075-.176.176-.314.302-.412.127-.099.266-.169.415-.208.152-.04.3-.06.446-.06.093 0 .201.011.321.034.123.021.24.066.354.134s.209.171.285.308.113.321.113.552v1.911h-.446v-.393h-.022c-.03.063-.081.131-.151.203-.071.071-.165.132-.282.183-.117.05-.26.075-.429.075zm.068-.4c.177 0 .325-.035.446-.104.122-.069.214-.159.276-.268.063-.11.094-.225.094-.346v-.408c-.018.023-.06.043-.124.062-.063.018-.136.034-.219.048-.082.012-.162.023-.24.034-.077.008-.139.016-.187.022-.116.015-.225.04-.325.074-.1.033-.18.082-.242.149-.061.066-.091.155-.091.268 0 .155.058.272.172.352.116.078.263.117.44.117zm3.255.393c-.272 0-.506-.064-.703-.193-.196-.128-.347-.305-.453-.531-.106-.225-.159-.483-.159-.772 0-.295.054-.555.163-.781s.262-.403.457-.531c.196-.128.425-.192.687-.192.204 0 .388.038.552.113.164.076.298.182.402.318.105.136.17.294.195.476h-.446c-.034-.133-.109-.25-.227-.352-.115-.103-.272-.155-.468-.155-.174 0-.326.046-.457.136-.13.09-.231.216-.304.38-.072.163-.108.353-.108.572 0 .225.035.42.106.586.072.166.172.295.302.387.131.092.285.138.461.138.116 0 .221-.02.315-.06.095-.04.175-.098.24-.174.066-.075.112-.166.14-.272h.446c-.025.171-.087.326-.187.463-.098.136-.229.244-.391.325-.161.079-.349.119-.563.119zm2.08 1.028c-.076 0-.143-.007-.202-.019s-.1-.023-.123-.034l.113-.393c.109.027.204.038.288.03.083-.008.156-.045.221-.112.065-.065.125-.171.179-.319l.083-.226-1.073-2.917h.484l.801 2.312h.03l.801-2.312h.484l-1.232 3.325c-.056.149-.124.274-.206.372-.082.099-.177.173-.285.221-.107.048-.228.072-.363.072z"/><path d="m171.188 105.666h18.423v.363h-18.423z"/><path d="m54.5478 109.779v3.869h-.4685v-3.377h-.0226l-.9446.627v-.476l.9672-.643zm1.0221 3.076v-.385l1.7003-2.691h.2796v.597h-.1889l-1.2847 2.033v.03h2.2897v.416zm1.8212.793v-.91-.18-2.779h.4459v3.869zm3.9499 0-1.058-3.869h.4761l.8086 3.152h.0377l.8237-3.152h.529l.8237 3.152h.0378l.8086-3.152h.4761l-1.058 3.869h-.4836l-.854-3.083h-.0302l-.8539 3.083zm4.8703.068c-.1839 0-.3507-.034-.5006-.103-.1499-.071-.2689-.172-.3571-.305-.0881-.133-.1322-.294-.1322-.483 0-.167.0327-.301.0982-.405s.153-.186.2626-.245.2305-.103.3627-.132c.1335-.031.2677-.055.4024-.072.1764-.023.3193-.04.4289-.051.1108-.013.1914-.034.2418-.063.0517-.028.0775-.079.0775-.151v-.015c0-.186-.051-.331-.1531-.434-.1007-.104-.2537-.155-.459-.155-.2129 0-.3798.046-.5007.14-.1209.093-.2059.192-.255.298l-.4232-.151c.0756-.176.1763-.314.3023-.412.1272-.099.2657-.169.4156-.208.1511-.04.2998-.06.4459-.06.0932 0 .2002.011.3211.034.1222.021.2399.066.3533.134.1146.068.2097.171.2853.308.0755.137.1133.321.1133.552v1.911h-.4458v-.393h-.0227c-.0302.063-.0806.131-.1511.203-.0706.071-.1644.133-.2815.183-.1172.05-.2601.075-.4289.075zm.068-.4c.1764 0 .325-.035.4459-.104.1222-.069.2141-.159.2758-.268.063-.11.0945-.225.0945-.346v-.408c-.0189.023-.0605.043-.1247.062-.063.018-.136.034-.2192.048-.0818.012-.1618.023-.2399.034-.0768.008-.1392.016-.187.022-.1159.015-.2242.04-.325.074-.0995.033-.1801.082-.2418.149-.0604.066-.0907.155-.0907.268 0 .155.0573.272.172.352.1158.078.2625.117.4401.117zm2.5217-3.537v3.869h-.4459v-3.869zm1.2624 0v3.869h-.4458v-3.869zm4.4892.968c-.0226-.192-.1146-.34-.2758-.446s-.3589-.159-.5932-.159c-.1713 0-.3212.028-.4496.083-.1272.056-.2267.132-.2985.229-.0706.097-.1058.207-.1058.33 0 .104.0245.192.0737.267.0503.073.1146.134.1927.183.078.048.1599.088.2456.119.0856.03.1643.055.2361.074l.393.106c.1007.026.2128.063.3362.109.1247.047.2437.11.3571.191.1146.079.2091.181.2834.306s.1114.278.1114.459c0 .209-.0547.398-.1643.567-.1083.169-.267.303-.4761.402-.2078.1-.4603.149-.7576.149-.2771 0-.517-.044-.7198-.134-.2015-.089-.3602-.214-.476-.374-.1146-.16-.1795-.345-.1946-.557h.4836c.0126.146.0617.267.1474.363.0869.094.1964.165.3287.211.1335.046.2771.068.4307.068.1789 0 .3395-.029.4818-.087.1423-.059.255-.141.3381-.245.0832-.106.1247-.229.1247-.371 0-.128-.0359-.233-.1077-.313-.0717-.081-.1662-.146-.2833-.197-.1172-.05-.2437-.094-.3798-.132l-.476-.136c-.3023-.087-.5416-.211-.7179-.372-.1764-.161-.2645-.372-.2645-.633 0-.217.0585-.405.1757-.567.1184-.162.2771-.288.476-.378.2003-.09.4239-.136.6707-.136.2494 0 .4711.045.665.135.194.088.3476.209.461.362.1146.154.175.328.1813.524zm2.4782 0v.377h-1.5038v-.377zm-1.0655-.696h.4458v2.766c0 .126.0183.221.0548.284.0378.061.0857.103.1436.124.0592.02.1215.03.187.03.0492 0 .0895-.002.1209-.007.0315-.006.0567-.011.0756-.015l.0907.4c-.0302.012-.0724.023-.1266.034-.0541.013-.1228.019-.2059.019-.126 0-.2494-.027-.3703-.081-.1196-.054-.2191-.137-.2985-.247-.0781-.111-.1171-.251-.1171-.42zm1.7362 3.597v-2.901h.4307v.438h.0302c.0529-.144.1486-.26.2872-.35.1385-.089.2947-.134.4685-.134.0328 0 .0737.001.1228.002s.0863.003.1115.006v.453c-.0151-.004-.0498-.009-.1039-.017-.0529-.009-.109-.013-.1682-.013-.141 0-.267.03-.3778.089-.1096.058-.1965.138-.2607.242-.063.102-.0945.218-.0945.349v1.836zm3.1077.061c-.2796 0-.5208-.062-.7236-.185-.2015-.125-.357-.299-.4666-.522-.1083-.224-.1625-.485-.1625-.782s.0542-.559.1625-.786c.1096-.228.262-.405.4572-.532.1965-.129.4257-.193.6877-.193.1511 0 .3003.025.4477.075.1474.051.2815.133.4024.246.1209.112.2173.261.2891.446.0717.185.1076.413.1076.684v.189h-2.2368v-.386h1.7834c0-.163-.0327-.31-.0982-.438-.0642-.128-.1562-.23-.2758-.304-.1184-.074-.2582-.112-.4194-.112-.1776 0-.3313.044-.461.133-.1285.086-.2273.2-.2966.34-.0693.139-.1039.289-.1039.449v.257c0 .219.0378.405.1133.558.0769.151.1833.266.3193.345.136.078.2941.117.4742.117.1171 0 .2229-.016.3174-.049.0957-.034.1782-.084.2475-.151.0692-.068.1228-.152.1606-.253l.4307.121c-.0453.146-.1215.274-.2286.385-.107.11-.2393.195-.3967.257-.1575.061-.3344.091-.5309.091zm3.0964 0c-.2796 0-.5208-.062-.7236-.185-.2015-.125-.357-.299-.4666-.522-.1083-.224-.1625-.485-.1625-.782s.0542-.559.1625-.786c.1096-.228.262-.405.4572-.532.1965-.129.4257-.193.6877-.193.1511 0 .3004.025.4477.075.1474.051.2815.133.4024.246.1209.112.2173.261.2891.446s.1076.413.1076.684v.189h-2.2368v-.386h1.7834c0-.163-.0327-.31-.0982-.438-.0642-.128-.1562-.23-.2758-.304-.1184-.074-.2582-.112-.4194-.112-.1776 0-.3313.044-.461.133-.1285.086-.2273.2-.2966.34-.0693.139-.1039.289-.1039.449v.257c0 .219.0378.405.1133.558.0769.151.1833.266.3193.345.136.078.2941.117.4742.117.1171 0 .2229-.016.3174-.049.0957-.034.1782-.084.2475-.151.0693-.068.1228-.152.1606-.253l.4307.121c-.0453.146-.1215.274-.2286.385-.107.11-.2393.195-.3967.257-.1575.061-.3344.091-.5309.091zm3.1418-2.962v.377h-1.5038v-.377zm-1.0656-.696h.4459v2.766c0 .126.0183.221.0548.284.0378.061.0856.103.1436.124.0592.02.1215.03.187.03.0491 0 .0894-.002.1209-.007.0315-.006.0567-.011.0756-.015l.0907.4c-.0303.012-.0725.023-.1266.034-.0542.013-.1228.019-.2059.019-.126 0-.2494-.027-.3703-.081-.1197-.054-.2192-.137-.2985-.247-.0781-.111-.1172-.251-.1172-.42zm2.4012 3.068-.0302.204c-.0214.144-.0542.298-.0982.461-.0429.164-.0876.318-.1342.463s-.085.26-.1152.346h-.3401c.0164-.081.0378-.187.0643-.319.0264-.132.0529-.28.0793-.444.0277-.163.0504-.329.068-.499l.0227-.212zm2.3148.529v-.34l1.2771-1.398c.1499-.163.2733-.306.3703-.427.0969-.122.1687-.236.2153-.343.0479-.109.0718-.222.0718-.34 0-.137-.0327-.254-.0982-.354-.0643-.099-.1524-.176-.2645-.23s-.238-.081-.3778-.081c-.1487 0-.2784.03-.3892.092-.1096.061-.1946.146-.2551.255-.0592.11-.0888.238-.0888.386h-.4458c0-.227.0523-.426.1568-.597.1045-.172.2468-.305.427-.401.1813-.096.3847-.144.6102-.144.2267 0 .4276.048.6026.144.1751.096.3124.225.4119.387.0995.163.1492.344.1492.543 0 .142-.0258.281-.0774.417-.0504.135-.1386.285-.2645.452-.1247.165-.2979.366-.5196.604l-.869.93v.03h1.7985v.415zm4.4831.053c-.2847 0-.5271-.077-.7274-.232-.2002-.156-.3533-.382-.4591-.678-.1058-.297-.1587-.656-.1587-1.077 0-.418.0529-.775.1587-1.071.1071-.298.2607-.524.461-.68.2015-.158.4433-.237.7255-.237.2821 0 .5233.079.7235.237.2015.156.3552.382.461.68.107.296.1606.653.1606 1.071 0 .421-.0529.78-.1587 1.077-.1058.296-.2588.522-.4591.678-.2003.155-.4427.232-.7273.232zm0-.415c.2821 0 .5012-.136.6574-.408s.2343-.66.2343-1.164c0-.335-.0359-.62-.1077-.856-.0706-.235-.1726-.415-.3061-.538-.1322-.124-.2915-.185-.4779-.185-.2796 0-.4982.137-.6556.413-.1574.275-.2361.663-.2361 1.166 0 .335.0352.62.1057.854.0706.234.172.412.3042.534.1335.123.2941.184.4818.184zm3.3325-2.539v.377h-1.5038v-.377zm-1.0655-.696h.4459v2.766c0 .126.0182.221.0547.284.0378.061.0857.103.1436.124.0592.02.1216.03.1871.03.0491 0 .0894-.002.1209-.007.0314-.006.0566-.011.0755-.015l.0907.4c-.0302.012-.0724.023-.1266.034-.0541.013-.1228.019-.2059.019-.1259 0-.2494-.027-.3703-.081-.1196-.054-.2191-.137-.2985-.247-.0781-.111-.1171-.251-.1171-.42zm2.2444 1.852v1.745h-.4459v-3.869h.4459v1.421h.0378c.068-.15.17-.269.3059-.357.137-.089.32-.134.548-.134.198 0 .371.04.52.119.148.078.263.198.345.361.083.161.125.366.125.616v1.843h-.446v-1.813c0-.231-.06-.409-.179-.535-.119-.127-.283-.191-.493-.191-.147 0-.278.031-.393.093-.1151.062-.2057.152-.2725.27-.0655.118-.0982.262-.0982.431zm4.2537 1.745v-3.869h2.32v.416h-1.851v1.307h1.677v.416h-1.677v1.73zm3.508-3.869v3.869h-.446v-3.869zm1.996 3.93c-.262 0-.492-.062-.69-.187-.196-.125-.35-.299-.461-.523-.11-.225-.164-.487-.164-.786 0-.303.054-.566.164-.792.111-.225.265-.4.461-.525.198-.125.428-.187.69-.187s.491.062.687.187c.198.125.352.3.461.525.111.226.166.489.166.792 0 .299-.055.561-.166.786-.109.224-.263.398-.461.523-.196.125-.425.187-.687.187zm0-.401c.199 0 .362-.051.491-.153.128-.102.223-.236.285-.402s.093-.346.093-.54-.031-.375-.093-.543c-.062-.167-.157-.302-.285-.406-.129-.103-.292-.155-.491-.155s-.363.052-.492.155c-.128.104-.223.239-.285.406-.062.168-.092.349-.092.543s.03.374.092.54.157.3.285.402c.129.102.293.153.492.153zm3.174.401c-.262 0-.492-.062-.69-.187-.196-.125-.35-.299-.461-.523-.109-.225-.164-.487-.164-.786 0-.303.055-.566.164-.792.111-.225.265-.4.461-.525.198-.125.428-.187.69-.187s.491.062.688.187.351.3.461.525c.11.226.166.489.166.792 0 .299-.056.561-.166.786-.11.224-.264.398-.461.523s-.426.187-.688.187zm0-.401c.199 0 .363-.051.491-.153.129-.102.224-.236.285-.402.062-.166.093-.346.093-.54s-.031-.375-.093-.543c-.061-.167-.156-.302-.285-.406-.128-.103-.292-.155-.491-.155s-.363.052-.491.155c-.129.104-.224.239-.286.406-.061.168-.092.349-.092.543s.031.374.092.54c.062.166.157.3.286.402.128.102.292.153.491.153zm1.995.34v-2.901h.431v.438h.03c.053-.144.149-.26.287-.35.139-.089.295-.134.469-.134.033 0 .074.001.123.002s.086.003.111.006v.453c-.015-.004-.049-.009-.104-.017-.053-.009-.109-.013-.168-.013-.141 0-.267.03-.378.089-.109.058-.196.138-.26.242-.063.102-.095.218-.095.349v1.836zm2.312-.529-.03.204c-.021.144-.054.298-.098.461-.043.164-.088.318-.134.463-.047.145-.085.26-.116.346h-.34c.017-.081.038-.187.065-.319.026-.132.053-.28.079-.444.028-.163.05-.329.068-.499l.023-.212zm5.451-3.34v3.869h-.453l-2.109-3.037h-.037v3.037h-.469v-3.869h.453l2.116 3.046h.038v-3.046zm2.094 3.93c-.28 0-.521-.062-.724-.185-.201-.125-.357-.299-.466-.522-.109-.224-.163-.485-.163-.782s.054-.559.163-.786c.109-.228.262-.405.457-.532.196-.129.425-.193.687-.193.152 0 .301.025.448.075.148.051.282.133.403.246.121.112.217.261.289.446.071.185.107.413.107.684v.189h-2.236v-.386h1.783c0-.163-.033-.31-.098-.438s-.156-.23-.276-.304c-.119-.074-.258-.112-.42-.112-.177 0-.331.044-.461.133-.128.086-.227.2-.296.34-.069.139-.104.289-.104.449v.257c0 .219.038.405.113.558.077.151.184.266.32.345.136.078.294.117.474.117.117 0 .223-.016.317-.049.096-.034.178-.084.248-.151.069-.068.122-.152.16-.253l.431.121c-.045.146-.122.274-.229.385-.107.11-.239.195-.396.257-.158.061-.335.091-.531.091zm2.537-.061-.884-2.901h.468l.628 2.221h.03l.619-2.221h.477l.612 2.214h.03l.627-2.214h.469l-.885 2.901h-.438l-.635-2.229h-.045l-.635 2.229zm4.889-3.869h.537l1.073 1.806h.045l1.073-1.806h.537l-1.398 2.275v1.594h-.469v-1.594zm4.579 3.93c-.262 0-.492-.062-.69-.187-.196-.125-.35-.299-.461-.523-.109-.225-.164-.487-.164-.786 0-.303.055-.566.164-.792.111-.225.265-.4.461-.525.198-.125.428-.187.69-.187s.491.062.687.187c.198.125.352.3.461.525.111.226.167.489.167.792 0 .299-.056.561-.167.786-.109.224-.263.398-.461.523-.196.125-.425.187-.687.187zm0-.401c.199 0 .362-.051.491-.153.128-.102.224-.236.285-.402.062-.166.093-.346.093-.54s-.031-.375-.093-.543c-.061-.167-.157-.302-.285-.406-.129-.103-.292-.155-.491-.155s-.363.052-.491.155c-.129.104-.224.239-.286.406-.061.168-.092.349-.092.543s.031.374.092.54c.062.166.157.3.286.402.128.102.292.153.491.153zm1.995.34v-2.901h.431v.438h.03c.053-.144.149-.26.287-.35.139-.089.295-.134.469-.134.033 0 .074.001.123.002s.086.003.111.006v.453c-.015-.004-.05-.009-.104-.017-.053-.009-.109-.013-.168-.013-.141 0-.267.03-.378.089-.109.058-.196.138-.26.242-.063.102-.095.218-.095.349v1.836zm2.395-1.058-.007-.551h.09l1.27-1.292h.552l-1.353 1.367h-.038zm-.415 1.058v-3.869h.445v3.869zm1.844 0-1.134-1.435.317-.31 1.383 1.745zm1.714-.529-.03.204c-.021.144-.054.298-.098.461-.043.164-.088.318-.134.463-.047.145-.085.26-.115.346h-.34c.016-.081.037-.187.064-.319.026-.132.053-.28.079-.444.028-.163.05-.329.068-.499l.023-.212zm5.451-3.34v3.869h-.453l-2.109-3.037h-.037v3.037h-.469v-3.869h.454l2.116 3.046h.037v-3.046zm.605 0h.537l1.073 1.806h.045l1.073-1.806h.537l-1.398 2.275v1.594h-.469v-1.594zm6.659 0v3.869h-.468v-3.377h-.023l-.945.627v-.476l.968-.643zm2.375 3.922c-.285 0-.527-.077-.727-.232-.201-.156-.354-.382-.459-.678-.106-.297-.159-.656-.159-1.077 0-.418.053-.775.159-1.071.107-.298.26-.524.461-.68.201-.158.443-.237.725-.237s.523.079.724.237c.201.156.355.382.461.68.107.296.16.653.16 1.071 0 .421-.053.78-.159 1.077-.105.296-.258.522-.459.678-.2.155-.442.232-.727.232zm0-.415c.282 0 .501-.136.657-.408.157-.272.235-.66.235-1.164 0-.335-.036-.62-.108-.856-.071-.235-.173-.415-.306-.538-.132-.124-.292-.185-.478-.185-.28 0-.498.137-.656.413-.157.275-.236.663-.236 1.166 0 .335.036.62.106.854.071.234.172.412.304.534.134.123.294.184.482.184zm3.325.415c-.285 0-.527-.077-.727-.232-.201-.156-.354-.382-.459-.678-.106-.297-.159-.656-.159-1.077 0-.418.053-.775.159-1.071.107-.298.26-.524.461-.68.201-.158.443-.237.725-.237s.523.079.724.237c.201.156.355.382.461.68.107.296.16.653.16 1.071 0 .421-.053.78-.159 1.077-.105.296-.258.522-.459.678-.2.155-.442.232-.727.232zm0-.415c.282 0 .501-.136.657-.408.157-.272.235-.66.235-1.164 0-.335-.036-.62-.108-.856-.071-.235-.173-.415-.306-.538-.132-.124-.292-.185-.478-.185-.28 0-.498.137-.656.413-.157.275-.236.663-.236 1.166 0 .335.036.62.106.854.071.234.172.412.304.534.134.123.294.184.482.184zm3.325.415c-.285 0-.527-.077-.727-.232-.201-.156-.354-.382-.459-.678-.106-.297-.159-.656-.159-1.077 0-.418.053-.775.159-1.071.107-.298.26-.524.461-.68.201-.158.443-.237.725-.237s.523.079.724.237c.201.156.355.382.461.68.107.296.16.653.16 1.071 0 .421-.053.78-.159 1.077-.105.296-.258.522-.459.678-.2.155-.442.232-.727.232zm0-.415c.282 0 .501-.136.657-.408.157-.272.235-.66.235-1.164 0-.335-.036-.62-.108-.856-.071-.235-.173-.415-.306-.538-.132-.124-.292-.185-.478-.185-.28 0-.498.137-.656.413-.157.275-.236.663-.236 1.166 0 .335.036.62.106.854.071.234.172.412.304.534.134.123.294.184.482.184zm3.272.415c-.222 0-.421-.044-.599-.132-.177-.088-.32-.209-.427-.363-.107-.153-.165-.328-.175-.525h.453c.018.175.097.32.238.435.142.113.312.17.51.17.159 0 .3-.037.423-.112.125-.074.223-.176.293-.306.072-.131.108-.279.108-.444 0-.169-.037-.319-.112-.451-.073-.134-.173-.239-.302-.316-.128-.077-.275-.116-.44-.117-.119-.001-.24.017-.365.055-.124.036-.227.084-.308.142l-.438-.053.234-1.905h2.01v.416h-1.617l-.136 1.141h.023c.079-.063.179-.115.298-.157.12-.041.245-.062.374-.062.237 0 .448.057.633.17.187.112.333.266.439.461.107.195.16.418.16.669 0 .247-.055.467-.166.661-.11.193-.261.345-.453.457-.193.111-.412.166-.658.166z"/><path d="m54.2201 132.914c0-.206.0504-.395.1512-.565.1007-.17.2361-.305.4061-.406.1701-.101.3584-.151.5649-.151.1788 0 .3438.038.495.115.1524.077.2783.182.3778.316.0995.132.1612.282.1852.449h-.4572c-.0252-.129-.0951-.235-.2097-.317-.1146-.083-.245-.125-.3911-.125-.1259 0-.2406.031-.3438.093-.1033.061-.1858.144-.2475.247-.0617.104-.0926.218-.0926.344s.0309.241.0926.344.1442.186.2475.247c.1032.062.2179.093.3438.093.1461 0 .2695-.041.3703-.123.102-.083.1662-.189.1927-.319h.4572c-.024.167-.0825.318-.1757.451s-.2129.237-.359.314c-.1448.077-.3067.115-.4855.115-.2065 0-.3948-.05-.5649-.151-.17-.101-.3054-.236-.4061-.406-.1008-.17-.1512-.358-.1512-.565zm1.1033 1.995c-.2746 0-.5327-.052-.7746-.155-.2405-.103-.4527-.246-.6366-.429-.1826-.184-.3262-.396-.4308-.636-.1032-.241-.1542-.499-.153-.775.0013-.276.0535-.534.1568-.774.1046-.241.2481-.453.4308-.635.1826-.184.3942-.328.6347-.431.2406-.103.4981-.155.7727-.155.2758 0 .534.052.7746.155.2418.103.4534.247.6348.431.1826.182.3255.394.4288.635.1033.24.1556.498.1568.774.0013.276-.0497.534-.153.775-.1033.24-.2462.452-.4289.636-.1826.183-.3948.326-.6366.429s-.5007.155-.7765.155zm0-.438c.2154 0 .4175-.041.6064-.121.189-.081.3546-.192.4969-.335.1423-.142.2538-.307.3344-.494.0806-.189.1203-.391.119-.605-.0012-.215-.0422-.418-.1228-.606-.0806-.189-.192-.355-.3344-.497-.1423-.143-.3073-.254-.4949-.335-.1877-.08-.3892-.121-.6046-.121-.2141 0-.415.041-.6026.121-.1877.081-.3527.193-.495.337-.1423.142-.2544.308-.3363.496-.0806.188-.1215.39-.1228.605-.0013.213.0384.414.119.603.0806.187.1921.352.3344.495.1436.142.3092.254.4969.336.1889.08.391.121.6064.121zm6.5154-2.524c-.0227-.192-.1146-.34-.2758-.446s-.359-.159-.5932-.159c-.1713 0-.3212.028-.4497.083-.1272.056-.2267.132-.2985.229-.0705.097-.1057.207-.1057.331 0 .103.0245.192.0736.266.0504.073.1146.134.1927.183.0781.048.16.088.2456.119.0857.03.1644.055.2362.074l.3929.106c.1008.026.2129.063.3363.109.1247.047.2437.111.3571.191.1146.079.209.181.2834.306.0743.125.1114.278.1114.459 0 .209-.0548.398-.1643.567-.1084.169-.2671.303-.4761.402-.2078.1-.4604.15-.7576.15-.2771 0-.517-.045-.7198-.134-.2015-.09-.3602-.215-.4761-.375-.1146-.16-.1794-.345-.1946-.557h.4837c.0126.146.0617.267.1473.363.0869.094.1965.165.3288.211.1335.046.277.068.4307.068.1788 0 .3394-.029.4817-.086.1424-.06.2551-.142.3382-.246.0831-.106.1247-.229.1247-.37 0-.129-.0359-.233-.1077-.314s-.1662-.146-.2834-.196c-.1171-.051-.2437-.095-.3797-.133l-.4761-.136c-.3022-.087-.5415-.211-.7179-.372-.1763-.161-.2645-.372-.2645-.633 0-.216.0586-.405.1757-.566.1184-.163.2771-.289.4761-.378.2003-.091.4238-.136.6707-.136.2494 0 .471.044.665.134.1939.088.3476.209.461.363.1146.153.175.328.1813.523zm2.4782 0v.378h-1.5038v-.378zm-1.0655-.695h.4458v2.765c0 .126.0183.221.0548.284.0378.061.0856.103.1436.124.0592.021.1215.031.187.031.0491 0 .0894-.003.1209-.008.0315-.006.0567-.011.0756-.015l.0907.401c-.0303.011-.0725.022-.1266.034-.0542.012-.1228.018-.2059.018-.126 0-.2494-.027-.3703-.081-.1197-.054-.2192-.136-.2985-.247-.0781-.111-.1171-.251-.1171-.42zm2.5901 3.665c-.1839 0-.3508-.035-.5007-.104-.1499-.071-.2689-.172-.357-.304-.0882-.134-.1323-.295-.1323-.484 0-.166.0328-.301.0983-.404.0654-.105.153-.187.2626-.246.1095-.059.2304-.103.3627-.132.1335-.03.2676-.054.4024-.072.1763-.023.3193-.04.4288-.051.1109-.013.1915-.033.2418-.062.0517-.029.0775-.08.0775-.151v-.016c0-.186-.051-.331-.153-.434-.1008-.103-.2538-.155-.4591-.155-.2128 0-.3797.047-.5006.14s-.206.192-.2551.298l-.4232-.151c.0756-.176.1764-.313.3023-.412.1272-.099.2658-.168.4156-.208.1512-.04.2998-.06.4459-.06.0932 0 .2002.011.3212.034.1221.021.2399.066.3532.134.1146.068.2097.171.2853.308s.1134.321.1134.552v1.912h-.4459v-.393h-.0227c-.0302.063-.0806.13-.1511.202s-.1644.133-.2815.183-.2601.076-.4288.076zm.068-.401c.1763 0 .3249-.035.4458-.104.1222-.069.2141-.158.2758-.268.063-.11.0945-.225.0945-.346v-.408c-.0189.023-.0604.044-.1247.063-.063.017-.136.033-.2191.047-.0819.012-.1619.024-.24.034-.0768.009-.1391.016-.187.022-.1159.016-.2242.04-.3249.074-.0995.033-.1801.083-.2419.149-.0604.066-.0906.155-.0906.269 0 .155.0573.272.1719.351.1159.078.2626.117.4402.117zm3.2546.393c-.272 0-.5063-.064-.7028-.193-.1965-.128-.3476-.305-.4534-.53-.1058-.226-.1587-.483-.1587-.773 0-.295.0542-.555.1625-.78.1096-.227.262-.404.4572-.531.1964-.129.4257-.193.6876-.193.2041 0 .388.038.5517.113.1637.076.2979.182.4024.318s.1694.294.1946.476h-.4459c-.034-.132-.1095-.25-.2267-.352-.1159-.103-.272-.154-.4685-.154-.1738 0-.3262.045-.4572.136-.1297.089-.2311.216-.3042.379-.0717.163-.1076.354-.1076.573 0 .224.0352.419.1058.585.0717.167.1725.296.3022.388.131.092.2847.138.461.138.1159 0 .221-.021.3155-.061s.1744-.098.2399-.174c.0655-.075.1121-.166.1398-.272h.4459c-.0252.172-.0876.326-.1871.463-.0982.136-.2285.244-.391.325-.1612.079-.3489.119-.563.119zm2.2085-1.118-.0076-.552h.0907l1.2695-1.292h.5517l-1.3527 1.368h-.0378zm-.4156 1.058v-3.869h.4458v3.869zm1.8438 0-1.1335-1.436.3174-.31 1.3829 1.746zm5.8712-1.935c0 .408-.0737.761-.221 1.058-.1474.297-.3495.527-.6065.688-.2569.161-.5504.242-.8804.242-.3299 0-.6234-.081-.8803-.242-.257-.161-.4591-.391-.6065-.688-.1473-.297-.221-.65-.221-1.058s.0737-.761.221-1.058c.1474-.297.3495-.526.6065-.688.2569-.161.5504-.241.8803-.241.33 0 .6235.08.8804.241.257.162.4591.391.6065.688.1473.297.221.65.221 1.058zm-.4534 0c0-.335-.0561-.618-.1682-.848-.1108-.231-.2613-.405-.4515-.523-.1889-.119-.4005-.178-.6348-.178-.2342 0-.4464.059-.6366.178-.1889.118-.3394.292-.4515.523-.1109.23-.1663.513-.1663.848s.0554.618.1663.848c.1121.231.2626.405.4515.524.1902.118.4024.177.6366.177.2343 0 .4459-.059.6348-.177.1902-.119.3407-.293.4515-.524.1121-.23.1682-.513.1682-.848zm3.5536-.967-1.0731 2.902h-.4534l-1.0731-2.902h.4837l.801 2.312h.0302l.801-2.312zm1.7012 2.962c-.2796 0-.5208-.062-.7236-.185-.2015-.125-.357-.299-.4666-.521-.1083-.225-.1625-.485-.1625-.783 0-.297.0542-.559.1625-.786.1096-.227.262-.405.4572-.532.1965-.129.4257-.193.6877-.193.1511 0 .3003.025.4477.076.1474.05.2815.132.4024.245.1209.112.2173.261.2891.446.0717.185.1076.413.1076.684v.189h-2.2368v-.386h1.7834c0-.163-.0327-.309-.0982-.438-.0642-.128-.1562-.23-.2758-.304-.1184-.074-.2582-.111-.4194-.111-.1776 0-.3313.044-.461.132-.1285.087-.2273.2-.2966.34s-.1039.29-.1039.449v.257c0 .22.0378.405.1133.558.0769.151.1833.266.3193.345s.2941.118.4742.118c.1171 0 .2229-.017.3174-.05.0957-.034.1782-.084.2475-.151.0692-.068.1228-.152.1606-.253l.4307.121c-.0453.146-.1215.275-.2286.385s-.2393.196-.3967.257c-.1575.061-.3344.091-.5309.091zm1.8798-.06v-2.902h.4307v.438h.0302c.0529-.143.1486-.26.2872-.349.1385-.09.2947-.135.4685-.135.0328 0 .0737.001.1228.002.0491.002.0863.004.1115.006v.453c-.0151-.003-.0498-.009-.1039-.017-.0529-.008-.109-.013-.1682-.013-.141 0-.267.03-.3778.089-.1096.058-.1965.139-.2607.242-.063.102-.0945.218-.0945.349v1.837zm3.4534-2.902v.378h-1.5642v-.378zm-1.0957 2.902v-3.303c0-.166.039-.304.1171-.415s.1795-.194.3042-.25c.1247-.055.2563-.083.3948-.083.1096 0 .199.009.2683.027.0693.017.1209.034.1549.049l-.1285.385c-.0226-.007-.0541-.017-.0944-.028-.0391-.012-.0907-.017-.1549-.017-.1474 0-.2538.037-.3193.111-.0642.075-.0964.184-.0964.327v3.197zm2.1664-3.869v3.869h-.4458v-3.869zm1.9955 3.929c-.262 0-.4918-.062-.6896-.187-.1964-.125-.3501-.299-.4609-.523-.1096-.224-.1644-.486-.1644-.786 0-.302.0548-.566.1644-.792.1108-.225.2645-.4.4609-.525.1978-.125.4276-.187.6896-.187s.4912.062.6877.187c.1977.125.3514.3.4609.525.1109.226.1663.49.1663.792 0 .3-.0554.562-.1663.786-.1095.224-.2632.398-.4609.523-.1965.125-.4257.187-.6877.187zm0-.4c.199 0 .3627-.051.4912-.153s.2236-.237.2853-.403.0925-.346.0925-.54-.0308-.375-.0925-.542c-.0617-.168-.1568-.303-.2853-.407-.1285-.103-.2922-.154-.4912-.154s-.3627.051-.4912.154c-.1285.104-.2235.239-.2853.407-.0617.167-.0925.348-.0925.542s.0308.374.0925.54c.0618.166.1568.301.2853.403s.2922.153.4912.153zm2.5542.34-.8841-2.902h.4685l.6272 2.222h.0302l.6197-2.222h.4761l.6121 2.214h.0302l.6272-2.214h.4685l-.8841 2.902h-.4383l-.6348-2.23h-.0453l-.6348 2.23z"/><path d="m214.428 134.849h-.492l1.421-3.869h.484l1.42 3.869h-.491l-1.156-3.257h-.03zm.181-1.512h1.98v.416h-1.98zm3.64-2.357v3.869h-.445v-3.869zm1.263 0v3.869h-.446v-3.869zm2.373 3.869v-3.869h1.308c.302 0 .55.051.744.154.194.102.337.243.431.422.093.179.139.382.139.61s-.046.43-.139.606c-.094.177-.237.315-.429.416-.193.1-.439.149-.739.149h-1.058v-.423h1.043c.207 0 .373-.03.499-.091.127-.06.219-.146.276-.257.057-.112.086-.245.086-.4s-.029-.29-.086-.406c-.058-.116-.151-.206-.278-.268-.127-.065-.296-.097-.505-.097h-.823v3.454zm1.821-1.738.953 1.738h-.545l-.937-1.738zm1.522 1.738v-2.902h.446v2.902zm.226-3.386c-.087 0-.161-.029-.224-.089-.062-.059-.093-.13-.093-.213s.031-.154.093-.214c.063-.059.137-.088.224-.088s.162.029.223.088c.063.06.095.131.095.214s-.032.154-.095.213c-.061.06-.136.089-.223.089zm2.207 4.534c-.215 0-.4-.027-.555-.083-.155-.054-.284-.126-.387-.215-.102-.088-.184-.183-.244-.284l.355-.249c.041.053.092.113.153.181.062.07.146.129.253.18.109.051.25.077.425.077.235 0 .428-.056.58-.17.153-.113.229-.291.229-.532v-.59h-.038c-.033.053-.079.118-.14.197-.059.076-.144.145-.256.205-.111.06-.261.089-.45.089-.234 0-.445-.055-.631-.166-.185-.111-.332-.272-.44-.484-.107-.211-.161-.468-.161-.77 0-.298.052-.556.157-.777.104-.222.25-.393.436-.514.187-.122.402-.183.646-.183.189 0 .339.032.45.094.112.062.198.133.257.212.06.078.107.142.14.193h.045v-.461h.431v2.985c0 .249-.057.452-.17.608-.112.158-.263.273-.454.346-.188.074-.399.111-.631.111zm-.015-1.594c.179 0 .33-.041.454-.123.123-.082.217-.2.281-.353.064-.154.097-.338.097-.552 0-.209-.032-.394-.095-.553-.063-.16-.156-.286-.279-.376-.124-.091-.276-.136-.458-.136-.189 0-.346.047-.472.143-.125.096-.218.224-.281.386-.062.161-.093.34-.093.536 0 .202.031.38.094.535.065.153.159.274.284.362.126.087.282.131.468.131zm2.532-1.3v1.746h-.446v-3.869h.446v1.42h.038c.068-.15.17-.269.306-.357.137-.089.32-.134.548-.134.197 0 .37.04.519.119.149.078.264.198.346.361.083.161.125.366.125.616v1.844h-.446v-1.814c0-.23-.06-.409-.18-.535-.118-.127-.283-.19-.493-.19-.146 0-.277.03-.393.092-.114.062-.205.152-.272.27-.065.119-.098.262-.098.431zm3.959-1.156v.378h-1.504v-.378zm-1.065-.695h.446v2.765c0 .126.018.221.054.284.038.061.086.103.144.124.059.021.121.031.187.031.049 0 .089-.003.121-.008.031-.006.056-.011.075-.015l.091.401c-.03.011-.072.022-.127.034-.054.012-.122.018-.205.018-.126 0-.25-.027-.371-.081-.119-.054-.219-.136-.298-.247-.078-.111-.117-.251-.117-.42zm3.739 1.345-.4.113c-.025-.067-.063-.132-.112-.195-.047-.064-.113-.117-.196-.158-.083-.042-.19-.063-.319-.063-.178 0-.326.041-.444.123-.117.081-.176.183-.176.308 0 .111.04.199.121.263.08.064.206.118.378.16l.43.106c.26.063.453.159.58.289.128.129.191.294.191.497 0 .166-.048.315-.143.446s-.227.234-.397.31c-.17.075-.368.113-.593.113-.296 0-.541-.064-.735-.193-.194-.128-.317-.316-.369-.563l.424-.105c.04.156.116.273.228.351.114.078.262.117.444.117.208 0 .373-.044.495-.132.124-.09.185-.197.185-.321 0-.101-.035-.185-.106-.253-.07-.07-.178-.121-.324-.155l-.484-.114c-.266-.063-.461-.16-.586-.293-.123-.133-.185-.3-.185-.5 0-.164.046-.309.138-.435.093-.126.22-.224.38-.296.161-.072.344-.108.548-.108.287 0 .512.063.676.189.165.126.282.292.351.499zm2.281 2.252v-3.869h1.307c.303 0 .551.051.745.154.194.102.337.243.43.422.094.179.14.382.14.61s-.046.43-.14.606c-.093.177-.236.315-.428.416-.193.1-.439.149-.739.149h-1.058v-.423h1.043c.206 0 .373-.03.499-.091.127-.06.219-.146.275-.257.058-.112.087-.245.087-.4s-.029-.29-.087-.406-.15-.206-.277-.268c-.127-.065-.296-.097-.505-.097h-.823v3.454zm1.821-1.738.952 1.738h-.544l-.937-1.738zm2.707 1.798c-.28 0-.521-.062-.724-.185-.201-.125-.357-.299-.466-.521-.108-.225-.163-.485-.163-.783 0-.297.055-.559.163-.786.109-.227.262-.405.457-.532.196-.129.426-.193.688-.193.151 0 .3.025.447.076.148.05.282.132.403.245.121.112.217.261.289.446s.108.413.108.684v.189h-2.237v-.386h1.783c0-.163-.033-.309-.098-.438-.064-.128-.156-.23-.276-.304-.118-.074-.258-.111-.419-.111-.178 0-.332.044-.461.132-.129.087-.228.2-.297.34s-.104.29-.104.449v.257c0 .22.038.405.114.558.076.151.183.266.319.345s.294.118.474.118c.117 0 .223-.017.317-.05.096-.034.179-.084.248-.151.069-.068.123-.152.16-.253l.431.121c-.045.146-.121.275-.228.385s-.24.196-.397.257c-.158.061-.334.091-.531.091zm3.935-2.312-.4.113c-.025-.067-.063-.132-.112-.195-.048-.064-.113-.117-.196-.158-.083-.042-.19-.063-.319-.063-.178 0-.326.041-.444.123-.118.081-.176.183-.176.308 0 .111.04.199.121.263.08.064.206.118.378.16l.43.106c.26.063.453.159.58.289.128.129.191.294.191.497 0 .166-.048.315-.143.446s-.227.234-.397.31c-.17.075-.368.113-.593.113-.296 0-.541-.064-.735-.193-.194-.128-.317-.316-.369-.563l.424-.105c.04.156.116.273.228.351.113.078.261.117.444.117.208 0 .373-.044.495-.132.123-.09.185-.197.185-.321 0-.101-.035-.185-.106-.253-.07-.07-.178-.121-.325-.155l-.483-.114c-.266-.063-.461-.16-.586-.293-.123-.133-.185-.3-.185-.5 0-.164.046-.309.138-.435.093-.126.22-.224.38-.296.161-.072.343-.108.548-.108.287 0 .512.063.676.189.165.126.282.292.351.499zm1.941 2.312c-.28 0-.521-.062-.724-.185-.201-.125-.357-.299-.466-.521-.109-.225-.163-.485-.163-.783 0-.297.054-.559.163-.786s.262-.405.457-.532c.196-.129.426-.193.688-.193.151 0 .3.025.447.076.148.05.282.132.403.245.121.112.217.261.289.446s.107.413.107.684v.189h-2.236v-.386h1.783c0-.163-.033-.309-.098-.438-.064-.128-.156-.23-.276-.304-.118-.074-.258-.111-.419-.111-.178 0-.332.044-.461.132-.129.087-.228.2-.297.34s-.104.29-.104.449v.257c0 .22.038.405.113.558.077.151.184.266.32.345s.294.118.474.118c.117 0 .223-.017.317-.05.096-.034.179-.084.248-.151.069-.068.123-.152.16-.253l.431.121c-.045.146-.121.275-.228.385-.108.11-.24.196-.397.257-.158.061-.335.091-.531.091zm1.88-.06v-2.902h.43v.438h.031c.053-.143.148-.26.287-.349.138-.09.295-.135.468-.135.033 0 .074.001.123.002.049.002.086.004.112.006v.453c-.016-.003-.05-.009-.104-.017-.053-.008-.109-.013-.168-.013-.142 0-.267.03-.378.089-.11.058-.197.139-.261.242-.063.102-.094.218-.094.349v1.837zm4.44-2.902-1.073 2.902h-.453l-1.073-2.902h.483l.801 2.312h.031l.801-2.312zm1.701 2.962c-.279 0-.52-.062-.723-.185-.202-.125-.357-.299-.467-.521-.108-.225-.162-.485-.162-.783 0-.297.054-.559.162-.786.11-.227.262-.405.457-.532.197-.129.426-.193.688-.193.151 0 .301.025.448.076.147.05.281.132.402.245.121.112.218.261.289.446.072.185.108.413.108.684v.189h-2.237v-.386h1.784c0-.163-.033-.309-.099-.438-.064-.128-.156-.23-.275-.304s-.259-.111-.42-.111c-.177 0-.331.044-.461.132-.128.087-.227.2-.296.34-.07.14-.104.29-.104.449v.257c0 .22.037.405.113.558.077.151.183.266.319.345s.294.118.474.118c.118 0 .223-.017.318-.05.096-.034.178-.084.247-.151.07-.068.123-.152.161-.253l.431.121c-.046.146-.122.275-.229.385s-.239.196-.397.257c-.157.061-.334.091-.531.091zm2.976 0c-.242 0-.455-.061-.64-.183-.186-.124-.33-.297-.435-.522s-.157-.491-.157-.799c0-.305.052-.569.157-.793s.25-.398.436-.52c.187-.122.402-.183.647-.183.188 0 .338.032.447.094.111.062.196.133.253.212.06.078.106.142.138.193h.038v-1.428h.446v3.869h-.431v-.446h-.053c-.032.053-.079.119-.139.2-.061.079-.147.151-.259.214-.112.061-.262.092-.448.092zm.06-.4c.179 0 .33-.047.454-.14.123-.095.217-.225.281-.391.065-.168.097-.361.097-.58 0-.217-.032-.406-.095-.569-.063-.164-.156-.291-.279-.382-.124-.091-.276-.137-.458-.137-.188 0-.346.048-.472.145-.125.096-.218.226-.281.391-.062.164-.093.348-.093.552 0 .206.032.394.095.563.064.167.158.301.283.4.126.098.282.148.468.148z"/></g></svg>