<svg fill="none" height="200" viewBox="0 0 316 200" width="316" xmlns="http://www.w3.org/2000/svg" xmlns:xlink="http://www.w3.org/1999/xlink"><clipPath id="a"><path d="m42.9043 73h228v53.2h-228z"/></clipPath><path d="m0 0h316v200h-316z" fill="#e5e5e5"/><g clip-path="url(#a)"><path d="m0 0h228v53.2h-228z" fill="#fff" transform="translate(42.9043 73)"/><path d="m49.3262 93.122-7.2092-3.3945-8.0821 51.5065 7.2092 3.392z" fill="#fc0"/><path d="m56.7061 91.6071-7.4032-1.7458-4.1604 52.8837 7.4032 1.749z" fill="#fc0"/><path d="m49.3037 89.8613h-7.9229l-4.1604 52.8837h7.9229z" fill="#f39fff"/><path d="m63.9883 90.5257-7.4703-.0696-.1667 53.3739 7.4704.07z" fill="#fc0"/><path d="m71.2051 89.8916h-7.9229l-7.4132 1.609h7.9229z" fill="#ff5e00"/><path d="m71.2045 89.8916-7.4131 1.609 3.8296 52.9614 7.4132-1.609z" fill="#fc0"/><path d="m56.5176 90.4561h-7.9254l-.1667 53.3739h7.9254z" fill="#f39fff"/><path d="m78.3911 89.7197-7.2291 3.2602 7.7612 51.6531 7.2291-3.258z" fill="#fc0"/><path d="m63.7914 91.5h-7.9229l3.8297 52.961h7.9229z" fill="#f39fff"/><path d="m85.5834 90.0107-6.9257 4.8567 11.5636 49.4746 6.9232-4.854z" fill="#fc0"/><path d="m71.1626 92.9805h-7.9255l7.7613 51.6535h7.9254z" fill="#f39fff"/><path d="m78.3916 89.7197h-7.9229l-7.2316 3.2602h7.9254z" fill="#ff5e00"/><path d="m78.6571 94.8682h-7.9229l11.5611 49.4748h7.9254z" fill="#f39fff"/><path d="m92.8145 90.7617-6.503 6.3687 15.1665 46.4606 6.503-6.369z" fill="#fc0"/><path d="m86.3125 97.1309h-7.9254l15.167 46.4611h7.9249z" fill="#f39fff"/><path d="m100.118 91.958-5.9732 7.7737 18.5162 42.6663 5.974-7.777z" fill="#fc0"/><path d="m85.583 90.0107h-7.9229l-6.9257 4.8567h7.9229z" fill="#ff5e00"/><path d="m94.1454 99.7314h-7.9229l18.5165 42.6656h7.923z" fill="#f39fff"/><path d="m107.526 93.5791-5.339 9.0499 21.553 38.147 5.339-9.052z" fill="#fc0"/><path d="m102.187 102.629h-7.9227l21.5527 38.147h7.923z" fill="#f39fff"/><path d="m115.074 95.5986-4.618 10.1714 24.227 32.987 4.618-10.174z" fill="#fc0"/><path d="m110.456 105.77h-7.923l24.227 32.987h7.923z" fill="#f39fff"/><path d="m92.8145 90.7617h-7.9255l-6.5029 6.3687h7.9254z" fill="#ff5e00"/><path d="m118.968 109.104h-7.923l26.492 27.268h7.923z" fill="#f39fff"/><path d="m122.786 97.9814-3.818 11.1236 26.492 27.268 3.817-11.124z" fill="#fc0"/><path d="m127.737 112.576h-7.923l28.307 21.088h7.926z" fill="#f39fff"/><path d="m100.118 91.958h-7.9253l-5.9707 7.7737h7.9229z" fill="#ff5e00"/><path d="m130.688 100.689-2.951 11.887 28.309 21.088 2.952-11.884z" fill="#fc0"/><path d="m136.768 116.125h-7.922l29.647 14.555h7.923z" fill="#f39fff"/><path d="m138.806 103.676-2.037 12.449 29.647 14.555 2.037-12.449z" fill="#fc0"/><path d="m107.526 93.5791h-7.9226l-5.3391 9.0499h7.9227z" fill="#ff5e00"/><path d="m146.067 119.69h-7.923l30.488 7.774h7.923z" fill="#f39fff"/><path d="m147.156 106.889-1.089 12.802 30.488 7.773 1.09-12.799z" fill="#fc0"/><path d="m155.634 123.214h-7.923l30.811.863h7.923z" fill="#f39fff"/><path d="m115.074 95.5986h-7.923l-4.618 10.1714h7.923z" fill="#ff5e00"/><path d="m155.755 110.275-.122 12.939 30.812.863.121-12.936z" fill="#fc0"/><path d="m195.229 107.72h-7.923l-30.618 6.06h7.923z" fill="#9d9cff"/><path d="m122.786 97.9814h-7.923l-3.817 11.1236h7.923z" fill="#ff5e00"/><path d="m164.611 113.78.848 12.857 30.617-6.063-.848-12.854z" fill="#fc0"/><path d="m203.639 104.457h-7.923l-29.904 12.884h7.923z" fill="#9d9cff"/><path d="m173.735 117.341 1.803 12.556 29.903-12.884-1.803-12.556z" fill="#fc0"/><path d="m130.688 100.689h-7.922l-2.952 11.887h7.923z" fill="#ff5e00"/><path d="m211.813 101.41h-7.922l-28.688 19.489h7.923z" fill="#9d9cff"/><path d="m183.125 120.899 2.728 12.046 28.688-19.491-2.728-12.044z" fill="#fc0"/><path d="m138.806 103.676h-7.923l-2.037 12.449h7.923z" fill="#ff5e00"/><path d="m219.769 98.6279h-7.926l-26.987 25.7681h7.926z" fill="#9d9cff"/><path d="m192.781 124.396 3.606 11.33 26.987-25.766-3.606-11.3321z" fill="#fc0"/><path d="m147.156 106.889h-7.923l-1.089 12.802h7.923z" fill="#ff5e00"/><path d="m202.694 127.768 4.424 10.427 24.83-31.61-4.424-10.4268z" fill="#fc0"/><path d="m227.524 96.1582h-7.923l-24.83 31.6098h7.923z" fill="#9d9cff"/><path d="m155.756 110.275h-7.926l-.119 12.939h7.923z" fill="#ff5e00"/><path d="m212.854 130.963 5.168 9.346 22.254-36.919-5.167-9.3431z" fill="#fc0"/><path d="m235.109 94.0469h-7.923l-22.256 36.9161h7.925z" fill="#9d9cff"/><path d="m164.611 113.779h-7.923l.848 12.857h7.923z" fill="#ff5e00"/><path d="m173.735 117.341h-7.923l1.803 12.556h7.923z" fill="#ff5e00"/><path d="m223.247 133.925 5.822 8.107 19.305-41.604-5.824-8.1048z" fill="#fc0"/><path d="m242.55 92.3232h-7.923l-19.305 41.6018h7.925z" fill="#9d9cff"/><path d="m183.126 120.899h-7.923l2.728 12.046h7.923z" fill="#ff5e00"/><path d="m233.851 136.606 6.379 6.73 16.03-45.5857-6.381-6.7317z" fill="#fc0"/><path d="m192.781 124.396h-7.926l3.609 11.329h7.923z" fill="#ff5e00"/><path d="m249.878 91.0186h-7.923l-16.03 45.5874h7.926z" fill="#9d9cff"/><path d="m244.643 138.958 6.829 5.24 12.481-48.8011-6.829-5.2397z" fill="#fc0"/><path d="m257.125 90.1572h-7.925l-12.482 48.8008h7.926z" fill="#9d9cff"/><path d="m255.597 140.941 7.167 3.663 8.721-51.1909-7.164-3.6631z" fill="#fc0"/><path d="m264.321 89.75h-7.923l-8.723 51.191h7.923z" fill="#9d9cff"/><path d="m266.689 142.524 7.378 2.024 4.817-52.7196-7.379-2.0218z" fill="#fc0"/><path d="m271.506 89.8066h-7.923l-4.817 52.7174h7.923z" fill="#9d9cff"/></g></svg>