<svg fill="none" height="200" viewBox="0 0 316 200" width="316" xmlns="http://www.w3.org/2000/svg"><path d="m0 0h316v200h-316z" fill="#e5e5e5"/><path d="m44 89h228v22.7908h-228z" fill="#ff5e00"/><path d="m58.6401 100.659.0108.006-.003.003-.0078-.008c-.2461.315-.4521.661-.6112 1.032-.0024.005-.0048.01-.0072.016-.1531.361-.2623.745-.3194 1.146v.007c-.0306.213-.0462.43-.0462.651 0 .188.0114.373.0336.555h-4.5696v-1.213h3.968c.0072-.05.0162-.099.0252-.148l-3.8227-1.012.3182-1.173 3.8702 1.025c.018-.039.036-.078.0546-.117l-3.4733-1.9799.6142-1.0507 3.525 2.0086c.0276-.033.0558-.066.0852-.098l-2.8879-2.8508.8694-.8586 2.9341 2.8975.3098.3062c-.326.2467-.619.5347-.87.8557zm48.7889-.8455h1.022l.611 3.1885.708-3.1885h1.04l.707 3.1975.63-3.1975h1.013l-1.022 4.2545h-1.267l-.576-2.603-.576 2.603h-1.267l-1.022-4.2545zm-2.254-.1225c1.311 0 2.166.935 2.166 2.254s-.856 2.245-2.166 2.245-2.175-.926-2.175-2.245.856-2.254 2.175-2.254zm-1.197 2.254c0 .804.402 1.38 1.197 1.38s1.196-.576 1.196-1.38-.401-1.398-1.196-1.398-1.197.612-1.197 1.398zm-2.42-3.573v5.696h.961v-5.696zm-1.031 0c-.9172 0-1.3537.4281-1.3537 1.1882v.2533h-.437v.8125h.437v3.442h.9527v-3.442h.934v-.8125h-.934v-.2533c0-.2444.139-.3759.41-.3759h.612v-.8123h-.62zm-4.4547 1.4415v4.2545h.9522v-3.442h1.3713v-.8125zm-2.4286 4.3765c-1.3191 0-2.1752-.926-2.1752-2.245s.8561-2.254 2.1752-2.254c1.1534 0 2.1404.935 1.9309 2.569h-3.1011c.0787.62.4455 1.065 1.1708 1.065.4977 0 .8123-.262.9432-.612h.9961c-.1837.874-.9084 1.477-1.9393 1.477zm-1.1533-2.717h2.1488c-.0523-.507-.3669-.926-.9961-.926-.664 0-1.0219.384-1.1533.926zm-4.9971-1.6595h1.0218l.9523 3.3985.9612-3.3985h1.0219l-1.3281 4.2545h-1.3017l-1.328-4.2545zm-5.4246 1.6765c0-1.459.9348-2.6899 2.6297-2.6899 1.695 0 2.6208 1.2319 2.6208 2.6899 0 1.459-.9349 2.7-2.6208 2.7s-2.6297-1.223-2.6297-2.7zm4.219 0c0-.873-.4803-1.799-1.5899-1.799-1.1095 0-1.6162.926-1.6162 1.799 0 .874.4977 1.809 1.6162 1.809 1.1186 0 1.5899-.935 1.5899-1.809zm-8.8756-2.5681h.9612v2.5941l1.3713-1.7031h1.1269l-1.3803 1.7121 1.5202 2.542h-1.0657l-1.0309-1.843-.5415.682v1.161h-.9612zm-2.4635 5.2681c-1.3106 0-2.1662-.926-2.1662-2.245s.8562-2.254 2.1662-2.254c1.1618 0 1.9741.856 1.9831 1.791h-.996c-.0264-.463-.3056-.926-.9871-.926-.8297 0-1.1881.603-1.1881 1.389s.3584 1.371 1.1881 1.371c.7079 0 .9871-.498 1.0135-1.031h.9871c-.0175 1.101-.795 1.905-2.0006 1.905zm-4.901-4.499c.6028 0 1.0219.2444 1.2927.672v-.5501h.9522v4.2541h-.9522v-.541c-.2534.41-.6641.664-1.2927.664-1.1882 0-1.9134-.926-1.9134-2.245s.7252-2.254 1.9134-2.254zm-.9342 2.254c0 .804.3843 1.38 1.0831 1.38.7685 0 1.1444-.594 1.1444-1.38 0-.787-.3759-1.398-1.1444-1.398-.6988 0-1.0831.586-1.0831 1.398zm-3.5381-2.1315h.568v-.891h.9522v.891h.7253v.8125h-.7253v2.63h.8471v.812h-1.7993v-3.442h-.568zm-2.4028 3.4945c.6118 0 1.0573-.236 1.0573-.673 0-1.083-3.2325-.096-3.2325-2.271 0-.8471.8039-1.5633 2.0966-1.5633 1.1359 0 2.0617.7426 2.0617 1.8083h-1.0219c-.0438-.576-.3758-.9174-1.0747-.9174-.6988 0-1.0482.2798-1.0482.6724 0 1.179 3.2235.114 3.2235 2.271 0 .996-.7865 1.555-2.114 1.555-1.232 0-2.1488-.777-2.1843-1.816h1.0309c.0523.585.5506.934 1.2056.934z" fill="#201c1d"/></svg>