<svg width="316" height="200" viewBox="0 0 316 200" fill="none" xmlns="http://www.w3.org/2000/svg">
<rect width="316" height="200" fill="#E5E5E5"/>
<rect width="228" height="48.64" transform="translate(44 76)" fill="white"/>
<rect width="100.7" height="19.38" transform="translate(53.1201 83.5996)" fill="#201C1D"/>
<rect width="73.6" height="20.14" transform="translate(53.1201 96.8994)" fill="#201C1D"/>
<path d="M58.0238 92.8742H59.6928V94.1875H58.0238V92.8742ZM59.6928 92.8742C60.2491 92.8742 60.7188 92.824 61.1018 92.7237C61.494 92.6234 61.7904 92.441 61.991 92.1765C62.2008 91.912 62.3056 91.5427 62.3056 91.0684C62.3056 90.5851 62.2008 90.2157 61.991 89.9603C61.7904 89.6959 61.494 89.518 61.1018 89.4268C60.7188 89.3265 60.2491 89.2763 59.6928 89.2763V87.9631C60.55 87.9631 61.2888 88.0634 61.9089 88.264C62.5382 88.4647 63.0216 88.793 63.359 89.249C63.6964 89.6959 63.8652 90.3023 63.8652 91.0684C63.8652 91.8163 63.6964 92.4227 63.359 92.8879C63.0216 93.3439 62.5382 93.6767 61.9089 93.8865C61.2888 94.0871 60.55 94.1875 59.6928 94.1875V92.8742ZM58.0238 87.9631H59.6928V89.2763H58.0238V87.9631ZM58.0238 88.8659V97.5391H56.5327V88.8659H58.0238ZM64.9211 87.2791H66.3848V97.5391H64.9211V87.2791ZM68.9978 94.2011V92.9699H74.0184L73.4165 93.394C73.4347 92.9563 73.3663 92.5595 73.2113 92.2039C73.0653 91.8391 72.8373 91.5472 72.5273 91.3283C72.2172 91.1095 71.825 91 71.3508 91C70.685 91 70.1333 91.2052 69.6955 91.6156C69.2669 92.0169 69.0343 92.5778 68.9978 93.2983H67.452C67.5158 92.5413 67.721 91.8938 68.0676 91.3557C68.4233 90.8085 68.8838 90.389 69.4493 90.0971C70.0147 89.8053 70.6485 89.6594 71.3508 89.6594C71.8706 89.6594 72.3585 89.7597 72.8145 89.9603C73.2705 90.161 73.6627 90.4574 73.991 90.8495C74.3193 91.2417 74.561 91.7205 74.7161 92.2859C74.8802 92.8423 74.9258 93.4807 74.8529 94.2011H68.9978ZM71.3508 97.7579C70.6212 97.7579 69.9737 97.6075 69.4082 97.3065C68.8519 97.0055 68.405 96.5906 68.0676 96.0616C67.7301 95.5235 67.5295 94.9034 67.4657 94.2011H68.9978C69.0708 94.8578 69.2988 95.3913 69.6818 95.8017C70.074 96.2121 70.6303 96.4173 71.3508 96.4173C71.8889 96.4173 72.3129 96.2942 72.623 96.0479C72.9422 95.7926 73.1657 95.4825 73.2933 95.1177H74.8529C74.7252 95.6467 74.5063 96.1072 74.1962 96.4994C73.8861 96.8915 73.4894 97.2016 73.0061 97.4296C72.5227 97.6485 71.9709 97.7579 71.3508 97.7579ZM78.6098 97.7579C78.1082 97.7579 77.6568 97.6667 77.2555 97.4843C76.8542 97.2928 76.535 97.0192 76.2979 96.6635C76.0699 96.3079 75.9559 95.8747 75.9559 95.3639C75.9559 94.762 76.1018 94.2878 76.3937 93.9412C76.6855 93.5947 77.0731 93.3393 77.5565 93.1751C78.0398 93.011 78.5642 92.9061 79.1297 92.8605C79.7042 92.8058 80.2697 92.783 80.826 92.7921V94.0096C79.686 93.9731 78.847 94.0689 78.3089 94.2969C77.7708 94.5158 77.5018 94.8532 77.5018 95.3092C77.5018 95.7014 77.6249 95.9932 77.8711 96.1847C78.1265 96.3671 78.4776 96.4583 78.9245 96.4583C79.2893 96.4583 79.613 96.3854 79.8958 96.2395C80.1876 96.0844 80.4156 95.861 80.5798 95.5691C80.7439 95.2773 80.826 94.9262 80.826 94.5158V93.5992H82.2898V97.5391H80.826V96.6909C80.598 97.0283 80.297 97.2928 79.9231 97.4843C79.5492 97.6667 79.1114 97.7579 78.6098 97.7579ZM75.7781 92.71C75.7781 92.1902 75.9058 91.6977 76.1611 91.2326C76.4165 90.7675 76.795 90.389 77.2966 90.0971C77.7982 89.8053 78.4046 89.6594 79.116 89.6594C80.101 89.6594 80.8579 89.9421 81.3869 90.5075C81.9158 91.0639 82.2122 91.8254 82.2761 92.7921H80.826C80.7895 92.2358 80.639 91.8026 80.3746 91.4925C80.1192 91.1733 79.6997 91.0137 79.116 91.0137C78.6782 91.0137 78.3271 91.0912 78.0626 91.2463C77.8073 91.4013 77.6203 91.6111 77.5018 91.8755C77.3832 92.1309 77.3239 92.4091 77.3239 92.71H75.7781ZM84.7596 95.1177C84.8052 95.5828 85.0013 95.9294 85.3479 96.1574C85.7036 96.3854 86.1276 96.4994 86.6201 96.4994C87.1126 96.4994 87.5048 96.4082 87.7966 96.2258C88.0976 96.0434 88.248 95.7561 88.248 95.3639C88.248 95.1268 88.1568 94.949 87.9744 94.8304C87.8012 94.7027 87.5686 94.6024 87.2768 94.5295C86.994 94.4565 86.6794 94.3927 86.3328 94.3379C85.9954 94.2832 85.6534 94.2148 85.3068 94.1327C84.9603 94.0507 84.6411 93.9321 84.3492 93.7771C84.0665 93.6129 83.8385 93.394 83.6652 93.1204C83.492 92.8468 83.4053 92.4911 83.4053 92.0534C83.4053 91.643 83.533 91.2554 83.7884 90.8906C84.0437 90.5167 84.404 90.2203 84.8691 90.0014C85.3433 89.7734 85.8905 89.6594 86.5107 89.6594C87.067 89.6594 87.5777 89.7734 88.0428 90.0014C88.508 90.2203 88.8773 90.5258 89.1509 90.9179C89.4336 91.3101 89.575 91.7661 89.575 92.2859H88.1796C88.1432 91.8208 87.9608 91.4788 87.6324 91.2599C87.3132 91.0319 86.9211 90.9179 86.456 90.9179C85.927 90.9179 85.5257 91.0274 85.2521 91.2463C84.9876 91.456 84.8554 91.7251 84.8554 92.0534C84.8554 92.3087 84.942 92.5048 85.1153 92.6416C85.2977 92.7784 85.5303 92.8833 85.813 92.9563C86.1048 93.0292 86.424 93.0931 86.7706 93.1478C87.1172 93.2025 87.4592 93.2709 87.7966 93.353C88.1432 93.4351 88.4578 93.5536 88.7405 93.7087C89.0324 93.8546 89.2649 94.0598 89.4382 94.3243C89.6115 94.5887 89.6981 94.9353 89.6981 95.3639C89.6981 95.8473 89.5704 96.2714 89.3151 96.6362C89.0597 96.9919 88.6949 97.27 88.2207 97.4707C87.7556 97.6622 87.1992 97.7579 86.5517 97.7579C85.9498 97.7579 85.4072 97.6439 84.9238 97.4159C84.4404 97.1788 84.0528 96.8642 83.761 96.472C83.4783 96.0707 83.3278 95.6193 83.3096 95.1177H84.7596ZM92.0427 94.2011V92.9699H97.0633L96.4614 93.394C96.4796 92.9563 96.4112 92.5595 96.2562 92.2039C96.1103 91.8391 95.8823 91.5472 95.5722 91.3283C95.2621 91.1095 94.8699 91 94.3957 91C93.7299 91 93.1782 91.2052 92.7404 91.6156C92.3118 92.0169 92.0792 92.5778 92.0427 93.2983H90.4969C90.5607 92.5413 90.7659 91.8938 91.1125 91.3557C91.4682 90.8085 91.9287 90.389 92.4942 90.0971C93.0596 89.8053 93.6935 89.6594 94.3957 89.6594C94.9155 89.6594 95.4035 89.7597 95.8595 89.9603C96.3155 90.161 96.7076 90.4574 97.0359 90.8495C97.3643 91.2417 97.6059 91.7205 97.761 92.2859C97.9251 92.8423 97.9707 93.4807 97.8978 94.2011H92.0427ZM94.3957 97.7579C93.6661 97.7579 93.0186 97.6075 92.4531 97.3065C91.8968 97.0055 91.4499 96.5906 91.1125 96.0616C90.7751 95.5235 90.5744 94.9034 90.5106 94.2011H92.0427C92.1157 94.8578 92.3437 95.3913 92.7267 95.8017C93.1189 96.2121 93.6752 96.4173 94.3957 96.4173C94.9338 96.4173 95.3579 96.2942 95.6679 96.0479C95.9871 95.7926 96.2106 95.4825 96.3383 95.1177H97.8978C97.7701 95.6467 97.5512 96.1072 97.2411 96.4994C96.9311 96.8915 96.5343 97.2016 96.051 97.4296C95.5676 97.6485 95.0159 97.7579 94.3957 97.7579ZM109.002 94.3243C108.975 94.9809 108.81 95.5691 108.51 96.089C108.218 96.6088 107.807 97.0192 107.278 97.3202C106.749 97.612 106.125 97.7579 105.404 97.7579C104.611 97.7579 103.922 97.5892 103.338 97.2518C102.755 96.9052 102.299 96.4264 101.97 95.8154C101.651 95.2043 101.492 94.5067 101.492 93.7223C101.492 92.9289 101.651 92.2267 101.97 91.6156C102.299 91.0046 102.755 90.5258 103.338 90.1792C103.922 89.8327 104.611 89.6594 105.404 89.6594C106.097 89.6594 106.708 89.8144 107.237 90.1245C107.766 90.4255 108.181 90.8222 108.482 91.3147C108.783 91.798 108.947 92.3224 108.975 92.8879H107.415C107.397 92.5687 107.315 92.2677 107.169 91.985C107.023 91.7023 106.804 91.4697 106.512 91.2873C106.23 91.1049 105.86 91.0137 105.404 91.0137C104.866 91.0137 104.419 91.1323 104.064 91.3694C103.708 91.5974 103.439 91.9166 103.256 92.327C103.083 92.7374 102.996 93.2025 102.996 93.7223C102.996 94.2331 103.083 94.6936 103.256 95.104C103.439 95.5053 103.708 95.8245 104.064 96.0616C104.419 96.2896 104.866 96.4036 105.404 96.4036C105.878 96.4036 106.261 96.3079 106.553 96.1163C106.854 95.9157 107.078 95.6603 107.224 95.3503C107.37 95.0311 107.452 94.6891 107.47 94.3243H109.002ZM113.634 97.7579C112.84 97.7579 112.152 97.5892 111.568 97.2518C110.984 96.9052 110.528 96.4264 110.2 95.8154C109.881 95.2043 109.721 94.5067 109.721 93.7223C109.721 92.9289 109.881 92.2267 110.2 91.6156C110.528 91.0046 110.984 90.5258 111.568 90.1792C112.152 89.8327 112.84 89.6594 113.634 89.6594C114.427 89.6594 115.116 89.8327 115.699 90.1792C116.283 90.5258 116.734 91.0046 117.054 91.6156C117.382 92.2267 117.546 92.9289 117.546 93.7223C117.546 94.5067 117.382 95.2043 117.054 95.8154C116.734 96.4264 116.283 96.9052 115.699 97.2518C115.116 97.5892 114.427 97.7579 113.634 97.7579ZM113.634 96.4173C114.135 96.4173 114.564 96.3079 114.919 96.089C115.275 95.861 115.549 95.5463 115.74 95.1451C115.932 94.7347 116.028 94.2604 116.028 93.7223C116.028 93.1751 115.932 92.6963 115.74 92.2859C115.549 91.8755 115.275 91.5609 114.919 91.342C114.564 91.114 114.135 91 113.634 91C113.132 91 112.699 91.114 112.334 91.342C111.978 91.5609 111.705 91.8755 111.513 92.2859C111.322 92.6963 111.226 93.1751 111.226 93.7223C111.226 94.2604 111.322 94.7347 111.513 95.1451C111.705 95.5463 111.978 95.861 112.334 96.089C112.699 96.3079 113.132 96.4173 113.634 96.4173ZM118.585 89.8783H120.049V91.1368C120.158 90.8815 120.318 90.6443 120.528 90.4255C120.737 90.1975 121.011 90.0151 121.348 89.8783C121.686 89.7323 122.096 89.6594 122.58 89.6594C123.072 89.6594 123.51 89.7597 123.893 89.9603C124.285 90.161 124.591 90.4939 124.809 90.959C125.037 91.415 125.151 92.0351 125.151 92.8195V97.5391H123.688V92.9973C123.688 92.5778 123.647 92.2175 123.565 91.9166C123.482 91.6065 123.332 91.3694 123.113 91.2052C122.894 91.0319 122.589 90.9453 122.197 90.9453C121.832 90.9453 121.485 91.0502 121.157 91.2599C120.829 91.4697 120.56 91.7798 120.35 92.1902C120.149 92.6006 120.049 93.1113 120.049 93.7223V97.5391H118.585V89.8783ZM126.907 87.2791H130.313V88.5376H128.371V97.5391H126.907V87.2791ZM126.031 89.8783H130.135V91.1368H126.031V89.8783ZM131.755 89.8783H133.232V97.5391H131.755V89.8783ZM131.317 87.2107L132.945 86.855L133.314 88.5103L131.673 88.8796L131.317 87.2107ZM134.683 89.8783H136.147V97.5391H134.683V89.8783ZM136.147 93.5171L135.942 92.3817C135.942 92.1446 135.969 91.871 136.024 91.5609C136.088 91.2508 136.211 90.9544 136.393 90.6717C136.585 90.3799 136.863 90.1382 137.228 89.9467C137.601 89.7551 138.094 89.6594 138.705 89.6594V91.1368C138.167 91.1368 137.706 91.2098 137.323 91.3557C136.94 91.5016 136.648 91.7479 136.448 92.0944C136.247 92.4319 136.147 92.9061 136.147 93.5171ZM139.679 89.8783H141.143V97.5391H139.679V89.8783ZM141.143 93.7223L140.924 92.2175C140.924 91.9804 140.965 91.7159 141.047 91.4241C141.13 91.1323 141.262 90.8541 141.444 90.5896C141.636 90.316 141.887 90.0926 142.197 89.9193C142.516 89.746 142.917 89.6594 143.4 89.6594C143.875 89.6594 144.29 89.7597 144.645 89.9603C145.001 90.161 145.275 90.4939 145.466 90.959C145.667 91.415 145.767 92.0351 145.767 92.8195V97.5391H144.303V92.9973C144.303 92.5778 144.271 92.2175 144.208 91.9166C144.153 91.6065 144.034 91.3694 143.852 91.2052C143.669 91.0319 143.391 90.9453 143.017 90.9453C142.698 90.9453 142.397 91.0502 142.115 91.2599C141.832 91.4697 141.599 91.7798 141.417 92.1902C141.234 92.6006 141.143 93.1113 141.143 93.7223ZM145.767 93.7223L145.398 92.2175C145.398 91.9804 145.443 91.7159 145.535 91.4241C145.635 91.1323 145.785 90.8541 145.986 90.5896C146.196 90.316 146.465 90.0926 146.793 89.9193C147.131 89.746 147.541 89.6594 148.024 89.6594C148.499 89.6594 148.913 89.7597 149.269 89.9603C149.625 90.161 149.898 90.4939 150.09 90.959C150.291 91.415 150.391 92.0351 150.391 92.8195V97.5391H148.927V92.9973C148.927 92.5778 148.895 92.2175 148.831 91.9166C148.777 91.6065 148.658 91.3694 148.476 91.2052C148.293 91.0319 148.015 90.9453 147.641 90.9453C147.322 90.9453 147.021 91.0502 146.738 91.2599C146.456 91.4697 146.223 91.7798 146.041 92.1902C145.858 92.6006 145.767 93.1113 145.767 93.7223Z" fill="white"/>
<path d="M60.3126 111.97L62.5971 104.309H64.184L61.7216 111.97H60.3126ZM57.9049 114.706V113.447H59.7654L60.4904 111.313H61.9268L60.8324 114.706H57.9049ZM59.6696 111.97L57.2072 104.309H58.7941L61.065 111.97H59.6696ZM68.3894 112.189C67.596 112.189 66.9074 112.02 66.3237 111.682C65.7401 111.336 65.2841 110.857 64.9557 110.246C64.6365 109.635 64.4769 108.937 64.4769 108.153C64.4769 107.36 64.6365 106.657 64.9557 106.046C65.2841 105.435 65.7401 104.956 66.3237 104.61C66.9074 104.263 67.596 104.09 68.3894 104.09C69.1829 104.09 69.8714 104.263 70.4551 104.61C71.0388 104.956 71.4902 105.435 71.8094 106.046C72.1377 106.657 72.3019 107.36 72.3019 108.153C72.3019 108.937 72.1377 109.635 71.8094 110.246C71.4902 110.857 71.0388 111.336 70.4551 111.682C69.8714 112.02 69.1829 112.189 68.3894 112.189ZM68.3894 110.848C68.891 110.848 69.3197 110.739 69.6753 110.52C70.031 110.292 70.3046 109.977 70.4961 109.576C70.6877 109.165 70.7834 108.691 70.7834 108.153C70.7834 107.606 70.6877 107.127 70.4961 106.717C70.3046 106.306 70.031 105.992 69.6753 105.773C69.3197 105.545 68.891 105.431 68.3894 105.431C67.8878 105.431 67.4546 105.545 67.0898 105.773C66.7341 105.992 66.4605 106.306 66.269 106.717C66.0775 107.127 65.9817 107.606 65.9817 108.153C65.9817 108.691 66.0775 109.165 66.269 109.576C66.4605 109.977 66.7341 110.292 67.0898 110.52C67.4546 110.739 67.8878 110.848 68.3894 110.848ZM79.88 111.97H78.4162V104.309H79.88V111.97ZM78.4162 108.126L78.6351 109.63C78.6351 109.868 78.5941 110.132 78.512 110.424C78.4299 110.716 78.284 110.998 78.0742 111.272C77.8736 111.537 77.5954 111.755 77.2397 111.929C76.8841 112.102 76.4326 112.189 75.8854 112.189C75.3929 112.189 74.9506 112.088 74.5585 111.888C74.1754 111.687 73.8699 111.354 73.6419 110.889C73.423 110.424 73.3136 109.804 73.3136 109.029V104.309H74.7773V108.851C74.7773 109.27 74.8184 109.635 74.9005 109.945C74.9825 110.246 75.1285 110.483 75.3382 110.656C75.5571 110.821 75.8626 110.903 76.2548 110.903C76.6287 110.903 76.9798 110.798 77.3081 110.588C77.6365 110.378 77.9009 110.068 78.1016 109.658C78.3113 109.238 78.4162 108.728 78.4162 108.126ZM81.2497 104.309H82.7135V111.97H81.2497V104.309ZM82.7135 107.948L82.5083 106.812C82.5083 106.575 82.5356 106.302 82.5903 105.992C82.6542 105.681 82.7773 105.385 82.9597 105.102C83.1512 104.811 83.4294 104.569 83.7942 104.377C84.1681 104.186 84.6606 104.09 85.2716 104.09V105.567C84.7335 105.567 84.273 105.64 83.8899 105.786C83.5069 105.932 83.2151 106.179 83.0144 106.525C82.8138 106.863 82.7135 107.337 82.7135 107.948ZM90.3101 108.632V107.401H95.3307L94.7288 107.825C94.747 107.387 94.6786 106.99 94.5236 106.635C94.3777 106.27 94.1497 105.978 93.8396 105.759C93.5295 105.54 93.1373 105.431 92.6631 105.431C91.9973 105.431 91.4456 105.636 91.0078 106.046C90.5792 106.448 90.3466 107.008 90.3101 107.729H88.7643C88.8281 106.972 89.0333 106.324 89.3799 105.786C89.7356 105.239 90.1961 104.82 90.7616 104.528C91.327 104.236 91.9609 104.09 92.6631 104.09C93.1829 104.09 93.6709 104.19 94.1269 104.391C94.5829 104.592 94.975 104.888 95.3033 105.28C95.6317 105.672 95.8733 106.151 96.0284 106.717C96.1925 107.273 96.2381 107.911 96.1652 108.632H90.3101ZM92.6631 112.189C91.9335 112.189 91.286 112.038 90.7205 111.737C90.1642 111.436 89.7173 111.021 89.3799 110.492C89.0425 109.954 88.8418 109.334 88.778 108.632H90.3101C90.3831 109.288 90.6111 109.822 90.9941 110.232C91.3863 110.643 91.9426 110.848 92.6631 110.848C93.2012 110.848 93.6253 110.725 93.9353 110.479C94.2545 110.223 94.478 109.913 94.6057 109.548H96.1652C96.0375 110.077 95.8186 110.538 95.5085 110.93C95.1985 111.322 94.8017 111.632 94.3184 111.86C93.835 112.079 93.2833 112.189 92.6631 112.189ZM97.2809 104.309H98.7447V111.97H97.2809V104.309ZM98.7447 108.153L98.5258 106.648C98.5258 106.411 98.5669 106.147 98.6489 105.855C98.731 105.563 98.8633 105.285 99.0457 105.02C99.2372 104.747 99.488 104.523 99.7981 104.35C100.117 104.177 100.519 104.09 101.002 104.09C101.476 104.09 101.891 104.19 102.247 104.391C102.602 104.592 102.876 104.925 103.068 105.39C103.268 105.846 103.369 106.466 103.369 107.25V111.97H101.905V107.428C101.905 107.008 101.873 106.648 101.809 106.347C101.754 106.037 101.636 105.8 101.453 105.636C101.271 105.463 100.993 105.376 100.619 105.376C100.3 105.376 99.9987 105.481 99.716 105.691C99.4333 105.9 99.2007 106.21 99.0183 106.621C98.8359 107.031 98.7447 107.542 98.7447 108.153ZM103.369 108.153L102.999 106.648C102.999 106.411 103.045 106.147 103.136 105.855C103.236 105.563 103.387 105.285 103.587 105.02C103.797 104.747 104.066 104.523 104.395 104.35C104.732 104.177 105.142 104.09 105.626 104.09C106.1 104.09 106.515 104.19 106.871 104.391C107.226 104.592 107.5 104.925 107.691 105.39C107.892 105.846 107.992 106.466 107.992 107.25V111.97H106.529V107.428C106.529 107.008 106.497 106.648 106.433 106.347C106.378 106.037 106.26 105.8 106.077 105.636C105.895 105.463 105.617 105.376 105.243 105.376C104.924 105.376 104.623 105.481 104.34 105.691C104.057 105.9 103.825 106.21 103.642 106.621C103.46 107.031 103.369 107.542 103.369 108.153ZM111.986 112.189C111.484 112.189 111.033 112.097 110.631 111.915C110.23 111.723 109.911 111.45 109.674 111.094C109.446 110.739 109.332 110.305 109.332 109.795C109.332 109.193 109.478 108.718 109.77 108.372C110.061 108.025 110.449 107.77 110.932 107.606C111.416 107.442 111.94 107.337 112.506 107.291C113.08 107.236 113.646 107.214 114.202 107.223V108.44C113.062 108.404 112.223 108.5 111.685 108.728C111.147 108.946 110.878 109.284 110.878 109.74C110.878 110.132 111.001 110.424 111.247 110.615C111.502 110.798 111.853 110.889 112.3 110.889C112.665 110.889 112.989 110.816 113.272 110.67C113.563 110.515 113.791 110.292 113.956 110C114.12 109.708 114.202 109.357 114.202 108.946V108.03H115.666V111.97H114.202V111.122C113.974 111.459 113.673 111.723 113.299 111.915C112.925 112.097 112.487 112.189 111.986 112.189ZM109.154 107.141C109.154 106.621 109.282 106.128 109.537 105.663C109.792 105.198 110.171 104.82 110.672 104.528C111.174 104.236 111.78 104.09 112.492 104.09C113.477 104.09 114.234 104.373 114.763 104.938C115.292 105.495 115.588 106.256 115.652 107.223H114.202C114.165 106.666 114.015 106.233 113.75 105.923C113.495 105.604 113.076 105.444 112.492 105.444C112.054 105.444 111.703 105.522 111.438 105.677C111.183 105.832 110.996 106.042 110.878 106.306C110.759 106.562 110.7 106.84 110.7 107.141H109.154ZM117.384 104.309H118.862V111.97H117.384V104.309ZM116.947 101.641L118.575 101.286L118.944 102.941L117.302 103.31L116.947 101.641ZM120.34 101.71H121.804V111.97H120.34V101.71Z" fill="white"/>
</svg>
