<svg fill="none" height="200" viewBox="0 0 316 200" width="316" xmlns="http://www.w3.org/2000/svg"><path d="m0 0h316v200h-316z" fill="#e5e5e5"/><path d="m91.0646 96.4627h1.8255c.4879 0 .9102.0577 1.2669.1731.3619.1154.64.3042.834.5665.1994.2623.2991.6112.2991 1.0465 0 .4354-.0997.7843-.2991 1.0466-.194.2623-.4721.4537-.834.5744-.3567.1154-.779.1732-1.2669.1732h-.9599v1.928h-.8656zm1.8255 2.8248c.3148 0 .5823-.0288.8026-.0865.2256-.0578.3961-.1627.5115-.3148.1206-.1521.181-.3646.181-.6374 0-.278-.0604-.4904-.181-.6373-.1154-.1469-.2859-.2492-.5115-.3069-.2203-.0577-.4878-.0865-.8026-.0865h-.9599v2.0694zm3.8181.3698v2.3137h-.8498v-4.4067h.8498v.7396c.0525-.1521.1364-.2937.2518-.4249.1155-.1311.2702-.236.4643-.3147.1993-.084.4511-.1259.7554-.1259v.8498c-.3148 0-.5823.042-.8026.1259s-.3882.2256-.5036.4249c-.1102.1941-.1653.4669-.1653.8183zm2.0168-3.5881h.9521v.9679h-.9521zm.0472 1.4951h.8498v4.4067h-.8498zm1.4308 0h.912l1.094 3.6747 1.094-3.6747h.913l-1.417 4.4067h-1.18zm6.226-.1259c.598 0 1.052.181 1.361.5429.31.362.464.8524.464 1.4714v2.5183h-.849v-.598c-.121.225-.286.404-.496.535-.21.126-.47.189-.779.189-.289 0-.548-.053-.779-.158-.231-.11-.412-.267-.543-.472-.131-.204-.197-.454-.197-.747 0-.347.082-.619.244-.8187.168-.2046.388-.3568.661-.4564.278-.0997.58-.1626.905-.1889.331-.0262.656-.0314.976-.0157-.026-.32-.113-.5744-.26-.7633-.147-.1888-.383-.2832-.708-.2832-.341 0-.598.0918-.771.2754-.173.1783-.26.3934-.26.6452h-.897c0-.2938.074-.5665.22-.8183.147-.2571.365-.4643.654-.6217.288-.1573.64-.236 1.054-.236zm-.936 3.2336c0 .221.07.389.212.504.147.115.351.173.614.173.304 0 .561-.097.771-.291s.315-.47.315-.826v-.3937c-.651-.0315-1.133.0341-1.448.1967-.31.163-.464.375-.464.637zm7.66-.55c-.016.377-.11.716-.283 1.015-.168.299-.404.535-.708.708-.305.168-.664.252-1.078.252-.457 0-.855-.097-1.196-.292-.336-.199-.596-.474-.779-.826-.184-.351-.276-.753-.276-1.2036 0-.4564.092-.8603.276-1.2118.183-.3515.443-.6269.779-.8262.341-.1993.739-.299 1.196-.299.398 0 .747.0892 1.046.2675.304.1731.543.4013.716.6846.179.278.276.5796.291.9049h-.897c-.01-.1784-.06-.3489-.149-.5115-.084-.1678-.21-.3042-.378-.4092-.163-.1049-.372-.1573-.629-.1573-.31 0-.567.0682-.772.2046-.204.1311-.356.3147-.456.5508-.1.236-.149.5036-.149.8026 0 .4456.112.8156.338 1.1096.226.288.572.433 1.039.433.272 0 .493-.055.661-.166.173-.115.301-.265.385-.448.084-.184.131-.378.142-.582zm1.606 1.849-1.417-4.4067h.913l1.078 3.6197 1.11-3.6197h.912l-1.416 4.4067c-.115.362-.236.658-.362.889-.12.231-.283.401-.488.511-.199.116-.474.173-.826.173h-.519v-.723h.511c.189 0 .333-.04.433-.119.1-.073.178-.175.236-.306.058-.126.113-.268.165-.425zm4.806-5.5083h1.826c.488 0 .91.0577 1.267.1731.362.1154.64.3042.834.5665.199.2623.299.6112.299 1.0465 0 .4354-.1.7843-.299 1.0466-.194.2623-.472.4537-.834.5744-.357.1154-.779.1732-1.267.1732h-.96v1.928h-.866zm1.826 2.8248c.315 0 .582-.0288.802-.0865.226-.0578.396-.1627.512-.3148.121-.1521.181-.3646.181-.6374 0-.278-.06-.4904-.181-.6373-.116-.1469-.286-.2492-.512-.3069-.22-.0577-.487-.0865-.802-.0865h-.96v2.0694zm5.03 2.8095c-.456 0-.855-.097-1.196-.292-.336-.199-.595-.474-.779-.826-.183-.351-.275-.753-.275-1.2036 0-.4564.092-.8603.275-1.2118.184-.3515.443-.6269.779-.8262.341-.1993.74-.299 1.196-.299.451 0 .845.0997 1.181.299.341.1993.603.4747.786.8262.189.3515.284.7554.284 1.2118 0 .4506-.095.8526-.284 1.2036-.183.352-.445.627-.786.826-.336.195-.73.292-1.181.292zm0-.772c.43 0 .766-.141 1.007-.424.247-.289.37-.664.37-1.1256 0-.4669-.123-.8446-.37-1.1331-.241-.2885-.577-.4328-1.007-.4328-.435 0-.774.1443-1.015.4328s-.362.6662-.362 1.1331c0 .4616.121.8366.362 1.1256.241.283.58.424 1.015.424zm2.856-5.2558h.85v5.9018h-.85zm1.645 0h.952v.9679h-.952zm.047 1.4951h.85v4.4067h-.85zm5.813 2.5577c-.016.377-.11.716-.283 1.015-.168.299-.404.535-.709.708-.304.168-.663.252-1.078.252-.456 0-.855-.097-1.196-.292-.335-.199-.595-.474-.779-.826-.183-.351-.275-.753-.275-1.2036 0-.4564.092-.8603.275-1.2118.184-.3515.444-.6269.779-.8262.341-.1993.74-.299 1.196-.299.399 0 .748.0892 1.047.2675.304.1731.543.4013.716.6846.178.278.275.5796.291.9049h-.897c-.01-.1784-.06-.3489-.149-.5115-.084-.1678-.21-.3042-.378-.4092-.163-.1049-.372-.1573-.63-.1573-.309 0-.566.0682-.771.2046-.204.1311-.356.3147-.456.5508-.1.236-.15.5036-.15.8026 0 .4456.113.8156.339 1.1096.225.288.572.433 1.038.433.273 0 .494-.055.661-.166.174-.115.302-.265.386-.448.084-.184.131-.378.142-.582zm1.606 1.849-1.417-4.4067h.913l1.078 3.6197 1.11-3.6197h.912l-1.416 4.4067c-.115.362-.236.658-.362.889-.121.231-.283.401-.488.511-.199.116-.475.173-.826.173h-.519v-.723h.511c.189 0 .333-.04.433-.119.1-.073.178-.175.236-.306.058-.126.113-.268.165-.425zm7.678-2.2114v-2.1953h.85v4.4067h-.85v-.732c-.063.147-.155.286-.275.417-.121.131-.278.236-.472.315-.189.084-.425.126-.708.126-.284 0-.538-.058-.764-.174-.22-.115-.396-.306-.527-.574-.126-.267-.189-.624-.189-1.07v-2.7147h.842v2.6127c0 .356.058.642.173.857.116.215.344.323.685.323.21 0 .406-.06.59-.181.189-.121.344-.299.464-.535.121-.241.181-.535.181-.8814zm1.63 3.7844v-5.9797h.85v.6767c.137-.2518.32-.4485.551-.5902.236-.1416.525-.2124.866-.2124.403 0 .752.0997 1.046.299.299.1993.53.4747.692.8262.163.3515.244.7554.244 1.2118 0 .4506-.081.8526-.244 1.2036-.162.352-.393.627-.692.826-.294.195-.643.292-1.046.292-.352 0-.646-.071-.882-.213-.231-.147-.409-.341-.535-.582v2.242zm2.148-2.219c.378 0 .677-.141.898-.424.22-.289.33-.664.33-1.1256 0-.4669-.11-.8446-.33-1.1331-.221-.2885-.52-.4328-.898-.4328-.293 0-.537.0682-.731.2046-.189.1364-.331.3226-.425.5587-.095.236-.142.5036-.142.8026 0 .2936.047.5586.142.7946.094.236.236.422.425.559.194.131.438.196.731.196zm4.518.772c-.404 0-.755-.097-1.054-.292-.299-.199-.53-.474-.692-.826-.158-.351-.237-.753-.237-1.2036 0-.4564.079-.8603.237-1.2118.162-.3515.393-.6269.692-.8262s.65-.299 1.054-.299c.336 0 .619.0708.85.2124.236.1417.425.3384.567.5902v-2.1718h.85v5.9018h-.85v-.669c-.131.241-.315.435-.551.582-.231.142-.519.213-.866.213zm.118-.772c.289 0 .528-.065.716-.196.195-.137.339-.323.433-.559.1-.236.15-.501.15-.7946 0-.299-.05-.5666-.15-.8026-.094-.2361-.238-.4223-.433-.5587-.188-.1364-.427-.2046-.716-.2046-.383 0-.684.1443-.904.4328-.216.2885-.323.6662-.323 1.1331 0 .4616.107.8366.323 1.1256.22.283.521.424.904.424zm4.793-3.8866c.598 0 1.052.181 1.361.5429.31.362.465.8524.465 1.4714v2.5183h-.85v-.598c-.121.225-.286.404-.496.535-.21.126-.469.189-.779.189-.288 0-.548-.053-.779-.158-.231-.11-.412-.267-.543-.472-.131-.204-.197-.454-.197-.747 0-.347.082-.619.244-.8187.168-.2046.389-.3568.661-.4564.278-.0997.58-.1626.905-.1889.331-.0262.656-.0314.976-.0157-.026-.32-.113-.5744-.26-.7633-.147-.1888-.383-.2832-.708-.2832-.341 0-.598.0918-.771.2754-.173.1783-.26.3934-.26.6452h-.897c0-.2938.074-.5665.221-.8183.147-.2571.364-.4643.653-.6217.288-.1573.64-.236 1.054-.236zm-.936 3.2336c0 .221.071.389.212.504.147.115.352.173.614.173.304 0 .561-.097.771-.291s.315-.47.315-.826v-.3937c-.651-.0315-1.133.0341-1.448.1967-.309.163-.464.375-.464.637zm3.163-3.1077h.661v-1.1016h.85v1.1016h.81v.7239h-.81v2.4868c0 .314.154.472.464.472h.472v.724h-.48c-.441 0-.768-.105-.984-.315-.215-.215-.322-.509-.322-.881v-2.4868h-.661zm4.941 4.5327c-.457 0-.856-.097-1.197-.292-.335-.199-.595-.474-.779-.826-.183-.351-.275-.753-.275-1.2036 0-.4564.092-.8603.275-1.2118.184-.3515.444-.6269.779-.8262.341-.1993.74-.299 1.197-.299.398 0 .76.1023 1.085.3069.326.2045.575.5035.748.897.173.3882.231.8577.173 1.4087h-3.368c.042.377.176.684.402.92.225.236.545.354.96.354.304 0 .545-.07.723-.212.184-.147.313-.328.386-.543h.897c-.105.456-.333.826-.685 1.11-.346.278-.786.417-1.321.417zm0-3.8875c-.389 0-.693.1049-.913.3148-.221.2098-.362.4799-.425.8104h2.51c-.032-.3147-.147-.5796-.346-.7947-.194-.2203-.47-.3305-.826-.3305zm3.386 2.3685c.026.267.141.467.346.598s.449.197.732.197c.273 0 .496-.053.669-.158s.259-.27.259-.495c0-.132-.052-.234-.157-.307-.1-.074-.234-.129-.401-.166-.163-.041-.344-.078-.543-.11-.2-.031-.399-.071-.598-.118-.194-.0522-.375-.123-.543-.2122-.163-.0944-.294-.2203-.394-.3777-.099-.1573-.149-.3619-.149-.6137 0-.2361.073-.459.22-.6688.147-.2099.354-.3804.622-.5115.273-.1311.59-.1967.952-.1967.315 0 .606.0656.873.1967.268.1259.483.3016.645.5272.163.2256.244.4878.244.7869h-.81c-.021-.2676-.126-.4643-.315-.5902-.183-.1311-.406-.1967-.669-.1967-.304 0-.535.0629-.692.1888-.152.1207-.228.2754-.228.4643-.006.1469.042.2597.141.3383.105.0787.239.1391.402.181.168.042.351.0787.55.1102.2.0315.397.0708.591.118.199.042.38.1075.543.1967.167.084.301.2046.401.3624.105.152.157.351.157.598 0 .414-.165.747-.496.999-.325.252-.763.378-1.314.378-.346 0-.661-.066-.944-.197-.278-.137-.501-.317-.669-.543-.162-.231-.249-.491-.259-.779z" fill="#000"/><path d="m92.1111 89.8947c.0263.2571.1417.4616.3463.6138.2098.1521.4642.2282.7632.2282.2675 0 .4931-.0446.6767-.1338.1836-.0944.2754-.2413.2754-.4407 0-.1416-.0577-.2544-.1731-.3383s-.2702-.1521-.4642-.2046c-.1889-.0524-.3961-.1049-.6217-.1574-.2255-.0524-.4537-.1154-.6845-.1888-.2256-.0787-.4354-.1836-.6295-.3148-.1889-.1311-.341-.3016-.4564-.5114-.1154-.2151-.1731-.4852-.1731-.8105 0-.3147.0918-.5927.2754-.8341.1888-.2465.4459-.438.7711-.5744.3305-.1416.7056-.2124 1.1252-.2124.4092 0 .7738.0813 1.0938.2439s.5717.3856.7553.6688c.1889.2833.2833.6033.2833.96h-1.196c-.021-.2623-.1128-.4669-.2754-.6137-.1574-.1469-.3908-.2204-.7003-.2204-.3043 0-.5377.0551-.7003.1653-.1626.1101-.244.2492-.244.417 0 .1574.0578.2807.1732.3698.1154.0892.2675.1627.4563.2204.1941.0577.404.1128.6295.1652.2308.0472.459.1075.6846.181.2256.0734.4328.1731.6216.299.1941.1259.3489.2938.4643.5036.1154.2046.1731.4669.1731.7868 0 .5089-.1915.9049-.5744 1.1882-.383.2833-.9207.4249-1.6131.4249-.4249 0-.8052-.0813-1.141-.2439-.3357-.1626-.6032-.3856-.8025-.6688-.1994-.2833-.3069-.6059-.3227-.9679zm3.6884-2.6517h.5036v-1.1016h1.1252v1.1016h.6924v.96h-.6924v2.093c0 .2623.1416.3934.4249.3934h.3934v.96h-.4013c-1.0281 0-1.5422-.4511-1.5422-1.3534v-2.093h-.5036zm4.8755-.1259c.624 0 1.096.181 1.416.5429.325.362.488.8525.488 1.4715v2.5179h-1.125v-.5193c-.116.1993-.27.3567-.464.4721-.195.1154-.423.1731-.685.1731-.4302 0-.7869-.118-1.0702-.3541-.278-.2413-.417-.5823-.417-1.0229 0-.341.0813-.6111.2439-.8105.1626-.1993.3751-.3488.6374-.4485.2622-.0996.5459-.1652.8499-.1967.309-.0315.608-.0524.897-.0629-.021-.2204-.087-.404-.197-.5508-.105-.1522-.296-.2282-.574-.2282s-.488.0708-.63.2124c-.1361.1364-.2043.2964-.2043.48h-1.1724c0-.299.0787-.5744.236-.8262.1574-.257.3856-.4616.6846-.6137.299-.1574.6611-.2361 1.0861-.2361zm-.6848 3.2183c0 .1416.0528.2465.1578.3147.11.0682.236.1023.377.1023.137 0 .276-.021.417-.063.147-.0419.268-.1232.362-.2439.1-.1206.15-.299.15-.535v-.2912c-.52.0053-.895.0787-1.125.2203-.226.1364-.3388.3017-.3388.4958zm7.4448-.5351c0 .3777-.086.716-.259 1.015s-.415.5351-.724.7082c-.31.1679-.672.2518-1.086.2518-.451 0-.847-.097-1.188-.2911-.336-.1994-.598-.4748-.787-.8262-.184-.3515-.275-.7528-.275-1.2039 0-.4564.091-.8603.275-1.2118.189-.3515.451-.6269.787-.8262.341-.1993.737-.299 1.188-.299.399 0 .753.0892 1.062.2675.31.1731.551.4013.724.6846.179.278.268.5796.268.9049h-1.188c0-.1416-.029-.2754-.087-.4013s-.15-.2282-.275-.3069c-.126-.0839-.294-.1259-.504-.1259-.268 0-.483.0577-.645.1731-.163.1154-.281.2728-.354.4721-.069.1994-.103.4223-.103.6689 0 .2413.034.4616.103.6609.073.1941.191.3489.354.4643.162.1154.377.1731.645.1731.315 0 .543-.0944.685-.2833.141-.1941.212-.417.212-.6688zm.572-4.0523h1.125v3.1081l1.275-1.6131h1.322l-1.417 1.7862 1.519 2.6202h-1.227l-.96-1.7783-.512.6452v1.1331h-1.125zm8.513 6.0273c-.583 0-1.078-.1285-1.487-.3856-.404-.2622-.711-.6111-.921-1.0465s-.315-.9206-.315-1.4557c0-.3934.058-.7632.173-1.1094.121-.3515.297-.6584.527-.9207.231-.2623.515-.4668.85-.6137.341-.1521.732-.2282 1.173-.2282.435 0 .821.0761 1.156.2282.341.1469.627.3514.858.6137s.404.5692.519.9207c.121.3462.181.716.181 1.1094 0 .5351-.105 1.0203-.314 1.4557-.21.4354-.517.7843-.921 1.0465-.404.2571-.897.3856-1.479.3856zm0-1.0386c.356 0 .648-.0892.873-.2676.226-.1783.391-.4065.496-.6845.105-.2833.157-.5823.157-.8971 0-.3095-.052-.6032-.157-.8813-.105-.2832-.27-.5114-.496-.6845-.225-.1784-.517-.2676-.873-.2676-.357 0-.651.0892-.882.2676-.225.1731-.39.4013-.495.6845-.105.2781-.158.5718-.158.8813 0 .3148.053.6138.158.8971.105.278.27.5062.495.6845.231.1784.525.2676.882.2676zm2.977-3.4937h1.204l.897 3.3363.889-3.3363h1.204l-1.338 4.4064h-1.518zm6.609 4.5323c-.452 0-.848-.097-1.189-.2911-.335-.1994-.598-.4748-.786-.8262-.184-.3515-.276-.7528-.276-1.2039 0-.4564.092-.8603.276-1.2118.188-.3515.451-.6269.786-.8262.341-.1993.737-.299 1.189-.299.299 0 .582.0603.849.181.268.1206.499.2964.693.5272s.336.5141.425.8498.102.7186.039 1.1488h-3.076c.041.2728.146.4983.314.6767s.42.2675.756.2675c.215 0 .393-.0498.535-.1495.141-.0996.241-.2229.299-.3698h1.188c-.063.3043-.186.5718-.37.8026-.184.2256-.417.4039-.7.5351-.278.1259-.596.1888-.952.1888zm0-3.651c-.299 0-.533.0734-.701.2203-.162.1469-.275.3357-.338.5665h1.928c-.016-.1993-.095-.3803-.236-.5429-.142-.1626-.36-.2439-.653-.2439zm3.742 1.3691v2.156h-1.125v-4.4064h1.125v.6688c.053-.1364.132-.2649.236-.3855.111-.1259.257-.2256.441-.299.189-.0735.428-.1102.716-.1102v1.1016c-.309 0-.569.0341-.779.1023-.204.0682-.359.1941-.464.3777-.1.1783-.15.4432-.15.7947zm2.209 2.156v-3.4464h-.503v-.96h.503v-.1416c0-.9023.515-1.3534 1.543-1.3534h.401v.9599h-.393c-.284 0-.425.1312-.425.3935v.1416h.787v.96h-.787v3.4464zm2.56-5.9014h1.126v5.9014h-1.126zm3.937 6.0273c-.451 0-.847-.097-1.188-.2911-.336-.1994-.598-.4748-.787-.8262-.184-.3515-.275-.7528-.275-1.2039 0-.4564.091-.8603.275-1.2118.189-.3515.451-.6269.787-.8262.341-.1993.737-.299 1.188-.299.456 0 .852.0997 1.188.299s.596.4747.779.8262c.189.3515.283.7554.283 1.2118 0 .4511-.094.8524-.283 1.2039-.183.3514-.443.6268-.779.8262-.336.1941-.732.2911-1.188.2911zm0-1.0072c.257 0 .464-.0577.622-.1731.162-.1206.283-.2806.362-.48.078-.1993.118-.4196.118-.6609 0-.2466-.04-.4695-.118-.6689-.079-.2045-.2-.3645-.362-.4799-.158-.1207-.365-.181-.622-.181-.252 0-.459.0603-.622.181-.162.1154-.283.2754-.362.4799-.078.1994-.118.4223-.118.6689 0 .2413.04.4616.118.6609.079.1994.2.3594.362.48.163.1154.37.1731.622.1731zm2.482-3.5251h1.204l.558 3.1474.677-3.1474h1.22l.676 3.1474.559-3.1474h1.204l-1.023 4.4064h-1.519l-.503-2.3684-.512 2.3684h-1.518z" fill="#000"/><path d="m91.0646 106.784h.8656v5.508h-.8656zm2.5239 3.313v2.195h-.8498v-4.406h.8498v.716c.0839-.215.2282-.41.4327-.583.2046-.173.4905-.259.8577-.259.299 0 .5587.073.779.22.2203.142.3803.38.48.716.0629-.152.1521-.299.2675-.441.1207-.146.2728-.265.4564-.354.1889-.094.4144-.141.6767-.141.2728 0 .5115.057.7161.173.2045.115.3645.307.4799.574.1154.262.1731.619.1731 1.07v2.715h-.8498v-2.612c0-.242-.0183-.449-.055-.622-.0315-.178-.0997-.315-.2046-.409-.1049-.1-.2623-.15-.4721-.15-.1836 0-.3594.061-.5272.181-.1627.121-.2964.299-.4013.535-.0997.236-.1495.53-.1495.882v2.195h-.8499v-2.612c0-.242-.0183-.449-.055-.622-.0315-.178-.0997-.315-.2046-.409-.1049-.1-.2623-.15-.4721-.15-.1836 0-.3594.061-.5272.181-.1626.121-.2964.299-.4013.535-.0997.236-.1495.53-.1495.882zm6.074 3.769v-5.98h.8495v.676c.137-.252.32-.448.551-.59.236-.142.525-.212.866-.212.404 0 .752.099 1.046.299.299.199.53.474.693.826.162.351.244.755.244 1.212 0 .451-.082.852-.244 1.204-.163.351-.394.626-.693.826-.294.194-.642.291-1.046.291-.352 0-.646-.071-.882-.213-.23-.146-.409-.341-.535-.582v2.243zm2.1485-2.219c.377 0 .676-.142.897-.425.22-.289.33-.664.33-1.125 0-.467-.11-.845-.33-1.133-.221-.289-.52-.433-.897-.433-.294 0-.538.068-.732.204-.189.137-.331.323-.425.559s-.142.504-.142.803c0 .293.048.558.142.794s.236.423.425.559c.194.131.438.197.732.197zm4.785.771c-.456 0-.855-.097-1.196-.291-.336-.2-.595-.475-.779-.826-.184-.352-.275-.753-.275-1.204 0-.457.091-.861.275-1.212.184-.352.443-.627.779-.826.341-.2.74-.299 1.196-.299.451 0 .845.099 1.18.299.341.199.604.474.787.826.189.351.283.755.283 1.212 0 .451-.094.852-.283 1.204-.183.351-.446.626-.787.826-.335.194-.729.291-1.18.291zm0-.771c.43 0 .766-.142 1.007-.425.247-.289.37-.664.37-1.125 0-.467-.123-.845-.37-1.133-.241-.289-.577-.433-1.007-.433-.435 0-.774.144-1.015.433-.241.288-.362.666-.362 1.133 0 .461.121.836.362 1.125.241.283.58.425 1.015.425zm3.706-1.668v2.313h-.85v-4.406h.85v.739c.052-.152.136-.294.251-.425.116-.131.271-.236.465-.314.199-.084.451-.126.755-.126v.849c-.315 0-.582.042-.803.126-.22.084-.388.226-.503.425-.11.194-.165.467-.165.819zm1.827-2.093h.661v-1.102h.85v1.102h.81v.723h-.81v2.487c0 .315.154.472.464.472h.472v.724h-.48c-.441 0-.768-.105-.983-.315-.216-.215-.323-.509-.323-.881v-2.487h-.661zm4.773-.126c.599 0 1.052.181 1.362.543.309.362.464.852.464 1.471v2.518h-.85v-.598c-.12.226-.286.404-.496.535-.209.126-.469.189-.779.189-.288 0-.548-.053-.779-.157-.23-.111-.411-.268-.542-.473-.132-.204-.197-.453-.197-.747 0-.346.081-.619.244-.818.168-.205.388-.357.661-.457.278-.1.579-.162.905-.189.33-.026.655-.031.975-.015-.026-.32-.112-.575-.259-.764s-.383-.283-.709-.283c-.34 0-.598.092-.771.275-.173.179-.259.394-.259.646h-.897c0-.294.073-.567.22-.819.147-.257.365-.464.653-.621.289-.158.64-.236 1.054-.236zm-.936 3.234c0 .22.071.388.213.503.146.116.351.173.613.173.305 0 .562-.097.771-.291.21-.194.315-.469.315-.826v-.393c-.65-.032-1.133.034-1.448.196-.309.163-.464.375-.464.638zm3.506-3.108h.85v.723c.089-.22.246-.417.472-.59.231-.173.556-.259.976-.259.283 0 .535.057.755.173.226.115.404.307.535.574.131.262.197.619.197 1.07v2.715h-.85v-2.612c0-.357-.058-.643-.173-.858-.116-.215-.341-.323-.677-.323-.21 0-.409.061-.598.181-.189.121-.343.299-.464.535-.116.236-.173.53-.173.882v2.195h-.85zm4.237 0h.661v-1.102h.85v1.102h.81v.723h-.81v2.487c0 .315.155.472.464.472h.472v.724h-.48c-.44 0-.768-.105-.983-.315-.215-.215-.323-.509-.323-.881v-2.487h-.661zm7.604 2.195v-2.195h.849v4.406h-.849v-.732c-.063.147-.155.286-.276.417-.12.131-.278.236-.472.315-.189.084-.425.126-.708.126s-.538-.058-.763-.173c-.221-.116-.396-.307-.528-.575-.125-.267-.188-.624-.188-1.07v-2.714h.842v2.612c0 .357.057.643.173.858.115.215.343.322.684.322.21 0 .407-.06.59-.181.189-.12.344-.299.465-.535.12-.241.181-.535.181-.881zm1.63 3.785v-5.98h.85v.676c.136-.252.32-.448.55-.59.236-.142.525-.212.866-.212.404 0 .753.099 1.046.299.299.199.53.474.693.826.162.351.244.755.244 1.212 0 .451-.082.852-.244 1.204-.163.351-.394.626-.693.826-.293.194-.642.291-1.046.291-.352 0-.645-.071-.881-.213-.231-.146-.41-.341-.535-.582v2.243zm2.148-2.219c.378 0 .677-.142.897-.425.22-.289.33-.664.33-1.125 0-.467-.11-.845-.33-1.133-.22-.289-.519-.433-.897-.433-.294 0-.538.068-.732.204-.189.137-.33.323-.425.559-.094.236-.141.504-.141.803 0 .293.047.558.141.794.095.236.236.423.425.559.194.131.438.197.732.197zm4.518.771c-.404 0-.756-.097-1.055-.291-.299-.2-.529-.475-.692-.826-.157-.352-.236-.753-.236-1.204 0-.457.079-.861.236-1.212.163-.352.393-.627.692-.826.299-.2.651-.299 1.055-.299.335 0 .619.07.85.212.236.142.424.338.566.59v-2.171h.85v5.901h-.85v-.669c-.131.241-.315.436-.551.582-.231.142-.519.213-.865.213zm.118-.771c.288 0 .527-.066.716-.197.194-.136.338-.323.433-.559.099-.236.149-.501.149-.794 0-.299-.05-.567-.149-.803-.095-.236-.239-.422-.433-.559-.189-.136-.428-.204-.716-.204-.383 0-.685.144-.905.433-.215.288-.323.666-.323 1.133 0 .461.108.836.323 1.125.22.283.522.425.905.425zm4.792-3.887c.598 0 1.052.181 1.362.543.309.362.464.852.464 1.471v2.518h-.85v-.598c-.12.226-.286.404-.496.535-.209.126-.469.189-.779.189-.288 0-.548-.053-.779-.157-.23-.111-.411-.268-.542-.473-.132-.204-.197-.453-.197-.747 0-.346.081-.619.244-.818.168-.205.388-.357.661-.457.278-.1.579-.162.905-.189.33-.026.655-.031.975-.015-.026-.32-.112-.575-.259-.764s-.383-.283-.709-.283c-.34 0-.598.092-.771.275-.173.179-.259.394-.259.646h-.897c0-.294.073-.567.22-.819.147-.257.365-.464.653-.621.289-.158.64-.236 1.054-.236zm-.936 3.234c0 .22.071.388.213.503.146.116.351.173.613.173.305 0 .562-.097.771-.291.21-.194.315-.469.315-.826v-.393c-.65-.032-1.133.034-1.448.196-.309.163-.464.375-.464.638zm3.163-3.108h.661v-1.102h.85v1.102h.81v.723h-.81v2.487c0 .315.155.472.464.472h.472v.724h-.48c-.44 0-.768-.105-.983-.315-.215-.215-.323-.509-.323-.881v-2.487h-.661zm4.941 4.532c-.457 0-.855-.097-1.196-.291-.336-.2-.596-.475-.779-.826-.184-.352-.276-.753-.276-1.204 0-.457.092-.861.276-1.212.183-.352.443-.627.779-.826.341-.2.739-.299 1.196-.299.399 0 .76.102 1.086.307.325.204.574.503.747.897.173.388.231.857.173 1.408h-3.367c.042.378.175.685.401.921.225.236.545.354.96.354.304 0 .545-.071.724-.213.183-.147.312-.328.385-.543h.897c-.105.457-.333.827-.684 1.11-.346.278-.787.417-1.322.417zm0-3.887c-.388 0-.693.105-.913.315-.22.209-.362.48-.425.81h2.51c-.031-.315-.147-.58-.346-.795-.194-.22-.469-.33-.826-.33zm4.042-.645h.661v-1.102h.85v1.102h.81v.723h-.81v2.487c0 .315.155.472.464.472h.472v.724h-.48c-.44 0-.768-.105-.983-.315-.215-.215-.323-.509-.323-.881v-2.487h-.661zm4.941 4.532c-.457 0-.855-.097-1.196-.291-.336-.2-.596-.475-.779-.826-.184-.352-.276-.753-.276-1.204 0-.457.092-.861.276-1.212.183-.352.443-.627.779-.826.341-.2.739-.299 1.196-.299.451 0 .844.099 1.18.299.341.199.603.474.787.826.189.351.283.755.283 1.212 0 .451-.094.852-.283 1.204-.184.351-.446.626-.787.826-.336.194-.729.291-1.18.291zm0-.771c.43 0 .766-.142 1.007-.425.246-.289.37-.664.37-1.125 0-.467-.124-.845-.37-1.133-.241-.289-.577-.433-1.007-.433-.436 0-.774.144-1.015.433-.242.288-.362.666-.362 1.133 0 .461.12.836.362 1.125.241.283.579.425 1.015.425zm5.327-1.55v2.195h-.85v-5.901h.85v2.226c.058-.147.147-.286.268-.417.12-.131.275-.236.464-.314.194-.084.433-.126.716-.126s.535.057.755.173c.226.115.404.307.535.574.131.262.197.619.197 1.07v2.715h-.85v-2.612c0-.357-.058-.643-.173-.858s-.341-.323-.677-.323c-.209 0-.409.061-.598.181-.189.121-.343.299-.464.535-.115.236-.173.53-.173.882zm5.769 2.321c-.457 0-.855-.097-1.196-.291-.336-.2-.596-.475-.779-.826-.184-.352-.276-.753-.276-1.204 0-.457.092-.861.276-1.212.183-.352.443-.627.779-.826.341-.2.739-.299 1.196-.299.451 0 .844.099 1.18.299.341.199.603.474.787.826.189.351.283.755.283 1.212 0 .451-.094.852-.283 1.204-.184.351-.446.626-.787.826-.336.194-.729.291-1.18.291zm0-.771c.43 0 .766-.142 1.007-.425.246-.289.37-.664.37-1.125 0-.467-.124-.845-.37-1.133-.241-.289-.577-.433-1.007-.433-.436 0-.774.144-1.015.433-.242.288-.362.666-.362 1.133 0 .461.12.836.362 1.125.241.283.579.425 1.015.425zm2.497-3.761h.913l.716 3.454.794-3.454h.937l.787 3.454.723-3.454h.913l-1.101 4.406h-1.102l-.692-3.014-.685 3.014h-1.102zm7.722 0h.913l.716 3.454.795-3.454h.936l.787 3.454.724-3.454h.913l-1.102 4.406h-1.101l-.693-3.014-.684 3.014h-1.102zm8.284 4.532c-.456 0-.855-.097-1.196-.291-.336-.2-.595-.475-.779-.826-.183-.352-.275-.753-.275-1.204 0-.457.092-.861.275-1.212.184-.352.443-.627.779-.826.341-.2.74-.299 1.196-.299.399 0 .761.102 1.086.307.325.204.574.503.748.897.173.388.23.857.173 1.408h-3.368c.042.378.176.685.401.921.226.236.546.354.96.354.304 0 .546-.071.724-.213.184-.147.312-.328.386-.543h.897c-.105.457-.333.827-.685 1.11-.346.278-.787.417-1.322.417zm0-3.887c-.388 0-.692.105-.913.315-.22.209-.362.48-.424.81h2.51c-.032-.315-.147-.58-.347-.795-.194-.22-.469-.33-.826-.33zm5.105 1.566v2.195h-.85v-5.901h.85v2.226c.057-.147.147-.286.267-.417.121-.131.276-.236.464-.314.195-.084.433-.126.716-.126.284 0 .536.057.756.173.225.115.404.307.535.574.131.262.197.619.197 1.07v2.715h-.85v-2.612c0-.357-.058-.643-.173-.858-.116-.215-.341-.323-.677-.323-.21 0-.409.061-.598.181-.189.121-.344.299-.464.535-.116.236-.173.53-.173.882zm5.524-2.337c.598 0 1.052.181 1.362.543.309.362.464.852.464 1.471v2.518h-.85v-.598c-.121.226-.286.404-.496.535-.209.126-.469.189-.779.189-.288 0-.548-.053-.779-.157-.23-.111-.411-.268-.543-.473-.131-.204-.196-.453-.196-.747 0-.346.081-.619.244-.818.168-.205.388-.357.661-.457.278-.1.579-.162.905-.189.33-.026.655-.031.975-.015-.026-.32-.113-.575-.259-.764-.147-.189-.383-.283-.709-.283-.341 0-.598.092-.771.275-.173.179-.259.394-.259.646h-.897c0-.294.073-.567.22-.819.147-.257.364-.464.653-.621.289-.158.64-.236 1.054-.236zm-.936 3.234c0 .22.071.388.212.503.147.116.352.173.614.173.304 0 .562-.097.771-.291.21-.194.315-.469.315-.826v-.393c-.65-.032-1.133.034-1.448.196-.309.163-.464.375-.464.638zm3.506-3.108h.85v.723c.089-.22.246-.417.472-.59.231-.173.556-.259.976-.259.283 0 .535.057.755.173.225.115.404.307.535.574.131.262.197.619.197 1.07v2.715h-.85v-2.612c0-.357-.058-.643-.173-.858-.116-.215-.341-.323-.677-.323-.21 0-.409.061-.598.181-.189.121-.344.299-.464.535-.116.236-.173.53-.173.882v2.195h-.85zm6.367 4.532c-.404 0-.756-.097-1.055-.291-.299-.2-.53-.475-.692-.826-.158-.352-.236-.753-.236-1.204 0-.457.078-.861.236-1.212.162-.352.393-.627.692-.826.299-.2.651-.299 1.055-.299.335 0 .619.07.849.212.236.142.425.338.567.59v-2.171h.85v5.901h-.85v-.669c-.131.241-.315.436-.551.582-.231.142-.519.213-.865.213zm.118-.771c.288 0 .527-.066.716-.197.194-.136.338-.323.432-.559.1-.236.15-.501.15-.794 0-.299-.05-.567-.15-.803-.094-.236-.238-.422-.432-.559-.189-.136-.428-.204-.716-.204-.383 0-.685.144-.905.433-.215.288-.323.666-.323 1.133 0 .461.108.836.323 1.125.22.283.522.425.905.425zm2.944-5.256h.85v5.901h-.85zm3.706 6.027c-.456 0-.855-.097-1.196-.291-.336-.2-.596-.475-.779-.826-.184-.352-.276-.753-.276-1.204 0-.457.092-.861.276-1.212.183-.352.443-.627.779-.826.341-.2.74-.299 1.196-.299.399 0 .761.102 1.086.307.325.204.574.503.747.897.173.388.231.857.173 1.408h-3.367c.042.378.175.685.401.921s.546.354.96.354c.304 0 .545-.071.724-.213.183-.147.312-.328.385-.543h.897c-.105.457-.333.827-.684 1.11-.346.278-.787.417-1.322.417zm0-3.887c-.388 0-.693.105-.913.315-.22.209-.362.48-.425.81h2.51c-.031-.315-.147-.58-.346-.795-.194-.22-.469-.33-.826-.33zm5.435 3.761-1.416-4.406h.912l1.078 3.619 1.11-3.619h.913l-1.417 4.406c-.115.362-.236.658-.362.889-.12.231-.283.401-.488.512-.199.115-.474.173-.826.173h-.519v-.724h.511c.189 0 .333-.04.433-.118.1-.074.178-.176.236-.307.058-.126.113-.268.165-.425zm5.023.126c-.456 0-.855-.097-1.196-.291-.336-.2-.595-.475-.779-.826-.184-.352-.275-.753-.275-1.204 0-.457.091-.861.275-1.212.184-.352.443-.627.779-.826.341-.2.74-.299 1.196-.299.451 0 .845.099 1.18.299.341.199.604.474.787.826.189.351.284.755.284 1.212 0 .451-.095.852-.284 1.204-.183.351-.446.626-.787.826-.335.194-.729.291-1.18.291zm0-.771c.43 0 .766-.142 1.007-.425.247-.289.37-.664.37-1.125 0-.467-.123-.845-.37-1.133-.241-.289-.577-.433-1.007-.433-.435 0-.774.144-1.015.433-.241.288-.362.666-.362 1.133 0 .461.121.836.362 1.125.241.283.58.425 1.015.425zm5.767-1.566v-2.195h.85v4.406h-.85v-.732c-.063.147-.154.286-.275.417s-.278.236-.472.315c-.189.084-.425.126-.708.126-.284 0-.538-.058-.764-.173-.22-.116-.396-.307-.527-.575-.126-.267-.189-.624-.189-1.07v-2.714h.842v2.612c0 .357.058.643.173.858.116.215.344.322.685.322.21 0 .407-.06.59-.181.189-.12.344-.299.464-.535.121-.241.181-.535.181-.881zm2.48-.102v2.313h-.85v-4.406h.85v.739c.052-.152.136-.294.252-.425.115-.131.27-.236.464-.314.199-.084.451-.126.755-.126v.849c-.314 0-.582.042-.802.126s-.388.226-.504.425c-.11.194-.165.467-.165.819zm5.455 2.439c-.403 0-.755-.097-1.054-.291-.299-.2-.53-.475-.692-.826-.158-.352-.236-.753-.236-1.204 0-.457.078-.861.236-1.212.162-.352.393-.627.692-.826.299-.2.651-.299 1.054-.299.336 0 .619.07.85.212.236.142.425.338.567.59v-2.171h.85v5.901h-.85v-.669c-.131.241-.315.436-.551.582-.231.142-.519.213-.866.213zm.118-.771c.289 0 .528-.066.716-.197.195-.136.339-.323.433-.559.1-.236.15-.501.15-.794 0-.299-.05-.567-.15-.803-.094-.236-.238-.422-.433-.559-.188-.136-.427-.204-.716-.204-.382 0-.684.144-.904.433-.216.288-.323.666-.323 1.133 0 .461.107.836.323 1.125.22.283.522.425.904.425zm4.793-3.887c.598 0 1.052.181 1.361.543.31.362.465.852.465 1.471v2.518h-.85v-.598c-.121.226-.286.404-.496.535-.21.126-.469.189-.779.189-.288 0-.548-.053-.779-.157-.231-.111-.412-.268-.543-.473-.131-.204-.196-.453-.196-.747 0-.346.081-.619.243-.818.168-.205.389-.357.661-.457.278-.1.58-.162.905-.189.331-.026.656-.031.976-.015-.026-.32-.113-.575-.26-.764s-.383-.283-.708-.283c-.341 0-.598.092-.771.275-.173.179-.26.394-.26.646h-.897c0-.294.074-.567.221-.819.147-.257.364-.464.653-.621.288-.158.64-.236 1.054-.236zm-.936 3.234c0 .22.071.388.212.503.147.116.352.173.614.173.304 0 .561-.097.771-.291s.315-.469.315-.826v-.393c-.651-.032-1.133.034-1.448.196-.309.163-.464.375-.464.638zm3.163-3.108h.661v-1.102h.85v1.102h.81v.723h-.81v2.487c0 .315.154.472.464.472h.472v.724h-.48c-.441 0-.768-.105-.983-.315-.216-.215-.323-.509-.323-.881v-2.487h-.661zm4.773-.126c.598 0 1.052.181 1.362.543.309.362.464.852.464 1.471v2.518h-.85v-.598c-.12.226-.286.404-.496.535-.209.126-.469.189-.779.189-.288 0-.548-.053-.779-.157-.23-.111-.411-.268-.542-.473-.132-.204-.197-.453-.197-.747 0-.346.081-.619.244-.818.168-.205.388-.357.661-.457.278-.1.579-.162.905-.189.33-.026.655-.031.975-.015-.026-.32-.112-.575-.259-.764s-.383-.283-.709-.283c-.34 0-.598.092-.771.275-.173.179-.259.394-.259.646h-.897c0-.294.073-.567.22-.819.147-.257.365-.464.653-.621.289-.158.64-.236 1.054-.236zm-.936 3.234c0 .22.071.388.213.503.146.116.351.173.613.173.305 0 .562-.097.771-.291.21-.194.315-.469.315-.826v-.393c-.65-.032-1.133.034-1.448.196-.309.163-.464.375-.464.638z" fill="#898989"/><circle cx="68.8845" cy="99.4998" fill="#ff5e00" r="15.8504"/></svg>