<svg fill="none" height="200" viewBox="0 0 316 200" width="316" xmlns="http://www.w3.org/2000/svg"><path d="m0 0h316v200h-316z" fill="#e5e5e5"/><path d="m43.333 90h228v19.64h-228z" fill="#fff"/><path d="m53.9488 103.655h2.9914v.875h-2.9914zm0-2.919h3.3562v.885h-3.3562zm0 .611v5.773h-.9941v-5.773zm4.6887 3.548v-.821h3.347l-.4013.283c.0122-.292-.0334-.557-.1368-.794-.0972-.243-.2492-.437-.456-.583-.2067-.146-.4681-.219-.7843-.219-.4438 0-.8117.137-1.1035.41-.2858.268-.4408.642-.4651 1.122h-1.0306c.0426-.505.1794-.936.4104-1.295.2371-.365.5442-.645.9211-.839.377-.195.7996-.292 1.2677-.292.3466 0 .6719.067.9759.201.304.133.5654.331.7843.592.2189.262.38.581.4833.958.1095.371.1399.797.0912 1.277zm1.5686 2.371c-.4864 0-.9181-.1-1.295-.301-.3709-.201-.6688-.477-.8938-.83-.2249-.359-.3587-.772-.4013-1.24h1.0215c.0486.438.2006.793.456 1.067.2614.273.6323.41 1.1126.41.3587 0 .6415-.082.8482-.246.2128-.17.3617-.377.4469-.62h1.0396c-.0851.353-.231.66-.4377.921s-.4712.468-.7935.62c-.3222.146-.69.219-1.1035.219zm4.8394 0c-.3344 0-.6354-.061-.9029-.182-.2675-.128-.4803-.31-.6384-.548-.152-.237-.228-.525-.228-.866 0-.401.0973-.717.2919-.948.1945-.231.4529-.402.7752-.511.3222-.11.6718-.18 1.0488-.21.383-.036.76-.052 1.1308-.046v.812c-.76-.024-1.3193.04-1.678.192-.3588.146-.5381.371-.5381.675 0 .261.0821.456.2462.583.1703.122.4043.183.7023.183.2432 0 .459-.049.6475-.146.1945-.104.3465-.253.456-.447.1094-.195.1641-.429.1641-.702v-.611h.9759v2.626h-.9759v-.565c-.152.225-.3526.401-.6019.529-.2493.121-.5411.182-.8755.182zm-1.8878-3.365c0-.347.0851-.675.2553-.985.1703-.31.4226-.563.757-.757.3344-.195.7387-.292 1.2129-.292.6567 0 1.1613.188 1.514.565.3526.371.5502.879.5928 1.523h-.9668c-.0243-.37-.1246-.659-.3009-.866-.1703-.213-.4499-.319-.8391-.319-.2918 0-.5259.052-.7022.155-.1702.103-.2949.243-.3739.419-.0791.171-.1186.356-.1186.557zm5.5724 3.219v-6.384h.9759v5.545h1.1764v.839zm-.7661-4.268v-.839h2.7725v.839zm7.9272 4.268h-.9758v-5.107h.9758zm-.9758-2.563.1459 1.004c0 .158-.0273.334-.0821.529-.0547.194-.152.383-.2918.565-.1338.176-.3192.322-.5563.438-.2371.115-.5381.173-.9029.173-.3283 0-.6232-.067-.8846-.201-.2554-.133-.4591-.355-.6111-.665-.1459-.31-.2189-.724-.2189-1.241v-3.146h.9759v3.028c0 .279.0273.523.0821.729.0547.201.152.359.2918.475.1459.109.3496.164.611.164.2493 0 .4834-.07.7023-.21s.3952-.347.5289-.62c.1399-.28.2098-.62.2098-1.022zm1.889-2.544h.9758v5.107h-.9758zm.9758 2.426-.1368-.757c0-.158.0183-.341.0547-.547.0426-.207.1247-.405.2463-.593.1277-.195.3131-.356.5563-.483.2493-.128.5776-.192.985-.192v.985c-.3588 0-.6658.049-.9212.146-.2553.097-.4499.261-.5836.492-.1338.225-.2007.541-.2007.949zm2.8824.456v-.821h3.3471l-.4013.283c.0122-.292-.0334-.557-.1368-.794-.0973-.243-.2493-.437-.456-.583s-.4682-.219-.7843-.219c-.4439 0-.8117.137-1.1035.41-.2858.268-.4408.642-.4652 1.122h-1.0305c.0425-.505.1793-.936.4104-1.295.2371-.365.5441-.645.9211-.839.377-.195.7995-.292 1.2677-.292.3465 0 .6718.067.9758.201.304.133.5655.331.7843.592.2189.262.38.581.4834.958.1094.371.1398.797.0912 1.277zm1.5687 2.371c-.4864 0-.9181-.1-1.2951-.301-.3708-.201-.6688-.477-.8937-.83-.225-.359-.3587-.772-.4013-1.24h1.0214c.0487.438.2007.793.456 1.067.2615.273.6324.41 1.1127.41.3587 0 .6414-.082.8481-.246.2128-.17.3618-.377.4469-.62h1.0397c-.0851.353-.231.66-.4378.921-.2067.261-.4712.468-.7934.62-.3222.146-.6901.219-1.1035.219zm5.1675 0c-.4682 0-.8756-.112-1.2221-.337-.3405-.231-.605-.551-.7935-.958-.1884-.407-.2827-.872-.2827-1.395 0-.529.0943-.997.2827-1.405.1885-.407.453-.726.7935-.957.3465-.231.7539-.347 1.2221-.347.3891 0 .7204.082.994.246s.4895.392.6476.684v3.548c-.152.28-.3618.505-.6293.675-.2675.164-.605.246-1.0123.246zm.1276-.894c.3405 0 .6202-.076.8391-.228.2249-.158.3921-.374.5016-.647.1155-.274.1733-.581.1733-.921 0-.347-.0578-.657-.1733-.931-.1095-.273-.2767-.489-.5016-.647-.2189-.158-.4986-.237-.8391-.237-.2918 0-.5441.076-.7569.228-.2128.146-.377.355-.4925.629s-.1733.593-.1733.958c0 .358.0578.675.1733.948.1155.268.2797.477.4925.629.2128.146.4651.219.7569.219zm1.514.748v-6.84h.9758v6.84z" fill="#201c1d"/></svg>