<svg fill="none" height="200" viewBox="0 0 316 200" width="316" xmlns="http://www.w3.org/2000/svg"><path d="m0 0h316v200h-316z" fill="#e5e5e5"/><rect fill="#201c1d" height="30.1064" rx="15.0532" width="63.0851" x="126.344" y="85.4121"/><path d="m143.703 98.4081c-.034-.3268-.182-.5812-.441-.7633-.257-.1822-.591-.2732-1.003-.2732-.289 0-.537.0437-.745.131-.207.0873-.365.2058-.475.3554-.11.1497-.166.3206-.168.5127 0 .1596.036.2981.108.4153.075.1173.176.2171.303.2994.128.0798.269.1472.423.2021.155.0548.311.101.468.1384l.718.1796c.29.0674.568.1584.835.2732.269.1147.51.2593.722.4343.215.174.384.385.509.632s.187.536.187.868c0 .449-.115.845-.344 1.186-.23.34-.561.605-.995.797-.432.19-.955.285-1.568.285-.597 0-1.114-.092-1.553-.277-.437-.185-.779-.454-1.026-.808-.244-.355-.376-.786-.396-1.295h1.366c.02.267.102.489.247.666.144.177.333.309.565.397.234.087.496.131.785.131.302 0 .567-.045.794-.135.229-.092.409-.22.539-.382.129-.164.195-.356.198-.576-.003-.2-.061-.364-.176-.494-.115-.132-.276-.242-.483-.329-.204-.09-.444-.17-.718-.24l-.872-.224c-.631-.162-1.13-.408-1.497-.7374-.364-.3317-.546-.772-.546-1.3208 0-.4516.122-.847.367-1.1862.247-.3393.582-.6025 1.006-.7896.424-.1896.904-.2844 1.441-.2844.544 0 1.02.0948 1.429.2844.412.1871.735.4478.969.7821.235.3318.356.7134.363 1.145zm2.619 5.5569v-5.7477h1.354v5.7477zm.681-6.5635c-.215 0-.399-.0711-.554-.2133-.155-.1446-.232-.318-.232-.5201 0-.2045.077-.3779.232-.5201.155-.1447.339-.217.554-.217.217 0 .402.0723.554.217.154.1422.232.3156.232.5201 0 .2021-.078.3755-.232.5201-.152.1422-.337.2133-.554.2133zm4.566 8.8385c-.486 0-.904-.066-1.254-.198-.349-.13-.629-.305-.842-.524-.212-.22-.359-.463-.441-.73l1.22-.296c.055.113.135.224.239.333.105.113.246.205.423.277.18.075.406.113.677.113.385 0 .703-.094.955-.281.252-.185.378-.489.378-.913v-1.089h-.068c-.07.14-.172.283-.307.43-.132.148-.308.271-.527.371-.217.1-.49.15-.82.15-.441 0-.842-.104-1.201-.311-.357-.21-.641-.521-.853-.936-.21-.416-.314-.938-.314-1.564 0-.631.104-1.1634.314-1.5974.212-.4366.498-.7671.857-.9917.359-.227.759-.3405 1.201-.3405.337 0 .614.0574.831.1722.219.1122.394.2482.524.4078.129.1572.228.3056.295.4453h.075v-.9504h1.336v5.8407c0 .492-.117.898-.352 1.22-.234.322-.555.563-.962.722-.406.16-.868.24-1.384.24zm.011-3.42c.287 0 .532-.07.734-.21.202-.139.355-.34.46-.602s.157-.576.157-.943c0-.362-.052-.679-.157-.951-.102-.2715-.255-.4823-.457-.632-.199-.1521-.445-.2282-.737-.2282-.302 0-.554.0786-.756.2357-.202.1572-.354.373-.456.6475-.102.272-.154.581-.154.928 0 .352.052.66.154.924.105.262.258.467.46.614.205.144.455.217.752.217zm5.43-2.223v3.368h-1.355v-5.7477h1.295v.9766h.067c.132-.3218.343-.5775.633-.7671.291-.1896.652-.2844 1.081-.2844.397 0 .742.0848 1.036.2545.297.1696.527.4153.689.7371.165.3218.246.7122.243 1.171v3.66h-1.354v-3.45c0-.384-.1-.685-.3-.902-.197-.217-.47-.3255-.819-.3255-.237 0-.448.0523-.633.1571-.182.1023-.325.2507-.43.4453-.102.1941-.153.4301-.153.7071zm11.343.951v-3.3307h1.355v5.7477h-1.314v-1.022h-.059c-.13.322-.343.585-.64.79-.295.204-.658.307-1.089.307-.377 0-.71-.084-.999-.251-.287-.17-.512-.415-.674-.737-.162-.324-.243-.716-.243-1.175v-3.6597h1.355v3.4497c0 .365.099.654.299.868.199.215.461.322.786.322.199 0 .393-.048.58-.146.187-.097.34-.242.46-.434.122-.194.183-.438.183-.729zm2.748 4.572v-7.9027h1.332v.9504h.079c.069-.1397.168-.2881.295-.4453.127-.1596.299-.2956.517-.4078.217-.1148.493-.1722.83-.1722.444 0 .845.1135 1.201.3405.36.2246.644.5576.854.9991.212.4391.318.978.318 1.617 0 .631-.104 1.167-.311 1.609-.207.441-.489.778-.846 1.01-.356.232-.761.348-1.212.348-.329 0-.602-.055-.82-.165-.217-.11-.391-.242-.523-.396-.13-.158-.231-.306-.303-.446h-.057v3.061zm1.328-5.029c0 .372.053.697.157.977.108.279.261.497.461.655.202.154.446.232.733.232.299 0 .55-.08.752-.24.202-.162.354-.383.457-.662.104-.282.157-.603.157-.962 0-.357-.051-.673-.154-.95-.102-.2773-.254-.4943-.456-.6515-.202-.1571-.454-.2357-.756-.2357-.289 0-.535.0761-.737.2282-.202.1522-.356.3655-.46.64-.103.274-.154.597-.154.969z" fill="#eee"/></svg>