<svg xmlns="http://www.w3.org/2000/svg" width="128" height="128" viewBox="0 0 128 128">
  <g fill="none" fill-rule="evenodd">
    <path stroke="#A3A8AD" d="M34.8368751,97.6128723 C42.8688933,104.58855 53.1298306,108.5 64,108.5 C87.2927688,108.5 106.572552,90.545339 108.364417,67.5 L87.2410892,67.5 C85.5372267,78.9169477 75.6895337,87.5 64,87.5 C58.7779746,87.5 53.8156898,85.7911081 49.7566037,82.6931437 L34.8368751,97.6128723 Z"/>
    <path fill="#EFF0F1" d="M27.8968134,95.3605459 C21.105798,87.4797116 17,77.219336 17,66 C17,42.1552719 35.5459045,22.6421719 59,21.0984137 L59,43.1938794 C47.714935,44.6639009 39,54.3142094 39,66 C39,71.141637 40.6871386,75.8892216 43.5380107,79.7193487 L27.8968134,95.3605459 Z"/>
    <path stroke="#A3A8AD" d="M29.9263371,92.6239154 L44.8817737,77.6684789 C42.0498653,73.7149058 40.5,68.9740566 40.5,64 C40.5,52.3104663 49.0830523,42.4627733 60.5,40.7589108 L60.5,19.6355826 C37.454661,21.4274484 19.5,40.7072312 19.5,64 C19.5,74.6235633 23.2351338,84.6681306 29.9263371,92.6239154 Z"/>
    <path fill="#EFF0F1" d="M84.8061206,63 C83.4640029,52.6968272 75.3031728,44.5359971 65,43.1938794 L65,21.0984137 C87.4625246,22.5769063 105.423094,40.5374754 106.901586,63 L84.8061206,63 Z"/>
    <rect width="2" height="2" x="88" y="53" fill="#A3A8AD"/>
    <rect width="2" height="2" x="92" y="53" fill="#A3A8AD"/>
    <rect width="2" height="2" x="96" y="53" fill="#A3A8AD"/>
    <rect width="2" height="2" x="90" y="56" fill="#A3A8AD"/>
    <rect width="2" height="2" x="94" y="56" fill="#A3A8AD"/>
    <rect width="2" height="2" x="98" y="56" fill="#A3A8AD"/>
    <rect width="2" height="2" x="102" y="56" fill="#A3A8AD"/>
    <path stroke="#A3A8AD" d="M87.2410658,60.5 L108.364407,60.5 C106.669651,38.714449 89.285551,21.3303486 67.5,19.6355931 L67.5,40.7589342 C77.6771842,42.2788479 85.7211521,50.3228158 87.2410658,60.5 Z"/>
    <path fill="#A3A8AD" d="M98.2071068 14L79.8535534 32.3535534 79.1464466 31.6464466 97 13.7928932 97 13 119 13 119 14 98.2071068 14zM101 18L116 18 116 19 101 19 101 18zM101 23L107 23 107 24 101 24 101 23zM109 23L119 23 119 24 109 24 109 23zM26 24.2928932L39.8535534 38.1464466 39.1464466 38.8535534 25.2928932 25 7 25 7 24 26 24 26 24.2928932zM7 28L16 28 16 29 7 29 7 28zM7 32L22 32 22 33 7 33 7 32zM43.2928932 114L56.6464466 100.646447 57.3535534 101.353553 44 114.707107 44 115 22 115 22 114 43.2928932 114zM22 109L32 109 32 110 22 110 22 109z"/>
  </g>
</svg>
