<svg width="189" height="48" viewBox="0 0 189 48" fill="none" xmlns="http://www.w3.org/2000/svg">
<path fill-rule="evenodd" clip-rule="evenodd" d="M140.657 39L140.747 40.3472L140.935 40.3179C141.095 40.2933 141.24 40.2196 141.338 40.1154H150V39H140.657ZM132.104 42.9167H137.878L137.877 38.0794H132.103L132.104 42.9167ZM131.001 44.6888H132.104V43.9888H137.877V44.6677H139.001L139 37.0073H131L131.001 44.6888ZM127.521 36.5052H120.083V37.5773H127.077C126.385 40.7468 124.361 42.9612 121.216 43.9888L120.955 44.0731L121.141 44.2744C121.279 44.4242 121.509 44.7075 121.617 44.8749L121.691 44.9919L121.822 44.9462C125.441 43.6728 127.532 41.1939 128.393 37.1536C128.447 37.1173 128.492 37.0682 128.53 37.0073L128.626 36.8458L127.712 36.3823L127.521 36.5052ZM109.747 40.3472L109.935 40.3179C110.095 40.2933 110.241 40.2196 110.338 40.1154H119V39H109.657L109.747 40.3472ZM101.146 36.971C100.795 39.7215 99.8311 42.3959 98.6904 43.7852L98.5385 43.9689L98.7582 44.0591C98.9253 44.127 99.2362 44.2674 99.4384 44.4231L99.5752 44.5296L99.6827 44.3938C100.82 42.953 101.786 40.3945 102.28 37.5328C102.465 37.4813 102.54 37.3584 102.571 37.2812L102.642 37.0892L101.171 36.7826L101.146 36.971ZM107.796 34.8713L107.687 34.7706L106.993 35.3008L107.151 35.4425C107.568 35.8217 108.119 36.4853 108.431 36.9886L108.532 37.1501L109.234 36.6281L109.148 36.4911C108.833 35.9844 108.291 35.3336 107.796 34.8713ZM105.806 36.861L105.724 36.7217L104.712 37.2051L104.802 37.369C105.881 39.3083 107.13 42.3386 107.648 44.2662L107.698 44.457L108.813 44.0134L108.77 43.8601C108.174 41.7381 106.9 38.7302 105.806 36.861ZM107.012 37.5492L107.11 37.7096L107.801 37.2004L107.719 37.0647C107.449 36.6152 106.914 35.9118 106.373 35.4284L106.266 35.3348L105.572 35.8486L105.731 35.9925C106.197 36.4151 106.74 37.1091 107.012 37.5492ZM88.8107 40.3764L89 40.3472C89.159 40.3226 89.3051 40.2488 89.4032 40.1447H98.0648V39.0293H88.7219L88.8107 40.3764ZM84.0647 35.9223C84.2821 35.8404 84.3241 35.6742 84.33 35.5969L84.3475 35.4144L82.9485 35.3558L82.9684 37.6897H78.249V38.7723H82.3712C81.2795 40.3114 79.5638 41.854 77.9194 42.7634L77.6962 42.8863L77.8925 43.0513C78.0713 43.2012 78.2653 43.4153 78.3857 43.5956L78.4769 43.7337L78.6206 43.6494C80.2288 42.7002 81.8651 41.222 82.9964 39.7086L83.035 43.8308C83.042 43.949 82.9602 44.0275 82.8141 44.0462C82.7183 44.0567 82.4144 44.0638 81.982 44.0638C81.6968 44.0638 81.3777 44.0591 81.0832 44.0556L80.8156 44.0509L80.9184 44.2978C80.999 44.4851 81.0692 44.7719 81.1007 44.9591L81.1253 45.1043L81.2714 45.1054C81.4759 45.1078 81.6664 45.1101 81.8452 45.1101C82.9205 45.1101 83.5306 45.0481 83.8648 44.7051C84.0588 44.5073 84.1453 44.2276 84.1371 43.8308L84.0951 38.7723H87.3103V37.6897H84.0822L84.0647 35.9223ZM74.918 38.949C74.211 38.949 73.6348 39.526 73.6348 40.2341C73.6348 40.9422 74.211 41.5193 74.918 41.5193C75.6251 41.5193 76.2013 40.9422 76.2013 40.2341C76.2013 39.526 75.6251 38.949 74.918 38.949ZM70.8975 37.1091H67.4509C67.6215 36.7966 67.7887 36.4619 67.957 36.0944C68.1814 36.0651 68.2772 35.9504 68.3158 35.8509L68.3882 35.6707L67.0255 35.2833L66.9682 35.4319C66.2635 37.2601 65.0643 38.894 63.5929 40.0317L63.3977 40.1815L63.6057 40.3172C63.7951 40.4401 64.0346 40.6344 64.1901 40.7889L64.2999 40.9001L64.4215 40.803C65.3366 40.0832 66.1629 39.1773 66.8174 38.1812H70.3225C69.3922 40.9703 67.6601 42.9483 65.0339 44.2229L64.7745 44.3493L65.0047 44.5226C65.1648 44.6419 65.3565 44.8503 65.5154 45.075L65.6019 45.1991L65.7375 45.13C68.6804 43.6354 70.5119 41.387 71.6689 37.8442C71.7227 37.8008 71.7718 37.7517 71.8174 37.6943L71.9436 37.5375L71.0752 37.019L70.8975 37.1091ZM58.2575 40.4881L58.2739 40.6789L59.258 40.4951L59.2404 40.3336C59.1575 39.5846 58.9424 38.5429 58.7273 37.8559L58.6794 37.7025L57.7012 37.9179L57.7596 38.1016C57.9887 38.8226 58.1932 39.8034 58.2575 40.4881ZM56.9251 40.7058C56.7907 40.0551 56.4226 38.9958 56.1047 38.3474L56.0381 38.2128L55.1229 38.5008L55.2071 38.6822C55.5203 39.3505 55.8522 40.3196 55.9796 40.9376L56.0182 41.119L56.959 40.8685L56.9251 40.7058ZM61.3582 38.2105C60.5985 41.3191 59.1867 43.0736 56.6353 44.079L56.363 44.1866L56.5862 44.3763C56.7078 44.4781 56.8889 44.7075 56.9731 44.8339L57.0537 44.9533L57.1858 44.9006C59.7968 43.8402 61.4178 41.8926 62.278 38.777C62.4136 38.7512 62.5106 38.6646 62.5386 38.5382L62.5749 38.379L61.4026 38.0326L61.3582 38.2105ZM52.3425 36.9359H49.0793C49.2313 36.6281 49.3937 36.2816 49.5129 36.0031C49.7362 35.9797 49.8215 35.8369 49.853 35.7491L49.9208 35.5642L48.5534 35.2458L48.5008 35.3945C47.8626 37.218 46.5244 39.1375 45.171 40.1709L44.9735 40.3219L45.1827 40.4577C45.3498 40.5642 45.6268 40.7889 45.7729 40.9235L45.884 41.0265L46.002 40.9305C46.8984 40.1967 47.7738 39.1609 48.4751 38.008H51.7861C51.5185 38.8554 51.148 39.6606 50.6595 40.4554C49.8589 40.0363 49.0863 39.6934 48.3594 39.4347L48.232 39.3879L47.6219 40.288L47.8299 40.3664C48.5253 40.6297 49.2383 40.961 50.0038 41.3765C49.0022 42.6429 47.7867 43.6143 46.3877 44.2662L46.0908 44.4043L46.3702 44.5741C46.5513 44.6852 46.8073 44.9263 46.9054 45.0797L46.9896 45.2096L47.1287 45.144C48.6866 44.3891 49.9489 43.3404 50.9809 41.9453C51.5127 42.2789 51.9276 42.5609 52.2162 42.7857L52.3682 42.9039L53.0098 41.8915L52.8778 41.7943C52.5447 41.5509 52.097 41.2594 51.6319 40.9832C52.2198 40.034 52.7293 38.8706 53.1138 37.603C53.1968 37.5515 53.2518 37.4778 53.2693 37.3924L53.295 37.2613L52.5341 36.8797L52.3425 36.9359ZM40.4984 40.4425C41.3305 39.3341 41.9827 38.2023 42.5413 36.8985C42.6196 36.854 42.6792 36.7896 42.7096 36.7124L42.7657 36.5707L41.9383 36.0991L41.7513 36.1705H35.9087V37.2543H41.0979C40.0998 39.4956 37.8663 42.3702 34.9772 43.9584L34.7504 44.0836L34.9503 44.2475C35.1209 44.3891 35.3687 44.6454 35.4797 44.7988L35.5709 44.924L35.7076 44.8468C37.2925 43.9373 38.8656 42.4111 39.7854 41.3191C40.8268 42.177 42.4759 43.7314 43.405 44.8081L43.5184 44.9427L44.4429 44.1375L44.3225 44.0052C43.3349 42.9097 41.6402 41.3671 40.4984 40.4425Z" fill="#BCBBBB"/>
<path d="M42 23.0042L39.8 22.8042C38.1 22.7042 37.5 22.0042 37.5 20.8042C37.5 19.4042 38.5 18.6042 40.5 18.6042C41.8 18.5042 43.1 18.9042 44.1 19.7042L45.4 18.4042C44 17.4042 42.3 16.9042 40.6 17.0042C37.7 17.0042 35.7 18.5042 35.7 20.9042C35.7 23.1042 37.1 24.3042 39.7 24.5042L41.9 24.7042C43.5 24.8042 44.1 25.5042 44.1 26.7042C44.1 28.3042 42.7 29.1042 40.5 29.1042C38.9 29.2042 37.4 28.6042 36.3 27.5042L35 28.8042C36.5 30.2042 38.5 30.8042 40.5 30.7042C43.7 30.7042 46 29.2042 46 26.6042C46 24.0042 44.4 23.2042 42 23.0042ZM58.8 16.9042C56.6 16.9042 55.3 17.3042 54.1 18.8042L55.4 20.1042C56.2 19.0042 57.5 18.4042 58.8 18.6042C61.3 18.6042 62.2 19.6042 62.2 21.5042V22.8042H58.2C55.2 22.8042 53.6 24.3042 53.6 26.7042C53.6 27.7042 53.9 28.7042 54.6 29.4042C55.4 30.3042 56.5 30.6042 58.4 30.6042C59.8 30.7042 61.3 30.2042 62.3 29.2042V30.5042H64.3V21.4042C64.2 18.5042 62.4 16.9042 58.8 16.9042ZM62.2 25.8042C62.3 26.6042 62.1 27.5042 61.5 28.1042C60.7 28.8042 59.6 29.1042 58.5 29.0042C56.4 29.0042 55.4 28.3042 55.4 26.7042C55.4 25.1042 56.4 24.3042 58.4 24.3042H62.2V25.8042ZM71.9 18.7042C73.1 18.7042 74.3 19.2042 75 20.2042L76.3 18.9042C75.2 17.6042 73.6 16.8042 71.9 16.9042C68.5 16.9042 66 19.2042 66 23.8042C66 28.4042 68.6 30.7042 71.9 30.7042C73.6 30.8042 75.2 30.0042 76.3 28.7042L75 27.4042C74.3 28.4042 73.1 28.9042 71.9 28.9042C70.7 29.0042 69.5 28.4042 68.8 27.4042C68.1 26.3042 67.8 25.1042 67.9 23.8042C67.8 22.5042 68.1 21.3042 68.8 20.2042C69.5 19.2042 70.7 18.6042 71.9 18.7042ZM88.7 17.1042H86.3L80.2 23.0042V11.1042H78.2V30.5042H80.2V25.6042L82.6 23.2042L87.1 30.5042H89.5L83.9 21.9042L88.7 17.1042ZM97.9 16.9418C96.3 16.8418 94.7 17.4418 93.6 18.6418C92.3 19.9418 92 21.5418 92 24.0418C92 26.5418 92.3 28.1418 93.6 29.4418C94.7 30.5418 96.3 31.1418 97.9 31.1418C99.5 31.2418 101.1 30.6418 102.2 29.4418C103.5 28.1418 103.8 26.5418 103.8 24.0418C103.8 21.5418 103.5 19.9418 102.2 18.6418C101.1 17.4418 99.5 16.8418 97.9 16.9418ZM99.6 27.4418C98.7 28.2418 97.3 28.2418 96.4 27.4418C95.7 26.7418 95.6 25.4418 95.6 24.0418C95.6 22.6418 95.7 21.3418 96.4 20.6418C97.3 19.8418 98.7 19.8418 99.6 20.6418C100.3 21.3418 100.4 22.5418 100.4 24.0418C100.4 25.5418 100.3 26.7418 99.6 27.4418ZM113.2 17.0418L110.4 25.6418L107.6 17.0418H103.9L109.1 31.0418H111.8L116.9 17.0418H113.2ZM122.8 16.9418C119.2 16.9418 116.7 19.5418 116.7 24.0418C116.7 29.7418 119.9 31.2418 123.2 31.2418C125.2 31.3418 127.2 30.5418 128.5 29.0418L126.4 26.9418C125.6 27.8418 124.4 28.3418 123.2 28.2418C121.6 28.3418 120.2 27.1418 120.1 25.5418V25.1418H128.8V23.5418C128.9 19.7418 126.7 16.9418 122.8 16.9418ZM120.1 22.7418C120.1 22.2418 120.2 21.7418 120.4 21.2418C120.8 20.3418 121.7 19.8418 122.7 19.8418C123.7 19.7418 124.6 20.3418 125 21.2418C125.2 21.7418 125.3 22.2418 125.3 22.7418H120.1ZM134 18.4418V17.1418H130.6V31.1418H134.1V22.7418C134 21.4418 134.9 20.3418 136.2 20.1418H136.4C137.1 20.1418 137.8 20.4418 138.2 20.9418L140.8 18.3418C140 17.4418 138.7 16.9418 137.5 17.0418C136.2 16.9418 134.9 17.4418 134 18.4418ZM141.9 15.6418V31.0418H145.4V20.0418H148V17.3418H145.4V15.8418C145.3 15.2418 145.7 14.6418 146.3 14.5418H147.9V11.5418H145.9C143.8 11.4418 142 13.1418 141.9 15.3418V15.6418ZM162.3 16.9418C160.7 16.8418 159.1 17.4418 158 18.6418C156.7 19.9418 156.4 21.5418 156.4 24.0418C156.4 26.5418 156.7 28.1418 158 29.4418C159.1 30.5418 160.7 31.1418 162.3 31.1418C163.9 31.2418 165.5 30.6418 166.6 29.4418C167.9 28.1418 168.2 26.5418 168.2 24.0418C168.2 21.5418 167.9 19.9418 166.6 18.6418C165.5 17.4418 163.9 16.8418 162.3 16.9418ZM164 27.4418C163.1 28.2418 161.7 28.2418 160.8 27.4418C160.1 26.7418 160 25.4418 160 24.0418C160 22.6418 160.1 21.3418 160.8 20.6418C161.7 19.8418 163.1 19.8418 164 20.6418C164.7 21.3418 164.8 22.5418 164.8 24.0418C164.8 25.5418 164.7 26.7418 164 27.4418ZM184.7 17.0418L182.4 25.6418L179.5 17.0418H177L174.2 25.7418L171.9 17.1418H168.2L172.5 31.1418H175.4L178.3 22.3418L181.2 31.1418H184.2L188.5 17.1418L184.7 17.0418ZM153.1 26.8418V11.6418H149.6V27.0418C149.5 29.1418 151.1 30.9418 153.2 31.0418H155.7V28.0418H154.4C153.8 28.1418 153.3 27.8418 153.1 27.2418V26.8418ZM53.2 17.4042H49.5V13.0042H47.5V26.9042C47.5 28.9042 48.6 30.5042 50.9 30.5042H52.3V28.8042H51.3C50 28.8042 49.5 28.1042 49.5 26.8042V19.1042H51.4L53.2 17.4042Z" fill="#222426"/>
<path d="M26 33V24H30V37H0V24H4V33H26Z" fill="#BCBBBB"/>
<path d="M23.0908 25.9902L23.7844 23.041L7.67993 19.687L7 23L23.0908 25.9902ZM9.1 15.2L24.1 22.2L25.5 19.2L10.5 12.2L9.1 15.2ZM13.3 7.8L26 18.4L28.1 15.9L15.4 5.3L13.3 7.8ZM21.5 0L18.8 2L28.7 15.3L31.4 13.3L21.5 0ZM7 30H23V27H7V30Z" fill="#F48024"/>
</svg>
