<?xml version="1.0" encoding="utf-8"?>
<!-- Generator: Adobe Illustrator 19.2.1, SVG Export Plug-In . SVG Version: 6.00 Build 0)  -->
<svg version="1.1" id="Layer_1" xmlns="http://www.w3.org/2000/svg" xmlns:xlink="http://www.w3.org/1999/xlink" x="0px" y="0px"
	 width="137px" height="181px" viewBox="0 0 137 181" style="enable-background:new 0 0 137 181;" xml:space="preserve">
<style type="text/css">
	.st0{fill:#5EBA7D;}
	.st1{fill:#E8B934;}
	.st2{fill:#E2645A;}
	.st3{fill:#B1B4B5;}
	.st4{fill:#E4E6E7;}
	.st5{fill:#808589;}
	.st6{fill:#0095FF;}
</style>
<path class="st0" d="M30.8,50.2L38,43l1,1l-8.2,8.2L27,48.4l1-1L30.8,50.2z"/>
<path class="st1" d="M56.1,77.9v-1.1H55v1.1H56.1z M56.1,82.2v-3.3H55v3.3H56.1z M55.5,74c3,0,5.5,2.5,5.5,5.5S58.5,85,55.5,85
	S50,82.5,50,79.5S52.5,74,55.5,74z"/>
<path class="st2" d="M82.1,112.1v-3.7H81v3.7H82.1z M81.5,114.7c0.5,0,0.8-0.4,0.8-0.8s-0.4-0.7-0.8-0.7s-0.8,0.4-0.8,0.7
	S81,114.7,81.5,114.7z M83.8,106l3.2,3.2v4.6l-3.2,3.2h-4.6l-3.2-3.2v-4.6l3.2-3.2H83.8z"/>
<path class="st3" d="M108.2,141.1v-1.2c0-1-0.8-1.8-1.7-1.8c-1,0-1.7,0.8-1.7,1.8v1.2H108.2z M106.5,146.3c0.6,0,1.2-0.5,1.2-1.2
	s-0.5-1.2-1.2-1.2s-1.2,0.5-1.2,1.2S106,146.3,106.5,146.3z M109.8,141.1c0.6,0,1.2,0.5,1.2,1.1v5.7c0,0.6-0.5,1.1-1.2,1.1h-6.7
	c-0.6,0-1.2-0.5-1.2-1.1v-5.7c0-0.6,0.5-1.1,1.2-1.1h0.6v-1.2c0-1.6,1.3-2.9,2.8-2.9s2.8,1.3,2.8,2.9v1.2H109.8z"/>
<g>
	<path class="st4" d="M131.5,170c1.5,0,2.8,0.6,3.8,1.6c1.1,1,1.7,2.4,1.7,3.9s-0.5,2.8-1.7,3.9c-1,1.1-2.4,1.6-3.8,1.6
		s-2.8-0.6-3.8-1.6c-1.1-1-1.7-2.4-1.7-3.9C126.1,172.5,128.5,170.1,131.5,170z"/>
	<rect x="130.9" y="172.8" class="st5" width="1.1" height="1.1"/>
	<rect x="130.9" y="174.9" class="st5" width="1.1" height="3.3"/>
</g>
<path class="st6" d="M11.9,3.9l-0.8-0.8C11,3,10.8,3,10.7,3.1L6.6,7.6L4.3,5.1C4.2,5,4,5,3.9,5.1L3.1,6C3,6.1,3,6.3,3.1,6.4l3.3,3.5
	C6.5,10,6.6,10,6.6,10c0.1,0,0.2,0,0.2-0.1l5-5.6C12,4.2,12,4,11.9,3.9z"/>
</svg>
