<?xml version="1.0" encoding="utf-8"?>
<!-- Generator: Adobe Illustrator 19.2.0, SVG Export Plug-In . SVG Version: 6.00 Build 0)  -->
<svg version="1.1" id="Layer_1" xmlns="http://www.w3.org/2000/svg" xmlns:xlink="http://www.w3.org/1999/xlink" x="0px" y="0px"
	 width="16px" height="16px" viewBox="0 0 16 16" enable-background="new 0 0 16 16" xml:space="preserve">
<path fill="#B2B5B6" d="M9.7,6.1V4.9c0-1-0.8-1.8-1.7-1.8c-1,0-1.7,0.8-1.7,1.8v1.2H9.7z M8,11.3c0.6,0,1.2-0.5,1.2-1.2
	S8.7,8.9,8,8.9s-1.2,0.5-1.2,1.2S7.5,11.3,8,11.3z M11.3,6.1c0.6,0,1.2,0.5,1.2,1.1v5.7c0,0.6-0.5,1.1-1.2,1.1H4.7
	c-0.6,0-1.2-0.5-1.2-1.1V7.2c0-0.6,0.5-1.1,1.2-1.1h0.6V4.9C5.2,3.3,6.6,2,8.1,2s2.8,1.3,2.8,2.9v1.2H11.3z"/>
</svg>
