<?xml version="1.0" encoding="UTF-8" standalone="no"?>
<svg width="26px" height="30px" viewBox="0 0 26 30" version="1.1" xmlns="http://www.w3.org/2000/svg" xmlns:xlink="http://www.w3.org/1999/xlink" xmlns:sketch="http://www.bohemiancoding.com/sketch/ns">
    <g id="Page-1" stroke="none" stroke-width="1" fill="none" fill-rule="evenodd" sketch:type="MSPage">
        <g id="stacks" sketch:type="MSArtboardGroup" transform="translate(-30.000000, -30.000000)">
            <g id="uikit-logo" sketch:type="MSLayerGroup" transform="translate(30.000000, 30.000000)">
                <path d="M21.7027317,27.3050847 L21.7027317,19.2711864 L24.4123475,19.2711864 L24.4123475,29.9745763 L0,29.9745763 L0,19.2711864 L2.70961573,19.2711864 L2.70961573,27.3050847 L21.7027317,27.3050847 Z" id="Shape" fill="#BCBBBB" sketch:type="MSShapeGroup"></path>
                <path d="M5.70309598,18.5338983 L18.993116,21.279661 L19.560845,18.6610169 L6.27082499,15.9152542 L5.70309598,18.5338983 L5.70309598,18.5338983 Z M7.45789474,12.279661 L19.7672919,17.9237288 L20.90275,15.5084746 L8.59335276,9.83898305 L7.45789474,12.279661 L7.45789474,12.279661 Z M10.8642688,6.33050847 L21.2898379,14.8983051 L23.0188308,12.8389831 L12.5932617,4.27118644 L10.8642688,6.33050847 L10.8642688,6.33050847 Z M17.5995993,0 L15.4319068,1.60169492 L23.5349481,12.3305085 L25.7026407,10.7288136 L17.5995993,0 L17.5995993,0 Z M5.41923147,24.6101695 L18.993116,24.6101695 L18.993116,21.940678 L5.41923147,21.940678 L5.41923147,24.6101695 L5.41923147,24.6101695 Z" id="Shape" fill="#F48024" sketch:type="MSShapeGroup"></path>
            </g>
        </g>
    </g>
</svg>