<svg style="position: absolute; width: 0; height: 0;" width="0" height="0" version="1.1" xmlns="http://www.w3.org/2000/svg" xmlns:xlink="http://www.w3.org/1999/xlink">
<defs>
<symbol id="icon-add" viewBox="0 0 24 24">
<title>add</title>
<path class="path1" d="M18.984 12.984h-6v6h-1.969v-6h-6v-1.969h6v-6h1.969v6h6v1.969z"></path>
</symbol>
<symbol id="icon-folder" viewBox="0 0 24 24">
<title>folder</title>
<path class="path1" d="M9.984 3.984l2.016 2.016h8.016c1.078 0 1.969 0.938 1.969 2.016v9.984c0 1.078-0.891 2.016-1.969 2.016h-16.031c-1.078 0-1.969-0.938-1.969-2.016v-12c0-1.078 0.891-2.016 1.969-2.016h6z"></path>
</symbol>
<symbol id="icon-file" viewBox="0 0 24 24">
<title>insert_drive_file</title>
<path class="path1" d="M12.984 9h5.531l-5.531-5.484v5.484zM6 2.016h8.016l6 6v12c0 1.078-0.938 1.969-2.016 1.969h-12c-1.078 0-2.016-0.891-2.016-1.969l0.047-16.031c0-1.078 0.891-1.969 1.969-1.969z"></path>
</symbol>
</defs>
</svg>
