<svg width="173" height="40" viewBox="0 0 173 40" xmlns="http://www.w3.org/2000/svg">
  <g fill="none" fill-rule="evenodd">
    <path fill="#BCBBBB" d="M24.1438849 31.3669065v-8.3453238h2.9928057v11.3381295H0V23.0215827h2.99280576v8.3453238"/>
    <path d="M6.21582734 21.9568345l14.79136686 2.676259.5467626-2.9640288-14.82014385-2.6762589-.5179856 2.9640287zM8.1151079 14.705036l13.7266187 6.1294964 1.2374101-2.733813L9.352518 11.971223l-1.2374101 2.733813zm3.9136691-6.99280578l11.5683453 9.55395688 1.8992806-2.3021583-11.5395684-9.55395686-1.9280575 2.30215828zm6.1007194-6.04316547l8.3453237 12.48920865 2.5035972-1.6690648L20.6330935 0l-2.5035971 1.66906475zM6.0143885 28.3453237h15.0215827V25.352518H6.0143885v2.9928057zm86.618705 4.115108h-4.7194244c-.1438849 0-.2589928.1151079-.2589928.2589928v.9208633c0 .1438849.1151079.2589928.2589928.2589928h1.5827338v5.5539568c0 .1438849.1151079.2589928.2589928.2589928h1.0071942c.1438849 0 .2589928-.1151079.2589928-.2589928v-5.5539568h1.5827338c.1438849 0 .2589929-.1151079.2589929-.2589928v-.9208633c.0287769-.1438849-.086331-.2589928-.2302159-.2589928zm-53.5251798.6906474c-.4604317-.4604316-1.1223022-.7194244-1.9280576-.7194244h-2.3597122c-.1438849 0-.2589928.1151079-.2589928.2589928v6.7338129c0 .1438849.1151079.2589928.2589928.2589928h2.3597122c.8057554 0 1.4676259-.2589928 1.9280576-.7194244.7769784-.7769784.7482014-1.8417266.7482014-2.7913669v-.3453238c.028777-.9208633.028777-1.8992805-.7482014-2.676259zm-1.0647482 4.7482015c-.2302159.2589928-.5179856.3741007-.9496403.3741007h-.9784173v-4.3741007h.9784173c.4316547 0 .7194244.1151079.9496403.3741007.2877698.3165468.2877698.8633093.2877698 1.7553957 0 .8057554 0 1.5539568-.2877698 1.8705036zm60.4604316-5.4388489h-4.2877698c-.1438849 0-.2589928.1151079-.2589928.2589928v6.7338129c0 .1438849.1151079.2589928.2589928.2589928h4.2877698c.1438849 0 .2589928-.1151079.2589928-.2589928v-.9208633c0-.1438849-.1151079-.2589928-.2589928-.2589928h-3.0215827v-1.4964029h2.5323741c.1438849 0 .2589928-.1151079.2589928-.2589928v-.9208633c0-.1438849-.1151079-.2589928-.2589928-.2589928h-2.5323741v-1.4388489h3.0215827c.1438849 0 .2589928-.1151079.2589928-.2589928v-.9208633c.028777-.1438849-.1151079-.2589928-.2589928-.2589928zm7.6258989 0h-1.007194c-.115108 0-.201439.0575539-.230216.1438848l-1.697841 3.6834533-1.726619-3.6834533c-.057554-.0863309-.143885-.1438848-.230216-.1438848h-1.007194c-.143885 0-.258993.1151079-.258993.2589928v6.7338129c0 .1438849.115108.2589928.258993.2589928h1.007194c.143885 0 .258993-.1151079.258993-.2589928v-3.3381295l1.093525 2.2446043c.057554.086331.143885.1438849.230216.1438849h.748201c.115108 0 .201439-.0575539.230216-.1438849l1.035971-2.2158273v3.3381295c0 .1438849.115108.2589928.258993.2589928h1.007194c.143885 0 .258993-.1151079.258993-.2589928v-6.733813c.057554-.1726618-.086331-.2877697-.230216-.2877697zM86.4748201 35.942446c-.3453237-.3165467-.7482014-.4604316-1.3812949-.5755395l-.7769784-.1151079c-.2589928-.028777-.4892087-.1438849-.6330936-.2589928-.1151079-.115108-.1726618-.2302159-.1726618-.4316547 0-.4892087.3741007-.7769784.9784172-.7769784.5755396 0 .9496403.1438849 1.2949641.4604316.1151079.086331.2589928.086331.3741007 0l.6618705-.6330935c.0575539-.057554.0863309-.1151079.0863309-.2014389 0-.0575539-.028777-.1438848-.0863309-.2014388-.6330935-.5755396-1.294964-.8345324-2.2733813-.8345324-1.4964029 0-2.5035971.8920864-2.5035971 2.2446043 0 .6330936.2014388 1.1223022.5755395 1.4676259.3453238.3165468.8345324.5179856 1.410072.6043166l.8057554.1151079c.3741007.057554.4892086.1151079.6043165.2302158.1438849.1438849.1726619.3453238.1726619.4892087 0 .6618705-.7194245.7769784-1.1223022.7769784-.6906474 0-1.1223021-.1726619-1.5251798-.5755396-.1151079-.1151079-.2589928-.1151079-.3741007 0l-.6906475.6618705c-.1151079.1151079-.1151079.2589928 0 .3741007.6618705.6906475 1.4388489.9784173 2.5611511.9784173 1.6115107 0 2.6762589-.8920863 2.6762589-2.2446043-.0287769-.6330935-.2589928-1.1798561-.6618705-1.5539569zm-11.3956834 0c-.3453238-.3165467-.7482014-.4604316-1.381295-.5755395l-.7769784-.1151079c-.2589928-.028777-.4892086-.1438849-.6330935-.2589928-.1151079-.115108-.1726619-.2302159-.1726619-.4316547 0-.4892087.3741007-.7769784.9784173-.7769784.5755395 0 .9496403.1438849 1.294964.4604316.1151079.086331.2589928.086331.3741007 0l.6618705-.6330935c.057554-.057554.086331-.1151079.086331-.2014389 0-.0575539-.028777-.1438848-.086331-.2014388-.6330935-.5755396-1.294964-.8345324-2.2733813-.8345324-1.4964028 0-2.5035971.8920864-2.5035971 2.2446043 0 .6330936.2014389 1.1223022.5755396 1.4676259.3453237.3165468.8345324.5179856 1.4100719.6043166l.8057554.1151079c.3741007.057554.4892087.1151079.6043166.2302158.1438849.1438849.1726618.3453238.1726618.4892087 0 .6618705-.7194244.7769784-1.1223021.7769784-.6906475 0-1.1223022-.1726619-1.5251799-.5755396-.1151079-.1151079-.2589928-.1151079-.3741007 0l-.6906475.6618705c-.1151079.1151079-.1151079.2589928 0 .3741007.6618705.6906475 1.4388489.9784173 2.5611511.9784173 1.6115108 0 2.676259-.8920863 2.676259-2.2446043-.028777-.6330935-.2589928-1.1798561-.6618705-1.5539569zm6.2158273-3.4820143h-1.1223021c-.1151079 0-.2014389.0575539-.2302159.1438848l-1.1798561 2.4460432-1.1798561-2.4460432c-.0575539-.0863309-.1438849-.1438848-.2302158-.1438848h-1.0935252c-.0863309 0-.1726619.0575539-.2302158.1151079-.057554.0863309-.057554.1726618 0 .2589928l1.9856115 3.913669v2.705036c0 .1438849.1151079.2589928.2589928.2589928h1.0071942c.1438849 0 .2589928-.1151079.2589928-.2589928v-2.705036l1.9856116-3.913669c.0287769-.086331.0287769-.1726619 0-.2589928-.057554-.086331-.1438849-.1151079-.2302159-.1151079zm-14.1294964 0h-1.0071942c-.1438849 0-.2589928.1151079-.2589928.2589928v3.8561151l-2.6187051-4c-.0575539-.086331-.1438849-.1151079-.2302158-.1151079h-.9208633c-.1438849 0-.2589928.1151079-.2589928.2589928v6.7338129c0 .1438849.1151079.2589928.2589928.2589928h1.0071942c.1438849 0 .2589929-.1151079.2589929-.2589928v-3.8561151l2.618705 4c.0575539.0863309.1438849.1151079.2302158.1151079h.9208633c.1438849 0 .2589928-.1151079.2589928-.2589928v-6.7338129c0-.1438849-.1151079-.2589928-.2589928-.2589928zm-6.7050359 3.0791366h-2.4460432c-.1438849 0-.2589928.115108-.2589928.2589929v.8633093c0 .1438849.1151079.2589928.2589928.2589928h1.1798561v.1151079c0 .4028777-.0863309.6618705-.2877698.8920864-.2302158.2589928-.5467626.3741007-.8920863.3741007-.3165468 0-.6043166-.1151079-.8057554-.3165468-.2589928-.2877698-.3453237-.5755396-.3453237-1.9280575 0-1.3237411.0863309-1.6402878.3453237-1.8992806.2014388-.2014389.4892086-.3453238.8057554-.3453238.7769784 0 1.0647482.5179857 1.1510791.9784173.028777.1151079.1438849.2014389.2589928.2014389h1.0359713c.0863309 0 .1438848-.028777.2014388-.086331.057554-.0575539.057554-.1438849.057554-.2014388-.2302159-1.410072-1.2661871-2.3021583-2.705036-2.3021583-.7769784 0-1.4388489.2589928-1.9568345.8057554-.7194245.7194245-.7194245 1.5539568-.7194245 2.8201439v.1151079c0 1.266187 0 2.1007194.7194245 2.8201439.5179856.5179856 1.2086331.8057554 1.9568345.8057554.8345324 0 1.4964029-.2877698 2.0431655-.8345324.4892086-.5179856.6618705-1.1223022.6618705-2.0719424v-1.0359713c0-.1726618-.115108-.2877698-.2589928-.2877698zm-9.438849.4028777c-.3453237-.3165467-.7482014-.4604316-1.3812949-.5755395l-.7769784-.1151079c-.2589929-.028777-.4892087-.1438849-.6330936-.2589928-.1151079-.115108-.1726618-.2302159-.1726618-.4316547 0-.4892087.3741007-.7769784.9784172-.7769784.5755396 0 .9496403.1438849 1.2949641.4604316.1151079.086331.2589928.086331.3741007 0l.6618705-.6330935c.0575539-.057554.0863309-.1151079.0863309-.2014389 0-.0575539-.028777-.1438848-.0863309-.2014388-.6330936-.5755396-1.2949641-.8345324-2.2733813-.8345324-1.4964029 0-2.5035971.8920864-2.5035971 2.2446043 0 .6330936.2014388 1.1223022.5755395 1.4676259.3453238.3165468.8345324.5179856 1.410072.6043166l.8057554.1151079c.3741007.057554.4892086.1151079.6043165.2302158.1438849.1438849.1726619.3453238.1726619.4892087 0 .6618705-.7194245.7769784-1.1223022.7769784-.6906475 0-1.1223021-.1726619-1.5251798-.5755396-.1151079-.1151079-.2589928-.1151079-.3741008 0l-.6906474.6618705c-.1151079.1151079-.1151079.2589928 0 .3741007.6618705.6906475 1.4388489.9784173 2.561151.9784173 1.6115108 0 2.676259-.8920863 2.676259-2.2446043-.0287769-.6330935-.2589928-1.1798561-.6618705-1.5539569zm2.8776979-3.4820143h-1.0071943c-.1438849 0-.2589928.1151079-.2589928.2589928v6.7338129c0 .1438849.1151079.2589928.2589928.2589928h1.0071943c.1438849 0 .2589928-.1151079.2589928-.2589928v-6.7338129c0-.1438849-.1151079-.2589928-.2589928-.2589928zm-8.5179856 0h-4.2877698c-.1438849 0-.2589928.1151079-.2589928.2589928v6.7338129c0 .1438849.1151079.2589928.2589928.2589928h4.2877698c.1438849 0 .2589928-.1151079.2589928-.2589928v-.9208633c0-.1438849-.1151079-.2589928-.2589928-.2589928h-3.0215828v-1.4964029h2.5323741c.1438849 0 .2589928-.1151079.2589928-.2589928v-.9208633c0-.1438849-.1151079-.2589928-.2589928-.2589928h-2.5323741v-1.4388489h3.0215828c.1438849 0 .2589928-.1151079.2589928-.2589928v-.9208633c0-.1438849-.1151079-.2589928-.2589928-.2589928z" fill="#F48024"/>
    <path d="M40.2877698 21.4676259l-1.9568345-.1726619c-1.5251799-.1151079-2.1294965-.7482014-2.1294965-1.7841726 0-1.2374101.9496403-2.0143885 2.705036-2.0143885 1.2661871 0 2.3597123.2877698 3.2230216.9496403l1.1510791-1.1510792C42.1870504 16.4028777 40.6330935 16 38.9064748 16c-2.589928 0-4.4604316 1.323741-4.4604316 3.5683453 0 2.0143885 1.266187 3.0503597 3.6258992 3.2517986l2.0143885.1726619c1.410072.1151079 2.0143885.7194244 2.0143885 1.7841726 0 1.4388489-1.23741 2.1582734-3.2230216 2.1582734-1.4964028 0-2.8201438-.4028777-3.7697841-1.4100719l-1.1798561 1.1798561c1.323741 1.294964 2.9352518 1.7553957 4.9784172 1.7553957 2.9352518 0 4.9496403-1.352518 4.9496403-3.7122303 0-2.2733813-1.4388489-3.1079136-3.5683453-3.2805755zM55.4820144 16c-1.9856115 0-3.2230216.4028777-4.2877698 1.8129496l1.2086331 1.1223022c.7194245-1.0071942 1.4964029-1.381295 3.0503597-1.381295 2.2158273 0 3.1079137.8920864 3.1079137 2.676259v1.1510792h-3.6546763c-2.705036 0-4.2014388 1.3812949-4.2014388 3.5107913 0 .9496403.3165467 1.8705036.9208633 2.4748202.7769784.7769784 1.7553957 1.1223021 3.4244604 1.1223021 1.6402878 0 2.5323741-.3165467 3.5107914-1.323741v1.1510792h1.7841726V20.057554C60.3741007 17.4100719 58.7625899 16 55.4820144 16zm3.1079137 8c0 1.0071942-.2014389 1.6978417-.6043166 2.1007194-.7769784.7482015-1.6690647.8057554-2.705036.8057554-1.9280575 0-2.7913669-.6618705-2.7913669-2.0719424 0-1.410072.8920864-2.1582734 2.705036-2.1582734h3.3956835V24zm8.7482014-6.4172662c1.1510791 0 1.8705036.3453238 2.7913669 1.352518l1.2086331-1.1223022C70.0719424 16.4604317 69.0071942 16 67.3381295 16c-3.0503597 0-5.381295 2.0719424-5.381295 6.2158273s2.3309353 6.2158274 5.381295 6.2158274c1.6690647 0 2.7338129-.4316547 4-1.8129497l-1.2086331-1.1510791c-.9208633 1.0071942-1.6402878 1.381295-2.7913669 1.381295-1.1798561 0-2.1870504-.4604317-2.8201439-1.381295-.5755396-.7769784-.7769784-1.7266187-.7769784-3.2517986 0-1.5251798.2302158-2.4748201.7769784-3.2517985.6330935-.9208633 1.6115108-1.381295 2.8201439-1.381295zm15.2230216-1.4388489h-2.2158274l-5.4964028 6.3309352V10.705036h-1.7841727v17.5827338h1.7841727v-3.5107914l2.3597122-2.705036 3.8561151 6.2158274h2.1870504l-4.8345324-7.5107914 4.1438849-4.6330935zm8.4316547-.7769784c-1.8705036 0-3.1366907.7194244-3.9136691 1.5539568-1.1510791 1.1798561-1.4388489 2.618705-1.4388489 4.9208633s.2877698 3.7410072 1.4388489 4.9208633c.7769784.8345324 2.0431655 1.5539569 3.9136691 1.5539569 1.8705036 0 3.1654676-.7194245 3.942446-1.5539569 1.1510791-1.1798561 1.4388489-2.618705 1.4388489-4.9208633 0-2.2733813-.2877698-3.7122302-1.4388489-4.9208633-.7769784-.8057554-2.0719424-1.5539568-3.942446-1.5539568zm1.4964028 9.5539568c-.3741007.3741007-.8633093.5467626-1.4964028.5467626-.6330936 0-1.0935252-.2014388-1.4676259-.5467626-.6618705-.6618705-.7194245-1.7841727-.7194245-3.0791367 0-1.323741.0863309-2.4172662.7194245-3.0503597.3741007-.3741007.8345323-.5467626 1.4676259-.5467626.6330935 0 1.1223021.2014389 1.4964028.5467626.6618705.6618705.7194245 1.7553957.7194245 3.0503597 0 1.323741-.0863309 2.4460432-.7194245 3.0791367zm12.2877694-9.4100719l-2.561151 7.8273381-2.5899277-7.8273381h-3.3381295l4.6618702 12.6618705h2.47482l4.633094-12.6618705h-3.280576zm8.719425-.1438849c-3.280576 0-5.52518 2.3309352-5.52518 6.4748201 0 5.1223022 2.877698 6.5035971 5.870504 6.5035971 2.273381 0 3.510791-.6906474 4.805755-1.9856115l-1.928058-1.8705036c-.805755.8057554-1.496402 1.1798561-2.877697 1.1798561-1.784173 0-2.76259-1.1798561-2.76259-2.8201438h7.913669v-1.410072c0-3.4820144-1.985612-6.0719424-5.496403-6.0719424zm-2.417266 5.323741c.028777-.5467626.086331-.8920863.287769-1.352518.345324-.7482014 1.035972-1.323741 2.10072-1.323741s1.784173.5467626 2.100719 1.323741c.201439.4604317.258993.8057554.28777 1.352518h-4.776978zm12.575539-3.9424461v-1.2086331h-3.079136v12.6618705h3.165467v-7.6546762c0-1.6115108 1.064748-2.3309353 2.043166-2.3309353.776978 0 1.179856.2589928 1.669064.7482015l2.38849-2.4172662c-.86331-.8633094-1.755396-1.1798561-2.992806-1.1798561-1.352518 0-2.589928.6330935-3.194245 1.3812949zm6.877698-2.4460431v13.8992805h3.165468v-9.8992805h2.330935v-2.4172662h-2.330935v-1.381295c0-.7194244.3741-1.1510791 1.122302-1.1510791h1.208633v-2.676259h-1.81295c-2.561151 0-3.683453 1.8417266-3.683453 3.6258993zm18.503597 1.0647482c-1.870503 0-3.13669.7194244-3.913669 1.5539568-1.151079 1.1798561-1.438849 2.618705-1.438849 4.9208633s.28777 3.7410072 1.438849 4.9208633c.776979.8345324 2.043166 1.5539569 3.913669 1.5539569 1.870504 0 3.165468-.7194245 3.942446-1.5539569 1.151079-1.1798561 1.438849-2.618705 1.438849-4.9208633 0-2.2733813-.28777-3.7122302-1.438849-4.9208633-.776978-.8057554-2.071942-1.5539568-3.942446-1.5539568zm1.467626 9.5539568c-.374101.3741007-.863309.5467626-1.496403.5467626-.633093 0-1.093525-.2014388-1.467626-.5467626-.66187-.6618705-.719424-1.7841727-.719424-3.0791367 0-1.323741.086331-2.4172662.719424-3.0503597.374101-.3741007.834533-.5467626 1.467626-.5467626.633094 0 1.122302.2014389 1.496403.5467626.661871.6618705.719425 1.7553957.719425 3.0503597.028777 1.323741-.057554 2.4460432-.719425 3.0791367zm18.820144-9.4100719l-2.043165 7.8273381-2.589929-7.8273381h-2.302158l-2.589928 7.8273381-2.043165-7.8273381h-3.366907l3.884892 12.6618705h2.589928l2.647482-7.9424461 2.647482 7.9424461h2.589928l3.856116-12.6618705h-3.280576zm-28.633094 8.8633093V10.676259h-3.165467v13.8705036c0 1.8129496 1.093525 3.6258993 3.683453 3.6258993h1.784173v-2.676259h-1.208633c-.776979.028777-1.093526-.3741007-1.093526-1.1223022zm-91.5971218-6.9064748l1.352518-1.352518h-3.3669065v-3.7122302H45.294964v12.6330935c0 1.8129497 1.0359713 3.2517986 3.1079137 3.2517986h1.266187v-1.5251799h-.9496402c-1.1223022 0-1.6690648-.6618705-1.6690648-1.7841726v-7.5107914h2.0431655z" fill="#222426"/>
  </g>
</svg>
