<svg width="64" height="64" viewBox="0 0 64 64" fill="none" xmlns="http://www.w3.org/2000/svg"><g clip-path="url(#clip0)"><path d="M63.9 3H2.90002V64H63.9V3Z" fill="#FFB935"/><path d="M60 1V60H1V1H60ZM61 0H0V61H61V0Z" fill="#F48024"/><path d="M0 47.3L0.2 44.3L17.8 26.7L28.8 37.7L27.4 39.1L17.8 29.5L0 47.3Z" fill="#F48024"/><path d="M21.4 46.9L20 45.5L47.8 17.7L59.9 29.8V32.6L47.8 20.5L21.4 46.9Z" fill="#F48024"/><path d="M15.3 18.4C17.8957 18.4 20 16.2957 20 13.7C20 11.1043 17.8957 9 15.3 9C12.7042 9 10.6 11.1043 10.6 13.7C10.6 16.2957 12.7042 18.4 15.3 18.4Z" fill="white"/><path d="M30.5 49.8H52" stroke="white" stroke-miterlimit="10"/><path d="M12.6 54H57.2" stroke="white" stroke-miterlimit="10"/></g><defs><clipPath id="clip0"><rect width="63.9" height="64" fill="white"/></clipPath></defs></svg>
