<svg width="331" height="300" fill="none" xmlns="http://www.w3.org/2000/svg"><path d="M287.08 156.32c57.36 32.76 57.85 85.95.66 118.7-57.19 32.76-149.77 32.76-207.12 0-57.35-32.75-57.84-85.94-.82-118.7 57.02-32.75 149.93-32.91 207.28 0z" fill="#F4F2F7"/><path d="M182 226c12.7 0 23-6.04 23-13.5S194.7 199 182 199s-23 6.04-23 13.5 10.3 13.5 23 13.5z" fill="#fff" stroke="#27348B" stroke-linejoin="round"/><path d="M205.5 209.92c.03-7.34-10.48-13.33-23.47-13.38-13-.04-23.55 5.87-23.57 13.22-.03 7.34 10.48 13.33 23.47 13.38 13 .04 23.55-5.88 23.58-13.22z" fill="#fff" stroke="#27348B" stroke-linejoin="round"/><path d="M188.5 206c-1.15 3.57-11.54 5.19-14 0V70l14-.31V206z" fill="#fff" stroke="#27348B" stroke-linejoin="round"/><path d="M240.22 78.04c.07-18.45-26-33.5-58.22-33.6-32.21-.12-58.38 14.75-58.45 33.2-.06 18.44 26 33.49 58.22 33.6 32.22.11 58.39-14.75 58.45-33.2z" fill="#fff" stroke="#27348B" stroke-linejoin="round"/><path d="M239.9 74.3c.06-18.44-26-33.49-58.22-33.6-32.22-.11-58.39 14.76-58.45 33.2-.07 18.45 26 33.5 58.21 33.61 32.22.11 58.4-14.75 58.46-33.2z" fill="#fff" stroke="#27348B" stroke-linejoin="round"/><path d="M155.34 93.08L118.8 72.16 142.5 58 179 79l-23.66 14.08z" fill="#fff" stroke="#27348B" stroke-linejoin="round"/><path d="M179.5 79.5l-37-21v-28l37 21v28z" fill="#fff" stroke="#27348B" stroke-linejoin="round"/><path d="M179.5 79.5v3l-24.16 14.31L118.8 75.9" stroke="#021766" stroke-linejoin="round"/><path d="M186.5 85.5l23.9 14.07 36.54-20.92L222.5 64l-36 21.5zm0 0l36-21.5V36.5l-36 21.5v27.5z" fill="#fff"/><path d="M186.5 85.5l23.9 14.07 36.54-20.92L222.5 64m-36 21.5l36-21.5m-36 21.5V58l36-21.5V64" stroke="#27348B" stroke-linejoin="round"/><path d="M186.5 85.5v4l24 14 36.44-21.12" stroke="#021766" stroke-linejoin="round"/><path d="M191.23 71.35l5.4-9.08 7.54 4.54 4.26-4.54h3.77l6.72-12.97m-69.8-7.95l24.57 13.95m-24.58-8.11l15.73 8.92m-15.73-3.08l24.58 14.1" stroke="#EE7B06" stroke-linejoin="round"/><path d="M155.34 93.08v3.73-3.73zm55.06 6.49v3.08-3.08z" fill="#fff"/><path d="M210.4 99.57v3.08m-55.06-9.57v3.73-3.73z" stroke="#27348B" stroke-linejoin="round"/><path d="M109.95 238.38c.33 3.24-.82 6.97-3.6 8.43-4.43 2.43-4.43 5.35-6.23 7.95-4.43 6.16-10.98 2.92-11.8 0v-5.84" stroke="#021766" stroke-linejoin="round"/><path d="M111.43 260.76c.16.97.49 2.92 11.8 1.94l3.93-.16a27.8 27.8 0 0 0 24.41-3.9c.82-7.13-14.58-5.67-19.17-7.61a11.32 11.32 0 0 1-3.6-2.6 7.73 7.73 0 0 0-1.64-1.62 5.88 5.88 0 0 0-1.64-.32c-3.44 0-10.65-.33-13.44 1.94-1.97 1.62-2.13 8.6-.65 12.33z" fill="#fff" stroke="#4F8EBB" stroke-linejoin="round"/><path d="M125.85 12.49c4.1 5.35 5.4 13.78 4.75 21.08 0 2.6-.82 5.02-2.3 7.13a5.42 5.42 0 0 1-6.88 1.62 5.85 5.85 0 0 0-.98 7.3c.49.49.65 1.14.82 1.79 0 1.13-1.48 1.62-2.62 1.94-2.95.49-5.9.33-8.69-.16a11.76 11.76 0 0 1-5.24-2.27 5.79 5.79 0 0 1-2.13-5.03c.65-2.75 4.91-3.73 4.26-6.48l8.52-24.17 10.49-2.75z" fill="#fff" stroke="#EE7B06" stroke-linejoin="round"/><path d="M88.49 252c.98 2.92 7.37 6.16 11.8 0 1.96-2.43 1.8-5.51 6.38-7.95 2.79-1.46 3.77-5.19 3.6-8.43 0-1.46-.48-4.38-1.8-4.86-1.3-.49-3.6 1.94-4.91 2.6-3.93 2.1-8.68 2.1-12.62 4.04-3.93 1.95-2.78 12.82-2.45 14.6z" fill="#fff" stroke="#4F8EBB" stroke-linejoin="round"/><path d="M171.56 122.76c1.97.64 3.77 1.78 5.08 3.24.66.81.66 1.95 0 2.76-.65.8-1.8.8-2.45.32-.17 0-.17-.16-.33-.32-.5 0-.17.97 0 1.62a10.1 10.1 0 0 1 1.63 7.13c-.16.49-.32.98-.81 1.3a1.5 1.5 0 0 1-1.15.49 8.7 8.7 0 0 1-6.06-.33 8.19 8.19 0 0 1-2.79-4.86l-1.47-4.54a3.47 3.47 0 0 1 1.63-3.73 10.86 10.86 0 0 1 4.43-1.95l2.3-1.13z" fill="#fff" stroke="#EE7B06" stroke-linejoin="round"/><path d="M85.54 58.38c-2.13 12.16-4.92 24.8-4.92 30.32s2.95 6.81 7.87 8.11c4.91 1.3-.17-33.9-.99-36.16-.82-2.27-1.96-2.1-1.96-2.1v-.17z" fill="#fff" stroke="#945CA2" stroke-linejoin="round"/><path d="M110.44 148.22c-1.64 11.51-4.91 72.32-5.57 84.97a5.1 5.1 0 0 1-2.3 3.73c-3.76 2.43-12.28 5.19-13.43 1.95-1.47-4.38-1.31-57.74.33-86.6.65-10.05.49-23.19.82-31.95 4.42 1.14 47.52 3.25 47.52 3.25s-8.85 100.21-10 120.97a6.1 6.1 0 0 1-4.42 5.51c-2.62.65-5.41.81-8.2.5-3.1-.33-5.57-2.93-5.4-6 .49-20.6 2.45-93.1.65-96.33l-7.04-.65 7.04.65z" fill="#fff"/><path d="M110.44 148.22c-1.64 11.51-4.91 72.32-5.57 84.97a5.1 5.1 0 0 1-2.3 3.73c-3.76 2.43-12.28 5.19-13.43 1.95-1.47-4.38-1.31-57.74.33-86.6.65-10.05.49-23.19.82-31.95 4.42 1.14 47.52 3.25 47.52 3.25s-8.85 100.21-10 120.97a6.1 6.1 0 0 1-4.42 5.51c-2.62.65-5.41.81-8.2.5-3.1-.33-5.57-2.93-5.4-6 .49-20.6 2.45-93.1.65-96.33zm0 0l-7.04-.65" stroke="#27348B" stroke-linejoin="round"/><path d="M91.27 45.57a16.2 16.2 0 0 0-3.28 4.7 38.04 38.04 0 0 0-3.27 20.43 306.36 306.36 0 0 1 5.73 47.35 8.75 8.75 0 0 0 .17 3.57 6.06 6.06 0 0 0 3.27 2.43 58.56 58.56 0 0 0 39.33 2.92 7.62 7.62 0 0 0 3.77-1.94c1.64-1.63 1.47-4.22 1.14-6.49l-2.45-20.92a219.54 219.54 0 0 0 19.99 25.95c1.8 2.1 3.93 3.73 6.55 4.86 2.79.81 6.23.16 7.54-2.27 2.13-3.56-1.31-7.94-4.26-11.02a84.84 84.84 0 0 1-18.03-28.38c-2.94-7.95-4.75-16.22-8.19-24a20.47 20.47 0 0 0-4.91-7.46 21.74 21.74 0 0 0-8.2-3.57c-6.88-1.95-14.74-3.24-20.97-6.16-5.74-2.43-10.16-3.08-13.93 0z" fill="#fff"/><path d="M95.37 48a14.5 14.5 0 0 0-3.6 4.7 38.89 38.89 0 0 0-2.96 20.27 306.36 306.36 0 0 1 5.74 47.35c-.17 1.14 0 2.44.33 3.57a5.86 5.86 0 0 0 3.1 2.43 58.64 58.64 0 0 0 39.34 2.92 7.62 7.62 0 0 0 3.77-1.94c1.63-1.62 1.3-4.22 1.14-6.49l-2.46-20.92a219.38 219.38 0 0 0 20 25.95c1.8 2.1 4.1 3.89 6.71 4.86 2.63.81 6.07.17 7.54-2.1 2.13-3.73-1.31-8.11-4.26-11.03a87.18 87.18 0 0 1-18.02-28.54c-2.95-7.95-4.92-16.22-8.2-23.84a19.6 19.6 0 0 0-5.08-7.46 22.08 22.08 0 0 0-8.19-3.73c-6.88-1.95-14.75-3.24-21.14-6.16-5.4-2.43-9.83-3.08-13.6 0l-.16.16z" fill="#E2D4E9"/><path d="M135.02 96.32l-4.42-10.21" stroke="#945CA2" stroke-linejoin="round"/><path d="M111.43 264.16c.16.97.49 2.92 11.8 1.95 0 0 3.76-.33 3.93-.16a27.8 27.8 0 0 0 24.41-3.9" stroke="#021766" stroke-linejoin="round"/><path d="M125.52 13.62c-2.13 2.6-5.9 4.22-7.05 7.14a7.09 7.09 0 0 0 0 5.19c.66 1.3.82 2.75.66 4.21-.5 1.46-2.63 2.27-3.28.98-.66-.98-.33-2.76-1.47-2.76a5.95 5.95 0 0 0-1.64 4.86c.16 1.62 0 3.4-.33 5.03a3.36 3.36 0 0 1-3.93 2.6c-.5-.17-.99-.5-1.31-.82-5.58-4.37-10.5-10.05-12.13-16.86-1.64-6.81 1.97-14.92 8.52-17.35 3.28-1.14 7.21-.81 10.49-1.95 1.96-.8 3.93-1.62 6.06-2.27 7.21-1.62 9.34 7.46 5.4 12z" fill="#fff" stroke="#27348B" stroke-linejoin="round"/><path d="M91.27 45.57a16.2 16.2 0 0 0-3.28 4.7 38.04 38.04 0 0 0-3.27 20.43 306.36 306.36 0 0 1 5.73 47.35 8.75 8.75 0 0 0 .17 3.57 6.06 6.06 0 0 0 3.27 2.43 58.56 58.56 0 0 0 39.33 2.92 7.62 7.62 0 0 0 3.77-1.94c1.64-1.63 1.47-4.22 1.14-6.49l-2.45-20.92a219.54 219.54 0 0 0 19.99 25.95c1.8 2.1 3.93 3.73 6.55 4.86 2.79.81 6.23.16 7.54-2.27 2.13-3.56-1.31-7.94-4.26-11.02a84.84 84.84 0 0 1-18.03-28.38c-2.94-7.95-4.75-16.22-8.19-24a20.47 20.47 0 0 0-4.91-7.46 21.74 21.74 0 0 0-8.2-3.57c-6.88-1.95-14.74-3.24-20.97-6.16-5.74-2.43-10.16-3.08-13.93 0z" stroke="#945CA2" stroke-miterlimit="10"/><path d="M207.12 90.49a13.37 13.37 0 0 1-6.06-5.2l3.6-7.13h5.08l1.64 4.7-4.26 7.63z" fill="#fff" stroke="#EE7B06" stroke-linejoin="round"/><path d="M279.71 249.73c.33 2.43 2.79 9.08-2.95 10.38-9.01 1.94-10.16-3.57-14.09-5.68-3.11-1.62-6.56-2.75-8.69-5.51s-1.96-4.38-1.63-7.78" fill="#fff"/><path d="M279.71 249.73c.33 2.43 2.79 9.08-2.95 10.38-9.01 1.94-10.16-3.57-14.09-5.68-3.11-1.62-6.56-2.75-8.69-5.51s-1.96-4.38-1.63-7.78" stroke="#4F8EBB" stroke-miterlimit="10"/><path d="M277.58 238.7c.33 0 1.97 6.98 2.13 7.79.33 2.6 2.79 9.24-2.95 10.54-9.01 1.94-10.16-3.57-14.09-5.68-3.11-1.62-6.56-2.75-8.69-5.51s-1.96-4.38-1.63-7.79c0-1.46.65-2.75 1.64-3.89 1.96-1.62 6.22.81 8.19 2.6 3.44 2.92 11.14 3.89 15.4 1.94zm-22.45 16.87c.5 2.6 2.79 9.08-2.78 10.38-9.18 2.1-10.33-3.57-14.1-5.68-3.27-1.62-6.55-2.76-8.84-5.35-2.3-2.6-1.8-4.54-1.64-7.95" fill="#fff"/><path d="M255.13 255.57c.5 2.6 2.79 9.08-2.78 10.38-9.18 2.1-10.33-3.57-14.1-5.68-3.27-1.62-6.55-2.76-8.84-5.35-2.3-2.6-1.8-4.54-1.64-7.95m49.81-8.27c.33 0 1.97 6.98 2.13 7.79.33 2.6 2.79 9.24-2.95 10.54-9.01 1.94-10.16-3.57-14.09-5.68-3.11-1.62-6.56-2.75-8.69-5.51s-1.96-4.38-1.63-7.79c0-1.46.65-2.75 1.64-3.89 1.96-1.62 6.22.81 8.19 2.6 3.44 2.92 11.14 3.89 15.4 1.94z" stroke="#4F8EBB" stroke-miterlimit="10"/><path d="M253 244.7c.33-.16 2.13 6.81 2.13 7.79.5 2.6 2.79 9.08-2.78 10.38-9.18 2.1-10.33-3.57-14.1-5.68-3.27-1.62-6.55-2.76-8.84-5.35-2.3-2.6-1.8-4.54-1.64-7.95 0-1.46.65-2.75 1.64-3.89 2.13-1.62 6.22.97 8.19 2.6 3.6 3.08 11.14 3.89 15.4 2.1z" fill="#fff" stroke="#4F8EBB" stroke-miterlimit="10"/><path d="M228.75 123.57c.66 13.3 12.78 115.3 13.1 121.94 0 0 5.58 12 12.14 5.2V146.9l2.78-.31s1.64 35.18 2.3 42.16c.65 6.97 7.37 50.27 7.37 50.27s3.93 6 11.8.32c0-7.62-1.64-89.19-1.15-94.86.66-6.33 1.15-24 1.15-24l-49.49-2.11v5.19z" fill="#fff"/><path d="M232.85 123.57c.82 13.3 12.94 115.3 13.1 121.94 0 0 5.58 12 12.3 5.03V146.92l2.78-.32s1.48 35.18 2.3 42.16c.81 6.97 7.2 50.27 7.2 50.27s4.1 5.84 11.8.32c0-7.78-1.63-89.35-.98-95.03.65-6.16.98-24 .98-24l-49.48-1.94v5.19z" fill="#D9EEFC"/><path d="M246.61 22.86c-1.47 8.28-2.95 14.28 2.3 20.44l2.62 1.3v7.45s7.7-1.62 10.65-1.13l-1.31-5.68-2.3-20.27-11.96-2.1z" fill="#fff" stroke="#EE7B06" stroke-linejoin="round"/><path d="M247.43 23.84c.5 1.62.82 3.24.98 4.86 0-2.6 2.95-3.08 5.58-.32 1.96 4.86-2.46 6.97-1.97 7.78 2.3 4.7 6.72 7.95 11.8 8.6 8.19.97 23.26-18.17 13.43-29.68-9.83-11.51-21.13-7.3-24.9-4.22a11.89 11.89 0 0 0-4.92 12.98z" fill="#fff" stroke="#27348B" stroke-linejoin="round"/><path d="M228.75 123.57c.66 13.3 12.78 115.3 13.1 121.94 0 0 5.58 12 12.14 5.2V146.9l2.78-.31s1.64 35.18 2.3 42.16c.65 6.97 7.37 50.27 7.37 50.27s3.93 6 11.8.32c0-7.62-1.64-89.19-1.15-94.86.66-6.33 1.15-24 1.15-24l-49.49-2.11v5.19z" stroke="#5EB3E4" stroke-linejoin="round"/><path d="M262.5 128.92c13.6-.81 16.88-4.05 16.88-4.05s0-64.06-3.27-69.57c-3.28-5.52-4.92-5.68-10.16-5.84-2.3 0-.82 3.24-15.9 0-2.13-.65-4.42.97-6.39 2.1-8.52 4.55-11.47 7.95-12.94 15.9-1.64 8.6-4.26 15.24-5.9 24.32-3.44-1.13-9.83-7.46-12.3-9.08-2.45-1.62-7.37 5.84-4.9 8.92l20.15 14.76s-1.15 8.6 0 12.16c1.14 3.57 14.42 11.35 34.74 10.38z" fill="#fff" stroke="#5EB3E4" stroke-linejoin="round"/><path d="M267.59 142.38c-3.77 1.62-13.6 4.54-13.6 4.54" stroke="#5EB3E4" stroke-linejoin="round"/><path d="M277.9 25.78s-6.71-2.43-6.05 5.52c.65 7.94-1.48 51.24-.99 54.97.99 6.81 5.41 16.7 9.01 16.22 7.87-1.3 9.18-11.68 8.36-15.25-.82-3.56-4.75-53.83-10.32-61.46z" fill="#fff" stroke="#27348B" stroke-linejoin="round"/><path d="M55.06 175.13H22.29l4.91 11.36a5.62 5.62 0 0 0 3.28 4.54 17.54 17.54 0 0 0 16.06 0 10.2 10.2 0 0 0 3.27-4.54l5.25-11.36z" fill="#fff" stroke="#27348B" stroke-miterlimit="10"/><path d="M55.71 172.7c0 2.44-1.64 4.87-4.91 6.81a26.31 26.31 0 0 1-24.1 0c-3.27-1.94-4.9-4.38-4.9-6.8v-5.68H55.7v5.67z" fill="#fff" stroke="#27348B" stroke-miterlimit="10"/><path d="M55.55 167.09c.02-5.38-7.6-9.76-17-9.8-9.42-.03-17.06 4.3-17.08 9.68-.02 5.37 7.6 9.75 17 9.79 9.42.03 17.06-4.3 17.08-9.67z" fill="#fff" stroke="#27348B" stroke-miterlimit="10"/><path d="M21.8 168.65a9.57 9.57 0 0 1 4.75-5.03 26.3 26.3 0 0 1 24.08 0 9.85 9.85 0 0 1 4.76 4.87" fill="#fff"/><path d="M21.8 168.65a9.57 9.57 0 0 1 4.75-5.03 26.3 26.3 0 0 1 24.08 0 9.85 9.85 0 0 1 4.76 4.87" stroke="#27348B" stroke-miterlimit="10"/><path d="M65.22 158.1a24.74 24.74 0 0 0 10-10.05c.65-1.3.81-2.75.32-4.05-.98-1.62-3.11-2.27-4.92-1.62a8.92 8.92 0 0 0-4.1 3.24 48.27 48.27 0 0 1-3.27 4.7 4.6 4.6 0 0 1-2.3 1.63c-.98.16-2.12-.33-2.45-1.3-.5-1.62 1.47-2.76 2.78-3.57a10.99 10.99 0 0 0 4.26-5.19c.66-1.62.5-4.21-1.3-4.86-1.15-.33-2.46.32-3.12 1.3-.66.97-.98 2.1-1.31 3.24a32.54 32.54 0 0 1-3.6 7.62 6.36 6.36 0 0 1-3.28 3.24c-1.8.33-3.44.33-5.25 0-1.63-.32-3.77 0-4.42 1.62-.98 2.11 1.15 4.22 3.11 5.52 2.62 1.78 4.6 3.56 7.87 3.56 3.77-.16 8.03-3.24 10.98-5.02zm-49 2.44c-2.3-1.3-8.03-4.7-3.6-7.94 1.14-.5 2.3-.98 3.6-1.3a4.2 4.2 0 0 0 1.31-5.84 3.82 3.82 0 0 0-1.14-1.14c-1.97-1.13-4.43-.64-6.56-.8-2.13-.17-4.91-2.12-3.93-4.22l4.91-.98c1.48-1.13.99-3.4-.32-4.7a13 13 0 0 0-4.92-1.94 6.75 6.75 0 0 1-4.42-2.76c-.82-1.62.32-3.9 1.96-3.73.5 0 .99.16 1.48.49l5.57 3.08c1.64-2.92 0-6.65-2.3-9.25-.98-1.46-2.29-3.24-1.3-4.86 1.3-1.62 4.42-.16 5.07 1.94.66 2.11.17 4.55.82 6.65.66 2.11 3.94 3.73 5.08 1.63 1.15-2.11-.49-4.38 1.15-5.52 1.8.81 3.93 1.95 4.26 3.9.33 1.94-1.15 4.05-2.13 6-.98 1.94-.16 5.34 2.13 5.34a11.23 11.23 0 0 0 1.97-5.5 5.49 5.49 0 0 1 3.93 0c1.31.64 1.97 1.94 1.64 3.23-.66 1.63-2.79 2.28-4.43 3.25-2.29 1.3-3.27 5.35-.82 6.48 2.79 1.63 5.74-2.1 8.85-2.43 3.12-.32 5.74 3.25 6.23 6.49.82 6-1.97 12-7.21 15.24a15.93 15.93 0 0 1-16.71-.8h-.17z" fill="#fff" stroke="#64B674" stroke-miterlimit="10"/><path d="M25.4 161.03c-1.15-1.95-2.13-4.87-.17-6.16 1.97-1.3 3.94.32 5.58 1.62 1.63 1.3 4.42 1.94 5.4.16.5-1.3.17-2.6-.65-3.73-1.8-3.4-3.6-7.14-3.28-10.87 1.64-.8 3.44.98 4.59 2.44s3.28 2.91 4.91 1.62c.5-.65.82-1.62.66-2.43 0-2.28-.33-4.55-.66-6.81-.49-2.28.17-4.7 1.64-6.5a5.07 5.07 0 0 1 2.63 3.41c.32 1.3.32 2.76 1.3 3.25 1.64.8 2.96-.98 3.61-2.44l3.44-7.62a5.19 5.19 0 0 1 .82 6.81c-.65.98-1.64 1.63-2.46 2.6a3.36 3.36 0 0 0-.82 3.24c1.31.81 2.46-1.46 3.94-1.78 1.47-.33 2.95 1.3 3.27 2.92.33.65.33 1.3.33 1.94a3.15 3.15 0 0 1-2.95 2.11c-1.3 0-2.62.16-3.93.49a4.14 4.14 0 0 0-2.13 5.51c0 .16 0 .16.16.32 1.31-.32 2.79-.48 4.1-.32 1.47.16 2.46 1.3 2.79 2.6 0 1.3-.82 2.43-2.13 2.91a8.05 8.05 0 0 1-3.94 0c-1.64-.32-3.93-.64-4.42.81-.5 1.14.65 2.28 1.64 2.76a5.9 5.9 0 0 1 2.95 1.95c.65 1.62 0 3.4-1.48 4.21l-5.9 4.22c-3.27 2.6-8.2 2.27-12.61-.65-2.95-2.1-4.1-5.84-6.23-8.92v.33z" fill="#fff" stroke="#64B674" stroke-miterlimit="10"/><path d="M28.68 159.24l9.34 8.92 3.27-8.75 8.2-19.95m-13.44 7.62c2.95 5.51 9.5 8.1 15.4 6.16" stroke="#64B674" stroke-miterlimit="10"/><path d="M44.24 139.13a11.72 11.72 0 0 0 3.44 4.06 4.81 4.81 0 0 0 5.08.49" stroke="#64B674" stroke-miterlimit="10"/><path d="M46.86 163.78a74.64 74.64 0 0 0-8.84 4.38l8.84-4.38z" fill="#fff"/><path d="M46.86 163.78a74.64 74.64 0 0 0-8.84 4.38M12.78 128.76c1.64 8.6 10.49 14.6 11.8 23.02m-11.96-9.73c3.27-.16 6.39-1.46 8.68-3.73" stroke="#64B674" stroke-miterlimit="10"/><path d="M10.81 132.97c1.15.33 2.46.65 3.61.65A4.3 4.3 0 0 0 17.7 132m11.8 20.76a14.13 14.13 0 0 0 1.63-3.57m-14.09 6.49c1.97.97 4.1 1.45 6.4 1.62l-6.4-1.62z" stroke="#64B674" stroke-miterlimit="10"/></svg>