<svg width="279" height="182" xmlns="http://www.w3.org/2000/svg"><g fill="none" fill-rule="evenodd"><path fill="#F3F3F5" fill-rule="nonzero" d="M0 0h279v181.96H0z"/><path d="M9 30h261a3 3 0 0 1 3 3v140a3 3 0 0 1-3 3H9a3 3 0 0 1-3-3V33a3 3 0 0 1 3-3z" fill="#FFF" fill-rule="nonzero"/><path d="M120.5 159h28a2.5 2.5 0 1 1 0 5h-28a2.5 2.5 0 1 1 0-5zM94.5 159h17a2.5 2.5 0 1 1 0 5h-17a2.5 2.5 0 1 1 0-5z" fill="#C9CBCF" fill-rule="nonzero"/><rect fill="#C9CBCF" fill-rule="nonzero" x="221.99" y="158.91" width="12.13" height="4.85" rx="2.43"/><path d="M178.5 159h34a2.5 2.5 0 1 1 0 5h-34a2.5 2.5 0 1 1 0-5zM157.5 159h12a2.5 2.5 0 1 1 0 5h-12a2.5 2.5 0 1 1 0-5zM68.5 159h17a2.5 2.5 0 1 1 0 5h-17a2.5 2.5 0 1 1 0-5zM220.5 147h29a2.5 2.5 0 1 1 0 5h-29a2.5 2.5 0 1 1 0-5zM203.5 147h7a2.5 2.5 0 1 1 0 5h-7a2.5 2.5 0 1 1 0-5zM159.5 147h34a2.5 2.5 0 1 1 0 5h-34a2.5 2.5 0 1 1 0-5zM138.5 147h12a2.5 2.5 0 1 1 0 5h-12a2.5 2.5 0 1 1 0-5zM68.5 147h61a2.5 2.5 0 1 1 0 5h-61a2.5 2.5 0 1 1 0-5z" fill="#C9CBCF" fill-rule="nonzero"/><rect fill="#858C93" fill-rule="nonzero" x="66" y="129" width="114" height="10" rx="5"/><path fill="#FFF" fill-rule="nonzero" d="M15.93 163.07h25.5v-25.44h-25.5z"/><path d="M41.28 137.48H15.77v25.74H41.6v-25.74h-.32zm-25.2.31h25.2v25.12H16.09v-25.12z" fill="#1060E1" fill-rule="nonzero"/><path fill="#FFB935" fill-rule="nonzero" d="M19.37 146.47h19.8v-5.4h-19.8z"/><path stroke="#F48024" d="M18.64 145.69h19.79v-5.4h-19.8zM20.97 150.56h15.57m-15.57 1.24h15.57m-12.7 1.44h9.8m-12.67 3.92h15.57m-15.57 1.24h15.57m-12.7 1.45h9.8m-11.76-11.03l14.12-.6"/><path fill="#FFF" fill-rule="nonzero" d="M42.04 162.03l-.16-.15v-1.75l.16-.16h4.74l.16.16v1.75l-.16.15z"/><path d="M46.78 159.81h-4.74l-.31.32v1.75l.31.31h4.74l.32-.31v-1.75l-.32-.32zm-4.74 2.07h4.74v-1.75h-4.74v1.75z" fill="#1060E1" fill-rule="nonzero"/><path d="M42.66 128.58l-.32.32v31.07l.32.31h3.51l.32-.31V128.9l-.32-.32h-3.5zm0 .32h3.51v31.07h-3.5V128.9z" fill="#1060E1" fill-rule="nonzero"/><path stroke="#1060E1" stroke-linecap="square" stroke-linejoin="bevel" d="M49.68 133.75V132H28.83v1.84h20.85"/><path d="M49.68 132.15l-3.4-3.4m-3.62 0l-13.83 3.4" stroke="#1060E1" stroke-linecap="round" stroke-linejoin="bevel"/><path d="M32.3 133.94v11.78" stroke="#1060E1" stroke-linecap="square" stroke-linejoin="bevel"/><path fill="#FFF" fill-rule="nonzero" d="M31.87 147.4l-.15-.11-.22-.88.15-.2h1.3l.16.2-.21.88-.16.12z"/><path d="M32.96 146.7zm0-.64h-1.31l-.3.4.21.87.3.24h.88l.31-.25.22-.87-.31-.4zm0 .31l-.22.88h-.87l-.22-.88h1.3zm0 0z" fill="#1060E1" fill-rule="nonzero"/><path d="M32.3 148.34l-.18.12a.3.3 0 0 1-.47-.25c0-.17.13-.3.3-.3h.13c.13 0 .22-.1.22-.23v-.43" stroke="#1060E1" stroke-linecap="square" stroke-linejoin="bevel"/><path d="M40.46 163.06l-.15-.16v-.45c0-.32.25-.58.57-.58h7.07c.31 0 .57.26.57.58v.45l-.16.16h-7.9z" fill="#FFF" fill-rule="nonzero"/><path d="M47.95 161.71h-7.07c-.4 0-.73.33-.73.74v.45l.31.32h7.9l.32-.32v-.45c0-.4-.33-.74-.73-.74zm0 .32c.22 0 .41.19.41.42v.45h-7.9v-.45c0-.23.19-.42.42-.42h7.07zm-3.72-5.64l-1.72 1.73v.45l1.71 1.72h.45l1.73-1.72v-.45l-1.72-1.73h-.45zm.23.23l1.71 1.72-1.72 1.73-1.72-1.73 1.73-1.72z" fill="#1060E1" fill-rule="nonzero"/><path d="M44.23 152.95l-1.72 1.72v.45l1.71 1.72h.45l1.73-1.72v-.45l-1.72-1.72h-.45zm.23.22l1.71 1.73-1.72 1.72-1.72-1.72 1.73-1.73z" fill="#1060E1" fill-rule="nonzero"/><path d="M44.23 149.5l-1.72 1.72v.45l1.71 1.73h.45l1.73-1.73v-.45l-1.72-1.72h-.45zm.22.23l1.72 1.72-1.73 1.72-1.71-1.72 1.72-1.72z" fill="#1060E1" fill-rule="nonzero"/><path d="M44.23 146.05l-1.72 1.73v.45l1.71 1.72h.45l1.73-1.72v-.45l-1.72-1.73h-.45zm.22.23l1.72 1.72-1.72 1.72-1.72-1.72 1.72-1.72z" fill="#1060E1" fill-rule="nonzero"/><path d="M44.23 142.6l-1.73 1.73v.45l1.72 1.72h.45l1.73-1.72v-.45l-1.72-1.72h-.45zm.23.23l1.71 1.72-1.72 1.73-1.72-1.73 1.73-1.72z" fill="#1060E1" fill-rule="nonzero"/><path d="M44.23 139.16l-1.72 1.72v.45l1.71 1.73h.45l1.73-1.73v-.45l-1.72-1.72h-.45zm.22.22l1.72 1.73-1.73 1.72-1.71-1.72 1.72-1.73z" fill="#1060E1" fill-rule="nonzero"/><path d="M44.23 135.7l-1.72 1.73v.45l1.71 1.73h.45l1.73-1.73v-.45l-1.72-1.72h-.45zm.22.23l1.72 1.73-1.72 1.72-1.72-1.72 1.72-1.73z" fill="#1060E1" fill-rule="nonzero"/><path d="M44.23 132.26L42.51 134v.44l1.71 1.73h.45l1.73-1.73V134l-1.72-1.73h-.45zm.23.23l1.71 1.72-1.72 1.72-1.72-1.72 1.73-1.72z" fill="#1060E1" fill-rule="nonzero"/><path d="M44.45 128.75a.32.32 0 0 0-.22.1l-1.72 1.72a.32.32 0 0 0 0 .45l1.71 1.72c.06.06.14.1.22.1.09 0 .17-.04.23-.1l1.73-1.72a.32.32 0 0 0 0-.45l-1.72-1.72a.32.32 0 0 0-.23-.1zm0 .32l1.72 1.73-1.73 1.72-1.71-1.72 1.72-1.73z" fill="#1060E1" fill-rule="nonzero"/><path stroke="#1060E1" stroke-linecap="square" stroke-linejoin="bevel" d="M42.61 133.73l-1.72-1.72-1.72 1.72"/><path stroke="#1060E1" stroke-linecap="round" stroke-linejoin="bevel" d="M49.68 133.85l-1.76-1.84-1.72 1.72"/><path stroke="#1060E1" stroke-linecap="square" stroke-linejoin="bevel" d="M39.17 133.73l-1.72-1.72-1.73 1.72M35.72 133.73l-1.71-1.72-1.73 1.72"/><path stroke="#1060E1" stroke-linecap="round" stroke-linejoin="bevel" d="M32.28 133.73l-1.72-1.72-1.72 1.72M32.34 133.85a1.76 1.76 0 0 1-3.51 0"/><path d="M10 30h259c2.37 0 4 1.63 4 4v81H6V34c0-2.37 1.63-4 4-4z" fill="#362858" fill-rule="nonzero"/><path fill="#CA7929" fill-rule="nonzero" d="M227.75 89.31v7.73h1.52v-7.73"/><path fill="#CA7929" fill-rule="nonzero" d="M228.36 67.65l-.76.3 6.52 20.6h-11.53l6.52-20.6-.75-.3-.76.3.76-.3-.76-.15-7.13 22.57h15.77l-7.88-24.85-.76 2.28z"/><path fill="#CA7929" fill-rule="nonzero" d="M225.63 74.62l4.85 15.45 2.88-9.09-1.52-.45-1.36 4.54-3.49-10.9z"/><path fill="#CA7929" fill-rule="nonzero" d="M223.5 81.13l2.88 8.94 4.86-15.45-1.52-.46-3.34 10.91-1.51-4.4zM185.9 89.31v7.73h1.52v-7.73"/><path fill="#CA7929" fill-rule="nonzero" d="M186.5 60.07l-.75.3 8.94 28.19h-16.52l9.1-28.18-.76-.3-.76.3.76-.3-.76-.16-9.56 30.15h20.47L186.51 57.5l-.76 2.42z"/><path fill="#CA7929" fill-rule="nonzero" d="M182.87 69.47l6.36 20 3.64-11.52-1.51-.45-2.13 6.81-4.85-15.3z"/><path fill="#CA7929" fill-rule="nonzero" d="M180.14 78.1l3.64 11.37 6.21-20-1.51-.46-4.7 15.3-2.28-6.66zM208.04 89.31v7.73h1.51v-7.73"/><path fill="#CA7929" fill-rule="nonzero" d="M208.64 47.95l-.75.15 8.94 40.46H200.3l9.1-40.46-.76-.15-.75.15.75-.15-.75-.15-9.56 42.27h20.47l-10.16-45.6-.75 3.33z"/><path fill="#CA7929" fill-rule="nonzero" d="M203.94 65.98l7.43 23.33 4.25-12.87-1.52-.46-2.73 8.49-6.06-18.94z"/><path fill="#CA7929" fill-rule="nonzero" d="M201.67 75.98l4.24 13.33 7.43-23.33-1.51-.45-5.92 18.78-2.88-8.78zM164 100h90c.7 0 1-.2 1 0 0-.8-.3-1-1-1h-90c-.7 0-1 .2-1 1 0-.2.3 0 1 0z"/><rect fill="#FFF" fill-rule="nonzero" opacity=".33" x="16" y="87" width="61" height="17" rx="2"/><rect fill="#FFF" fill-rule="nonzero" x="109" y="63" width="39" height="5" rx="2.5"/><rect fill="#FFF" fill-rule="nonzero" x="87" y="63" width="17" height="5" rx="2.5"/><rect fill="#FFF" fill-rule="nonzero" x="16" y="63" width="66" height="5" rx="2.5"/><rect fill="#FFF" fill-rule="nonzero" x="94" y="73" width="30" height="5" rx="2.5"/><rect fill="#FFF" fill-rule="nonzero" x="67" y="73" width="22" height="5" rx="2.5"/><rect fill="#FFF" fill-rule="nonzero" x="16" y="73" width="46" height="5" rx="2.5"/><path d="M21 41h105a5 5 0 1 1 0 10H21a5 5 0 0 1 0-10z" fill="#FFF" fill-rule="nonzero"/><rect fill="#858C93" fill-rule="nonzero" x="32" y="12" width="63" height="6" rx="2.5"/><path fill="#BCBBBB" fill-rule="nonzero" d="M24 20v-5h2v7H12v-7h2v5z"/><path d="M15 19v-2h8v2h-8zm7.09-14.28l4.5 6.06-1.2.9-4.51-6.06 1.21-.9zM18.34 8.3l.97-1.16 5.8 4.83-.96 1.16-5.8-4.83zm-1.9 3.36l.64-1.37 6.85 3.19-.63 1.37-6.85-3.2zm-1.04 3.73l.38-1.67 7.42 1.48-.22 1.46-7.58-1.27z" fill="#F48024"/></g></svg>