<svg fill="none" height="501" viewBox="0 0 966 501" width="966" xmlns="http://www.w3.org/2000/svg" xmlns:xlink="http://www.w3.org/1999/xlink"><clipPath id="a"><path d="m484.449 87.0293h343.512v303.46h-343.512z"/></clipPath><path d="m0 0h415v500h-415z" fill="#201c1d"/><path d="m207.384 450.955-158.8159-64.163v-58.868l158.8159 64.163z" fill="#9d9cff"/><path d="m62.1681 349.35 18.3734 7.423v4.03l-14.1363-5.712v9.223l12.5955 5.089v4.03l-12.5955-5.089v11.798l-4.2371-1.712zm20.5542 6.227 4.6607 1.883v5.11l-4.6607-1.883zm.2311 7.987 4.16 1.68v23.265l-4.16-1.681zm6.3862 2.58 4.8149 1.945 4.3911 9.252 4.4294-5.688 4.815 1.945-6.818 8.795 6.934 14.516-4.815-1.945-4.5454-9.48-4.5067 5.823-4.8148-1.946 6.9333-8.914zm27.7474 3.317 4.66 1.883v5.11l-4.66-1.883zm.231 7.987 4.16 1.68v23.265l-4.16-1.681zm6.572 2.655 3.236 1.307v-5.816l4.16 1.681v5.816l3.967 1.603v3.822l-3.967-1.603v13.128c0 1.703.77 2.804 2.272 3.411l2.311.933v3.822l-2.349-.949c-4.276-1.727-6.394-4.951-6.394-8.898v-13.128l-3.236-1.307zm13.344 23.546 4.661 1.883v5.11l-4.661-1.883z" fill="#201c1d"/><path d="m207.384 450.955 158.804-64.163v-58.868l-158.804 64.163z" fill="#998b7a"/><path d="m48.5681 327.925 158.8159 64.163 158.805-64.163-158.805-64.163z" fill="#ff5e00"/><path d="m207.384 343.373-158.8161-64.163v-58.868l158.8161 64.163z" fill="#9d9cff"/><path d="m62.1681 241.768 8.2045 3.314c5.8548 2.366 10.5926 6.108 10.5926 12.589 0 2.202-1.0786 4.259-3.2356 4.509 2.6578 2.029 4.6222 5.191 4.6222 8.473 0 6.48-4.7377 6.436-10.5926 4.07l-9.5911-3.875zm8.2045 7.303-3.9674-1.603v8.433l4.0444 1.634c3.8133 1.541 6.0859 1.587 6.0859-1.737 0-3.282-2.08-5.078-6.1629-6.727zm1.4637 13.013-5.4311-2.195v8.683l5.354 2.163c3.8519 1.556 6.2015 1.592 6.2015-1.857 0-3.24-2.3496-5.269-6.1244-6.794zm17.1883 7.401v12.214l-4.16-1.681v-23.264l4.16 1.68v3.906c.8089-2.042 2.7733-3.45 7.2029-1.66v4.487c-4.5837-1.852-7.2029-1.207-7.2029 4.318zm18.0284 20.163c-6.663-2.693-11.0159-9.52-11.0159-16.707 0-7.228 4.3529-10.579 11.0159-7.887 5.855 2.365 10.709 9.353 9.823 17.761l-16.486-6.661c.423 4.118 2.58 7.773 6.663 9.422 3.005 1.214 4.738.17 5.431-1.794l4.392 1.775c-1.002 4.373-4.584 6.207-9.823 4.091zm0-20.523c-3.774-1.525-5.931.013-6.548 3.295l12.288 4.965c-.27-3.433-2.273-6.859-5.74-8.26zm21.094 4.451c5.894 2.381 8.937 7.724 8.937 14.246v13.294l-4.16-1.681v-3.157c-1.156 1.901-3.197 2.53-6.24 1.301-4.237-1.712-7.434-5.621-7.434-10.274 0-7.27 7.395-5.071 13.635-2.301-.231-3.458-1.579-6.163-4.738-7.439-3.312-1.339-5.046.163-5.046 2.821l-4.391-1.774c0-4.611 3.351-7.495 9.437-5.036zm-4.583 15.223c0 2.326 1.502 4.18 4.044 5.207 3.005 1.214 5.316.029 5.316-3.752v-2.077c-6.356-2.9-9.36-2.162-9.36.622zm33.264-2.97-7.126 6.385 8.012 17.237-4.738-1.914-5.855-13.001-3.004 2.733v6.689l-4.16-1.681v-31.158l4.16 1.681v17.947l7.704-6.941zm10.063-3.828 4.661 1.883v5.11l-4.661-1.883zm.231 7.987 4.16 1.681v23.264l-4.16-1.681zm6.573 2.655 3.236 1.308v-5.816l4.16 1.68v5.816l3.967 1.603v3.822l-3.967-1.603v13.128c0 1.704.77 2.804 2.272 3.411l2.311.934v3.822l-2.349-.949c-4.276-1.728-6.394-4.952-6.394-8.898v-13.128l-3.236-1.308zm13.344 23.546 4.66 1.883v5.11l-4.66-1.883z" fill="#201c1d"/><path d="m207.384 343.373 158.805-64.163v-58.868l-158.805 64.163z" fill="#998b7a"/><path d="m48.5679 220.343 158.8161 64.163 158.804-64.163-158.804-64.163z" fill="#ff5e00"/><path d="m207.384 235.791-158.8159-64.163v-58.868l158.8159 64.163z" fill="#9d9cff"/><path d="m62.1681 134.186 8.2045 3.314c5.8548 2.366 10.5926 6.108 10.5926 12.589 0 2.202-1.0786 4.258-3.2356 4.509 2.6578 2.029 4.6222 5.191 4.6222 8.473 0 6.48-4.7377 6.436-10.5926 4.07l-9.5911-3.875zm8.2045 7.303-3.9674-1.603v8.433l4.0444 1.634c3.8133 1.541 6.0859 1.587 6.0859-1.737 0-3.282-2.08-5.078-6.1629-6.727zm1.4637 13.012-5.4311-2.194v8.683l5.354 2.163c3.8519 1.556 6.2015 1.592 6.2015-1.857 0-3.24-2.3496-5.269-6.1244-6.795zm27.3187 12.035v-11.591l4.16 1.681v23.264l-4.16-1.68v-3.864c-.9245 1.953-3.0045 3.315-7.126 1.649-4.16-1.68-7.2415-5.418-7.2415-12.522v-14.332l4.1215 1.665v13.792c0 3.781.8859 6.59 4.1985 7.928 3.0815 1.245 6.0475-.465 6.0475-5.99zm7.21-16.571 4.66 1.883v5.11l-4.66-1.883zm.231 7.987 4.16 1.68v23.265l-4.16-1.681zm7.537-4.848 4.16 1.68v31.158l-4.16-1.681zm16.213 38.372c-5.932-2.396-9.707-8.99-9.707-16.177 0-7.228 3.775-10.813 9.707-8.416 3.313 1.338 5.585 3.835 6.933 7.038v-11.466l4.16 1.681v31.158l-4.16-1.681v-3.531c-1.271 2.02-3.505 2.779-6.933 1.394zm.578-3.837c4.237 1.711 6.355-.922 6.355-5.617 0-4.736-2.118-9.123-6.355-10.835-3.737-1.509-6.009.896-6.009 5.84 0 4.902 2.272 9.102 6.009 10.612zm20.771-19.36 4.66 1.883v5.11l-4.66-1.883zm.231 7.987 4.16 1.681v23.264l-4.16-1.68zm6.572 2.656 3.236 1.307v-5.816l4.16 1.68v5.817l3.967 1.602v3.823l-3.967-1.603v13.127c0 1.704.77 2.804 2.272 3.411l2.311.934v3.822l-2.349-.949c-4.276-1.728-6.394-4.952-6.394-8.898v-13.128l-3.236-1.307zm13.344 23.545 4.661 1.883v5.11l-4.661-1.883z" fill="#201c1d"/><path d="m207.384 235.791 158.804-64.163v-58.868l-158.804 64.163z" fill="#998b7a"/><path d="m48.5681 112.761 158.8159 64.163 158.805-64.163-158.805-64.1633z" fill="#ff5e00"/><path d="m425 0h541v500h-541z" fill="#c6d1e1"/><g clip-path="url(#a)"><path d="m693.633 207.133c20.459 23.692 40.654 47.681 61.303 71.236.271.31.201.49.1.838-.131.452-4.67 6.63-5.413 7.707-3.711 5.374-7.632 10.624-11.534 15.86l-16.465-18.742c-.441-.111-.888 2.176-1.008 2.591-.717 2.471-1.127 5.019-1.752 7.5-1.536 6.099-3.044 12.234-4.958 18.23l-55.598-1.409v26.193l-127.36 53.347v-27.394l124.472-52.271.124-.357-61.156-1.681 7.449-28.596 118.469 3.124.479-.357-61.275-70.772 17.542-24.031c5.473 6.369 11.093 12.63 16.581 18.984z" fill="#9d9cff"/><path d="m594.389 308.782 61.156 1.681-.124.356-124.471 52.272-46.379-21.868 93.718-39.65c5.301 2.43 10.792 4.702 16.1 7.209z" fill="#6e1527"/><path d="m530.95 363.091v27.394l-46.499-21.867.121-27.395z" fill="#ff5e00"/><path d="m671.766 261.202h2.413l46.128 22.108-118.469-3.124-46.138-21.868c1.026-.444 3.033-.263 4.215-.249 37.272.446 74.565 2.876 111.851 3.133z" fill="#6e1527"/><path d="m555.698 258.322 46.138 21.868-7.449 28.596c-5.309-2.507-10.799-4.779-16.1-7.21-10.213-4.681-20.189-9.958-30.499-14.444l7.428-28.642c.083-.281.378-.123.482-.168z" fill="#ff5e00"/><path d="m738.088 302.778-19.225-8.651c.625-2.481 1.035-5.029 1.752-7.5.12-.415.567-2.702 1.008-2.59z" fill="#f39fff"/><path d="m659.507 212.18 61.275 70.773-.478.357-45.484-21.681-3.057-.427 2.401-.119-61.035-70.53z" fill="#f39fff"/><path d="m677.049 188.151-17.542 24.031-46.378-21.628 17.417-24.294z" fill="#ff5e00"/><path d="m718.14 163.154 43.495 129.042-12.015-5.287c.743-1.076 5.281-7.254 5.413-7.706.101-.349.17-.529-.101-.839-20.648-23.554-40.843-47.543-61.303-71.235l-21.867-65.843z" fill="#f39fff"/><path d="m725.589 138.647c4.416 2.166 8.794 4.561 13.217 6.728l-20.666 17.783-46.378-21.868 20.804-18.019c10.965 5.188 22.137 10.035 33.023 15.376z" fill="#ff5e00"/><path d="m791.437 121.351c.514.705.825 5.804.958 7.092 4.843 46.937 7.612 94.121 12.493 141.058l-.114 2.039c-.269.586-2.04 1.05-2.603 1.43-.227.153-.139.478-.161.492-5.741 3.704-12.769 6.664-18.743 10.093l-.963-9.13c-2.003 1.398-3.953 3.05-5.766 4.682-.478.43-.872 1.245-.961 1.324-4.528 4.033-9.27 7.9-13.937 11.774l-43.495-129.042 20.666-17.782 43.251 127.359-12.252-139.374z" fill="#9d9cff"/><path d="m769.808 133.365 12.253 139.374-43.252-127.359c-4.423-2.167-8.8-4.562-13.216-6.729l-2.163-27.154z" fill="#f39fff"/><path d="m759.235 105.731c.771.368 1.835 1.189 2.798 1.648 9.796 4.665 19.722 9.074 29.402 13.972l-21.627 12.015-46.378-21.868 21.783-12.2026c4.695 2.0846 9.388 4.2236 14.022 6.4356z" fill="#ff5e00"/><path d="m806.094 274.903-.24-156.677 22.108-9.132v156.317c-.042.552-.512.596-.872.811-2.214 1.323-18.838 8.328-20.996 8.681z" fill="#9d9cff"/><path d="m805.856 118.227.24 156.677c-1.551.253-2.543-1.132-4.085-1.442.022-.014-.066-.339.16-.492.563-.38 2.335-.844 2.604-1.43l.113-2.039c-4.88-46.937-7.649-94.121-12.493-141.058-.133-1.288-.444-6.387-.957-7.092-9.681-4.898-19.607-9.307-29.403-13.972-.963-.459-2.027-1.28-2.798-1.648l.24-9.3716z" fill="#f39fff"/><path d="m827.962 109.095-22.108 9.132-46.379-21.8676 22.17-9.3301z" fill="#ff5e00"/><path d="m775.573 280.431c.089-.079.483-.893.961-1.323 1.813-1.632 3.764-3.284 5.766-4.683l.963 9.13-.466.147-7.224-3.27z" fill="#f39fff"/></g><path d="m548.612 162.5h25.75v114.5h31.5v16.5h-31.5v44h-18.25v-44h-84.25v-13.5zm-54.5 114.5h62v-97zm201.485 64.5c-50.75 0-74-41-74-91.75 0-50.25 23.25-91.25 74-91.25 50.5 0 73.75 41 73.75 91.25 0 50.75-23.25 91.75-73.75 91.75zm0-18c34 0 54.25-31.25 54.25-73.75 0-42-20.25-73.25-54.25-73.25-34.25 0-54.5 31.25-54.5 73.25 0 42.5 20.25 73.75 54.5 73.75zm163.806-161h25.75v114.5h31.5v16.5h-31.5v44h-18.25v-44h-84.25v-13.5zm-54.5 114.5h62v-97z" fill="#000"/><path d="m693.633 207.14c20.459 23.692 21.955 34.822 42.604 58.377.271.31.201.49.1.838-.131.452 4.956 6.412 4.213 7.489-3.711 5.374-7.632 10.624-11.535 15.86l-7.391-5.665c-.441-.111-.888 2.176-1.008 2.59-.717 2.472-1.127 5.019-1.752 7.5-1.536 6.099-3.044 12.234-4.958 18.23l-55.598-1.409v26.193l-127.36 53.347v-27.394l124.472-52.271.124-.357-61.156-1.68 7.449-28.596 118.469 3.123.479-.356-61.275-70.773 17.542-24.03c5.473 6.368 11.093 12.629 16.581 18.984z" fill="#9d9cff"/><path d="m594.389 308.786 61.156 1.681-.124.356-124.471 52.271-46.379-21.867 93.718-39.65c5.301 2.43 10.792 4.702 16.1 7.209z" fill="#6e1527"/><path d="m530.95 363.094v27.394l-46.499-21.867.121-27.394z" fill="#ff5e00"/><path d="m671.767 261.207h2.412l46.129 22.108-118.469-3.124-46.138-21.867c1.025-.444 3.032-.263 4.214-.249 37.272.445 74.565 2.875 111.852 3.132z" fill="#6e1527"/><path d="m555.698 258.328 46.138 21.867-7.449 28.596c-5.309-2.507-10.799-4.779-16.1-7.209-10.213-4.682-20.188-9.959-30.499-14.445l7.428-28.642c.083-.281.378-.122.483-.168z" fill="#ff5e00"/><path d="m659.507 212.186 61.274 70.772-.478.357-45.484-21.681-3.057-.427 2.402-.118-61.036-70.53z" fill="#f39fff"/><path d="m677.049 188.157-17.542 24.03-46.379-21.627 17.417-24.295z" fill="#ff5e00"/><path d="m875.026 347.5v50.84" stroke="#000" stroke-width=".5"/><path d="m833.708 413.781h1.95l3.003 9.1h-1.495l-.676-2.106h-3.588l-.637 2.106h-1.495zm-.416 5.746h2.808l-1.417-4.498zm5.642-3.926h1.092v-1.82h1.404v1.82h1.339v1.196h-1.339v4.108c0 .533.26.78.767.78h.78v1.196h-.793c-1.443 0-2.158-.741-2.158-1.976v-4.108h-1.092zm8.615-2.47h1.404v9.75h-1.404zm6.517 9.958c-2.249 0-3.718-1.586-3.718-3.835 0-2.262 1.469-3.861 3.718-3.861 1.976 0 3.614 1.573 3.315 4.316h-5.564c.143 1.235.871 2.106 2.249 2.106 1.014 0 1.599-.546 1.833-1.248h1.482c-.338 1.495-1.547 2.522-3.315 2.522zm0-6.422c-1.274 0-2.002.754-2.21 1.859h4.147c-.091-1.04-.767-1.859-1.937-1.859zm7.773-1.274c1.989 0 3.016 1.287 3.016 3.328v4.16h-1.404v-.988c-.39.741-1.079 1.196-2.106 1.196-1.43 0-2.509-.819-2.509-2.275 0-2.275 2.496-2.522 4.602-2.444-.078-1.053-.533-1.729-1.599-1.729-1.118 0-1.703.689-1.703 1.521h-1.482c0-1.443 1.131-2.769 3.185-2.769zm-1.547 5.343c0 .728.507 1.118 1.365 1.118 1.014 0 1.794-.663 1.794-1.846v-.65c-2.145-.104-3.159.507-3.159 1.378zm7.291-.156c.078.884.845 1.313 1.781 1.313.91 0 1.534-.338 1.534-1.079 0-1.534-4.602-.234-4.602-3.146 0-1.17 1.183-2.275 2.964-2.275 1.573 0 2.912 1.014 2.912 2.496h-1.339c-.065-.884-.754-1.3-1.625-1.3-1.001 0-1.521.455-1.521 1.079 0 1.677 4.602.273 4.602 3.146 0 1.378-1.157 2.275-2.99 2.275-1.716 0-3.042-1.079-3.094-2.509zm5.666-4.979h1.092v-1.82h1.404v1.82h1.339v1.196h-1.339v4.108c0 .533.26.78.767.78h.78v1.196h-.793c-1.443 0-2.158-.741-2.158-1.976v-4.108h-1.092zm8.252 6.032h2.184v-6.604h-2.184v-1.248h3.614v7.852h2.184v1.248h-5.798zm10.731 1.456c-2.639 0-3.848-2.132-3.848-4.771 0-2.613 1.209-4.745 3.848-4.745 2.626 0 3.835 2.132 3.835 4.745 0 2.639-1.209 4.771-3.835 4.771zm0-1.326c1.573 0 2.34-1.56 2.34-3.445 0-1.859-.767-3.419-2.34-3.419-1.586 0-2.366 1.56-2.366 3.419 0 1.885.78 3.445 2.366 3.445zm8.861 1.326c-2.639 0-3.848-2.132-3.848-4.771 0-2.613 1.209-4.745 3.848-4.745 2.626 0 3.835 2.132 3.835 4.745 0 2.639-1.209 4.771-3.835 4.771zm0-1.326c1.573 0 2.34-1.56 2.34-3.445 0-1.859-.767-3.419-2.34-3.419-1.586 0-2.366 1.56-2.366 3.419 0 1.885.78 3.445 2.366 3.445zm5.274 3.718v-9.88h1.404v1.118c.455-.832 1.222-1.326 2.34-1.326 2.002 0 3.276 1.599 3.276 3.861 0 2.249-1.274 3.835-3.276 3.835-1.157 0-1.911-.52-2.34-1.313v3.705zm3.549-3.666c1.261 0 2.028-1.027 2.028-2.561 0-1.547-.767-2.587-2.028-2.587-1.443 0-2.145 1.105-2.145 2.587 0 1.469.702 2.561 2.145 2.561zm4.326-6.214h1.092v-1.82h1.404v1.82h1.339v1.196h-1.339v4.108c0 .533.26.78.767.78h.78v1.196h-.793c-1.443 0-2.158-.741-2.158-1.976v-4.108h-1.092z" fill="#201c1d"/></svg>