<svg aria-hidden="true" class="svg-icon iconEdx" width="18" height="18" viewBox="0 0 18 18"><g><path d="M18 6.3V5.03h-3.3V6.3h.76l-1.34 1.58L12.8 6.3h.75V5.03H11.1v1.42l2.12 2.51-2.12 2.52v.25h1.01v1.3h1.44v-1.3h-.83l1.42-1.68 1.42 1.68h-.84v1.3H18v-1.3h-.62l-2.34-2.77L17.3 6.3h.7z" fill="#00A0E3"/><path d="M11.09 11.73v-.25l-.22.25h-.63v1.3h1.86v-1.3zm0-5.28V5.03h-.85V6.3h.72z" fill="#016AA3"/><path d="M5.56 12.03c.24-.26.44-.56.57-.9H4.97c.14.34.34.64.6.9zm.55-1.6a1.73 1.73 0 0 1 .15-1.35c-.14-.47-.38-.9-.7-1.25-.33.36-.59.78-.73 1.25.06.1.1.2.14.32h-.21a3.03 3.03 0 0 0 0 1.03H6.1z" fill="#77202D"/><g fill="#8A8C8F"><path d="M10.96 6.3h-.72V5.03H8.88V6.3h.88v1.09a3.27 3.27 0 0 0-4.2.45c.33.35.57.77.7 1.24a1.9 1.9 0 0 1 1.66-.96 1.8 1.8 0 1 1 0 3.62 1.9 1.9 0 0 1-1.8-1.3H4.75a3 3 0 0 0 .2.7h1.17c-.14.33-.33.63-.57.89a3.28 3.28 0 0 0 4.2.44v.56h.48v-1.3h.63l.22-.25V6.45l-.13-.15z"/><path d="M4.94 9.08l-.18.48h.5a2.35 2.35 0 0 0-.32-.48z"/></g><path d="M6.47 9.4l-.1-.32c-.09.1-.15.21-.2.32a1.23 1.23 0 0 0-.02 1.03h.33a2.11 2.11 0 0 0 0-1.03zM3.2 8.12c.73 0 1.33.39 1.64.96.14-.47.39-.9.72-1.24a3.16 3.16 0 0 0-2.34-1.01A3.2 3.2 0 0 0 0 9.93a3.19 3.19 0 0 0 3.22 3.1c.95 0 1.77-.39 2.34-1a3.1 3.1 0 0 1-.6-.9H4.6a1.8 1.8 0 0 1-1.38.61c-.86 0-1.58-.55-1.8-1.3h3.35a3 3 0 0 1 0-1.04H1.41c.24-.74.95-1.28 1.8-1.28z" fill="#B72667"/></g></svg>