<svg aria-hidden="true" class="svg-icon iconSlack" width="18" height="18" viewBox="0 0 18 18"><path d="M6.8 1.67c5.5-1.65 7.88-.37 9.53 5.13 1.65 5.5.37 7.87-5.13 9.52-5.5 1.65-7.88.37-9.53-5.13C.02 5.7 1.3 3.32 6.8 1.67zm5.73 9.04l1.03-.34a.83.83 0 0 0-.52-1.57L12 9.14l-.69-2.06 1.04-.34a.83.83 0 0 0-.53-1.58l-1.04.35-.35-1.08a.83.83 0 0 0-1.58.53l.36 1.07-2.14.72-.36-1.08a.83.83 0 0 0-1.57.53l.36 1.07-1.04.35a.83.83 0 0 0-.52 1.05.85.85 0 0 0 1.05.52l1.03-.34.7 2.06-1.04.34a.83.83 0 0 0-.53 1.05.85.85 0 0 0 1.05.52l1.04-.34.36 1.07a.85.85 0 0 0 1.05.53.83.83 0 0 0 .52-1.05l-.36-1.08 2.14-.71.36 1.07a.85.85 0 0 0 1.05.53.83.83 0 0 0 .52-1.05l-.35-1.08zm-2.8-3.09l.69 2.07-2.14.71-.69-2.06 2.14-.72z"/></svg>