<svg width="1030" height="540" viewBox="0 0 1030 540" fill="none" xmlns="http://www.w3.org/2000/svg">
<rect width="1030" height="540" fill="#C6D1E1"/>
<path d="M891.566 108.774L841.965 163.55C827.676 180.104 805.96 176.526 805.96 176.526L783.077 171.962L849.117 117.21L891.566 108.774Z" fill="#6E1527"/>
<path d="M704.745 418.113L896.727 353.43L868.652 270.297L676.67 334.98L704.745 418.113Z" fill="#F39FFF"/>
<mask id="mask0_9_91" style="mask-type:luminance" maskUnits="userSpaceOnUse" x="676" y="270" width="221" height="149">
<path d="M704.746 418.111L896.728 353.428L868.654 270.295L676.672 334.978L704.746 418.111Z" fill="white"/>
</mask>
<g mask="url(#mask0_9_91)">
<path d="M719.72 264.499C724.873 263.806 729.618 267.419 730.312 272.566L737.844 328.514L728.51 329.77L729.768 339.093L669.091 347.249L654.134 359.18L653.584 359.567C650.755 361.244 646.982 359.533 646.527 356.138L636.961 285.115C636.268 279.968 639.884 275.228 645.038 274.535L719.72 264.499Z" fill="#FF5E00"/>
</g>
<path d="M813.495 381.472L896.725 353.43L868.65 270.297L785.42 298.339L813.495 381.472Z" fill="#FF5E00"/>
<mask id="mask1_9_91" style="mask-type:luminance" maskUnits="userSpaceOnUse" x="785" y="270" width="112" height="112">
<path d="M813.497 381.473L896.726 353.431L868.652 270.299L785.422 298.34L813.497 381.473Z" fill="white"/>
</mask>
<g mask="url(#mask1_9_91)">
<path d="M842.583 273.124L900.384 291.9L884.075 261.085L842.583 273.124Z" fill="#6E1527"/>
</g>
<path d="M614.666 418.105C613.558 418.024 612.443 417.962 611.307 417.962C587.016 417.962 567.321 437.635 567.321 461.898C567.321 486.161 587.016 505.833 611.307 505.833H934.912V418.098H614.666V418.105Z" fill="#6E1527"/>
<path d="M931.429 505.84C955.723 505.84 975.416 486.169 975.416 461.904C975.416 437.64 955.723 417.969 931.429 417.969C907.136 417.969 887.443 437.64 887.443 461.904C887.443 486.169 907.136 505.84 931.429 505.84Z" fill="#1D1D1D"/>
<mask id="mask2_9_91" style="mask-type:luminance" maskUnits="userSpaceOnUse" x="567" y="417" width="368" height="89">
<path d="M614.665 418.106C613.557 418.025 612.442 417.963 611.307 417.963C587.015 417.963 567.32 437.636 567.32 461.899C567.32 486.161 587.015 505.834 611.307 505.834H934.911V418.099H614.665V418.106Z" fill="white"/>
</mask>
<g mask="url(#mask2_9_91)">
<path d="M807.384 418.274C807.384 418.274 793.291 432.072 800.803 446.244H932.806L944.492 404.557L807.377 418.267" fill="#1D1D1D"/>
</g>
<path d="M852.698 77.0742L806.087 89.046C799.574 90.7776 793.843 94.6551 789.818 100.054L770.001 132.18L749.19 140.532L750.135 149.469L732.901 152.104C732.602 153.326 732.507 154.603 732.643 155.906C733.329 162.371 739.128 167.057 745.601 166.371L788.119 161.882L857.396 99.0214L852.698 77.0674V77.0742Z" fill="#FF5E00"/>
<mask id="mask3_9_91" style="mask-type:luminance" maskUnits="userSpaceOnUse" x="732" y="77" width="126" height="90">
<path d="M852.698 77.0761L806.087 89.048C799.574 90.7796 793.843 94.657 789.818 100.056L770 132.182L749.19 140.534L750.135 149.471L732.901 152.106C732.602 153.328 732.506 154.605 732.642 155.908C733.329 162.373 739.128 167.059 745.6 166.373L788.118 161.884L857.395 99.0234L852.698 77.0693V77.0761Z" fill="white"/>
</mask>
<g mask="url(#mask3_9_91)">
<path d="M922.403 34.7222L885.827 61.871C879.002 66.9368 871.156 70.4612 862.835 72.1928L836.749 77.632C830.528 78.929 825.035 82.5484 821.384 87.7433L786.412 137.573L756.444 149.653L747.715 153.171C744.193 154.59 741.746 157.687 741.066 161.272C740.869 162.304 740.815 163.37 740.93 164.45C741.576 170.555 746.743 175.179 752.882 175.152L795.298 170.093C800.54 169.468 805.448 167.221 809.344 163.662L847.939 128.392L874.569 126.348L879.749 140.683C881.558 145.688 880.361 151.276 876.67 155.113L851.236 181.501C846.79 186.112 846.09 193.174 849.544 198.566C853.276 204.399 860.747 206.579 867.036 203.679L922.546 178.072C930.473 174.419 937.217 168.619 942.01 161.333L973.984 112.78L922.403 34.7222Z" fill="#6E1527"/>
</g>
<path d="M749.19 140.539L739.577 144.396C736.164 145.768 733.737 148.681 732.901 152.104L750.135 149.469L749.19 140.532V140.539Z" fill="#FF5E00"/>
<path d="M732.901 152.103L750.135 149.468L749.19 140.532" stroke="#6E1527" stroke-width="0.865841" stroke-miterlimit="10"/>
<path d="M936.899 192.388L655.702 150.262L642.674 237.026L923.87 279.152L936.899 192.388Z" fill="#EEEEEE"/>
<mask id="mask4_9_91" style="mask-type:luminance" maskUnits="userSpaceOnUse" x="642" y="150" width="295" height="130">
<path d="M936.9 192.388L655.703 150.261L642.675 237.026L923.871 279.152L936.9 192.388Z" fill="white"/>
</mask>
<g mask="url(#mask4_9_91)">
<path d="M942.644 60.0483L905.218 82.5184C898.236 86.7082 890.425 89.3362 882.328 90.2122L856.942 92.9624C850.884 93.6211 845.31 96.5546 841.339 101.165L803.315 145.413L773.606 154.132L764.951 156.672C761.463 157.697 758.839 160.42 757.853 163.775C757.568 164.739 757.418 165.751 757.425 166.79C757.473 172.671 761.96 177.56 767.82 178.11L808.74 177.254C813.798 177.146 818.693 175.462 822.739 172.433L862.85 142.405L888.433 142.941L892.029 157.1C893.287 162.036 891.621 167.258 887.739 170.572L861.014 193.362C856.344 197.348 855.011 204.009 857.805 209.476C860.817 215.384 867.738 218.161 874.006 215.988L929.339 196.757C937.239 194.013 944.215 189.111 949.47 182.612L998.528 129.048L942.624 60.0415L942.644 60.0483Z" fill="#F39FFF"/>
</g>
<path d="M742.569 163.271L655.704 150.258L642.675 237.022L729.541 250.035L742.569 163.271Z" fill="#F39FFF"/>
<path d="M938.346 34.1621L901.77 61.311C894.944 66.3768 887.098 69.9011 878.777 71.6327L852.691 77.072C846.47 78.369 840.977 81.9884 837.326 87.1832L802.355 137.013L772.387 149.093L763.657 152.611C760.136 154.03 757.688 157.126 757.009 160.712C756.811 161.744 756.757 162.81 756.873 163.89C757.518 169.995 762.685 174.619 768.824 174.592L811.24 169.533C816.482 168.908 821.391 166.66 825.286 163.102L863.881 127.832L890.511 125.788L895.692 140.123C897.5 145.127 896.304 150.716 892.612 154.553L867.179 180.941C862.732 185.552 862.032 192.614 865.486 198.006C869.218 203.839 876.69 206.019 882.978 203.119L938.488 177.512C946.416 173.859 953.16 168.059 957.953 160.773L1003.43 100.146L938.346 34.1621Z" fill="#FF5E00"/>
<path d="M873.42 188.017C871.156 190.367 870.803 193.959 872.557 196.702C874.46 199.67 878.261 200.783 881.463 199.303L891.28 194.774C892.626 194.156 893.013 192.431 892.068 191.29L883.57 181.077C882.714 180.045 881.143 179.991 880.212 180.955L873.413 188.01L873.42 188.017Z" stroke="#6E1527" stroke-width="0.865841" stroke-miterlimit="10"/>
<path d="M757.016 160.719L773.352 158.227L772.387 149.1" stroke="#6E1527" stroke-width="0.865841" stroke-miterlimit="10"/>
<path d="M695.187 183.062L695.181 183.061C685.734 181.646 676.928 188.148 675.511 197.583L675.51 197.59C674.093 207.025 680.602 215.821 690.049 217.237L690.055 217.238C699.502 218.653 708.308 212.151 709.725 202.716L709.726 202.709C711.143 193.274 704.634 184.478 695.187 183.062Z" fill="#4D1955"/>
<path d="M835.585 321.188L830.439 322.92L832.172 328.06L837.319 326.329L835.585 321.188Z" fill="#6E1527"/>
<path d="M851.018 315.986L845.872 317.718L847.605 322.858L852.752 321.127L851.018 315.986Z" fill="#6E1527"/>
<path d="M826.414 350.035L823.219 340.568C823.028 339.998 822.41 339.699 821.846 339.889L819.276 340.759L815.081 328.339L817.651 327.469C818.222 327.279 818.528 326.661 818.337 326.098L815.142 316.632C813.708 312.374 815.992 307.756 820.255 306.323L829.514 303.207L831.248 308.347L821.988 311.464C820.567 311.939 819.806 313.481 820.282 314.9L823.477 324.366C824.32 326.851 823.559 329.486 821.764 331.177L822.872 334.45C825.326 334.708 827.529 336.352 828.365 338.837L831.561 348.303C832.037 349.722 833.58 350.483 835.001 350.007L844.26 346.891L845.994 352.031L836.734 355.148C832.472 356.581 827.849 354.299 826.414 350.041V350.035Z" fill="#6E1527"/>
<path d="M870.659 335.129L867.463 325.663C867.273 325.093 867.579 324.481 868.15 324.291L870.72 323.422L866.525 311.002L863.955 311.871C863.384 312.061 862.772 311.756 862.582 311.192L859.387 301.726C857.952 297.468 853.329 295.18 849.066 296.62L839.807 299.736L841.541 304.877L850.8 301.76C852.221 301.285 853.764 302.045 854.24 303.464L857.435 312.931C858.279 315.416 860.474 317.052 862.929 317.317L864.037 320.59C862.242 322.281 861.487 324.916 862.324 327.408L865.519 336.874C865.995 338.293 865.233 339.835 863.812 340.31L854.553 343.427L856.287 348.568L865.546 345.451C869.809 344.018 872.1 339.4 870.659 335.143V335.129Z" fill="#6E1527"/>
<path d="M752.963 308.021C768.046 308.021 780.273 295.808 780.273 280.743C780.273 265.678 768.046 253.465 752.963 253.465C737.88 253.465 725.653 265.678 725.653 280.743C725.653 295.808 737.88 308.021 752.963 308.021Z" fill="#390A91"/>
<mask id="mask5_9_91" style="mask-type:luminance" maskUnits="userSpaceOnUse" x="725" y="253" width="56" height="56">
<path d="M752.961 308.02C768.044 308.02 780.271 295.808 780.271 280.742C780.271 265.677 768.044 253.465 752.961 253.465C737.879 253.465 725.652 265.677 725.652 280.742C725.652 295.808 737.879 308.02 752.961 308.02Z" fill="white"/>
</mask>
<g mask="url(#mask5_9_91)">
<path d="M737.476 317.337C752.559 317.337 764.786 305.124 764.786 290.059C764.786 274.994 752.559 262.781 737.476 262.781C722.393 262.781 710.166 274.994 710.166 290.059C710.166 305.124 722.393 317.337 737.476 317.337Z" fill="#9D9CFF"/>
</g>
<path d="M631.547 95.9928L620.364 102.822L642.995 139.797L654.179 132.968L631.547 95.9928Z" fill="#FFCC00"/>
<path d="M685.305 95.0785L672.562 92.0088L662.39 134.138L675.132 137.208L685.305 95.0785Z" fill="#FFCC00"/>
<path d="M598.944 137.906L595.871 150.633L638.05 160.794L641.123 148.067L598.944 137.906Z" fill="#FFCC00"/>
<path d="M993.368 342.523L986.531 331.353L949.512 353.958L956.349 365.128L993.368 342.523Z" fill="#9D9CFF"/>
<path d="M994.291 396.216L997.364 383.489L955.186 373.328L952.112 386.055L994.291 396.216Z" fill="#9D9CFF"/>
<path d="M951.422 309.966L938.68 306.896L928.507 349.026L941.249 352.096L951.422 309.966Z" fill="#9D9CFF"/>
<path d="M702.641 246.81C707.57 245.153 712.913 247.802 714.572 252.732L732.581 306.242L723.655 309.243L726.66 318.159L668.628 337.648L656.207 352.194L655.738 352.676C653.283 354.862 649.252 353.891 648.157 350.639L625.294 282.712C623.635 277.789 626.286 272.452 631.222 270.795L702.648 246.81H702.641Z" fill="#FFCC00"/>
<mask id="mask6_9_91" style="mask-type:luminance" maskUnits="userSpaceOnUse" x="624" y="246" width="109" height="108">
<path d="M702.64 246.809C707.569 245.152 712.912 247.801 714.571 252.731L732.58 306.241L723.654 309.242L726.659 318.158L668.627 337.647L656.206 352.193L655.737 352.675C653.282 354.861 649.251 353.89 648.156 350.638L625.293 282.711C623.634 277.788 626.285 272.451 631.221 270.794L702.646 246.809H702.64Z" fill="white"/>
</mask>
<g mask="url(#mask6_9_91)">
<path d="M680.062 249.933L730.595 261.09L728.733 239.836L680.062 249.933Z" fill="#423101"/>
</g>
<path d="M682.864 282.835C681.755 279.535 678.533 278.088 674.916 279.297C670.81 280.676 669.049 284.594 670.429 288.845L662.72 290.59C660.15 282.516 664.195 274.612 672.904 271.685C680.267 269.213 687.827 271.44 690.526 279.467C693.979 289.721 683.489 294.583 685.413 300.294L678.05 302.765C674.495 292.199 685.046 289.3 682.87 282.835H682.864Z" fill="#423101"/>
<path d="M687.902 306.358L678.975 309.359L681.98 318.275L690.907 315.274L687.902 306.358Z" fill="#423101"/>
<path d="M861.169 365.428L808.195 417.987L883.21 418.626L876.567 402.593L925.592 382.717L916.835 361.571L867.811 381.454L861.169 365.428Z" fill="#FFCC00"/>
</svg>
