<svg width="1030" height="540" viewBox="0 0 1030 540" fill="none" xmlns="http://www.w3.org/2000/svg">
<g clip-path="url(#clip0_161_180)">
<rect width="1030" height="540" fill="#C6D1E1"/>
<path d="M991.748 -1.49609L1032.56 22.067L991.748 45.63L950.935 22.067L991.748 -1.49609Z" fill="#FFCC00"/>
<path d="M828.496 -1.49609L869.308 22.067L828.496 45.63L787.683 22.067L828.496 -1.49609Z" fill="#FFCC00"/>
<path d="M991.75 -1.49652L1032.56 -25.0596V22.0665L991.75 45.6296V-1.49652Z" fill="#FFCC00"/>
<path d="M950.935 -25.0596L991.748 -1.49652V45.6296L950.935 22.0665V-25.0596Z" fill="#5074EF"/>
<path d="M828.499 -1.49652L869.311 -25.0596V22.0665L828.499 45.6296V-1.49652Z" fill="#FFCC00"/>
<path d="M787.683 -25.0596L828.496 -1.49652V45.6296L787.683 22.0665V-25.0596Z" fill="#5074EF"/>
<path d="M910.126 45.6289L950.939 69.192L910.126 92.755L869.314 69.192L910.126 45.6289Z" fill="#FFCC00"/>
<path d="M746.874 45.6289L787.687 69.192L746.874 92.755L706.062 69.192L746.874 45.6289Z" fill="#FFCC00"/>
<path d="M910.12 45.6309L950.932 22.0679V69.194L910.12 92.757V45.6309Z" fill="#FFCC00"/>
<path d="M910.126 -1.49609L950.939 22.067L910.126 45.63L869.314 22.067L910.126 -1.49609Z" fill="#FF5E00"/>
<path d="M746.868 45.6309L787.681 22.0679V69.194L746.868 92.757V45.6309Z" fill="#FFCC00"/>
<path d="M746.874 -1.49609L787.687 22.067L746.874 45.63L706.062 22.067L746.874 -1.49609Z" fill="#FF5E00"/>
<path d="M869.314 22.0679L910.126 45.6309V92.757L869.314 69.194V22.0679Z" fill="#5074EF"/>
<path d="M706.062 22.0679L746.874 45.6309V92.757L706.062 69.194V22.0679Z" fill="#5074EF"/>
<path d="M991.748 92.7563L1032.56 116.319L991.748 139.882L950.935 116.319L991.748 92.7563Z" fill="#FFCC00"/>
<path d="M828.496 92.7563L869.308 116.319L828.496 139.882L787.683 116.319L828.496 92.7563Z" fill="#FFCC00"/>
<path d="M665.244 92.7563L706.056 116.319L665.244 139.882L624.432 116.319L665.244 92.7563Z" fill="#FFCC00"/>
<path d="M665.247 45.6289L706.059 69.192V116.318L665.247 92.755V45.6289Z" fill="#FF5E00"/>
<path d="M991.75 92.7554L1032.56 69.1924V116.318L991.75 139.882V92.7554Z" fill="#FFCC00"/>
<path d="M950.935 69.1924L991.748 92.7554V139.882L950.935 116.318V69.1924Z" fill="#5074EF"/>
<path d="M828.499 92.7554L869.311 69.1924V116.318L828.499 139.882V92.7554Z" fill="#FFCC00"/>
<path d="M787.683 69.1924L828.496 92.7554V139.882L787.683 116.318V69.1924Z" fill="#5074EF"/>
<path d="M624.432 69.1924L665.244 92.7554V139.882L624.432 116.318V69.1924Z" fill="#5074EF"/>
<path d="M991.748 45.6289L1032.56 69.192L991.748 92.755L950.935 69.192L991.748 45.6289Z" fill="#FF5E00"/>
<path d="M828.496 45.6289L869.308 69.192L828.496 92.755L787.683 69.192L828.496 45.6289Z" fill="#FF5E00"/>
<path d="M665.247 92.7554L706.059 69.1924V116.318L665.247 139.882V92.7554Z" fill="#FFCC00"/>
<path d="M665.244 45.6289L706.056 69.192L665.244 92.755L624.432 69.192L665.244 45.6289Z" fill="#FF5E00"/>
<path d="M746.868 92.7563L787.681 116.319V163.446L746.868 139.882V92.7563Z" fill="#FF5E00"/>
<path d="M583.622 139.881L624.435 163.444L583.622 187.007L542.81 163.444L583.622 139.881Z" fill="#FFCC00"/>
<path d="M583.625 92.7563L624.438 116.319V163.446L583.625 139.882V92.7563Z" fill="#FF5E00"/>
<path d="M910.126 92.7563L950.939 116.319L910.126 139.882L869.314 116.319L910.126 92.7563Z" fill="#FF5E00"/>
<path d="M746.874 92.7563L787.687 116.319L746.874 139.882L706.062 116.319L746.874 92.7563Z" fill="#FF5E00"/>
<path d="M910.12 139.883L950.932 116.32V163.446L910.12 187.009V139.883Z" fill="#FFCC00"/>
<path d="M869.314 116.32L910.126 139.883V187.009L869.314 163.446V116.32Z" fill="#5074EF"/>
<path d="M746.868 139.883L787.681 116.32V163.446L746.868 187.009V139.883Z" fill="#FFCC00"/>
<path d="M706.062 116.32L746.874 139.883V187.009L706.062 163.446V116.32Z" fill="#5074EF"/>
<path d="M583.625 139.883L624.438 116.32V163.446L583.625 187.009V139.883Z" fill="#FFCC00"/>
<path d="M583.622 92.7563L624.435 116.319L583.622 139.882L542.81 116.319L583.622 92.7563Z" fill="#FF5E00"/>
<path d="M542.81 116.32L583.622 139.883V187.009L542.81 163.446V116.32Z" fill="#5074EF"/>
<path d="M665.247 139.881L706.059 163.444V210.57L665.247 187.007V139.881Z" fill="#FF5E00"/>
<path d="M501.995 139.881L542.807 163.444V210.57L501.995 187.007V139.881Z" fill="#FF5E00"/>
<path d="M991.748 139.881L1032.56 163.444L991.748 187.007L950.935 163.444L991.748 139.881Z" fill="#FF5E00"/>
<path d="M828.496 139.881L869.308 163.444L828.496 187.007L787.683 163.444L828.496 139.881Z" fill="#FF5E00"/>
<path d="M665.244 139.881L706.056 163.444L665.244 187.007L624.432 163.444L665.244 139.881Z" fill="#FF5E00"/>
<path d="M502.001 139.881L542.813 163.444L502.001 187.007L461.189 163.444L502.001 139.881Z" fill="#FF5E00"/>
<path d="M991.75 187.008L1032.56 163.445V210.571L991.75 234.134V187.008Z" fill="#FFCC00"/>
<path d="M950.935 163.445L991.748 187.008V234.134L950.935 210.571V163.445Z" fill="#5074EF"/>
<path d="M828.499 187.008L869.311 163.445V210.571L828.499 234.134V187.008Z" fill="#FFCC00"/>
<path d="M787.683 163.445L828.496 187.008V234.134L787.683 210.571V163.445Z" fill="#5074EF"/>
<path d="M665.247 187.008L706.059 163.445V210.571L665.247 234.134V187.008Z" fill="#FFCC00"/>
<path d="M624.432 163.445L665.244 187.008V234.134L624.432 210.571V163.445Z" fill="#5074EF"/>
<path d="M501.995 187.008L542.807 163.445V210.571L501.995 234.134V187.008Z" fill="#FFCC00"/>
<path d="M461.189 163.445L502.001 187.008V234.134L461.189 210.571V163.445Z" fill="#5074EF"/>
<path d="M746.868 187.008L787.681 210.571V257.697L746.868 234.134V187.008Z" fill="#FF5E00"/>
<path d="M583.625 187.008L624.438 210.571V257.697L583.625 234.134V187.008Z" fill="#FF5E00"/>
<path d="M420.373 187.008L461.186 210.571V257.697L420.373 234.134V187.008Z" fill="#FF5E00"/>
<path d="M910.12 234.135L950.932 210.572V257.698L910.12 281.261V234.135Z" fill="#FFCC00"/>
<path d="M869.314 210.571L910.126 187.008L950.939 210.571L910.126 234.134L869.314 210.571Z" fill="#FF5E00"/>
<path d="M746.868 234.135L787.681 210.572V257.698L746.868 281.261V234.135Z" fill="#FFCC00"/>
<path d="M706.062 210.571L746.874 187.008L787.687 210.571L746.874 234.134L706.062 210.571Z" fill="#FF5E00"/>
<path d="M583.625 234.135L624.438 210.572V257.698L583.625 281.261V234.135Z" fill="#FFCC00"/>
<path d="M583.622 187.008L624.435 210.571L583.622 234.134L542.81 210.571L583.622 187.008Z" fill="#FF5E00"/>
<path d="M420.373 234.135L461.186 210.572V257.698L420.373 281.261V234.135Z" fill="#FFCC00"/>
<path d="M420.371 187.008L461.183 210.571L420.371 234.134L379.558 210.571L420.371 187.008Z" fill="#FF5E00"/>
<path d="M869.314 210.572L910.126 234.135V281.261L869.314 257.698V210.572Z" fill="#5074EF"/>
<path d="M706.062 210.572L746.874 234.135V281.261L706.062 257.698V210.572Z" fill="#5074EF"/>
<path d="M542.81 210.572L583.622 234.135V281.261L542.81 257.698V210.572Z" fill="#5074EF"/>
<path d="M379.558 210.572L420.371 234.135V281.261L379.558 257.698V210.572Z" fill="#5074EF"/>
<path d="M828.499 234.133L869.311 257.696V304.822L828.499 281.259V234.133Z" fill="#FF5E00"/>
<path d="M665.247 234.133L706.059 257.696V304.822L665.247 281.259V234.133Z" fill="#FF5E00"/>
<path d="M501.995 234.133L542.807 257.696V304.822L501.995 281.259V234.133Z" fill="#FF5E00"/>
<path d="M338.752 234.133L379.564 257.696V304.822L338.752 281.259V234.133Z" fill="#FF5E00"/>
<path d="M991.75 281.26L1032.56 257.697V304.823L991.75 328.386V281.26Z" fill="#FFCC00"/>
<path d="M991.748 234.133L1032.56 257.696L991.748 281.259L950.935 257.696L991.748 234.133Z" fill="#FF5E00"/>
<path d="M950.935 257.697L991.748 281.26V328.386L950.935 304.823V257.697Z" fill="#5074EF"/>
<path d="M828.499 281.26L869.311 257.697V304.823L828.499 328.386V281.26Z" fill="#FFCC00"/>
<path d="M828.496 234.133L869.308 257.696L828.496 281.259L787.683 257.696L828.496 234.133Z" fill="#FF5E00"/>
<path d="M787.683 257.697L828.496 281.26V328.386L787.683 304.823V257.697Z" fill="#5074EF"/>
<path d="M665.247 281.26L706.059 257.697V304.823L665.247 328.386V281.26Z" fill="#FFCC00"/>
<path d="M665.244 234.133L706.056 257.696L665.244 281.259L624.432 257.696L665.244 234.133Z" fill="#FF5E00"/>
<path d="M624.432 257.697L665.244 281.26V328.386L624.432 304.823V257.697Z" fill="#5074EF"/>
<path d="M501.995 281.26L542.807 257.697V304.823L501.995 328.386V281.26Z" fill="#FFCC00"/>
<path d="M502.001 234.133L542.813 257.696L502.001 281.259L461.189 257.696L502.001 234.133Z" fill="#FF5E00"/>
<path d="M461.189 257.697L502.001 281.26V328.386L461.189 304.823V257.697Z" fill="#5074EF"/>
<path d="M338.752 281.26L379.564 257.697V304.823L338.752 328.386V281.26Z" fill="#FFCC00"/>
<path d="M338.749 234.133L379.562 257.696L338.749 281.259L297.937 257.696L338.749 234.133Z" fill="#FF5E00"/>
<path d="M297.937 257.697L338.749 281.26V328.386L297.937 304.823V257.697Z" fill="#5074EF"/>
<path d="M746.868 281.26L787.681 304.823V351.949L746.868 328.386V281.26Z" fill="#FF5E00"/>
<path d="M583.625 281.26L624.438 304.823V351.949L583.625 328.386V281.26Z" fill="#FF5E00"/>
<path d="M420.373 281.26L461.186 304.823V351.949L420.373 328.386V281.26Z" fill="#FF5E00"/>
<path d="M910.12 328.387L950.932 304.824V351.95L910.12 375.513V328.387Z" fill="#FFCC00"/>
<path d="M910.126 281.26L950.939 304.823L910.126 328.386L869.314 304.823L910.126 281.26Z" fill="#FF5E00"/>
<path d="M869.314 304.824L910.126 328.387V375.513L869.314 351.95V304.824Z" fill="#5074EF"/>
<path d="M746.868 328.387L787.681 304.824V351.95L746.868 375.513V328.387Z" fill="#FFCC00"/>
<path d="M706.062 304.824L746.874 328.387V375.513L706.062 351.95V304.824Z" fill="#5074EF"/>
<path d="M746.874 281.26L787.687 304.823L746.874 328.386L706.062 304.823L746.874 281.26Z" fill="#FF5E00"/>
<path d="M583.622 281.26L624.435 304.823L583.622 328.386L542.81 304.823L583.622 281.26Z" fill="#FF5E00"/>
<path d="M420.371 281.26L461.183 304.823L420.371 328.386L379.558 304.823L420.371 281.26Z" fill="#FF5E00"/>
<path d="M583.625 328.387L624.438 304.824V351.95L583.625 375.513V328.387Z" fill="#FFCC00"/>
<path d="M542.81 304.824L583.622 328.387V375.513L542.81 351.95V304.824Z" fill="#5074EF"/>
<path d="M420.373 328.387L461.186 304.824V351.95L420.373 375.513V328.387Z" fill="#FFCC00"/>
<path d="M379.558 304.824L420.371 328.387V375.513L379.558 351.95V304.824Z" fill="#5074EF"/>
<path d="M828.499 328.386L869.311 351.949V399.075L828.499 375.512V328.386Z" fill="#FF5E00"/>
<path d="M665.247 328.386L706.059 351.949V399.075L665.247 375.512V328.386Z" fill="#FF5E00"/>
<path d="M501.995 328.386L542.807 351.949V399.075L501.995 375.512V328.386Z" fill="#FF5E00"/>
<path d="M991.75 375.513L1032.56 351.95V399.076L991.75 422.639V375.513Z" fill="#FFCC00"/>
<path d="M991.748 328.386L1032.56 351.949L991.748 375.512L950.935 351.949L991.748 328.386Z" fill="#FF5E00"/>
<path d="M950.935 351.95L991.748 375.513V422.639L950.935 399.076V351.95Z" fill="#5074EF"/>
<path d="M828.499 375.513L869.311 351.95V399.076L828.499 422.639V375.513Z" fill="#FFCC00"/>
<path d="M828.496 328.386L869.308 351.949L828.496 375.512L787.683 351.949L828.496 328.386Z" fill="#FF5E00"/>
<path d="M787.683 351.95L828.496 375.513V422.639L787.683 399.076V351.95Z" fill="#5074EF"/>
<path d="M665.247 375.513L706.059 351.95V399.076L665.247 422.639V375.513Z" fill="#FFCC00"/>
<path d="M665.244 328.386L706.056 351.949L665.244 375.512L624.432 351.949L665.244 328.386Z" fill="#FF5E00"/>
<path d="M624.432 351.95L665.244 375.513V422.639L624.432 399.076V351.95Z" fill="#5074EF"/>
<path d="M501.995 375.513L542.807 351.95V399.076L501.995 422.639V375.513Z" fill="#FFCC00"/>
<path d="M502.001 328.386L542.813 351.949L502.001 375.512L461.189 351.949L502.001 328.386Z" fill="#FF5E00"/>
<path d="M461.189 351.95L502.001 375.513V422.639L461.189 399.076V351.95Z" fill="#5074EF"/>
<path d="M910.12 375.512L950.932 399.075V446.201L910.12 422.638V375.512Z" fill="#FF5E00"/>
<path d="M746.868 375.512L787.681 399.075V446.201L746.868 422.638V375.512Z" fill="#FF5E00"/>
<path d="M583.625 375.512L624.438 399.075V446.201L583.625 422.638V375.512Z" fill="#FF5E00"/>
<path d="M910.12 422.639L950.932 399.076V446.202L910.12 469.765V422.639Z" fill="#FFCC00"/>
<path d="M910.126 375.512L950.939 399.075L910.126 422.638L869.314 399.075L910.126 375.512Z" fill="#FF5E00"/>
<path d="M869.314 399.076L910.126 422.639V469.765L869.314 446.202V399.076Z" fill="#5074EF"/>
<path d="M746.868 422.639L787.681 399.076V446.202L746.868 469.765V422.639Z" fill="#FFCC00"/>
<path d="M746.874 375.512L787.687 399.075L746.874 422.638L706.062 399.075L746.874 375.512Z" fill="#FF5E00"/>
<path d="M706.062 399.076L746.874 422.639V469.765L706.062 446.202V399.076Z" fill="#5074EF"/>
<path d="M583.625 422.639L624.438 399.076V446.202L583.625 469.765V422.639Z" fill="#FFCC00"/>
<path d="M583.622 375.512L624.435 399.075L583.622 422.638L542.81 399.075L583.622 375.512Z" fill="#FF5E00"/>
<path d="M542.81 399.076L583.622 422.639V469.765L542.81 446.202V399.076Z" fill="#5074EF"/>
<path d="M991.75 422.638L1032.56 446.201V493.327L991.75 469.764V422.638Z" fill="#FF5E00"/>
<path d="M828.499 422.638L869.311 446.201V493.327L828.499 469.764V422.638Z" fill="#FF5E00"/>
<path d="M665.247 422.638L706.059 446.201V493.327L665.247 469.764V422.638Z" fill="#FF5E00"/>
<path d="M991.75 469.765L1032.56 446.202V493.328L991.75 516.891V469.765Z" fill="#FFCC00"/>
<path d="M991.748 422.638L1032.56 446.201L991.748 469.764L950.935 446.201L991.748 422.638Z" fill="#FF5E00"/>
<path d="M950.935 446.202L991.748 469.765V516.891L950.935 493.328V446.202Z" fill="#5074EF"/>
<path d="M828.499 469.765L869.311 446.202V493.328L828.499 516.891V469.765Z" fill="#FFCC00"/>
<path d="M828.496 422.638L869.308 446.201L828.496 469.764L787.683 446.201L828.496 422.638Z" fill="#FF5E00"/>
<path d="M787.683 446.202L828.496 469.765V516.891L787.683 493.328V446.202Z" fill="#5074EF"/>
<path d="M665.247 469.765L706.059 446.202V493.328L665.247 516.891V469.765Z" fill="#FFCC00"/>
<path d="M624.432 446.201L665.244 422.638L706.056 446.201L665.244 469.764L624.432 446.201Z" fill="#FF5E00"/>
<path d="M624.432 446.202L665.244 469.765V516.891L624.432 493.328V446.202Z" fill="#5074EF"/>
<path d="M910.12 469.765L950.932 493.328V540.454L910.12 516.891V469.765Z" fill="#FF5E00"/>
<path d="M746.868 469.765L787.681 493.328V540.454L746.868 516.891V469.765Z" fill="#FF5E00"/>
<path d="M910.12 516.891L950.932 493.328V540.454L910.12 564.017V516.891Z" fill="#FFCC00"/>
<path d="M910.126 469.765L950.939 493.328L910.126 516.891L869.314 493.328L910.126 469.765Z" fill="#FF5E00"/>
<path d="M869.314 493.328L910.126 516.891V564.017L869.314 540.454V493.328Z" fill="#5074EF"/>
<path d="M746.868 516.891L787.681 493.328V540.454L746.868 564.017V516.891Z" fill="#FFCC00"/>
<path d="M746.874 469.765L787.687 493.328L746.874 516.891L706.062 493.328L746.874 469.765Z" fill="#FF5E00"/>
<path d="M706.062 493.328L746.874 516.891V564.017L706.062 540.454V493.328Z" fill="#5074EF"/>
<path d="M991.75 516.891L1032.56 540.454V587.58L991.75 564.017V516.891Z" fill="#FF5E00"/>
<path d="M828.499 516.891L869.311 540.454V587.58L828.499 564.017V516.891Z" fill="#FF5E00"/>
<path d="M991.748 516.891L1032.56 540.454L991.748 564.017L950.935 540.454L991.748 516.891Z" fill="#FF5E00"/>
<path d="M828.496 516.891L869.308 540.454L828.496 564.017L787.683 540.454L828.496 516.891Z" fill="#FF5E00"/>
</g>
<defs>
<clipPath id="clip0_161_180">
<rect width="1030" height="540" fill="white"/>
</clipPath>
</defs>
</svg>
