<svg width="1030" height="540" viewBox="0 0 1030 540" fill="none" xmlns="http://www.w3.org/2000/svg">
<g clip-path="url(#clip0_161_641)">
<rect width="1030" height="540" fill="#C6D1E1"/>
<path d="M659.044 462.956L946.544 628.956L659.044 794.956L371.544 628.956L659.044 462.956Z" fill="#FF5E00"/>
<path d="M659.044 375.956L946.544 541.956L659.044 707.956L371.544 541.956L659.044 375.956Z" fill="#FF5E00"/>
<path d="M659.044 288.956L946.544 454.456L659.044 619.956L371.544 454.456L659.044 288.956Z" fill="#FF5E00"/>
<path d="M659.044 200.956L946.544 366.956L659.044 532.956L371.544 366.956L659.044 200.956Z" fill="#FF5E00"/>
<path d="M371.544 507.918V453.956L659.544 619.994V673.956L371.544 507.918Z" fill="#86AF25"/>
<path d="M946.544 453.956V507.918L659.544 673.956V619.994L946.544 453.956Z" fill="#5074EF"/>
<path d="M659.044 113.956L946.544 279.956L659.044 445.956L371.544 279.956L659.044 113.956Z" fill="#FF5E00"/>
<path d="M946.544 366.956V420.918L659.544 586.956V532.994L946.544 366.956Z" fill="#5074EF"/>
<path d="M371.544 420.918V366.956L659.544 532.994V586.956L371.544 420.918Z" fill="#86AF25"/>
<path d="M659.044 26.9561L946.544 192.956L659.044 358.956L371.544 192.956L659.044 26.9561Z" fill="#FF5E00"/>
<path d="M659.044 -6.04395L946.544 159.956L659.044 325.956L371.544 159.956L659.044 -6.04395Z" fill="#5074EF"/>
<path d="M946.544 279.956V333.918L659.544 499.956V445.994L946.544 279.956Z" fill="#5074EF"/>
<path d="M371.544 333.918V279.956L659.544 445.994V499.956L371.544 333.918Z" fill="#86AF25"/>
<path d="M659.044 -60.0439L946.544 105.956L659.044 271.956L371.544 105.956L659.044 -60.0439Z" fill="#FF5E00"/>
<path d="M659.044 -93.0439L946.544 72.9561L659.044 238.956L371.544 72.9561L659.044 -93.0439Z" fill="#5074EF"/>
<path d="M946.544 192.956V246.918L659.544 412.956V358.994L946.544 192.956Z" fill="#5074EF"/>
<path d="M371.544 246.918V192.956L659.544 358.994V412.956L371.544 246.918Z" fill="#86AF25"/>
<path d="M659.044 -147.044L946.544 18.9561L659.044 184.956L371.544 18.9561L659.044 -147.044Z" fill="#FF5E00"/>
<path d="M371.544 159.918V105.956L659.544 271.994V325.956L371.544 159.918Z" fill="#86AF25"/>
<path d="M946.544 105.956V159.918L659.544 325.956V271.994L946.544 105.956Z" fill="#5074EF"/>
<path d="M946.544 18.9561V72.9183L659.544 238.956V184.994L946.544 18.9561Z" fill="#5074EF"/>
<path d="M371.544 72.9183V18.9561L659.544 184.994V238.956L371.544 72.9183Z" fill="#86AF25"/>
</g>
<defs>
<clipPath id="clip0_161_641">
<rect width="1030" height="540" fill="white"/>
</clipPath>
</defs>
</svg>
