<svg width="966" height="500" viewBox="0 0 966 500" fill="none" xmlns="http://www.w3.org/2000/svg">
<rect width="966" height="500" fill="#201C1D"/>
<rect x="800.306" y="196.218" width="97.0819" height="35.9226" fill="#EEEEEE"/>
<rect x="800.306" y="232.141" width="125.311" height="35.9226" fill="#FF5E00"/>
<rect x="800.306" y="268.064" width="70.5064" height="35.9226" fill="#9D9CFF"/>
<g clip-path="url(#clip0_137_288)">
<rect width="95.3245" height="81.4988" transform="translate(445.277 249.981)" fill="#FF5817"/>
<path d="M540.602 249.981H445.277V331.48H540.602V249.981Z" fill="#9D9CFF"/>
</g>
<path d="M557.339 318.382L428.541 317.698L442.226 249.981H541.239L557.339 318.382Z" fill="#FF5E00"/>
<path d="M561.947 289.033H423.933L436.04 249.981H541.77L561.947 289.033Z" fill="#EEEEEE"/>
<path d="M566.313 263.079H419.567L435.319 249.981H550.561L566.313 263.079Z" fill="#C6D1E1"/>
<rect width="94.8394" height="81.2563" transform="translate(540.36 249.981) rotate(-180)" fill="#9D9CFF"/>
<path d="M428.541 181.823L557.339 182.505L543.654 249.981L444.641 249.981L428.541 181.823Z" fill="#FF5E00"/>
<path d="M423.933 210.93L561.948 210.93L549.841 249.981L444.111 249.981L423.933 210.93Z" fill="#EEEEEE"/>
<path d="M419.567 237.126L566.313 237.126L550.561 249.981L435.319 249.981L419.567 237.126Z" fill="#C6D1E1"/>
<rect x="231.785" y="210.237" width="152.451" height="80.0091" fill="#FF5E00"/>
<mask id="mask0_137_288" style="mask-type:alpha" maskUnits="userSpaceOnUse" x="253" y="180" width="110" height="141">
<rect x="253.174" y="180.168" width="109.673" height="140.146" fill="#6E1527"/>
</mask>
<g mask="url(#mask0_137_288)">
<rect x="253.174" y="180.168" width="109.673" height="145.201" fill="#86AF25"/>
</g>
<rect x="245.353" y="201.211" width="125.311" height="98.0617" fill="#EEEEEE"/>
<mask id="mask1_137_288" style="mask-type:alpha" maskUnits="userSpaceOnUse" x="611" y="183" width="152" height="135">
<rect x="611.012" y="183.118" width="151.029" height="133.968" fill="#D9D9D9"/>
</mask>
<g mask="url(#mask1_137_288)">
<rect width="113.159" height="133.969" transform="matrix(-0.955007 -0.296582 -0.296582 0.955007 756.878 210.064)" fill="#FF5E00"/>
<rect width="113.159" height="133.969" transform="matrix(-0.992417 -0.122915 -0.122915 0.992417 738.571 197.722)" fill="#86AF25"/>
</g>
<rect x="610.714" y="183.118" width="113.159" height="133.969" fill="#EEEEEE"/>
<g clip-path="url(#clip1_137_288)">
<g clip-path="url(#clip2_137_288)">
<rect x="39.5641" y="165.485" width="142.944" height="169.231" fill="#FF5E00"/>
</g>
<rect x="60.7983" y="165.486" width="123.34" height="139.153" fill="#31070F"/>
<rect x="97.8458" y="165.486" width="86.293" height="100.299" fill="#EEEEEE"/>
<rect x="166.971" y="249.972" width="15.8129" height="15.8129" fill="#86AF25"/>
</g>
<defs>
<clipPath id="clip0_137_288">
<rect width="95.3245" height="81.4988" fill="white" transform="translate(445.277 249.981)"/>
</clipPath>
<clipPath id="clip1_137_288">
<rect width="142.946" height="169.231" fill="white" transform="translate(39.5637 165.487)"/>
</clipPath>
<clipPath id="clip2_137_288">
<rect width="142.944" height="169.231" fill="white" transform="translate(39.564 165.486)"/>
</clipPath>
</defs>
</svg>
