<svg width="966" height="500" viewBox="0 0 966 500" fill="none" xmlns="http://www.w3.org/2000/svg">
<rect width="966" height="500" fill="#201C1D"/>
<g opacity="0.5">
<rect x="246.674" y="150.415" width="472.65" height="199.167" fill="#FF5E00"/>
<rect x="327.038" y="75.5659" width="311.927" height="348.865" fill="#EEEEEE"/>
<mask id="mask0_137_329" style="mask-type:alpha" maskUnits="userSpaceOnUse" x="327" y="75" width="312" height="350">
<rect x="327.038" y="75.5669" width="311.925" height="348.865" fill="#E1E947"/>
</mask>
<g mask="url(#mask0_137_329)">
<g clip-path="url(#clip0_137_329)">
<path d="M374.26 336.089C411.626 353.827 449.08 371.536 486.675 388.721C520.391 390.885 554.338 390.074 588.087 391.693C589.576 391.765 591.67 392.075 593.112 392.449L481.066 439.31L479.579 439.487L313.758 361.472L374.26 336.089Z" fill="#FF5E00"/>
<path d="M514.314 308.465L600.959 362.213L494.147 359.231C440.005 333.495 385.972 307.447 331.553 282.284C330.84 281.954 328.998 281.45 329.072 280.469L434.018 283.451L349.613 231.197C405.073 255.605 458.812 284.177 514.314 308.465Z" fill="#FF5E00"/>
<path d="M616.278 182.298L635.695 311.078L578.931 214.773C538.769 195.535 498.617 175.808 458.3 156.915L450.457 103.909L616.278 182.298Z" fill="#FF5E00"/>
<path d="M479.582 467.854L592.744 420.826L486.678 513.021L320.483 434.632L351.108 407.756C393.835 427.869 436.869 447.615 479.582 467.854Z" fill="#FF5E00"/>
<path d="M512.821 72.9282L678.269 151.316L658.844 296.893C651.372 254.197 645.807 210.95 638.681 168.114C595.449 146.867 551.648 126.538 507.966 106.15L512.054 73.1534L512.821 72.9282Z" fill="#FF5E00"/>
<path d="M439.623 238.288C469.421 252.301 499.205 266.927 528.882 281.215L514.317 308.464C458.814 284.176 405.075 255.604 349.616 231.196C349.185 231.006 348.59 230.95 348.124 230.818L348.198 229.975L363.23 202.826L438.646 238.4C439.332 238.722 439.578 238.267 439.623 238.288Z" fill="#C6D1E1"/>
<path d="M329.077 280.467C329.003 281.448 330.845 281.952 331.558 282.282C385.977 307.445 440.01 333.493 494.152 359.229L486.682 388.718C449.087 371.533 411.633 353.824 374.267 336.086C356.482 327.643 338.819 318.914 320.815 310.92L329.077 280.467Z" fill="#C6D1E1"/>
<path d="M479.579 439.482V467.852C436.866 447.613 393.833 427.867 351.105 407.754C338.677 401.904 326.342 395.765 313.943 389.838L313.758 361.468L479.579 439.482Z" fill="#C6D1E1"/>
<path d="M507.972 106.148C551.654 126.537 595.455 146.866 638.687 168.112L616.278 182.297L450.457 103.909C457.752 98.8947 465.175 93.8433 473.012 89.7407C484.853 94.8093 496.314 100.707 507.972 106.148V106.148Z" fill="#C6D1E1"/>
<path d="M566.607 83.0065C611.568 103.944 656.253 125.568 701.057 146.837L678.275 151.316L512.827 72.928L535.008 68.4585C545.551 73.2849 556.1 78.1137 566.607 83.0065Z" fill="#C6D1E1"/>
<path d="M757.818 153.556L738.024 147.956L573.697 69.9414C579.772 70.7136 586.89 74.1657 592.997 75.4738L757.818 153.556Z" fill="#C6D1E1"/>
<path d="M701.049 146.837L681.442 292.42L738.023 147.957L757.817 153.556L756.697 156.915L702.172 296.519L788.442 172.22C793.492 176.302 798.046 182.973 802.964 187.392C798.877 193.527 794.836 199.729 790.683 205.815C766.095 241.843 740.512 277.229 716.544 313.683L822.801 221.492C823.597 222.664 830.025 241.509 830.186 243.053C830.455 245.649 829.715 245.09 828.403 246.502L827.656 247.248C826.154 248.698 824.364 249.952 822.801 251.354L822.054 252.101C820.481 253.507 818.783 254.807 817.199 256.207L816.452 256.954C815.734 257.588 814.931 258.187 814.211 258.82L813.464 259.567C812.878 260.082 812.184 260.544 811.597 261.06L810.85 261.806C810.129 262.439 809.332 263.041 808.609 263.673L807.862 264.419C806.27 265.812 804.597 267.139 803.007 268.526L802.26 269.272C801.403 270.02 800.719 270.902 800.019 271.512C774.871 293.435 748.935 314.686 724.386 337.199L837.367 289.802L837.317 318.12C817.132 326.044 797.229 334.765 777.238 343.181C759.56 350.623 741.754 357.849 724.207 365.573L830.644 368.564L822.548 398.448L715.991 395.444L802.564 448.517L788.442 476.441H787.695C787.45 476.417 787.195 476.457 786.948 476.441C786.993 475.534 786.385 475.491 785.838 475.125C759.241 457.302 730 442.105 703.169 424.491L701.432 423.991L711.507 440.606L757.738 520.358L738.397 542.884L681.44 446.208C684.966 471.614 688.985 496.987 692.833 522.354C695.502 539.946 698.369 557.528 700.958 575.135L678.641 589.544L658.843 460.766C652.768 498.147 648.676 535.938 643.535 573.493C642.038 584.431 640.158 595.394 638.68 606.342L637.186 606.715C633.944 607.351 630.714 607.901 627.476 608.581C625.897 608.913 624.074 608.987 622.621 609.701C620.898 609.96 617.626 610.813 616.272 610.821L635.688 465.991C617.943 509.12 601.823 552.947 584.526 596.263C582.735 600.749 580.766 605.201 579.064 609.725C572.278 608.836 565.829 605.963 559.13 604.475L615.52 460.017L528.506 585.438L514.314 569.76L600.577 444.521L494.146 536.165L486.677 513.022L592.743 420.827L479.581 467.856V439.487L481.068 439.31L593.114 392.449C591.672 392.075 589.578 391.765 588.088 391.693C554.34 390.074 520.393 390.885 486.677 388.721L494.146 359.232L600.959 362.214L514.314 308.466L528.879 281.217L615.889 334.04L559.504 236.797L578.924 214.773L635.688 311.079L616.272 182.298L638.68 168.114C645.806 210.95 651.371 254.197 658.843 296.893L678.268 151.317L701.049 146.837ZM701.983 296.894V297.268L702.17 297.081L701.983 296.894ZM701.61 297.641V298.014L701.796 297.828L701.61 297.641Z" fill="#5074EF"/>
<path d="M573.698 69.942L738.025 147.957L681.444 292.42L701.052 146.837C656.248 125.568 611.563 103.944 566.602 83.0066L571.649 69.9399C572.245 69.1887 573.044 69.8589 573.698 69.942Z" fill="#FF5E00"/>
<path d="M458.294 156.915C498.611 175.809 538.763 195.536 578.925 214.773L559.505 236.797L393.31 158.782L412.919 136.341C426.581 142.088 439.776 148.838 453.188 155.113C454.721 155.83 457.099 156.355 458.294 156.915Z" fill="#C6D1E1"/>
<path d="M559.505 236.797L615.89 334.041L528.88 281.217C499.203 266.93 469.419 252.303 439.621 238.29L393.31 158.782L559.505 236.797Z" fill="#FF5E00"/>
</g>
</g>
<rect x="293.244" y="127.948" width="379.505" height="244.105" fill="#EEEEEE"/>
<path d="M309.728 143.601H313.707V160.514L327.116 143.601H332.004L321.45 156.881L332.783 173.88H327.679L318.984 159.995L313.707 166.613V173.88H309.728V143.601ZM335.7 149.657H339.593V153.766C340.674 151.301 343.097 148.965 347.768 148.965C352.44 148.965 355.943 151.56 355.943 158.957V173.88H352.051V159.519C352.051 155.021 350.753 152.382 346.817 152.382C342.924 152.382 339.593 155.929 339.593 161.682V173.88H335.7V149.657ZM371.663 174.572C364.179 174.572 359.292 169.295 359.292 161.812C359.292 154.285 364.179 148.965 371.663 148.965C379.146 148.965 384.033 154.285 384.033 161.812C384.033 169.295 379.146 174.572 371.663 174.572ZM371.663 170.982C376.68 170.982 379.968 167.435 379.968 161.812C379.968 156.102 376.68 152.555 371.663 152.555C366.645 152.555 363.314 156.102 363.314 161.812C363.314 167.435 366.645 170.982 371.663 170.982ZM385.432 149.657H389.628L394.04 169.381L398.711 149.657H403.08L407.708 169.381L412.12 149.657H416.359L410.087 173.88H405.156L400.874 155.713L396.592 173.88H391.704L385.432 149.657ZM419.593 141.439H423.486V173.88H419.593V141.439ZM450.405 166.224C449.194 171.198 445.258 174.572 439.375 174.572C431.892 174.572 427.004 169.295 427.004 161.812C427.004 154.285 431.892 148.965 439.375 148.965C445.95 148.965 451.227 154.156 450.448 163.109H431.113C431.546 167.738 434.401 170.982 439.375 170.982C443.268 170.982 445.388 168.906 446.253 166.224H450.405ZM439.375 152.555C434.66 152.555 431.892 155.453 431.2 159.692H446.642C446.166 155.497 443.614 152.555 439.375 152.555ZM463.883 174.572C457.308 174.572 452.982 169.295 452.982 161.812C452.982 154.285 457.308 148.965 463.883 148.965C467.819 148.965 470.544 150.868 472.101 153.896V141.439H475.994V173.88H472.101V169.727C470.631 172.625 467.949 174.572 463.883 174.572ZM464.315 170.982C469.506 170.982 472.101 167.132 472.101 161.812C472.101 156.448 469.506 152.555 464.315 152.555C459.903 152.555 457.005 156.102 457.005 161.812C457.005 167.435 459.903 170.982 464.315 170.982ZM490.452 173.707C483.878 173.707 479.552 168.862 479.552 161.379C479.552 153.853 483.878 148.965 490.452 148.965C494.389 148.965 497.114 150.609 498.671 153.55V149.657H502.564V172.582C502.564 179.417 498.325 183.223 492.053 183.223C484.353 183.223 481.499 179.027 480.807 174.918H484.873C485.435 178.032 487.9 179.633 492.053 179.633C496.292 179.633 498.671 177.427 498.671 172.582V169.252C497.157 171.977 494.518 173.707 490.452 173.707ZM490.885 170.117C496.076 170.117 498.671 166.7 498.671 161.379C498.671 156.016 496.076 152.555 490.885 152.555C486.473 152.555 483.575 155.67 483.575 161.379C483.575 167.002 486.473 170.117 490.885 170.117ZM529.481 166.224C528.269 171.198 524.333 174.572 518.451 174.572C510.967 174.572 506.08 169.295 506.08 161.812C506.08 154.285 510.967 148.965 518.451 148.965C525.025 148.965 530.302 154.156 529.524 163.109H510.189C510.621 167.738 513.476 170.982 518.451 170.982C522.343 170.982 524.463 168.906 525.328 166.224H529.481ZM518.451 152.555C513.736 152.555 510.967 155.453 510.275 159.692H525.717C525.242 155.497 522.689 152.555 518.451 152.555ZM540.882 149.657H544.948V143.601H548.841V149.657H553.642V152.988H548.841V167.738C548.841 169.727 549.793 170.549 551.523 170.549H554.335V173.88H551.48C547.111 173.88 544.948 171.414 544.948 167.738V152.988H540.882V149.657ZM567.83 174.572C560.347 174.572 555.459 169.295 555.459 161.812C555.459 154.285 560.347 148.965 567.83 148.965C575.313 148.965 580.201 154.285 580.201 161.812C580.201 169.295 575.313 174.572 567.83 174.572ZM567.83 170.982C572.848 170.982 576.135 167.435 576.135 161.812C576.135 156.102 572.848 152.555 567.83 152.555C562.813 152.555 559.482 156.102 559.482 161.812C559.482 167.435 562.813 170.982 567.83 170.982ZM325.732 204.812V192.657H329.625V216.88H325.732V212.727C324.651 215.193 322.229 217.572 317.6 217.572C312.929 217.572 309.382 214.977 309.382 207.58V192.657H313.275V207.018C313.275 211.473 314.572 214.155 318.509 214.155C322.402 214.155 325.732 210.565 325.732 204.812ZM334.055 225.531V192.657H337.948V196.896C339.505 193.868 342.23 191.965 346.166 191.965C352.741 191.965 357.066 197.285 357.066 204.812C357.066 212.295 352.741 217.572 346.166 217.572C342.1 217.572 339.418 215.625 337.948 212.727V225.531H334.055ZM345.734 213.982C350.146 213.982 353.044 210.435 353.044 204.812C353.044 199.102 350.146 195.555 345.734 195.555C340.586 195.555 337.948 199.448 337.948 204.812C337.948 210.132 340.586 213.982 345.734 213.982ZM363.605 209.051C363.865 212.295 366.633 214.068 370.18 214.068C373.64 214.068 375.933 212.727 375.933 209.916C375.933 204.293 360.101 209.094 360.101 199.405C360.101 195.512 363.908 191.965 369.834 191.965C375.068 191.965 379.436 195.339 379.436 200.27H375.846C375.63 196.983 372.991 195.296 369.661 195.296C365.897 195.296 363.951 197.026 363.951 199.405C363.951 205.547 379.826 200.357 379.826 209.916C379.826 214.501 376.062 217.399 369.963 217.399C364.254 217.399 359.972 213.809 359.799 209.051H363.605ZM401.771 192.657L393.725 202.216L402.982 216.88H398.397L391.173 205.201L387.497 209.57V216.88H383.604V184.439H387.497V203.903L396.969 192.657H401.771ZM405.696 184.439H410.238V189.11H405.696V184.439ZM405.999 192.657H409.935V216.88H405.999V192.657ZM414.735 184.439H418.628V216.88H414.735V184.439ZM423.141 184.439H427.034V216.88H423.141V184.439ZM430.262 212.208H434.804V216.88H430.262V212.208ZM447.687 186.601H458.155C466.33 186.601 471.348 188.937 471.348 196.031C471.348 200.832 469.012 203.514 464.989 204.725L470.915 216.88H466.374L461.226 205.374C460.275 205.504 459.237 205.504 458.155 205.504H451.667V216.88H447.687V186.601ZM458.155 202C463.908 202 467.195 200.789 467.195 196.031C467.195 191.273 463.908 190.105 458.155 190.105H451.667V202H458.155ZM497.208 209.224C495.997 214.198 492.061 217.572 486.178 217.572C478.695 217.572 473.807 212.295 473.807 204.812C473.807 197.285 478.695 191.965 486.178 191.965C492.753 191.965 498.03 197.156 497.252 206.109H477.917C478.349 210.738 481.204 213.982 486.178 213.982C490.071 213.982 492.191 211.906 493.056 209.224H497.208ZM486.178 195.555C481.463 195.555 478.695 198.453 478.003 202.692H493.445C492.969 198.497 490.417 195.555 486.178 195.555ZM503.972 209.051C504.232 212.295 507 214.068 510.547 214.068C514.007 214.068 516.3 212.727 516.3 209.916C516.3 204.293 500.469 209.094 500.469 199.405C500.469 195.512 504.275 191.965 510.201 191.965C515.435 191.965 519.804 195.339 519.804 200.27H516.213C515.997 196.983 513.359 195.296 510.028 195.296C506.265 195.296 504.318 197.026 504.318 199.405C504.318 205.547 520.193 200.357 520.193 209.916C520.193 214.501 516.43 217.399 510.331 217.399C504.621 217.399 500.339 213.809 500.166 209.051H503.972ZM542.138 192.657L534.093 202.216L543.349 216.88H538.764L531.541 205.201L527.864 209.57V216.88H523.971V184.439H527.864V203.903L537.337 192.657H542.138ZM546.063 184.439H550.605V189.11H546.063V184.439ZM546.366 192.657H550.302V216.88H546.366V192.657ZM555.103 184.439H558.996V216.88H555.103V184.439ZM563.509 184.439H567.402V216.88H563.509V184.439ZM570.629 212.208H575.171V216.88H570.629V212.208ZM323.656 260.572C314.01 260.572 308.69 253.478 308.69 244.697C308.69 236.003 314.01 228.909 323.656 228.909C333.259 228.909 338.579 236.003 338.579 244.697C338.579 253.478 333.259 260.572 323.656 260.572ZM323.656 256.809C330.836 256.809 334.427 251.186 334.427 244.697C334.427 238.296 330.836 232.673 323.656 232.673C316.476 232.673 312.842 238.296 312.842 244.697C312.842 251.186 316.476 256.809 323.656 256.809ZM358.554 247.812V235.657H362.447V259.88H358.554V255.727C357.472 258.193 355.05 260.572 350.422 260.572C345.75 260.572 342.203 257.977 342.203 250.58V235.657H346.096V250.018C346.096 254.473 347.394 257.155 351.33 257.155C355.223 257.155 358.554 253.565 358.554 247.812ZM365.708 235.657H369.774V229.601H373.667V235.657H378.468V238.988H373.667V253.738C373.667 255.727 374.619 256.549 376.349 256.549H379.161V259.88H376.306C371.937 259.88 369.774 257.414 369.774 253.738V238.988H365.708V235.657ZM384.852 252.051C385.112 255.295 387.88 257.068 391.427 257.068C394.887 257.068 397.18 255.727 397.18 252.916C397.18 247.293 381.349 252.094 381.349 242.405C381.349 238.512 385.155 234.965 391.081 234.965C396.315 234.965 400.684 238.339 400.684 243.27H397.093C396.877 239.983 394.239 238.296 390.908 238.296C387.145 238.296 385.198 240.026 385.198 242.405C385.198 248.547 401.073 243.357 401.073 252.916C401.073 257.501 397.31 260.399 391.211 260.399C385.501 260.399 381.219 256.809 381.046 252.051H384.852ZM423.018 235.657L414.973 245.216L424.229 259.88H419.644L412.421 248.201L408.744 252.57V259.88H404.851V227.439H408.744V246.903L418.217 235.657H423.018ZM426.943 227.439H431.485V232.11H426.943V227.439ZM427.246 235.657H431.182V259.88H427.246V235.657ZM435.983 227.439H439.876V259.88H435.983V227.439ZM444.389 227.439H448.282V259.88H444.389V227.439ZM451.509 255.208H456.051V259.88H451.509V255.208Z" fill="#201C1D"/>
<rect width="38.9252" height="38.9252" transform="translate(633.823 333.126)" fill="#FF5E00"/>
</g>
<path d="M328.093 342.585L328.13 342.604L328.121 342.614L328.093 342.587C327.258 343.667 326.559 344.857 326.019 346.13C326.011 346.149 326.003 346.167 325.996 346.186C325.476 347.427 325.106 348.746 324.913 350.124C324.911 350.131 324.911 350.141 324.911 350.149C324.807 350.88 324.754 351.626 324.754 352.384C324.754 353.029 324.793 353.666 324.868 354.291H309.366V350.124H322.827C322.852 349.952 322.882 349.784 322.913 349.614L309.945 346.139L311.024 342.112L324.152 345.629C324.213 345.494 324.275 345.362 324.338 345.229L312.556 338.429L314.64 334.82L326.598 341.719C326.692 341.606 326.787 341.493 326.887 341.381L317.09 331.59L320.039 328.641L329.993 338.593L331.045 339.644C329.938 340.492 328.945 341.481 328.093 342.585Z" fill="black"/>
<line x1="777.834" y1="128.29" x2="672.749" y2="128.29" stroke="#FF5E00" stroke-width="0.683005"/>
<line x1="777.834" y1="349.633" x2="719.325" y2="349.633" stroke="#FF5E00" stroke-width="0.683005"/>
<line x1="777.834" y1="75.9079" x2="638.965" y2="75.9079" stroke="#FF5E00" stroke-width="0.683005"/>
<path d="M788.858 124.871H789.509V130.375H792.426V130.948H788.858V124.871ZM794.759 125.947C796.044 125.947 796.687 126.807 796.687 128.17V130.948H796.053V130.202C795.784 130.749 795.323 131.087 794.516 131.087C793.561 131.087 792.797 130.54 792.797 129.568C792.797 128.014 794.533 127.831 796.044 127.979C795.992 127.05 795.575 126.538 794.759 126.538C793.882 126.538 793.405 127.085 793.405 127.797H792.719C792.719 126.859 793.431 125.947 794.759 125.947ZM793.457 129.533C793.457 130.202 793.856 130.566 794.681 130.566C795.593 130.566 796.053 129.82 796.053 129.03V128.483C794.342 128.326 793.457 128.804 793.457 129.533ZM797.239 132.685V132.146H797.838C798.542 132.146 798.663 131.608 798.898 130.948H798.594L796.944 126.086H797.639L799.063 130.445L800.486 126.086H801.181L799.531 130.948C799.149 132.146 798.819 132.685 797.856 132.685H797.239ZM805.981 129.412C805.729 130.41 804.957 131.087 803.776 131.087C802.274 131.087 801.293 130.028 801.293 128.526C801.293 127.015 802.274 125.947 803.776 125.947C805.096 125.947 806.12 126.972 805.999 128.734H801.962C802.04 129.776 802.691 130.497 803.776 130.497C804.662 130.497 805.122 130.019 805.313 129.412H805.981ZM803.776 126.538C802.743 126.538 802.1 127.198 801.979 128.161H805.4C805.278 127.18 804.696 126.538 803.776 126.538ZM807.27 128.222V130.948H806.637V126.086H807.27V126.963C807.47 126.451 807.939 125.947 808.981 125.947V126.616C807.948 126.616 807.27 127.067 807.27 128.222ZM813.684 131.087C811.922 131.087 811.114 129.663 811.114 127.901C811.114 126.156 811.922 124.732 813.684 124.732C815.438 124.732 816.245 126.156 816.245 127.901C816.245 129.663 815.438 131.087 813.684 131.087ZM813.684 130.462C814.865 130.462 815.568 129.377 815.568 127.901C815.568 126.442 814.865 125.357 813.684 125.357C812.495 125.357 811.791 126.442 811.791 127.901C811.791 129.377 812.495 130.462 813.684 130.462ZM816.62 130.375H818.079V125.444H816.62V124.871H818.73V130.375H820.189V130.948H816.62V130.375Z" fill="white"/>
<path d="M788.858 72.491H789.509V77.9953H792.426V78.5684H788.858V72.491ZM794.759 73.5675C796.044 73.5675 796.687 74.4271 796.687 75.7901V78.5684H796.053V77.8217C795.784 78.3687 795.323 78.7073 794.516 78.7073C793.561 78.7073 792.797 78.1603 792.797 77.1879C792.797 75.6338 794.533 75.4515 796.044 75.5991C795.992 74.6701 795.575 74.1579 794.759 74.1579C793.882 74.1579 793.405 74.7049 793.405 75.4168H792.719C792.719 74.4791 793.431 73.5675 794.759 73.5675ZM793.457 77.1532C793.457 77.8217 793.856 78.1864 794.681 78.1864C795.593 78.1864 796.053 77.4397 796.053 76.6496V76.1027C794.342 75.9464 793.457 76.4239 793.457 77.1532ZM797.239 80.3048V79.7665H797.838C798.542 79.7665 798.663 79.2282 798.898 78.5684H798.594L796.944 73.7064H797.639L799.063 78.0648L800.486 73.7064H801.181L799.531 78.5684C799.149 79.7665 798.819 80.3048 797.856 80.3048H797.239ZM805.981 77.0316C805.729 78.0301 804.957 78.7073 803.776 78.7073C802.274 78.7073 801.293 77.6481 801.293 76.1461C801.293 74.6354 802.274 73.5675 803.776 73.5675C805.096 73.5675 806.12 74.592 805.999 76.3545H801.962C802.04 77.3963 802.691 78.1169 803.776 78.1169C804.662 78.1169 805.122 77.6394 805.313 77.0316H805.981ZM803.776 74.1579C802.743 74.1579 802.1 74.8177 801.979 75.7814H805.4C805.278 74.8004 804.696 74.1579 803.776 74.1579ZM807.27 75.8422V78.5684H806.637V73.7064H807.27V74.5833C807.47 74.0711 807.939 73.5675 808.981 73.5675V74.2361C807.948 74.2361 807.27 74.6875 807.27 75.8422ZM813.684 78.7073C811.922 78.7073 811.114 77.2834 811.114 75.521C811.114 73.7759 811.922 72.3521 813.684 72.3521C815.438 72.3521 816.245 73.7759 816.245 75.521C816.245 77.2834 815.438 78.7073 813.684 78.7073ZM813.684 78.0822C814.865 78.0822 815.568 76.9969 815.568 75.521C815.568 74.0624 814.865 72.9772 813.684 72.9772C812.495 72.9772 811.791 74.0624 811.791 75.521C811.791 76.9969 812.495 78.0822 813.684 78.0822ZM816.707 78.5684C816.751 75.5297 820.536 75.9898 820.536 74.1926C820.536 73.4634 819.954 72.9772 819.077 72.9772C817.992 72.9772 817.497 73.5849 817.445 74.4184H816.777C816.777 73.1942 817.732 72.3521 819.034 72.3521C820.51 72.3521 821.213 73.2463 821.213 74.1579C821.213 76.3545 818.053 75.9724 817.541 77.978H821.231V78.5684H816.707Z" fill="white"/>
<path opacity="0.7" d="M794.432 93.0413C794.31 94.6127 793.364 95.6545 791.654 95.6545C789.718 95.6545 788.65 94.2307 788.65 92.4682C788.65 90.7232 789.718 89.2993 791.654 89.2993C793.286 89.2993 794.215 90.2283 794.397 91.6869H793.711C793.59 90.9055 793.13 89.9244 791.654 89.9244C790.117 89.9244 789.327 91.0965 789.327 92.4682C789.327 93.8574 790.117 95.0294 791.654 95.0294C793.225 95.0294 793.694 93.9355 793.763 93.0413H794.432ZM795.712 92.7895V95.5156H795.078V90.6537H795.712V91.5306C795.912 91.0184 796.38 90.5148 797.422 90.5148V91.1833C796.389 91.1833 795.712 91.6348 795.712 92.7895ZM799.929 95.6545C798.427 95.6545 797.446 94.5953 797.446 93.0934C797.446 91.5827 798.427 90.5148 799.929 90.5148C801.431 90.5148 802.412 91.5827 802.412 93.0934C802.412 94.5953 801.431 95.6545 799.929 95.6545ZM799.929 95.0642C800.988 95.0642 801.752 94.3349 801.752 93.0934C801.752 91.8431 800.988 91.1052 799.929 91.1052C798.87 91.1052 798.106 91.8431 798.106 93.0934C798.106 94.3349 798.87 95.0642 799.929 95.0642ZM803.044 97.252V90.6537H803.678V91.6087C803.991 90.9402 804.572 90.5148 805.414 90.5148C806.708 90.5148 807.602 91.5827 807.602 93.0934C807.602 94.5953 806.708 95.6545 805.414 95.6545C804.546 95.6545 803.973 95.2204 803.678 94.578V97.252H803.044ZM805.371 95.0642C806.3 95.0642 806.942 94.3349 806.942 93.0934C806.942 91.8431 806.3 91.1052 805.371 91.1052C804.251 91.1052 803.678 91.93 803.678 93.0934C803.678 94.2481 804.251 95.0642 805.371 95.0642ZM808.24 97.252V90.6537H808.873V91.6087C809.186 90.9402 809.768 90.5148 810.61 90.5148C811.903 90.5148 812.798 91.5827 812.798 93.0934C812.798 94.5953 811.903 95.6545 810.61 95.6545C809.742 95.6545 809.168 95.2204 808.873 94.578V97.252H808.24ZM810.566 95.0642C811.495 95.0642 812.138 94.3349 812.138 93.0934C812.138 91.8431 811.495 91.1052 810.566 91.1052C809.446 91.1052 808.873 91.93 808.873 93.0934C808.873 94.2481 809.446 95.0642 810.566 95.0642ZM817.923 93.9789C817.672 94.9773 816.899 95.6545 815.718 95.6545C814.216 95.6545 813.235 94.5953 813.235 93.0934C813.235 91.5827 814.216 90.5148 815.718 90.5148C817.038 90.5148 818.062 91.5393 817.941 93.3017H813.904C813.982 94.3436 814.633 95.0642 815.718 95.0642C816.604 95.0642 817.064 94.5867 817.255 93.9789H817.923ZM815.718 91.1052C814.685 91.1052 814.043 91.765 813.921 92.7287H817.342C817.22 91.7476 816.638 91.1052 815.718 91.1052ZM820.567 95.6545C819.274 95.6545 818.38 94.5953 818.38 93.0934C818.38 91.5827 819.274 90.5148 820.567 90.5148C821.41 90.5148 821.991 90.9402 822.304 91.6087V89.0041H822.938V95.5156H822.304V94.578C822.009 95.2204 821.436 95.6545 820.567 95.6545ZM820.611 95.0642C821.731 95.0642 822.304 94.2481 822.304 93.0934C822.304 91.93 821.731 91.1052 820.611 91.1052C819.682 91.1052 819.039 91.8431 819.039 93.0934C819.039 94.3349 819.682 95.0642 820.611 95.0642ZM827.499 95.4809C826.205 95.4809 825.311 94.5085 825.311 93.0065C825.311 91.4959 826.205 90.5148 827.499 90.5148C828.341 90.5148 828.923 90.8968 829.235 91.5393V90.6537H829.869V95.2552C829.869 96.6269 829.061 97.3909 827.803 97.3909C826.257 97.3909 825.702 96.5488 825.563 95.724H826.231C826.335 96.4099 826.856 96.8006 827.803 96.8006C828.758 96.8006 829.235 96.297 829.235 95.2552V94.4738C828.94 95.0902 828.367 95.4809 827.499 95.4809ZM827.542 94.8905C828.662 94.8905 829.235 94.1612 829.235 93.0065C829.235 91.8431 828.662 91.1052 827.542 91.1052C826.613 91.1052 825.971 91.7563 825.971 93.0065C825.971 94.2481 826.613 94.8905 827.542 94.8905ZM831.322 92.7895V95.5156H830.688V90.6537H831.322V91.5306C831.522 91.0184 831.991 90.5148 833.033 90.5148V91.1833C831.999 91.1833 831.322 91.6348 831.322 92.7895ZM835.302 90.5148C836.587 90.5148 837.229 91.3743 837.229 92.7374V95.5156H836.596V94.769C836.326 95.3159 835.866 95.6545 835.059 95.6545C834.104 95.6545 833.34 95.1076 833.34 94.1352C833.34 92.5811 835.076 92.3988 836.587 92.5464C836.535 91.6174 836.118 91.1052 835.302 91.1052C834.425 91.1052 833.948 91.6521 833.948 92.3641H833.262C833.262 91.4264 833.974 90.5148 835.302 90.5148ZM834 94.1005C834 94.769 834.399 95.1336 835.224 95.1336C836.135 95.1336 836.596 94.387 836.596 93.5969V93.0499C834.885 92.8937 834 93.3712 834 94.1005ZM838.01 97.252V90.6537H838.644V91.6087C838.957 90.9402 839.538 90.5148 840.38 90.5148C841.674 90.5148 842.568 91.5827 842.568 93.0934C842.568 94.5953 841.674 95.6545 840.38 95.6545C839.512 95.6545 838.939 95.2204 838.644 94.578V97.252H838.01ZM840.337 95.0642C841.266 95.0642 841.908 94.3349 841.908 93.0934C841.908 91.8431 841.266 91.1052 840.337 91.1052C839.217 91.1052 838.644 91.93 838.644 93.0934C838.644 94.2481 839.217 95.0642 840.337 95.0642ZM843.839 93.0499V95.5156H843.206V89.0041H843.839V91.5045C844.056 91.001 844.569 90.5148 845.506 90.5148C846.444 90.5148 847.165 91.0357 847.165 92.5203V95.5156H846.531V92.6332C846.531 91.6261 846.209 91.0704 845.376 91.0704C844.508 91.0704 843.839 91.8952 843.839 93.0499ZM847.909 89.0041H848.682V89.8116H847.909V89.0041ZM847.979 90.6537H848.612V95.5156H847.979V90.6537ZM854.051 93.4754C853.964 94.7342 853.139 95.6545 851.767 95.6545C850.265 95.6545 849.284 94.5953 849.284 93.0934C849.284 91.5827 850.265 90.5148 851.767 90.5148C853.087 90.5148 853.947 91.4959 854.033 92.5638H853.374C853.287 91.8431 852.801 91.1052 851.767 91.1052C850.613 91.1052 849.944 91.93 849.944 93.0934C849.944 94.2481 850.613 95.0642 851.767 95.0642C852.896 95.0642 853.321 94.2915 853.408 93.4754H854.051Z" fill="white"/>
<path opacity="0.7" d="M788.858 138.883H792.999V139.473H789.509V141.782H792.652V142.373H789.509V144.96H788.858V138.883ZM797.358 144.96H796.724V144.109C796.507 144.613 795.995 145.099 795.057 145.099C794.12 145.099 793.399 144.578 793.399 143.093V140.098H794.033V142.98C794.033 143.988 794.354 144.543 795.187 144.543C796.056 144.543 796.724 143.718 796.724 142.564V140.098H797.358V144.96ZM798.171 140.098H798.805V140.949C799.022 140.445 799.534 139.959 800.471 139.959C801.409 139.959 802.13 140.48 802.13 141.965V144.96H801.496V142.078C801.496 141.07 801.175 140.515 800.341 140.515C799.473 140.515 798.805 141.34 798.805 142.494V144.96H798.171V140.098ZM807.492 142.92C807.405 144.179 806.581 145.099 805.209 145.099C803.707 145.099 802.726 144.04 802.726 142.538C802.726 141.027 803.707 139.959 805.209 139.959C806.529 139.959 807.388 140.94 807.475 142.008H806.815C806.728 141.287 806.242 140.55 805.209 140.55C804.054 140.55 803.386 141.374 803.386 142.538C803.386 143.692 804.054 144.508 805.209 144.508C806.338 144.508 806.763 143.736 806.85 142.92H807.492ZM807.641 140.098H808.543V138.883H809.177V140.098H810.202V140.636H809.177V143.814C809.177 144.248 809.377 144.422 809.733 144.422H810.341V144.96H809.724C808.934 144.96 808.543 144.465 808.543 143.814V140.636H807.641V140.098ZM810.883 138.448H811.655V139.256H810.883V138.448ZM810.952 140.098H811.586V144.96H810.952V140.098ZM814.741 145.099C813.239 145.099 812.258 144.04 812.258 142.538C812.258 141.027 813.239 139.959 814.741 139.959C816.243 139.959 817.224 141.027 817.224 142.538C817.224 144.04 816.243 145.099 814.741 145.099ZM814.741 144.508C815.8 144.508 816.564 143.779 816.564 142.538C816.564 141.287 815.8 140.55 814.741 140.55C813.682 140.55 812.918 141.287 812.918 142.538C812.918 143.779 813.682 144.508 814.741 144.508ZM817.839 140.098H818.473V140.949C818.69 140.445 819.202 139.959 820.14 139.959C821.078 139.959 821.798 140.48 821.798 141.965V144.96H821.164V142.078C821.164 141.07 820.843 140.515 820.01 140.515C819.141 140.515 818.473 141.34 818.473 142.494V144.96H817.839V140.098ZM824.521 139.959C825.806 139.959 826.449 140.819 826.449 142.182V144.96H825.815V144.213C825.546 144.76 825.086 145.099 824.278 145.099C823.323 145.099 822.559 144.552 822.559 143.58C822.559 142.025 824.296 141.843 825.806 141.991C825.754 141.062 825.337 140.55 824.521 140.55C823.644 140.55 823.167 141.096 823.167 141.808H822.481C822.481 140.871 823.193 139.959 824.521 139.959ZM823.219 143.545C823.219 144.213 823.618 144.578 824.443 144.578C825.355 144.578 825.815 143.831 825.815 143.041V142.494C824.105 142.338 823.219 142.816 823.219 143.545ZM827.23 138.448H827.863V144.96H827.23V138.448ZM830.196 140.098H831.099V138.883H831.733V140.098H832.757V140.636H831.733V143.814C831.733 144.248 831.932 144.422 832.288 144.422H832.896V144.96H832.28C831.49 144.96 831.099 144.465 831.099 143.814V140.636H830.196V140.098ZM837.681 143.423C837.429 144.422 836.657 145.099 835.476 145.099C833.974 145.099 832.993 144.04 832.993 142.538C832.993 141.027 833.974 139.959 835.476 139.959C836.795 139.959 837.82 140.984 837.698 142.746H833.661C833.739 143.788 834.391 144.508 835.476 144.508C836.361 144.508 836.821 144.031 837.012 143.423H837.681ZM835.476 140.55C834.443 140.55 833.8 141.209 833.679 142.173H837.099C836.978 141.192 836.396 140.55 835.476 140.55ZM837.823 140.098H838.544L839.724 141.947L840.896 140.098H841.617L840.08 142.512L841.643 144.96H840.923L839.724 143.076L838.518 144.96H837.797L839.36 142.512L837.823 140.098ZM842 140.098H842.903V138.883H843.537V140.098H844.562V140.636H843.537V143.814C843.537 144.248 843.737 144.422 844.093 144.422H844.701V144.96H844.084C843.294 144.96 842.903 144.465 842.903 143.814V140.636H842V140.098ZM847.072 138.448H847.706V144.96H847.072V138.448ZM850.464 139.959C851.749 139.959 852.392 140.819 852.392 142.182V144.96H851.758V144.213C851.489 144.76 851.029 145.099 850.221 145.099C849.266 145.099 848.502 144.552 848.502 143.58C848.502 142.025 850.238 141.843 851.749 141.991C851.697 141.062 851.28 140.55 850.464 140.55C849.587 140.55 849.11 141.096 849.11 141.808H848.424C848.424 140.871 849.136 139.959 850.464 139.959ZM849.162 143.545C849.162 144.213 849.561 144.578 850.386 144.578C851.298 144.578 851.758 143.831 851.758 143.041V142.494C850.047 142.338 849.162 142.816 849.162 143.545ZM852.944 146.696V146.158H853.543C854.247 146.158 854.368 145.62 854.603 144.96H854.299L852.649 140.098H853.344L854.768 144.456L856.191 140.098H856.886L855.236 144.96C854.854 146.158 854.525 146.696 853.561 146.696H852.944ZM861.686 143.423C861.435 144.422 860.662 145.099 859.481 145.099C857.979 145.099 856.998 144.04 856.998 142.538C856.998 141.027 857.979 139.959 859.481 139.959C860.801 139.959 861.825 140.984 861.704 142.746H857.667C857.745 143.788 858.396 144.508 859.481 144.508C860.367 144.508 860.827 144.031 861.018 143.423H861.686ZM859.481 140.55C858.448 140.55 857.806 141.209 857.684 142.173H861.105C860.983 141.192 860.401 140.55 859.481 140.55ZM862.976 142.234V144.96H862.342V140.098H862.976V140.975C863.175 140.463 863.644 139.959 864.686 139.959V140.628C863.653 140.628 862.976 141.079 862.976 142.234Z" fill="white"/>
<path opacity="0.7" d="M789.431 369.333C789.492 370.253 790.256 370.783 791.263 370.783C792.288 370.783 792.947 370.331 792.947 369.628C792.947 367.996 788.78 369.298 788.78 366.876C788.78 365.904 789.7 365.087 791.176 365.087C792.479 365.087 793.529 365.93 793.529 367.154H792.817C792.765 366.233 792.253 365.713 791.133 365.713C790.022 365.713 789.457 366.164 789.457 366.876C789.457 368.612 793.625 367.232 793.625 369.628C793.625 370.765 792.722 371.408 791.211 371.408C789.796 371.408 788.754 370.514 788.711 369.333H789.431ZM796.599 371.443C795.097 371.443 794.116 370.383 794.116 368.881C794.116 367.371 795.097 366.303 796.599 366.303C798.101 366.303 799.082 367.371 799.082 368.881C799.082 370.383 798.101 371.443 796.599 371.443ZM796.599 370.852C797.658 370.852 798.422 370.123 798.422 368.881C798.422 367.631 797.658 366.893 796.599 366.893C795.54 366.893 794.776 367.631 794.776 368.881C794.776 370.123 795.54 370.852 796.599 370.852ZM799.714 364.792H800.348V371.304H799.714V364.792ZM801.179 364.792H801.952V365.6H801.179V364.792ZM801.248 366.442H801.882V371.304H801.248V366.442ZM804.742 371.443C803.448 371.443 802.554 370.383 802.554 368.881C802.554 367.371 803.448 366.303 804.742 366.303C805.584 366.303 806.166 366.728 806.479 367.397V364.792H807.112V371.304H806.479V370.366C806.183 371.009 805.61 371.443 804.742 371.443ZM804.786 370.852C805.905 370.852 806.479 370.036 806.479 368.881C806.479 367.718 805.905 366.893 804.786 366.893C803.857 366.893 803.214 367.631 803.214 368.881C803.214 370.123 803.857 370.852 804.786 370.852ZM809.685 371.304V364.792H810.319V367.397C810.632 366.72 811.213 366.303 812.055 366.303C813.349 366.303 814.243 367.371 814.243 368.881C814.243 370.383 813.349 371.443 812.055 371.443C811.187 371.443 810.614 371.017 810.319 370.375V371.304H809.685ZM812.012 370.852C812.941 370.852 813.583 370.123 813.583 368.881C813.583 367.631 812.941 366.893 812.012 366.893C810.892 366.893 810.319 367.718 810.319 368.881C810.319 370.036 810.892 370.852 812.012 370.852ZM814.881 364.792H815.514V371.304H814.881V364.792ZM818.629 371.443C817.127 371.443 816.146 370.383 816.146 368.881C816.146 367.371 817.127 366.303 818.629 366.303C820.131 366.303 821.112 367.371 821.112 368.881C821.112 370.383 820.131 371.443 818.629 371.443ZM818.629 370.852C819.688 370.852 820.452 370.123 820.452 368.881C820.452 367.631 819.688 366.893 818.629 366.893C817.569 366.893 816.805 367.631 816.805 368.881C816.805 370.123 817.569 370.852 818.629 370.852ZM826.311 369.263C826.224 370.522 825.399 371.443 824.027 371.443C822.525 371.443 821.544 370.383 821.544 368.881C821.544 367.371 822.525 366.303 824.027 366.303C825.347 366.303 826.207 367.284 826.293 368.352H825.634C825.547 367.631 825.061 366.893 824.027 366.893C822.873 366.893 822.204 367.718 822.204 368.881C822.204 370.036 822.873 370.852 824.027 370.852C825.156 370.852 825.582 370.08 825.668 369.263H826.311ZM830.447 366.442L828.806 368.343L830.733 371.304H829.952L828.372 368.847L827.582 369.767V371.304H826.948V364.792H827.582V368.838L829.648 366.442H830.447ZM837.598 369.263C837.511 370.522 836.686 371.443 835.315 371.443C833.813 371.443 832.832 370.383 832.832 368.881C832.832 367.371 833.813 366.303 835.315 366.303C836.634 366.303 837.494 367.284 837.581 368.352H836.921C836.834 367.631 836.348 366.893 835.315 366.893C834.16 366.893 833.491 367.718 833.491 368.881C833.491 370.036 834.16 370.852 835.315 370.852C836.443 370.852 836.869 370.08 836.956 369.263H837.598ZM840.501 371.443C839 371.443 838.018 370.383 838.018 368.881C838.018 367.371 839 366.303 840.501 366.303C842.003 366.303 842.985 367.371 842.985 368.881C842.985 370.383 842.003 371.443 840.501 371.443ZM840.501 370.852C841.561 370.852 842.325 370.123 842.325 368.881C842.325 367.631 841.561 366.893 840.501 366.893C839.442 366.893 838.678 367.631 838.678 368.881C838.678 370.123 839.442 370.852 840.501 370.852ZM843.617 364.792H844.251V371.304H843.617V364.792ZM847.365 371.443C845.863 371.443 844.882 370.383 844.882 368.881C844.882 367.371 845.863 366.303 847.365 366.303C848.867 366.303 849.848 367.371 849.848 368.881C849.848 370.383 848.867 371.443 847.365 371.443ZM847.365 370.852C848.424 370.852 849.188 370.123 849.188 368.881C849.188 367.631 848.424 366.893 847.365 366.893C846.306 366.893 845.542 367.631 845.542 368.881C845.542 370.123 846.306 370.852 847.365 370.852ZM851.114 368.578V371.304H850.48V366.442H851.114V367.319C851.313 366.806 851.782 366.303 852.824 366.303V366.971C851.791 366.971 851.114 367.423 851.114 368.578Z" fill="white"/>
<path d="M788.858 351.215H789.509V356.719H792.426V357.292H788.858V351.215ZM794.759 352.291C796.044 352.291 796.687 353.151 796.687 354.514V357.292H796.053V356.545C795.784 357.092 795.323 357.431 794.516 357.431C793.561 357.431 792.797 356.884 792.797 355.912C792.797 354.357 794.533 354.175 796.044 354.323C795.992 353.394 795.575 352.882 794.759 352.882C793.882 352.882 793.405 353.429 793.405 354.14H792.719C792.719 353.203 793.431 352.291 794.759 352.291ZM793.457 355.877C793.457 356.545 793.856 356.91 794.681 356.91C795.593 356.91 796.053 356.163 796.053 355.373V354.826C794.342 354.67 793.457 355.148 793.457 355.877ZM797.239 359.028V358.49H797.838C798.542 358.49 798.663 357.952 798.898 357.292H798.594L796.944 352.43H797.639L799.063 356.788L800.486 352.43H801.181L799.531 357.292C799.149 358.49 798.819 359.028 797.856 359.028H797.239ZM805.981 355.755C805.729 356.754 804.957 357.431 803.776 357.431C802.274 357.431 801.293 356.372 801.293 354.87C801.293 353.359 802.274 352.291 803.776 352.291C805.096 352.291 806.12 353.316 805.999 355.078H801.962C802.04 356.12 802.691 356.841 803.776 356.841C804.662 356.841 805.122 356.363 805.313 355.755H805.981ZM803.776 352.882C802.743 352.882 802.1 353.541 801.979 354.505H805.4C805.278 353.524 804.696 352.882 803.776 352.882ZM807.27 354.566V357.292H806.637V352.43H807.27V353.307C807.47 352.795 807.939 352.291 808.981 352.291V352.96C807.948 352.96 807.27 353.411 807.27 354.566ZM813.684 357.431C811.922 357.431 811.114 356.007 811.114 354.245C811.114 352.5 811.922 351.076 813.684 351.076C815.438 351.076 816.245 352.5 816.245 354.245C816.245 356.007 815.438 357.431 813.684 357.431ZM813.684 356.806C814.865 356.806 815.568 355.721 815.568 354.245C815.568 352.786 814.865 351.701 813.684 351.701C812.495 351.701 811.791 352.786 811.791 354.245C811.791 355.721 812.495 356.806 813.684 356.806ZM818.539 353.906H819.147C820.241 353.906 820.718 353.585 820.718 352.864C820.718 352.248 820.154 351.701 819.156 351.701C818.209 351.701 817.497 352.256 817.445 353.142H816.777C816.777 351.918 817.897 351.076 819.138 351.076C820.631 351.076 821.396 351.892 821.396 352.864C821.396 353.394 821.074 353.915 820.397 354.184C821.083 354.41 821.439 354.922 821.439 355.573C821.439 356.615 820.579 357.431 819.147 357.431C817.801 357.431 816.777 356.589 816.777 355.365H817.445C817.497 356.198 818.201 356.806 819.147 356.806C820.171 356.806 820.762 356.233 820.762 355.556C820.762 354.852 820.145 354.514 819.173 354.514H818.539V353.906Z" fill="white"/>
<rect opacity="0.64" x="309.866" y="145.46" width="346.26" height="209.082" stroke="white" stroke-dasharray="2.25 2.25"/>
<rect opacity="0.64" x="293.744" y="128.448" width="378.504" height="243.104" stroke="white" stroke-dasharray="2.25 2.25"/>
<defs>
<clipPath id="clip0_137_329">
<rect width="523.607" height="542.363" fill="white" transform="translate(313.763 68.4551)"/>
</clipPath>
</defs>
</svg>
