<svg width="966" height="500" viewBox="0 0 966 500" fill="none" xmlns="http://www.w3.org/2000/svg">
<g clip-path="url(#clip0_137_398)">
<rect width="966" height="500" transform="translate(0 -2.53027)" fill="#1D1A1B"/>
<g opacity="0.5" clip-path="url(#clip1_137_398)">
<g clip-path="url(#clip2_137_398)">
<rect x="329.41" y="65.6377" width="307.176" height="363.664" fill="#FF5E00"/>
<path d="M619.986 398.151L620.032 398.175L620.02 398.187L619.986 398.153C618.952 399.491 618.086 400.964 617.418 402.539C617.408 402.564 617.398 402.585 617.389 402.61C616.745 404.146 616.287 405.779 616.048 407.485C616.045 407.494 616.045 407.506 616.045 407.516C615.917 408.421 615.852 409.345 615.852 410.284C615.852 411.082 615.9 411.871 615.992 412.645H596.799V407.485H613.465C613.497 407.272 613.533 407.064 613.572 406.853L597.515 402.551L598.851 397.565L615.106 401.92C615.181 401.753 615.259 401.589 615.336 401.424L600.749 393.005L603.329 388.536L618.134 397.079C618.25 396.939 618.369 396.798 618.492 396.66L606.362 384.537L610.014 380.886L622.338 393.208L623.64 394.51C622.27 395.56 621.041 396.784 619.986 398.151Z" fill="black"/>
</g>
<rect x="375.041" y="65.6377" width="265.049" height="299.03" fill="#31070F"/>
<path d="M543.335 173.405L543.335 1.14893L575.788 1.14893V173.405H543.335Z" fill="#998B7A"/>
<path d="M545.509 165.292L631.637 16.1135L659.742 32.3403L573.614 181.519L545.509 165.292Z" fill="#998B7A"/>
<path d="M551.448 159.352L700.626 73.2242L716.853 101.33L567.675 187.458L551.448 159.352Z" fill="#998B7A"/>
<path d="M559.561 157.178H731.818V189.632H559.561V157.178Z" fill="#998B7A"/>
<path d="M567.675 159.352L716.853 245.481L700.626 273.586L551.448 187.458L567.675 159.352Z" fill="#998B7A"/>
<path d="M573.614 165.292L659.742 314.47L631.637 330.697L545.509 181.519L573.614 165.292Z" fill="#998B7A"/>
<path d="M575.788 173.405V345.662H543.335L543.335 173.405H575.788Z" fill="#998B7A"/>
<path d="M573.614 181.519L487.486 330.697L459.38 314.47L545.509 165.292L573.614 181.519Z" fill="#998B7A"/>
<path d="M567.675 187.458L418.496 273.586L402.27 245.481L551.448 159.352L567.675 187.458Z" fill="#998B7A"/>
<path d="M559.561 189.632H387.305L387.305 157.178H559.561V189.632Z" fill="#998B7A"/>
<path d="M551.448 187.458L402.27 101.33L418.496 73.2243L567.675 159.352L551.448 187.458Z" fill="#998B7A"/>
<path d="M545.509 181.519L459.38 32.3403L487.486 16.1135L573.614 165.292L545.509 181.519Z" fill="#998B7A"/>
<rect x="543.333" y="282.413" width="218.016" height="32.4536" transform="rotate(-90 543.333 282.413)" fill="#FF5E00"/>
<rect x="543.333" y="345.66" width="27.8244" height="32.4537" transform="rotate(-90 543.333 345.66)" fill="#FF5E00"/>
<rect x="631.652" y="330.687" width="27.8244" height="32.4537" transform="rotate(-120.006 631.652 330.687)" fill="#FF5E00"/>
<rect x="426.376" y="115.241" width="27.8244" height="32.4537" transform="rotate(-150 426.376 115.241)" fill="#FF5E00"/>
<rect x="415.139" y="189.631" width="27.8244" height="32.4537" transform="rotate(180 415.139 189.631)" fill="#FF5E00"/>
<rect x="442.601" y="259.669" width="27.8244" height="32.4537" transform="rotate(150 442.601 259.669)" fill="#FF5E00"/>
<rect x="501.406" y="306.598" width="27.8244" height="32.4537" transform="rotate(120 501.406 306.598)" fill="#FF5E00"/>
<rect x="600.012" y="275.92" width="218.016" height="32.4536" transform="rotate(-120 600.012 275.92)" fill="#FF5E00"/>
<rect x="645.852" y="241.96" width="218.016" height="32.4536" transform="rotate(-150 645.852 241.96)" fill="#FF5E00"/>
<rect x="668.567" y="189.63" width="218.016" height="32.4536" transform="rotate(180 668.567 189.63)" fill="#FF5E00"/>
<rect x="662.075" y="132.955" width="218.016" height="32.4536" transform="rotate(150 662.075 132.955)" fill="#FF5E00"/>
<rect x="628.118" y="87.1133" width="218.016" height="32.4536" transform="rotate(120 628.118 87.1133)" fill="#FF5E00"/>
<rect x="451.149" y="65.6377" width="185.437" height="215.534" fill="#EEEEEE"/>
<path d="M461.763 75.5332H463.92V82.7294H472.569V75.5332H474.749V91.9414H472.569V84.628H463.92V91.9414H461.763V75.5332ZM489.423 87.7925C488.767 90.4881 486.634 92.3165 483.446 92.3165C479.391 92.3165 476.742 89.4567 476.742 85.4015C476.742 81.3229 479.391 78.4398 483.446 78.4398C487.009 78.4398 489.869 81.2526 489.447 86.1048H478.969C479.203 88.6129 480.751 90.3709 483.446 90.3709C485.556 90.3709 486.704 89.2458 487.173 87.7925H489.423ZM483.446 80.3853C480.891 80.3853 479.391 81.9558 479.016 84.253H487.384C487.126 81.9793 485.743 80.3853 483.446 80.3853ZM491.382 74.3611H493.492V91.9414H491.382V74.3611ZM495.937 96.6295V78.8148H498.047V81.112C498.891 79.4711 500.368 78.4398 502.501 78.4398C506.064 78.4398 508.408 81.3229 508.408 85.4015C508.408 89.4567 506.064 92.3165 502.501 92.3165C500.297 92.3165 498.844 91.2616 498.047 89.6911V96.6295H495.937ZM502.266 90.3709C504.657 90.3709 506.228 88.4488 506.228 85.4015C506.228 82.3074 504.657 80.3853 502.266 80.3853C499.477 80.3853 498.047 82.4949 498.047 85.4015C498.047 88.2847 499.477 90.3709 502.266 90.3709ZM518.822 91.9414L514.486 78.8148H516.783L520.299 90.1131L523.885 78.8148H526.182L521.846 91.9414C520.814 95.1762 519.947 96.6295 517.087 96.6295H515.493V94.8246H517.064C518.845 94.8246 519.174 93.5353 519.736 91.9414H518.822ZM533.417 92.3165C529.362 92.3165 526.713 89.4567 526.713 85.4015C526.713 81.3229 529.362 78.4398 533.417 78.4398C537.472 78.4398 540.121 81.3229 540.121 85.4015C540.121 89.4567 537.472 92.3165 533.417 92.3165ZM533.417 90.3709C536.136 90.3709 537.918 88.4488 537.918 85.4015C537.918 82.3074 536.136 80.3853 533.417 80.3853C530.698 80.3853 528.893 82.3074 528.893 85.4015C528.893 88.4488 530.698 90.3709 533.417 90.3709ZM550.784 85.4015V78.8148H552.893V91.9414H550.784V89.6911C550.198 91.0272 548.885 92.3165 546.377 92.3165C543.845 92.3165 541.923 90.91 541.923 86.9017V78.8148H544.033V86.597C544.033 89.0114 544.736 90.4647 546.869 90.4647C548.979 90.4647 550.784 88.5191 550.784 85.4015ZM557.402 84.8155V91.9414H555.293V78.8148H557.402V81.0885C557.918 79.729 559.16 78.4398 561.903 78.4398V80.6197C559.113 80.6197 557.402 81.698 557.402 84.8155ZM461.67 112.941V95.3611H463.779V102.089C464.623 100.448 466.1 99.4398 468.233 99.4398C471.796 99.4398 474.14 102.323 474.14 106.402C474.14 110.457 471.796 113.316 468.233 113.316C466.03 113.316 464.6 112.309 463.779 110.738V112.941H461.67ZM467.999 111.371C470.39 111.371 471.96 109.449 471.96 106.402C471.96 103.307 470.39 101.385 467.999 101.385C465.209 101.385 463.779 103.495 463.779 106.402C463.779 109.285 465.209 111.371 467.999 111.371ZM478.154 105.816V112.941H476.044V99.8148H478.154V102.089C478.669 100.729 479.912 99.4398 482.654 99.4398V101.62C479.865 101.62 478.154 102.698 478.154 105.816ZM489.744 99.4398C493.26 99.4398 495.065 101.76 495.065 105.44V112.941H492.932V111.043C492.229 112.449 490.987 113.316 488.971 113.316C486.392 113.316 484.376 111.84 484.376 109.214C484.376 105.089 488.947 104.597 492.909 104.854C492.768 102.675 491.807 101.362 489.744 101.362C487.541 101.362 486.369 102.721 486.369 104.433H484.119C484.119 101.854 486.088 99.4398 489.744 99.4398ZM486.603 109.097C486.603 110.668 487.588 111.488 489.463 111.488C491.62 111.488 492.932 109.894 492.932 107.761V106.448C488.713 106.12 486.603 107.316 486.603 109.097ZM497.356 99.8148H499.465V102.042C500.051 100.706 501.364 99.4398 503.895 99.4398C506.427 99.4398 508.326 100.846 508.326 104.854V112.941H506.216V105.159C506.216 102.721 505.513 101.292 503.38 101.292C501.27 101.292 499.465 103.214 499.465 106.331V112.941H497.356V99.8148ZM516.047 113.316C512.484 113.316 510.14 110.457 510.14 106.402C510.14 102.323 512.484 99.4398 516.047 99.4398C518.18 99.4398 519.657 100.471 520.501 102.112V95.3611H522.61V112.941H520.501V110.691C519.704 112.262 518.25 113.316 516.047 113.316ZM516.281 111.371C519.094 111.371 520.501 109.285 520.501 106.402C520.501 103.495 519.094 101.385 516.281 101.385C513.891 101.385 512.32 103.307 512.32 106.402C512.32 109.449 513.891 111.371 516.281 111.371ZM529.931 112.941V95.3611H532.04V102.089C532.884 100.448 534.361 99.4398 536.494 99.4398C540.057 99.4398 542.401 102.323 542.401 106.402C542.401 110.457 540.057 113.316 536.494 113.316C534.29 113.316 532.861 112.309 532.04 110.738V112.941H529.931ZM536.259 111.371C538.65 111.371 540.221 109.449 540.221 106.402C540.221 103.307 538.65 101.385 536.259 101.385C533.47 101.385 532.04 103.495 532.04 106.402C532.04 109.285 533.47 111.371 536.259 111.371ZM546.415 105.816V112.941H544.305V99.8148H546.415V102.089C546.93 100.729 548.173 99.4398 550.915 99.4398V101.62C548.126 101.62 546.415 102.698 546.415 105.816ZM563.956 108.792C563.3 111.488 561.167 113.316 557.979 113.316C553.924 113.316 551.275 110.457 551.275 106.402C551.275 102.323 553.924 99.4398 557.979 99.4398C561.542 99.4398 564.402 102.253 563.98 107.105H553.502C553.736 109.613 555.283 111.371 557.979 111.371C560.089 111.371 561.237 110.246 561.706 108.792H563.956ZM557.979 101.385C555.424 101.385 553.924 102.956 553.549 105.253H561.917C561.659 102.979 560.276 101.385 557.979 101.385ZM571.213 99.4398C574.729 99.4398 576.534 101.76 576.534 105.44V112.941H574.401V111.043C573.698 112.449 572.456 113.316 570.44 113.316C567.861 113.316 565.845 111.84 565.845 109.214C565.845 105.089 570.416 104.597 574.378 104.854C574.237 102.675 573.276 101.362 571.213 101.362C569.01 101.362 567.838 102.721 567.838 104.433H565.588C565.588 101.854 567.557 99.4398 571.213 99.4398ZM568.072 109.097C568.072 110.668 569.057 111.488 570.932 111.488C573.088 111.488 574.401 109.894 574.401 107.761V106.448C570.182 106.12 568.072 107.316 568.072 109.097ZM588.716 99.8148L584.356 104.995L589.373 112.941H586.888L582.973 106.613L580.981 108.98V112.941H578.871V95.3611H580.981V105.909L586.115 99.8148H588.716ZM461.037 120.815H463.24V117.533H465.35V120.815H467.952V122.62H465.35V130.613C465.35 131.691 465.866 132.136 466.803 132.136H468.327V133.941H466.78C464.412 133.941 463.24 132.605 463.24 130.613V122.62H461.037V120.815ZM472.341 127.331V133.941H470.231V116.361H472.341V123.065C472.927 121.729 474.239 120.44 476.771 120.44C479.302 120.44 481.201 121.846 481.201 125.854V133.941H479.091V126.159C479.091 123.721 478.388 122.292 476.255 122.292C474.145 122.292 472.341 124.214 472.341 127.331ZM485.616 126.816V133.941H483.507V120.815H485.616V123.089C486.132 121.729 487.374 120.44 490.117 120.44V122.62C487.327 122.62 485.616 123.698 485.616 126.816ZM497.181 134.316C493.126 134.316 490.477 131.457 490.477 127.402C490.477 123.323 493.126 120.44 497.181 120.44C501.236 120.44 503.885 123.323 503.885 127.402C503.885 131.457 501.236 134.316 497.181 134.316ZM497.181 132.371C499.9 132.371 501.681 130.449 501.681 127.402C501.681 124.307 499.9 122.385 497.181 122.385C494.462 122.385 492.657 124.307 492.657 127.402C492.657 130.449 494.462 132.371 497.181 132.371ZM514.547 127.402V120.815H516.657V133.941H514.547V131.691C513.961 133.027 512.649 134.316 510.14 134.316C507.609 134.316 505.687 132.91 505.687 128.902V120.815H507.796V128.597C507.796 131.011 508.5 132.465 510.633 132.465C512.742 132.465 514.547 130.519 514.547 127.402ZM524.425 133.848C520.862 133.848 518.518 131.222 518.518 127.167C518.518 123.089 520.862 120.44 524.425 120.44C526.558 120.44 528.035 121.33 528.879 122.924V120.815H530.988V133.238C530.988 136.942 528.691 139.005 525.292 139.005C521.12 139.005 519.573 136.731 519.198 134.504H521.401C521.706 136.192 523.042 137.059 525.292 137.059C527.59 137.059 528.879 135.864 528.879 133.238V131.433C528.058 132.91 526.629 133.848 524.425 133.848ZM524.66 131.902C527.472 131.902 528.879 130.05 528.879 127.167C528.879 124.261 527.472 122.385 524.66 122.385C522.269 122.385 520.698 124.073 520.698 127.167C520.698 130.214 522.269 131.902 524.66 131.902ZM535.497 127.331V133.941H533.387V116.361H535.497V123.065C536.083 121.729 537.395 120.44 539.927 120.44C542.459 120.44 544.357 121.846 544.357 125.854V133.941H542.248V126.159C542.248 123.721 541.544 122.292 539.411 122.292C537.302 122.292 535.497 124.214 535.497 127.331Z" fill="#201C1D"/>
<rect x="451.149" y="261.471" width="19.781" height="19.5879" fill="#FF5E00"/>
<rect width="103.933" height="19.8148" transform="translate(470.93 261.357)" fill="#C6D1E1"/>
<path d="M475.264 266.049H483.469V267.289H480.071V276.765H478.662V267.289H475.264V266.049ZM484.888 272.111V276.765H483.51V268.192H484.888V269.677C485.225 268.789 486.036 267.947 487.827 267.947V269.371C486.006 269.371 484.888 270.075 484.888 272.111ZM491.355 276.765L488.523 268.192H490.023L492.319 275.571L494.662 268.192H496.162L493.33 276.765C492.656 278.877 492.09 279.826 490.222 279.826H489.181V278.648H490.207C491.37 278.648 491.585 277.806 491.952 276.765H491.355ZM501.81 273.29C501.917 274.759 503.157 275.617 504.78 275.617C506.387 275.617 507.474 274.928 507.474 273.81C507.474 271.162 500.402 273.259 500.402 268.958C500.402 267.213 502.055 265.804 504.627 265.804C506.938 265.804 508.775 267.304 508.775 269.448H507.244C507.152 267.978 506.326 267.136 504.55 267.136C502.774 267.136 501.871 267.856 501.871 268.958C501.871 271.79 508.943 269.539 508.943 273.81C508.943 275.816 507.351 276.948 504.688 276.948C502.193 276.948 500.356 275.372 500.279 273.29H501.81ZM509.871 268.192H511.31V266.049H512.688V268.192H514.387V269.371H512.688V274.591C512.688 275.295 513.025 275.586 513.637 275.586H514.632V276.765H513.622C512.076 276.765 511.31 275.892 511.31 274.591V269.371H509.871V268.192ZM519.037 267.947C521.333 267.947 522.511 269.463 522.511 271.866V276.765H521.118V275.525C520.659 276.443 519.848 277.01 518.531 277.01C516.848 277.01 515.531 276.045 515.531 274.331C515.531 271.637 518.516 271.315 521.103 271.483C521.011 270.06 520.384 269.203 519.037 269.203C517.598 269.203 516.832 270.09 516.832 271.208H515.363C515.363 269.524 516.649 267.947 519.037 267.947ZM516.985 274.254C516.985 275.28 517.628 275.816 518.853 275.816C520.261 275.816 521.118 274.775 521.118 273.382V272.524C518.363 272.31 516.985 273.091 516.985 274.254ZM532.09 273.167C531.967 275.387 530.482 277.01 528.064 277.01C525.416 277.01 523.686 275.142 523.686 272.494C523.686 269.83 525.416 267.947 528.064 267.947C530.391 267.947 531.937 269.677 532.059 271.56H530.605C530.498 270.397 529.732 269.218 528.064 269.218C526.135 269.218 525.109 270.596 525.109 272.494C525.109 274.377 526.135 275.724 528.064 275.724C529.855 275.724 530.559 274.484 530.666 273.167H532.09ZM539.765 268.192L536.918 271.575L540.194 276.765H538.571L536.015 272.632L534.714 274.178V276.765H533.336V265.284H534.714V272.172L538.066 268.192H539.765ZM547.656 266.049H549.539L553.228 276.765H551.713L550.855 274.162H546.416L545.59 276.765H544.089L547.656 266.049ZM546.814 272.922H550.457L548.605 267.335L546.814 272.922ZM557.456 277.01C555.129 277.01 553.599 275.142 553.599 272.494C553.599 269.83 555.129 267.947 557.456 267.947C558.849 267.947 559.814 268.621 560.365 269.692V265.284H561.742V276.765H560.365V275.295C559.844 276.321 558.895 277.01 557.456 277.01ZM557.609 275.739C559.446 275.739 560.365 274.377 560.365 272.494C560.365 270.596 559.446 269.218 557.609 269.218C556.048 269.218 555.022 270.473 555.022 272.494C555.022 274.484 556.048 275.739 557.609 275.739ZM564.409 273.994C564.5 275.142 565.48 275.77 566.735 275.77C567.96 275.77 568.771 275.295 568.771 274.3C568.771 272.31 563.169 274.009 563.169 270.58C563.169 269.203 564.516 267.947 566.613 267.947C568.465 267.947 570.011 269.141 570.011 270.886H568.741C568.664 269.723 567.73 269.126 566.552 269.126C565.22 269.126 564.531 269.738 564.531 270.58C564.531 272.754 570.149 270.917 570.149 274.3C570.149 275.923 568.817 276.948 566.659 276.948C564.638 276.948 563.123 275.678 563.061 273.994H564.409Z" fill="#201C1D"/>
<circle cx="461.041" cy="271.151" r="2.42349" fill="#6E1527"/>
</g>
<line x1="777.834" y1="87.5642" x2="638.739" y2="87.5642" stroke="#FF5E00" stroke-width="0.683005"/>
<line x1="777.834" y1="268.606" x2="638.739" y2="268.606" stroke="#FF5E00" stroke-width="0.683005"/>
<line x1="777.834" y1="369.222" x2="636.589" y2="369.222" stroke="#FF5E00" stroke-width="0.683005"/>
<line x1="777.834" y1="309.079" x2="636.589" y2="309.079" stroke="#FF5E00" stroke-width="0.683005"/>
<path d="M788.858 84.1453H789.509V89.6496H792.426V90.2227H788.858V84.1453ZM794.759 85.2218C796.044 85.2218 796.687 86.0814 796.687 87.4444V90.2227H796.053V89.476C795.784 90.023 795.323 90.3616 794.516 90.3616C793.561 90.3616 792.797 89.8146 792.797 88.8422C792.797 87.2881 794.533 87.1058 796.044 87.2534C795.992 86.3244 795.575 85.8122 794.759 85.8122C793.882 85.8122 793.405 86.3592 793.405 87.0711H792.719C792.719 86.1334 793.431 85.2218 794.759 85.2218ZM793.457 88.8075C793.457 89.476 793.856 89.8406 794.681 89.8406C795.593 89.8406 796.053 89.094 796.053 88.3039V87.757C794.342 87.6007 793.457 88.0782 793.457 88.8075ZM797.239 91.9591V91.4208H797.838C798.542 91.4208 798.663 90.8825 798.898 90.2227H798.594L796.944 85.3607H797.639L799.063 89.7191L800.486 85.3607H801.181L799.531 90.2227C799.149 91.4208 798.819 91.9591 797.856 91.9591H797.239ZM805.981 88.6859C805.729 89.6844 804.957 90.3616 803.776 90.3616C802.274 90.3616 801.293 89.3024 801.293 87.8004C801.293 86.2897 802.274 85.2218 803.776 85.2218C805.096 85.2218 806.12 86.2463 805.999 88.0088H801.962C802.04 89.0506 802.691 89.7712 803.776 89.7712C804.662 89.7712 805.122 89.2937 805.313 88.6859H805.981ZM803.776 85.8122C802.743 85.8122 802.1 86.472 801.979 87.4357H805.4C805.278 86.4547 804.696 85.8122 803.776 85.8122ZM807.27 87.4965V90.2227H806.637V85.3607H807.27V86.2376C807.47 85.7254 807.939 85.2218 808.981 85.2218V85.8903C807.948 85.8903 807.27 86.3418 807.27 87.4965ZM813.684 90.3616C811.922 90.3616 811.114 88.9377 811.114 87.1753C811.114 85.4302 811.922 84.0064 813.684 84.0064C815.438 84.0064 816.245 85.4302 816.245 87.1753C816.245 88.9377 815.438 90.3616 813.684 90.3616ZM813.684 89.7365C814.865 89.7365 815.568 88.6512 815.568 87.1753C815.568 85.7167 814.865 84.6315 813.684 84.6315C812.495 84.6315 811.791 85.7167 811.791 87.1753C811.791 88.6512 812.495 89.7365 813.684 89.7365ZM816.62 89.6496H818.079V84.7183H816.62V84.1453H818.73V89.6496H820.189V90.2227H816.62V89.6496Z" fill="white"/>
<path d="M788.858 305.662H789.509V311.166H792.426V311.739H788.858V305.662ZM794.759 306.738C796.044 306.738 796.687 307.598 796.687 308.961V311.739H796.053V310.993C795.784 311.54 795.323 311.878 794.516 311.878C793.561 311.878 792.797 311.331 792.797 310.359C792.797 308.805 794.533 308.622 796.044 308.77C795.992 307.841 795.575 307.329 794.759 307.329C793.882 307.329 793.405 307.876 793.405 308.588H792.719C792.719 307.65 793.431 306.738 794.759 306.738ZM793.457 310.324C793.457 310.993 793.856 311.357 794.681 311.357C795.593 311.357 796.053 310.611 796.053 309.821V309.274C794.342 309.117 793.457 309.595 793.457 310.324ZM797.239 313.476V312.937H797.838C798.542 312.937 798.663 312.399 798.898 311.739H798.594L796.944 306.877H797.639L799.063 311.236L800.486 306.877H801.181L799.531 311.739C799.149 312.937 798.819 313.476 797.856 313.476H797.239ZM805.981 310.203C805.729 311.201 804.957 311.878 803.776 311.878C802.274 311.878 801.293 310.819 801.293 309.317C801.293 307.806 802.274 306.738 803.776 306.738C805.096 306.738 806.12 307.763 805.999 309.525H801.962C802.04 310.567 802.691 311.288 803.776 311.288C804.662 311.288 805.122 310.81 805.313 310.203H805.981ZM803.776 307.329C802.743 307.329 802.1 307.989 801.979 308.952H805.4C805.278 307.971 804.696 307.329 803.776 307.329ZM807.27 309.013V311.739H806.637V306.877H807.27V307.754C807.47 307.242 807.939 306.738 808.981 306.738V307.407C807.948 307.407 807.27 307.858 807.27 309.013ZM813.684 311.878C811.922 311.878 811.114 310.454 811.114 308.692C811.114 306.947 811.922 305.523 813.684 305.523C815.438 305.523 816.245 306.947 816.245 308.692C816.245 310.454 815.438 311.878 813.684 311.878ZM813.684 311.253C814.865 311.253 815.568 310.168 815.568 308.692C815.568 307.233 814.865 306.148 813.684 306.148C812.495 306.148 811.791 307.233 811.791 308.692C811.791 310.168 812.495 311.253 813.684 311.253ZM816.707 311.739C816.751 308.701 820.536 309.161 820.536 307.364C820.536 306.634 819.954 306.148 819.077 306.148C817.992 306.148 817.497 306.756 817.445 307.589H816.777C816.777 306.365 817.732 305.523 819.034 305.523C820.51 305.523 821.213 306.417 821.213 307.329C821.213 309.525 818.053 309.143 817.541 311.149H821.231V311.739H816.707Z" fill="white"/>
<path opacity="0.7" d="M794.432 326.212C794.31 327.784 793.364 328.825 791.654 328.825C789.718 328.825 788.65 327.402 788.65 325.639C788.65 323.894 789.718 322.47 791.654 322.47C793.286 322.47 794.215 323.399 794.397 324.858H793.711C793.59 324.076 793.13 323.095 791.654 323.095C790.117 323.095 789.327 324.267 789.327 325.639C789.327 327.028 790.117 328.2 791.654 328.2C793.225 328.2 793.694 327.106 793.763 326.212H794.432ZM795.712 325.96V328.687H795.078V323.825H795.712V324.701C795.912 324.189 796.38 323.686 797.422 323.686V324.354C796.389 324.354 795.712 324.806 795.712 325.96ZM799.929 328.825C798.427 328.825 797.446 327.766 797.446 326.264C797.446 324.754 798.427 323.686 799.929 323.686C801.431 323.686 802.412 324.754 802.412 326.264C802.412 327.766 801.431 328.825 799.929 328.825ZM799.929 328.235C800.988 328.235 801.752 327.506 801.752 326.264C801.752 325.014 800.988 324.276 799.929 324.276C798.87 324.276 798.106 325.014 798.106 326.264C798.106 327.506 798.87 328.235 799.929 328.235ZM803.044 330.423V323.825H803.678V324.78C803.991 324.111 804.572 323.686 805.414 323.686C806.708 323.686 807.602 324.754 807.602 326.264C807.602 327.766 806.708 328.825 805.414 328.825C804.546 328.825 803.973 328.391 803.678 327.749V330.423H803.044ZM805.371 328.235C806.3 328.235 806.942 327.506 806.942 326.264C806.942 325.014 806.3 324.276 805.371 324.276C804.251 324.276 803.678 325.101 803.678 326.264C803.678 327.419 804.251 328.235 805.371 328.235ZM808.24 330.423V323.825H808.873V324.78C809.186 324.111 809.768 323.686 810.61 323.686C811.903 323.686 812.798 324.754 812.798 326.264C812.798 327.766 811.903 328.825 810.61 328.825C809.742 328.825 809.168 328.391 808.873 327.749V330.423H808.24ZM810.566 328.235C811.495 328.235 812.138 327.506 812.138 326.264C812.138 325.014 811.495 324.276 810.566 324.276C809.446 324.276 808.873 325.101 808.873 326.264C808.873 327.419 809.446 328.235 810.566 328.235ZM817.923 327.15C817.672 328.148 816.899 328.825 815.718 328.825C814.216 328.825 813.235 327.766 813.235 326.264C813.235 324.754 814.216 323.686 815.718 323.686C817.038 323.686 818.062 324.71 817.941 326.473H813.904C813.982 327.514 814.633 328.235 815.718 328.235C816.604 328.235 817.064 327.758 817.255 327.15H817.923ZM815.718 324.276C814.685 324.276 814.043 324.936 813.921 325.9H817.342C817.22 324.919 816.638 324.276 815.718 324.276ZM820.567 328.825C819.274 328.825 818.38 327.766 818.38 326.264C818.38 324.754 819.274 323.686 820.567 323.686C821.41 323.686 821.991 324.111 822.304 324.78V322.175H822.938V328.687H822.304V327.749C822.009 328.391 821.436 328.825 820.567 328.825ZM820.611 328.235C821.731 328.235 822.304 327.419 822.304 326.264C822.304 325.101 821.731 324.276 820.611 324.276C819.682 324.276 819.039 325.014 819.039 326.264C819.039 327.506 819.682 328.235 820.611 328.235ZM827.499 328.652C826.205 328.652 825.311 327.679 825.311 326.177C825.311 324.667 826.205 323.686 827.499 323.686C828.341 323.686 828.923 324.068 829.235 324.71V323.825H829.869V328.426C829.869 329.798 829.061 330.562 827.803 330.562C826.257 330.562 825.702 329.72 825.563 328.895H826.231C826.335 329.581 826.856 329.971 827.803 329.971C828.758 329.971 829.235 329.468 829.235 328.426V327.645C828.94 328.261 828.367 328.652 827.499 328.652ZM827.542 328.061C828.662 328.061 829.235 327.332 829.235 326.177C829.235 325.014 828.662 324.276 827.542 324.276C826.613 324.276 825.971 324.927 825.971 326.177C825.971 327.419 826.613 328.061 827.542 328.061ZM831.322 325.96V328.687H830.688V323.825H831.322V324.701C831.522 324.189 831.991 323.686 833.033 323.686V324.354C831.999 324.354 831.322 324.806 831.322 325.96ZM835.302 323.686C836.587 323.686 837.229 324.545 837.229 325.908V328.687H836.596V327.94C836.326 328.487 835.866 328.825 835.059 328.825C834.104 328.825 833.34 328.278 833.34 327.306C833.34 325.752 835.076 325.57 836.587 325.717C836.535 324.788 836.118 324.276 835.302 324.276C834.425 324.276 833.948 324.823 833.948 325.535H833.262C833.262 324.597 833.974 323.686 835.302 323.686ZM834 327.271C834 327.94 834.399 328.305 835.224 328.305C836.135 328.305 836.596 327.558 836.596 326.768V326.221C834.885 326.065 834 326.542 834 327.271ZM838.01 330.423V323.825H838.644V324.78C838.957 324.111 839.538 323.686 840.38 323.686C841.674 323.686 842.568 324.754 842.568 326.264C842.568 327.766 841.674 328.825 840.38 328.825C839.512 328.825 838.939 328.391 838.644 327.749V330.423H838.01ZM840.337 328.235C841.266 328.235 841.908 327.506 841.908 326.264C841.908 325.014 841.266 324.276 840.337 324.276C839.217 324.276 838.644 325.101 838.644 326.264C838.644 327.419 839.217 328.235 840.337 328.235ZM843.839 326.221V328.687H843.206V322.175H843.839V324.675C844.056 324.172 844.569 323.686 845.506 323.686C846.444 323.686 847.165 324.207 847.165 325.691V328.687H846.531V325.804C846.531 324.797 846.209 324.241 845.376 324.241C844.508 324.241 843.839 325.066 843.839 326.221ZM847.909 322.175H848.682V322.982H847.909V322.175ZM847.979 323.825H848.612V328.687H847.979V323.825ZM854.051 326.646C853.964 327.905 853.139 328.825 851.767 328.825C850.265 328.825 849.284 327.766 849.284 326.264C849.284 324.754 850.265 323.686 851.767 323.686C853.087 323.686 853.947 324.667 854.033 325.735H853.374C853.287 325.014 852.801 324.276 851.767 324.276C850.613 324.276 849.944 325.101 849.944 326.264C849.944 327.419 850.613 328.235 851.767 328.235C852.896 328.235 853.321 327.462 853.408 326.646H854.051Z" fill="white"/>
<path opacity="0.7" d="M788.858 98.157H792.999V98.7474H789.509V101.057H792.652V101.647H789.509V104.234H788.858V98.157ZM797.358 104.234H796.724V103.384C796.507 103.887 795.995 104.373 795.057 104.373C794.12 104.373 793.399 103.852 793.399 102.368V99.3725H794.033V102.255C794.033 103.262 794.354 103.818 795.187 103.818C796.056 103.818 796.724 102.993 796.724 101.838V99.3725H797.358V104.234ZM798.171 99.3725H798.805V100.223C799.022 99.7197 799.534 99.2336 800.471 99.2336C801.409 99.2336 802.13 99.7545 802.13 101.239V104.234H801.496V101.352C801.496 100.345 801.175 99.7892 800.341 99.7892C799.473 99.7892 798.805 100.614 798.805 101.769V104.234H798.171V99.3725ZM807.492 102.194C807.405 103.453 806.581 104.373 805.209 104.373C803.707 104.373 802.726 103.314 802.726 101.812C802.726 100.301 803.707 99.2336 805.209 99.2336C806.529 99.2336 807.388 100.215 807.475 101.283H806.815C806.728 100.562 806.242 99.8239 805.209 99.8239C804.054 99.8239 803.386 100.649 803.386 101.812C803.386 102.967 804.054 103.783 805.209 103.783C806.338 103.783 806.763 103.01 806.85 102.194H807.492ZM807.641 99.3725H808.543V98.157H809.177V99.3725H810.202V99.9107H809.177V103.088C809.177 103.522 809.377 103.696 809.733 103.696H810.341V104.234H809.724C808.934 104.234 808.543 103.74 808.543 103.088V99.9107H807.641V99.3725ZM810.883 97.7229H811.655V98.5303H810.883V97.7229ZM810.952 99.3725H811.586V104.234H810.952V99.3725ZM814.741 104.373C813.239 104.373 812.258 103.314 812.258 101.812C812.258 100.301 813.239 99.2336 814.741 99.2336C816.243 99.2336 817.224 100.301 817.224 101.812C817.224 103.314 816.243 104.373 814.741 104.373ZM814.741 103.783C815.8 103.783 816.564 103.054 816.564 101.812C816.564 100.562 815.8 99.8239 814.741 99.8239C813.682 99.8239 812.918 100.562 812.918 101.812C812.918 103.054 813.682 103.783 814.741 103.783ZM817.839 99.3725H818.473V100.223C818.69 99.7197 819.202 99.2336 820.14 99.2336C821.078 99.2336 821.798 99.7545 821.798 101.239V104.234H821.164V101.352C821.164 100.345 820.843 99.7892 820.01 99.7892C819.141 99.7892 818.473 100.614 818.473 101.769V104.234H817.839V99.3725ZM824.521 99.2336C825.806 99.2336 826.449 100.093 826.449 101.456V104.234H825.815V103.488C825.546 104.035 825.086 104.373 824.278 104.373C823.323 104.373 822.559 103.826 822.559 102.854C822.559 101.3 824.296 101.118 825.806 101.265C825.754 100.336 825.337 99.8239 824.521 99.8239C823.644 99.8239 823.167 100.371 823.167 101.083H822.481C822.481 100.145 823.193 99.2336 824.521 99.2336ZM823.219 102.819C823.219 103.488 823.618 103.852 824.443 103.852C825.355 103.852 825.815 103.106 825.815 102.316V101.769C824.105 101.612 823.219 102.09 823.219 102.819ZM827.23 97.7229H827.863V104.234H827.23V97.7229ZM830.196 99.3725H831.099V98.157H831.733V99.3725H832.757V99.9107H831.733V103.088C831.733 103.522 831.932 103.696 832.288 103.696H832.896V104.234H832.28C831.49 104.234 831.099 103.74 831.099 103.088V99.9107H830.196V99.3725ZM837.681 102.698C837.429 103.696 836.657 104.373 835.476 104.373C833.974 104.373 832.993 103.314 832.993 101.812C832.993 100.301 833.974 99.2336 835.476 99.2336C836.795 99.2336 837.82 100.258 837.698 102.02H833.661C833.739 103.062 834.391 103.783 835.476 103.783C836.361 103.783 836.821 103.305 837.012 102.698H837.681ZM835.476 99.8239C834.443 99.8239 833.8 100.484 833.679 101.447H837.099C836.978 100.466 836.396 99.8239 835.476 99.8239ZM837.823 99.3725H838.544L839.724 101.222L840.896 99.3725H841.617L840.08 101.786L841.643 104.234H840.923L839.724 102.35L838.518 104.234H837.797L839.36 101.786L837.823 99.3725ZM842 99.3725H842.903V98.157H843.537V99.3725H844.562V99.9107H843.537V103.088C843.537 103.522 843.737 103.696 844.093 103.696H844.701V104.234H844.084C843.294 104.234 842.903 103.74 842.903 103.088V99.9107H842V99.3725ZM847.072 97.7229H847.706V104.234H847.072V97.7229ZM850.464 99.2336C851.749 99.2336 852.392 100.093 852.392 101.456V104.234H851.758V103.488C851.489 104.035 851.029 104.373 850.221 104.373C849.266 104.373 848.502 103.826 848.502 102.854C848.502 101.3 850.238 101.118 851.749 101.265C851.697 100.336 851.28 99.8239 850.464 99.8239C849.587 99.8239 849.11 100.371 849.11 101.083H848.424C848.424 100.145 849.136 99.2336 850.464 99.2336ZM849.162 102.819C849.162 103.488 849.561 103.852 850.386 103.852C851.298 103.852 851.758 103.106 851.758 102.316V101.769C850.047 101.612 849.162 102.09 849.162 102.819ZM852.944 105.971V105.432H853.543C854.247 105.432 854.368 104.894 854.603 104.234H854.299L852.649 99.3725H853.344L854.768 103.731L856.191 99.3725H856.886L855.236 104.234C854.854 105.432 854.525 105.971 853.561 105.971H852.944ZM861.686 102.698C861.435 103.696 860.662 104.373 859.481 104.373C857.979 104.373 856.998 103.314 856.998 101.812C856.998 100.301 857.979 99.2336 859.481 99.2336C860.801 99.2336 861.825 100.258 861.704 102.02H857.667C857.745 103.062 858.396 103.783 859.481 103.783C860.367 103.783 860.827 103.305 861.018 102.698H861.686ZM859.481 99.8239C858.448 99.8239 857.806 100.484 857.684 101.447H861.105C860.983 100.466 860.401 99.8239 859.481 99.8239ZM862.976 101.508V104.234H862.342V99.3725H862.976V100.249C863.175 99.7371 863.644 99.2336 864.686 99.2336V99.9021C863.653 99.9021 862.976 100.354 862.976 101.508Z" fill="white"/>
<path opacity="0.7" d="M794.432 271.29C794.31 272.862 793.364 273.904 791.654 273.904C789.718 273.904 788.65 272.48 788.65 270.717C788.65 268.972 789.718 267.548 791.654 267.548C793.286 267.548 794.215 268.477 794.397 269.936H793.711C793.59 269.155 793.13 268.173 791.654 268.173C790.117 268.173 789.327 269.346 789.327 270.717C789.327 272.106 790.117 273.278 791.654 273.278C793.225 273.278 793.694 272.185 793.763 271.29H794.432ZM794.445 267.687H798.969V268.26H797.033V273.765H796.381V268.26H794.445V267.687ZM800.682 267.687H801.507L803.686 273.765H802.974L802.444 272.228H799.805L799.301 273.765H798.589L800.682 267.687ZM799.996 271.655H802.244L801.098 268.321L799.996 271.655Z" fill="white"/>
<path opacity="0.7" d="M789.431 388.922C789.492 389.842 790.256 390.372 791.263 390.372C792.288 390.372 792.947 389.92 792.947 389.217C792.947 387.585 788.78 388.887 788.78 386.465C788.78 385.492 789.7 384.676 791.176 384.676C792.479 384.676 793.529 385.518 793.529 386.743H792.817C792.765 385.822 792.253 385.301 791.133 385.301C790.022 385.301 789.457 385.753 789.457 386.465C789.457 388.201 793.625 386.821 793.625 389.217C793.625 390.354 792.722 390.997 791.211 390.997C789.796 390.997 788.754 390.103 788.711 388.922H789.431ZM796.599 391.031C795.097 391.031 794.116 389.972 794.116 388.47C794.116 386.96 795.097 385.892 796.599 385.892C798.101 385.892 799.082 386.96 799.082 388.47C799.082 389.972 798.101 391.031 796.599 391.031ZM796.599 390.441C797.658 390.441 798.422 389.712 798.422 388.47C798.422 387.22 797.658 386.482 796.599 386.482C795.54 386.482 794.776 387.22 794.776 388.47C794.776 389.712 795.54 390.441 796.599 390.441ZM799.714 384.381H800.348V390.893H799.714V384.381ZM801.179 384.381H801.952V385.189H801.179V384.381ZM801.248 386.031H801.882V390.893H801.248V386.031ZM804.742 391.031C803.448 391.031 802.554 389.972 802.554 388.47C802.554 386.96 803.448 385.892 804.742 385.892C805.584 385.892 806.166 386.317 806.479 386.986V384.381H807.112V390.893H806.479V389.955C806.183 390.597 805.61 391.031 804.742 391.031ZM804.786 390.441C805.905 390.441 806.479 389.625 806.479 388.47C806.479 387.307 805.905 386.482 804.786 386.482C803.857 386.482 803.214 387.22 803.214 388.47C803.214 389.712 803.857 390.441 804.786 390.441ZM809.685 390.893V384.381H810.319V386.986C810.632 386.308 811.213 385.892 812.055 385.892C813.349 385.892 814.243 386.96 814.243 388.47C814.243 389.972 813.349 391.031 812.055 391.031C811.187 391.031 810.614 390.606 810.319 389.964V390.893H809.685ZM812.012 390.441C812.941 390.441 813.583 389.712 813.583 388.47C813.583 387.22 812.941 386.482 812.012 386.482C810.892 386.482 810.319 387.307 810.319 388.47C810.319 389.625 810.892 390.441 812.012 390.441ZM814.881 384.381H815.514V390.893H814.881V384.381ZM818.629 391.031C817.127 391.031 816.146 389.972 816.146 388.47C816.146 386.96 817.127 385.892 818.629 385.892C820.131 385.892 821.112 386.96 821.112 388.47C821.112 389.972 820.131 391.031 818.629 391.031ZM818.629 390.441C819.688 390.441 820.452 389.712 820.452 388.47C820.452 387.22 819.688 386.482 818.629 386.482C817.569 386.482 816.805 387.22 816.805 388.47C816.805 389.712 817.569 390.441 818.629 390.441ZM826.311 388.852C826.224 390.111 825.399 391.031 824.027 391.031C822.525 391.031 821.544 389.972 821.544 388.47C821.544 386.96 822.525 385.892 824.027 385.892C825.347 385.892 826.207 386.873 826.293 387.941H825.634C825.547 387.22 825.061 386.482 824.027 386.482C822.873 386.482 822.204 387.307 822.204 388.47C822.204 389.625 822.873 390.441 824.027 390.441C825.156 390.441 825.582 389.668 825.668 388.852H826.311ZM830.447 386.031L828.806 387.932L830.733 390.893H829.952L828.372 388.436L827.582 389.356V390.893H826.948V384.381H827.582V388.427L829.648 386.031H830.447ZM837.598 388.852C837.511 390.111 836.686 391.031 835.315 391.031C833.813 391.031 832.832 389.972 832.832 388.47C832.832 386.96 833.813 385.892 835.315 385.892C836.634 385.892 837.494 386.873 837.581 387.941H836.921C836.834 387.22 836.348 386.482 835.315 386.482C834.16 386.482 833.491 387.307 833.491 388.47C833.491 389.625 834.16 390.441 835.315 390.441C836.443 390.441 836.869 389.668 836.956 388.852H837.598ZM840.501 391.031C839 391.031 838.018 389.972 838.018 388.47C838.018 386.96 839 385.892 840.501 385.892C842.003 385.892 842.985 386.96 842.985 388.47C842.985 389.972 842.003 391.031 840.501 391.031ZM840.501 390.441C841.561 390.441 842.325 389.712 842.325 388.47C842.325 387.22 841.561 386.482 840.501 386.482C839.442 386.482 838.678 387.22 838.678 388.47C838.678 389.712 839.442 390.441 840.501 390.441ZM843.617 384.381H844.251V390.893H843.617V384.381ZM847.365 391.031C845.863 391.031 844.882 389.972 844.882 388.47C844.882 386.96 845.863 385.892 847.365 385.892C848.867 385.892 849.848 386.96 849.848 388.47C849.848 389.972 848.867 391.031 847.365 391.031ZM847.365 390.441C848.424 390.441 849.188 389.712 849.188 388.47C849.188 387.22 848.424 386.482 847.365 386.482C846.306 386.482 845.542 387.22 845.542 388.47C845.542 389.712 846.306 390.441 847.365 390.441ZM851.114 388.166V390.893H850.48V386.031H851.114V386.908C851.313 386.395 851.782 385.892 852.824 385.892V386.56C851.791 386.56 851.114 387.012 851.114 388.166Z" fill="white"/>
<path d="M788.858 370.803H789.509V376.308H792.426V376.881H788.858V370.803ZM794.759 371.88C796.044 371.88 796.687 372.74 796.687 374.103V376.881H796.053V376.134C795.784 376.681 795.323 377.02 794.516 377.02C793.561 377.02 792.797 376.473 792.797 375.5C792.797 373.946 794.533 373.764 796.044 373.912C795.992 372.983 795.575 372.47 794.759 372.47C793.882 372.47 793.405 373.017 793.405 373.729H792.719C792.719 372.792 793.431 371.88 794.759 371.88ZM793.457 375.466C793.457 376.134 793.856 376.499 794.681 376.499C795.593 376.499 796.053 375.752 796.053 374.962V374.415C794.342 374.259 793.457 374.736 793.457 375.466ZM797.239 378.617V378.079H797.838C798.542 378.079 798.663 377.541 798.898 376.881H798.594L796.944 372.019H797.639L799.063 376.377L800.486 372.019H801.181L799.531 376.881C799.149 378.079 798.819 378.617 797.856 378.617H797.239ZM805.981 375.344C805.729 376.343 804.957 377.02 803.776 377.02C802.274 377.02 801.293 375.961 801.293 374.459C801.293 372.948 802.274 371.88 803.776 371.88C805.096 371.88 806.12 372.905 805.999 374.667H801.962C802.04 375.709 802.691 376.429 803.776 376.429C804.662 376.429 805.122 375.952 805.313 375.344H805.981ZM803.776 372.47C802.743 372.47 802.1 373.13 801.979 374.094H805.4C805.278 373.113 804.696 372.47 803.776 372.47ZM807.27 374.155V376.881H806.637V372.019H807.27V372.896C807.47 372.384 807.939 371.88 808.981 371.88V372.549C807.948 372.549 807.27 373 807.27 374.155ZM813.684 377.02C811.922 377.02 811.114 375.596 811.114 373.833C811.114 372.088 811.922 370.665 813.684 370.665C815.438 370.665 816.245 372.088 816.245 373.833C816.245 375.596 815.438 377.02 813.684 377.02ZM813.684 376.395C814.865 376.395 815.568 375.309 815.568 373.833C815.568 372.375 814.865 371.29 813.684 371.29C812.495 371.29 811.791 372.375 811.791 373.833C811.791 375.309 812.495 376.395 813.684 376.395ZM818.539 373.495H819.147C820.241 373.495 820.718 373.174 820.718 372.453C820.718 371.837 820.154 371.29 819.156 371.29C818.209 371.29 817.497 371.845 817.445 372.731H816.777C816.777 371.507 817.897 370.665 819.138 370.665C820.631 370.665 821.396 371.481 821.396 372.453C821.396 372.983 821.074 373.504 820.397 373.773C821.083 373.998 821.439 374.511 821.439 375.162C821.439 376.204 820.579 377.02 819.147 377.02C817.801 377.02 816.777 376.178 816.777 374.953H817.445C817.497 375.787 818.201 376.395 819.147 376.395C820.171 376.395 820.762 375.822 820.762 375.144C820.762 374.441 820.145 374.103 819.173 374.103H818.539V373.495Z" fill="white"/>
<rect opacity="0.64" x="460.951" y="77.0879" width="164.539" height="191.14" stroke="white" stroke-dasharray="2.25 2.25"/>
<rect opacity="0.64" x="451.051" y="66.1377" width="185.035" height="214.421" stroke="white" stroke-dasharray="2.25 2.25"/>
</g>
<defs>
<clipPath id="clip0_137_398">
<rect width="966" height="500" fill="white"/>
</clipPath>
<clipPath id="clip1_137_398">
<rect width="307.179" height="363.664" fill="white" transform="translate(329.41 65.6377)"/>
</clipPath>
<clipPath id="clip2_137_398">
<rect width="307.176" height="363.664" fill="white" transform="translate(329.41 65.6377)"/>
</clipPath>
</defs>
</svg>
