<svg width="966" height="500" viewBox="0 0 966 500" fill="none" xmlns="http://www.w3.org/2000/svg">
<g clip-path="url(#clip0_502_60759)">
<g clip-path="url(#clip1_502_60759)">
<rect width="478" height="245" transform="translate(0 255)" fill="#E5E5E5"/>
<g clip-path="url(#clip2_502_60759)">
<g clip-path="url(#clip3_502_60759)">
<path d="M153.456 380.311C156.104 380.311 158.034 379.295 158.034 377.413C158.034 372.745 144.036 377.149 144.036 367.776C144.036 364.124 147.517 361.037 153.116 361.037C158.034 361.037 162.044 364.237 162.044 368.83H157.617C157.428 366.345 155.991 364.877 152.964 364.877C149.976 364.877 148.425 366.082 148.425 367.776C148.425 372.858 162.384 368.114 162.384 377.413C162.384 381.704 158.979 384.114 153.229 384.114C147.895 384.114 143.923 380.763 143.771 376.283H148.235C148.462 378.806 150.619 380.311 153.456 380.311ZM163.519 365.404H166.016V361.564H170.139V365.404H173.279V368.905H170.139V380.236H171.993H173.809V383.737H171.955L166.016 383.7V368.905H163.557L163.519 365.404ZM178.765 374.589C178.765 378.053 180.429 380.537 183.455 380.537C186.785 380.537 188.411 377.977 188.411 374.589C188.411 371.201 186.785 368.566 183.455 368.566C180.429 368.566 178.765 371.088 178.765 374.589ZM182.812 364.877C185.423 364.877 187.239 365.931 188.411 367.776V365.404H192.535V383.737H188.411V381.403C187.314 383.173 185.536 384.264 182.812 384.264C177.667 384.264 174.528 380.274 174.528 374.589C174.528 368.905 177.667 364.877 182.812 364.877ZM203.657 384.264C197.982 384.264 194.275 380.274 194.275 374.589C194.275 368.905 197.982 364.877 203.657 364.877C208.688 364.877 212.207 368.566 212.244 372.594H207.932C207.818 370.599 206.608 368.604 203.657 368.604C200.063 368.604 198.512 371.201 198.512 374.589C198.512 377.977 200.063 380.5 203.657 380.5C206.721 380.5 207.932 378.354 208.045 376.058H212.32C212.244 380.801 208.877 384.264 203.657 384.264ZM213.909 361.564H218.07V372.745L224.01 365.404H228.89L222.913 372.782L229.495 383.737H224.88L220.416 375.794L218.07 378.73V383.737H213.909V361.564ZM252.382 372.632C252.382 368.867 250.302 364.877 245.497 364.877C240.655 364.877 238.499 368.867 238.499 372.632C238.499 376.396 240.655 380.424 245.497 380.424C250.302 380.424 252.382 376.396 252.382 372.632ZM234.11 372.632C234.11 366.345 238.158 361.037 245.497 361.037C252.798 361.037 256.43 366.345 256.846 372.632C256.43 378.994 252.798 384.264 245.497 384.264C238.158 384.264 234.11 378.994 234.11 372.632ZM256.884 365.404H261.31L265.434 380.048L269.595 365.404H274.021L268.271 383.737H262.634L256.884 365.404ZM278.031 372.557H287.338C287.111 370.373 285.749 368.566 283.025 368.566C280.15 368.566 278.599 370.222 278.031 372.557ZM283.025 384.264C277.313 384.264 273.605 380.274 273.605 374.589C273.605 368.905 277.313 364.877 283.025 364.877C288.019 364.877 292.293 368.905 291.385 375.945H277.956C278.296 378.617 279.885 380.537 283.025 380.537C285.181 380.537 286.543 379.408 287.111 377.902H291.423C290.629 381.667 287.489 384.264 283.025 384.264ZM293.163 365.404V383.737H297.287V368.905H303.226V365.404H293.163ZM312.608 359.192C308.636 359.192 306.745 361.037 306.745 364.312V365.404H304.853V368.905H306.745V383.737H310.868V368.905H315.256V365.404H310.868V364.312C310.868 363.258 311.473 362.693 312.646 362.693H315.635V359.192H312.608ZM317.261 359.192V383.737H321.423V359.192H317.261ZM327.438 374.589C327.438 378.053 329.178 380.537 332.62 380.537C336.063 380.537 337.803 378.053 337.803 374.589C337.803 371.201 336.063 368.566 332.62 368.566C329.178 368.566 327.438 371.201 327.438 374.589ZM332.62 364.877C338.295 364.877 342.154 368.905 342.002 374.589C342.154 380.274 338.295 384.264 332.62 384.264C326.908 384.264 323.201 380.274 323.201 374.589C323.201 368.905 326.908 364.877 332.62 364.877ZM342.154 365.404H346.58L349.228 379.144L352.292 365.404H356.794L359.858 379.182L362.582 365.404H366.97L362.544 383.737H357.059L354.562 372.519L352.065 383.737H346.58L342.154 365.404Z" fill="#201C1D"/>
</g>
</g>
<path d="M134.253 368.346L134.3 368.371L134.287 368.383L134.253 368.349C133.198 369.686 132.313 371.158 131.631 372.732C131.621 372.756 131.611 372.778 131.601 372.802C130.944 374.337 130.477 375.969 130.232 377.674C130.23 377.683 130.23 377.696 130.23 377.705C130.099 378.609 130.032 379.533 130.032 380.471C130.032 381.269 130.082 382.057 130.176 382.831L110.581 382.831L110.581 377.674L127.596 377.674C127.628 377.461 127.665 377.253 127.705 377.043L111.312 372.744L112.676 367.761L129.271 372.113C129.348 371.946 129.427 371.782 129.506 371.617L114.614 363.204L117.248 358.738L132.362 367.275C132.481 367.135 132.602 366.995 132.728 366.857L120.344 354.742L124.072 351.094L136.654 363.407L137.984 364.708C136.585 365.757 135.33 366.98 134.253 368.346Z" fill="#201C1D"/>
<path d="M144.018 393.32H147.249C149.555 393.32 151.421 393.988 151.421 396.355C151.421 397.159 151.012 398.054 150.162 398.479C151.194 398.828 151.967 399.692 151.967 400.891C151.967 403.258 150.101 403.94 147.795 403.94H144.018V393.32ZM147.279 397.857C148.781 397.857 149.677 397.538 149.677 396.324C149.677 395.126 148.857 394.777 147.249 394.777H145.686V397.857H147.279ZM145.686 402.484H147.795C149.312 402.484 150.238 402.15 150.238 400.891C150.238 399.708 149.312 399.313 147.826 399.313H145.686V402.484ZM160.528 403.94H158.889V402.529C158.525 403.379 157.706 404.183 156.083 404.183C154.444 404.183 153.23 403.273 153.23 400.679V395.444H154.854L154.838 400.481C154.823 401.862 155.203 402.757 156.507 402.757C157.721 402.757 158.889 401.695 158.889 399.677V395.444H160.528V403.94ZM163.41 401.194C163.501 402.226 164.396 402.727 165.489 402.727C166.551 402.727 167.279 402.332 167.279 401.467C167.279 399.677 161.908 401.255 161.908 397.857C161.908 396.491 163.289 395.202 165.367 395.202C167.203 395.202 168.766 396.385 168.766 398.115H167.203C167.127 397.083 166.323 396.597 165.307 396.597C164.138 396.597 163.532 397.128 163.532 397.857C163.532 399.814 168.902 398.115 168.902 401.467C168.902 403.076 167.552 404.122 165.413 404.122C163.41 404.122 161.863 402.863 161.802 401.194H163.41ZM170.213 395.444H171.852V403.94H170.213V395.444ZM170.122 392.562H171.958V394.428H170.122V392.562ZM173.455 395.444H175.093V396.84C175.442 395.99 176.277 395.202 177.885 395.202C179.524 395.202 180.752 396.112 180.752 398.706V403.94H179.114V398.903C179.114 397.523 178.78 396.628 177.475 396.628C176.262 396.628 175.093 397.69 175.093 399.708V403.94H173.455V395.444ZM190.086 401.24C189.691 402.985 188.28 404.183 186.217 404.183C183.592 404.183 181.878 402.332 181.878 399.708C181.878 397.068 183.592 395.202 186.217 395.202C188.523 395.202 190.435 397.037 190.086 400.239H183.592C183.759 401.68 184.624 402.696 186.217 402.696C187.4 402.696 188.083 402.059 188.356 401.24H190.086ZM183.638 398.858H188.493C188.356 397.614 187.582 396.688 186.217 396.688C184.73 396.688 183.88 397.568 183.638 398.858ZM192.746 401.194C192.837 402.226 193.732 402.727 194.824 402.727C195.887 402.727 196.615 402.332 196.615 401.467C196.615 399.677 191.244 401.255 191.244 397.857C191.244 396.491 192.625 395.202 194.703 395.202C196.539 395.202 198.102 396.385 198.102 398.115H196.539C196.463 397.083 195.659 396.597 194.642 396.597C193.474 396.597 192.867 397.128 192.867 397.857C192.867 399.814 198.238 398.115 198.238 401.467C198.238 403.076 196.888 404.122 194.749 404.122C192.746 404.122 191.198 402.863 191.138 401.194H192.746ZM200.687 401.194C200.778 402.226 201.674 402.727 202.766 402.727C203.828 402.727 204.556 402.332 204.556 401.467C204.556 399.677 199.185 401.255 199.185 397.857C199.185 396.491 200.566 395.202 202.645 395.202C204.48 395.202 206.043 396.385 206.043 398.115H204.48C204.404 397.083 203.6 396.597 202.584 396.597C201.416 396.597 200.809 397.128 200.809 397.857C200.809 399.814 206.18 398.115 206.18 401.467C206.18 403.076 204.829 404.122 202.69 404.122C200.687 404.122 199.14 402.863 199.079 401.194H200.687Z" fill="#676262"/>
<path d="M12.7124 269.759H13.6324V276.759H12.7124V269.759ZM13.2824 275.949H16.8724V276.759H13.2824V275.949ZM21.3513 273.559H22.2613V276.759H21.3513V273.559ZM19.9913 270.999C20.7446 270.999 21.3113 271.229 21.6913 271.689C22.0713 272.149 22.2613 272.772 22.2613 273.559H21.3513C21.3513 273.192 21.3046 272.882 21.2113 272.629C21.1179 272.369 20.9713 272.169 20.7713 272.029C20.5713 271.889 20.3113 271.819 19.9913 271.819C19.5179 271.819 19.1579 271.945 18.9113 272.199C18.6713 272.452 18.5513 272.762 18.5513 273.129H17.5913C17.5913 272.762 17.6813 272.419 17.8613 272.099C18.0479 271.772 18.3179 271.509 18.6713 271.309C19.0313 271.102 19.4713 270.999 19.9913 270.999ZM21.4213 273.319L21.6313 274.009C20.6313 273.902 19.8813 273.962 19.3813 274.189C18.8879 274.409 18.6413 274.719 18.6413 275.119C18.6413 275.452 18.7446 275.709 18.9513 275.889C19.1646 276.062 19.4713 276.149 19.8713 276.149C20.1846 276.149 20.4513 276.079 20.6713 275.939C20.8913 275.792 21.0579 275.599 21.1713 275.359C21.2913 275.119 21.3513 274.849 21.3513 274.549L21.6213 275.039C21.5679 275.412 21.4646 275.742 21.3113 276.029C21.1579 276.309 20.9479 276.529 20.6813 276.689C20.4146 276.842 20.0746 276.919 19.6613 276.919C19.2946 276.919 18.9613 276.852 18.6613 276.719C18.3679 276.579 18.1346 276.379 17.9613 276.119C17.7879 275.859 17.7013 275.542 17.7013 275.169C17.7013 274.809 17.7746 274.512 17.9213 274.279C18.0679 274.039 18.2646 273.849 18.5113 273.709C18.7646 273.569 19.0513 273.465 19.3713 273.399C19.6913 273.332 20.0246 273.295 20.3713 273.289C20.7246 273.282 21.0746 273.292 21.4213 273.319ZM23.5313 271.159H24.4313V276.759H23.5313V271.159ZM24.4313 273.719L24.2813 272.989C24.2813 272.815 24.3047 272.615 24.3513 272.389C24.4047 272.162 24.5013 271.945 24.6413 271.739C24.788 271.525 24.998 271.349 25.2713 271.209C25.5447 271.069 25.9047 270.999 26.3513 270.999V271.929C25.958 271.929 25.618 271.985 25.3313 272.099C25.0447 272.212 24.8213 272.399 24.6613 272.659C24.508 272.919 24.4313 273.272 24.4313 273.719ZM29.3179 276.719C28.8179 276.719 28.3779 276.602 27.9979 276.369C27.6179 276.135 27.3212 275.805 27.1079 275.379C26.9012 274.945 26.7979 274.442 26.7979 273.869C26.7979 273.289 26.9012 272.785 27.1079 272.359C27.3212 271.925 27.6179 271.592 27.9979 271.359C28.3779 271.119 28.8179 270.999 29.3179 270.999C30.0246 270.999 30.5646 271.219 30.9379 271.659C31.3112 272.092 31.5246 272.685 31.5779 273.439L31.5579 274.319C31.5312 274.785 31.4346 275.199 31.2679 275.559C31.1079 275.919 30.8679 276.202 30.5479 276.409C30.2279 276.615 29.8179 276.719 29.3179 276.719ZM29.6879 278.919C29.0946 278.919 28.6179 278.825 28.2579 278.639C27.8979 278.452 27.6246 278.209 27.4379 277.909C27.2579 277.615 27.1412 277.312 27.0879 276.999H28.0279C28.0946 277.359 28.2679 277.629 28.5479 277.809C28.8279 277.995 29.2079 278.089 29.6879 278.089C30.0146 278.089 30.2912 278.029 30.5179 277.909C30.7446 277.795 30.9179 277.619 31.0379 277.379C31.1579 277.139 31.2179 276.832 31.2179 276.459H32.1179C32.1179 276.985 32.0146 277.432 31.8079 277.799C31.6079 278.165 31.3246 278.442 30.9579 278.629C30.5979 278.822 30.1746 278.919 29.6879 278.919ZM29.4179 275.889C30.0179 275.889 30.4679 275.709 30.7679 275.349C31.0679 274.982 31.2179 274.489 31.2179 273.869C31.2179 273.242 31.0679 272.745 30.7679 272.379C30.4679 272.012 30.0179 271.829 29.4179 271.829C28.9046 271.829 28.4946 272.005 28.1879 272.359C27.8812 272.705 27.7279 273.209 27.7279 273.869C27.7279 274.522 27.8812 275.022 28.1879 275.369C28.4946 275.715 28.9046 275.889 29.4179 275.889ZM31.2179 276.459V271.159H32.1179V276.459H31.2179ZM33.7239 273.479H38.5139L38.6339 274.269H33.7239V273.479ZM38.6239 274.989C38.5306 275.375 38.3706 275.712 38.1439 275.999C37.9173 276.285 37.6273 276.512 37.2739 276.679C36.9273 276.839 36.5273 276.919 36.0739 276.919C35.4939 276.919 34.9906 276.795 34.5639 276.549C34.1373 276.295 33.8039 275.945 33.5639 275.499C33.3306 275.052 33.2139 274.542 33.2139 273.969C33.2139 273.389 33.3306 272.875 33.5639 272.429C33.8039 271.982 34.1373 271.632 34.5639 271.379C34.9906 271.125 35.4939 270.999 36.0739 270.999C36.4539 270.999 36.8073 271.072 37.1339 271.219C37.4673 271.365 37.7506 271.579 37.9839 271.859C38.2239 272.139 38.4006 272.482 38.5139 272.889C38.6339 273.289 38.6739 273.749 38.6339 274.269L37.7739 273.819C37.7739 273.432 37.7073 273.089 37.5739 272.789C37.4406 272.489 37.2473 272.255 36.9939 272.089C36.7473 271.915 36.4406 271.829 36.0739 271.829C35.6539 271.829 35.3006 271.922 35.0139 272.109C34.7273 272.289 34.5106 272.542 34.3639 272.869C34.2173 273.189 34.1439 273.555 34.1439 273.969C34.1439 274.375 34.2173 274.739 34.3639 275.059C34.5106 275.379 34.7273 275.632 35.0139 275.819C35.3006 275.999 35.6539 276.089 36.0739 276.089C36.5273 276.089 36.8806 275.982 37.1339 275.769C37.3873 275.555 37.5639 275.295 37.6639 274.989H38.6239ZM47.4653 273.759C47.4653 274.419 47.3753 274.985 47.1953 275.459C47.022 275.925 46.7387 276.285 46.3453 276.539C45.9587 276.792 45.442 276.919 44.7953 276.919C44.1487 276.919 43.6287 276.792 43.2353 276.539C42.842 276.285 42.5587 275.925 42.3853 275.459C42.212 274.985 42.1253 274.419 42.1253 273.759H43.0453C43.0453 274.245 43.0953 274.662 43.1953 275.009C43.302 275.349 43.482 275.609 43.7353 275.789C43.9887 275.962 44.342 276.049 44.7953 276.049C45.242 276.049 45.592 275.962 45.8453 275.789C46.0987 275.609 46.2753 275.349 46.3753 275.009C46.482 274.662 46.5353 274.245 46.5353 273.759H47.4653ZM42.1253 269.759H43.0453V273.759H42.1253V269.759ZM46.5353 269.759H47.4653V273.759H46.5353V269.759ZM49.4257 274.949C49.4591 275.329 49.6191 275.619 49.9057 275.819C50.1991 276.012 50.5491 276.109 50.9557 276.109C51.3624 276.109 51.6857 276.032 51.9257 275.879C52.1657 275.719 52.2857 275.479 52.2857 275.159C52.2857 274.965 52.2191 274.819 52.0857 274.719C51.9591 274.619 51.7857 274.542 51.5657 274.489C51.3457 274.435 51.1057 274.392 50.8457 274.359C50.5924 274.319 50.3324 274.269 50.0657 274.209C49.8057 274.149 49.5657 274.065 49.3457 273.959C49.1324 273.845 48.9591 273.692 48.8257 273.499C48.6924 273.299 48.6257 273.039 48.6257 272.719C48.6257 272.419 48.7157 272.139 48.8957 271.879C49.0824 271.612 49.3457 271.399 49.6857 271.239C50.0257 271.079 50.4224 270.999 50.8757 270.999C51.2824 270.999 51.6524 271.082 51.9857 271.249C52.3191 271.409 52.5857 271.632 52.7857 271.919C52.9924 272.205 53.0957 272.539 53.0957 272.919H52.2657C52.2391 272.539 52.0891 272.252 51.8157 272.059C51.5491 271.865 51.2224 271.769 50.8357 271.769C50.4024 271.769 50.0724 271.859 49.8457 272.039C49.6257 272.219 49.5157 272.445 49.5157 272.719C49.5157 272.925 49.5824 273.085 49.7157 273.199C49.8491 273.305 50.0224 273.389 50.2357 273.449C50.4557 273.502 50.6957 273.545 50.9557 273.579C51.2224 273.612 51.4824 273.659 51.7357 273.719C51.9957 273.772 52.2357 273.852 52.4557 273.959C52.6757 274.059 52.8524 274.205 52.9857 274.399C53.1191 274.592 53.1857 274.845 53.1857 275.159C53.1857 275.512 53.0924 275.819 52.9057 276.079C52.7191 276.332 52.4557 276.529 52.1157 276.669C51.7824 276.809 51.3791 276.879 50.9057 276.879C50.4657 276.879 50.0691 276.795 49.7157 276.629C49.3691 276.455 49.0924 276.225 48.8857 275.939C48.6791 275.645 48.5691 275.315 48.5557 274.949H49.4257ZM54.5735 273.479H59.3635L59.4835 274.269H54.5735V273.479ZM59.4735 274.989C59.3802 275.375 59.2202 275.712 58.9935 275.999C58.7669 276.285 58.4769 276.512 58.1235 276.679C57.7769 276.839 57.3769 276.919 56.9235 276.919C56.3435 276.919 55.8402 276.795 55.4135 276.549C54.9869 276.295 54.6535 275.945 54.4135 275.499C54.1802 275.052 54.0635 274.542 54.0635 273.969C54.0635 273.389 54.1802 272.875 54.4135 272.429C54.6535 271.982 54.9869 271.632 55.4135 271.379C55.8402 271.125 56.3435 270.999 56.9235 270.999C57.3035 270.999 57.6569 271.072 57.9835 271.219C58.3169 271.365 58.6002 271.579 58.8335 271.859C59.0735 272.139 59.2502 272.482 59.3635 272.889C59.4835 273.289 59.5235 273.749 59.4835 274.269L58.6235 273.819C58.6235 273.432 58.5569 273.089 58.4235 272.789C58.2902 272.489 58.0969 272.255 57.8435 272.089C57.5969 271.915 57.2902 271.829 56.9235 271.829C56.5035 271.829 56.1502 271.922 55.8635 272.109C55.5769 272.289 55.3602 272.542 55.2135 272.869C55.0669 273.189 54.9935 273.555 54.9935 273.969C54.9935 274.375 55.0669 274.739 55.2135 275.059C55.3602 275.379 55.5769 275.632 55.8635 275.819C56.1502 275.999 56.5035 276.089 56.9235 276.089C57.3769 276.089 57.7302 275.982 57.9835 275.769C58.2369 275.555 58.4135 275.295 58.5135 274.989H59.4735Z" fill="black"/>
</g>
<rect width="478" height="247.241" fill="#E5E5E5"/>
<g clip-path="url(#clip4_502_60759)">
<g clip-path="url(#clip5_502_60759)">
<path d="M153.453 125.509C156.101 125.509 158.031 124.492 158.031 122.61C158.031 117.942 144.033 122.347 144.033 112.973C144.033 109.321 147.514 106.234 153.113 106.234C158.031 106.234 162.041 109.434 162.041 114.027H157.614C157.425 111.542 155.988 110.074 152.961 110.074C149.973 110.074 148.422 111.279 148.422 112.973C148.422 118.055 162.381 113.312 162.381 122.61C162.381 126.902 158.976 129.311 153.226 129.311C147.892 129.311 143.92 125.96 143.769 121.481H148.233C148.46 124.003 150.616 125.509 153.453 125.509ZM163.516 110.601H166.013V106.761H170.136V110.601H173.276V114.102H170.136V125.433H171.99H173.806V128.934H171.952L166.013 128.897V114.102H163.554L163.516 110.601ZM178.762 119.787C178.762 123.25 180.426 125.735 183.453 125.735C186.782 125.735 188.408 123.175 188.408 119.787C188.408 116.399 186.782 113.763 183.453 113.763C180.426 113.763 178.762 116.286 178.762 119.787ZM182.809 110.074C185.42 110.074 187.236 111.128 188.408 112.973V110.601H192.532V128.934H188.408V126.6C187.311 128.37 185.533 129.462 182.809 129.462C177.665 129.462 174.525 125.471 174.525 119.787C174.525 114.102 177.665 110.074 182.809 110.074ZM203.654 129.462C197.979 129.462 194.272 125.471 194.272 119.787C194.272 114.102 197.979 110.074 203.654 110.074C208.685 110.074 212.204 113.763 212.241 117.791H207.929C207.815 115.796 206.605 113.801 203.654 113.801C200.06 113.801 198.509 116.399 198.509 119.787C198.509 123.175 200.06 125.697 203.654 125.697C206.718 125.697 207.929 123.551 208.042 121.255H212.317C212.241 125.998 208.875 129.462 203.654 129.462ZM213.906 106.761H218.067V117.942L224.007 110.601H228.887L222.91 117.98L229.492 128.934H224.877L220.413 120.991L218.067 123.928V128.934H213.906V106.761ZM252.379 117.829C252.379 114.065 250.299 110.074 245.494 110.074C240.652 110.074 238.496 114.065 238.496 117.829C238.496 121.594 240.652 125.622 245.494 125.622C250.299 125.622 252.379 121.594 252.379 117.829ZM234.107 117.829C234.107 111.542 238.155 106.234 245.494 106.234C252.796 106.234 256.427 111.542 256.843 117.829C256.427 124.191 252.796 129.462 245.494 129.462C238.155 129.462 234.107 124.191 234.107 117.829ZM256.881 110.601H261.307L265.431 125.245L269.592 110.601H274.018L268.268 128.934H262.631L256.881 110.601ZM278.028 117.754H287.335C287.108 115.57 285.746 113.763 283.022 113.763C280.147 113.763 278.596 115.42 278.028 117.754ZM283.022 129.462C277.31 129.462 273.602 125.471 273.602 119.787C273.602 114.102 277.31 110.074 283.022 110.074C288.016 110.074 292.29 114.102 291.382 121.142H277.953C278.293 123.815 279.882 125.735 283.022 125.735C285.178 125.735 286.54 124.605 287.108 123.099H291.42C290.626 126.864 287.486 129.462 283.022 129.462ZM293.161 110.601V128.934H297.284V114.102H303.223V110.601H293.161ZM312.605 104.39C308.633 104.39 306.742 106.234 306.742 109.509V110.601H304.85V114.102H306.742V128.934H310.865V114.102H315.253V110.601H310.865V109.509C310.865 108.455 311.47 107.891 312.643 107.891H315.632V104.39H312.605ZM317.258 104.39V128.934H321.42V104.39H317.258ZM327.435 119.787C327.435 123.25 329.175 125.735 332.618 125.735C336.06 125.735 337.8 123.25 337.8 119.787C337.8 116.399 336.06 113.763 332.618 113.763C329.175 113.763 327.435 116.399 327.435 119.787ZM332.618 110.074C338.292 110.074 342.151 114.102 341.999 119.787C342.151 125.471 338.292 129.462 332.618 129.462C326.905 129.462 323.198 125.471 323.198 119.787C323.198 114.102 326.905 110.074 332.618 110.074ZM342.151 110.601H346.577L349.225 124.342L352.289 110.601H356.791L359.855 124.379L362.579 110.601H366.967L362.541 128.934H357.056L354.559 117.716L352.062 128.934H346.577L342.151 110.601Z" fill="#201C1D"/>
</g>
</g>
<path d="M134.251 114.581L134.298 114.606L134.285 114.618L134.251 114.584C133.196 115.933 132.311 117.419 131.629 119.007C131.619 119.032 131.609 119.054 131.6 119.078C130.942 120.627 130.475 122.274 130.231 123.994C130.228 124.004 130.228 124.016 130.228 124.026C130.097 124.938 130.03 125.87 130.03 126.817C130.03 127.622 130.08 128.418 130.174 129.198L110.579 129.198L110.579 123.994L127.594 123.994C127.626 123.78 127.663 123.57 127.703 123.357L111.311 119.019L112.674 113.991L129.269 118.383C129.346 118.214 129.425 118.048 129.504 117.882L114.612 109.392L117.246 104.886L132.361 113.501C132.479 113.359 132.6 113.218 132.726 113.078L120.342 100.853L124.071 97.1709L136.653 109.597L137.982 110.909C136.583 111.968 135.328 113.203 134.251 114.581Z" fill="#201C1D"/>
<path d="M144.015 138.518H147.534C150.372 138.518 152.162 139.443 152.162 141.962C152.162 144.48 150.372 145.421 147.534 145.421H145.683V149.138H144.015V138.518ZM147.534 143.964C149.37 143.964 150.417 143.555 150.417 141.962C150.417 140.368 149.37 139.974 147.534 139.974H145.683V143.964H147.534ZM160.54 149.138H158.901V147.727C158.537 148.576 157.718 149.38 156.094 149.38C154.456 149.38 153.242 148.47 153.242 145.876V140.642H154.866L154.85 145.679C154.835 147.059 155.214 147.954 156.519 147.954C157.733 147.954 158.901 146.892 158.901 144.874V140.642H160.54V149.138ZM166.186 141.886C164.502 141.886 163.683 143.175 163.683 144.905C163.683 146.619 164.502 147.894 166.186 147.894C167.658 147.894 168.553 146.695 168.553 144.905C168.553 143.099 167.658 141.886 166.186 141.886ZM170.237 144.905C170.237 147.53 168.75 149.38 166.414 149.38C165.063 149.38 164.199 148.804 163.683 147.894V149.138H162.044V137.759H163.683V141.916C164.229 140.96 165.109 140.399 166.414 140.399C168.75 140.399 170.237 142.265 170.237 144.905ZM171.467 137.759H173.106V149.138H171.467V137.759ZM174.729 140.642H176.368V149.138H174.729V140.642ZM174.638 137.759H176.474V139.625H174.638V137.759ZM185.922 145.572C185.846 147.772 184.329 149.38 181.932 149.38C179.307 149.38 177.593 147.53 177.593 144.905C177.593 142.265 179.307 140.399 181.932 140.399C184.238 140.399 185.816 142.113 185.892 143.979H184.162C184.086 142.948 183.434 141.901 181.932 141.901C180.142 141.901 179.277 143.175 179.277 144.905C179.277 146.619 180.142 147.878 181.932 147.878C183.525 147.878 184.147 146.771 184.223 145.572H185.922ZM190.27 138.518H193.79C196.627 138.518 198.417 139.443 198.417 141.962C198.417 144.48 196.627 145.421 193.79 145.421H191.939V149.138H190.27V138.518ZM193.79 143.964C195.626 143.964 196.673 143.555 196.673 141.962C196.673 140.368 195.626 139.974 193.79 139.974H191.939V143.964H193.79ZM199.573 137.759H201.212V149.138H199.573V137.759ZM206.308 140.399C208.63 140.399 209.828 141.901 209.828 144.283V149.138H208.19V147.969C207.734 148.834 206.945 149.38 205.732 149.38C204.063 149.38 202.804 148.425 202.804 146.725C202.804 144.07 205.717 143.782 208.174 143.873C208.083 142.644 207.568 141.855 206.308 141.855C205.004 141.855 204.321 142.659 204.321 143.63H202.591C202.591 141.946 203.911 140.399 206.308 140.399ZM204.503 146.634C204.503 147.484 205.095 147.939 206.096 147.939C207.279 147.939 208.19 147.165 208.19 145.785V145.026C205.686 144.905 204.503 145.618 204.503 146.634ZM210.572 140.642H211.861V138.518H213.5V140.642H215.063V142.037H213.5V146.832C213.5 147.454 213.803 147.742 214.395 147.742H215.305V149.138H214.38C212.696 149.138 211.861 148.273 211.861 146.832V142.037H210.587L210.572 140.642ZM217.143 139.913C217.143 138.624 217.902 137.759 219.586 137.759H220.891V139.155H219.601C219.055 139.155 218.782 139.413 218.782 139.913V140.642H220.678V142.037H218.782V149.138H217.143V142.037H216.172V140.642H217.143V139.913ZM225.506 141.886C223.837 141.886 222.851 143.099 222.851 144.905C222.851 146.695 223.837 147.894 225.506 147.894C227.16 147.894 228.161 146.695 228.161 144.905C228.161 143.099 227.16 141.886 225.506 141.886ZM221.167 144.905C221.167 142.265 222.881 140.399 225.506 140.399C228.131 140.399 229.845 142.265 229.845 144.905C229.845 147.53 228.131 149.38 225.506 149.38C222.881 149.38 221.167 147.53 221.167 144.905ZM231.012 140.642H232.651V142.068C232.985 141.203 233.743 140.399 235.488 140.399V142.037C233.683 142.037 232.651 142.659 232.651 144.677V149.138H231.012V140.642ZM236.553 140.642H238.192V142.022C238.541 141.188 239.284 140.399 240.68 140.399C241.848 140.399 242.728 140.899 243.108 142.204C243.472 141.309 244.306 140.399 245.808 140.399C247.386 140.399 248.448 141.309 248.448 143.903V149.138H246.81V144.101C246.81 142.72 246.627 141.825 245.399 141.825C244.337 141.825 243.32 142.887 243.32 144.905V149.138H241.682V144.101C241.682 142.72 241.499 141.825 240.271 141.825C239.209 141.825 238.192 142.887 238.192 144.905V149.138H236.553V140.642ZM251.192 146.392C251.283 147.423 252.179 147.924 253.271 147.924C254.333 147.924 255.061 147.53 255.061 146.665C255.061 144.874 249.69 146.452 249.69 143.054C249.69 141.688 251.071 140.399 253.149 140.399C254.985 140.399 256.548 141.582 256.548 143.312H254.985C254.909 142.28 254.105 141.795 253.089 141.795C251.921 141.795 251.314 142.326 251.314 143.054C251.314 145.011 256.684 143.312 256.684 146.665C256.684 148.273 255.334 149.32 253.195 149.32C251.192 149.32 249.645 148.061 249.584 146.392H251.192Z" fill="#676262"/>
<path d="M12.71 15H13.63V22H12.71V15ZM13.28 21.19H16.87V22H13.28V21.19ZM21.3488 18.8H22.2588V22H21.3488V18.8ZM19.9888 16.24C20.7422 16.24 21.3088 16.47 21.6888 16.93C22.0688 17.39 22.2588 18.0133 22.2588 18.8H21.3488C21.3488 18.4333 21.3022 18.1233 21.2088 17.87C21.1155 17.61 20.9688 17.41 20.7688 17.27C20.5688 17.13 20.3088 17.06 19.9888 17.06C19.5155 17.06 19.1555 17.1867 18.9088 17.44C18.6688 17.6933 18.5488 18.0033 18.5488 18.37H17.5888C17.5888 18.0033 17.6788 17.66 17.8588 17.34C18.0455 17.0133 18.3155 16.75 18.6688 16.55C19.0288 16.3433 19.4688 16.24 19.9888 16.24ZM21.4188 18.56L21.6288 19.25C20.6288 19.1433 19.8788 19.2033 19.3788 19.43C18.8855 19.65 18.6388 19.96 18.6388 20.36C18.6388 20.6933 18.7422 20.95 18.9488 21.13C19.1622 21.3033 19.4688 21.39 19.8688 21.39C20.1822 21.39 20.4488 21.32 20.6688 21.18C20.8888 21.0333 21.0555 20.84 21.1688 20.6C21.2888 20.36 21.3488 20.09 21.3488 19.79L21.6188 20.28C21.5655 20.6533 21.4622 20.9833 21.3088 21.27C21.1555 21.55 20.9455 21.77 20.6788 21.93C20.4122 22.0833 20.0722 22.16 19.6588 22.16C19.2922 22.16 18.9588 22.0933 18.6588 21.96C18.3655 21.82 18.1322 21.62 17.9588 21.36C17.7855 21.1 17.6988 20.7833 17.6988 20.41C17.6988 20.05 17.7722 19.7533 17.9188 19.52C18.0655 19.28 18.2622 19.09 18.5088 18.95C18.7622 18.81 19.0488 18.7067 19.3688 18.64C19.6888 18.5733 20.0222 18.5367 20.3688 18.53C20.7222 18.5233 21.0722 18.5333 21.4188 18.56ZM23.5289 16.4H24.4289V22H23.5289V16.4ZM24.4289 18.96L24.2789 18.23C24.2789 18.0567 24.3022 17.8567 24.3489 17.63C24.4022 17.4033 24.4989 17.1867 24.6389 16.98C24.7856 16.7667 24.9956 16.59 25.2689 16.45C25.5422 16.31 25.9022 16.24 26.3489 16.24V17.17C25.9556 17.17 25.6156 17.2267 25.3289 17.34C25.0422 17.4533 24.8189 17.64 24.6589 17.9C24.5056 18.16 24.4289 18.5133 24.4289 18.96ZM29.3155 21.96C28.8155 21.96 28.3755 21.8433 27.9955 21.61C27.6155 21.3767 27.3188 21.0467 27.1055 20.62C26.8988 20.1867 26.7955 19.6833 26.7955 19.11C26.7955 18.53 26.8988 18.0267 27.1055 17.6C27.3188 17.1667 27.6155 16.8333 27.9955 16.6C28.3755 16.36 28.8155 16.24 29.3155 16.24C30.0221 16.24 30.5621 16.46 30.9355 16.9C31.3088 17.3333 31.5221 17.9267 31.5755 18.68L31.5555 19.56C31.5288 20.0267 31.4321 20.44 31.2655 20.8C31.1055 21.16 30.8655 21.4433 30.5455 21.65C30.2255 21.8567 29.8155 21.96 29.3155 21.96ZM29.6855 24.16C29.0921 24.16 28.6155 24.0667 28.2555 23.88C27.8955 23.6933 27.6221 23.45 27.4355 23.15C27.2555 22.8567 27.1388 22.5533 27.0855 22.24H28.0255C28.0921 22.6 28.2655 22.87 28.5455 23.05C28.8255 23.2367 29.2055 23.33 29.6855 23.33C30.0121 23.33 30.2888 23.27 30.5155 23.15C30.7421 23.0367 30.9155 22.86 31.0355 22.62C31.1555 22.38 31.2155 22.0733 31.2155 21.7H32.1155C32.1155 22.2267 32.0121 22.6733 31.8055 23.04C31.6055 23.4067 31.3221 23.6833 30.9555 23.87C30.5955 24.0633 30.1721 24.16 29.6855 24.16ZM29.4155 21.13C30.0155 21.13 30.4655 20.95 30.7655 20.59C31.0655 20.2233 31.2155 19.73 31.2155 19.11C31.2155 18.4833 31.0655 17.9867 30.7655 17.62C30.4655 17.2533 30.0155 17.07 29.4155 17.07C28.9021 17.07 28.4921 17.2467 28.1855 17.6C27.8788 17.9467 27.7255 18.45 27.7255 19.11C27.7255 19.7633 27.8788 20.2633 28.1855 20.61C28.4921 20.9567 28.9021 21.13 29.4155 21.13ZM31.2155 21.7V16.4H32.1155V21.7H31.2155ZM33.7215 18.72H38.5115L38.6315 19.51H33.7215V18.72ZM38.6215 20.23C38.5282 20.6167 38.3682 20.9533 38.1415 21.24C37.9148 21.5267 37.6248 21.7533 37.2715 21.92C36.9248 22.08 36.5248 22.16 36.0715 22.16C35.4915 22.16 34.9882 22.0367 34.5615 21.79C34.1348 21.5367 33.8015 21.1867 33.5615 20.74C33.3282 20.2933 33.2115 19.7833 33.2115 19.21C33.2115 18.63 33.3282 18.1167 33.5615 17.67C33.8015 17.2233 34.1348 16.8733 34.5615 16.62C34.9882 16.3667 35.4915 16.24 36.0715 16.24C36.4515 16.24 36.8048 16.3133 37.1315 16.46C37.4648 16.6067 37.7482 16.82 37.9815 17.1C38.2215 17.38 38.3982 17.7233 38.5115 18.13C38.6315 18.53 38.6715 18.99 38.6315 19.51L37.7715 19.06C37.7715 18.6733 37.7048 18.33 37.5715 18.03C37.4382 17.73 37.2448 17.4967 36.9915 17.33C36.7448 17.1567 36.4382 17.07 36.0715 17.07C35.6515 17.07 35.2982 17.1633 35.0115 17.35C34.7248 17.53 34.5082 17.7833 34.3615 18.11C34.2148 18.43 34.1415 18.7967 34.1415 19.21C34.1415 19.6167 34.2148 19.98 34.3615 20.3C34.5082 20.62 34.7248 20.8733 35.0115 21.06C35.2982 21.24 35.6515 21.33 36.0715 21.33C36.5248 21.33 36.8782 21.2233 37.1315 21.01C37.3848 20.7967 37.5615 20.5367 37.6615 20.23H38.6215ZM47.4629 19C47.4629 19.66 47.3729 20.2267 47.1929 20.7C47.0196 21.1667 46.7362 21.5267 46.3429 21.78C45.9562 22.0333 45.4396 22.16 44.7929 22.16C44.1462 22.16 43.6262 22.0333 43.2329 21.78C42.8396 21.5267 42.5562 21.1667 42.3829 20.7C42.2096 20.2267 42.1229 19.66 42.1229 19H43.0429C43.0429 19.4867 43.0929 19.9033 43.1929 20.25C43.2996 20.59 43.4796 20.85 43.7329 21.03C43.9862 21.2033 44.3396 21.29 44.7929 21.29C45.2396 21.29 45.5896 21.2033 45.8429 21.03C46.0962 20.85 46.2729 20.59 46.3729 20.25C46.4796 19.9033 46.5329 19.4867 46.5329 19H47.4629ZM42.1229 15H43.0429V19H42.1229V15ZM46.5329 15H47.4629V19H46.5329V15ZM49.4233 20.19C49.4566 20.57 49.6166 20.86 49.9033 21.06C50.1966 21.2533 50.5466 21.35 50.9533 21.35C51.3599 21.35 51.6833 21.2733 51.9233 21.12C52.1633 20.96 52.2833 20.72 52.2833 20.4C52.2833 20.2067 52.2166 20.06 52.0833 19.96C51.9566 19.86 51.7833 19.7833 51.5633 19.73C51.3433 19.6767 51.1033 19.6333 50.8433 19.6C50.5899 19.56 50.3299 19.51 50.0633 19.45C49.8033 19.39 49.5633 19.3067 49.3433 19.2C49.1299 19.0867 48.9566 18.9333 48.8233 18.74C48.6899 18.54 48.6233 18.28 48.6233 17.96C48.6233 17.66 48.7133 17.38 48.8933 17.12C49.0799 16.8533 49.3433 16.64 49.6833 16.48C50.0233 16.32 50.4199 16.24 50.8733 16.24C51.2799 16.24 51.6499 16.3233 51.9833 16.49C52.3166 16.65 52.5833 16.8733 52.7833 17.16C52.9899 17.4467 53.0933 17.78 53.0933 18.16H52.2633C52.2366 17.78 52.0866 17.4933 51.8133 17.3C51.5466 17.1067 51.2199 17.01 50.8333 17.01C50.3999 17.01 50.0699 17.1 49.8433 17.28C49.6233 17.46 49.5133 17.6867 49.5133 17.96C49.5133 18.1667 49.5799 18.3267 49.7133 18.44C49.8466 18.5467 50.0199 18.63 50.2333 18.69C50.4533 18.7433 50.6933 18.7867 50.9533 18.82C51.2199 18.8533 51.4799 18.9 51.7333 18.96C51.9933 19.0133 52.2333 19.0933 52.4533 19.2C52.6733 19.3 52.8499 19.4467 52.9833 19.64C53.1166 19.8333 53.1833 20.0867 53.1833 20.4C53.1833 20.7533 53.0899 21.06 52.9033 21.32C52.7166 21.5733 52.4533 21.77 52.1133 21.91C51.7799 22.05 51.3766 22.12 50.9033 22.12C50.4633 22.12 50.0666 22.0367 49.7133 21.87C49.3666 21.6967 49.0899 21.4667 48.8833 21.18C48.6766 20.8867 48.5666 20.5567 48.5533 20.19H49.4233ZM54.5711 18.72H59.3611L59.4811 19.51H54.5711V18.72ZM59.4711 20.23C59.3778 20.6167 59.2178 20.9533 58.9911 21.24C58.7644 21.5267 58.4744 21.7533 58.1211 21.92C57.7744 22.08 57.3744 22.16 56.9211 22.16C56.3411 22.16 55.8378 22.0367 55.4111 21.79C54.9844 21.5367 54.6511 21.1867 54.4111 20.74C54.1778 20.2933 54.0611 19.7833 54.0611 19.21C54.0611 18.63 54.1778 18.1167 54.4111 17.67C54.6511 17.2233 54.9844 16.8733 55.4111 16.62C55.8378 16.3667 56.3411 16.24 56.9211 16.24C57.3011 16.24 57.6544 16.3133 57.9811 16.46C58.3144 16.6067 58.5978 16.82 58.8311 17.1C59.0711 17.38 59.2478 17.7233 59.3611 18.13C59.4811 18.53 59.5211 18.99 59.4811 19.51L58.6211 19.06C58.6211 18.6733 58.5544 18.33 58.4211 18.03C58.2878 17.73 58.0944 17.4967 57.8411 17.33C57.5944 17.1567 57.2878 17.07 56.9211 17.07C56.5011 17.07 56.1478 17.1633 55.8611 17.35C55.5744 17.53 55.3578 17.7833 55.2111 18.11C55.0644 18.43 54.9911 18.7967 54.9911 19.21C54.9911 19.6167 55.0644 19.98 55.2111 20.3C55.3578 20.62 55.5744 20.8733 55.8611 21.06C56.1478 21.24 56.5011 21.33 56.9211 21.33C57.3744 21.33 57.7278 21.2233 57.9811 21.01C58.2344 20.7967 58.4111 20.5367 58.5111 20.23H59.4711Z" fill="black"/>
<rect width="478" height="247.241" transform="translate(488)" fill="#E5E5E5"/>
<g clip-path="url(#clip6_502_60759)">
<g clip-path="url(#clip7_502_60759)">
<path d="M679.866 124.979C681.011 124.979 681.845 124.54 681.845 123.726C681.845 121.707 675.792 123.612 675.792 119.558C675.792 117.979 677.297 116.644 679.718 116.644C681.845 116.644 683.579 118.028 683.579 120.014H681.665C681.583 118.94 680.962 118.305 679.653 118.305C678.361 118.305 677.69 118.826 677.69 119.558C677.69 121.756 683.727 119.705 683.727 123.726C683.727 125.582 682.254 126.624 679.768 126.624C677.461 126.624 675.743 125.175 675.678 123.238H677.608C677.706 124.328 678.639 124.979 679.866 124.979ZM684.217 118.533H685.297V116.872H687.08V118.533H688.438V120.047H687.08V124.947H687.882H688.667V126.461H687.865L685.297 126.445V120.047H684.234L684.217 118.533ZM690.81 122.505C690.81 124.003 691.53 125.077 692.839 125.077C694.278 125.077 694.982 123.97 694.982 122.505C694.982 121.04 694.278 119.9 692.839 119.9C691.53 119.9 690.81 120.991 690.81 122.505ZM692.561 118.305C693.689 118.305 694.475 118.761 694.982 119.558V118.533H696.765V126.461H694.982V125.452C694.507 126.217 693.738 126.689 692.561 126.689C690.336 126.689 688.978 124.963 688.978 122.505C688.978 120.047 690.336 118.305 692.561 118.305ZM701.575 126.689C699.121 126.689 697.517 124.963 697.517 122.505C697.517 120.047 699.121 118.305 701.575 118.305C703.75 118.305 705.272 119.9 705.288 121.642H703.423C703.374 120.779 702.851 119.917 701.575 119.917C700.02 119.917 699.35 121.04 699.35 122.505C699.35 123.97 700.02 125.061 701.575 125.061C702.9 125.061 703.423 124.133 703.472 123.14H705.321C705.288 125.191 703.832 126.689 701.575 126.689ZM706.008 116.872H707.808V121.707L710.376 118.533H712.486L709.902 121.724L712.748 126.461H710.752L708.822 123.026L707.808 124.296V126.461H706.008V116.872ZM722.645 121.658C722.645 120.03 721.746 118.305 719.668 118.305C717.574 118.305 716.642 120.03 716.642 121.658C716.642 123.286 717.574 125.028 719.668 125.028C721.746 125.028 722.645 123.286 722.645 121.658ZM714.744 121.658C714.744 118.94 716.494 116.644 719.668 116.644C722.825 116.644 724.396 118.94 724.576 121.658C724.396 124.41 722.825 126.689 719.668 126.689C716.494 126.689 714.744 124.41 714.744 121.658ZM724.592 118.533H726.506L728.289 124.865L730.089 118.533H732.003L729.516 126.461H727.079L724.592 118.533ZM733.737 121.626H737.761C737.663 120.682 737.074 119.9 735.897 119.9C734.653 119.9 733.982 120.617 733.737 121.626ZM735.897 126.689C733.426 126.689 731.823 124.963 731.823 122.505C731.823 120.047 733.426 118.305 735.897 118.305C738.056 118.305 739.905 120.047 739.512 123.091H733.704C733.852 124.247 734.539 125.077 735.897 125.077C736.829 125.077 737.418 124.589 737.663 123.938H739.528C739.185 125.565 737.827 126.689 735.897 126.689ZM740.281 118.533V126.461H742.064V120.047H744.632V118.533H740.281ZM748.69 115.847C746.972 115.847 746.154 116.644 746.154 118.061V118.533H745.336V120.047H746.154V126.461H747.937V120.047H749.835V118.533H747.937V118.061C747.937 117.605 748.199 117.361 748.706 117.361H749.998V115.847H748.69ZM750.702 115.847V126.461H752.501V115.847H750.702ZM755.102 122.505C755.102 124.003 755.855 125.077 757.344 125.077C758.832 125.077 759.585 124.003 759.585 122.505C759.585 121.04 758.832 119.9 757.344 119.9C755.855 119.9 755.102 121.04 755.102 122.505ZM757.344 118.305C759.798 118.305 761.466 120.047 761.401 122.505C761.466 124.963 759.798 126.689 757.344 126.689C754.873 126.689 753.27 124.963 753.27 122.505C753.27 120.047 754.873 118.305 757.344 118.305ZM761.466 118.533H763.38L764.525 124.475L765.85 118.533H767.797L769.122 124.491L770.3 118.533H772.198L770.284 126.461H767.912L766.832 121.61L765.752 126.461H763.38L761.466 118.533Z" fill="#201C1D"/>
</g>
</g>
<path d="M671.559 120.25L671.58 120.26L671.574 120.265L671.559 120.251C671.103 120.834 670.721 121.477 670.426 122.164C670.421 122.174 670.417 122.184 670.413 122.194C670.129 122.864 669.927 123.576 669.821 124.32C669.82 124.324 669.82 124.33 669.82 124.334C669.763 124.728 669.734 125.131 669.734 125.541C669.734 125.889 669.756 126.233 669.796 126.571L661.323 126.571L661.323 124.32L668.681 124.32C668.695 124.227 668.711 124.137 668.728 124.045L661.639 122.169L662.229 119.994L669.405 121.893C669.438 121.821 669.472 121.749 669.507 121.677L663.067 118.006L664.206 116.057L670.742 119.782C670.793 119.721 670.846 119.66 670.9 119.6L665.545 114.313L667.157 112.721L672.598 118.094L673.173 118.662C672.568 119.12 672.025 119.654 671.559 120.25Z" fill="#201C1D"/>
<path d="M676.676 130.509H680.154C682.87 130.509 684.631 131.419 684.631 133.9C684.631 136.365 682.87 137.29 680.154 137.29H678.554V140.783H676.676V130.509ZM680.154 135.661C681.754 135.661 682.693 135.323 682.693 133.9C682.693 132.461 681.754 132.138 680.154 132.138H678.554V135.661H680.154ZM693.194 140.783H691.345V139.477C691.007 140.269 690.258 141.018 688.703 141.018C687.117 141.018 685.943 140.137 685.943 137.628V132.564H687.778L687.749 137.437C687.734 138.582 687.998 139.418 689.187 139.418C690.214 139.418 691.345 138.567 691.345 136.615V132.564H693.194V140.783ZM698.95 133.988C697.468 133.988 696.749 135.162 696.749 136.688C696.749 138.2 697.468 139.36 698.95 139.36C700.301 139.36 701.049 138.229 701.049 136.688C701.049 135.118 700.301 133.988 698.95 133.988ZM702.943 136.688C702.943 139.227 701.534 141.018 699.244 141.018C698.026 141.018 697.233 140.534 696.749 139.741V140.783H694.9V129.775H696.749V133.635C697.263 132.799 698.07 132.329 699.244 132.329C701.534 132.329 702.943 134.134 702.943 136.688ZM704.399 129.775H706.248V140.783H704.399V129.775ZM708.067 132.564H709.916V140.783H708.067V132.564ZM707.979 129.775H709.99V131.801H707.979V129.775ZM719.408 137.334C719.379 139.462 717.867 141.018 715.548 141.018C713.009 141.018 711.35 139.227 711.35 136.688C711.35 134.134 713.009 132.329 715.548 132.329C717.779 132.329 719.349 133.988 719.379 135.793H717.441C717.412 134.898 716.854 134.002 715.548 134.002C713.933 134.002 713.244 135.162 713.244 136.688C713.244 138.2 713.933 139.33 715.548 139.33C716.913 139.33 717.471 138.376 717.5 137.334H719.408ZM724.152 130.509H727.631C730.346 130.509 732.107 131.419 732.107 133.9C732.107 136.365 730.346 137.29 727.631 137.29H726.031V140.783H724.152V130.509ZM727.631 135.661C729.231 135.661 730.17 135.323 730.17 133.9C730.17 132.461 729.231 132.138 727.631 132.138H726.031V135.661H727.631ZM733.493 129.775H735.342V140.783H733.493V129.775ZM740.609 132.329C742.898 132.329 744.087 133.782 744.087 136.086V140.783H742.252V139.741C741.827 140.534 741.064 141.018 739.992 141.018C738.378 141.018 737.189 140.093 737.189 138.45C737.189 135.896 739.977 135.631 742.238 135.646C742.15 134.648 741.739 133.958 740.609 133.958C739.464 133.958 738.877 134.648 738.877 135.455H736.939C736.939 133.797 738.26 132.329 740.609 132.329ZM739.111 138.347C739.111 139.022 739.625 139.36 740.374 139.36C741.328 139.36 742.252 138.875 742.252 137.54V136.894C740.08 136.835 739.111 137.495 739.111 138.347ZM745.144 132.564H746.244V130.509H748.094V132.564H749.488V134.134H748.094V138.405C748.094 138.949 748.373 139.213 748.916 139.213H749.723V140.783H748.901C747.125 140.783 746.244 139.947 746.244 138.405V134.134H745.158L745.144 132.564ZM751.813 132.08C751.813 130.612 752.664 129.775 754.44 129.775H755.438V131.346H754.455C753.926 131.346 753.662 131.595 753.662 132.08V132.564H755.306V134.134H753.662V140.783H751.813V134.134H750.873V132.564H751.813V132.08ZM760.272 133.988C758.761 133.988 757.968 135.118 757.968 136.688C757.968 138.229 758.761 139.36 760.272 139.36C761.799 139.36 762.592 138.229 762.592 136.688C762.592 135.118 761.799 133.988 760.272 133.988ZM756.075 136.688C756.075 134.134 757.733 132.329 760.272 132.329C762.812 132.329 764.47 134.134 764.47 136.688C764.47 139.227 762.812 141.018 760.272 141.018C757.733 141.018 756.075 139.227 756.075 136.688ZM765.868 132.564H767.718V133.885C768.026 133.078 768.745 132.329 770.389 132.329V134.149C768.642 134.149 767.718 134.663 767.718 136.615V140.783H765.868V132.564ZM771.655 132.564H773.505V133.87C773.828 133.078 774.532 132.329 775.897 132.329C776.969 132.329 777.805 132.784 778.202 133.988C778.568 133.151 779.39 132.329 780.829 132.329C782.311 132.329 783.353 133.21 783.353 135.72V140.783H781.504V135.91C781.504 134.751 781.401 133.929 780.33 133.929C779.449 133.929 778.422 134.766 778.422 136.718V140.783H776.587V135.91C776.587 134.751 776.484 133.929 775.398 133.929C774.518 133.929 773.505 134.766 773.505 136.718V140.783H771.655V132.564ZM786.552 138.127C786.64 139.007 787.403 139.389 788.313 139.389C789.194 139.389 789.825 139.081 789.825 138.347C789.825 136.806 784.805 138.215 784.805 134.927C784.805 133.606 786.185 132.329 788.196 132.329C789.972 132.329 791.513 133.474 791.513 135.147H789.707C789.634 134.252 788.974 133.9 788.137 133.9C787.154 133.9 786.64 134.34 786.64 134.927C786.64 136.644 791.645 135.103 791.645 138.347C791.645 139.903 790.309 140.959 788.24 140.959C786.302 140.959 784.761 139.741 784.702 138.127H786.552Z" fill="#676262"/>
<path d="M501.624 19.687C501.651 20.007 501.751 20.2804 501.924 20.507C502.097 20.7337 502.324 20.907 502.604 21.027C502.891 21.147 503.211 21.207 503.564 21.207C504.091 21.207 504.514 21.1037 504.834 20.897C505.161 20.6837 505.324 20.3937 505.324 20.027C505.324 19.7804 505.241 19.587 505.074 19.447C504.907 19.307 504.684 19.2004 504.404 19.127C504.131 19.0537 503.831 18.9904 503.504 18.937C503.177 18.8837 502.851 18.8204 502.524 18.747C502.197 18.667 501.894 18.557 501.614 18.417C501.341 18.277 501.121 18.0837 500.954 17.837C500.787 17.5837 500.704 17.257 500.704 16.857C500.704 16.477 500.817 16.1304 501.044 15.817C501.271 15.5037 501.591 15.257 502.004 15.077C502.417 14.8904 502.904 14.797 503.464 14.797C503.971 14.797 504.427 14.897 504.834 15.097C505.241 15.297 505.564 15.577 505.804 15.937C506.051 16.297 506.174 16.7104 506.174 17.177H505.174C505.147 16.6904 504.991 16.317 504.704 16.057C504.424 15.797 503.994 15.667 503.414 15.667C502.834 15.667 502.397 15.7737 502.104 15.987C501.811 16.2004 501.664 16.4904 501.664 16.857C501.664 17.1237 501.747 17.3304 501.914 17.477C502.081 17.6237 502.301 17.737 502.574 17.817C502.854 17.8904 503.157 17.9537 503.484 18.007C503.811 18.0604 504.137 18.1237 504.464 18.197C504.791 18.2637 505.091 18.367 505.364 18.507C505.644 18.6404 505.867 18.8304 506.034 19.077C506.201 19.317 506.284 19.6337 506.284 20.027C506.284 20.6804 506.037 21.187 505.544 21.547C505.057 21.9004 504.377 22.077 503.504 22.077C502.964 22.077 502.477 21.9737 502.044 21.767C501.617 21.5537 501.277 21.267 501.024 20.907C500.777 20.547 500.644 20.1404 500.624 19.687H501.624ZM507.502 16.357H508.402V21.957H507.502V16.357ZM508.402 19.137L508.242 18.067C508.242 17.8937 508.272 17.7004 508.332 17.487C508.392 17.2737 508.492 17.0704 508.632 16.877C508.772 16.677 508.958 16.5137 509.192 16.387C509.425 16.2604 509.715 16.197 510.062 16.197C510.415 16.197 510.722 16.2704 510.982 16.417C511.242 16.5637 511.445 16.807 511.592 17.147C511.738 17.4804 511.812 17.9337 511.812 18.507V21.957H510.902V18.637C510.902 18.2904 510.875 17.9937 510.822 17.747C510.768 17.5004 510.665 17.3137 510.512 17.187C510.365 17.0537 510.145 16.987 509.852 16.987C509.585 16.987 509.342 17.077 509.122 17.257C508.902 17.4304 508.725 17.677 508.592 17.997C508.465 18.3104 508.402 18.6904 508.402 19.137ZM511.812 19.137L511.592 18.067C511.592 17.8937 511.625 17.7004 511.692 17.487C511.758 17.2737 511.865 17.0704 512.012 16.877C512.158 16.677 512.352 16.5137 512.592 16.387C512.832 16.2604 513.122 16.197 513.462 16.197C513.815 16.197 514.122 16.2704 514.382 16.417C514.648 16.5637 514.852 16.807 514.992 17.147C515.138 17.4804 515.212 17.9337 515.212 18.507V21.957H514.312V18.637C514.312 18.2904 514.285 17.9937 514.232 17.747C514.178 17.5004 514.075 17.3137 513.922 17.187C513.768 17.0537 513.545 16.987 513.252 16.987C512.985 16.987 512.742 17.077 512.522 17.257C512.308 17.4304 512.135 17.677 512.002 17.997C511.875 18.3104 511.812 18.6904 511.812 19.137ZM520.146 18.757H521.056V21.957H520.146V18.757ZM518.786 16.197C519.539 16.197 520.106 16.427 520.486 16.887C520.866 17.347 521.056 17.9704 521.056 18.757H520.146C520.146 18.3904 520.099 18.0804 520.006 17.827C519.912 17.567 519.766 17.367 519.566 17.227C519.366 17.087 519.106 17.017 518.786 17.017C518.312 17.017 517.952 17.1437 517.706 17.397C517.466 17.6504 517.346 17.9604 517.346 18.327H516.386C516.386 17.9604 516.476 17.617 516.656 17.297C516.842 16.9704 517.112 16.707 517.466 16.507C517.826 16.3004 518.266 16.197 518.786 16.197ZM520.216 18.517L520.426 19.207C519.426 19.1004 518.676 19.1604 518.176 19.387C517.682 19.607 517.436 19.917 517.436 20.317C517.436 20.6504 517.539 20.907 517.746 21.087C517.959 21.2604 518.266 21.347 518.666 21.347C518.979 21.347 519.246 21.277 519.466 21.137C519.686 20.9904 519.852 20.797 519.966 20.557C520.086 20.317 520.146 20.047 520.146 19.747L520.416 20.237C520.362 20.6104 520.259 20.9404 520.106 21.227C519.952 21.507 519.742 21.727 519.476 21.887C519.209 22.0404 518.869 22.117 518.456 22.117C518.089 22.117 517.756 22.0504 517.456 21.917C517.162 21.777 516.929 21.577 516.756 21.317C516.582 21.057 516.496 20.7404 516.496 20.367C516.496 20.007 516.569 19.7104 516.716 19.477C516.862 19.237 517.059 19.047 517.306 18.907C517.559 18.767 517.846 18.6637 518.166 18.597C518.486 18.5304 518.819 18.4937 519.166 18.487C519.519 18.4804 519.869 18.4904 520.216 18.517ZM522.326 14.457H523.226V21.957H522.326V14.457ZM524.563 14.457H525.463V21.957H524.563V14.457ZM534.512 18.957C534.512 19.617 534.422 20.1837 534.242 20.657C534.068 21.1237 533.785 21.4837 533.392 21.737C533.005 21.9904 532.488 22.117 531.842 22.117C531.195 22.117 530.675 21.9904 530.282 21.737C529.888 21.4837 529.605 21.1237 529.432 20.657C529.258 20.1837 529.172 19.617 529.172 18.957H530.092C530.092 19.4437 530.142 19.8604 530.242 20.207C530.348 20.547 530.528 20.807 530.782 20.987C531.035 21.1604 531.388 21.247 531.842 21.247C532.288 21.247 532.638 21.1604 532.892 20.987C533.145 20.807 533.322 20.547 533.422 20.207C533.528 19.8604 533.582 19.4437 533.582 18.957H534.512ZM529.172 14.957H530.092V18.957H529.172V14.957ZM533.582 14.957H534.512V18.957H533.582V14.957ZM536.472 20.147C536.505 20.527 536.665 20.817 536.952 21.017C537.245 21.2104 537.595 21.307 538.002 21.307C538.409 21.307 538.732 21.2304 538.972 21.077C539.212 20.917 539.332 20.677 539.332 20.357C539.332 20.1637 539.265 20.017 539.132 19.917C539.005 19.817 538.832 19.7404 538.612 19.687C538.392 19.6337 538.152 19.5904 537.892 19.557C537.639 19.517 537.379 19.467 537.112 19.407C536.852 19.347 536.612 19.2637 536.392 19.157C536.179 19.0437 536.005 18.8904 535.872 18.697C535.739 18.497 535.672 18.237 535.672 17.917C535.672 17.617 535.762 17.337 535.942 17.077C536.129 16.8104 536.392 16.597 536.732 16.437C537.072 16.277 537.469 16.197 537.922 16.197C538.329 16.197 538.699 16.2804 539.032 16.447C539.365 16.607 539.632 16.8304 539.832 17.117C540.039 17.4037 540.142 17.737 540.142 18.117H539.312C539.285 17.737 539.135 17.4504 538.862 17.257C538.595 17.0637 538.269 16.967 537.882 16.967C537.449 16.967 537.119 17.057 536.892 17.237C536.672 17.417 536.562 17.6437 536.562 17.917C536.562 18.1237 536.629 18.2837 536.762 18.397C536.895 18.5037 537.069 18.587 537.282 18.647C537.502 18.7004 537.742 18.7437 538.002 18.777C538.269 18.8104 538.529 18.857 538.782 18.917C539.042 18.9704 539.282 19.0504 539.502 19.157C539.722 19.257 539.899 19.4037 540.032 19.597C540.165 19.7904 540.232 20.0437 540.232 20.357C540.232 20.7104 540.139 21.017 539.952 21.277C539.765 21.5304 539.502 21.727 539.162 21.867C538.829 22.007 538.425 22.077 537.952 22.077C537.512 22.077 537.115 21.9937 536.762 21.827C536.415 21.6537 536.139 21.4237 535.932 21.137C535.725 20.8437 535.615 20.5137 535.602 20.147H536.472ZM541.62 18.677H546.41L546.53 19.467H541.62V18.677ZM546.52 20.187C546.427 20.5737 546.267 20.9104 546.04 21.197C545.813 21.4837 545.523 21.7104 545.17 21.877C544.823 22.037 544.423 22.117 543.97 22.117C543.39 22.117 542.887 21.9937 542.46 21.747C542.033 21.4937 541.7 21.1437 541.46 20.697C541.227 20.2504 541.11 19.7404 541.11 19.167C541.11 18.587 541.227 18.0737 541.46 17.627C541.7 17.1804 542.033 16.8304 542.46 16.577C542.887 16.3237 543.39 16.197 543.97 16.197C544.35 16.197 544.703 16.2704 545.03 16.417C545.363 16.5637 545.647 16.777 545.88 17.057C546.12 17.337 546.297 17.6804 546.41 18.087C546.53 18.487 546.57 18.947 546.53 19.467L545.67 19.017C545.67 18.6304 545.603 18.287 545.47 17.987C545.337 17.687 545.143 17.4537 544.89 17.287C544.643 17.1137 544.337 17.027 543.97 17.027C543.55 17.027 543.197 17.1204 542.91 17.307C542.623 17.487 542.407 17.7404 542.26 18.067C542.113 18.387 542.04 18.7537 542.04 19.167C542.04 19.5737 542.113 19.937 542.26 20.257C542.407 20.577 542.623 20.8304 542.91 21.017C543.197 21.197 543.55 21.287 543.97 21.287C544.423 21.287 544.777 21.1804 545.03 20.967C545.283 20.7537 545.46 20.4937 545.56 20.187H546.52Z" fill="black"/>
<rect width="478" height="245" transform="translate(488 255)" fill="#E5E5E5"/>
<g clip-path="url(#clip8_502_60759)">
<g clip-path="url(#clip9_502_60759)">
<path d="M691.457 375.521C692.561 375.521 693.364 375.098 693.364 374.313C693.364 372.369 687.533 374.204 687.533 370.298C687.533 368.777 688.983 367.491 691.316 367.491C693.364 367.491 695.035 368.824 695.035 370.738H693.191C693.112 369.702 692.513 369.091 691.253 369.091C690.008 369.091 689.361 369.593 689.361 370.298C689.361 372.416 695.177 370.44 695.177 374.313C695.177 376.101 693.758 377.105 691.363 377.105C689.141 377.105 687.486 375.709 687.423 373.843H689.283C689.377 374.894 690.275 375.521 691.457 375.521ZM695.65 369.31H696.69V367.711H698.408V369.31H699.716V370.769H698.408V375.49H699.18H699.937V376.948H699.164L696.69 376.932V370.769H695.665L695.65 369.31ZM702.001 373.137C702.001 374.58 702.695 375.615 703.955 375.615C705.342 375.615 706.02 374.549 706.02 373.137C706.02 371.726 705.342 370.628 703.955 370.628C702.695 370.628 702.001 371.679 702.001 373.137ZM703.687 369.091C704.775 369.091 705.531 369.53 706.02 370.298V369.31H707.738V376.948H706.02V375.976C705.563 376.713 704.822 377.168 703.687 377.168C701.544 377.168 700.236 375.505 700.236 373.137C700.236 370.769 701.544 369.091 703.687 369.091ZM712.371 377.168C710.007 377.168 708.463 375.505 708.463 373.137C708.463 370.769 710.007 369.091 712.371 369.091C714.467 369.091 715.933 370.628 715.949 372.306H714.152C714.105 371.475 713.601 370.643 712.371 370.643C710.874 370.643 710.228 371.726 710.228 373.137C710.228 374.549 710.874 375.599 712.371 375.599C713.648 375.599 714.152 374.705 714.2 373.749H715.98C715.949 375.725 714.546 377.168 712.371 377.168ZM716.642 367.711H718.376V372.369L720.85 369.31H722.883L720.393 372.384L723.136 376.948H721.213L719.353 373.639L718.376 374.862V376.948H716.642V367.711ZM732.671 372.322C732.671 370.753 731.804 369.091 729.802 369.091C727.785 369.091 726.887 370.753 726.887 372.322C726.887 373.89 727.785 375.568 729.802 375.568C731.804 375.568 732.671 373.89 732.671 372.322ZM725.058 372.322C725.058 369.702 726.745 367.491 729.802 367.491C732.844 367.491 734.357 369.702 734.53 372.322C734.357 374.972 732.844 377.168 729.802 377.168C726.745 377.168 725.058 374.972 725.058 372.322ZM734.546 369.31H736.39L738.108 375.411L739.842 369.31H741.686L739.29 376.948H736.942L734.546 369.31ZM743.356 372.29H747.233C747.139 371.381 746.571 370.628 745.436 370.628C744.239 370.628 743.593 371.318 743.356 372.29ZM745.436 377.168C743.057 377.168 741.512 375.505 741.512 373.137C741.512 370.769 743.057 369.091 745.436 369.091C747.517 369.091 749.298 370.769 748.919 373.702H743.325C743.466 374.815 744.128 375.615 745.436 375.615C746.335 375.615 746.902 375.145 747.139 374.517H748.935C748.604 376.086 747.296 377.168 745.436 377.168ZM749.66 369.31V376.948H751.378V370.769H753.852V369.31H749.66ZM757.761 366.723C756.106 366.723 755.318 367.491 755.318 368.856V369.31H754.53V370.769H755.318V376.948H757.036V370.769H758.864V369.31H757.036V368.856C757.036 368.416 757.288 368.181 757.777 368.181H759.022V366.723H757.761ZM759.7 366.723V376.948H761.433V366.723H759.7ZM763.939 373.137C763.939 374.58 764.664 375.615 766.098 375.615C767.532 375.615 768.257 374.58 768.257 373.137C768.257 371.726 767.532 370.628 766.098 370.628C764.664 370.628 763.939 371.726 763.939 373.137ZM766.098 369.091C768.462 369.091 770.07 370.769 770.007 373.137C770.07 375.505 768.462 377.168 766.098 377.168C763.718 377.168 762.174 375.505 762.174 373.137C762.174 370.769 763.718 369.091 766.098 369.091ZM770.07 369.31H771.914L773.017 375.035L774.294 369.31H776.169L777.446 375.05L778.58 369.31H780.409L778.565 376.948H776.279L775.239 372.275L774.199 376.948H771.914L770.07 369.31Z" fill="#201C1D"/>
</g>
</g>
<path d="M683.453 370.564L683.473 370.575L683.468 370.58L683.453 370.565C683.014 371.122 682.645 371.736 682.361 372.392C682.357 372.402 682.353 372.411 682.349 372.421C682.075 373.06 681.881 373.74 681.779 374.45C681.778 374.454 681.778 374.459 681.778 374.463C681.723 374.84 681.695 375.225 681.695 375.616C681.695 375.948 681.716 376.276 681.755 376.599L673.592 376.599L673.592 374.45L680.68 374.45C680.694 374.362 680.709 374.275 680.726 374.187L673.897 372.397L674.465 370.321L681.378 372.134C681.41 372.064 681.443 371.996 681.476 371.927L675.272 368.422L676.369 366.562L682.666 370.118C682.715 370.06 682.766 370.001 682.818 369.944L677.659 364.897L679.212 363.377L684.454 368.507L685.008 369.049C684.425 369.486 683.902 369.995 683.453 370.564Z" fill="#201C1D"/>
<path d="M688.384 380.399H691.396C693.545 380.399 695.285 381.021 695.285 383.255C695.285 383.976 695.002 384.796 694.295 385.207C695.186 385.546 695.822 386.352 695.822 387.384C695.822 389.618 694.083 390.297 691.933 390.297H688.384V380.399ZM691.424 384.514C692.584 384.514 693.418 384.302 693.418 383.241C693.418 382.195 692.626 381.969 691.396 381.969H690.194V384.514H691.424ZM690.194 388.727H691.933C693.107 388.727 693.941 388.459 693.941 387.384C693.941 386.338 693.107 386.083 691.948 386.083H690.194V388.727ZM704.215 390.297H702.433V389.038C702.108 389.802 701.387 390.523 699.888 390.523C698.361 390.523 697.23 389.675 697.23 387.257V382.379H698.997L698.969 387.073C698.955 388.176 699.209 388.982 700.355 388.982C701.344 388.982 702.433 388.162 702.433 386.281V382.379H704.215V390.297ZM707.439 387.738C707.523 388.586 708.259 388.954 709.135 388.954C709.984 388.954 710.592 388.657 710.592 387.95C710.592 386.465 705.756 387.822 705.756 384.655C705.756 383.382 707.085 382.152 709.022 382.152C710.733 382.152 712.218 383.255 712.218 384.867H710.479C710.408 384.005 709.772 383.665 708.966 383.665C708.018 383.665 707.523 384.089 707.523 384.655C707.523 386.309 712.345 384.825 712.345 387.95C712.345 389.448 711.058 390.467 709.065 390.467C707.198 390.467 705.714 389.293 705.657 387.738H707.439ZM713.824 382.379H715.606V390.297H713.824V382.379ZM713.739 379.692H715.676V381.643H713.739V379.692ZM717.325 382.379H719.107V383.637C719.432 382.873 720.168 382.152 721.666 382.152C723.193 382.152 724.31 383.001 724.31 385.419V390.297H722.529V385.602C722.529 384.485 722.331 383.694 721.186 383.694C720.196 383.694 719.107 384.5 719.107 386.38V390.297H717.325V382.379ZM733.278 387.78C732.91 389.406 731.567 390.523 729.644 390.523C727.198 390.523 725.6 388.798 725.6 386.352C725.6 383.892 727.198 382.152 729.644 382.152C731.793 382.152 733.632 383.892 733.264 386.932H727.467C727.622 388.091 728.301 388.925 729.644 388.925C730.577 388.925 731.157 388.43 731.398 387.78H733.278ZM727.509 385.475H731.497C731.412 384.528 730.818 383.75 729.644 383.75C728.414 383.75 727.749 384.457 727.509 385.475ZM736.299 387.738C736.384 388.586 737.119 388.954 737.996 388.954C738.844 388.954 739.452 388.657 739.452 387.95C739.452 386.465 734.616 387.822 734.616 384.655C734.616 383.382 735.945 382.152 737.882 382.152C739.593 382.152 741.078 383.255 741.078 384.867H739.339C739.268 384.005 738.632 383.665 737.826 383.665C736.878 383.665 736.384 384.089 736.384 384.655C736.384 386.309 741.205 384.825 741.205 387.95C741.205 389.448 739.919 390.467 737.925 390.467C736.058 390.467 734.574 389.293 734.517 387.738H736.299ZM744.014 387.738C744.099 388.586 744.834 388.954 745.711 388.954C746.56 388.954 747.168 388.657 747.168 387.95C747.168 386.465 742.332 387.822 742.332 384.655C742.332 383.382 743.661 382.152 745.598 382.152C747.309 382.152 748.794 383.255 748.794 384.867H747.054C746.984 384.005 746.347 383.665 745.541 383.665C744.594 383.665 744.099 384.089 744.099 384.655C744.099 386.309 748.921 384.825 748.921 387.95C748.921 389.448 747.634 390.467 745.64 390.467C743.774 390.467 742.289 389.293 742.233 387.738H744.014Z" fill="#676262"/>
<path d="M501.708 274.446C501.735 274.766 501.835 275.039 502.008 275.266C502.181 275.492 502.408 275.666 502.688 275.786C502.975 275.906 503.295 275.966 503.648 275.966C504.175 275.966 504.598 275.862 504.918 275.656C505.245 275.442 505.408 275.152 505.408 274.786C505.408 274.539 505.325 274.346 505.158 274.206C504.991 274.066 504.768 273.959 504.488 273.886C504.215 273.812 503.915 273.749 503.588 273.696C503.261 273.642 502.935 273.579 502.608 273.506C502.281 273.426 501.978 273.316 501.698 273.176C501.425 273.036 501.205 272.842 501.038 272.596C500.871 272.342 500.788 272.016 500.788 271.616C500.788 271.236 500.901 270.889 501.128 270.576C501.355 270.262 501.675 270.016 502.088 269.836C502.501 269.649 502.988 269.556 503.548 269.556C504.055 269.556 504.511 269.656 504.918 269.856C505.325 270.056 505.648 270.336 505.888 270.696C506.135 271.056 506.258 271.469 506.258 271.936H505.258C505.231 271.449 505.075 271.076 504.788 270.816C504.508 270.556 504.078 270.426 503.498 270.426C502.918 270.426 502.481 270.532 502.188 270.746C501.895 270.959 501.748 271.249 501.748 271.616C501.748 271.882 501.831 272.089 501.998 272.236C502.165 272.382 502.385 272.496 502.658 272.576C502.938 272.649 503.241 272.712 503.568 272.766C503.895 272.819 504.221 272.882 504.548 272.956C504.875 273.022 505.175 273.126 505.448 273.266C505.728 273.399 505.951 273.589 506.118 273.836C506.285 274.076 506.368 274.392 506.368 274.786C506.368 275.439 506.121 275.946 505.628 276.306C505.141 276.659 504.461 276.836 503.588 276.836C503.048 276.836 502.561 276.732 502.128 276.526C501.701 276.312 501.361 276.026 501.108 275.666C500.861 275.306 500.728 274.899 500.708 274.446H501.708ZM507.586 271.116H508.486V276.716H507.586V271.116ZM508.486 273.896L508.326 272.826C508.326 272.652 508.356 272.459 508.416 272.246C508.476 272.032 508.576 271.829 508.716 271.636C508.856 271.436 509.042 271.272 509.276 271.146C509.509 271.019 509.799 270.956 510.146 270.956C510.499 270.956 510.806 271.029 511.066 271.176C511.326 271.322 511.529 271.566 511.676 271.906C511.822 272.239 511.896 272.692 511.896 273.266V276.716H510.986V273.396C510.986 273.049 510.959 272.752 510.906 272.506C510.852 272.259 510.749 272.072 510.596 271.946C510.449 271.812 510.229 271.746 509.936 271.746C509.669 271.746 509.426 271.836 509.206 272.016C508.986 272.189 508.809 272.436 508.676 272.756C508.549 273.069 508.486 273.449 508.486 273.896ZM511.896 273.896L511.676 272.826C511.676 272.652 511.709 272.459 511.776 272.246C511.842 272.032 511.949 271.829 512.096 271.636C512.242 271.436 512.436 271.272 512.676 271.146C512.916 271.019 513.206 270.956 513.546 270.956C513.899 270.956 514.206 271.029 514.466 271.176C514.732 271.322 514.936 271.566 515.076 271.906C515.222 272.239 515.296 272.692 515.296 273.266V276.716H514.396V273.396C514.396 273.049 514.369 272.752 514.316 272.506C514.262 272.259 514.159 272.072 514.006 271.946C513.852 271.812 513.629 271.746 513.336 271.746C513.069 271.746 512.826 271.836 512.606 272.016C512.392 272.189 512.219 272.436 512.086 272.756C511.959 273.069 511.896 273.449 511.896 273.896ZM520.23 273.516H521.14V276.716H520.23V273.516ZM518.87 270.956C519.623 270.956 520.19 271.186 520.57 271.646C520.95 272.106 521.14 272.729 521.14 273.516H520.23C520.23 273.149 520.183 272.839 520.09 272.586C519.996 272.326 519.85 272.126 519.65 271.986C519.45 271.846 519.19 271.776 518.87 271.776C518.396 271.776 518.036 271.902 517.79 272.156C517.55 272.409 517.43 272.719 517.43 273.086H516.47C516.47 272.719 516.56 272.376 516.74 272.056C516.926 271.729 517.196 271.466 517.55 271.266C517.91 271.059 518.35 270.956 518.87 270.956ZM520.3 273.276L520.51 273.966C519.51 273.859 518.76 273.919 518.26 274.146C517.766 274.366 517.52 274.676 517.52 275.076C517.52 275.409 517.623 275.666 517.83 275.846C518.043 276.019 518.35 276.106 518.75 276.106C519.063 276.106 519.33 276.036 519.55 275.896C519.77 275.749 519.936 275.556 520.05 275.316C520.17 275.076 520.23 274.806 520.23 274.506L520.5 274.996C520.446 275.369 520.343 275.699 520.19 275.986C520.036 276.266 519.826 276.486 519.56 276.646C519.293 276.799 518.953 276.876 518.54 276.876C518.173 276.876 517.84 276.809 517.54 276.676C517.246 276.536 517.013 276.336 516.84 276.076C516.666 275.816 516.58 275.499 516.58 275.126C516.58 274.766 516.653 274.469 516.8 274.236C516.946 273.996 517.143 273.806 517.39 273.666C517.643 273.526 517.93 273.422 518.25 273.356C518.57 273.289 518.903 273.252 519.25 273.246C519.603 273.239 519.953 273.249 520.3 273.276ZM522.41 269.216H523.31V276.716H522.41V269.216ZM524.647 269.216H525.547V276.716H524.647V269.216ZM534.596 273.716C534.596 274.376 534.506 274.942 534.326 275.416C534.152 275.882 533.869 276.242 533.476 276.496C533.089 276.749 532.572 276.876 531.926 276.876C531.279 276.876 530.759 276.749 530.366 276.496C529.972 276.242 529.689 275.882 529.516 275.416C529.342 274.942 529.256 274.376 529.256 273.716H530.176C530.176 274.202 530.226 274.619 530.326 274.966C530.432 275.306 530.612 275.566 530.866 275.746C531.119 275.919 531.472 276.006 531.926 276.006C532.372 276.006 532.722 275.919 532.976 275.746C533.229 275.566 533.406 275.306 533.506 274.966C533.612 274.619 533.666 274.202 533.666 273.716H534.596ZM529.256 269.716H530.176V273.716H529.256V269.716ZM533.666 269.716H534.596V273.716H533.666V269.716ZM536.556 274.906C536.589 275.286 536.749 275.576 537.036 275.776C537.329 275.969 537.679 276.066 538.086 276.066C538.493 276.066 538.816 275.989 539.056 275.836C539.296 275.676 539.416 275.436 539.416 275.116C539.416 274.922 539.349 274.776 539.216 274.676C539.089 274.576 538.916 274.499 538.696 274.446C538.476 274.392 538.236 274.349 537.976 274.316C537.723 274.276 537.463 274.226 537.196 274.166C536.936 274.106 536.696 274.022 536.476 273.916C536.263 273.802 536.089 273.649 535.956 273.456C535.823 273.256 535.756 272.996 535.756 272.676C535.756 272.376 535.846 272.096 536.026 271.836C536.213 271.569 536.476 271.356 536.816 271.196C537.156 271.036 537.553 270.956 538.006 270.956C538.413 270.956 538.783 271.039 539.116 271.206C539.449 271.366 539.716 271.589 539.916 271.876C540.123 272.162 540.226 272.496 540.226 272.876H539.396C539.369 272.496 539.219 272.209 538.946 272.016C538.679 271.822 538.353 271.726 537.966 271.726C537.533 271.726 537.203 271.816 536.976 271.996C536.756 272.176 536.646 272.402 536.646 272.676C536.646 272.882 536.713 273.042 536.846 273.156C536.979 273.262 537.153 273.346 537.366 273.406C537.586 273.459 537.826 273.502 538.086 273.536C538.353 273.569 538.613 273.616 538.866 273.676C539.126 273.729 539.366 273.809 539.586 273.916C539.806 274.016 539.983 274.162 540.116 274.356C540.249 274.549 540.316 274.802 540.316 275.116C540.316 275.469 540.223 275.776 540.036 276.036C539.849 276.289 539.586 276.486 539.246 276.626C538.913 276.766 538.509 276.836 538.036 276.836C537.596 276.836 537.199 276.752 536.846 276.586C536.499 276.412 536.223 276.182 536.016 275.896C535.809 275.602 535.699 275.272 535.686 274.906H536.556ZM541.704 273.436H546.494L546.614 274.226H541.704V273.436ZM546.604 274.946C546.511 275.332 546.351 275.669 546.124 275.956C545.897 276.242 545.607 276.469 545.254 276.636C544.907 276.796 544.507 276.876 544.054 276.876C543.474 276.876 542.971 276.752 542.544 276.506C542.117 276.252 541.784 275.902 541.544 275.456C541.311 275.009 541.194 274.499 541.194 273.926C541.194 273.346 541.311 272.832 541.544 272.386C541.784 271.939 542.117 271.589 542.544 271.336C542.971 271.082 543.474 270.956 544.054 270.956C544.434 270.956 544.787 271.029 545.114 271.176C545.447 271.322 545.731 271.536 545.964 271.816C546.204 272.096 546.381 272.439 546.494 272.846C546.614 273.246 546.654 273.706 546.614 274.226L545.754 273.776C545.754 273.389 545.687 273.046 545.554 272.746C545.421 272.446 545.227 272.212 544.974 272.046C544.727 271.872 544.421 271.786 544.054 271.786C543.634 271.786 543.281 271.879 542.994 272.066C542.707 272.246 542.491 272.499 542.344 272.826C542.197 273.146 542.124 273.512 542.124 273.926C542.124 274.332 542.197 274.696 542.344 275.016C542.491 275.336 542.707 275.589 542.994 275.776C543.281 275.956 543.634 276.046 544.054 276.046C544.507 276.046 544.861 275.939 545.114 275.726C545.367 275.512 545.544 275.252 545.644 274.946H546.604Z" fill="black"/>
</g>
<defs>
<clipPath id="clip0_502_60759">
<rect width="966" height="500" fill="white"/>
</clipPath>
<clipPath id="clip1_502_60759">
<rect width="478" height="245" fill="white" transform="translate(0 255)"/>
</clipPath>
<clipPath id="clip2_502_60759">
<rect width="223.199" height="25.43" fill="white" transform="translate(143.771 358.975)"/>
</clipPath>
<clipPath id="clip3_502_60759">
<rect width="223.199" height="25.0719" fill="white" transform="translate(143.771 359.192)"/>
</clipPath>
<clipPath id="clip4_502_60759">
<rect width="223.199" height="25.43" fill="white" transform="translate(143.769 104.172)"/>
</clipPath>
<clipPath id="clip5_502_60759">
<rect width="223.199" height="25.0719" fill="white" transform="translate(143.769 104.39)"/>
</clipPath>
<clipPath id="clip6_502_60759">
<rect width="96.5202" height="10.997" fill="white" transform="translate(675.678 115.752)"/>
</clipPath>
<clipPath id="clip7_502_60759">
<rect width="96.5202" height="10.8421" fill="white" transform="translate(675.678 115.847)"/>
</clipPath>
<clipPath id="clip8_502_60759">
<rect width="92.9857" height="10.5943" fill="white" transform="translate(687.423 366.633)"/>
</clipPath>
<clipPath id="clip9_502_60759">
<rect width="92.9857" height="10.4451" fill="white" transform="translate(687.423 366.723)"/>
</clipPath>
</defs>
</svg>
