<svg width="261" height="260" viewBox="0 0 261 260" fill="none" xmlns="http://www.w3.org/2000/svg">
<path d="M251.328 259.999H9.2963V0.00195312H251.328V259.999Z" fill="white"/>
<rect x="58.596" y="0.251953" width="143.431" height="259.497" stroke="#FF5E00" stroke-width="0.5" stroke-dasharray="1.22 1.22"/>
<rect x="0.811493" y="0.5" width="259" height="258.999" rx="127.826" stroke="#FF5E00"/>
<rect x="9.61505" y="179.549" width="241.392" height="26.8461" stroke="#FF5E00" stroke-width="0.5" stroke-dasharray="1.22 1.22"/>
<rect x="9.61505" y="38.6776" width="241.392" height="167.717" stroke="#FF5E00" stroke-width="0.5" stroke-dasharray="1.22 1.22"/>
<rect x="9.36505" y="206.647" width="48.9805" height="53.3527" fill="#FF5E00" fill-opacity="0.14"/>
<rect x="9.36505" width="48.9802" height="38.4294" fill="#FF5E00" fill-opacity="0.14"/>
<rect x="202.277" width="48.9806" height="38.4294" fill="#FF5E00" fill-opacity="0.14"/>
<rect x="202.277" y="206.647" width="49.0499" height="53.3527" fill="#FF5E00" fill-opacity="0.14"/>
<path d="M30.0757 190.87H30.7202L31.7763 192.524L32.8245 190.87H33.469L32.0946 193.029L33.4923 195.218H32.8478L31.7763 193.533L30.6969 195.218H30.0524L31.4501 193.029L30.0757 190.87Z" fill="#FF5E00"/>
<path d="M30.0757 16.6515H30.7202L31.7763 18.3055L32.8245 16.6515H33.469L32.0946 18.8102L33.4923 21H32.8478L31.7763 19.315L30.6969 21H30.0524L31.4501 18.8102L30.0757 16.6515Z" fill="#FF5E00"/>
<path d="M28.9989 238.463C29.0377 235.746 32.4233 236.157 32.4233 234.55C32.4233 233.897 31.903 233.463 31.1187 233.463C30.1481 233.463 29.7055 234.006 29.6589 234.752H29.061C29.061 233.657 29.9151 232.904 31.0799 232.904C32.4 232.904 33.0289 233.703 33.0289 234.519C33.0289 236.483 30.2024 236.142 29.7443 237.935H33.0445V238.463H28.9989ZM33.4176 234.115H34.0621L35.1182 235.769L36.1665 234.115H36.811L35.4365 236.274L36.8343 238.463H36.1898L35.1182 236.778L34.0388 238.463H33.3943L34.792 236.274L33.4176 234.115Z" fill="#FF5E00"/>
<path d="M182.68 129.871L182.926 129.999L182.861 130.063L182.68 129.884C177.138 136.97 172.491 144.774 168.909 153.117C168.858 153.245 168.806 153.36 168.754 153.488C165.301 161.626 162.848 170.275 161.564 179.31C161.551 179.361 161.551 179.425 161.551 179.476C160.863 184.269 160.512 189.164 160.512 194.136C160.512 198.365 160.772 202.543 161.265 206.643L58.346 206.643L58.346 179.31L147.716 179.31C147.884 178.182 148.079 177.08 148.287 175.965L62.1877 153.181L69.3518 126.77L156.515 149.836C156.917 148.952 157.333 148.08 157.748 147.209L79.5269 102.614L93.3619 78.9455L172.751 124.194C173.374 123.451 174.01 122.707 174.672 121.977L109.624 57.7629L129.208 38.4256L195.295 103.691L202.277 110.585C194.931 116.146 188.338 122.631 182.68 129.871Z" fill="#1D1A1B"/>
</svg>
