<svg aria-hidden="true" class="svg-icon iconGear" width="18" height="18" viewBox="0 0 18 18"><path d="M14.8 6.97l-.27-.66c.94-2.15.88-2.22.7-2.4l-1.2-1.19-.12-.1h-.13c-.08 0-.3 0-2.1.84L11 3.18C10.14 1 10.06 1 9.8 1H8.12c-.25 0-.35 0-1.15 2.19l-.66.27a11.2 11.2 0 0 0-2.14-.8h-.16L2.73 3.94c-.2.2-.26.27.72 2.39l-.27.66C1 7.85 1 7.93 1 8.2v1.68c0 .26 0 .35 2.19 1.16l.27.65c-.93 2.15-.87 2.22-.69 2.4l1.2 1.2.11.1h.14c.07 0 .29 0 2.1-.84l.67.27C7.85 17 7.94 17 8.2 17h1.68c.25 0 .34 0 1.15-2.19l.66-.27c1.23.53 1.94.8 2.14.8h.16l1.29-1.3c.18-.18.25-.25-.73-2.36l.27-.66C17 10.15 17 10.06 17 9.8V8.12c0-.26 0-.35-2.2-1.15zM9 12.1a3.1 3.1 0 1 1 0-6.2 3.1 3.1 0 0 1 0 6.2z"/></svg>