<svg role="icon" class="svg-icon iconLogoEnterpriseWordmarkSm" width="62" height="22" viewBox="0 0 62 22"><path d="M61 11.65h-3.31v1.58h2.78c.16 0 .29.13.29.29v1c0 .15-.13.28-.3.28H57.7v1.64H61c.17 0 .3.13.3.3v1a.3.3 0 0 1-.3.29h-4.71a.29.29 0 0 1-.3-.29v-7.39a.3.3 0 0 1 .3-.29H61a.3.3 0 0 1 .29.3v1a.3.3 0 0 1-.3.29zm-6.8 2.25c.45.4.7 1 .7 1.73 0 1.46-1.19 2.45-2.94 2.45-1.25 0-2.09-.32-2.82-1.06a.29.29 0 0 1 0-.4l.75-.74c.1-.11.29-.11.4 0 .44.44.93.62 1.69.62.46 0 1.23-.11 1.23-.84 0-.17-.03-.41-.2-.55-.12-.13-.24-.19-.65-.24l-.87-.13a2.82 2.82 0 0 1-1.56-.66c-.41-.4-.63-.94-.63-1.63C49.3 11 50.41 10 52.06 10c1.05 0 1.8.27 2.49.92a.29.29 0 0 1 0 .41l-.71.7a.29.29 0 0 1-.4.01c-.36-.34-.79-.49-1.41-.49-.67 0-1.06.32-1.06.86 0 .2.06.36.18.47.15.13.4.23.68.27l.84.13c.72.1 1.16.29 1.53.62zm-5.8-3.84c.16 0 .3.13.3.29v7.36a.3.3 0 0 1-.3.29h-1.1a.29.29 0 0 1-.29-.3v-7.35c0-.16.13-.29.29-.29h1.11zm-3.96 4.59L46 17.64a.29.29 0 0 1-.26.42h-1.31a.29.29 0 0 1-.26-.16l-1.48-2.97h-.94v2.84a.3.3 0 0 1-.3.29h-1.12a.29.29 0 0 1-.29-.29v-7.42a.3.3 0 0 1 .3-.29h2.87c1.53 0 2.6 1.01 2.6 2.46 0 .98-.52 1.76-1.37 2.13zm-1.31-1.25c.29 0 .97-.09.97-.87 0-.55-.37-.88-.97-.88h-1.38v1.75h1.38zm-6.96-3.34c1.57 0 2.66 1.04 2.66 2.54 0 1.49-1.1 2.53-2.66 2.53h-1.4v2.62c0 .16-.12.29-.28.29h-1.12a.29.29 0 0 1-.3-.29v-7.4a.3.3 0 0 1 .3-.29h2.8zm-.06 3.47c.65 0 1.02-.34 1.02-.93 0-.6-.38-.95-1.02-.95h-1.33v1.88h1.33zm-5.67 1.08l1.54 2.96a.29.29 0 0 1-.25.42h-1.3a.29.29 0 0 1-.26-.16L28.7 14.9h-.93v2.81a.3.3 0 0 1-.29.3h-1.11a.29.29 0 0 1-.29-.3v-7.35c0-.16.13-.29.29-.29h2.85c1.51 0 2.57 1 2.57 2.44 0 .97-.51 1.75-1.35 2.11zm-1.3-1.24c.28 0 .96-.09.96-.86 0-.55-.36-.87-.97-.87h-1.36v1.73h1.36zm-4.15-3.3c.16 0 .29.12.29.28v1a.3.3 0 0 1-.3.3h-3.3v1.57h2.78c.16 0 .29.13.29.28v1c0 .16-.13.29-.29.29H21.7v1.63H25a.3.3 0 0 1 .29.3v1c0 .15-.13.28-.3.28h-4.7a.29.29 0 0 1-.28-.28v-7.37c0-.16.12-.29.28-.29h4.7zm-6.43 0c.16 0 .28.12.28.28v1.01c0 .16-.12.3-.28.3H16.8v6.1a.3.3 0 0 1-.29.3H15.4a.29.29 0 0 1-.29-.3v-6.1h-1.75a.29.29 0 0 1-.29-.3v-1c0-.17.13-.3.29-.3h5.2zm-6.7 0c.16 0 .28.12.28.28v7.4c0 .17-.12.3-.28.3h-1.03a.29.29 0 0 1-.25-.13l-2.89-4.4v4.24c0 .16-.13.29-.29.29H6.28a.29.29 0 0 1-.29-.3v-7.4a.3.3 0 0 1 .3-.29H7.3c.1 0 .19.05.24.13l2.9 4.4v-4.24c0-.16.12-.29.28-.29h1.13zm-11.57 0h4.7c.16 0 .29.12.29.28v1a.3.3 0 0 1-.3.29H1.7v1.57h2.77a.3.3 0 0 1 .29.3v.98c0 .16-.13.29-.29.29H1.7v1.64H5c.16 0 .29.13.29.28v1a.3.3 0 0 1-.3.3H.29a.29.29 0 0 1-.28-.3v-7.35c0-.16.13-.29.29-.29z" fill="#F48024"/></svg>