<svg aria-hidden="true" class="svg-icon iconLogoSm" width="111" height="22" viewBox="0 0 111 22"><g><path fill="#C1BEBC" d="M16 20v-6h2v8H0v-8h2v6z"/><path d="M4 18h10v-2H4v2zm8.72-18l-1.57 1.17L17 9.05l1.57-1.18L12.72 0zM7.86 4.64l7.54 6.28 1.25-1.5-7.54-6.29-1.25 1.51zM5.39 9.01l8.9 4.14.83-1.78-8.9-4.14L5.4 9zm-1.27 4.6l9.91 1.67.13-1.67-9.63-1.92-.4 1.92z" fill="#F48024"/><path d="M31.26 11.52l1.04-1.04h-2.13V7.95h-1.13v7.98c0 1.14.66 2.07 1.97 2.07h.8v-.97h-.6c-.71 0-1.04-.42-1.04-1.13v-4.38h1.09zm58.72 4.06V6.86h-2v8.85c0 1.14.69 2.29 2.33 2.29h1.14v-1.7h-.77c-.5 0-.7-.24-.7-.72zM108 9.98l-1.29 4.96-1.64-4.95h-1.46l-1.63 4.95-1.3-4.95h-2.12l2.46 8h1.65l1.67-5.02 1.68 5.03h1.65l2.44-8.01h-2.1zm-11.9 5.96c-.23.23-.54.35-.94.35-.4 0-.69-.12-.92-.35-.42-.42-.46-1.12-.46-1.95 0-.84.04-1.53.46-1.94.23-.23.52-.36.92-.36s.7.13.94.36c.41.41.46 1.1.46 1.94 0 .83-.05 1.53-.46 1.95zm-.94-6.04c-1.18 0-1.98.46-2.47.98-.73.75-.91 1.66-.91 3.1 0 1.47.18 2.37.9 3.13.5.52 1.3.98 2.48.98 1.19 0 2-.46 2.5-.98.72-.76.9-1.66.9-3.12 0-1.45-.18-2.36-.9-3.11a3.36 3.36 0 0 0-2.5-.98zm-12.12-.75V18h2v-6.32h1.48v-1.52h-1.48v-.87c0-.47.23-.73.71-.73h.77v-1.7h-1.14c-1.63 0-2.34 1.15-2.34 2.3zm-4.1 1.6V10h-1.96v8h2v-4.82c0-1.01.67-1.48 1.29-1.48.5 0 .75.17 1.05.47l1.52-1.51a2.42 2.42 0 0 0-1.9-.75c-.86 0-1.62.4-2 .86zm-7.97 2.5c.01-.36.06-.57.18-.86a1.4 1.4 0 0 1 1.34-.83c.68 0 1.12.35 1.34.83.12.29.17.5.18.86h-3.04zm1.52-3.35c-2.07 0-3.49 1.47-3.49 4.09 0 3.24 1.82 4.1 3.7 4.1 1.45 0 2.24-.45 3.05-1.26l-1.21-1.18c-.51.5-.94.75-1.82.75-1.12 0-1.75-.75-1.75-1.78h5.01v-.9c0-2.2-1.26-3.82-3.49-3.82zm-5.5.09l-1.62 4.95-1.63-4.95h-2.1l2.95 8h1.56l2.94-8H67zm-7.79 5.95c-.23.23-.54.35-.94.35-.4 0-.69-.12-.92-.35-.41-.42-.46-1.12-.46-1.95 0-.84.05-1.53.46-1.94.23-.23.52-.36.92-.36s.71.13.94.36c.42.41.46 1.1.46 1.94 0 .83-.04 1.53-.46 1.95zm-.94-6.04c-1.18 0-1.98.46-2.47.98-.72.75-.9 1.66-.9 3.1 0 1.47.18 2.37.9 3.13.5.52 1.29.98 2.47.98 1.19 0 2-.46 2.5-.98.72-.76.9-1.66.9-3.12 0-1.45-.18-2.36-.9-3.11a3.36 3.36 0 0 0-2.5-.98zm-5.28.4h-1.4l-3.5 3.39.01-6.82h-1.12V18h1.12v-2.81l1.36-1.37L52.03 18h1.4l-3.2-4.96 2.75-2.74zm-9.64.91c.73 0 1.19.22 1.76.86 0 0 .76-.73.75-.74a3.04 3.04 0 0 0-2.51-1.12c-1.94 0-3.4 1.32-3.4 3.94 0 2.63 1.46 3.94 3.4 3.94 1.06 0 1.73-.28 2.53-1.14l-.77-.74c-.57.65-1.03.88-1.76.88-.75 0-1.38-.3-1.78-.88-.36-.5-.5-1.09-.5-2.06s.14-1.56.5-2.06c.4-.58 1.03-.88 1.78-.88zm-5.53 4.07c0 .64-.13 1.08-.4 1.33-.48.46-1.06.51-1.71.51-1.22 0-1.77-.42-1.77-1.31 0-.9.56-1.36 1.72-1.36h2.16v.83zm-1.96-5.07c-1.23 0-2 .25-2.69 1.1 0 .02.74.75.74.75.45-.64.95-.88 1.94-.88 1.4 0 1.97.56 1.97 1.69v.73h-2.32c-1.72 0-2.65.88-2.65 2.22 0 .61.2 1.2.57 1.57.49.5 1.11.7 2.18.7 1.03 0 1.59-.2 2.22-.83V18h1.12v-5.22c0-1.68-1.02-2.57-3.08-2.57zm-9.62 3.46l-1.24-.11c-.97-.08-1.34-.47-1.34-1.13 0-.78.6-1.26 1.72-1.26.8 0 1.5.18 2.05.6l.73-.73a4.35 4.35 0 0 0-2.77-.83c-1.64 0-2.82.85-2.82 2.25 0 1.27.8 1.94 2.3 2.07l1.26.1c.89.08 1.28.46 1.28 1.13 0 .9-.78 1.36-2.05 1.36-.95 0-1.78-.25-2.39-.89l-.75.75a4.24 4.24 0 0 0 3.16 1.11c1.86 0 3.12-.86 3.12-2.34 0-1.44-.92-1.96-2.26-2.08z"/></g></svg>