<svg width="596" height="141" fill="none" xmlns="http://www.w3.org/2000/svg"><path d="M136.542 112.547v-4.314c0-.719-.514-1.233-1.233-1.233h-22.077c-.719 0-1.232.514-1.232 1.233v4.314c0 .719.513 1.232 1.232 1.232h7.394v25.886c0 .719.513 1.232 1.232 1.232h4.723c.719 0 1.232-.513 1.232-1.232v-25.886h7.394c.821 0 1.335-.513 1.335-1.232zm15.402-4.623c-.205-.513-.616-.821-1.129-.821h-3.799c-.514 0-.925.308-1.13.821l-11.501 31.432c-.102.411-.102.822.103 1.13.205.309.616.514 1.027.514h5.031c.514 0 1.027-.308 1.13-.822l1.848-5.444h10.679l1.849 5.444c.205.514.616.822 1.129.822h5.032c.411 0 .821-.205 1.027-.514.205-.308.308-.719.102-1.13l-11.398-31.432zm-6.161 20.236l3.184-8.936 3.08 8.936h-6.264zm42.306 6.061h-13.965v-25.886c0-.719-.513-1.232-1.232-1.232h-4.723c-.719 0-1.233.513-1.233 1.232v31.432c0 .719.514 1.233 1.233 1.233h19.92c.719 0 1.233-.514 1.233-1.233v-4.314c0-.616-.514-1.232-1.233-1.232zm26.39-27.118h-20.126c-.719 0-1.232.513-1.232 1.232v31.432c0 .719.513 1.233 1.232 1.233h20.126c.719 0 1.233-.514 1.233-1.233v-4.314c0-.719-.514-1.232-1.233-1.232h-14.067v-6.985h11.808c.719 0 1.233-.514 1.233-1.233v-4.211c0-.719-.514-1.233-1.233-1.233h-11.808v-6.78h14.067c.719 0 1.233-.513 1.233-1.232v-4.314c0-.617-.514-1.13-1.233-1.13zm30.601 0h-4.724c-.719 0-1.232.513-1.232 1.232v17.976l-12.322-18.695c-.206-.308-.616-.513-1.027-.513h-4.416c-.718 0-1.232.513-1.232 1.232v31.432c0 .719.514 1.233 1.232 1.233h4.724c.719 0 1.232-.514 1.232-1.233v-17.975l12.322 18.694c.206.309.616.514 1.027.514h4.416c.718 0 1.232-.514 1.232-1.233v-31.432c0-.719-.514-1.232-1.232-1.232zm28.443 0h-22.077c-.719 0-1.232.513-1.232 1.232v4.315c0 .719.513 1.232 1.232 1.232h7.393v25.885c0 .719.514 1.233 1.233 1.233h4.723c.719 0 1.232-.514 1.232-1.233v-25.885h7.394c.718 0 1.232-.513 1.232-1.232v-4.315c.102-.719-.411-1.232-1.13-1.232z" fill="#F48024"/><path d="M84.021 75.995v31H11v-31H0v42h95v-42H84.021z" fill="#BCBBBB"/><path d="M21.057 96.995H74v-10H21.057v10zm1.058-23.915l51.428 10.794 2.117-10.265L24.23 62.815 22.115 73.08zm6.773-24.656l47.618 22.222 4.445-9.524L33.33 38.9l-4.444 9.524zm13.227-23.386l40.423 33.65 6.773-8.042-40.53-33.65-6.666 8.042zM68.147.17L59.68 6.413l31.323 42.223 8.465-6.244L68.147.17z" fill="#F48024"/><path d="M135.965 73.416l-6.753-.614c-5.321-.41-7.367-2.592-7.367-6.14 0-4.297 3.274-6.958 9.414-6.958 4.365 0 8.185 1.024 11.187 3.343l4.025-4.025c-3.752-3.07-9.141-4.502-15.144-4.502-9.005 0-15.485 4.639-15.485 12.347 0 6.958 4.366 10.642 12.552 11.324l6.958.614c4.843.41 7.026 2.456 7.026 6.14 0 4.979-4.298 7.435-11.188 7.435-5.252 0-9.754-1.365-13.097-4.844L114 91.63c4.639 4.434 10.164 6.072 17.259 6.072 10.164 0 17.122-4.707 17.122-12.825 0-7.913-5.048-10.778-12.416-11.46zm52.663-18.896c-6.753 0-10.983 1.364-14.735 6.071-.068.068 4.025 4.025 4.025 4.025 2.456-3.479 5.253-4.775 10.642-4.775 7.708 0 10.778 3.07 10.778 9.209v4.025H186.65c-9.414 0-14.53 4.775-14.53 12.142 0 3.343 1.091 6.48 3.138 8.527 2.66 2.729 6.071 3.82 11.869 3.82 5.662 0 8.732-1.091 12.143-4.502v4.025h6.139V68.504c.068-9.072-5.457-13.984-16.781-13.984zm10.71 27.696c0 3.479-.682 5.934-2.115 7.299-2.66 2.592-5.798 2.796-9.414 2.796-6.685 0-9.686-2.319-9.686-7.162 0-4.844 3.069-7.436 9.413-7.436h11.802v4.503zm30.287-22.239c4.025 0 6.481 1.228 9.687 4.707l4.093-4.025c-4.298-4.638-7.981-6.139-13.78-6.139-10.641 0-18.622 7.163-18.622 21.556 0 14.394 8.049 21.556 18.622 21.556 5.799 0 9.482-1.569 13.848-6.276l-4.161-4.024c-3.138 3.479-5.662 4.775-9.687 4.775-4.092 0-7.503-1.637-9.754-4.775-1.979-2.729-2.729-6.003-2.729-11.324 0-5.32.75-8.527 2.729-11.324 2.251-3.07 5.662-4.707 9.754-4.707zm52.731-4.98h-7.708l-19.101 18.555V36.238h-6.139v60.917h6.139V81.806l7.504-7.503 14.121 22.852h7.64l-17.463-27.15 15.007-15.007zm28.992-2.182c-6.481 0-10.847 2.524-13.575 5.389-3.957 4.093-4.98 9.072-4.98 16.985 0 7.982 1.023 12.961 4.98 17.054 2.66 2.865 7.094 5.39 13.575 5.39 6.48 0 10.914-2.525 13.643-5.39 3.956-4.093 4.98-9.072 4.98-17.054 0-7.913-1.024-12.892-4.98-16.985-2.729-2.865-7.163-5.39-13.643-5.39zm5.116 33.016c-1.296 1.296-2.933 1.91-5.116 1.91s-3.82-.682-5.048-1.91c-2.251-2.251-2.524-6.14-2.524-10.71 0-4.57.273-8.322 2.524-10.573 1.296-1.296 2.865-1.91 5.048-1.91s3.888.682 5.116 1.91c2.251 2.25 2.524 6.07 2.524 10.573 0 4.57-.273 8.459-2.524 10.71zm42.566-32.539l-8.868 27.082-8.936-27.082h-11.46l16.167 43.863h8.595l16.099-43.863H359.03zm30.152-.477c-11.392 0-19.101 8.05-19.101 22.374 0 17.736 9.96 22.443 20.26 22.443 7.913 0 12.211-2.456 16.645-6.89l-6.617-6.48c-2.797 2.797-5.116 4.093-9.959 4.093-6.14 0-9.619-4.093-9.619-9.755h27.423V73.69c.068-12.006-6.822-20.874-19.032-20.874zm-8.323 18.281c.069-1.91.342-3.138 1.024-4.706 1.159-2.593 3.615-4.57 7.299-4.57 3.683 0 6.139 1.91 7.299 4.57.682 1.569.955 2.796 1.023 4.706h-16.645zm43.59-13.575v-4.229h-10.71v43.863h10.915v-26.4c0-5.525 3.683-8.05 7.094-8.05 2.661 0 4.093.888 5.799 2.593l8.254-8.322c-3.002-3.002-6.071-4.093-10.369-4.093-4.639-.068-8.868 2.114-10.983 4.639zm24.762-8.8v48.366h10.915V62.5h8.118V54.18h-8.05v-4.775c0-2.524 1.296-3.957 3.888-3.957h4.23V36.17h-6.208c-9.004 0-12.893 6.344-12.893 12.552zm64.055 4.094c-6.481 0-10.846 2.524-13.575 5.389-3.957 4.093-4.98 9.072-4.98 16.985 0 7.982 1.023 12.961 4.98 17.054 2.66 2.865 7.094 5.39 13.575 5.39 6.48 0 10.914-2.525 13.643-5.39 3.957-4.093 4.98-9.072 4.98-17.054 0-7.913-1.023-12.892-4.98-16.985-2.66-2.865-7.163-5.39-13.643-5.39zm5.184 33.016c-1.296 1.296-2.933 1.91-5.116 1.91s-3.82-.682-5.048-1.91c-2.251-2.251-2.524-6.14-2.524-10.71 0-4.57.273-8.322 2.524-10.573 1.296-1.296 2.865-1.91 5.048-1.91s3.888.682 5.116 1.91c2.251 2.25 2.524 6.07 2.524 10.573 0 4.57-.273 8.459-2.524 10.71zm65.146-32.539l-7.094 27.082-9.005-27.082h-7.981l-8.936 27.082-7.095-27.082h-11.596l13.438 43.863h9.005l9.141-27.491 9.14 27.49h9.005l13.507-43.862h-11.529zm-99.185 30.629V36.17h-10.915v48.433c0 6.208 3.82 12.552 12.825 12.552h6.207v-9.278h-4.229c-2.797 0-3.888-1.364-3.888-3.956zM165.435 61.683l5.661-5.662h-11.664V42.105h-6.14V85.83c0 6.276 3.616 11.324 10.778 11.324h4.366v-5.321h-3.274c-3.957 0-5.73-2.32-5.73-6.14V61.684h6.003z" fill="#222426"/></svg>