<svg width="189" height="48" viewBox="0 0 189 48" fill="none" xmlns="http://www.w3.org/2000/svg">
<g clip-path="url(#clip0)">
<path d="M42 23.0042L39.8 22.8042C38.1 22.7042 37.5 22.0042 37.5 20.8042C37.5 19.4042 38.5 18.6042 40.5 18.6042C41.8 18.5042 43.1 18.9042 44.1 19.7042L45.4 18.4042C44 17.4042 42.3 16.9042 40.6 17.0042C37.7 17.0042 35.7 18.5042 35.7 20.9042C35.7 23.1042 37.1 24.3042 39.7 24.5042L41.9 24.7042C43.5 24.8042 44.1 25.5042 44.1 26.7042C44.1 28.3042 42.7 29.1042 40.5 29.1042C38.9 29.2042 37.4 28.6042 36.3 27.5042L35 28.8042C36.5 30.2042 38.5 30.8042 40.5 30.7042C43.7 30.7042 46 29.2042 46 26.6042C46 24.0042 44.4 23.2042 42 23.0042ZM58.8 16.9042C56.6 16.9042 55.3 17.3042 54.1 18.8042L55.4 20.1042C56.2 19.0042 57.5 18.4042 58.8 18.6042C61.3 18.6042 62.2 19.6042 62.2 21.5042V22.8042H58.2C55.2 22.8042 53.6 24.3042 53.6 26.7042C53.6 27.7042 53.9 28.7042 54.6 29.4042C55.4 30.3042 56.5 30.6042 58.4 30.6042C59.8 30.7042 61.3 30.2042 62.3 29.2042V30.5042H64.3V21.4042C64.2 18.5042 62.4 16.9042 58.8 16.9042ZM62.2 25.8042C62.3 26.6042 62.1 27.5042 61.5 28.1042C60.7 28.8042 59.6 29.1042 58.5 29.0042C56.4 29.0042 55.4 28.3042 55.4 26.7042C55.4 25.1042 56.4 24.3042 58.4 24.3042H62.2V25.8042ZM71.9 18.7042C73.1 18.7042 74.3 19.2042 75 20.2042L76.3 18.9042C75.2 17.6042 73.6 16.8042 71.9 16.9042C68.5 16.9042 66 19.2042 66 23.8042C66 28.4042 68.6 30.7042 71.9 30.7042C73.6 30.8042 75.2 30.0042 76.3 28.7042L75 27.4042C74.3 28.4042 73.1 28.9042 71.9 28.9042C70.7 29.0042 69.5 28.4042 68.8 27.4042C68.1 26.3042 67.8 25.1042 67.9 23.8042C67.8 22.5042 68.1 21.3042 68.8 20.2042C69.5 19.2042 70.7 18.6042 71.9 18.7042ZM88.7 17.1042H86.3L80.2 23.0042V11.1042H78.2V30.5042H80.2V25.6042L82.6 23.2042L87.1 30.5042H89.5L83.9 21.9042L88.7 17.1042ZM97.9 16.9418C96.3 16.8418 94.7 17.4418 93.6 18.6418C92.3 19.9418 92 21.5418 92 24.0418C92 26.5418 92.3 28.1418 93.6 29.4418C94.7 30.5418 96.3 31.1418 97.9 31.1418C99.5 31.2418 101.1 30.6418 102.2 29.4418C103.5 28.1418 103.8 26.5418 103.8 24.0418C103.8 21.5418 103.5 19.9418 102.2 18.6418C101.1 17.4418 99.5 16.8418 97.9 16.9418ZM99.6 27.4418C98.7 28.2418 97.3 28.2418 96.4 27.4418C95.7 26.7418 95.6 25.4418 95.6 24.0418C95.6 22.6418 95.7 21.3418 96.4 20.6418C97.3 19.8418 98.7 19.8418 99.6 20.6418C100.3 21.3418 100.4 22.5418 100.4 24.0418C100.4 25.5418 100.3 26.7418 99.6 27.4418ZM113.2 17.0418L110.4 25.6418L107.6 17.0418H103.9L109.1 31.0418H111.8L116.9 17.0418H113.2ZM122.8 16.9418C119.2 16.9418 116.7 19.5418 116.7 24.0418C116.7 29.7418 119.9 31.2418 123.2 31.2418C125.2 31.3418 127.2 30.5418 128.5 29.0418L126.4 26.9418C125.6 27.8418 124.4 28.3418 123.2 28.2418C121.6 28.3418 120.2 27.1418 120.1 25.5418V25.1418H128.8V23.5418C128.9 19.7418 126.7 16.9418 122.8 16.9418ZM120.1 22.7418C120.1 22.2418 120.2 21.7418 120.4 21.2418C120.8 20.3418 121.7 19.8418 122.7 19.8418C123.7 19.7418 124.6 20.3418 125 21.2418C125.2 21.7418 125.3 22.2418 125.3 22.7418H120.1ZM134 18.4418V17.1418H130.6V31.1418H134.1V22.7418C134 21.4418 134.9 20.3418 136.2 20.1418H136.4C137.1 20.1418 137.8 20.4418 138.2 20.9418L140.8 18.3418C140 17.4418 138.7 16.9418 137.5 17.0418C136.2 16.9418 134.9 17.4418 134 18.4418ZM141.9 15.6418V31.0418H145.4V20.0418H148V17.3418H145.4V15.8418C145.3 15.2418 145.7 14.6418 146.3 14.5418H147.9V11.5418H145.9C143.8 11.4418 142 13.1418 141.9 15.3418V15.6418ZM162.3 16.9418C160.7 16.8418 159.1 17.4418 158 18.6418C156.7 19.9418 156.4 21.5418 156.4 24.0418C156.4 26.5418 156.7 28.1418 158 29.4418C159.1 30.5418 160.7 31.1418 162.3 31.1418C163.9 31.2418 165.5 30.6418 166.6 29.4418C167.9 28.1418 168.2 26.5418 168.2 24.0418C168.2 21.5418 167.9 19.9418 166.6 18.6418C165.5 17.4418 163.9 16.8418 162.3 16.9418ZM164 27.4418C163.1 28.2418 161.7 28.2418 160.8 27.4418C160.1 26.7418 160 25.4418 160 24.0418C160 22.6418 160.1 21.3418 160.8 20.6418C161.7 19.8418 163.1 19.8418 164 20.6418C164.7 21.3418 164.8 22.5418 164.8 24.0418C164.8 25.5418 164.7 26.7418 164 27.4418ZM184.7 17.0418L182.4 25.6418L179.5 17.0418H177L174.2 25.7418L171.9 17.1418H168.2L172.5 31.1418H175.4L178.3 22.3418L181.2 31.1418H184.2L188.5 17.1418L184.7 17.0418ZM153.1 26.8418V11.6418H149.6V27.0418C149.5 29.1418 151.1 30.9418 153.2 31.0418H155.7V28.0418H154.4C153.8 28.1418 153.3 27.8418 153.1 27.2418V26.8418ZM53.2 17.4042H49.5V13.0042H47.5V26.9042C47.5 28.9042 48.6 30.5042 50.9 30.5042H52.3V28.8042H51.3C50 28.8042 49.5 28.1042 49.5 26.8042V19.1042H51.4L53.2 17.4042Z" fill="#222426"/>
<path d="M26 33V24H30V37H0V24H4V33H26Z" fill="#BCBBBB"/>
<path d="M23.0908 25.9902L23.7844 23.041L7.67993 19.687L7 23L23.0908 25.9902ZM9.1 15.2L24.1 22.2L25.5 19.2L10.5 12.2L9.1 15.2ZM13.3 7.8L26 18.4L28.1 15.9L15.4 5.3L13.3 7.8ZM21.5 0L18.8 2L28.7 15.3L31.4 13.3L21.5 0ZM7 30H23V27H7V30Z" fill="#F48024"/>
<path d="M36.7471 37.0303V39.9312H40.5303V37.0303H41.6729V44H40.5303V40.896H36.7471V44H35.6045V37.0303H36.7471Z" fill="#BCBBBB"/>
<path d="M47.8732 44L47.6511 43.0098H47.6003C47.2533 43.4456 46.9063 43.7419 46.5593 43.8984C46.2165 44.0508 45.7827 44.127 45.258 44.127C44.5725 44.127 44.035 43.9471 43.6457 43.5874C43.2564 43.2277 43.0617 42.7199 43.0617 42.064C43.0617 40.6506 44.1768 39.91 46.4069 39.8423L47.5876 39.7979V39.3853C47.5876 38.8563 47.4733 38.467 47.2448 38.2173C47.0163 37.9634 46.6503 37.8364 46.1467 37.8364C45.7785 37.8364 45.4294 37.8914 45.0993 38.0015C44.7735 38.1115 44.4667 38.2342 44.1789 38.3696L43.8298 37.5127C44.181 37.3265 44.564 37.1805 44.9787 37.0747C45.3934 36.9689 45.8039 36.916 46.2102 36.916C47.0523 36.916 47.6786 37.1022 48.0891 37.4746C48.4995 37.847 48.7048 38.4395 48.7048 39.252V44H47.8732ZM45.5183 43.2065C46.1573 43.2065 46.6587 43.0352 47.0227 42.6924C47.3908 42.3454 47.5749 41.8545 47.5749 41.2197V40.5913L46.5466 40.6357C45.7468 40.6654 45.1628 40.7923 44.7946 41.0166C44.4307 41.2409 44.2487 41.5942 44.2487 42.0767C44.2487 42.4406 44.3588 42.7199 44.5788 42.9146C44.8031 43.1092 45.1162 43.2065 45.5183 43.2065Z" fill="#BCBBBB"/>
<path d="M56.1227 44.127C55.1874 44.127 54.468 43.7905 53.9645 43.1177H53.8883L53.9137 43.3779C53.9475 43.708 53.9645 44.0021 53.9645 44.2603V47.123H52.8219V37.0303H53.7613L53.9137 37.9824H53.9645C54.2353 37.6016 54.5484 37.3265 54.9039 37.1572C55.2594 36.988 55.6699 36.9033 56.1354 36.9033C57.041 36.9033 57.7434 37.2186 58.2428 37.8491C58.7464 38.4754 58.9981 39.3599 58.9981 40.5024C58.9981 41.6408 58.7464 42.5295 58.2428 43.1685C57.7392 43.8075 57.0325 44.127 56.1227 44.127ZM55.9322 37.8618C55.2424 37.8618 54.7431 38.0565 54.4342 38.4458C54.1295 38.8351 53.9729 39.4466 53.9645 40.2803V40.5024C53.9645 41.4461 54.121 42.1296 54.4342 42.5527C54.7473 42.9717 55.2551 43.1812 55.9576 43.1812C56.5416 43.1812 56.9965 42.9442 57.3224 42.4702C57.6524 41.9963 57.8175 41.3361 57.8175 40.4897C57.8175 39.6392 57.6524 38.9896 57.3224 38.541C56.9965 38.0882 56.5331 37.8618 55.9322 37.8618Z" fill="#BCBBBB"/>
<path d="M59.3396 37.0303H60.5647L62.0691 40.9976C62.3865 41.8608 62.5812 42.4935 62.6531 42.8955H62.7039C62.742 42.7389 62.8287 42.4469 62.9642 42.0195C63.0996 41.5879 63.2138 41.243 63.3069 40.9849L64.7225 37.0303H65.9539L62.9515 44.9648C62.6595 45.735 62.3125 46.2873 61.9104 46.6216C61.5084 46.9559 61.0112 47.123 60.4188 47.123C60.1014 47.123 59.7861 47.0871 59.4729 47.0151V46.1074C59.6845 46.1582 59.9384 46.1836 60.2347 46.1836C60.5986 46.1836 60.9075 46.082 61.1614 45.8789C61.4153 45.68 61.6227 45.3711 61.7835 44.9521L62.1453 44.0254L59.3396 37.0303Z" fill="#BCBBBB"/>
<path d="M69.5264 44.127C68.5234 44.127 67.7427 43.8201 67.1841 43.2065C66.6255 42.5887 66.3462 41.7043 66.3462 40.5532C66.3462 39.3853 66.6276 38.486 67.1904 37.8555C67.7575 37.2207 68.5636 36.9033 69.6089 36.9033C69.9474 36.9033 70.2817 36.9393 70.6118 37.0112C70.9461 37.0789 71.2212 37.1678 71.437 37.2778L71.0879 38.23C70.4997 38.0099 69.9982 37.8999 69.5835 37.8999C68.881 37.8999 68.3626 38.1221 68.0283 38.5664C67.694 39.0065 67.5269 39.6646 67.5269 40.5405C67.5269 41.3826 67.694 42.028 68.0283 42.4766C68.3626 42.9209 68.8577 43.1431 69.5137 43.1431C70.1273 43.1431 70.7303 43.0076 71.3228 42.7368V43.7524C70.8403 44.0021 70.2415 44.127 69.5264 44.127Z" fill="#BCBBBB"/>
<path d="M75.4475 44.127C74.4445 44.127 73.6638 43.8201 73.1052 43.2065C72.5466 42.5887 72.2673 41.7043 72.2673 40.5532C72.2673 39.3853 72.5487 38.486 73.1115 37.8555C73.6786 37.2207 74.4847 36.9033 75.53 36.9033C75.8685 36.9033 76.2028 36.9393 76.5329 37.0112C76.8672 37.0789 77.1423 37.1678 77.3581 37.2778L77.009 38.23C76.4208 38.0099 75.9193 37.8999 75.5046 37.8999C74.8021 37.8999 74.2837 38.1221 73.9494 38.5664C73.6151 39.0065 73.4479 39.6646 73.4479 40.5405C73.4479 41.3826 73.6151 42.028 73.9494 42.4766C74.2837 42.9209 74.7788 43.1431 75.4348 43.1431C76.0484 43.1431 76.6514 43.0076 77.2438 42.7368V43.7524C76.7614 44.0021 76.1626 44.127 75.4475 44.127Z" fill="#BCBBBB"/>
<path d="M82.6952 37.0303H83.9457L80.9687 40.3882L84.1933 44H82.8666L79.7182 40.4644V44H78.5756V37.0303H79.7182V40.4136L82.6952 37.0303Z" fill="#BCBBBB"/>
<path d="M91.0602 40.5024C91.0602 41.6408 90.7724 42.5295 90.1969 43.1685C89.6214 43.8075 88.8258 44.127 87.8102 44.127C87.1796 44.127 86.621 43.981 86.1344 43.689C85.6477 43.3927 85.2732 42.9696 85.0108 42.4194C84.7485 41.8693 84.6173 41.2303 84.6173 40.5024C84.6173 39.3683 84.9008 38.486 85.4679 37.8555C86.0349 37.2207 86.8305 36.9033 87.8546 36.9033C88.8364 36.9033 89.615 37.2271 90.1905 37.8745C90.7703 38.5177 91.0602 39.3937 91.0602 40.5024ZM85.798 40.5024C85.798 41.3784 85.9693 42.0449 86.3121 42.502C86.6591 42.9548 87.169 43.1812 87.8419 43.1812C88.5063 43.1812 89.012 42.9548 89.359 42.502C89.706 42.0449 89.8795 41.3784 89.8795 40.5024C89.8795 39.6265 89.7039 38.9684 89.3526 38.5283C89.0056 38.084 88.4957 37.8618 87.8229 37.8618C86.4729 37.8618 85.798 38.742 85.798 40.5024Z" fill="#BCBBBB"/>
<path d="M96.2576 42.9082C96.3846 42.4469 96.5454 41.9709 96.74 41.48L98.5555 37.0303H100.028V44H98.9998V38.2554C98.8517 38.7166 98.6782 39.2012 98.4793 39.709L96.74 44H95.8133L94.074 39.6836C93.9894 39.4805 93.9048 39.2583 93.8201 39.0171C93.7397 38.7759 93.6593 38.522 93.5789 38.2554V44H92.5506V37.0303H93.9788L95.7371 41.3086C95.8937 41.7064 96.0672 42.2396 96.2576 42.9082Z" fill="#BCBBBB"/>
</g>
<defs>
<clipPath id="clip0">
<rect width="189" height="48" fill="white"/>
</clipPath>
</defs>
</svg>
