<?xml version="1.0" encoding="UTF-8"?>
<svg width="622px" height="157px" viewBox="0 0 622 157" version="1.1" xmlns="http://www.w3.org/2000/svg" xmlns:xlink="http://www.w3.org/1999/xlink">
    <!-- Generator: Sketch 52.4 (67378) - http://www.bohemiancoding.com/sketch -->
    <title>logo-community</title>
    <desc>Created with Sketch.</desc>
    <g id="logo-community" stroke="none" stroke-width="1" fill="none" fill-rule="evenodd">
        <path d="M142.7,76.742 L135.526,76.107 C129.895,75.654 127.716,73.383 127.716,69.568 C127.716,65.028 131.167,62.211 137.706,62.211 C142.338,62.211 146.424,63.302 149.606,65.754 L153.875,61.485 C149.875,58.216 144.156,56.673 137.8,56.673 C128.264,56.673 121.361,61.573 121.361,69.75 C121.361,77.106 125.994,81.011 134.712,81.738 L142.068,82.373 C147.244,82.828 149.515,85.007 149.515,88.912 C149.515,94.18 144.974,96.812 137.615,96.812 C132.074,96.812 127.261,95.359 123.715,91.635 L119.355,95.995 C124.26,100.717 130.163,102.443 137.701,102.443 C148.508,102.443 155.865,97.443 155.865,88.821 C155.865,80.463 150.506,77.468 142.695,76.74 L142.7,76.742 Z M198.613,56.671 C191.444,56.671 186.928,58.084 182.971,63.094 C182.917,63.163 187.261,67.386 187.261,67.386 C189.894,63.663 192.8,62.302 198.521,62.302 C206.695,62.302 209.965,65.571 209.965,72.109 L209.965,76.377 L196.527,76.377 C186.537,76.377 181.089,81.464 181.089,89.277 C180.984058,92.6262953 182.189462,95.884474 184.449,98.359 C187.265,101.266 190.897,102.446 197.072,102.446 C203.066,102.446 206.336,101.266 209.972,97.632 L209.972,101.9 L216.511,101.9 L216.511,71.565 C216.511,61.848 210.611,56.673 198.62,56.673 L198.613,56.671 Z M209.969,86.1 C209.969,89.825 209.242,92.368 207.698,93.82 C204.883,96.545 201.523,96.82 197.709,96.82 C190.625,96.82 187.445,94.367 187.445,89.19 C187.445,84.013 190.715,81.29 197.437,81.29 L209.969,81.29 L209.969,86.1 Z M242.118,62.489 C246.386,62.489 249.018,63.76 252.38,67.483 C252.38,67.483 256.758,63.228 256.722,63.19 C252.137,58.285 248.245,56.677 242.122,56.677 C230.86,56.677 222.322,64.305 222.322,79.562 C222.322,94.819 230.858,102.449 242.122,102.449 C248.297,102.449 252.202,100.813 256.834,95.819 L252.384,91.55 C249.024,95.274 246.39,96.636 242.122,96.636 C238.033212,96.7993765 234.138626,94.8861276 231.769,91.55 C229.68,88.644 228.863,85.193 228.863,79.562 C228.863,73.931 229.68,70.48 231.769,67.574 C234.138117,64.2373869 238.033165,62.3242873 242.122,62.489 L242.118,62.489 Z M298.122,57.155 L289.97,57.155 L269.71,76.875 L269.741,37.236 L263.2,37.236 L263.2,101.9 L269.74,101.9 L269.709,85.591 L277.64,77.632 L292.628,101.9 L300.71,101.9 L282.17,73.1 L298.122,57.155 Z M328.335,56.055 C321.635,56.055 317.108,58.666 314.322,61.625 C310.231,65.89 309.187,71.025 309.187,79.207 C309.187,87.475 310.231,92.607 314.322,96.876 C317.108,99.835 321.633,102.447 328.335,102.447 C335.037,102.447 339.651,99.835 342.435,96.876 C346.526,92.611 347.571,87.476 347.571,79.207 C347.571,71.026 346.526,65.89 342.435,61.625 C339.651,58.666 335.035,56.055 328.335,56.055 Z M333.645,90.261 C332.226419,91.6312106 330.305034,92.3548961 328.335,92.261 C326.391065,92.355011 324.496795,91.6295149 323.113,90.261 C320.762,87.911 320.502,83.908 320.502,79.207 C320.502,74.506 320.762,70.591 323.113,68.241 C324.49659,66.8721679 326.391005,66.1466163 328.335,66.241 C330.30511,66.1466229 332.226679,66.8703779 333.645,68.241 C335.994,70.591 336.256,74.507 336.256,79.207 C336.256,83.907 335.994,87.907 333.645,90.261 Z M377.7,56.575 L368.562,84.6 L359.336,56.573 L347.41,56.573 L364.123,101.92 L373,101.92 L389.623,56.573 L377.7,56.575 Z M408.873,56.053 C397.124,56.053 389.116,64.408 389.116,79.205 C389.116,97.571 399.387,102.445 410.092,102.445 C418.274,102.445 422.714,99.92 427.326,95.306 L420.451,88.606 C417.578,91.479 415.14,92.871 410.179,92.871 C403.825,92.871 400.257,88.606 400.257,82.771 L428.631,82.771 L428.631,77.726 C428.631,65.279 421.494,56.053 408.873,56.053 Z M400.257,75.027 C400.273614,73.3485451 400.629053,71.6907352 401.302,70.153 C402.728026,67.2748247 405.662422,65.4538855 408.8745,65.4538855 C412.086578,65.4538855 415.020974,67.2748247 416.447,70.153 C417.117747,71.6914042 417.472764,73.3488292 417.491,75.027 L400.257,75.027 Z M445.322,60.927 L445.322,56.575 L434.267,56.575 L434.267,101.922 L445.582,101.922 L445.582,74.593 C445.582,68.848 449.412,66.236 452.894,66.236 C455.1886,66.1567159 457.391459,67.1404382 458.864,68.902 L467.43,60.318 C464.296,57.184 461.163,56.053 456.724,56.053 C452.407599,56.0018792 448.269295,57.7711856 445.324,60.927 L445.322,60.927 Z M470.941,51.848 L470.941,101.876 L482.255,101.876 L482.255,66.122 L490.611,66.122 L490.611,57.506 L482.255,57.506 L482.255,52.545 C482.255,49.934 483.562,48.454 486.255,48.454 L490.607,48.454 L490.607,38.881 L484.167,38.881 C474.939,38.881 470.937,45.408 470.937,51.848 L470.941,51.848 Z M537.191,56.048 C530.491,56.048 525.963,58.659 523.178,61.618 C519.088,65.883 518.043,71.018 518.043,79.2 C518.043,87.468 519.088,92.6 523.178,96.869 C525.963,99.828 530.489,102.44 537.191,102.44 C543.893,102.44 548.507,99.828 551.291,96.869 C555.381,92.604 556.426,87.469 556.426,79.2 C556.426,71.019 555.381,65.883 551.291,61.618 C548.506,58.659 543.891,56.048 537.191,56.048 Z M542.501,90.254 C541.082419,91.6242106 539.161034,92.3478961 537.191,92.254 C535.247065,92.348011 533.352795,91.6225149 531.969,90.254 C529.619,87.904 529.358,83.901 529.358,79.2 C529.358,74.499 529.619,70.584 531.969,68.234 C533.35259,66.8651679 535.247005,66.1396163 537.191,66.234 C539.16111,66.1396229 541.082679,66.8633779 542.501,68.234 C544.85,70.584 545.112,74.5 545.112,79.2 C545.112,83.9 544.85,87.9 542.501,90.254 Z M609.883,56.57 L602.573,84.6 L593.26,56.575 L584.993,56.575 L575.765,84.6 L568.455,56.573 L556.444,56.573 L570.37,101.92 L579.683,101.92 L589.17,73.46 L598.657,101.92 L607.97,101.92 L621.809,56.573 L609.883,56.57 Z M507.3,88.257 L507.3,38.881 L495.989,38.881 L495.989,88.953 C495.989,95.394 499.907,101.922 509.219,101.922 L515.659,101.922 L515.659,92.347 L511.308,92.347 C508.436,92.347 507.308,90.955 507.308,88.257 L507.3,88.257 Z M174,64.246 L180.046,58.2 L167.666,58.2 L167.666,43.5 L161.127,43.5 L161.127,89.912 C161.127,96.541 164.941,101.9 172.57,101.9 L177.2,101.9 L177.2,96.269 L173.75,96.269 C169.573,96.269 167.666,93.816 167.666,89.73 L167.666,64.246 L174,64.246 Z" id="Shape" fill="#1E1B1D" fill-rule="nonzero"></path>
        <polygon id="Path" fill="#BBBBBB" points="88 80 99 80 99 124 0 124 1.16781584e-14 80 11 80 11 113 88 113"></polygon>
        <path d="M22.9878906,76.73 L77.0128906,88.085 L79.2838906,77.285 L25.2588906,65.925 L22.9878906,76.73 Z M30.1368906,50.861 L80.1828906,74.169 L84.8448906,64.16 L34.7978906,40.852 L30.1368906,50.861 Z M43.9848906,26.308 L86.4128906,61.639 L93.4788906,53.154 L51.0508906,17.824 L43.9848906,26.308 Z M71.3718906,0.192 L62.5118906,6.782 L95.4598906,51.082 L104.319891,44.493 L71.3718906,0.192 Z M22,102 L77,102 L77,91 L22,91 L22,102 Z" id="Shape" fill="#F58025" fill-rule="nonzero"></path>
        <path d="M134.207349,129.989727 C133.485944,128.262951 131.862088,127.082306 129.696948,127.082306 C127.532731,127.082306 125.863614,128.262951 125.141285,129.989727 C124.690522,131.034538 124.600924,131.715572 124.554739,133.12416 L134.838233,133.12416 C134.793896,131.715572 134.658112,131.034538 134.207349,129.989727 Z M124.554739,136.349769 C124.554739,140.302001 126.630281,142.800057 130.374016,142.800057 C132.943735,142.800057 134.296948,142.073435 135.921727,140.436905 L138.85261,143.210353 C136.507349,145.572574 134.296948,146.797878 130.28257,146.797878 C124.554739,146.797878 120,143.753692 120,134.98677 C120,127.536329 123.834257,123.22125 129.696948,123.22125 C135.831205,123.22125 139.394819,127.76241 139.394819,134.304805 L139.394819,136.349769 L124.554739,136.349769 Z" id="Fill-29" fill="#BBBBBB"></path>
        <path d="M170.646,146.525743 L170.646,132.488248 C170.646,128.899793 168.616643,127.35444 166.046,127.35444 C163.56588,127.35444 161.310217,128.945381 161.310217,132.261237 L161.310217,146.525743 L156.710217,146.525743 L156.710217,132.488248 C156.710217,128.899793 154.680859,127.35444 152.109293,127.35444 C149.538651,127.35444 147.374434,128.945381 147.374434,132.488248 L147.374434,146.525743 L142.77351,146.525743 L142.77351,123.493385 L147.282988,123.493385 L147.282988,125.810018 C148.818169,124.129761 151.071984,123.220785 153.371984,123.220785 C156.213269,123.220785 158.423671,124.357703 159.866482,126.581299 C161.716643,124.312115 164.016643,123.220785 167.038048,123.220785 C169.383309,123.220785 171.457928,123.992066 172.811141,125.310407 C174.570779,127.038113 175.246,129.217051 175.246,131.807214 L175.246,146.525743 L170.646,146.525743 Z" id="Fill-31" fill="#BBBBBB"></path>
        <path d="M200.04859,118.58724 L193.011884,118.58724 L193.011884,129.353537 L200.04859,129.353537 C203.430237,129.353537 205.730237,127.40161 205.730237,123.992717 C205.730237,120.585685 203.430237,118.58724 200.04859,118.58724 M200.319233,133.80538 L193.011884,133.80538 L193.011884,146.524534 L188.142165,146.524534 L188.142165,114.181915 L200.319233,114.181915 C206.587426,114.181915 210.601803,118.359298 210.601803,123.992717 C210.601803,129.627067 206.587426,133.80538 200.319233,133.80538" id="Fill-33" fill="#BBBBBB"></path>
        <path d="M224.22159,128.672316 C223.365325,127.809859 222.192233,127.353975 220.83902,127.353975 C219.484884,127.353975 218.357976,127.809859 217.500787,128.672316 C216.102313,130.080904 215.922193,132.489644 215.922193,134.98677 C215.922193,137.486687 216.102313,139.892636 217.500787,141.300293 C218.357976,142.164611 219.484884,142.664223 220.83902,142.664223 C222.192233,142.664223 223.365325,142.164611 224.22159,141.300293 C225.619141,139.892636 225.800185,137.486687 225.800185,134.98677 C225.800185,132.489644 225.619141,130.080904 224.22159,128.672316 M227.694683,144.073741 C226.204763,145.617232 223.950948,146.797878 220.83902,146.797878 C217.727092,146.797878 215.516691,145.617232 214.028618,144.073741 C211.864402,141.800835 211.322193,138.893414 211.322193,134.98677 C211.322193,131.124784 211.864402,128.217363 214.028618,125.945388 C215.516691,124.401896 217.727092,123.222181 220.83902,123.222181 C223.950948,123.222181 226.204763,124.401896 227.694683,125.945388 C229.8589,128.217363 230.400185,131.124784 230.400185,134.98677 C230.400185,138.893414 229.8589,141.800835 227.694683,144.073741" id="Fill-35" fill="#BBBBBB"></path>
        <path d="M246.671253,128.898583 C245.634867,127.854703 244.82294,127.355092 243.243422,127.355092 C240.763301,127.355092 238.688683,129.353537 238.688683,132.533558 L238.688683,146.524534 L234.088683,146.524534 L234.088683,123.494036 L238.598161,123.494036 L238.598161,125.991162 C239.770329,124.356494 242.11559,123.220506 244.687157,123.220506 C246.897558,123.220506 248.565751,123.811294 250.144345,125.400374 L246.671253,128.898583 Z" id="Fill-37" fill="#BBBBBB"></path>
        <path d="M259.31257,146.525743 C255.028474,146.525743 253.043454,143.436899 253.043454,140.119182 L253.043454,127.444687 L253.043454,123.90275 L253.043454,116.905401 L257.643454,116.905401 L257.643454,123.493385 L263.003655,123.493385 L260.184538,127.038113 L257.643454,127.038113 L257.643454,139.892171 C257.643454,141.574289 258.456305,142.572581 260.168835,142.572581 L262.064257,142.572581 L262.064257,146.525743 L259.31257,146.525743 Z" id="Fill-39" fill="#BBBBBB"></path>
        <path d="M279.960382,146.525743 L279.960382,144.20911 C278.381787,145.934025 276.171386,146.798343 273.871386,146.798343 C271.526124,146.798343 269.588213,146.025202 268.235,144.709652 C266.476285,142.981946 265.934076,140.802078 265.934076,138.210984 L265.934076,123.493385 L270.535,123.493385 L270.535,137.53181 C270.535,141.119335 272.564357,142.664688 275.135,142.664688 C277.706566,142.664688 279.870783,141.074677 279.870783,137.53181 L279.870783,123.493385 L284.470783,123.493385 L284.470783,146.525743 L279.960382,146.525743 Z" id="Fill-41" fill="#BBBBBB"></path>
        <path d="M297.494787,127.354906 C293.346474,127.354906 292.804265,130.942431 292.804265,134.578335 C292.804265,138.212379 293.346474,141.801765 297.494787,141.801765 C301.6431,141.801765 302.140048,138.212379 302.140048,134.578335 C302.140048,130.942431 301.6431,127.354906 297.494787,127.354906 M296.952578,156.109999 C293.48041,156.109999 291.270932,155.2922 288.879486,153.066743 L291.812217,150.114664 C293.255028,151.476733 294.518643,152.157767 296.774305,152.157767 C300.651976,152.157767 302.140048,149.387111 302.140048,146.297336 L302.140048,143.345257 C300.470932,145.344632 298.577357,145.980078 296.232096,145.980078 C293.932096,145.980078 292.037598,145.206937 290.774908,143.936045 C288.564506,141.709658 288.204265,138.484979 288.204265,134.578335 C288.204265,130.669831 288.564506,127.445152 290.774908,125.220626 C292.037598,123.947873 293.977357,123.22125 296.277357,123.22125 C298.712217,123.22125 300.561454,123.856696 302.275831,125.945388 L302.275831,123.49385 L306.740048,123.49385 L306.740048,146.389443 C306.740048,152.021932 303.041574,156.109999 296.952578,156.109999" id="Fill-43" fill="#BBBBBB"></path>
        <path d="M325.132566,146.525743 L325.132566,144.20911 C323.553048,145.934025 321.342647,146.798343 319.04357,146.798343 C316.698309,146.798343 314.760398,146.025202 313.407185,144.709652 C311.647546,142.981946 311.105337,140.802078 311.105337,138.210984 L311.105337,123.493385 L315.706261,123.493385 L315.706261,137.53181 C315.706261,141.119335 317.736542,142.664688 320.306261,142.664688 C322.878751,142.664688 325.042044,141.074677 325.042044,137.53181 L325.042044,123.493385 L329.642968,123.493385 L329.642968,146.525743 L325.132566,146.525743 Z" id="Fill-46" fill="#BBBBBB"></path>
        <path d="M348.304281,129.989727 C347.583799,128.262951 345.959944,127.082306 343.79388,127.082306 C341.629663,127.082306 339.96147,128.262951 339.239141,129.989727 C338.787454,131.034538 338.698779,131.715572 338.652594,133.12416 L348.936088,133.12416 C348.890827,131.715572 348.755044,131.034538 348.304281,129.989727 Z M347.853518,119.312746 L343.930586,114.907421 L340.005807,119.312746 L336.17155,119.312746 L341.989904,112 L345.868498,112 L351.686851,119.312746 L347.853518,119.312746 Z M338.652594,136.349769 C338.652594,140.302001 340.728137,142.800057 344.471871,142.800057 C347.04159,142.800057 348.394803,142.073435 350.018659,140.436905 L352.949542,143.210353 C350.604281,145.572574 348.394803,146.797878 344.379502,146.797878 C338.652594,146.797878 334.096932,143.753692 334.096932,134.98677 C334.096932,127.536329 337.932112,123.22125 343.79388,123.22125 C349.928137,123.22125 353.491751,127.76241 353.491751,134.304805 L353.491751,136.349769 L338.652594,136.349769 Z" id="Fill-48" fill="#BBBBBB"></path>
        <path d="M365.756201,146.797413 C362.011542,146.797413 358.854353,146.161967 356.149775,143.482487 L359.170257,140.437371 C361.021341,142.34743 363.501462,142.845181 365.756201,142.845181 C368.552225,142.845181 370.76355,141.846888 370.76355,139.66609 C370.76355,138.120737 369.904514,137.122445 367.695036,136.939161 L364.041823,136.621904 C359.758651,136.259057 357.276683,134.30527 357.276683,130.262792 C357.276683,125.76536 361.11094,123.220785 365.89106,123.220785 C369.318892,123.220785 372.249775,123.947408 374.370578,125.810018 L371.483108,128.762097 C370.040297,127.536794 368.010016,127.082771 365.846723,127.082771 C363.094112,127.082771 361.695639,128.309005 361.695639,130.03392 C361.695639,131.396919 362.419815,132.44266 364.853751,132.668741 L368.46355,132.986929 C372.745799,133.351636 375.273028,135.39567 375.273028,139.484667 C375.273028,144.298426 371.212466,146.797413 365.756201,146.797413" id="Fill-50" fill="#BBBBBB"></path>
    </g>
</svg>