<svg width="189" height="48" viewBox="0 0 189 48" fill="none" xmlns="http://www.w3.org/2000/svg">
<path d="M42 23.0042L39.8 22.8042C38.1 22.7042 37.5 22.0042 37.5 20.8042C37.5 19.4042 38.5 18.6042 40.5 18.6042C41.8 18.5042 43.1 18.9042 44.1 19.7042L45.4 18.4042C44 17.4042 42.3 16.9042 40.6 17.0042C37.7 17.0042 35.7 18.5042 35.7 20.9042C35.7 23.1042 37.1 24.3042 39.7 24.5042L41.9 24.7042C43.5 24.8042 44.1 25.5042 44.1 26.7042C44.1 28.3042 42.7 29.1042 40.5 29.1042C38.9 29.2042 37.4 28.6042 36.3 27.5042L35 28.8042C36.5 30.2042 38.5 30.8042 40.5 30.7042C43.7 30.7042 46 29.2042 46 26.6042C46 24.0042 44.4 23.2042 42 23.0042ZM58.8 16.9042C56.6 16.9042 55.3 17.3042 54.1 18.8042L55.4 20.1042C56.2 19.0042 57.5 18.4042 58.8 18.6042C61.3 18.6042 62.2 19.6042 62.2 21.5042V22.8042H58.2C55.2 22.8042 53.6 24.3042 53.6 26.7042C53.6 27.7042 53.9 28.7042 54.6 29.4042C55.4 30.3042 56.5 30.6042 58.4 30.6042C59.8 30.7042 61.3 30.2042 62.3 29.2042V30.5042H64.3V21.4042C64.2 18.5042 62.4 16.9042 58.8 16.9042ZM62.2 25.8042C62.3 26.6042 62.1 27.5042 61.5 28.1042C60.7 28.8042 59.6 29.1042 58.5 29.0042C56.4 29.0042 55.4 28.3042 55.4 26.7042C55.4 25.1042 56.4 24.3042 58.4 24.3042H62.2V25.8042ZM71.9 18.7042C73.1 18.7042 74.3 19.2042 75 20.2042L76.3 18.9042C75.2 17.6042 73.6 16.8042 71.9 16.9042C68.5 16.9042 66 19.2042 66 23.8042C66 28.4042 68.6 30.7042 71.9 30.7042C73.6 30.8042 75.2 30.0042 76.3 28.7042L75 27.4042C74.3 28.4042 73.1 28.9042 71.9 28.9042C70.7 29.0042 69.5 28.4042 68.8 27.4042C68.1 26.3042 67.8 25.1042 67.9 23.8042C67.8 22.5042 68.1 21.3042 68.8 20.2042C69.5 19.2042 70.7 18.6042 71.9 18.7042ZM88.7 17.1042H86.3L80.2 23.0042V11.1042H78.2V30.5042H80.2V25.6042L82.6 23.2042L87.1 30.5042H89.5L83.9 21.9042L88.7 17.1042ZM97.9 16.9418C96.3 16.8418 94.7 17.4418 93.6 18.6418C92.3 19.9418 92 21.5418 92 24.0418C92 26.5418 92.3 28.1418 93.6 29.4418C94.7 30.5418 96.3 31.1418 97.9 31.1418C99.5 31.2418 101.1 30.6418 102.2 29.4418C103.5 28.1418 103.8 26.5418 103.8 24.0418C103.8 21.5418 103.5 19.9418 102.2 18.6418C101.1 17.4418 99.5 16.8418 97.9 16.9418ZM99.6 27.4418C98.7 28.2418 97.3 28.2418 96.4 27.4418C95.7 26.7418 95.6 25.4418 95.6 24.0418C95.6 22.6418 95.7 21.3418 96.4 20.6418C97.3 19.8418 98.7 19.8418 99.6 20.6418C100.3 21.3418 100.4 22.5418 100.4 24.0418C100.4 25.5418 100.3 26.7418 99.6 27.4418ZM113.2 17.0418L110.4 25.6418L107.6 17.0418H103.9L109.1 31.0418H111.8L116.9 17.0418H113.2ZM122.8 16.9418C119.2 16.9418 116.7 19.5418 116.7 24.0418C116.7 29.7418 119.9 31.2418 123.2 31.2418C125.2 31.3418 127.2 30.5418 128.5 29.0418L126.4 26.9418C125.6 27.8418 124.4 28.3418 123.2 28.2418C121.6 28.3418 120.2 27.1418 120.1 25.5418V25.1418H128.8V23.5418C128.9 19.7418 126.7 16.9418 122.8 16.9418ZM120.1 22.7418C120.1 22.2418 120.2 21.7418 120.4 21.2418C120.8 20.3418 121.7 19.8418 122.7 19.8418C123.7 19.7418 124.6 20.3418 125 21.2418C125.2 21.7418 125.3 22.2418 125.3 22.7418H120.1ZM134 18.4418V17.1418H130.6V31.1418H134.1V22.7418C134 21.4418 134.9 20.3418 136.2 20.1418H136.4C137.1 20.1418 137.8 20.4418 138.2 20.9418L140.8 18.3418C140 17.4418 138.7 16.9418 137.5 17.0418C136.2 16.9418 134.9 17.4418 134 18.4418ZM141.9 15.6418V31.0418H145.4V20.0418H148V17.3418H145.4V15.8418C145.3 15.2418 145.7 14.6418 146.3 14.5418H147.9V11.5418H145.9C143.8 11.4418 142 13.1418 141.9 15.3418V15.6418ZM162.3 16.9418C160.7 16.8418 159.1 17.4418 158 18.6418C156.7 19.9418 156.4 21.5418 156.4 24.0418C156.4 26.5418 156.7 28.1418 158 29.4418C159.1 30.5418 160.7 31.1418 162.3 31.1418C163.9 31.2418 165.5 30.6418 166.6 29.4418C167.9 28.1418 168.2 26.5418 168.2 24.0418C168.2 21.5418 167.9 19.9418 166.6 18.6418C165.5 17.4418 163.9 16.8418 162.3 16.9418ZM164 27.4418C163.1 28.2418 161.7 28.2418 160.8 27.4418C160.1 26.7418 160 25.4418 160 24.0418C160 22.6418 160.1 21.3418 160.8 20.6418C161.7 19.8418 163.1 19.8418 164 20.6418C164.7 21.3418 164.8 22.5418 164.8 24.0418C164.8 25.5418 164.7 26.7418 164 27.4418ZM184.7 17.0418L182.4 25.6418L179.5 17.0418H177L174.2 25.7418L171.9 17.1418H168.2L172.5 31.1418H175.4L178.3 22.3418L181.2 31.1418H184.2L188.5 17.1418L184.7 17.0418ZM153.1 26.8418V11.6418H149.6V27.0418C149.5 29.1418 151.1 30.9418 153.2 31.0418H155.7V28.0418H154.4C153.8 28.1418 153.3 27.8418 153.1 27.2418V26.8418ZM53.2 17.4042H49.5V13.0042H47.5V26.9042C47.5 28.9042 48.6 30.5042 50.9 30.5042H52.3V28.8042H51.3C50 28.8042 49.5 28.1042 49.5 26.8042V19.1042H51.4L53.2 17.4042Z" fill="#222426"/>
<path d="M26 33V24H30V37H0V24H4V33H26Z" fill="#BCBBBB"/>
<path d="M23.0908 25.9902L23.7844 23.041L7.67993 19.687L7 23L23.0908 25.9902ZM9.1 15.2L24.1 22.2L25.5 19.2L10.5 12.2L9.1 15.2ZM13.3 7.8L26 18.4L28.1 15.9L15.4 5.3L13.3 7.8ZM21.5 0L18.8 2L28.7 15.3L31.4 13.3L21.5 0ZM7 30H23V27H7V30Z" fill="#F48024"/>
<path d="M36.171 41.01H40.357V40.49C40.357 38.228 39.538 37.266 37.601 37.266C35.664 37.266 34.845 38.228 34.845 40.49V40.997C34.845 43.168 35.716 44.13 37.679 44.13C38.94 44.13 39.681 43.805 40.227 42.999L39.239 42.414C38.888 42.882 38.472 43.077 37.809 43.077C36.743 43.077 36.171 42.44 36.171 41.244V41.01ZM36.171 40.061V39.944C36.171 39.554 36.275 39.138 36.431 38.878C36.665 38.475 37.042 38.293 37.64 38.293C38.589 38.293 39.096 38.865 39.096 39.931V40.061H36.171Z" fill="#BCBBBB"/>
<path d="M41.8247 44H43.1507V40.607C43.1507 39.008 43.5017 38.397 44.3987 38.397C45.2567 38.397 45.5817 38.943 45.5817 40.36V44H46.9077V40.568C46.9077 39.021 47.2587 38.397 48.1427 38.397C48.9877 38.397 49.3257 38.956 49.3257 40.347V44H50.6517V40.217C50.6517 39.411 50.5997 38.93 50.4697 38.54C50.1707 37.682 49.4687 37.266 48.3507 37.266C47.4277 37.266 46.8427 37.565 46.4657 38.228C46.1017 37.591 45.4777 37.266 44.6067 37.266C43.8267 37.266 43.2937 37.513 42.9427 38.046L42.8387 37.396H41.8247V44Z" fill="#BCBBBB"/>
<path d="M56.2558 40.516H57.9198C59.0378 40.516 59.7008 40.334 60.1948 39.892C60.7538 39.385 61.0008 38.67 61.0008 37.604C61.0008 36.616 60.7928 35.966 60.3118 35.459C59.8048 34.926 59.1418 34.718 57.9198 34.718H54.8648V44H56.2558V40.516ZM56.2298 39.385V35.836H57.9198C59.1028 35.836 59.6228 36.369 59.6228 37.617C59.6228 38.839 59.1028 39.385 57.9198 39.385H56.2298Z" fill="#BCBBBB"/>
<path d="M62.1222 41.205C62.1222 43.233 62.9802 44.13 64.9172 44.13C66.8412 44.13 67.6992 43.233 67.6992 41.205V40.191C67.6992 38.163 66.8412 37.266 64.9172 37.266C62.9802 37.266 62.1222 38.163 62.1222 40.191V41.205ZM66.3732 41.114C66.3732 42.466 65.9312 43.064 64.9042 43.064C63.8902 43.064 63.4482 42.466 63.4482 41.114V40.282C63.4482 38.93 63.8902 38.332 64.9042 38.332C65.9312 38.332 66.3732 38.93 66.3732 40.282V41.114Z" fill="#BCBBBB"/>
<path d="M69.2542 44H70.5802V40.789C70.5802 39.112 70.9312 38.41 71.7762 38.41C72.0882 38.41 72.3352 38.501 72.6732 38.748L73.2452 37.643C72.7512 37.37 72.3872 37.266 71.9062 37.266C71.2302 37.266 70.8402 37.448 70.4242 37.955L70.2812 37.396H69.2542V44Z" fill="#BCBBBB"/>
<path d="M74.7101 38.462V41.53C74.7101 43.545 75.1521 44 77.1281 44H77.3621V42.908H77.1541C76.2961 42.934 76.0361 42.622 76.0361 41.66V38.462H76.6861L77.3361 37.396H76.0361V35.381H74.7751L74.7101 37.396H73.9431V38.462H74.7101Z" fill="#BCBBBB"/>
<path d="M78.6069 37.396V41.179C78.6069 41.972 78.6719 42.492 78.8019 42.856C79.1009 43.701 79.8289 44.13 80.9469 44.13C81.8049 44.13 82.3249 43.896 82.6889 43.324L82.8319 44H83.7939V37.396H82.4679V40.776C82.4679 42.388 82.1039 42.999 81.1679 42.999C80.2839 42.999 79.9329 42.44 79.9329 41.049V37.396H78.6069Z" fill="#BCBBBB"/>
<path d="M89.4962 44.052C89.4572 45.417 88.9762 46.015 87.8842 46.015C87.2472 46.015 86.8832 45.833 86.5192 45.326L85.5312 45.898C86.0382 46.704 86.7792 47.055 87.9362 47.055C89.8732 47.055 90.8222 46.028 90.8222 43.909V37.396H89.7952L89.6782 37.916C89.2102 37.448 88.7032 37.266 87.8192 37.266C86.1162 37.266 85.3622 38.163 85.3622 40.204V41.192C85.3622 43.22 86.1162 44.13 87.8062 44.13C88.5732 44.13 89.0802 43.974 89.5092 43.584L89.4962 44.052ZM86.6752 40.295C86.6752 38.956 87.1172 38.332 88.0792 38.332C89.0282 38.332 89.4962 38.917 89.4962 40.1V41.296C89.4962 42.479 89.0282 43.064 88.0792 43.064C87.1172 43.064 86.6752 42.44 86.6752 41.101V40.295Z" fill="#BCBBBB"/>
<path d="M92.5565 37.396V41.179C92.5565 41.972 92.6215 42.492 92.7515 42.856C93.0505 43.701 93.7785 44.13 94.8965 44.13C95.7545 44.13 96.2745 43.896 96.6385 43.324L96.7815 44H97.7435V37.396H96.4175V40.776C96.4175 42.388 96.0535 42.999 95.1175 42.999C94.2335 42.999 93.8825 42.44 93.8825 41.049V37.396H92.5565Z" fill="#BCBBBB"/>
<path d="M100.638 41.01H104.824V40.49C104.824 38.228 104.005 37.266 102.068 37.266C100.131 37.266 99.3118 38.228 99.3118 40.49V40.997C99.3118 43.168 100.183 44.13 102.146 44.13C103.407 44.13 104.148 43.805 104.694 42.999L103.706 42.414C103.355 42.882 102.939 43.077 102.276 43.077C101.21 43.077 100.638 42.44 100.638 41.244V41.01ZM100.638 40.061V39.944C100.638 39.554 100.742 39.138 100.898 38.878C101.132 38.475 101.509 38.293 102.107 38.293C103.056 38.293 103.563 38.865 103.563 39.931V40.061H100.638ZM102.12 35.381L102.952 36.408H104.278L102.575 34.575H101.665L99.9748 36.408H101.301L102.12 35.381Z" fill="#BCBBBB"/>
<path d="M105.563 42.999C106.018 43.74 106.915 44.13 108.215 44.13C110.035 44.13 110.919 43.48 110.919 42.128C110.919 41.426 110.711 40.893 110.321 40.62C109.944 40.347 109.502 40.217 108.475 40.1C107.942 40.035 107.747 39.983 107.539 39.879C107.305 39.749 107.175 39.515 107.175 39.229C107.175 38.644 107.578 38.319 108.306 38.319C108.956 38.319 109.32 38.501 109.71 38.995L110.685 38.423C110.165 37.63 109.398 37.266 108.202 37.266C106.72 37.266 105.914 37.981 105.914 39.294C105.914 39.879 106.096 40.334 106.46 40.633C106.785 40.906 107.214 41.049 108.111 41.166C108.93 41.27 109.008 41.283 109.255 41.4C109.515 41.517 109.658 41.777 109.658 42.102C109.658 42.752 109.164 43.077 108.163 43.077C107.331 43.077 106.967 42.921 106.525 42.401L105.563 42.999Z" fill="#BCBBBB"/>
</svg>
