<svg xmlns="http://www.w3.org/2000/svg" width="146" height="46" viewBox="0 0 146 46">
  <g fill="none" fill-rule="evenodd">
    <polygon fill="#E64320" fill-rule="nonzero" points="0 25 1 25 1 29 109 29 109 25 110 25 110 30 0 30"/>
    <path fill="#E64320" d="M44.5595703,36.8515625 L44.5595703,44 L43.65625,44 L43.65625,37.9794922 L41.8349609,38.6435547 L41.8349609,37.828125 L44.4179688,36.8515625 L44.5595703,36.8515625 Z M50.1796875,36.8515625 L50.1796875,44 L49.2763672,44 L49.2763672,37.9794922 L47.4550781,38.6435547 L47.4550781,37.828125 L50.0380859,36.8515625 L50.1796875,36.8515625 Z M57.2939453,39.8789062 L57.2939453,40.9628906 C57.2939453,42.128261 57.0929382,42.942055 56.690918,43.4042969 C56.2888977,43.8665388 55.742842,44.0976562 55.0527344,44.0976562 C54.3723924,44.0976562 53.8271505,43.8665388 53.4169922,43.4042969 C53.0068339,42.942055 52.8017578,42.128261 52.8017578,40.9628906 L52.8017578,39.8789062 C52.8017578,38.7167911 53.0052063,37.9119489 53.4121094,37.4643555 C53.8190125,37.0167621 54.3626268,36.7929688 55.0429688,36.7929688 C55.7330764,36.7929688 56.2807597,37.0167621 56.6860352,37.4643555 C57.0913106,37.9119489 57.2939453,38.7167911 57.2939453,39.8789062 Z M56.3857422,41.109375 L56.3857422,39.7275391 C56.3857422,38.9267538 56.271811,38.3603532 56.0439453,38.0283203 C55.8160796,37.6962874 55.4824241,37.5302734 55.0429688,37.5302734 C54.6132791,37.5302734 54.2836926,37.6962874 54.0541992,38.0283203 C53.8247059,38.3603532 53.7099609,38.9267538 53.7099609,39.7275391 L53.7099609,41.109375 C53.7099609,41.9036498 53.8263335,42.4765607 54.059082,42.828125 C54.2918306,43.1796893 54.6230447,43.3554688 55.0527344,43.3554688 C55.4954449,43.3554688 55.8282866,43.1796893 56.0512695,42.828125 C56.2742524,42.4765607 56.3857422,41.9036498 56.3857422,41.109375 Z M60.9609375,44.0976562 C60.3261687,44.0976562 59.823244,43.8942078 59.4521484,43.4873047 L59.4521484,46.03125 L58.5439453,46.03125 L58.5439453,38.7167969 L59.3740234,38.7167969 L59.4179688,39.2978516 C59.7890644,38.8453753 60.2984994,38.6191406 60.9462891,38.6191406 C61.6136101,38.6191406 62.1246727,38.866534 62.4794922,39.3613281 C62.8343117,39.8561223 63.0117188,40.5071574 63.0117188,41.3144531 L63.0117188,41.4169922 C63.0117188,42.1884804 62.8334979,42.8281225 62.4770508,43.3359375 C62.1206037,43.8437525 61.6152376,44.0976562 60.9609375,44.0976562 Z M60.6826172,39.3808594 C60.3766261,39.3808594 60.12435,39.4500319 59.9257812,39.5883789 C59.7272125,39.726726 59.5693365,39.9000641 59.4521484,40.1083984 L59.4521484,42.6376953 C59.5725917,42.8460297 59.7312816,43.0177402 59.9282227,43.152832 C60.1251637,43.2879239 60.3798812,43.3554688 60.6923828,43.3554688 C61.1806665,43.3554688 61.537922,43.1634134 61.7641602,42.7792969 C61.9903983,42.3951804 62.1035156,41.9410833 62.1035156,41.4169922 L62.1035156,41.3144531 C62.1035156,40.790362 61.9903983,40.3370787 61.7641602,39.9545898 C61.537922,39.572101 61.1774113,39.3808594 60.6826172,39.3808594 Z M64.7744141,38.7167969 L65.9316406,40.640625 L67.1035156,38.7167969 L68.1630859,38.7167969 L66.4345703,41.3242188 L68.2167969,44 L67.171875,44 L65.9511719,42.0175781 L64.7304688,44 L63.6806641,44 L65.4580078,41.3242188 L63.734375,38.7167969 L64.7744141,38.7167969 Z"/>
    <polygon fill="#E64320" fill-rule="nonzero" points="128 25 129 25 129 29 142 29 142 25 143 25 143 30 128 30"/>
    <path fill="#E64320" d="M127.55957,36.8515625 L127.55957,44 L126.65625,44 L126.65625,37.9794922 L124.834961,38.6435547 L124.834961,37.828125 L127.417969,36.8515625 L127.55957,36.8515625 Z M134.761719,41.6806641 C134.761719,42.3544956 134.573732,42.9257789 134.197754,43.3945312 C133.821775,43.8632836 133.274092,44.0976562 132.554688,44.0976562 C132.043617,44.0976562 131.618817,43.9617527 131.280273,43.6899414 C130.94173,43.4181302 130.68864,43.0730815 130.520996,42.6547852 C130.353352,42.2364888 130.269531,41.8076194 130.269531,41.3681641 L130.269531,40.9433594 C130.269531,40.2760383 130.363118,39.6315135 130.550293,39.0097656 C130.737468,38.3880177 131.07682,37.8777689 131.568359,37.4790039 C132.059898,37.0802389 132.763016,36.8808594 133.677734,36.8808594 L133.755859,36.8808594 L133.755859,37.6474609 L133.677734,37.6474609 C133.10156,37.6474609 132.637697,37.7581369 132.286133,37.9794922 C131.934569,38.2008475 131.673341,38.4881167 131.502441,38.8413086 C131.331542,39.1945005 131.22819,39.5729146 131.192383,39.9765625 C131.387696,39.7552072 131.616372,39.5932622 131.878418,39.4907227 C132.140464,39.3881831 132.421222,39.3369141 132.720703,39.3369141 C133.192711,39.3369141 133.579263,39.4508452 133.880371,39.6787109 C134.181479,39.9065767 134.403645,40.2003563 134.546875,40.5600586 C134.690105,40.9197609 134.761719,41.2932923 134.761719,41.6806641 Z M131.177734,41.3974609 C131.177734,42.0289745 131.318521,42.5123681 131.600098,42.8476562 C131.881675,43.1829444 132.199868,43.3505859 132.554688,43.3505859 C132.971356,43.3505859 133.294432,43.1984065 133.523926,42.894043 C133.753419,42.5896795 133.868164,42.1998722 133.868164,41.7246094 C133.868164,41.3014302 133.762371,40.9222022 133.550781,40.5869141 C133.339192,40.2516259 133.013674,40.0839844 132.574219,40.0839844 C132.258462,40.0839844 131.972006,40.1783845 131.714844,40.3671875 C131.457681,40.5559905 131.278646,40.7854804 131.177734,41.0556641 L131.177734,41.3974609 Z M138.34082,44.0976562 C137.706052,44.0976562 137.203127,43.8942078 136.832031,43.4873047 L136.832031,46.03125 L135.923828,46.03125 L135.923828,38.7167969 L136.753906,38.7167969 L136.797852,39.2978516 C137.168947,38.8453753 137.678382,38.6191406 138.326172,38.6191406 C138.993493,38.6191406 139.504556,38.866534 139.859375,39.3613281 C140.214194,39.8561223 140.391602,40.5071574 140.391602,41.3144531 L140.391602,41.4169922 C140.391602,42.1884804 140.213381,42.8281225 139.856934,43.3359375 C139.500486,43.8437525 138.99512,44.0976562 138.34082,44.0976562 Z M138.0625,39.3808594 C137.756509,39.3808594 137.504233,39.4500319 137.305664,39.5883789 C137.107095,39.726726 136.949219,39.9000641 136.832031,40.1083984 L136.832031,42.6376953 C136.952475,42.8460297 137.111164,43.0177402 137.308105,43.152832 C137.505047,43.2879239 137.759764,43.3554688 138.072266,43.3554688 C138.560549,43.3554688 138.917805,43.1634134 139.144043,42.7792969 C139.370281,42.3951804 139.483398,41.9410833 139.483398,41.4169922 L139.483398,41.3144531 C139.483398,40.790362 139.370281,40.3370787 139.144043,39.9545898 C138.917805,39.572101 138.557294,39.3808594 138.0625,39.3808594 Z M142.154297,38.7167969 L143.311523,40.640625 L144.483398,38.7167969 L145.542969,38.7167969 L143.814453,41.3242188 L145.59668,44 L144.551758,44 L143.331055,42.0175781 L142.110352,44 L141.060547,44 L142.837891,41.3242188 L141.114258,38.7167969 L142.154297,38.7167969 Z"/>
    <polygon fill="#9EA3A9" fill-rule="nonzero" points="140 17 140 14 141 14 141 18 130 18 130 14 131 14 131 17"/>
    <path fill="#F27009" d="M137.932373,4.06440745 L141.941406,9.56115723 L141.140503,10.1798096 L137.02124,4.7331543 L137.932373,4.06440745 Z M134.834839,7.1697998 L135.6128,6.32048975 L140.752808,10.5921631 L140.034546,11.3778076 L134.834839,7.1697998 Z M133.118164,10.0936279 L133.686187,9.01196043 L139.760132,11.8994141 L139.30603,12.8410645 L133.118164,10.0936279 Z M132.345459,13.0996094 L132.564209,11.9864502 L139.166626,13.4111328 L139.020264,14.3717041 L132.345459,13.0996094 Z"/>
    <polygon fill="#F27009" points="132 16 139 16 139 15 132 15"/>
    <polygon fill="#C1BEBC" fill-rule="nonzero" points="16 20 16 14 18 14 18 22 0 22 0 14 2 14 2 20"/>
    <path fill="#F48024" fill-rule="nonzero" d="M4,18 L14,18 L14,16 L4,16 L4,18 Z M12.7237687,0 L11.1487062,1.1715 L17.0062062,9.046125 L18.5812687,7.874625 L12.7237687,0 Z M7.85558125,4.6426875 L15.3967687,10.9236875 L16.6535187,9.4153125 L9.11164375,3.1343125 L7.85558125,4.6426875 Z M5.39364375,9.007625 L14.2905812,13.1511875 L15.1190187,11.37125 L6.22208125,7.228375 L5.39364375,9.007625 Z M4.12314375,13.6063125 L14.0302734,15.2767334 L14.161499,13.6072998 L4.52670625,11.6854375 L4.12314375,13.6063125 Z"/>
    <path fill="#000000" fill-rule="nonzero" d="M31.2576702,11.5166404 L32.297972,10.4763385 L30.1674498,10.4763385 L30.1674498,7.9471336 L29.0419536,7.9471336 L29.0419536,15.9334307 C29.0419536,17.0749008 29.6988813,17.9967294 31.0114055,17.9967294 L31.8087706,17.9967294 L31.8087706,17.0276446 L31.215073,17.0276446 C30.4955808,17.0276446 30.1674498,16.6056667 30.1674498,15.9021484 L30.1674498,11.5166404 L31.2576702,11.5166404 Z M89.9766524,15.5840011 L89.9766524,6.86157227 L87.977915,6.86157227 L87.977915,15.7071334 C87.977915,16.8452756 88.6694528,17.9987261 90.3147671,17.9987261 L91.4522437,17.9987261 L91.4522437,16.3068212 L90.6834986,16.3068212 C90.1763265,16.3068212 89.9766524,16.0612221 89.9766524,15.5840011 Z M108.003856,9.98713697 L106.711964,14.9383883 L105.06665,9.98713697 L103.605702,9.98713697 L101.975695,14.9383883 L100.68447,9.98713697 L98.5626001,9.98713697 L101.022585,17.9987261 L102.667899,17.9987261 L104.34383,12.9702676 L106.019761,17.9987261 L107.665075,17.9987261 L110.109752,9.98713697 L108.003856,9.98713697 Z M96.0999535,15.9380897 C95.8689972,16.1683805 95.5614991,16.2915128 95.1614854,16.2915128 C94.7621373,16.2915128 94.4699476,16.1683805 94.2389912,15.9380897 C93.8236692,15.5227677 93.7777441,14.8152559 93.7777441,13.9852774 C93.7777441,13.1546333 93.8236692,12.4630954 94.2389912,12.0477734 C94.4699476,11.8174826 94.7621373,11.6943503 95.1614854,11.6943503 C95.5614991,11.6943503 95.8689972,11.8174826 96.0999535,12.0477734 C96.51461,12.4630954 96.5612006,13.1546333 96.5612006,13.9852774 C96.5612006,14.8152559 96.51461,15.5227677 96.0999535,15.9380897 Z M95.1614854,9.8952869 C93.9774182,9.8952869 93.1780564,10.356534 92.6861926,10.8790145 C91.9633725,11.6324513 91.7790067,12.5396372 91.7790067,13.9852774 C91.7790067,15.446226 91.9633725,16.3534118 92.6861926,17.1068486 C93.1780564,17.6293291 93.9774182,18.0905762 95.1614854,18.0905762 C96.3455526,18.0905762 97.1602228,17.6293291 97.6527522,17.1068486 C98.3755723,16.3534118 98.5599378,15.446226 98.5599378,13.9852774 C98.5599378,12.5396372 98.3755723,11.6324513 97.6527522,10.8790145 C97.1602228,10.356534 96.3455526,9.8952869 95.1614854,9.8952869 Z M83.0448485,9.15249938 L83.0448485,17.9900736 L85.0442515,17.9900736 L85.0442515,11.6737173 L86.5205084,11.6737173 L86.5205084,10.1515353 L85.0442515,10.1515353 L85.0442515,9.27563172 C85.0442515,8.81371905 85.2745423,8.5528116 85.7510977,8.5528116 L86.5205084,8.5528116 L86.5205084,6.86157227 L85.3823663,6.86157227 C83.7523603,6.86157227 83.0448485,8.0143572 83.0448485,9.15249938 Z M78.9313118,10.7558822 L78.9313118,9.98713697 L76.9784994,9.98713697 L76.9784994,17.9987261 L78.9772368,17.9987261 L78.9772368,13.1706072 C78.9772368,12.1555974 79.6541319,11.6943503 80.269128,11.6943503 C80.7609918,11.6943503 81.015909,11.8574174 81.3240727,12.1649155 L82.8369365,10.6487238 C82.2831738,10.094961 81.729411,9.8952869 80.9453575,9.8952869 C80.0847623,9.8952869 79.3153516,10.2946351 78.9313118,10.7558822 Z M70.9703068,13.2471489 C70.9849496,12.8930602 71.0315402,12.6780778 71.1546725,12.3858881 C71.3696549,11.9093327 71.8155937,11.5559096 72.4924888,11.5559096 C73.1687183,11.5559096 73.614657,11.9093327 73.830305,12.3858881 C73.9527718,12.6780778 73.9993624,12.8930602 74.0146707,13.2471489 L70.9703068,13.2471489 Z M72.4924888,9.8952869 C70.4165441,9.8952869 69.0015205,11.3715439 69.0015205,13.9852774 C69.0015205,17.229981 70.8158922,18.0905762 72.7074712,18.0905762 C74.1531114,18.0905762 74.9371649,17.6446374 75.7518351,16.8299672 L74.5371512,15.6459 C74.0299791,16.1530722 73.5993487,16.3993368 72.7227795,16.3993368 C71.6006113,16.3993368 70.9703068,15.6459 70.9703068,14.6155819 L75.9827914,14.6155819 L75.9827914,13.7237044 C75.9827914,11.5252929 74.7215169,9.8952869 72.4924888,9.8952869 Z M66.9848125,9.98713697 L65.3707804,14.9383883 L63.7407745,9.98713697 L61.6342131,9.98713697 L64.5867269,17.9987261 L66.1548339,17.9987261 L69.0913739,9.98713697 L66.9848125,9.98713697 Z M59.202183,15.9380897 C58.9712266,16.1683805 58.6637286,16.2915128 58.2643804,16.2915128 C57.8643667,16.2915128 57.572177,16.1683805 57.3418863,15.9380897 C56.9265642,15.5227677 56.8799736,14.8152559 56.8799736,13.9852774 C56.8799736,13.1546333 56.9265642,12.4630954 57.3418863,12.0477734 C57.572177,11.8174826 57.8643667,11.6943503 58.2643804,11.6943503 C58.6637286,11.6943503 58.9712266,11.8174826 59.202183,12.0477734 C59.617505,12.4630954 59.6634301,13.1546333 59.6634301,13.9852774 C59.6634301,14.8152559 59.617505,15.5227677 59.202183,15.9380897 Z M58.2643804,9.8952869 C57.0803132,9.8952869 56.2809514,10.356534 55.788422,10.8790145 C55.0662675,11.6324513 54.8812362,12.5396372 54.8812362,13.9852774 C54.8812362,15.446226 55.0662675,16.3534118 55.788422,17.1068486 C56.2809514,17.6293291 57.0803132,18.0905762 58.2643804,18.0905762 C59.4477821,18.0905762 60.2631178,17.6293291 60.7549816,17.1068486 C61.4778017,16.3534118 61.6621675,15.446226 61.6621675,13.9852774 C61.6621675,12.5396372 61.4778017,11.6324513 60.7549816,10.8790145 C60.2631178,10.356534 59.4477821,9.8952869 58.2643804,9.8952869 Z M52.9770112,10.2953007 L51.5739681,10.2953007 L48.0869933,13.6904254 L48.092318,6.86822807 L46.9674874,6.86822807 L46.9674874,17.9967294 L48.092318,17.9967294 L48.0869933,15.1899776 L49.4520984,13.8202135 L52.0312217,17.9967294 L53.4222844,17.9967294 L50.2314928,13.0408191 L52.9770112,10.2953007 Z M43.3387441,11.2138014 C44.072879,11.2138014 44.5268047,11.4321117 45.1045284,12.0730654 C45.1045284,12.0730654 45.8579652,11.3409272 45.851975,11.3342714 C45.0625968,10.4903157 44.3930231,10.2134343 43.3387441,10.2134343 C41.4005745,10.2134343 39.9309733,11.5259585 39.9309733,14.1516724 C39.9309733,16.7773864 41.4005745,18.0905762 43.3387441,18.0905762 C44.4016757,18.0905762 45.0732461,17.8090357 45.8706112,16.9497717 L45.1045284,16.2149711 C44.5268047,16.8559249 44.072879,17.0902091 43.3387441,17.0902091 C42.5879696,17.0902091 41.9629897,16.7933603 41.5569858,16.2149711 C41.1969069,15.7151204 41.0564695,15.1207572 41.0564695,14.1516724 C41.0564695,13.1832532 41.1969069,12.5888901 41.5569858,12.0890393 C41.9629897,11.5099846 42.5879696,11.2138014 43.3387441,11.2138014 Z M37.8057757,15.2771686 C37.8057757,15.9181223 37.6806466,16.3560741 37.4150801,16.6056667 C36.9305377,17.0749008 36.3521485,17.1214914 35.6952208,17.1214914 C34.4765435,17.1214914 33.9294365,16.6995135 33.9294365,15.8083016 C33.9294365,14.9177553 34.4918518,14.4491868 35.6486302,14.4491868 L37.8057757,14.4491868 L37.8057757,15.2771686 Z M35.8516322,10.2134343 C34.618312,10.2134343 33.8409143,10.4563711 33.1600258,11.318963 C33.1507077,11.3302779 33.8981542,12.0577571 33.8981542,12.0577571 C34.3514144,11.4168033 34.8512651,11.1825191 35.8363238,11.1825191 C37.2426948,11.1825191 37.8057757,11.7449344 37.8057757,12.8704305 L37.8057757,13.6045655 L35.4922189,13.6045655 C33.7730252,13.6045655 32.8352226,14.4804691 32.8352226,15.8242755 C32.8352226,16.433947 33.0382246,17.0123362 33.4136118,17.3877235 C33.8981542,17.8875742 34.5231341,18.0905762 35.5860657,18.0905762 C36.617715,18.0905762 37.1801303,17.8875742 37.8057757,17.2625944 L37.8057757,17.9967294 L38.9306063,17.9967294 L38.9306063,12.7765837 C38.9306063,11.1039806 37.9149309,10.2134343 35.8516322,10.2134343 Z M26.2280078,13.66713 L24.9933565,13.5579749 C24.0242717,13.480102 23.6495501,13.0894064 23.6495501,12.4324787 C23.6495501,11.6510876 24.2432476,11.1665452 25.3687438,11.1665452 C26.1661089,11.1665452 26.8689616,11.3542388 27.4160685,11.7762166 L28.1508691,11.0414161 C27.4633247,10.4790008 26.478266,10.2134343 25.3840521,10.2134343 C23.7433969,10.2134343 22.5553362,11.05739 22.5553362,12.463761 C22.5553362,13.7296946 23.3527013,14.4019306 24.8529191,14.5270597 L26.1188527,14.6362148 C27.0100646,14.7147533 27.4007602,15.089475 27.4007602,15.761711 C27.4007602,16.6682312 26.619369,17.1214914 25.3527698,17.1214914 C24.399659,17.1214914 23.5710116,16.8712332 22.9613401,16.230945 L22.2112312,16.9810539 C23.0551869,17.7937274 24.0715279,18.0905762 25.3687438,18.0905762 C27.2283749,18.0905762 28.494974,17.2313121 28.494974,15.7464026 C28.494974,14.3080838 27.5724799,13.7922591 26.2280078,13.66713 Z"/>
  </g>
</svg>
