<svg xmlns="http://www.w3.org/2000/svg" xmlns:xlink="http://www.w3.org/1999/xlink" width="725" height="193" viewBox="0 0 725 193">
  <defs>
    <rect id="a" width="623" height="125" x="44" y="37"/>
    <mask id="b" width="623" height="125" x="0" y="0" fill="white">
      <use xlink:href="#a"/>
    </mask>
  </defs>
  <g fill="none" fill-rule="evenodd">
    <path fill="#1E1B1D" fill-rule="nonzero" d="M187.7,113.742 L180.526,113.107 C174.895,112.654 172.716,110.383 172.716,106.568 C172.716,102.028 176.167,99.211 182.706,99.211 C187.338,99.211 191.424,100.302 194.606,102.754 L198.875,98.485 C194.875,95.216 189.156,93.673 182.8,93.673 C173.264,93.673 166.361,98.573 166.361,106.75 C166.361,114.106 170.994,118.011 179.712,118.738 L187.068,119.373 C192.244,119.828 194.515,122.007 194.515,125.912 C194.515,131.18 189.974,133.812 182.615,133.812 C177.074,133.812 172.261,132.359 168.715,128.635 L164.355,132.995 C169.26,137.717 175.163,139.443 182.701,139.443 C193.508,139.443 200.865,134.443 200.865,125.821 C200.865,117.463 195.506,114.468 187.695,113.74 L187.7,113.742 Z M243.613,93.671 C236.444,93.671 231.928,95.084 227.971,100.094 C227.917,100.163 232.261,104.386 232.261,104.386 C234.894,100.663 237.8,99.302 243.521,99.302 C251.695,99.302 254.965,102.571 254.965,109.109 L254.965,113.377 L241.527,113.377 C231.537,113.377 226.089,118.464 226.089,126.277 C225.984058,129.626295 227.189462,132.884474 229.449,135.359 C232.265,138.266 235.897,139.446 242.072,139.446 C248.066,139.446 251.336,138.266 254.972,134.632 L254.972,138.9 L261.511,138.9 L261.511,108.565 C261.511,98.848 255.611,93.673 243.62,93.673 L243.613,93.671 Z M254.969,123.1 C254.969,126.825 254.242,129.368 252.698,130.82 C249.883,133.545 246.523,133.82 242.709,133.82 C235.625,133.82 232.445,131.367 232.445,126.19 C232.445,121.013 235.715,118.29 242.437,118.29 L254.969,118.29 L254.969,123.1 Z M287.118,99.489 C291.386,99.489 294.018,100.76 297.38,104.483 C297.38,104.483 301.758,100.228 301.722,100.19 C297.137,95.285 293.245,93.677 287.122,93.677 C275.86,93.677 267.322,101.305 267.322,116.562 C267.322,131.819 275.858,139.449 287.122,139.449 C293.297,139.449 297.202,137.813 301.834,132.819 L297.384,128.55 C294.024,132.274 291.39,133.636 287.122,133.636 C283.033212,133.799376 279.138626,131.886128 276.769,128.55 C274.68,125.644 273.863,122.193 273.863,116.562 C273.863,110.931 274.68,107.48 276.769,104.574 C279.138117,101.237387 283.033165,99.3242873 287.122,99.489 L287.118,99.489 Z M343.122,94.155 L334.97,94.155 L314.71,113.875 L314.741,74.236 L308.2,74.236 L308.2,138.9 L314.74,138.9 L314.709,122.591 L322.64,114.632 L337.628,138.9 L345.71,138.9 L327.17,110.1 L343.122,94.155 Z M373.335,93.055 C366.635,93.055 362.108,95.666 359.322,98.625 C355.231,102.89 354.187,108.025 354.187,116.207 C354.187,124.475 355.231,129.607 359.322,133.876 C362.108,136.835 366.633,139.447 373.335,139.447 C380.037,139.447 384.651,136.835 387.435,133.876 C391.526,129.611 392.571,124.476 392.571,116.207 C392.571,108.026 391.526,102.89 387.435,98.625 C384.651,95.666 380.035,93.055 373.335,93.055 Z M378.645,127.261 C377.226419,128.631211 375.305034,129.354896 373.335,129.261 C371.391065,129.355011 369.496795,128.629515 368.113,127.261 C365.762,124.911 365.502,120.908 365.502,116.207 C365.502,111.506 365.762,107.591 368.113,105.241 C369.49659,103.872168 371.391005,103.146616 373.335,103.241 C375.30511,103.146623 377.226679,103.870378 378.645,105.241 C380.994,107.591 381.256,111.507 381.256,116.207 C381.256,120.907 380.994,124.907 378.645,127.261 Z M422.7,93.575 L413.562,121.6 L404.336,93.573 L392.41,93.573 L409.123,138.92 L418,138.92 L434.623,93.573 L422.7,93.575 Z M453.873,93.053 C442.124,93.053 434.116,101.408 434.116,116.205 C434.116,134.571 444.387,139.445 455.092,139.445 C463.274,139.445 467.714,136.92 472.326,132.306 L465.451,125.606 C462.578,128.479 460.14,129.871 455.179,129.871 C448.825,129.871 445.257,125.606 445.257,119.771 L473.631,119.771 L473.631,114.726 C473.631,102.279 466.494,93.053 453.873,93.053 Z M445.257,112.027 C445.273614,110.348545 445.629053,108.690735 446.302,107.153 C447.728026,104.274825 450.662422,102.453885 453.8745,102.453885 C457.086578,102.453885 460.020974,104.274825 461.447,107.153 C462.117747,108.691404 462.472764,110.348829 462.491,112.027 L445.257,112.027 Z M490.322,97.927 L490.322,93.575 L479.267,93.575 L479.267,138.922 L490.582,138.922 L490.582,111.593 C490.582,105.848 494.412,103.236 497.894,103.236 C500.1886,103.156716 502.391459,104.140438 503.864,105.902 L512.43,97.318 C509.296,94.184 506.163,93.053 501.724,93.053 C497.407599,93.0018792 493.269295,94.7711856 490.324,97.927 L490.322,97.927 Z M515.941,88.848 L515.941,138.876 L527.255,138.876 L527.255,103.122 L535.611,103.122 L535.611,94.506 L527.255,94.506 L527.255,89.545 C527.255,86.934 528.562,85.454 531.255,85.454 L535.607,85.454 L535.607,75.881 L529.167,75.881 C519.939,75.881 515.937,82.408 515.937,88.848 L515.941,88.848 Z M582.191,93.048 C575.491,93.048 570.963,95.659 568.178,98.618 C564.088,102.883 563.043,108.018 563.043,116.2 C563.043,124.468 564.088,129.6 568.178,133.869 C570.963,136.828 575.489,139.44 582.191,139.44 C588.893,139.44 593.507,136.828 596.291,133.869 C600.381,129.604 601.426,124.469 601.426,116.2 C601.426,108.019 600.381,102.883 596.291,98.618 C593.506,95.659 588.891,93.048 582.191,93.048 Z M587.501,127.254 C586.082419,128.624211 584.161034,129.347896 582.191,129.254 C580.247065,129.348011 578.352795,128.622515 576.969,127.254 C574.619,124.904 574.358,120.901 574.358,116.2 C574.358,111.499 574.619,107.584 576.969,105.234 C578.35259,103.865168 580.247005,103.139616 582.191,103.234 C584.16111,103.139623 586.082679,103.863378 587.501,105.234 C589.85,107.584 590.112,111.5 590.112,116.2 C590.112,120.9 589.85,124.9 587.501,127.254 Z M654.883,93.57 L647.573,121.6 L638.26,93.575 L629.993,93.575 L620.765,121.6 L613.455,93.573 L601.444,93.573 L615.37,138.92 L624.683,138.92 L634.17,110.46 L643.657,138.92 L652.97,138.92 L666.809,93.573 L654.883,93.57 Z M552.3,125.257 L552.3,75.881 L540.989,75.881 L540.989,125.953 C540.989,132.394 544.907,138.922 554.219,138.922 L560.659,138.922 L560.659,129.347 L556.308,129.347 C553.436,129.347 552.308,127.955 552.308,125.257 L552.3,125.257 Z M219,101.246 L225.046,95.2 L212.666,95.2 L212.666,80.5 L206.127,80.5 L206.127,126.912 C206.127,133.541 209.941,138.9 217.57,138.9 L222.2,138.9 L222.2,133.269 L218.75,133.269 C214.573,133.269 212.666,130.816 212.666,126.73 L212.666,101.246 L219,101.246 Z"/>
    <polygon fill="#BBBBBB" points="133 117 144 117 144 161 45 161 45 117 56 117 56 150 133 150"/>
    <path fill="#F58025" fill-rule="nonzero" d="M67.9878906,113.73 L122.012891,125.085 L124.283891,114.285 L70.2588906,102.925 L67.9878906,113.73 Z M75.1368906,87.861 L125.182891,111.169 L129.844891,101.16 L79.7978906,77.852 L75.1368906,87.861 Z M88.9848906,63.308 L131.412891,98.639 L138.478891,90.154 L96.0508906,54.824 L88.9848906,63.308 Z M116.371891,37.192 L107.511891,43.782 L140.459891,88.082 L149.319891,81.493 L116.371891,37.192 Z M67,139 L122,139 L122,128 L67,128 L67,139 Z"/>
    <rect width="10" height="44" x="35" y="117" fill="#00AEEF" opacity=".1"/>
    <rect width="10" height="11" x="35" y="150" fill="#00AEEF" opacity=".1"/>
    <polygon fill="#00AEEF" fill-rule="nonzero" points="0 94 0 93 725 93 725 94"/>
    <polygon fill="#00AEEF" fill-rule="nonzero" points="0 75 0 74 725 74 725 75"/>
    <polygon fill="#00AEEF" fill-rule="nonzero" points="25 139 25 138 725 138 725 139"/>
    <rect width="22" height="124" x="144" y="37" fill="#00AEEF" opacity=".1"/>
    <rect width="11" height="124" x="343" y="37" fill="#00AEEF" opacity=".1"/>
    <polygon fill="#00AEEF" fill-rule="nonzero" points="144 37 144 36 166 36 166 37"/>
    <polygon fill="#00AEEF" fill-rule="nonzero" points="343 37 343 36 354 36 354 37"/>
    <rect width="11" height="113" x="122" y="37" fill="#00AEEF" opacity=".1"/>
    <polygon fill="#00AEEF" fill-rule="nonzero" points="122 37 122 36 133 36 133 37"/>
    <rect width="11" height="113" x="56" y="37" fill="#00AEEF" opacity=".1"/>
    <polygon fill="#00AEEF" fill-rule="nonzero" points="56 37 56 36 67 36 67 37"/>
    <polygon fill="#00AEEF" fill-rule="nonzero" points="36 161 35 161 35 150 36 150"/>
    <path stroke="#E64320" stroke-dasharray="2.1" d="M159.207,160.965 L282.962,37.21"/>
    <path stroke="#E64320" stroke-dasharray="2" d="M288.962,160.965 L165.207,37.21"/>
    <polygon fill="#00AEEF" fill-rule="nonzero" points="22 161 21 161 21 117 22 117"/>
    <polygon fill="#00AEEF" fill-rule="nonzero" points="0 139 0 138 6 138 6 139"/>
    <path stroke="#E64320" stroke-dasharray="2" d="M449.326 160.965L572.081 37.21M276.5 160.965L401.255 37.21M240.326 160.965L365.081 37.21"/>
    <use stroke="#E64320" stroke-dasharray="2.1" stroke-width="2" mask="url(#b)" xlink:href="#a"/>
    <path fill="#00AEEF" d="M681.117188,67.7392578 L682.054688,67.7392578 C681.983073,68.4130893 681.729169,68.9746071 681.292969,69.4238281 C680.856769,69.8730491 680.212244,70.0976562 679.359375,70.0976562 C678.526038,70.0976562 677.855471,69.7973663 677.347656,69.1967773 C676.839841,68.5961884 676.585938,67.7978565 676.585938,66.8017578 L676.585938,66.09375 C676.585938,65.0976513 676.842283,64.2985056 677.35498,63.6962891 C677.867678,63.0940725 678.563472,62.7929688 679.442383,62.7929688 C680.246423,62.7929688 680.864907,63.0143207 681.297852,63.4570312 C681.730796,63.8997418 681.983073,64.4710251 682.054688,65.1708984 L681.117188,65.1708984 C681.045573,64.6761043 680.886069,64.2846694 680.638672,63.996582 C680.391275,63.7084947 679.992516,63.5644531 679.442383,63.5644531 C678.814124,63.5644531 678.337241,63.7955706 678.011719,64.2578125 C677.686196,64.7200544 677.523438,65.3287723 677.523438,66.0839844 L677.523438,66.8017578 C677.523438,67.5016311 677.671548,68.0981421 677.967773,68.5913086 C678.263999,69.0844751 678.727861,69.3310547 679.359375,69.3310547 C679.958336,69.3310547 680.380695,69.1910821 680.626465,68.9111328 C680.872234,68.6311835 681.035807,68.2405624 681.117188,67.7392578 Z M686.458984,70 C686.40039,69.8730462 686.358073,69.6875012 686.332031,69.4433594 C686.16276,69.6223967 685.951173,69.7762038 685.697266,69.9047852 C685.443358,70.0333665 685.153647,70.0976562 684.828125,70.0976562 C684.287758,70.0976562 683.854819,69.9462906 683.529297,69.6435547 C683.203774,69.3408188 683.041016,68.9697288 683.041016,68.5302734 C683.041016,67.9638644 683.255857,67.5333674 683.685547,67.2387695 C684.115237,66.9441717 684.69303,66.796875 685.418945,66.796875 L686.3125,66.796875 L686.3125,66.3769531 C686.3125,66.0644516 686.218914,65.8146168 686.031738,65.6274414 C685.844563,65.440266 685.567059,65.3466797 685.199219,65.3466797 C684.85742,65.3466797 684.581544,65.4305005 684.371582,65.5981445 C684.16162,65.7657886 684.056641,65.9602854 684.056641,66.1816406 L683.15332,66.1816406 C683.15332,65.8040346 683.343748,65.4492204 683.724609,65.1171875 C684.105471,64.7851546 684.614906,64.6191406 685.25293,64.6191406 C685.825849,64.6191406 686.296222,64.7656235 686.664062,65.0585938 C687.031903,65.351564 687.21582,65.7942679 687.21582,66.3867188 L687.21582,68.8476562 C687.21582,69.0234384 687.231282,69.210611 687.262207,69.4091797 C687.293132,69.6077484 687.339518,69.7786451 687.401367,69.921875 L687.401367,70 L686.458984,70 Z M684.959961,69.3066406 C685.285483,69.3066406 685.56787,69.2252612 685.807129,69.0625 C686.046388,68.8997388 686.214843,68.7190765 686.3125,68.5205078 L686.3125,67.4316406 L685.56543,67.4316406 C684.48795,67.4316406 683.949219,67.7571582 683.949219,68.4082031 C683.949219,68.6588554 684.033853,68.8712556 684.203125,69.0454102 C684.372397,69.2195647 684.624673,69.3066406 684.959961,69.3066406 Z M691.048828,70.0976562 C690.414059,70.0976562 689.911135,69.8942078 689.540039,69.4873047 L689.540039,72.03125 L688.631836,72.03125 L688.631836,64.7167969 L689.461914,64.7167969 L689.505859,65.2978516 C689.876955,64.8453753 690.38639,64.6191406 691.03418,64.6191406 C691.701501,64.6191406 692.212563,64.866534 692.567383,65.3613281 C692.922202,65.8561223 693.099609,66.5071574 693.099609,67.3144531 L693.099609,67.4169922 C693.099609,68.1884804 692.921389,68.8281225 692.564941,69.3359375 C692.208494,69.8437525 691.703128,70.0976562 691.048828,70.0976562 Z M690.770508,65.3808594 C690.464517,65.3808594 690.212241,65.4500319 690.013672,65.5883789 C689.815103,65.726726 689.657227,65.9000641 689.540039,66.1083984 L689.540039,68.6376953 C689.660482,68.8460297 689.819172,69.0177402 690.016113,69.152832 C690.213054,69.2879239 690.467772,69.3554688 690.780273,69.3554688 C691.268557,69.3554688 691.625813,69.1634134 691.852051,68.7792969 C692.078289,68.3951804 692.191406,67.9410833 692.191406,67.4169922 L692.191406,67.3144531 C692.191406,66.790362 692.078289,66.3370787 691.852051,65.9545898 C691.625813,65.572101 691.265302,65.3808594 690.770508,65.3808594 Z M701.395508,70 L701.395508,66.7138672 L697.811523,66.7138672 L697.811523,70 L696.869141,70 L696.869141,62.890625 L697.811523,62.890625 L697.811523,65.9472656 L701.395508,65.9472656 L701.395508,62.890625 L702.333008,62.890625 L702.333008,70 L701.395508,70 Z M708.045898,69.0771484 C707.873372,69.3375664 707.629233,69.5727529 707.313477,69.7827148 C706.99772,69.9926768 706.57943,70.0976562 706.058594,70.0976562 C705.322913,70.0976562 704.73454,69.8584008 704.293457,69.3798828 C703.852374,68.9013648 703.631836,68.2893917 703.631836,67.5439453 L703.631836,67.3388672 C703.631836,66.7626924 703.741698,66.2719747 703.961426,65.8666992 C704.181153,65.4614238 704.466795,65.1521821 704.818359,64.9389648 C705.169924,64.7257476 705.544269,64.6191406 705.941406,64.6191406 C706.696618,64.6191406 707.247557,64.8657202 707.594238,65.3588867 C707.94092,65.8520532 708.114258,66.4680953 708.114258,67.2070312 L708.114258,67.6123047 L704.540039,67.6123047 C704.55306,68.0973332 704.697101,68.5099267 704.972168,68.8500977 C705.247234,69.1902686 705.625649,69.3603516 706.107422,69.3603516 C706.426434,69.3603516 706.696613,69.295248 706.917969,69.1650391 C707.139324,69.0348301 707.333007,68.8606782 707.499023,68.6425781 L708.045898,69.0771484 Z M705.941406,65.3613281 C705.583332,65.3613281 705.2806,65.4915352 705.033203,65.7519531 C704.785806,66.0123711 704.631185,66.3867163 704.569336,66.875 L707.210938,66.875 L707.210938,66.8066406 C707.188151,66.4550764 707.086427,66.1263036 706.905762,65.8203125 C706.725097,65.5143214 706.403648,65.3613281 705.941406,65.3613281 Z M709.173828,63.3154297 C709.173828,63.1689446 709.218587,63.0452479 709.308105,62.9443359 C709.397624,62.843424 709.530273,62.7929688 709.706055,62.7929688 C709.878582,62.7929688 710.01123,62.843424 710.104004,62.9443359 C710.196778,63.0452479 710.243164,63.1689446 710.243164,63.3154297 C710.243164,63.4554043 710.196778,63.5750321 710.104004,63.6743164 C710.01123,63.7736008 709.878582,63.8232422 709.706055,63.8232422 C709.530273,63.8232422 709.397624,63.7736008 709.308105,63.6743164 C709.218587,63.5750321 709.173828,63.4554043 709.173828,63.3154297 Z M710.150391,64.7167969 L710.150391,70 L709.242188,70 L709.242188,64.7167969 L710.150391,64.7167969 Z M715.84375,69.8876953 C715.84375,70.5875686 715.635419,71.1287416 715.21875,71.5112305 C714.802081,71.8937194 714.264977,72.0849609 713.607422,72.0849609 C713.333983,72.0849609 712.9987,72.0182298 712.601562,71.8847656 C712.204425,71.7513014 711.887045,71.512046 711.649414,71.1669922 L712.123047,70.6298828 C712.344402,70.9000665 712.57552,71.0864253 712.816406,71.1889648 C713.057293,71.2915044 713.298176,71.3427734 713.539062,71.3427734 C713.965497,71.3427734 714.305663,71.2231457 714.55957,70.9838867 C714.813478,70.7446277 714.94043,70.3938825 714.94043,69.9316406 L714.94043,69.4677734 C714.582355,69.8876974 714.089196,70.0976562 713.460938,70.0976562 C712.826169,70.0976562 712.321616,69.8437525 711.947266,69.3359375 C711.572915,68.8281225 711.385742,68.1884804 711.385742,67.4169922 L711.385742,67.3144531 C711.385742,66.5071574 711.572101,65.8561223 711.944824,65.3613281 C712.317547,64.866534 712.826169,64.6191406 713.470703,64.6191406 C714.118493,64.6191406 714.621417,64.8470029 714.979492,65.3027344 L715.023438,64.7167969 L715.84375,64.7167969 L715.84375,69.8876953 Z M712.289062,67.4169922 C712.289062,67.9410833 712.398925,68.3911114 712.618652,68.7670898 C712.83838,69.1430683 713.19238,69.3310547 713.680664,69.3310547 C714.002931,69.3310547 714.264159,69.2578132 714.464355,69.1113281 C714.664552,68.964843 714.823242,68.7776704 714.94043,68.5498047 L714.94043,66.1425781 C714.826497,65.9244781 714.668621,65.743002 714.466797,65.5981445 C714.264973,65.453287 714.006186,65.3808594 713.69043,65.3808594 C713.198891,65.3808594 712.842449,65.572101 712.621094,65.9545898 C712.399738,66.3370787 712.289062,66.790362 712.289062,67.3144531 L712.289062,67.4169922 Z M719.408203,65.3808594 C719.118488,65.3808594 718.862957,65.4589836 718.641602,65.6152344 C718.420246,65.7714852 718.246094,65.9749336 718.119141,66.2255859 L718.119141,70 L717.21582,70 L717.21582,62.5 L718.119141,62.5 L718.119141,65.3466797 C718.519533,64.8616512 719.038734,64.6191406 719.676758,64.6191406 C720.197594,64.6191406 720.610187,64.7656235 720.914551,65.0585938 C721.218914,65.351564 721.371094,65.8447231 721.371094,66.5380859 L721.371094,70 L720.462891,70 L720.462891,66.5283203 C720.462891,66.1149068 720.372559,65.8203134 720.191895,65.6445312 C720.01123,65.4687491 719.750002,65.3808594 719.408203,65.3808594 Z M724.959961,70 C724.888346,70.0227866 724.79476,70.044759 724.679199,70.065918 C724.563639,70.0870769 724.42448,70.0976562 724.261719,70.0976562 C723.926431,70.0976562 723.639975,69.9951182 723.402344,69.7900391 C723.164712,69.5849599 723.045898,69.217125 723.045898,68.6865234 L723.045898,65.4101562 L722.079102,65.4101562 L722.079102,64.7167969 L723.045898,64.7167969 L723.045898,63.4326172 L723.949219,63.4326172 L723.949219,64.7167969 L724.935547,64.7167969 L724.935547,65.4101562 L723.949219,65.4101562 L723.949219,68.6914062 C723.949219,68.9615899 724.007812,69.1341142 724.125,69.2089844 C724.242188,69.2838545 724.377278,69.3212891 724.530273,69.3212891 C724.605144,69.3212891 724.684082,69.3139649 724.76709,69.2993164 C724.850098,69.2846679 724.91276,69.272461 724.955078,69.2626953 L724.959961,70 Z"/>
    <polygon fill="#00AEEF" points="347.299 28.717 348.456 30.641 349.628 28.717 350.688 28.717 348.959 31.324 350.741 34 349.696 34 348.476 32.018 347.255 34 346.205 34 347.982 31.324 346.259 28.717"/>
    <path fill="#00AEEF" d="M155.249023,33.2578125 L155.249023,34 L150.595703,34 L150.595703,33.3505859 L152.924805,30.7578125 C153.354494,30.2792945 153.644205,29.9025079 153.793945,29.6274414 C153.943686,29.3523749 154.018555,29.0764988 154.018555,28.7998047 C154.018555,28.4514957 153.91032,28.1536471 153.693848,27.90625 C153.477375,27.6588529 153.172202,27.5351562 152.77832,27.5351562 C152.303058,27.5351562 151.948243,27.670246 151.713867,27.9404297 C151.479491,28.2106133 151.362305,28.5572896 151.362305,28.9804688 L150.458984,28.9804688 C150.458984,28.3815074 150.655923,27.8671896 151.049805,27.4375 C151.443687,27.0078104 152.019853,26.7929688 152.77832,26.7929688 C153.448897,26.7929688 153.973794,26.9671207 154.353027,27.3154297 C154.732261,27.6637387 154.921875,28.1227185 154.921875,28.6923828 C154.921875,29.1123068 154.790854,29.5354796 154.528809,29.9619141 C154.266763,30.3883485 153.953452,30.7985006 153.588867,31.1923828 L151.68457,33.2578125 L155.249023,33.2578125 Z M156.918945,28.7167969 L158.076172,30.640625 L159.248047,28.7167969 L160.307617,28.7167969 L158.579102,31.3242188 L160.361328,34 L159.316406,34 L158.095703,32.0175781 L156.875,34 L155.825195,34 L157.602539,31.3242188 L155.878906,28.7167969 L156.918945,28.7167969 Z"/>
    <polygon fill="#00AEEF" points="126.299 28.717 127.456 30.641 128.628 28.717 129.688 28.717 127.959 31.324 129.741 34 128.696 34 127.476 32.018 126.255 34 125.205 34 126.982 31.324 125.259 28.717"/>
    <polygon fill="#00AEEF" points="60.299 28.717 61.456 30.641 62.628 28.717 63.688 28.717 61.959 31.324 63.741 34 62.696 34 61.476 32.018 60.255 34 59.205 34 60.982 31.324 59.259 28.717"/>
    <path fill="#00AEEF" d="M8.25878906 139.817383L11.4423828 134.890625 12.4042969 134.890625 12.4042969 139.607422 13.3955078 139.607422 13.3955078 140.349609 12.4042969 140.349609 12.4042969 142 11.5009766 142 11.5009766 140.349609 8.25878906 140.349609 8.25878906 139.817383zM9.28417969 139.607422L11.5009766 139.607422 11.5009766 136.116211 11.3886719 136.316406 9.28417969 139.607422zM16.1103516 142.81543C16.0452471 142.987957 15.950847 143.177571 15.8271484 143.384277 15.7034499 143.590984 15.5382497 143.767577 15.331543 143.914062 15.1248362 144.060548 14.8619808 144.133789 14.5429688 144.133789 14.4680986 144.133789 14.3761399 144.124837 14.2670898 144.106934 14.1580398 144.08903 14.0807294 144.07194 14.0351562 144.055664L14.0302734 143.323242C14.1018884 143.336263 14.1832678 143.342773 14.2744141 143.342773 14.5804052 143.342773 14.8196606 143.280111 14.9921875 143.154785 15.1647144 143.029459 15.3063146 142.804038 15.4169922 142.478516L15.6123047 141.941406 13.7275391 136.716797 14.7138672 136.716797 16.0371094 140.671875 17.2626953 136.716797 18.2294922 136.716797 16.1103516 142.81543zM28.4902344 159.81543C28.4251299 159.987957 28.3307298 160.177571 28.2070312 160.384277 28.0833327 160.590984 27.9181325 160.767577 27.7114258 160.914062 27.504719 161.060548 27.2418636 161.133789 26.9228516 161.133789 26.8479814 161.133789 26.7560227 161.124837 26.6469727 161.106934 26.5379226 161.08903 26.4606122 161.07194 26.4150391 161.055664L26.4101562 160.323242C26.4817712 160.336263 26.5631506 160.342773 26.6542969 160.342773 26.960288 160.342773 27.1995434 160.280111 27.3720703 160.154785 27.5445972 160.029459 27.6861974 159.804038 27.796875 159.478516L27.9921875 158.941406 26.1074219 153.716797 27.09375 153.716797 28.4169922 157.671875 29.6425781 153.716797 30.609375 153.716797 28.4902344 159.81543zM689.946777 84.7167969L691.104004 86.640625 692.275879 84.7167969 693.335449 84.7167969 691.606934 87.3242188 693.38916 90 692.344238 90 691.123535 88.0175781 689.902832 90 688.853027 90 690.630371 87.3242188 688.906738 84.7167969 689.946777 84.7167969zM701.440918 90L701.440918 86.7138672 697.856934 86.7138672 697.856934 90 696.914551 90 696.914551 82.890625 697.856934 82.890625 697.856934 85.9472656 701.440918 85.9472656 701.440918 82.890625 702.378418 82.890625 702.378418 90 701.440918 90zM708.091309 89.0771484C707.918782 89.3375664 707.674644 89.5727529 707.358887 89.7827148 707.04313 89.9926768 706.62484 90.0976562 706.104004 90.0976562 705.368323 90.0976562 704.77995 89.8584008 704.338867 89.3798828 703.897784 88.9013648 703.677246 88.2893917 703.677246 87.5439453L703.677246 87.3388672C703.677246 86.7626924 703.787108 86.2719747 704.006836 85.8666992 704.226564 85.4614238 704.512205 85.1521821 704.86377 84.9389648 705.215334 84.7257476 705.589679 84.6191406 705.986816 84.6191406 706.742029 84.6191406 707.292967 84.8657202 707.639648 85.3588867 707.98633 85.8520532 708.159668 86.4680953 708.159668 87.2070312L708.159668 87.6123047 704.585449 87.6123047C704.59847 88.0973332 704.742512 88.5099267 705.017578 88.8500977 705.292645 89.1902686 705.671059 89.3603516 706.152832 89.3603516 706.471844 89.3603516 706.742024 89.295248 706.963379 89.1650391 707.184734 89.0348301 707.378417 88.8606782 707.544434 88.6425781L708.091309 89.0771484zM705.986816 85.3613281C705.628742 85.3613281 705.32601 85.4915352 705.078613 85.7519531 704.831216 86.0123711 704.676595 86.3867163 704.614746 86.875L707.256348 86.875 707.256348 86.8066406C707.233561 86.4550764 707.131837 86.1263036 706.951172 85.8203125 706.770507 85.5143214 706.449058 85.3613281 705.986816 85.3613281zM709.219238 83.3154297C709.219238 83.1689446 709.263997 83.0452479 709.353516 82.9443359 709.443034 82.843424 709.575683 82.7929688 709.751465 82.7929688 709.923992 82.7929688 710.05664 82.843424 710.149414 82.9443359 710.242188 83.0452479 710.288574 83.1689446 710.288574 83.3154297 710.288574 83.4554043 710.242188 83.5750321 710.149414 83.6743164 710.05664 83.7736008 709.923992 83.8232422 709.751465 83.8232422 709.575683 83.8232422 709.443034 83.7736008 709.353516 83.6743164 709.263997 83.5750321 709.219238 83.4554043 709.219238 83.3154297zM710.195801 84.7167969L710.195801 90 709.287598 90 709.287598 84.7167969 710.195801 84.7167969zM715.88916 89.8876953C715.88916 90.5875686 715.680829 91.1287416 715.26416 91.5112305 714.847491 91.8937194 714.310387 92.0849609 713.652832 92.0849609 713.379393 92.0849609 713.04411 92.0182298 712.646973 91.8847656 712.249835 91.7513014 711.932456 91.512046 711.694824 91.1669922L712.168457 90.6298828C712.389812 90.9000665 712.62093 91.0864253 712.861816 91.1889648 713.102703 91.2915044 713.343586 91.3427734 713.584473 91.3427734 714.010907 91.3427734 714.351073 91.2231457 714.60498 90.9838867 714.858888 90.7446277 714.98584 90.3938825 714.98584 89.9316406L714.98584 89.4677734C714.627765 89.8876974 714.134606 90.0976562 713.506348 90.0976562 712.871579 90.0976562 712.367027 89.8437525 711.992676 89.3359375 711.618325 88.8281225 711.431152 88.1884804 711.431152 87.4169922L711.431152 87.3144531C711.431152 86.5071574 711.617511 85.8561223 711.990234 85.3613281 712.362958 84.866534 712.871579 84.6191406 713.516113 84.6191406 714.163903 84.6191406 714.666828 84.8470029 715.024902 85.3027344L715.068848 84.7167969 715.88916 84.7167969 715.88916 89.8876953zM712.334473 87.4169922C712.334473 87.9410833 712.444335 88.3911114 712.664062 88.7670898 712.88379 89.1430683 713.237791 89.3310547 713.726074 89.3310547 714.048341 89.3310547 714.309569 89.2578132 714.509766 89.1113281 714.709962 88.964843 714.868652 88.7776704 714.98584 88.5498047L714.98584 86.1425781C714.871907 85.9244781 714.714031 85.743002 714.512207 85.5981445 714.310383 85.453287 714.051597 85.3808594 713.73584 85.3808594 713.244301 85.3808594 712.887859 85.572101 712.666504 85.9545898 712.445149 86.3370787 712.334473 86.790362 712.334473 87.3144531L712.334473 87.4169922zM719.453613 85.3808594C719.163898 85.3808594 718.908367 85.4589836 718.687012 85.6152344 718.465656 85.7714852 718.291505 85.9749336 718.164551 86.2255859L718.164551 90 717.26123 90 717.26123 82.5 718.164551 82.5 718.164551 85.3466797C718.564943 84.8616512 719.084144 84.6191406 719.722168 84.6191406 720.243004 84.6191406 720.655597 84.7656235 720.959961 85.0585938 721.264324 85.351564 721.416504 85.8447231 721.416504 86.5380859L721.416504 90 720.508301 90 720.508301 86.5283203C720.508301 86.1149068 720.41797 85.8203134 720.237305 85.6445312 720.05664 85.4687491 719.795412 85.3808594 719.453613 85.3808594zM725.005371 90C724.933756 90.0227866 724.84017 90.044759 724.724609 90.065918 724.609049 90.0870769 724.46989 90.0976562 724.307129 90.0976562 723.971841 90.0976562 723.685385 89.9951182 723.447754 89.7900391 723.210123 89.5849599 723.091309 89.217125 723.091309 88.6865234L723.091309 85.4101562 722.124512 85.4101562 722.124512 84.7167969 723.091309 84.7167969 723.091309 83.4326172 723.994629 83.4326172 723.994629 84.7167969 724.980957 84.7167969 724.980957 85.4101562 723.994629 85.4101562 723.994629 88.6914062C723.994629 88.9615899 724.053222 89.1341142 724.17041 89.2089844 724.287598 89.2838545 724.422688 89.3212891 724.575684 89.3212891 724.650554 89.3212891 724.729492 89.3139649 724.8125 89.2993164 724.895508 89.2846679 724.95817 89.272461 725.000488 89.2626953L725.005371 90zM692.664062 132.949219C692.664062 133.613285 692.450035 134.121092 692.021973 134.472656 691.593911 134.824221 691.025069 135 690.31543 135L687.825195 135 687.825195 127.890625 690.154297 127.890625C690.883467 127.890625 691.452309 128.041177 691.86084 128.342285 692.269371 128.643393 692.473633 129.124346 692.473633 129.785156 692.473633 130.113934 692.380047 130.406086 692.192871 130.661621 692.005696 130.917156 691.749351 131.114908 691.423828 131.254883 691.824221 131.36556 692.131021 131.575519 692.344238 131.884766 692.557455 132.194012 692.664062 132.548826 692.664062 132.949219zM688.767578 128.662109L688.767578 130.917969 690.183594 130.917969C690.587242 130.917969 690.912759 130.817058 691.160156 130.615234 691.407553 130.41341 691.53125 130.133465 691.53125 129.775391 691.53125 129.033199 691.07227 128.662109 690.154297 128.662109L688.767578 128.662109zM691.726562 132.958984C691.726562 132.561847 691.618328 132.248536 691.401855 132.019043 691.185383 131.78955 690.837893 131.674805 690.359375 131.674805L688.767578 131.674805 688.767578 134.233398 690.31543 134.233398C690.761395 134.233398 691.108072 134.118653 691.355469 133.88916 691.602866 133.659667 691.726562 133.349611 691.726562 132.958984zM697.180664 135C697.12207 134.873046 697.079753 134.687501 697.053711 134.443359 696.884439 134.622397 696.672853 134.776204 696.418945 134.904785 696.165038 135.033367 695.875327 135.097656 695.549805 135.097656 695.009437 135.097656 694.576499 134.946291 694.250977 134.643555 693.925454 134.340819 693.762695 133.969729 693.762695 133.530273 693.762695 132.963864 693.977537 132.533367 694.407227 132.23877 694.836916 131.944172 695.41471 131.796875 696.140625 131.796875L697.03418 131.796875 697.03418 131.376953C697.03418 131.064452 696.940593 130.814617 696.753418 130.627441 696.566243 130.440266 696.288739 130.34668 695.920898 130.34668 695.5791 130.34668 695.303224 130.4305 695.093262 130.598145 694.8833 130.765789 694.77832 130.960285 694.77832 131.181641L693.875 131.181641C693.875 130.804035 694.065428 130.44922 694.446289 130.117188 694.82715 129.785155 695.336585 129.619141 695.974609 129.619141 696.547529 129.619141 697.017902 129.765624 697.385742 130.058594 697.753583 130.351564 697.9375 130.794268 697.9375 131.386719L697.9375 133.847656C697.9375 134.023438 697.952962 134.210611 697.983887 134.40918 698.014811 134.607748 698.061198 134.778645 698.123047 134.921875L698.123047 135 697.180664 135zM695.681641 134.306641C696.007163 134.306641 696.28955 134.225261 696.528809 134.0625 696.768068 133.899739 696.936523 133.719077 697.03418 133.520508L697.03418 132.431641 696.287109 132.431641C695.20963 132.431641 694.670898 132.757158 694.670898 133.408203 694.670898 133.658855 694.755533 133.871256 694.924805 134.04541 695.094076 134.219565 695.346352 134.306641 695.681641 134.306641zM702.43457 133.598633C702.43457 133.403319 702.362143 133.228354 702.217285 133.07373 702.072428 132.919107 701.739586 132.789714 701.21875 132.685547 700.629554 132.561848 700.164878 132.386069 699.824707 132.158203 699.484536 131.930337 699.314453 131.598309 699.314453 131.162109 699.314453 130.745441 699.492674 130.384116 699.849121 130.078125 700.205568 129.772134 700.68001 129.619141 701.272461 129.619141 701.903975 129.619141 702.397134 129.780272 702.751953 130.102539 703.106773 130.424806 703.28418 130.8138 703.28418 131.269531L702.380859 131.269531C702.380859 131.051431 702.284832 130.845541 702.092773 130.651855 701.900715 130.45817 701.62728 130.361328 701.272461 130.361328 700.89811 130.361328 700.629558 130.442708 700.466797 130.605469 700.304036 130.76823 700.222656 130.945637 700.222656 131.137695 700.222656 131.333009 700.30078 131.490071 700.457031 131.608887 700.613282 131.727702 700.940427 131.842447 701.438477 131.953125 702.086266 132.102865 702.564777 132.296548 702.874023 132.53418 703.18327 132.771811 703.337891 133.103839 703.337891 133.530273 703.337891 133.995771 703.151532 134.373371 702.778809 134.663086 702.406085 134.952801 701.912112 135.097656 701.296875 135.097656 700.597002 135.097656 700.061525 134.918622 699.69043 134.560547 699.319334 134.202472 699.133789 133.805341 699.133789 133.369141L700.041992 133.369141C700.061524 133.743491 700.205565 134.001464 700.474121 134.143066 700.742677 134.284669 701.016926 134.355469 701.296875 134.355469 701.664715 134.355469 701.946288 134.283855 702.141602 134.140625 702.336915 133.997395 702.43457 133.816733 702.43457 133.598633zM708.699219 134.077148C708.526692 134.337566 708.282554 134.572753 707.966797 134.782715 707.65104 134.992677 707.23275 135.097656 706.711914 135.097656 705.976233 135.097656 705.38786 134.858401 704.946777 134.379883 704.505694 133.901365 704.285156 133.289392 704.285156 132.543945L704.285156 132.338867C704.285156 131.762692 704.395018 131.271975 704.614746 130.866699 704.834474 130.461424 705.120115 130.152182 705.47168 129.938965 705.823244 129.725748 706.197589 129.619141 706.594727 129.619141 707.349939 129.619141 707.900877 129.86572 708.247559 130.358887 708.59424 130.852053 708.767578 131.468095 708.767578 132.207031L708.767578 132.612305 705.193359 132.612305C705.20638 133.097333 705.350422 133.509927 705.625488 133.850098 705.900555 134.190269 706.278969 134.360352 706.760742 134.360352 707.079754 134.360352 707.349934 134.295248 707.571289 134.165039 707.792644 134.03483 707.986327 133.860678 708.152344 133.642578L708.699219 134.077148zM706.594727 130.361328C706.236652 130.361328 705.933921 130.491535 705.686523 130.751953 705.439126 131.012371 705.284506 131.386716 705.222656 131.875L707.864258 131.875 707.864258 131.806641C707.841471 131.455076 707.739747 131.126304 707.559082 130.820312 707.378417 130.514321 707.056968 130.361328 706.594727 130.361328zM710.803711 127.5L710.803711 135 709.895508 135 709.895508 127.5 710.803711 127.5zM712.258789 128.31543C712.258789 128.168945 712.303548 128.045248 712.393066 127.944336 712.482585 127.843424 712.615233 127.792969 712.791016 127.792969 712.963543 127.792969 713.096191 127.843424 713.188965 127.944336 713.281739 128.045248 713.328125 128.168945 713.328125 128.31543 713.328125 128.455404 713.281739 128.575032 713.188965 128.674316 713.096191 128.773601 712.963543 128.823242 712.791016 128.823242 712.615233 128.823242 712.482585 128.773601 712.393066 128.674316 712.303548 128.575032 712.258789 128.455404 712.258789 128.31543zM713.235352 129.716797L713.235352 135 712.327148 135 712.327148 129.716797 713.235352 129.716797zM716.87793 130.380859C716.588215 130.380859 716.332683 130.458984 716.111328 130.615234 715.889973 130.771485 715.715821 130.974934 715.588867 131.225586L715.588867 135 714.685547 135 714.685547 129.716797 715.540039 129.716797 715.569336 130.375977C715.969729 129.871417 716.495439 129.619141 717.146484 129.619141 717.66732 129.619141 718.079914 129.765624 718.384277 130.058594 718.688641 130.351564 718.84082 130.844723 718.84082 131.538086L718.84082 135 717.932617 135 717.932617 131.52832C717.932617 131.114907 717.842286 130.820313 717.661621 130.644531 717.480956 130.468749 717.219728 130.380859 716.87793 130.380859zM724.387695 134.077148C724.215168 134.337566 723.97103 134.572753 723.655273 134.782715 723.339517 134.992677 722.921227 135.097656 722.400391 135.097656 721.66471 135.097656 721.076337 134.858401 720.635254 134.379883 720.194171 133.901365 719.973633 133.289392 719.973633 132.543945L719.973633 132.338867C719.973633 131.762692 720.083495 131.271975 720.303223 130.866699 720.52295 130.461424 720.808592 130.152182 721.160156 129.938965 721.511721 129.725748 721.886066 129.619141 722.283203 129.619141 723.038415 129.619141 723.589354 129.86572 723.936035 130.358887 724.282717 130.852053 724.456055 131.468095 724.456055 132.207031L724.456055 132.612305 720.881836 132.612305C720.894857 133.097333 721.038898 133.509927 721.313965 133.850098 721.589031 134.190269 721.967446 134.360352 722.449219 134.360352 722.768231 134.360352 723.03841 134.295248 723.259766 134.165039 723.481121 134.03483 723.674804 133.860678 723.84082 133.642578L724.387695 134.077148zM722.283203 130.361328C721.925128 130.361328 721.622397 130.491535 721.375 130.751953 721.127603 131.012371 720.972982 131.386716 720.911133 131.875L723.552734 131.875 723.552734 131.806641C723.529948 131.455076 723.428224 131.126304 723.247559 130.820312 723.066894 130.514321 722.745445 130.361328 722.283203 130.361328z"/>
    <polygon fill="#E64320" fill-rule="nonzero" points="45 19 44 19 44 14 667 14 667 19 666 19 666 15 45 15"/>
    <path fill="#E64320" d="M349.242676,8.23339844 L349.242676,9 L344.931152,9 L344.931152,1.890625 L345.873535,1.890625 L345.873535,8.23339844 L349.242676,8.23339844 Z M349.940918,6.41699219 L349.940918,6.3046875 C349.940918,5.53970972 350.15576,4.90088147 350.585449,4.38818359 C351.015139,3.87548572 351.599443,3.61914062 352.338379,3.61914062 C353.083825,3.61914062 353.672198,3.87548572 354.103516,4.38818359 C354.534833,4.90088147 354.750488,5.53970972 354.750488,6.3046875 L354.750488,6.41699219 C354.750488,7.18196997 354.534833,7.81998442 354.103516,8.33105469 C353.672198,8.84212495 353.087081,9.09765625 352.348145,9.09765625 C351.605953,9.09765625 351.019208,8.84212495 350.587891,8.33105469 C350.156573,7.81998442 349.940918,7.18196997 349.940918,6.41699219 Z M350.844238,6.3046875 L350.844238,6.41699219 C350.844238,6.94108335 350.968749,7.39518037 351.217773,7.77929688 C351.466798,8.16341338 351.843585,8.35546875 352.348145,8.35546875 C352.842939,8.35546875 353.215656,8.16341338 353.466309,7.77929688 C353.716961,7.39518037 353.842285,6.94108335 353.842285,6.41699219 L353.842285,6.3046875 C353.842285,5.78710679 353.716961,5.33382356 353.466309,4.94482422 C353.215656,4.55582488 352.839683,4.36132812 352.338379,4.36132812 C351.84033,4.36132812 351.466798,4.55582488 351.217773,4.94482422 C350.968749,5.33382356 350.844238,5.78710679 350.844238,6.3046875 Z M360.126465,8.88769531 C360.126465,9.5875686 359.918134,10.1287416 359.501465,10.5112305 C359.084796,10.8937194 358.547692,11.0849609 357.890137,11.0849609 C357.616698,11.0849609 357.281415,11.0182298 356.884277,10.8847656 C356.48714,10.7513014 356.16976,10.512046 355.932129,10.1669922 L356.405762,9.62988281 C356.627117,9.90006646 356.858234,10.0864253 357.099121,10.1889648 C357.340008,10.2915044 357.580891,10.3427734 357.821777,10.3427734 C358.248212,10.3427734 358.588378,10.2231457 358.842285,9.98388672 C359.096193,9.74462771 359.223145,9.39388252 359.223145,8.93164062 L359.223145,8.46777344 C358.86507,8.88769741 358.371911,9.09765625 357.743652,9.09765625 C357.108884,9.09765625 356.604331,8.84375254 356.22998,8.3359375 C355.85563,7.82812246 355.668457,7.18848042 355.668457,6.41699219 L355.668457,6.31445312 C355.668457,5.50715742 355.854816,4.85612227 356.227539,4.36132812 C356.600262,3.86653398 357.108883,3.61914062 357.753418,3.61914062 C358.401208,3.61914062 358.904132,3.84700293 359.262207,4.30273438 L359.306152,3.71679688 L360.126465,3.71679688 L360.126465,8.88769531 Z M356.571777,6.41699219 C356.571777,6.94108335 356.68164,7.3911114 356.901367,7.76708984 C357.121095,8.14306829 357.475095,8.33105469 357.963379,8.33105469 C358.285646,8.33105469 358.546874,8.25781323 358.74707,8.11132812 C358.947267,7.96484302 359.105956,7.77767041 359.223145,7.54980469 L359.223145,5.14257812 C359.109212,4.92447808 358.951336,4.74300203 358.749512,4.59814453 C358.547688,4.45328704 358.288901,4.38085938 357.973145,4.38085938 C357.481606,4.38085938 357.125164,4.57210095 356.903809,4.95458984 C356.682453,5.33707874 356.571777,5.79036196 356.571777,6.31445312 L356.571777,6.41699219 Z M361.259277,6.41699219 L361.259277,6.3046875 C361.259277,5.53970972 361.474119,4.90088147 361.903809,4.38818359 C362.333498,3.87548572 362.917802,3.61914062 363.656738,3.61914062 C364.402185,3.61914062 364.990558,3.87548572 365.421875,4.38818359 C365.853192,4.90088147 366.068848,5.53970972 366.068848,6.3046875 L366.068848,6.41699219 C366.068848,7.18196997 365.853192,7.81998442 365.421875,8.33105469 C364.990558,8.84212495 364.40544,9.09765625 363.666504,9.09765625 C362.924313,9.09765625 362.337567,8.84212495 361.90625,8.33105469 C361.474933,7.81998442 361.259277,7.18196997 361.259277,6.41699219 Z M362.162598,6.3046875 L362.162598,6.41699219 C362.162598,6.94108335 362.287108,7.39518037 362.536133,7.77929688 C362.785157,8.16341338 363.161944,8.35546875 363.666504,8.35546875 C364.161298,8.35546875 364.534016,8.16341338 364.784668,7.77929688 C365.03532,7.39518037 365.160645,6.94108335 365.160645,6.41699219 L365.160645,6.3046875 C365.160645,5.78710679 365.03532,5.33382356 364.784668,4.94482422 C364.534016,4.55582488 364.158043,4.36132812 363.656738,4.36132812 C363.158689,4.36132812 362.785157,4.55582488 362.536133,4.94482422 C362.287108,5.33382356 362.162598,5.78710679 362.162598,6.3046875 Z"/>
    <polygon fill="#00AEEF" fill-rule="nonzero" points="143 173 144 173 144 178 44 178 44 173 45 173 45 177 143 177"/>
    <polygon fill="#00AEEF" fill-rule="nonzero" points="666 173 667 173 667 178 166 178 166 173 167 173 167 177 666 177"/>
    <path fill="#00AEEF" d="M401.875977 183.890625L400.157227 191 399.302734 191 397.837891 185.819336 397.725586 185.277344 397.613281 185.819336 396.094727 191 395.240234 191 393.516602 183.890625 394.454102 183.890625 395.577148 188.753906 395.71875 189.696289 395.914063 188.851562 397.325195 183.890625 398.111328 183.890625 399.483398 188.851562 399.683594 189.71582 399.834961 188.749023 400.933594 183.890625 401.875977 183.890625zM402.540039 188.416992L402.540039 188.304688C402.540039 187.53971 402.754881 186.900881 403.18457 186.388184 403.61426 185.875486 404.198564 185.619141 404.9375 185.619141 405.682946 185.619141 406.271319 185.875486 406.702637 186.388184 407.133954 186.900881 407.349609 187.53971 407.349609 188.304688L407.349609 188.416992C407.349609 189.18197 407.133954 189.819984 406.702637 190.331055 406.271319 190.842125 405.686202 191.097656 404.947266 191.097656 404.205074 191.097656 403.618329 190.842125 403.187012 190.331055 402.755694 189.819984 402.540039 189.18197 402.540039 188.416992zM403.443359 188.304688L403.443359 188.416992C403.443359 188.941083 403.56787 189.39518 403.816895 189.779297 404.065919 190.163413 404.442706 190.355469 404.947266 190.355469 405.44206 190.355469 405.814777 190.163413 406.06543 189.779297 406.316082 189.39518 406.441406 188.941083 406.441406 188.416992L406.441406 188.304688C406.441406 187.787107 406.316082 187.333824 406.06543 186.944824 405.814777 186.555825 405.438805 186.361328 404.9375 186.361328 404.439451 186.361328 404.065919 186.555825 403.816895 186.944824 403.56787 187.333824 403.443359 187.787107 403.443359 188.304688zM410.591797 186.488281C410.282551 186.488281 410.028647 186.557454 409.830078 186.695801 409.631509 186.834148 409.483399 187.018879 409.385742 187.25L409.385742 191 408.482422 191 408.482422 185.716797 409.361328 185.716797 409.380859 186.322266C409.514324 186.107421 409.684407 185.936524 409.891113 185.80957 410.09782 185.682617 410.346027 185.619141 410.635742 185.619141 410.805014 185.619141 410.938476 185.641927 411.036133 185.6875L411.03125 186.527344C410.897786 186.501302 410.751303 186.488281 410.591797 186.488281zM415.279297 191L415.235352 190.433594C414.874022 190.876304 414.371097 191.097656 413.726563 191.097656 413.104815 191.097656 412.602704 190.843753 412.220215 190.335938 411.837726 189.828122 411.646484 189.18848 411.646484 188.416992L411.646484 188.314453C411.646484 187.507157 411.837726 186.856122 412.220215 186.361328 412.602704 185.866534 413.10807 185.619141 413.736328 185.619141 414.358076 185.619141 414.846352 185.827472 415.201172 186.244141L415.201172 183.5 416.109375 183.5 416.109375 191 415.279297 191zM412.554688 188.416992C412.554688 188.941083 412.665363 189.391111 412.886719 189.76709 413.108074 190.143068 413.462888 190.331055 413.951172 190.331055 414.266929 190.331055 414.524088 190.259441 414.722656 190.116211 414.921225 189.972981 415.080729 189.789064 415.201172 189.564453L415.201172 187.132812C415.083984 186.914712 414.925294 186.734864 414.725098 186.593262 414.524901 186.451659 414.270184 186.380859 413.960938 186.380859 413.469399 186.380859 413.112143 186.572101 412.88916 186.95459 412.666177 187.337079 412.554688 187.790362 412.554688 188.314453L412.554688 188.416992zM419.625 186.380859C419.302733 186.380859 419.043946 186.449218 418.848633 186.585938 418.653319 186.722657 418.506836 186.903319 418.40918 187.12793L418.40918 191 417.500977 191 417.500977 185.716797 418.360352 185.716797 418.384766 186.292969C418.765627 185.843748 419.286455 185.619141 419.947266 185.619141 420.285809 185.619141 420.587727 185.686686 420.853027 185.821777 421.118328 185.956869 421.320963 186.172525 421.460938 186.46875 421.63672 186.214842 421.865396 186.009766 422.146973 185.853516 422.42855 185.697265 422.759764 185.619141 423.140625 185.619141 423.707034 185.619141 424.144041 185.770506 424.45166 186.073242 424.759279 186.375978 424.913086 186.860999 424.913086 187.52832L424.913086 191 424.004883 191 424.004883 187.518555C424.004883 187.075844 423.903159 186.775554 423.699707 186.617676 423.496255 186.459797 423.222007 186.380859 422.876953 186.380859 422.512368 186.380859 422.225913 186.489094 422.017578 186.705566 421.809244 186.922039 421.688802 187.184894 421.65625 187.494141L421.65625 191 420.75293 191 420.75293 187.523438C420.75293 187.110024 420.650392 186.816244 420.445313 186.64209 420.240233 186.467935 419.966799 186.380859 419.625 186.380859zM429.541992 191C429.483398 190.873046 429.441081 190.687501 429.415039 190.443359 429.245767 190.622397 429.034181 190.776204 428.780273 190.904785 428.526366 191.033367 428.236655 191.097656 427.911133 191.097656 427.370766 191.097656 426.937827 190.946291 426.612305 190.643555 426.286782 190.340819 426.124023 189.969729 426.124023 189.530273 426.124023 188.963864 426.338865 188.533367 426.768555 188.23877 427.198244 187.944172 427.776038 187.796875 428.501953 187.796875L429.395508 187.796875 429.395508 187.376953C429.395508 187.064452 429.301922 186.814617 429.114746 186.627441 428.927571 186.440266 428.650067 186.34668 428.282227 186.34668 427.940428 186.34668 427.664552 186.4305 427.45459 186.598145 427.244628 186.765789 427.139648 186.960285 427.139648 187.181641L426.236328 187.181641C426.236328 186.804035 426.426756 186.44922 426.807617 186.117188 427.188478 185.785155 427.697913 185.619141 428.335938 185.619141 428.908857 185.619141 429.37923 185.765624 429.74707 186.058594 430.114911 186.351564 430.298828 186.794268 430.298828 187.386719L430.298828 189.847656C430.298828 190.023438 430.31429 190.210611 430.345215 190.40918 430.376139 190.607748 430.422526 190.778645 430.484375 190.921875L430.484375 191 429.541992 191zM428.042969 190.306641C428.368491 190.306641 428.650878 190.225261 428.890137 190.0625 429.129396 189.899739 429.297851 189.719077 429.395508 189.520508L429.395508 188.431641 428.648438 188.431641C427.570958 188.431641 427.032227 188.757158 427.032227 189.408203 427.032227 189.658855 427.116861 189.871256 427.286133 190.04541 427.455404 190.219565 427.707681 190.306641 428.042969 190.306641zM433.829102 186.488281C433.519855 186.488281 433.265952 186.557454 433.067383 186.695801 432.868814 186.834148 432.720704 187.018879 432.623047 187.25L432.623047 191 431.719727 191 431.719727 185.716797 432.598633 185.716797 432.618164 186.322266C432.751628 186.107421 432.921711 185.936524 433.128418 185.80957 433.335125 185.682617 433.583332 185.619141 433.873047 185.619141 434.042319 185.619141 434.175781 185.641927 434.273438 185.6875L434.268555 186.527344C434.13509 186.501302 433.988608 186.488281 433.829102 186.488281zM438.418945 191L436.587891 188.548828 436.016602 189.139648 436.016602 191 435.108398 191 435.108398 183.5 436.016602 183.5 436.016602 188.03125 436.5 187.455078 438.140625 185.716797 439.244141 185.716797 437.183594 187.918945 439.483398 191 438.418945 191zM87.5644531 187.459961L87.5644531 190.0625C87.4309889 190.257813 87.1770852 190.479165 86.8027344 190.726562 86.4283835 190.97396 85.8440795 191.097656 85.0498047 191.097656 84.1839149 191.097656 83.472659 190.800621 82.9160156 190.206543 82.3593722 189.612464 82.0810547 188.783208 82.0810547 187.71875L82.0810547 187.166992C82.0810547 186.109044 82.328448 185.28223 82.8232422 184.686523 83.3180363 184.090817 84.0244095 183.792969 84.9423828 183.792969 85.756189 183.792969 86.3738586 183.998045 86.7954102 184.408203 87.2169617 184.818361 87.4733068 185.33919 87.5644531 185.970703L86.6220703 185.970703C86.5569658 185.586587 86.3966484 185.256186 86.1411133 184.979492 85.8855781 184.702798 85.4860053 184.564453 84.9423828 184.564453 84.2848274 184.564453 83.8014338 184.797198 83.4921875 185.262695 83.1829412 185.728192 83.0283203 186.359697 83.0283203 187.157227L83.0283203 187.71875C83.0283203 188.539067 83.2138653 189.179522 83.5849609 189.640137 83.9560565 190.100751 84.4459605 190.331055 85.0546875 190.331055 85.5592473 190.331055 85.923827 190.271648 86.1484375 190.152832 86.373048 190.034016 86.5325516 189.920899 86.6269531 189.813477L86.6269531 188.22168 84.9814453 188.22168 84.9814453 187.459961 87.5644531 187.459961zM89.9667969 183.5L89.9667969 191 89.0585938 191 89.0585938 183.5 89.9667969 183.5zM93.21875 191.81543C93.1536455 191.987957 93.0592454 192.177571 92.9355469 192.384277 92.8118483 192.590984 92.6466482 192.767577 92.4399414 192.914062 92.2332346 193.060548 91.9703792 193.133789 91.6513672 193.133789 91.576497 193.133789 91.4845383 193.124837 91.3754883 193.106934 91.2664383 193.08903 91.1891278 193.07194 91.1435547 193.055664L91.1386719 192.323242C91.2102868 192.336263 91.2916662 192.342773 91.3828125 192.342773 91.6888036 192.342773 91.928059 192.280111 92.1005859 192.154785 92.2731128 192.029459 92.414713 191.804038 92.5253906 191.478516L92.7207031 190.941406 90.8359375 185.716797 91.8222656 185.716797 93.1455078 189.671875 94.3710938 185.716797 95.3378906 185.716797 93.21875 191.81543zM98.5605469 191.097656C97.9257781 191.097656 97.4228534 190.894208 97.0517578 190.487305L97.0517578 193.03125 96.1435547 193.03125 96.1435547 185.716797 96.9736328 185.716797 97.0175781 186.297852C97.3886737 185.845375 97.8981087 185.619141 98.5458984 185.619141 99.2132195 185.619141 99.7242821 185.866534 100.079102 186.361328 100.433921 186.856122 100.611328 187.507157 100.611328 188.314453L100.611328 188.416992C100.611328 189.18848 100.433107 189.828122 100.07666 190.335938 99.7202131 190.843753 99.214847 191.097656 98.5605469 191.097656zM98.2822266 186.380859C97.9762354 186.380859 97.7239593 186.450032 97.5253906 186.588379 97.3268219 186.726726 97.1689459 186.900064 97.0517578 187.108398L97.0517578 189.637695C97.1722011 189.84603 97.3308909 190.01774 97.527832 190.152832 97.7247731 190.287924 97.9794906 190.355469 98.2919922 190.355469 98.7802759 190.355469 99.1375314 190.163413 99.3637695 189.779297 99.5900076 189.39518 99.703125 188.941083 99.703125 188.416992L99.703125 188.314453C99.703125 187.790362 99.5900076 187.337079 99.3637695 186.95459 99.1375314 186.572101 98.7770207 186.380859 98.2822266 186.380859zM103.956055 186.380859C103.66634 186.380859 103.410808 186.458984 103.189453 186.615234 102.968098 186.771485 102.793946 186.974934 102.666992 187.225586L102.666992 191 101.763672 191 101.763672 183.5 102.666992 183.5 102.666992 186.34668C103.067385 185.861651 103.586585 185.619141 104.224609 185.619141 104.745445 185.619141 105.158039 185.765624 105.462402 186.058594 105.766766 186.351564 105.918945 186.844723 105.918945 187.538086L105.918945 191 105.010742 191 105.010742 187.52832C105.010742 187.114907 104.920411 186.820313 104.739746 186.644531 104.559081 186.468749 104.297853 186.380859 103.956055 186.380859z"/>
  </g>
</svg>
