<svg fill="none" height="24" viewBox="0 0 24 24" width="24"><path d="m2.23438 1.02832.32421.07813 2.70996 2.70996-.05078-.0127 4.49121 4.49121c.39142-.18713.82822-.29492 1.29102-.29492 1.6569 0 3 1.34315 3 3 0 1.6569-1.3431 3-3 3-1.65685 0-3-1.3431-3-3 0-.4628.10779-.8996.29492-1.29102l-4.49121-4.49121 2.51758 10.42673 6.34961 1.2696 4.2432-4.2432-1.2696-6.34961-6.64841-1.60547-2.70898-2.70996 10.44729 2.52246.6211.14941.125.62598 1.1328 5.66799.3867-.3858 4.4141 4.4141-5.584 5.583-1.4141-1.4141 4.1699-4.1689-1.5859-1.5859-5.5859 5.5859 1.5859 1.5859.002-.0029 1.414 1.4141-1.416 1.417-4.4141-4.4141.3858-.3867-5.66799-1.1328-.62598-.125-.14941-.6211-3.5-14.50002-.384765-1.590825zm8.76562 8.97168c-.5523 0-1 .4477-1 1s.4477 1 1 1 1-.4477 1-1-.4477-1-1-1z" fill="currentColor"/></svg>
