<svg fill="none" height="239" viewBox="0 0 239 239" width="239" xmlns="http://www.w3.org/2000/svg"><path d="m227.885 238.51h-217.2642v-238.50804688h217.2642z" fill="#fff"/><path d="m47.6821.251953h143.142v237.797h-143.142z" stroke="#ff5e00" stroke-dasharray="1.1 1.1" stroke-width=".5"/><rect height="237.51" rx="27.5" stroke="#ff5e00" width="237.506" x=".5" y=".5"/><path d="m10.8706 172.396h216.765v26.7266h-216.765z" stroke="#ff5e00" stroke-dasharray="1.1 1.1" stroke-width=".5"/><path d="m10.8706 31.7402h216.765v167.383h-216.765z" stroke="#ff5e00" stroke-dasharray="1.1 1.1" stroke-width=".5"/><g fill="#ff5e00"><path d="m10.6206 199.373h36.8115v38.9258h-36.8115z" fill-opacity=".14"/><path d="m10.6211 0h36.8115v31.4902h-36.8115z" fill-opacity=".14"/><path d="m10.6211 172.146h36.8115v27.2266h-36.8115z" fill-opacity=".14"/><path d="m10.6211 199.373h36.8115v27.2266h-36.8115z" fill-opacity=".14"/><path d="m10.6211 226.6h36.8115v11.6992h-36.8115z" fill-opacity=".14"/><path d="m191.074 0h36.8118v31.4902h-36.8118z" fill-opacity=".14"/><path d="m191.074 199.373h36.874v38.9258h-36.874z" fill-opacity=".14"/><path d="m27.6997 183.612h.5802l.9509 1.489.9438-1.489h.5803l-1.2375 1.944 1.2584 1.971h-.5802l-.9648-1.517-.9718 1.517h-.5803l1.2584-1.971z"/><path d="m22.5085 220.628h1.1745v-3.971h-1.1745v-.461h1.6989v4.432h1.1745v.462h-2.8734zm3.1892-.188h.6222v.65h-.6222zm3.0844-4.244h.7201v3.202h.8809v.461h-.8809v1.231h-.5103v-1.231h-2.3561v-.377zm-1.5241 3.202h1.7339v-2.713zm4.9494-1.035h.4894c.8809 0 1.2654-.258 1.2654-.839 0-.496-.4544-.937-1.2584-.937-.762 0-1.3353.448-1.3773 1.161h-.5383c0-.986.9019-1.664 1.9016-1.664 1.2025 0 1.8178.657 1.8178 1.44 0 .427-.2587.846-.804 1.063.5523.182.8389.594.8389 1.119 0 .839-.6921 1.496-1.8457 1.496-1.0836 0-1.9086-.678-1.9086-1.664h.5383c.042.671.6083 1.16 1.3703 1.16.825 0 1.3004-.461 1.3004-1.006 0-.567-.4964-.839-1.2794-.839h-.5104zm2.6945-1.188h.5802l.9509 1.489.9438-1.489h.5803l-1.2375 1.943 1.2584 1.972h-.5802l-.9648-1.517-.9718 1.517h-.5803l1.2584-1.972z"/><path d="m21.6999 16.2847h1.1745v-3.9711h-1.1745v-.4614h1.6989v4.4325h1.1745v.4614h-2.8734zm3.1892-.1888h.6222v.6502h-.6222zm.9381.1888h1.1745v-3.9711h-1.1745v-.4614h1.6989v4.4325h1.1745v.4614h-2.8734zm6.2864-3.0482c-.0629-.3286-.3216-.9928-1.1746-.9928-.797 0-1.3213.5733-1.3982 1.9156.2866-.3705.804-.6991 1.4472-.6991 1.1466 0 1.8387.7411 1.8387 1.6989s-.6921 1.6989-1.8807 1.6989c-1.0487 0-1.9435-.5803-1.9435-2.426 0-1.7199.6921-2.6917 1.9715-2.6917.9858 0 1.5661.6013 1.7338 1.4962zm-2.4679 1.8876c0 .6991.4474 1.2305 1.3073 1.2305.8739 0 1.3284-.5314 1.3284-1.2165 0-.6852-.4545-1.1885-1.3214-1.1885s-1.3143.5033-1.3143 1.1745zm3.5395-2.2931h.5803l.9508 1.4891.9438-1.4891h.5803l-1.2374 1.9435 1.2584 1.9716h-.5803l-.9648-1.5171-.9718 1.5171h-.5803l1.2585-1.9716z"/></g><path d="m171.516 122.754.246.128-.064.064-.182-.179c-5.53 7.073-10.167 14.861-13.742 23.187-.052.128-.104.243-.156.371-3.445 8.121-5.893 16.753-7.175 25.77-.013.051-.013.115-.013.166-.687 4.783-1.036 9.669-1.036 14.631 0 4.22.259 8.389.751 12.482h-102.7123v-27.279h89.1903c.168-1.126.362-2.225.569-3.338l-85.9254-22.739 7.1497-26.359 86.9877 23.021c.402-.883.816-1.752 1.231-2.622l-78.0641-44.5061 13.8072-23.6215 79.2299 45.1586c.621-.742 1.256-1.484 1.917-2.213l-64.9176-64.086 19.5456-19.2988 65.953 65.135 6.968 6.8808c-7.331 5.55-13.911 12.022-19.558 19.247z" fill="#1d1a1b"/></svg>