<svg fill="none" height="500" viewBox="0 0 966 500" width="966" xmlns="http://www.w3.org/2000/svg" xmlns:xlink="http://www.w3.org/1999/xlink"><clipPath id="a"><path d="m0 0h966v500h-966z"/></clipPath><clipPath id="b"><path d="m53.998 185.414h120.625v124.945h-120.625z"/></clipPath><clipPath id="c"><path d="m625.093 202.095h160.712v91.8416h-160.712z"/></clipPath><clipPath id="d"><path d="m262.696 166.479h97.7243v162.331h-97.7243z"/></clipPath><clipPath id="e"><path d="m436.434 184.287h144.118v127.314h-144.118z"/></clipPath><clipPath id="f"><path d="m868.615 164.074h43.3867v167.95h-43.3867z"/></clipPath><g clip-path="url(#a)"><path d="m0 0h966v500h-966z" fill="#1d1a1b" transform="translate(0 -.161133)"/><g clip-path="url(#b)"><path d="m126.269 309.843c-.327.239-.747.202-1.119.258.335-.164.755-.181 1.119-.258z" fill="#fc0"/><path d="m128.85 309.328c-.077.143-.238.065-.344.086z" fill="#fc0"/><path d="m163.352 279.402c-.056.181-.153.002-.173 0z" fill="#fc0"/><path d="m67.9361 247.069c8.608 4.087 17.2363 8.166 25.8973 12.125 7.7676.499 15.5876.312 23.3626.685.343.017.825.088 1.157.174l-25.8117 10.796-.3426.04-38.2007-17.972z" fill="#ff5e00"/><path d="m100.2 240.706 19.961 12.382-24.6067-.687c-12.4727-5.929-24.9204-11.93-37.4569-17.727-.1645-.076-.5887-.192-.5716-.418l24.1765.687-19.4445-12.038c12.7763 5.623 25.1563 12.206 37.9422 17.801z" fill="#ff5e00"/><path d="m123.689 211.641 4.473 29.667-13.077-22.186c-9.252-4.432-18.502-8.976-27.7899-13.329l-1.8068-12.211z" fill="#ff5e00"/><path d="m92.1984 277.425 26.0696-10.834-24.4349 21.239-38.2867-18.058 7.0551-6.192c9.8432 4.634 19.7569 9.182 29.5969 13.845z" fill="#ff5e00"/><path d="m99.8558 186.444 38.1142 18.059-4.475 33.536c-1.721-9.835-3.003-19.798-4.645-29.667-9.959-4.894-20.05-9.577-30.1127-14.274l.9419-7.602z" fill="#ff5e00"/><path d="m100.199 300.901-38.2005-17.887c-.1633-.119-.049-.245.0126-.373.5929-1.233 2.0523-2.674 2.7406-3.926l30.8014 14.446 24.5189-21.112z" fill="#ff5e00"/><path d="m82.9923 224.54c6.8646 3.228 13.726 6.597 20.5627 9.889l-3.355 6.277c-12.7865-5.595-25.1665-12.177-37.9428-17.8-.0993-.044-.2362-.057-.3437-.087l.0171-.195 3.4629-6.254 17.3738 8.195c.158.075.2147-.03.225-.025z" fill="#fc0"/><path d="m57.5259 234.256c-.0171.226.4072.342.5716.418 12.5365 5.797 24.9843 11.798 37.457 17.727l-1.7207 6.793c-8.661-3.959-17.2894-8.038-25.8973-12.125-4.0972-1.945-8.1664-3.956-12.3141-5.797z" fill="#fc0"/><path d="m92.1987 270.889v6.535c-9.8399-4.662-19.7537-9.211-29.5969-13.844-2.8632-1.348-5.7048-2.762-8.5611-4.128l-.0427-6.535z" fill="#fc0"/><path d="m98.7381 194.097c10.0629 4.697 20.1539 9.38 30.1129 14.275l-5.162 3.268-38.2007-18.059c1.6805-1.155 3.3905-2.318 5.1961-3.264 2.7277 1.168 5.3681 2.527 8.0537 3.78z" fill="#fc0"/><path d="m93.8331 287.83 1.7207 5.332-30.8014-14.447-7.3595-3.522-1.8465-5.421z" fill="#fc0"/><path d="m112.246 188.766c10.357 4.823 20.651 9.805 30.973 14.705l-5.248 1.032-38.1148-18.059 5.1098-1.029c2.429 1.111 4.859 2.224 7.28 3.351z" fill="#fc0"/><path d="m100.199 300.901 3.27 3.612c-10.1336-4.789-20.2698-9.577-30.3991-14.376-.1986-.094-.458-.102-.5745-.157-2.413-1.143-4.8014-2.356-7.2214-3.488l-3.2752-3.477z" fill="#fc0"/><path d="m156.296 205.019-4.56-1.29-37.856-17.972c1.399.178 3.039.973 4.446 1.274z" fill="#fc0"/><path d="m143.218 203.471-4.517 33.538 13.034-33.28 4.56 1.29-.258.774-12.561 32.16 19.874-28.635c1.164.941 2.213 2.478 3.346 3.495-.942 1.414-1.872 2.842-2.829 4.245-5.665 8.3-11.558 16.451-17.08 24.849l24.479-21.238c.183.27 1.664 4.612 1.701 4.967.062.598-.108.469-.411.795l-.172.172c-.346.334-.758.623-1.118.946l-.172.172c-.363.323-.754.623-1.119.946l-.172.172c-.165.146-.35.284-.516.43l-.172.172c-.135.118-.295.225-.43.343l-.172.172c-.167.146-.35.285-.517.43l-.172.172c-.367.321-.752.627-1.118.946l-.172.172c-.198.173-.355.376-.516.516-5.794 5.051-11.769 9.946-17.424 15.133l26.027-10.919-.011 6.524c-4.65 1.825-9.235 3.834-13.841 5.773-4.072 1.714-8.174 3.379-12.217 5.158l24.521.689-1.865 6.885-24.548-.692 19.944 12.226-3.253 6.433h-.173c-.056-.005-.115.004-.172 0 .011-.209-.129-.218-.255-.303-6.128-4.106-12.864-7.607-19.045-11.665l-.4-.115 2.321 3.828 10.65 18.373-4.456 5.189-13.121-22.272c.813 5.853 1.738 11.698 2.625 17.542.615 4.053 1.275 8.103 1.872 12.16l-5.142 3.319-4.56-29.667c-1.4 8.612-2.343 17.318-3.527 25.969-.345 2.52-.778 5.046-1.119 7.568l-.344.086c-.747.146-1.491.273-2.237.43-.363.076-.783.093-1.118.258-.397.059-1.151.256-1.463.258l4.473-33.365c-4.088 9.936-7.801 20.032-11.786 30.011-.413 1.034-.866 2.059-1.258 3.101-1.564-.205-3.049-.866-4.593-1.209l12.991-33.279-20.046 28.893-3.269-3.611 19.873-28.852-24.519 21.112-1.7208-5.331 24.4348-21.24-26.0695 10.834v-6.535l.3426-.041 25.8119-10.795c-.332-.086-.814-.158-1.157-.174-7.775-.373-15.596-.186-23.3628-.685l1.7208-6.793 24.607.687-19.961-12.382 3.355-6.278 20.045 12.169-12.989-22.402 4.473-5.074 13.077 22.186-4.473-29.667 5.162-3.268c1.642 9.869 2.924 19.831 4.646 29.667l4.474-33.536zm.215 34.569v.086l.043-.043zm-.086.172v.086l.043-.043z" fill="#9d9cff"/><g fill="#ff5e00"><path d="m113.88 185.756 37.856 17.973-13.034 33.28 4.517-33.538c-10.322-4.9-20.616-9.881-30.974-14.705l1.163-3.01c.137-.173.321-.019.472 0z"/><path d="m110.524 308.899-38.2802-18.066.2517-.853c.1166.056.3759.063.5746.157 10.1293 4.799 20.2654 9.588 30.3989 14.376l20.046-28.893z"/><path d="m163.351 209.319-19.874 28.635 12.561-32.161c2.082 1.074 4.435 1.914 6.483 3.022.335.181.52.253.83.504z"/><path d="m123.688 310.361c-.141.001-.275.003-.404-.067l-6.909-3.287c3.984-9.979 7.698-20.075 11.786-30.011z"/><path d="m163.866 217.059 7.338 3.44.061.171-24.478 21.238c5.521-8.398 11.415-16.549 17.079-24.849z"/><path d="m138.056 305.459-.254.051-7.833-3.749c1.184-8.651 2.127-17.357 3.526-25.969z"/><path d="m151.822 294.71-10.497-4.73c-.886-5.844-1.812-11.689-2.624-17.542z"/><path d="m173.073 254.551-24.52-.689c4.043-1.779 8.144-3.444 12.217-5.158z"/><path d="m163.006 279.403-17.379-8.255-2.321-3.828.4.115c6.181 4.058 12.917 7.559 19.044 11.665.126.084.267.094.256.303z"/></g><path d="m166.534 231.677.172-.173c-.048.043-.1.11-.172.173z" fill="#fc0"/><path d="m167.825 230.56.173-.172c-.049.042-.101.109-.173.172z" fill="#fc0"/><path d="m168.513 229.958.173-.173c-.049.043-.101.11-.173.173z" fill="#fc0"/><path d="m169.116 229.442.172-.172c-.049.043-.101.109-.172.172z" fill="#fc0"/><path d="m169.803 228.84.173-.173c-.05.044-.102.11-.173.173z" fill="#fc0"/><path d="m171.094 227.721.173-.173c-.051.046-.103.111-.173.173z" fill="#fc0"/><path d="m172.385 226.604.173-.172c-.061.065-.11.112-.173.172z" fill="#fc0"/><path d="m143.348 238.212.043.043-.043.044z" fill="#ff5e00"/><path d="m166.019 232.193 8.549 4.035.054.179-26.027 10.918c5.655-5.186 11.63-10.082 17.424-15.132z" fill="#ff5e00"/><path d="m143.433 238.041.043.043-.043.043z" fill="#ff5e00"/><path d="m87.2936 205.793c9.288 4.352 18.5374 8.897 27.7904 13.328l-4.474 5.074-38.2869-17.972 4.5174-5.17c3.1473 1.324 6.1871 2.879 9.2768 4.324.3531.166.901.287 1.1763.416z" fill="#fc0"/><path d="m110.61 224.195 12.989 22.402-20.044-12.169c-6.8372-3.292-13.6986-6.661-20.5632-9.889l-10.6687-18.317z" fill="#ff5e00"/></g><g clip-path="url(#c)"><path d="m641.261 242.137c-.02.633-.078 4.905.109 5.107l61.468 29.035.808.236 65.872-27.542c.229-.083.219-.204.255-.404.198-1.137.015-3.816-.007-5.114l16.036 7.578-82.595 34.598c-25.814-11.944-51.308-24.62-77.176-36.447-.192-.088-.631-.176-.586-.457z" fill="#ff5e00"/><path d="m785.801 251.033-.069 8.249-82.416 34.586-.109-8.238z" fill="#9d9cff"/><path d="m625.445 248.727c-.045.28.394.369.586.457 25.869 11.827 51.362 24.502 77.177 36.447l.109 8.237-.213.068-77.823-36.862c-.073-.117-.044-.252-.062-.378-.169-1.194-.173-6.407.001-7.591.026-.176.014-.32.225-.378z" fill="#fc0"/><path d="m657.191 232.253.288 5.065 46.611 21.954 49.355-20.663c.236-.111.254-.244.295-.474.2-1.139.014-3.811-.006-5.113l15.926 7.579-66.01 27.678-62.166-29.436z" fill="#ff5e00"/><path d="m769.769 243.457c.022 1.298.205 3.977.007 5.114-.035.201-.026.321-.255.404l-65.872 27.542v-8.238l66.01-27.678c.224.343.101 2.293.11 2.856z" fill="#9d9cff"/><path d="m703.65 268.278v8.238l-.808-.236-61.468-29.035c-.187-.201-.129-4.474-.109-5.107.014-.447.12-3.161.219-3.295z" fill="#fc0"/><path d="m673.446 222.259c-.009.655-.087 4.895.11 5.107l31.083 14.553 32.884-13.716c.1-1.863.094-3.748.066-5.615l16.145 7.689-49.207 20.596-.437.052c-15.531-7.332-31.146-14.551-46.57-22.076z" fill="#ff5e00"/><path d="m753.736 230.276c.01.914-.014 1.833 0 2.746.019 1.302.205 3.974.005 5.113-.041.23-.059.363-.295.474l-49.355 20.663v-8.347l.437-.052z" fill="#9d9cff"/><path d="m704.09 250.924v8.347l-46.611-21.954-.288-5.065.227-.273.102-3.131c15.424 7.525 31.039 14.744 46.57 22.076z" fill="#fc0"/><path d="m689.478 212.264c-.008.681-.092 4.858.109 5.109l14.975 7.102.513.091c5.502-2.052 10.898-4.55 16.368-6.752.195-.23.116-4.846.107-5.55l16.036 7.579-32.95 13.839-31.083-14.718z" fill="#ff5e00"/><path d="m737.587 222.589c.028 1.866.033 3.751-.066 5.614l-32.885 13.716v-8.237l32.951-13.839c.01.913-.014 1.832 0 2.746z" fill="#9d9cff"/><path d="m704.635 233.682v8.238l-31.083-14.553c-.197-.212-.119-4.453-.11-5.108.009-.588-.112-2.971.11-3.295z" fill="#fc0"/><path d="m721.55 209.519-16.475 6.809-15.486-7.358 16.42-6.873c5.186 2.448 10.464 4.777 15.541 7.422z" fill="#ff5e00"/><path d="m721.548 209.519c.008.914-.012 1.832 0 2.746.009.704.088 5.32-.107 5.55-5.47 2.202-10.867 4.699-16.368 6.751v-8.237z" fill="#9d9cff"/><path d="m705.073 216.328v8.237l-.513-.09-14.975-7.103c-.201-.251-.116-4.427-.108-5.108.006-.552-.105-3.025.109-3.295z" fill="#fc0"/></g><g clip-path="url(#d)"><g fill="#fc0"><path d="m341.901 266.754c-.247 2.557.184 5.493.001 8.09-.958-.009-1.919-.062-2.875-.107-21.873-1.032-43.786-2.379-65.628-3.505-.052-1.904-.091-3.844-.046-5.755.017-.743-.013-1.492 0-2.235z"/><path d="m334.769 281.124v8.09l-1.171-.107-64.824-8.621c.094-.744-.077-1.515-.106-2.236-.055-1.381-.194-4.641.107-5.854z"/><path d="m326.998 294.962v7.983l-.228.087-61.396-13.717-.112-.633.106-7.451z"/><path d="m318.696 308.16v7.983l-.207.066-54.418-18.086c-.203-.056-.527-.127-.724-.075l.106-8.196z"/></g><path d="m360.421 299.751-.014 8.077-50.12 20.982-.107-8.09z" fill="#9d9cff"/><path d="m310.181 320.721.106 8.089-47.367-22.298-.111-7.778c-.056-.25.159-.286.218-.366z" fill="#fc0"/><path d="m352.758 296.026 7.664 3.726-50.241 20.969-47.153-22.353c.027-.037.297-.313.319-.319.197-.053.521.018.724.074l54.418 18.087.208-.066c11.318-6.75 22.764-13.384 34.061-20.118z" fill="#ff5e00"/><path d="m352.118 280.911 7.771 2.767-41.193 24.482-55.243-18.308 1.809-1.171.113.633 61.396 13.717.227-.087c8.336-7.383 16.777-14.67 25.12-22.033z" fill="#ff5e00"/><path d="m359.889 283.679-.053 7.984c-2.378 1.416-4.704 2.948-7.079 4.363-11.297 6.734-22.742 13.368-34.061 20.118v-7.983z" fill="#9d9cff"/><path d="m279.207 261.113c.014.211-.012.428-.001.639 21.46-.684 42.938-1.037 64.398-1.704-.311 2.136-1.5 4.609-1.703 6.706l-68.548-3.512 4.044-15.221c.582 4.363 1.166 8.737 1.81 13.092z" fill="#ff5e00"/><path d="m339.027 274.738-4.257 6.386-65.994-8.728c.03-.121.001-.265.098-.376l4.479-6.542c-.045 1.911-.006 3.85.047 5.754 21.842 1.126 43.754 2.474 65.627 3.506z" fill="#ff5e00"/><path d="m268.669 278.25c.029.721.2 1.492.106 2.236l64.823 8.621-6.599 5.854-61.63-13.731.032-.179z" fill="#ff5e00"/><path d="m279.206 253.663 68.867-1.81v8.09c-.786-.082-1.568.077-2.342.106-.706.027-1.422-.022-2.128 0-21.461.667-42.939 1.02-64.398 1.704-.011-.212.015-.428.001-.64-.166-2.417.123-5.014 0-7.45z" fill="#fc0"/><path d="m350.629 265.903c-.01.015-.203.019-.305.17-4.499 6.655-9.003 13.313-13.374 20.052l20.917-18.519c.231 2.629.068 5.352.083 8.014-1.935 1.769-3.867 3.558-5.831 5.292-8.344 7.363-16.785 14.65-25.12 22.033v-7.983l6.599-5.855 1.171.107v-8.09l4.257-6.386c.957.045 1.917.098 2.875.107.183-2.597-.248-5.534-.001-8.09.203-2.097 1.392-4.57 1.703-6.706.707-.022 1.423.027 2.129 0l-1.863 7.557 10.698-15.753-.027 8.116c-1.391 1.917-2.586 3.977-3.911 5.934z" fill="#9d9cff"/><path d="m350.629 265.903 7.238 1.703-20.917 18.518c4.371-6.738 8.876-13.396 13.374-20.052.102-.151.295-.155.305-.169z" fill="#ff5e00"/><path d="m360.312 188.838-50.134 20.969c-15.724-7.427-31.533-14.737-47.153-22.353l50.078-20.976c15.754 7.407 31.566 14.757 47.209 22.36z" fill="#ff5e00"/><path d="m360.311 188.838.088 8.072c-2.609 1.041-5.164 2.233-7.752 3.318-14.112 5.911-28.346 11.719-42.47 17.669v-8.09z" fill="#fc0"/><path d="m310.18 209.808v8.09l-45.769-21.5 37.36 25.332v8.089l-32.145-21.713 23.949 24.8v7.983l-19.584-20.117 12.027 22.778v7.983l-9.259-17.243 2.447 19.372c.123 2.436-.166 5.034 0 7.451-.644-4.355-1.229-8.729-1.81-13.092-.737-5.533-1.442-11.074-2.18-16.608l-5.009-9.36-.105-5.217-3.753-3.911-.044-6.981-2.428-1.748.005-8.046c-.409-.325-.965-.258-1.073-.866-.155-.868-.145-6.56-.001-7.463.027-.169.014-.307.218-.365 15.621 7.615 31.43 14.925 47.154 22.352z" fill="#6e1527"/><path d="m356.908 220.772.1 8.19-7.019 1.496-.326-.164-55.834 10.707-.254-.112v-7.983z" fill="#fc0"/><path d="m359.356 204.913c.236 2.648.057 5.393.091 8.074-2.579.765-5.172 1.497-7.755 2.25-16.641 4.857-33.296 9.677-49.921 14.583v-8.09z" fill="#fc0"/><path d="m310.18 217.898c14.124-5.95 28.358-11.758 42.47-17.669l6.706 4.683-57.585 16.818-37.36-25.332z" fill="#ff5e00"/><path d="m301.77 229.818c16.625-4.905 33.28-9.726 49.921-14.582l5.215 5.535-63.332 12.134-23.95-24.8z" fill="#ff5e00"/><path d="m353.076 236.525c.498 2.272-.139 5.615.091 8.021-.034.143-.132.147-.25.175-.715.17-2.312.238-3.141.319-.691.068-1.499.137-2.235.213-20.355 2.094-40.712 4.157-61.052 6.389l-.471-.109v-7.983z" fill="#fc0"/><path d="m286.018 251.533.471.109c20.34-2.232 40.698-4.295 61.052-6.389-.513 1.961.293 4.175.427 6.173.04-.121.299-.473.318-.532l6.28.958-10.698 15.753 1.864-7.557c.774-.029 1.555-.188 2.341-.106v-8.09l-68.867 1.81-2.447-19.372z" fill="#ff5e00"/><path d="m293.575 240.889.254.112 55.833-10.707.327.164c.616 1.838 2.692 4.271 3.086 6.067l-67.058 7.025-12.026-22.778z" fill="#ff5e00"/><path d="m349.777 245.04c-.671 1.827-.888 4.046-1.491 5.854-.019.059-.277.411-.317.531-.135-1.997-.941-4.211-.428-6.173.736-.075 1.545-.144 2.236-.212z" fill="#9d9cff"/></g><g clip-path="url(#e)"><path d="m524.196 234.677c8.583 9.939 17.056 20.004 25.719 29.886.113.13.084.205.042.351-.055.19-1.959 2.782-2.271 3.234-1.557 2.254-3.202 4.457-4.839 6.654l-6.908-7.863c-.185-.047-.372.913-.423 1.087-.3 1.036-.472 2.105-.735 3.146-.644 2.559-1.277 5.133-2.08 7.649l-23.325-.592v10.989l-53.433 22.382v-11.493l52.221-21.93.052-.15-25.658-.705 3.126-11.997 49.702 1.31.201-.149-25.707-29.692 7.359-10.082c2.297 2.672 4.654 5.298 6.957 7.964z" fill="#9d9cff"/><path d="m482.56 277.324 25.657.705-.052.15-52.221 21.929-19.458-9.174 39.319-16.635c2.224 1.02 4.528 1.973 6.755 3.025z" fill="#6e1527"/><path d="m455.944 300.108v11.493l-19.509-9.174.051-11.493z" fill="#ff5e00"/><path d="m515.022 257.36h1.012l19.353 9.276-49.703-1.311-19.357-9.174c.43-.187 1.273-.111 1.768-.105 15.637.187 31.283 1.207 46.927 1.314z" fill="#6e1527"/><path d="m466.327 256.15 19.357 9.175-3.125 11.997c-2.227-1.052-4.531-2.005-6.755-3.025-4.284-1.964-8.469-4.178-12.795-6.06l3.116-12.016c.035-.118.159-.052.203-.071z" fill="#ff5e00"/><path d="m542.847 274.802-8.065-3.63c.262-1.04.434-2.109.734-3.146.051-.174.239-1.134.423-1.087z" fill="#fc0"/><path d="m509.88 236.793 25.707 29.692-.201.15-19.082-9.096-1.283-.18 1.008-.049-25.607-29.591z" fill="#fc0"/><path d="m517.239 226.711-7.359 10.082-19.458-9.074 7.307-10.192z" fill="#ff5e00"/><path d="m534.476 216.226 18.248 54.139-5.041-2.218c.312-.452 2.216-3.044 2.271-3.233.043-.147.072-.222-.042-.352-8.663-9.882-17.135-19.947-25.719-29.886l-9.174-27.624z" fill="#fc0"/><path d="m537.602 205.943c1.852.909 3.689 1.914 5.545 2.823l-8.671 7.461-19.457-9.175 8.728-7.559c4.6 2.176 9.287 4.21 13.855 6.45z" fill="#ff5e00"/><path d="m565.228 198.685c.216.296.346 2.435.402 2.976 2.032 19.692 3.194 39.487 5.241 59.179l-.047.856c-.113.246-.856.44-1.093.6-.095.064-.058.2-.067.206-2.409 1.554-5.357 2.796-7.864 4.234l-.403-3.83c-.841.587-1.659 1.28-2.42 1.965-.2.18-.365.522-.403.555-1.9 1.692-3.889 3.314-5.847 4.94l-18.248-54.139 8.67-7.46 18.146 53.432-5.14-58.473z" fill="#9d9cff"/><path d="m556.154 203.727 5.141 58.473-18.146-53.433c-1.856-.909-3.693-1.914-5.545-2.822l-.908-11.393z" fill="#fc0"/><path d="m551.718 192.132c.323.154.77.499 1.174.691 4.11 1.957 8.274 3.807 12.336 5.862l-9.074 5.041-19.458-9.175 9.139-5.119c1.97.874 3.939 1.772 5.883 2.7z" fill="#ff5e00"/><path d="m571.378 263.109-.101-65.733 9.275-3.831v65.581c-.017.232-.215.25-.365.34-.929.556-7.904 3.495-8.809 3.643z" fill="#9d9cff"/><path d="m571.277 197.375.101 65.732c-.651.106-1.067-.475-1.714-.605.009-.006-.028-.142.067-.206.236-.16.98-.354 1.092-.6l.048-.856c-2.048-19.692-3.209-39.487-5.241-59.179-.056-.541-.186-2.68-.402-2.976-4.061-2.055-8.226-3.904-12.336-5.862-.404-.192-.85-.537-1.173-.691l.1-3.932z" fill="#fc0"/><path d="m580.553 193.544-9.275 3.831-19.457-9.174 9.3-3.915z" fill="#ff5e00"/><path d="m558.573 265.427c.037-.034.202-.375.403-.556.761-.684 1.579-1.378 2.419-1.964l.404 3.83-.196.062z" fill="#fc0"/></g><g clip-path="url(#f)"><g fill="#fc0"><path d="m898.537 220.595c-3.031 4.621-6.327 9.083-9.262 13.769l14.305-12.702.076 4.974c-.923.8-1.789 1.677-2.694 2.493-5.345 4.822-10.903 9.423-16.199 14.303-.165.104-.33.035-.501.025-1.441-.089-5.997-1.699-6.963-1.429-.078-.169-.262-.127-.299-.338-.236-1.33.193-3.39.008-4.802l7.515 1.647 3.346-2.907-7.572-1.014c-.156.019-.279-.381-.283-.442-.073-1.347.177-3.166.194-4.558l7.999 1.07c.248-.056 1.998-2.747 2.184-3.202l-6.789-.389c-.003-.839.006-1.682 0-2.521-.005-.807.004-1.618 0-2.425l8.53.383.78-3.389-5.566.196c-.116-.016-.045-.204-.058-.293-.203-1.378.151-3.225 0-4.655l8.534-.194v4.946h-1.552l-.872 4.026 7.079-10.427-.021 4.877c-.633.995-1.272 1.993-1.919 2.978z"/><path d="m911.92 269.667c.255 1.405-.19 3.555.001 5.043l-11.638 1.26c-9.688.505-19.544 2.287-29.238 3.015-.837.141-1.129-2.012-1.698-2.142.041-.605-.587-1.04-.681-1.695-.065-.456-.102-4.671.099-4.803l1.988 3.696z"/><path d="m868.959 276.844.387 3.686 42.38-.971c.086 1.639-.064 3.306.001 4.947l-12.414.387c-9.232-.177-18.715.519-27.973.684-.645.011-1.292-.024-1.936.002-.027-.01-.139-.331-.154-.395-.174-.723-.347-2.551-.392-3.342-.03-.543-.121-4.884.101-4.998z"/><path d="m868.764 287.123 42.089 2.133.096 4.752c-.027.049.007.19-.091.245l-.247.055-10.524-.493c-10.064-.991-20.418-.733-30.451-1.649-.271-.025-.565-.166-.873-.096.114-1.59-.151-3.383.001-4.947z"/><path d="m868.765 293.62 40.634 5.333.097 4.947-7.952-.873c-9.953-1.846-20.304-2.524-30.313-4.172-.196-.036-.352.026-.527.099.056-.312-.156-.164-.337-.191-.531-.081-1.066-.153-1.601-.198.192-1.433-.262-3.605-.001-4.945z"/><path d="m910.271 250.077.083 5.029-7.454 2.245c-9.237 2.102-18.479 5.725-27.699 8.044-.183.046-.327-.017-.494-.071-.321-.104-2.482-1.64-2.937-1.961-.249-.176-1.482-.977-1.532-1.134l.078-4.975 4.405 3.111.381.087z"/><path d="m869.539 300.02 37.811 8.545.011 4.935c-1.255-.12-2.539-.723-3.782-.679-10.081-2.915-21.044-4.698-31.324-7.079-.93-.216-1.853-.538-2.802-.689-.148-.204-.03-4.769.086-5.033z"/></g><path d="m901.541 303.027c3.249.602 6.455 1.453 9.684 2.147l-.038 4.93-3.828 3.396-.011-4.935-37.81-8.545c.048-.108 1.055-1.021 1.164-1.066.174-.073.33-.135.526-.099 10.009 1.648 20.36 2.326 30.313 4.172z" fill="#ff5e00"/><path d="m870.8 306.713 33.931 11.163.205 4.935-.097.194c-6.945-2.856-15.315-5.21-22.546-7.566-2.114-.689-5.828-2.247-7.807-2.572-.172-.029-.306-.057-.486-.044l-3.25-1.26c-.119-.212-.084-4.574.05-4.85z" fill="#fc0"/><path d="m903.578 312.822c2.128.615 4.231 1.34 6.308 2.102l-.052 4.978-4.898 2.909-.205-4.935-33.931-11.164 1.454-.969c10.281 2.381 21.244 4.164 31.324 7.079z" fill="#ff5e00"/><path d="m900.089 293.814c3.952.389 7.884 1.052 11.82 1.563l-.011 4.863-2.402 3.659-.096-4.946-40.635-5.333c.084-.428.78-.972.873-1.455 10.032.916 20.387.658 30.451 1.649z" fill="#ff5e00"/><path d="m901.738 332.023-29.076-13.69.08-4.93 28.9 13.625z" fill="#fc0"/><path d="m874.002 312.822c.18-.013.314.016.486.044 1.979.326 5.692 1.883 7.807 2.573 7.231 2.356 15.601 4.71 22.546 7.566.385.158 3.079 1.391 3.152 1.551l.029 4.782-.247.237-6.038 2.449-.096-4.996-28.9-13.624c.121-.2 1.022-.565 1.261-.582z" fill="#ff5e00"/><path d="m899.313 284.892c4.173.08 8.345.48 12.517.624.203.15.144 4.511.082 5.041-.055.469-.757 3.087-.961 3.451l-.097-4.752-42.089-2.133c.062-.637.341-1.316.485-1.94.016.064.127.386.154.395.645-.026 1.291.009 1.936-.002 9.259-.165 18.742-.86 27.973-.684z" fill="#ff5e00"/><path d="m900.282 275.971c3.623-.189 7.279-.019 10.9-.299.186.061.521 3.445.544 3.887l-42.38.97-.388-3.686c.121.017.28-.024.388 0 .569.131.861 2.283 1.698 2.142 9.695-.727 19.55-2.51 29.238-3.014z" fill="#ff5e00"/><path d="m911.921 269.666-41.168 4.375-1.988-3.696 1.552-.194c.219.243 1.949 1.976 2.08 2.041.129.065.231.133.385.096 9.519-1.519 19.134-4.154 28.665-5.434 2.803-.377 5.664-.47 8.468-.863.199.065 1.961 3.427 2.006 3.675z" fill="#ff5e00"/><path d="m908.528 240.379c.186.053.175.179.199.334.067.418.064 4.506-.052 4.71l-3.832 1.745-26.956 11.21c-1.482-.657-3.009-1.287-4.465-1.997-.483-.236-.955-.54-1.457-.746l.1-4.976c1.554.743 3.196 1.701 4.783 2.344.357.145.766.404 1.154.352 9.989-4.442 20.3-8.214 30.262-12.712.142-.065.316-.015.264-.264z" fill="#fc0"/><path d="m910.273 250.077-35.168 10.375-.382-.087-4.405-3.111 3.103-.873c1.456.71 2.983 1.34 4.465 1.997l26.956-11.21.74-.188c1.635.839 3.164 2.036 4.691 3.097z" fill="#ff5e00"/><path d="m906.295 230.972.097 4.973-3.104 2.01c-7.439 4.151-14.711 8.753-22.09 13.071-.913.191-4.68-1.833-5.936-1.725-.225-.391-.969-.205-1.068-.629l.098-4.802 6.496 2.191.391-.001z" fill="#fc0"/><path d="m903.289 237.955 5.237 2.424c.051.249-.122.199-.265.264-9.961 4.498-20.272 8.269-30.261 12.712-.389.051-.797-.207-1.154-.352-1.587-.643-3.229-1.601-4.784-2.344.098-.144 2.951-1.337 3.2-1.358 1.257-.108 5.024 1.916 5.937 1.725 7.379-4.318 14.65-8.92 22.09-13.071z" fill="#ff5e00"/><path d="m906.295 230.972-25.116 15.089h-.391l-6.496-2.19c.084-.156 2.742-1.769 3.006-1.843.966-.27 5.522 1.34 6.963 1.429.171.011.337.079.502-.025 5.296-4.88 10.853-9.48 16.198-14.302z" fill="#ff5e00"/><path d="m887.289 219.044c.013.09-.058.277.058.293l5.566-.195-.78 3.388-8.529-.382 2.715-10.183c.306 2.36.528 4.74.97 7.079z" fill="#ff5e00"/><path d="m898.344 194.217c.587-.082 1.174-.239 1.746-.388l2.521 2.619-7.855 1.455-16.68-17.261.401.13z" fill="#ff5e00"/><path d="m891.071 211.189 4.266-.389.39 2.812c.235-.475.343-1.038.483-1.551l4.267.679-7.078 10.427.872-4.026h1.551v-4.946l-8.534.194-1.744-13.286z" fill="#ff5e00"/><path d="m891.071 206.243-8.339-15.709 12.024 12.315c1.016-.065 2.009-.309 3.007-.485.352.999 1.311 2.1 1.551 3.104z" fill="#ff5e00"/><path d="m899.314 205.467c.11.457.201 4.661.055 4.856l-2.848.4c-.074.068-.251 1.122-.31 1.339-.141.512-.249 1.075-.484 1.551l-.39-2.812-4.266.388v-4.946z" fill="#fc0"/><path d="m902.611 196.447-.042 4.953c-1.601.315-3.202.68-4.807.963-.998.176-1.991.42-3.007.485v-4.946z" fill="#fc0"/><path d="m898.345 189.271v4.946l-19.867-13.445-.402-.131 16.681 17.261v4.946l-12.025-12.316 8.339 15.71v4.946l-5.526-10.086 1.744 13.286c.151 1.431-.203 3.278 0 4.655-.441-2.339-.664-4.719-.97-7.079-.541-4.174-1.162-8.342-1.576-12.534-.577-1.776-3.07-4.833-3.442-6.45-.259-1.127.184-2.898-.075-4.094l-3.226-3.37.068-5.056-2.981-2.019c.093-.75-.22-4.485.08-4.88z" fill="#9d9cff"/><path d="m876.04 173.269c8.518 4.101 17.143 8.003 25.699 12.025.207-.083.615-.043.776-.097l2.909 1.94c-.065.183-.233.194-.386.244-2.194.721-4.469 1.265-6.693 1.889l-23.178-15.71c.128-.169.651-.261.873-.291z" fill="#ff5e00"/><path d="m900.091 193.83c-.572.149-1.159.305-1.746.388v-4.946c2.224-.624 4.499-1.169 6.693-1.89.153-.05.321-.061.386-.244l.103.232-.049 4.816c-1.806.477-3.584 1.174-5.387 1.644z" fill="#fc0"/><path d="m907.943 177.829-6.206 2.521-28.997-13.674 6.23-2.602z" fill="#ff5e00"/><path d="m901.738 180.351v4.946c-8.555-4.023-17.181-7.925-25.699-12.026-1.118-.538-2.229-1.105-3.346-1.648l.049-4.946z" fill="#9d9cff"/><path d="m907.944 177.828-.045 4.949c-1.753.733-3.481 1.544-5.266 2.198-.156.058-.108.219-.12.223-.161.054-.568.014-.775.097v-4.945z" fill="#fc0"/><path d="m903.58 221.664-14.306 12.702c2.936-4.686 6.231-9.148 9.263-13.769z" fill="#ff5e00"/><path d="m883.603 224.572c.005.84-.004 1.683-.001 2.522l6.789.389c-.185.454-1.936 3.146-2.184 3.202l-7.999-1.07z" fill="#ff5e00"/><path d="m880.014 234.173c.003.061.127.461.282.441l7.573 1.015-3.347 2.907-7.514-1.648z" fill="#ff5e00"/><path d="m911.436 259.872c.119.554.199 4.841.003 4.997l-9.992 1.985c-9.531 1.28-19.146 3.915-28.665 5.435-.154.036-.256-.032-.385-.096-.131-.065-1.861-1.798-2.08-2.042-.16-.177-1.141-1.32-1.161-1.409l-.003-4.797 3.245 3.304.28.085z" fill="#fc0"/><path d="m911.436 259.872-38.758 7.462-.28-.085-3.245-3.304 2.619-.582c.454.321 2.616 1.857 2.936 1.961.167.054.311.117.494.071 9.22-2.319 18.462-5.943 27.7-8.045 1.699-.386 3.464-.581 5.169-.952z" fill="#ff5e00"/></g><g fill="#fff"><path d="m461.847 413.238h15.428v2.688h-6.188v16.912h-3.08v-16.912h-6.16zm25.936 11.732v-7.812h3.024v15.68h-3.024v-2.604c-.672 1.568-2.184 3.052-5.18 3.052-3.024 0-5.264-1.68-5.264-6.468v-9.66h2.996v9.296c0 2.548.644 4.2 3.052 4.2 2.24 0 4.396-1.96 4.396-5.684zm8.824.056v7.812h-3.024v-15.68h3.024v2.548c.616-1.54 1.988-2.996 4.592-2.996 2.156 0 3.78.924 4.48 3.332.644-1.652 2.184-3.332 4.984-3.332 2.912 0 4.872 1.68 4.872 6.468v9.66h-3.024v-9.296c0-2.548-.336-4.2-2.604-4.2-1.96 0-3.836 1.96-3.836 5.684v7.812h-3.024v-9.296c0-2.548-.336-4.2-2.604-4.2-1.96 0-3.836 1.96-3.836 5.684zm21.641 7.812v-21h3.024v7.7c.98-1.792 2.632-2.828 5.04-2.828 4.312 0 7.056 3.444 7.056 8.316 0 4.844-2.744 8.26-7.056 8.26-2.492 0-4.088-1.064-5.04-2.744v2.296zm7.644-2.296c2.716 0 4.368-2.212 4.368-5.516 0-3.332-1.652-5.572-4.368-5.572-3.108 0-4.62 2.38-4.62 5.572 0 3.164 1.512 5.516 4.62 5.516zm9.747-18.704h3.024v21h-3.024zm13.188 21.448c-4.844 0-8.008-3.416-8.008-8.26 0-4.872 3.164-8.316 8.008-8.316 4.256 0 7.784 3.388 7.14 9.296h-11.984c.308 2.66 1.876 4.536 4.844 4.536 2.184 0 3.444-1.176 3.948-2.688h3.192c-.728 3.22-3.332 5.432-7.14 5.432zm0-13.832c-2.744 0-4.312 1.624-4.76 4.004h8.932c-.196-2.24-1.652-4.004-4.172-4.004z"/><path d="m282.626 426.594c.196 2.408 2.24 3.836 4.928 3.836 2.604 0 4.396-1.036 4.396-2.884 0-4.424-12.404-1.036-12.404-8.988 0-3.248 3.108-5.768 7.728-5.768 4.256 0 7.588 2.772 7.588 6.664h-3.276c-.168-2.408-1.54-3.808-4.452-3.808-2.884 0-4.396 1.176-4.396 2.912 0 4.76 12.432 1.12 12.432 8.988 0 3.64-2.884 5.74-7.784 5.74-4.536 0-7.924-2.856-8.064-6.692zm15.079 11.844v-21.28h3.024v2.408c.98-1.792 2.632-2.856 5.04-2.856 4.312 0 7.056 3.444 7.056 8.316 0 4.844-2.744 8.26-7.056 8.26-2.492 0-4.116-1.12-5.04-2.828v7.98zm7.644-7.896c2.716 0 4.368-2.212 4.368-5.516 0-3.332-1.652-5.572-4.368-5.572-3.108 0-4.62 2.38-4.62 5.572 0 3.164 1.512 5.516 4.62 5.516zm9.583-18.704h3.388v3.444h-3.388zm.168 5.32h3.024v15.68h-3.024zm9.007 7.448v8.232h-3.024v-15.68h3.024v2.632c.588-1.596 2.016-3.08 5.236-3.08v3.024c-3.332 0-5.236 1.148-5.236 4.872zm13.665 8.68c-4.844 0-8.008-3.416-8.008-8.26 0-4.872 3.164-8.316 8.008-8.316 4.256 0 7.784 3.388 7.14 9.296h-11.984c.308 2.66 1.876 4.536 4.844 4.536 2.184 0 3.444-1.176 3.948-2.688h3.192c-.728 3.22-3.332 5.432-7.14 5.432zm0-13.832c-2.744 0-4.312 1.624-4.76 4.004h8.932c-.196-2.24-1.652-4.004-4.172-4.004z"/><path d="m79.5693 413.238h6.776c5.236 0 8.54 1.568 8.54 6.216 0 3.052-1.456 4.788-3.92 5.628l3.78 7.756h-3.5l-3.192-7.196c-.532.028-1.12.056-1.708.056h-3.696v7.14h-3.08zm6.776 9.772c3.388 0 5.32-.756 5.32-3.556s-1.932-3.528-5.32-3.528h-3.696v7.084zm18.1127 10.276c-4.844 0-8.008-3.416-8.008-8.26 0-4.872 3.164-8.316 8.008-8.316s8.008 3.444 8.008 8.316c0 4.844-3.164 8.26-8.008 8.26zm0-2.744c3.052 0 4.9-2.212 4.9-5.516 0-3.332-1.848-5.572-4.9-5.572-3.08 0-4.9 2.24-4.9 5.572 0 3.304 1.82 5.516 4.9 5.516zm8.915-13.384h2.352v-3.92h3.024v3.92h2.884v2.576h-2.884v8.848c0 1.148.56 1.68 1.652 1.68h1.68v2.576h-1.708c-3.108 0-4.648-1.596-4.648-4.256v-8.848h-2.352zm17.581 16.128c-4.844 0-8.008-3.416-8.008-8.26 0-4.872 3.164-8.316 8.008-8.316s8.008 3.444 8.008 8.316c0 4.844-3.164 8.26-8.008 8.26zm0-2.744c3.052 0 4.9-2.212 4.9-5.516 0-3.332-1.848-5.572-4.9-5.572-3.08 0-4.9 2.24-4.9 5.572 0 3.304 1.82 5.516 4.9 5.516zm13.186-5.936v8.232h-3.024v-15.68h3.024v2.632c.588-1.596 2.016-3.08 5.236-3.08v3.024c-3.332 0-5.236 1.148-5.236 4.872z"/><path d="m667.959 432.838h-14.84v-1.764l10.444-15.148h-10.164v-2.688h14.448v1.764l-10.444 15.148h10.556zm2.235-21h3.388v3.444h-3.388zm.168 5.32h3.024v15.68h-3.024zm12.369 15.568c-4.312 0-7.056-3.136-7.056-7.98 0-4.872 2.744-8.036 7.056-8.036 2.38 0 4.032.924 5.04 2.632v-2.184h3.024v14.84c0 4.424-2.884 6.888-6.944 6.888-4.984 0-6.916-2.716-7.364-5.376h3.136c.364 1.82 1.876 2.632 4.228 2.632 2.38 0 3.92-1.204 3.92-4.144v-1.82c-.98 1.596-2.576 2.548-5.04 2.548zm.42-2.744c3.08 0 4.62-2.072 4.62-5.236 0-3.192-1.54-5.292-4.62-5.292-2.716 0-4.368 1.96-4.368 5.292 0 3.304 1.652 5.236 4.368 5.236zm16.998 2.744c-4.312 0-7.056-3.136-7.056-7.98 0-4.872 2.744-8.036 7.056-8.036 2.38 0 4.032.924 5.04 2.632v-2.184h3.024v14.84c0 4.424-2.884 6.888-6.944 6.888-4.984 0-6.916-2.716-7.364-5.376h3.136c.364 1.82 1.876 2.632 4.228 2.632 2.38 0 3.92-1.204 3.92-4.144v-1.82c-.98 1.596-2.576 2.548-5.04 2.548zm.42-2.744c3.08 0 4.62-2.072 4.62-5.236 0-3.192-1.54-5.292-4.62-5.292-2.716 0-4.368 1.96-4.368 5.292 0 3.304 1.652 5.236 4.368 5.236zm20.808-5.012v-7.812h3.024v15.68h-3.024v-2.604c-.672 1.568-2.184 3.052-5.18 3.052-3.024 0-5.264-1.68-5.264-6.468v-9.66h2.996v9.296c0 2.548.644 4.2 3.052 4.2 2.24 0 4.396-1.96 4.396-5.684zm8.824-.364v8.232h-3.024v-15.68h3.024v2.632c.588-1.596 2.016-3.08 5.236-3.08v3.024c-3.332 0-5.236 1.148-5.236 4.872zm13.125-7.896c4.284 0 6.496 2.772 6.496 7.168v8.96h-3.024v-2.128c-.84 1.596-2.324 2.576-4.536 2.576-3.08 0-5.404-1.764-5.404-4.9 0-4.9 5.376-5.432 9.912-5.264-.168-2.268-1.148-3.724-3.444-3.724-2.408 0-3.668 1.484-3.668 3.276h-3.192c0-3.108 2.436-5.964 6.86-5.964zm-3.332 11.508c0 1.568 1.092 2.408 2.94 2.408 2.184 0 3.864-1.428 3.864-3.976v-1.4c-4.62-.224-6.804 1.092-6.804 2.968zm11.256-11.06h2.352v-3.92h3.024v3.92h2.884v2.576h-2.884v8.848c0 1.148.56 1.68 1.652 1.68h1.68v2.576h-1.708c-3.108 0-4.648-1.596-4.648-4.256v-8.848h-2.352z"/><path d="m863.909 413.238h3.08v8.4h9.492v-8.4h3.08v19.6h-3.08v-8.512h-9.492v8.512h-3.08zm25.955 20.048c-4.844 0-8.008-3.416-8.008-8.26 0-4.872 3.164-8.316 8.008-8.316 4.256 0 7.784 3.388 7.14 9.296h-11.984c.308 2.66 1.876 4.536 4.844 4.536 2.184 0 3.444-1.176 3.948-2.688h3.192c-.728 3.22-3.332 5.432-7.14 5.432zm0-13.832c-2.744 0-4.312 1.624-4.76 4.004h8.932c-.196-2.24-1.652-4.004-4.172-4.004zm9.425-7.616h3.024v21h-3.024zm5.852 0h3.388v3.444h-3.388zm.168 5.32h3.024v15.68h-3.024zm5.202 0h3.5l3.192 5.04 3.22-5.04h3.5l-4.956 7.784 5.04 7.896h-3.5l-3.304-5.152-3.276 5.152h-3.5l5.04-7.896z"/></g></g></svg>