<svg fill="none" height="540" viewBox="0 0 1030 540" width="1030" xmlns="http://www.w3.org/2000/svg" xmlns:xlink="http://www.w3.org/1999/xlink"><clipPath id="a"><path d="m0 0h1030v540h-1030z"/></clipPath><path d="m0 0h1030v540h-1030z" fill="#646464"/><g clip-path="url(#a)"><path d="m0 0h1030v540h-1030z" fill="#c6d1e1"/><path d="m0 0h296v296h-296z" fill="#f39fff" transform="translate(0 -174)"/><path clip-rule="evenodd" d="m222.357-63.9341-7.655 2.5517-59.039 19.6787v32.26858l36.481 59.93462 4.197 6.8925-13.787 8.3916-4.195-6.8935-30.765-50.54299-30.765 50.54299-4.195 6.8935-13.7866-8.3916 4.1966-6.8925 36.48-59.93364v-32.26956l-66.6932-22.2304 5.1035-15.3106 69.6597 23.2197 62.004-20.6679 7.656-2.5518zm-74.763-48.1409c11.884 0 21.518 9.635 21.518 21.5188 0 11.8843-9.634 21.5183-21.518 21.5185-11.885 0-21.52-9.6341-21.52-21.5185 0-11.8848 9.635-21.5188 21.52-21.5188z" fill="#000" fill-rule="evenodd"/><path d="m0 0h296v296h-296z" fill="#86af25" transform="translate(294 -174)"/><path clip-rule="evenodd" d="m516.357-63.9341-7.655 2.5517-59.039 19.6787v32.26858l36.481 59.93462 4.197 6.8925-13.787 8.3916-4.195-6.8935-30.765-50.54299-30.765 50.54299-4.195 6.8935-13.787-8.3916 4.197-6.8925 36.48-59.93364v-32.26956l-66.693-22.2304 5.103-15.3106 69.66 23.2197 62.004-20.6679 7.656-2.5518zm-74.763-48.1409c11.884 0 21.518 9.635 21.518 21.5188 0 11.8843-9.634 21.5183-21.518 21.5185-11.885 0-21.52-9.6341-21.52-21.5185 0-11.8848 9.635-21.5188 21.52-21.5188z" fill="#000" fill-rule="evenodd"/><path d="m0 0h296v296h-296z" fill="#4d1955" transform="translate(588 -174)"/><path clip-rule="evenodd" d="m810.357-63.9341-7.655 2.5517-59.039 19.6787v32.26858l36.481 59.93462 4.197 6.8925-13.787 8.3916-4.195-6.8935-30.765-50.54299-30.765 50.54299-4.195 6.8935-13.787-8.3916 4.197-6.8925 36.48-59.93364v-32.26956l-66.693-22.2304 5.103-15.3106 69.66 23.2197 62.004-20.6679 7.656-2.5518zm-74.763-48.1409c11.884 0 21.518 9.635 21.518 21.5188 0 11.8843-9.634 21.5183-21.518 21.5185-11.885 0-21.52-9.6341-21.52-21.5185 0-11.8848 9.635-21.5188 21.52-21.5188z" fill="#000" fill-rule="evenodd"/><path d="m0 0h296v296h-296z" fill="#263603" transform="translate(882 -174)"/><path clip-rule="evenodd" d="m1104.36-63.9341-7.66 2.5517-59.04 19.6787v32.26858l36.48 59.93462 4.2 6.8925-13.79 8.3916-4.19-6.8935-30.77-50.54299-30.761 50.54299-4.195 6.8935-13.787-8.3916 4.197-6.8925 36.476-59.93364v-32.26956l-66.689-22.2304 5.103-15.3106 69.656 23.2197 62.01-20.6679 7.65-2.5518zm-74.77-48.1409c11.89 0 21.52 9.635 21.52 21.5188 0 11.8843-9.63 21.5183-21.52 21.5185-11.88 0-21.52-9.6341-21.52-21.5185 0-11.8848 9.64-21.5188 21.52-21.5188z" fill="#000" fill-rule="evenodd"/><path d="m0 0h296v296h-296z" fill="#ff5e00" transform="translate(0 120)"/><path clip-rule="evenodd" d="m222.357 230.066-7.655 2.552-59.039 19.678v32.269l36.481 59.934 4.197 6.893-13.787 8.392-4.195-6.894-30.765-50.543-30.765 50.543-4.195 6.894-13.7866-8.392 4.1966-6.893 36.48-59.933v-32.27l-66.6932-22.23 5.1035-15.311 69.6597 23.22 62.004-20.668 7.656-2.552zm-74.763-48.141c11.884 0 21.518 9.635 21.518 21.519s-9.634 21.518-21.518 21.518c-11.885 0-21.52-9.634-21.52-21.518 0-11.885 9.635-21.519 21.52-21.519z" fill="#000" fill-rule="evenodd"/><path d="m0 0h296v296h-296z" fill="#fc0" transform="translate(294 120)"/><path clip-rule="evenodd" d="m516.357 230.066-7.655 2.552-59.039 19.678v32.269l36.481 59.934 4.197 6.893-13.787 8.392-4.195-6.894-30.765-50.543-30.765 50.543-4.195 6.894-13.787-8.392 4.197-6.893 36.48-59.933v-32.27l-66.693-22.23 5.103-15.311 69.66 23.22 62.004-20.668 7.656-2.552zm-74.763-48.141c11.884 0 21.518 9.635 21.518 21.519s-9.634 21.518-21.518 21.518c-11.885 0-21.52-9.634-21.52-21.518 0-11.885 9.635-21.519 21.52-21.519z" fill="#000" fill-rule="evenodd"/><path d="m0 0h296v296h-296z" fill="#6e1527" transform="translate(588 120)"/><path clip-rule="evenodd" d="m810.357 230.066-7.655 2.552-59.039 19.678v32.269l36.481 59.934 4.197 6.893-13.787 8.392-4.195-6.894-30.765-50.543-30.765 50.543-4.195 6.894-13.787-8.392 4.197-6.893 36.48-59.933v-32.27l-66.693-22.23 5.103-15.311 69.66 23.22 62.004-20.668 7.656-2.552zm-74.763-48.141c11.884 0 21.518 9.635 21.518 21.519s-9.634 21.518-21.518 21.518c-11.885 0-21.52-9.634-21.52-21.518 0-11.885 9.635-21.519 21.52-21.519z" fill="#000" fill-rule="evenodd"/><path d="m0 0h296v296h-296z" fill="#31070f" transform="translate(882 120)"/><path clip-rule="evenodd" d="m1104.36 230.066-7.66 2.552-59.04 19.678v32.269l36.48 59.934 4.2 6.893-13.79 8.392-4.19-6.894-30.77-50.543-30.761 50.543-4.195 6.894-13.787-8.392 4.197-6.893 36.476-59.933v-32.27l-66.689-22.23 5.103-15.311 69.656 23.22 62.01-20.668 7.65-2.552zm-74.77-48.141c11.89 0 21.52 9.635 21.52 21.519s-9.63 21.518-21.52 21.518c-11.88 0-21.52-9.634-21.52-21.518 0-11.885 9.64-21.519 21.52-21.519z" fill="#000" fill-rule="evenodd"/><path d="m0 0h296v296h-296z" fill="#9d9cff" transform="translate(0 414)"/><path clip-rule="evenodd" d="m222.357 524.066-7.655 2.552-59.039 19.678v32.269l36.481 59.934 4.197 6.893-13.787 8.392-4.195-6.894-30.765-50.543-30.765 50.543-4.195 6.894-13.7866-8.392 4.1966-6.893 36.48-59.933v-32.27l-66.6932-22.23 5.1035-15.311 69.6597 23.22 62.004-20.668 7.656-2.552zm-74.763-48.141c11.884 0 21.518 9.634 21.518 21.519 0 11.884-9.634 21.518-21.518 21.518-11.885 0-21.52-9.634-21.52-21.518 0-11.885 9.635-21.519 21.52-21.519z" fill="#000" fill-rule="evenodd"/><path d="m0 0h296v296h-296z" fill="#5074ef" transform="translate(294 414)"/><path clip-rule="evenodd" d="m516.357 524.066-7.655 2.552-59.039 19.678v32.269l36.481 59.934 4.197 6.893-13.787 8.392-4.195-6.894-30.765-50.543-30.765 50.543-4.195 6.894-13.787-8.392 4.197-6.893 36.48-59.933v-32.27l-66.693-22.23 5.103-15.311 69.66 23.22 62.004-20.668 7.656-2.552zm-74.763-48.141c11.884 0 21.518 9.634 21.518 21.519 0 11.884-9.634 21.518-21.518 21.518-11.885 0-21.52-9.634-21.52-21.518 0-11.885 9.635-21.519 21.52-21.519z" fill="#000" fill-rule="evenodd"/><path d="m0 0h296v296h-296z" fill="#390a91" transform="translate(588 414)"/><path clip-rule="evenodd" d="m810.357 524.066-7.655 2.552-59.039 19.678v32.269l36.481 59.934 4.197 6.893-13.787 8.392-4.195-6.894-30.765-50.543-30.765 50.543-4.195 6.894-13.787-8.392 4.197-6.893 36.48-59.933v-32.27l-66.693-22.23 5.103-15.311 69.66 23.22 62.004-20.668 7.656-2.552zm-74.763-48.141c11.884 0 21.518 9.634 21.518 21.519 0 11.884-9.634 21.518-21.518 21.518-11.885 0-21.52-9.634-21.52-21.518 0-11.885 9.635-21.519 21.52-21.519z" fill="#000" fill-rule="evenodd"/><path d="m0 0h296v296h-296z" fill="#00165e" transform="translate(882 414)"/><path clip-rule="evenodd" d="m1104.36 524.066-7.66 2.552-59.04 19.678v32.269l36.48 59.934 4.2 6.893-13.79 8.392-4.19-6.894-30.77-50.543-30.761 50.543-4.195 6.894-13.787-8.392 4.197-6.893 36.476-59.933v-32.27l-66.689-22.23 5.103-15.311 69.656 23.22 62.01-20.668 7.65-2.552zm-74.77-48.141c11.89 0 21.52 9.634 21.52 21.519 0 11.884-9.63 21.518-21.52 21.518-11.88 0-21.52-9.634-21.52-21.518 0-11.885 9.64-21.519 21.52-21.519z" fill="#000" fill-rule="evenodd"/></g></svg>