<svg fill="none" height="542" viewBox="0 0 1033 542" width="1033" xmlns="http://www.w3.org/2000/svg" xmlns:xlink="http://www.w3.org/1999/xlink"><clipPath id="a"><path d="m0 0h1033v541.573h-1033z"/></clipPath><mask id="b" height="368" maskUnits="userSpaceOnUse" width="368" x="-34" y="-96"><path d="m333.298 87.922c0 82.644-54.723 152.512-129.891 175.326-16.875 5.11-34.763 7.873-53.296 7.873-31.863 0-61.8378-8.126-87.9219-22.445-56.79568-31.124-95.2887-91.439-95.2887-160.754 0-101.176 82.0279-183.1989 183.2106-183.1989 101.182 0 183.187 82.0229 183.187 183.1989z" fill="#c6d1e1"/></mask><mask id="c" height="368" maskUnits="userSpaceOnUse" width="367" x="333" y="-96"><path d="m699.697 87.9219c0 82.6441-54.724 152.5121-129.891 175.3261-16.876 5.11-34.764 7.873-53.297 7.873-31.862 0-61.837-8.127-87.921-22.445-56.796-31.124-95.289-91.439-95.289-160.7541 0-101.1761 82.028-183.1989 183.21-183.1989 101.183 0 183.188 82.0228 183.188 183.1989z" fill="#c6d1e1"/></mask><mask id="d" height="368" maskUnits="userSpaceOnUse" width="368" x="699" y="-96"><path d="m699.696 87.922c0 82.644 54.724 152.512 129.891 175.326 16.875 5.11 34.764 7.873 53.296 7.873 31.863 0 61.838-8.126 87.922-22.445 56.795-31.124 95.285-91.439 95.285-160.754 0-101.176-82.024-183.1989-183.207-183.1989-101.182 0-183.187 82.0229-183.187 183.1989z" fill="#9d9cff"/></mask><mask id="e" height="367" maskUnits="userSpaceOnUse" width="367" x="333" y="271"><path d="m333.301 454.32c0 82.644 54.724 152.512 129.891 175.326 16.876 5.11 34.764 7.873 53.297 7.873 31.863 0 61.837-8.127 87.921-22.446 56.796-31.124 95.289-91.438 95.289-160.753 0-101.176-82.028-183.199-183.21-183.199-101.183 0-183.188 82.023-183.188 183.199z" fill="#c6d1e1"/></mask><mask id="f" height="367" maskUnits="userSpaceOnUse" width="368" x="-34" y="271"><path d="m-33.097 454.32c0 82.644 54.7236 152.512 129.891 175.326 16.875 5.11 34.764 7.873 53.296 7.873 31.863 0 61.838-8.127 87.922-22.446 56.796-31.124 95.289-91.438 95.289-160.753 0-101.176-82.028-183.199-183.211-183.199-101.182 0-183.187 82.023-183.187 183.199z" fill="#fc0"/></mask><g clip-path="url(#a)"><path d="m0 0h1033v541.573h-1033z" fill="#00165e"/><path d="m333.298 87.922c0 82.644-54.723 152.512-129.891 175.326-16.875 5.11-34.763 7.873-53.296 7.873-31.863 0-61.8378-8.126-87.9219-22.445-56.79568-31.124-95.2887-91.439-95.2887-160.754 0-101.176 82.0279-183.1989 183.2106-183.1989 101.182 0 183.187 82.0229 183.187 183.1989z" fill="#c6d1e1"/><g mask="url(#b)"><path d="m278.855 87.6158c0 3.149-1.099 6.1272-2.954 8.4707-1.855 2.3678-4.467 4.1255-7.543 4.8825-10.716 2.587-18.259 12.205-18.259 23.215v.366l.586 36.958c.39 25.388-19.066 46.674-44.38 48.53l-18.504 1.391 6.006 27.389 6.369 32.394c-19.016 6.347-40.74 0-61.856 0-4.98 0-9.886-.196-14.769-.562l-29.9275-165.385c-4.3452-24.0449.3662-48.8466 13.2065-69.6205h146.857l-.366 15.794c-.22 10.2527 6.127 19.5045 15.745 22.9953l.732.2929c5.444 1.9529 9.057 7.1281 9.057 12.8891z" fill="#998b7a"/><path d="m254.076 18.8507-.391 16.7948h-146.857l43.696-70.6702h50.897c29.562 0 53.314 24.3135 52.655 53.8509z" fill="#423101"/><path d="m93.6193 105.266 29.9277 165.385c-22.751-1.733-44.4035-7.445-64.2497-16.453l.5614-51.41-25.5584-172.22c-5.1507-34.54171 21.6282-65.5927 56.5605-65.5927h59.6612l-43.696 70.6702c-12.8405 20.7738-17.5519 45.5755-13.2067 69.6205z" fill="#5074ef"/><path d="m187.798 211.435h-34.444l40.473 27.389z" fill="#423101"/></g><path d="m699.697 87.9219c0 82.6441-54.724 152.5121-129.891 175.3261-16.876 5.11-34.764 7.873-53.297 7.873-31.862 0-61.837-8.127-87.921-22.445-56.796-31.124-95.289-91.439-95.289-160.7541 0-101.1761 82.028-183.1989 183.21-183.1989 101.183 0 183.188 82.0228 183.188 183.1989z" fill="#ff5e00"/><g mask="url(#c)"><path d="m628.473 29.6076-24.633 165.8484-28.414-.183 22.215-71.278-42.58 27.784-13.882-64.8154-25.914-88.87939-16.666 51.84799-31.483-56.46169-24.999 53.69759-29.023-41.52315c5.101-23.21065 25.812-40.66945 50.669-40.66945h108.98c34.41 0 60.812 30.58844 55.751 64.6321z" fill="#eee"/><path d="m603.252 199.319.528 49.145c-25.812 13.272-52.398 40.774-83.414 40.774-18.17 0-44.793-.883-61.419-5.7l11.545-45.216 6.686-30.487-18.231-1.341c-24.918-1.85-44.124-22.825-43.738-47.844l.589-36.401v-.366c0-10.874-7.439-20.345-18.007-22.9061-3.029-.7317-5.61-2.4593-7.439-4.7966-1.829-2.317-2.907-5.2234-2.907-8.3534 0-5.6909 3.577-10.772 8.923-12.7232l.731-.2642c9.492-3.4349 15.732-12.5809 15.508-22.6822l-.731-32.1332c-.102-4.2682.325-8.41439 1.199-12.37769l29.044 41.50279 24.978-53.69754 31.483 56.48204 16.666-51.84804 25.935 88.87944 13.881 64.8149 42.58-27.784-22.214 71.279 28.393.183z" fill="#c6d1e1"/><path d="m477.173 207.855h40.223l-47.113 30.608z" fill="#323232"/></g><path d="m699.696 87.922c0 82.644 54.724 152.512 129.891 175.326 16.875 5.11 34.764 7.873 53.296 7.873 31.863 0 61.838-8.126 87.922-22.445 56.795-31.124 95.285-91.439 95.285-160.754 0-101.176-82.024-183.1989-183.207-183.1989-101.182 0-183.187 82.0229-183.187 183.1989z" fill="#9d9cff"/><g mask="url(#d)"><path d="m775.739 29.0894 25.009 168.4896-.263 71.635 62.878 18.904 76.816-18.904-14.464-63.956-39.736.421-1.393-.132c-23.037-2.314-41.972-18.829-46.863-41.445l-19.434-89.7541 31.61-6.5745 13.464 23.668c10.388 18.3296 29.848 29.6376 50.913 29.6376h72.608v-.394c0-10.756 7.363-20.171 17.856-22.6955 3-.7363 5.58-2.4457 7.39-4.7599s2.87-5.2069 2.87-8.3101c0-5.654-3.53-10.6768-8.84-12.6229l-.74-.2629c-9.411-3.4451-15.617-12.4915-15.38-22.5109l.736-31.8729c.657-28.9012-22.59-52.6744-51.491-52.6744h-108.189c-34.161 0-60.353 30.37388-55.331 64.1665z" fill="#eee"/><path d="m885.979 205.651 46.916 31.294-7.18-31.689z" fill="#323232"/><path d="m818.263 74.3231 19.434 89.7539c4.891 22.616 23.825 39.158 46.862 41.446l1.394.131 39.736-.421 18.277-.578c24.746-1.841 43.786-22.643 43.417-47.468l-.552-36.159h-72.608c-21.064 0-40.525-11.334-50.912-29.6376l-13.465-23.668-31.61 6.5745z" fill="#998b7a"/></g><path d="m699.698 454.32c0 82.644 54.724 152.512 129.891 175.325 16.875 5.111 34.763 7.874 53.296 7.874 31.863 0 61.838-8.127 87.922-22.446 56.793-31.124 95.293-91.438 95.293-160.753 0-101.176-82.032-183.199-183.215-183.199-101.182 0-183.187 82.023-183.187 183.199z" fill="#c6d1e1"/><path d="m747.123 456.323c0 3.223 1.105 6.238 2.993 8.632 1.888 2.418 4.581 4.19 7.712 4.973 10.913 2.67 18.602 12.454 18.602 23.665v.391l-.575 37.662c-.415 25.876 19.43 47.584 45.238 49.495l18.855 1.381-6.538 29.789-3.822 17.335c16.876 5.11 34.764 7.873 53.297 7.873 31.862 0 61.837-8.127 87.921-22.446l-.437-41.345 26.061-175.556c5.25-35.221-22.055-66.852-57.648-66.852h-112.739c-30.113 0-54.355 24.77-53.665 54.881l.76 33.242c.23 10.452-6.216 19.89-16.047 23.459l-.759.276c-5.525 2.003-9.209 7.251-9.209 13.145z" fill="#998b7a"/><path d="m333.301 454.32c0 82.644 54.724 152.512 129.891 175.326 16.876 5.11 34.764 7.873 53.297 7.873 31.863 0 61.837-8.127 87.921-22.446 56.796-31.124 95.289-91.438 95.289-160.753 0-101.176-82.028-183.199-183.21-183.199-101.183 0-183.188 82.023-183.188 183.199z" fill="#5074ef"/><g mask="url(#e)"><path d="m407.499 395.539h214.748l.263-11.018v-.447c.657-28.902-22.59-52.701-51.517-52.701h-108.163c-30.4 0-54.463 24.036-55.857 53.148-.184 3.602-.026 7.284.526 11.018z" fill="#fc0"/><path d="m409.13 406.587 23.405 157.444-.762 71.635 71.243 12.772 68.687-12.772-7.258-32.714-6.943-31.321 18.251-.499c24.772-1.841 43.812-22.669 43.417-47.468l-.552-36.159v-.395c0-10.755 7.364-20.17 17.856-22.695 3.025-.736 5.575-2.472 7.39-4.76 1.788-2.314 2.866-5.207 2.866-8.31 0-5.654-3.523-10.677-8.836-12.596l-.71-.29c-9.441-3.418-15.62-12.465-15.41-22.51l.21-9.362.263-11.045h-214.747z" fill="#c6d1e1"/><path d="m407.499 395.542 1.63 11.046h264.924v-22.064h-267.08c-.184 3.602-.027 7.284.526 11.018z" fill="#390a91"/></g><path d="m-33.097 454.32c0 82.644 54.7236 152.512 129.891 175.326 16.875 5.11 34.764 7.873 53.296 7.873 31.863 0 61.838-8.127 87.922-22.446 56.796-31.124 95.289-91.438 95.289-160.753 0-101.176-82.028-183.199-183.211-183.199-101.182 0-183.187 82.023-183.187 183.199z" fill="#9d9cff"/><g mask="url(#f)"><path d="m4.22984 451.736c0 3.103 1.05924 5.983 2.86179 8.288 1.82112 2.285 4.36697 3.995 7.37747 4.738 10.4807 2.546 17.8396 11.949 17.8396 22.69v.353l-.5761 36.088c-.3716 24.771 18.6202 45.566 43.3356 47.387l18.1927.762-6.3926 29.157-7.526 34.229 68.6227 12.167 70.824-12.167-.762-71.228 24.976-168.158c5.017-33.728-21.129-64.037-55.229-64.037h-107.9672c-28.8408 0-52.0323 23.731-51.3819 52.572l.7247 31.832c.223 10.017-5.9651 19.048-15.3681 22.467l-.7247.26c-5.29618 1.933-8.82696 6.969-8.82696 12.6z" fill="#eee"/><path d="m46.8561 343.99 90.6479 108.023c6.597-9.57 17.635-15.814 30.123-15.814 20.2 0 36.59 16.39 36.59 36.59 0 14.978-8.994 27.837-21.872 33.505l-20.312 84.943 97.375-14.249-12.413-202.559c-1.375-24.176-21.389-43.056-45.603-43.056h-117.5c-8.4924 0-16.9663 1.523-24.8083 4.794-4.4228 1.84-8.7154 4.516-12.2276 7.823z" fill="#998b7a"/></g></g></svg>