<svg fill="none" height="540" viewBox="0 0 1030 540" width="1030" xmlns="http://www.w3.org/2000/svg" xmlns:xlink="http://www.w3.org/1999/xlink"><clipPath id="a"><path d="m0 0h1030v540h-1030z"/></clipPath><path d="m0 0h1030v540h-1030z" fill="#646464"/><g clip-path="url(#a)"><path d="m0 0h1030v540h-1030z" fill="#c6d1e1"/><path d="m0 0h296v296h-296z" fill="#f39fff" transform="translate(0 -174)"/><path d="m179.871-79.7946h26.899v21.5166h26.907v118.3526h-118.353v-26.8985h-21.5269v-26.89839h-32.2783v-118.35271h118.3522zm26.899 112.9707h-75.307v10.7598h86.075v-86.0752h-10.768zm-26.899-26.89839h-69.935v10.75979h80.695v-80.6934h-10.76zm-102.2135-16.13867h86.0755v-86.07524h-86.0755z" fill="#000"/><path d="m0 0h296v296h-296z" fill="#86af25" transform="translate(294 -174)"/><path d="m473.871-79.7946h26.899v21.5166h26.907v118.3526h-118.353v-26.8985h-21.527v-26.89839h-32.278v-118.35271h118.352zm26.899 112.9707h-75.307v10.7598h86.075v-86.0752h-10.768zm-26.899-26.89839h-69.935v10.75979h80.695v-80.6934h-10.76zm-102.214-16.13867h86.076v-86.07524h-86.076z" fill="#000"/><path d="m0 0h296v296h-296z" fill="#4d1955" transform="translate(588 -174)"/><path d="m767.871-79.7946h26.899v21.5166h26.907v118.3526h-118.353v-26.8985h-21.527v-26.89839h-32.278v-118.35271h118.352zm26.899 112.9707h-75.307v10.7598h86.075v-86.0752h-10.768zm-26.899-26.89839h-69.935v10.75979h80.695v-80.6934h-10.76zm-102.214-16.13867h86.076v-86.07524h-86.076z" fill="#000"/><path d="m0 0h296v296h-296z" fill="#263603" transform="translate(882 -174)"/><path d="m1061.87-79.7946h26.9v21.5166h26.91v118.3526h-118.356v-26.8985h-21.527v-26.89839h-32.278v-118.35271h118.351zm26.9 112.9707h-75.31v10.7598h86.08v-86.0752h-10.77zm-26.9-26.89839h-69.934v10.75979h80.694v-80.6934h-10.76zm-102.213-16.13867h86.073v-86.07524h-86.073z" fill="#000"/><path d="m0 0h296v296h-296z" fill="#ff5e00" transform="translate(0 120)"/><path d="m179.871 214.206h26.899v21.516h26.907v118.353h-118.353v-26.899h-21.5269v-26.898h-32.2783v-118.353h118.3522zm26.899 112.97h-75.307v10.76h86.075v-86.075h-10.768zm-26.899-26.898h-69.935v10.76h80.695v-80.694h-10.76zm-102.2135-16.139h86.0755v-86.075h-86.0755z" fill="#000"/><path d="m0 0h296v296h-296z" fill="#fc0" transform="translate(294 120)"/><path d="m473.871 214.206h26.899v21.516h26.907v118.353h-118.353v-26.899h-21.527v-26.898h-32.278v-118.353h118.352zm26.899 112.97h-75.307v10.76h86.075v-86.075h-10.768zm-26.899-26.898h-69.935v10.76h80.695v-80.694h-10.76zm-102.214-16.139h86.076v-86.075h-86.076z" fill="#000"/><path d="m0 0h296v296h-296z" fill="#6e1527" transform="translate(588 120)"/><path d="m767.871 214.206h26.899v21.516h26.907v118.353h-118.353v-26.899h-21.527v-26.898h-32.278v-118.353h118.352zm26.899 112.97h-75.307v10.76h86.075v-86.075h-10.768zm-26.899-26.898h-69.935v10.76h80.695v-80.694h-10.76zm-102.214-16.139h86.076v-86.075h-86.076z" fill="#000"/><path d="m0 0h296v296h-296z" fill="#31070f" transform="translate(882 120)"/><path d="m1061.87 214.206h26.9v21.516h26.91v118.353h-118.356v-26.899h-21.527v-26.898h-32.278v-118.353h118.351zm26.9 112.97h-75.31v10.76h86.08v-86.075h-10.77zm-26.9-26.898h-69.934v10.76h80.694v-80.694h-10.76zm-102.213-16.139h86.073v-86.075h-86.073z" fill="#000"/><path d="m0 0h296v296h-296z" fill="#9d9cff" transform="translate(0 414)"/><path d="m179.871 508.206h26.899v21.516h26.907v118.353h-118.353v-26.899h-21.5269v-26.898h-32.2783v-118.353h118.3522zm26.899 112.97h-75.307v10.76h86.075v-86.075h-10.768zm-26.899-26.898h-69.935v10.76h80.695v-80.694h-10.76zm-102.2135-16.139h86.0755v-86.075h-86.0755z" fill="#000"/><path d="m0 0h296v296h-296z" fill="#5074ef" transform="translate(294 414)"/><path d="m473.871 508.206h26.899v21.516h26.907v118.353h-118.353v-26.899h-21.527v-26.898h-32.278v-118.353h118.352zm26.899 112.97h-75.307v10.76h86.075v-86.075h-10.768zm-26.899-26.898h-69.935v10.76h80.695v-80.694h-10.76zm-102.214-16.139h86.076v-86.075h-86.076z" fill="#000"/><path d="m0 0h296v296h-296z" fill="#390a91" transform="translate(588 414)"/><path d="m767.871 508.206h26.899v21.516h26.907v118.353h-118.353v-26.899h-21.527v-26.898h-32.278v-118.353h118.352zm26.899 112.97h-75.307v10.76h86.075v-86.075h-10.768zm-26.899-26.898h-69.935v10.76h80.695v-80.694h-10.76zm-102.214-16.139h86.076v-86.075h-86.076z" fill="#000"/><path d="m0 0h296v296h-296z" fill="#00165e" transform="translate(882 414)"/><path d="m1061.87 508.206h26.9v21.516h26.91v118.353h-118.356v-26.899h-21.527v-26.898h-32.278v-118.353h118.351zm26.9 112.97h-75.31v10.76h86.08v-86.075h-10.77zm-26.9-26.898h-69.934v10.76h80.694v-80.694h-10.76zm-102.213-16.139h86.073v-86.075h-86.073z" fill="#000"/></g></svg>