<svg width="1030" height="540" viewBox="0 0 1030 540" fill="none" xmlns="http://www.w3.org/2000/svg">
<g clip-path="url(#clip0_1_549)">
<rect width="1030" height="540" fill="#FF5E00"/>
<rect width="540" height="400" transform="translate(3.6603e-06 540) rotate(-90)" fill="#FF5E00"/>
<g clip-path="url(#clip1_1_549)">
<rect width="540" height="53.0001" transform="translate(398 540) rotate(-90)" fill="#9D9CFF"/>
</g>
<g clip-path="url(#clip2_1_549)">
<rect width="540" height="53.0001" transform="translate(451 540) rotate(-90)" fill="#F39FFF"/>
</g>
<g clip-path="url(#clip3_1_549)">
<rect width="540" height="50.0001" transform="translate(601 540) rotate(-90)" fill="#86AF25"/>
</g>
<g clip-path="url(#clip4_1_549)">
<rect width="540" height="49.0001" transform="translate(501 540) rotate(-90)" fill="#FFCC00"/>
</g>
<g clip-path="url(#clip5_1_549)">
<rect width="540" height="51.0001" transform="translate(550 540) rotate(-90)" fill="#5074EF"/>
</g>
<g clip-path="url(#clip6_1_549)">
<rect width="540" height="50.0001" transform="translate(755 540) rotate(-90)" fill="#C6D1E1"/>
</g>
<g clip-path="url(#clip7_1_549)">
<rect width="540" height="51.0001" transform="translate(704 540) rotate(-90)" fill="#EEEEEE"/>
</g>
<g clip-path="url(#clip8_1_549)">
<rect width="540" height="51.0001" transform="translate(805 540) rotate(-90)" fill="#998B7A"/>
</g>
<g clip-path="url(#clip9_1_549)">
<rect width="540" height="53.0001" transform="translate(651 540) rotate(-90)" fill="#201C1D"/>
</g>
<g clip-path="url(#clip10_1_549)">
<rect width="540" height="24" transform="translate(882 540) rotate(-90)" fill="#6E1527"/>
</g>
<g clip-path="url(#clip11_1_549)">
<rect width="540" height="26" transform="translate(856 540) rotate(-90)" fill="#31070F"/>
</g>
<g clip-path="url(#clip12_1_549)">
<rect width="540" height="25" transform="translate(931 540) rotate(-90)" fill="#4D1955"/>
</g>
<g clip-path="url(#clip13_1_549)">
<rect width="540" height="26" transform="translate(906 540) rotate(-90)" fill="#390A91"/>
</g>
<g clip-path="url(#clip14_1_549)">
<rect width="540" height="25" transform="translate(956 540) rotate(-90)" fill="#263603"/>
</g>
<g clip-path="url(#clip15_1_549)">
<rect width="540" height="27" transform="translate(980 540) rotate(-90)" fill="#423101"/>
</g>
<g clip-path="url(#clip16_1_549)">
<rect width="540" height="23" transform="translate(1007 540) rotate(-90)" fill="#00165E"/>
</g>
</g>
<defs>
<clipPath id="clip0_1_549">
<rect width="1030" height="540" fill="white"/>
</clipPath>
<clipPath id="clip1_1_549">
<rect width="540" height="53.0001" fill="white" transform="translate(398 540) rotate(-90)"/>
</clipPath>
<clipPath id="clip2_1_549">
<rect width="540" height="53.0001" fill="white" transform="translate(451 540) rotate(-90)"/>
</clipPath>
<clipPath id="clip3_1_549">
<rect width="540" height="50.0001" fill="white" transform="translate(601 540) rotate(-90)"/>
</clipPath>
<clipPath id="clip4_1_549">
<rect width="540" height="49.0001" fill="white" transform="translate(501 540) rotate(-90)"/>
</clipPath>
<clipPath id="clip5_1_549">
<rect width="540" height="51.0001" fill="white" transform="translate(550 540) rotate(-90)"/>
</clipPath>
<clipPath id="clip6_1_549">
<rect width="540" height="50.0001" fill="white" transform="translate(755 540) rotate(-90)"/>
</clipPath>
<clipPath id="clip7_1_549">
<rect width="540" height="51.0001" fill="white" transform="translate(704 540) rotate(-90)"/>
</clipPath>
<clipPath id="clip8_1_549">
<rect width="540" height="51.0001" fill="white" transform="translate(805 540) rotate(-90)"/>
</clipPath>
<clipPath id="clip9_1_549">
<rect width="540" height="53.0001" fill="white" transform="translate(651 540) rotate(-90)"/>
</clipPath>
<clipPath id="clip10_1_549">
<rect width="540" height="24" fill="white" transform="translate(882 540) rotate(-90)"/>
</clipPath>
<clipPath id="clip11_1_549">
<rect width="540" height="26" fill="white" transform="translate(856 540) rotate(-90)"/>
</clipPath>
<clipPath id="clip12_1_549">
<rect width="540" height="25" fill="white" transform="translate(931 540) rotate(-90)"/>
</clipPath>
<clipPath id="clip13_1_549">
<rect width="540" height="26" fill="white" transform="translate(906 540) rotate(-90)"/>
</clipPath>
<clipPath id="clip14_1_549">
<rect width="540" height="25" fill="white" transform="translate(956 540) rotate(-90)"/>
</clipPath>
<clipPath id="clip15_1_549">
<rect width="540" height="27" fill="white" transform="translate(980 540) rotate(-90)"/>
</clipPath>
<clipPath id="clip16_1_549">
<rect width="540" height="23" fill="white" transform="translate(1007 540) rotate(-90)"/>
</clipPath>
</defs>
</svg>
