<svg fill="none" height="540" viewBox="0 0 1030 540" width="1030" xmlns="http://www.w3.org/2000/svg" xmlns:xlink="http://www.w3.org/1999/xlink"><clipPath id="a"><path d="m0 0h1030v540h-1030z"/></clipPath><path d="m0 0h1030v540h-1030z" fill="#646464"/><g clip-path="url(#a)"><path d="m0 0h1030v540h-1030z" fill="#c6d1e1"/><path d="m0 0h296v296h-296z" fill="#f39fff" transform="translate(0 -174)"/><path clip-rule="evenodd" d="m139.112-112.074c4.965 0 9.73 1.962 13.256 5.458l76.824 76.1712-11.413 11.4131-76.774-76.1231c-.504-.4994-1.184-.7802-1.893-.7803h-60.9643c-.2715.0002-.492.2207-.4922.4922v62.2686c.0001.7241.2927 1.4177.8106 1.9238l75.2249 73.5078c1.059 1.0354 2.757 1.0194 3.797-.0361l60.289-61.2402 11.412 11.41207-60.2 61.15043c-7.277 7.3906-19.16 7.5053-26.578.2568l-75.2252-73.5068c-3.6255-3.5428-5.6689-8.3988-5.669-13.4678v-62.2686c.0002-9.1851 7.446-16.6311 16.6309-16.6311zm-2.843 60.8557-14.834 14.9297-14.834-14.9297 14.834-14.9287z" fill="#000" fill-rule="evenodd"/><path d="m0 0h296v296h-296z" fill="#86af25" transform="translate(294 -174)"/><path clip-rule="evenodd" d="m433.112-112.074c4.965 0 9.73 1.962 13.256 5.458l76.824 76.1712-11.413 11.4131-76.774-76.1231c-.504-.4994-1.184-.7802-1.893-.7803h-60.964c-.272.0002-.492.2207-.492.4922v62.2686c0 .7241.292 1.4177.81 1.9238l75.225 73.5078c1.059 1.0354 2.757 1.0194 3.797-.0361l60.289-61.2402 11.412 11.41207-60.2 61.15043c-7.277 7.3906-19.16 7.5053-26.578.2568l-75.225-73.5068c-3.626-3.5428-5.669-8.3988-5.669-13.4678v-62.2686c0-9.1851 7.446-16.6311 16.631-16.6311zm-2.843 60.8557-14.834 14.9297-14.834-14.9297 14.834-14.9287z" fill="#000" fill-rule="evenodd"/><path d="m0 0h296v296h-296z" fill="#4d1955" transform="translate(588 -174)"/><path clip-rule="evenodd" d="m727.112-112.074c4.965 0 9.73 1.962 13.256 5.458l76.824 76.1712-11.413 11.4131-76.774-76.1231c-.504-.4994-1.184-.7802-1.893-.7803h-60.964c-.272.0002-.492.2207-.492.4922v62.2686c0 .7241.292 1.4177.81 1.9238l75.225 73.5078c1.059 1.0354 2.757 1.0194 3.797-.0361l60.289-61.2402 11.412 11.41207-60.2 61.15043c-7.277 7.3906-19.16 7.5053-26.578.2568l-75.225-73.5068c-3.626-3.5428-5.669-8.3988-5.669-13.4678v-62.2686c0-9.1851 7.446-16.6311 16.631-16.6311zm-2.843 60.8557-14.834 14.9297-14.834-14.9297 14.834-14.9287z" fill="#000" fill-rule="evenodd"/><path d="m0 0h296v296h-296z" fill="#263603" transform="translate(882 -174)"/><path clip-rule="evenodd" d="m1021.11-112.074c4.97 0 9.73 1.962 13.26 5.458l76.82 76.1712-11.41 11.4131-76.77-76.1231c-.51-.4994-1.19-.7802-1.9-.7803h-60.962c-.272.0002-.492.2207-.492.4922v62.2686c0 .7241.292 1.4177.81 1.9238l75.224 73.5078c1.06 1.0354 2.76 1.0194 3.8-.0361l60.29-61.2402 11.41 11.41207-60.2 61.15043c-7.28 7.3906-19.16 7.5053-26.58.2568l-75.224-73.5068c-3.626-3.5428-5.669-8.3988-5.669-13.4678v-62.2686c0-9.1851 7.446-16.6311 16.631-16.6311zm-2.84 60.8557-14.84 14.9297-14.829-14.9297 14.829-14.9287z" fill="#000" fill-rule="evenodd"/><path d="m0 0h296v296h-296z" fill="#ff5e00" transform="translate(0 120)"/><path clip-rule="evenodd" d="m139.112 181.926c4.965 0 9.73 1.962 13.256 5.458l76.824 76.171-11.413 11.413-76.774-76.123c-.504-.499-1.184-.78-1.893-.78h-60.9643c-.2715 0-.492.221-.4922.492v62.269c.0001.724.2927 1.417.8106 1.924l75.2249 73.507c1.059 1.036 2.757 1.02 3.797-.036l60.289-61.24 11.412 11.412-60.2 61.15c-7.277 7.391-19.16 7.506-26.578.257l-75.2252-73.507c-3.6255-3.542-5.6689-8.398-5.669-13.467v-62.269c.0002-9.185 7.446-16.631 16.6309-16.631zm-2.843 60.856-14.834 14.929-14.834-14.929 14.834-14.929z" fill="#000" fill-rule="evenodd"/><path d="m0 0h296v296h-296z" fill="#fc0" transform="translate(294 120)"/><path clip-rule="evenodd" d="m433.112 181.926c4.965 0 9.73 1.962 13.256 5.458l76.824 76.171-11.413 11.413-76.774-76.123c-.504-.499-1.184-.78-1.893-.78h-60.964c-.272 0-.492.221-.492.492v62.269c0 .724.292 1.417.81 1.924l75.225 73.507c1.059 1.036 2.757 1.02 3.797-.036l60.289-61.24 11.412 11.412-60.2 61.15c-7.277 7.391-19.16 7.506-26.578.257l-75.225-73.507c-3.626-3.542-5.669-8.398-5.669-13.467v-62.269c0-9.185 7.446-16.631 16.631-16.631zm-2.843 60.856-14.834 14.929-14.834-14.929 14.834-14.929z" fill="#000" fill-rule="evenodd"/><path d="m0 0h296v296h-296z" fill="#6e1527" transform="translate(588 120)"/><path clip-rule="evenodd" d="m727.112 181.926c4.965 0 9.73 1.962 13.256 5.458l76.824 76.171-11.413 11.413-76.774-76.123c-.504-.499-1.184-.78-1.893-.78h-60.964c-.272 0-.492.221-.492.492v62.269c0 .724.292 1.417.81 1.924l75.225 73.507c1.059 1.036 2.757 1.02 3.797-.036l60.289-61.24 11.412 11.412-60.2 61.15c-7.277 7.391-19.16 7.506-26.578.257l-75.225-73.507c-3.626-3.542-5.669-8.398-5.669-13.467v-62.269c0-9.185 7.446-16.631 16.631-16.631zm-2.843 60.856-14.834 14.929-14.834-14.929 14.834-14.929z" fill="#000" fill-rule="evenodd"/><path d="m0 0h296v296h-296z" fill="#31070f" transform="translate(882 120)"/><path clip-rule="evenodd" d="m1021.11 181.926c4.97 0 9.73 1.962 13.26 5.458l76.82 76.171-11.41 11.413-76.77-76.123c-.51-.499-1.19-.78-1.9-.78h-60.962c-.272 0-.492.221-.492.492v62.269c0 .724.292 1.417.81 1.924l75.224 73.507c1.06 1.036 2.76 1.02 3.8-.036l60.29-61.24 11.41 11.412-60.2 61.15c-7.28 7.391-19.16 7.506-26.58.257l-75.224-73.507c-3.626-3.542-5.669-8.398-5.669-13.467v-62.269c0-9.185 7.446-16.631 16.631-16.631zm-2.84 60.856-14.84 14.929-14.829-14.929 14.829-14.929z" fill="#000" fill-rule="evenodd"/><path d="m0 0h296v296h-296z" fill="#9d9cff" transform="translate(0 414)"/><path clip-rule="evenodd" d="m139.112 475.926c4.965 0 9.73 1.962 13.256 5.458l76.824 76.171-11.413 11.413-76.774-76.123c-.504-.499-1.184-.78-1.893-.78h-60.9643c-.2715 0-.492.221-.4922.492v62.269c.0001.724.2927 1.417.8106 1.924l75.2249 73.507c1.059 1.036 2.757 1.02 3.797-.036l60.289-61.24 11.412 11.412-60.2 61.15c-7.277 7.391-19.16 7.506-26.578.257l-75.2252-73.507c-3.6255-3.542-5.6689-8.398-5.669-13.467v-62.269c.0002-9.185 7.446-16.631 16.6309-16.631zm-2.843 60.856-14.834 14.929-14.834-14.929 14.834-14.929z" fill="#000" fill-rule="evenodd"/><path d="m0 0h296v296h-296z" fill="#5074ef" transform="translate(294 414)"/><path clip-rule="evenodd" d="m433.112 475.926c4.965 0 9.73 1.962 13.256 5.458l76.824 76.171-11.413 11.413-76.774-76.123c-.504-.499-1.184-.78-1.893-.78h-60.964c-.272 0-.492.221-.492.492v62.269c0 .724.292 1.417.81 1.924l75.225 73.507c1.059 1.036 2.757 1.02 3.797-.036l60.289-61.24 11.412 11.412-60.2 61.15c-7.277 7.391-19.16 7.506-26.578.257l-75.225-73.507c-3.626-3.542-5.669-8.398-5.669-13.467v-62.269c0-9.185 7.446-16.631 16.631-16.631zm-2.843 60.856-14.834 14.929-14.834-14.929 14.834-14.929z" fill="#000" fill-rule="evenodd"/><path d="m0 0h296v296h-296z" fill="#390a91" transform="translate(588 414)"/><path clip-rule="evenodd" d="m727.112 475.926c4.965 0 9.73 1.962 13.256 5.458l76.824 76.171-11.413 11.413-76.774-76.123c-.504-.499-1.184-.78-1.893-.78h-60.964c-.272 0-.492.221-.492.492v62.269c0 .724.292 1.417.81 1.924l75.225 73.507c1.059 1.036 2.757 1.02 3.797-.036l60.289-61.24 11.412 11.412-60.2 61.15c-7.277 7.391-19.16 7.506-26.578.257l-75.225-73.507c-3.626-3.542-5.669-8.398-5.669-13.467v-62.269c0-9.185 7.446-16.631 16.631-16.631zm-2.843 60.856-14.834 14.929-14.834-14.929 14.834-14.929z" fill="#000" fill-rule="evenodd"/><path d="m0 0h296v296h-296z" fill="#00165e" transform="translate(882 414)"/><path clip-rule="evenodd" d="m1021.11 475.926c4.97 0 9.73 1.962 13.26 5.458l76.82 76.171-11.41 11.413-76.77-76.123c-.51-.499-1.19-.78-1.9-.78h-60.962c-.272 0-.492.221-.492.492v62.269c0 .724.292 1.417.81 1.924l75.224 73.507c1.06 1.036 2.76 1.02 3.8-.036l60.29-61.24 11.41 11.412-60.2 61.15c-7.28 7.391-19.16 7.506-26.58.257l-75.224-73.507c-3.626-3.542-5.669-8.398-5.669-13.467v-62.269c0-9.185 7.446-16.631 16.631-16.631zm-2.84 60.856-14.84 14.929-14.829-14.929 14.829-14.929z" fill="#000" fill-rule="evenodd"/></g></svg>