<svg fill="none" height="540" viewBox="0 0 1030 540" width="1030" xmlns="http://www.w3.org/2000/svg" xmlns:xlink="http://www.w3.org/1999/xlink"><clipPath id="a"><path d="m0 0h1030v540h-1030z"/></clipPath><g clip-path="url(#a)"><path d="m0 0h1030v540h-1030z" fill="#5074ef"/><g clip-rule="evenodd" fill-rule="evenodd"><path d="m-144.52 400.01 267.361 269.254 269.316-267.423-267.362-269.253z" fill="#9d9cff"/><path d="m190.594 468.894c11.775-11.692 11.842-30.701.151-42.475-11.676-11.758-30.685-11.826-42.46-.133-11.757 11.675-11.826 30.684-.15 42.443 11.691 11.774 30.701 11.84 42.459.165z" stroke="#4d1955" stroke-miterlimit="12.1527" stroke-width="30.4282"/><path d="m-56.5077 419.751 80.7514 81.323 81.3233-80.751-80.7518-81.323z" fill="#eee"/><path d="m-17.9773 419.871 42.31 42.609 42.6081-42.308-42.31-42.61z" fill="#4d1955"/><path d="m61.8882 302.186 80.7518 81.323 81.323-80.751-80.752-81.323z" fill="#eee"/><path d="m100.419 302.305 42.31 42.609 42.608-42.308-42.31-42.61z" fill="#4d1955"/><path d="m976.989 154.332-344.206 159.684 159.722 344.286 344.205-159.684z" fill="#ff5e00"/></g><path d="m792.673 330.737 90.766 195.65" stroke="#201c1d" stroke-miterlimit="12.1527" stroke-width="32.6237"/><path clip-rule="evenodd" d="m893.522 247.733-62.084 28.803 48.229 103.96 62.085-28.802z" fill="#eee" fill-rule="evenodd"/><path clip-rule="evenodd" d="m904.982 272.44-43.754 20.299 25.278 54.488 43.755-20.298z" fill="#201c1d" fill-rule="evenodd"/><path clip-rule="evenodd" d="m963.738 399.088-62.084 28.803 48.229 103.96 62.087-28.802z" fill="#eee" fill-rule="evenodd"/><path clip-rule="evenodd" d="m975.208 423.815-43.754 20.299 25.269 54.469 43.757-20.299z" fill="#201c1d" fill-rule="evenodd"/><path clip-rule="evenodd" d="m408.365-91.5048-166.879 340.8618 340.922 166.908 166.879-340.8617z" fill="#fa0" fill-rule="evenodd"/><path d="m632.768 211.455c-44.745 40.619-98.16 53.435-169.836 18.344s-94.312-85.14-89.691-145.403" stroke="#6e1527" stroke-miterlimit="12.1527" stroke-width="30.335"/><path d="m414.406 69.4342 53.87-18.4592 19.136 55.845" stroke="#6e1527" stroke-miterlimit="12.1527" stroke-width="30.335"/><path d="m545.822 133.772 53.87-18.459 19.077 55.816" stroke="#6e1527" stroke-miterlimit="12.1527" stroke-width="30.335"/></g></svg>