<svg fill="none" height="540" viewBox="0 0 1030 540" width="1030" xmlns="http://www.w3.org/2000/svg" xmlns:xlink="http://www.w3.org/1999/xlink"><clipPath id="a"><path d="m0 0h1030v540h-1030z"/></clipPath><path d="m0 0h1030v540h-1030z" fill="#646464"/><g clip-path="url(#a)"><path d="m0 0h1030v540h-1030z" fill="#c6d1e1"/><path d="m0 0h296v296h-296z" fill="#f39fff" transform="translate(0 -174)"/><path clip-rule="evenodd" d="m147.796-102.27 20.19-19.99c5.531 1.179 11.037 2.852 16.462 5.043l1.15.474c5.731 2.399 11.117 5.28 16.131 8.576l.141 28.295 28.142.1397c6.738 10.3538 11.487 21.9072 13.975 34.0175l-19.718 19.917 19.656 19.85256c-1.182 5.64484-2.878 11.26476-5.115 16.79984l-.472 1.1513c-2.399 5.731-5.282 11.1164-8.578 16.1309l-27.889.1396-.139 27.8789-.975.6329c-10.112 6.4808-21.347 11.0755-33.114 13.5361l-19.846-19.6484-19.924 19.7236-1.079-.2285c-5.394-1.173-10.764-2.8153-16.055-4.9532-5.631-2.2751-10.9363-5.0141-15.8906-8.1523l-.9863-.6328-.1397-28.1553-28.2871-.1416-.627-.9658c-6.2138-9.6933-10.6952-20.41976-13.2236-31.65723l-.2461-1.125 19.9854-20.18557-20.0615-20.2627c1.1819-5.6426 2.8788-11.26 5.1142-16.7929 2.4267-6.0064 5.3795-11.6426 8.7832-16.877l28.5625-.1416.1416-28.55c10.257-6.673 21.691-11.396 33.677-13.903zm-25.078-2.121c-4.393 1.397-8.663 3.16-12.761 5.2661l-.096 19.3281h-16.0644v16.0635l-19.333.0957c-.9795 1.9092-1.8932 3.8724-2.7363 5.8887l-.3877.9414c-.7945 1.9664-1.5063 3.9434-2.1387 5.9267l13.5918 13.7285 11.2422 11.3545-11.2422 11.3555-13.4922 13.62597c1.4278 4.42928 3.2281 8.73183 5.378 12.85843l19.1181.0957v16.0654h16.0644l.094 18.9248c2.206 1.1319 4.482 2.1784 6.83 3.127 2.068.8355 4.149 1.5791 6.238 2.2353l13.419-13.2842 11.115-11.0029h.479l11.115 11.0029 13.316 13.1826c4.539-1.4434 8.947-3.2772 13.17-5.4775l.095-18.708h15.658v-16.0635l.4-.0019 18.721-.0948c1.056-2.0291 2.039-4.11913 2.939-6.26949l.397-.96386c.796-1.96791 1.506-3.947574 2.139-5.9336l-13.185-13.31835-11.243-11.3545 11.242-11.3555 13.28-13.415c-1.413-4.5026-3.209-8.8778-5.365-13.0732l-18.924-.0928-.401-.003v-16.0605h-15.659l-.096-19.1221c-2.028-1.0552-4.119-2.0361-6.269-2.9361l-.964-.398c-1.866-.754-3.742-1.434-5.624-2.042l-13.627 13.4933-11.115 11.0049h-.481l-11.114-11.0049zm-5.291 66.2026c6.73-16.6595 25.693-24.7105 42.354-17.9795l.774.3252c16.134 6.9989 23.831 25.6301 17.205 42.0303-6.627 16.40063-25.106 24.4557-41.573 18.28318l-.782-.30469c-16.66-6.73144-24.709-25.69419-17.978-42.35449zm36.308-3.0156c-8.396-3.3918-17.952.6654-21.345 9.0615-3.392 8.3961.665 17.9524 9.061 21.3447 8.265 3.33917 17.655-.5391 21.183-8.6699l.163-.3896c3.339-8.2653-.54-17.6565-8.671-21.1836z" fill="#000" fill-rule="evenodd"/><path d="m0 0h296v296h-296z" fill="#86af25" transform="translate(294 -174)"/><path clip-rule="evenodd" d="m441.796-102.27 20.19-19.99c5.531 1.179 11.037 2.852 16.462 5.043l1.15.474c5.731 2.399 11.117 5.28 16.131 8.576l.141 28.295 28.142.1397c6.738 10.3539 11.487 21.9073 13.975 34.0175l-19.718 19.917 19.656 19.85258c-1.182 5.644835-2.878 11.26475-5.115 16.79982l-.472 1.1514c-2.399 5.731-5.282 11.1163-8.578 16.1308l-27.889.1397-.139 27.8789-.975.6328c-10.112 6.4808-21.347 11.0755-33.114 13.5361l-19.846-19.6484-19.924 19.7236-1.079-.2285c-5.394-1.173-10.764-2.8153-16.055-4.9531-5.631-2.2752-10.936-5.0142-15.891-8.1524l-.986-.6328-.14-28.1553-28.287-.1416-.627-.9658c-6.213-9.6933-10.695-20.41974-13.223-31.65721l-.246-1.125 19.985-20.18559-20.062-20.2627c1.182-5.6426 2.879-11.26 5.115-16.7929 2.426-6.0063 5.379-11.6425 8.783-16.877l28.562-.1416.142-28.55c10.257-6.673 21.691-11.396 33.677-13.903zm-25.078-2.121c-4.393 1.397-8.663 3.16-12.761 5.2661l-.096 19.3281h-16.064v16.0635l-19.333.0957c-.98 1.9092-1.894 3.8725-2.737 5.8887l-.387.9414c-.795 1.9664-1.507 3.9434-2.139 5.9267l13.592 13.7285 11.242 11.3545-11.242 11.3555-13.492 13.625985c1.427 4.429285 3.228 8.731825 5.377 12.858415l19.119.0957v16.0654h16.064l.094 18.9248c2.206 1.1319 4.482 2.1784 6.83 3.127 2.068.8355 4.149 1.5791 6.238 2.2353l13.419-13.2842 11.115-11.0029h.479l11.115 11.0029 13.316 13.1827c4.539-1.4435 8.947-3.2773 13.17-5.4776l.095-18.708h15.658v-16.0635l.4-.0019 18.721-.0947c1.056-2.0292 2.039-4.11921 2.939-6.26957l.397-.96387c.796-1.9679 1.506-3.947569 2.139-5.93359l-13.185-13.31837-11.243-11.3545 11.242-11.3555 13.28-13.415c-1.413-4.5025-3.209-8.8778-5.365-13.0732l-18.924-.0928-.401-.0029v-16.0606h-15.659l-.096-19.1221c-2.028-1.0552-4.119-2.0361-6.269-2.9361l-.964-.398c-1.866-.754-3.742-1.434-5.624-2.042l-13.627 13.4933-11.115 11.0049h-.481l-11.114-11.0049zm-5.291 66.2026c6.73-16.6595 25.693-24.7105 42.354-17.9795l.774.3252c16.134 6.999 23.831 25.6301 17.205 42.0303-6.627 16.40064-25.106 24.4557-41.573 18.28319l-.782-.30468c-16.66-6.73144-24.709-25.69421-17.978-42.35451zm36.308-3.0156c-8.396-3.3918-17.952.6655-21.345 9.0615l-.154.3936c-3.111 8.2989.95 17.6117 9.215 20.9511 8.265 3.33919 17.655-.5391 21.183-8.6699l.163-.3896c3.392-8.3963-.666-17.9544-9.062-21.3467z" fill="#000" fill-rule="evenodd"/><path d="m0 0h296v296h-296z" fill="#4d1955" transform="translate(588 -174)"/><path clip-rule="evenodd" d="m735.796-102.27 20.19-19.99c5.531 1.179 11.037 2.852 16.462 5.043 6.162 2.49 11.933 5.534 17.281 9.05l.141 28.295 28.142.1397c6.738 10.3538 11.487 21.9072 13.975 34.0175l-19.718 19.917 19.656 19.85256c-1.182 5.64484-2.878 11.26476-5.115 16.79984-2.489 6.162-5.535 11.9334-9.05 17.2822l-27.889.1396-.139 27.8789c-10.362 6.8154-21.942 11.629-34.089 14.169l-19.846-19.6484-19.924 19.7236c-5.757-1.1846-11.49-2.9013-17.134-5.1817-6.007-2.4268-11.642-5.3812-16.877-8.7851l-.14-28.1553-28.287-.1416c-6.751-10.2653-11.539-21.7258-14.096-33.74803l19.985-20.18557-20.062-20.2627c1.182-5.6426 2.879-11.26 5.115-16.7929 2.426-6.0064 5.379-11.6426 8.783-16.877l28.562-.1416.142-28.55c10.257-6.673 21.691-11.396 33.677-13.903zm-25.078-2.121c-4.393 1.397-8.663 3.16-12.761 5.2661l-.096 19.3281h-16.064v16.0635l-19.333.0957c-.98 1.9092-1.894 3.8724-2.737 5.8887l-.387.9414c-.795 1.9664-1.507 3.9434-2.139 5.9267l13.592 13.7285 11.242 11.3545-11.242 11.3555-13.492 13.62597c1.427 4.42928 3.228 8.73183 5.377 12.85843l19.119.0957v16.0654h16.064l.094 18.9248c2.206 1.1319 4.482 2.1784 6.83 3.127 2.068.8355 4.149 1.5791 6.238 2.2353l13.419-13.2842 11.115-11.0029h.479l11.115 11.0029 13.316 13.1826c4.539-1.4434 8.947-3.2772 13.17-5.4775l.095-18.708h15.658v-16.0635l.4-.0019 18.721-.0948c1.056-2.0291 2.039-4.11913 2.939-6.26949l.397-.96386c.796-1.96791 1.506-3.947574 2.139-5.9336l-13.185-13.31835-11.243-11.3545 11.242-11.3555 13.28-13.415c-1.413-4.5026-3.209-8.8778-5.365-13.0732l-18.924-.0928-.401-.003v-16.0605h-15.659l-.096-19.1221c-2.028-1.0552-4.119-2.0361-6.269-2.9361l-.964-.398c-1.866-.754-3.742-1.434-5.624-2.042l-13.627 13.4933-11.115 11.0049h-.481l-11.114-11.0049zm-5.291 66.2026c6.73-16.6595 25.693-24.7105 42.354-17.9795l.774.3252c16.134 6.9989 23.831 25.6301 17.205 42.0303-6.627 16.40063-25.106 24.4557-41.573 18.28318l-.782-.30469c-16.66-6.73144-24.709-25.69419-17.978-42.35449zm36.308-3.0156c-8.396-3.3918-17.952.6654-21.345 9.0615-3.392 8.3961.665 17.9524 9.061 21.3447 8.396 3.39208 17.953-.6638 21.346-9.0595 3.392-8.3963-.666-17.9544-9.062-21.3467z" fill="#000" fill-rule="evenodd"/><path d="m0 0h296v296h-296z" fill="#263603" transform="translate(882 -174)"/><path clip-rule="evenodd" d="m1029.8-102.27 20.19-19.99c5.53 1.179 11.03 2.852 16.46 5.043 6.16 2.49 11.93 5.534 17.28 9.05l.14 28.295 28.14.1397c6.74 10.3538 11.49 21.9072 13.98 34.0175l-19.72 19.917 19.65 19.85256c-1.18 5.64484-2.87 11.26476-5.11 16.79984-2.49 6.162-5.53 11.9334-9.05 17.2822l-27.89.1396-.14 27.8789c-10.36 6.8154-21.94 11.629-34.09 14.169l-19.84-19.6484-19.93 19.7236c-5.75-1.1846-11.487-2.9013-17.131-5.1817-6.007-2.4268-11.642-5.3812-16.877-8.7851l-.14-28.1553-28.287-.1416c-6.751-10.2653-11.539-21.7258-14.096-33.74803l19.985-20.18557-20.062-20.2627c1.182-5.6426 2.879-11.26 5.115-16.7929 2.426-6.0064 5.379-11.6426 8.783-16.877l28.562-.1416.142-28.55c10.257-6.673 21.691-11.396 33.676-13.903zm-25.08-2.121c-4.39 1.397-8.665 3.16-12.763 5.2661l-.096 19.3281h-16.064v16.0635l-19.333.0957c-.98 1.9092-1.894 3.8724-2.737 5.8887l-.387.9414c-.795 1.9664-1.507 3.9434-2.139 5.9267l13.592 13.7285 11.242 11.3545-11.242 11.3555-13.492 13.62597c1.427 4.42928 3.228 8.73183 5.377 12.85843l19.119.0957v16.0654h16.064l.094 18.9248c2.206 1.1319 4.482 2.1784 6.83 3.127 2.065.8355 4.145 1.5791 6.235 2.2353l13.42-13.2842 11.12-11.0029h.48l11.11 11.0029 13.32 13.1826c4.54-1.4434 8.94-3.2772 13.17-5.4775l.09-18.708h15.66v-16.0635l.4-.0019 18.72-.0948c1.06-2.0291 2.04-4.11913 2.94-6.26949l.4-.96386c.79-1.96791 1.5-3.947574 2.14-5.9336l-13.19-13.31835-11.24-11.3545 11.24-11.3555 13.28-13.415c-1.41-4.5026-3.21-8.8778-5.37-13.0732l-18.92-.0928-.4-.003v-16.0605h-15.66l-.09-19.1221c-2.03-1.0552-4.12-2.0361-6.27-2.9361l-.97-.398c-1.86-.754-3.74-1.434-5.62-2.042l-13.63 13.4933-11.11 11.0049h-.48l-11.12-11.0049zm-5.293 66.2026c6.733-16.6595 25.693-24.7105 42.353-17.9795l.78.3252c16.13 6.9989 23.83 25.6301 17.2 42.0303-6.63 16.40063-25.11 24.4557-41.57 18.28318l-.78-.30469c-16.66-6.73144-24.714-25.69419-17.983-42.35449zm36.313-3.0156c-8.4-3.3918-17.96.6654-21.35 9.0615s.66 17.9524 9.06 21.3447c8.4 3.39208 17.95-.6638 21.35-9.0595 3.39-8.3963-.67-17.9544-9.06-21.3467z" fill="#000" fill-rule="evenodd"/><path d="m0 0h296v296h-296z" fill="#ff5e00" transform="translate(0 120)"/><path clip-rule="evenodd" d="m147.796 191.73 20.19-19.99c5.531 1.179 11.037 2.852 16.462 5.043l1.15.474c5.731 2.399 11.117 5.28 16.131 8.576l.141 28.295 28.142.14c6.738 10.354 11.487 21.907 13.975 34.017l-19.718 19.917 19.656 19.853c-1.182 5.645-2.878 11.265-5.115 16.8l-.472 1.151c-2.399 5.731-5.282 11.116-8.578 16.131l-27.889.139-.139 27.879-.975.633c-10.112 6.481-21.347 11.076-33.114 13.536l-19.846-19.648-19.924 19.723-1.079-.228c-5.394-1.173-10.764-2.815-16.055-4.953-5.631-2.275-10.9363-5.014-15.8906-8.152l-.9863-.633-.1397-28.156-28.2871-.141-.627-.966c-6.2138-9.693-10.6952-20.42-13.2236-31.657l-.2461-1.125 19.9854-20.186-20.0615-20.262c1.1819-5.643 2.8788-11.261 5.1142-16.793 2.4267-6.007 5.3795-11.643 8.7832-16.877l28.5625-.142.1416-28.55c10.257-6.673 21.691-11.396 33.677-13.903zm-25.078-2.121c-4.393 1.397-8.663 3.16-12.761 5.266l-.096 19.328h-16.0644v16.064l-19.333.095c-.9795 1.91-1.8932 3.873-2.7363 5.889l-.3877.941c-.7945 1.967-1.5063 3.944-2.1387 5.927l13.5918 13.729 11.2422 11.354-11.2422 11.356-13.4922 13.626c1.4278 4.429 3.2281 8.731 5.378 12.858l19.1181.096v16.065h16.0644l.094 18.925c2.206 1.132 4.482 2.178 6.83 3.127 2.068.835 4.149 1.579 6.238 2.235l13.419-13.284 11.115-11.003h.479l11.115 11.003 13.316 13.183c4.539-1.444 8.947-3.278 13.17-5.478l.095-18.708h15.658v-16.063l.4-.002 18.721-.095c1.056-2.029 2.039-4.119 2.939-6.269l.397-.964c.796-1.968 1.506-3.948 2.139-5.934l-13.185-13.318-11.243-11.355 11.242-11.355 13.28-13.415c-1.413-4.503-3.209-8.878-5.365-13.074l-18.924-.092-.401-.003v-16.061h-15.659l-.096-19.122c-2.028-1.055-4.119-2.036-6.269-2.936l-.964-.398c-1.866-.754-3.742-1.434-5.624-2.042l-13.627 13.493-11.115 11.005h-.481l-11.114-11.005zm-5.291 66.203c6.73-16.66 25.693-24.711 42.354-17.98l.774.325c16.134 6.999 23.831 25.63 17.205 42.031-6.627 16.4-25.106 24.455-41.573 18.283l-.782-.305c-16.66-6.731-24.709-25.694-17.978-42.354zm36.308-3.016c-8.396-3.392-17.952.665-21.345 9.061-3.392 8.397.665 17.953 9.061 21.345 8.265 3.339 17.655-.539 21.183-8.67l.163-.389c3.339-8.266-.54-17.657-8.671-21.184z" fill="#000" fill-rule="evenodd"/><path d="m0 0h296v296h-296z" fill="#fc0" transform="translate(294 120)"/><path clip-rule="evenodd" d="m441.796 191.73 20.19-19.99c5.531 1.179 11.037 2.852 16.462 5.043 6.162 2.49 11.933 5.534 17.281 9.05l.141 28.295 28.142.14c6.738 10.354 11.487 21.907 13.975 34.017l-19.718 19.917 19.656 19.853c-1.182 5.645-2.878 11.265-5.115 16.8-2.489 6.162-5.535 11.933-9.05 17.282l-27.889.139-.139 27.879c-10.362 6.816-21.942 11.629-34.089 14.169l-19.846-19.648-19.924 19.724c-5.757-1.185-11.49-2.902-17.134-5.182-5.631-2.275-10.936-5.014-15.891-8.152l-.986-.633-.14-28.156-28.287-.141-.627-.966c-6.421-10.016-10.991-21.136-13.469-32.782l19.985-20.186-20.062-20.262c1.182-5.643 2.879-11.261 5.115-16.793 2.426-6.007 5.379-11.643 8.783-16.877l28.562-.142.142-28.55c10.257-6.673 21.691-11.396 33.677-13.903zm-25.078-2.121c-4.393 1.397-8.663 3.16-12.761 5.266l-.096 19.328h-16.064v16.064l-19.333.095c-.98 1.91-1.894 3.873-2.737 5.889l-.387.941c-.795 1.967-1.507 3.944-2.139 5.927l13.592 13.729 11.242 11.354-11.242 11.356-13.492 13.626c1.427 4.429 3.228 8.732 5.377 12.858l19.119.096v16.065h16.064l.094 18.925c2.206 1.132 4.482 2.178 6.83 3.127 2.068.835 4.149 1.579 6.238 2.235l13.419-13.284 11.115-11.003h.479l11.115 11.003 13.316 13.183c4.539-1.444 8.947-3.277 13.17-5.478l.095-18.708h15.658v-16.063l.4-.002 18.721-.095c1.056-2.029 2.039-4.119 2.939-6.269l.397-.964c.796-1.968 1.506-3.948 2.139-5.934l-13.185-13.318-11.243-11.355 11.242-11.355 13.28-13.415c-1.413-4.503-3.209-8.878-5.365-13.074l-18.924-.092-.401-.003v-16.061h-15.659l-.096-19.122c-2.028-1.055-4.119-2.036-6.269-2.936l-.964-.398c-1.866-.754-3.742-1.434-5.624-2.042l-13.627 13.493-11.115 11.005h-.481l-11.114-11.005zm-5.291 66.203c6.73-16.66 25.693-24.711 42.354-17.98l.774.325c16.134 6.999 23.831 25.63 17.205 42.031-6.627 16.4-25.106 24.455-41.573 18.283l-.782-.305c-16.66-6.731-24.709-25.694-17.978-42.354zm36.308-3.016c-8.396-3.392-17.952.665-21.345 9.062-3.392 8.396.665 17.952 9.061 21.344s17.953-.664 21.346-9.059c3.339-8.266-.54-17.657-8.671-21.184z" fill="#000" fill-rule="evenodd"/><path d="m0 0h296v296h-296z" fill="#6e1527" transform="translate(588 120)"/><path clip-rule="evenodd" d="m735.796 191.73 20.19-19.99c5.531 1.179 11.037 2.852 16.462 5.043 6.162 2.49 11.933 5.534 17.281 9.05l.141 28.295 28.142.14c6.738 10.354 11.487 21.907 13.975 34.017l-19.718 19.917 19.656 19.853c-1.182 5.645-2.878 11.265-5.115 16.8-2.489 6.162-5.535 11.933-9.05 17.282l-27.889.139-.139 27.879-.975.633c-10.112 6.481-21.347 11.076-33.114 13.536l-19.846-19.648-19.924 19.723-1.079-.228c-5.394-1.173-10.764-2.815-16.055-4.953-5.631-2.275-10.936-5.014-15.891-8.152l-.986-.633-.14-28.156-28.287-.141-.627-.966c-6.213-9.693-10.695-20.42-13.223-31.657l-.246-1.125 19.985-20.186-20.062-20.262c1.182-5.643 2.879-11.261 5.115-16.793 2.275-5.631 5.012-10.937 8.15-15.891l.633-.986 28.562-.142.142-28.55c10.257-6.673 21.691-11.396 33.677-13.903zm-25.078-2.121c-4.393 1.397-8.663 3.16-12.761 5.266l-.096 19.328h-16.064v16.064l-19.333.095c-.98 1.91-1.894 3.873-2.737 5.889l-.387.941c-.795 1.967-1.507 3.944-2.139 5.927l13.592 13.729 11.242 11.354-11.242 11.356-13.492 13.626c1.427 4.429 3.228 8.731 5.377 12.858l19.119.096v16.065h16.064l.094 18.925c2.206 1.132 4.482 2.178 6.83 3.127 2.068.835 4.149 1.579 6.238 2.235l13.419-13.284 11.115-11.003h.479l11.115 11.003 13.316 13.183c4.539-1.444 8.947-3.278 13.17-5.478l.095-18.708h15.658v-16.063l.4-.002 18.721-.095c1.056-2.029 2.039-4.119 2.939-6.269l.397-.964c.796-1.968 1.506-3.948 2.139-5.934l-13.185-13.318-11.243-11.355 11.242-11.355 13.28-13.415c-1.413-4.503-3.209-8.878-5.365-13.074l-18.924-.092-.401-.003v-16.061h-15.659l-.096-19.122c-2.028-1.055-4.119-2.036-6.269-2.936l-.964-.398c-1.866-.754-3.742-1.434-5.624-2.042l-13.627 13.493-11.115 11.005h-.481l-11.114-11.005zm-5.291 66.203c6.73-16.66 25.693-24.711 42.354-17.98l.774.325c16.134 6.999 23.831 25.63 17.205 42.031-6.627 16.4-25.106 24.455-41.573 18.283l-.782-.305c-16.66-6.731-24.709-25.694-17.978-42.354zm36.308-3.016c-8.396-3.392-17.952.665-21.345 9.061l-.154.394c-3.111 8.299.95 17.612 9.215 20.951s17.655-.539 21.183-8.67l.163-.389c3.339-8.266-.54-17.657-8.671-21.184z" fill="#000" fill-rule="evenodd"/><path d="m0 0h296v296h-296z" fill="#31070f" transform="translate(882 120)"/><path clip-rule="evenodd" d="m1029.8 191.73 20.19-19.99c5.53 1.179 11.03 2.852 16.46 5.043 6.16 2.49 11.93 5.534 17.28 9.05l.14 28.295 28.14.14c6.74 10.354 11.49 21.907 13.98 34.017l-19.72 19.917 19.65 19.853c-1.18 5.645-2.87 11.265-5.11 16.8-2.49 6.162-5.53 11.933-9.05 17.282l-27.89.139-.14 27.879c-10.36 6.816-21.94 11.629-34.09 14.169l-19.84-19.648-19.93 19.723c-5.75-1.184-11.487-2.901-17.131-5.181-6.007-2.427-11.642-5.381-16.877-8.785l-.14-28.156-28.287-.141c-6.751-10.266-11.539-21.726-14.096-33.748l19.985-20.186-20.062-20.262c1.182-5.643 2.879-11.261 5.115-16.793 2.426-6.007 5.379-11.643 8.783-16.877l28.562-.142.142-28.55c10.257-6.673 21.691-11.396 33.676-13.903zm-25.08-2.121c-4.39 1.397-8.665 3.16-12.763 5.266l-.096 19.328h-16.064v16.064l-19.333.095c-.98 1.91-1.894 3.873-2.737 5.889l-.387.941c-.795 1.967-1.507 3.944-2.139 5.927l13.592 13.729 11.242 11.354-11.242 11.356-13.492 13.626c1.427 4.429 3.228 8.731 5.377 12.858l19.119.096v16.065h16.064l.094 18.925c2.206 1.132 4.482 2.178 6.83 3.127 2.065.835 4.145 1.579 6.235 2.235l13.42-13.284 11.12-11.003h.48l11.11 11.003 13.32 13.183c4.54-1.444 8.94-3.278 13.17-5.478l.09-18.708h15.66v-16.063l.4-.002 18.72-.095c1.06-2.029 2.04-4.119 2.94-6.269l.4-.964c.79-1.968 1.5-3.948 2.14-5.934l-13.19-13.318-11.24-11.355 11.24-11.355 13.28-13.415c-1.41-4.503-3.21-8.878-5.37-13.074l-18.92-.092-.4-.003v-16.061h-15.66l-.09-19.122c-2.03-1.055-4.12-2.036-6.27-2.936l-.97-.398c-1.86-.754-3.74-1.434-5.62-2.042l-13.63 13.493-11.11 11.005h-.48l-11.12-11.005zm-5.293 66.203c6.733-16.66 25.693-24.711 42.353-17.98l.78.325c16.13 6.999 23.83 25.63 17.2 42.031-6.63 16.4-25.11 24.455-41.57 18.283l-.78-.305c-16.66-6.731-24.714-25.694-17.983-42.354zm36.313-3.016c-8.4-3.392-17.96.665-21.35 9.061-3.39 8.397.66 17.953 9.06 21.345s17.95-.664 21.35-9.059c3.39-8.397-.67-17.955-9.06-21.347z" fill="#000" fill-rule="evenodd"/><path d="m0 0h296v296h-296z" fill="#9d9cff" transform="translate(0 414)"/><path clip-rule="evenodd" d="m147.796 485.73 20.19-19.99c5.531 1.179 11.037 2.852 16.462 5.043l1.15.474c5.731 2.399 11.117 5.28 16.131 8.576l.141 28.295 28.142.14c6.738 10.354 11.487 21.907 13.975 34.017l-19.718 19.917 19.656 19.853c-1.182 5.645-2.878 11.265-5.115 16.8l-.472 1.151c-2.399 5.731-5.282 11.116-8.578 16.131l-27.889.139-.139 27.879-.975.633c-10.112 6.481-21.347 11.076-33.114 13.536l-19.846-19.648-19.924 19.724-1.079-.229c-5.394-1.173-10.764-2.815-16.055-4.953-5.631-2.275-10.9363-5.014-15.8906-8.152l-.9863-.633-.1397-28.156-28.2871-.141-.627-.966c-6.2138-9.693-10.6952-20.42-13.2236-31.657l-.2461-1.125 19.9854-20.186-20.0615-20.262c1.1819-5.643 2.8788-11.261 5.1142-16.793 2.4267-6.007 5.3795-11.643 8.7832-16.877l28.5625-.142.1416-28.55c10.257-6.673 21.691-11.396 33.677-13.903zm-25.078-2.121c-4.393 1.397-8.663 3.16-12.761 5.266l-.096 19.328h-16.0644v16.064l-19.333.095c-.9795 1.91-1.8932 3.873-2.7363 5.889l-.3877.941c-.7945 1.967-1.5063 3.944-2.1387 5.927l13.5918 13.729 11.2422 11.354-11.2422 11.356-13.4922 13.626c1.4278 4.429 3.2281 8.732 5.378 12.858l19.1181.096v16.065h16.0644l.094 18.925c2.206 1.132 4.482 2.178 6.83 3.127 2.068.835 4.149 1.579 6.238 2.235l13.419-13.284 11.115-11.003h.479l11.115 11.003 13.316 13.183c4.539-1.444 8.947-3.278 13.17-5.478l.095-18.708h15.658v-16.063l.4-.002 18.721-.095c1.056-2.029 2.039-4.119 2.939-6.269l.397-.964c.796-1.968 1.506-3.948 2.139-5.934l-13.185-13.318-11.243-11.355 11.242-11.355 13.28-13.415c-1.413-4.503-3.209-8.878-5.365-13.074l-18.924-.092-.401-.003v-16.061h-15.659l-.096-19.122c-2.028-1.055-4.119-2.036-6.269-2.936l-.964-.398c-1.866-.754-3.742-1.434-5.624-2.042l-13.627 13.493-11.115 11.005h-.481l-11.114-11.005zm-5.291 66.203c6.73-16.66 25.693-24.711 42.354-17.98l.774.325c16.134 6.999 23.831 25.63 17.205 42.031-6.627 16.4-25.106 24.455-41.573 18.283l-.782-.305c-16.66-6.731-24.709-25.694-17.978-42.354zm36.308-3.016c-8.396-3.392-17.952.665-21.345 9.062l-.154.393c-3.111 8.299.95 17.612 9.215 20.951s17.655-.539 21.183-8.67l.163-.389c3.339-8.266-.54-17.657-8.671-21.184z" fill="#000" fill-rule="evenodd"/><path d="m0 0h296v296h-296z" fill="#5074ef" transform="translate(294 414)"/><path clip-rule="evenodd" d="m441.796 485.73 20.19-19.99c5.531 1.179 11.037 2.852 16.462 5.043 6.162 2.49 11.933 5.534 17.281 9.05l.141 28.295 28.142.14c6.738 10.354 11.487 21.907 13.975 34.017l-19.718 19.917 19.656 19.853c-1.182 5.645-2.878 11.265-5.115 16.8-2.489 6.162-5.535 11.933-9.05 17.282l-27.889.139-.139 27.879c-10.362 6.816-21.942 11.629-34.089 14.169l-19.846-19.648-19.924 19.724c-5.757-1.185-11.49-2.902-17.134-5.182-5.631-2.275-10.936-5.014-15.891-8.152l-.986-.633-.14-28.156-28.287-.141-.627-.966c-6.421-10.016-10.991-21.136-13.469-32.782l19.985-20.186-20.062-20.262c1.182-5.643 2.879-11.261 5.115-16.793 2.426-6.007 5.379-11.643 8.783-16.877l28.562-.142.142-28.55c10.257-6.673 21.691-11.396 33.677-13.903zm-25.078-2.121c-4.393 1.397-8.663 3.16-12.761 5.266l-.096 19.328h-16.064v16.064l-19.333.095c-.98 1.91-1.894 3.873-2.737 5.889l-.387.941c-.795 1.967-1.507 3.944-2.139 5.927l13.592 13.729 11.242 11.354-11.242 11.356-13.492 13.626c1.427 4.429 3.228 8.732 5.377 12.858l19.119.096v16.065h16.064l.094 18.925c2.206 1.132 4.482 2.178 6.83 3.127 2.068.835 4.149 1.579 6.238 2.235l13.419-13.284 11.115-11.003h.479l11.115 11.003 13.316 13.183c4.539-1.444 8.947-3.278 13.17-5.478l.095-18.708h15.658v-16.063l.4-.002 18.721-.095c1.056-2.029 2.039-4.119 2.939-6.269l.397-.964c.796-1.968 1.506-3.948 2.139-5.934l-13.185-13.318-11.243-11.355 11.242-11.355 13.28-13.415c-1.413-4.503-3.209-8.878-5.365-13.074l-18.924-.092-.401-.003v-16.061h-15.659l-.096-19.122c-2.028-1.055-4.119-2.036-6.269-2.936l-.964-.398c-1.866-.754-3.742-1.434-5.624-2.042l-13.627 13.493-11.115 11.005h-.481l-11.114-11.005zm-5.291 66.203c6.73-16.66 25.693-24.711 42.354-17.98l.774.325c16.134 6.999 23.831 25.63 17.205 42.031-6.627 16.4-25.106 24.455-41.573 18.283l-.782-.305c-16.66-6.731-24.709-25.694-17.978-42.354zm36.308-3.016c-8.396-3.392-17.952.665-21.345 9.062l-.154.393c-3.111 8.299.95 17.612 9.215 20.951 8.396 3.392 17.953-.664 21.346-9.059 3.339-8.266-.54-17.657-8.671-21.184z" fill="#000" fill-rule="evenodd"/><path d="m0 0h296v296h-296z" fill="#390a91" transform="translate(588 414)"/><path clip-rule="evenodd" d="m735.796 485.73 20.19-19.99c5.531 1.179 11.037 2.852 16.462 5.043 6.162 2.49 11.933 5.534 17.281 9.05l.141 28.295 28.142.14c6.738 10.354 11.487 21.907 13.975 34.017l-19.718 19.917 19.656 19.853c-1.182 5.645-2.878 11.265-5.115 16.8-2.489 6.162-5.535 11.933-9.05 17.282l-27.889.139-.139 27.879c-10.362 6.816-21.942 11.629-34.089 14.169l-19.846-19.648-19.924 19.724-1.079-.229c-5.394-1.173-10.764-2.815-16.055-4.953-5.631-2.275-10.936-5.014-15.891-8.152l-.986-.633-.14-28.156-28.287-.141-.627-.966c-6.421-10.016-10.991-21.136-13.469-32.782l19.985-20.186-20.062-20.262c1.182-5.643 2.879-11.261 5.115-16.793 2.426-6.007 5.379-11.643 8.783-16.877l28.562-.142.142-28.55c10.257-6.673 21.691-11.396 33.677-13.903zm-25.078-2.121c-4.393 1.397-8.663 3.16-12.761 5.266l-.096 19.328h-16.064v16.064l-19.333.095c-.98 1.91-1.894 3.873-2.737 5.889l-.387.941c-.795 1.967-1.507 3.944-2.139 5.927l13.592 13.729 11.242 11.354-11.242 11.356-13.492 13.626c1.427 4.429 3.228 8.732 5.377 12.858l19.119.096v16.065h16.064l.094 18.925c2.206 1.132 4.482 2.178 6.83 3.127 2.068.835 4.149 1.579 6.238 2.235l13.419-13.284 11.115-11.003h.479l11.115 11.003 13.316 13.183c4.539-1.444 8.947-3.278 13.17-5.478l.095-18.708h15.658v-16.063l.4-.002 18.721-.095c1.056-2.029 2.039-4.119 2.939-6.269l.397-.964c.796-1.968 1.506-3.948 2.139-5.934l-13.185-13.318-11.243-11.355 11.242-11.355 13.28-13.415c-1.413-4.503-3.209-8.878-5.365-13.074l-18.924-.092-.401-.003v-16.061h-15.659l-.096-19.122c-2.028-1.055-4.119-2.036-6.269-2.936l-.964-.398c-1.866-.754-3.742-1.434-5.624-2.042l-13.627 13.493-11.115 11.005h-.481l-11.114-11.005zm-5.291 66.203c6.73-16.66 25.693-24.711 42.354-17.98l.774.325c16.134 6.999 23.831 25.63 17.205 42.031-6.627 16.4-25.106 24.455-41.573 18.283l-.782-.305c-16.66-6.731-24.709-25.694-17.978-42.354zm36.308-3.016c-8.396-3.392-17.952.665-21.345 9.062l-.154.393c-3.111 8.299.95 17.612 9.215 20.951 8.396 3.392 17.953-.664 21.346-9.059 3.339-8.266-.54-17.657-8.671-21.184z" fill="#000" fill-rule="evenodd"/><path d="m0 0h296v296h-296z" fill="#00165e" transform="translate(882 414)"/><path clip-rule="evenodd" d="m1029.8 485.73 20.19-19.99c5.53 1.179 11.03 2.852 16.46 5.043 6.16 2.49 11.93 5.534 17.28 9.05l.14 28.295 28.14.14c6.74 10.354 11.49 21.907 13.98 34.017l-19.72 19.917 19.65 19.853c-1.18 5.645-2.87 11.265-5.11 16.8-2.49 6.162-5.53 11.933-9.05 17.282l-27.89.139-.14 27.879c-10.36 6.816-21.94 11.629-34.09 14.169l-19.84-19.648-19.93 19.724c-5.75-1.185-11.487-2.902-17.131-5.182-6.007-2.427-11.642-5.381-16.877-8.785l-.14-28.156-28.287-.141c-6.751-10.265-11.539-21.726-14.096-33.748l19.985-20.186-20.062-20.262c1.182-5.643 2.879-11.261 5.115-16.793 2.426-6.007 5.379-11.643 8.783-16.877l28.562-.142.142-28.55c10.257-6.673 21.691-11.396 33.676-13.903zm-25.08-2.121c-4.39 1.397-8.665 3.16-12.763 5.266l-.096 19.328h-16.064v16.064l-19.333.095c-.98 1.91-1.894 3.873-2.737 5.889l-.387.941c-.795 1.967-1.507 3.944-2.139 5.927l13.592 13.729 11.242 11.354-11.242 11.356-13.492 13.626c1.427 4.429 3.228 8.732 5.377 12.858l19.119.096v16.065h16.064l.094 18.925c2.206 1.132 4.482 2.178 6.83 3.127 2.065.835 4.145 1.579 6.235 2.235l13.42-13.284 11.12-11.003h.48l11.11 11.003 13.32 13.183c4.54-1.444 8.94-3.278 13.17-5.478l.09-18.708h15.66v-16.063l.4-.002 18.72-.095c1.06-2.029 2.04-4.119 2.94-6.269l.4-.964c.79-1.968 1.5-3.948 2.14-5.934l-13.19-13.318-11.24-11.355 11.24-11.355 13.28-13.415c-1.41-4.503-3.21-8.878-5.37-13.074l-18.92-.092-.4-.003v-16.061h-15.66l-.09-19.122c-2.03-1.055-4.12-2.036-6.27-2.936l-.97-.398c-1.86-.754-3.74-1.434-5.62-2.042l-13.63 13.493-11.11 11.005h-.48l-11.12-11.005zm-5.293 66.203c6.733-16.66 25.693-24.711 42.353-17.98l.78.325c16.13 6.999 23.83 25.63 17.2 42.031-6.63 16.4-25.11 24.455-41.57 18.283l-.78-.305c-16.66-6.731-24.714-25.694-17.983-42.354zm36.313-3.016c-8.4-3.392-17.96.665-21.35 9.062-3.39 8.396.66 17.952 9.06 21.344s17.95-.664 21.35-9.059c3.39-8.397-.67-17.955-9.06-21.347z" fill="#000" fill-rule="evenodd"/></g></svg>