<svg fill="none" height="540" viewBox="0 0 1030 540" width="1030" xmlns="http://www.w3.org/2000/svg" xmlns:xlink="http://www.w3.org/1999/xlink"><clipPath id="a"><path d="m0 0h1030v540h-1030z"/></clipPath><clipPath id="b"><path d="m41 275h600v273h-600z"/></clipPath><clipPath id="c"><path d="m41 408h600v140h-600z"/></clipPath><clipPath id="d"><path d="m414 165h140v140h-140z"/></clipPath><g clip-path="url(#a)"><path d="m0 0h1030v540h-1030z" fill="#fc0"/><path d="m77 78h359v135h-359z" fill="#d8e1ed"/><path d="m207.759 101.355.025.013-.007.007-.018-.018c-.569.727-1.045 1.528-1.413 2.385-.006.012-.011.025-.017.037-.354.836-.607 1.723-.739 2.651v.017c-.07.491-.107.994-.107 1.505 0 .434.027.863.078 1.284h-10.567v-2.806h9.176c.017-.115.038-.229.058-.343l-8.84-2.34.736-2.711 8.95 2.369c.042-.091.083-.181.126-.27l-8.032-4.5788 1.421-2.4297 8.151 4.6455c.064-.076.129-.153.197-.228l-6.678-6.5918 2.01-1.9854 6.785 6.7005.717.7081c-.754.5706-1.432 1.2366-2.012 1.9796zm112.824-1.956h2.363l1.415 7.374 1.637-7.374h2.403l1.637 7.393 1.455-7.393h2.344l-2.363 9.838h-2.93l-1.333-6.02-1.333 6.02h-2.929l-2.363-9.838zm-5.212-.2833c3.031 0 5.009 2.1613 5.009 5.2123 0 3.05-1.98 5.191-5.009 5.191-3.03 0-5.03-2.141-5.03-5.191 0-3.051 1.979-5.2123 5.03-5.2123zm-2.767 5.2123c0 1.859.929 3.192 2.767 3.192s2.767-1.333 2.767-3.192-.929-3.232-2.767-3.232-2.767 1.414-2.767 3.232zm-5.597-8.2626v13.1716h2.223v-13.1716zm-2.384 0c-2.121 0-3.131.9899-3.131 2.7477v.5859h-1.011v1.878h1.011v7.96h2.202v-7.96h2.162v-1.878h-2.162v-.5859c0-.5651.324-.8692.95-.8692h1.415v-1.8785h-1.434zm-10.302 3.3336v9.838h2.202v-7.96h3.171v-1.878zm-5.616 10.12c-3.05 0-5.03-2.141-5.03-5.191 0-3.051 1.98-5.2123 5.03-5.2123 2.667 0 4.95 2.1613 4.465 5.9393h-7.171c.182 1.435 1.03 2.465 2.707 2.465 1.151 0 1.879-.607 2.182-1.415h2.303c-.425 2.02-2.101 3.414-4.485 3.414zm-2.667-6.282h4.969c-.121-1.172-.848-2.141-2.303-2.141-1.536 0-2.363.888-2.668 2.141zm-11.556-3.838h2.363l2.202 7.858 2.223-7.858h2.363l-3.071 9.838h-3.01l-3.071-9.838zm-12.544 3.878c0-3.374 2.162-6.2217 6.081-6.2217s6.06 2.8491 6.06 6.2217c0 3.372-2.161 6.242-6.06 6.242s-6.081-2.828-6.081-6.242zm9.756 0c0-2.02-1.111-4.1613-3.676-4.1613-2.566 0-3.738 2.1413-3.738 4.1613s1.151 4.182 3.738 4.182c2.586 0 3.676-2.162 3.676-4.182zm-20.525-5.9398h2.223v5.9998l3.171-3.9394h2.606l-3.192 3.9594 3.516 5.879h-2.465l-2.384-4.263-1.252 1.576v2.687h-2.223zm-5.696 12.1818c-3.031 0-5.01-2.141-5.01-5.191 0-3.051 1.98-5.2123 5.01-5.2123 2.686 0 4.565 1.9803 4.585 4.1413h-2.303c-.061-1.07-.707-2.141-2.282-2.141-1.919 0-2.748 1.394-2.748 3.212 0 1.817.829 3.171 2.748 3.171 1.637 0 2.282-1.151 2.343-2.384h2.283c-.041 2.545-1.839 4.404-4.626 4.404zm-11.334-10.4033c1.394 0 2.363.5651 2.989 1.5553v-1.2734h2.202v9.8384h-2.202v-1.252c-.586.949-1.535 1.535-2.989 1.535-2.748 0-4.425-2.141-4.425-5.191 0-3.051 1.677-5.2123 4.425-5.2123zm-2.16 5.2123c0 1.859.888 3.192 2.504 3.192 1.777 0 2.647-1.373 2.647-3.192s-.87-3.232-2.647-3.232c-1.616 0-2.504 1.353-2.504 3.232zm-8.182-4.929h1.313v-2.0604h2.202v2.0604h1.677v1.878h-1.677v6.082h1.959v1.878h-4.161v-7.96h-1.313zm-5.557 8.081c1.415 0 2.445-.546 2.445-1.555 0-2.505-7.475-.223-7.475-5.253 0-1.9589 1.859-3.6153 4.848-3.6153 2.627 0 4.768 1.7175 4.768 4.1823h-2.363c-.101-1.3333-.869-2.1219-2.485-2.1219s-2.424.647-2.424 1.5549c0 2.727 7.454.263 7.454 5.253 0 2.303-1.819 3.596-4.889 3.596-2.849 0-4.969-1.798-5.051-4.202h2.384c.121 1.354 1.273 2.162 2.788 2.162z" fill="#201c1d"/><path d="m180.306 153.883h3.859v3.037h-3.859zm3.859 0c1.287 0 2.373-.116 3.258-.348.907-.232 1.593-.653 2.057-1.265.485-.612.727-1.466.727-2.562 0-1.118-.242-1.972-.727-2.563-.464-.612-1.15-1.023-2.057-1.234-.885-.232-1.971-.348-3.258-.348v-3.037c1.982 0 3.691.232 5.125.696 1.455.464 2.573 1.224 3.353 2.278.781 1.033 1.171 2.436 1.171 4.208 0 1.729-.39 3.131-1.171 4.207-.78 1.054-1.898 1.824-3.353 2.309-1.434.464-3.143.696-5.125.696zm-3.859-11.357h3.859v3.037h-3.859zm0 2.088v20.057h-3.449v-20.057zm15.824 2.341h3.385v17.716h-3.385zm3.385 8.415-.474-2.626c0-.548.063-1.181.19-1.898.147-.717.432-1.402.854-2.056.443-.675 1.086-1.234 1.93-1.677.864-.442 2.003-.664 3.416-.664v3.417c-1.244 0-2.309.168-3.195.506-.886.337-1.561.907-2.025 1.708-.464.78-.696 1.877-.696 3.29zm15.472 9.807c-1.835 0-3.427-.39-4.777-1.17-1.35-.802-2.404-1.909-3.164-3.322-.738-1.413-1.107-3.027-1.107-4.84 0-1.835.369-3.459 1.107-4.872.76-1.413 1.814-2.52 3.164-3.322 1.35-.801 2.942-1.202 4.777-1.202s3.427.401 4.777 1.202c1.349.802 2.393 1.909 3.131 3.322.76 1.413 1.139 3.037 1.139 4.872 0 1.813-.379 3.427-1.139 4.84-.738 1.413-1.782 2.52-3.131 3.322-1.35.78-2.942 1.17-4.777 1.17zm0-3.1c1.16 0 2.151-.253 2.973-.759.823-.528 1.456-1.255 1.899-2.183.442-.949.664-2.046.664-3.29 0-1.266-.222-2.373-.664-3.322-.443-.949-1.076-1.677-1.899-2.183-.822-.527-1.813-.791-2.973-.791s-2.162.264-3.006.791c-.822.506-1.455 1.234-1.898 2.183s-.664 2.056-.664 3.322c0 1.244.221 2.341.664 3.29.443.928 1.076 1.655 1.898 2.183.844.506 1.846.759 3.006.759zm11.481-15.122h3.385v17.716h-3.385zm3.385 8.89-.506-3.48c0-.548.095-1.16.285-1.835.189-.675.495-1.318.917-1.93.443-.632 1.023-1.149 1.74-1.55.738-.401 1.666-.601 2.784-.601 1.096 0 2.056.232 2.879.696.822.464 1.455 1.234 1.898 2.309.464 1.055.696 2.489.696 4.303v10.914h-3.385v-10.503c0-.97-.074-1.803-.222-2.499-.126-.717-.4-1.266-.822-1.645-.422-.401-1.065-.601-1.93-.601-.738 0-1.434.242-2.088.727s-1.192 1.203-1.613 2.152c-.422.949-.633 2.13-.633 3.543zm10.693 0-.855-3.48c0-.548.106-1.16.317-1.835.232-.675.58-1.318 1.044-1.93.485-.632 1.107-1.149 1.866-1.55.781-.401 1.73-.601 2.847-.601 1.097 0 2.057.232 2.879.696.823.464 1.455 1.234 1.898 2.309.464 1.055.696 2.489.696 4.303v10.914h-3.385v-10.503c0-.97-.074-1.803-.221-2.499-.127-.717-.401-1.266-.823-1.645-.421-.401-1.065-.601-1.929-.601-.739 0-1.435.242-2.088.727-.654.485-1.192 1.203-1.614 2.152-.421.949-.632 2.13-.632 3.543zm22.11 9.332c-1.835 0-3.428-.39-4.777-1.17-1.35-.802-2.405-1.909-3.164-3.322-.738-1.413-1.107-3.027-1.107-4.84 0-1.835.369-3.459 1.107-4.872.759-1.413 1.814-2.52 3.164-3.322 1.349-.801 2.942-1.202 4.777-1.202 1.834 0 3.427.401 4.776 1.202 1.35.802 2.394 1.909 3.132 3.322.76 1.413 1.139 3.037 1.139 4.872 0 1.813-.379 3.427-1.139 4.84-.738 1.413-1.782 2.52-3.132 3.322-1.349.78-2.942 1.17-4.776 1.17zm0-3.1c1.159 0 2.151-.253 2.973-.759.823-.528 1.455-1.255 1.898-2.183.443-.949.665-2.046.665-3.29 0-1.266-.222-2.373-.665-3.322s-1.075-1.677-1.898-2.183c-.822-.527-1.814-.791-2.973-.791-1.16 0-2.162.264-3.006.791-.822.506-1.455 1.234-1.898 2.183s-.664 2.056-.664 3.322c0 1.244.221 2.341.664 3.29.443.928 1.076 1.655 1.898 2.183.844.506 1.846.759 3.006.759zm12.699 2.594v-22.145h3.384v19.234h4.081v2.911zm-2.658-14.805v-2.911h9.617v2.911zm13.544-2.911h3.417v17.716h-3.417zm-1.012-6.169 3.765-.822.854 3.828-3.796.854zm16.074 24.391c-1.834 0-3.427-.39-4.776-1.17-1.35-.802-2.405-1.909-3.164-3.322-.738-1.413-1.107-3.027-1.107-4.84 0-1.835.369-3.459 1.107-4.872.759-1.413 1.814-2.52 3.164-3.322 1.349-.801 2.942-1.202 4.776-1.202 1.835 0 3.428.401 4.777 1.202 1.35.802 2.394 1.909 3.132 3.322.759 1.413 1.139 3.037 1.139 4.872 0 1.813-.38 3.427-1.139 4.84-.738 1.413-1.782 2.52-3.132 3.322-1.349.78-2.942 1.17-4.777 1.17zm0-3.1c1.16 0 2.152-.253 2.974-.759.823-.528 1.455-1.255 1.898-2.183.443-.949.665-2.046.665-3.29 0-1.266-.222-2.373-.665-3.322s-1.075-1.677-1.898-2.183c-.822-.527-1.814-.791-2.974-.791-1.159 0-2.161.264-3.005.791-.822.506-1.455 1.234-1.898 2.183s-.664 2.056-.664 3.322c0 1.244.221 2.341.664 3.29.443.928 1.076 1.655 1.898 2.183.844.506 1.846.759 3.005.759zm11.451-15.122h3.385v2.911c.253-.591.622-1.139 1.107-1.645.485-.528 1.118-.949 1.898-1.266.78-.337 1.73-.506 2.847-.506 1.139 0 2.151.232 3.037.696.907.464 1.614 1.234 2.12 2.309.527 1.055.791 2.489.791 4.303v10.914h-3.385v-10.503c0-.97-.095-1.803-.285-2.499-.19-.717-.538-1.266-1.044-1.645-.506-.401-1.213-.601-2.119-.601-.844 0-1.646.242-2.405.727s-1.381 1.203-1.866 2.152c-.464.949-.696 2.13-.696 3.543v8.826h-3.385zm24.428 18.222c-1.16 0-2.204-.211-3.132-.633-.928-.443-1.666-1.075-2.215-1.898-.527-.822-.791-1.824-.791-3.005 0-1.392.338-2.489 1.013-3.29.675-.802 1.571-1.392 2.689-1.772 1.117-.379 2.33-.622 3.638-.727 1.328-.127 2.636-.18 3.922-.158v2.815c-2.636-.084-4.576.137-5.82.664-1.245.507-1.867 1.287-1.867 2.341 0 .907.285 1.582.854 2.025.591.422 1.403.633 2.436.633.844 0 1.592-.169 2.246-.506.675-.359 1.202-.876 1.582-1.551.38-.674.569-1.486.569-2.435v-2.12h3.385v9.111h-3.385v-1.961c-.527.78-1.223 1.391-2.087 1.834-.865.422-1.877.633-3.037.633zm-6.549-11.673c0-1.202.295-2.341.886-3.417.59-1.075 1.466-1.951 2.626-2.626 1.16-.674 2.562-1.012 4.207-1.012 2.278 0 4.028.654 5.251 1.961 1.224 1.287 1.909 3.048 2.057 5.284h-3.354c-.084-1.287-.432-2.289-1.044-3.006-.59-.738-1.56-1.107-2.91-1.107-1.012 0-1.824.179-2.436.538-.59.358-1.023.843-1.297 1.455-.274.591-.411 1.234-.411 1.93zm18.082-12.559h3.385v23.726h-3.385z" fill="#201c1d"/><rect fill="#201c1d" height="35.1501" rx="17.575" width="103.12" x="212.904" y="199.85"/><path d="m228.139 221.925v-8.947h5.732v1.358h-4.111v2.429h3.718v1.359h-3.718v3.801zm7.139 0v-6.711h1.581v6.711zm.795-7.663c-.251 0-.466-.083-.647-.249-.18-.169-.271-.371-.271-.607 0-.239.091-.442.271-.608.181-.169.396-.253.647-.253.253 0 .469.084.646.253.181.166.271.369.271.608 0 .236-.09.438-.271.607-.177.166-.393.249-.646.249zm3.994-1.284v8.947h-1.582v-8.947zm3.208 0v8.947h-1.582v-8.947zm4.597 9.078c-.673 0-1.254-.14-1.743-.42-.487-.282-.861-.681-1.123-1.197-.262-.518-.393-1.128-.393-1.83 0-.69.131-1.296.393-1.818.265-.524.635-.932 1.109-1.223.475-.294 1.033-.441 1.674-.441.413 0 .804.067 1.171.201.369.131.696.335.978.612.286.276.51.629.673 1.057.163.425.245.932.245 1.52v.485h-5.501v-1.066h3.985c-.003-.303-.069-.572-.197-.808-.128-.239-.307-.427-.537-.564-.228-.137-.493-.205-.795-.205-.324 0-.608.079-.852.236-.245.154-.436.358-.573.612-.134.25-.202.525-.205.825v.931c0 .39.071.725.214 1.005.143.276.342.489.599.637.256.146.556.219.9.219.23 0 .438-.032.624-.096.187-.067.348-.165.485-.293s.241-.287.31-.476l1.477.166c-.093.39-.271.731-.533 1.022-.259.288-.591.513-.996.673-.405.157-.868.236-1.389.236zm6.812-.013c-.527 0-.999-.136-1.416-.407-.416-.27-.745-.664-.987-1.179-.242-.516-.363-1.142-.363-1.879 0-.745.123-1.374.367-1.887.248-.516.581-.904 1.001-1.166.419-.266.887-.398 1.402-.398.393 0 .717.067.97.201.253.131.454.29.603.476.148.184.263.357.345.52h.066v-3.346h1.585v8.947h-1.555v-1.057h-.096c-.082.163-.199.336-.354.519-.154.181-.358.335-.611.464-.254.128-.573.192-.957.192zm.441-1.298c.335 0 .62-.09.856-.271.236-.183.415-.438.538-.764.122-.326.183-.706.183-1.14s-.061-.812-.183-1.132c-.12-.32-.297-.569-.533-.747-.233-.178-.52-.267-.861-.267-.352 0-.647.092-.882.276-.236.183-.414.437-.533.76-.12.323-.18.693-.18 1.11 0 .419.06.793.18 1.122.122.327.301.584.537.774.239.186.531.279.878.279zm7.939 1.18v-8.947h1.582v3.346h.065c.082-.163.197-.336.345-.52.149-.186.35-.345.603-.476.254-.134.577-.201.97-.201.519 0 .986.132 1.403.398.419.262.751.65.996 1.166.247.513.371 1.142.371 1.887 0 .737-.121 1.363-.363 1.879-.241.515-.571.909-.987 1.179-.417.271-.888.407-1.416.407-.384 0-.703-.064-.956-.192-.254-.129-.458-.283-.612-.464-.151-.183-.269-.356-.354-.519h-.092v1.057zm1.551-3.355c0 .434.061.814.184 1.14.125.326.304.581.537.764.236.181.521.271.856.271.35 0 .642-.093.878-.279.236-.19.414-.447.533-.774.123-.329.184-.703.184-1.122 0-.417-.06-.787-.179-1.11-.12-.323-.297-.577-.533-.76-.236-.184-.53-.276-.883-.276-.338 0-.624.089-.86.267s-.415.427-.538.747c-.119.32-.179.698-.179 1.132zm10.405.533v-3.889h1.582v6.711h-1.533v-1.193h-.07c-.152.376-.401.683-.747.922-.344.239-.768.358-1.272.358-.44 0-.828-.097-1.166-.293-.335-.198-.597-.484-.787-.86-.189-.379-.284-.836-.284-1.372v-4.273h1.582v4.028c0 .426.116.763.349 1.014.233.25.539.376.918.376.233 0 .459-.057.677-.171.218-.113.398-.282.537-.507.143-.227.214-.511.214-.851zm6.559-3.889v1.224h-3.858v-1.224zm-2.905-1.607h1.581v6.299c0 .213.032.376.097.49.066.11.154.186.262.227.107.041.227.061.358.061.099 0 .189-.007.271-.022.084-.014.148-.027.192-.039l.266 1.236c-.084.029-.205.061-.362.096-.155.035-.344.056-.568.062-.396.011-.753-.049-1.07-.18-.318-.134-.57-.34-.756-.62-.184-.28-.274-.629-.271-1.048zm7.579 1.607v1.224h-3.858v-1.224zm-2.906-1.607h1.582v6.299c0 .213.032.376.096.49.067.11.154.186.262.227s.227.061.358.061c.099 0 .19-.007.271-.022.085-.014.149-.027.192-.039l.267 1.236c-.084.029-.205.061-.363.096-.154.035-.343.056-.568.062-.396.011-.752-.049-1.07-.18-.317-.134-.569-.34-.756-.62-.183-.28-.274-.629-.271-1.048zm7.083 8.449c-.655 0-1.223-.144-1.704-.433-.48-.288-.853-.691-1.118-1.21-.262-.518-.393-1.124-.393-1.817s.131-1.301.393-1.822c.265-.521.638-.926 1.118-1.215.481-.288 1.049-.432 1.704-.432.656 0 1.224.144 1.704.432.481.289.852.694 1.114 1.215.265.521.398 1.129.398 1.822s-.133 1.299-.398 1.817c-.262.519-.633.922-1.114 1.21-.48.289-1.048.433-1.704.433zm.009-1.267c.355 0 .652-.098.891-.293.239-.198.417-.463.533-.795.12-.332.179-.702.179-1.11 0-.41-.059-.782-.179-1.114-.116-.335-.294-.601-.533-.799s-.536-.297-.891-.297c-.364 0-.667.099-.909.297-.238.198-.418.464-.537.799-.117.332-.175.704-.175 1.114 0 .408.058.778.175 1.11.119.332.299.597.537.795.242.195.545.293.909.293zm6.131-2.796v3.932h-1.582v-6.711h1.512v1.141h.078c.155-.376.401-.675.739-.896.34-.221.761-.332 1.262-.332.463 0 .867.099 1.21.297.347.198.615.485.804.861.192.375.287.831.284 1.367v4.273h-1.581v-4.028c0-.449-.117-.8-.35-1.053-.23-.253-.549-.38-.957-.38-.276 0-.522.061-.738.183-.213.12-.38.293-.502.52-.12.227-.179.503-.179.826z" fill="#eee"/><path d="m0 0h600v60h-600z" fill="#ff5e00" transform="translate(41 215)"/><path d="m79.5264 245.697.0284.014-.0079.008-.0205-.021c-.6478.829-1.1898 1.742-1.6084 2.718-.0064.014-.0127.029-.019.043-.4029.952-.6905 1.963-.8406 3.02v.019c-.0805.56-.1216 1.132-.1216 1.714 0 .496.03.984.0885 1.464h-12.0253v-3.197h10.4421c.019-.132.0427-.261.0664-.391l-10.0598-2.666.8374-3.089 10.1846 2.699c.0474-.103.0948-.206.1438-.307l-9.1402-5.217 1.6163-2.769 9.2761 5.293c.0726-.087.1469-.174.2243-.259l-7.5997-7.511 2.2878-2.262 7.7214 7.634.8153.807c-.858.65-1.629 1.41-2.2894 2.256zm128.3906-2.229h2.69l1.61 8.401 1.862-8.401h2.735l1.863 8.424 1.656-8.424h2.667l-2.689 11.209h-3.334l-1.517-6.859-1.516 6.859h-3.334l-2.689-11.209zm-5.931-.323c3.449 0 5.701 2.463 5.701 5.939 0 3.475-2.253 5.914-5.701 5.914-3.447 0-5.724-2.439-5.724-5.914 0-3.476 2.253-5.939 5.724-5.939zm-3.149 5.939c0 2.118 1.057 3.636 3.149 3.636s3.149-1.518 3.149-3.636-1.057-3.683-3.149-3.683-3.149 1.612-3.149 3.683zm-6.369-9.414v15.007h2.53v-15.007zm-2.712 0c-2.415 0-3.563 1.128-3.563 3.13v.668h-1.151v2.14h1.151v9.069h2.506v-9.069h2.46v-2.14h-2.46v-.668c0-.643.368-.99 1.08-.99h1.61v-2.14h-1.632zm-11.724 3.798v11.209h2.506v-9.069h3.609v-2.14zm-6.391 11.53c-3.471 0-5.724-2.439-5.724-5.914 0-3.476 2.253-5.939 5.724-5.939 3.035 0 5.633 2.463 5.081 6.768h-8.16c.207 1.634 1.172 2.807 3.081 2.807 1.309 0 2.137-.691 2.482-1.611h2.621c-.484 2.301-2.391 3.889-5.103 3.889zm-3.035-7.158h5.655c-.138-1.335-.966-2.439-2.622-2.439-1.747 0-2.689 1.012-3.035 2.439zm-13.15-4.372h2.689l2.506 8.953 2.529-8.953h2.689l-3.495 11.209h-3.425l-3.495-11.209zm-14.275 4.418c0-3.844 2.46-7.088 6.92-7.088s6.896 3.246 6.896 7.088c0 3.843-2.46 7.112-6.896 7.112-4.437 0-6.92-3.222-6.92-7.112zm11.102 0c0-2.301-1.264-4.741-4.184-4.741s-4.253 2.44-4.253 4.741c0 2.302 1.31 4.765 4.253 4.765 2.944 0 4.184-2.463 4.184-4.765zm-23.357-6.767h2.53v6.835l3.608-4.488h2.966l-3.632 4.512 4 6.698h-2.804l-2.713-4.857-1.425 1.796v3.061h-2.53zm-6.483 13.879c-3.449 0-5.7-2.439-5.7-5.914 0-3.476 2.253-5.939 5.7-5.939 3.058 0 5.195 2.256 5.219 4.719h-2.621c-.07-1.22-.804-2.439-2.598-2.439-2.183 0-3.126 1.588-3.126 3.659 0 2.07.943 3.613 3.126 3.613 1.863 0 2.598-1.312 2.667-2.716h2.598c-.046 2.899-2.092 5.017-5.265 5.017zm-12.897-11.853c1.586 0 2.689.644 3.402 1.772v-1.451h2.506v11.21h-2.506v-1.427c-.667 1.082-1.748 1.749-3.402 1.749-3.127 0-5.035-2.439-5.035-5.914 0-3.476 1.908-5.939 5.035-5.939zm-2.458 5.939c0 2.118 1.011 3.636 2.85 3.636 2.022 0 3.011-1.564 3.011-3.636 0-2.073-.989-3.683-3.011-3.683-1.839 0-2.85 1.542-2.85 3.683zm-9.3112-5.616h1.4946v-2.348h2.5056v2.348h1.909v2.14h-1.909v6.929h2.23v2.14h-4.7356v-9.069h-1.4946zm-6.3231 9.207c1.61 0 2.7823-.622 2.7823-1.772 0-2.854-8.5066-.253-8.5066-5.984 0-2.233 2.1156-4.12 5.5173-4.12 2.9893 0 5.4257 1.957 5.4257 4.765h-2.6892c-.1153-1.519-.989-2.417-2.8281-2.417s-2.7587.737-2.7587 1.772c0 3.106 8.4829.299 8.4829 5.984 0 2.624-2.0697 4.097-5.5631 4.097-3.2421 0-5.6547-2.049-5.748-4.787h2.7129c.1374 1.543 1.4488 2.463 3.1726 2.463z" fill="#201c1d"/><g clip-path="url(#b)"><path d="m0 0h600v73h-600z" fill="#eee" transform="translate(41 275)"/><path d="m81.164 324-12.924-25.2h4.356l12.888 25.2zm-14.184-25.2h3.744v25.2h-3.744zm16.02 0h3.78v25.2h-3.78zm10.8416 16.416v-3.24h13.2124l-1.584 1.116c.048-1.152-.132-2.196-.54-3.132-.384-.96-.984-1.728-1.8-2.304s-1.848-.864-3.096-.864c-1.7524 0-3.2044.54-4.3564 1.62-1.128 1.056-1.74 2.532-1.836 4.428h-4.068c.168-1.992.708-3.696 1.62-5.112.936-1.44 2.148-2.544 3.636-3.312s3.156-1.152 5.0044-1.152c1.368 0 2.652.264 3.852.792s2.232 1.308 3.096 2.34 1.5 2.292 1.908 3.78c.432 1.464.552 3.144.36 5.04zm6.1924 9.36c-1.9204 0-3.6244-.396-5.1124-1.188-1.464-.792-2.64-1.884-3.528-3.276-.888-1.416-1.416-3.048-1.584-4.896h4.032c.192 1.728.792 3.132 1.8 4.212 1.032 1.08 2.496 1.62 4.3924 1.62 1.416 0 2.532-.324 3.348-.972.84-.672 1.428-1.488 1.764-2.448h4.104c-.336 1.392-.912 2.604-1.728 3.636s-1.86 1.848-3.132 2.448c-1.272.576-2.724.864-4.356.864zm10.476-20.736h4.14l4.212 20.16h-3.312zm14.652 0-4.608 20.16h-3.6l4.644-20.16zm-2.916 0h3.6l4.608 20.16h-3.564zm14.688 0-5.04 20.16h-3.348l4.212-20.16zm5.206 13.788c.12 1.224.636 2.136 1.548 2.736.936.6 2.052.9 3.348.9s2.328-.24 3.096-.72c.792-.48 1.188-1.236 1.188-2.268 0-.624-.24-1.092-.72-1.404-.456-.336-1.068-.6-1.836-.792-.744-.192-1.572-.36-2.484-.504-.888-.144-1.788-.324-2.7-.54s-1.752-.528-2.52-.936c-.744-.432-1.344-1.008-1.8-1.728s-.684-1.656-.684-2.808c0-1.08.336-2.1 1.008-3.06.672-.984 1.62-1.764 2.844-2.34 1.248-.6 2.688-.9 4.32-.9 1.464 0 2.808.3 4.032.9 1.224.576 2.196 1.38 2.916 2.412.744 1.032 1.116 2.232 1.116 3.6h-3.672c-.096-1.224-.576-2.124-1.44-2.7-.84-.6-1.872-.9-3.096-.9-1.392 0-2.448.288-3.168.864-.696.552-1.044 1.26-1.044 2.124 0 .672.228 1.188.684 1.548.48.36 1.092.636 1.836.828.768.192 1.608.36 2.52.504s1.812.324 2.7.54c.912.216 1.74.528 2.484.936.768.384 1.38.924 1.836 1.62s.684 1.608.684 2.736c0 1.272-.336 2.388-1.008 3.348-.672.936-1.632 1.668-2.88 2.196-1.224.504-2.688.756-4.392.756-1.584 0-3.012-.3-4.284-.9-1.272-.624-2.292-1.452-3.06-2.484-.744-1.056-1.14-2.244-1.188-3.564zm16.102-20.628h3.852v27h-3.852zm10.729 18.216v-3.24h13.212l-1.584 1.116c.048-1.152-.132-2.196-.54-3.132-.384-.96-.984-1.728-1.8-2.304s-1.848-.864-3.096-.864c-1.752 0-3.204.54-4.356 1.62-1.128 1.056-1.74 2.532-1.836 4.428h-4.068c.168-1.992.708-3.696 1.62-5.112.936-1.44 2.148-2.544 3.636-3.312s3.156-1.152 5.004-1.152c1.368 0 2.652.264 3.852.792s2.232 1.308 3.096 2.34 1.5 2.292 1.908 3.78c.432 1.464.552 3.144.36 5.04zm6.192 9.36c-1.92 0-3.624-.396-5.112-1.188-1.464-.792-2.64-1.884-3.528-3.276-.888-1.416-1.416-3.048-1.584-4.896h4.032c.192 1.728.792 3.132 1.8 4.212 1.032 1.08 2.496 1.62 4.392 1.62 1.416 0 2.532-.324 3.348-.972.84-.672 1.428-1.488 1.764-2.448h4.104c-.336 1.392-.912 2.604-1.728 3.636s-1.86 1.848-3.132 2.448c-1.272.576-2.724.864-4.356.864zm13.573-.576v-25.2h3.852v21.888h4.644v3.312zm-3.024-16.848v-3.312h10.944v3.312zm16.489 16.848v-25.2h3.852v21.888h4.644v3.312zm-3.024-16.848v-3.312h10.944v3.312zm16.692 8.064v-3.24h13.212l-1.584 1.116c.048-1.152-.132-2.196-.54-3.132-.384-.96-.984-1.728-1.8-2.304s-1.848-.864-3.096-.864c-1.752 0-3.204.54-4.356 1.62-1.128 1.056-1.74 2.532-1.836 4.428h-4.068c.168-1.992.708-3.696 1.62-5.112.936-1.44 2.148-2.544 3.636-3.312s3.156-1.152 5.004-1.152c1.368 0 2.652.264 3.852.792s2.232 1.308 3.096 2.34 1.5 2.292 1.908 3.78c.432 1.464.552 3.144.36 5.04zm6.192 9.36c-1.92 0-3.624-.396-5.112-1.188-1.464-.792-2.64-1.884-3.528-3.276-.888-1.416-1.416-3.048-1.584-4.896h4.032c.192 1.728.792 3.132 1.8 4.212 1.032 1.08 2.496 1.62 4.392 1.62 1.416 0 2.532-.324 3.348-.972.84-.672 1.428-1.488 1.764-2.448h4.104c-.336 1.392-.912 2.604-1.728 3.636s-1.86 1.848-3.132 2.448c-1.272.576-2.724.864-4.356.864zm12.152-20.736h3.852v20.16h-3.852zm3.852 9.576-.54-2.988c0-.624.072-1.344.216-2.16.168-.816.492-1.596.972-2.34.504-.768 1.236-1.404 2.196-1.908.984-.504 2.28-.756 3.888-.756v3.888c-1.416 0-2.628.192-3.636.576s-1.776 1.032-2.304 1.944c-.528.888-.792 2.136-.792 3.744z" fill="#201c1d"/><path d="m0 0h600v60h-600z" fill="#eee" transform="translate(41 348)"/><path d="m65 372h126v20h-126z" fill="#d0d0d0"/><g clip-path="url(#c)"><path d="m0 0h600v140h-600z" fill="#6e1527" transform="translate(41 408)"/><path d="m635.92 605.9 21.24 36.79 87.62-151.77-21.24-36.79z" fill="#ff5e00"/><path d="m607.301 625.08 25.37 27.88 66.39-181.23-25.37-27.88z" fill="#ff5e00"/><path d="m632.67 652.96h31.86l66.39-181.23h-31.86z" fill="#f39fff"/><path d="m580.891 640.58 28.27 17.61 41.96-201.95-28.27-17.62z" fill="#ff5e00"/><path d="m609.16 658.19h31.86l41.96-201.95h-31.86z" fill="#f39fff"/><path d="m651.122 456.241h31.86l-28.27-17.62h-31.86z" fill="#6e1527"/><path d="m601.482 445.19h31.87l-29.81-6.51h-31.86z" fill="#6e1527"/><path d="m556.182 651.632 29.8 6.5 15.5-212.94-29.8-6.51z" fill="#ff5e00"/><path d="m585.98 658.132h31.87l15.5-212.94h-31.87z" fill="#f39fff"/><g fill="#ff5e00"><path d="m532.562 657.7 29.9-4.91-11.7-213.68-29.91 4.92z"/><path d="m509.371 658.511 28.57-16.1-38.35-204.1-28.56 16.1z"/><path d="m485.95 654.011 25.85-26.51-63.13-184.69-25.85 26.51z"/></g><path d="m562.462 652.79h31.87l-11.71-213.68h-31.86z" fill="#f39fff"/><path d="m537.94 642.411h31.86l-38.34-204.1h-31.87z" fill="#f39fff"/><path d="m461.64 644.411 21.88-35.64-84.88-156.37-21.89 35.64z" fill="#ff5e00"/><path d="m511.8 627.501h31.87l-63.14-184.69h-31.86z" fill="#f39fff"/><path d="m483.521 608.771h31.86l-84.88-156.37h-31.86z" fill="#f39fff"/><path d="m435.802 630.19 16.87-43.05-102.54-120.52-16.87 43.06z" fill="#ff5e00"/><path d="m452.671 587.142h31.86l-102.54-120.52h-31.86z" fill="#f39fff"/><path d="m418.932 563.642h31.87l-115.25-78.86h-31.87z" fill="#f39fff"/><path d="m407.9 612.03 11.03-48.39-115.25-78.86-11.03 48.4z" fill="#ff5e00"/><path d="m382.16 539.401h31.86l-122.41-33.39h-31.86z" fill="#fc0"/><path d="m377.48 590.802 4.68-51.4-122.41-33.39-4.67 51.4z" fill="#ff5e00"/><path d="m344.23 567.53-1.91-51.93-123.67 13.69 1.92 51.92z" fill="#ff5e00"/><path d="m307.96 543.331-8.42-49.95-118.96 60.1 8.42 49.95z" fill="#ff5e00"/><path d="m160.09 623.001h31.86l108.52-103.62h-31.86z" fill="#9d9cff"/><path d="m268.61 519.381-14.5-45.56-108.53 103.61 14.51 45.57z" fill="#ff5e00"/><path d="m226.301 496.832-19.9-38.98-92.85 142.13 19.89 38.99z" fill="#ff5e00"/><path d="m133.441 638.972h31.87l92.85-142.14h-31.86z" fill="#9d9cff"/><path d="m377.48 590.802h31.87l4.671-51.4h-31.861z" fill="#fc0"/><path d="m181.261 476.771-24.321-30.53-72.7095 173.81 24.3295 30.53z" fill="#ff5e00"/><path d="m108.561 650.581h31.86l72.71-173.81h-31.87z" fill="#9d9cff"/><path d="m344.23 567.53h31.87l-1.92-51.93h-31.86z" fill="#fc0"/><path d="m133.902 460.161-27.59-20.6-49.0503 197.1 27.58 20.6z" fill="#ff5e00"/><path d="m307.961 543.331h31.86l-8.41-49.95h-31.87z" fill="#fc0"/><path d="m84.8398 657.261h31.8702l49.05-197.1h-31.86z" fill="#9d9cff"/><path d="m268.611 519.382h31.86l-14.5-45.56h-31.86z" fill="#fc0"/><path d="m226.3 496.831h31.86l-19.9-38.98h-31.86z" fill="#fc0"/><path d="m181.261 476.771h31.87l-24.33-30.53h-31.86z" fill="#fc0"/><path d="m84.6809 447.8-29.52-9.67-23.03 210.89 29.5099 9.67z" fill="#ff5e00"/><path d="m133.901 460.161h31.86l-27.59-20.6h-31.86z" fill="#fc0"/><path d="m84.6801 447.802h31.8599l-29.5098-9.67h-31.87z" fill="#fc0"/><path d="m61.6406 658.69h31.8701l23.0303-210.89h-31.8604z" fill="#9d9cff"/><path d="m38.2912 654.812h31.86l-4.09-214.52h-31.86z" fill="#9d9cff"/><path d="m14.1098 645.79h31.86l-31.02-207.79h-31.8599z" fill="#9d9cff"/></g></g><path d="m0 0h600v60h-600z" fill="#fff" transform="translate(390 40)"/><path d="m428.526 70.6968.029.0143-.008.0079-.021-.0206c-.647.8289-1.189 1.7417-1.608 2.7177-.006.0143-.013.0285-.019.0427-.403.9523-.69 1.9632-.841 3.0199v.019c-.08.56-.121 1.1326-.121 1.7147 0 .4952.03.984.088 1.4633h-12.025v-3.197h10.442c.019-.1313.043-.261.066-.3907l-10.059-2.6656.837-3.0894 10.185 2.6987c.047-.1028.094-.2056.143-.3069l-9.14-5.2171 1.617-2.7683 9.276 5.293c.072-.087.147-.174.224-.2594l-7.6-7.5109 2.288-2.2621 7.721 7.6343.816.8067c-.858.6502-1.629 1.4095-2.29 2.2558zm128.391-2.2289h2.69l1.61 8.4015 1.862-8.4015h2.735l1.863 8.4237 1.656-8.4237h2.667l-2.689 11.2094h-3.334l-1.517-6.8591-1.516 6.8591h-3.334l-2.689-11.2094zm-5.931-.3227c3.449 0 5.701 2.463 5.701 5.9385 0 3.4754-2.253 5.9147-5.701 5.9147-3.447 0-5.724-2.4393-5.724-5.9147 0-3.4755 2.253-5.9385 5.724-5.9385zm-3.149 5.9385c0 2.1181 1.057 3.6368 3.149 3.6368s3.149-1.5187 3.149-3.6368c0-2.1182-1.057-3.6827-3.149-3.6827s-3.149 1.612-3.149 3.6827zm-6.369-9.4139v15.0075h2.53v-15.0075zm-2.712 0c-2.415 0-3.563 1.1279-3.563 3.1306v.6675h-1.151v2.1403h1.151v9.0691h2.506v-9.0691h2.46v-2.1403h-2.46v-.6675c0-.6439.368-.9903 1.08-.9903h1.61v-2.1403h-1.632zm-11.724 3.7981v11.2094h2.506v-9.0691h3.609v-2.1403zm-6.391 11.5305c-3.471 0-5.724-2.4393-5.724-5.9147 0-3.4755 2.253-5.9385 5.724-5.9385 3.035 0 5.633 2.463 5.081 6.7674h-8.16c.207 1.6341 1.172 2.8079 3.081 2.8079 1.309 0 2.137-.6913 2.482-1.612h2.621c-.484 2.3017-2.391 3.8899-5.103 3.8899zm-3.035-7.1581h5.655c-.138-1.3351-.966-2.4393-2.622-2.4393-1.747 0-2.689 1.0124-3.035 2.4393zm-13.15-4.3724h2.689l2.506 8.9536 2.529-8.9536h2.689l-3.495 11.2094h-3.425l-3.495-11.2094zm-14.275 4.4183c0-3.844 2.46-7.0885 6.92-7.0885s6.896 3.246 6.896 7.0885c0 3.8424-2.46 7.1122-6.896 7.1122-4.437 0-6.92-3.2223-6.92-7.1122zm11.102 0c0-2.3017-1.264-4.741-4.184-4.741s-4.253 2.4393-4.253 4.741c0 2.3016 1.31 4.7647 4.253 4.7647 2.944 0 4.184-2.4631 4.184-4.7647zm-23.357-6.7674h2.53v6.8354l3.608-4.4879h2.966l-3.632 4.5116 4 6.6978h-2.804l-2.713-4.8564-1.425 1.7954v3.061h-2.53zm-6.483 13.8796c-3.449 0-5.7-2.4393-5.7-5.9147 0-3.4755 2.253-5.9385 5.7-5.9385 3.058 0 5.195 2.2558 5.219 4.7188h-2.621c-.07-1.2196-.804-2.4393-2.598-2.4393-2.183 0-3.126 1.5883-3.126 3.659s.943 3.613 3.126 3.613c1.863 0 2.598-1.3114 2.667-2.7161h2.598c-.046 2.8996-2.092 5.0178-5.265 5.0178zm-12.897-11.8532c1.586 0 2.689.6439 3.402 1.7717v-1.4506h2.506v11.2094h-2.506v-1.4269c-.667 1.0821-1.748 1.7496-3.402 1.7496-3.127 0-5.035-2.4393-5.035-5.9147 0-3.4755 1.908-5.9385 5.035-5.9385zm-2.458 5.9385c0 2.1181 1.011 3.6368 2.85 3.6368 2.022 0 3.011-1.5645 3.011-3.6368s-.989-3.6827-3.011-3.6827c-1.839 0-2.85 1.5424-2.85 3.6827zm-9.311-5.6158h1.494v-2.3475h2.506v2.3475h1.909v2.1403h-1.909v6.9288h2.23v2.1403h-4.736v-9.0691h-1.494zm-6.323 9.2067c1.61 0 2.782-.6217 2.782-1.7717 0-2.8538-8.507-.2531-8.507-5.9844 0-2.232 2.116-4.1192 5.518-4.1192 2.989 0 5.425 1.9568 5.425 4.7646h-2.689c-.115-1.5186-.989-2.4171-2.828-2.4171s-2.759.7372-2.759 1.7717c0 3.1069 8.483.299 8.483 5.9844 0 2.6243-2.069 4.0971-5.563 4.0971-3.242 0-5.655-2.0486-5.748-4.7868h2.713c.138 1.5423 1.449 2.463 3.173 2.463z" fill="#201c1d"/><path d="m0 0h600v65h-600z" fill="#fff" transform="translate(390 100)"/><path d="m422.748 119.8h3.96v25.2h-3.96zm-7.92 0h19.8v3.456h-19.8zm19.991 5.04h3.852v20.16h-3.852zm3.852 9.576-.54-2.988c0-.624.072-1.344.216-2.16.168-.816.492-1.596.972-2.34.504-.768 1.236-1.404 2.196-1.908.984-.504 2.28-.756 3.888-.756v3.888c-1.416 0-2.628.192-3.636.576s-1.776 1.032-2.304 1.944c-.528.888-.792 2.136-.792 3.744zm15.544 11.16c-1.32 0-2.508-.24-3.564-.72-1.056-.504-1.896-1.224-2.52-2.16-.6-.936-.9-2.076-.9-3.42 0-1.584.384-2.832 1.152-3.744s1.788-1.584 3.06-2.016 2.652-.708 4.14-.828c1.512-.144 3-.204 4.464-.18v3.204c-3-.096-5.208.156-6.624.756-1.416.576-2.124 1.464-2.124 2.664 0 1.032.324 1.8.972 2.304.672.48 1.596.72 2.772.72.96 0 1.812-.192 2.556-.576.768-.408 1.368-.996 1.8-1.764s.648-1.692.648-2.772v-2.412h3.852v10.368h-3.852v-2.232c-.6.888-1.392 1.584-2.376 2.088-.984.48-2.136.72-3.456.72zm-7.452-13.284c0-1.368.336-2.664 1.008-3.888s1.668-2.22 2.988-2.988 2.916-1.152 4.788-1.152c2.592 0 4.584.744 5.976 2.232 1.392 1.464 2.172 3.468 2.34 6.012h-3.816c-.096-1.464-.492-2.604-1.188-3.42-.672-.84-1.776-1.26-3.312-1.26-1.152 0-2.076.204-2.772.612-.672.408-1.164.96-1.476 1.656-.312.672-.468 1.404-.468 2.196zm20.575-7.452h3.852v3.312c.288-.672.708-1.296 1.26-1.872.552-.6 1.272-1.08 2.16-1.44.888-.384 1.968-.576 3.24-.576 1.296 0 2.448.264 3.456.792 1.032.528 1.836 1.404 2.412 2.628.6 1.2.9 2.832.9 4.896v12.42h-3.852v-11.952c0-1.104-.108-2.052-.324-2.844-.216-.816-.612-1.44-1.188-1.872-.576-.456-1.38-.684-2.412-.684-.96 0-1.872.276-2.736.828s-1.572 1.368-2.124 2.448c-.528 1.08-.792 2.424-.792 4.032v10.044h-3.852zm23.838 13.788c.12 1.224.636 2.136 1.548 2.736.936.6 2.052.9 3.348.9s2.328-.24 3.096-.72c.792-.48 1.188-1.236 1.188-2.268 0-.624-.24-1.092-.72-1.404-.456-.336-1.068-.6-1.836-.792-.744-.192-1.572-.36-2.484-.504-.888-.144-1.788-.324-2.7-.54s-1.752-.528-2.52-.936c-.744-.432-1.344-1.008-1.8-1.728s-.684-1.656-.684-2.808c0-1.08.336-2.1 1.008-3.06.672-.984 1.62-1.764 2.844-2.34 1.248-.6 2.688-.9 4.32-.9 1.464 0 2.808.3 4.032.9 1.224.576 2.196 1.38 2.916 2.412.744 1.032 1.116 2.232 1.116 3.6h-3.672c-.096-1.224-.576-2.124-1.44-2.7-.84-.6-1.872-.9-3.096-.9-1.392 0-2.448.288-3.168.864-.696.552-1.044 1.26-1.044 2.124 0 .672.228 1.188.684 1.548.48.36 1.092.636 1.836.828.768.192 1.608.36 2.52.504s1.812.324 2.7.54c.912.216 1.74.528 2.484.936.768.384 1.38.924 1.836 1.62s.684 1.608.684 2.736c0 1.272-.336 2.388-1.008 3.348-.672.936-1.632 1.668-2.88 2.196-1.224.504-2.688.756-4.392.756-1.584 0-3.012-.3-4.284-.9-1.272-.624-2.292-1.452-3.06-2.484-.744-1.056-1.14-2.244-1.188-3.564zm22.874 6.948c-1.32 0-2.508-.24-3.564-.72-1.056-.504-1.896-1.224-2.52-2.16-.6-.936-.9-2.076-.9-3.42 0-1.584.384-2.832 1.152-3.744s1.788-1.584 3.06-2.016 2.652-.708 4.14-.828c1.512-.144 3-.204 4.464-.18v3.204c-3-.096-5.208.156-6.624.756-1.416.576-2.124 1.464-2.124 2.664 0 1.032.324 1.8.972 2.304.672.48 1.596.72 2.772.72.96 0 1.812-.192 2.556-.576.768-.408 1.368-.996 1.8-1.764s.648-1.692.648-2.772v-2.412h3.852v10.368h-3.852v-2.232c-.6.888-1.392 1.584-2.376 2.088-.984.48-2.136.72-3.456.72zm-7.452-13.284c0-1.368.336-2.664 1.008-3.888s1.668-2.22 2.988-2.988 2.916-1.152 4.788-1.152c2.592 0 4.584.744 5.976 2.232 1.392 1.464 2.172 3.468 2.34 6.012h-3.816c-.096-1.464-.492-2.604-1.188-3.42-.672-.84-1.776-1.26-3.312-1.26-1.152 0-2.076.204-2.772.612-.672.408-1.164.96-1.476 1.656-.312.672-.468 1.404-.468 2.196zm39.549 4.248c-.072 1.728-.504 3.276-1.296 4.644-.768 1.368-1.848 2.448-3.24 3.24-1.392.768-3.036 1.152-4.932 1.152-2.088 0-3.9-.444-5.436-1.332-1.536-.912-2.736-2.172-3.6-3.78-.84-1.608-1.26-3.444-1.26-5.508 0-2.088.42-3.936 1.26-5.544.864-1.608 2.064-2.868 3.6-3.78s3.348-1.368 5.436-1.368c1.824 0 3.432.408 4.824 1.224 1.392.792 2.484 1.836 3.276 3.132.792 1.272 1.224 2.652 1.296 4.14h-4.104c-.048-.84-.264-1.632-.648-2.376s-.96-1.356-1.728-1.836c-.744-.48-1.716-.72-2.916-.72-1.416 0-2.592.312-3.528.936-.936.6-1.644 1.44-2.124 2.52-.456 1.08-.684 2.304-.684 3.672 0 1.344.228 2.556.684 3.636.48 1.056 1.188 1.896 2.124 2.52.936.6 2.112.9 3.528.9 1.248 0 2.256-.252 3.024-.756.792-.528 1.38-1.2 1.764-2.016.384-.84.6-1.74.648-2.7zm4.315 8.46v-25.2h3.852v21.888h4.644v3.312zm-3.024-16.848v-3.312h10.944v3.312zm15.413-3.312h3.888v20.16h-3.888zm-1.152-7.02 4.284-.936.972 4.356-4.32.972zm18.293 27.756c-2.088 0-3.9-.444-5.436-1.332-1.536-.912-2.736-2.172-3.6-3.78-.84-1.608-1.26-3.444-1.26-5.508 0-2.088.42-3.936 1.26-5.544.864-1.608 2.064-2.868 3.6-3.78s3.348-1.368 5.436-1.368 3.9.456 5.436 1.368 2.724 2.172 3.564 3.78c.864 1.608 1.296 3.456 1.296 5.544 0 2.064-.432 3.9-1.296 5.508-.84 1.608-2.028 2.868-3.564 3.78-1.536.888-3.348 1.332-5.436 1.332zm0-3.528c1.32 0 2.448-.288 3.384-.864.936-.6 1.656-1.428 2.16-2.484.504-1.08.756-2.328.756-3.744 0-1.44-.252-2.7-.756-3.78s-1.224-1.908-2.16-2.484c-.936-.6-2.064-.9-3.384-.9s-2.46.3-3.42.9c-.936.576-1.656 1.404-2.16 2.484s-.756 2.34-.756 3.78c0 1.416.252 2.664.756 3.744.504 1.056 1.224 1.884 2.16 2.484.96.576 2.1.864 3.42.864zm13.03-17.208h3.852v3.312c.288-.672.708-1.296 1.26-1.872.552-.6 1.272-1.08 2.16-1.44.888-.384 1.968-.576 3.24-.576 1.296 0 2.448.264 3.456.792 1.032.528 1.836 1.404 2.412 2.628.6 1.2.9 2.832.9 4.896v12.42h-3.852v-11.952c0-1.104-.108-2.052-.324-2.844-.216-.816-.612-1.44-1.188-1.872-.576-.456-1.38-.684-2.412-.684-.96 0-1.872.276-2.736.828s-1.572 1.368-2.124 2.448c-.528 1.08-.792 2.424-.792 4.032v10.044h-3.852zm27.798 20.736c-1.32 0-2.508-.24-3.564-.72-1.056-.504-1.896-1.224-2.52-2.16-.6-.936-.9-2.076-.9-3.42 0-1.584.384-2.832 1.152-3.744s1.788-1.584 3.06-2.016 2.652-.708 4.14-.828c1.512-.144 3-.204 4.464-.18v3.204c-3-.096-5.208.156-6.624.756-1.416.576-2.124 1.464-2.124 2.664 0 1.032.324 1.8.972 2.304.672.48 1.596.72 2.772.72.96 0 1.812-.192 2.556-.576.768-.408 1.368-.996 1.8-1.764s.648-1.692.648-2.772v-2.412h3.852v10.368h-3.852v-2.232c-.6.888-1.392 1.584-2.376 2.088-.984.48-2.136.72-3.456.72zm-7.452-13.284c0-1.368.336-2.664 1.008-3.888s1.668-2.22 2.988-2.988 2.916-1.152 4.788-1.152c2.592 0 4.584.744 5.976 2.232 1.392 1.464 2.172 3.468 2.34 6.012h-3.816c-.096-1.464-.492-2.604-1.188-3.42-.672-.84-1.776-1.26-3.312-1.26-1.152 0-2.076.204-2.772.612-.672.408-1.164.96-1.476 1.656-.312.672-.468 1.404-.468 2.196zm20.577-14.292h3.852v27h-3.852z" fill="#201c1d"/><path d="m0 0h600v140h-600z" fill="#fff" transform="translate(390 165)"/><g clip-path="url(#d)"><path d="m0 0h140v140h-140z" fill="#fff" transform="translate(414 165)"/><path d="m439 250v-59.26l10.54-10.74h39.46v70z" fill="#9d9cff"/><path d="m484 201.439h-13v26.56h13z" fill="#9d9cff"/><path d="m424 250v-63l12-12h43v75z" fill="#d8e1ed"/><path d="m424 187h12v-12z" fill="#5074ef"/><path d="m464 194h-32v3h32zm0 13h-32v3h32zm-5 13h-27v3h27z" fill="#00165e"/><path d="m529 230h15v65h-15z" fill="#ff5e00"/><path d="m509 190c2.652 0 5.196 1.054 7.071 2.929s2.929 4.419 2.929 7.071v30h10v65h-75v-65h20v-30c0-2.652 1.054-5.196 2.929-7.071s4.419-2.929 7.071-2.929zm-25 40h25v-30h-25z" fill="#fc0"/><path d="m490.98 247c2.05.006 4.037.713 5.63 2.004 1.592 1.291 2.695 3.088 3.125 5.093s.161 4.096-.762 5.927-2.445 3.29-4.313 4.136l1.77 14.12c.08.66-.44 1.26-1.12 1.26h-8.67c-.68 0-1.2-.6-1.12-1.27l1.77-14.11c-1.878-.839-3.411-2.298-4.341-4.132-.931-1.834-1.203-3.933-.77-5.944.432-2.011 1.543-3.812 3.145-5.102 1.602-1.289 3.599-1.989 5.656-1.982z" fill="#201c1d"/></g><path d="m0 0h600v40h-600z" fill="#fff" transform="translate(390 305)"/><path d="m0 0h600v170h-600z" fill="#fff" transform="translate(390 345)"/><g fill="#e8e8e8"><path d="m414 345h534v20h-534z"/><path d="m414 375h420v20h-420z"/><path d="m414 405h494v20h-494z"/><path d="m414 435h534v20h-534z"/><path d="m414 465h400v20h-400z"/><path d="m414 495h474v20h-474z"/></g><path d="m0 0h600v40h-600z" fill="#fff" transform="translate(390 515)"/></g></svg>