<svg width="1030" height="540" viewBox="0 0 1030 540" fill="none" xmlns="http://www.w3.org/2000/svg">
<rect width="1030" height="540" fill="#646464"/>
<g clip-path="url(#clip0_0_1)">
<rect width="1030" height="540" fill="#C6D1E1"/>
<path d="M351.824 297.51H384.126V465H351.824V297.51ZM342.254 239.188L377.845 231.412L385.921 267.601L350.03 275.677L342.254 239.188ZM415.843 297.51H447.846V325.026C450.239 319.443 453.728 314.259 458.314 309.474C462.9 304.489 468.882 300.501 476.259 297.51C483.637 294.32 492.61 292.725 503.177 292.725C513.945 292.725 523.515 294.918 531.89 299.305C540.464 303.691 547.143 310.969 551.929 321.138C556.914 331.108 559.406 344.667 559.406 361.814V465H527.404V365.702C527.404 356.53 526.506 348.654 524.712 342.074C522.917 335.295 519.627 330.111 514.842 326.522C510.056 322.733 503.377 320.839 494.803 320.839C486.827 320.839 479.25 323.132 472.072 327.718C464.894 332.304 459.012 339.084 454.426 348.056C450.039 357.029 447.846 368.195 447.846 381.554V465H415.843V297.51ZM674.607 469.785C660.051 469.785 648.187 466.695 639.015 460.514C629.843 454.133 622.864 445.659 618.079 435.091C613.294 424.324 610.303 412.261 609.106 398.901L608.508 364.805C610.103 350.25 613.493 337.588 618.677 326.821C623.861 316.054 631.039 307.679 640.212 301.697C649.583 295.716 661.048 292.725 674.607 292.725C690.159 292.725 703.519 296.513 714.685 304.09C725.851 311.667 734.524 322.135 740.705 335.494C746.887 348.854 749.977 364.207 749.977 381.554C749.977 398.702 746.887 413.955 740.705 427.315C734.524 440.674 725.851 451.142 714.685 458.719C703.519 466.097 690.159 469.785 674.607 469.785ZM588.768 465V240.683H620.771V465H588.768ZM670.12 440.475C680.09 440.475 688.465 438.082 695.244 433.297C702.223 428.312 707.606 421.433 711.395 412.659C715.183 403.687 717.077 393.318 717.077 381.554C717.077 369.591 715.183 359.123 711.395 350.15C707.606 341.177 702.223 334.298 695.244 329.513C688.465 324.528 680.09 322.035 670.12 322.035C659.154 322.035 649.982 324.628 642.604 329.812C635.426 334.996 629.943 342.074 626.154 351.047C622.565 360.02 620.771 370.189 620.771 381.554C620.771 392.72 622.565 402.79 626.154 411.762C629.943 420.735 635.426 427.813 642.604 432.997C649.982 437.982 659.154 440.475 670.12 440.475ZM852.315 469.785C834.967 469.785 819.913 466.097 807.152 458.719C794.391 451.142 784.421 440.674 777.243 427.315C770.265 413.955 766.775 398.702 766.775 381.554C766.775 364.207 770.265 348.854 777.243 335.494C784.421 322.135 794.391 311.667 807.152 304.09C819.913 296.513 834.967 292.725 852.315 292.725C869.662 292.725 884.716 296.513 897.477 304.09C910.238 311.667 920.108 322.135 927.087 335.494C934.265 348.854 937.854 364.207 937.854 381.554C937.854 398.702 934.265 413.955 927.087 427.315C920.108 440.674 910.238 451.142 897.477 458.719C884.716 466.097 869.662 469.785 852.315 469.785ZM852.315 440.475C863.281 440.475 872.653 438.082 880.429 433.297C888.205 428.312 894.187 421.433 898.374 412.659C902.562 403.687 904.655 393.318 904.655 381.554C904.655 369.591 902.562 359.123 898.374 350.15C894.187 341.177 888.205 334.298 880.429 329.513C872.653 324.528 863.281 322.035 852.315 322.035C841.348 322.035 831.877 324.528 823.901 329.513C816.125 334.298 810.143 341.177 805.956 350.15C801.769 359.123 799.675 369.591 799.675 381.554C799.675 393.318 801.769 403.687 805.956 412.659C810.143 421.433 816.125 428.312 823.901 433.297C831.877 438.082 841.348 440.475 852.315 440.475ZM941.717 297.51H978.804L1085.58 465H1048.49L941.717 297.51ZM1084.68 297.51L977.906 465H940.819L1047.59 297.51H1084.68Z" fill="black"/>
<path d="M210.833 250.906C225.133 250.906 236.867 261.723 238.333 275.656V443.406H210.833V470.906H-30.25C-36.6361 470.29 -42.6056 467.46 -47.1255 462.907C-51.6453 458.354 -54.4309 452.363 -55 445.973V443.406V275.656C-54.3837 269.27 -51.554 263.301 -47.0007 258.781C-42.4474 254.261 -36.4571 251.475 -30.0667 250.906H-27.5H210.833ZM118.433 374.29C103.033 387.49 80.3 387.49 64.9 374.29L-27.5 295.273V443.406H210.833V295.273L118.433 374.29ZM82.6833 353.573C87.8167 357.973 95.5167 357.973 100.65 353.573L188.1 278.59H-4.76667L82.6833 353.573Z" fill="black"/>
<circle cx="230" cy="250.906" r="36" fill="#FF5E00"/>
</g>
<defs>
<clipPath id="clip0_0_1">
<rect width="1030" height="540" fill="white"/>
</clipPath>
</defs>
</svg>
