<svg width="1030" height="540" viewBox="0 0 1030 540" fill="none" xmlns="http://www.w3.org/2000/svg">
<rect width="1030" height="540" fill="#5074EF"/>
<path d="M306.498 392.143C307.327 392.296 308.165 392.413 309.01 392.496H311.772V394.496H308.91L308.862 394.492C307.945 394.404 307.035 394.276 306.135 394.109L306.498 392.143ZM323.027 394.496H317.399V392.496H323.027V394.496ZM334.282 394.496H328.654V392.496H334.282V394.496ZM345.537 394.496H339.909V392.496H345.537V394.496ZM356.792 394.496H351.164V392.496H356.792V394.496ZM368.047 394.496H362.42V392.496H368.047V394.496ZM379.302 394.496H373.675V392.496H379.302V394.496ZM390.557 394.496H384.93V392.496H390.557V394.496ZM401.812 394.496H396.185V392.496H401.812V394.496ZM413.066 394.496H407.439V392.496H413.066V394.496ZM424.322 394.496H418.694V392.496H424.322V394.496ZM435.577 394.496H429.949V392.496H435.577V394.496ZM446.832 394.496H441.204V392.496H446.832V394.496ZM458.087 394.496H452.459V392.496H458.087V394.496ZM469.342 394.496H463.714V392.496H469.342V394.496ZM480.597 394.496H474.969V392.496H480.597V394.496ZM491.852 394.496H486.225V392.496H491.852V394.496ZM503.106 394.496H497.479V392.496H503.106V394.496ZM514.361 394.496H508.734V392.496H514.361V394.496ZM525.616 394.496H519.989V392.496H525.616V394.496ZM536.871 394.496H531.244V392.496H536.871V394.496ZM548.126 394.496H542.499V392.496H548.126V394.496ZM559.382 394.496H553.754V392.496H559.382V394.496ZM570.637 394.496H565.009V392.496H570.637V394.496ZM580.077 394.496H576.264V392.496H578.077V390.929H580.077V394.496ZM296.866 388.561C298.353 389.43 299.912 390.169 301.526 390.77L301.178 391.707L300.83 392.644C299.108 392.003 297.443 391.215 295.856 390.287L296.866 388.561ZM289.022 381.921C289.572 382.58 290.151 383.216 290.76 383.829C291.368 384.442 292.001 385.027 292.656 385.581L292.01 386.344L291.364 387.107C290.666 386.516 289.99 385.892 289.341 385.238C288.692 384.584 288.073 383.904 287.486 383.201L288.255 382.561L289.022 381.921ZM580.077 385.794H578.077V380.658H580.077V385.794ZM283.899 373.012C284.488 374.63 285.216 376.195 286.074 377.688L285.208 378.188L284.341 378.686C283.425 377.092 282.648 375.423 282.021 373.695L283.899 373.012ZM580.077 375.522H578.077V370.388H580.077V375.522ZM282.228 365.51C282.304 366.357 282.416 367.198 282.563 368.03L280.595 368.38C280.435 367.479 280.313 366.567 280.231 365.649L280.228 365.604V364.842H282.228V365.51ZM580.077 361.685H581.646V363.685H580.077V365.252H578.077V363.685H576.296V361.685H578.077V359.918H580.077V361.685ZM313.04 361.685H314.821V363.685H311.04V359.918H313.04V361.685ZM325.948 363.685H320.385V361.685H325.948V363.685ZM337.074 363.685H331.511V361.685H337.074V363.685ZM348.201 363.685H342.638V361.685H348.201V363.685ZM359.327 363.685H353.765V361.685H359.327V363.685ZM370.454 363.685H364.891V361.685H370.454V363.685ZM381.581 363.685H376.018V361.685H381.581V363.685ZM392.707 363.685H387.144V361.685H392.707V363.685ZM403.834 363.685H398.271V361.685H403.834V363.685ZM414.961 363.685H409.397V361.685H414.961V363.685ZM426.087 363.685H420.523V361.685H426.087V363.685ZM437.214 363.685H431.65V361.685H437.214V363.685ZM448.34 363.685H442.777V361.685H448.34V363.685ZM459.467 363.685H453.903V361.685H459.467V363.685ZM470.594 363.685H465.03V361.685H470.594V363.685ZM481.72 363.685H476.156V361.685H481.72V363.685ZM492.847 363.685H487.283V361.685H492.847V363.685ZM503.974 363.685H498.41V361.685H503.974V363.685ZM515.1 363.685H509.536V361.685H515.1V363.685ZM526.227 363.685H520.663V361.685H526.227V363.685ZM537.353 363.685H531.79V361.685H537.353V363.685ZM548.479 363.685H542.916V361.685H548.479V363.685ZM559.606 363.685H554.043V361.685H559.606V363.685ZM570.732 363.685H565.169V361.685H570.732V363.685ZM591.916 363.685H586.78V361.685H591.916V363.685ZM602.187 363.685H597.052V361.685H602.187V363.685ZM610.89 363.685H607.322V361.685H608.89V359.921H610.89V363.685ZM282.228 363.403H280.228V359.921H282.228V363.403ZM282.228 354.393H280.228V348.864H282.228V354.393ZM610.89 354.393H608.89V348.864H610.89V354.393ZM313.04 354.386H311.04V348.854H313.04V354.386ZM580.077 354.386H578.077V348.854H580.077V354.386ZM282.228 343.336H280.228V337.809H282.228V343.336ZM610.89 343.336H608.89V337.809H610.89V343.336ZM313.04 343.321H311.04V337.788H313.04V343.321ZM580.077 343.321H578.077V337.788H580.077V343.321ZM282.228 332.28H280.228V326.752H282.228V332.28ZM610.89 332.28H608.89V326.752H610.89V332.28ZM313.04 332.256H311.04V326.724H313.04V332.256ZM580.077 332.256H578.077V326.724H580.077V332.256ZM282.228 321.225H280.228V315.696H282.228V321.225ZM610.89 321.225H608.89V315.696H610.89V321.225ZM313.04 321.19H311.04V315.658H313.04V321.19ZM580.077 321.19H578.077V315.658H580.077V321.19ZM282.228 310.168H280.228V304.64H282.228V310.168ZM610.89 310.168H608.89V304.64H610.89V310.168ZM313.04 310.126H311.04V304.594H313.04V310.126ZM580.077 310.126H578.077V304.594H580.077V310.126ZM282.228 299.112H280.228V293.584H282.228V299.112ZM610.89 299.112H608.89V293.584H610.89V299.112ZM313.04 299.061H311.04V293.528H313.04V299.061ZM580.077 299.061H578.077V293.528H580.077V299.061ZM448.337 297.254C446.487 297.363 444.631 297.363 442.78 297.254L442.897 295.258C444.67 295.362 446.447 295.362 448.22 295.258L448.337 297.254ZM432.438 293.391C434.142 293.908 435.87 294.322 437.612 294.633L437.261 296.602C435.441 296.277 433.637 295.845 431.857 295.305L432.147 294.348L432.438 293.391ZM458.97 294.348L459.26 295.305C457.481 295.845 455.676 296.277 453.856 296.602L453.505 294.633C455.247 294.322 456.975 293.908 458.679 293.391L458.97 294.348ZM422.709 289.124C424.249 290.031 425.832 290.838 427.447 291.546L426.645 293.378C424.958 292.638 423.304 291.794 421.694 290.847L422.202 289.985L422.709 289.124ZM468.915 289.985L469.423 290.847C467.814 291.794 466.16 292.638 464.473 293.378L463.67 291.546C465.285 290.838 466.868 290.031 468.408 289.124L468.915 289.985ZM282.228 288.056H280.228V282.527H282.228V288.056ZM610.89 288.056H608.89V282.527H610.89V288.056ZM313.04 287.996H311.04V282.464H313.04V287.996ZM580.077 287.996H578.077V282.464H580.077V287.996ZM416.218 284.483L416.219 284.484C416.897 285.066 417.589 285.624 418.292 286.158L417.081 287.75C416.347 287.192 415.626 286.61 414.918 286.004L412.762 284.159L413.411 283.399L414.062 282.639L416.218 284.483ZM477.706 283.399L478.355 284.159L476.199 286.004C475.492 286.61 474.77 287.192 474.036 287.75L472.825 286.158C473.528 285.624 474.22 285.066 474.898 284.484L474.899 284.483L477.056 282.639L477.706 283.399ZM409.747 278.95L409.098 279.71L408.447 280.47L404.134 276.781L404.784 276.021L405.434 275.262L409.747 278.95ZM486.333 276.021L486.983 276.781L482.67 280.47L482.02 279.71L481.37 278.95L485.684 275.262L486.333 276.021ZM282.228 277H280.228V271.472H282.228V277ZM610.89 277H608.89V271.472H610.89V277ZM313.04 276.931H311.04V271.398H313.04V276.931ZM580.077 276.931H578.077V271.398H580.077V276.931ZM401.12 271.572L400.471 272.332L399.82 273.093L395.507 269.403L396.156 268.644L396.807 267.884L401.12 271.572ZM494.961 268.644L495.61 269.403L491.297 273.093L490.646 272.332L489.997 271.572L494.311 267.884L494.961 268.644ZM448.282 265.491L448.456 266.477C446.541 266.814 444.576 266.814 442.661 266.477L442.835 265.491L443.008 264.507C444.693 264.804 446.424 264.804 448.109 264.507L448.282 265.491ZM282.228 265.943H280.228V260.416H282.228V265.943ZM610.89 265.943H608.89V260.416H610.89V265.943ZM313.04 265.866H311.04V260.334H313.04V265.866ZM580.077 265.866H578.077V260.334H580.077V265.866ZM392.493 264.194L391.843 264.954L391.193 265.715L386.879 262.025L387.529 261.266L388.179 260.506L392.493 264.194ZM503.588 261.266L504.238 262.025L499.924 265.715L499.274 264.955L498.624 264.194L502.938 260.506L503.588 261.266ZM436.145 261.272C436.801 261.835 437.499 262.33 438.226 262.755L437.216 264.481C436.387 263.996 435.591 263.433 434.843 262.791L432.801 261.041L433.452 260.281L434.103 259.522L436.145 261.272ZM457.665 260.281L458.316 261.041L456.274 262.791C455.526 263.433 454.731 263.996 453.901 264.481L452.892 262.755C453.619 262.33 454.316 261.835 454.973 261.272L457.015 259.522L457.665 260.281ZM383.865 256.816L383.216 257.577L382.565 258.337L378.252 254.647L378.901 253.888L379.552 253.128L383.865 256.816ZM512.216 253.888L512.865 254.647L508.552 258.337L507.901 257.577L507.252 256.816L511.565 253.128L512.216 253.888ZM430.021 256.021L429.369 256.781L428.719 257.54L424.636 254.039L425.287 253.28L425.938 252.521L430.021 256.021ZM465.83 253.28L466.481 254.039L462.398 257.54L461.748 256.781L461.097 256.021L465.18 252.521L465.83 253.28ZM282.228 254.888H280.228V249.359H282.228V254.888ZM610.89 254.888H608.89V249.359H610.89V254.888ZM313.04 254.801H311.04V249.269H313.04V254.801ZM580.077 254.801H578.077V249.269H580.077V254.801ZM375.238 249.439L374.588 250.199L373.938 250.959L369.624 247.271L370.274 246.51L370.925 245.75L375.238 249.439ZM520.843 246.51L521.493 247.271L517.179 250.959L516.529 250.199L515.879 249.439L520.192 245.75L520.843 246.51ZM421.855 249.021L421.204 249.779L420.554 250.539L416.471 247.038L417.122 246.279L417.772 245.52L421.855 249.021ZM473.995 246.279L474.646 247.038L470.563 250.539L469.913 249.779L469.262 249.021L473.345 245.52L473.995 246.279ZM282.228 243.831H280.228V238.304H282.228V243.831ZM610.89 243.831H608.89V238.304H610.89V243.831ZM313.04 243.736H311.04V238.204H313.04V243.736ZM580.077 243.736H578.077V238.204H580.077V243.736ZM366.61 242.062L365.961 242.821L365.311 243.581L360.997 239.893L361.647 239.133L362.297 238.372L366.61 242.062ZM529.47 239.133L530.12 239.893L525.807 243.581L525.156 242.821L524.507 242.062L528.82 238.372L529.47 239.133ZM413.69 242.02L413.039 242.778L412.388 243.538L408.306 240.037L408.956 239.278L409.607 238.519L413.69 242.02ZM482.161 239.278L482.812 240.037L478.729 243.538L478.078 242.778L477.428 242.02L481.51 238.519L482.161 239.278ZM405.524 235.019L404.874 235.777L404.223 236.536L400.141 233.036L400.791 232.276L401.442 231.518L405.524 235.019ZM490.326 232.276L490.977 233.036L486.895 236.536L486.243 235.777L485.593 235.019L489.675 231.518L490.326 232.276ZM357.983 234.684L357.333 235.443L356.684 236.203L352.37 232.515L353.02 231.755L353.67 230.994L357.983 234.684ZM538.098 231.755L538.747 232.515L534.434 236.203L533.784 235.443L533.134 234.684L537.447 230.994L538.098 231.755ZM282.228 232.775H280.228V227.247H282.228V232.775ZM610.89 232.775H608.89V227.247H610.89V232.775ZM313.04 232.671H311.04V227.139H313.04V232.671ZM580.077 232.671H578.077V227.139H580.077V232.671ZM397.359 228.017L396.709 228.776L396.058 229.535L391.976 226.034L392.626 225.275L393.277 224.517L397.359 228.017ZM499.143 226.034L495.06 229.535L494.408 228.776L493.758 228.017L497.84 224.517L499.143 226.034ZM349.355 227.306L348.706 228.065L348.056 228.826L343.742 225.137L344.393 224.377L345.042 223.617L349.355 227.306ZM546.725 224.377L547.375 225.137L543.062 228.826L542.411 228.065L541.762 227.306L546.075 223.617L546.725 224.377ZM389.194 221.016L388.543 221.775L387.893 222.534L383.81 219.033L384.461 218.274L385.111 217.516L389.194 221.016ZM506.656 218.274L507.308 219.033L503.225 222.534L502.574 221.775L501.923 221.016L506.006 217.516L506.656 218.274ZM282.228 221.72H280.228V216.191H282.228V221.72ZM610.89 221.72H608.89V216.191H610.89V221.72ZM313.04 221.606H311.04V216.074H313.04V221.606ZM580.077 221.606H578.077V216.074H580.077V221.606ZM340.729 219.928L340.078 220.688L339.429 221.448L335.115 217.759L335.765 216.999L336.415 216.239L340.729 219.928ZM555.353 216.999L556.002 217.759L551.688 221.448L551.039 220.688L550.389 219.928L554.702 216.239L555.353 216.999ZM381.029 214.015L380.378 214.773L379.728 215.533L375.645 212.032L376.296 211.273L376.946 210.514L381.029 214.015ZM514.821 211.273L515.473 212.032L511.39 215.533L510.739 214.773L510.088 214.015L514.171 210.514L514.821 211.273ZM332.102 212.55L331.451 213.311L330.802 214.07L326.487 210.381L327.138 209.621L327.787 208.861L332.102 212.55ZM563.979 209.621L564.63 210.381L560.315 214.07L559.666 213.311L559.016 212.55L563.33 208.861L563.979 209.621ZM282.228 210.663H280.228V205.135H282.228V210.663ZM610.89 210.663H608.89V205.135H610.89V210.663ZM313.04 210.541H311.04V205.009H313.04V210.541ZM580.077 210.541H578.077V205.009H580.077V210.541ZM372.864 207.014L372.213 207.772L371.562 208.531L367.479 205.031L368.131 204.271L368.781 203.513L372.864 207.014ZM522.986 204.271L523.638 205.031L519.555 208.531L518.904 207.772L518.253 207.014L522.336 203.513L522.986 204.271ZM323.474 205.173L322.824 205.933L322.174 206.692L317.86 203.004L318.51 202.243L319.16 201.483L323.474 205.173ZM572.607 202.243L573.257 203.004L568.943 206.692L568.293 205.933L567.644 205.173L571.957 201.483L572.607 202.243ZM364.699 200.012L364.048 200.771L363.396 201.53L359.314 198.03L359.965 197.271L360.616 196.512L364.699 200.012ZM531.152 197.271L531.803 198.03L527.721 201.53L527.069 200.771L526.419 200.013L530.501 196.512L531.152 197.271ZM282.228 199.607H280.228V194.079H282.228V199.607ZM610.89 199.607H608.89V194.079H610.89V199.607ZM312.689 195.95L314.847 197.795L314.196 198.555L313.547 199.314L313.04 198.881V199.477H311.04V194.539L312.689 195.95ZM580.077 199.477H578.077V198.881L577.57 199.314L576.921 198.555L576.271 197.795L578.428 195.95L580.077 194.539V199.477ZM356.533 193.011L355.883 193.771L355.231 194.529L351.149 191.028L351.8 190.27L352.451 189.511L356.533 193.011ZM539.317 190.27L539.968 191.028L535.886 194.529L535.234 193.771L534.584 193.011L538.666 189.511L539.317 190.27ZM282.228 188.551H280.228V183.023H282.228V188.551ZM610.89 188.551H608.89V183.022H610.89V188.551ZM348.368 186.01L347.718 186.769L347.066 187.528L342.983 184.027L343.635 183.269L344.286 182.509L348.368 186.01ZM547.482 183.269L548.134 184.027L544.051 187.528L543.399 186.769L542.749 186.01L546.831 182.509L547.482 183.269ZM340.354 179.018H340.195L339.552 179.768L338.901 180.527L336.86 178.776L334.809 177.018H340.354V179.018ZM554.257 178.776L552.216 180.527L551.565 179.768L550.922 179.018H550.763V177.018H556.309L554.257 178.776ZM351.728 179.018H346.041V177.018H351.728V179.018ZM363.102 179.018H357.414V177.018H363.102V179.018ZM374.475 179.018H368.788V177.018H374.475V179.018ZM385.848 179.018H380.161V177.018H385.848V179.018ZM397.222 179.018H391.535V177.018H397.222V179.018ZM408.595 179.018H402.908V177.018H408.595V179.018ZM419.969 179.018H414.281V177.018H419.969V179.018ZM431.342 179.018H425.655V177.018H431.342V179.018ZM442.715 179.018H437.028V177.018H442.715V179.018ZM454.089 179.018H448.402V177.018H454.089V179.018ZM465.462 179.018H459.775V177.018H465.462V179.018ZM476.836 179.018H471.148V177.018H476.836V179.018ZM488.209 179.018H482.522V177.018H488.209V179.018ZM499.582 179.018H493.896V177.018H499.582V179.018ZM510.956 179.018H505.27V177.018H510.956V179.018ZM522.329 179.018H516.643V177.018H522.329V179.018ZM533.703 179.018H528.016V177.018H533.703V179.018ZM545.076 179.018H539.39V177.018H545.076V179.018ZM282.582 172.271C282.429 173.099 282.31 173.937 282.228 174.781V177.495H280.228V174.683L280.232 174.635C280.321 173.717 280.449 172.807 280.615 171.907L282.582 172.271ZM610.445 171.73C610.634 172.681 610.781 173.647 610.884 174.626L610.89 174.679V177.495H608.89V174.785C608.793 173.884 608.657 172.995 608.483 172.12L609.465 171.925L610.445 171.73ZM286.164 162.639C285.295 164.125 284.555 165.685 283.955 167.299L283.018 166.95L282.08 166.603C282.721 164.88 283.51 163.215 284.438 161.629L286.164 162.639ZM606.124 160.905C607.161 162.547 608.054 164.291 608.783 166.118L607.854 166.489L606.926 166.859C606.242 165.147 605.406 163.512 604.434 161.973L605.278 161.438L606.124 160.905ZM292.163 154.027L292.804 154.795C292.145 155.344 291.507 155.924 290.895 156.532C290.282 157.141 289.698 157.774 289.144 158.429L288.38 157.782L287.617 157.137C288.209 156.438 288.831 155.762 289.485 155.113C290.139 154.464 290.819 153.845 291.522 153.259L292.163 154.027ZM598.213 152.347C599.779 153.518 601.235 154.83 602.561 156.264L601.092 157.621C599.849 156.277 598.484 155.046 597.016 153.948L598.213 152.347ZM301.371 148.732L301.712 149.672C300.093 150.26 298.528 150.988 297.035 151.847L296.537 150.98L296.038 150.113C297.631 149.197 299.302 148.421 301.029 147.793L301.371 148.732ZM587.76 147.189C589.659 147.723 591.487 148.428 593.225 149.286L592.34 151.079C590.711 150.275 588.998 149.615 587.219 149.115L587.76 147.189ZM309.883 148H309.214C308.367 148.077 307.525 148.188 306.693 148.336L306.52 147.352L306.345 146.367C307.246 146.207 308.157 146.086 309.075 146.004L309.119 146H309.883V148ZM579.077 146C580.063 146 581.039 146.045 582.003 146.132L581.823 148.124C580.92 148.042 580.003 148 579.077 148H576.296V146H579.077ZM314.821 148H311.32V146H314.821V148ZM325.948 148H320.385V146H325.948V148ZM337.074 148H331.511V146H337.074V148ZM348.201 148H342.638V146H348.201V148ZM359.327 148H353.765V146H359.327V148ZM370.454 148H364.891V146H370.454V148ZM381.581 148H376.018V146H381.581V148ZM392.707 148H387.145V146H392.707V148ZM403.834 148H398.271V146H403.834V148ZM414.961 148H409.397V146H414.961V148ZM426.087 148H420.523V146H426.087V148ZM437.214 148H431.65V146H437.214V148ZM448.34 148H442.777V146H448.34V148ZM459.467 148H453.903V146H459.467V148ZM470.594 148H465.03V146H470.594V148ZM481.72 148H476.156V146H481.72V148ZM492.847 148H487.283V146H492.847V148ZM503.974 148H498.41V146H503.974V148ZM515.1 148H509.536V146H515.1V148ZM526.227 148H520.663V146H526.227V148ZM537.353 148H531.79V146H537.353V148ZM548.479 148H542.916V146H548.479V148ZM559.606 148H554.043V146H559.606V148ZM570.732 148H565.169V146H570.732V148Z" fill="white"/>
<path d="M97.0762 290.671V254.83L208.756 195.094V230.935L131.619 271.711V273.789L208.756 314.565V350.407L97.0762 290.671Z" fill="white"/>
<path d="M661.415 387.806L744.785 154.578H779.328L695.958 387.806H661.415ZM820.263 314.565L897.399 273.789V271.711L820.263 230.935V195.094L931.942 254.83V290.671L820.263 350.407V314.565Z" fill="white"/>
</svg>
