<svg width="1030" height="540" viewBox="0 0 1030 540" fill="none" xmlns="http://www.w3.org/2000/svg">
<g clip-path="url(#clip0_403_4962)">
<rect width="1030" height="540" fill="#00165E"/>
<rect x="155" y="221" width="721" height="91" fill="white"/>
<path d="M190.98 253.8H194.94V264.6H207.144V253.8H211.104V279H207.144V268.056H194.94V279H190.98V253.8ZM224.351 279.576C222.263 279.576 220.439 279.132 218.879 278.244C217.343 277.332 216.155 276.072 215.315 274.464C214.475 272.856 214.055 271.02 214.055 268.956C214.055 266.868 214.475 265.02 215.315 263.412C216.155 261.804 217.343 260.544 218.879 259.632C220.439 258.72 222.263 258.264 224.351 258.264C226.175 258.264 227.831 258.732 229.319 259.668C230.807 260.604 231.947 261.972 232.739 263.772C233.531 265.548 233.795 267.696 233.531 270.216H218.123C218.315 271.944 218.927 273.348 219.959 274.428C220.991 275.508 222.455 276.048 224.351 276.048C225.743 276.048 226.847 275.724 227.663 275.076C228.503 274.404 229.091 273.576 229.427 272.592H233.531C233.051 274.68 232.007 276.372 230.399 277.668C228.815 278.94 226.799 279.576 224.351 279.576ZM224.351 261.792C222.575 261.792 221.183 262.272 220.175 263.232C219.167 264.192 218.519 265.428 218.231 266.94H229.715C229.571 265.5 229.043 264.288 228.131 263.304C227.243 262.296 225.983 261.792 224.351 261.792ZM244.786 258.264C247.522 258.264 249.598 259.092 251.014 260.748C252.43 262.404 253.138 264.648 253.138 267.48V279H249.25V276.264C248.698 277.296 247.942 278.112 246.982 278.712C246.022 279.288 244.834 279.576 243.418 279.576C242.098 279.576 240.91 279.336 239.854 278.856C238.798 278.352 237.97 277.632 237.37 276.696C236.77 275.76 236.47 274.62 236.47 273.276C236.47 271.692 236.842 270.444 237.586 269.532C238.354 268.596 239.362 267.9 240.61 267.444C241.882 266.988 243.262 266.7 244.75 266.58C246.262 266.46 247.75 266.436 249.214 266.508C249.094 265.044 248.698 263.88 248.026 263.016C247.354 262.152 246.274 261.72 244.786 261.72C243.226 261.72 242.05 262.14 241.258 262.98C240.466 263.796 240.07 264.78 240.07 265.932H235.966C235.966 264.588 236.302 263.34 236.974 262.188C237.646 261.012 238.642 260.064 239.962 259.344C241.282 258.624 242.89 258.264 244.786 258.264ZM240.502 273.06C240.502 274.068 240.826 274.836 241.474 275.364C242.146 275.892 243.082 276.156 244.282 276.156C245.674 276.156 246.85 275.712 247.81 274.824C248.77 273.936 249.25 272.676 249.25 271.044V269.244C246.274 269.1 244.066 269.4 242.626 270.144C241.21 270.888 240.502 271.86 240.502 273.06ZM264.857 279.576C263.009 279.576 261.401 279.132 260.033 278.244C258.665 277.332 257.609 276.072 256.865 274.464C256.145 272.856 255.785 271.02 255.785 268.956C255.785 266.868 256.145 265.02 256.865 263.412C257.609 261.804 258.665 260.544 260.033 259.632C261.401 258.72 263.009 258.264 264.857 258.264C266.393 258.264 267.689 258.588 268.745 259.236C269.825 259.884 270.689 260.784 271.337 261.936V252H275.225V279H271.337V275.94C270.737 277.044 269.897 277.932 268.817 278.604C267.761 279.252 266.441 279.576 264.857 279.576ZM265.397 276.048C266.717 276.048 267.809 275.748 268.673 275.148C269.561 274.524 270.221 273.672 270.653 272.592C271.109 271.512 271.337 270.3 271.337 268.956C271.337 267.588 271.109 266.364 270.653 265.284C270.221 264.204 269.561 263.352 268.673 262.728C267.809 262.104 266.717 261.792 265.397 261.792C263.645 261.792 262.265 262.452 261.257 263.772C260.273 265.092 259.781 266.82 259.781 268.956C259.781 271.068 260.273 272.784 261.257 274.104C262.265 275.4 263.645 276.048 265.397 276.048ZM278.867 252H282.755V279H278.867V252ZM286.391 252H290.747V256.428H286.391V252ZM286.607 258.84H290.495V279H286.607V258.84ZM294.299 258.84H298.187V262.152C298.595 261.144 299.315 260.244 300.347 259.452C301.403 258.66 302.891 258.264 304.811 258.264C306.107 258.264 307.259 258.528 308.267 259.056C309.299 259.584 310.115 260.46 310.715 261.684C311.315 262.884 311.615 264.516 311.615 266.58V279H307.727V267.048C307.727 265.416 307.463 264.108 306.935 263.124C306.407 262.14 305.375 261.648 303.839 261.648C302.879 261.648 301.967 261.924 301.103 262.476C300.239 263.028 299.531 263.844 298.979 264.924C298.451 266.004 298.187 267.348 298.187 268.956V279H294.299V258.84ZM324.581 279.576C322.493 279.576 320.669 279.132 319.109 278.244C317.573 277.332 316.385 276.072 315.545 274.464C314.705 272.856 314.285 271.02 314.285 268.956C314.285 266.868 314.705 265.02 315.545 263.412C316.385 261.804 317.573 260.544 319.109 259.632C320.669 258.72 322.493 258.264 324.581 258.264C326.405 258.264 328.061 258.732 329.549 259.668C331.037 260.604 332.177 261.972 332.969 263.772C333.761 265.548 334.025 267.696 333.761 270.216H318.353C318.545 271.944 319.157 273.348 320.189 274.428C321.221 275.508 322.685 276.048 324.581 276.048C325.973 276.048 327.077 275.724 327.893 275.076C328.733 274.404 329.321 273.576 329.657 272.592H333.761C333.281 274.68 332.237 276.372 330.629 277.668C329.045 278.94 327.029 279.576 324.581 279.576ZM324.581 261.792C322.805 261.792 321.413 262.272 320.405 263.232C319.397 264.192 318.749 265.428 318.461 266.94H329.945C329.801 265.5 329.273 264.288 328.361 263.304C327.473 262.296 326.213 261.792 324.581 261.792Z" fill="#201C1D"/>
<rect x="155" y="78" width="721" height="97" fill="#FF5E00"/>
<path d="M190.98 116.8H194.94V127.6H207.144V116.8H211.104V142H207.144V131.056H194.94V142H190.98V116.8ZM224.351 142.576C222.263 142.576 220.439 142.132 218.879 141.244C217.343 140.332 216.155 139.072 215.315 137.464C214.475 135.856 214.055 134.02 214.055 131.956C214.055 129.868 214.475 128.02 215.315 126.412C216.155 124.804 217.343 123.544 218.879 122.632C220.439 121.72 222.263 121.264 224.351 121.264C226.175 121.264 227.831 121.732 229.319 122.668C230.807 123.604 231.947 124.972 232.739 126.772C233.531 128.548 233.795 130.696 233.531 133.216H218.123C218.315 134.944 218.927 136.348 219.959 137.428C220.991 138.508 222.455 139.048 224.351 139.048C225.743 139.048 226.847 138.724 227.663 138.076C228.503 137.404 229.091 136.576 229.427 135.592H233.531C233.051 137.68 232.007 139.372 230.399 140.668C228.815 141.94 226.799 142.576 224.351 142.576ZM224.351 124.792C222.575 124.792 221.183 125.272 220.175 126.232C219.167 127.192 218.519 128.428 218.231 129.94H229.715C229.571 128.5 229.043 127.288 228.131 126.304C227.243 125.296 225.983 124.792 224.351 124.792ZM244.786 121.264C247.522 121.264 249.598 122.092 251.014 123.748C252.43 125.404 253.138 127.648 253.138 130.48V142H249.25V139.264C248.698 140.296 247.942 141.112 246.982 141.712C246.022 142.288 244.834 142.576 243.418 142.576C242.098 142.576 240.91 142.336 239.854 141.856C238.798 141.352 237.97 140.632 237.37 139.696C236.77 138.76 236.47 137.62 236.47 136.276C236.47 134.692 236.842 133.444 237.586 132.532C238.354 131.596 239.362 130.9 240.61 130.444C241.882 129.988 243.262 129.7 244.75 129.58C246.262 129.46 247.75 129.436 249.214 129.508C249.094 128.044 248.698 126.88 248.026 126.016C247.354 125.152 246.274 124.72 244.786 124.72C243.226 124.72 242.05 125.14 241.258 125.98C240.466 126.796 240.07 127.78 240.07 128.932H235.966C235.966 127.588 236.302 126.34 236.974 125.188C237.646 124.012 238.642 123.064 239.962 122.344C241.282 121.624 242.89 121.264 244.786 121.264ZM240.502 136.06C240.502 137.068 240.826 137.836 241.474 138.364C242.146 138.892 243.082 139.156 244.282 139.156C245.674 139.156 246.85 138.712 247.81 137.824C248.77 136.936 249.25 135.676 249.25 134.044V132.244C246.274 132.1 244.066 132.4 242.626 133.144C241.21 133.888 240.502 134.86 240.502 136.06ZM264.857 142.576C263.009 142.576 261.401 142.132 260.033 141.244C258.665 140.332 257.609 139.072 256.865 137.464C256.145 135.856 255.785 134.02 255.785 131.956C255.785 129.868 256.145 128.02 256.865 126.412C257.609 124.804 258.665 123.544 260.033 122.632C261.401 121.72 263.009 121.264 264.857 121.264C266.393 121.264 267.689 121.588 268.745 122.236C269.825 122.884 270.689 123.784 271.337 124.936V115H275.225V142H271.337V138.94C270.737 140.044 269.897 140.932 268.817 141.604C267.761 142.252 266.441 142.576 264.857 142.576ZM265.397 139.048C266.717 139.048 267.809 138.748 268.673 138.148C269.561 137.524 270.221 136.672 270.653 135.592C271.109 134.512 271.337 133.3 271.337 131.956C271.337 130.588 271.109 129.364 270.653 128.284C270.221 127.204 269.561 126.352 268.673 125.728C267.809 125.104 266.717 124.792 265.397 124.792C263.645 124.792 262.265 125.452 261.257 126.772C260.273 128.092 259.781 129.82 259.781 131.956C259.781 134.068 260.273 135.784 261.257 137.104C262.265 138.4 263.645 139.048 265.397 139.048ZM288.3 142.576C286.212 142.576 284.388 142.132 282.828 141.244C281.292 140.332 280.104 139.072 279.264 137.464C278.424 135.856 278.004 134.02 278.004 131.956C278.004 129.868 278.424 128.02 279.264 126.412C280.104 124.804 281.292 123.544 282.828 122.632C284.388 121.72 286.212 121.264 288.3 121.264C290.124 121.264 291.78 121.732 293.268 122.668C294.756 123.604 295.896 124.972 296.688 126.772C297.48 128.548 297.744 130.696 297.48 133.216H282.072C282.264 134.944 282.876 136.348 283.908 137.428C284.94 138.508 286.404 139.048 288.3 139.048C289.692 139.048 290.796 138.724 291.612 138.076C292.452 137.404 293.04 136.576 293.376 135.592H297.48C297 137.68 295.956 139.372 294.348 140.668C292.764 141.94 290.748 142.576 288.3 142.576ZM288.3 124.792C286.524 124.792 285.132 125.272 284.124 126.232C283.116 127.192 282.468 128.428 282.18 129.94H293.664C293.52 128.5 292.992 127.288 292.08 126.304C291.192 125.296 289.932 124.792 288.3 124.792ZM304.304 131.416V142H300.416V121.84H304.304V125.224C304.544 124.528 304.928 123.88 305.456 123.28C305.984 122.68 306.692 122.2 307.58 121.84C308.492 121.456 309.644 121.264 311.036 121.264V125.152C309.596 125.152 308.372 125.344 307.364 125.728C306.356 126.112 305.588 126.76 305.06 127.672C304.556 128.56 304.304 129.808 304.304 131.416Z" fill="#201C1D"/>
<rect x="155" y="358" width="337" height="243" fill="#C6D1E1"/>
<rect x="538" y="358" width="338" height="243" fill="#C6D1E1"/>
<path d="M214.092 405.74C213.924 407.9 213.372 409.796 212.436 411.428C211.524 413.06 210.24 414.332 208.584 415.244C206.928 416.132 204.924 416.576 202.572 416.576C199.884 416.576 197.616 415.988 195.768 414.812C193.92 413.612 192.516 412.016 191.556 410.024C190.596 408.032 190.116 405.812 190.116 403.364C190.116 401.564 190.38 399.872 190.908 398.288C191.46 396.68 192.264 395.276 193.32 394.076C194.376 392.876 195.672 391.94 197.208 391.268C198.768 390.572 200.556 390.224 202.572 390.224C205.956 390.224 208.596 391.124 210.492 392.924C212.412 394.7 213.564 397.1 213.948 400.124H209.736C209.568 399.044 209.232 398.036 208.728 397.1C208.224 396.14 207.468 395.372 206.46 394.796C205.476 394.196 204.18 393.896 202.572 393.896C200.676 393.896 199.104 394.34 197.856 395.228C196.632 396.116 195.72 397.28 195.12 398.72C194.52 400.16 194.22 401.708 194.22 403.364C194.22 405.044 194.52 406.616 195.12 408.08C195.72 409.52 196.632 410.684 197.856 411.572C199.104 412.46 200.676 412.904 202.572 412.904C204.324 412.904 205.716 412.568 206.748 411.896C207.804 411.2 208.572 410.312 209.052 409.232C209.556 408.128 209.856 406.964 209.952 405.74H214.092ZM224.958 395.264C227.694 395.264 229.77 396.092 231.186 397.748C232.602 399.404 233.31 401.648 233.31 404.48V416H229.422V413.264C228.87 414.296 228.114 415.112 227.154 415.712C226.194 416.288 225.006 416.576 223.59 416.576C222.27 416.576 221.082 416.336 220.026 415.856C218.97 415.352 218.142 414.632 217.542 413.696C216.942 412.76 216.642 411.62 216.642 410.276C216.642 408.692 217.014 407.444 217.758 406.532C218.526 405.596 219.534 404.9 220.782 404.444C222.054 403.988 223.434 403.7 224.922 403.58C226.434 403.46 227.922 403.436 229.386 403.508C229.266 402.044 228.87 400.88 228.198 400.016C227.526 399.152 226.446 398.72 224.958 398.72C223.398 398.72 222.222 399.14 221.43 399.98C220.638 400.796 220.242 401.78 220.242 402.932H216.138C216.138 401.588 216.474 400.34 217.146 399.188C217.818 398.012 218.814 397.064 220.134 396.344C221.454 395.624 223.062 395.264 224.958 395.264ZM220.674 410.06C220.674 411.068 220.998 411.836 221.646 412.364C222.318 412.892 223.254 413.156 224.454 413.156C225.846 413.156 227.022 412.712 227.982 411.824C228.942 410.936 229.422 409.676 229.422 408.044V406.244C226.446 406.1 224.238 406.4 222.798 407.144C221.382 407.888 220.674 408.86 220.674 410.06ZM240.601 405.416V416H236.713V395.84H240.601V399.224C240.841 398.528 241.225 397.88 241.753 397.28C242.281 396.68 242.989 396.2 243.877 395.84C244.789 395.456 245.941 395.264 247.333 395.264V399.152C245.893 399.152 244.669 399.344 243.661 399.728C242.653 400.112 241.885 400.76 241.357 401.672C240.853 402.56 240.601 403.808 240.601 405.416ZM257.088 416.576C255.24 416.576 253.632 416.132 252.264 415.244C250.896 414.332 249.84 413.072 249.096 411.464C248.376 409.856 248.016 408.02 248.016 405.956C248.016 403.868 248.376 402.02 249.096 400.412C249.84 398.804 250.896 397.544 252.264 396.632C253.632 395.72 255.24 395.264 257.088 395.264C258.624 395.264 259.92 395.588 260.976 396.236C262.056 396.884 262.92 397.784 263.568 398.936V389H267.456V416H263.568V412.94C262.968 414.044 262.128 414.932 261.048 415.604C259.992 416.252 258.672 416.576 257.088 416.576ZM257.628 413.048C258.948 413.048 260.04 412.748 260.904 412.148C261.792 411.524 262.452 410.672 262.884 409.592C263.34 408.512 263.568 407.3 263.568 405.956C263.568 404.588 263.34 403.364 262.884 402.284C262.452 401.204 261.792 400.352 260.904 399.728C260.04 399.104 258.948 398.792 257.628 398.792C255.876 398.792 254.496 399.452 253.488 400.772C252.504 402.092 252.012 403.82 252.012 405.956C252.012 408.068 252.504 409.784 253.488 411.104C254.496 412.4 255.876 413.048 257.628 413.048ZM274.297 409.628C274.417 410.852 274.945 411.764 275.881 412.364C276.817 412.964 277.933 413.264 279.229 413.264C280.477 413.264 281.497 413.024 282.289 412.544C283.081 412.064 283.477 411.308 283.477 410.276C283.477 409.676 283.237 409.208 282.757 408.872C282.301 408.536 281.689 408.284 280.921 408.116C280.177 407.924 279.349 407.756 278.437 407.612C277.525 407.468 276.613 407.288 275.701 407.072C274.813 406.832 273.985 406.508 273.217 406.1C272.473 405.668 271.873 405.092 271.417 404.372C270.961 403.652 270.733 402.716 270.733 401.564C270.733 400.484 271.069 399.464 271.741 398.504C272.413 397.544 273.361 396.764 274.585 396.164C275.833 395.564 277.285 395.264 278.941 395.264C280.381 395.264 281.713 395.564 282.937 396.164C284.161 396.74 285.145 397.544 285.889 398.576C286.633 399.608 287.005 400.808 287.005 402.176H283.297C283.201 400.952 282.721 400.052 281.857 399.476C281.017 398.876 279.997 398.576 278.797 398.576C277.405 398.576 276.349 398.864 275.629 399.44C274.933 399.992 274.585 400.7 274.585 401.564C274.561 402.236 274.777 402.752 275.233 403.112C275.713 403.472 276.325 403.748 277.069 403.94C277.837 404.132 278.677 404.3 279.589 404.444C280.501 404.588 281.401 404.768 282.289 404.984C283.201 405.176 284.029 405.476 284.773 405.884C285.541 406.268 286.153 406.82 286.609 407.54C287.089 408.236 287.329 409.148 287.329 410.276C287.329 412.172 286.573 413.696 285.061 414.848C283.573 416 281.569 416.576 279.049 416.576C277.465 416.576 276.025 416.276 274.729 415.676C273.457 415.052 272.437 414.224 271.669 413.192C270.925 412.136 270.529 410.948 270.481 409.628H274.297Z" fill="#201C1D"/>
<path d="M586.092 405.74C585.924 407.9 585.372 409.796 584.436 411.428C583.524 413.06 582.24 414.332 580.584 415.244C578.928 416.132 576.924 416.576 574.572 416.576C571.884 416.576 569.616 415.988 567.768 414.812C565.92 413.612 564.516 412.016 563.556 410.024C562.596 408.032 562.116 405.812 562.116 403.364C562.116 401.564 562.38 399.872 562.908 398.288C563.46 396.68 564.264 395.276 565.32 394.076C566.376 392.876 567.672 391.94 569.208 391.268C570.768 390.572 572.556 390.224 574.572 390.224C577.956 390.224 580.596 391.124 582.492 392.924C584.412 394.7 585.564 397.1 585.948 400.124H581.736C581.568 399.044 581.232 398.036 580.728 397.1C580.224 396.14 579.468 395.372 578.46 394.796C577.476 394.196 576.18 393.896 574.572 393.896C572.676 393.896 571.104 394.34 569.856 395.228C568.632 396.116 567.72 397.28 567.12 398.72C566.52 400.16 566.22 401.708 566.22 403.364C566.22 405.044 566.52 406.616 567.12 408.08C567.72 409.52 568.632 410.684 569.856 411.572C571.104 412.46 572.676 412.904 574.572 412.904C576.324 412.904 577.716 412.568 578.748 411.896C579.804 411.2 580.572 410.312 581.052 409.232C581.556 408.128 581.856 406.964 581.952 405.74H586.092ZM596.958 395.264C599.694 395.264 601.77 396.092 603.186 397.748C604.602 399.404 605.31 401.648 605.31 404.48V416H601.422V413.264C600.87 414.296 600.114 415.112 599.154 415.712C598.194 416.288 597.006 416.576 595.59 416.576C594.27 416.576 593.082 416.336 592.026 415.856C590.97 415.352 590.142 414.632 589.542 413.696C588.942 412.76 588.642 411.62 588.642 410.276C588.642 408.692 589.014 407.444 589.758 406.532C590.526 405.596 591.534 404.9 592.782 404.444C594.054 403.988 595.434 403.7 596.922 403.58C598.434 403.46 599.922 403.436 601.386 403.508C601.266 402.044 600.87 400.88 600.198 400.016C599.526 399.152 598.446 398.72 596.958 398.72C595.398 398.72 594.222 399.14 593.43 399.98C592.638 400.796 592.242 401.78 592.242 402.932H588.138C588.138 401.588 588.474 400.34 589.146 399.188C589.818 398.012 590.814 397.064 592.134 396.344C593.454 395.624 595.062 395.264 596.958 395.264ZM592.674 410.06C592.674 411.068 592.998 411.836 593.646 412.364C594.318 412.892 595.254 413.156 596.454 413.156C597.846 413.156 599.022 412.712 599.982 411.824C600.942 410.936 601.422 409.676 601.422 408.044V406.244C598.446 406.1 596.238 406.4 594.798 407.144C593.382 407.888 592.674 408.86 592.674 410.06ZM612.601 405.416V416H608.713V395.84H612.601V399.224C612.841 398.528 613.225 397.88 613.753 397.28C614.281 396.68 614.989 396.2 615.877 395.84C616.789 395.456 617.941 395.264 619.333 395.264V399.152C617.893 399.152 616.669 399.344 615.661 399.728C614.653 400.112 613.885 400.76 613.357 401.672C612.853 402.56 612.601 403.808 612.601 405.416ZM629.088 416.576C627.24 416.576 625.632 416.132 624.264 415.244C622.896 414.332 621.84 413.072 621.096 411.464C620.376 409.856 620.016 408.02 620.016 405.956C620.016 403.868 620.376 402.02 621.096 400.412C621.84 398.804 622.896 397.544 624.264 396.632C625.632 395.72 627.24 395.264 629.088 395.264C630.624 395.264 631.92 395.588 632.976 396.236C634.056 396.884 634.92 397.784 635.568 398.936V389H639.456V416H635.568V412.94C634.968 414.044 634.128 414.932 633.048 415.604C631.992 416.252 630.672 416.576 629.088 416.576ZM629.628 413.048C630.948 413.048 632.04 412.748 632.904 412.148C633.792 411.524 634.452 410.672 634.884 409.592C635.34 408.512 635.568 407.3 635.568 405.956C635.568 404.588 635.34 403.364 634.884 402.284C634.452 401.204 633.792 400.352 632.904 399.728C632.04 399.104 630.948 398.792 629.628 398.792C627.876 398.792 626.496 399.452 625.488 400.772C624.504 402.092 624.012 403.82 624.012 405.956C624.012 408.068 624.504 409.784 625.488 411.104C626.496 412.4 627.876 413.048 629.628 413.048ZM646.297 409.628C646.417 410.852 646.945 411.764 647.881 412.364C648.817 412.964 649.933 413.264 651.229 413.264C652.477 413.264 653.497 413.024 654.289 412.544C655.081 412.064 655.477 411.308 655.477 410.276C655.477 409.676 655.237 409.208 654.757 408.872C654.301 408.536 653.689 408.284 652.921 408.116C652.177 407.924 651.349 407.756 650.437 407.612C649.525 407.468 648.613 407.288 647.701 407.072C646.813 406.832 645.985 406.508 645.217 406.1C644.473 405.668 643.873 405.092 643.417 404.372C642.961 403.652 642.733 402.716 642.733 401.564C642.733 400.484 643.069 399.464 643.741 398.504C644.413 397.544 645.361 396.764 646.585 396.164C647.833 395.564 649.285 395.264 650.941 395.264C652.381 395.264 653.713 395.564 654.937 396.164C656.161 396.74 657.145 397.544 657.889 398.576C658.633 399.608 659.005 400.808 659.005 402.176H655.297C655.201 400.952 654.721 400.052 653.857 399.476C653.017 398.876 651.997 398.576 650.797 398.576C649.405 398.576 648.349 398.864 647.629 399.44C646.933 399.992 646.585 400.7 646.585 401.564C646.561 402.236 646.777 402.752 647.233 403.112C647.713 403.472 648.325 403.748 649.069 403.94C649.837 404.132 650.677 404.3 651.589 404.444C652.501 404.588 653.401 404.768 654.289 404.984C655.201 405.176 656.029 405.476 656.773 405.884C657.541 406.268 658.153 406.82 658.609 407.54C659.089 408.236 659.329 409.148 659.329 410.276C659.329 412.172 658.573 413.696 657.061 414.848C655.573 416 653.569 416.576 651.049 416.576C649.465 416.576 648.025 416.276 646.729 415.676C645.457 415.052 644.437 414.224 643.669 413.192C642.925 412.136 642.529 410.948 642.481 409.628H646.297Z" fill="#201C1D"/>
<rect width="46" height="46" transform="translate(155 175)" fill="#FFCC00"/>
<rect width="16.1" height="1.725" transform="translate(169.95 197.137)" fill="black"/>
<rect width="16.1" height="1.725" transform="matrix(0 -1 1 0 176.85 206.051)" fill="black"/>
<rect width="46" height="46" transform="translate(830 175)" fill="#FFCC00"/>
<rect width="16.1" height="1.725" transform="translate(844.95 197.137)" fill="black"/>
<rect width="16.1" height="1.725" transform="matrix(0 -1 1 0 851.85 206.051)" fill="black"/>
<rect width="46" height="46" transform="translate(492 312)" fill="#FFCC00"/>
<rect width="16.1" height="1.725" transform="translate(506.95 334.137)" fill="black"/>
<rect width="16.1" height="1.725" transform="matrix(0 -1 1 0 513.85 343.051)" fill="black"/>
<rect width="46" height="46" transform="translate(155 312)" fill="#FFCC00"/>
<rect width="16.1" height="1.725" transform="translate(169.95 334.137)" fill="black"/>
<rect width="16.1" height="1.725" transform="matrix(0 -1 1 0 176.85 343.051)" fill="black"/>
<rect width="46" height="46" transform="translate(830 312)" fill="#FFCC00"/>
<rect width="16.1" height="1.725" transform="translate(844.95 334.137)" fill="black"/>
<rect width="16.1" height="1.725" transform="matrix(0 -1 1 0 851.85 343.051)" fill="black"/>
<rect width="46" height="46" transform="translate(492 494)" fill="#FFCC00"/>
<rect width="16.1" height="1.725" transform="translate(506.95 516.137)" fill="black"/>
<rect width="16.1" height="1.725" transform="matrix(0 -1 1 0 513.85 525.051)" fill="black"/>
</g>
<defs>
<clipPath id="clip0_403_4962">
<rect width="1030" height="540" fill="white"/>
</clipPath>
</defs>
</svg>
