<svg fill="none" height="540" viewBox="0 0 1030 540" width="1030" xmlns="http://www.w3.org/2000/svg" xmlns:xlink="http://www.w3.org/1999/xlink"><clipPath id="a"><path d="m0 0h1030v540h-1030z"/></clipPath><path d="m0 0h1030v540h-1030z" fill="#646464"/><g clip-path="url(#a)"><path d="m0 0h1030v540h-1030z" fill="#c6d1e1"/><path d="m0 0h296v296h-296z" fill="#f39fff" transform="translate(0 -174)"/><path d="m147.594-122.834c53.481 0 96.836 43.3542 96.836 96.8347l-.009 1.252c-.67 52.9037-43.764 95.584-96.827 95.584l-1.251-.0088c-52.9037-.6699-95.5837-43.7643-95.5837-96.8272.0001-53.4804 43.3545-96.8347 96.8347-96.8347zm0 16.138c-44.567.001-80.6959 36.1297-80.6961 80.6967 0 44.5672 36.1291 80.6962 80.6961 80.6963 44.568 0 80.697-36.129 80.697-80.6963-.001-44.5671-36.13-80.6967-80.697-80.6967zm51.6 51.8608-69.08 69.0801-5.706-5.70608-22.709-22.70802-5.7063-5.706 11.4123-11.4122 22.708 22.70805 51.963-51.96195 5.706-5.706z" fill="#000"/><path d="m0 0h296v296h-296z" fill="#86af25" transform="translate(294 -174)"/><path d="m441.594-122.834c53.481 0 96.836 43.3542 96.836 96.8347l-.009 1.252c-.67 52.9037-43.764 95.584-96.827 95.584l-1.251-.0088c-52.904-.6699-95.584-43.7643-95.584-96.8272 0-53.4804 43.355-96.8347 96.835-96.8347zm0 16.138c-44.567.001-80.696 36.1297-80.696 80.6967 0 44.5672 36.129 80.6962 80.696 80.6963 44.568 0 80.697-36.129 80.697-80.6963-.001-44.5671-36.13-80.6967-80.697-80.6967zm51.6 51.8608-69.08 69.0801-5.706-5.70608-22.709-22.70802-5.706-5.706 11.412-11.4122 22.708 22.70805 51.963-51.96195 5.706-5.706z" fill="#000"/><path d="m0 0h296v296h-296z" fill="#4d1955" transform="translate(588 -174)"/><path d="m735.594-122.834c53.481 0 96.836 43.3542 96.836 96.8347l-.009 1.252c-.67 52.9037-43.764 95.584-96.827 95.584l-1.251-.0088c-52.904-.6699-95.584-43.7643-95.584-96.8272 0-53.4804 43.355-96.8347 96.835-96.8347zm0 16.138c-44.567.001-80.696 36.1297-80.696 80.6967 0 44.5672 36.129 80.6962 80.696 80.6963 44.568 0 80.697-36.129 80.697-80.6963-.001-44.5671-36.13-80.6967-80.697-80.6967zm51.6 51.8608-69.08 69.0801-5.706-5.70608-22.709-22.70802-5.706-5.706 11.412-11.4122 22.708 22.70805 51.963-51.96195 5.706-5.706z" fill="#000"/><path d="m0 0h296v296h-296z" fill="#263603" transform="translate(882 -174)"/><path d="m1029.59-122.834c53.48 0 96.84 43.3542 96.84 96.8347l-.01 1.252c-.67 52.9037-43.76 95.584-96.83 95.584l-1.25-.0088c-52.901-.6699-95.581-43.7643-95.581-96.8272 0-53.4804 43.355-96.8347 96.831-96.8347zm0 16.138c-44.563.001-80.692 36.1297-80.692 80.6967 0 44.5672 36.129 80.6962 80.692 80.6963 44.57 0 80.7-36.129 80.7-80.6963 0-44.5671-36.13-80.6967-80.7-80.6967zm51.6 51.8608-69.08 69.0801-5.7-5.70608-22.711-22.70802-5.706-5.706 11.412-11.4122 22.705 22.70805 51.97-51.96195 5.7-5.706z" fill="#000"/><path d="m0 0h296v296h-296z" fill="#ff5e00" transform="translate(0 120)"/><path d="m147.594 171.166c53.481 0 96.836 43.354 96.836 96.835l-.009 1.252c-.67 52.903-43.764 95.584-96.827 95.584l-1.251-.009c-52.9037-.67-95.5837-43.764-95.5837-96.827.0001-53.481 43.3545-96.835 96.8347-96.835zm0 16.138c-44.567.001-80.6959 36.13-80.6961 80.697 0 44.567 36.1291 80.696 80.6961 80.696 44.568 0 80.697-36.129 80.697-80.696-.001-44.567-36.13-80.697-80.697-80.697zm51.6 51.861-69.08 69.08-5.706-5.706-22.709-22.708-5.7063-5.706 11.4123-11.412 22.708 22.708 51.963-51.962 5.706-5.706z" fill="#000"/><path d="m0 0h296v296h-296z" fill="#fc0" transform="translate(294 120)"/><path d="m441.594 171.166c53.481 0 96.836 43.354 96.836 96.835l-.009 1.252c-.67 52.903-43.764 95.584-96.827 95.584l-1.251-.009c-52.904-.67-95.584-43.764-95.584-96.827 0-53.481 43.355-96.835 96.835-96.835zm0 16.138c-44.567.001-80.696 36.13-80.696 80.697s36.129 80.696 80.696 80.696c44.568 0 80.697-36.129 80.697-80.696-.001-44.567-36.13-80.697-80.697-80.697zm51.6 51.861-69.08 69.08-5.706-5.706-22.709-22.708-5.706-5.706 11.412-11.412 22.708 22.708 51.963-51.962 5.706-5.706z" fill="#000"/><path d="m0 0h296v296h-296z" fill="#6e1527" transform="translate(588 120)"/><path d="m735.594 171.166c53.481 0 96.836 43.354 96.836 96.835l-.009 1.252c-.67 52.903-43.764 95.584-96.827 95.584l-1.251-.009c-52.904-.67-95.584-43.764-95.584-96.827 0-53.481 43.355-96.835 96.835-96.835zm0 16.138c-44.567.001-80.696 36.13-80.696 80.697s36.129 80.696 80.696 80.696c44.568 0 80.697-36.129 80.697-80.696-.001-44.567-36.13-80.697-80.697-80.697zm51.6 51.861-69.08 69.08-5.706-5.706-22.709-22.708-5.706-5.706 11.412-11.412 22.708 22.708 51.963-51.962 5.706-5.706z" fill="#000"/><path d="m0 0h296v296h-296z" fill="#31070f" transform="translate(882 120)"/><path d="m1029.59 171.166c53.48 0 96.84 43.354 96.84 96.835l-.01 1.252c-.67 52.903-43.76 95.584-96.83 95.584l-1.25-.009c-52.901-.67-95.581-43.764-95.581-96.827 0-53.481 43.355-96.835 96.831-96.835zm0 16.138c-44.563.001-80.692 36.13-80.692 80.697s36.129 80.696 80.692 80.696c44.57 0 80.7-36.129 80.7-80.696s-36.13-80.697-80.7-80.697zm51.6 51.861-69.08 69.08-5.7-5.706-22.711-22.708-5.706-5.706 11.412-11.412 22.705 22.708 51.97-51.962 5.7-5.706z" fill="#000"/><path d="m0 0h296v296h-296z" fill="#9d9cff" transform="translate(0 414)"/><path d="m147.594 465.166c53.481 0 96.836 43.354 96.836 96.835l-.009 1.252c-.67 52.903-43.764 95.584-96.827 95.584l-1.251-.009c-52.9037-.67-95.5837-43.764-95.5837-96.827.0001-53.481 43.3545-96.835 96.8347-96.835zm0 16.138c-44.567.001-80.6959 36.13-80.6961 80.697 0 44.567 36.1291 80.696 80.6961 80.696 44.568 0 80.697-36.129 80.697-80.696-.001-44.567-36.13-80.697-80.697-80.697zm51.6 51.861-69.08 69.08-5.706-5.706-22.709-22.708-5.7063-5.706 11.4123-11.412 22.708 22.708 51.963-51.962 5.706-5.706z" fill="#000"/><path d="m0 0h296v296h-296z" fill="#5074ef" transform="translate(294 414)"/><path d="m441.594 465.166c53.481 0 96.836 43.354 96.836 96.835l-.009 1.252c-.67 52.903-43.764 95.584-96.827 95.584l-1.251-.009c-52.904-.67-95.584-43.764-95.584-96.827 0-53.481 43.355-96.835 96.835-96.835zm0 16.138c-44.567.001-80.696 36.13-80.696 80.697s36.129 80.696 80.696 80.696c44.568 0 80.697-36.129 80.697-80.696-.001-44.567-36.13-80.697-80.697-80.697zm51.6 51.861-69.08 69.08-5.706-5.706-22.709-22.708-5.706-5.706 11.412-11.412 22.708 22.708 51.963-51.962 5.706-5.706z" fill="#000"/><path d="m0 0h296v296h-296z" fill="#390a91" transform="translate(588 414)"/><path d="m735.594 465.166c53.481 0 96.836 43.354 96.836 96.835l-.009 1.252c-.67 52.903-43.764 95.584-96.827 95.584l-1.251-.009c-52.904-.67-95.584-43.764-95.584-96.827 0-53.481 43.355-96.835 96.835-96.835zm0 16.138c-44.567.001-80.696 36.13-80.696 80.697s36.129 80.696 80.696 80.696c44.568 0 80.697-36.129 80.697-80.696-.001-44.567-36.13-80.697-80.697-80.697zm51.6 51.861-69.08 69.08-5.706-5.706-22.709-22.708-5.706-5.706 11.412-11.412 22.708 22.708 51.963-51.962 5.706-5.706z" fill="#000"/><path d="m0 0h296v296h-296z" fill="#00165e" transform="translate(882 414)"/><path d="m1029.59 465.166c53.48 0 96.84 43.354 96.84 96.835l-.01 1.252c-.67 52.903-43.76 95.584-96.83 95.584l-1.25-.009c-52.901-.67-95.581-43.764-95.581-96.827 0-53.481 43.355-96.835 96.831-96.835zm0 16.138c-44.563.001-80.692 36.13-80.692 80.697s36.129 80.696 80.692 80.696c44.57 0 80.7-36.129 80.7-80.696s-36.13-80.697-80.7-80.697zm51.6 51.861-69.08 69.08-5.7-5.706-22.711-22.708-5.706-5.706 11.412-11.412 22.705 22.708 51.97-51.962 5.7-5.706z" fill="#000"/></g></svg>