<svg fill="none" height="540" viewBox="0 0 1030 540" width="1030" xmlns="http://www.w3.org/2000/svg" xmlns:xlink="http://www.w3.org/1999/xlink"><clipPath id="a"><path d="m0 0h1030v540h-1030z"/></clipPath><path d="m0 0h1030v540h-1030z" fill="#646464"/><g clip-path="url(#a)"><path d="m0 0h1030v540h-1030z" fill="#c6d1e1"/><path d="m0 0h296v296h-296z" fill="#f39fff" transform="translate(0 -174)"/><path clip-rule="evenodd" d="m145.13-122.804c1.64-.041 3.28-.041 4.92 0l.306.009c.291.008.582.017.873.028.148.006.296.013.444.019.245.01.49.02.734.032.241.012.481.026.721.039.121.007.242.013.362.021.337.02.674.042 1.01.066.03.002.059.004.089.006 10.227.73 20.015 3.049 29.118 6.71.141.056.282.113.422.17.136.055.271.111.406.167.231.095.461.19.691.287.094.04.189.081.283.121 10.071 4.28 19.565 10.342 27.999 18.1894.111.103.221.207.331.3105.173.1622.346.3245.518.4883.047.0454.095.0912.142.1367.245.2345.49.4695.734.707 18.014 17.5849 29.197 42.1354 29.197 69.2979l-.009 1.2519c-.67 52.9037-43.764 95.584-96.827 95.584l-1.251-.0088c-26.245-.3324-49.9717-11.1065-67.2217-28.3574l-.001.002c-.0738-.0738-.1462-.1488-.2197-.2227-.14-.1409-.2798-.2821-.419-.4238-.1488-.1516-.2967-.3038-.4443-.4561-.0963-.0994-.1922-.199-.2881-.2988-.2113-.2199-.422-.4398-.6308-.6611-.0411-.0436-.0821-.0873-.1231-.1309-8.7043-9.2609-15.2436-19.8152-19.6162-31.02051-3.4592-8.844581-5.655-18.32205-6.3662-28.21089-.0084-.1159-.0155-.2318-.0235-.3477-.0163-.2397-.0332-.4795-.0478-.7197-.0106-.1725-.0196-.3451-.0293-.5176-.014-.2517-.028-.5036-.04-.7559-.009-.1845-.0156-.3691-.0235-.5537-.0074-.175-.016-.3501-.0224-.5254-.0903-2.4222-.0906-4.8472 0-7.2695.0077-.2095.0173-.4188.0263-.6279.0068-.1543.013-.3086.0205-.4629.0118-.2434.0256-.4866.0391-.7295.0102-.1817.02-.3633.0312-.5449.0128-.2089.027-.4175.0411-.626.0111-.1634.0222-.3269.0341-.4902.7097-9.7598 2.8666-19.1176 6.2559-27.8614 4.7189-12.2023 11.9996-23.6421 21.8457-33.4883 9.6078-9.6081 20.7331-16.7731 32.6037-21.4991.153-.061.306-.123.46-.183.164-.065.328-.128.492-.191.199-.077.398-.154.598-.229.1-.038.201-.076.301-.114 8.158-3.061 16.839-5.053 25.871-5.805.018-.002.036-.004.054-.005.359-.03.718-.058 1.078-.084.048-.004.095-.007.142-.01.318-.022.637-.043.956-.062.144-.009.288-.017.432-.025.22-.012.44-.025.661-.036.26-.013.52-.023.78-.034.132-.006.265-.012.397-.017.311-.011.622-.02.933-.029.084-.002.167-.006.251-.008zm-54.5976 153.8643c14.6036 14.6038 34.7776 23.6366 57.0616 23.6368 44.567 0 80.696-36.129 80.696-80.6963 0-22.2844-9.032-42.4592-23.636-57.0625z" fill="#000" fill-rule="evenodd"/><path d="m0 0h296v296h-296z" fill="#86af25" transform="translate(294 -174)"/><path clip-rule="evenodd" d="m439.13-122.804c1.64-.041 3.28-.041 4.92 0 .102.003.204.006.306.009.291.008.582.017.873.028.148.006.296.013.444.019.245.01.49.02.734.032.241.012.481.026.721.039.121.007.242.013.362.021.337.02.674.042 1.01.066.03.002.059.004.089.006 10.227.73 20.015 3.049 29.118 6.71.141.056.282.113.422.17.136.055.271.111.406.167.231.095.461.19.691.287.094.04.189.081.283.121 10.071 4.28 19.565 10.342 27.999 18.1894.111.103.221.207.331.3105.173.1622.346.3245.518.4883.047.0454.095.0912.142.1367.245.2345.49.4695.734.707 18.014 17.5849 29.197 42.1354 29.197 69.2979l-.009 1.2519c-.67 52.9037-43.764 95.584-96.827 95.584l-1.251-.0088c-26.245-.3324-49.972-11.1065-67.222-28.3574l-.001.002c-.073-.0738-.146-.1488-.219-.2227-.14-.1409-.28-.2821-.419-.4238-.149-.1516-.297-.3038-.445-.4561-.096-.0994-.192-.199-.288-.2988-.211-.2199-.422-.4398-.631-.6611-.041-.0436-.082-.0873-.123-.1309-8.704-9.2609-15.243-19.8152-19.616-31.02051-3.459-8.844581-5.655-18.32205-6.366-28.21089-.009-.1159-.016-.2318-.024-.3477-.016-.2397-.033-.4795-.047-.7197-.011-.1725-.02-.3451-.03-.5176-.014-.2517-.028-.5036-.04-.7559-.009-.1845-.015-.3691-.023-.5537-.008-.175-.016-.3501-.023-.5254-.09-2.4222-.09-4.8472 0-7.2695.008-.2095.018-.4188.027-.6279.006-.1543.013-.3086.02-.4629.012-.2434.026-.4866.039-.7295.01-.1817.02-.3633.032-.5449.012-.2089.026-.4175.041-.626.011-.1634.022-.3269.034-.4902.709-9.7598 2.866-19.1176 6.256-27.8614 4.719-12.2023 11.999-23.6421 21.845-33.4883 9.608-9.6081 20.733-16.7731 32.604-21.4991.153-.061.306-.123.46-.183.164-.065.328-.128.492-.191.199-.077.398-.154.598-.229.1-.038.201-.076.301-.114 8.158-3.061 16.839-5.053 25.871-5.805.018-.002.036-.004.054-.005.359-.03.718-.058 1.078-.084.048-.004.095-.007.142-.01.318-.022.637-.043.956-.062.144-.009.288-.017.432-.025.22-.012.44-.025.661-.036.26-.013.52-.023.78-.034.132-.006.265-.012.397-.017.311-.011.622-.02.933-.029.084-.002.167-.006.251-.008zm-54.598 153.8643c14.604 14.6038 34.778 23.6366 57.062 23.6368 44.567 0 80.696-36.129 80.696-80.6963 0-22.2844-9.032-42.4592-23.636-57.0625z" fill="#000" fill-rule="evenodd"/><path d="m0 0h296v296h-296z" fill="#4d1955" transform="translate(588 -174)"/><path clip-rule="evenodd" d="m733.13-122.804c1.64-.041 3.28-.041 4.92 0 .102.003.204.006.306.009.291.008.582.017.873.028.148.006.296.013.444.019.245.01.49.02.734.032.241.012.481.026.721.039.121.007.242.013.362.021.337.02.674.042 1.01.066.03.002.059.004.089.006 10.227.73 20.015 3.049 29.118 6.71.141.056.282.113.422.17.136.055.271.111.406.167.231.095.461.19.691.287.094.04.189.081.283.121 10.071 4.28 19.565 10.342 27.999 18.1894.111.103.221.207.331.3105.173.1622.346.3245.518.4883.047.0454.095.0912.142.1367.245.2345.49.4695.734.707 18.014 17.5849 29.197 42.1354 29.197 69.2979l-.009 1.2519c-.67 52.9037-43.764 95.584-96.827 95.584l-1.251-.0088c-26.245-.3324-49.972-11.1065-67.222-28.3574l-.001.002c-.073-.0738-.146-.1488-.219-.2227-.14-.1409-.28-.2821-.419-.4238-.149-.1516-.297-.3038-.445-.4561-.096-.0994-.192-.199-.288-.2988-.211-.2199-.422-.4398-.631-.6611-.041-.0436-.082-.0873-.123-.1309-8.704-9.2609-15.243-19.8152-19.616-31.02051-3.459-8.844581-5.655-18.32205-6.366-28.21089-.009-.1159-.016-.2318-.024-.3477-.016-.2397-.033-.4795-.047-.7197-.011-.1725-.02-.3451-.03-.5176-.014-.2517-.028-.5036-.04-.7559-.009-.1845-.015-.3691-.023-.5537-.008-.175-.016-.3501-.023-.5254-.09-2.4222-.09-4.8472 0-7.2695.008-.2095.018-.4188.027-.6279.006-.1543.013-.3086.02-.4629.012-.2434.026-.4866.039-.7295.01-.1817.02-.3633.032-.5449.012-.2089.026-.4175.041-.626.011-.1634.022-.3269.034-.4902.709-9.7598 2.866-19.1176 6.256-27.8614 4.719-12.2023 11.999-23.6421 21.845-33.4883 9.608-9.6081 20.733-16.7731 32.604-21.4991.153-.061.306-.123.46-.183.164-.065.328-.128.492-.191.199-.077.398-.154.598-.229.1-.038.201-.076.301-.114 8.158-3.061 16.839-5.053 25.871-5.805.018-.002.036-.004.054-.005.359-.03.718-.058 1.078-.084.048-.004.095-.007.142-.01.318-.022.637-.043.956-.062.144-.009.288-.017.432-.025.22-.012.44-.025.661-.036.26-.013.52-.023.78-.034.132-.006.265-.012.397-.017.311-.011.622-.02.933-.029.084-.002.167-.006.251-.008zm-54.598 153.8643c14.604 14.6038 34.778 23.6366 57.062 23.6368 44.567 0 80.696-36.129 80.696-80.6963 0-22.2844-9.032-42.4592-23.636-57.0625z" fill="#000" fill-rule="evenodd"/><path d="m0 0h296v296h-296z" fill="#263603" transform="translate(882 -174)"/><path clip-rule="evenodd" d="m1027.13-122.804c1.64-.041 3.28-.041 4.92 0 .1.003.2.006.31.009.29.008.58.017.87.028.15.006.3.013.44.019.25.01.49.02.74.032.24.012.48.026.72.039.12.007.24.013.36.021.34.02.67.042 1.01.066.03.002.06.004.09.006 10.23.73 20.01 3.049 29.12 6.71.14.056.28.113.42.17.13.055.27.111.41.167.23.095.46.19.69.287.09.04.18.081.28.121 10.07 4.28 19.56 10.342 28 18.1894.11.103.22.207.33.3105.17.1622.34.3245.52.4883.04.0454.09.0912.14.1367.24.2345.49.4695.73.707 18.02 17.5849 29.2 42.1354 29.2 69.2979l-.01 1.2519c-.67 52.9037-43.76 95.584-96.83 95.584l-1.25-.0088c-26.24-.3324-49.969-11.1065-67.219-28.3574l-.001.002c-.073-.0738-.146-.1488-.219-.2227-.14-.1409-.28-.2821-.419-.4238-.149-.1516-.297-.3038-.445-.4561-.096-.0994-.192-.199-.288-.2988-.211-.2199-.422-.4398-.631-.6611-.041-.0436-.082-.0873-.123-.1309-8.704-9.2609-15.243-19.8152-19.616-31.02051-3.459-8.844581-5.655-18.32205-6.366-28.21089-.009-.1159-.016-.2318-.024-.3477-.016-.2397-.033-.4795-.047-.7197-.011-.1725-.02-.3451-.03-.5176-.014-.2517-.028-.5036-.04-.7559-.009-.1845-.015-.3691-.023-.5537-.008-.175-.016-.3501-.023-.5254-.09-2.4222-.09-4.8472 0-7.2695.008-.2095.018-.4188.027-.6279.006-.1543.013-.3086.02-.4629.012-.2434.026-.4866.039-.7295.01-.1817.02-.3633.032-.5449.012-.2089.026-.4175.041-.626.011-.1634.022-.3269.034-.4902.709-9.7598 2.866-19.1176 6.256-27.8614 4.719-12.2023 11.999-23.6421 21.845-33.4883 9.608-9.6081 20.733-16.7731 32.604-21.4991.153-.061.306-.123.46-.183.164-.065.328-.128.492-.191.199-.077.398-.154.598-.229.1-.038.201-.076.301-.114 8.155-3.061 16.835-5.053 25.875-5.805.01-.002.03-.004.05-.005.36-.03.72-.058 1.08-.084.05-.004.09-.007.14-.01.32-.022.64-.043.96-.062.14-.009.28-.017.43-.025.22-.012.44-.025.66-.036.26-.013.52-.023.78-.034.13-.006.26-.012.4-.017.31-.011.62-.02.93-.029.08-.002.17-.006.25-.008zm-54.598 153.8643c14.604 14.6038 34.778 23.6366 57.058 23.6368 44.57 0 80.7-36.129 80.7-80.6963 0-22.2844-9.03-42.4592-23.64-57.0625z" fill="#000" fill-rule="evenodd"/><path d="m0 0h296v296h-296z" fill="#ff5e00" transform="translate(0 120)"/><path clip-rule="evenodd" d="m145.13 171.196c1.64-.041 3.28-.041 4.92 0 .102.003.204.006.306.009.291.008.582.017.873.028.148.006.296.013.444.019.245.01.49.02.734.032.241.012.481.026.721.039.121.007.242.013.362.021.337.02.674.042 1.01.066.03.002.059.004.089.006 10.227.73 20.015 3.049 29.118 6.71.141.056.282.113.422.17.136.055.271.111.406.167.231.095.461.19.691.287.094.04.189.081.283.121 10.071 4.28 19.565 10.342 27.999 18.189.111.103.221.207.331.311.173.162.346.324.518.488.047.046.095.091.142.137.245.234.49.469.734.707 18.014 17.585 29.197 42.135 29.197 69.298l-.009 1.252c-.67 52.903-43.764 95.584-96.827 95.584l-1.251-.009c-26.245-.333-49.9717-11.107-67.2217-28.357l-.001.001c-.0738-.073-.1462-.148-.2197-.222-.14-.141-.2798-.282-.419-.424-.1488-.152-.2967-.304-.4443-.456-.0963-.099-.1922-.199-.2881-.299-.2113-.22-.422-.44-.6308-.661-.0411-.044-.0821-.087-.1231-.131-8.7043-9.261-15.2436-19.815-19.6162-31.02-3.4592-8.845-5.655-18.322-6.3662-28.211-.0084-.116-.0155-.232-.0235-.348-.0163-.24-.0332-.48-.0478-.72-.0106-.172-.0196-.345-.0293-.517-.014-.252-.028-.504-.04-.756-.009-.185-.0156-.369-.0235-.554-.0074-.175-.016-.35-.0224-.525-.0903-2.423-.0906-4.848 0-7.27.0077-.209.0173-.419.0263-.628.0068-.154.013-.308.0205-.463.0118-.243.0256-.486.0391-.729.0102-.182.02-.363.0312-.545.0128-.209.027-.418.0411-.626.0111-.163.0222-.327.0341-.49.7097-9.76 2.8666-19.118 6.2559-27.862 4.7189-12.202 11.9996-23.642 21.8457-33.488 9.6078-9.608 20.7331-16.773 32.6037-21.499.153-.061.306-.123.46-.183.164-.065.328-.128.492-.191.199-.077.398-.154.598-.229.1-.038.201-.076.301-.114 8.158-3.061 16.839-5.053 25.871-5.805.018-.002.036-.004.054-.005.359-.03.718-.058 1.078-.084.048-.004.095-.007.142-.01.318-.022.637-.043.956-.062.144-.009.288-.017.432-.025.22-.012.44-.025.661-.036.26-.013.52-.023.78-.034.132-.006.265-.012.397-.017.311-.011.622-.02.933-.029.084-.002.167-.006.251-.008zm-54.5976 153.864c14.6036 14.604 34.7776 23.637 57.0616 23.637 44.567 0 80.696-36.129 80.696-80.696 0-22.285-9.032-42.459-23.636-57.063z" fill="#000" fill-rule="evenodd"/><path d="m0 0h296v296h-296z" fill="#fc0" transform="translate(294 120)"/><path clip-rule="evenodd" d="m439.13 171.196c1.64-.041 3.28-.041 4.92 0 .102.003.204.006.306.009.291.008.582.017.873.028.148.006.296.013.444.019.245.01.49.02.734.032.241.012.481.026.721.039.121.007.242.013.362.021.337.02.674.042 1.01.066.03.002.059.004.089.006 10.227.73 20.015 3.049 29.118 6.71.141.056.282.113.422.17.136.055.271.111.406.167.231.095.461.19.691.287.094.04.189.081.283.121 10.071 4.28 19.565 10.342 27.999 18.189.111.103.221.207.331.311.173.162.346.324.518.488.047.046.095.091.142.137.245.234.49.469.734.707 18.014 17.585 29.197 42.135 29.197 69.298l-.009 1.252c-.67 52.903-43.764 95.584-96.827 95.584l-1.251-.009c-26.245-.333-49.972-11.107-67.222-28.357l-.001.001c-.073-.073-.146-.148-.219-.222-.14-.141-.28-.282-.419-.424-.149-.152-.297-.304-.445-.456-.096-.099-.192-.199-.288-.299-.211-.22-.422-.44-.631-.661-.041-.044-.082-.087-.123-.131-8.704-9.261-15.243-19.815-19.616-31.02-3.459-8.845-5.655-18.322-6.366-28.211-.009-.116-.016-.232-.024-.348-.016-.24-.033-.48-.047-.72-.011-.172-.02-.345-.03-.517-.014-.252-.028-.504-.04-.756-.009-.185-.015-.369-.023-.554-.008-.175-.016-.35-.023-.525-.09-2.423-.09-4.848 0-7.27.008-.209.018-.419.027-.628.006-.154.013-.308.02-.463.012-.243.026-.486.039-.729.01-.182.02-.363.032-.545.012-.209.026-.418.041-.626.011-.163.022-.327.034-.49.709-9.76 2.866-19.118 6.256-27.862 4.719-12.202 11.999-23.642 21.845-33.488 9.608-9.608 20.733-16.773 32.604-21.499.153-.061.306-.123.46-.183.164-.065.328-.128.492-.191.199-.077.398-.154.598-.229.1-.038.201-.076.301-.114 8.158-3.061 16.839-5.053 25.871-5.805.018-.002.036-.004.054-.005.359-.03.718-.058 1.078-.084.048-.004.095-.007.142-.01.318-.022.637-.043.956-.062.144-.009.288-.017.432-.025.22-.012.44-.025.661-.036.26-.013.52-.023.78-.034.132-.006.265-.012.397-.017.311-.011.622-.02.933-.029.084-.002.167-.006.251-.008zm-54.598 153.864c14.604 14.604 34.778 23.637 57.062 23.637 44.567 0 80.696-36.129 80.696-80.696 0-22.285-9.032-42.459-23.636-57.063z" fill="#000" fill-rule="evenodd"/><path d="m0 0h296v296h-296z" fill="#6e1527" transform="translate(588 120)"/><path clip-rule="evenodd" d="m733.13 171.196c1.64-.041 3.28-.041 4.92 0 .102.003.204.006.306.009.291.008.582.017.873.028.148.006.296.013.444.019.245.01.49.02.734.032.241.012.481.026.721.039.121.007.242.013.362.021.337.02.674.042 1.01.066.03.002.059.004.089.006 10.227.73 20.015 3.049 29.118 6.71.141.056.282.113.422.17.136.055.271.111.406.167.231.095.461.19.691.287.094.04.189.081.283.121 10.071 4.28 19.565 10.342 27.999 18.189.111.103.221.207.331.311.173.162.346.324.518.488.047.046.095.091.142.137.245.234.49.469.734.707 18.014 17.585 29.197 42.135 29.197 69.298l-.009 1.252c-.67 52.903-43.764 95.584-96.827 95.584l-1.251-.009c-26.245-.333-49.972-11.107-67.222-28.357l-.001.001c-.073-.073-.146-.148-.219-.222-.14-.141-.28-.282-.419-.424-.149-.152-.297-.304-.445-.456-.096-.099-.192-.199-.288-.299-.211-.22-.422-.44-.631-.661-.041-.044-.082-.087-.123-.131-8.704-9.261-15.243-19.815-19.616-31.02-3.459-8.845-5.655-18.322-6.366-28.211-.009-.116-.016-.232-.024-.348-.016-.24-.033-.48-.047-.72-.011-.172-.02-.345-.03-.517-.014-.252-.028-.504-.04-.756-.009-.185-.015-.369-.023-.554-.008-.175-.016-.35-.023-.525-.09-2.423-.09-4.848 0-7.27.008-.209.018-.419.027-.628.006-.154.013-.308.02-.463.012-.243.026-.486.039-.729.01-.182.02-.363.032-.545.012-.209.026-.418.041-.626.011-.163.022-.327.034-.49.709-9.76 2.866-19.118 6.256-27.862 4.719-12.202 11.999-23.642 21.845-33.488 9.608-9.608 20.733-16.773 32.604-21.499.153-.061.306-.123.46-.183.164-.065.328-.128.492-.191.199-.077.398-.154.598-.229.1-.038.201-.076.301-.114 8.158-3.061 16.839-5.053 25.871-5.805.018-.002.036-.004.054-.005.359-.03.718-.058 1.078-.084.048-.004.095-.007.142-.01.318-.022.637-.043.956-.062.144-.009.288-.017.432-.025.22-.012.44-.025.661-.036.26-.013.52-.023.78-.034.132-.006.265-.012.397-.017.311-.011.622-.02.933-.029.084-.002.167-.006.251-.008zm-54.598 153.864c14.604 14.604 34.778 23.637 57.062 23.637 44.567 0 80.696-36.129 80.696-80.696 0-22.285-9.032-42.459-23.636-57.063z" fill="#000" fill-rule="evenodd"/><path d="m0 0h296v296h-296z" fill="#31070f" transform="translate(882 120)"/><path clip-rule="evenodd" d="m1027.13 171.196c1.64-.041 3.28-.041 4.92 0 .1.003.2.006.31.009.29.008.58.017.87.028.15.006.3.013.44.019.25.01.49.02.74.032.24.012.48.026.72.039.12.007.24.013.36.021.34.02.67.042 1.01.066.03.002.06.004.09.006 10.23.73 20.01 3.049 29.12 6.71.14.056.28.113.42.17.13.055.27.111.41.167.23.095.46.19.69.287.09.04.18.081.28.121 10.07 4.28 19.56 10.342 28 18.189.11.103.22.207.33.311.17.162.34.324.52.488.04.046.09.091.14.137.24.234.49.469.73.707 18.02 17.585 29.2 42.135 29.2 69.298l-.01 1.252c-.67 52.903-43.76 95.584-96.83 95.584l-1.25-.009c-26.24-.333-49.969-11.107-67.219-28.357l-.001.001c-.073-.073-.146-.148-.219-.222-.14-.141-.28-.282-.419-.424-.149-.152-.297-.304-.445-.456-.096-.099-.192-.199-.288-.299-.211-.22-.422-.44-.631-.661-.041-.044-.082-.087-.123-.131-8.704-9.261-15.243-19.815-19.616-31.02-3.459-8.845-5.655-18.322-6.366-28.211-.009-.116-.016-.232-.024-.348-.016-.24-.033-.48-.047-.72-.011-.172-.02-.345-.03-.517-.014-.252-.028-.504-.04-.756-.009-.185-.015-.369-.023-.554-.008-.175-.016-.35-.023-.525-.09-2.423-.09-4.848 0-7.27.008-.209.018-.419.027-.628.006-.154.013-.308.02-.463.012-.243.026-.486.039-.729.01-.182.02-.363.032-.545.012-.209.026-.418.041-.626.011-.163.022-.327.034-.49.709-9.76 2.866-19.118 6.256-27.862 4.719-12.202 11.999-23.642 21.845-33.488 9.608-9.608 20.733-16.773 32.604-21.499.153-.061.306-.123.46-.183.164-.065.328-.128.492-.191.199-.077.398-.154.598-.229.1-.038.201-.076.301-.114 8.155-3.061 16.835-5.053 25.875-5.805.01-.002.03-.004.05-.005.36-.03.72-.058 1.08-.084.05-.004.09-.007.14-.01.32-.022.64-.043.96-.062.14-.009.28-.017.43-.025.22-.012.44-.025.66-.036.26-.013.52-.023.78-.034.13-.006.26-.012.4-.017.31-.011.62-.02.93-.029.08-.002.17-.006.25-.008zm-54.598 153.864c14.604 14.604 34.778 23.637 57.058 23.637 44.57 0 80.7-36.129 80.7-80.696 0-22.285-9.03-42.459-23.64-57.063z" fill="#000" fill-rule="evenodd"/><path d="m0 0h296v296h-296z" fill="#9d9cff" transform="translate(0 414)"/><path clip-rule="evenodd" d="m145.13 465.196c1.64-.041 3.28-.041 4.92 0l.306.009c.291.008.582.017.873.028.148.006.296.013.444.019.245.01.49.02.734.032.241.012.481.026.721.039.121.007.242.013.362.021.337.02.674.042 1.01.066.03.002.059.004.089.006 10.227.73 20.015 3.049 29.118 6.71.141.056.282.113.422.17.136.055.271.111.406.167.231.095.461.19.691.287.094.04.189.081.283.121 10.071 4.28 19.565 10.342 27.999 18.189.111.103.221.207.331.311.173.162.346.324.518.488.047.046.095.091.142.137.245.234.49.469.734.707 18.014 17.585 29.197 42.135 29.197 69.298l-.009 1.252c-.67 52.903-43.764 95.584-96.827 95.584l-1.251-.009c-26.245-.333-49.9717-11.107-67.2217-28.357l-.001.001c-.0738-.073-.1462-.148-.2197-.222-.14-.141-.2798-.282-.419-.424-.1488-.152-.2967-.304-.4443-.456-.0963-.099-.1922-.199-.2881-.299-.2113-.22-.422-.44-.6308-.661-.0411-.044-.0821-.087-.1231-.131-8.7043-9.261-15.2436-19.815-19.6162-31.02-3.4592-8.845-5.655-18.322-6.3662-28.211-.0084-.116-.0155-.232-.0235-.348-.0163-.24-.0332-.48-.0478-.72-.0106-.172-.0196-.345-.0293-.517-.014-.252-.028-.504-.04-.756-.009-.185-.0156-.369-.0235-.554-.0074-.175-.016-.35-.0224-.525-.0903-2.423-.0906-4.848 0-7.27.0077-.209.0173-.419.0263-.628.0068-.154.013-.308.0205-.463.0118-.243.0256-.486.0391-.729.0102-.182.02-.363.0312-.545.0128-.209.027-.418.0411-.626.0111-.163.0222-.327.0341-.49.7097-9.76 2.8666-19.118 6.2559-27.862 4.7189-12.202 11.9996-23.642 21.8457-33.488 9.6078-9.608 20.7331-16.773 32.6037-21.499.153-.061.306-.123.46-.183.164-.065.328-.128.492-.191.199-.077.398-.154.598-.229.1-.038.201-.076.301-.114 8.158-3.061 16.839-5.053 25.871-5.805.018-.002.036-.004.054-.005.359-.03.718-.058 1.078-.084.048-.004.095-.007.142-.01.318-.022.637-.043.956-.062.144-.009.288-.017.432-.025.22-.012.44-.025.661-.036.26-.013.52-.023.78-.034.132-.006.265-.012.397-.017.311-.011.622-.02.933-.029.084-.002.167-.006.251-.008zm-54.5976 153.864c14.6036 14.604 34.7776 23.637 57.0616 23.637 44.567 0 80.696-36.129 80.696-80.696 0-22.285-9.032-42.459-23.636-57.063z" fill="#000" fill-rule="evenodd"/><path d="m0 0h296v296h-296z" fill="#5074ef" transform="translate(294 414)"/><path clip-rule="evenodd" d="m439.13 465.196c1.64-.041 3.28-.041 4.92 0l.306.009c.291.008.582.017.873.028.148.006.296.013.444.019.245.01.49.02.734.032.241.012.481.026.721.039.121.007.242.013.362.021.337.02.674.042 1.01.066.03.002.059.004.089.006 10.227.73 20.015 3.049 29.118 6.71.141.056.282.113.422.17.136.055.271.111.406.167.231.095.461.19.691.287.094.04.189.081.283.121 10.071 4.28 19.565 10.342 27.999 18.189.111.103.221.207.331.311.173.162.346.324.518.488.047.046.095.091.142.137.245.234.49.469.734.707 18.014 17.585 29.197 42.135 29.197 69.298l-.009 1.252c-.67 52.903-43.764 95.584-96.827 95.584l-1.251-.009c-26.245-.333-49.972-11.107-67.222-28.357l-.001.001c-.073-.073-.146-.148-.219-.222-.14-.141-.28-.282-.419-.424-.149-.152-.297-.304-.445-.456-.096-.099-.192-.199-.288-.299-.211-.22-.422-.44-.631-.661-.041-.044-.082-.087-.123-.131-8.704-9.261-15.243-19.815-19.616-31.02-3.459-8.845-5.655-18.322-6.366-28.211-.009-.116-.016-.232-.024-.348-.016-.24-.033-.48-.047-.72-.011-.172-.02-.345-.03-.517-.014-.252-.028-.504-.04-.756-.009-.185-.015-.369-.023-.554-.008-.175-.016-.35-.023-.525-.09-2.423-.09-4.848 0-7.27.008-.209.018-.419.027-.628.006-.154.013-.308.02-.463.012-.243.026-.486.039-.729.01-.182.02-.363.032-.545.012-.209.026-.418.041-.626.011-.163.022-.327.034-.49.709-9.76 2.866-19.118 6.256-27.862 4.719-12.202 11.999-23.642 21.845-33.488 9.608-9.608 20.733-16.773 32.604-21.499.153-.061.306-.123.46-.183.164-.065.328-.128.492-.191.199-.077.398-.154.598-.229.1-.038.201-.076.301-.114 8.158-3.061 16.839-5.053 25.871-5.805.018-.002.036-.004.054-.005.359-.03.718-.058 1.078-.084.048-.004.095-.007.142-.01.318-.022.637-.043.956-.062.144-.009.288-.017.432-.025.22-.012.44-.025.661-.036.26-.013.52-.023.78-.034.132-.006.265-.012.397-.017.311-.011.622-.02.933-.029.084-.002.167-.006.251-.008zm-54.598 153.864c14.604 14.604 34.778 23.637 57.062 23.637 44.567 0 80.696-36.129 80.696-80.696 0-22.285-9.032-42.459-23.636-57.063z" fill="#000" fill-rule="evenodd"/><path d="m0 0h296v296h-296z" fill="#390a91" transform="translate(588 414)"/><path clip-rule="evenodd" d="m733.13 465.196c1.64-.041 3.28-.041 4.92 0l.306.009c.291.008.582.017.873.028.148.006.296.013.444.019.245.01.49.02.734.032.241.012.481.026.721.039.121.007.242.013.362.021.337.02.674.042 1.01.066.03.002.059.004.089.006 10.227.73 20.015 3.049 29.118 6.71.141.056.282.113.422.17.136.055.271.111.406.167.231.095.461.19.691.287.094.04.189.081.283.121 10.071 4.28 19.565 10.342 27.999 18.189.111.103.221.207.331.311.173.162.346.324.518.488.047.046.095.091.142.137.245.234.49.469.734.707 18.014 17.585 29.197 42.135 29.197 69.298l-.009 1.252c-.67 52.903-43.764 95.584-96.827 95.584l-1.251-.009c-26.245-.333-49.972-11.107-67.222-28.357l-.001.001c-.073-.073-.146-.148-.219-.222-.14-.141-.28-.282-.419-.424-.149-.152-.297-.304-.445-.456-.096-.099-.192-.199-.288-.299-.211-.22-.422-.44-.631-.661-.041-.044-.082-.087-.123-.131-8.704-9.261-15.243-19.815-19.616-31.02-3.459-8.845-5.655-18.322-6.366-28.211-.009-.116-.016-.232-.024-.348-.016-.24-.033-.48-.047-.72-.011-.172-.02-.345-.03-.517-.014-.252-.028-.504-.04-.756-.009-.185-.015-.369-.023-.554-.008-.175-.016-.35-.023-.525-.09-2.423-.09-4.848 0-7.27.008-.209.018-.419.027-.628.006-.154.013-.308.02-.463.012-.243.026-.486.039-.729.01-.182.02-.363.032-.545.012-.209.026-.418.041-.626.011-.163.022-.327.034-.49.709-9.76 2.866-19.118 6.256-27.862 4.719-12.202 11.999-23.642 21.845-33.488 9.608-9.608 20.733-16.773 32.604-21.499.153-.061.306-.123.46-.183.164-.065.328-.128.492-.191.199-.077.398-.154.598-.229.1-.038.201-.076.301-.114 8.158-3.061 16.839-5.053 25.871-5.805.018-.002.036-.004.054-.005.359-.03.718-.058 1.078-.084.048-.004.095-.007.142-.01.318-.022.637-.043.956-.062.144-.009.288-.017.432-.025.22-.012.44-.025.661-.036.26-.013.52-.023.78-.034.132-.006.265-.012.397-.017.311-.011.622-.02.933-.029.084-.002.167-.006.251-.008zm-54.598 153.864c14.604 14.604 34.778 23.637 57.062 23.637 44.567 0 80.696-36.129 80.696-80.696 0-22.285-9.032-42.459-23.636-57.063z" fill="#000" fill-rule="evenodd"/><path d="m0 0h296v296h-296z" fill="#00165e" transform="translate(882 414)"/><path clip-rule="evenodd" d="m1027.13 465.196c1.64-.041 3.28-.041 4.92 0 .1.003.2.006.31.009.29.008.58.017.87.028.15.006.3.013.44.019.25.01.49.02.74.032.24.012.48.026.72.039.12.007.24.013.36.021.34.02.67.042 1.01.066.03.002.06.004.09.006 10.23.73 20.01 3.049 29.12 6.71.14.056.28.113.42.17.13.055.27.111.41.167.23.095.46.19.69.287.09.04.18.081.28.121 10.07 4.28 19.56 10.342 28 18.189.11.103.22.207.33.311.17.162.34.324.52.488.04.046.09.091.14.137.24.234.49.469.73.707 18.02 17.585 29.2 42.135 29.2 69.298l-.01 1.252c-.67 52.903-43.76 95.584-96.83 95.584l-1.25-.009c-26.24-.333-49.969-11.107-67.219-28.357l-.001.001c-.073-.073-.146-.148-.219-.222-.14-.141-.28-.282-.419-.424-.149-.152-.297-.304-.445-.456-.096-.099-.192-.199-.288-.299-.211-.22-.422-.44-.631-.661-.041-.044-.082-.087-.123-.131-8.704-9.261-15.243-19.815-19.616-31.02-3.459-8.845-5.655-18.322-6.366-28.211-.009-.116-.016-.232-.024-.348-.016-.24-.033-.48-.047-.72-.011-.172-.02-.345-.03-.517-.014-.252-.028-.504-.04-.756-.009-.185-.015-.369-.023-.554-.008-.175-.016-.35-.023-.525-.09-2.423-.09-4.848 0-7.27.008-.209.018-.419.027-.628.006-.154.013-.308.02-.463.012-.243.026-.486.039-.729.01-.182.02-.363.032-.545.012-.209.026-.418.041-.626.011-.163.022-.327.034-.49.709-9.76 2.866-19.118 6.256-27.862 4.719-12.202 11.999-23.642 21.845-33.488 9.608-9.608 20.733-16.773 32.604-21.499.153-.061.306-.123.46-.183.164-.065.328-.128.492-.191.199-.077.398-.154.598-.229.1-.038.201-.076.301-.114 8.155-3.061 16.835-5.053 25.875-5.805.01-.002.03-.004.05-.005.36-.03.72-.058 1.08-.084.05-.004.09-.007.14-.01.32-.022.64-.043.96-.062.14-.009.28-.017.43-.025.22-.012.44-.025.66-.036.26-.013.52-.023.78-.034.13-.006.26-.012.4-.017.31-.011.62-.02.93-.029.08-.002.17-.006.25-.008zm-54.598 153.864c14.604 14.604 34.778 23.637 57.058 23.637 44.57 0 80.7-36.129 80.7-80.696 0-22.285-9.03-42.459-23.64-57.063z" fill="#000" fill-rule="evenodd"/></g></svg>