<svg width="621" height="941" viewBox="0 0 621 941" fill="none" xmlns="http://www.w3.org/2000/svg">
<g clip-path="url(#clip0_45_237)">
<path d="M103.967 463.229C168.589 493.906 233.364 524.534 298.384 554.254C356.694 557.997 415.405 556.595 473.771 559.395C476.348 559.519 479.969 560.055 482.462 560.701L288.684 641.746L286.112 642.051L-0.668945 507.128L103.967 463.229Z" fill="#9D9CFF"/>
<path d="M346.184 415.458L496.033 508.412L311.305 503.255C217.669 458.746 124.222 413.697 30.1071 370.178C28.8725 369.608 25.6875 368.737 25.816 367.041L207.315 372.198L61.3407 281.826C157.255 324.039 250.195 373.453 346.184 415.458Z" fill="#9D9CFF"/>
<path d="M522.525 197.256L556.105 419.976L457.935 253.42C388.476 220.15 319.034 186.033 249.308 153.357L235.744 61.6865L522.525 197.256Z" fill="#9D9CFF"/>
<path d="M286.115 691.115L481.823 609.781L298.387 769.229L10.9602 633.66L63.9243 587.179C137.82 621.963 212.244 656.113 286.115 691.115Z" fill="#9D9CFF"/>
<path d="M343.603 8.10547L629.738 143.674L596.144 395.442C583.222 321.601 573.598 246.808 561.273 172.725C486.505 135.98 410.753 100.822 335.207 65.5608L342.278 8.49495L343.603 8.10547Z" fill="#9D9CFF"/>
<path d="M346.185 867.355L59.4035 733.077C58.1776 732.183 59.0357 731.232 59.4982 730.27C63.9494 721.017 74.9052 710.196 80.0724 700.799L311.306 809.254L495.373 650.76L346.185 867.355Z" fill="#9D9CFF"/>
<path d="M217.008 294.091C268.543 318.326 320.052 343.621 371.379 368.331L346.189 415.457C250.199 373.452 157.26 324.038 61.3451 281.825C60.5994 281.497 59.5715 281.4 58.7644 281.172L58.8933 279.713L84.8899 232.761L215.319 294.284C216.505 294.841 216.931 294.054 217.008 294.091Z" fill="#FF5E00"/>
<path d="M25.8234 367.04C25.6949 368.736 28.8798 369.607 30.1145 370.177C124.229 413.696 217.677 458.745 311.313 503.254L298.395 554.254C233.375 524.533 168.6 493.906 103.978 463.229C73.2195 448.628 42.6712 433.531 11.5334 419.707L25.8234 367.04Z" fill="#FF5E00"/>
<path d="M286.112 642.052V691.115C212.241 656.112 137.817 621.963 63.9214 587.178C42.4267 577.06 21.0944 566.444 -0.3489 556.194L-0.668945 507.128L286.112 642.052Z" fill="#FF5E00"/>
<path d="M335.213 65.5602C410.759 100.821 486.511 135.979 561.279 172.724L522.525 197.256L235.744 61.6871C248.36 53.0155 261.197 44.2793 274.752 37.1841C295.23 45.95 315.052 56.1504 335.213 65.5606V65.5602Z" fill="#FF5E00"/>
<path d="M298.387 769.229L311.305 809.254L80.0719 700.799L24.8226 674.355L10.9602 633.66L298.387 769.229Z" fill="#FF5E00"/>
<path d="M436.623 25.5362C514.381 61.7458 591.661 99.145 669.148 135.928L629.748 143.675L343.613 8.10583L381.974 0.375977C400.207 8.72299 418.452 17.0742 436.623 25.5362Z" fill="#FF5E00"/>
<path d="M346.185 867.355L370.729 894.469C294.655 858.521 218.561 822.573 142.518 786.547C141.026 785.84 139.079 785.783 138.204 785.368C120.09 776.789 102.159 767.679 83.992 759.179L59.4041 733.077L346.185 867.355Z" fill="#FF5E00"/>
<path d="M767.312 147.547L733.079 137.864L448.882 2.93994C459.389 4.27535 471.699 10.2458 482.261 12.508L767.312 147.547Z" fill="#FF5E00"/>
<path d="M669.136 135.929L635.226 387.708L733.08 137.866L767.313 147.549L765.375 153.36L671.077 394.798L820.277 179.828C829.011 186.888 836.888 198.426 845.392 206.068C838.324 216.677 831.336 227.403 824.153 237.929C781.629 300.239 737.385 361.437 695.933 424.482L879.7 265.042C881.076 267.069 892.194 299.661 892.471 302.33C892.938 306.821 891.658 305.853 889.389 308.295L888.097 309.586C885.498 312.094 882.403 314.262 879.7 316.688L878.409 317.979C875.687 320.41 872.75 322.659 870.012 325.08L868.72 326.372C867.477 327.468 866.09 328.505 864.845 329.599L863.553 330.891C862.538 331.782 861.338 332.582 860.323 333.473L859.031 334.764C857.784 335.858 856.405 336.899 855.156 337.992L853.864 339.283C851.109 341.692 848.218 343.986 845.467 346.385L844.176 347.676C842.693 348.969 841.51 350.494 840.3 351.549C796.806 389.464 751.952 426.217 709.496 465.152L904.891 383.182L904.804 432.157C869.895 445.86 835.475 460.943 800.9 475.498C770.327 488.369 739.533 500.866 709.185 514.224L893.264 519.397L879.263 571.08L694.976 565.885L844.702 657.672L820.278 705.965H818.986C818.563 705.923 818.12 705.994 817.694 705.965C817.771 704.397 816.72 704.323 815.774 703.689C769.775 672.866 719.205 646.583 672.801 616.12L669.798 615.255L687.221 643.991L767.176 781.918L733.726 820.876L635.223 653.678C641.32 697.618 648.27 741.498 654.926 785.37C659.542 815.795 664.5 846.201 668.978 876.652L630.382 901.573L596.142 678.856C585.635 743.505 578.559 808.862 569.667 873.813C567.078 892.729 563.826 911.689 561.27 930.623L522.516 938.37L556.095 687.893C525.407 762.483 497.528 838.28 467.614 913.193C464.516 920.952 458.168 936.474 458.168 936.474L423.693 927.395L521.217 677.561L370.729 894.471L346.184 867.357L495.373 650.762L311.306 809.256L298.388 769.231L481.824 609.784L286.115 691.117V642.054L288.687 641.749L482.466 560.704C479.972 560.058 476.351 559.521 473.774 559.398C415.408 556.598 356.698 558 298.388 554.257L311.306 503.257L496.034 508.414L346.184 415.46L371.375 368.334L521.854 459.69L424.339 291.511L457.926 253.423L556.096 419.979L522.516 197.258L561.27 172.727C573.595 246.81 583.219 321.603 596.142 395.444L629.736 143.676L669.136 135.929ZM670.751 395.447V396.093L671.074 395.77L670.751 395.447ZM670.105 396.738V397.384L670.428 397.061L670.105 396.738Z" fill="#F39FFF"/>
<path d="M448.886 2.94237L733.083 137.866L635.229 387.708L669.139 135.929C591.652 99.1458 514.371 61.7467 436.614 25.537L445.343 2.93881C446.373 1.63958 447.754 2.79865 448.886 2.94237Z" fill="#9D9CFF"/>
<path d="M423.686 927.395L136.307 791.77L138.197 785.37C139.072 785.785 141.018 785.842 142.51 786.549C218.553 822.575 294.647 858.523 370.722 894.471L521.21 677.561L423.686 927.395Z" fill="#9D9CFF"/>
<path d="M522.515 938.369C522.515 938.369 482.104 920.085 467.614 913.192C497.527 838.279 525.406 762.482 556.095 687.893L522.515 938.369Z" fill="#9D9CFF"/>
<path d="M630.383 901.573L628.474 901.958L569.668 873.814C578.559 808.863 585.636 743.505 596.143 678.856L630.383 901.573Z" fill="#9D9CFF"/>
<path d="M249.302 153.359C319.028 186.035 388.47 220.152 457.929 253.422L424.342 291.511L136.915 156.587L170.828 117.776C194.455 127.716 217.276 139.39 240.471 150.242C243.122 151.483 247.235 152.391 249.302 153.359Z" fill="#FF5E00"/>
<path d="M424.342 291.51L521.857 459.688L371.378 368.332C320.051 343.623 268.541 318.327 217.007 294.092L136.915 156.586L424.342 291.51Z" fill="#9D9CFF"/>
</g>
<defs>
<clipPath id="clip0_45_237">
<rect width="620" height="941" fill="white" transform="translate(0.584717)"/>
</clipPath>
</defs>
</svg>
