<svg width="1030" height="540" viewBox="0 0 1030 540" fill="none" xmlns="http://www.w3.org/2000/svg">
<rect width="1030" height="540" fill="black"/>
<rect width="103.244" height="103.244" transform="translate(117.767 218.378)" fill="black"/>
<path d="M199.502 259.181V304.438C199.502 306.772 197.567 308.718 195.201 308.718H143.578C141.212 308.718 139.277 306.772 139.277 304.438V259.181L169.389 232.71L199.502 259.181Z" stroke="#EEEEEE" stroke-width="8.6037"/>
<path d="M177.993 282.907V308.718H160.786V282.907H177.993Z" stroke="#EEEEEE" stroke-width="8.6037"/>
<mask id="path-3-inside-1_10_170" fill="white">
<path d="M165.088 304.416H156.484V313.02H165.088V304.416Z"/>
</mask>
<path d="M165.088 304.416H173.692V295.812H165.088V304.416ZM156.484 304.416V295.812H147.881V304.416H156.484ZM156.484 313.02H147.881V321.623H156.484V313.02ZM165.088 313.02V321.623H173.692V313.02H165.088ZM165.088 304.416V295.812H156.484V304.416V313.02H165.088V304.416ZM156.484 304.416H147.881V313.02H156.484H165.088V304.416H156.484ZM156.484 313.02V321.623H165.088V313.02V304.416H156.484V313.02ZM165.088 313.02H173.692V304.416H165.088H156.484V313.02H165.088Z" fill="black" mask="url(#path-3-inside-1_10_170)"/>
<g clip-path="url(#clip0_10_170)">
<rect width="103.244" height="103.244" transform="translate(256.012 218.378)" fill="black"/>
<path d="M359.255 218.378H256.011V321.623H359.255V218.378Z" fill="black"/>
<path d="M273.218 231.283H342.048C344.404 231.284 346.35 233.229 346.35 235.585V291.509C346.35 293.865 344.404 295.811 342.048 295.811H289.411L288.502 296.266L275.142 302.946C272.282 304.375 268.917 302.296 268.916 299.098V235.585C268.917 233.229 270.862 231.284 273.218 231.283Z" stroke="#EEEEEE" stroke-width="8.6037"/>
<path d="M350.651 291.467H342.048V302.35H350.651V291.467Z" fill="black"/>
<g clip-path="url(#clip1_10_170)">
<path d="M314.431 256.75C314.431 253.567 312.065 251.373 308.58 251.373C304.622 251.373 301.955 254.255 301.912 258.342L294.728 257.611C294.857 249.867 300.665 244.189 309.053 244.189C316.151 244.189 322.045 248.319 322.045 256.062C322.045 265.956 311.548 267.118 311.548 272.624H304.45C304.45 262.429 314.431 262.988 314.431 256.75Z" fill="#EEEEEE"/>
<path d="M312.494 276.108H303.89V284.712H312.494V276.108Z" fill="#EEEEEE"/>
</g>
</g>
<g clip-path="url(#clip2_10_170)">
<path d="M497.501 218.378H394.256V321.622H497.501V218.378Z" fill="black"/>
<path d="M437.275 261.396H428.671V269.999H437.275V261.396Z" fill="#EEEEEE"/>
<path d="M463.086 261.396H454.482V269.999H463.086V261.396Z" fill="#EEEEEE"/>
<path d="M437.275 235.584H421.788C417.036 235.584 413.184 239.436 413.184 244.188L413.184 260.033C413.184 263.359 410.488 266.055 407.162 266.055V266.055V278.244V278.244C410.488 278.244 413.184 280.94 413.184 284.267V300.112C413.184 304.863 417.036 308.715 421.788 308.715H437.275" stroke="#EEEEEE" stroke-width="8.6037"/>
<path d="M454.481 235.584H469.968C474.72 235.584 478.572 239.436 478.572 244.188L478.572 260.033C478.572 263.359 481.268 266.055 484.594 266.055V266.055V278.244V278.244C481.268 278.244 478.572 280.94 478.572 284.267V300.112C478.572 304.863 474.72 308.715 469.968 308.715H454.481" stroke="#EEEEEE" stroke-width="8.6037"/>
</g>
<g clip-path="url(#clip3_10_170)">
<path d="M635.744 218.378H532.5V321.622H635.744V218.378Z" fill="black"/>
<path d="M598.229 305.013L624.427 278.814" stroke="#EEEEEE" stroke-width="8.6037" stroke-miterlimit="10"/>
<path d="M601.112 270.517L575.559 244.964C573.924 243.329 571.774 242.426 569.494 242.426H552.415C547.683 242.426 543.812 246.297 543.812 251.029V268.108C543.812 270.388 544.715 272.581 546.35 274.173L571.903 299.726C575.258 303.082 580.721 303.082 584.077 299.726L601.155 282.648C604.511 279.292 604.511 273.829 601.155 270.474L601.112 270.517Z" stroke="#EEEEEE" stroke-width="8.6037" stroke-miterlimit="10"/>
<path d="M559.095 251.626L553.012 257.709L559.095 263.793L565.179 257.709L559.095 251.626Z" fill="#EEEEEE"/>
<path d="M624.43 272.751L586.66 234.98" stroke="#EEEEEE" stroke-width="8.6037" stroke-miterlimit="10"/>
<path d="M598.229 305.012L624.427 278.813" stroke="#EEEEEE" stroke-width="8.6037" stroke-miterlimit="10"/>
<path d="M559.096 251.623L553.013 257.706L559.096 263.79L565.18 257.706L559.096 251.623Z" fill="#EEEEEE"/>
<path d="M624.43 272.751L586.66 234.98" stroke="#EEEEEE" stroke-width="8.6037" stroke-miterlimit="10"/>
</g>
<path d="M773.988 218.378H670.744V321.622H773.988V218.378Z" fill="black"/>
<path d="M736.834 261.396L758.017 308.419L758.08 308.556L758.15 308.688C758.155 308.697 758.157 308.703 758.159 308.708C758.158 308.71 758.158 308.713 758.156 308.716L758.154 308.717H686.615L686.612 308.716C686.611 308.713 686.609 308.711 686.608 308.709C686.61 308.704 686.613 308.698 686.618 308.688L686.689 308.556L686.751 308.419L707.935 261.396H736.834Z" stroke="#EEEEEE" stroke-width="8.6037"/>
<path d="M718.064 257.095V231.283" stroke="#EEEEEE" stroke-width="8.6037" stroke-miterlimit="10"/>
<path d="M718.064 231.283H739.574L735.297 239.56L739.574 248.491H718.064V231.283Z" stroke="#EEEEEE" stroke-width="8.6037" stroke-miterlimit="10"/>
<path d="M700.858 274.302L708.509 280.88C711.212 283.214 715.015 282.896 717.397 280.137C720.146 276.954 724.589 277.06 727.201 280.35C729.629 283.427 733.66 283.745 736.409 281.198L743.877 274.355" stroke="#EEEEEE" stroke-width="8.6037" stroke-miterlimit="10"/>
<path d="M765.385 304.416H752.479V313.02H765.385V304.416Z" fill="black"/>
<path d="M912.232 218.378H808.988V321.622H912.232V218.378Z" fill="black"/>
<path d="M839.016 235.583H890.638C892.994 235.583 894.94 237.529 894.94 239.885V252.79C894.94 255.146 892.994 257.093 890.638 257.093H839.016C836.66 257.093 834.714 255.146 834.714 252.79V239.885C834.715 237.529 836.66 235.583 839.016 235.583Z" stroke="#EEEEEE" stroke-width="8.6037"/>
<path d="M839.016 269.998H890.638C892.994 269.998 894.94 271.944 894.94 274.3V300.112C894.94 302.468 892.994 304.413 890.638 304.413H839.016C836.66 304.413 834.715 302.468 834.715 300.112V274.3C834.715 271.944 836.66 269.998 839.016 269.998Z" stroke="#EEEEEE" stroke-width="8.6037"/>
<path d="M826.195 231.281H817.591V239.885H826.195V231.281Z" fill="#EEEEEE"/>
<path d="M826.195 265.697H817.592V274.3H826.195V265.697Z" fill="#EEEEEE"/>
<path d="M899.327 252.793H890.723V261.396H899.327V252.793Z" fill="black"/>
<path d="M899.327 300.112H890.723V308.716H899.327V300.112Z" fill="black"/>
<defs>
<clipPath id="clip0_10_170">
<rect width="103.244" height="103.244" fill="white" transform="translate(256.012 218.378)"/>
</clipPath>
<clipPath id="clip1_10_170">
<rect width="27.3167" height="40.5234" fill="white" transform="translate(294.728 244.188)"/>
</clipPath>
<clipPath id="clip2_10_170">
<rect width="103.244" height="103.244" fill="white" transform="translate(394.256 218.378)"/>
</clipPath>
<clipPath id="clip3_10_170">
<rect width="103.244" height="103.244" fill="white" transform="translate(532.5 218.378)"/>
</clipPath>
</defs>
</svg>
