<svg fill="none" height="542" viewBox="0 0 1033 542" width="1033" xmlns="http://www.w3.org/2000/svg" xmlns:xlink="http://www.w3.org/1999/xlink"><clipPath id="a"><path d="m0 0h1033v541.573h-1033z"/></clipPath><g clip-path="url(#a)"><path d="m0 0h1033v541.573h-1033z" fill="#00165e"/><path d="m882.775 440.322c0 39.375-31.445 71.408-70.259 71.408h-46.66v125.939h-387.295l.072-395.479h387.223v126.725h46.66c38.741 0 70.259 31.959 70.259 71.407z" fill="#9d9cff"/><path d="m495.327 439.644c0 39.51-31.901 71.655-71.277 71.655h-44.617v126.37h-395.4799v-395.479h125.4569v48.935c0 39.511 31.9 71.581 71.277 71.581 19.688 0 37.452-8.037 50.33-20.984 12.879-12.947 20.873-30.805 20.873-50.597v-48.935h127.543v125.799h44.765c39.302 0 71.277 32.069 71.277 71.655z" fill="#c8d4fa"/><path d="m379.433 242.19v43.143l-122.24-43.143z" fill="#998b7a"/><path d="m766.225 241.702v44.128l-96.28-44.128z" fill="#390a91"/><path d="m485.421 145.734-333.209 141.941c-10.211 4.314-22.075-.432-26.39-10.714l-141.8689-332.994 111.0939-47.314-17.8326-41.849c-14.9563-35.161 1.3662-75.788 36.5276-90.744 35.162-15.029 75.789 1.366 90.817 36.528l17.832 41.849 114.114-48.68 43 102.896 4.026 9.5637-44.94 19.1987c-26.318 11.1454-42.065 36.7437-42.065 63.7082 0 8.9882 1.726 18.19207 5.537 27.0364 14.956 35.1618 55.582 51.5562 90.744 36.528l44.869-19.1987z" fill="#5176f2"/><path d="m574.154-127.85 350.628-90.751c10.739-2.746 21.765 3.713 24.5 14.523l90.708 350.405-116.896 30.246 11.403 44.038c9.555 36.996-12.634 74.74-49.63 84.295-37.008 9.626-74.741-12.635-84.367-49.642l-11.403-44.037-120.089 31.148-27.201-108.152-2.558-10.056 47.298-12.294c27.683-7.103 47.066-30.0717 51.081-56.7357 1.338-8.888 1.002-18.2462-1.45-27.5594-9.555-36.99654-47.288-59.2568-84.295-49.6309l-47.227 12.30462z" fill="#ff5e00"/></g></svg>