<svg fill="none" height="540" viewBox="0 0 1030 540" width="1030" xmlns="http://www.w3.org/2000/svg" xmlns:xlink="http://www.w3.org/1999/xlink"><clipPath id="a"><path d="m0 0h1030v540h-1030z"/></clipPath><clipPath id="b"><path d="m518.742 145.616h3058.34v348.451h-3058.34z"/></clipPath><clipPath id="c"><path d="m518.742 148.598h3058.34v343.543h-3058.34z"/></clipPath><g clip-path="url(#a)"><path d="m0 0h1030v540h-1030z" fill="#000"/><g clip-path="url(#b)"><g clip-path="url(#c)"><path d="m651.443 437.982c36.286 0 62.722-13.927 62.722-39.719 0-63.963-191.794-3.611-191.794-132.052 0-50.036 47.689-92.334 124.407-92.334 67.387 0 122.334 43.846 122.334 106.777h-60.649c-2.592-34.045-22.289-54.162-63.759-54.162-40.95 0-62.203 16.506-62.203 39.719 0 69.637 191.276 4.642 191.276 132.052 0 58.805-46.653 91.818-125.444 91.818-73.089 0-127.517-45.909-129.591-107.293h61.167c3.11 34.561 32.657 55.194 71.534 55.194zm137.885-204.268h34.212v-52.615h56.501v52.615h43.025v47.972h-43.025v155.265h50.282v47.972h-106.783v-203.237h-33.694zm208.9 125.862c0 47.456 22.812 81.501 64.282 81.501 45.61 0 67.9-35.076 67.9-81.501s-22.29-82.533-67.9-82.533c-41.47 0-64.282 34.561-64.282 82.533zm55.462-133.084c35.77 0 60.65 14.443 76.72 39.719v-32.497h56.5v251.209h-56.5v-31.982c-15.03 24.244-39.39 39.203-76.72 39.203-70.494 0-113.518-54.678-113.518-132.568s43.024-133.084 113.518-133.084zm285.62 265.652c-77.75 0-128.55-54.678-128.55-132.568s50.8-133.084 128.55-133.084c68.94 0 117.15 50.551 117.67 105.745h-59.09c-1.56-27.339-18.15-54.678-58.58-54.678-49.24 0-70.5 35.592-70.5 82.017s21.26 80.985 70.5 80.985c41.99 0 58.58-29.402 60.13-60.868h58.58c-1.04 64.995-47.17 112.451-118.71 112.451zm140.48-311.045h57.02v153.201l81.38-100.586h66.87l-81.9 101.102 90.19 150.107h-63.24l-61.16-108.84-32.14 40.234v68.606h-57.02zm527.17 151.654c0-51.583-28.51-106.261-94.34-106.261-66.35 0-95.9 54.678-95.9 106.261s29.55 106.777 95.9 106.777c65.83 0 94.34-55.194 94.34-106.777zm-250.37 0c0-86.144 55.47-158.876 156.03-158.876 100.04 0 149.81 72.732 155.51 158.876-5.7 87.175-55.47 159.391-155.51 159.391-100.56 0-156.03-72.216-156.03-159.391zm312.06-99.039h60.65l56.5 200.657 57.02-200.657h60.65l-78.79 251.209h-77.24zm289.76 98.007h127.52c-3.11-29.918-21.77-54.678-59.09-54.678-39.4 0-60.65 22.697-68.43 54.678zm68.43 160.423c-78.28 0-129.08-54.678-129.08-132.568s50.8-133.084 129.08-133.084c68.42 0 127 55.194 114.56 151.654h-184.02c4.66 36.624 26.43 62.931 69.46 62.931 29.54 0 48.2-15.475 55.98-36.108h59.09c-10.88 51.583-53.91 87.175-115.07 87.175zm138.92-258.43v251.209h56.5v-203.237h81.38v-47.972zm266.44-85.112c-54.43 0-80.35 25.275-80.35 70.152v14.96h-25.92v47.972h25.92v203.237h56.5v-203.237h60.13v-47.972h-60.13v-14.96c0-14.443 8.3-22.18 24.37-22.18h40.95v-47.972zm63.76 0v336.321h57.02v-336.321zm139.44 210.974c0 47.456 23.84 81.501 71.01 81.501s71.02-34.045 71.02-81.501c0-46.425-23.85-82.533-71.02-82.533s-71.01 36.108-71.01 82.533zm71.01-133.084c77.76 0 130.63 55.194 128.56 133.084 2.07 77.89-50.8 132.568-128.56 132.568-78.27 0-129.07-54.678-129.07-132.568s50.8-133.084 129.07-133.084zm130.63 7.222h60.65l36.28 188.277 41.99-188.277h61.69l41.98 188.793 37.32-188.793h60.14l-60.65 251.209h-75.17l-34.21-153.718-34.21 153.718h-75.16z" fill="#eee"/></g></g><path d="m384.287 283.684.641.333-.169.167-.472-.467c-14.41 18.424-26.491 38.714-35.805 60.404-.135.333-.27.633-.405.966-8.976 21.156-15.354 43.645-18.695 67.134-.034.133-.034.299-.034.433-1.788 12.46-2.7 25.187-2.7 38.114 0 10.995.675 21.856 1.958 32.517h-267.606v-71.064h232.375c.439-2.932.945-5.798 1.485-8.696l-223.8712-59.238 18.6278-68.666 226.6384 59.971c1.046-2.299 2.126-4.565 3.206-6.83l-203.388-115.943 35.974-61.536 206.424 117.641c1.62-1.932 3.273-3.864 4.994-5.763l-169.135-166.9513 50.923-50.2753 171.835 169.6826 18.155 17.925c-19.1 14.459-36.243 31.318-50.956 50.142z" fill="#eee"/></g></svg>