<svg width="1030" height="540" viewBox="0 0 1030 540" fill="none" xmlns="http://www.w3.org/2000/svg">
<g clip-path="url(#clip0_140_3)">
<rect width="1030" height="540" fill="black"/>
<rect x="470.13" y="359.043" width="473.955" height="29.2339" transform="rotate(90 470.13 359.043)" fill="#FF5E00"/>
<rect x="470.13" y="358.371" width="29.2339" height="29.2339" transform="rotate(90 470.13 358.371)" fill="#FFCC00"/>
<rect x="422.708" y="155.441" width="677.556" height="29.2339" transform="rotate(90 422.708 155.441)" fill="#FF5E00"/>
<rect x="422.725" y="145.17" width="29.2339" height="29.2339" transform="rotate(90 422.725 145.17)" fill="#FFCC00"/>
<rect x="375.351" y="435.246" width="397.752" height="29.2339" transform="rotate(90 375.351 435.246)" fill="#FF5E00"/>
<rect x="375.351" y="436.066" width="29.2339" height="29.2339" transform="rotate(90 375.351 436.066)" fill="#FFCC00"/>
<rect x="327.963" y="54.2517" width="778.746" height="29.2339" transform="rotate(90 327.963 54.2517)" fill="#FF5E00"/>
<rect x="327.963" y="25.0005" width="29.2339" height="29.2339" transform="rotate(90 327.963 25.0005)" fill="#FFCC00"/>
<rect x="280.541" y="322.902" width="510.096" height="29.2339" transform="rotate(90 280.541 322.902)" fill="#FF5E00"/>
<rect x="280.556" y="322.902" width="29.2339" height="29.2339" transform="rotate(90 280.556 322.902)" fill="#FFCC00"/>
<rect x="185.788" y="236.231" width="596.767" height="29.2339" transform="rotate(90 185.788 236.231)" fill="#FF5E00"/>
<rect x="185.786" y="235.444" width="29.2339" height="29.2339" transform="rotate(90 185.786 235.444)" fill="#FFCC00"/>
<rect x="138.402" y="411.029" width="421.97" height="29.2339" transform="rotate(90 138.402 411.029)" fill="#FF5E00"/>
<rect x="138.402" y="411.029" width="29.2339" height="29.2339" transform="rotate(90 138.402 411.029)" fill="#FFCC00"/>
<rect x="91.0098" y="291.491" width="541.506" height="29.2339" transform="rotate(90 91.0098 291.491)" fill="#FF5E00"/>
<rect x="91.0098" y="291.659" width="29.2339" height="29.2339" transform="rotate(90 91.0098 291.659)" fill="#FFCC00"/>
<rect x="43.6268" y="209.823" width="623.175" height="29.2339" transform="rotate(90 43.6268 209.823)" fill="#FF5E00"/>
<rect x="43.6268" y="209.823" width="29.2339" height="29.2339" transform="rotate(90 43.6268 209.823)" fill="#FFCC00"/>
<rect x="1002" y="359.043" width="473.955" height="29.2339" transform="rotate(90 1002 359.043)" fill="#FF5E00"/>
<rect x="1002" y="358.37" width="29.2339" height="29.2339" transform="rotate(90 1002 358.37)" fill="#FFCC00"/>
<rect x="954.576" y="155.441" width="677.556" height="29.2339" transform="rotate(90 954.576 155.441)" fill="#FF5E00"/>
<rect x="954.593" y="145.17" width="29.2339" height="29.2339" transform="rotate(90 954.593 145.17)" fill="#FFCC00"/>
<rect x="907.22" y="435.246" width="397.752" height="29.2339" transform="rotate(90 907.22 435.246)" fill="#FF5E00"/>
<rect x="907.22" y="436.066" width="29.2339" height="29.2339" transform="rotate(90 907.22 436.066)" fill="#FFCC00"/>
<rect x="859.833" y="54.2517" width="778.746" height="29.2339" transform="rotate(90 859.833 54.2517)" fill="#FF5E00"/>
<rect x="859.833" y="25.0005" width="29.2339" height="29.2339" transform="rotate(90 859.833 25.0005)" fill="#FFCC00"/>
<rect x="812.413" y="322.902" width="510.096" height="29.2339" transform="rotate(90 812.413 322.902)" fill="#FF5E00"/>
<rect x="812.426" y="322.902" width="29.2339" height="29.2339" transform="rotate(90 812.426 322.902)" fill="#FFCC00"/>
<rect x="717.66" y="236.23" width="596.767" height="29.2339" transform="rotate(90 717.66 236.23)" fill="#FF5E00"/>
<rect x="717.658" y="235.443" width="29.2339" height="29.2339" transform="rotate(90 717.658 235.443)" fill="#FFCC00"/>
<rect x="670.274" y="411.029" width="421.97" height="29.2339" transform="rotate(90 670.274 411.029)" fill="#FF5E00"/>
<rect x="670.274" y="411.029" width="29.2339" height="29.2339" transform="rotate(90 670.274 411.029)" fill="#FFCC00"/>
<rect x="622.88" y="291.491" width="541.506" height="29.2339" transform="rotate(90 622.88 291.491)" fill="#FF5E00"/>
<rect x="622.88" y="291.659" width="29.2339" height="29.2339" transform="rotate(90 622.88 291.659)" fill="#FFCC00"/>
<rect x="575.497" y="209.823" width="623.175" height="29.2339" transform="rotate(90 575.497 209.823)" fill="#FF5E00"/>
<rect x="575.497" y="209.823" width="29.2339" height="29.2339" transform="rotate(90 575.497 209.823)" fill="#FFCC00"/>
<rect x="528.102" y="291.491" width="541.506" height="29.2339" transform="rotate(90 528.102 291.491)" fill="#FF5E00"/>
<rect x="528.106" y="291.659" width="29.2339" height="29.2339" transform="rotate(90 528.106 291.659)" fill="#FFCC00"/>
</g>
<defs>
<clipPath id="clip0_140_3">
<rect width="1030" height="540" fill="white"/>
</clipPath>
</defs>
</svg>
