<svg fill="none" height="540" viewBox="0 0 1030 540" width="1030" xmlns="http://www.w3.org/2000/svg" xmlns:xlink="http://www.w3.org/1999/xlink"><clipPath id="a"><path d="m0 0h1030v540h-1030z"/></clipPath><g clip-path="url(#a)"><path d="m0 0h1030v540h-1030z" fill="#c6d1e1"/><g fill="#ff5e00"><path d="m659.044 462.956 287.5 166-287.5 166-287.5-166z"/><path d="m659.044 375.956 287.5 166-287.5 166-287.5-166z"/><path d="m659.044 288.956 287.5 165.5-287.5 165.5-287.5-165.5z"/><path d="m659.044 200.956 287.5 166-287.5 166-287.5-166z"/></g><path d="m371.544 507.918v-53.962l288 166.038v53.962z" fill="#86af25"/><path d="m946.544 453.956v53.962l-287 166.038v-53.962z" fill="#5074ef"/><path d="m659.044 113.956 287.5 166-287.5 166-287.5-166z" fill="#ff5e00"/><path d="m946.544 366.956v53.962l-287 166.038v-53.962z" fill="#5074ef"/><path d="m371.544 420.918v-53.962l288 166.038v53.962z" fill="#86af25"/><path d="m659.044 26.9561 287.5 165.9999-287.5 166-287.5-166z" fill="#ff5e00"/><path d="m659.044-6.04395 287.5 165.99995-287.5 166-287.5-166z" fill="#5074ef"/><path d="m946.544 279.956v53.962l-287 166.038v-53.962z" fill="#5074ef"/><path d="m371.544 333.918v-53.962l288 166.038v53.962z" fill="#86af25"/><path d="m659.044-60.0439 287.5 165.9999-287.5 166-287.5-166z" fill="#ff5e00"/><path d="m659.044-93.0439 287.5 166-287.5 165.9999-287.5-165.9999z" fill="#5074ef"/><path d="m946.544 192.956v53.962l-287 166.038v-53.962z" fill="#5074ef"/><path d="m371.544 246.918v-53.962l288 166.038v53.962z" fill="#86af25"/><path d="m659.044-147.044 287.5 166.0001-287.5 165.9999-287.5-165.9999z" fill="#ff5e00"/><path d="m371.544 159.918v-53.962l288 166.038v53.962z" fill="#86af25"/><path d="m946.544 105.956v53.962l-287 166.038v-53.962z" fill="#5074ef"/><path d="m946.544 18.9561v53.9622l-287 166.0377v-53.962z" fill="#5074ef"/><path d="m371.544 72.9183v-53.9622l288 166.0379v53.962z" fill="#86af25"/></g></svg>