<svg fill="none" height="540" viewBox="0 0 1030 540" width="1030" xmlns="http://www.w3.org/2000/svg" xmlns:xlink="http://www.w3.org/1999/xlink"><clipPath id="a"><path d="m0 0h1030v540h-1030z"/></clipPath><g clip-path="url(#a)"><path d="m0 0h1030v540h-1030z" fill="#998b7a"/><g fill="#fc0"><path d="m918.211 273.99h233.399l-381.189 273.482h-233.402z"/><path d="m1151.61 494.652h-233.399l-381.192-273.482h233.402z"/><path d="m905.579 221.17h233.401l-381.191 273.482h-233.401z"/><path d="m1138.98 547.472h-233.401l-381.191-273.482h233.401z"/><path d="m855.505 111.444h233.405l-291.755 505.328h-233.401z"/><path d="m1088.91 657.198h-233.405l-291.751-505.328h233.401z"/><path d="m1018.4 43.2603-157.894 660.2437h-233.402l157.895-660.2438z"/><path d="m860.506 65.1387 157.894 660.2433h-233.401l-157.895-660.2433z"/><path d="m938.197 27v714.642h-233.402v-714.642z"/></g><path d="m1088.91 111.444 23.34 40.426-291.755 505.328-23.34-40.426z" fill="#ff5e00"/><path d="m1138.98 221.17 12.63 52.82-381.189 273.481-12.632-52.819z" fill="#ff5e00"/><path d="m1161 355.735v57.172h-412.599v-57.172z" fill="#ff5e00"/><path d="m1151.61 494.652-12.63 52.819-381.191-273.481 12.632-52.82z" fill="#ff5e00"/><path d="m1048.9 703.504-30.5 21.878-157.894-660.2432 30.495-21.8786z" fill="#ff5e00"/><path d="m1018.4 43.2603 30.5 21.8785-157.899 660.2432-30.495-21.878z" fill="#ff5e00"/><path d="m1112.25 616.772-23.34 40.426-291.755-505.328 23.34-40.426z" fill="#ff5e00"/><path d="m971.205 27v714.642h-33.008v-714.642z" fill="#ff5e00"/><path d="m891.001 43.2603-30.495 21.8785h-233.402l30.496-21.8786z" fill="#f39fff"/><path d="m820.495 111.444-23.34 40.426h-233.401l23.34-40.426z" fill="#f39fff"/><path d="m757.789 494.652 12.632 52.82h-233.402l-12.631-52.82z" fill="#f39fff"/><path d="m770.421 221.17-12.632 52.82h-233.401l12.631-52.82z" fill="#f39fff"/><path d="m748.401 355.735v57.172h-233.401v-57.172z" fill="#f39fff"/></g></svg>