<svg fill="none" height="540" viewBox="0 0 1030 540" width="1030" xmlns="http://www.w3.org/2000/svg" xmlns:xlink="http://www.w3.org/1999/xlink"><clipPath id="a"><path d="m0 0h1030v540h-1030z"/></clipPath><mask id="b" fill="#000" height="646" maskUnits="userSpaceOnUse" width="475" x="497" y="-53"><path d="m497-53h475v646h-475z" fill="#fff"/><path d="m762.64 0 149.872 379.555-36.597 50.161-97.592-60.194v170.549h-87.135v-170.549l-97.591 60.194-36.597-50.161 149.873-379.555z" fill="#000"/></mask><g clip-path="url(#a)"><path d="m0 0h1030v540h-1030z" fill="#9d9cff"/><path d="m762.64 0 149.872 379.555-36.597 50.161-97.592-60.194v170.549h-87.135v-170.549l-97.591 60.194-36.597-50.161 149.873-379.555z" fill="#fff"/><path d="m762.64 0 48.865-19.295-13.126-33.2415h-35.739zm149.872 379.555 42.441 30.964 17.045-23.362-10.621-26.897zm-36.597 50.161-27.58 44.715 41.372 25.517 28.649-39.268zm-97.592-60.194 27.58-44.715-80.116-49.414v94.129zm0 170.549v52.537h52.537v-52.537zm-87.135 0h-52.536v52.537h52.536zm0-170.549h52.537v-94.129l-80.116 49.414zm-97.591 60.194-42.442 30.964 28.65 39.268 41.371-25.517zm-36.597-50.161-48.865-19.295-10.621 26.897 17.045 23.362zm149.873-379.555v-52.5365h-35.739l-13.126 33.2414zm55.767 0-48.865 19.295 149.872 379.555 48.865-19.295 48.865-19.295-149.872-379.555zm149.872 379.555-42.442-30.965-36.596 50.161 42.441 30.965 42.441 30.964 36.597-50.161zm-36.597 50.161 27.58-44.715-97.592-60.194-27.58 44.715-27.579 44.716 97.591 60.193zm-97.592-60.194h-52.536v170.549h52.536 52.537v-170.549zm0 170.549v-52.536h-87.135v52.536 52.537h87.135zm-87.135 0h52.537v-170.549h-52.537-52.536v170.549zm0-170.549-27.579-44.715-97.592 60.194 27.58 44.715 27.579 44.715 97.592-60.193zm-97.591 60.194 42.441-30.965-36.597-50.161-42.441 30.965-42.441 30.964 36.596 50.161zm-36.597-50.161 48.865 19.295 149.873-379.5549-48.865-19.2951-48.865-19.2951-149.873 379.5551zm149.873-379.555v52.5365h55.767v-52.5365-52.5365h-55.767z" fill="#000" mask="url(#b)"/></g></svg>