<svg fill="none" height="540" viewBox="0 0 1030 540" width="1030" xmlns="http://www.w3.org/2000/svg" xmlns:xlink="http://www.w3.org/1999/xlink"><clipPath id="a"><path d="m0 0h1030v540h-1030z"/></clipPath><clipPath id="b"><path d="m0 0h724.572v1690.67h-724.572z" transform="matrix(.00000004 1 1 -.00000004 -252 -92.2858)"/></clipPath><g clip-path="url(#a)"><path d="m0 0h1030v540h-1030z" fill="#000"/><g clip-path="url(#b)"><path d="m62.7134 36.1752-44.088 29.4785 46.9018 422.3593 44.0868-29.48z" fill="#ff5e00"/><path d="m62.7119 36.176-72.25937-1.0547-44.08603 29.4741 72.2586 1.0606z" fill="#5074ef"/><path d="m18.6243 65.648-72.2591-1.0547 46.90153 422.3597 72.25937 1.054z" fill="#c6d1e1"/><path d="m140.776 45.1633-40.542 51.1139 85.457 385.6298 40.543-51.102z" fill="#ff5e00"/><path d="m100.233 96.2837-72.2595-1.0548 85.4575 385.6411 72.26 1.055z" fill="#c6d1e1"/><path d="m140.776 45.1566-72.2593-1.0547-40.5426 51.132 72.2589 1.0366z" fill="#5074ef"/><path d="m224.858 64.7429-35.046 70.2821 119.895 330.335 35.044-70.284z" fill="#ff5e00"/><path d="m224.858 64.7348-72.259-1.0547-35.046 70.2979 72.261 1.041z" fill="#5074ef"/><path d="m189.815 135.04-72.259-1.055 119.895 330.334 72.259 1.055z" fill="#c6d1e1"/><path d="m310.982 93.9835-27.857 86.0655 148.553 259.1 27.855-86.063z" fill="#ff5e00"/><path d="m310.985 93.9865-72.259-1.0547-27.855 86.0722 72.258 1.048z" fill="#5074ef"/><path d="m282.904 179.812-72.259-1.054 148.781 259.353 72.03.804z" fill="#c6d1e1"/><path d="m400.017 131.568-19.326 97.699 170.048 175.354 19.326-97.671z" fill="#ff5e00"/><path d="m380.691 229.25-72.259-1.055 170.048 175.381 72.259 1.055z" fill="#c6d1e1"/><path d="m400.021 131.566-72.259-1.055-19.325 97.689 72.258 1.065z" fill="#5074ef"/><path d="m482.823 280.318 183.347 83.206 9.864-104.623-183.348-83.206z" fill="#ff5e00"/><path d="m482.823 280.316-72.259-1.055 183.347 83.206 72.259 1.055z" fill="#c6d1e1"/><path d="m492.688 175.696-72.259-1.055-9.864 104.634 72.259 1.044z" fill="#5074ef"/><path d="m593.56 333.644 187.807-12.981-.073-106.503-187.807 12.974z" fill="#ff5e00"/><path d="m593.487 227.138-72.26-1.055.073 106.503 72.26 1.055z" fill="#5074ef"/><path d="m781.294 214.16-72.259-1.054-187.808 12.99 72.26 1.045z" fill="#c6d1e1"/><path d="m700.924 378.549 183.215-108.541-10.007-103.25-183.214 108.539z" fill="#ff5e00"/><path d="m690.916 275.287-72.259-1.054 10.007 103.249 72.259 1.055z" fill="#5074ef"/><path d="m874.133 166.756-72.259-1.055-183.217 108.551 72.261 1.045z" fill="#c6d1e1"/><path d="m816.411 421.122 169.791-198.87-19.459-95.019-169.791 198.863z" fill="#ff5e00"/><path d="m796.951 326.091-72.259-1.055 19.459 95.018 72.259 1.055z" fill="#5074ef"/><path d="m966.743 127.226-72.26-1.054-169.788 198.86 72.257 1.064z" fill="#c6d1e1"/><path d="m935.507 456.596 148.183-279.613-27.97-82.2068-148.183 279.6158z" fill="#ff5e00"/><path d="m907.551 374.387-72.259-1.055 27.972 82.207 72.26 1.055z" fill="#5074ef"/><path d="m1055.72 94.7801-72.261-1.0547-148.167 279.6126 72.245 1.054z" fill="#c6d1e1"/><path d="m1057.52 483.367 119.43-346.875-35.14-65.4332-119.43 346.8702z" fill="#ff5e00"/><path d="m1022.38 417.929 35.14 65.433 84.29-412.3088z" fill="#ff5e00"/><path d="m1022.38 417.912-72.259-1.054 35.138 65.433 72.261 1.054z" fill="#5074ef"/><path d="m1141.81 71.0532-72.26-1.0549-119.429 346.8757 72.259 1.054z" fill="#c6d1e1"/></g></g></svg>