<svg fill="none" height="542" viewBox="0 0 1033 542" width="1033" xmlns="http://www.w3.org/2000/svg" xmlns:xlink="http://www.w3.org/1999/xlink"><clipPath id="a"><path d="m0 0h1033v541.573h-1033z"/></clipPath><g clip-path="url(#a)"><path d="m0 0h1033v541.573h-1033z" fill="#00165e"/><path d="m792.321 344.701h-614.239v196.871h614.239z" fill="#ff5e00"/><path d="m792.32 344.701v196.871l118.123-73.827v-49.217z" fill="#f0efed"/><path d="m910.443 418.527v49.218l39.375-24.609z" fill="#fc0"/><path d="m182.018 541.573c54.364 0 98.435-44.071 98.435-98.436s-44.071-98.436-98.435-98.436c-54.365 0-98.436 44.071-98.436 98.436s44.071 98.436 98.436 98.436z" fill="#f0efed"/><path d="m182.021 478.573c19.571 0 35.437-15.865 35.437-35.437 0-19.571-15.866-35.436-35.437-35.436s-35.437 15.865-35.437 35.436c0 19.572 15.866 35.437 35.437 35.437z" fill="#fc0"/><path d="m193.832 344.701h598.489v70.874z" fill="#423101"/><path d="m792.301 344.501 62.18 39.235c-50.145-24.209-62.18 31.47-62.18 31.47z" fill="#998b7a"/><path d="m248.722 345.002h633.84v-158.46h-633.84z" fill="#9d9cff"/><path d="m248.722 186.542v158.46l-197.5736-51.943v-54.545z" fill="#c8d4fa"/><path d="m51.4831 246.291v39.348l-34.0066-12.233c-7.2551-2.595-7.2551-12.286 0-14.908l34.0066-12.233z" fill="#9d9cff"/><path d="m760.145 246.265h-275.62v39.374h275.62z" fill="#c8d4fa"/><ellipse cx="883.065" cy="265.772" fill="#c8d4fa" rx="78.7286" ry="79.2301"/><path d="m884.845 236.422c-17.234 0-31.185 13.211-31.185 29.53 0 16.32 13.951 29.531 31.185 29.531h106.625v-59.061z" fill="#9d9cff"/><path d="m991.468 295.483c16.312 0 29.532-13.221 29.532-29.531 0-16.309-13.22-29.53-29.532-29.53-16.309 0-29.53 13.221-29.53 29.53 0 16.31 13.221 29.531 29.53 29.531z" fill="#5176f2"/><path d="m248.58 186.542h538.564l-538.564 29.085z" fill="#390a91"/><path d="m248.723 186.542-62.181 16.047c50.146-10.029 62.181 13.038 62.181 13.038z" fill="#9d9cff"/><path d="m787.287.00054932h-660.806c-47.7964.11264568-86.4735 39.98915068-86.3636 88.98995068v4.5058c.1099 49.0007 39.0067 93.2707 86.8036 93.0447h660.366z" fill="#eee"/><path d="m787.113 61.8632 92.737-59.44352 111.745 89.76962-109.658 93.2857-94.604-60.103z" fill="#c6d1e1"/><path d="m881.018 120.865c15.171 0 27.469-12.298 27.469-27.4693 0-15.1709-12.298-27.4693-27.469-27.4693s-27.469 12.2984-27.469 27.4693c0 15.1713 12.298 27.4693 27.469 27.4693z" fill="#00165e"/><path d="m787.286.00054932h-54.157l.58 186.54145068h53.577z" fill="#5074ef"/></g></svg>