<svg fill="none" height="542" viewBox="0 0 1033 542" width="1033" xmlns="http://www.w3.org/2000/svg" xmlns:xlink="http://www.w3.org/1999/xlink"><clipPath id="a"><path d="m0 0h1033v541.573h-1033z"/></clipPath><g clip-path="url(#a)"><path d="m0 0h1033v541.573h-1033z" fill="#00165e"/><path d="m949.097 395.575-26.238 84.546-2.17 6.95-51.935 167.296c-3.695 11.458-14.34 19.222-26.374 19.222h-58.715c-18.916 0-32.306-18.544-26.306-36.511l57.087-178.619 2.238-6.949 24.543-76.716c3.967-11.967 15.493-19.73 28.07-18.916l55.155 3.492c18.035 1.152 30.205 18.984 24.645 36.205z" fill="#fc0"/><path d="m949.098 395.575-26.239 84.546-2.169 6.95-106.243-28.612 2.238-6.949 24.543-76.716c3.967-11.967 15.493-19.73 28.069-18.916l55.156 3.492c18.035 1.152 30.205 18.984 24.645 36.205z" fill="#ff5e00"/><path d="m1035 109.357v12.204l-1.12 289.268h-170.685c-58.206 0-116.141 8.136-172.076 24.103l-330.728 93.971 4.203-603.6234 288.659 129.3285c16.543 7.4241 33.357 14.1024 50.409 20.0349 66.037 22.9502 135.566 34.714 205.705 34.714z" fill="#eee"/><path d="m526.128 225.091c0 35.934-4.678 70.546-13.289 102.887-34.68 130.243-133.396 224.248-249.775 224.248-39.866 0-77.665-11.017-111.497-30.747-89.5639-52.172-151.567-165.263-151.567-296.388 0-180.6528 117.769-327.135 263.064-327.135 84.343 0 159.466 49.4265 207.604 126.2439 18.678 29.7981 33.289 63.698 42.815 100.4461 8.204 31.628 12.645 65.427 12.645 100.445z" fill="#5074ef"/><path d="m1035 109.357v12.204c-37.832 16.408-85.156 26.103-130.853 26.103-79.53 0-151.059-28.171-200.485-73.0205 66.037 22.9503 135.566 34.7135 205.705 34.7135z" fill="#c6d1e1"/><path d="m526.128 225.092c0 35.934-4.678 70.546-13.288 102.886-34.68 130.244-133.397 224.249-249.776 224.249-39.866 0-77.664-11.018-111.497-30.748l-8.407-5.118c335.983-74.174 340.932-373.816 327.508-492.1605 18.679 29.7981 33.29 63.6981 42.816 100.4455 8.203 31.629 12.644 65.427 12.644 100.446z" fill="#390a91"/><path d="m526.127 225.091c0 35.934-4.678 70.546-13.288 102.887l-46.952-.441-217.028-1.966v-200.925h264.624c8.204 31.629 12.644 65.427 12.644 100.445z" fill="#ff5e00"/><path d="m248.858 325.571c44.615 0 80.784-44.972 80.784-100.446 0-55.475-36.169-100.446-80.784-100.446-44.616 0-80.784 44.971-80.784 100.446 0 55.474 36.168 100.446 80.784 100.446z" fill="#eee"/><path d="m526.127 225.091c0 35.934-4.678 70.546-13.289 102.887l-46.951-.441c48.104-75.461 25.933-162.55 11.085-202.891h36.51c8.204 31.629 12.645 65.427 12.645 100.445z" fill="#6e1527"/></g></svg>