<svg width="1030" height="540" viewBox="0 0 1030 540" fill="none" xmlns="http://www.w3.org/2000/svg">
<g clip-path="url(#clip0_9_15)">
<rect width="1030" height="540" fill="#FF5E00"/>
<path d="M-102.631 351.674C-97.9123 409.65 -48.6996 444.032 16.0185 444.032C78.7141 444.032 121.86 419.088 121.86 374.595C121.86 268.08 -176.787 352.348 -176.787 160.89C-176.787 82.6893 -101.957 22.0161 9.27705 22.0161C111.747 22.0161 191.971 88.7566 191.971 182.463H113.096C109.051 124.486 76.0176 90.7791 5.9063 90.7791C-63.5308 90.7791 -99.9347 119.093 -99.9347 160.89C-99.9347 275.495 199.386 185.16 199.386 374.595C199.386 462.234 129.949 512.795 11.9736 512.795C-97.2381 512.795 -178.81 444.032 -182.181 351.674H-102.631ZM1162.67 346.281C1159.3 444.032 1091.89 515.491 985.373 515.491C868.745 515.491 792.567 433.246 792.567 316.618C792.567 199.317 868.745 116.397 985.373 116.397C1087.84 116.397 1157.95 192.575 1161.33 275.495H1084.47C1081.1 229.653 1052.11 183.137 985.373 183.137C905.823 183.137 867.397 239.765 867.397 316.618C867.397 392.797 905.823 448.751 985.373 448.751C1056.16 448.751 1083.8 399.538 1087.17 346.281H1162.67ZM1194.71 -0.904871H1267.51V290.326L1402.34 127.183H1489.98L1365.94 277.518L1505.49 504.705H1422.57L1320.77 331.449L1267.51 396.167V504.705H1194.71V-0.904871Z" fill="#201C1D"/>
<path d="M577.687 515.491C503.531 515.491 446.903 473.02 446.903 397.516C446.903 279.54 577.013 270.102 686.225 270.102V310.551H759.033V504.705H686.225V466.279C662.63 497.963 626.9 515.491 577.687 515.491ZM437.465 266.731C437.465 189.878 496.116 116.396 602.631 116.396C699.708 116.396 752.291 175.047 758.359 270.102H686.225C682.854 215.496 659.933 183.137 602.631 183.137C537.913 183.137 514.318 222.237 514.318 266.731H437.465ZM523.081 394.819C523.081 432.571 549.373 451.447 593.193 451.447C646.45 451.447 686.225 417.066 686.225 355.719V330.775C574.991 327.404 523.081 349.651 523.081 394.819Z" stroke="#201C1D" stroke-dasharray="5 5"/>
<path d="M270.429 504.705V189.205H213.801L213.127 127.183H270.429V32.8027H343.237V127.183H419.416V189.205H343.237V442.684H430.202V504.705H270.429Z" stroke="#201C1D" stroke-dasharray="5 5"/>
<line x1="550.51" y1="183.329" x2="602.564" y2="183.329" stroke="#201C1D"/>
<line x1="654.619" y1="183.285" x2="602.564" y2="183.285" stroke="#201C1D"/>
<circle cx="550.51" cy="183.307" r="2.47705" transform="rotate(-90 550.51 183.307)" fill="#FF5E00" stroke="#201C1D"/>
<circle cx="654.619" cy="183.307" r="2.47705" transform="rotate(90 654.619 183.307)" fill="#FF5E00" stroke="#201C1D"/>
<line x1="437.443" y1="187.898" x2="437.443" y2="265.684" stroke="#201C1D"/>
<line x1="758.066" y1="171.779" x2="758.066" y2="268.846" stroke="#201C1D"/>
<line x1="686.024" y1="227.369" x2="686.024" y2="268.846" stroke="#201C1D"/>
<line x1="567.015" y1="330.537" x2="686.047" y2="330.537" stroke="#201C1D"/>
<line x1="543.702" y1="270.021" x2="686.047" y2="270.021" stroke="#201C1D"/>
<line x1="686.068" y1="424.342" x2="686.068" y2="327.209" stroke="#201C1D"/>
<line x1="514.139" y1="213.629" x2="514.139" y2="265.684" stroke="#201C1D"/>
<circle cx="437.465" cy="187.899" r="2.47705" fill="#FF5E00" stroke="#201C1D"/>
<circle cx="758.088" cy="171.779" r="2.47705" fill="#FF5E00" stroke="#201C1D"/>
<circle cx="686.046" cy="227.369" r="2.47705" fill="#FF5E00" stroke="#201C1D"/>
<circle cx="567.015" cy="330.515" r="2.47705" transform="rotate(-90 567.015 330.515)" fill="#FF5E00" stroke="#201C1D"/>
<circle cx="543.703" cy="270" r="2.47705" transform="rotate(-90 543.703 270)" fill="#FF5E00" stroke="#201C1D"/>
<circle cx="686.046" cy="424.342" r="2.47705" transform="rotate(180 686.046 424.342)" fill="#FF5E00" stroke="#201C1D"/>
<circle cx="514.161" cy="213.629" r="2.47705" fill="#FF5E00" stroke="#201C1D"/>
<line x1="504.315" y1="116.404" x2="702.564" y2="116.404" stroke="#201C1D"/>
<circle cx="502.565" cy="116.396" r="2.47705" fill="#FF5E00" stroke="#201C1D"/>
<circle cx="702.565" cy="116.396" r="2.47705" fill="#FF5E00" stroke="#201C1D"/>
<line x1="497.938" y1="515.499" x2="642.938" y2="515.499" stroke="#201C1D"/>
<circle cx="497.937" cy="515.491" r="2.47705" fill="#FF5E00" stroke="#201C1D"/>
<circle cx="642.937" cy="515.491" r="2.47705" fill="#FF5E00" stroke="#201C1D"/>
<line x1="541.434" y1="451.203" x2="656.708" y2="451.203" stroke="#201C1D"/>
<circle cx="541.433" cy="451.195" r="2.47705" fill="#FF5E00" stroke="#201C1D"/>
<circle cx="656.708" cy="451.195" r="2.47705" fill="#FF5E00" stroke="#201C1D"/>
<path d="M446.735 318.654L446.735 476.903" stroke="#201C1D"/>
<circle cx="446.744" cy="316.904" r="2.47705" transform="rotate(90 446.744 316.904)" fill="#FF5E00" stroke="#201C1D"/>
<circle cx="446.744" cy="476.904" r="2.47705" transform="rotate(90 446.744 476.904)" fill="#FF5E00" stroke="#201C1D"/>
<path d="M522.784 366.715L522.784 426.818" stroke="#201C1D"/>
<circle cx="522.792" cy="426.818" r="2.47705" transform="rotate(90 522.792 426.818)" fill="#FF5E00" stroke="#201C1D"/>
<circle cx="522.792" cy="366.715" r="2.47705" transform="rotate(90 522.792 366.715)" fill="#FF5E00" stroke="#201C1D"/>
<path d="M684.383 469.733L673.375 490.044" stroke="#201C1D"/>
<circle cx="673.382" cy="490.048" r="2.47705" transform="rotate(118.457 673.382 490.048)" fill="#FF5E00" stroke="#201C1D"/>
<circle cx="602.565" cy="116.396" r="4.31592" fill="#FF5E00" stroke="#201C1D"/>
<circle cx="437.464" cy="265.684" r="4.31592" fill="#FF5E00" stroke="#201C1D"/>
<circle cx="514.161" cy="265.684" r="4.31592" fill="#FF5E00" stroke="#201C1D"/>
<circle cx="602.565" cy="183.307" r="4.31592" fill="#FF5E00" stroke="#201C1D"/>
<circle cx="758.088" cy="270" r="4.31592" fill="#FF5E00" stroke="#201C1D"/>
<circle cx="758.088" cy="310.628" r="4.31592" fill="#FF5E00" stroke="#201C1D"/>
<circle cx="758.088" cy="504.705" r="4.31592" fill="#FF5E00" stroke="#201C1D"/>
<circle cx="270.208" cy="504.705" r="4.31592" fill="#FF5E00" stroke="#201C1D"/>
<circle cx="430.203" cy="504.705" r="4.31592" fill="#FF5E00" stroke="#201C1D"/>
<circle cx="430.203" cy="442.605" r="4.31592" fill="#FF5E00" stroke="#201C1D"/>
<circle cx="343.322" cy="442.605" r="4.31592" fill="#FF5E00" stroke="#201C1D"/>
<circle cx="343.322" cy="189.79" r="4.31592" fill="#FF5E00" stroke="#201C1D"/>
<circle cx="419.701" cy="189.79" r="4.31592" fill="#FF5E00" stroke="#201C1D"/>
<circle cx="419.701" cy="127.605" r="4.31592" fill="#FF5E00" stroke="#201C1D"/>
<circle cx="343.322" cy="127.605" r="4.31592" fill="#FF5E00" stroke="#201C1D"/>
<circle cx="343.322" cy="32.8022" r="4.31592" fill="#FF5E00" stroke="#201C1D"/>
<circle cx="270.208" cy="32.8022" r="4.31592" fill="#FF5E00" stroke="#201C1D"/>
<circle cx="270.208" cy="127.605" r="4.31592" fill="#FF5E00" stroke="#201C1D"/>
<circle cx="213.126" cy="127.605" r="4.31592" fill="#FF5E00" stroke="#201C1D"/>
<circle cx="213.126" cy="189.738" r="4.31592" fill="#FF5E00" stroke="#201C1D"/>
<circle cx="270.208" cy="189.738" r="4.31592" fill="#FF5E00" stroke="#201C1D"/>
<circle cx="686.046" cy="504.705" r="4.31592" fill="#FF5E00" stroke="#201C1D"/>
<circle cx="686.568" cy="310.628" r="4.31592" fill="#FF5E00" stroke="#201C1D"/>
<circle cx="686.046" cy="270" r="4.31592" fill="#FF5E00" stroke="#201C1D"/>
<circle cx="446.744" cy="396.904" r="4.31592" fill="#FF5E00" stroke="#201C1D"/>
<circle cx="522.792" cy="396.767" r="4.31592" fill="#FF5E00" stroke="#201C1D"/>
<circle cx="577.937" cy="515.492" r="4.31592" fill="#FF5E00" stroke="#201C1D"/>
<circle cx="593.933" cy="451.195" r="4.31592" fill="#FF5E00" stroke="#201C1D"/>
<circle cx="686.047" cy="330.472" r="4.31592" fill="#FF5E00" stroke="#201C1D"/>
<circle cx="686.047" cy="466.601" r="4.31592" fill="#FF5E00" stroke="#201C1D"/>
</g>
<defs>
<clipPath id="clip0_9_15">
<rect width="1030" height="540" fill="white"/>
</clipPath>
</defs>
</svg>
