<svg fill="none" height="540" viewBox="0 0 1030 540" width="1030" xmlns="http://www.w3.org/2000/svg" xmlns:xlink="http://www.w3.org/1999/xlink"><clipPath id="a"><path d="m0 0h1030v540h-1030z"/></clipPath><g clip-path="url(#a)"><path d="m0 0h1030v540h-1030z" fill="#86af25"/><g fill="#ff5e00"><path d="m643.959 101.478-817.959 472.262 1670 19.677z"/><path d="m646.8 57.2036-681.633 393.5514 1391.663 16.398z"/><path d="m649.64 12.9292-545.307 314.8408 1113.337 13.119z"/><path d="m652.48-31.3452-408.98 236.1312 835 9.838z"/></g><path d="m-34.833 450.755v124.625l710.034 285.324z" fill="#f39fff"/><path d="m655.32-75.6201-272.653 157.4205 556.666 6.5592z" fill="#ff5e00"/><path d="m-34.833 450.755 710.034 409.949 681.629-393.551z" fill="#ff5e00"/><path d="m104.333 327.77v124.625l568.028 203.335z" fill="#f39fff"/><path d="m104.333 327.77 568.028 327.96 545.309-314.842z" fill="#ff5e00"/><path d="m243.5 204.785v124.625l426.02 121.345z" fill="#f39fff"/><path d="m243.5 204.785 426.02 245.97 408.98-236.131z" fill="#ff5e00"/><path d="m382.667 81.8008v124.6242l284.013 39.356z" fill="#f39fff"/><path d="m104.333 452.395 568.028 327.959v-124.624z" fill="#f39fff"/><path d="m382.667 81.8008 284.013 163.9802 272.653-157.421z" fill="#ff5e00"/><path d="m243.5 329.41 426.02 245.97v-124.625z" fill="#f39fff"/><path d="m382.667 206.425 284.013 163.98v-124.625z" fill="#f39fff"/><path d="m521.833-41.1841v124.6246l142.007-42.6347z" fill="#f39fff"/><path d="m521.833 83.4404 142.007 81.9896v-124.6243z" fill="#f39fff"/><path d="m521.833-41.1841 142.007 81.9899 136.327-78.7103z" fill="#ff5e00"/><g fill="#fc0"><path d="m663.84 165.43 136.327-78.7102v-124.6246z"/><path d="m663.84 40.8055v124.6245l136.327-203.3348z"/><path d="m666.681 370.405 272.653-157.421v-124.6241z"/><path d="m666.681 245.78v124.625l272.653-282.0451z"/><path d="m669.521 575.38 408.979-236.131v-124.625z"/><path d="m669.521 450.755v124.625l408.979-360.756z"/><path d="m672.361 780.354 545.309-314.841v-124.624z"/><path d="m672.361 655.73v124.624l545.309-439.465z"/><path d="m675.201 985.329 681.629-393.551v-124.625z"/><path d="m675.201 860.705v124.624l681.629-518.176z"/></g><path d="m0 0h281.76v100.38h-281.76z" fill="#201c1d" transform="translate(31 407.19)"/><path d="m64.9447 466.848c.2471 3.163 1.5815 5.659 4.0032 7.488 2.4712 1.779 5.4859 2.668 9.0443 2.668 3.4102 0 6.2026-.667 8.3771-2.001 2.1746-1.335 3.2619-3.213 3.2619-5.634 0-1.681-.5931-2.99-1.7792-3.929s-2.7676-1.681-4.7445-2.224c-1.9275-.544-4.0774-1.038-6.4497-1.483-2.3228-.445-4.6457-.989-6.9685-1.631-2.3229-.643-4.4728-1.507-6.4496-2.595-1.9275-1.136-3.4843-2.644-4.6705-4.522-1.1861-1.927-1.7792-4.398-1.7792-7.413 0-2.867.8402-5.437 2.5206-7.71 1.7298-2.323 4.1267-4.152 7.1909-5.486 3.0642-1.384 6.6473-2.076 10.7494-2.076 3.7561 0 7.1415.766 10.1563 2.298 3.0642 1.483 5.4859 3.559 7.2651 6.228 1.7792 2.668 2.6688 5.708 2.6688 9.118h-8.6736c-.2471-3.212-1.3097-5.684-3.1878-7.413-1.878-1.78-4.7445-2.669-8.5995-2.669-3.8549 0-6.7708.716-8.7477 2.15-1.9275 1.384-2.8912 3.237-2.8912 5.56 0 1.779.593 3.187 1.7792 4.225 1.1861 1.038 2.7429 1.854 4.6704 2.447 1.9769.543 4.1268 1.038 6.4496 1.482 2.3723.396 4.7198.89 7.0427 1.483s4.448 1.433 6.3755 2.521c1.9769 1.087 3.5584 2.57 4.7445 4.448 1.2356 1.828 1.8534 4.225 1.8534 7.191 0 4.843-1.8286 8.599-5.4859 11.268-3.6078 2.619-8.6489 3.929-15.1233 3.929-4.0032 0-7.611-.766-10.8235-2.298-3.163-1.532-5.6835-3.633-7.5616-6.301-1.878-2.719-2.8665-5.758-2.9653-9.119zm50.1043 16.532-13.344-41.515h8.599l10.305 34.62 10.304-34.62h8.6l-12.232 37.956h.074l-5.931 18.386h-15.864v-6.821h10.082l2.668-8.006zm29.418-41.515h8.006v6.82c.841-2.075 2.323-3.929 4.448-5.56 2.175-1.631 5.239-2.446 9.193-2.446 2.669 0 5.041.544 7.117 1.631 2.125 1.087 3.805 2.891 5.041 5.412 1.235 2.471 1.853 5.831 1.853 10.082v25.576h-8.006v-24.612c0-3.361-.544-6.055-1.631-8.081s-3.213-3.04-6.376-3.04c-1.977 0-3.855.569-5.634 1.706-1.779 1.136-3.237 2.817-4.374 5.041-1.087 2.224-1.631 4.991-1.631 8.303v20.683h-8.006zm46.219 41.515v-34.695h-6.227v-6.82h6.227v-10.379h8.006v10.379h8.377v6.82h-8.377v27.875h9.563v6.82zm21.307-26.169c0-2.817.692-5.486 2.076-8.007 1.384-2.52 3.435-4.571 6.153-6.153 2.718-1.581 6.03-2.372 9.934-2.372 5.338 0 9.415 1.532 12.232 4.596 2.867 3.015 4.498 7.117 4.893 12.306h-7.932c-.198-2.965-1.013-5.288-2.447-6.968-1.384-1.73-3.632-2.595-6.746-2.595-2.372 0-4.275.42-5.708 1.26-1.433.841-2.471 1.977-3.114 3.411-.593 1.383-.889 2.891-.889 4.522zm15.346 27.355c-2.718 0-5.165-.494-7.339-1.483-2.175-1.038-3.88-2.52-5.115-4.448-1.236-1.927-1.854-4.275-1.854-7.042 0-3.262.791-5.832 2.373-7.71 1.581-1.878 3.657-3.262 6.227-4.152 2.619-.889 5.461-1.458 8.525-1.705 3.114-.296 6.178-.445 9.193-.445v4.448h8.006v21.351h-8.006v-4.596c-1.236 1.828-2.867 3.261-4.893 4.299-2.026.989-4.399 1.483-7.117 1.483zm1.779-7.043c2.867 0 5.288-.914 7.265-2.743 1.977-1.828 2.966-4.423 2.966-7.784v-2.743c-6.178-.197-10.725.322-13.641 1.557-2.916 1.186-4.374 3.015-4.374 5.486 0 2.076.667 3.633 2.002 4.671 1.384 1.037 3.311 1.556 5.782 1.556zm23.541-35.658h9.267l8.451 13.344 8.525-13.344h9.267l-13.122 20.609 13.345 20.906h-9.267l-8.748-13.641-8.674 13.641h-9.266l13.344-20.906z" fill="#fff"/><path d="m0 0h328.76v100.38h-328.76z" fill="#201c1d" transform="translate(31 323.595)"/><path d="m64.9447 383.253c.2471 3.163 1.5815 5.659 4.0032 7.488 2.4712 1.779 5.4859 2.669 9.0443 2.669 3.4102 0 6.2026-.668 8.3771-2.002 2.1746-1.334 3.2619-3.212 3.2619-5.634 0-1.68-.5931-2.99-1.7792-3.929s-2.7676-1.681-4.7445-2.224c-1.9275-.544-4.0774-1.038-6.4497-1.483-2.3228-.445-4.6457-.988-6.9685-1.631-2.3229-.642-4.4728-1.507-6.4496-2.594-1.9275-1.137-3.4843-2.645-4.6705-4.523-1.1861-1.927-1.7792-4.398-1.7792-7.413 0-2.866.8402-5.436 2.5206-7.71 1.7298-2.323 4.1267-4.151 7.1909-5.486 3.0642-1.384 6.6473-2.076 10.7494-2.076 3.7561 0 7.1415.767 10.1563 2.299 3.0642 1.482 5.4859 3.558 7.2651 6.227s2.6688 5.708 2.6688 9.118h-8.6736c-.2471-3.212-1.3097-5.683-3.1878-7.413-1.878-1.779-4.7445-2.669-8.5995-2.669-3.8549 0-6.7708.717-8.7477 2.15-1.9275 1.384-2.8912 3.237-2.8912 5.56 0 1.779.593 3.188 1.7792 4.226 1.1861 1.038 2.7429 1.853 4.6704 2.446 1.9769.544 4.1268 1.038 6.4496 1.483 2.3723.395 4.7198.889 7.0427 1.482s4.448 1.434 6.3755 2.521c1.9769 1.087 3.5584 2.57 4.7445 4.448 1.2356 1.829 1.8534 4.226 1.8534 7.191 0 4.843-1.8286 8.599-5.4859 11.268-3.6078 2.62-8.6489 3.929-15.1233 3.929-4.0032 0-7.611-.766-10.8235-2.298-3.163-1.532-5.6835-3.632-7.5616-6.301-1.878-2.718-2.8665-5.758-2.9653-9.119zm39.9253 31.359v-56.342h8.006v6.376c1.285-2.372 3.015-4.226 5.19-5.56 2.224-1.335 4.942-2.002 8.154-2.002 3.806 0 7.092.939 9.86 2.817 2.817 1.878 4.992 4.473 6.524 7.784 1.532 3.312 2.298 7.117 2.298 11.417 0 4.25-.766 8.031-2.298 11.342-1.532 3.312-3.707 5.906-6.524 7.784-2.768 1.829-6.054 2.743-9.86 2.743-3.311 0-6.079-.667-8.303-2.001-2.174-1.384-3.855-3.213-5.041-5.486v21.128zm20.238-20.906c3.559 0 6.376-1.334 8.451-4.003 2.076-2.718 3.114-6.252 3.114-10.601 0-4.399-1.038-7.957-3.114-10.675-2.075-2.719-4.892-4.078-8.451-4.078-2.767 0-5.066.643-6.894 1.928-1.779 1.285-3.114 3.039-4.003 5.263-.89 2.224-1.335 4.745-1.335 7.562 0 2.768.445 5.263 1.335 7.487.889 2.224 2.224 3.979 4.003 5.264 1.828 1.235 4.127 1.853 6.894 1.853zm24.285-49.892 8.896-2.001 2.002 9.044-8.896 2.002zm2.373 14.456h8.006v41.515h-8.006zm23.874 19.72v21.795h-8.006v-41.515h8.006v6.969c.494-1.433 1.285-2.768 2.372-4.003 1.088-1.236 2.546-2.224 4.374-2.966 1.878-.79 4.251-1.186 7.117-1.186v8.007c-2.965 0-5.486.395-7.562 1.186-2.075.791-3.657 2.125-4.744 4.003-1.038 1.829-1.557 4.399-1.557 7.71zm17.408-34.176 8.896-2.001 2.002 9.044-8.896 2.002zm2.372 14.456h8.007v41.515h-8.007zm20.242 41.515v-34.694h-6.227v-6.821h6.227v-10.378h8.007v10.378h8.377v6.821h-8.377v27.874h9.563v6.82zm28.366-18.088v-4.893h-8.451c.346-4.102 1.458-7.611 3.336-10.527 1.928-2.966 4.423-5.239 7.488-6.821 3.064-1.581 6.499-2.372 10.304-2.372 3.756 0 7.166.964 10.231 2.891 3.064 1.928 5.411 4.745 7.042 8.452 1.681 3.657 2.249 8.08 1.705 13.27zm12.677-17.348c-3.311 0-6.103.939-8.377 2.817-2.273 1.878-3.657 4.473-4.151 7.784h23.648c-.296-2.965-1.384-5.461-3.262-7.487-1.878-2.076-4.497-3.114-7.858-3.114zm0 36.622c-4.003 0-7.512-.815-10.527-2.446s-5.436-3.88-7.265-6.746c-1.829-2.916-2.916-6.277-3.262-10.082h8.377c.346 3.558 1.557 6.449 3.633 8.673 2.125 2.224 5.14 3.336 9.044 3.336 2.916 0 5.214-.667 6.895-2.001 1.729-1.384 2.94-3.089 3.632-5.116h8.451c-.988 4.3-3.138 7.784-6.449 10.453-3.312 2.62-7.488 3.929-12.529 3.929zm42.005 0c-3.806 0-7.117-.914-9.934-2.743-2.817-1.878-4.992-4.472-6.524-7.784-1.482-3.311-2.224-7.092-2.224-11.342 0-4.3.742-8.105 2.224-11.417 1.532-3.311 3.707-5.906 6.524-7.784s6.128-2.817 9.934-2.817c3.163 0 5.832.667 8.006 2.002 2.224 1.334 4.004 3.188 5.338 5.56v-20.461h8.006v55.6h-8.006v-6.301c-1.236 2.273-2.965 4.102-5.189 5.486-2.175 1.334-4.893 2.001-8.155 2.001zm1.112-7.265c2.718 0 4.967-.618 6.746-1.853 1.829-1.285 3.188-3.04 4.078-5.264.939-2.224 1.408-4.719 1.408-7.487 0-2.817-.469-5.338-1.408-7.562-.89-2.224-2.249-3.978-4.078-5.263-1.779-1.285-4.028-1.928-6.746-1.928-3.608 0-6.45 1.359-8.525 4.078-2.027 2.718-3.04 6.276-3.04 10.675 0 4.349 1.013 7.883 3.04 10.601 2.075 2.669 4.917 4.003 8.525 4.003zm25.535-3.039h9.193v9.118c0 2.274-.643 3.979-1.928 5.115-1.285 1.137-3.015 1.705-5.189 1.705v-3.929c.988 0 1.655-.271 2.001-.815.396-.494.593-1.186.593-2.076h-4.67z" fill="#fff"/><path d="m0 0h292.76v100.38h-292.76z" fill="#201c1d" transform="translate(31 240)"/><path d="m64.9447 299.658c.2471 3.163 1.5815 5.659 4.0032 7.488 2.4712 1.779 5.4859 2.668 9.0443 2.668 3.4102 0 6.2026-.667 8.3771-2.001 2.1746-1.335 3.2619-3.213 3.2619-5.634 0-1.681-.5931-2.99-1.7792-3.929s-2.7676-1.681-4.7445-2.224c-1.9275-.544-4.0774-1.038-6.4497-1.483-2.3228-.445-4.6457-.989-6.9685-1.631-2.3229-.643-4.4728-1.507-6.4496-2.595-1.9275-1.136-3.4843-2.644-4.6705-4.522-1.1861-1.927-1.7792-4.398-1.7792-7.413 0-2.867.8402-5.437 2.5206-7.71 1.7298-2.323 4.1267-4.152 7.1909-5.486 3.0642-1.384 6.6473-2.076 10.7494-2.076 3.7561 0 7.1415.766 10.1563 2.298 3.0642 1.483 5.4859 3.559 7.2651 6.228 1.7792 2.668 2.6688 5.708 2.6688 9.118h-8.6736c-.2471-3.212-1.3097-5.684-3.1878-7.413-1.878-1.779-4.7445-2.669-8.5995-2.669-3.8549 0-6.7708.717-8.7477 2.15-1.9275 1.384-2.8912 3.237-2.8912 5.56 0 1.779.593 3.188 1.7792 4.225 1.1861 1.038 2.7429 1.854 4.6704 2.447 1.9769.543 4.1268 1.038 6.4496 1.482 2.3723.396 4.7198.89 7.0427 1.483s4.448 1.433 6.3755 2.521c1.9769 1.087 3.5584 2.57 4.7445 4.448 1.2356 1.828 1.8534 4.225 1.8534 7.191 0 4.843-1.8286 8.599-5.4859 11.268-3.6078 2.619-8.6489 3.929-15.1233 3.929-4.0032 0-7.611-.766-10.8235-2.298-3.163-1.532-5.6835-3.633-7.5616-6.301-1.878-2.719-2.8665-5.758-2.9653-9.119zm38.4043-39.439 8.896-2.002 2.002 9.045-8.896 2.001zm2.373 14.456h8.006v41.515h-8.006zm23.874 20.832v20.683h-8.006v-41.515h8.006v6.746c.791-2.026 2.15-3.855 4.078-5.486 1.927-1.631 4.621-2.446 8.08-2.446 2.817 0 5.264.692 7.339 2.076 2.076 1.334 3.583 3.583 4.522 6.746.594-1.433 1.434-2.817 2.521-4.152 1.137-1.383 2.57-2.495 4.3-3.336 1.779-.889 3.904-1.334 6.375-1.334 2.57 0 4.819.544 6.746 1.631 1.928 1.087 3.435 2.891 4.523 5.412 1.087 2.471 1.631 5.832 1.631 10.082v25.576h-8.007v-24.612c0-2.274-.173-4.226-.519-5.857-.296-1.68-.939-2.965-1.927-3.855-.989-.939-2.471-1.408-4.448-1.408-1.73 0-3.386.568-4.967 1.705-1.532 1.136-2.793 2.817-3.781 5.041-.939 2.224-1.409 4.991-1.409 8.303v20.683h-8.006v-24.612c0-2.274-.173-4.226-.519-5.857-.297-1.68-.939-2.965-1.927-3.855-.989-.939-2.472-1.408-4.449-1.408-1.729 0-3.385.568-4.966 1.705-1.533 1.136-2.793 2.817-3.781 5.041-.939 2.224-1.409 4.991-1.409 8.303zm57.226 35.51v-56.342h8.007v6.376c1.285-2.373 3.014-4.226 5.189-5.56 2.224-1.335 4.942-2.002 8.155-2.002 3.805 0 7.092.939 9.859 2.817 2.817 1.878 4.992 4.473 6.524 7.784s2.298 7.117 2.298 11.417c0 4.25-.766 8.031-2.298 11.342s-3.707 5.906-6.524 7.784c-2.767 1.829-6.054 2.743-9.859 2.743-3.312 0-6.079-.667-8.303-2.002-2.175-1.383-3.855-3.212-5.041-5.485v21.128zm20.239-20.906c3.558 0 6.375-1.334 8.451-4.003 2.076-2.718 3.113-6.252 3.113-10.601 0-4.399-1.037-7.957-3.113-10.676-2.076-2.718-4.893-4.077-8.451-4.077-2.768 0-5.066.643-6.895 1.928-1.779 1.285-3.113 3.039-4.003 5.263s-1.334 4.745-1.334 7.562c0 2.767.444 5.263 1.334 7.487s2.224 3.979 4.003 5.264c1.829 1.235 4.127 1.853 6.895 1.853zm25.588-49.521h8.006v55.6h-8.006zm22.166 37.511v-4.892h-8.451c.346-4.103 1.458-7.612 3.336-10.527 1.928-2.966 4.423-5.239 7.488-6.821 3.064-1.581 6.499-2.372 10.304-2.372 3.756 0 7.166.964 10.231 2.891 3.064 1.928 5.411 4.745 7.042 8.451 1.681 3.658 2.249 8.081 1.705 13.27zm12.677-17.347c-3.311 0-6.103.939-8.377 2.817-2.273 1.878-3.657 4.473-4.151 7.784h23.648c-.296-2.965-1.384-5.461-3.262-7.487-1.878-2.076-4.497-3.114-7.858-3.114zm0 36.622c-4.003 0-7.512-.815-10.527-2.446s-5.436-3.88-7.265-6.746c-1.828-2.916-2.916-6.277-3.262-10.083h8.377c.346 3.559 1.557 6.45 3.633 8.674 2.125 2.224 5.14 3.336 9.044 3.336 2.916 0 5.214-.667 6.895-2.002 1.729-1.383 2.94-3.089 3.632-5.115h8.451c-.988 4.3-3.138 7.784-6.449 10.453-3.312 2.619-7.488 3.929-12.529 3.929zm22.174-10.304h9.192v9.118c0 2.273-.642 3.978-1.927 5.115s-3.015 1.705-5.19 1.705v-3.929c.989 0 1.656-.272 2.002-.815.395-.495.593-1.186.593-2.076h-4.67z" fill="#fff"/></g></svg>