<svg xmlns="http://www.w3.org/2000/svg" viewBox="0 0 400 240" role="img" aria-labelledby="title desc">
    <title id="title">Wide placeholder landscape</title>
    <desc id="desc">A neutral landscape-style placeholder image for object-fit examples.</desc>
    <rect width="400" height="240" fill="#dff1fb" />
    <circle cx="316" cy="64" r="26" fill="#f7c55f" />
    <g fill="#ffffff" opacity="0.9">
        <ellipse cx="82" cy="64" rx="24" ry="12" />
        <ellipse cx="102" cy="58" rx="16" ry="10" />
        <ellipse cx="118" cy="66" rx="18" ry="11" />
        <ellipse cx="250" cy="82" rx="22" ry="11" />
        <ellipse cx="269" cy="77" rx="15" ry="9" />
        <ellipse cx="285" cy="84" rx="17" ry="10" />
    </g>
    <path d="M0 180 72 116 132 162 204 94 280 154 340 126 400 170V240H0Z" fill="#69a77f" />
    <path d="M0 193 78 146 142 186 229 128 300 184 365 159 400 178V240H0Z" fill="#4d8a63" />
    <rect y="196" width="400" height="44" fill="#7d5f49" />
    <rect x="44" y="152" width="54" height="44" rx="4" fill="#ffffff" />
    <rect x="58" y="166" width="26" height="30" fill="#d6e5f3" />
    <path d="M36 156 71 132 106 156Z" fill="#f48225" />
    <path d="M208 140c18-18 40-18 58 0s40 18 58 0v12c-18 18-40 18-58 0s-40-18-58 0Z" fill="#d0e7f4" opacity="0.65" />
</svg>
