<svg xmlns="http://www.w3.org/2000/svg" viewBox="0 0 90 60" role="img" aria-labelledby="title desc">
    <title id="title">Small placeholder landscape</title>
    <desc id="desc">A neutral small landscape-style placeholder image for object-fit examples.</desc>
    <rect width="90" height="60" fill="#dff1fb" />
    <circle cx="71" cy="16" r="7" fill="#f7c55f" />
    <g fill="#ffffff" opacity="0.9">
        <ellipse cx="18" cy="16" rx="7" ry="4" />
        <ellipse cx="24" cy="14" rx="5" ry="3" />
        <ellipse cx="30" cy="17" rx="5" ry="3" />
    </g>
    <path d="M0 45 15 30 29 39 46 24 63 37 77 31 90 42V60H0Z" fill="#69a77f" />
    <path d="M0 48 17 37 32 46 50 33 68 45 82 39 90 43V60H0Z" fill="#4d8a63" />
    <rect y="49" width="90" height="11" fill="#7d5f49" />
    <rect x="11" y="38" width="12" height="11" rx="1" fill="#ffffff" />
    <rect x="15" y="42" width="5" height="7" fill="#d6e5f3" />
    <path d="M9 39 17 33 25 39Z" fill="#f48225" />
</svg>
