<svg fill="none" height="755" viewBox="0 0 966 755" width="966" xmlns="http://www.w3.org/2000/svg" xmlns:xlink="http://www.w3.org/1999/xlink"><filter id="a" color-interpolation-filters="sRGB" filterUnits="userSpaceOnUse" height="145.62" width="272.349" x="592.55" y="569.115"><feFlood flood-opacity="0" result="BackgroundImageFix"/><feColorMatrix in="SourceAlpha" result="hardAlpha" type="matrix" values="0 0 0 0 0 0 0 0 0 0 0 0 0 0 0 0 0 0 127 0"/><feOffset dy="4"/><feGaussianBlur stdDeviation="2"/><feComposite in2="hardAlpha" operator="out"/><feColorMatrix type="matrix" values="0 0 0 0 1 0 0 0 0 0 0 0 0 0 0 0 0 0 0.75 0"/><feBlend in2="BackgroundImageFix" mode="normal" result="effect1_dropShadow_131_34"/><feBlend in="SourceGraphic" in2="effect1_dropShadow_131_34" mode="normal" result="shape"/></filter><clipPath id="b"><path d="m0 0h966v755h-966z"/></clipPath><g clip-path="url(#b)"><path d="m0 0h478v245h-478z" fill="#e5e5e5"/><path d="m0 0h15.4643v17.5332h-15.4643z" fill="#ff1e1e"/><path d="m9.49485 12.7666-1.76-2.7-1.77 2.7h-1.08l2.31-3.52-2.28-3.48h1.08l1.74 2.65 1.73-2.65h1.07995l-2.26995 3.48 2.29995 3.52z" fill="#fff"/><path d="m0 0h165.464v17.5332h-165.464z" fill="#eee" transform="translate(15.4648)"/><path d="m22.417 5.7666h1.23l2.41 7h-.99l-.56-1.7h-2.9l-.54 1.7h-.98zm-.55 4.49h2.37l-1.2-3.64zm4.1766-3.09h.98l1.52 4.85 1.51-4.85h.98l-1.85 5.6h-1.29zm8.3792 5.76c-1.73 0-2.86-1.22-2.86-2.95 0-1.74 1.13-2.97 2.86-2.97s2.86 1.23 2.86 2.97c0 1.73-1.13 2.95-2.86 2.95zm0-.83c1.16 0 1.92-.82 1.92-2.12 0-1.32-.76-2.14-1.92-2.14s-1.93.82-1.93 2.14c0 1.3.77 2.12 1.93 2.12zm4.0025-4.93h.91v5.6h-.91zm-.07-1.9h1.05v1.08h-1.05zm4.6533 7.66c-1.52 0-2.52-1.22-2.52-2.95 0-1.74 1-2.97 2.52-2.97.91 0 1.54.44 1.9 1.14v-2.88h.9v7.5h-.9v-.96c-.34.67-.96 1.12-1.9 1.12zm.1-.83c1.2 0 1.8-.89 1.8-2.12 0-1.24-.6-2.14-1.8-2.14-1.02 0-1.69.82-1.69 2.14 0 1.3.67 2.12 1.69 2.12zm11.0586.67h-.9v-.96c-.25.57-.81 1.12-1.88 1.12-1.08 0-1.9-.6-1.9-2.31v-3.45h.9v3.32c0 1.03.3 1.65 1.21 1.65.9 0 1.67-.83 1.67-2.16v-2.81h.9zm2.0353-1.77c.06.75.7 1.16 1.52 1.16.8 0 1.33-.31 1.33-.96 0-1.3-3.66-.23-3.66-2.47 0-.9.88-1.72 2.25-1.72 1.21 0 2.22.78 2.22 1.92h-.83c-.05-.76-.66-1.15-1.43-1.15-.87 0-1.32.4-1.32.95 0 1.42 3.67.26 3.67 2.47 0 1.06-.87 1.73-2.28 1.73-1.32 0-2.31-.83-2.35-1.93zm4.9376-3.83h.91v5.6h-.91zm-.07-1.9h1.05v1.08h-1.05zm2.3726 1.9h.9v.95c.25-.57.81-1.11 1.89-1.11s1.89.6 1.89 2.31v3.45h-.9v-3.32c0-1.04-.3-1.65-1.21-1.65-.9 0-1.67.82-1.67 2.15v2.82h-.9zm8.3061 5.56c-1.52 0-2.52-1.12-2.52-2.85 0-1.74 1-2.87 2.52-2.87.91 0 1.54.38 1.9 1.05v-.89h.9v5.3c0 1.58-.98 2.46-2.43 2.46-1.78 0-2.44-.97-2.6-1.92h.94c.13.72.7 1.09 1.66 1.09.98 0 1.53-.51 1.53-1.63v-.78c-.34.64-.96 1.04-1.9 1.04zm.1-.83c1.2 0 1.8-.79 1.8-2.02 0-1.24-.6-2.04-1.8-2.04-1.02 0-1.69.72-1.69 2.04 0 1.3.67 2.02 1.69 2.02zm9.0291 1.03c-1.73 0-2.86-1.22-2.86-2.95 0-1.74 1.13-2.97 2.86-2.97s2.86 1.23 2.86 2.97c0 1.73-1.13 2.95-2.86 2.95zm0-.83c1.16 0 1.92-.82 1.92-2.12 0-1.32-.76-2.14-1.92-2.14s-1.93.82-1.93 2.14c0 1.3.77 2.12 1.93 2.12zm4.2241-5.56c0-.7.42-1.27 1.43-1.27h1.04v.77h-1.03c-.36 0-.54.17-.54.5v.63h1.38v.77h-1.38v4.83h-.9v-4.83h-.64v-.77h.64zm3.9941 0c0-.7.42-1.27 1.43-1.27h1.04v.77h-1.03c-.36 0-.54.17-.54.5v.63h1.38v.77h-1.38v4.83h-.9v-4.83h-.64v-.77h.64zm3.0857 2.64h3.15v.77h-3.15zm7.1375 3.75c-.94 0-1.56-.44-1.9-1.11v.95h-.9v-7.5h.9v2.86c.36-.7.99-1.12 1.9-1.12 1.5197 0 2.5197 1.23 2.5197 2.97 0 1.73-1 2.95-2.5197 2.95zm-.1-.83c1.0197 0 1.6897-.82 1.6897-2.12 0-1.32-.67-2.14-1.6897-2.14-1.19 0-1.8.9-1.8 2.14 0 1.23.61 2.12 1.8 2.12zm3.7257-4.93h.9v.97c.22-.58.75-1.13 1.92-1.13v.93c-1.19 0-1.92.46-1.92 1.79v3.04h-.9zm5.835-.16c1.5 0 2.27.99 2.27 2.56v3.2h-.91v-.81c-.3.6-.83.97-1.69.97-1.1 0-1.96-.63-1.96-1.75 0-1.76 1.94-1.97 3.64-1.87-.06-.93-.47-1.48-1.35-1.48-.94 0-1.44.58-1.44 1.31h-.96c0-1.1.84-2.13 2.4-2.13zm-1.34 4.12c0 .67.42 1.02 1.22 1.02.92 0 1.48-.68 1.48-1.59v-.57c-1.8-.13-2.7.39-2.7 1.14zm4.889-3.96h.9v.95c.25-.57.81-1.11 1.89-1.11s1.89.6 1.89 2.31v3.45h-.9v-3.32c0-1.04-.3-1.65-1.21-1.65-.9 0-1.67.82-1.67 2.15v2.82h-.9zm8.287 5.76c-1.52 0-2.52-1.22-2.52-2.95 0-1.74 1-2.97 2.52-2.97.91 0 1.54.44 1.9 1.14v-2.88h.9v7.5h-.9v-.96c-.34.67-.96 1.12-1.9 1.12zm.1-.83c1.2 0 1.8-.89 1.8-2.12 0-1.24-.6-2.14-1.8-2.14-1.02 0-1.69.82-1.69 2.14 0 1.3.67 2.12 1.69 2.12zm6.149-4.93h.94v-1.4h.9v1.4h1.11v.77h-1.11v3.41c0 .46.22.65.62.65h.65v.77h-.66c-1.01 0-1.51-.57-1.51-1.42v-3.41h-.94zm4.316 7.6v-.77h.67c.76 0 .9-.54 1.14-1.23h-.39l-1.85-5.6h.98l1.51 4.82 1.52-4.82h.98l-1.85 5.6c-.44 1.38-.81 2-2.03 2zm8.373-1.84c-.94 0-1.56-.45-1.9-1.12v2.96h-.9v-7.6h.9v.98c.36-.7.99-1.14 1.9-1.14 1.52 0 2.52 1.23 2.52 2.97 0 1.73-1 2.95-2.52 2.95zm-.1-.83c1.02 0 1.69-.82 1.69-2.12 0-1.32-.67-2.14-1.69-2.14-1.19 0-1.8.9-1.8 2.14 0 1.23.61 2.12 1.8 2.12zm8.905-1.1c-.28 1.15-1.19 1.93-2.55 1.93-1.73 0-2.86-1.22-2.86-2.95 0-1.74 1.13-2.97 2.86-2.97 1.52 0 2.74 1.2 2.56 3.27h-4.48c.11 1.07.76 1.82 1.92 1.82.9 0 1.39-.48 1.59-1.1zm-4.44-1.51h3.57c-.11-.98-.7-1.65-1.68-1.65-1.09 0-1.73.67-1.89 1.65zm5.851-2.95c0-.7.42-1.27 1.43-1.27h1.04v.77h-1.03c-.36 0-.54.17-.54.5v.63h1.38v.77h-1.38v4.83h-.9v-4.83h-.64v-.77h.64zm5.484.47c1.5 0 2.27.99 2.27 2.56v3.2h-.91v-.81c-.3.6-.83.97-1.69.97-1.1 0-1.96-.63-1.96-1.75 0-1.76 1.94-1.97 3.64-1.87-.06-.93-.47-1.48-1.35-1.48-.94 0-1.44.58-1.44 1.31h-.96c0-1.1.84-2.13 2.4-2.13zm-1.34 4.12c0 .67.42 1.02 1.22 1.02.92 0 1.48-.68 1.48-1.59v-.57c-1.8-.13-2.7.39-2.7 1.14zm10.17-.71c-.08 1.45-1.05 2.51-2.63 2.51-1.73 0-2.86-1.22-2.86-2.95 0-1.74 1.13-2.97 2.86-2.97 1.52 0 2.53 1.13 2.61 2.36h-.95c-.07-.76-.57-1.53-1.66-1.53-1.26 0-1.93.9-1.93 2.14 0 1.23.67 2.11 1.93 2.11 1.17 0 1.63-.81 1.7-1.67zm6.268.58c-.28 1.15-1.19 1.93-2.55 1.93-1.73 0-2.86-1.22-2.86-2.95 0-1.74 1.13-2.97 2.86-2.97 1.52 0 2.74 1.2 2.56 3.27h-4.48c.11 1.07.76 1.82 1.92 1.82.9 0 1.39-.48 1.59-1.1zm-4.44-1.51h3.57c-.11-.98-.7-1.65-1.68-1.65-1.09 0-1.73.67-1.89 1.65zm6.306 1.51c.06.75.7 1.16 1.52 1.16.8 0 1.33-.31 1.33-.96 0-1.3-3.66-.23-3.66-2.47 0-.9.88-1.72 2.25-1.72 1.21 0 2.22.78 2.22 1.92h-.83c-.05-.76-.66-1.15-1.43-1.15-.87 0-1.32.4-1.32.95 0 1.42 3.67.26 3.67 2.47 0 1.06-.87 1.73-2.28 1.73-1.32 0-2.31-.83-2.35-1.93z" fill="#201c1d"/><path d="m113.478 111.5v-50.1074h6.631v44.1944h24.678v5.913zm61.201-11.6895 6.357.7865c-1.002 3.714-2.859 6.596-5.571 8.647s-6.175 3.076-10.391 3.076c-5.309 0-9.524-1.629-12.646-4.887-3.099-3.282-4.649-7.8731-4.649-13.7748 0-6.1068 1.573-10.8464 4.717-14.2187 3.145-3.3724 7.224-5.0586 12.237-5.0586 4.853 0 8.818 1.652 11.894 4.956 3.076 3.3041 4.614 7.9525 4.614 13.9453 0 .3646-.011.9115-.034 1.6407h-27.07c.228 3.9876 1.356 7.0411 3.384 9.1601s4.557 3.179 7.588 3.179c2.255 0 4.181-.593 5.776-1.778s2.86-3.076 3.794-5.6735zm-20.2-9.9462h20.268c-.273-3.0534-1.048-5.3435-2.324-6.8702-1.96-2.3698-4.5-3.5546-7.622-3.5546-2.826 0-5.207.9456-7.144 2.8369-1.914 1.8912-2.973 4.4205-3.178 7.5879zm45.649 16.1327.888 5.435c-1.731.364-3.281.547-4.648.547-2.233 0-3.965-.354-5.195-1.06-1.231-.706-2.097-1.629-2.598-2.769-.501-1.162-.752-3.588-.752-7.28v-20.8837h-4.512v-4.7851h4.512v-8.9893l6.118-3.6914v12.6807h6.187v4.7851h-6.187v21.2257c0 1.754.103 2.882.308 3.384.228.501.581.9 1.059 1.196.502.296 1.208.444 2.12.444.683 0 1.583-.079 2.7-.239zm3.574-37.9736v-7.1435h6.596v5.6396c0 3.0534-.353 5.2523-1.059 6.5967-.98 1.8457-2.507 3.2357-4.58 4.1699l-1.504-2.4267c1.23-.5013 2.142-1.2875 2.734-2.3584.615-1.0938.957-2.5863 1.025-4.4776zm10.102 32.6416 6.084-.957c.341 2.438 1.287 4.307 2.837 5.605 1.572 1.299 3.759 1.949 6.562 1.949 2.826 0 4.922-.57 6.289-1.709 1.367-1.162 2.051-2.518 2.051-4.068 0-1.39-.604-2.4834-1.812-3.2809-.843-.5469-2.939-1.2419-6.289-2.085-4.511-1.1393-7.644-2.1191-9.399-2.9394-1.732-.8431-3.053-1.9938-3.965-3.4522-.889-1.4811-1.333-3.1103-1.333-4.8877 0-1.6178.365-3.1103 1.094-4.4775.752-1.39 1.766-2.5407 3.042-3.4521.957-.7064 2.256-1.2989 3.896-1.7774 1.664-.5013 3.441-.7519 5.332-.7519 2.849 0 5.344.4101 7.486 1.2304 2.164.8203 3.759 1.9369 4.785 3.3496 1.025 1.39 1.732 3.2585 2.119 5.6055l-6.016.8203c-.273-1.8685-1.071-3.3268-2.392-4.375-1.299-1.0482-3.145-1.5722-5.537-1.5722-2.826 0-4.842.4671-6.05 1.4013-1.208.9343-1.812 2.028-1.812 3.2813 0 .7975.251 1.5153.752 2.1533.502.6608 1.288 1.2077 2.359 1.6406.615.2279 2.426.752 5.434 1.5723 4.353 1.1621 7.383 2.1191 9.092 2.8711 1.732.7291 3.088 1.8001 4.067 3.2129.98 1.4127 1.47 3.1673 1.47 5.2637 0 2.051-.604 3.988-1.811 5.81-1.185 1.801-2.906 3.202-5.161 4.205-2.256.979-4.808 1.469-7.657 1.469-4.717 0-8.317-.98-10.8-2.939-2.461-1.96-4.034-4.865-4.717-8.716zm51.615 13.843 5.982.888c.25 1.846.945 3.191 2.085 4.034 1.526 1.139 3.611 1.709 6.254 1.709 2.849 0 5.048-.57 6.597-1.709 1.55-1.14 2.598-2.735 3.145-4.785.319-1.254.467-3.886.444-7.896-2.689 3.167-6.038 4.751-10.049 4.751-4.99 0-8.852-1.8-11.587-5.4-2.734-3.601-4.101-7.9187-4.101-12.9545 0-3.4635.626-6.6536 1.88-9.5703 1.253-2.9395 3.064-5.2067 5.434-6.8018 2.393-1.595 5.195-2.3925 8.408-2.3925 4.284 0 7.816 1.7317 10.596 5.1953v-4.375h5.674v31.3768c0 5.651-.581 9.65-1.743 11.997-1.14 2.37-2.963 4.238-5.469 5.606-2.484 1.367-5.549 2.05-9.194 2.05-4.33 0-7.828-.979-10.494-2.939-2.666-1.937-3.953-4.865-3.862-8.784zm5.093-21.8068c0 4.7623.946 8.2368 2.837 10.4248 1.891 2.187 4.261 3.281 7.109 3.281 2.826 0 5.196-1.082 7.11-3.247 1.914-2.187 2.871-5.6053 2.871-10.2538 0-4.4433-.992-7.7929-2.974-10.0488-1.96-2.2558-4.329-3.3838-7.109-3.3838-2.735 0-5.059 1.1166-6.973 3.3496-1.914 2.2103-2.871 5.503-2.871 9.878zm57.749 7.1093 6.357.7865c-1.003 3.714-2.86 6.596-5.571 8.647-2.712 2.051-6.175 3.076-10.391 3.076-5.309 0-9.525-1.629-12.646-4.887-3.099-3.282-4.649-7.8731-4.649-13.7748 0-6.1068 1.572-10.8464 4.717-14.2187 3.144-3.3724 7.223-5.0586 12.236-5.0586 4.854 0 8.819 1.652 11.895 4.956 3.076 3.3041 4.614 7.9525 4.614 13.9453 0 .3646-.011.9115-.034 1.6407h-27.07c.227 3.9876 1.355 7.0411 3.383 9.1601s4.558 3.179 7.588 3.179c2.256 0 4.182-.593 5.777-1.778s2.859-3.076 3.794-5.6735zm-20.201-9.9462h20.269c-.274-3.0534-1.048-5.3435-2.324-6.8702-1.96-2.3698-4.501-3.5546-7.622-3.5546-2.826 0-5.207.9456-7.144 2.8369-1.914 1.8912-2.974 4.4205-3.179 7.5879zm45.649 16.1327.889 5.435c-1.732.364-3.281.547-4.648.547-2.233 0-3.965-.354-5.196-1.06-1.23-.706-2.096-1.629-2.597-2.769-.502-1.162-.752-3.588-.752-7.28v-20.8837h-4.512v-4.7851h4.512v-8.9893l6.118-3.6914v12.6807h6.186v4.7851h-6.186v21.2257c0 1.754.102 2.882.307 3.384.228.501.582.9 1.06 1.196.501.296 1.208.444 2.119.444.684 0 1.584-.079 2.7-.239zm-233.805 75.503h-5.708v-50.107h6.152v17.876c2.598-3.259 5.913-4.888 9.947-4.888 2.233 0 4.34.456 6.323 1.367 2.005.889 3.646 2.153 4.922 3.794 1.298 1.618 2.312 3.577 3.042 5.879.729 2.301 1.093 4.762 1.093 7.383 0 6.22-1.538 11.028-4.614 14.424-3.076 3.395-6.767 5.092-11.074 5.092-4.284 0-7.645-1.788-10.083-5.366zm-.068-18.423c0 4.352.592 7.497 1.777 9.434 1.937 3.167 4.557 4.751 7.861 4.751 2.689 0 5.013-1.162 6.973-3.487 1.96-2.347 2.939-5.833 2.939-10.459 0-4.739-.945-8.237-2.837-10.493-1.868-2.256-4.135-3.384-6.801-3.384-2.689 0-5.013 1.174-6.973 3.521-1.96 2.324-2.939 5.697-2.939 10.117zm55.048 18.423v-5.332c-2.826 4.102-6.665 6.152-11.519 6.152-2.141 0-4.147-.41-6.015-1.23-1.846-.82-3.224-1.846-4.136-3.076-.889-1.254-1.515-2.78-1.88-4.58-.25-1.208-.376-3.122-.376-5.743v-22.49h6.153v20.132c0 3.213.125 5.378.376 6.494.387 1.618 1.207 2.894 2.46 3.828 1.254.912 2.803 1.367 4.649 1.367s3.577-.467 5.195-1.401c1.618-.957 2.757-2.244 3.418-3.862.684-1.641 1.026-4.011 1.026-7.11v-19.448h6.152v36.299zm13.11-43.032v-7.075h6.152v7.075zm0 43.032v-36.299h6.152v36.299zm13.315 0v-50.107h6.152v50.107zm37.172 0v-4.58c-2.301 3.6-5.685 5.4-10.151 5.4-2.894 0-5.56-.797-7.998-2.392-2.415-1.595-4.295-3.817-5.64-6.665-1.321-2.871-1.982-6.164-1.982-9.878 0-3.623.604-6.905 1.811-9.844 1.208-2.962 3.02-5.229 5.435-6.802 2.415-1.572 5.116-2.358 8.101-2.358 2.187 0 4.135.467 5.844 1.401 1.709.912 3.099 2.108 4.17 3.589v-17.978h6.118v50.107zm-19.448-18.115c0 4.648.98 8.123 2.94 10.425 1.959 2.301 4.272 3.452 6.938 3.452 2.689 0 4.968-1.094 6.836-3.282 1.891-2.21 2.837-5.571 2.837-10.083 0-4.967-.957-8.613-2.871-10.937s-4.273-3.486-7.075-3.486c-2.735 0-5.025 1.116-6.87 3.349-1.823 2.233-2.735 5.754-2.735 10.562zm32.798-24.917v-7.075h6.152v7.075zm0 43.032v-36.299h6.152v36.299zm13.451 0v-36.299h5.538v5.161c2.666-3.987 6.516-5.981 11.552-5.981 2.188 0 4.193.399 6.016 1.196 1.846.775 3.224 1.8 4.136 3.076.911 1.276 1.549 2.792 1.914 4.546.228 1.14.341 3.133.341 5.982v22.319h-6.152v-22.08c0-2.507-.239-4.375-.718-5.606-.478-1.253-1.333-2.244-2.563-2.973-1.208-.752-2.632-1.128-4.273-1.128-2.62 0-4.887.832-6.801 2.495-1.892 1.663-2.837 4.819-2.837 9.468v19.824zm35.737 3.008 5.982.888c.25 1.846.945 3.191 2.085 4.034 1.526 1.139 3.611 1.709 6.255 1.709 2.848 0 5.047-.57 6.596-1.709 1.55-1.14 2.598-2.735 3.145-4.785.319-1.254.467-3.886.444-7.896-2.689 3.167-6.038 4.751-10.049 4.751-4.99 0-8.852-1.8-11.587-5.4-2.734-3.601-4.101-7.919-4.101-12.954 0-3.464.627-6.654 1.88-9.571 1.253-2.939 3.065-5.207 5.434-6.802 2.393-1.595 5.196-2.392 8.409-2.392 4.283 0 7.815 1.732 10.595 5.195v-4.375h5.674v31.377c0 5.651-.581 9.65-1.743 11.997-1.139 2.37-2.962 4.238-5.469 5.606-2.484 1.367-5.548 2.05-9.194 2.05-4.33 0-7.827-.979-10.493-2.939-2.666-1.937-3.954-4.865-3.863-8.784zm5.093-21.807c0 4.763.946 8.237 2.837 10.425 1.891 2.187 4.261 3.281 7.109 3.281 2.826 0 5.196-1.082 7.11-3.247 1.914-2.187 2.871-5.605 2.871-10.254 0-4.443-.991-7.793-2.974-10.049-1.959-2.255-4.329-3.383-7.109-3.383-2.735 0-5.059 1.116-6.973 3.349-1.914 2.211-2.871 5.503-2.871 9.878zm34.643 18.799v-7.007h7.007v7.007z" fill="#201c1d"/><path d="m0 0h478v245h-478z" fill="#e5e5e5" transform="translate(488)"/><path d="m0 0h15.4643v17.5332h-15.4643z" fill="#ff1e1e" transform="translate(488)"/><path d="m497.495 12.7666-1.76-2.7-1.77 2.7h-1.08l2.31-3.52-2.28-3.48h1.08l1.74 2.65 1.73-2.65h1.08l-2.27 3.48 2.3 3.52z" fill="#fff"/><path d="m0 0h153.464v17.5332h-153.464z" fill="#eee" transform="translate(503.465)"/><path d="m510.417 5.7666h1.23l2.41 7h-.99l-.56-1.7h-2.9l-.54 1.7h-.98zm-.55 4.49h2.37l-1.2-3.64zm4.177-3.09h.98l1.52 4.85 1.51-4.85h.98l-1.85 5.6h-1.29zm8.379 5.76c-1.73 0-2.86-1.22-2.86-2.95 0-1.74 1.13-2.97 2.86-2.97s2.86 1.23 2.86 2.97c0 1.73-1.13 2.95-2.86 2.95zm0-.83c1.16 0 1.92-.82 1.92-2.12 0-1.32-.76-2.14-1.92-2.14s-1.93.82-1.93 2.14c0 1.3.77 2.12 1.93 2.12zm4.002-4.93h.91v5.6h-.91zm-.07-1.9h1.05v1.08h-1.05zm4.654 7.66c-1.52 0-2.52-1.22-2.52-2.95 0-1.74 1-2.97 2.52-2.97.91 0 1.54.44 1.9 1.14v-2.88h.9v7.5h-.9v-.96c-.34.67-.96 1.12-1.9 1.12zm.1-.83c1.2 0 1.8-.89 1.8-2.12 0-1.24-.6-2.14-1.8-2.14-1.02 0-1.69.82-1.69 2.14 0 1.3.67 2.12 1.69 2.12zm8.688-5.09c1.5 0 2.27.99 2.27 2.56v3.2h-.91v-.81c-.3.6-.83.97-1.69.97-1.1 0-1.96-.63-1.96-1.75 0-1.76 1.94-1.97 3.64-1.87-.06-.93-.47-1.48-1.35-1.48-.94 0-1.44.58-1.44 1.31h-.96c0-1.1.84-2.13 2.4-2.13zm-1.34 4.12c0 .67.42 1.02 1.22 1.02.92 0 1.48-.68 1.48-1.59v-.57c-1.8-.13-2.7.39-2.7 1.14zm4.89-5.86h.9v7.5h-.9zm2.307 1.9h.91v5.6h-.91zm-.07-1.9h1.05v1.08h-1.05zm4.643 7.46c-1.52 0-2.52-1.12-2.52-2.85 0-1.74 1-2.87 2.52-2.87.91 0 1.54.38 1.9 1.05v-.89h.9v5.3c0 1.58-.98 2.46-2.43 2.46-1.78 0-2.44-.97-2.6-1.92h.94c.13.72.7 1.09 1.66 1.09.98 0 1.53-.51 1.53-1.63v-.78c-.34.64-.96 1.04-1.9 1.04zm.1-.83c1.2 0 1.8-.79 1.8-2.02 0-1.24-.6-2.04-1.8-2.04-1.02 0-1.69.72-1.69 2.04 0 1.3.67 2.02 1.69 2.02zm4.016-4.73h.9v.95c.25-.57.81-1.11 1.89-1.11s1.89.6 1.89 2.31v3.45h-.9v-3.32c0-1.04-.3-1.65-1.21-1.65-.9 0-1.67.82-1.67 2.15v2.82h-.9zm5.989 0h.91v5.6h-.91zm-.07-1.9h1.05v1.08h-1.05zm2.372 1.9h.9v.95c.25-.57.81-1.11 1.89-1.11s1.89.6 1.89 2.31v3.45h-.9v-3.32c0-1.04-.3-1.65-1.21-1.65-.9 0-1.67.82-1.67 2.15v2.82h-.9zm8.306 5.56c-1.52 0-2.52-1.12-2.52-2.85 0-1.74 1-2.87 2.52-2.87.91 0 1.54.38 1.9 1.05v-.89h.9v5.3c0 1.58-.98 2.46-2.43 2.46-1.78 0-2.44-.97-2.6-1.92h.94c.13.72.7 1.09 1.66 1.09.98 0 1.53-.51 1.53-1.63v-.78c-.34.64-.96 1.04-1.9 1.04zm.1-.83c1.2 0 1.8-.79 1.8-2.02 0-1.24-.6-2.04-1.8-2.04-1.02 0-1.69.72-1.69 2.04 0 1.3.67 2.02 1.69 2.02zm6.129-4.73h.94v-1.4h.9v1.4h1.11v.77h-1.11v3.41c0 .46.22.65.62.65h.65v.77h-.66c-1.01 0-1.51-.57-1.51-1.42v-3.41h-.94zm9.132 3.83c-.28 1.15-1.19 1.93-2.55 1.93-1.73 0-2.86-1.22-2.86-2.95 0-1.74 1.13-2.97 2.86-2.97 1.52 0 2.74 1.2 2.56 3.27h-4.48c.11 1.07.76 1.82 1.92 1.82.9 0 1.39-.48 1.59-1.1zm-4.44-1.51h3.57c-.11-.98-.7-1.65-1.68-1.65-1.09 0-1.73.67-1.89 1.65zm4.977-2.32h1.04l1.25 1.96 1.25-1.96h1.04l-1.77 2.78 1.8 2.82h-1.04l-1.28-2.01-1.28 2.01h-1.04l1.8-2.82zm5.4 0h.94v-1.4h.9v1.4h1.11v.77h-1.11v3.41c0 .46.22.65.62.65h.65v.77h-.66c-1.01 0-1.51-.57-1.51-1.42v-3.41h-.94zm6.396 0h.94v-1.4h.9v1.4h1.11v.77h-1.11v3.41c0 .46.22.65.62.65h.65v.77h-.66c-1.01 0-1.51-.57-1.51-1.42v-3.41h-.94zm6.582 5.76c-1.73 0-2.86-1.22-2.86-2.95 0-1.74 1.13-2.97 2.86-2.97s2.86 1.23 2.86 2.97c0 1.73-1.13 2.95-2.86 2.95zm0-.83c1.16 0 1.92-.82 1.92-2.12 0-1.32-.76-2.14-1.92-2.14s-1.93.82-1.93 2.14c0 1.3.77 2.12 1.93 2.12zm6.084-4.93h.94v-1.4h.9v1.4h1.11v.77h-1.11v3.41c0 .46.22.65.62.65h.65v.77h-.66c-1.01 0-1.51-.57-1.51-1.42v-3.41h-.94zm4.264-1.9h.9v2.86c.25-.57.81-1.12 1.89-1.12s1.89.6 1.89 2.31v3.45h-.9v-3.32c0-1.04-.3-1.65-1.21-1.65-.9 0-1.67.82-1.67 2.15v2.82h-.9zm11.157 5.73c-.28 1.15-1.19 1.93-2.55 1.93-1.73 0-2.86-1.22-2.86-2.95 0-1.74 1.13-2.97 2.86-2.97 1.52 0 2.74 1.2 2.56 3.27h-4.48c.11 1.07.76 1.82 1.92 1.82.9 0 1.39-.48 1.59-1.1zm-4.44-1.51h3.57c-.11-.98-.7-1.65-1.68-1.65-1.09 0-1.73.67-1.89 1.65zm7.931-2.32h.9v.97c.22-.58.75-1.13 1.92-1.13v.93c-1.19 0-1.92.46-1.92 1.79v3.04h-.9zm3.83 0h.91v5.6h-.91zm-.07-1.9h1.05v1.08h-1.05zm4.644 7.46c-1.52 0-2.52-1.12-2.52-2.85 0-1.74 1-2.87 2.52-2.87.91 0 1.54.38 1.9 1.05v-.89h.9v5.3c0 1.58-.98 2.46-2.43 2.46-1.78 0-2.44-.97-2.6-1.92h.94c.13.72.7 1.09 1.66 1.09.98 0 1.53-.51 1.53-1.63v-.78c-.34.64-.96 1.04-1.9 1.04zm.1-.83c1.2 0 1.8-.79 1.8-2.02 0-1.24-.6-2.04-1.8-2.04-1.02 0-1.69.72-1.69 2.04 0 1.3.67 2.02 1.69 2.02zm4.016-6.63h.9v2.86c.25-.57.81-1.12 1.89-1.12s1.89.6 1.89 2.31v3.45h-.9v-3.32c0-1.04-.3-1.65-1.21-1.65-.9 0-1.67.82-1.67 2.15v2.82h-.9zm5.531 1.9h.94v-1.4h.9v1.4h1.11v.77h-1.11v3.41c0 .46.22.65.62.65h.65v.77h-.66c-1.01 0-1.51-.57-1.51-1.42v-3.41h-.94z" fill="#201c1d"/><path d="m668.112 62.6152h7.7v42.2798h21.77v6.72h-29.47zm51.009 50.1198c-11.27 0-18.83-7.42-19.88-18.1998h7.91c.7 6.6498 4.62 11.3398 11.97 11.3398 5.46 0 8.61-2.94 9.94-6.7198h7.98c-1.89 8.0498-8.4 13.5798-17.92 13.5798zm-11.97-18.1998v-4.62h-7.98c.98-11.62 9.17-18.62 19.95-18.62 10.64 0 19.46 8.47 17.92 23.24zm.21-6.37h22.26c-.63-5.74-4.2-10.01-10.5-10.01-6.23 0-10.78 3.71-11.76 10.01zm38.22 23.4498v-32.7598h-5.88v-6.44h5.88v-9.8h7.56v9.8h7.91v6.44h-7.91v26.3198h9.03v6.44zm18.129-52.4998h8.68v8.61c0 4.27-2.66 6.44-6.72 6.44v-3.71c1.89 0 2.45-1.05 2.45-2.73h-4.41zm15.615 40.11c.42 4.7598 4.55 7.0698 9.59 7.0698 4.9 0 8.26-1.82 8.26-5.81 0-8.2598-24.78-1.2598-24.78-16.9398 0-6.3 6.37-12.25 15.96-12.25 8.47 0 15.68 5.46 15.68 13.44h-7.21c-.35-4.76-4.06-7-8.75-7-5.39 0-8.19 2.45-8.19 5.81 0 9.03 24.78 1.47 24.78 16.9398 0 7.42-6.23 12.25-16.1 12.25-9.24 0-16.38-5.81-16.66-13.5098zm61.216 12.1098c-10.78 0-17.64-7.84-17.64-19.9498 0-12.18 6.86-20.09 17.64-20.09 5.95 0 10.08 2.31 12.6 6.58v-5.46h7.56v37.0998c0 11.06-7.21 17.22-17.36 17.22-12.46 0-17.29-6.79-18.41-13.44h7.84c.91 4.55 4.69 6.58 10.57 6.58 5.95 0 9.8-3.01 9.8-10.36v-4.62c-2.38 4.06-6.44 6.44-12.6 6.44zm1.05-6.86c7.7 0 11.55-5.1798 11.55-13.0898 0-7.98-3.85-13.23-11.55-13.23-6.79 0-10.92 4.9-10.92 13.23 0 8.26 4.13 13.0898 10.92 13.0898zm44.395 8.26c-11.27 0-18.83-7.42-19.88-18.1998h7.91c.7 6.6498 4.62 11.3398 11.97 11.3398 5.46 0 8.61-2.94 9.94-6.7198h7.98c-1.89 8.0498-8.4 13.5798-17.92 13.5798zm-11.97-18.1998v-4.62h-7.98c.98-11.62 9.17-18.62 19.95-18.62 10.64 0 19.46 8.47 17.92 23.24zm.21-6.37h22.26c-.63-5.74-4.2-10.01-10.5-10.01-6.23 0-10.78 3.71-11.76 10.01zm38.221 23.4498v-32.7598h-5.88v-6.44h5.88v-9.8h7.56v9.8h7.91v6.44h-7.91v26.3198h9.03v6.44zm-227.6 71.12c-6.23 0-10.22-2.66-12.6-6.86v5.74h-7.56v-52.5h7.56v19.18c2.52-4.41 6.58-7 12.6-7 10.78 0 17.64 8.61 17.64 20.79 0 12.11-6.86 20.65-17.64 20.65zm-1.05-6.86c6.79 0 10.92-5.53 10.92-13.79 0-8.33-4.13-13.93-10.92-13.93-7.77 0-11.55 5.95-11.55 13.93 0 7.91 3.78 13.79 11.55 13.79zm57.688 5.74h-7.56v-6.51c-1.68 3.92-5.46 7.63-12.95 7.63-7.56 0-13.16-4.2-13.16-16.17v-24.15h7.49v23.24c0 6.37 1.61 10.5 7.63 10.5 5.6 0 10.99-4.9 10.99-14.21v-19.53h7.56zm7.815-39.2h7.56v39.2h-7.56zm-2.24-13.65 8.4-1.89 1.89 8.54-8.4 1.89zm17.364.35h7.56v52.5h-7.56zm30.864 53.62c-10.78 0-17.64-8.54-17.64-20.65 0-12.18 6.86-20.79 17.64-20.79 6.02 0 10.15 2.66 12.6 7.14v-19.32h7.56v52.5h-7.56v-5.95c-2.31 4.27-6.37 7.07-12.6 7.07zm1.05-6.86c7.7 0 11.55-5.88 11.55-13.79 0-7.98-3.85-13.93-11.55-13.93-6.79 0-10.92 5.6-10.92 13.93 0 8.26 4.13 13.79 10.92 13.79zm27.406-33.46h7.56v39.2h-7.56zm-2.24-13.65 8.4-1.89 1.89 8.54-8.4 1.89zm17.223 13.65h7.56v6.44c1.61-3.92 5.46-7.56 12.88-7.56 7.56 0 13.23 4.2 13.23 16.17v24.15h-7.56v-23.24c0-6.37-1.54-10.5-7.56-10.5-5.6 0-10.99 4.9-10.99 14.21v19.53h-7.56zm56.707 38.92c-10.78 0-17.64-7.84-17.64-19.95 0-12.18 6.86-20.09 17.64-20.09 5.95 0 10.08 2.31 12.6 6.58v-5.46h7.56v37.1c0 11.06-7.21 17.22-17.36 17.22-12.46 0-17.29-6.79-18.41-13.44h7.84c.91 4.55 4.69 6.58 10.57 6.58 5.95 0 9.8-3.01 9.8-10.36v-4.62c-2.38 4.06-6.44 6.44-12.6 6.44zm1.05-6.86c7.7 0 11.55-5.18 11.55-13.09 0-7.98-3.85-13.23-11.55-13.23-6.79 0-10.92 4.9-10.92 13.23 0 8.26 4.13 13.09 10.92 13.09zm23.974-1.47h8.47v8.61h-8.47z" fill="#201c1d"/><path d="m936.5-0v245" stroke="#201c1d" stroke-dasharray="2 2"/><path d="m0 0h478v245h-478z" fill="#e5e5e5" transform="translate(0 255)"/><path d="m0 0h15.4643v17.5332h-15.4643z" fill="#ff1e1e" transform="translate(0 255)"/><path d="m9.49485 267.767-1.76-2.7-1.77 2.7h-1.08l2.31-3.52-2.28-3.48h1.08l1.74 2.65 1.73-2.65h1.07995l-2.26995 3.48 2.29995 3.52z" fill="#fff"/><path d="m0 0h103.464v17.5332h-103.464z" fill="#eee" transform="translate(15.4648 255)"/><path d="m22.417 260.767h1.23l2.41 7h-.99l-.56-1.7h-2.9l-.54 1.7h-.98zm-.55 4.49h2.37l-1.2-3.64zm4.1766-3.09h.98l1.52 4.85 1.51-4.85h.98l-1.85 5.6h-1.29zm8.3792 5.76c-1.73 0-2.86-1.22-2.86-2.95 0-1.74 1.13-2.97 2.86-2.97s2.86 1.23 2.86 2.97c0 1.73-1.13 2.95-2.86 2.95zm0-.83c1.16 0 1.92-.82 1.92-2.12 0-1.32-.76-2.14-1.92-2.14s-1.93.82-1.93 2.14c0 1.3.77 2.12 1.93 2.12zm4.0025-4.93h.91v5.6h-.91zm-.07-1.9h1.05v1.08h-1.05zm4.6533 7.66c-1.52 0-2.52-1.22-2.52-2.95 0-1.74 1-2.97 2.52-2.97.91 0 1.54.44 1.9 1.14v-2.88h.9v7.5h-.9v-.96c-.34.67-.96 1.12-1.9 1.12zm.1-.83c1.2 0 1.8-.89 1.8-2.12 0-1.24-.6-2.14-1.8-2.14-1.02 0-1.69.82-1.69 2.14 0 1.3.67 2.12 1.69 2.12zm11.0586.67h-.9v-.96c-.25.57-.81 1.12-1.88 1.12-1.08 0-1.9-.6-1.9-2.31v-3.45h.9v3.32c0 1.03.3 1.65 1.21 1.65.9 0 1.67-.83 1.67-2.16v-2.81h.9zm2.0353-1.77c.06.75.7 1.16 1.52 1.16.8 0 1.33-.31 1.33-.96 0-1.3-3.66-.23-3.66-2.47 0-.9.88-1.72 2.25-1.72 1.21 0 2.22.78 2.22 1.92h-.83c-.05-.76-.66-1.15-1.43-1.15-.87 0-1.32.4-1.32.95 0 1.42 3.67.26 3.67 2.47 0 1.06-.87 1.73-2.28 1.73-1.32 0-2.31-.83-2.35-1.93zm4.9376-3.83h.91v5.6h-.91zm-.07-1.9h1.05v1.08h-1.05zm2.3726 1.9h.9v.95c.25-.57.81-1.11 1.89-1.11s1.89.6 1.89 2.31v3.45h-.9v-3.32c0-1.04-.3-1.65-1.21-1.65-.9 0-1.67.82-1.67 2.15v2.82h-.9zm8.3061 5.56c-1.52 0-2.52-1.12-2.52-2.85 0-1.74 1-2.87 2.52-2.87.91 0 1.54.38 1.9 1.05v-.89h.9v5.3c0 1.58-.98 2.46-2.43 2.46-1.78 0-2.44-.97-2.6-1.92h.94c.13.72.7 1.09 1.66 1.09.98 0 1.53-.51 1.53-1.63v-.78c-.34.64-.96 1.04-1.9 1.04zm.1-.83c1.2 0 1.8-.79 1.8-2.02 0-1.24-.6-2.04-1.8-2.04-1.02 0-1.69.72-1.69 2.04 0 1.3.67 2.02 1.69 2.02zm8.6691-4.89c1.5 0 2.27.99 2.27 2.56v3.2h-.91v-.81c-.3.6-.83.97-1.69.97-1.1 0-1.96-.63-1.96-1.75 0-1.76 1.94-1.97 3.64-1.87-.06-.93-.47-1.48-1.35-1.48-.94 0-1.44.58-1.44 1.31h-.96c0-1.1.84-2.13 2.4-2.13zm-1.34 4.12c0 .67.42 1.02 1.22 1.02.92 0 1.48-.68 1.48-1.59v-.57c-1.8-.13-2.7.39-2.7 1.14zm4.8903-5.86h.9v7.5h-.9zm2.2363 0h.9v7.5h-.9zm9.8791 5.15c-.08 1.45-1.05 2.51-2.63 2.51-1.73 0-2.86-1.22-2.86-2.95 0-1.74 1.13-2.97 2.86-2.97 1.52 0 2.53 1.13 2.61 2.36h-.95c-.07-.76-.57-1.53-1.66-1.53-1.26 0-1.93.9-1.93 2.14 0 1.23.67 2.11 1.93 2.11 1.17 0 1.63-.81 1.7-1.67zm3.3382-3.41c1.5002 0 2.2702.99 2.2702 2.56v3.2h-.91v-.81c-.3.6-.83.97-1.6902.97-1.1 0-1.96-.63-1.96-1.75 0-1.76 1.94-1.97 3.6402-1.87-.06-.93-.47-1.48-1.3502-1.48-.94 0-1.44.58-1.44 1.31h-.96c0-1.1.84-2.13 2.4-2.13zm-1.34 4.12c0 .67.42 1.02 1.22 1.02.9202 0 1.4802-.68 1.4802-1.59v-.57c-1.8002-.13-2.7002.39-2.7002 1.14zm7.6902 1.8c-.94 0-1.56-.45-1.9-1.12v2.96h-.9v-7.6h.9v.98c.36-.7.99-1.14 1.9-1.14 1.52 0 2.52 1.23 2.52 2.97 0 1.73-1 2.95-2.52 2.95zm-.1-.83c1.02 0 1.69-.82 1.69-2.12 0-1.32-.67-2.14-1.69-2.14-1.19 0-1.8.9-1.8 2.14 0 1.23.61 2.12 1.8 2.12zm4.425-1.1c.06.75.7 1.16 1.52 1.16.8 0 1.33-.31 1.33-.96 0-1.3-3.66-.23-3.66-2.47 0-.9.88-1.72 2.25-1.72 1.21 0 2.22.78 2.22 1.92h-.83c-.05-.76-.66-1.15-1.43-1.15-.87 0-1.32.4-1.32.95 0 1.42 3.67.26 3.67 2.47 0 1.06-.87 1.73-2.28 1.73-1.32 0-2.31-.83-2.35-1.93z" fill="#201c1d"/><path d="m83.1078 317.615h7.7v42.28h21.7702v6.72h-29.4702zm33.7012 44.31v-44.31h33.74v6.79h-26.04v14.14h23.24v6.79h-23.24v14.49h26.32v6.79h-26.32v-4.69zm77.072-44.31v6.72h-15.47v42.28h-7.7v-42.28h-15.4v-6.72zm3.829-3.5h8.68v8.61c0 4.27-2.66 6.44-6.72 6.44v-3.71c1.89 0 2.45-1.05 2.45-2.73h-4.41zm20.163 36.89c.49 6.02 5.6 9.59 12.32 9.59 6.51 0 10.99-2.59 10.99-7.21 0-11.06-31.01-2.59-31.01-22.47 0-8.12 7.77-14.42 19.32-14.42 10.64 0 18.97 6.93 18.97 16.66h-8.19c-.42-6.02-3.85-9.52-11.13-9.52-7.21 0-10.99 2.94-10.99 7.28 0 11.9 31.08 2.8 31.08 22.47 0 9.1-7.21 14.35-19.46 14.35-11.34 0-19.81-7.14-20.16-16.73zm96.999-10.5c1.12 18.41-7.77 27.23-22.33 27.23-15.61 0-24.22-11.48-24.22-25.69 0-14.07 8.61-25.55 24.22-25.55 13.16 0 20.65 7.49 22.12 19.25h-8.19c-.98-6.3-4.48-12.11-13.93-12.11-10.99 0-16.24 8.75-16.24 18.41 0 9.8 5.25 18.55 16.24 18.55 9.8 0 14.21-5.95 14.42-13.37h-14.42v-6.72zm6.537 21.42v-44.31h33.74v6.79h-26.04v14.14h23.24v6.79h-23.24v14.49h26.32v6.79h-26.32v-4.69zm77.072-44.31v6.72h-15.47v42.28h-7.7v-42.28h-15.4v-6.72zm-293.728 119v-4.62h-7.6999v-44.38h14.9099c10.64 0 19.25 3.08 19.25 14 0 3.71-1.89 7.84-5.81 9.8 4.76 1.61 8.33 5.6 8.33 11.13 0 10.92-8.61 14.07-19.25 14.07zm0-6.72h9.73c7 0 11.27-1.54 11.27-7.35 0-5.46-4.27-7.28-11.13-7.28h-9.87zm0-21.35h7.35c6.93 0 11.06-1.47 11.06-7.07 0-5.53-3.78-7.14-11.2-7.14h-7.21zm72.968 7.07c0 13.86-5.32 22.12-19.18 22.12-13.93 0-19.25-8.26-19.25-22.12v-28h7.7v28c0 9.52 2.59 14.98 11.55 14.98 8.89 0 11.48-5.46 11.48-14.98v-28h7.7zm7.311-28h7.7v49h-7.7zm15.312 0h7.7v42.28h21.77v6.72h-29.47zm33.701 0h16.59c15.54 0 24.15 10.36 24.15 24.43 0 14.21-8.61 24.57-24.15 24.57h-8.89v-4.69h-7.7zm7.7 42.21h8.89c11.06 0 16.1-7.98 16.1-17.78 0-9.66-5.04-17.64-16.1-17.64h-8.89zm38.99-42.21h7.7v49h-7.7zm42.892 49-20.23-39.55v39.55h-7.35v-49h10.92l20.3 39.55v-39.55h7.35v49zm63.501-26.11c1.12 18.41-7.77 27.23-22.33 27.23-15.61 0-24.22-11.48-24.22-25.69 0-14.07 8.61-25.55 24.22-25.55 13.16 0 20.65 7.49 22.12 19.25h-8.19c-.98-6.3-4.48-12.11-13.93-12.11-10.99 0-16.24 8.75-16.24 18.41 0 9.8 5.25 18.55 16.24 18.55 9.8 0 14.21-5.95 14.42-13.37h-14.42v-6.72zm2.194 17.5h8.47v8.61h-8.47z" fill="#201c1d"/><path d="m0 0h478v245h-478z" fill="#e5e5e5" transform="translate(488 255)"/><path d="m0 0h15.4643v17.5332h-15.4643z" fill="#ff1e1e" transform="translate(488 255)"/><path d="m497.495 267.767-1.76-2.7-1.77 2.7h-1.08l2.31-3.52-2.28-3.48h1.08l1.74 2.65 1.73-2.65h1.08l-2.27 3.48 2.3 3.52z" fill="#fff"/><path d="m0 0h191.464v17.5332h-191.464z" fill="#eee" transform="translate(503.465 255)"/><path d="m510.417 260.767h1.23l2.41 7h-.99l-.56-1.7h-2.9l-.54 1.7h-.98zm-.55 4.49h2.37l-1.2-3.64zm4.177-3.09h.98l1.52 4.85 1.51-4.85h.98l-1.85 5.6h-1.29zm8.379 5.76c-1.73 0-2.86-1.22-2.86-2.95 0-1.74 1.13-2.97 2.86-2.97s2.86 1.23 2.86 2.97c0 1.73-1.13 2.95-2.86 2.95zm0-.83c1.16 0 1.92-.82 1.92-2.12 0-1.32-.76-2.14-1.92-2.14s-1.93.82-1.93 2.14c0 1.3.77 2.12 1.93 2.12zm4.002-4.93h.91v5.6h-.91zm-.07-1.9h1.05v1.08h-1.05zm4.654 7.66c-1.52 0-2.52-1.22-2.52-2.95 0-1.74 1-2.97 2.52-2.97.91 0 1.54.44 1.9 1.14v-2.88h.9v7.5h-.9v-.96c-.34.67-.96 1.12-1.9 1.12zm.1-.83c1.2 0 1.8-.89 1.8-2.12 0-1.24-.6-2.14-1.8-2.14-1.02 0-1.69.82-1.69 2.14 0 1.3.67 2.12 1.69 2.12zm6.418-6.83h.9v7.5h-.9zm4.857 7.66c-1.73 0-2.86-1.22-2.86-2.95 0-1.74 1.13-2.97 2.86-2.97s2.86 1.23 2.86 2.97c0 1.73-1.13 2.95-2.86 2.95zm0-.83c1.16 0 1.92-.82 1.92-2.12 0-1.32-.76-2.14-1.92-2.14s-1.93.82-1.93 2.14c0 1.3.77 2.12 1.93 2.12zm3.951-4.93h.9v.95c.25-.57.81-1.11 1.89-1.11s1.89.6 1.89 2.31v3.45h-.9v-3.32c0-1.04-.3-1.65-1.21-1.65-.9 0-1.67.82-1.67 2.15v2.82h-.9zm8.306 5.56c-1.52 0-2.52-1.12-2.52-2.85 0-1.74 1-2.87 2.52-2.87.91 0 1.54.38 1.9 1.05v-.89h.9v5.3c0 1.58-.98 2.46-2.43 2.46-1.78 0-2.44-.97-2.6-1.92h.94c.13.72.7 1.09 1.66 1.09.98 0 1.53-.51 1.53-1.63v-.78c-.34.64-.96 1.04-1.9 1.04zm.1-.83c1.2 0 1.8-.79 1.8-2.02 0-1.24-.6-2.04-1.8-2.04-1.02 0-1.69.72-1.69 2.04 0 1.3.67 2.02 1.69 2.02zm7.049-.9c.06.75.7 1.16 1.52 1.16.8 0 1.33-.31 1.33-.96 0-1.3-3.66-.23-3.66-2.47 0-.9.88-1.72 2.25-1.72 1.21 0 2.22.78 2.22 1.92h-.83c-.05-.76-.66-1.15-1.43-1.15-.87 0-1.32.4-1.32.95 0 1.42 3.67.26 3.67 2.47 0 1.06-.87 1.73-2.28 1.73-1.32 0-2.31-.83-2.35-1.93zm10.048 0c-.28 1.15-1.19 1.93-2.55 1.93-1.73 0-2.86-1.22-2.86-2.95 0-1.74 1.13-2.97 2.86-2.97 1.52 0 2.74 1.2 2.56 3.27h-4.48c.11 1.07.76 1.82 1.92 1.82.9 0 1.39-.48 1.59-1.1zm-4.44-1.51h3.57c-.11-.98-.7-1.65-1.68-1.65-1.09 0-1.73.67-1.89 1.65zm5.568-2.32h.9v.95c.25-.57.81-1.11 1.89-1.11s1.89.6 1.89 2.31v3.45h-.9v-3.32c0-1.04-.3-1.65-1.21-1.65-.9 0-1.67.82-1.67 2.15v2.82h-.9zm5.531 0h.94v-1.4h.9v1.4h1.11v.77h-1.11v3.41c0 .46.22.65.62.65h.65v.77h-.66c-1.01 0-1.51-.57-1.51-1.42v-3.41h-.94zm9.132 3.83c-.28 1.15-1.19 1.93-2.55 1.93-1.73 0-2.86-1.22-2.86-2.95 0-1.74 1.13-2.97 2.86-2.97 1.52 0 2.74 1.2 2.56 3.27h-4.48c.11 1.07.76 1.82 1.92 1.82.9 0 1.39-.48 1.59-1.1zm-4.44-1.51h3.57c-.11-.98-.7-1.65-1.68-1.65-1.09 0-1.73.67-1.89 1.65zm5.568-2.32h.9v.95c.25-.57.81-1.11 1.89-1.11s1.89.6 1.89 2.31v3.45h-.9v-3.32c0-1.04-.3-1.65-1.21-1.65-.9 0-1.67.82-1.67 2.15v2.82h-.9zm11.237 3.25c-.08 1.45-1.05 2.51-2.63 2.51-1.73 0-2.86-1.22-2.86-2.95 0-1.74 1.13-2.97 2.86-2.97 1.52 0 2.53 1.13 2.61 2.36h-.95c-.07-.76-.57-1.53-1.66-1.53-1.26 0-1.93.9-1.93 2.14 0 1.23.67 2.11 1.93 2.11 1.17 0 1.63-.81 1.7-1.67zm6.268.58c-.28 1.15-1.19 1.93-2.55 1.93-1.73 0-2.86-1.22-2.86-2.95 0-1.74 1.13-2.97 2.86-2.97 1.52 0 2.74 1.2 2.56 3.27h-4.48c.11 1.07.76 1.82 1.92 1.82.9 0 1.39-.48 1.59-1.1zm-4.44-1.51h3.57c-.11-.98-.7-1.65-1.68-1.65-1.09 0-1.73.67-1.89 1.65zm6.306 1.51c.06.75.7 1.16 1.52 1.16.8 0 1.33-.31 1.33-.96 0-1.3-3.66-.23-3.66-2.47 0-.9.88-1.72 2.25-1.72 1.21 0 2.22.78 2.22 1.92h-.83c-.05-.76-.66-1.15-1.43-1.15-.87 0-1.32.4-1.32.95 0 1.42 3.67.26 3.67 2.47 0 1.06-.87 1.73-2.28 1.73-1.32 0-2.31-.83-2.35-1.93zm7.311-3.83h.91v5.6h-.91zm-.07-1.9h1.05v1.08h-1.05zm2.373 1.9h.9v.95c.25-.57.81-1.11 1.89-1.11s1.89.6 1.89 2.31v3.45h-.9v-3.32c0-1.04-.3-1.65-1.21-1.65-.9 0-1.67.82-1.67 2.15v2.82h-.9zm9.009 3.83c.06.75.7 1.16 1.52 1.16.8 0 1.33-.31 1.33-.96 0-1.3-3.66-.23-3.66-2.47 0-.9.88-1.72 2.25-1.72 1.21 0 2.22.78 2.22 1.92h-.83c-.05-.76-.66-1.15-1.43-1.15-.87 0-1.32.4-1.32.95 0 1.42 3.67.26 3.67 2.47 0 1.06-.87 1.73-2.28 1.73-1.32 0-2.31-.83-2.35-1.93zm4.461-3.83h.94v-1.4h.9v1.4h1.11v.77h-1.11v3.41c0 .46.22.65.62.65h.65v.77h-.66c-1.01 0-1.51-.57-1.51-1.42v-3.41h-.94zm4.316 7.6v-.77h.67c.76 0 .9-.54 1.14-1.23h-.39l-1.85-5.6h.98l1.51 4.82 1.52-4.82h.98l-1.85 5.6c-.44 1.38-.81 2-2.03 2zm5.583-9.5h.9v7.5h-.9zm2.306 1.9h.91v5.6h-.91zm-.07-1.9h1.05v1.08h-1.05zm3.053 5.73c.06.75.7 1.16 1.52 1.16.8 0 1.33-.31 1.33-.96 0-1.3-3.66-.23-3.66-2.47 0-.9.88-1.72 2.25-1.72 1.21 0 2.22.78 2.22 1.92h-.83c-.05-.76-.66-1.15-1.43-1.15-.87 0-1.32.4-1.32.95 0 1.42 3.67.26 3.67 2.47 0 1.06-.87 1.73-2.28 1.73-1.32 0-2.31-.83-2.35-1.93zm4.461-3.83h.94v-1.4h.9v1.4h1.11v.77h-1.11v3.41c0 .46.22.65.62.65h.65v.77h-.66c-1.01 0-1.51-.57-1.51-1.42v-3.41h-.94zm4.275 0h.91v5.6h-.91zm-.07-1.9h1.05v1.08h-1.05zm7.614 5.15c-.08 1.45-1.05 2.51-2.63 2.51-1.73 0-2.86-1.22-2.86-2.95 0-1.74 1.13-2.97 2.86-2.97 1.52 0 2.53 1.13 2.61 2.36h-.95c-.07-.76-.57-1.53-1.66-1.53-1.26 0-1.93.9-1.93 2.14 0 1.23.67 2.11 1.93 2.11 1.17 0 1.63-.81 1.7-1.67zm4.14.58c.06.75.7 1.16 1.52 1.16.8 0 1.33-.31 1.33-.96 0-1.3-3.66-.23-3.66-2.47 0-.9.88-1.72 2.25-1.72 1.21 0 2.22.78 2.22 1.92h-.83c-.05-.76-.66-1.15-1.43-1.15-.87 0-1.32.4-1.32.95 0 1.42 3.67.26 3.67 2.47 0 1.06-.87 1.73-2.28 1.73-1.32 0-2.31-.83-2.35-1.93zm10.047 0c-.28 1.15-1.19 1.93-2.55 1.93-1.73 0-2.86-1.22-2.86-2.95 0-1.74 1.13-2.97 2.86-2.97 1.52 0 2.74 1.2 2.56 3.27h-4.48c.11 1.07.76 1.82 1.92 1.82.9 0 1.39-.48 1.59-1.1zm-4.44-1.51h3.57c-.11-.98-.7-1.65-1.68-1.65-1.09 0-1.73.67-1.89 1.65zm5.074-2.32h.94v-1.4h.9v1.4h1.11v.77h-1.11v3.41c0 .46.22.65.62.65h.65v.77h-.66c-1.01 0-1.51-.57-1.51-1.42v-3.41h-.94zm6.707-1.4h2.13c1.52 0 2.75.45 2.75 1.97 0 .57-.34 1.19-.97 1.44.74.21 1.32.79 1.32 1.63 0 1.53-1.23 1.96-2.75 1.96h-2.48zm2.17 3.06c1.14 0 1.75-.27 1.75-1.12 0-.83-.52-1.13-1.79-1.13h-1.21v2.25zm-1.25 3.13h1.56c1.17 0 1.79-.26 1.79-1.15 0-.81-.62-1.17-1.77-1.17h-1.58z" fill="#201c1d"/><path d="m553.735 350.615-3.258-12.6h1.98l2.592 10.566 2.574-10.566h2.286l2.592 10.566 2.574-10.566h1.98l-3.258 12.6h-2.61l-2.412-9.36-2.43 9.36zm15.302-10.08h1.944v10.08h-1.944zm-.108-3.42h2.178v2.214h-2.178zm4.084 3.42h1.512v-2.52h1.944v2.52h1.854v1.656h-1.854v5.688c0 .738.36 1.08 1.062 1.08h1.08v1.656h-1.098c-1.998 0-2.988-1.026-2.988-2.736v-5.688h-1.512zm7.675-3.42h1.944v5.094c.432-1.008 1.386-1.962 3.312-1.962 1.944 0 3.402 1.08 3.402 4.158v6.21h-1.944v-5.976c0-1.638-.396-2.7-1.944-2.7-1.44 0-2.826 1.26-2.826 3.654v5.022h-1.944zm17.078 9.486c.126 1.548 1.44 2.466 3.168 2.466 1.674 0 2.826-.666 2.826-1.854 0-2.844-7.974-.666-7.974-5.778 0-2.088 1.998-3.708 4.968-3.708 2.736 0 4.878 1.782 4.878 4.284h-2.106c-.108-1.548-.99-2.448-2.862-2.448-1.854 0-2.826.756-2.826 1.872 0 3.06 7.992.72 7.992 5.778 0 2.34-1.854 3.69-5.004 3.69-2.916 0-5.094-1.836-5.184-4.302zm9.665-6.066h1.512v-2.52h1.944v2.52h1.854v1.656h-1.854v5.688c0 .738.36 1.08 1.062 1.08h1.08v1.656h-1.098c-1.998 0-2.988-1.026-2.988-2.736v-5.688h-1.512zm11.553-.288c2.754 0 4.176 1.782 4.176 4.608v5.76h-1.944v-1.386c-.54 1.026-1.476 1.674-2.916 1.674-1.98 0-3.474-1.134-3.474-3.15 0-3.15 3.456-3.492 6.372-3.384-.108-1.458-.72-2.394-2.214-2.394-1.548 0-2.358.954-2.358 2.106h-2.052c0-1.998 1.566-3.834 4.41-3.834zm-2.142 7.398c0 1.008.702 1.548 1.89 1.548 1.404 0 2.484-.918 2.484-2.556v-.9c-2.97-.144-4.374.702-4.374 1.908zm18.051-1.26c-.09 2.61-1.89 4.518-4.734 4.518-3.114 0-5.148-2.196-5.148-5.31 0-3.132 2.034-5.346 5.148-5.346 2.736 0 4.608 2.034 4.698 4.248h-2.052c-.09-1.224-.864-2.466-2.646-2.466-2.124 0-3.15 1.512-3.15 3.564 0 2.034 1.026 3.528 3.15 3.528 1.89 0 2.628-1.314 2.718-2.736zm1.94-9.27h1.944v7.776l3.6-4.356h2.34l-3.312 4.014 3.726 6.066h-2.214l-2.718-4.626-1.422 1.728v2.898h-1.944zm14.187.9h1.98v12.6h-1.98zm4.375 2.52h1.944v1.656c.414-1.008 1.404-1.944 3.312-1.944 1.944 0 3.402 1.08 3.402 4.158v6.21h-1.944v-5.976c0-1.638-.396-2.7-1.944-2.7-1.44 0-2.826 1.26-2.826 3.654v5.022h-1.944zm10.237 0h1.512v-2.52h1.944v2.52h1.854v1.656h-1.854v5.688c0 .738.36 1.08 1.062 1.08h1.08v1.656h-1.098c-1.998 0-2.988-1.026-2.988-2.736v-5.688h-1.512zm16.507 6.876c-.468 2.07-2.142 3.492-4.59 3.492-3.114 0-5.148-2.196-5.148-5.31 0-3.132 2.034-5.346 5.148-5.346 2.736 0 5.004 2.178 4.59 5.976h-7.704c.198 1.71 1.224 2.916 3.114 2.916 1.404 0 2.214-.756 2.538-1.728zm-7.65-2.826h5.76c-.162-1.476-1.08-2.574-2.7-2.574-1.764 0-2.772 1.044-3.06 2.574zm9.663-4.05h1.944v1.692c.396-1.026 1.296-1.98 3.366-1.98v1.944c-2.142 0-3.366.738-3.366 3.132v5.292h-1.944zm7.049 0h1.944v1.656c.414-1.008 1.404-1.944 3.312-1.944 1.944 0 3.402 1.08 3.402 4.158v6.21h-1.944v-5.976c0-1.638-.396-2.7-1.944-2.7-1.44 0-2.826 1.26-2.826 3.654v5.022h-1.944zm15.128-.288c2.754 0 4.176 1.782 4.176 4.608v5.76h-1.944v-1.386c-.54 1.026-1.476 1.674-2.916 1.674-1.98 0-3.474-1.134-3.474-3.15 0-3.15 3.456-3.492 6.372-3.384-.108-1.458-.72-2.394-2.214-2.394-1.548 0-2.358.954-2.358 2.106h-2.052c0-1.998 1.566-3.834 4.41-3.834zm-2.142 7.398c0 1.008.702 1.548 1.89 1.548 1.404 0 2.484-.918 2.484-2.556v-.9c-2.97-.144-4.374.702-4.374 1.908zm8.566-10.53h1.944v13.5h-1.944zm3.772 11.286h2.232v2.214c0 1.098-.684 1.656-1.728 1.656v-.954c.486 0 .63-.27.63-.702h-1.134zm8.875 5.814v-1.656h1.17c1.26 0 1.53-.846 1.908-1.944h-.756l-3.24-10.08h2.088l2.466 8.28 2.538-8.28h2.088l-3.24 10.08c-.792 2.484-1.44 3.6-3.834 3.6zm14.358-3.312c-3.114 0-5.148-2.196-5.148-5.31 0-3.132 2.034-5.346 5.148-5.346s5.148 2.214 5.148 5.346c0 3.114-2.034 5.31-5.148 5.31zm0-1.764c1.962 0 3.15-1.422 3.15-3.546 0-2.142-1.188-3.582-3.15-3.582-1.98 0-3.15 1.44-3.15 3.582 0 2.124 1.17 3.546 3.15 3.546zm15.683 1.476h-1.944v-1.674c-.432 1.008-1.404 1.962-3.33 1.962-1.944 0-3.384-1.08-3.384-4.158v-6.21h1.926v5.976c0 1.638.414 2.7 1.962 2.7 1.44 0 2.826-1.26 2.826-3.654v-5.022h1.944zm2.329-10.08h1.944v1.692c.396-1.026 1.296-1.98 3.366-1.98v1.944c-2.142 0-3.366.738-3.366 3.132v5.292h-1.944zm15.443 10.368c-2.772 0-4.536-2.196-4.536-5.31 0-3.132 1.764-5.346 4.536-5.346 1.548 0 2.61.684 3.24 1.836v-4.968h1.944v13.5h-1.944v-1.53c-.594 1.098-1.638 1.818-3.24 1.818zm.27-1.764c1.98 0 2.97-1.512 2.97-3.546 0-2.052-.99-3.582-2.97-3.582-1.746 0-2.808 1.44-2.808 3.582 0 2.124 1.062 3.546 2.808 3.546zm16.586-1.728c-.468 2.07-2.142 3.492-4.59 3.492-3.114 0-5.148-2.196-5.148-5.31 0-3.132 2.034-5.346 5.148-5.346 2.736 0 5.004 2.178 4.59 5.976h-7.704c.198 1.71 1.224 2.916 3.114 2.916 1.404 0 2.214-.756 2.538-1.728zm-7.65-2.826h5.76c-.162-1.476-1.08-2.574-2.7-2.574-1.764 0-2.772 1.044-3.06 2.574zm8.632-4.05h2.088l2.502 8.388 2.502-8.388h2.088l-3.24 10.08h-2.7zm19.866 6.876c-.468 2.07-2.142 3.492-4.59 3.492-3.114 0-5.148-2.196-5.148-5.31 0-3.132 2.034-5.346 5.148-5.346 2.736 0 5.004 2.178 4.59 5.976h-7.704c.198 1.71 1.224 2.916 3.114 2.916 1.404 0 2.214-.756 2.538-1.728zm-7.65-2.826h5.76c-.162-1.476-1.08-2.574-2.7-2.574-1.764 0-2.772 1.044-3.06 2.574zm9.664-7.47h1.944v13.5h-1.944zm9.023 13.788c-3.114 0-5.148-2.196-5.148-5.31 0-3.132 2.034-5.346 5.148-5.346s5.148 2.214 5.148 5.346c0 3.114-2.034 5.31-5.148 5.31zm0-1.764c1.962 0 3.15-1.422 3.15-3.546 0-2.142-1.188-3.582-3.15-3.582-1.98 0-3.15 1.44-3.15 3.582 0 2.124 1.17 3.546 3.15 3.546zm12.28 1.764c-1.602 0-2.646-.72-3.24-1.818v5.13h-1.944v-13.68h1.944v1.548c.63-1.152 1.692-1.836 3.24-1.836 2.772 0 4.536 2.214 4.536 5.346 0 3.114-1.764 5.31-4.536 5.31zm-.27-1.764c1.746 0 2.808-1.422 2.808-3.546 0-2.142-1.062-3.582-2.808-3.582-1.998 0-2.97 1.53-2.97 3.582 0 2.034.972 3.546 2.97 3.546zm16.082-1.728c-.468 2.07-2.142 3.492-4.59 3.492-3.114 0-5.148-2.196-5.148-5.31 0-3.132 2.034-5.346 5.148-5.346 2.736 0 5.004 2.178 4.59 5.976h-7.704c.198 1.71 1.224 2.916 3.114 2.916 1.404 0 2.214-.756 2.538-1.728zm-7.65-2.826h5.76c-.162-1.476-1.08-2.574-2.7-2.574-1.764 0-2.772 1.044-3.06 2.574zm9.663-4.05h1.944v1.692c.396-1.026 1.296-1.98 3.366-1.98v1.944c-2.142 0-3.366.738-3.366 3.132v5.292h-1.944zm8.28 6.894c.108 1.224 1.17 1.818 2.466 1.818 1.26 0 2.124-.468 2.124-1.494 0-2.124-6.372-.324-6.372-4.356 0-1.62 1.638-3.15 4.104-3.15 2.178 0 4.032 1.404 4.032 3.456h-1.854c-.09-1.224-1.044-1.8-2.25-1.8-1.386 0-2.106.63-2.106 1.494 0 2.322 6.372.378 6.372 4.356 0 1.908-1.602 3.15-4.14 3.15-2.376 0-4.212-1.494-4.284-3.474zm22.159-1.044c-.09 2.61-1.89 4.518-4.734 4.518-3.114 0-5.148-2.196-5.148-5.31 0-3.132 2.034-5.346 5.148-5.346 2.736 0 4.608 2.034 4.698 4.248h-2.052c-.09-1.224-.864-2.466-2.646-2.466-2.124 0-3.15 1.512-3.15 3.564 0 2.034 1.026 3.528 3.15 3.528 1.89 0 2.628-1.314 2.718-2.736zm6.046-6.138c2.754 0 4.176 1.782 4.176 4.608v5.76h-1.944v-1.386c-.54 1.026-1.476 1.674-2.916 1.674-1.98 0-3.474-1.134-3.474-3.15 0-3.15 3.456-3.492 6.372-3.384-.108-1.458-.72-2.394-2.214-2.394-1.548 0-2.358.954-2.358 2.106h-2.052c0-1.998 1.566-3.834 4.41-3.834zm-2.142 7.398c0 1.008.702 1.548 1.89 1.548 1.404 0 2.484-.918 2.484-2.556v-.9c-2.97-.144-4.374.702-4.374 1.908zm8.565-7.11h1.944v1.656c.414-1.008 1.404-1.944 3.312-1.944 1.944 0 3.402 1.08 3.402 4.158v6.21h-1.944v-5.976c0-1.638-.396-2.7-1.944-2.7-1.44 0-2.826 1.26-2.826 3.654v5.022h-1.944zm-343.819 28.894c.108 1.224 1.17 1.818 2.466 1.818 1.26 0 2.124-.468 2.124-1.494 0-2.124-6.372-.324-6.372-4.356 0-1.62 1.638-3.15 4.104-3.15 2.178 0 4.032 1.404 4.032 3.456h-1.854c-.09-1.224-1.044-1.8-2.25-1.8-1.386 0-2.106.63-2.106 1.494 0 2.322 6.372.378 6.372 4.356 0 1.908-1.602 3.15-4.14 3.15-2.376 0-4.212-1.494-4.284-3.474zm8.579-10.314h1.944v5.094c.432-1.008 1.386-1.962 3.312-1.962 1.944 0 3.402 1.08 3.402 4.158v6.21h-1.944v-5.976c0-1.638-.396-2.7-1.944-2.7-1.44 0-2.826 1.26-2.826 3.654v5.022h-1.944zm15.127 3.132c2.754 0 4.176 1.782 4.176 4.608v5.76h-1.944v-1.386c-.54 1.026-1.476 1.674-2.916 1.674-1.98 0-3.474-1.134-3.474-3.15 0-3.15 3.456-3.492 6.372-3.384-.108-1.458-.72-2.394-2.214-2.394-1.548 0-2.358.954-2.358 2.106h-2.052c0-1.998 1.566-3.834 4.41-3.834zm-2.142 7.398c0 1.008.702 1.548 1.89 1.548 1.404 0 2.484-.918 2.484-2.556v-.9c-2.97-.144-4.374.702-4.374 1.908zm8.565-7.11h1.944v1.692c.396-1.026 1.296-1.98 3.366-1.98v1.944c-2.142 0-3.366.738-3.366 3.132v5.292h-1.944zm15.793 6.876c-.468 2.07-2.142 3.492-4.59 3.492-3.114 0-5.148-2.196-5.148-5.31 0-3.132 2.034-5.346 5.148-5.346 2.736 0 5.004 2.178 4.59 5.976h-7.704c.198 1.71 1.224 2.916 3.114 2.916 1.404 0 2.214-.756 2.538-1.728zm-7.65-2.826h5.76c-.162-1.476-1.08-2.574-2.7-2.574-1.764 0-2.772 1.044-3.06 2.574zm13.883-7.47h1.944v7.776l3.6-4.356h2.34l-3.312 4.014 3.726 6.066h-2.214l-2.718-4.626-1.422 1.728v2.898h-1.944zm9.79 3.42h1.944v1.656c.414-1.008 1.404-1.944 3.312-1.944 1.944 0 3.402 1.08 3.402 4.158v6.21h-1.944v-5.976c0-1.638-.396-2.7-1.944-2.7-1.44 0-2.826 1.26-2.826 3.654v5.022h-1.944zm15.686 10.368c-3.114 0-5.148-2.196-5.148-5.31 0-3.132 2.034-5.346 5.148-5.346s5.148 2.214 5.148 5.346c0 3.114-2.034 5.31-5.148 5.31zm0-1.764c1.962 0 3.15-1.422 3.15-3.546 0-2.142-1.188-3.582-3.15-3.582-1.98 0-3.15 1.44-3.15 3.582 0 2.124 1.17 3.546 3.15 3.546zm6.24-8.604h2.088l1.656 7.902 1.8-7.902h2.142l1.8 7.902 1.656-7.902h2.088l-2.52 10.08h-2.52l-1.566-6.894-1.584 6.894h-2.52zm15.059-3.42h1.944v13.5h-1.944zm13.613 10.296c-.468 2.07-2.142 3.492-4.59 3.492-3.114 0-5.148-2.196-5.148-5.31 0-3.132 2.034-5.346 5.148-5.346 2.736 0 5.004 2.178 4.59 5.976h-7.704c.198 1.71 1.224 2.916 3.114 2.916 1.404 0 2.214-.756 2.538-1.728zm-7.65-2.826h5.76c-.162-1.476-1.08-2.574-2.7-2.574-1.764 0-2.772 1.044-3.06 2.574zm13.786 6.318c-2.772 0-4.536-2.196-4.536-5.31 0-3.132 1.764-5.346 4.536-5.346 1.548 0 2.61.684 3.24 1.836v-4.968h1.944v13.5h-1.944v-1.53c-.594 1.098-1.638 1.818-3.24 1.818zm.27-1.764c1.98 0 2.97-1.512 2.97-3.546 0-2.052-.99-3.582-2.97-3.582-1.746 0-2.808 1.44-2.808 3.582 0 2.124 1.062 3.546 2.808 3.546zm11.455 1.404c-2.772 0-4.536-2.016-4.536-5.13 0-3.132 1.764-5.166 4.536-5.166 1.53 0 2.592.594 3.24 1.692v-1.404h1.944v9.54c0 2.844-1.854 4.428-4.464 4.428-3.204 0-4.446-1.746-4.734-3.456h2.016c.234 1.17 1.206 1.692 2.718 1.692 1.53 0 2.52-.774 2.52-2.664v-1.188c-.612 1.044-1.656 1.656-3.24 1.656zm.27-1.764c1.98 0 2.97-1.332 2.97-3.366 0-2.052-.99-3.402-2.97-3.402-1.746 0-2.808 1.26-2.808 3.402 0 2.124 1.062 3.366 2.808 3.366zm16.586-1.368c-.468 2.07-2.142 3.492-4.59 3.492-3.114 0-5.148-2.196-5.148-5.31 0-3.132 2.034-5.346 5.148-5.346 2.736 0 5.004 2.178 4.59 5.976h-7.704c.198 1.71 1.224 2.916 3.114 2.916 1.404 0 2.214-.756 2.538-1.728zm-7.65-2.826h5.76c-.162-1.476-1.08-2.574-2.7-2.574-1.764 0-2.772 1.044-3.06 2.574zm18.059-4.338c2.754 0 4.176 1.782 4.176 4.608v5.76h-1.944v-1.386c-.54 1.026-1.476 1.674-2.916 1.674-1.98 0-3.474-1.134-3.474-3.15 0-3.15 3.456-3.492 6.372-3.384-.108-1.458-.72-2.394-2.214-2.394-1.548 0-2.358.954-2.358 2.106h-2.052c0-1.998 1.566-3.834 4.41-3.834zm-2.142 7.398c0 1.008.702 1.548 1.89 1.548 1.404 0 2.484-.918 2.484-2.556v-.9c-2.97-.144-4.374.702-4.374 1.908zm8.564-7.11h1.944v1.656c.414-1.008 1.404-1.944 3.312-1.944 1.944 0 3.402 1.08 3.402 4.158v6.21h-1.944v-5.976c0-1.638-.396-2.7-1.944-2.7-1.44 0-2.826 1.26-2.826 3.654v5.022h-1.944zm15.11 10.368c-2.772 0-4.536-2.196-4.536-5.31 0-3.132 1.764-5.346 4.536-5.346 1.548 0 2.61.684 3.24 1.836v-4.968h1.944v13.5h-1.944v-1.53c-.594 1.098-1.638 1.818-3.24 1.818zm.27-1.764c1.98 0 2.97-1.512 2.97-3.546 0-2.052-.99-3.582-2.97-3.582-1.746 0-2.808 1.44-2.808 3.582 0 2.124 1.062 3.546 2.808 3.546zm11.48-8.604h1.944v1.692c.396-1.026 1.296-1.98 3.366-1.98v1.944c-2.142 0-3.366.738-3.366 3.132v5.292h-1.944zm15.793 6.876c-.468 2.07-2.142 3.492-4.59 3.492-3.114 0-5.148-2.196-5.148-5.31 0-3.132 2.034-5.346 5.148-5.346 2.736 0 5.004 2.178 4.59 5.976h-7.704c.198 1.71 1.224 2.916 3.114 2.916 1.404 0 2.214-.756 2.538-1.728zm-7.65-2.826h5.76c-.162-1.476-1.08-2.574-2.7-2.574-1.764 0-2.772 1.044-3.06 2.574zm11.352 2.844c.108 1.224 1.17 1.818 2.466 1.818 1.26 0 2.124-.468 2.124-1.494 0-2.124-6.372-.324-6.372-4.356 0-1.62 1.638-3.15 4.104-3.15 2.178 0 4.032 1.404 4.032 3.456h-1.854c-.09-1.224-1.044-1.8-2.25-1.8-1.386 0-2.106.63-2.106 1.494 0 2.322 6.372.378 6.372 4.356 0 1.908-1.602 3.15-4.14 3.15-2.376 0-4.212-1.494-4.284-3.474zm13.224 3.474c-3.114 0-5.148-2.196-5.148-5.31 0-3.132 2.034-5.346 5.148-5.346s5.148 2.214 5.148 5.346c0 3.114-2.034 5.31-5.148 5.31zm0-1.764c1.962 0 3.15-1.422 3.15-3.546 0-2.142-1.188-3.582-3.15-3.582-1.98 0-3.15 1.44-3.15 3.582 0 2.124 1.17 3.546 3.15 3.546zm15.682 1.476h-1.944v-1.674c-.432 1.008-1.404 1.962-3.33 1.962-1.944 0-3.384-1.08-3.384-4.158v-6.21h1.926v5.976c0 1.638.414 2.7 1.962 2.7 1.44 0 2.826-1.26 2.826-3.654v-5.022h1.944zm2.329-10.08h1.944v1.692c.396-1.026 1.296-1.98 3.366-1.98v1.944c-2.142 0-3.366.738-3.366 3.132v5.292h-1.944zm15.938 5.85c-.09 2.61-1.89 4.518-4.734 4.518-3.114 0-5.148-2.196-5.148-5.31 0-3.132 2.034-5.346 5.148-5.346 2.736 0 4.608 2.034 4.698 4.248h-2.052c-.09-1.224-.864-2.466-2.646-2.466-2.124 0-3.15 1.512-3.15 3.564 0 2.034 1.026 3.528 3.15 3.528 1.89 0 2.628-1.314 2.718-2.736zm11.229 1.026c-.468 2.07-2.142 3.492-4.59 3.492-3.114 0-5.148-2.196-5.148-5.31 0-3.132 2.034-5.346 5.148-5.346 2.736 0 5.004 2.178 4.59 5.976h-7.704c.198 1.71 1.224 2.916 3.114 2.916 1.404 0 2.214-.756 2.538-1.728zm-7.65-2.826h5.76c-.162-1.476-1.08-2.574-2.7-2.574-1.764 0-2.772 1.044-3.06 2.574zm11.351 2.844c.108 1.224 1.17 1.818 2.466 1.818 1.26 0 2.124-.468 2.124-1.494 0-2.124-6.372-.324-6.372-4.356 0-1.62 1.638-3.15 4.104-3.15 2.178 0 4.032 1.404 4.032 3.456h-1.854c-.09-1.224-1.044-1.8-2.25-1.8-1.386 0-2.106.63-2.106 1.494 0 2.322 6.372.378 6.372 4.356 0 1.908-1.602 3.15-4.14 3.15-2.376 0-4.212-1.494-4.284-3.474zm12.152-6.894h2.088l1.656 7.902 1.8-7.902h2.142l1.8 7.902 1.656-7.902h2.088l-2.52 10.08h-2.52l-1.566-6.894-1.584 6.894h-2.52zm15.097 0h1.944v10.08h-1.944zm-.108-3.42h2.178v2.214h-2.178zm4.084 3.42h1.512v-2.52h1.944v2.52h1.854v1.656h-1.854v5.688c0 .738.36 1.08 1.062 1.08h1.08v1.656h-1.098c-1.998 0-2.988-1.026-2.988-2.736v-5.688h-1.512zm7.676-3.42h1.944v5.094c.432-1.008 1.386-1.962 3.312-1.962 1.944 0 3.402 1.08 3.402 4.158v6.21h-1.944v-5.976c0-1.638-.396-2.7-1.944-2.7-1.44 0-2.826 1.26-2.826 3.654v5.022h-1.944zm14.701 3.42h1.512v-2.52h1.944v2.52h1.854v1.656h-1.854v5.688c0 .738.36 1.08 1.062 1.08h1.08v1.656h-1.098c-1.998 0-2.988-1.026-2.988-2.736v-5.688h-1.512zm7.676-3.42h1.944v5.094c.432-1.008 1.386-1.962 3.312-1.962 1.944 0 3.402 1.08 3.402 4.158v6.21h-1.944v-5.976c0-1.638-.396-2.7-1.944-2.7-1.44 0-2.826 1.26-2.826 3.654v5.022h-1.944zm20.275 10.296c-.468 2.07-2.142 3.492-4.59 3.492-3.114 0-5.148-2.196-5.148-5.31 0-3.132 2.034-5.346 5.148-5.346 2.736 0 5.004 2.178 4.59 5.976h-7.704c.198 1.71 1.224 2.916 3.114 2.916 1.404 0 2.214-.756 2.538-1.728zm-7.65-2.826h5.76c-.162-1.476-1.08-2.574-2.7-2.574-1.764 0-2.772 1.044-3.06 2.574zm-366.398 17.95h2.088l1.656 7.902 1.8-7.902h2.142l1.8 7.902 1.656-7.902h2.088l-2.52 10.08h-2.52l-1.566-6.894-1.584 6.894h-2.52zm15.06-3.42h1.944v5.094c.432-1.008 1.386-1.962 3.312-1.962 1.944 0 3.402 1.08 3.402 4.158v6.21h-1.944v-5.976c0-1.638-.396-2.7-1.944-2.7-1.44 0-2.826 1.26-2.826 3.654v5.022h-1.944zm15.685 13.788c-3.114 0-5.148-2.196-5.148-5.31 0-3.132 2.034-5.346 5.148-5.346s5.148 2.214 5.148 5.346c0 3.114-2.034 5.31-5.148 5.31zm0-1.764c1.962 0 3.15-1.422 3.15-3.546 0-2.142-1.188-3.582-3.15-3.582-1.98 0-3.15 1.44-3.15 3.582 0 2.124 1.17 3.546 3.15 3.546zm7.078-12.024h1.944v13.5h-1.944zm13.613 10.296c-.468 2.07-2.142 3.492-4.59 3.492-3.114 0-5.148-2.196-5.148-5.31 0-3.132 2.034-5.346 5.148-5.346 2.736 0 5.004 2.178 4.59 5.976h-7.704c.198 1.71 1.224 2.916 3.114 2.916 1.404 0 2.214-.756 2.538-1.728zm-7.65-2.826h5.76c-.162-1.476-1.08-2.574-2.7-2.574-1.764 0-2.772 1.044-3.06 2.574zm18.617 6.318c-3.114 0-5.148-2.196-5.148-5.31 0-3.132 2.034-5.346 5.148-5.346s5.148 2.214 5.148 5.346c0 3.114-2.034 5.31-5.148 5.31zm0-1.764c1.962 0 3.15-1.422 3.15-3.546 0-2.142-1.188-3.582-3.15-3.582-1.98 0-3.15 1.44-3.15 3.582 0 2.124 1.17 3.546 3.15 3.546zm7.078-8.604h1.944v1.692c.396-1.026 1.296-1.98 3.366-1.98v1.944c-2.142 0-3.366.738-3.366 3.132v5.292h-1.944zm10.697 10.008c-2.772 0-4.536-2.016-4.536-5.13 0-3.132 1.764-5.166 4.536-5.166 1.53 0 2.592.594 3.24 1.692v-1.404h1.944v9.54c0 2.844-1.854 4.428-4.464 4.428-3.204 0-4.446-1.746-4.734-3.456h2.016c.234 1.17 1.206 1.692 2.718 1.692 1.53 0 2.52-.774 2.52-2.664v-1.188c-.612 1.044-1.656 1.656-3.24 1.656zm.27-1.764c1.98 0 2.97-1.332 2.97-3.366 0-2.052-.99-3.402-2.97-3.402-1.746 0-2.808 1.26-2.808 3.402 0 2.124 1.062 3.366 2.808 3.366zm11.491-8.532c2.754 0 4.176 1.782 4.176 4.608v5.76h-1.944v-1.386c-.54 1.026-1.476 1.674-2.916 1.674-1.98 0-3.474-1.134-3.474-3.15 0-3.15 3.456-3.492 6.372-3.384-.108-1.458-.72-2.394-2.214-2.394-1.548 0-2.358.954-2.358 2.106h-2.052c0-1.998 1.566-3.834 4.41-3.834zm-2.142 7.398c0 1.008.702 1.548 1.89 1.548 1.404 0 2.484-.918 2.484-2.556v-.9c-2.97-.144-4.374.702-4.374 1.908zm8.565-7.11h1.944v1.656c.414-1.008 1.404-1.944 3.312-1.944 1.944 0 3.402 1.08 3.402 4.158v6.21h-1.944v-5.976c0-1.638-.396-2.7-1.944-2.7-1.44 0-2.826 1.26-2.826 3.654v5.022h-1.944zm10.972 0h1.944v10.08h-1.944zm-.108-3.42h2.178v2.214h-2.178zm4.141 3.42h7.74v1.278l-5.4 7.146h5.454v1.656h-7.938v-1.278l5.4-7.146h-5.256zm13.623-.288c2.754 0 4.176 1.782 4.176 4.608v5.76h-1.944v-1.386c-.54 1.026-1.476 1.674-2.916 1.674-1.98 0-3.474-1.134-3.474-3.15 0-3.15 3.456-3.492 6.372-3.384-.108-1.458-.72-2.394-2.214-2.394-1.548 0-2.358.954-2.358 2.106h-2.052c0-1.998 1.566-3.834 4.41-3.834zm-2.142 7.398c0 1.008.702 1.548 1.89 1.548 1.404 0 2.484-.918 2.484-2.556v-.9c-2.97-.144-4.374.702-4.374 1.908zm7.763-7.11h1.512v-2.52h1.944v2.52h1.854v1.656h-1.854v5.688c0 .738.36 1.08 1.062 1.08h1.08v1.656h-1.098c-1.998 0-2.988-1.026-2.988-2.736v-5.688h-1.512zm7.695 0h1.944v10.08h-1.944zm-.108-3.42h2.178v2.214h-2.178zm9.199 13.788c-3.114 0-5.148-2.196-5.148-5.31 0-3.132 2.034-5.346 5.148-5.346s5.148 2.214 5.148 5.346c0 3.114-2.034 5.31-5.148 5.31zm0-1.764c1.962 0 3.15-1.422 3.15-3.546 0-2.142-1.188-3.582-3.15-3.582-1.98 0-3.15 1.44-3.15 3.582 0 2.124 1.17 3.546 3.15 3.546zm7.06-8.604h1.944v1.656c.414-1.008 1.404-1.944 3.312-1.944 1.944 0 3.402 1.08 3.402 4.158v6.21h-1.944v-5.976c0-1.638-.396-2.7-1.944-2.7-1.44 0-2.826 1.26-2.826 3.654v5.022h-1.944zm10.435 7.866h2.232v2.214c0 1.098-.684 1.656-1.728 1.656v-.954c.486 0 .63-.27.63-.702h-1.134zm9.992-.972c.108 1.224 1.17 1.818 2.466 1.818 1.26 0 2.124-.468 2.124-1.494 0-2.124-6.372-.324-6.372-4.356 0-1.62 1.638-3.15 4.104-3.15 2.178 0 4.032 1.404 4.032 3.456h-1.854c-.09-1.224-1.044-1.8-2.25-1.8-1.386 0-2.106.63-2.106 1.494 0 2.322 6.372.378 6.372 4.356 0 1.908-1.602 3.15-4.14 3.15-2.376 0-4.212-1.494-4.284-3.474zm13.224 3.474c-3.114 0-5.148-2.196-5.148-5.31 0-3.132 2.034-5.346 5.148-5.346s5.148 2.214 5.148 5.346c0 3.114-2.034 5.31-5.148 5.31zm0-1.764c1.962 0 3.15-1.422 3.15-3.546 0-2.142-1.188-3.582-3.15-3.582-1.98 0-3.15 1.44-3.15 3.582 0 2.124 1.17 3.546 3.15 3.546zm20.657-1.728c-.468 2.07-2.142 3.492-4.59 3.492-3.114 0-5.148-2.196-5.148-5.31 0-3.132 2.034-5.346 5.148-5.346 2.736 0 5.004 2.178 4.59 5.976h-7.704c.198 1.71 1.224 2.916 3.114 2.916 1.404 0 2.214-.756 2.538-1.728zm-7.65-2.826h5.76c-.162-1.476-1.08-2.574-2.7-2.574-1.764 0-2.772 1.044-3.06 2.574zm8.631-4.05h2.088l2.502 8.388 2.502-8.388h2.088l-3.24 10.08h-2.7zm19.866 6.876c-.468 2.07-2.142 3.492-4.59 3.492-3.114 0-5.148-2.196-5.148-5.31 0-3.132 2.034-5.346 5.148-5.346 2.736 0 5.004 2.178 4.59 5.976h-7.704c.198 1.71 1.224 2.916 3.114 2.916 1.404 0 2.214-.756 2.538-1.728zm-7.65-2.826h5.76c-.162-1.476-1.08-2.574-2.7-2.574-1.764 0-2.772 1.044-3.06 2.574zm9.663-4.05h1.944v1.692c.396-1.026 1.296-1.98 3.366-1.98v1.944c-2.142 0-3.366.738-3.366 3.132v5.292h-1.944zm7.463 13.68v-1.656h1.17c1.26 0 1.53-.846 1.908-1.944h-.756l-3.24-10.08h2.088l2.466 8.28 2.538-8.28h2.088l-3.24 10.08c-.792 2.484-1.44 3.6-3.834 3.6zm14.358-3.312c-3.114 0-5.148-2.196-5.148-5.31 0-3.132 2.034-5.346 5.148-5.346s5.148 2.214 5.148 5.346c0 3.114-2.034 5.31-5.148 5.31zm0-1.764c1.962 0 3.15-1.422 3.15-3.546 0-2.142-1.188-3.582-3.15-3.582-1.98 0-3.15 1.44-3.15 3.582 0 2.124 1.17 3.546 3.15 3.546zm7.06-8.604h1.944v1.656c.414-1.008 1.404-1.944 3.312-1.944 1.944 0 3.402 1.08 3.402 4.158v6.21h-1.944v-5.976c0-1.638-.396-2.7-1.944-2.7-1.44 0-2.826 1.26-2.826 3.654v5.022h-1.944zm20.276 6.876c-.468 2.07-2.142 3.492-4.59 3.492-3.114 0-5.148-2.196-5.148-5.31 0-3.132 2.034-5.346 5.148-5.346 2.736 0 5.004 2.178 4.59 5.976h-7.704c.198 1.71 1.224 2.916 3.114 2.916 1.404 0 2.214-.756 2.538-1.728zm-7.65-2.826h5.76c-.162-1.476-1.08-2.574-2.7-2.574-1.764 0-2.772 1.044-3.06 2.574zm23.351 1.8c-.09 2.61-1.89 4.518-4.734 4.518-3.114 0-5.148-2.196-5.148-5.31 0-3.132 2.034-5.346 5.148-5.346 2.736 0 4.608 2.034 4.698 4.248h-2.052c-.09-1.224-.864-2.466-2.646-2.466-2.124 0-3.15 1.512-3.15 3.564 0 2.034 1.026 3.528 3.15 3.528 1.89 0 2.628-1.314 2.718-2.736zm6.046-6.138c2.754 0 4.176 1.782 4.176 4.608v5.76h-1.944v-1.386c-.54 1.026-1.476 1.674-2.916 1.674-1.98 0-3.474-1.134-3.474-3.15 0-3.15 3.456-3.492 6.372-3.384-.108-1.458-.72-2.394-2.214-2.394-1.548 0-2.358.954-2.358 2.106h-2.052c0-1.998 1.566-3.834 4.41-3.834zm-2.142 7.398c0 1.008.702 1.548 1.89 1.548 1.404 0 2.484-.918 2.484-2.556v-.9c-2.97-.144-4.374.702-4.374 1.908zm8.564-7.11h1.944v1.656c.414-1.008 1.404-1.944 3.312-1.944 1.944 0 3.402 1.08 3.402 4.158v6.21h-1.944v-5.976c0-1.638-.396-2.7-1.944-2.7-1.44 0-2.826 1.26-2.826 3.654v5.022h-1.944zm15.837-.864c0-1.53.9-2.556 2.898-2.556h1.548v1.656h-1.53c-.648 0-.972.306-.972.9v.864h2.25v1.656h-2.25v8.424h-1.944v-8.424h-1.152v-1.656h1.152zm6.421.864h1.944v10.08h-1.944zm-.108-3.42h2.178v2.214h-2.178zm4.499 3.42h1.944v1.656c.414-1.008 1.404-1.944 3.312-1.944 1.944 0 3.402 1.08 3.402 4.158v6.21h-1.944v-5.976c0-1.638-.396-2.7-1.944-2.7-1.44 0-2.826 1.26-2.826 3.654v5.022h-1.944zm15.109 10.368c-2.772 0-4.536-2.196-4.536-5.31 0-3.132 1.764-5.346 4.536-5.346 1.548 0 2.61.684 3.24 1.836v-4.968h1.944v13.5h-1.944v-1.53c-.594 1.098-1.638 1.818-3.24 1.818zm.27-1.764c1.98 0 2.97-1.512 2.97-3.546 0-2.052-.99-3.582-2.97-3.582-1.746 0-2.808 1.44-2.808 3.582 0 2.124 1.062 3.546 2.808 3.546zm11.03-8.604h1.512v-2.52h1.944v2.52h1.854v1.656h-1.854v5.688c0 .738.36 1.08 1.062 1.08h1.08v1.656h-1.098c-1.998 0-2.988-1.026-2.988-2.736v-5.688h-1.512zm7.676-3.42h1.944v5.094c.432-1.008 1.386-1.962 3.312-1.962 1.944 0 3.402 1.08 3.402 4.158v6.21h-1.944v-5.976c0-1.638-.396-2.7-1.944-2.7-1.44 0-2.826 1.26-2.826 3.654v5.022h-1.944zm20.275 10.296c-.468 2.07-2.142 3.492-4.59 3.492-3.114 0-5.148-2.196-5.148-5.31 0-3.132 2.034-5.346 5.148-5.346 2.736 0 5.004 2.178 4.59 5.976h-7.704c.198 1.71 1.224 2.916 3.114 2.916 1.404 0 2.214-.756 2.538-1.728zm-7.65-2.826h5.76c-.162-1.476-1.08-2.574-2.7-2.574-1.764 0-2.772 1.044-3.06 2.574zm-281.36 17.95h1.944v1.692c.396-1.026 1.296-1.98 3.366-1.98v1.944c-2.142 0-3.366.738-3.366 3.132v5.292h-1.944zm7.122 0h1.944v10.08h-1.944zm-.108-3.42h2.178v2.214h-2.178zm8.587 13.428c-2.772 0-4.536-2.016-4.536-5.13 0-3.132 1.764-5.166 4.536-5.166 1.53 0 2.592.594 3.24 1.692v-1.404h1.944v9.54c0 2.844-1.854 4.428-4.464 4.428-3.204 0-4.446-1.746-4.734-3.456h2.016c.234 1.17 1.206 1.692 2.718 1.692 1.53 0 2.52-.774 2.52-2.664v-1.188c-.612 1.044-1.656 1.656-3.24 1.656zm.27-1.764c1.98 0 2.97-1.332 2.97-3.366 0-2.052-.99-3.402-2.97-3.402-1.746 0-2.808 1.26-2.808 3.402 0 2.124 1.062 3.366 2.808 3.366zm7.245-11.664h1.944v5.094c.432-1.008 1.386-1.962 3.312-1.962 1.944 0 3.402 1.08 3.402 4.158v6.21h-1.944v-5.976c0-1.638-.396-2.7-1.944-2.7-1.44 0-2.826 1.26-2.826 3.654v5.022h-1.944zm10.236 3.42h1.512v-2.52h1.944v2.52h1.854v1.656h-1.854v5.688c0 .738.36 1.08 1.062 1.08h1.08v1.656h-1.098c-1.998 0-2.988-1.026-2.988-2.736v-5.688h-1.512zm16.106-.288c2.754 0 4.176 1.782 4.176 4.608v5.76h-1.944v-1.386c-.54 1.026-1.476 1.674-2.916 1.674-1.98 0-3.474-1.134-3.474-3.15 0-3.15 3.456-3.492 6.372-3.384-.108-1.458-.72-2.394-2.214-2.394-1.548 0-2.358.954-2.358 2.106h-2.052c0-1.998 1.566-3.834 4.41-3.834zm-2.142 7.398c0 1.008.702 1.548 1.89 1.548 1.404 0 2.484-.918 2.484-2.556v-.9c-2.97-.144-4.374.702-4.374 1.908zm8.564-7.11h1.944v1.656c.414-1.008 1.404-1.944 3.312-1.944 1.944 0 3.402 1.08 3.402 4.158v6.21h-1.944v-5.976c0-1.638-.396-2.7-1.944-2.7-1.44 0-2.826 1.26-2.826 3.654v5.022h-1.944zm12.464 6.894c.108 1.224 1.17 1.818 2.466 1.818 1.26 0 2.124-.468 2.124-1.494 0-2.124-6.372-.324-6.372-4.356 0-1.62 1.638-3.15 4.104-3.15 2.178 0 4.032 1.404 4.032 3.456h-1.854c-.09-1.224-1.044-1.8-2.25-1.8-1.386 0-2.106.63-2.106 1.494 0 2.322 6.372.378 6.372 4.356 0 1.908-1.602 3.15-4.14 3.15-2.376 0-4.212-1.494-4.284-3.474zm7.669-6.894h2.088l1.656 7.902 1.8-7.902h2.142l1.8 7.902 1.656-7.902h2.088l-2.52 10.08h-2.52l-1.566-6.894-1.584 6.894h-2.52zm24.05 6.876c-.468 2.07-2.142 3.492-4.59 3.492-3.114 0-5.148-2.196-5.148-5.31 0-3.132 2.034-5.346 5.148-5.346 2.736 0 5.004 2.178 4.59 5.976h-7.704c.198 1.71 1.224 2.916 3.114 2.916 1.404 0 2.214-.756 2.538-1.728zm-7.65-2.826h5.76c-.162-1.476-1.08-2.574-2.7-2.574-1.764 0-2.772 1.044-3.06 2.574zm9.663-4.05h1.944v1.692c.396-1.026 1.296-1.98 3.366-1.98v1.944c-2.142 0-3.366.738-3.366 3.132v5.292h-1.944zm8.28 6.894c.108 1.224 1.17 1.818 2.466 1.818 1.26 0 2.124-.468 2.124-1.494 0-2.124-6.372-.324-6.372-4.356 0-1.62 1.638-3.15 4.104-3.15 2.178 0 4.032 1.404 4.032 3.456h-1.854c-.09-1.224-1.044-1.8-2.25-1.8-1.386 0-2.106.63-2.106 1.494 0 2.322 6.372.378 6.372 4.356 0 1.908-1.602 3.15-4.14 3.15-2.376 0-4.212-1.494-4.284-3.474zm16.813 3.474c-2.772 0-4.536-2.196-4.536-5.31 0-3.132 1.764-5.346 4.536-5.346 1.53 0 2.592.666 3.24 1.818v-1.53h1.944v13.68h-1.944v-5.076c-.612 1.08-1.656 1.764-3.24 1.764zm.27-1.764c1.98 0 2.97-1.512 2.97-3.546 0-2.052-.99-3.582-2.97-3.582-1.746 0-2.808 1.44-2.808 3.582 0 2.124 1.062 3.546 2.808 3.546zm15.866 1.476h-1.944v-1.674c-.432 1.008-1.404 1.962-3.33 1.962-1.944 0-3.384-1.08-3.384-4.158v-6.21h1.926v5.976c0 1.638.414 2.7 1.962 2.7 1.44 0 2.826-1.26 2.826-3.654v-5.022h1.944zm2.438-10.08h1.944v10.08h-1.944zm-.108-3.42h2.178v2.214h-2.178zm13.933 9.27c-.09 2.61-1.89 4.518-4.734 4.518-3.114 0-5.148-2.196-5.148-5.31 0-3.132 2.034-5.346 5.148-5.346 2.736 0 4.608 2.034 4.698 4.248h-2.052c-.09-1.224-.864-2.466-2.646-2.466-2.124 0-3.15 1.512-3.15 3.564 0 2.034 1.026 3.528 3.15 3.528 1.89 0 2.628-1.314 2.718-2.736zm1.94-9.27h1.944v7.776l3.6-4.356h2.34l-3.312 4.014 3.726 6.066h-2.214l-2.718-4.626-1.422 1.728v2.898h-1.944zm9.791 0h1.944v13.5h-1.944zm4.702 17.1v-1.656h1.17c1.26 0 1.53-.846 1.908-1.944h-.756l-3.24-10.08h2.088l2.466 8.28 2.538-8.28h2.088l-3.24 10.08c-.792 2.484-1.44 3.6-3.834 3.6zm8.351-5.814h2.178v2.214h-2.178z" fill="#000"/><path d="m0 0h478v245h-478z" fill="#e5e5e5" transform="translate(0 510)"/><path d="m0 0h15.4643v17.5332h-15.4643z" fill="#ff1e1e" transform="translate(0 510)"/><path d="m9.49485 522.767-1.76-2.7-1.77 2.7h-1.08l2.31-3.52-2.28-3.48h1.08l1.74 2.65 1.73-2.65h1.07995l-2.26995 3.48 2.29995 3.52z" fill="#fff"/><path d="m0 0h126.464v17.5332h-126.464z" fill="#eee" transform="translate(15.4648 510)"/><path d="m22.417 515.767h1.23l2.41 7h-.99l-.56-1.7h-2.9l-.54 1.7h-.98zm-.55 4.49h2.37l-1.2-3.64zm4.1766-3.09h.98l1.52 4.85 1.51-4.85h.98l-1.85 5.6h-1.29zm8.3792 5.76c-1.73 0-2.86-1.22-2.86-2.95 0-1.74 1.13-2.97 2.86-2.97s2.86 1.23 2.86 2.97c0 1.73-1.13 2.95-2.86 2.95zm0-.83c1.16 0 1.92-.82 1.92-2.12 0-1.32-.76-2.14-1.92-2.14s-1.93.82-1.93 2.14c0 1.3.77 2.12 1.93 2.12zm4.0025-4.93h.91v5.6h-.91zm-.07-1.9h1.05v1.08h-1.05zm4.6533 7.66c-1.52 0-2.52-1.22-2.52-2.95 0-1.74 1-2.97 2.52-2.97.91 0 1.54.44 1.9 1.14v-2.88h.9v7.5h-.9v-.96c-.34.67-.96 1.12-1.9 1.12zm.1-.83c1.2 0 1.8-.89 1.8-2.12 0-1.24-.6-2.14-1.8-2.14-1.02 0-1.69.82-1.69 2.14 0 1.3.67 2.12 1.69 2.12zm11.0586.67h-.9v-.96c-.25.57-.81 1.12-1.88 1.12-1.08 0-1.9-.6-1.9-2.31v-3.45h.9v3.32c0 1.03.3 1.65 1.21 1.65.9 0 1.67-.83 1.67-2.16v-2.81h.9zm2.0353-1.77c.06.75.7 1.16 1.52 1.16.8 0 1.33-.31 1.33-.96 0-1.3-3.66-.23-3.66-2.47 0-.9.88-1.72 2.25-1.72 1.21 0 2.22.78 2.22 1.92h-.83c-.05-.76-.66-1.15-1.43-1.15-.87 0-1.32.4-1.32.95 0 1.42 3.67.26 3.67 2.47 0 1.06-.87 1.73-2.28 1.73-1.32 0-2.31-.83-2.35-1.93zm4.9376-3.83h.91v5.6h-.91zm-.07-1.9h1.05v1.08h-1.05zm2.3726 1.9h.9v.95c.25-.57.81-1.11 1.89-1.11s1.89.6 1.89 2.31v3.45h-.9v-3.32c0-1.04-.3-1.65-1.21-1.65-.9 0-1.67.82-1.67 2.15v2.82h-.9zm8.3061 5.56c-1.52 0-2.52-1.12-2.52-2.85 0-1.74 1-2.87 2.52-2.87.91 0 1.54.38 1.9 1.05v-.89h.9v5.3c0 1.58-.98 2.46-2.43 2.46-1.78 0-2.44-.97-2.6-1.92h.94c.13.72.7 1.09 1.66 1.09.98 0 1.53-.51 1.53-1.63v-.78c-.34.64-.96 1.04-1.9 1.04zm.1-.83c1.2 0 1.8-.79 1.8-2.02 0-1.24-.6-2.04-1.8-2.04-1.02 0-1.69.72-1.69 2.04 0 1.3.67 2.02 1.69 2.02zm11.6591-1.48c-.08 1.45-1.05 2.51-2.63 2.51-1.73 0-2.86-1.22-2.86-2.95 0-1.74 1.13-2.97 2.86-2.97 1.52 0 2.53 1.13 2.61 2.36h-.95c-.07-.76-.57-1.53-1.66-1.53-1.26 0-1.93.9-1.93 2.14 0 1.23.67 2.11 1.93 2.11 1.17 0 1.63-.81 1.7-1.67zm3.7176 2.51c-1.73 0-2.86-1.22-2.86-2.95 0-1.74 1.13-2.97 2.86-2.97s2.86 1.23 2.86 2.97c0 1.73-1.13 2.95-2.86 2.95zm0-.83c1.16 0 1.92-.82 1.92-2.12 0-1.32-.76-2.14-1.92-2.14s-1.93.82-1.93 2.14c0 1.3.77 2.12 1.93 2.12zm3.9618-6.83h.9v7.5h-.9zm4.8566 7.66c-1.73 0-2.86-1.22-2.86-2.95 0-1.74 1.13-2.97 2.86-2.97s2.86 1.23 2.86 2.97c0 1.73-1.13 2.95-2.86 2.95zm0-.83c1.16 0 1.92-.82 1.92-2.12 0-1.32-.76-2.14-1.92-2.14s-1.93.82-1.93 2.14c0 1.3.77 2.12 1.93 2.12zm3.9711-4.93h.9v.97c.22-.58.75-1.13 1.92-1.13v.93c-1.19 0-1.92.46-1.92 1.79v3.04h-.9zm8.618 3.83c-.28 1.15-1.19 1.93-2.55 1.93-1.73 0-2.86-1.22-2.86-2.95 0-1.74 1.13-2.97 2.86-2.97 1.52 0 2.74 1.2 2.56 3.27h-4.48c.11 1.07.76 1.82 1.92 1.82.9 0 1.39-.48 1.59-1.1zm-4.44-1.51h3.57c-.11-.98-.7-1.65-1.68-1.65-1.09 0-1.73.67-1.89 1.65zm7.859 3.44c-1.52 0-2.52-1.22-2.52-2.95 0-1.74 1-2.97 2.52-2.97.91 0 1.54.44 1.9 1.14v-2.88h.9v7.5h-.9v-.96c-.34.67-.96 1.12-1.9 1.12zm.1-.83c1.2 0 1.8-.89 1.8-2.12 0-1.24-.6-2.14-1.8-2.14-1.02 0-1.69.82-1.69 2.14 0 1.3.67 2.12 1.69 2.12zm6.148-4.93h.94v-1.4h.9v1.4h1.11v.77h-1.11v3.41c0 .46.22.65.62.65h.65v.77h-.66c-1.01 0-1.51-.57-1.51-1.42v-3.41h-.94zm9.132 3.83c-.28 1.15-1.19 1.93-2.55 1.93-1.73 0-2.86-1.22-2.86-2.95 0-1.74 1.13-2.97 2.86-2.97 1.52 0 2.74 1.2 2.56 3.27h-4.48c.11 1.07.76 1.82 1.92 1.82.9 0 1.39-.48 1.59-1.1zm-4.44-1.51h3.57c-.11-.98-.7-1.65-1.68-1.65-1.09 0-1.73.67-1.89 1.65zm4.977-2.32h1.04l1.25 1.96 1.25-1.96h1.04l-1.77 2.78 1.8 2.82h-1.04l-1.28-2.01-1.28 2.01h-1.04l1.8-2.82zm5.399 0h.94v-1.4h.9v1.4h1.11v.77h-1.11v3.41c0 .46.22.65.62.65h.65v.77h-.66c-1.01 0-1.51-.57-1.51-1.42v-3.41h-.94z" fill="#201c1d"/><path d="m111.975 572.615h7.7v42.28h21.77v6.72h-29.47zm51.009 50.12c-11.27 0-18.83-7.42-19.88-18.2h7.91c.7 6.65 4.62 11.34 11.97 11.34 5.46 0 8.61-2.94 9.94-6.72h7.98c-1.89 8.05-8.4 13.58-17.92 13.58zm-11.97-18.2v-4.62h-7.98c.98-11.62 9.17-18.62 19.95-18.62 10.64 0 19.46 8.47 17.92 23.24zm.21-6.37h22.26c-.63-5.74-4.2-10.01-10.5-10.01-6.23 0-10.78 3.71-11.76 10.01zm38.221 23.45v-32.76h-5.88v-6.44h5.88v-9.8h7.56v9.8h7.91v6.44h-7.91v26.32h9.03v6.44zm18.129-52.5h8.68v8.61c0 4.27-2.66 6.44-6.72 6.44v-3.71c1.89 0 2.45-1.05 2.45-2.73h-4.41zm15.615 40.11c.42 4.76 4.55 7.07 9.59 7.07 4.9 0 8.26-1.82 8.26-5.81 0-8.26-24.78-1.26-24.78-16.94 0-6.3 6.37-12.25 15.96-12.25 8.47 0 15.68 5.46 15.68 13.44h-7.21c-.35-4.76-4.06-7-8.75-7-5.39 0-8.19 2.45-8.19 5.81 0 9.03 24.78 1.47 24.78 16.94 0 7.42-6.23 12.25-16.1 12.25-9.24 0-16.38-5.81-16.66-13.51zm61.216 12.11c-10.78 0-17.64-7.84-17.64-19.95 0-12.18 6.86-20.09 17.64-20.09 5.95 0 10.08 2.31 12.6 6.58v-5.46h7.56v37.1c0 11.06-7.21 17.22-17.36 17.22-12.46 0-17.29-6.79-18.41-13.44h7.84c.91 4.55 4.69 6.58 10.57 6.58 5.95 0 9.8-3.01 9.8-10.36v-4.62c-2.38 4.06-6.44 6.44-12.6 6.44zm1.05-6.86c7.7 0 11.55-5.18 11.55-13.09 0-7.98-3.85-13.23-11.55-13.23-6.79 0-10.92 4.9-10.92 13.23 0 8.26 4.13 13.09 10.92 13.09zm44.394 8.26c-11.27 0-18.83-7.42-19.88-18.2h7.91c.7 6.65 4.62 11.34 11.97 11.34 5.46 0 8.61-2.94 9.94-6.72h7.98c-1.89 8.05-8.4 13.58-17.92 13.58zm-11.97-18.2v-4.62h-7.98c.98-11.62 9.17-18.62 19.95-18.62 10.64 0 19.46 8.47 17.92 23.24zm.21-6.37h22.26c-.63-5.74-4.2-10.01-10.5-10.01-6.23 0-10.78 3.71-11.76 10.01zm38.221 23.45v-32.76h-5.88v-6.44h5.88v-9.8h7.56v9.8h7.91v6.44h-7.91v26.32h9.03v6.44zm-227.6 71.12c-6.23 0-10.22-2.66-12.6-6.86v5.74h-7.56v-52.5h7.56v19.18c2.52-4.41 6.58-7 12.6-7 10.78 0 17.64 8.61 17.64 20.79 0 12.11-6.86 20.65-17.64 20.65zm-1.05-6.86c6.79 0 10.92-5.53 10.92-13.79 0-8.33-4.13-13.93-10.92-13.93-7.77 0-11.55 5.95-11.55 13.93 0 7.91 3.78 13.79 11.55 13.79zm57.689 5.74h-7.56v-6.51c-1.68 3.92-5.46 7.63-12.95 7.63-7.56 0-13.16-4.2-13.16-16.17v-24.15h7.49v23.24c0 6.37 1.61 10.5 7.63 10.5 5.6 0 10.99-4.9 10.99-14.21v-19.53h7.56zm7.815-39.2h7.56v39.2h-7.56zm-2.24-13.65 8.4-1.89 1.89 8.54-8.4 1.89zm17.363.35h7.56v52.5h-7.56zm30.864 53.62c-10.78 0-17.64-8.54-17.64-20.65 0-12.18 6.86-20.79 17.64-20.79 6.02 0 10.15 2.66 12.6 7.14v-19.32h7.56v52.5h-7.56v-5.95c-2.31 4.27-6.37 7.07-12.6 7.07zm1.05-6.86c7.7 0 11.55-5.88 11.55-13.79 0-7.98-3.85-13.93-11.55-13.93-6.79 0-10.92 5.6-10.92 13.93 0 8.26 4.13 13.79 10.92 13.79zm27.406-33.46h7.56v39.2h-7.56zm-2.24-13.65 8.4-1.89 1.89 8.54-8.4 1.89zm17.223 13.65h7.56v6.44c1.61-3.92 5.46-7.56 12.88-7.56 7.56 0 13.23 4.2 13.23 16.17v24.15h-7.56v-23.24c0-6.37-1.54-10.5-7.56-10.5-5.6 0-10.99 4.9-10.99 14.21v19.53h-7.56zm56.707 38.92c-10.78 0-17.64-7.84-17.64-19.95 0-12.18 6.86-20.09 17.64-20.09 5.95 0 10.08 2.31 12.6 6.58v-5.46h7.56v37.1c0 11.06-7.21 17.22-17.36 17.22-12.46 0-17.29-6.79-18.41-13.44h7.84c.91 4.55 4.69 6.58 10.57 6.58 5.95 0 9.8-3.01 9.8-10.36v-4.62c-2.38 4.06-6.44 6.44-12.6 6.44zm1.05-6.86c7.7 0 11.55-5.18 11.55-13.09 0-7.98-3.85-13.23-11.55-13.23-6.79 0-10.92 4.9-10.92 13.23 0 8.26 4.13 13.09 10.92 13.09zm23.975-1.47h8.47v8.61h-8.47z" fill="#86af25"/><path d="m0 0h478v245h-478z" fill="#e5e5e5" transform="translate(488 510)"/><path d="m0 0h15.4643v17.5332h-15.4643z" fill="#ff1e1e" transform="translate(488 510)"/><path d="m497.495 522.767-1.76-2.7-1.77 2.7h-1.08l2.31-3.52-2.28-3.48h1.08l1.74 2.65 1.73-2.65h1.08l-2.27 3.48 2.3 3.52z" fill="#fff"/><path d="m0 0h102.464v17.5332h-102.464z" fill="#eee" transform="translate(503.465 510)"/><path d="m510.417 515.767h1.23l2.41 7h-.99l-.56-1.7h-2.9l-.54 1.7h-.98zm-.55 4.49h2.37l-1.2-3.64zm4.177-3.09h.98l1.52 4.85 1.51-4.85h.98l-1.85 5.6h-1.29zm8.379 5.76c-1.73 0-2.86-1.22-2.86-2.95 0-1.74 1.13-2.97 2.86-2.97s2.86 1.23 2.86 2.97c0 1.73-1.13 2.95-2.86 2.95zm0-.83c1.16 0 1.92-.82 1.92-2.12 0-1.32-.76-2.14-1.92-2.14s-1.93.82-1.93 2.14c0 1.3.77 2.12 1.93 2.12zm4.002-4.93h.91v5.6h-.91zm-.07-1.9h1.05v1.08h-1.05zm4.654 7.66c-1.52 0-2.52-1.22-2.52-2.95 0-1.74 1-2.97 2.52-2.97.91 0 1.54.44 1.9 1.14v-2.88h.9v7.5h-.9v-.96c-.34.67-.96 1.12-1.9 1.12zm.1-.83c1.2 0 1.8-.89 1.8-2.12 0-1.24-.6-2.14-1.8-2.14-1.02 0-1.69.82-1.69 2.14 0 1.3.67 2.12 1.69 2.12zm11.058.67h-.9v-.96c-.25.57-.81 1.12-1.88 1.12-1.08 0-1.9-.6-1.9-2.31v-3.45h.9v3.32c0 1.03.3 1.65 1.21 1.65.9 0 1.67-.83 1.67-2.16v-2.81h.9zm2.036-1.77c.06.75.7 1.16 1.52 1.16.8 0 1.33-.31 1.33-.96 0-1.3-3.66-.23-3.66-2.47 0-.9.88-1.72 2.25-1.72 1.21 0 2.22.78 2.22 1.92h-.83c-.05-.76-.66-1.15-1.43-1.15-.87 0-1.32.4-1.32.95 0 1.42 3.67.26 3.67 2.47 0 1.06-.87 1.73-2.28 1.73-1.32 0-2.31-.83-2.35-1.93zm4.937-3.83h.91v5.6h-.91zm-.07-1.9h1.05v1.08h-1.05zm2.373 1.9h.9v.95c.25-.57.81-1.11 1.89-1.11s1.89.6 1.89 2.31v3.45h-.9v-3.32c0-1.04-.3-1.65-1.21-1.65-.9 0-1.67.82-1.67 2.15v2.82h-.9zm8.306 5.56c-1.52 0-2.52-1.12-2.52-2.85 0-1.74 1-2.87 2.52-2.87.91 0 1.54.38 1.9 1.05v-.89h.9v5.3c0 1.58-.98 2.46-2.43 2.46-1.78 0-2.44-.97-2.6-1.92h.94c.13.72.7 1.09 1.66 1.09.98 0 1.53-.51 1.53-1.63v-.78c-.34.64-.96 1.04-1.9 1.04zm.1-.83c1.2 0 1.8-.79 1.8-2.02 0-1.24-.6-2.04-1.8-2.04-1.02 0-1.69.72-1.69 2.04 0 1.3.67 2.02 1.69 2.02zm11.579-.9c-.28 1.15-1.19 1.93-2.55 1.93-1.73 0-2.86-1.22-2.86-2.95 0-1.74 1.13-2.97 2.86-2.97 1.52 0 2.74 1.2 2.56 3.27h-4.48c.11 1.07.76 1.82 1.92 1.82.9 0 1.39-.48 1.59-1.1zm-4.44-1.51h3.57c-.11-.98-.7-1.65-1.68-1.65-1.09 0-1.73.67-1.89 1.65zm5.85-2.95c0-.7.42-1.27 1.43-1.27h1.04v.77h-1.03c-.36 0-.54.17-.54.5v.63h1.38v.77h-1.38v4.83h-.9v-4.83h-.64v-.77h.64zm3.994 0c0-.7.42-1.27 1.43-1.27h1.04v.77h-1.03c-.36 0-.54.17-.54.5v.63h1.38v.77h-1.38v4.83h-.9v-4.83h-.64v-.77h.64zm8.307 4.46c-.28 1.15-1.19 1.93-2.55 1.93-1.73 0-2.86-1.22-2.86-2.95 0-1.74 1.13-2.97 2.86-2.97 1.52 0 2.74 1.2 2.56 3.27h-4.48c.11 1.07.76 1.82 1.92 1.82.9 0 1.39-.48 1.59-1.1zm-4.44-1.51h3.57c-.11-.98-.7-1.65-1.68-1.65-1.09 0-1.73.67-1.89 1.65zm10.828.93c-.08 1.45-1.05 2.51-2.63 2.51-1.73 0-2.86-1.22-2.86-2.95 0-1.74 1.13-2.97 2.86-2.97 1.52 0 2.53 1.13 2.61 2.36h-.95c-.07-.76-.57-1.53-1.66-1.53-1.26 0-1.93.9-1.93 2.14 0 1.23.67 2.11 1.93 2.11 1.17 0 1.63-.81 1.7-1.67zm.613-3.25h.94v-1.4h.9v1.4h1.11v.77h-1.11v3.41c0 .46.22.65.62.65h.65v.77h-.66c-1.01 0-1.51-.57-1.51-1.42v-3.41h-.94zm4.777 3.83c.06.75.7 1.16 1.52 1.16.8 0 1.33-.31 1.33-.96 0-1.3-3.66-.23-3.66-2.47 0-.9.88-1.72 2.25-1.72 1.21 0 2.22.78 2.22 1.92h-.83c-.05-.76-.66-1.15-1.43-1.15-.87 0-1.32.4-1.32.95 0 1.42 3.67.26 3.67 2.47 0 1.06-.87 1.73-2.28 1.73-1.32 0-2.31-.83-2.35-1.93z" fill="#201c1d"/><g filter="url(#a)"><path d="m599.975 572.615h7.7v42.28h21.77v6.72h-29.47zm51.009 50.12c-11.27 0-18.83-7.42-19.88-18.2h7.91c.7 6.65 4.62 11.34 11.97 11.34 5.46 0 8.61-2.94 9.94-6.72h7.98c-1.89 8.05-8.4 13.58-17.92 13.58zm-11.97-18.2v-4.62h-7.98c.98-11.62 9.17-18.62 19.95-18.62 10.64 0 19.46 8.47 17.92 23.24zm.21-6.37h22.26c-.63-5.74-4.2-10.01-10.5-10.01-6.23 0-10.78 3.71-11.76 10.01zm38.221 23.45v-32.76h-5.88v-6.44h5.88v-9.8h7.56v9.8h7.91v6.44h-7.91v26.32h9.03v6.44zm18.129-52.5h8.68v8.61c0 4.27-2.66 6.44-6.72 6.44v-3.71c1.89 0 2.45-1.05 2.45-2.73h-4.41zm15.615 40.11c.42 4.76 4.55 7.07 9.59 7.07 4.9 0 8.26-1.82 8.26-5.81 0-8.26-24.78-1.26-24.78-16.94 0-6.3 6.37-12.25 15.96-12.25 8.47 0 15.68 5.46 15.68 13.44h-7.21c-.35-4.76-4.06-7-8.75-7-5.39 0-8.19 2.45-8.19 5.81 0 9.03 24.78 1.47 24.78 16.94 0 7.42-6.23 12.25-16.1 12.25-9.24 0-16.38-5.81-16.66-13.51zm61.216 12.11c-10.78 0-17.64-7.84-17.64-19.95 0-12.18 6.86-20.09 17.64-20.09 5.95 0 10.08 2.31 12.6 6.58v-5.46h7.56v37.1c0 11.06-7.21 17.22-17.36 17.22-12.46 0-17.29-6.79-18.41-13.44h7.84c.91 4.55 4.69 6.58 10.57 6.58 5.95 0 9.8-3.01 9.8-10.36v-4.62c-2.38 4.06-6.44 6.44-12.6 6.44zm1.05-6.86c7.7 0 11.55-5.18 11.55-13.09 0-7.98-3.85-13.23-11.55-13.23-6.79 0-10.92 4.9-10.92 13.23 0 8.26 4.13 13.09 10.92 13.09zm44.394 8.26c-11.27 0-18.83-7.42-19.88-18.2h7.91c.7 6.65 4.62 11.34 11.97 11.34 5.46 0 8.61-2.94 9.94-6.72h7.98c-1.89 8.05-8.4 13.58-17.92 13.58zm-11.97-18.2v-4.62h-7.98c.98-11.62 9.17-18.62 19.95-18.62 10.64 0 19.46 8.47 17.92 23.24zm.21-6.37h22.26c-.63-5.74-4.2-10.01-10.5-10.01-6.23 0-10.78 3.71-11.76 10.01zm38.221 23.45v-32.76h-5.88v-6.44h5.88v-9.8h7.56v9.8h7.91v6.44h-7.91v26.32h9.03v6.44zm-227.6 71.12c-6.23 0-10.22-2.66-12.6-6.86v5.74h-7.56v-52.5h7.56v19.18c2.52-4.41 6.58-7 12.6-7 10.78 0 17.64 8.61 17.64 20.79 0 12.11-6.86 20.65-17.64 20.65zm-1.05-6.86c6.79 0 10.92-5.53 10.92-13.79 0-8.33-4.13-13.93-10.92-13.93-7.77 0-11.55 5.95-11.55 13.93 0 7.91 3.78 13.79 11.55 13.79zm57.689 5.74h-7.56v-6.51c-1.68 3.92-5.46 7.63-12.95 7.63-7.56 0-13.16-4.2-13.16-16.17v-24.15h7.49v23.24c0 6.37 1.61 10.5 7.63 10.5 5.6 0 10.99-4.9 10.99-14.21v-19.53h7.56zm7.815-39.2h7.56v39.2h-7.56zm-2.24-13.65 8.4-1.89 1.89 8.54-8.4 1.89zm17.363.35h7.56v52.5h-7.56zm30.864 53.62c-10.78 0-17.64-8.54-17.64-20.65 0-12.18 6.86-20.79 17.64-20.79 6.02 0 10.15 2.66 12.6 7.14v-19.32h7.56v52.5h-7.56v-5.95c-2.31 4.27-6.37 7.07-12.6 7.07zm1.05-6.86c7.7 0 11.55-5.88 11.55-13.79 0-7.98-3.85-13.93-11.55-13.93-6.79 0-10.92 5.6-10.92 13.93 0 8.26 4.13 13.79 10.92 13.79zm27.406-33.46h7.56v39.2h-7.56zm-2.24-13.65 8.4-1.89 1.89 8.54-8.4 1.89zm17.223 13.65h7.56v6.44c1.61-3.92 5.46-7.56 12.88-7.56 7.56 0 13.23 4.2 13.23 16.17v24.15h-7.56v-23.24c0-6.37-1.54-10.5-7.56-10.5-5.6 0-10.99 4.9-10.99 14.21v19.53h-7.56zm56.707 38.92c-10.78 0-17.64-7.84-17.64-19.95 0-12.18 6.86-20.09 17.64-20.09 5.95 0 10.08 2.31 12.6 6.58v-5.46h7.56v37.1c0 11.06-7.21 17.22-17.36 17.22-12.46 0-17.29-6.79-18.41-13.44h7.84c.91 4.55 4.69 6.58 10.57 6.58 5.95 0 9.8-3.01 9.8-10.36v-4.62c-2.38 4.06-6.44 6.44-12.6 6.44zm1.05-6.86c7.7 0 11.55-5.18 11.55-13.09 0-7.98-3.85-13.23-11.55-13.23-6.79 0-10.92 4.9-10.92 13.23 0 8.26 4.13 13.09 10.92 13.09zm23.975-1.47h8.47v8.61h-8.47z" fill="#201c1d"/></g></g></svg>