<svg fill="none" height="345" viewBox="0 0 966 345" width="966" xmlns="http://www.w3.org/2000/svg" xmlns:xlink="http://www.w3.org/1999/xlink"><clipPath id="a"><path d="m0 0h966v345h-966z"/></clipPath><clipPath id="b"><path d="m579 32h295.969v261.46h-295.969z"/></clipPath><g clip-path="url(#a)"><path d="m0 0h478v345h-478z" fill="#e5e5e5" transform="translate(488)"/><path d="m0 0h15.4643v17.5332h-15.4643z" fill="#ff1e1e" transform="translate(488)"/><path d="m493.965 12.7666h-1.08l2.3-3.52-2.27-3.48h1.08l1.73 2.65 1.74-2.65h1.08l-2.28 3.48 2.31 3.52h-1.08l-1.77-2.7z" fill="#fff"/><path d="m0 0h193.464v17.5332h-193.464z" fill="#eee" transform="translate(503.465)"/><path d="m510.417 5.7666h1.23l2.41 7h-.99l-.56-1.7h-2.9l-.54 1.7h-.98zm-.55 4.49h2.38l-1.21-3.65zm4.177-3.09h.98l1.51 4.85 1.52-4.85h.98l-1.85 5.6h-1.29zm8.379 5.76c-1.73 0-2.86-1.22-2.86-2.95 0-1.74 1.13-2.97 2.86-2.97s2.86 1.23 2.86 2.97c0 1.73-1.13 2.95-2.86 2.95zm0-.83c1.16 0 1.92-.82 1.92-2.12 0-1.32-.76-2.14-1.92-2.14s-1.93.82-1.93 2.14c0 1.3.77 2.12 1.93 2.12zm3.932-6.83h1.05v1.08h-1.05zm.07 1.9h.91v5.6h-.91zm4.584 5.76c-1.52 0-2.52-1.22-2.52-2.95 0-1.74 1-2.97 2.52-2.97.91 0 1.54.44 1.9 1.14v-2.88h.9v7.5h-.9v-.96c-.34.67-.96 1.12-1.9 1.12zm.1-.83c1.2 0 1.8-.89 1.8-2.12 0-1.24-.6-2.14-1.8-2.14-1.02 0-1.69.82-1.69 2.14 0 1.3.67 2.12 1.69 2.12zm9.048.83c-1.73 0-2.86-1.22-2.86-2.95 0-1.74 1.13-2.97 2.86-2.97s2.86 1.23 2.86 2.97c0 1.73-1.13 2.95-2.86 2.95zm0-.83c1.16 0 1.92-.82 1.92-2.12 0-1.32-.76-2.14-1.92-2.14s-1.93.82-1.93 2.14c0 1.3.77 2.12 1.93 2.12zm3.972.67v-7.5h.9v2.87c.36-.7.99-1.13 1.9-1.13 1.52 0 2.52 1.23 2.52 2.97 0 1.73-1 2.95-2.52 2.95-.94 0-1.55-.43-1.9-1.1v.94zm2.7-.67c1.02 0 1.69-.82 1.69-2.12 0-1.32-.67-2.14-1.69-2.14-1.19 0-1.8.9-1.8 2.14 0 1.23.61 2.12 1.8 2.12zm4.424-1.1c.06.75.7 1.16 1.52 1.16.8 0 1.33-.31 1.33-.96 0-1.3-3.66-.23-3.66-2.47 0-.9.88-1.72 2.25-1.72 1.21 0 2.22.78 2.22 1.92h-.83c-.05-.76-.66-1.15-1.43-1.15-.87 0-1.32.4-1.32.95 0 1.42 3.67.26 3.67 2.47 0 1.06-.87 1.73-2.28 1.73-1.32 0-2.31-.83-2.35-1.93zm10.128-.58c-.08 1.45-1.05 2.51-2.63 2.51-1.73 0-2.86-1.22-2.86-2.95 0-1.74 1.13-2.97 2.86-2.97 1.52 0 2.53 1.13 2.61 2.36h-.95c-.07-.76-.57-1.53-1.66-1.53-1.26 0-1.93.9-1.93 2.14 0 1.23.67 2.11 1.93 2.11 1.17 0 1.63-.81 1.7-1.67zm4.847-.44v-2.81h.9v5.6h-.9v-.96c-.25.57-.81 1.12-1.88 1.12-1.08 0-1.9-.6-1.9-2.31v-3.45h.9v3.32c0 1.03.3 1.65 1.21 1.65.9 0 1.67-.83 1.67-2.16zm3.117-.25v3.04h-.9v-5.6h.9v.97c.22-.58.75-1.13 1.92-1.13v.93c-1.19 0-1.92.46-1.92 1.79zm2.86-4.46h1.05v1.08h-1.05zm.07 1.9h.91v5.6h-.91zm2.302 0h.9v.95c.25-.57.81-1.11 1.89-1.11s1.89.6 1.89 2.31v3.45h-.9v-3.32c0-1.04-.3-1.65-1.21-1.65-.9 0-1.67.82-1.67 2.15v2.82h-.9zm8.307 5.56c-1.52 0-2.52-1.12-2.52-2.85 0-1.74 1-2.87 2.52-2.87.91 0 1.54.38 1.9 1.06v-.9h.9v5.3c0 1.58-.98 2.46-2.43 2.46-1.78 0-2.44-.97-2.6-1.92h.94c.13.72.7 1.09 1.66 1.09.98 0 1.53-.51 1.53-1.63v-.77c-.35.63-.96 1.03-1.9 1.03zm.1-.83c1.2 0 1.8-.79 1.8-2.02 0-1.24-.6-2.04-1.8-2.04-1.02 0-1.69.72-1.69 2.04 0 1.3.67 2.02 1.69 2.02zm6.399-6.63h.9v7.5h-.9zm4.866 7.66c-1.73 0-2.86-1.22-2.86-2.95 0-1.74 1.13-2.97 2.86-2.97 1.52 0 2.74 1.2 2.56 3.27h-4.47c.1 1.07.76 1.82 1.91 1.82.9 0 1.39-.48 1.59-1.1h.96c-.28 1.15-1.19 1.93-2.55 1.93zm0-5.09c-1.09 0-1.73.67-1.89 1.65h3.57c-.1-.96-.7-1.65-1.68-1.65zm3.184-.67h.94v-1.4h.9v1.4h1.11v.77h-1.11v3.41c0 .46.22.65.62.65h.65v.77h-.66c-1.01 0-1.51-.57-1.51-1.42v-3.41h-.94zm4.014 0h.94v-1.4h.9v1.4h1.11v.77h-1.11v3.41c0 .46.22.65.62.65h.65v.77h-.66c-1.01 0-1.51-.57-1.51-1.42v-3.41h-.94zm6.581 5.76c-1.73 0-2.86-1.22-2.86-2.95 0-1.74 1.13-2.97 2.86-2.97 1.52 0 2.74 1.2 2.56 3.27h-4.47c.1 1.07.76 1.82 1.91 1.82.9 0 1.39-.48 1.59-1.1h.96c-.28 1.15-1.19 1.93-2.55 1.93zm0-5.09c-1.09 0-1.73.67-1.89 1.65h3.57c-.1-.96-.7-1.65-1.68-1.65zm4.578 1.89v3.04h-.9v-5.6h.9v.97c.22-.58.75-1.13 1.92-1.13v.93c-1.19 0-1.92.46-1.92 1.79zm3.269 3.04v-4.83h-.64v-.77h.64v-.63c0-.7.42-1.27 1.43-1.27h1.04v.77h-1.03c-.36 0-.54.17-.54.5v.63h1.38v.77h-1.38v4.83zm5.767.16c-1.73 0-2.86-1.22-2.86-2.95 0-1.74 1.13-2.97 2.86-2.97s2.86 1.23 2.86 2.97c0 1.73-1.13 2.95-2.86 2.95zm0-.83c1.16 0 1.92-.82 1.92-2.12 0-1.32-.76-2.14-1.92-2.14s-1.93.82-1.93 2.14c0 1.3.77 2.12 1.93 2.12zm4.871-2.37v3.04h-.9v-5.6h.9v.97c.22-.58.75-1.13 1.92-1.13v.93c-1.19 0-1.92.46-1.92 1.79zm3.789.22v2.82h-.9v-5.6h.9v.93c.23-.56.73-1.09 1.66-1.09.81 0 1.4.35 1.63 1.27.21-.62.75-1.27 1.78-1.27 1.05 0 1.74.6 1.74 2.31v3.45h-.9v-3.32c0-1.04-.17-1.65-1.06-1.65-.8 0-1.44.82-1.44 2.15v2.82h-.91v-3.32c0-1.04-.17-1.65-1.05-1.65-.8 0-1.45.82-1.45 2.15zm8.783 1.05c.06.75.7 1.16 1.52 1.16.8 0 1.33-.31 1.33-.96 0-1.3-3.66-.23-3.66-2.47 0-.9.88-1.72 2.25-1.72 1.21 0 2.22.78 2.22 1.92h-.83c-.05-.76-.66-1.15-1.43-1.15-.87 0-1.32.4-1.32.95 0 1.42 3.67.26 3.67 2.47 0 1.06-.87 1.73-2.28 1.73-1.32 0-2.31-.83-2.35-1.93zm6.971-3.83h.94v-1.4h.9v1.4h1.11v.77h-1.11v3.41c0 .46.22.65.62.65h.65v.77h-.66c-1.01 0-1.51-.57-1.51-1.42v-3.41h-.94zm6.582 5.76c-1.73 0-2.86-1.22-2.86-2.95 0-1.74 1.13-2.97 2.86-2.97s2.86 1.23 2.86 2.97c0 1.73-1.13 2.95-2.86 2.95zm0-.83c1.16 0 1.92-.82 1.92-2.12 0-1.32-.76-2.14-1.92-2.14s-1.93.82-1.93 2.14c0 1.3.77 2.12 1.93 2.12zm6.601.83c-1.73 0-2.86-1.22-2.86-2.95 0-1.74 1.13-2.97 2.86-2.97s2.86 1.23 2.86 2.97c0 1.73-1.13 2.95-2.86 2.95zm0-.83c1.16 0 1.92-.82 1.92-2.12 0-1.32-.76-2.14-1.92-2.14s-1.93.82-1.93 2.14c0 1.3.77 2.12 1.93 2.12zm7.235-2.15v2.82h-.9v-5.6h.9v.93c.23-.56.73-1.09 1.66-1.09.81 0 1.4.35 1.63 1.27.21-.62.75-1.27 1.78-1.27 1.05 0 1.74.6 1.74 2.31v3.45h-.9v-3.32c0-1.04-.17-1.65-1.06-1.65-.8 0-1.44.82-1.44 2.15v2.82h-.91v-3.32c0-1.04-.17-1.65-1.05-1.65-.8 0-1.45.82-1.45 2.15zm11.854.03v-2.81h.9v5.6h-.9v-.96c-.25.57-.81 1.12-1.88 1.12-1.08 0-1.9-.6-1.9-2.31v-3.45h.9v3.32c0 1.03.3 1.65 1.21 1.65.9 0 1.67-.83 1.67-2.16zm7.496.44c-.08 1.45-1.05 2.51-2.63 2.51-1.73 0-2.86-1.22-2.86-2.95 0-1.74 1.13-2.97 2.86-2.97 1.52 0 2.53 1.13 2.61 2.36h-.95c-.07-.76-.57-1.53-1.66-1.53-1.26 0-1.93.9-1.93 2.14 0 1.23.67 2.11 1.93 2.11 1.17 0 1.63-.81 1.7-1.67zm2.007-.47v2.82h-.9v-7.5h.9v2.86c.25-.57.81-1.12 1.89-1.12s1.89.6 1.89 2.31v3.45h-.9v-3.32c0-1.04-.3-1.65-1.21-1.65-.9 0-1.67.82-1.67 2.15z" fill="#201c1d"/><path d="m577.29 178.016c.878 12.044 11.04 19.069 24.338 19.069 13.173 0 22.08-5.645 22.08-14.803 0-21.704-57.959-5.018-57.959-40.271 0-14.301 13.549-25.843 34.625-25.843 18.943 0 33.997 12.294 33.997 29.858h-12.545c-.753-12.044-7.527-18.944-22.08-18.944-14.552 0-21.954 5.897-21.954 14.929 0 23.209 57.959 5.269 57.959 40.271 0 16.434-13.047 25.717-34.876 25.717-20.448 0-35.503-12.921-36.13-29.983zm66.067-42.277h11.792v-17.564h11.291v17.564h13.925v9.66h-13.925v42.779c0 5.771 2.76 8.154 7.778 8.154h8.155v9.66h-8.28c-12.671 0-18.944-7.151-18.944-17.814v-42.779h-11.792zm75.112-2.008c18.818 0 28.478 12.42 28.478 32.116v40.145h-11.417v-10.161c-3.763 7.527-10.412 12.168-21.201 12.168-13.8 0-24.589-7.903-24.589-21.954 0-22.079 24.463-24.714 45.665-23.334-.753-11.667-5.896-18.692-16.936-18.692-11.793 0-18.065 7.276-18.065 16.434h-12.044c0-13.8 10.538-26.722 30.109-26.722zm-16.811 51.687c0 8.405 5.269 12.796 15.305 12.796 11.542 0 18.567-8.531 18.567-19.947v-7.025c-22.581-1.757-33.872 4.642-33.872 14.176zm123.786-8.907c-1.004 18.19-13.173 31.488-32.994 31.488-21.704 0-35.88-15.305-35.88-37.008 0-21.829 14.176-37.26 35.88-37.26 19.068 0 31.739 14.177 32.743 29.607h-11.918c-.878-9.534-7.151-19.194-20.825-19.194-15.807 0-24.213 11.291-24.213 26.847 0 15.431 8.406 26.47 24.213 26.47 14.678 0 20.448-10.161 21.327-20.95zm62.904-40.772-23.334 27.725 26.847 42.528h-13.298l-20.95-33.872-10.664 12.671v21.201h-11.291v-94.089h11.291v56.453l27.474-32.617z" fill="#201c1d"/><g clip-path="url(#b)"><path d="m759.232 135.483c17.628 20.412 35.028 41.081 52.819 61.376.233.267.173.422.086.722-.113.39-4.023 5.713-4.664 6.64-3.197 4.63-6.576 9.154-9.938 13.665l-14.186-16.147c-.379-.096-.765 1.874-.868 2.231-.618 2.13-.971 4.325-1.509 6.462-1.324 5.255-2.624 10.541-4.272 15.708l-47.903-1.215v22.568l-109.734 45.964v-23.603l107.245-45.037.107-.307-52.692-1.448 6.418-24.638 102.073 2.691.412-.307-52.794-60.978 15.114-20.704c4.716 5.487 9.558 10.881 14.286 16.356z" fill="#9d9cff"/><path d="m673.724 223.061 52.692 1.449-.107.307-107.245 45.036-39.959-18.841 80.747-34.162c4.568 2.094 9.298 4.051 13.872 6.211z" fill="#6e1527"/><path d="m619.065 269.854v23.603l-40.063-18.841.103-23.603z" fill="#ff5e00"/><path d="m740.392 182.069h2.079l39.744 19.048-102.073-2.691-39.752-18.841c.884-.383 2.613-.227 3.631-.215 32.114.384 64.245 2.478 96.371 2.699z" fill="#6e1527"/><path d="m640.389 179.587 39.752 18.841-6.418 24.638c-4.574-2.16-9.305-4.118-13.872-6.212-8.799-4.033-17.394-8.58-26.278-12.445l6.4-24.678c.071-.242.326-.106.416-.144z" fill="#ff5e00"/><path d="m797.534 217.889-16.563-7.454c.538-2.138.891-4.333 1.509-6.462.103-.357.489-2.328.868-2.232z" fill="#f39fff"/><path d="m729.829 139.832 52.794 60.977-.412.308-39.188-18.68-2.634-.368 2.069-.103-52.588-60.768z" fill="#f39fff"/><path d="m744.943 119.129-15.114 20.704-39.959-18.634 15.006-20.932z" fill="#ff5e00"/><path d="m780.347 97.5885 37.475 111.1825-10.352-4.555c.641-.927 4.551-6.25 4.664-6.64.087-.3.147-.455-.087-.722-17.79-20.295-35.19-40.964-52.818-61.376l-18.841-56.7304z" fill="#f39fff"/><path d="m786.766 76.4747c3.804 1.8666 7.576 3.9302 11.387 5.7972l-17.806 15.3213-39.959-18.841 17.925-15.5251c9.447 4.47 19.073 8.6458 28.453 13.2477z" fill="#ff5e00"/><path d="m843.499 61.5699c.443.608.711 5.0014.825 6.1109 4.173 40.4402 6.559 81.0942 10.765 121.5342l-.098 1.757c-.232.505-1.758.905-2.243 1.233-.196.132-.12.411-.139.424-4.947 3.191-11.001 5.741-16.149 8.695l-.83-7.866c-1.725 1.205-3.406 2.628-4.968 4.034-.412.371-.751 1.073-.828 1.141-3.901 3.475-7.987 6.807-12.008 10.145l-37.475-111.1826 17.806-15.3212 37.265 109.7318-10.557-120.084 18.634-10.3522z" fill="#9d9cff"/><path d="m824.864 71.921 10.557 120.084-37.266-109.7318c-3.81-1.867-7.582-3.9306-11.387-5.7972l-1.863-23.3959z" fill="#f39fff"/><path d="m815.754 48.1123c.664.317 1.581 1.0245 2.411 1.4196 8.44 4.0195 16.992 7.8185 25.333 12.0382l-18.634 10.3522-39.959-18.8409 18.768-10.514c4.045 1.7964 8.088 3.6394 12.081 5.5449z" fill="#ff5e00"/><path d="m856.129 193.871-.207-134.9926 19.048-7.8677v134.6823c-.036.475-.442.513-.751.698-1.908 1.141-16.231 7.176-18.09 7.48z" fill="#9d9cff"/><path d="m855.923 58.8795.207 134.9925c-1.336.218-2.191-.975-3.52-1.242.019-.012-.057-.292.139-.424.485-.327 2.011-.728 2.243-1.232l.098-1.757c-4.206-40.441-6.591-81.095-10.765-121.5351-.114-1.1095-.382-5.5029-.825-6.1109-8.34-4.2196-16.893-8.0187-25.333-12.0382-.83-.3951-1.746-1.1026-2.411-1.4196l.208-8.0746z" fill="#f39fff"/><path d="m874.969 51.0121-19.048 7.8677-39.959-18.841 19.101-8.0388z" fill="#ff5e00"/><path d="m829.832 198.635c.076-.068.416-.77.827-1.14 1.563-1.406 3.243-2.83 4.969-4.035l.829 7.867-.401.126z" fill="#f39fff"/></g><path d="m0 0h478v345h-478z" fill="#e5e5e5"/><path d="m0 0h15.4643v17.5332h-15.4643z" fill="#ff1e1e"/><path d="m5.96485 12.7666h-1.08l2.3-3.52-2.27-3.48h1.08l1.73 2.65 1.74-2.65h1.07995l-2.27995 3.48 2.30995 3.52h-1.07995l-1.77-2.7z" fill="#fff"/><path d="m0 0h137.464v17.5332h-137.464z" fill="#eee" transform="translate(15.4648)"/><path d="m22.417 5.7666h1.23l2.41 7h-.99l-.56-1.7h-2.9l-.54 1.7h-.98zm-.55 4.49h2.38l-1.21-3.65zm4.1766-3.09h.98l1.51 4.85 1.52-4.85h.98l-1.85 5.6h-1.29zm8.3792 5.76c-1.73 0-2.86-1.22-2.86-2.95 0-1.74 1.13-2.97 2.86-2.97s2.86 1.23 2.86 2.97c0 1.73-1.13 2.95-2.86 2.95zm0-.83c1.16 0 1.92-.82 1.92-2.12 0-1.32-.76-2.14-1.92-2.14s-1.93.82-1.93 2.14c0 1.3.77 2.12 1.93 2.12zm3.9325-6.83h1.05v1.08h-1.05zm.07 1.9h.91v5.6h-.91zm4.5833 5.76c-1.52 0-2.52-1.22-2.52-2.95 0-1.74 1-2.97 2.52-2.97.91 0 1.54.44 1.9 1.14v-2.88h.9v7.5h-.9v-.96c-.34.67-.96 1.12-1.9 1.12zm.1-.83c1.2 0 1.8-.89 1.8-2.12 0-1.24-.6-2.14-1.8-2.14-1.02 0-1.69.82-1.69 2.14 0 1.3.67 2.12 1.69 2.12zm10.1586-2.12v-2.81h.9v5.6h-.9v-.96c-.25.57-.81 1.12-1.88 1.12-1.08 0-1.9-.6-1.9-2.31v-3.45h.9v3.32c0 1.03.3 1.65 1.21 1.65.9 0 1.67-.83 1.67-2.16zm2.9353 1.02c.06.75.7 1.16 1.52 1.16.8 0 1.33-.31 1.33-.96 0-1.3-3.66-.23-3.66-2.47 0-.9.88-1.72 2.25-1.72 1.21 0 2.22.78 2.22 1.92h-.83c-.05-.76-.66-1.15-1.43-1.15-.87 0-1.32.4-1.32.95 0 1.42 3.67.26 3.67 2.47 0 1.06-.87 1.73-2.28 1.73-1.32 0-2.31-.83-2.35-1.93zm4.8676-5.73h1.05v1.08h-1.05zm.07 1.9h.91v5.6h-.91zm2.3026 0h.9v.95c.25-.57.81-1.11 1.89-1.11s1.89.6 1.89 2.31v3.45h-.9v-3.32c0-1.04-.3-1.65-1.21-1.65-.9 0-1.67.82-1.67 2.15v2.82h-.9zm8.3061 5.56c-1.52 0-2.52-1.12-2.52-2.85 0-1.74 1-2.87 2.52-2.87.91 0 1.54.38 1.9 1.06v-.9h.9v5.3c0 1.58-.98 2.46-2.43 2.46-1.78 0-2.44-.97-2.6-1.92h.94c.13.72.7 1.09 1.66 1.09.98 0 1.53-.51 1.53-1.63v-.77c-.35.63-.96 1.03-1.9 1.03zm.1-.83c1.2 0 1.8-.79 1.8-2.02 0-1.24-.6-2.04-1.8-2.04-1.02 0-1.69.72-1.69 2.04 0 1.3.67 2.02 1.69 2.02zm6.3991-6.63h.9v7.5h-.9zm4.8663 7.66c-1.73 0-2.86-1.22-2.86-2.95 0-1.74 1.13-2.97 2.86-2.97s2.86 1.23 2.86 2.97c0 1.73-1.13 2.95-2.86 2.95zm0-.83c1.16 0 1.92-.82 1.92-2.12 0-1.32-.76-2.14-1.92-2.14s-1.93.82-1.93 2.14c0 1.3.77 2.12 1.93 2.12zm3.9515-4.93h.9v.95c.25-.57.81-1.11 1.89-1.11s1.89.6 1.89 2.31v3.45h-.9v-3.32c0-1.04-.3-1.65-1.21-1.65-.9 0-1.67.82-1.67 2.15v2.82h-.9zm8.3061 5.56c-1.52 0-2.52-1.12-2.52-2.85 0-1.74 1-2.87 2.52-2.87.91 0 1.54.38 1.9 1.06v-.9h.9v5.3c0 1.58-.98 2.46-2.43 2.46-1.78 0-2.44-.97-2.6-1.92h.94c.13.72.7 1.09 1.66 1.09.98 0 1.53-.51 1.53-1.63v-.77c-.35.63-.96 1.03-1.9 1.03zm.1-.83c1.2 0 1.8-.79 1.8-2.02 0-1.24-.6-2.04-1.8-2.04-1.02 0-1.69.72-1.69 2.04 0 1.3.67 2.02 1.69 2.02zm7.2992-1.95v2.82h-.9v-7.5h.9v2.86c.25-.57.81-1.12 1.89-1.12s1.89.6 1.89 2.31v3.45h-.9v-3.32c0-1.04-.3-1.65-1.21-1.65-.9 0-1.67.82-1.67 2.15zm7.706 2.98c-1.73 0-2.86-1.22-2.86-2.95 0-1.74 1.13-2.97 2.86-2.97 1.52 0 2.74 1.2 2.56 3.27h-4.47c.1 1.07.76 1.82 1.91 1.82.9 0 1.39-.48 1.59-1.1h.96c-.28 1.15-1.19 1.93-2.55 1.93zm0-5.09c-1.09 0-1.73.67-1.89 1.65h3.57c-.1-.96-.7-1.65-1.68-1.65zm5.949-.83c1.5 0 2.27.99 2.27 2.56v3.2h-.91v-.81c-.3.6-.83.97-1.69.97-1.1 0-1.96-.63-1.96-1.75 0-1.76 1.95-1.97 3.64-1.86-.06-.93-.47-1.49-1.35-1.49-.94 0-1.44.58-1.44 1.31h-.96c0-1.1.84-2.13 2.4-2.13zm-1.34 4.12c0 .67.42 1.02 1.22 1.02.92 0 1.48-.68 1.48-1.59v-.56c-1.8-.14-2.7.37-2.7 1.13zm7.2 1.8c-1.52 0-2.52-1.22-2.52-2.95 0-1.74 1-2.97 2.52-2.97.91 0 1.54.44 1.9 1.14v-2.88h.9v7.5h-.9v-.96c-.34.67-.96 1.12-1.9 1.12zm.1-.83c1.2 0 1.8-.89 1.8-2.12 0-1.24-.6-2.14-1.8-2.14-1.02 0-1.69.82-1.69 2.14 0 1.3.67 2.12 1.69 2.12zm4.036-6.83h.9v7.5h-.9zm2.236 0h1.05v1.08h-1.05zm.07 1.9h.91v5.6h-.91zm2.303 0h.9v.95c.25-.57.81-1.11 1.89-1.11s1.89.6 1.89 2.31v3.45h-.9v-3.32c0-1.04-.3-1.65-1.21-1.65-.9 0-1.67.82-1.67 2.15v2.82h-.9zm8.607 5.76c-1.73 0-2.86-1.22-2.86-2.95 0-1.74 1.13-2.97 2.86-2.97 1.52 0 2.74 1.2 2.56 3.27h-4.47c.1 1.07.76 1.82 1.91 1.82.9 0 1.39-.48 1.59-1.1h.96c-.28 1.15-1.19 1.93-2.55 1.93zm0-5.09c-1.09 0-1.73.67-1.89 1.65h3.57c-.1-.96-.7-1.65-1.68-1.65zm4.416 3.16c.06.75.7 1.16 1.52 1.16.8 0 1.33-.31 1.33-.96 0-1.3-3.66-.23-3.66-2.47 0-.9.88-1.72 2.25-1.72 1.21 0 2.22.78 2.22 1.92h-.83c-.05-.76-.66-1.15-1.43-1.15-.87 0-1.32.4-1.32.95 0 1.42 3.67.26 3.67 2.47 0 1.06-.87 1.73-2.28 1.73-1.32 0-2.31-.83-2.35-1.93z" fill="#201c1d"/><path d="m239.007 288.747-175.6945-70.982v-90.529l175.6945 70.983z" fill="#9d9cff"/><path d="m239.008 288.747 175.683-70.982v-90.529l-175.683 70.983z" fill="#998b7a"/><path d="m63.3125 127.238 175.6945 70.983 175.683-70.983-175.683-70.9821z" fill="#ff5e00"/><path d="m72.132 143.191 12.9811 5.244v2.116l-5.3765-2.172v16.169l-2.2281-.901v-16.168l-5.3765-2.172zm17.2432 17.885v7.366l-2.1797-.881v-19.59l2.1797.88v7.471c.6054-1.244 1.9617-2.133 4.5772-1.076 2.6156 1.057 4.5773 3.416 4.5773 7.883v9.011l-2.1796-.88v-8.672c0-2.717-.7266-4.604-2.9305-5.494-2.1796-.881-4.0444.508-4.0444 3.982zm18.1968 15.136c-4.19-1.693-6.927-5.986-6.927-10.504 0-4.545 2.737-6.652 6.927-4.96 3.681 1.488 6.636 5.816 6.2 11.047l-10.826-4.374c.242 2.893 1.841 5.497 4.626 6.623 2.18.88 3.366.106 3.851-1.318l2.325.94c-.679 2.729-2.882 3.876-6.176 2.546zm0-13.296c-2.64-1.066-4.19.058-4.577 2.461l8.646 3.493c-.243-2.605-1.696-4.995-4.069-5.954zm13.698 18.412v-19.59l2.179.88v7.497c.872-1.476 2.398-1.983 4.602-1.093 3.681 1.488 6.103 5.679 6.103 10.224 0 4.519-2.422 6.727-6.103 5.24-2.277-.92-3.754-2.64-4.602-4.733v2.456zm6.539.892c2.47.998 4.093-.488 4.093-3.884 0-3.448-1.623-6.245-4.093-7.243-2.882-1.165-4.36.589-4.36 3.828 0 3.213 1.478 6.134 4.36 7.299zm10.734-1.854v7.941l-2.18-.881v-14.627l2.18.88v2.534c.533-1.3 1.816-2.218 4.65-1.073v2.429c-2.882-1.164-4.65-.677-4.65 2.797zm11.626-2.407c3.633 1.468 5.498 4.807 5.498 8.908v8.358l-2.204-.89v-2.116c-.727 1.274-2.01 1.722-4.093.88-2.664-1.076-4.747-3.563-4.747-6.489 0-4.597 4.723-3.237 8.816-1.296-.146-2.488-1.139-4.352-3.27-5.213-2.276-.92-3.487.106-3.487 2.012l-2.325-.939c0-2.873 2.034-4.742 5.812-3.215zm-3.245 9.45c0 1.75 1.017 3.075 2.955 3.858 2.228.9 3.584-.328 3.584-2.705v-1.462c-4.359-2.127-6.539-1.676-6.539.309zm11.282-10.748 2.543 1.027v2.821l-2.543-1.027zm.169 5.031 2.204.891v14.627l-2.204-.89zm5.086 2.055 2.179.88v2.482c.606-1.244 1.962-2.107 4.578-1.05 2.615 1.057 4.577 3.416 4.577 7.883v9.012l-2.18-.881v-8.672c0-2.717-.726-4.603-2.93-5.494-2.18-.881-4.045.508-4.045 3.982v7.366l-2.179-.881zm-90.6509 5.226v-19.851l2.1797.88v2.56c.8719-1.476 2.3976-2.009 4.6015-1.119 3.6812 1.488 6.103 5.679 6.103 10.224 0 4.519-2.4218 6.727-6.103 5.24-2.2765-.92-3.7781-2.702-4.6015-4.785v7.732zm6.539-4.332c2.4703.998 4.0929-.488 4.0929-3.884 0-3.448-1.6226-6.245-4.0929-7.243-2.882-1.165-4.3593.589-4.3593 3.828 0 3.213 1.4773 6.134 4.3593 7.299zm14.9254 8.198c-4.1898-1.693-6.9265-5.985-6.9265-10.504 0-4.545 2.7367-6.652 6.9265-4.959s6.9265 6.011 6.9265 10.556c0 4.519-2.7367 6.6-6.9265 4.907zm0-2.168c2.8093 1.135 4.6499-.263 4.6499-3.659 0-3.448-1.8406-6.333-4.6499-7.468-2.8094-1.135-4.6742.253-4.6742 3.701 0 3.396 1.8648 6.291 4.6742 7.426zm7.9515-9.665 2.349.95 2.471 12.909 2.615-10.855 2.446.989 2.592 12.958 2.47-10.913 2.373.959-3.511 13.208-2.761-1.115-2.398-11.94-2.398 10.002-2.736-1.105zm25.266 25.254c-4.19-1.693-6.927-5.985-6.927-10.504 0-4.545 2.737-6.652 6.927-4.96 3.681 1.488 6.635 5.816 6.199 11.047l-10.825-4.374c.242 2.893 1.84 5.497 4.626 6.623 2.179.88 3.366.106 3.85-1.318l2.325.94c-.678 2.729-2.882 3.876-6.175 2.546zm0-13.296c-2.64-1.066-4.19.058-4.578 2.461l8.646 3.493c-.242-2.605-1.695-4.995-4.068-5.954zm10.596 9.218v7.941l-2.18-.881v-14.627l2.18.881v2.533c.533-1.299 1.816-2.217 4.65-1.073v2.43c-2.882-1.165-4.65-.678-4.65 2.796zm12 12.789v-19.59l2.179.881v7.496c.872-1.476 2.398-1.983 4.602-1.092 3.681 1.487 6.103 5.678 6.103 10.223 0 4.519-2.422 6.727-6.103 5.24-2.277-.92-3.754-2.64-4.602-4.732v2.455zm6.539.892c2.47.998 4.093-.488 4.093-3.884 0-3.448-1.623-6.245-4.093-7.243-2.882-1.165-4.36.589-4.36 3.828 0 3.213 1.478 6.135 4.36 7.299zm14.925 8.198c-4.19-1.692-6.926-5.985-6.926-10.504 0-4.545 2.736-6.652 6.926-4.959 3.681 1.487 6.636 5.816 6.2 11.046l-10.826-4.374c.243 2.893 1.841 5.498 4.626 6.623 2.18.881 3.366.107 3.851-1.317l2.325.939c-.678 2.73-2.882 3.877-6.176 2.546zm0-13.295c-2.64-1.067-4.19.057-4.577 2.461l8.646 3.493c-.242-2.606-1.696-4.995-4.069-5.954zm10.621 9.803v7.366l-2.179-.881v-19.59l2.179.88v7.471c.606-1.244 1.962-2.133 4.578-1.076 2.615 1.056 4.577 3.416 4.577 7.883v9.011l-2.18-.88v-8.672c0-2.717-.726-4.604-2.93-5.494-2.18-.881-4.045.508-4.045 3.982zm11.709-7.494 2.543 1.028v2.821l-2.543-1.028zm.17 5.031 2.204.891v14.627l-2.204-.89zm5.085 2.055 2.18.881v2.481c.606-1.244 1.962-2.107 4.577-1.05 2.616 1.057 4.578 3.417 4.578 7.883v9.012l-2.18-.881v-8.672c0-2.716-.727-4.603-2.93-5.494-2.18-.88-4.045.508-4.045 3.982v7.366l-2.18-.88zm19.602 22.965c-3.681-1.487-6.103-5.652-6.103-10.171 0-4.545 2.422-6.78 6.103-5.292 2.204.89 3.729 2.656 4.601 4.837v-7.523l2.18.881v19.59l-2.18-.881v-2.507c-.823 1.417-2.325 1.986-4.601 1.066zm.242-2.07c2.906 1.174 4.359-.564 4.359-3.776 0-3.239-1.453-6.177-4.359-7.351-2.47-.999-4.093.488-4.093 3.936 0 3.395 1.623 6.193 4.093 7.191zm-146.1709-30.083v-19.851l2.1797.88v2.56c.8719-1.476 2.3976-2.009 4.6015-1.119 3.6812 1.488 6.103 5.679 6.103 10.224 0 4.519-2.4218 6.727-6.103 5.24-2.2765-.92-3.7781-2.702-4.6015-4.785v7.732zm6.539-4.332c2.4703.998 4.0929-.488 4.0929-3.884 0-3.448-1.6226-6.245-4.0929-7.243-2.882-1.165-4.3593.589-4.3593 3.828 0 3.213 1.4773 6.134 4.3593 7.299zm10.7345-1.854v7.941l-2.1797-.881v-14.627l2.1797.881v2.533c.5328-1.3 1.8163-2.218 4.6499-1.073v2.429c-2.882-1.164-4.6499-.677-4.6499 2.797zm12.1904 13.284c-4.1897-1.693-6.9263-5.985-6.9263-10.504 0-4.545 2.7366-6.652 6.9263-4.959 4.19 1.693 6.927 6.011 6.927 10.556 0 4.519-2.737 6.6-6.927 4.907zm0-2.168c2.809 1.135 4.65-.263 4.65-3.659 0-3.448-1.841-6.333-4.65-7.468-2.8092-1.135-4.674.253-4.674 3.701 0 3.396 1.8648 6.291 4.674 7.426zm14.674 7.574c-3.682-1.487-6.103-5.391-6.103-9.91 0-4.545 2.421-6.518 6.103-5.031 2.204.891 3.729 2.5 4.601 4.628v-2.351l2.18.881v13.844c0 4.127-2.374 5.467-5.885 4.048-4.311-1.742-5.91-4.921-6.297-7.559l2.276.919c.315 2.008 1.696 3.532 4.021 4.472 2.373.959 3.705.165 3.705-2.761v-2.011c-.847 1.303-2.325 1.751-4.601.831zm.242-2.07c2.906 1.174 4.359-.302 4.359-3.515 0-3.239-1.453-5.916-4.359-7.09-2.47-.998-4.093.227-4.093 3.675 0 3.396 1.623 5.932 4.093 6.93zm11.438-1.047v7.941l-2.18-.881v-14.627l2.18.88v2.534c.533-1.3 1.816-2.218 4.65-1.073v2.429c-2.882-1.164-4.65-.677-4.65 2.797zm12.19 13.284c-4.189-1.693-6.926-5.985-6.926-10.504 0-4.545 2.737-6.652 6.926-4.959 3.682 1.487 6.636 5.815 6.2 11.046l-10.825-4.374c.242 2.893 1.84 5.498 4.625 6.623 2.18.881 3.367.106 3.851-1.317l2.325.939c-.678 2.73-2.882 3.877-6.176 2.546zm0-13.295c-2.639-1.067-4.189.057-4.577 2.46l8.646 3.493c-.242-2.605-1.695-4.994-4.069-5.953zm10.205 12.377c.146 2.018 1.696 3.715 3.682 4.517 1.937.783 3.221.492 3.221-1.206 0-3.396-8.864-4.182-8.864-10.033 0-2.351 2.131-3.632 5.449-2.291 2.93 1.184 5.376 4.21 5.376 7.187l-2.01-.812c-.121-2.034-1.598-3.65-3.463-4.403-2.107-.851-3.197-.247-3.197 1.19 0 3.709 8.888 4.27 8.888 10.043 0 2.768-2.107 3.667-5.522 2.288-3.196-1.292-5.594-4.429-5.691-7.341zm12.872 5.2c.145 2.018 1.695 3.715 3.681 4.518 1.938.782 3.221.491 3.221-1.206 0-3.396-8.864-4.183-8.864-10.033 0-2.351 2.132-3.632 5.45-2.292 2.93 1.184 5.376 4.21 5.376 7.188l-2.01-.812c-.121-2.034-1.599-3.65-3.463-4.403-2.107-.852-3.197-.247-3.197 1.189 0 3.709 8.888 4.271 8.888 10.043 0 2.769-2.107 3.668-5.522 2.288-3.197-1.292-5.594-4.428-5.691-7.341zm10.578 6.076 2.543 1.028v2.821l-2.543-1.028z" fill="#201c1d"/></g></svg>