<svg fill="none" height="500" viewBox="0 0 966 500" width="966" xmlns="http://www.w3.org/2000/svg"><path d="m0 0h966v500h-966z" fill="#e5e5e5"/><path d="m766.472 317.977h1.694v.737h-2.794v-9.416h2.794v.737h-1.694zm2.853-8.679h5.247v1.067h-4.037v2.442h3.597v1.067h-3.597v3.124h-1.21zm9.101 7.876c-1.903 0-3.146-1.342-3.146-3.245 0-1.914 1.243-3.267 3.146-3.267s3.146 1.353 3.146 3.267c0 1.903-1.243 3.245-3.146 3.245zm0-1.078c1.199 0 1.925-.869 1.925-2.167 0-1.309-.726-2.189-1.925-2.189-1.21 0-1.925.88-1.925 2.189 0 1.298.715 2.167 1.925 2.167zm4.314-5.258h1.188v1.012c.253-.616.858-1.188 2.024-1.188 1.188 0 2.079.66 2.079 2.541v3.795h-1.188v-3.652c0-1.001-.242-1.65-1.188-1.65-.88 0-1.727.77-1.727 2.233v3.069h-1.188zm6.256 0h.924v-1.54h1.188v1.54h1.133v1.012h-1.133v3.476c0 .451.22.66.649.66h.66v1.012h-.671c-1.221 0-1.826-.627-1.826-1.672v-3.476h-.924zm11.669 6.16-3.179-6.215v6.215h-1.155v-7.7h1.716l3.19 6.215v-6.215h1.155v7.7zm5.779-6.336c1.683 0 2.552 1.089 2.552 2.816v3.52h-1.188v-.836c-.33.627-.913 1.012-1.782 1.012-1.21 0-2.123-.693-2.123-1.925 0-1.925 2.112-2.134 3.894-2.068-.066-.891-.451-1.463-1.353-1.463-.946 0-1.441.583-1.441 1.287h-1.254c0-1.221.957-2.343 2.695-2.343zm-1.309 4.521c0 .616.429.946 1.155.946.858 0 1.518-.561 1.518-1.562v-.55c-1.815-.088-2.673.429-2.673 1.166zm6.422-1.254v3.069h-1.188v-6.16h1.188v1.001c.242-.605.781-1.177 1.804-1.177.847 0 1.485.363 1.76 1.309.253-.649.858-1.309 1.958-1.309 1.144 0 1.914.66 1.914 2.541v3.795h-1.188v-3.652c0-1.001-.132-1.65-1.023-1.65-.77 0-1.507.77-1.507 2.233v3.069h-1.188v-3.652c0-1.001-.132-1.65-1.023-1.65-.77 0-1.507.77-1.507 2.233zm11.728 3.245c-1.903 0-3.146-1.342-3.146-3.245 0-1.914 1.243-3.267 3.146-3.267 1.672 0 3.058 1.331 2.805 3.652h-4.708c.121 1.045.737 1.782 1.903 1.782.858 0 1.353-.462 1.551-1.056h1.254c-.286 1.265-1.309 2.134-2.805 2.134zm0-5.434c-1.078 0-1.694.638-1.87 1.573h3.509c-.077-.88-.649-1.573-1.639-1.573zm4.584 6.237v-7.942h-1.694v-.737h2.794v9.416h-2.794v-.737zm2.632-8.679h2.662c2.057 0 3.355.616 3.355 2.442 0 1.199-.572 1.881-1.54 2.211l1.485 3.047h-1.375l-1.254-2.827c-.209.011-.44.022-.671.022h-1.452v2.805h-1.21zm2.662 3.839c1.331 0 2.09-.297 2.09-1.397s-.759-1.386-2.09-1.386h-1.452v2.783zm7.449 4.037c-1.903 0-3.146-1.342-3.146-3.245 0-1.914 1.243-3.267 3.146-3.267 1.672 0 3.058 1.331 2.805 3.652h-4.708c.121 1.045.737 1.782 1.903 1.782.858 0 1.353-.462 1.551-1.056h1.254c-.286 1.265-1.309 2.134-2.805 2.134zm0-5.434c-1.078 0-1.694.638-1.87 1.573h3.509c-.077-.88-.649-1.573-1.639-1.573zm6.544 5.214c-1.694 0-2.772-1.232-2.772-3.135 0-1.914 1.078-3.157 2.772-3.157.935 0 1.584.363 1.98 1.034v-.858h1.188v5.83c0 1.738-1.133 2.706-2.728 2.706-1.958 0-2.717-1.067-2.893-2.112h1.232c.143.715.737 1.034 1.661 1.034.935 0 1.54-.473 1.54-1.628v-.715c-.385.627-1.012 1.001-1.98 1.001zm.165-1.078c1.21 0 1.815-.814 1.815-2.057 0-1.254-.605-2.079-1.815-2.079-1.067 0-1.716.77-1.716 2.079 0 1.298.649 2.057 1.716 2.057zm8.508-1.969v-3.069h1.188v6.16h-1.188v-1.023c-.264.616-.858 1.199-2.035 1.199-1.188 0-2.068-.66-2.068-2.541v-3.795h1.177v3.652c0 1.001.253 1.65 1.199 1.65.88 0 1.727-.77 1.727-2.233zm2.612-5.159h1.188v8.25h-1.188zm5.216 1.914c1.683 0 2.552 1.089 2.552 2.816v3.52h-1.188v-.836c-.33.627-.913 1.012-1.782 1.012-1.21 0-2.123-.693-2.123-1.925 0-1.925 2.112-2.134 3.894-2.068-.066-.891-.451-1.463-1.353-1.463-.946 0-1.441.583-1.441 1.287h-1.254c0-1.221.957-2.343 2.695-2.343zm-1.309 4.521c0 .616.429.946 1.155.946.858 0 1.518-.561 1.518-1.562v-.55c-1.815-.088-2.673.429-2.673 1.166zm6.422-1.419v3.234h-1.188v-6.16h1.188v1.034c.231-.627.792-1.21 2.057-1.21v1.188c-1.309 0-2.057.451-2.057 1.914zm-103.398 8.534h1.21v6.644h3.421v1.056h-4.631zm5.617-.55h1.331v1.353h-1.331zm.066 2.09h1.188v6.16h-1.188zm2.683 0h1.188v1.012c.253-.616.858-1.188 2.024-1.188 1.188 0 2.079.66 2.079 2.541v3.795h-1.188v-3.652c0-1.001-.242-1.65-1.188-1.65-.88 0-1.727.77-1.727 2.233v3.069h-1.188zm9.586 6.336c-1.903 0-3.146-1.342-3.146-3.245 0-1.914 1.243-3.267 3.146-3.267 1.672 0 3.058 1.331 2.805 3.652h-4.708c.121 1.045.737 1.782 1.903 1.782.858 0 1.353-.462 1.551-1.056h1.254c-.286 1.265-1.309 2.134-2.805 2.134zm0-5.434c-1.078 0-1.694.638-1.87 1.573h3.509c-.077-.88-.649-1.573-1.639-1.573zm7.802 2.189v3.069h-1.188v-8.25h1.188v3.113c.253-.616.847-1.199 2.024-1.199 1.188 0 2.079.66 2.079 2.541v3.795h-1.188v-3.652c0-1.001-.242-1.65-1.188-1.65-.88 0-1.727.77-1.727 2.233zm8.397 3.245c-1.903 0-3.146-1.342-3.146-3.245 0-1.914 1.243-3.267 3.146-3.267 1.672 0 3.058 1.331 2.805 3.652h-4.708c.121 1.045.737 1.782 1.903 1.782.858 0 1.353-.462 1.551-1.056h1.254c-.286 1.265-1.309 2.134-2.805 2.134zm0-5.434c-1.078 0-1.694.638-1.87 1.573h3.509c-.077-.88-.649-1.573-1.639-1.573zm4.004-2.992h1.331v1.353h-1.331zm.066 2.09h1.188v6.16h-1.188zm5.192 6.116c-1.694 0-2.772-1.232-2.772-3.135 0-1.914 1.078-3.157 2.772-3.157.935 0 1.584.363 1.98 1.034v-.858h1.188v5.83c0 1.738-1.133 2.706-2.728 2.706-1.958 0-2.717-1.067-2.893-2.112h1.232c.143.715.737 1.034 1.661 1.034.935 0 1.54-.473 1.54-1.628v-.715c-.385.627-1.012 1.001-1.98 1.001zm.165-1.078c1.21 0 1.815-.814 1.815-2.057 0-1.254-.605-2.079-1.815-2.079-1.067 0-1.716.77-1.716 2.079 0 1.298.649 2.057 1.716 2.057zm5.615-1.947v3.069h-1.188v-8.25h1.188v3.113c.253-.616.847-1.199 2.024-1.199 1.188 0 2.079.66 2.079 2.541v3.795h-1.188v-3.652c0-1.001-.242-1.65-1.188-1.65-.88 0-1.727.77-1.727 2.233zm5.068-3.091h.924v-1.54h1.188v1.54h1.133v1.012h-1.133v3.476c0 .451.22.66.649.66h.66v1.012h-.671c-1.221 0-1.826-.627-1.826-1.672v-3.476h-.924zm6.982 5.104h1.848v-5.588h-1.848v-1.056h3.058v6.644h1.848v1.056h-4.906zm9.081 1.232c-2.233 0-3.256-1.804-3.256-4.037 0-2.211 1.023-4.015 3.256-4.015 2.222 0 3.245 1.804 3.245 4.015 0 2.233-1.023 4.037-3.245 4.037zm0-1.122c1.331 0 1.98-1.32 1.98-2.915 0-1.573-.649-2.893-1.98-2.893-1.342 0-2.002 1.32-2.002 2.893 0 1.595.66 2.915 2.002 2.915zm4.319-2.211.825-4.543h4.345v1.056h-3.344l-.396 2.068c.407-.341.935-.594 1.606-.594 1.859 0 2.816 1.122 2.816 2.673 0 1.507-1.067 2.673-2.937 2.673-1.606 0-2.97-1.067-2.97-2.618h1.232c.066.836.649 1.496 1.793 1.496 1.078 0 1.617-.726 1.617-1.584 0-.935-.561-1.54-1.628-1.54-.814 0-1.452.363-1.727.913zm8.767.11c-1.342 0-1.958-1.078-1.958-2.42 0-1.331.616-2.409 1.958-2.409 1.331 0 1.947 1.078 1.947 2.409 0 1.342-.616 2.42-1.947 2.42zm4.345-4.653h1.298l-4.29 7.7h-1.298zm-4.345 3.608c.55 0 .858-.572.858-1.375 0-.792-.308-1.364-.858-1.364s-.858.572-.858 1.364c0 .803.308 1.375.858 1.375zm5.665 4.268c-1.342 0-1.958-1.078-1.958-2.42 0-1.331.616-2.409 1.958-2.409 1.331 0 1.947 1.078 1.947 2.409 0 1.342-.616 2.42-1.947 2.42zm0-1.045c.55 0 .858-.572.858-1.375 0-.792-.308-1.364-.858-1.364s-.858.572-.858 1.364c0 .803.308 1.375.858 1.375zm-89.119 5.619h1.188v8.25h-1.188zm5.514 8.426c-1.903 0-3.146-1.342-3.146-3.245 0-1.914 1.243-3.267 3.146-3.267 1.672 0 3.058 1.331 2.805 3.652h-4.708c.121 1.045.737 1.782 1.903 1.782.858 0 1.353-.462 1.551-1.056h1.254c-.286 1.265-1.309 2.134-2.805 2.134zm0-5.434c-1.078 0-1.694.638-1.87 1.573h3.509c-.077-.88-.649-1.573-1.639-1.573zm3.556-.902h.924v-1.54h1.188v1.54h1.133v1.012h-1.133v3.476c0 .451.22.66.649.66h.66v1.012h-.671c-1.221 0-1.826-.627-1.826-1.672v-3.476h-.924zm4.404 0h.924v-1.54h1.188v1.54h1.133v1.012h-1.133v3.476c0 .451.22.66.649.66h.66v1.012h-.671c-1.221 0-1.826-.627-1.826-1.672v-3.476h-.924zm7.294 6.336c-1.903 0-3.146-1.342-3.146-3.245 0-1.914 1.243-3.267 3.146-3.267 1.672 0 3.058 1.331 2.805 3.652h-4.708c.121 1.045.737 1.782 1.903 1.782.858 0 1.353-.462 1.551-1.056h1.254c-.286 1.265-1.309 2.134-2.805 2.134zm0-5.434c-1.078 0-1.694.638-1.87 1.573h3.509c-.077-.88-.649-1.573-1.639-1.573zm5.223 2.024v3.234h-1.188v-6.16h1.188v1.034c.231-.627.792-1.21 2.057-1.21v1.188c-1.309 0-2.057.451-2.057 1.914zm6.643 1.287c.066.748.715 1.111 1.507 1.111.77 0 1.298-.286 1.298-.913 0-1.298-3.894-.198-3.894-2.662 0-.99 1.001-1.925 2.508-1.925 1.331 0 2.464.858 2.464 2.112h-1.133c-.055-.748-.638-1.1-1.375-1.1-.847 0-1.287.385-1.287.913 0 1.419 3.894.231 3.894 2.662 0 1.166-.979 1.925-2.53 1.925-1.452 0-2.574-.913-2.618-2.123zm5.243 4.147v-8.36h1.188v.946c.385-.704 1.034-1.122 1.98-1.122 1.694 0 2.772 1.353 2.772 3.267 0 1.903-1.078 3.245-2.772 3.245-.979 0-1.617-.44-1.98-1.111v3.135zm3.003-3.102c1.067 0 1.716-.869 1.716-2.167 0-1.309-.649-2.189-1.716-2.189-1.221 0-1.815.935-1.815 2.189 0 1.243.594 2.167 1.815 2.167zm6.692-5.434c1.683 0 2.552 1.089 2.552 2.816v3.52h-1.188v-.836c-.33.627-.913 1.012-1.782 1.012-1.21 0-2.123-.693-2.123-1.925 0-1.925 2.112-2.134 3.894-2.068-.066-.891-.451-1.463-1.353-1.463-.946 0-1.441.583-1.441 1.287h-1.254c0-1.221.957-2.343 2.695-2.343zm-1.309 4.521c0 .616.429.946 1.155.946.858 0 1.518-.561 1.518-1.562v-.55c-1.815-.088-2.673.429-2.673 1.166zm11.042-.77c-.055 1.595-1.155 2.761-2.893 2.761-1.903 0-3.146-1.342-3.146-3.245 0-1.914 1.243-3.267 3.146-3.267 1.672 0 2.816 1.243 2.871 2.596h-1.254c-.055-.748-.528-1.507-1.617-1.507-1.298 0-1.925.924-1.925 2.178 0 1.243.627 2.156 1.925 2.156 1.155 0 1.606-.803 1.661-1.672zm1.154-5.665h1.331v1.353h-1.331zm.066 2.09h1.188v6.16h-1.188zm2.683 0h1.188v1.012c.253-.616.858-1.188 2.024-1.188 1.188 0 2.079.66 2.079 2.541v3.795h-1.188v-3.652c0-1.001-.242-1.65-1.188-1.65-.88 0-1.727.77-1.727 2.233v3.069h-1.188zm9.244 6.116c-1.694 0-2.772-1.232-2.772-3.135 0-1.914 1.078-3.157 2.772-3.157.935 0 1.584.363 1.98 1.034v-.858h1.188v5.83c0 1.738-1.133 2.706-2.728 2.706-1.958 0-2.717-1.067-2.893-2.112h1.232c.143.715.737 1.034 1.661 1.034.935 0 1.54-.473 1.54-1.628v-.715c-.385.627-1.012 1.001-1.98 1.001zm.165-1.078c1.21 0 1.815-.814 1.815-2.057 0-1.254-.605-2.079-1.815-2.079-1.067 0-1.716.77-1.716 2.079 0 1.298.649 2.057 1.716 2.057zm10.052 1.298c-2.233 0-3.256-1.804-3.256-4.037 0-2.211 1.023-4.015 3.256-4.015 2.222 0 3.245 1.804 3.245 4.015 0 2.233-1.023 4.037-3.245 4.037zm0-1.122c1.331 0 1.98-1.32 1.98-2.915 0-1.573-.649-2.893-1.98-2.893-1.342 0-2.002 1.32-2.002 2.893 0 1.595.66 2.915 2.002 2.915zm6.244-2.101c-1.342 0-1.958-1.078-1.958-2.42 0-1.331.616-2.409 1.958-2.409 1.331 0 1.947 1.078 1.947 2.409 0 1.342-.616 2.42-1.947 2.42zm4.345-4.653h1.298l-4.29 7.7h-1.298zm-4.345 3.608c.55 0 .858-.572.858-1.375 0-.792-.308-1.364-.858-1.364s-.858.572-.858 1.364c0 .803.308 1.375.858 1.375zm5.665 4.268c-1.342 0-1.958-1.078-1.958-2.42 0-1.331.616-2.409 1.958-2.409 1.331 0 1.947 1.078 1.947 2.409 0 1.342-.616 2.42-1.947 2.42zm0-1.045c.55 0 .858-.572.858-1.375 0-.792-.308-1.364-.858-1.364s-.858.572-.858 1.364c0 .803.308 1.375.858 1.375z" fill="#201c1d"/><g fill="#201c1d" opacity=".1"><path d="m274.236 283.084h420.447v75.23h-420.447z"/><path d="m274.236 226.663h478.346v75.23h-478.346z"/></g><path d="m293.954 244.895h25.58v5.201h-19.681v11.905h17.536v5.202h-17.536v15.23h-5.899zm42.745 38.396c-9.277 0-15.337-6.542-15.337-15.82 0-9.331 6.06-15.927 15.337-15.927s15.337 6.596 15.337 15.927c0 9.278-6.06 15.82-15.337 15.82zm0-5.255c5.845 0 9.384-4.237 9.384-10.565 0-6.381-3.539-10.671-9.384-10.671-5.899 0-9.385 4.29-9.385 10.671 0 6.328 3.486 10.565 9.385 10.565zm25.254-11.369v15.766h-5.792v-30.031h5.792v5.041c1.126-3.057 3.861-5.899 10.028-5.899v5.792c-6.382 0-10.028 2.199-10.028 9.331zm23.451-14.265h4.505v-7.507h5.791v7.507h5.524v4.934h-5.524v16.946c0 2.198 1.073 3.217 3.164 3.217h3.218v4.934h-3.271c-5.953 0-8.902-3.057-8.902-8.151v-16.946h-4.505zm33.671 30.889c-9.277 0-15.337-6.542-15.337-15.82 0-9.331 6.06-15.927 15.337-15.927 8.152 0 14.908 6.489 13.675 17.804h-22.952c.59 5.095 3.593 8.688 9.277 8.688 4.183 0 6.596-2.253 7.562-5.149h6.113c-1.394 6.167-6.381 10.404-13.675 10.404zm0-26.491c-5.255 0-8.258 3.11-9.116 7.668h17.107c-.376-4.29-3.164-7.668-7.991-7.668zm46.206 13.031c-.268 7.776-5.63 13.46-14.103 13.46-9.278 0-15.337-6.542-15.337-15.82 0-9.331 6.059-15.927 15.337-15.927 8.151 0 13.728 6.06 13.996 12.656h-6.113c-.268-3.647-2.574-7.347-7.883-7.347-6.328 0-9.385 4.505-9.385 10.618 0 6.06 3.057 10.511 9.385 10.511 5.63 0 7.829-3.915 8.097-8.151zm9.949-2.36v14.962h-5.792v-40.22h5.792v15.177c1.233-3.004 4.129-5.846 9.867-5.846 5.792 0 10.135 3.218 10.135 12.388v18.501h-5.791v-17.804c0-4.88-1.18-8.044-5.792-8.044-4.29 0-8.419 3.754-8.419 10.886zm25.103-15.069h5.792v4.934c1.233-3.003 4.183-5.792 9.867-5.792 5.792 0 10.136 3.218 10.136 12.388v18.501h-5.792v-17.804c0-4.88-1.18-8.044-5.792-8.044-4.29 0-8.419 3.754-8.419 10.886v14.962h-5.792zm45.109 30.889c-9.277 0-15.337-6.542-15.337-15.82 0-9.331 6.06-15.927 15.337-15.927s15.337 6.596 15.337 15.927c0 9.278-6.06 15.82-15.337 15.82zm0-5.255c5.845 0 9.385-4.237 9.385-10.565 0-6.381-3.54-10.671-9.385-10.671-5.899 0-9.384 4.29-9.384 10.671 0 6.328 3.485 10.565 9.384 10.565zm19.465-35.823h5.792v40.22h-5.792zm25.258 41.078c-9.277 0-15.337-6.542-15.337-15.82 0-9.331 6.06-15.927 15.337-15.927 9.278 0 15.337 6.596 15.337 15.927 0 9.278-6.059 15.82-15.337 15.82zm0-5.255c5.846 0 9.385-4.237 9.385-10.565 0-6.381-3.539-10.671-9.385-10.671-5.899 0-9.384 4.29-9.384 10.671 0 6.328 3.485 10.565 9.384 10.565zm31.798 4.182c-8.258 0-13.514-6.006-13.514-15.283 0-9.331 5.256-15.391 13.514-15.391 4.558 0 7.722 1.77 9.653 5.041v-4.183h5.791v28.422c0 8.473-5.523 13.192-13.299 13.192-9.545 0-13.246-5.202-14.104-10.296h6.006c.698 3.486 3.593 5.041 8.098 5.041 4.558 0 7.508-2.306 7.508-7.937v-3.486c-1.877 3.057-4.934 4.88-9.653 4.88zm.804-5.255c5.899 0 8.849-3.968 8.849-10.028 0-6.113-2.95-10.135-8.849-10.135-5.201 0-8.365 3.753-8.365 10.135 0 6.328 3.164 10.028 8.365 10.028zm19.961-34.75h6.488v6.596h-6.488zm.321 10.189h5.792v30.031h-5.792zm16.122 20.539c.322 3.647 3.486 5.416 7.347 5.416 3.754 0 6.328-1.394 6.328-4.451 0-6.328-18.984-.965-18.984-12.977 0-4.826 4.88-9.385 12.227-9.385 6.489 0 12.012 4.183 12.012 10.296h-5.523c-.269-3.646-3.111-5.362-6.704-5.362-4.129 0-6.274 1.877-6.274 4.451 0 6.918 18.984 1.126 18.984 12.977 0 5.685-4.773 9.385-12.334 9.385-7.079 0-12.549-4.451-12.763-10.35zm21.804-20.539h4.505v-7.507h5.792v7.507h5.523v4.934h-5.523v16.946c0 2.198 1.072 3.217 3.164 3.217h3.217v4.934h-3.271c-5.953 0-8.902-3.057-8.902-8.151v-16.946h-4.505zm24.962 20.539c.321 3.647 3.485 5.416 7.346 5.416 3.754 0 6.328-1.394 6.328-4.451 0-6.328-18.983-.965-18.983-12.977 0-4.826 4.88-9.385 12.226-9.385 6.489 0 12.013 4.183 12.013 10.296h-5.524c-.268-3.646-3.11-5.362-6.703-5.362-4.129 0-6.274 1.877-6.274 4.451 0 6.918 18.983 1.126 18.983 12.977 0 5.685-4.772 9.385-12.334 9.385-7.078 0-12.548-4.451-12.763-10.35zm22.077 2.896h6.489v6.596h-6.489zm-434.06 25.058h25.58v5.201h-19.681v11.905h17.536v5.202h-17.536v15.23h-5.899zm42.745 38.396c-9.277 0-15.337-6.542-15.337-15.82 0-9.331 6.06-15.927 15.337-15.927s15.337 6.596 15.337 15.927c0 9.278-6.06 15.82-15.337 15.82zm0-5.255c5.845 0 9.384-4.237 9.384-10.565 0-6.381-3.539-10.671-9.384-10.671-5.899 0-9.385 4.29-9.385 10.671 0 6.328 3.486 10.565 9.385 10.565zm25.254-11.369v15.766h-5.792v-30.031h5.792v5.041c1.126-3.057 3.861-5.899 10.028-5.899v5.792c-6.382 0-10.028 2.199-10.028 9.331zm24.899 15.766v-40.22h5.792v14.748c1.877-3.433 5.041-5.417 9.652-5.417 8.259 0 13.514 6.596 13.514 15.927 0 9.278-5.255 15.82-13.514 15.82-4.772 0-7.829-2.038-9.652-5.255v4.397zm14.64-4.397c5.202 0 8.366-4.237 8.366-10.565 0-6.381-3.164-10.671-8.366-10.671-5.953 0-8.848 4.558-8.848 10.671 0 6.06 2.895 10.565 8.848 10.565zm38.402-10.672v-14.962h5.792v30.031h-5.792v-4.987c-1.287 3.003-4.182 5.845-9.92 5.845-5.792 0-10.082-3.218-10.082-12.388v-18.501h5.738v17.804c0 4.88 1.233 8.044 5.845 8.044 4.29 0 8.419-3.754 8.419-10.886zm15.98 5.577c.322 3.647 3.486 5.416 7.347 5.416 3.754 0 6.328-1.394 6.328-4.451 0-6.328-18.984-.965-18.984-12.977 0-4.826 4.88-9.385 12.227-9.385 6.489 0 12.012 4.183 12.012 10.296h-5.523c-.268-3.646-3.111-5.362-6.704-5.362-4.129 0-6.274 1.877-6.274 4.451 0 6.918 18.984 1.126 18.984 12.977 0 5.685-4.773 9.385-12.334 9.385-7.079 0-12.549-4.451-12.763-10.35zm23.724-30.728h6.489v6.596h-6.489zm.322 10.189h5.791v30.031h-5.791zm11.458 0h5.792v4.934c1.233-3.003 4.183-5.792 9.867-5.792 5.792 0 10.135 3.218 10.135 12.388v18.501h-5.791v-17.804c0-4.88-1.18-8.044-5.792-8.044-4.29 0-8.419 3.754-8.419 10.886v14.962h-5.792zm45.109 30.889c-9.277 0-15.337-6.542-15.337-15.82 0-9.331 6.06-15.927 15.337-15.927 8.151 0 14.908 6.489 13.675 17.804h-22.952c.59 5.095 3.593 8.688 9.277 8.688 4.183 0 6.596-2.253 7.561-5.149h6.114c-1.395 6.167-6.382 10.404-13.675 10.404zm0-26.491c-5.255 0-8.258 3.11-9.116 7.668h17.106c-.375-4.29-3.164-7.668-7.99-7.668zm23.078 16.141c.322 3.647 3.486 5.416 7.347 5.416 3.754 0 6.328-1.394 6.328-4.451 0-6.328-18.984-.965-18.984-12.977 0-4.826 4.88-9.385 12.227-9.385 6.488 0 12.012 4.183 12.012 10.296h-5.524c-.268-3.646-3.11-5.362-6.703-5.362-4.129 0-6.274 1.877-6.274 4.451 0 6.918 18.984 1.126 18.984 12.977 0 5.685-4.773 9.385-12.334 9.385-7.079 0-12.549-4.451-12.763-10.35zm28.07 0c.322 3.647 3.486 5.416 7.347 5.416 3.753 0 6.327-1.394 6.327-4.451 0-6.328-18.983-.965-18.983-12.977 0-4.826 4.88-9.385 12.227-9.385 6.488 0 12.012 4.183 12.012 10.296h-5.524c-.268-3.646-3.11-5.362-6.703-5.362-4.129 0-6.274 1.877-6.274 4.451 0 6.918 18.983 1.126 18.983 12.977 0 5.685-4.772 9.385-12.334 9.385-7.078 0-12.548-4.451-12.763-10.35zm37.827 10.35c-9.277 0-15.337-6.542-15.337-15.82 0-9.331 6.06-15.927 15.337-15.927 8.151 0 14.908 6.489 13.675 17.804h-22.952c.59 5.095 3.593 8.688 9.277 8.688 4.183 0 6.596-2.253 7.561-5.149h6.114c-1.395 6.167-6.382 10.404-13.675 10.404zm0-26.491c-5.255 0-8.258 3.11-9.116 7.668h17.106c-.375-4.29-3.164-7.668-7.99-7.668zm23.078 16.141c.322 3.647 3.486 5.416 7.347 5.416 3.754 0 6.328-1.394 6.328-4.451 0-6.328-18.984-.965-18.984-12.977 0-4.826 4.88-9.385 12.227-9.385 6.489 0 12.012 4.183 12.012 10.296h-5.523c-.269-3.646-3.111-5.362-6.704-5.362-4.129 0-6.274 1.877-6.274 4.451 0 6.918 18.984 1.126 18.984 12.977 0 5.685-4.773 9.385-12.334 9.385-7.079 0-12.549-4.451-12.763-10.35zm22.078 2.896h6.488v6.596h-6.488z" fill="#201c1d" opacity=".1"/><path d="m274.486 151.682h416.471v74.73h-416.471z" fill="#e5e5e5" stroke="#201c1d" stroke-width=".5"/><path d="m293.954 170.319h25.58v5.201h-19.681v11.905h17.536v5.202h-17.536v15.23h-5.899zm42.745 38.396c-9.277 0-15.337-6.543-15.337-15.82 0-9.331 6.06-15.927 15.337-15.927s15.337 6.596 15.337 15.927c0 9.277-6.06 15.82-15.337 15.82zm0-5.256c5.845 0 9.384-4.236 9.384-10.564 0-6.381-3.539-10.672-9.384-10.672-5.899 0-9.385 4.291-9.385 10.672 0 6.328 3.486 10.564 9.385 10.564zm25.254-11.368v15.766h-5.792v-30.031h5.792v5.041c1.126-3.057 3.861-5.899 10.028-5.899v5.792c-6.382 0-10.028 2.198-10.028 9.331zm37.179 16.624c-8.258 0-13.513-6.543-13.513-15.82 0-9.331 5.255-15.927 13.513-15.927 4.612 0 7.776 2.038 9.653 5.47v-14.801h5.792v40.22h-5.792v-4.559c-1.77 3.272-4.88 5.417-9.653 5.417zm.805-5.256c5.899 0 8.848-4.504 8.848-10.564 0-6.113-2.949-10.672-8.848-10.672-5.202 0-8.366 4.291-8.366 10.672 0 6.328 3.164 10.564 8.366 10.564zm34.116 5.256c-9.277 0-15.337-6.543-15.337-15.82 0-9.331 6.06-15.927 15.337-15.927 8.151 0 14.908 6.489 13.675 17.804h-22.952c.59 5.094 3.593 8.687 9.277 8.687 4.183 0 6.596-2.252 7.561-5.148h6.114c-1.395 6.167-6.382 10.404-13.675 10.404zm0-26.492c-5.255 0-8.258 3.111-9.116 7.669h17.106c-.375-4.29-3.164-7.669-7.99-7.669zm15.028-4.397h6.221l7.454 25.043 7.454-25.043h6.22l-9.652 30.031h-8.044zm43.887 30.889c-9.277 0-15.337-6.543-15.337-15.82 0-9.331 6.06-15.927 15.337-15.927 8.151 0 14.908 6.489 13.675 17.804h-22.952c.59 5.094 3.593 8.687 9.277 8.687 4.183 0 6.596-2.252 7.561-5.148h6.114c-1.394 6.167-6.382 10.404-13.675 10.404zm0-26.492c-5.255 0-8.258 3.111-9.116 7.669h17.106c-.375-4.29-3.163-7.669-7.99-7.669zm18.051-14.586h5.792v40.22h-5.792zm25.258 41.078c-9.277 0-15.337-6.543-15.337-15.82 0-9.331 6.06-15.927 15.337-15.927 9.278 0 15.338 6.596 15.338 15.927 0 9.277-6.06 15.82-15.338 15.82zm0-5.256c5.846 0 9.385-4.236 9.385-10.564 0-6.381-3.539-10.672-9.385-10.672-5.898 0-9.384 4.291-9.384 10.672 0 6.328 3.486 10.564 9.384 10.564zm19.518 15.123v-40.756h5.791v4.612c1.877-3.432 5.041-5.47 9.653-5.47 8.259 0 13.514 6.596 13.514 15.927 0 9.277-5.255 15.82-13.514 15.82-4.773 0-7.883-2.145-9.653-5.417v15.284zm14.64-15.123c5.201 0 8.365-4.236 8.365-10.564 0-6.381-3.164-10.672-8.365-10.672-5.953 0-8.849 4.559-8.849 10.672 0 6.06 2.896 10.564 8.849 10.564zm32.613 5.256c-9.277 0-15.337-6.543-15.337-15.82 0-9.331 6.06-15.927 15.337-15.927 8.151 0 14.908 6.489 13.675 17.804h-22.952c.59 5.094 3.593 8.687 9.277 8.687 4.183 0 6.596-2.252 7.561-5.148h6.114c-1.395 6.167-6.382 10.404-13.675 10.404zm0-26.492c-5.255 0-8.258 3.111-9.116 7.669h17.106c-.375-4.29-3.164-7.669-7.99-7.669zm23.84 9.868v15.766h-5.791v-30.031h5.791v5.041c1.126-3.057 3.861-5.899 10.028-5.899v5.792c-6.381 0-10.028 2.198-10.028 9.331zm17.515 6.274c.322 3.646 3.486 5.416 7.347 5.416 3.753 0 6.328-1.394 6.328-4.451 0-6.328-18.984-.965-18.984-12.977 0-4.827 4.88-9.385 12.227-9.385 6.488 0 12.012 4.183 12.012 10.296h-5.524c-.268-3.646-3.11-5.362-6.703-5.362-4.129 0-6.274 1.877-6.274 4.451 0 6.917 18.984 1.126 18.984 12.977 0 5.685-4.773 9.385-12.334 9.385-7.079 0-12.549-4.451-12.763-10.35zm22.077 2.896h6.489v6.596h-6.489z" fill="#201c1d"/><path d="m236.622 170.083h134.307" stroke="#000" stroke-width=".5"/><path d="m267.786 151.683h-80.689" stroke="#000" stroke-width=".5"/><path d="m187.097 226.413h80.689" stroke="#000" stroke-width=".5"/><path d="m236.548 245.175h134.381" stroke="#000" stroke-width=".5"/><path d="m370.929 208.107h-134.307" stroke="#000" stroke-width=".5"/><path d="m672.678 207.854v-94.037" stroke="#000" stroke-width=".5"/><path d="m672.928 132.813h18.2793v37.5225h-18.2793z" fill="#e5e5e5" fill-opacity=".9"/><path d="m691.207 121.34h86.5138v18.2793h-86.5138z" fill="#201c1d" opacity=".1" transform="matrix(0 1 -1 0 812.547 -569.867)"/><path d="m194.869 151.432v75.231" stroke="#000" stroke-width=".5"/><path d="m265.093 170.333h18.2866v37.5225h-18.2866z" fill="#e5e5e5" fill-opacity=".9"/><path d="m244.145 170.334h126.784v37.521h-126.784z" fill="#201c1d" opacity=".1"/><path d="m244.145 226.413h126.784v18.9624h-126.784z" fill="#201c1d" opacity=".1"/><path d="m691.207 121.59h-18.279" stroke="#000" stroke-width=".5"/><path d="m690.957 207.854v-94.037" stroke="#000" stroke-width=".5"/><path d="m244.395 170.333v37.522" stroke="#000" stroke-width=".5"/><path d="m244.395 207.901v18.762" stroke="#000" stroke-width=".5"/><path d="m244.395 226.413v18.761" stroke="#000" stroke-width=".5"/><path d="m697.789 326.182h54.793" stroke="#201c1d" stroke-width=".5"/><g fill="#201c1d"><path d="m460.59 479.817-3.16-5.86v5.86h-.87v-7h1.28l3.15 5.86v-5.86h.88v7zm4.986.16c-1.73 0-2.86-1.22-2.86-2.95 0-1.74 1.13-2.97 2.86-2.97s2.86 1.23 2.86 2.97c0 1.73-1.13 2.95-2.86 2.95zm0-.83c1.16 0 1.92-.82 1.92-2.12 0-1.32-.76-2.14-1.92-2.14s-1.93.82-1.93 2.14c0 1.3.77 2.12 1.93 2.12zm3.154-4.93h.94v-1.4h.9v1.4h1.11v.77h-1.11v3.41c0 .46.22.65.62.65h.65v.77h-.66c-1.01 0-1.51-.57-1.51-1.42v-3.41h-.94zm5.743 0h.94v-1.4h.9v1.4h1.11v.77h-1.11v3.41c0 .46.22.65.62.65h.65v.77h-.66c-1.01 0-1.51-.57-1.51-1.42v-3.41h-.94zm6.23 5.76c-1.73 0-2.86-1.22-2.86-2.95 0-1.74 1.13-2.97 2.86-2.97s2.86 1.23 2.86 2.97c0 1.73-1.13 2.95-2.86 2.95zm0-.83c1.16 0 1.92-.82 1.92-2.12 0-1.32-.76-2.14-1.92-2.14s-1.93.82-1.93 2.14c0 1.3.77 2.12 1.93 2.12zm6.399-1.1c.06.75.7 1.16 1.52 1.16.8 0 1.33-.31 1.33-.96 0-1.3-3.66-.23-3.66-2.47 0-.9.88-1.72 2.25-1.72 1.21 0 2.22.78 2.22 1.92h-.83c-.05-.76-.66-1.15-1.43-1.15-.87 0-1.32.4-1.32.95 0 1.42 3.67.26 3.67 2.47 0 1.06-.87 1.73-2.28 1.73-1.32 0-2.31-.83-2.35-1.93zm9.834-.58c-.08 1.45-1.05 2.51-2.63 2.51-1.73 0-2.86-1.22-2.86-2.95 0-1.74 1.13-2.97 2.86-2.97 1.52 0 2.53 1.13 2.61 2.36h-.95c-.07-.76-.57-1.53-1.66-1.53-1.26 0-1.93.9-1.93 2.14 0 1.23.67 2.11 1.93 2.11 1.17 0 1.63-.81 1.7-1.67zm3.045-3.41c1.5 0 2.27.99 2.27 2.56v3.2h-.91v-.81c-.3.6-.83.97-1.69.97-1.1 0-1.96-.63-1.96-1.75 0-1.76 1.95-1.97 3.64-1.86-.06-.93-.47-1.49-1.35-1.49-.94 0-1.44.58-1.44 1.31h-.96c0-1.1.84-2.13 2.4-2.13zm-1.34 4.12c0 .67.42 1.02 1.22 1.02.92 0 1.48-.68 1.48-1.59v-.56c-1.8-.14-2.7.37-2.7 1.13zm4.588-5.86h.9v7.5h-.9zm4.573 7.66c-1.73 0-2.86-1.22-2.86-2.95 0-1.74 1.13-2.97 2.86-2.97 1.52 0 2.74 1.2 2.56 3.27h-4.47c.1 1.07.76 1.82 1.91 1.82.9 0 1.39-.48 1.59-1.1h.96c-.28 1.15-1.19 1.93-2.55 1.93zm0-5.09c-1.09 0-1.73.67-1.89 1.65h3.57c-.1-.96-.7-1.65-1.68-1.65z" opacity=".5"/><path d="m209.688 189.538.525-2.891h2.695v.567h-2.156l-.287 1.498c.266-.252.637-.455 1.127-.455 1.162 0 1.771.728 1.771 1.701 0 .959-.665 1.701-1.855 1.701-1.008 0-1.869-.679-1.869-1.666h.651c.042.567.434 1.057 1.253 1.057.756 0 1.148-.497 1.148-1.113 0-.665-.42-1.085-1.169-1.085-.574 0-1.001.266-1.169.686zm6.35 2.121c-1.421 0-2.072-1.148-2.072-2.569 0-1.407.651-2.555 2.072-2.555 1.414 0 2.065 1.148 2.065 2.555 0 1.421-.651 2.569-2.065 2.569zm0-.609c.896 0 1.393-.861 1.393-1.96 0-1.092-.497-1.946-1.393-1.946-.91 0-1.4.854-1.4 1.946 0 1.099.49 1.96 1.4 1.96zm2.86 1.897v-5.32h.63v.686c.252-.49.693-.798 1.33-.798 1.064 0 1.764.861 1.764 2.079 0 1.211-.7 2.065-1.764 2.065-.658 0-1.092-.315-1.33-.784v2.072zm1.89-1.869c.714 0 1.183-.574 1.183-1.484 0-.924-.469-1.498-1.183-1.498-.833 0-1.26.63-1.26 1.498 0 .861.427 1.484 1.26 1.484zm2.187-3.451h.728l.875 1.372.875-1.372h.728l-1.239 1.946 1.26 1.974h-.728l-.896-1.407-.896 1.407h-.728l1.26-1.974zm6.365-1.092h.483c-.483 1.036-.742 1.932-.742 3.108s.259 2.072.742 3.108h-.483c-.49-.896-.868-1.792-.868-3.108s.378-2.212.868-3.108zm1.78 5.012h-.756l1.61-2.464-1.589-2.436h.756l1.211 1.855 1.218-1.855h.756l-1.596 2.436 1.617 2.464h-.756l-1.239-1.89zm4.259-5.012c.49.896.868 1.792.868 3.108s-.378 2.212-.868 3.108h-.483c.483-1.036.742-1.932.742-3.108s-.259-2.072-.742-3.108z"/><path d="m201.673 220.855c.035-2.45 2.989-2.135 2.989-3.486 0-.56-.42-.917-1.078-.917-.791 0-1.148.434-1.19 1.057h-.672c0-.987.777-1.666 1.827-1.666 1.19 0 1.785.721 1.785 1.505 0 1.687-2.338 1.442-2.814 2.926h2.828v.581zm4.405-2.009.525-2.891h2.695v.567h-2.156l-.287 1.498c.266-.252.637-.455 1.127-.455 1.162 0 1.771.728 1.771 1.701 0 .959-.665 1.701-1.855 1.701-1.008 0-1.869-.679-1.869-1.666h.651c.042.567.434 1.057 1.253 1.057.756 0 1.148-.497 1.148-1.113 0-.665-.42-1.085-1.169-1.085-.574 0-1.001.266-1.169.686zm4.417 3.409v-5.32h.63v.686c.252-.49.693-.798 1.33-.798 1.064 0 1.764.861 1.764 2.079 0 1.211-.7 2.065-1.764 2.065-.658 0-1.092-.315-1.33-.784v2.072zm1.89-1.869c.714 0 1.183-.574 1.183-1.484 0-.924-.469-1.498-1.183-1.498-.833 0-1.26.63-1.26 1.498 0 .861.427 1.484 1.26 1.484zm2.187-3.451h.728l.875 1.372.875-1.372h.728l-1.239 1.946 1.26 1.974h-.728l-.896-1.407-.896 1.407h-.728l1.26-1.974zm6.365-1.092h.483c-.483 1.036-.742 1.932-.742 3.108s.259 2.072.742 3.108h-.483c-.49-.896-.868-1.792-.868-3.108s.378-2.212.868-3.108zm3.152 5.124c-1.421 0-2.072-1.148-2.072-2.569 0-1.407.651-2.555 2.072-2.555 1.414 0 2.065 1.148 2.065 2.555 0 1.421-.651 2.569-2.065 2.569zm0-.609c.896 0 1.393-.861 1.393-1.96 0-1.092-.497-1.946-1.393-1.946-.91 0-1.4.854-1.4 1.946 0 1.099.49 1.96 1.4 1.96zm2.734-.259h.735v.756h-.735zm1.471-1.253.525-2.891h2.695v.567h-2.156l-.287 1.498c.266-.252.637-.455 1.127-.455 1.162 0 1.771.728 1.771 1.701 0 .959-.665 1.701-1.855 1.701-1.008 0-1.869-.679-1.869-1.666h.651c.042.567.434 1.057 1.253 1.057.756 0 1.148-.497 1.148-1.113 0-.665-.42-1.085-1.169-1.085-.574 0-1.001.266-1.169.686zm4.978 2.009h-.756l1.61-2.464-1.589-2.436h.756l1.211 1.855 1.218-1.855h.756l-1.596 2.436 1.617 2.464h-.756l-1.239-1.89zm4.259-5.012c.49.896.868 1.792.868 3.108s-.378 2.212-.868 3.108h-.483c.483-1.036.742-1.932.742-3.108s-.259-2.072-.742-3.108z"/><path d="m201.673 238.293c.035-2.45 2.989-2.135 2.989-3.486 0-.56-.42-.917-1.078-.917-.791 0-1.148.434-1.19 1.057h-.672c0-.987.777-1.666 1.827-1.666 1.19 0 1.785.721 1.785 1.505 0 1.687-2.338 1.442-2.814 2.926h2.828v.581zm4.405-2.009.525-2.891h2.695v.567h-2.156l-.287 1.498c.266-.252.637-.455 1.127-.455 1.162 0 1.771.728 1.771 1.701 0 .959-.665 1.701-1.855 1.701-1.008 0-1.869-.679-1.869-1.666h.651c.042.567.434 1.057 1.253 1.057.756 0 1.148-.497 1.148-1.113 0-.665-.42-1.085-1.169-1.085-.574 0-1.001.266-1.169.686zm4.417 3.409v-5.32h.63v.686c.252-.49.693-.798 1.33-.798 1.064 0 1.764.861 1.764 2.079 0 1.211-.7 2.065-1.764 2.065-.658 0-1.092-.315-1.33-.784v2.072zm1.89-1.869c.714 0 1.183-.574 1.183-1.484 0-.924-.469-1.498-1.183-1.498-.833 0-1.26.63-1.26 1.498 0 .861.427 1.484 1.26 1.484zm2.187-3.451h.728l.875 1.372.875-1.372h.728l-1.239 1.946 1.26 1.974h-.728l-.896-1.407-.896 1.407h-.728l1.26-1.974zm6.365-1.092h.483c-.483 1.036-.742 1.932-.742 3.108s.259 2.072.742 3.108h-.483c-.49-.896-.868-1.792-.868-3.108s.378-2.212.868-3.108zm3.152 5.124c-1.421 0-2.072-1.148-2.072-2.569 0-1.407.651-2.555 2.072-2.555 1.414 0 2.065 1.148 2.065 2.555 0 1.421-.651 2.569-2.065 2.569zm0-.609c.896 0 1.393-.861 1.393-1.96 0-1.092-.497-1.946-1.393-1.946-.91 0-1.4.854-1.4 1.946 0 1.099.49 1.96 1.4 1.96zm2.734-.259h.735v.756h-.735zm1.471-1.253.525-2.891h2.695v.567h-2.156l-.287 1.498c.266-.252.637-.455 1.127-.455 1.162 0 1.771.728 1.771 1.701 0 .959-.665 1.701-1.855 1.701-1.008 0-1.869-.679-1.869-1.666h.651c.042.567.434 1.057 1.253 1.057.756 0 1.148-.497 1.148-1.113 0-.665-.42-1.085-1.169-1.085-.574 0-1.001.266-1.169.686zm4.978 2.009h-.756l1.61-2.464-1.589-2.436h.756l1.211 1.855 1.218-1.855h.756l-1.596 2.436 1.617 2.464h-.756l-1.239-1.89zm4.259-5.012c.49.896.868 1.792.868 3.108s-.378 2.212-.868 3.108h-.483c.483-1.036.742-1.932.742-3.108s-.259-2.072-.742-3.108z"/><path d="m149.567 190.98h1.176v-3.766h-1.176v-.567h1.82v4.333h1.176v.567h-2.996zm5.669.679c-1.421 0-2.072-1.148-2.072-2.569 0-1.407.651-2.555 2.072-2.555 1.414 0 2.065 1.148 2.065 2.555 0 1.421-.651 2.569-2.065 2.569zm0-.609c.896 0 1.393-.861 1.393-1.96 0-1.092-.497-1.946-1.393-1.946-.91 0-1.4.854-1.4 1.946 0 1.099.49 1.96 1.4 1.96zm4.792.609c-1.421 0-2.072-1.148-2.072-2.569 0-1.407.651-2.555 2.072-2.555 1.414 0 2.065 1.148 2.065 2.555 0 1.421-.651 2.569-2.065 2.569zm0-.609c.896 0 1.393-.861 1.393-1.96 0-1.092-.497-1.946-1.393-1.946-.91 0-1.4.854-1.4 1.946 0 1.099.49 1.96 1.4 1.96zm2.86 1.897v-5.32h.63v.686c.252-.49.693-.798 1.33-.798 1.064 0 1.764.861 1.764 2.079 0 1.211-.7 2.065-1.764 2.065-.658 0-1.092-.315-1.33-.784v2.072zm1.89-1.869c.714 0 1.183-.574 1.183-1.484 0-.924-.469-1.498-1.183-1.498-.833 0-1.26.63-1.26 1.498 0 .861.427 1.484 1.26 1.484zm2.187-3.451h.728l.875 1.372.875-1.372h.728l-1.239 1.946 1.26 1.974h-.728l-.896-1.407-.896 1.407h-.728l1.26-1.974zm6.365-1.092h.483c-.483 1.036-.742 1.932-.742 3.108s.259 2.072.742 3.108h-.483c-.49-.896-.868-1.792-.868-3.108s.378-2.212.868-3.108zm1.053 5.012c.035-2.45 2.989-2.135 2.989-3.486 0-.56-.42-.917-1.078-.917-.791 0-1.148.434-1.19 1.057h-.672c0-.987.777-1.666 1.827-1.666 1.19 0 1.785.721 1.785 1.505 0 1.687-2.338 1.442-2.814 2.926h2.828v.581zm5.041 0h-.756l1.61-2.464-1.589-2.436h.756l1.211 1.855 1.218-1.855h.756l-1.596 2.436 1.617 2.464h-.756l-1.239-1.89zm4.259-5.012c.49.896.868 1.792.868 3.108s-.378 2.212-.868 3.108h-.483c.483-1.036.742-1.932.742-3.108s-.259-2.072-.742-3.108z"/><path d="m674.018 100.935c.035-2.4502 2.989-2.1352 2.989-3.4862 0-.56-.42-.917-1.078-.917-.791 0-1.148.434-1.19 1.057h-.672c0-.987.777-1.666 1.827-1.666 1.19 0 1.785.721 1.785 1.505 0 1.687-2.338 1.442-2.814 2.9262h2.828v.581zm4.405-2.0092.525-2.891h2.695v.567h-2.156l-.287 1.498c.266-.252.637-.455 1.127-.455 1.162 0 1.771.728 1.771 1.701 0 .9592-.665 1.7012-1.855 1.7012-1.008 0-1.869-.679-1.869-1.6662h.651c.042.567.434 1.0572 1.253 1.0572.756 0 1.148-.4972 1.148-1.1132 0-.665-.42-1.085-1.169-1.085-.574 0-1.001.266-1.169.686zm4.418 3.4092v-5.3202h.63v.686c.252-.49.693-.798 1.33-.798 1.064 0 1.764.861 1.764 2.079 0 1.2112-.7 2.0652-1.764 2.0652-.658 0-1.092-.315-1.33-.784v2.072zm1.89-1.869c.714 0 1.183-.5742 1.183-1.4842 0-.924-.469-1.498-1.183-1.498-.833 0-1.26.63-1.26 1.498 0 .861.427 1.4842 1.26 1.4842zm2.187-3.4512h.728l.875 1.372.875-1.372h.728l-1.239 1.946 1.26 1.9742h-.728l-.896-1.4072-.896 1.4072h-.728l1.26-1.9742zm-13.145 5.9082h.483c-.483 1.036-.742 1.932-.742 3.108s.259 2.072.742 3.108h-.483c-.49-.896-.868-1.792-.868-3.108s.378-2.212.868-3.108zm3.152 5.124c-1.421 0-2.072-1.148-2.072-2.569 0-1.407.651-2.555 2.072-2.555 1.414 0 2.065 1.148 2.065 2.555 0 1.421-.651 2.569-2.065 2.569zm0-.609c.896 0 1.393-.861 1.393-1.96 0-1.092-.497-1.946-1.393-1.946-.91 0-1.4.854-1.4 1.946 0 1.099.49 1.96 1.4 1.96zm2.734-.259h.735v.756h-.735zm1.471-1.253.525-2.891h2.695v.567h-2.156l-.287 1.498c.266-.252.637-.455 1.127-.455 1.162 0 1.771.728 1.771 1.701 0 .959-.665 1.701-1.855 1.701-1.008 0-1.869-.679-1.869-1.666h.651c.042.567.434 1.057 1.253 1.057.756 0 1.148-.497 1.148-1.113 0-.665-.42-1.085-1.169-1.085-.574 0-1.001.266-1.169.686zm4.978 2.009h-.756l1.61-2.464-1.589-2.436h.756l1.211 1.855 1.218-1.855h.756l-1.596 2.436 1.617 2.464h-.756l-1.239-1.89zm4.259-5.012c.49.896.868 1.792.868 3.108s-.378 2.212-.868 3.108h-.483c.483-1.036.742-1.932.742-3.108s-.259-2.072-.742-3.108z"/></g></svg>