<svg fill="none" height="215" viewBox="0 0 300 215" width="300" xmlns="http://www.w3.org/2000/svg"><g fill="#201c1d"><path d="m242.654 121.603c-.552 15.99-11.579 27.679-29.002 27.679-19.078 0-31.538-13.453-31.538-32.531 0-19.1873 12.46-32.7509 31.538-32.7509 16.761 0 28.23 12.4609 28.781 26.0249h-12.461c-.551-7.499-5.403-15.1078-16.32-15.1078-13.012 0-19.298 9.2628-19.298 21.8338 0 12.461 6.286 21.614 19.298 21.614 11.579 0 16.21-8.05 16.761-16.762z" opacity=".4"/><path d="m146.158 149.282c-12.131 0-21.393-6.947-21.393-19.298 0-19.298 21.282-20.842 39.147-20.842v6.617h11.909v31.759h-11.909v-6.286c-3.86 5.183-9.704 8.05-17.754 8.05zm-22.937-40.691c0-12.5711 9.593-24.5909 27.017-24.5909 15.879 0 24.48 9.5938 25.473 25.1419h-11.799c-.552-8.932-4.301-14.2248-13.674-14.2248-10.587 0-14.446 6.3958-14.446 13.6738zm14.004 20.952c0 6.175 4.301 9.263 11.469 9.263 8.711 0 15.218-5.624 15.218-15.659v-4.08c-18.196-.551-26.687 3.088-26.687 10.476z" opacity=".4"/><path d="m89.7587 149.282c-9.8143 0-16.2101-4.411-19.8492-11.138v31.428h-11.9095v-83.8075h11.9095v9.4835c3.8596-7.0575 10.3657-11.2479 19.8492-11.2479 16.9823 0 27.7893 13.5636 27.7893 32.7509 0 19.078-10.807 32.531-27.7893 32.531zm-1.6541-10.807c10.6966 0 17.2024-8.711 17.2024-21.724 0-13.122-6.5058-21.9441-17.2024-21.9441-12.13 0-18.1951 9.3731-18.1951 21.9441 0 12.461 6.0651 21.724 18.1951 21.724z" opacity=".4"/><path d="m163.911 109.142h.25v-.25h-.25zm0 6.617h-.25v.25h.25zm11.91 0h.25v-.25h-.25zm0 31.758v.25h.25v-.25zm-11.91 0h-.25v.25h.25zm0-6.285h.25v-.754l-.45.605zm-40.691-32.641h-.25v.25h.25zm52.491.551v.25h.266l-.017-.266zm-11.8 0-.249.016.014.234h.235zm-28.119-.551v.25h.25v-.25zm28.119 10.476h.25v-.243l-.242-.007zm-17.754 30.215v-.25c-.338 0-.673-.006-1.006-.016l-.008.249-.008.25c.338.011.679.017 1.022.017zm-3.038-.151.025-.249c-.676-.068-1.34-.16-1.991-.275l-.043.246-.044.247c.664.117 1.34.21 2.027.28zm-3.991-.708.063-.242c-.656-.17-1.296-.366-1.918-.586l-.083.235-.084.236c.636.225 1.29.425 1.96.599zm-3.816-1.357.105-.227c-.612-.283-1.204-.594-1.772-.93l-.128.215-.127.215c.583.345 1.19.664 1.817.954zm-3.481-2.066.15-.2c-.537-.402-1.047-.83-1.53-1.286l-.172.182-.171.182c.497.469 1.022.91 1.573 1.322zm-2.941-2.78.192-.16c-.425-.51-.821-1.045-1.185-1.607l-.21.136-.209.136c.375.579.782 1.131 1.22 1.655zm-2.201-3.394.224-.11c-.289-.59-.548-1.204-.775-1.842l-.235.084-.236.084c.233.655.499 1.287.797 1.894zm-1.359-3.812.243-.058c-.151-.636-.273-1.293-.363-1.969l-.248.033-.248.033c.093.693.217 1.366.372 2.019zm-.544-4.015.249-.01c-.014-.331-.021-.666-.021-1.005h-.25-.25c0 .346.007.688.022 1.026zm-.022-1.015h.25c0-.327.006-.649.019-.966l-.25-.01-.25-.009c-.012.323-.019.651-.019.985zm.173-2.894.248.031c.08-.647.188-1.27.322-1.87l-.244-.054-.244-.055c-.138.616-.248 1.255-.331 1.917zm.845-3.748.237.081c.209-.613.448-1.199.716-1.759l-.225-.108-.226-.108c-.276.578-.523 1.182-.738 1.813zm1.664-3.466.21.135c.344-.536.718-1.045 1.12-1.529l-.192-.16-.193-.16c-.415.5-.801 1.025-1.156 1.579zm2.455-2.958.172.181c.457-.434.94-.843 1.448-1.23l-.152-.199-.152-.199c-.521.397-1.018.819-1.488 1.265zm3.054-2.339.132.213c.533-.331 1.088-.642 1.661-.935l-.113-.223-.114-.222c-.585.298-1.152.616-1.698.955zm3.429-1.756.097.23c.579-.244 1.173-.472 1.782-.686l-.083-.236-.083-.236c-.617.217-1.221.449-1.81.697zm3.632-1.279.07.24c.606-.177 1.224-.342 1.852-.494l-.059-.243-.058-.243c-.636.154-1.261.32-1.875.5zm3.746-.913.049.245c.622-.125 1.251-.24 1.887-.345l-.041-.246-.041-.247c-.641.106-1.276.222-1.903.348zm3.8-.632.034.248c.631-.086 1.267-.163 1.907-.232l-.027-.249-.027-.248c-.644.07-1.285.147-1.92.233zm3.833-.419.021.249c.637-.054 1.276-.103 1.918-.145l-.017-.25-.016-.249c-.645.043-1.288.091-1.928.146zm3.847-.256.012.25c.64-.032 1.281-.058 1.922-.08l-.009-.25-.008-.25c-.643.022-1.287.049-1.93.08zm3.852-.134.006.25c.643-.014 1.285-.025 1.925-.032l-.003-.25-.003-.25c-.641.008-1.285.018-1.93.032zm3.856-.046.001.25c.321-.001.641-.002.96-.002v-.25-.25c-.319 0-.64.001-.962.002zm.961-.002h-.25v.827h.25.25v-.827zm0 2.481h-.25v1.655h.25.25v-1.655zm0 3.309h-.25v.827h.25.25v-.827zm0 .827v.25h.993v-.25-.25h-.993zm2.978 0v.25h1.985v-.25-.25h-1.985zm3.97 0v.25h1.985v-.25-.25h-1.985zm3.969 0v.25h.993v-.25-.25h-.993zm.993 0h-.25v.992h.25.25v-.992zm0 2.977h-.25v1.985h.25.25v-1.985zm0 3.97h-.25v1.985h.25.25v-1.985zm0 3.97h-.25v1.985h.25.25v-1.985zm0 3.97h-.25v1.985h.25.25v-1.985zm0 3.97h-.25v1.984h.25.25v-1.984zm0 3.969h-.25v1.985h.25.25v-1.985zm0 3.97h-.25v1.985h.25.25v-1.985zm0 3.97h-.25v.992h.25.25v-.992zm0 .992v-.25h-.993v.25.25h.993zm-2.977 0v-.25h-1.985v.25.25h1.985zm-3.97 0v-.25h-1.985v.25.25h1.985zm-3.97 0v-.25h-.993v.25.25h.993zm-.993 0h.25v-.785h-.25-.25v.785zm0-2.357h.25v-1.571h-.25-.25v1.571zm0-3.142h.25v-.786h-.25-.25v.786zm0-.786-.2-.149c-.201.269-.407.532-.618.788l.193.159.193.159c.217-.263.428-.532.633-.808zm-1.991 2.294-.176-.178c-.476.469-.975.911-1.497 1.325l.155.196.156.196c.536-.426 1.048-.879 1.537-1.361zm-3.172 2.513-.133-.212c-.559.352-1.141.676-1.747.972l.11.225.11.224c.621-.303 1.219-.636 1.793-.997zm-3.634 1.779-.086-.234c-.616.227-1.253.428-1.911.602l.065.242.064.242c.672-.179 1.324-.385 1.955-.617zm-3.912 1.045-.043-.246c-.645.113-1.308.204-1.989.271l.024.249.025.249c.693-.069 1.369-.161 2.026-.277zm-4.03.403-.008-.25c-.331.011-.667.016-1.007.016v.25.25c.345 0 .686-.005 1.023-.016zm-23.952-40.675v.25h1.048v-.25-.25h-1.048zm3.143 0v.25h2.095v-.25-.25h-2.095zm4.191 0v.25h2.095v-.25-.25h-2.095zm4.19 0v.25h1.048v-.25-.25h-1.048zm1.048 0h.25c0-.312.007-.623.021-.931l-.249-.012-.25-.012c-.015.317-.022.635-.022.955zm.207-2.818.247.038c.095-.619.224-1.224.389-1.812l-.24-.068-.241-.067c-.171.608-.304 1.233-.402 1.871zm1.027-3.616.229.1c.249-.566.538-1.11.87-1.626l-.21-.135-.211-.135c-.346.539-.648 1.106-.907 1.695zm2.037-3.1528.185.169c.408-.4453.859-.8612 1.356-1.2437l-.153-.198-.152-.1981c-.52.4001-.992.8355-1.42 1.3019zm2.968-2.2945.119.2201c.523-.2817 1.084-.5339 1.686-.7534l-.086-.2348-.085-.2349c-.624.2274-1.207.4893-1.752.7829zm3.527-1.3005.056.2436c.58-.1338 1.19-.2415 1.833-.3212l-.031-.2481-.031-.2481c-.658.0817-1.286.1923-1.884.3302zm3.736-.4747.01.2498c.305-.0114.616-.0172.933-.0172v-.25-.25c-.323 0-.64.0059-.952.0176zm.943-.0174v.25c.315 0 .623.006.925.018l.01-.2498.01-.2498c-.309-.0123-.623-.0184-.945-.0184zm2.797.1768-.033.2477c.633.0853 1.234.2014 1.801.3473l.063-.2422.062-.2421c-.588-.1511-1.208-.2708-1.86-.3585zm3.602.9432-.097.2306c.579.2425 1.116.5236 1.615.842l.135-.2107.134-.2108c-.524-.3343-1.087-.6286-1.691-.8817zm3.125 2.0053-.171.1823c.441.4138.842.8679 1.206 1.3613l.201-.1485.202-.1485c-.382-.5168-.803-.9936-1.267-1.4289zm2.217 2.9816-.222.114c.272.528.514 1.089.727 1.683l.235-.085.235-.084c-.219-.612-.47-1.194-.753-1.743zm1.273 3.503-.243.059c.141.579.261 1.182.359 1.809l.247-.039.247-.039c-.1-.639-.222-1.256-.367-1.849zm.59 3.683-.249.023c.027.303.051.612.07.925l.249-.016.25-.015c-.02-.318-.043-.631-.071-.939zm.07.932v.25h.984v-.25-.25h-.984zm2.95 0v.25h1.967v-.25-.25h-1.967zm3.933 0v.25h1.967v-.25-.25h-1.967zm3.933 0v.25h.984v-.25-.25h-.984zm.984 0 .249-.016c-.022-.34-.047-.677-.076-1.011l-.249.021-.249.022c.029.33.054.664.075 1zm-.297-3.003.248-.034c-.092-.68-.2-1.347-.324-2l-.246.046-.246.047c.123.645.23 1.303.321 1.974zm-.753-3.95.242-.061c-.167-.666-.352-1.316-.556-1.951l-.238.076-.238.077c.2.624.383 1.264.547 1.92zm-1.232-3.8276.233-.0929c-.255-.6364-.53-1.2546-.825-1.854l-.224.1104-.225.1105c.29.5876.559 1.194.809 1.8189zm-1.779-3.6032.214-.1288c-.352-.5861-.726-1.1511-1.123-1.6942l-.202.1473-.202.1474c.388.5309.754 1.0834 1.099 1.657zm-2.37-3.2421.187-.1657c-.451-.5092-.925-.9949-1.422-1.4565l-.17.1832-.17.1831c.485.4505.947.9245 1.387 1.4217zm-2.943-2.7334.151-.1989c-.536-.4085-1.095-.7926-1.677-1.1518l-.131.2127-.132.2127c.568.3507 1.114.7257 1.638 1.1243zm-3.417-2.1137.111-.224c-.599-.2969-1.219-.5703-1.858-.8196l-.091.2329-.091.2329c.626.2441 1.233.5116 1.819.8018zm-3.74-1.462.072-.2396c-.639-.1902-1.295-.3586-1.969-.5049l-.053.2443-.053.2443c.662.1437 1.306.309 1.932.4955zm-3.926-.8576.036-.2474c-.657-.096-1.329-.1727-2.016-.2296l-.021.2491-.021.2492c.678.0561 1.34.1316 1.986.2261zm-4.006-.3362.006-.25c-.335-.0088-.674-.0132-1.017-.0132v.25.25c.338 0 .673.0044 1.004.0131zm-1.011-.0132v-.25c-.347 0-.692.0048-1.033.0142l.007.2499.007.2499c.336-.0093.676-.014 1.019-.014zm-3.062.1283-.022-.2491c-.696.0595-1.378.139-2.046.2378l.036.2473.037.2473c.658-.0972 1.33-.1756 2.016-.2342zm-4.042.6002-.053-.2444c-.681.1469-1.346.3147-1.995.5023l.069.2402.07.2401c.637-.1844 1.291-.3493 1.961-.4938zm-3.921 1.1371-.087-.2344c-.653.2418-1.288.5049-1.903.788l.104.2272.105.2271c.604-.2778 1.226-.536 1.867-.7734zm-3.708 1.7078-.122-.2181c-.607.34-1.192.7008-1.756 1.0809l.139.2073.14.2074c.553-.3725 1.127-.7261 1.722-1.0594zm-3.383 2.2809-.157-.1948c-.541.4348-1.058.889-1.552 1.3608l.172.1808.173.1808c.484-.462.991-.9068 1.521-1.3327zm-2.951 2.8197-.188-.1652c-.457.5192-.889 1.0553-1.296 1.6064l.202.1484.201.1483c.398-.5395.821-1.0644 1.268-1.5727zm-2.423 3.2849-.213-.1305c-.36.5889-.693 1.1914-1 1.8058l.224.1115.224.1116c.3-.6015.626-1.1915.979-1.768zm-1.822 3.6519-.232-.0921c-.254.6403-.48 1.2903-.678 1.9493l.239.072.24.072c.194-.645.415-1.282.664-1.9091zm-1.176 3.9082-.245-.051c-.142.672-.256 1.351-.341 2.035l.248.031.248.031c.084-.67.195-1.335.334-1.994zm-.507 4.05-.25-.01c-.014.343-.022.688-.022 1.032h.25.25c0-.338.007-.675.021-1.011zm13.983 21.974h-.25c0 .366.015.723.045 1.069l.249-.022.249-.021c-.029-.331-.043-.673-.043-1.026zm.43 3.102-.239.073c.218.714.515 1.368.888 1.964l.212-.133.212-.132c-.349-.557-.628-1.172-.834-1.845zm2.206 3.501-.167.186c.522.469 1.114.877 1.769 1.223l.117-.221.117-.221c-.622-.329-1.179-.713-1.669-1.153zm3.657 1.977-.073.239c.651.198 1.344.354 2.079.467l.038-.247.038-.247c-.713-.11-1.384-.261-2.01-.451zm4.126.66-.011.25c.347.015.7.023 1.061.023v-.25-.25c-.354 0-.7-.008-1.039-.023zm1.05.023v.25c.35 0 .697-.009 1.04-.027l-.013-.25-.013-.249c-.335.017-.673.026-1.014.026zm3.066-.246.041.246c.696-.115 1.374-.271 2.03-.466l-.072-.24-.071-.239c-.635.189-1.292.34-1.969.452zm3.921-1.175.103.228c.64-.29 1.252-.623 1.834-.998l-.136-.21-.136-.21c-.56.361-1.15.682-1.768.962zm3.433-2.221.167.187c.518-.461 1.001-.964 1.447-1.508l-.194-.158-.193-.159c-.429.524-.894 1.008-1.393 1.452zm2.594-3.159.216.127c.347-.588.658-1.21.929-1.867l-.231-.095-.231-.096c-.262.635-.562 1.237-.898 1.803zm1.571-3.78.241.065c.175-.651.316-1.33.42-2.035l-.247-.037-.248-.037c-.101.687-.238 1.347-.408 1.98zm.609-4.051.25.012c.015-.341.023-.688.023-1.039h-.25-.25c0 .344-.007.683-.023 1.016zm.023-1.027h.25v-1.02h-.25-.25v1.02zm0-3.06h.25v-1.02h-.25-.25v1.02zm0-1.02.008-.25c-.336-.01-.668-.019-.997-.026l-.006.25-.006.25c.328.007.659.016.994.026zm-2.97-.053.001-.25c-.674-.004-1.334 0-1.979.009l.004.25.004.25c.641-.009 1.297-.013 1.969-.009zm-3.956.061-.009-.25c-.678.026-1.338.059-1.98.1l.016.25.016.249c.637-.041 1.293-.074 1.966-.099zm-3.945.256-.023-.249c-.68.065-1.338.139-1.974.224l.033.248.033.247c.629-.083 1.281-.157 1.955-.221zm-3.92.526-.044-.246c-.678.122-1.328.256-1.948.404l.057.243.058.243c.611-.145 1.251-.278 1.921-.398zm-3.84.924-.076-.238c-.667.21-1.294.439-1.879.687l.097.231.098.23c.569-.241 1.181-.465 1.835-.671zm-3.626 1.558-.126-.216c-.612.358-1.163.745-1.653 1.161l.162.19.162.191c.465-.395.991-.765 1.581-1.11zm-2.969 2.571-.201-.149c-.411.558-.738 1.154-.98 1.786l.233.09.234.09c.226-.591.531-1.147.915-1.669zm-1.407 3.644-.248-.028c-.037.332-.055.671-.055 1.017h.25.25c0-.329.017-.649.052-.962z"/></g></svg>