<svg width="966" height="500" viewBox="0 0 966 500" fill="none" xmlns="http://www.w3.org/2000/svg">
<g clip-path="url(#clip0_3536_7237)">
<g clip-path="url(#clip1_3536_7237)">
<rect width="478" height="500" fill="#9D9CFF"/>
<path d="M194.377 425.531V360.912H86.6792V-259.821H295.222C444.041 -259.821 564.468 -216.742 564.468 -64.0064C564.468 -12.1155 538.033 45.6499 483.204 73.064C549.781 95.5827 599.714 151.39 599.714 228.737C599.714 381.472 479.288 425.531 330.469 425.531H194.377ZM194.377 331.54H330.469C428.376 331.54 488.1 310 488.1 228.737C488.1 152.369 428.376 126.913 332.427 126.913H194.377V331.54ZM194.377 32.9219H297.18C394.109 32.9219 451.874 12.3613 451.874 -65.9646C451.874 -143.311 399.004 -165.83 295.222 -165.83H194.377V32.9219Z" fill="#201C1D"/>
</g>
<rect width="234" height="500" transform="translate(488)" fill="#86AF25"/>
<path d="M588.7 166H631.9V390H588.7V166ZM575.9 88L623.9 77.2L634.7 126L586.7 136.8L575.9 88Z" fill="#201C1D"/>
<rect width="234" height="245" transform="translate(732)" fill="#FFCC00"/>
<path d="M840.011 192.35C813.611 192.35 793.691 177.23 793.691 150.35C793.691 108.35 840.011 104.99 878.891 104.99V119.39H904.811V188.51H878.891V173.63C870.971 185.39 857.531 192.35 840.011 192.35ZM790.331 103.79C790.331 76.4298 811.211 50.2698 849.131 50.2698C883.691 50.2698 902.171 71.1498 904.571 104.99H878.891C877.691 85.5498 869.291 74.0298 849.131 74.0298C826.091 74.0298 817.691 87.9498 817.691 103.79H790.331ZM820.571 149.39C820.571 162.83 829.931 169.55 845.771 169.55C864.491 169.55 878.891 157.31 878.891 135.47V126.59C839.051 125.39 820.571 133.31 820.571 149.39Z" fill="#201C1D"/>
<g clip-path="url(#clip2_3536_7237)">
<rect width="234" height="245" transform="translate(732 255)" fill="#F39FFF"/>
<path d="M945.494 552.432C856.361 552.432 796.57 493.748 788.266 408.491H850.825C856.361 461.085 887.364 498.177 945.494 498.177C988.676 498.177 1013.59 474.925 1024.11 445.03H1087.22C1072.27 508.696 1020.79 552.432 945.494 552.432ZM850.825 408.491V371.952H787.712C795.463 280.051 860.237 224.689 945.494 224.689C1029.64 224.689 1099.4 291.677 1087.22 408.491H850.825ZM852.486 358.112H1028.54C1023.55 312.715 995.32 278.944 945.494 278.944C896.222 278.944 860.237 308.286 852.486 358.112Z" fill="#201C1D"/>
</g>
</g>
<defs>
<clipPath id="clip0_3536_7237">
<rect width="966" height="500" fill="white"/>
</clipPath>
<clipPath id="clip1_3536_7237">
<rect width="478" height="500" fill="white"/>
</clipPath>
<clipPath id="clip2_3536_7237">
<rect width="234" height="245" fill="white" transform="translate(732 255)"/>
</clipPath>
</defs>
</svg>
