<svg fill="none" height="215" viewBox="0 0 300 215" width="300" xmlns="http://www.w3.org/2000/svg"><g fill="#201c1d"><path d="m82.7745 72.0386v61.5324c0 10.586-5.1829 15.659-16.3205 15.659h-10.2554v-8.601h10.1451c4.3007 0 6.3959-1.765 6.3959-7.168v-61.4224zm53.0505 46.4254v-30.9871h9.924v61.7531h-9.924v-10.586c-2.757 6.285-8.933 12.35-20.732 12.35-11.909 0-20.9518-6.616-20.9518-25.473v-38.0441h9.9248v36.6111c0 11.358 3.308 18.195 13.343 18.195 9.925 0 18.416-9.153 18.416-23.819zm29.138 10.807c.662 8.27 7.72 12.791 16.762 12.791 8.822 0 14.666-3.418 14.666-10.586 0-14.336-40.36-2.095-40.36-26.796 0-9.925 9.704-18.9675 24.812-18.9675 13.343 0 24.481 8.6014 24.481 21.1725h-9.153c-.552-8.3807-7.278-12.6814-15.769-12.6814-9.594 0-14.556 4.4109-14.556 10.4764 0 15.658 40.47 2.426 40.47 26.796 0 11.689-9.594 19.077-25.142 19.077-14.556 0-25.473-9.152-25.915-21.282zm45.961-41.7941h10.366v-15.4383h9.925v15.4383h12.24v8.4911h-12.24v37.603c0 5.073 2.426 7.168 6.837 7.168h7.167v8.491h-7.278c-11.137 0-16.651-6.286-16.651-15.659v-37.603h-10.366z" opacity=".4"/><path d="m242.992 25.6668c-.736 0-1.333.597-1.333 1.3334s.597 1.3333 1.333 1.3333c.737 0 1.334-.5969 1.334-1.3333s-.597-1.3334-1.334-1.3334zm0 167.4602c-.736 0-1.333.597-1.333 1.333 0 .737.597 1.334 1.333 1.334.737 0 1.334-.597 1.334-1.334 0-.736-.597-1.333-1.334-1.333zm0-166.1268h-.25v.9968h.25.25v-.9968zm0 2.9903h-.25v1.9936h.25.25v-1.9936zm0 3.9872h-.25v1.9936h.25.25v-1.9936zm0 3.9871h-.25v1.9936h.25.25v-1.9936zm0 3.9872h-.25v1.9935h.25.25v-1.9935zm0 3.9871h-.25v1.9936h.25.25v-1.9936zm0 3.9872h-.25v1.9935h.25.25v-1.9935zm0 3.9871h-.25v1.9936h.25.25v-1.9936zm0 3.9871h-.25v1.9936h.25.25v-1.9936zm0 3.9872h-.25v1.9936h.25.25v-1.9936zm0 3.9871h-.25v1.9936h.25.25v-1.9936zm0 3.9872h-.25v1.9935h.25.25v-1.9935zm0 3.9871h-.25v1.9936h.25.25v-1.9936zm0 3.9872h-.25v1.9935h.25.25v-1.9935zm0 3.9871h-.25v1.9936h.25.25v-1.9936zm0 3.9872h-.25v1.9935h.25.25v-1.9935zm0 3.9871h-.25v1.9936h.25.25v-1.9936zm0 3.9871h-.25v1.9936h.25.25v-1.9936zm0 3.9872h-.25v1.9935h.25.25v-1.9935zm0 3.987h-.25v1.994h.25.25v-1.994zm0 3.987h-.25v1.994h.25.25v-1.994zm0 3.987h-.25v1.994h.25.25v-1.994zm0 3.988h-.25v1.993h.25.25v-1.993zm0 3.987h-.25v1.993h.25.25v-1.993zm0 3.987h-.25v1.993h.25.25v-1.993zm0 3.987h-.25v1.993h.25.25v-1.993zm0 3.987h-.25v1.994h.25.25v-1.994zm0 3.987h-.25v1.994h.25.25v-1.994zm0 3.987h-.25v1.994h.25.25v-1.994zm0 3.987h-.25v1.994h.25.25v-1.994zm0 3.988h-.25v1.993h.25.25v-1.993zm0 3.987h-.25v1.993h.25.25v-1.993zm0 3.987h-.25v1.993h.25.25v-1.993zm0 3.987h-.25v1.994h.25.25v-1.994zm0 3.987h-.25v1.994h.25.25v-1.994zm0 3.987h-.25v1.994h.25.25v-1.994zm0 3.987h-.25v1.994h.25.25v-1.994zm0 3.988h-.25v1.993h.25.25v-1.993zm0 3.987h-.25v1.993h.25.25v-1.993zm0 3.987h-.25v1.994h.25.25v-1.994zm0 3.987h-.25v1.994h.25.25v-1.994zm0 3.987h-.25v1.994h.25.25v-1.994zm0 3.987h-.25v.997h.25.25v-.997z"/><path d="m207.996 195.793c.736 0 1.333-.596 1.333-1.333 0-.736-.597-1.333-1.333-1.333s-1.333.597-1.333 1.333c0 .737.597 1.333 1.333 1.333zm0-167.4595c.736 0 1.333-.597 1.333-1.3334 0-.7363-.597-1.3333-1.333-1.3333s-1.333.597-1.333 1.3333c0 .7364.597 1.3334 1.333 1.3334zm0 166.1265h.25v-.997h-.25-.25v.997zm0-2.99h.25v-1.994h-.25-.25v1.994zm0-3.987h.25v-1.994h-.25-.25v1.994zm0-3.987h.25v-1.994h-.25-.25v1.994zm0-3.988h.25v-1.993h-.25-.25v1.993zm0-3.987h.25v-1.993h-.25-.25v1.993zm0-3.987h.25v-1.994h-.25-.25v1.994zm0-3.987h.25v-1.994h-.25-.25v1.994zm0-3.987h.25v-1.994h-.25-.25v1.994zm0-3.987h.25v-1.994h-.25-.25v1.994zm0-3.988h.25v-1.993h-.25-.25v1.993zm0-3.987h.25v-1.993h-.25-.25v1.993zm0-3.987h.25v-1.993h-.25-.25v1.993zm0-3.987h.25v-1.994h-.25-.25v1.994zm0-3.987h.25v-1.994h-.25-.25v1.994zm0-3.987h.25v-1.994h-.25-.25v1.994zm0-3.987h.25v-1.994h-.25-.25v1.994zm0-3.988h.25v-1.993h-.25-.25v1.993zm0-3.987h.25v-1.993h-.25-.25v1.993zm0-3.987h.25v-1.993h-.25-.25v1.993zm0-3.987h.25v-1.993h-.25-.25v1.993zm0-3.987h.25v-1.994h-.25-.25v1.994zm0-3.987h.25v-1.994h-.25-.25v1.994zm0-3.987h.25v-1.994h-.25-.25v1.994zm0-3.9875h.25v-1.9935h-.25-.25v1.9935zm0-3.9871h.25v-1.9936h-.25-.25v1.9936zm0-3.9871h.25v-1.9936h-.25-.25v1.9936zm0-3.9872h.25v-1.9935h-.25-.25v1.9935zm0-3.9871h.25v-1.9936h-.25-.25v1.9936zm0-3.9871h.25v-1.9936h-.25-.25v1.9936zm0-3.9872h.25v-1.9935h-.25-.25v1.9935zm0-3.9871h.25v-1.9936h-.25-.25v1.9936zm0-3.9872h.25v-1.9935h-.25-.25v1.9935zm0-3.9871h.25v-1.9936h-.25-.25v1.9936zm0-3.9872h.25v-1.9935h-.25-.25v1.9935zm0-3.9871h.25v-1.9936h-.25-.25v1.9936zm0-3.9872h.25v-1.9935h-.25-.25v1.9935zm0-3.9871h.25v-1.9936h-.25-.25v1.9936zm0-3.9872h.25v-1.9935h-.25-.25v1.9935zm0-3.9871h.25v-1.9936h-.25-.25v1.9936zm0-3.9872h.25v-1.9936h-.25-.25v1.9936zm0-3.9871h.25v-1.9936h-.25-.25v1.9936zm0-3.9872h.25v-.9968h-.25-.25v.9968z"/><path d="m154.673 195.793c.736 0 1.333-.596 1.333-1.333 0-.736-.597-1.333-1.333-1.333-.737 0-1.333.597-1.333 1.333 0 .737.596 1.333 1.333 1.333zm0-167.4595c.736 0 1.333-.597 1.333-1.3334 0-.7363-.597-1.3333-1.333-1.3333-.737 0-1.333.597-1.333 1.3333 0 .7364.596 1.3334 1.333 1.3334zm0 166.1265h.25v-.997h-.25-.25v.997zm0-2.99h.25v-1.994h-.25-.25v1.994zm0-3.987h.25v-1.994h-.25-.25v1.994zm0-3.987h.25v-1.994h-.25-.25v1.994zm0-3.988h.25v-1.993h-.25-.25v1.993zm0-3.987h.25v-1.993h-.25-.25v1.993zm0-3.987h.25v-1.994h-.25-.25v1.994zm0-3.987h.25v-1.994h-.25-.25v1.994zm0-3.987h.25v-1.994h-.25-.25v1.994zm0-3.987h.25v-1.994h-.25-.25v1.994zm0-3.988h.25v-1.993h-.25-.25v1.993zm0-3.987h.25v-1.993h-.25-.25v1.993zm0-3.987h.25v-1.993h-.25-.25v1.993zm0-3.987h.25v-1.994h-.25-.25v1.994zm0-3.987h.25v-1.994h-.25-.25v1.994zm0-3.987h.25v-1.994h-.25-.25v1.994zm0-3.987h.25v-1.994h-.25-.25v1.994zm0-3.988h.25v-1.993h-.25-.25v1.993zm0-3.987h.25v-1.993h-.25-.25v1.993zm0-3.987h.25v-1.993h-.25-.25v1.993zm0-3.987h.25v-1.993h-.25-.25v1.993zm0-3.987h.25v-1.994h-.25-.25v1.994zm0-3.987h.25v-1.994h-.25-.25v1.994zm0-3.987h.25v-1.994h-.25-.25v1.994zm0-3.9875h.25v-1.9935h-.25-.25v1.9935zm0-3.9871h.25v-1.9936h-.25-.25v1.9936zm0-3.9871h.25v-1.9936h-.25-.25v1.9936zm0-3.9872h.25v-1.9935h-.25-.25v1.9935zm0-3.9871h.25v-1.9936h-.25-.25v1.9936zm0-3.9871h.25v-1.9936h-.25-.25v1.9936zm0-3.9872h.25v-1.9935h-.25-.25v1.9935zm0-3.9871h.25v-1.9936h-.25-.25v1.9936zm0-3.9872h.25v-1.9935h-.25-.25v1.9935zm0-3.9871h.25v-1.9936h-.25-.25v1.9936zm0-3.9872h.25v-1.9935h-.25-.25v1.9935zm0-3.9871h.25v-1.9936h-.25-.25v1.9936zm0-3.9872h.25v-1.9935h-.25-.25v1.9935zm0-3.9871h.25v-1.9936h-.25-.25v1.9936zm0-3.9872h.25v-1.9935h-.25-.25v1.9935zm0-3.9871h.25v-1.9936h-.25-.25v1.9936zm0-3.9872h.25v-1.9936h-.25-.25v1.9936zm0-3.9871h.25v-1.9936h-.25-.25v1.9936zm0-3.9872h.25v-.9968h-.25-.25v.9968z"/><path d="m93.6895 195.793c.7363 0 1.3333-.596 1.3333-1.333 0-.736-.597-1.333-1.3333-1.333-.7364 0-1.3334.597-1.3334 1.333 0 .737.597 1.333 1.3334 1.333zm0-167.4595c.7363 0 1.3333-.597 1.3333-1.3334 0-.7363-.597-1.3333-1.3333-1.3333-.7364 0-1.3334.597-1.3334 1.3333 0 .7364.597 1.3334 1.3334 1.3334zm0 166.1265h.25v-.997h-.25-.25v.997zm0-2.99h.25v-1.994h-.25-.25v1.994zm0-3.987h.25v-1.994h-.25-.25v1.994zm0-3.987h.25v-1.994h-.25-.25v1.994zm0-3.988h.25v-1.993h-.25-.25v1.993zm0-3.987h.25v-1.993h-.25-.25v1.993zm0-3.987h.25v-1.994h-.25-.25v1.994zm0-3.987h.25v-1.994h-.25-.25v1.994zm0-3.987h.25v-1.994h-.25-.25v1.994zm0-3.987h.25v-1.994h-.25-.25v1.994zm0-3.988h.25v-1.993h-.25-.25v1.993zm0-3.987h.25v-1.993h-.25-.25v1.993zm0-3.987h.25v-1.993h-.25-.25v1.993zm0-3.987h.25v-1.994h-.25-.25v1.994zm0-3.987h.25v-1.994h-.25-.25v1.994zm0-3.987h.25v-1.994h-.25-.25v1.994zm0-3.987h.25v-1.994h-.25-.25v1.994zm0-3.988h.25v-1.993h-.25-.25v1.993zm0-3.987h.25v-1.993h-.25-.25v1.993zm0-3.987h.25v-1.993h-.25-.25v1.993zm0-3.987h.25v-1.993h-.25-.25v1.993zm0-3.987h.25v-1.994h-.25-.25v1.994zm0-3.987h.25v-1.994h-.25-.25v1.994zm0-3.987h.25v-1.994h-.25-.25v1.994zm0-3.9875h.25v-1.9935h-.25-.25v1.9935zm0-3.9871h.25v-1.9936h-.25-.25v1.9936zm0-3.9871h.25v-1.9936h-.25-.25v1.9936zm0-3.9872h.25v-1.9935h-.25-.25v1.9935zm0-3.9871h.25v-1.9936h-.25-.25v1.9936zm0-3.9871h.25v-1.9936h-.25-.25v1.9936zm0-3.9872h.25v-1.9935h-.25-.25v1.9935zm0-3.9871h.25v-1.9936h-.25-.25v1.9936zm0-3.9872h.25v-1.9935h-.25-.25v1.9935zm0-3.9871h.25v-1.9936h-.25-.25v1.9936zm0-3.9872h.25v-1.9935h-.25-.25v1.9935zm0-3.9871h.25v-1.9936h-.25-.25v1.9936zm0-3.9872h.25v-1.9935h-.25-.25v1.9935zm0-3.9871h.25v-1.9936h-.25-.25v1.9936zm0-3.9872h.25v-1.9935h-.25-.25v1.9935zm0-3.9871h.25v-1.9936h-.25-.25v1.9936zm0-3.9872h.25v-1.9936h-.25-.25v1.9936zm0-3.9871h.25v-1.9936h-.25-.25v1.9936zm0-3.9872h.25v-.9968h-.25-.25v.9968z"/><path d="m57.4707 195.793c.7364 0 1.3333-.596 1.3333-1.333 0-.736-.5969-1.333-1.3333-1.333s-1.3333.597-1.3333 1.333c0 .737.5969 1.333 1.3333 1.333zm0-167.4595c.7364 0 1.3333-.597 1.3333-1.3334 0-.7363-.5969-1.3333-1.3333-1.3333s-1.3333.597-1.3333 1.3333c0 .7364.5969 1.3334 1.3333 1.3334zm0 166.1265h.25v-.997h-.25-.25v.997zm0-2.99h.25v-1.994h-.25-.25v1.994zm0-3.987h.25v-1.994h-.25-.25v1.994zm0-3.987h.25v-1.994h-.25-.25v1.994zm0-3.988h.25v-1.993h-.25-.25v1.993zm0-3.987h.25v-1.993h-.25-.25v1.993zm0-3.987h.25v-1.994h-.25-.25v1.994zm0-3.987h.25v-1.994h-.25-.25v1.994zm0-3.987h.25v-1.994h-.25-.25v1.994zm0-3.987h.25v-1.994h-.25-.25v1.994zm0-3.988h.25v-1.993h-.25-.25v1.993zm0-3.987h.25v-1.993h-.25-.25v1.993zm0-3.987h.25v-1.993h-.25-.25v1.993zm0-3.987h.25v-1.994h-.25-.25v1.994zm0-3.987h.25v-1.994h-.25-.25v1.994zm0-3.987h.25v-1.994h-.25-.25v1.994zm0-3.987h.25v-1.994h-.25-.25v1.994zm0-3.988h.25v-1.993h-.25-.25v1.993zm0-3.987h.25v-1.993h-.25-.25v1.993zm0-3.987h.25v-1.993h-.25-.25v1.993zm0-3.987h.25v-1.993h-.25-.25v1.993zm0-3.987h.25v-1.994h-.25-.25v1.994zm0-3.987h.25v-1.994h-.25-.25v1.994zm0-3.987h.25v-1.994h-.25-.25v1.994zm0-3.9875h.25v-1.9935h-.25-.25v1.9935zm0-3.9871h.25v-1.9936h-.25-.25v1.9936zm0-3.9871h.25v-1.9936h-.25-.25v1.9936zm0-3.9872h.25v-1.9935h-.25-.25v1.9935zm0-3.9871h.25v-1.9936h-.25-.25v1.9936zm0-3.9871h.25v-1.9936h-.25-.25v1.9936zm0-3.9872h.25v-1.9935h-.25-.25v1.9935zm0-3.9871h.25v-1.9936h-.25-.25v1.9936zm0-3.9872h.25v-1.9935h-.25-.25v1.9935zm0-3.9871h.25v-1.9936h-.25-.25v1.9936zm0-3.9872h.25v-1.9935h-.25-.25v1.9935zm0-3.9871h.25v-1.9936h-.25-.25v1.9936zm0-3.9872h.25v-1.9935h-.25-.25v1.9935zm0-3.9871h.25v-1.9936h-.25-.25v1.9936zm0-3.9872h.25v-1.9935h-.25-.25v1.9935zm0-3.9871h.25v-1.9936h-.25-.25v1.9936zm0-3.9872h.25v-1.9936h-.25-.25v1.9936zm0-3.9871h.25v-1.9936h-.25-.25v1.9936zm0-3.9872h.25v-.9968h-.25-.25v.9968z"/><path d="m203.967 25.6668c-.737 0-1.334.597-1.334 1.3334s.597 1.3333 1.334 1.3333c.736 0 1.333-.5969 1.333-1.3333s-.597-1.3334-1.333-1.3334zm0 167.4602c-.737 0-1.334.597-1.334 1.333 0 .737.597 1.334 1.334 1.334.736 0 1.333-.597 1.333-1.334 0-.736-.597-1.333-1.333-1.333zm0-166.1268h-.25v.9968h.25.25v-.9968zm0 2.9903h-.25v1.9936h.25.25v-1.9936zm0 3.9872h-.25v1.9936h.25.25v-1.9936zm0 3.9871h-.25v1.9936h.25.25v-1.9936zm0 3.9872h-.25v1.9935h.25.25v-1.9935zm0 3.9871h-.25v1.9936h.25.25v-1.9936zm0 3.9872h-.25v1.9935h.25.25v-1.9935zm0 3.9871h-.25v1.9936h.25.25v-1.9936zm0 3.9871h-.25v1.9936h.25.25v-1.9936zm0 3.9872h-.25v1.9936h.25.25v-1.9936zm0 3.9871h-.25v1.9936h.25.25v-1.9936zm0 3.9872h-.25v1.9935h.25.25v-1.9935zm0 3.9871h-.25v1.9936h.25.25v-1.9936zm0 3.9872h-.25v1.9935h.25.25v-1.9935zm0 3.9871h-.25v1.9936h.25.25v-1.9936zm0 3.9872h-.25v1.9935h.25.25v-1.9935zm0 3.9871h-.25v1.9936h.25.25v-1.9936zm0 3.9871h-.25v1.9936h.25.25v-1.9936zm0 3.9872h-.25v1.9935h.25.25v-1.9935zm0 3.987h-.25v1.994h.25.25v-1.994zm0 3.987h-.25v1.994h.25.25v-1.994zm0 3.987h-.25v1.994h.25.25v-1.994zm0 3.988h-.25v1.993h.25.25v-1.993zm0 3.987h-.25v1.993h.25.25v-1.993zm0 3.987h-.25v1.993h.25.25v-1.993zm0 3.987h-.25v1.993h.25.25v-1.993zm0 3.987h-.25v1.994h.25.25v-1.994zm0 3.987h-.25v1.994h.25.25v-1.994zm0 3.987h-.25v1.994h.25.25v-1.994zm0 3.987h-.25v1.994h.25.25v-1.994zm0 3.988h-.25v1.993h.25.25v-1.993zm0 3.987h-.25v1.993h.25.25v-1.993zm0 3.987h-.25v1.993h.25.25v-1.993zm0 3.987h-.25v1.994h.25.25v-1.994zm0 3.987h-.25v1.994h.25.25v-1.994zm0 3.987h-.25v1.994h.25.25v-1.994zm0 3.987h-.25v1.994h.25.25v-1.994zm0 3.988h-.25v1.993h.25.25v-1.993zm0 3.987h-.25v1.993h.25.25v-1.993zm0 3.987h-.25v1.994h.25.25v-1.994zm0 3.987h-.25v1.994h.25.25v-1.994zm0 3.987h-.25v1.994h.25.25v-1.994zm0 3.987h-.25v.997h.25.25v-.997z"/><path d="m146.1 25.6668c-.737 0-1.334.597-1.334 1.3334s.597 1.3333 1.334 1.3333c.736 0 1.333-.5969 1.333-1.3333s-.597-1.3334-1.333-1.3334zm0 167.4602c-.737 0-1.334.597-1.334 1.333 0 .737.597 1.334 1.334 1.334.736 0 1.333-.597 1.333-1.334 0-.736-.597-1.333-1.333-1.333zm0-166.1268h-.25v.9968h.25.25v-.9968zm0 2.9903h-.25v1.9936h.25.25v-1.9936zm0 3.9872h-.25v1.9936h.25.25v-1.9936zm0 3.9871h-.25v1.9936h.25.25v-1.9936zm0 3.9872h-.25v1.9935h.25.25v-1.9935zm0 3.9871h-.25v1.9936h.25.25v-1.9936zm0 3.9872h-.25v1.9935h.25.25v-1.9935zm0 3.9871h-.25v1.9936h.25.25v-1.9936zm0 3.9871h-.25v1.9936h.25.25v-1.9936zm0 3.9872h-.25v1.9936h.25.25v-1.9936zm0 3.9871h-.25v1.9936h.25.25v-1.9936zm0 3.9872h-.25v1.9935h.25.25v-1.9935zm0 3.9871h-.25v1.9936h.25.25v-1.9936zm0 3.9872h-.25v1.9935h.25.25v-1.9935zm0 3.9871h-.25v1.9936h.25.25v-1.9936zm0 3.9872h-.25v1.9935h.25.25v-1.9935zm0 3.9871h-.25v1.9936h.25.25v-1.9936zm0 3.9871h-.25v1.9936h.25.25v-1.9936zm0 3.9872h-.25v1.9935h.25.25v-1.9935zm0 3.987h-.25v1.994h.25.25v-1.994zm0 3.987h-.25v1.994h.25.25v-1.994zm0 3.987h-.25v1.994h.25.25v-1.994zm0 3.988h-.25v1.993h.25.25v-1.993zm0 3.987h-.25v1.993h.25.25v-1.993zm0 3.987h-.25v1.993h.25.25v-1.993zm0 3.987h-.25v1.993h.25.25v-1.993zm0 3.987h-.25v1.994h.25.25v-1.994zm0 3.987h-.25v1.994h.25.25v-1.994zm0 3.987h-.25v1.994h.25.25v-1.994zm0 3.987h-.25v1.994h.25.25v-1.994zm0 3.988h-.25v1.993h.25.25v-1.993zm0 3.987h-.25v1.993h.25.25v-1.993zm0 3.987h-.25v1.993h.25.25v-1.993zm0 3.987h-.25v1.994h.25.25v-1.994zm0 3.987h-.25v1.994h.25.25v-1.994zm0 3.987h-.25v1.994h.25.25v-1.994zm0 3.987h-.25v1.994h.25.25v-1.994zm0 3.988h-.25v1.993h.25.25v-1.993zm0 3.987h-.25v1.993h.25.25v-1.993zm0 3.987h-.25v1.994h.25.25v-1.994zm0 3.987h-.25v1.994h.25.25v-1.994zm0 3.987h-.25v1.994h.25.25v-1.994zm0 3.987h-.25v.997h.25.25v-.997z"/><path d="m84.5332 25.6668c-.7364 0-1.3333.597-1.3333 1.3334s.5969 1.3333 1.3333 1.3333 1.3333-.5969 1.3333-1.3333-.5969-1.3334-1.3333-1.3334zm0 167.4602c-.7364 0-1.3333.597-1.3333 1.333 0 .737.5969 1.334 1.3333 1.334s1.3333-.597 1.3333-1.334c0-.736-.5969-1.333-1.3333-1.333zm0-166.1268h-.25v.9968h.25.25v-.9968zm0 2.9903h-.25v1.9936h.25.25v-1.9936zm0 3.9872h-.25v1.9936h.25.25v-1.9936zm0 3.9871h-.25v1.9936h.25.25v-1.9936zm0 3.9872h-.25v1.9935h.25.25v-1.9935zm0 3.9871h-.25v1.9936h.25.25v-1.9936zm0 3.9872h-.25v1.9935h.25.25v-1.9935zm0 3.9871h-.25v1.9936h.25.25v-1.9936zm0 3.9871h-.25v1.9936h.25.25v-1.9936zm0 3.9872h-.25v1.9936h.25.25v-1.9936zm0 3.9871h-.25v1.9936h.25.25v-1.9936zm0 3.9872h-.25v1.9935h.25.25v-1.9935zm0 3.9871h-.25v1.9936h.25.25v-1.9936zm0 3.9872h-.25v1.9935h.25.25v-1.9935zm0 3.9871h-.25v1.9936h.25.25v-1.9936zm0 3.9872h-.25v1.9935h.25.25v-1.9935zm0 3.9871h-.25v1.9936h.25.25v-1.9936zm0 3.9871h-.25v1.9936h.25.25v-1.9936zm0 3.9872h-.25v1.9935h.25.25v-1.9935zm0 3.987h-.25v1.994h.25.25v-1.994zm0 3.987h-.25v1.994h.25.25v-1.994zm0 3.987h-.25v1.994h.25.25v-1.994zm0 3.988h-.25v1.993h.25.25v-1.993zm0 3.987h-.25v1.993h.25.25v-1.993zm0 3.987h-.25v1.993h.25.25v-1.993zm0 3.987h-.25v1.993h.25.25v-1.993zm0 3.987h-.25v1.994h.25.25v-1.994zm0 3.987h-.25v1.994h.25.25v-1.994zm0 3.987h-.25v1.994h.25.25v-1.994zm0 3.987h-.25v1.994h.25.25v-1.994zm0 3.988h-.25v1.993h.25.25v-1.993zm0 3.987h-.25v1.993h.25.25v-1.993zm0 3.987h-.25v1.993h.25.25v-1.993zm0 3.987h-.25v1.994h.25.25v-1.994zm0 3.987h-.25v1.994h.25.25v-1.994zm0 3.987h-.25v1.994h.25.25v-1.994zm0 3.987h-.25v1.994h.25.25v-1.994zm0 3.988h-.25v1.993h.25.25v-1.993zm0 3.987h-.25v1.993h.25.25v-1.993zm0 3.987h-.25v1.994h.25.25v-1.994zm0 3.987h-.25v1.994h.25.25v-1.994zm0 3.987h-.25v1.994h.25.25v-1.994zm0 3.987h-.25v.997h.25.25v-.997z"/></g></svg>