<svg fill="none" height="755" viewBox="0 0 966 755" width="966" xmlns="http://www.w3.org/2000/svg" xmlns:xlink="http://www.w3.org/1999/xlink"><filter id="a" color-interpolation-filters="sRGB" filterUnits="userSpaceOnUse" height="172.357" width="269.619" x="590.758" y="546.322"><feFlood flood-opacity="0" result="BackgroundImageFix"/><feColorMatrix in="SourceAlpha" result="hardAlpha" type="matrix" values="0 0 0 0 0 0 0 0 0 0 0 0 0 0 0 0 0 0 127 0"/><feOffset/><feGaussianBlur stdDeviation="7"/><feComposite in2="hardAlpha" operator="out"/><feColorMatrix type="matrix" values="0 0 0 0 0 0 0 0 0 0 0 0 0 0 0 0 0 0 1 0"/><feBlend in2="BackgroundImageFix" mode="normal" result="effect1_dropShadow_132_80"/><feBlend in="SourceGraphic" in2="effect1_dropShadow_132_80" mode="normal" result="shape"/></filter><linearGradient id="b" gradientUnits="userSpaceOnUse" x1="712.042" x2="712.042" y1="305.322" y2="357.816"><stop offset="0" stop-color="#fc0"/><stop offset="1" stop-color="#ff5e00"/></linearGradient><clipPath id="c"><path d="m0 0h966v755h-966z"/></clipPath><g clip-path="url(#c)"><path d="m0 0h478v245h-478z" fill="#e5e5e5"/><path d="m0 0h15.4643v17.5332h-15.4643z" fill="#ff1e1e"/><path d="m5.96485 12.7666h-1.08l2.3-3.52-2.27-3.48h1.08l1.73 2.65 1.74-2.65h1.07995l-2.27995 3.48 2.30995 3.52h-1.07995l-1.77-2.7z" fill="#fff"/><path d="m0 0h165.464v17.5332h-165.464z" fill="#eee" transform="translate(15.4648)"/><path d="m22.417 5.7666h1.23l2.41 7h-.99l-.56-1.7h-2.9l-.54 1.7h-.98zm-.55 4.49h2.38l-1.21-3.65zm4.1766-3.09h.98l1.51 4.85 1.52-4.85h.98l-1.85 5.6h-1.29zm8.3792 5.76c-1.73 0-2.86-1.22-2.86-2.95 0-1.74 1.13-2.97 2.86-2.97s2.86 1.23 2.86 2.97c0 1.73-1.13 2.95-2.86 2.95zm0-.83c1.16 0 1.92-.82 1.92-2.12 0-1.32-.76-2.14-1.92-2.14s-1.93.82-1.93 2.14c0 1.3.77 2.12 1.93 2.12zm3.9325-6.83h1.05v1.08h-1.05zm.07 1.9h.91v5.6h-.91zm4.5833 5.76c-1.52 0-2.52-1.22-2.52-2.95 0-1.74 1-2.97 2.52-2.97.91 0 1.54.44 1.9 1.14v-2.88h.9v7.5h-.9v-.96c-.34.67-.96 1.12-1.9 1.12zm.1-.83c1.2 0 1.8-.89 1.8-2.12 0-1.24-.6-2.14-1.8-2.14-1.02 0-1.69.82-1.69 2.14 0 1.3.67 2.12 1.69 2.12zm10.1586-2.12v-2.81h.9v5.6h-.9v-.96c-.25.57-.81 1.12-1.88 1.12-1.08 0-1.9-.6-1.9-2.31v-3.45h.9v3.32c0 1.03.3 1.65 1.21 1.65.9 0 1.67-.83 1.67-2.16zm2.9353 1.02c.06.75.7 1.16 1.52 1.16.8 0 1.33-.31 1.33-.96 0-1.3-3.66-.23-3.66-2.47 0-.9.88-1.72 2.25-1.72 1.21 0 2.22.78 2.22 1.92h-.83c-.05-.76-.66-1.15-1.43-1.15-.87 0-1.32.4-1.32.95 0 1.42 3.67.26 3.67 2.47 0 1.06-.87 1.73-2.28 1.73-1.32 0-2.31-.83-2.35-1.93zm4.8676-5.73h1.05v1.08h-1.05zm.07 1.9h.91v5.6h-.91zm2.3026 0h.9v.95c.25-.57.81-1.11 1.89-1.11s1.89.6 1.89 2.31v3.45h-.9v-3.32c0-1.04-.3-1.65-1.21-1.65-.9 0-1.67.82-1.67 2.15v2.82h-.9zm8.3061 5.56c-1.52 0-2.52-1.12-2.52-2.85 0-1.74 1-2.87 2.52-2.87.91 0 1.54.38 1.9 1.06v-.9h.9v5.3c0 1.58-.98 2.46-2.43 2.46-1.78 0-2.44-.97-2.6-1.92h.94c.13.72.7 1.09 1.66 1.09.98 0 1.53-.51 1.53-1.63v-.77c-.35.63-.96 1.03-1.9 1.03zm.1-.83c1.2 0 1.8-.79 1.8-2.02 0-1.24-.6-2.04-1.8-2.04-1.02 0-1.69.72-1.69 2.04 0 1.3.67 2.02 1.69 2.02zm9.0291 1.03c-1.73 0-2.86-1.22-2.86-2.95 0-1.74 1.13-2.97 2.86-2.97s2.86 1.23 2.86 2.97c0 1.73-1.13 2.95-2.86 2.95zm0-.83c1.16 0 1.92-.82 1.92-2.12 0-1.32-.76-2.14-1.92-2.14s-1.93.82-1.93 2.14c0 1.3.77 2.12 1.93 2.12zm4.2241.67v-4.83h-.64v-.77h.64v-.63c0-.7.42-1.27 1.43-1.27h1.04v.77h-1.03c-.36 0-.54.17-.54.5v.63h1.38v.77h-1.38v4.83zm3.9941 0v-4.83h-.64v-.77h.64v-.63c0-.7.42-1.27 1.43-1.27h1.04v.77h-1.03c-.36 0-.54.17-.54.5v.63h1.38v.77h-1.38v4.83zm3.0857-3.59h3.15v.77h-3.15zm4.3375 3.59v-7.5h.9v2.87c.36-.7.99-1.13 1.9-1.13 1.5197 0 2.5197 1.23 2.5197 2.97 0 1.73-1 2.95-2.5197 2.95-.94 0-1.55-.43-1.9-1.1v.94zm2.7-.67c1.0197 0 1.6897-.82 1.6897-2.12 0-1.32-.67-2.14-1.6897-2.14-1.19 0-1.8.9-1.8 2.14 0 1.23.61 2.12 1.8 2.12zm4.6257-2.37v3.04h-.9v-5.6h.9v.97c.22-.58.75-1.13 1.92-1.13v.93c-1.19 0-1.92.46-1.92 1.79zm4.935-2.72c1.5 0 2.27.99 2.27 2.56v3.2h-.91v-.81c-.3.6-.83.97-1.69.97-1.1 0-1.96-.63-1.96-1.75 0-1.76 1.95-1.97 3.64-1.86-.06-.93-.47-1.49-1.35-1.49-.94 0-1.44.58-1.44 1.31h-.96c0-1.1.84-2.13 2.4-2.13zm-1.34 4.12c0 .67.42 1.02 1.22 1.02.92 0 1.48-.68 1.48-1.59v-.56c-1.8-.14-2.7.37-2.7 1.13zm4.889-3.96h.9v.95c.25-.57.81-1.11 1.89-1.11s1.89.6 1.89 2.31v3.45h-.9v-3.32c0-1.04-.3-1.65-1.21-1.65-.9 0-1.67.82-1.67 2.15v2.82h-.9zm8.287 5.76c-1.52 0-2.52-1.22-2.52-2.95 0-1.74 1-2.97 2.52-2.97.91 0 1.54.44 1.9 1.14v-2.88h.9v7.5h-.9v-.96c-.34.67-.96 1.12-1.9 1.12zm.1-.83c1.2 0 1.8-.89 1.8-2.12 0-1.24-.6-2.14-1.8-2.14-1.02 0-1.69.82-1.69 2.14 0 1.3.67 2.12 1.69 2.12zm6.149-4.93h.94v-1.4h.9v1.4h1.11v.77h-1.11v3.41c0 .46.22.65.62.65h.65v.77h-.66c-1.01 0-1.51-.57-1.51-1.42v-3.41h-.94zm4.325 7.6v-.77h.67c.76 0 .9-.55 1.14-1.23h-.39l-1.85-5.6h.98l1.5 4.82 1.53-4.82h.98l-1.85 5.6c-.44 1.38-.81 2-2.03 2zm5.573 0v-7.6h.9v.98c.36-.7.99-1.14 1.9-1.14 1.52 0 2.52 1.23 2.52 2.97 0 1.73-1 2.95-2.52 2.95-.94 0-1.56-.45-1.9-1.12v2.96zm2.7-2.67c1.02 0 1.69-.82 1.69-2.12 0-1.32-.67-2.14-1.69-2.14-1.19 0-1.8.9-1.8 2.14 0 1.23.61 2.12 1.8 2.12zm6.356.83c-1.73 0-2.86-1.22-2.86-2.95 0-1.74 1.13-2.97 2.86-2.97 1.52 0 2.74 1.2 2.56 3.27h-4.47c.1 1.07.76 1.82 1.91 1.82.9 0 1.39-.48 1.59-1.1h.96c-.28 1.15-1.19 1.93-2.55 1.93zm0-5.09c-1.09 0-1.73.67-1.89 1.65h3.57c-.1-.96-.7-1.65-1.68-1.65zm3.961 4.93v-4.83h-.64v-.77h.64v-.63c0-.7.42-1.27 1.43-1.27h1.04v.77h-1.03c-.36 0-.54.17-.54.5v.63h1.38v.77h-1.38v4.83zm5.484-5.76c1.5 0 2.27.99 2.27 2.56v3.2h-.91v-.81c-.3.6-.83.97-1.69.97-1.1 0-1.96-.63-1.96-1.75 0-1.76 1.95-1.97 3.64-1.86-.06-.93-.47-1.49-1.35-1.49-.94 0-1.44.58-1.44 1.31h-.96c0-1.1.84-2.13 2.4-2.13zm-1.34 4.12c0 .67.42 1.02 1.22 1.02.92 0 1.48-.68 1.48-1.59v-.56c-1.8-.14-2.7.37-2.7 1.13zm10.17-.71c-.08 1.45-1.05 2.51-2.63 2.51-1.73 0-2.86-1.22-2.86-2.95 0-1.74 1.13-2.97 2.86-2.97 1.52 0 2.53 1.13 2.61 2.36h-.95c-.07-.76-.57-1.53-1.66-1.53-1.26 0-1.93.9-1.93 2.14 0 1.23.67 2.11 1.93 2.11 1.17 0 1.63-.81 1.7-1.67zm3.717 2.51c-1.73 0-2.86-1.22-2.86-2.95 0-1.74 1.13-2.97 2.86-2.97 1.52 0 2.74 1.2 2.56 3.27h-4.47c.1 1.07.76 1.82 1.91 1.82.9 0 1.39-.48 1.59-1.1h.96c-.28 1.15-1.19 1.93-2.55 1.93zm0-5.09c-1.09 0-1.73.67-1.89 1.65h3.57c-.1-.96-.7-1.65-1.68-1.65zm4.417 3.16c.06.75.7 1.16 1.52 1.16.8 0 1.33-.31 1.33-.96 0-1.3-3.66-.23-3.66-2.47 0-.9.88-1.72 2.25-1.72 1.21 0 2.22.78 2.22 1.92h-.83c-.05-.76-.66-1.15-1.43-1.15-.87 0-1.32.4-1.32.95 0 1.42 3.67.26 3.67 2.47 0 1.06-.87 1.73-2.28 1.73-1.32 0-2.31-.83-2.35-1.93z" fill="#201c1d"/><path d="m116.758 89.6914h228.569v52.4936h-228.569z" fill="#ff5e00"/><path d="m116.758 50.3223h205.048v52.4937h-205.048z" fill="#ff5e00"/><path d="m131.198 87.0449v-26.785h3.544v13.2829l13.301-13.2829h4.806l-11.237 10.8529 11.73 15.9321h-4.677l-9.538-13.5569-4.385 4.2753v9.2816zm23.935 0v-19.4036h2.96v2.7589c1.425-2.1316 3.484-3.1974 6.176-3.1974 1.169 0 2.241.2132 3.215.6395.987.4141 1.724.9622 2.211 1.6444.487.6821.828 1.4921 1.023 2.43.122.609.183 1.6748.183 3.1974v11.9308h-3.289v-11.8029c0-1.3399-.128-2.3387-.384-2.9964-.255-.67-.712-1.1998-1.37-1.5896-.645-.402-1.407-.6029-2.284-.6029-1.4 0-2.612.4445-3.636 1.3337-1.011.8892-1.516 2.5762-1.516 5.061v10.5971zm18.856-9.7018c0-3.5932.999-6.2547 2.997-7.9843 1.669-1.4373 3.703-2.156 6.102-2.156 2.668 0 4.848.877 6.541 2.631 1.693 1.7418 2.54 4.1536 2.54 7.2353 0 2.497-.378 4.4641-1.133 5.9014-.743 1.4252-1.833 2.5336-3.27 3.3253-1.426.7918-2.985 1.1876-4.678 1.1876-2.716 0-4.915-.8709-6.596-2.6127-1.668-1.7418-2.503-4.251-2.503-7.5276zm3.38 0c0 2.4848.543 4.3485 1.627 5.5909 1.084 1.2302 2.448 1.8453 4.092 1.8453 1.632 0 2.991-.6212 4.075-1.8636s1.626-3.1365 1.626-5.6822c0-2.3996-.548-4.2145-1.645-5.4447-1.084-1.2424-2.436-1.8636-4.056-1.8636-1.644 0-3.008.6151-4.092 1.8453s-1.627 3.0878-1.627 5.5726zm21.506 9.7018-5.938-19.4036h3.398l3.088 11.2 1.151 4.1658c.049-.2071.384-1.5409 1.005-4.0013l3.088-11.3645h3.38l2.905 11.2548.968 3.709 1.115-3.7455 3.325-11.2183h3.198l-6.066 19.4036h-3.417l-3.088-11.6202-.749-3.307-3.928 14.9272zm22.638 0v-26.785h3.289v26.785zm20.939-6.2486 3.399.4202c-.536 1.9855-1.529 3.5263-2.978 4.6225-1.45 1.0963-3.301 1.6444-5.555 1.6444-2.838 0-5.091-.8709-6.76-2.6127-1.656-1.754-2.485-4.2084-2.485-7.3631 0-3.2644.841-5.798 2.522-7.6007s3.861-2.7041 6.541-2.7041c2.594 0 4.713.8831 6.358 2.6493 1.644 1.7662 2.466 4.251 2.466 7.4545 0 .1949-.006.4872-.018.877h-14.47c.121 2.1316.724 3.7638 1.808 4.8966 1.084 1.1327 2.437 1.6991 4.057 1.6991 1.205 0 2.235-.3167 3.087-.95.853-.6334 1.529-1.6444 2.028-3.033zm-10.798-5.3168h10.835c-.146-1.6322-.56-2.8564-1.243-3.6724-1.047-1.2668-2.405-1.9002-4.074-1.9002-1.51 0-2.783.5055-3.819 1.5165-1.023 1.011-1.589 2.363-1.699 4.0561zm30.184 11.5654v-2.4483c-1.23 1.9246-3.039 2.8868-5.426 2.8868-1.547 0-2.972-.4263-4.275-1.2789-1.291-.8527-2.296-2.0403-3.015-3.5628-.707-1.5348-1.06-3.2949-1.06-5.2803 0-1.9367.323-3.6907.969-5.262.645-1.5835 1.614-2.7955 2.905-3.6359 1.291-.8405 2.734-1.2607 4.33-1.2607 1.169 0 2.211.2497 3.124.7491.914.4872 1.657 1.1267 2.229 1.9184v-9.6104h3.271v26.785zm-10.396-9.6835c0 2.4848.524 4.3424 1.572 5.5726 1.047 1.2302 2.283 1.8453 3.709 1.8453 1.437 0 2.655-.5846 3.654-1.754 1.011-1.1815 1.516-2.9781 1.516-5.3899 0-2.6553-.511-4.6042-1.534-5.8466-1.024-1.2424-2.284-1.8636-3.783-1.8636-1.461 0-2.685.5968-3.672 1.7905-.974 1.1937-1.462 3.0756-1.462 5.6457zm17.285 11.2914 3.198.475c.134.9866.505 1.7053 1.114 2.156.816.609 1.931.9135 3.344.9135 1.522 0 2.698-.3045 3.526-.9135.828-.6091 1.389-1.4617 1.681-2.558.17-.6699.25-2.0767.237-4.2205-1.437 1.6931-3.227 2.5396-5.371 2.5396-2.668 0-4.732-.9622-6.194-2.8868-1.462-1.9245-2.192-4.2327-2.192-6.9246 0-1.8515.334-3.5567 1.004-5.1158.67-1.5713 1.639-2.7833 2.905-3.6359 1.279-.8527 2.778-1.279 4.495-1.279 2.29 0 4.178.9257 5.664 2.7772v-2.3387h3.033v16.7726c0 3.0208-.311 5.1585-.932 6.4131-.609 1.2668-1.583 2.2656-2.923 2.9964-1.328.7308-2.966 1.0962-4.915 1.0962-2.314 0-4.184-.5237-5.609-1.5712-1.425-1.0354-2.113-2.6006-2.065-4.6956zm2.723-11.6568c0 2.5457.505 4.4032 1.516 5.5726 1.011 1.1693 2.278 1.754 3.8 1.754 1.511 0 2.778-.5786 3.801-1.7358 1.023-1.1693 1.535-2.9964 1.535-5.4812 0-2.3752-.53-4.1658-1.59-5.3716-1.048-1.2059-2.314-1.8088-3.8-1.8088-1.462 0-2.704.5968-3.728 1.7905-1.023 1.1815-1.534 2.9416-1.534 5.2803zm31.243 3.8003 3.399.4202c-.536 1.9855-1.529 3.5263-2.978 4.6225-1.45 1.0963-3.301 1.6444-5.555 1.6444-2.838 0-5.091-.8709-6.76-2.6127-1.656-1.754-2.485-4.2084-2.485-7.3631 0-3.2644.841-5.798 2.522-7.6007s3.861-2.7041 6.541-2.7041c2.594 0 4.714.8831 6.358 2.6493s2.466 4.251 2.466 7.4545c0 .1949-.006.4872-.018.877h-14.47c.122 2.1316.724 3.7638 1.809 4.8966 1.084 1.1327 2.436 1.6991 4.056 1.6991 1.206 0 2.235-.3167 3.087-.95.853-.6334 1.529-1.6444 2.028-3.033zm-10.798-5.3168h10.835c-.146-1.6322-.56-2.8564-1.242-3.6724-1.048-1.2668-2.406-1.9002-4.075-1.9002-1.51 0-2.783.5055-3.818 1.5165-1.024 1.011-1.59 2.363-1.7 4.0561zm-148.383 50.5655v-2.448c-1.23 1.924-3.039 2.886-5.426 2.886-1.547 0-2.972-.426-4.276-1.279-1.291-.852-2.296-2.04-3.014-3.562-.707-1.535-1.06-3.295-1.06-5.281 0-1.936.323-3.69.968-5.262.646-1.583 1.614-2.795 2.905-3.636 1.292-.84 2.735-1.26 4.331-1.26 1.169 0 2.21.25 3.124.749.913.487 1.656 1.127 2.229 1.918v-9.6101h3.27v26.7851zm-10.396-9.684c0 2.485.524 4.343 1.571 5.573 1.048 1.23 2.284 1.845 3.709 1.845 1.438 0 2.656-.584 3.655-1.754 1.011-1.181 1.516-2.978 1.516-5.39 0-2.655-.512-4.604-1.535-5.846-1.023-1.243-2.284-1.864-3.782-1.864-1.461 0-2.686.597-3.672 1.791-.975 1.193-1.462 3.075-1.462 5.645zm16.664-.018c0-3.593.999-6.255 2.996-7.984 1.669-1.438 3.703-2.156 6.103-2.156 2.667 0 4.848.877 6.541 2.631 1.693 1.742 2.539 4.153 2.539 7.235 0 2.497-.377 4.464-1.133 5.902-.743 1.425-1.833 2.533-3.27 3.325-1.425.792-2.984 1.187-4.677 1.187-2.717 0-4.915-.87-6.596-2.612-1.669-1.742-2.503-4.251-2.503-7.528zm3.38 0c0 2.485.542 4.349 1.626 5.591 1.084 1.23 2.448 1.845 4.093 1.845 1.632 0 2.99-.621 4.074-1.863 1.084-1.243 1.626-3.137 1.626-5.683 0-2.399-.548-4.214-1.644-5.444-1.084-1.243-2.436-1.864-4.056-1.864-1.645 0-3.009.615-4.093 1.846-1.084 1.23-1.626 3.087-1.626 5.572zm31.207 3.453 3.399.421c-.536 1.985-1.529 3.526-2.979 4.622-1.449 1.096-3.3 1.644-5.554 1.644-2.838 0-5.091-.87-6.76-2.612-1.657-1.754-2.485-4.209-2.485-7.363 0-3.265.841-5.798 2.521-7.601 1.681-1.803 3.862-2.704 6.541-2.704 2.595 0 4.714.883 6.359 2.649 1.644 1.766 2.466 4.251 2.466 7.455 0 .194-.006.487-.018.877h-14.471c.122 2.131.725 3.763 1.809 4.896s2.436 1.699 4.056 1.699c1.206 0 2.236-.316 3.088-.95.853-.633 1.529-1.644 2.028-3.033zm-10.798-5.317h10.835c-.146-1.632-.561-2.856-1.243-3.672-1.047-1.267-2.405-1.9-4.074-1.9-1.51 0-2.783.505-3.819 1.516-1.023 1.011-1.589 2.363-1.699 4.056zm16.28 5.774 3.252-.512c.183 1.304.689 2.303 1.517 2.997.84.694 2.01 1.041 3.508 1.041 1.51 0 2.631-.304 3.362-.913.731-.621 1.096-1.346 1.096-2.174 0-.743-.323-1.328-.968-1.754-.451-.293-1.572-.664-3.362-1.115-2.412-.609-4.087-1.133-5.025-1.571-.925-.451-1.632-1.066-2.119-1.846-.475-.791-.713-1.662-.713-2.612 0-.865.195-1.663.585-2.394.402-.743.944-1.358 1.626-1.845.512-.378 1.206-.694 2.083-.95.889-.268 1.839-.402 2.85-.402 1.523 0 2.857.219 4.002.658 1.157.438 2.009 1.035 2.557 1.79.549.743.926 1.742 1.133 2.997l-3.215.438c-.147-.999-.573-1.778-1.279-2.339-.695-.56-1.681-.84-2.96-.84-1.511 0-2.589.25-3.234.749-.646.499-.969 1.084-.969 1.754 0 .426.134.81.402 1.151.268.353.689.646 1.261.877.329.122 1.297.402 2.905.841 2.327.621 3.947 1.132 4.86 1.534.926.39 1.651.963 2.174 1.718.524.755.786 1.693.786 2.813 0 1.097-.323 2.132-.968 3.106-.634.963-1.553 1.712-2.759 2.248-1.206.524-2.57.785-4.093.785-2.521 0-4.446-.523-5.773-1.571-1.316-1.047-2.156-2.6-2.522-4.659zm19.277 5.792v-19.404h2.96v2.759c1.425-2.131 3.483-3.197 6.175-3.197 1.169 0 2.241.213 3.216.639.986.414 1.723.963 2.21 1.645.488.682.829 1.492 1.024 2.43.121.609.182 1.675.182 3.197v11.931h-3.288v-11.803c0-1.34-.128-2.339-.384-2.996-.256-.67-.713-1.2-1.37-1.59-.646-.402-1.407-.603-2.284-.603-1.401 0-2.613.445-3.636 1.334-1.011.889-1.517 2.576-1.517 5.061v10.597zm19.879-23.241v-3.8182h3.526v3.0152c0 1.632-.188 2.807-.566 3.526-.524.986-1.34 1.729-2.448 2.229l-.804-1.297c.657-.268 1.145-.689 1.461-1.261.329-.585.512-1.383.548-2.394zm14.965 20.299.475 2.905c-.926.195-1.754.293-2.485.293-1.194 0-2.12-.189-2.777-.567-.658-.377-1.121-.871-1.389-1.48-.268-.621-.402-1.918-.402-3.891v-11.164h-2.412v-2.558h2.412v-4.805l3.271-1.9732v6.7782h3.307v2.558h-3.307v11.346c0 .938.054 1.541.164 1.809.122.268.311.481.566.64.268.158.646.237 1.133.237.366 0 .847-.042 1.444-.128zm12.078 2.942v-26.7851h3.289v26.7851zm6.432-9.702c0-3.593.999-6.255 2.997-7.984 1.668-1.438 3.702-2.156 6.102-2.156 2.668 0 4.848.877 6.541 2.631 1.693 1.742 2.54 4.153 2.54 7.235 0 2.497-.378 4.464-1.133 5.902-.743 1.425-1.833 2.533-3.271 3.325-1.425.792-2.984 1.187-4.677 1.187-2.716 0-4.915-.87-6.596-2.612-1.669-1.742-2.503-4.251-2.503-7.528zm3.38 0c0 2.485.542 4.349 1.626 5.591 1.084 1.23 2.449 1.845 4.093 1.845 1.632 0 2.99-.621 4.074-1.863 1.084-1.243 1.626-3.137 1.626-5.683 0-2.399-.548-4.214-1.644-5.444-1.084-1.243-2.436-1.864-4.056-1.864-1.644 0-3.009.615-4.093 1.846-1.084 1.23-1.626 3.087-1.626 5.572zm16.7 0c0-3.593.999-6.255 2.997-7.984 1.669-1.438 3.703-2.156 6.102-2.156 2.668 0 4.848.877 6.541 2.631 1.693 1.742 2.54 4.153 2.54 7.235 0 2.497-.378 4.464-1.133 5.902-.743 1.425-1.833 2.533-3.27 3.325-1.425.792-2.985 1.187-4.678 1.187-2.716 0-4.914-.87-6.595-2.612-1.669-1.742-2.504-4.251-2.504-7.528zm3.381 0c0 2.485.542 4.349 1.626 5.591 1.084 1.23 2.448 1.845 4.092 1.845 1.633 0 2.991-.621 4.075-1.863 1.084-1.243 1.626-3.137 1.626-5.683 0-2.399-.548-4.214-1.645-5.444-1.084-1.243-2.436-1.864-4.056-1.864-1.644 0-3.008.615-4.092 1.846-1.084 1.23-1.626 3.087-1.626 5.572zm17.924 17.138v-26.84h2.996v2.522c.707-.987 1.505-1.724 2.394-2.211.889-.499 1.967-.749 3.234-.749 1.656 0 3.118.426 4.385 1.279 1.267.852 2.223 2.058 2.868 3.617.646 1.547.969 3.247.969 5.098 0 1.985-.36 3.776-1.078 5.372-.707 1.583-1.742 2.801-3.106 3.654-1.352.84-2.777 1.26-4.276 1.26-1.096 0-2.083-.231-2.96-.694-.864-.463-1.577-1.047-2.137-1.754v9.446zm2.978-17.028c0 2.497.506 4.342 1.517 5.536 1.011 1.193 2.235 1.79 3.672 1.79 1.462 0 2.71-.615 3.746-1.845 1.047-1.242 1.571-3.161 1.571-5.755 0-2.473-.512-4.324-1.535-5.555-1.011-1.23-2.223-1.845-3.636-1.845-1.401 0-2.643.658-3.727 1.973-1.072 1.304-1.608 3.204-1.608 5.701zm18.034 9.592v-3.746h3.746v3.746z" fill="#201c1d"/><path d="m116.758 142.186h164.577v52.4934h-164.577z" fill="#fc0"/><path d="m131.947 178.91v-26.785h3.544v26.785zm15.823-2.941.475 2.905c-.926.195-1.754.292-2.485.292-1.193 0-2.119-.189-2.777-.566-.658-.378-1.121-.871-1.389-1.48-.267-.622-.401-1.919-.401-3.892v-11.164h-2.412v-2.557h2.412v-4.806l3.27-1.973v6.779h3.307v2.557h-3.307v11.347c0 .938.055 1.54.164 1.808.122.268.311.482.567.64.268.158.645.237 1.133.237.365 0 .846-.042 1.443-.127zm10.836-2.851 3.252-.511c.183 1.303.688 2.302 1.517 2.996.84.694 2.01 1.042 3.508 1.042 1.51 0 2.631-.305 3.362-.914.73-.621 1.096-1.346 1.096-2.174 0-.743-.323-1.328-.969-1.754-.45-.293-1.571-.664-3.361-1.115-2.412-.609-4.087-1.133-5.025-1.571-.926-.451-1.632-1.066-2.119-1.845-.475-.792-.713-1.663-.713-2.613 0-.865.195-1.663.585-2.394.402-.743.944-1.358 1.626-1.845.512-.378 1.206-.694 2.083-.95.889-.268 1.839-.402 2.85-.402 1.523 0 2.856.219 4.001.658 1.158.438 2.01 1.035 2.558 1.79.548.743.926 1.742 1.133 2.997l-3.216.438c-.146-.999-.572-1.778-1.279-2.338-.694-.561-1.68-.841-2.959-.841-1.511 0-2.589.25-3.234.749-.646.5-.969 1.084-.969 1.754 0 .427.134.81.402 1.151.268.354.688.646 1.261.877.329.122 1.297.402 2.905.841 2.327.621 3.947 1.133 4.86 1.534.926.39 1.651.963 2.174 1.718.524.755.786 1.693.786 2.814 0 1.096-.323 2.131-.968 3.106-.634.962-1.553 1.711-2.759 2.247-1.206.524-2.57.786-4.093.786-2.521 0-4.446-.524-5.774-1.572-1.315-1.047-2.155-2.6-2.521-4.659zm26.457 2.851.475 2.905c-.926.195-1.754.292-2.485.292-1.194 0-2.119-.189-2.777-.566-.658-.378-1.121-.871-1.389-1.48-.268-.622-.402-1.919-.402-3.892v-11.164h-2.411v-2.557h2.411v-4.806l3.271-1.973v6.779h3.307v2.557h-3.307v11.347c0 .938.055 1.54.164 1.808.122.268.311.482.567.64.268.158.645.237 1.133.237.365 0 .846-.042 1.443-.127zm15.147.548c-1.218 1.035-2.393 1.766-3.526 2.192-1.121.426-2.327.64-3.618.64-2.131 0-3.77-.518-4.915-1.553-1.144-1.048-1.717-2.382-1.717-4.002 0-.95.213-1.815.639-2.594.439-.792 1.005-1.425 1.7-1.9.706-.475 1.498-.835 2.375-1.078.645-.171 1.62-.335 2.923-.494 2.656-.316 4.611-.694 5.865-1.132.012-.451.018-.737.018-.859 0-1.34-.31-2.284-.931-2.832-.841-.743-2.089-1.115-3.746-1.115-1.547 0-2.692.274-3.435.823-.731.536-1.273 1.492-1.626 2.868l-3.216-.438c.293-1.377.774-2.485 1.444-3.326.67-.852 1.638-1.504 2.905-1.955 1.267-.463 2.734-.694 4.403-.694 1.657 0 3.003.195 4.038.585 1.035.389 1.797.883 2.284 1.48.487.584.828 1.327 1.023 2.229.11.56.164 1.571.164 3.033v4.385c0 3.057.067 4.994.201 5.81.147.804.427 1.577.841 2.32h-3.435c-.341-.682-.56-1.48-.658-2.393zm-.274-7.345c-1.194.487-2.984.901-5.371 1.242-1.353.195-2.309.414-2.869.658s-.993.603-1.297 1.078c-.305.463-.457.98-.457 1.553 0 .877.329 1.608.987 2.192.67.585 1.644.877 2.923.877 1.267 0 2.393-.274 3.38-.822.987-.56 1.711-1.321 2.174-2.284.354-.743.53-1.839.53-3.288zm20.355 2.631 3.234.42c-.354 2.229-1.261 3.977-2.723 5.244-1.449 1.254-3.234 1.882-5.353 1.882-2.656 0-4.793-.865-6.413-2.595-1.608-1.742-2.412-4.233-2.412-7.473 0-2.095.347-3.928 1.041-5.499.695-1.571 1.748-2.747 3.161-3.526 1.425-.792 2.972-1.188 4.641-1.188 2.107 0 3.831.536 5.171 1.608 1.34 1.06 2.198 2.57 2.576 4.531l-3.197.493c-.305-1.303-.847-2.284-1.627-2.941-.767-.658-1.699-.987-2.795-.987-1.657 0-3.003.597-4.038 1.791-1.035 1.181-1.553 3.057-1.553 5.627 0 2.607.5 4.501 1.498 5.682.999 1.182 2.302 1.773 3.91 1.773 1.291 0 2.369-.396 3.234-1.188s1.413-2.01 1.645-3.654zm5.317 7.107v-26.785h3.289v15.275l7.783-7.893h4.257l-7.418 7.198 8.167 12.205h-4.056l-6.413-9.921-2.32 2.229v7.692zm16.627-5.792 3.253-.511c.182 1.303.688 2.302 1.516 2.996.84.694 2.01 1.042 3.508 1.042 1.51 0 2.631-.305 3.362-.914.731-.621 1.096-1.346 1.096-2.174 0-.743-.323-1.328-.968-1.754-.451-.293-1.572-.664-3.362-1.115-2.412-.609-4.087-1.133-5.025-1.571-.925-.451-1.632-1.066-2.119-1.845-.475-.792-.713-1.663-.713-2.613 0-.865.195-1.663.585-2.394.402-.743.944-1.358 1.626-1.845.512-.378 1.206-.694 2.083-.95.889-.268 1.839-.402 2.85-.402 1.523 0 2.857.219 4.002.658 1.157.438 2.009 1.035 2.558 1.79.548.743.925 1.742 1.132 2.997l-3.215.438c-.146-.999-.573-1.778-1.279-2.338-.695-.561-1.681-.841-2.96-.841-1.511 0-2.589.25-3.234.749-.646.5-.968 1.084-.968 1.754 0 .427.134.81.402 1.151.267.354.688.646 1.26.877.329.122 1.297.402 2.905.841 2.327.621 3.947 1.133 4.86 1.534.926.39 1.651.963 2.175 1.718.523.755.785 1.693.785 2.814 0 1.096-.323 2.131-.968 3.106-.634.962-1.553 1.711-2.759 2.247-1.206.524-2.57.786-4.093.786-2.521 0-4.446-.524-5.773-1.572-1.316-1.047-2.156-2.6-2.522-4.659zm20.209 5.792v-3.745h3.745v3.745z" fill="#201c1d"/><path d="m0 0h478v245h-478z" fill="#e5e5e5" transform="translate(488)"/><path d="m0 0h15.4643v17.5332h-15.4643z" fill="#ff1e1e" transform="translate(488)"/><path d="m493.965 12.7666h-1.08l2.3-3.52-2.27-3.48h1.08l1.73 2.65 1.74-2.65h1.08l-2.28 3.48 2.31 3.52h-1.08l-1.77-2.7z" fill="#fff"/><path d="m0 0h153.464v17.5332h-153.464z" fill="#eee" transform="translate(503.465)"/><path d="m510.417 5.7666h1.23l2.41 7h-.99l-.56-1.7h-2.9l-.54 1.7h-.98zm-.55 4.49h2.38l-1.21-3.65zm4.177-3.09h.98l1.51 4.85 1.52-4.85h.98l-1.85 5.6h-1.29zm8.379 5.76c-1.73 0-2.86-1.22-2.86-2.95 0-1.74 1.13-2.97 2.86-2.97s2.86 1.23 2.86 2.97c0 1.73-1.13 2.95-2.86 2.95zm0-.83c1.16 0 1.92-.82 1.92-2.12 0-1.32-.76-2.14-1.92-2.14s-1.93.82-1.93 2.14c0 1.3.77 2.12 1.93 2.12zm3.932-6.83h1.05v1.08h-1.05zm.07 1.9h.91v5.6h-.91zm4.584 5.76c-1.52 0-2.52-1.22-2.52-2.95 0-1.74 1-2.97 2.52-2.97.91 0 1.54.44 1.9 1.14v-2.88h.9v7.5h-.9v-.96c-.34.67-.96 1.12-1.9 1.12zm.1-.83c1.2 0 1.8-.89 1.8-2.12 0-1.24-.6-2.14-1.8-2.14-1.02 0-1.69.82-1.69 2.14 0 1.3.67 2.12 1.69 2.12zm8.688-5.09c1.5 0 2.27.99 2.27 2.56v3.2h-.91v-.81c-.3.6-.83.97-1.69.97-1.1 0-1.96-.63-1.96-1.75 0-1.76 1.95-1.97 3.64-1.86-.06-.93-.47-1.49-1.35-1.49-.94 0-1.44.58-1.44 1.31h-.96c0-1.1.84-2.13 2.4-2.13zm-1.34 4.12c0 .67.42 1.02 1.22 1.02.92 0 1.48-.68 1.48-1.59v-.56c-1.8-.14-2.7.37-2.7 1.13zm4.89-5.86h.9v7.5h-.9zm2.237 0h1.05v1.08h-1.05zm.07 1.9h.91v5.6h-.91zm4.573 5.56c-1.52 0-2.52-1.12-2.52-2.85 0-1.74 1-2.87 2.52-2.87.91 0 1.54.38 1.9 1.06v-.9h.9v5.3c0 1.58-.98 2.46-2.43 2.46-1.78 0-2.44-.97-2.6-1.92h.94c.13.72.7 1.09 1.66 1.09.98 0 1.53-.51 1.53-1.63v-.77c-.35.63-.96 1.03-1.9 1.03zm.1-.83c1.2 0 1.8-.79 1.8-2.02 0-1.24-.6-2.04-1.8-2.04-1.02 0-1.69.72-1.69 2.04 0 1.3.67 2.02 1.69 2.02zm4.016-4.73h.9v.95c.25-.57.81-1.11 1.89-1.11s1.89.6 1.89 2.31v3.45h-.9v-3.32c0-1.04-.3-1.65-1.21-1.65-.9 0-1.67.82-1.67 2.15v2.82h-.9zm5.928-1.9h1.05v1.08h-1.05zm.07 1.9h.91v5.6h-.91zm2.303 0h.9v.95c.25-.57.81-1.11 1.89-1.11s1.89.6 1.89 2.31v3.45h-.9v-3.32c0-1.04-.3-1.65-1.21-1.65-.9 0-1.67.82-1.67 2.15v2.82h-.9zm8.306 5.56c-1.52 0-2.52-1.12-2.52-2.85 0-1.74 1-2.87 2.52-2.87.91 0 1.54.38 1.9 1.06v-.9h.9v5.3c0 1.58-.98 2.46-2.43 2.46-1.78 0-2.44-.97-2.6-1.92h.94c.13.72.7 1.09 1.66 1.09.98 0 1.53-.51 1.53-1.63v-.77c-.35.63-.96 1.03-1.9 1.03zm.1-.83c1.2 0 1.8-.79 1.8-2.02 0-1.24-.6-2.04-1.8-2.04-1.02 0-1.69.72-1.69 2.04 0 1.3.67 2.02 1.69 2.02zm6.129-4.73h.94v-1.4h.9v1.4h1.11v.77h-1.11v3.41c0 .46.22.65.62.65h.65v.77h-.66c-1.01 0-1.51-.57-1.51-1.42v-3.41h-.94zm6.582 5.76c-1.73 0-2.86-1.22-2.86-2.95 0-1.74 1.13-2.97 2.86-2.97 1.52 0 2.74 1.2 2.56 3.27h-4.47c.1 1.07.76 1.82 1.91 1.82.9 0 1.39-.48 1.59-1.1h.96c-.28 1.15-1.19 1.93-2.55 1.93zm0-5.09c-1.09 0-1.73.67-1.89 1.65h3.57c-.1-.96-.7-1.65-1.68-1.65zm3.086-.67h1.04l1.25 1.96 1.25-1.96h1.04l-1.77 2.78 1.8 2.82h-1.04l-1.28-2.01-1.28 2.01h-1.04l1.8-2.82zm5.4 0h.94v-1.4h.9v1.4h1.11v.77h-1.11v3.41c0 .46.22.65.62.65h.65v.77h-.66c-1.01 0-1.51-.57-1.51-1.42v-3.41h-.94zm6.397 0h.94v-1.4h.9v1.4h1.11v.77h-1.11v3.41c0 .46.22.65.62.65h.65v.77h-.66c-1.01 0-1.51-.57-1.51-1.42v-3.41h-.94zm6.582 5.76c-1.73 0-2.86-1.22-2.86-2.95 0-1.74 1.13-2.97 2.86-2.97s2.86 1.23 2.86 2.97c0 1.73-1.13 2.95-2.86 2.95zm0-.83c1.16 0 1.92-.82 1.92-2.12 0-1.32-.76-2.14-1.92-2.14s-1.93.82-1.93 2.14c0 1.3.77 2.12 1.93 2.12zm6.084-4.93h.94v-1.4h.9v1.4h1.11v.77h-1.11v3.41c0 .46.22.65.62.65h.65v.77h-.66c-1.01 0-1.51-.57-1.51-1.42v-3.41h-.94zm5.174 2.78v2.82h-.9v-7.5h.9v2.86c.25-.57.81-1.12 1.89-1.12s1.89.6 1.89 2.31v3.45h-.9v-3.32c0-1.04-.3-1.65-1.21-1.65-.9 0-1.67.82-1.67 2.15zm7.706 2.98c-1.73 0-2.86-1.22-2.86-2.95 0-1.74 1.13-2.97 2.86-2.97 1.52 0 2.74 1.2 2.56 3.27h-4.47c.1 1.07.76 1.82 1.91 1.82.9 0 1.39-.48 1.59-1.1h.96c-.28 1.15-1.19 1.93-2.55 1.93zm0-5.09c-1.09 0-1.73.67-1.89 1.65h3.57c-.1-.96-.7-1.65-1.68-1.65zm6.942 1.89v3.04h-.9v-5.6h.9v.97c.22-.58.75-1.13 1.92-1.13v.93c-1.19 0-1.92.46-1.92 1.79zm2.86-4.46h1.05v1.08h-1.05zm.07 1.9h.91v5.6h-.91zm4.574 5.56c-1.52 0-2.52-1.12-2.52-2.85 0-1.74 1-2.87 2.52-2.87.91 0 1.54.38 1.9 1.06v-.9h.9v5.3c0 1.58-.98 2.46-2.43 2.46-1.78 0-2.44-.97-2.6-1.92h.94c.13.72.7 1.09 1.66 1.09.98 0 1.53-.51 1.53-1.63v-.77c-.35.63-.96 1.03-1.9 1.03zm.1-.83c1.2 0 1.8-.79 1.8-2.02 0-1.24-.6-2.04-1.8-2.04-1.02 0-1.69.72-1.69 2.04 0 1.3.67 2.02 1.69 2.02zm4.916-1.95v2.82h-.9v-7.5h.9v2.86c.25-.57.81-1.12 1.89-1.12s1.89.6 1.89 2.31v3.45h-.9v-3.32c0-1.04-.3-1.65-1.21-1.65-.9 0-1.67.82-1.67 2.15zm4.64-2.78h.94v-1.4h.9v1.4h1.11v.77h-1.11v3.41c0 .46.22.65.62.65h.65v.77h-.66c-1.01 0-1.51-.57-1.51-1.42v-3.41h-.94z" fill="#201c1d"/><path d="m608.285 89.6914h237.432v52.4936h-237.432z" fill="#ff5e00"/><path d="m631.148 50.3223h214.568v52.4937h-214.568z" fill="#ff5e00"/><path d="m643.261 63.4983h3.443v14.6307l11.6-14.6307h4.228l-9.13 11.4876 9.804 14.7055h-4.416l-7.521-12.0114-4.565 5.7251v6.2863h-3.443zm22.468 5.2387h3.368v3.5547c.935-2.1328 3.031-4.1534 7.072-4.1534s7.072 2.2451 7.072 8.6437v12.9094h-3.368v-12.423c0-3.8915-1.122-6.1741-4.527-6.1741-3.368 0-6.249 3.0684-6.249 8.045v10.5521h-3.368zm31.11 21.5531c-6.473 0-10.701-4.5651-10.701-11.0385 0-6.5108 4.228-11.1133 10.701-11.1133 6.474 0 10.702 4.6025 10.702 11.1133 0 6.4734-4.228 11.0385-10.702 11.0385zm0-3.1057c4.341 0 7.185-3.0684 7.185-7.9328 0-4.9393-2.844-8.0076-7.185-8.0076-4.34 0-7.221 3.0683-7.221 8.0076 0 4.8644 2.881 7.9328 7.221 7.9328zm11.912-18.4474h3.629l3.817 17.0629 4.041-17.0629h3.78l4.003 17.0629 3.817-17.0629h3.667l-5.426 20.9544h-4.265l-3.705-15.7158-3.704 15.7158h-4.229zm29.552-7.1096h3.367v28.064h-3.367zm17.113 28.6627c-6.474 0-10.702-4.5651-10.702-11.0385 0-6.5108 4.228-11.1133 10.702-11.1133 5.687 0 10.252 4.4902 9.579 12.2359h-16.726c.374 4.0038 2.843 6.8102 7.147 6.8102 3.367 0 5.201-1.7961 5.949-4.1161h3.592c-1.047 4.3031-4.452 7.2218-9.541 7.2218zm0-19.0461c-4.079 0-6.474 2.5071-7.073 6.1741h13.359c-.374-3.5922-2.619-6.1741-6.286-6.1741zm21.2 19.0461c-5.687 0-9.429-4.5651-9.429-11.0385 0-6.5108 3.742-11.1133 9.429-11.1133 3.406 0 5.763 1.6464 7.11 4.2657v-10.7766h3.368v28.064h-3.368v-3.5922c-1.272 2.5071-3.592 4.1909-7.11 4.1909zm.375-3.1057c4.49 0 6.735-3.3303 6.735-7.9328 0-4.6399-2.245-8.0076-6.735-8.0076-3.817 0-6.324 3.0683-6.324 8.0076 0 4.8644 2.507 7.9328 6.324 7.9328zm22.61 2.3573c-5.687 0-9.429-4.1909-9.429-10.6643 0-6.5108 3.742-10.7391 9.429-10.7391 3.405 0 5.763 1.4219 7.11 3.9663v-3.3676h3.367v19.8318c0 5.9122-3.667 9.205-9.092 9.205-6.661 0-9.13-3.6296-9.729-7.1843h3.517c.487 2.6941 2.619 4.0786 6.212 4.0786 3.667 0 5.725-1.9084 5.725-6.0993v-2.8812c-1.31 2.3574-3.592 3.8541-7.11 3.8541zm.374-3.1057c4.491 0 6.736-2.9561 6.736-7.5586 0-4.6399-2.245-7.6334-6.736-7.6334-3.816 0-6.323 2.6942-6.323 7.6334 0 4.8644 2.507 7.5586 6.323 7.5586zm23.847 3.8541c-6.474 0-10.702-4.5651-10.702-11.0385 0-6.5108 4.228-11.1133 10.702-11.1133 5.687 0 10.252 4.4902 9.579 12.2359h-16.726c.374 4.0038 2.843 6.8102 7.147 6.8102 3.367 0 5.201-1.7961 5.949-4.1161h3.592c-1.047 4.3031-4.453 7.2218-9.541 7.2218zm0-19.0461c-4.079 0-6.474 2.5071-7.073 6.1741h13.359c-.374-3.5922-2.619-6.1741-6.286-6.1741zm-196.222 58.046c-5.688 0-9.43-4.565-9.43-11.038 0-6.511 3.742-11.114 9.43-11.114 3.405 0 5.762 1.647 7.109 4.266v-10.777h3.368v28.064h-3.368v-3.592c-1.272 2.507-3.592 4.191-7.109 4.191zm.374-3.106c4.49 0 6.735-3.33 6.735-7.932 0-4.64-2.245-8.008-6.735-8.008-3.817 0-6.324 3.068-6.324 8.008 0 4.864 2.507 7.932 6.324 7.932zm23.846 3.106c-6.473 0-10.702-4.565-10.702-11.038 0-6.511 4.229-11.114 10.702-11.114s10.702 4.603 10.702 11.114c0 6.473-4.229 11.038-10.702 11.038zm0-3.106c4.341 0 7.184-3.068 7.184-7.932 0-4.94-2.843-8.008-7.184-8.008s-7.222 3.068-7.222 8.008c0 4.864 2.881 7.932 7.222 7.932zm23.569 3.106c-6.473 0-10.701-4.565-10.701-11.038 0-6.511 4.228-11.114 10.701-11.114 5.688 0 10.253 4.491 9.58 12.236h-16.727c.375 4.004 2.844 6.81 7.147 6.81 3.368 0 5.202-1.796 5.95-4.116h3.592c-1.048 4.303-4.453 7.222-9.542 7.222zm0-19.046c-4.078 0-6.473 2.507-7.072 6.174h13.359c-.374-3.592-2.62-6.174-6.287-6.174zm15.393 11.824c.225 2.807 2.62 4.341 5.688 4.341 2.994 0 4.977-1.16 4.977-3.592 0-4.865-13.695-.861-13.695-9.243 0-3.367 3.292-6.436 8.419-6.436 4.527 0 8.307 2.919 8.307 7.185h-3.106c-.187-2.844-2.47-4.304-5.351-4.304-3.255 0-4.939 1.497-4.939 3.555 0 5.314 13.732.973 13.732 9.243 0 3.966-3.255 6.473-8.531 6.473-4.939 0-8.644-3.106-8.793-7.222zm17.299-14.331h3.368v3.555c.935-2.133 3.031-4.154 7.072-4.154s7.072 2.245 7.072 8.644v12.909h-3.368v-12.423c0-3.891-1.122-6.174-4.527-6.174-3.368 0-6.249 3.069-6.249 8.045v10.552h-3.368zm17.855-7.11h4.078v4.042c0 2.02-1.234 3.068-3.143 3.068v-1.796c.861 0 1.16-.449 1.16-1.272h-2.095zm5.254 7.11h3.517v-5.239h3.368v5.239h4.153v2.881h-4.153v12.76c0 1.721.823 2.432 2.32 2.432h2.432v2.881h-2.469c-3.78 0-5.651-2.132-5.651-5.313v-12.76h-3.517zm22.497-7.11h3.367v28.064h-3.367zm17.113 28.663c-6.474 0-10.702-4.565-10.702-11.038 0-6.511 4.228-11.114 10.702-11.114 6.473 0 10.701 4.603 10.701 11.114 0 6.473-4.228 11.038-10.701 11.038zm0-3.106c4.34 0 7.184-3.068 7.184-7.932 0-4.94-2.844-8.008-7.184-8.008-4.341 0-7.222 3.068-7.222 8.008 0 4.864 2.881 7.932 7.222 7.932zm23.569 3.106c-6.473 0-10.702-4.565-10.702-11.038 0-6.511 4.229-11.114 10.702-11.114s10.702 4.603 10.702 11.114c0 6.473-4.229 11.038-10.702 11.038zm0-3.106c4.341 0 7.184-3.068 7.184-7.932 0-4.94-2.843-8.008-7.184-8.008s-7.222 3.068-7.222 8.008c0 4.864 2.881 7.932 7.222 7.932zm13.728 9.991v-28.438h3.368v3.667c1.347-2.619 3.704-4.266 7.109-4.266 5.688 0 9.43 4.603 9.43 11.114 0 6.473-3.742 11.038-9.43 11.038-3.517 0-5.837-1.684-7.109-4.191v11.076zm10.103-9.991c3.817 0 6.324-3.068 6.324-7.932 0-4.94-2.507-8.008-6.324-8.008-4.453 0-6.735 3.368-6.735 8.008 0 4.602 2.282 7.932 6.735 7.932zm11.112-1.534h3.929v4.041h-3.929z" fill="#201c1d"/><path d="m677.258 142.186h168.459v52.4934h-168.459z" fill="#fc0"/><path d="m688.281 154.711h3.442v26.193h-3.442zm6.587 5.239h3.517v-5.239h3.368v5.239h4.153v2.881h-4.153v12.76c0 1.721.823 2.432 2.32 2.432h2.432v2.881h-2.47c-3.779 0-5.65-2.133-5.65-5.313v-12.76h-3.517zm24.929 14.331c.224 2.807 2.619 4.341 5.687 4.341 2.994 0 4.977-1.16 4.977-3.592 0-4.865-13.695-.861-13.695-9.243 0-3.368 3.292-6.436 8.419-6.436 4.527 0 8.307 2.919 8.307 7.185h-3.106c-.187-2.844-2.47-4.304-5.351-4.304-3.255 0-4.939 1.497-4.939 3.555 0 5.314 13.733.973 13.733 9.243 0 3.966-3.256 6.473-8.532 6.473-4.939 0-8.644-3.106-8.793-7.222zm15.595-14.331h3.518v-5.239h3.367v5.239h4.154v2.881h-4.154v12.76c0 1.721.823 2.432 2.32 2.432h2.432v2.881h-2.469c-3.779 0-5.65-2.133-5.65-5.313v-12.76h-3.518zm22.404-.599c5.613 0 8.494 3.705 8.494 9.579v11.974h-3.405v-3.031c-1.123 2.246-3.106 3.63-6.324 3.63-4.116 0-7.334-2.357-7.334-6.548 0-6.586 7.297-7.372 13.62-6.96-.224-3.48-1.758-5.576-5.051-5.576-3.518 0-5.389 2.171-5.389 4.902h-3.592c0-4.116 3.143-7.97 8.981-7.97zm-5.014 15.417c0 2.507 1.571 3.816 4.565 3.816 3.442 0 5.538-2.544 5.538-5.949v-2.096c-6.736-.524-10.103 1.385-10.103 4.229zm36.921-2.657c-.299 5.426-3.929 9.392-9.841 9.392-6.473 0-10.702-4.565-10.702-11.039 0-6.51 4.229-11.113 10.702-11.113 5.688 0 9.467 4.228 9.766 8.831h-3.555c-.261-2.844-2.132-5.725-6.211-5.725-4.715 0-7.222 3.368-7.222 8.007 0 4.603 2.507 7.896 7.222 7.896 4.378 0 6.099-3.031 6.361-6.249zm18.763-12.161-6.96 8.269 8.007 12.685h-3.966l-6.249-10.103-3.181 3.78v6.323h-3.367v-28.064h3.367v16.839l8.195-9.729zm4.877 14.331c.225 2.807 2.619 4.341 5.688 4.341 2.993 0 4.976-1.16 4.976-3.592 0-4.865-13.695-.861-13.695-9.243 0-3.368 3.293-6.436 8.419-6.436 4.528 0 8.307 2.919 8.307 7.185h-3.105c-.187-2.844-2.47-4.304-5.351-4.304-3.256 0-4.939 1.497-4.939 3.555 0 5.314 13.732.973 13.732 9.243 0 3.966-3.255 6.473-8.531 6.473-4.94 0-8.644-3.106-8.794-7.222zm15.969 2.582h3.929v4.041h-3.929z" fill="#201c1d"/><path d="m0 0h478v245h-478z" fill="#e5e5e5" transform="translate(0 255)"/><path d="m0 0h15.4643v17.5332h-15.4643z" fill="#ff1e1e" transform="translate(0 255)"/><path d="m5.96485 267.767h-1.08l2.3-3.52-2.27-3.48h1.08l1.73 2.65 1.74-2.65h1.07995l-2.27995 3.48 2.30995 3.52h-1.07995l-1.77-2.7z" fill="#fff"/><path d="m0 0h103.464v17.5332h-103.464z" fill="#eee" transform="translate(15.4648 255)"/><path d="m22.417 260.767h1.23l2.41 7h-.99l-.56-1.7h-2.9l-.54 1.7h-.98zm-.55 4.49h2.38l-1.21-3.65zm4.1766-3.09h.98l1.51 4.85 1.52-4.85h.98l-1.85 5.6h-1.29zm8.3792 5.76c-1.73 0-2.86-1.22-2.86-2.95 0-1.74 1.13-2.97 2.86-2.97s2.86 1.23 2.86 2.97c0 1.73-1.13 2.95-2.86 2.95zm0-.83c1.16 0 1.92-.82 1.92-2.12 0-1.32-.76-2.14-1.92-2.14s-1.93.82-1.93 2.14c0 1.3.77 2.12 1.93 2.12zm3.9325-6.83h1.05v1.08h-1.05zm.07 1.9h.91v5.6h-.91zm4.5833 5.76c-1.52 0-2.52-1.22-2.52-2.95 0-1.74 1-2.97 2.52-2.97.91 0 1.54.44 1.9 1.14v-2.88h.9v7.5h-.9v-.96c-.34.67-.96 1.12-1.9 1.12zm.1-.83c1.2 0 1.8-.89 1.8-2.12 0-1.24-.6-2.14-1.8-2.14-1.02 0-1.69.82-1.69 2.14 0 1.3.67 2.12 1.69 2.12zm10.1586-2.12v-2.81h.9v5.6h-.9v-.96c-.25.57-.81 1.12-1.88 1.12-1.08 0-1.9-.6-1.9-2.31v-3.45h.9v3.32c0 1.03.3 1.65 1.21 1.65.9 0 1.67-.83 1.67-2.16zm2.9353 1.02c.06.75.7 1.16 1.52 1.16.8 0 1.33-.31 1.33-.96 0-1.3-3.66-.23-3.66-2.47 0-.9.88-1.72 2.25-1.72 1.21 0 2.22.78 2.22 1.92h-.83c-.05-.76-.66-1.15-1.43-1.15-.87 0-1.32.4-1.32.95 0 1.42 3.67.26 3.67 2.47 0 1.06-.87 1.73-2.28 1.73-1.32 0-2.31-.83-2.35-1.93zm4.8676-5.73h1.05v1.08h-1.05zm.07 1.9h.91v5.6h-.91zm2.3026 0h.9v.95c.25-.57.81-1.11 1.89-1.11s1.89.6 1.89 2.31v3.45h-.9v-3.32c0-1.04-.3-1.65-1.21-1.65-.9 0-1.67.82-1.67 2.15v2.82h-.9zm8.3061 5.56c-1.52 0-2.52-1.12-2.52-2.85 0-1.74 1-2.87 2.52-2.87.91 0 1.54.38 1.9 1.06v-.9h.9v5.3c0 1.58-.98 2.46-2.43 2.46-1.78 0-2.44-.97-2.6-1.92h.94c.13.72.7 1.09 1.66 1.09.98 0 1.53-.51 1.53-1.63v-.77c-.35.63-.96 1.03-1.9 1.03zm.1-.83c1.2 0 1.8-.79 1.8-2.02 0-1.24-.6-2.04-1.8-2.04-1.02 0-1.69.72-1.69 2.04 0 1.3.67 2.02 1.69 2.02zm8.6691-4.89c1.5 0 2.27.99 2.27 2.56v3.2h-.91v-.81c-.3.6-.83.97-1.69.97-1.1 0-1.96-.63-1.96-1.75 0-1.76 1.95-1.97 3.64-1.86-.06-.93-.47-1.49-1.35-1.49-.94 0-1.44.58-1.44 1.31h-.96c0-1.1.84-2.13 2.4-2.13zm-1.34 4.12c0 .67.42 1.02 1.22 1.02.92 0 1.48-.68 1.48-1.59v-.56c-1.8-.14-2.7.37-2.7 1.13zm4.8903-5.86h.9v7.5h-.9zm2.2363 0h.9v7.5h-.9zm9.8791 5.15c-.08 1.45-1.05 2.51-2.63 2.51-1.73 0-2.86-1.22-2.86-2.95 0-1.74 1.13-2.97 2.86-2.97 1.52 0 2.53 1.13 2.61 2.36h-.95c-.07-.76-.57-1.53-1.66-1.53-1.26 0-1.93.9-1.93 2.14 0 1.23.67 2.11 1.93 2.11 1.17 0 1.63-.81 1.7-1.67zm3.3382-3.41c1.5002 0 2.2702.99 2.2702 2.56v3.2h-.91v-.81c-.3.6-.83.97-1.6902.97-1.1 0-1.96-.63-1.96-1.75 0-1.76 1.95-1.97 3.6402-1.86-.06-.93-.47-1.49-1.3502-1.49-.94 0-1.44.58-1.44 1.31h-.96c0-1.1.84-2.13 2.4-2.13zm-1.34 4.12c0 .67.42 1.02 1.22 1.02.9202 0 1.4802-.68 1.4802-1.59v-.56c-1.8002-.14-2.7002.37-2.7002 1.13zm4.8902 3.64v-7.6h.9v.98c.36-.7.99-1.14 1.9-1.14 1.52 0 2.52 1.23 2.52 2.97 0 1.73-1 2.95-2.52 2.95-.94 0-1.56-.45-1.9-1.12v2.96zm2.7-2.67c1.02 0 1.69-.82 1.69-2.12 0-1.32-.67-2.14-1.69-2.14-1.19 0-1.8.9-1.8 2.14 0 1.23.61 2.12 1.8 2.12zm4.425-1.1c.06.75.7 1.16 1.52 1.16.8 0 1.33-.31 1.33-.96 0-1.3-3.66-.23-3.66-2.47 0-.9.88-1.72 2.25-1.72 1.21 0 2.22.78 2.22 1.92h-.83c-.05-.76-.66-1.15-1.43-1.15-.87 0-1.32.4-1.32.95 0 1.42 3.67.26 3.67 2.47 0 1.06-.87 1.73-2.28 1.73-1.32 0-2.31-.83-2.35-1.93z" fill="#201c1d"/><path d="m100.676 344.691h280.507v52.494h-280.507z" fill="#ff5e00"/><path d="m100.676 305.322h246.381v52.494h-246.381z" fill="#ff5e00"/><path d="m114.47 318.498h3.443v14.631l11.6-14.631h4.228l-9.13 11.488 9.804 14.705h-4.416l-7.521-12.011-4.565 5.725v6.286h-3.443zm38.065 26.193-11.824-21.927v21.927h-3.256v-26.193h4.79l11.787 21.928v-21.928h3.292v26.193zm21.013.599c-8.344 0-12.946-6.137-12.946-13.733 0-7.521 4.602-13.657 12.946-13.657 8.307 0 12.91 6.136 12.91 13.657 0 7.596-4.603 13.733-12.91 13.733zm0-3.255c6.212 0 9.318-4.865 9.318-10.478 0-5.538-3.106-10.402-9.318-10.402-6.211 0-9.354 4.864-9.354 10.402 0 5.613 3.143 10.478 9.354 10.478zm20.897 2.656-6.773-26.193h3.517l5.501 22.526 5.5-22.526h4.229l5.5 22.526 5.501-22.526h3.517l-6.773 26.193h-4.527l-5.351-20.692-5.314 20.692zm29.541-26.193h3.442v23.162h12.124v3.031h-15.566zm18.234 26.193v-26.193h17.924v3.069h-14.481v8.419h12.984v3.068h-12.984v8.532h14.63v3.105zm21.413 0v-26.193h8.382c8.307 0 12.91 5.538 12.91 13.059 0 7.596-4.603 13.134-12.91 13.134zm3.443-3.105h4.939c6.361 0 9.317-4.416 9.317-10.029 0-5.538-2.956-9.99-9.317-9.99h-4.939zm33.199 3.704c-8.345 0-12.947-6.137-12.947-13.733 0-7.521 4.602-13.657 12.947-13.657 7.035 0 11.038 4.003 11.824 10.29h-3.667c-.524-3.368-2.47-7.035-8.157-7.035-6.249 0-9.355 4.864-9.355 10.402 0 5.613 3.106 10.478 9.355 10.478 5.949 0 8.307-3.817 8.382-8.008h-8.382v-3.031h11.936c.524 9.916-4.378 14.294-11.936 14.294zm15.503-.599v-26.193h17.924v3.069h-14.481v8.419h12.984v3.068h-12.984v8.532h14.631v3.105zm-201.308 39v-26.193h8.382c8.307 0 12.91 5.538 12.91 13.059 0 7.596-4.603 13.134-12.91 13.134zm3.443-3.105h4.939c6.361 0 9.317-4.416 9.317-10.029 0-5.538-2.956-9.99-9.317-9.99h-4.939zm33.199 3.704c-8.345 0-12.947-6.137-12.947-13.733 0-7.521 4.602-13.657 12.947-13.657 8.307 0 12.909 6.136 12.909 13.657 0 7.596-4.602 13.733-12.909 13.733zm0-3.255c6.211 0 9.317-4.865 9.317-10.478 0-5.538-3.106-10.402-9.317-10.402-6.212 0-9.355 4.864-9.355 10.402 0 5.613 3.143 10.478 9.355 10.478zm16.198 2.656v-26.193h17.923v3.069h-14.481v8.419h12.984v3.068h-12.984v8.532h14.631v3.105zm23.788-8.344c.262 3.592 3.293 5.688 7.259 5.688 3.929 0 6.586-1.684 6.586-4.416 0-6.473-17.288-1.496-17.288-12.011 0-4.266 4.042-7.708 10.328-7.708 5.65 0 10.14 3.667 10.14 8.905h-3.741c-.225-3.592-2.245-5.65-6.586-5.65s-6.548 1.759-6.548 4.453c0 6.922 17.287 1.571 17.287 12.011 0 4.902-3.891 7.671-10.402 7.671-6.1 0-10.59-3.854-10.777-8.943zm36.091 8.344-11.824-21.927v21.927h-3.255v-26.193h4.789l11.787 21.928v-21.928h3.293v26.193zm7.63-28.064h4.079v4.042c0 2.02-1.235 3.068-3.143 3.068v-1.796c.86 0 1.16-.449 1.16-1.272h-2.096zm6.24 1.871h20.057v3.031h-8.307v23.162h-3.443v-23.162h-8.307zm30.833 0h3.442v23.162h12.124v3.031h-15.566zm28.639 26.792c-8.345 0-12.947-6.137-12.947-13.733 0-7.521 4.602-13.657 12.947-13.657 8.307 0 12.909 6.136 12.909 13.657 0 7.596-4.602 13.733-12.909 13.733zm0-3.255c6.211 0 9.317-4.865 9.317-10.478 0-5.538-3.106-10.402-9.317-10.402-6.212 0-9.355 4.864-9.355 10.402 0 5.613 3.143 10.478 9.355 10.478zm28.246 3.255c-8.344 0-12.947-6.137-12.947-13.733 0-7.521 4.603-13.657 12.947-13.657 8.307 0 12.91 6.136 12.91 13.657 0 7.596-4.603 13.733-12.91 13.733zm0-3.255c6.212 0 9.318-4.865 9.318-10.478 0-5.538-3.106-10.402-9.318-10.402-6.211 0-9.354 4.864-9.354 10.402 0 5.613 3.143 10.478 9.354 10.478zm16.198-23.537h8.494c7.072 0 11.413 2.208 11.413 8.345 0 6.099-4.341 8.381-11.413 8.381h-5.051v9.467h-3.443zm8.494 13.696c4.977 0 7.821-1.16 7.821-5.351 0-4.229-2.844-5.314-7.821-5.314h-5.051v10.665zm11.037 8.456h3.929v4.041h-3.929z" fill="#201c1d"/><path d="m100.676 397.186h203.382v52.4934h-203.382z" fill="#fc0"/><path d="m114.47 409.961h3.443v26.193h-3.443zm6.367 0h20.057v3.031h-8.307v23.162h-3.443v-23.162h-8.307zm33.939 17.849c.262 3.592 3.292 5.688 7.259 5.688 3.929 0 6.585-1.684 6.585-4.416 0-6.473-17.287-1.497-17.287-12.011 0-4.266 4.041-7.708 10.328-7.708 5.65 0 10.14 3.667 10.14 8.905h-3.742c-.224-3.592-2.245-5.65-6.585-5.65-4.341 0-6.549 1.759-6.549 4.453 0 6.922 17.288 1.571 17.288 12.011 0 4.902-3.892 7.671-10.403 7.671-6.099 0-10.589-3.854-10.776-8.943zm18.425-17.849h20.057v3.031h-8.307v23.162h-3.443v-23.162h-8.307zm27.465 0h4.602l9.018 26.193h-3.704l-2.096-6.361h-10.851l-2.021 6.361h-3.667zm-2.058 16.801h8.905l-4.527-13.658zm41.215-1.272c-.524 6.773-4.602 11.263-11.974 11.263-8.344 0-12.947-6.137-12.947-13.733 0-7.521 4.603-13.657 12.947-13.657 7.035 0 11.039 4.003 11.825 10.29h-3.667c-.524-3.368-2.47-7.035-8.158-7.035-6.249 0-9.354 4.864-9.354 10.402 0 5.613 3.105 10.478 9.354 10.478 6.099 0 8.083-4.154 8.382-8.008zm3.384-15.529h3.442v14.631l11.6-14.631h4.228l-9.13 11.488 9.804 14.705h-4.416l-7.521-12.011-4.565 5.725v6.286h-3.442zm24.519 17.849c.262 3.592 3.293 5.688 7.259 5.688 3.929 0 6.586-1.684 6.586-4.416 0-6.473-17.288-1.497-17.288-12.011 0-4.266 4.042-7.708 10.328-7.708 5.65 0 10.14 3.667 10.14 8.905h-3.742c-.224-3.592-2.245-5.65-6.585-5.65-4.341 0-6.548 1.759-6.548 4.453 0 6.922 17.287 1.571 17.287 12.011 0 4.902-3.892 7.671-10.402 7.671-6.1 0-10.59-3.854-10.777-8.943zm19.421 4.303h3.929v4.041h-3.929z" fill="#201c1d"/><path d="m0 0h478v245h-478z" fill="#e5e5e5" transform="translate(488 255)"/><path d="m0 0h15.4643v17.5332h-15.4643z" fill="#ff1e1e" transform="translate(488 255)"/><path d="m493.965 267.767h-1.08l2.3-3.52-2.27-3.48h1.08l1.73 2.65 1.74-2.65h1.08l-2.28 3.48 2.31 3.52h-1.08l-1.77-2.7z" fill="#fff"/><path d="m0 0h112.464v17.5332h-112.464z" fill="#eee" transform="translate(503.465 255)"/><path d="m510.417 260.767h1.23l2.41 7h-.99l-.56-1.7h-2.9l-.54 1.7h-.98zm-.55 4.49h2.38l-1.21-3.65zm4.177-3.09h.98l1.51 4.85 1.52-4.85h.98l-1.85 5.6h-1.29zm8.379 5.76c-1.73 0-2.86-1.22-2.86-2.95 0-1.74 1.13-2.97 2.86-2.97s2.86 1.23 2.86 2.97c0 1.73-1.13 2.95-2.86 2.95zm0-.83c1.16 0 1.92-.82 1.92-2.12 0-1.32-.76-2.14-1.92-2.14s-1.93.82-1.93 2.14c0 1.3.77 2.12 1.93 2.12zm3.932-6.83h1.05v1.08h-1.05zm.07 1.9h.91v5.6h-.91zm4.584 5.76c-1.52 0-2.52-1.22-2.52-2.95 0-1.74 1-2.97 2.52-2.97.91 0 1.54.44 1.9 1.14v-2.88h.9v7.5h-.9v-.96c-.34.67-.96 1.12-1.9 1.12zm.1-.83c1.2 0 1.8-.89 1.8-2.12 0-1.24-.6-2.14-1.8-2.14-1.02 0-1.69.82-1.69 2.14 0 1.3.67 2.12 1.69 2.12zm10.158-2.12v-2.81h.9v5.6h-.9v-.96c-.25.57-.81 1.12-1.88 1.12-1.08 0-1.9-.6-1.9-2.31v-3.45h.9v3.32c0 1.03.3 1.65 1.21 1.65.9 0 1.67-.83 1.67-2.16zm2.936 1.02c.06.75.7 1.16 1.52 1.16.8 0 1.33-.31 1.33-.96 0-1.3-3.66-.23-3.66-2.47 0-.9.88-1.72 2.25-1.72 1.21 0 2.22.78 2.22 1.92h-.83c-.05-.76-.66-1.15-1.43-1.15-.87 0-1.32.4-1.32.95 0 1.42 3.67.26 3.67 2.47 0 1.06-.87 1.73-2.28 1.73-1.32 0-2.31-.83-2.35-1.93zm4.867-5.73h1.05v1.08h-1.05zm.07 1.9h.91v5.6h-.91zm2.303 0h.9v.95c.25-.57.81-1.11 1.89-1.11s1.89.6 1.89 2.31v3.45h-.9v-3.32c0-1.04-.3-1.65-1.21-1.65-.9 0-1.67.82-1.67 2.15v2.82h-.9zm8.306 5.56c-1.52 0-2.52-1.12-2.52-2.85 0-1.74 1-2.87 2.52-2.87.91 0 1.54.38 1.9 1.06v-.9h.9v5.3c0 1.58-.98 2.46-2.43 2.46-1.78 0-2.44-.97-2.6-1.92h.94c.13.72.7 1.09 1.66 1.09.98 0 1.53-.51 1.53-1.63v-.77c-.35.63-.96 1.03-1.9 1.03zm.1-.83c1.2 0 1.8-.79 1.8-2.02 0-1.24-.6-2.04-1.8-2.04-1.02 0-1.69.72-1.69 2.04 0 1.3.67 2.02 1.69 2.02zm8.689.83c-1.52 0-2.52-1.12-2.52-2.85 0-1.74 1-2.87 2.52-2.87.91 0 1.54.38 1.9 1.06v-.9h.9v5.3c0 1.58-.98 2.46-2.43 2.46-1.78 0-2.44-.97-2.6-1.92h.94c.13.72.7 1.09 1.66 1.09.98 0 1.53-.51 1.53-1.63v-.77c-.35.63-.96 1.03-1.9 1.03zm.1-.83c1.2 0 1.8-.79 1.8-2.02 0-1.24-.6-2.04-1.8-2.04-1.02 0-1.69.72-1.69 2.04 0 1.3.67 2.02 1.69 2.02zm4.916-2.17v3.04h-.9v-5.6h.9v.97c.22-.58.75-1.13 1.92-1.13v.93c-1.19 0-1.92.46-1.92 1.79zm4.935-2.72c1.5 0 2.27.99 2.27 2.56v3.2h-.91v-.81c-.3.6-.83.97-1.69.97-1.1 0-1.96-.63-1.96-1.75 0-1.76 1.95-1.97 3.64-1.86-.06-.93-.47-1.49-1.35-1.49-.94 0-1.44.58-1.44 1.31h-.96c0-1.1.84-2.13 2.4-2.13zm-1.34 4.12c0 .67.42 1.02 1.22 1.02.92 0 1.48-.68 1.48-1.59v-.56c-1.8-.14-2.7.37-2.7 1.13zm7.199 1.8c-1.52 0-2.52-1.22-2.52-2.95 0-1.74 1-2.97 2.52-2.97.91 0 1.54.44 1.9 1.14v-2.88h.9v7.5h-.9v-.96c-.34.67-.96 1.12-1.9 1.12zm.1-.83c1.2 0 1.8-.89 1.8-2.12 0-1.24-.6-2.14-1.8-2.14-1.02 0-1.69.82-1.69 2.14 0 1.3.67 2.12 1.69 2.12zm4.036-6.83h1.05v1.08h-1.05zm.07 1.9h.91v5.6h-.91zm4.914 5.76c-1.73 0-2.86-1.22-2.86-2.95 0-1.74 1.13-2.97 2.86-2.97 1.52 0 2.74 1.2 2.56 3.27h-4.47c.1 1.07.76 1.82 1.91 1.82.9 0 1.39-.48 1.59-1.1h.96c-.28 1.15-1.19 1.93-2.55 1.93zm0-5.09c-1.09 0-1.73.67-1.89 1.65h3.57c-.1-.96-.7-1.65-1.68-1.65zm3.678-.67h.9v.95c.25-.57.81-1.11 1.89-1.11s1.89.6 1.89 2.31v3.45h-.9v-3.32c0-1.04-.3-1.65-1.21-1.65-.9 0-1.67.82-1.67 2.15v2.82h-.9zm5.541 0h.94v-1.4h.9v1.4h1.11v.77h-1.11v3.41c0 .46.22.65.62.65h.65v.77h-.66c-1.01 0-1.51-.57-1.51-1.42v-3.41h-.94zm4.777 3.83c.06.75.7 1.16 1.52 1.16.8 0 1.33-.31 1.33-.96 0-1.3-3.66-.23-3.66-2.47 0-.9.88-1.72 2.25-1.72 1.21 0 2.22.78 2.22 1.92h-.83c-.05-.76-.66-1.15-1.43-1.15-.87 0-1.32.4-1.32.95 0 1.42 3.67.26 3.67 2.47 0 1.06-.87 1.73-2.28 1.73-1.32 0-2.31-.83-2.35-1.93z" fill="#201c1d"/><path d="m822.819 344.691h24.083v52.494h-242.144v-91.863h218.061z" fill="url(#b)"/><path d="m618.552 316.852h3.443v14.631l11.6-14.631h4.228l-9.13 11.487 9.804 14.706h-4.416l-7.521-12.011-4.565 5.725v6.286h-3.443zm22.468 5.238h3.368v3.555c.935-2.133 3.031-4.153 7.072-4.153s7.072 2.245 7.072 8.643v12.91h-3.367v-12.423c0-3.892-1.123-6.174-4.528-6.174-3.368 0-6.249 3.068-6.249 8.045v10.552h-3.368zm31.11 21.554c-6.473 0-10.701-4.565-10.701-11.039 0-6.511 4.228-11.113 10.701-11.113 6.474 0 10.702 4.602 10.702 11.113 0 6.474-4.228 11.039-10.702 11.039zm0-3.106c4.341 0 7.185-3.068 7.185-7.933 0-4.939-2.844-8.007-7.185-8.007-4.34 0-7.221 3.068-7.221 8.007 0 4.865 2.881 7.933 7.221 7.933zm11.912-18.448h3.629l3.817 17.063 4.041-17.063h3.78l4.003 17.063 3.817-17.063h3.667l-5.426 20.955h-4.265l-3.705-15.716-3.704 15.716h-4.228zm29.552-7.109h3.367v28.064h-3.367zm17.113 28.663c-6.474 0-10.702-4.565-10.702-11.039 0-6.511 4.228-11.113 10.702-11.113 5.687 0 10.252 4.49 9.579 12.236h-16.726c.374 4.003 2.844 6.81 7.147 6.81 3.367 0 5.201-1.796 5.949-4.116h3.592c-1.047 4.303-4.452 7.222-9.541 7.222zm0-19.046c-4.079 0-6.474 2.507-7.072 6.174h13.358c-.374-3.593-2.619-6.174-6.286-6.174zm21.201 19.046c-5.688 0-9.43-4.565-9.43-11.039 0-6.511 3.742-11.113 9.43-11.113 3.405 0 5.762 1.646 7.109 4.266v-10.777h3.368v28.064h-3.368v-3.592c-1.272 2.507-3.592 4.191-7.109 4.191zm.374-3.106c4.49 0 6.735-3.33 6.735-7.933 0-4.64-2.245-8.007-6.735-8.007-3.817 0-6.324 3.068-6.324 8.007 0 4.865 2.507 7.933 6.324 7.933zm22.61 2.357c-5.687 0-9.429-4.191-9.429-10.664 0-6.511 3.742-10.739 9.429-10.739 3.405 0 5.763 1.422 7.11 3.966v-3.368h3.368v19.832c0 5.913-3.668 9.205-9.093 9.205-6.661 0-9.13-3.629-9.729-7.184h3.517c.487 2.694 2.62 4.079 6.212 4.079 3.667 0 5.725-1.909 5.725-6.1v-2.881c-1.31 2.358-3.592 3.854-7.11 3.854zm.374-3.106c4.491 0 6.736-2.956 6.736-7.558 0-4.64-2.245-7.633-6.736-7.633-3.816 0-6.323 2.694-6.323 7.633 0 4.864 2.507 7.558 6.323 7.558zm23.847 3.855c-6.474 0-10.702-4.565-10.702-11.039 0-6.511 4.228-11.113 10.702-11.113 5.687 0 10.252 4.49 9.579 12.236h-16.726c.374 4.003 2.844 6.81 7.147 6.81 3.367 0 5.201-1.796 5.949-4.116h3.592c-1.047 4.303-4.452 7.222-9.541 7.222zm0-19.046c-4.079 0-6.474 2.507-7.072 6.174h13.358c-.374-3.593-2.619-6.174-6.286-6.174zm-172.141 58.046c-5.688 0-9.43-4.565-9.43-11.039 0-6.511 3.742-11.113 9.43-11.113 3.405 0 5.762 1.646 7.109 4.266v-10.777h3.368v28.064h-3.368v-3.592c-1.272 2.507-3.592 4.191-7.109 4.191zm.374-3.106c4.49 0 6.735-3.33 6.735-7.933 0-4.64-2.245-8.007-6.735-8.007-3.817 0-6.324 3.068-6.324 8.007 0 4.865 2.507 7.933 6.324 7.933zm23.846 3.106c-6.473 0-10.702-4.565-10.702-11.039 0-6.511 4.229-11.113 10.702-11.113s10.702 4.602 10.702 11.113c0 6.474-4.229 11.039-10.702 11.039zm0-3.106c4.341 0 7.184-3.068 7.184-7.933 0-4.939-2.843-8.007-7.184-8.007-4.34 0-7.222 3.068-7.222 8.007 0 4.865 2.882 7.933 7.222 7.933zm23.569 3.106c-6.473 0-10.701-4.565-10.701-11.039 0-6.511 4.228-11.113 10.701-11.113 5.688 0 10.253 4.49 9.58 12.236h-16.727c.375 4.003 2.844 6.81 7.147 6.81 3.368 0 5.202-1.796 5.95-4.116h3.592c-1.048 4.303-4.453 7.222-9.542 7.222zm0-19.046c-4.078 0-6.473 2.507-7.072 6.174h13.359c-.374-3.593-2.62-6.174-6.287-6.174zm15.394 11.824c.224 2.806 2.619 4.34 5.687 4.34 2.994 0 4.977-1.16 4.977-3.592 0-4.864-13.695-.86-13.695-9.242 0-3.368 3.292-6.436 8.419-6.436 4.527 0 8.307 2.918 8.307 7.184h-3.106c-.187-2.844-2.47-4.303-5.351-4.303-3.255 0-4.939 1.497-4.939 3.555 0 5.313 13.733.973 13.733 9.242 0 3.967-3.256 6.474-8.532 6.474-4.939 0-8.644-3.106-8.793-7.222zm17.298-14.332h3.368v3.555c.935-2.133 3.031-4.153 7.072-4.153s7.072 2.245 7.072 8.643v12.91h-3.368v-12.423c0-3.892-1.122-6.174-4.527-6.174-3.368 0-6.249 3.068-6.249 8.045v10.552h-3.368zm17.855-7.109h4.079v4.041c0 2.021-1.235 3.068-3.144 3.068v-1.796c.861 0 1.16-.449 1.16-1.272h-2.095zm5.254 7.109h3.517v-5.238h3.368v5.238h4.153v2.882h-4.153v12.759c0 1.722.823 2.433 2.32 2.433h2.432v2.881h-2.469c-3.78 0-5.651-2.133-5.651-5.314v-12.759h-3.517zm22.497-7.109h3.367v28.064h-3.367zm17.113 28.663c-6.474 0-10.702-4.565-10.702-11.039 0-6.511 4.228-11.113 10.702-11.113 6.473 0 10.701 4.602 10.701 11.113 0 6.474-4.228 11.039-10.701 11.039zm0-3.106c4.34 0 7.184-3.068 7.184-7.933 0-4.939-2.844-8.007-7.184-8.007-4.341 0-7.222 3.068-7.222 8.007 0 4.865 2.881 7.933 7.222 7.933zm23.569 3.106c-6.473 0-10.702-4.565-10.702-11.039 0-6.511 4.229-11.113 10.702-11.113s10.702 4.602 10.702 11.113c0 6.474-4.229 11.039-10.702 11.039zm0-3.106c4.341 0 7.184-3.068 7.184-7.933 0-4.939-2.843-8.007-7.184-8.007s-7.222 3.068-7.222 8.007c0 4.865 2.881 7.933 7.222 7.933zm13.728 9.991v-28.439h3.368v3.668c1.347-2.62 3.704-4.266 7.11-4.266 5.687 0 9.429 4.602 9.429 11.113 0 6.474-3.742 11.039-9.429 11.039-3.518 0-5.838-1.684-7.11-4.191v11.076zm10.103-9.991c3.817 0 6.324-3.068 6.324-7.933 0-4.939-2.507-8.007-6.324-8.007-4.452 0-6.735 3.367-6.735 8.007 0 4.603 2.283 7.933 6.735 7.933zm11.112-1.534h3.929v4.041h-3.929z" fill="#201c1d"/><path d="m604.758 397.186h172.236v52.4934h-172.236z" fill="#fc0"/><path d="m618.552 408.717h3.443v26.193h-3.443zm6.587 5.239h3.518v-5.239h3.367v5.239h4.154v2.881h-4.154v12.76c0 1.721.824 2.432 2.32 2.432h2.433v2.881h-2.47c-3.779 0-5.65-2.133-5.65-5.313v-12.76h-3.518zm24.929 14.331c.225 2.806 2.62 4.341 5.688 4.341 2.993 0 4.977-1.16 4.977-3.593 0-4.864-13.696-.86-13.696-9.242 0-3.368 3.293-6.436 8.42-6.436 4.527 0 8.307 2.919 8.307 7.184h-3.106c-.187-2.843-2.47-4.303-5.351-4.303-3.255 0-4.939 1.497-4.939 3.555 0 5.313 13.732.973 13.732 9.242 0 3.967-3.255 6.474-8.531 6.474-4.939 0-8.644-3.106-8.794-7.222zm15.596-14.331h3.517v-5.239h3.368v5.239h4.154v2.881h-4.154v12.76c0 1.721.823 2.432 2.32 2.432h2.432v2.881h-2.469c-3.78 0-5.651-2.133-5.651-5.313v-12.76h-3.517zm22.404-.599c5.612 0 8.494 3.704 8.494 9.579v11.974h-3.406v-3.031c-1.122 2.245-3.105 3.63-6.323 3.63-4.116 0-7.334-2.358-7.334-6.548 0-6.586 7.296-7.372 13.62-6.96-.224-3.48-1.759-5.576-5.051-5.576-3.518 0-5.389 2.171-5.389 4.902h-3.592c0-4.116 3.143-7.97 8.981-7.97zm-5.015 15.416c0 2.508 1.572 3.817 4.566 3.817 3.442 0 5.537-2.544 5.537-5.949v-2.096c-6.735-.524-10.103 1.385-10.103 4.228zm36.922-2.656c-.299 5.425-3.929 9.392-9.841 9.392-6.474 0-10.702-4.565-10.702-11.039 0-6.51 4.228-11.113 10.702-11.113 5.687 0 9.467 4.228 9.766 8.831h-3.555c-.262-2.844-2.133-5.725-6.211-5.725-4.715 0-7.222 3.367-7.222 8.007 0 4.603 2.507 7.896 7.222 7.896 4.378 0 6.099-3.031 6.361-6.249zm18.762-12.161-6.959 8.269 8.007 12.685h-3.966l-6.249-10.103-3.181 3.779v6.324h-3.367v-28.064h3.367v16.839l8.195-9.729zm4.878 14.331c.224 2.806 2.619 4.341 5.688 4.341 2.993 0 4.976-1.16 4.976-3.593 0-4.864-13.695-.86-13.695-9.242 0-3.368 3.293-6.436 8.419-6.436 4.528 0 8.307 2.919 8.307 7.184h-3.106c-.187-2.843-2.469-4.303-5.35-4.303-3.256 0-4.94 1.497-4.94 3.555 0 5.313 13.733.973 13.733 9.242 0 3.967-3.255 6.474-8.531 6.474-4.94 0-8.644-3.106-8.794-7.222zm15.969 2.582h3.929v4.041h-3.929z" fill="#201c1d"/><path d="m0 0h478v245h-478z" fill="#e5e5e5" transform="translate(0 510)"/><path d="m0 0h15.4643v17.5332h-15.4643z" fill="#ff1e1e" transform="translate(0 510)"/><path d="m5.96485 522.767h-1.08l2.3-3.52-2.27-3.48h1.08l1.73 2.65 1.74-2.65h1.07995l-2.27995 3.48 2.30995 3.52h-1.07995l-1.77-2.7z" fill="#fff"/><path d="m0 0h126.464v17.5332h-126.464z" fill="#eee" transform="translate(15.4648 510)"/><path d="m22.417 515.767h1.23l2.41 7h-.99l-.56-1.7h-2.9l-.54 1.7h-.98zm-.55 4.49h2.38l-1.21-3.65zm4.1766-3.09h.98l1.51 4.85 1.52-4.85h.98l-1.85 5.6h-1.29zm8.3792 5.76c-1.73 0-2.86-1.22-2.86-2.95 0-1.74 1.13-2.97 2.86-2.97s2.86 1.23 2.86 2.97c0 1.73-1.13 2.95-2.86 2.95zm0-.83c1.16 0 1.92-.82 1.92-2.12 0-1.32-.76-2.14-1.92-2.14s-1.93.82-1.93 2.14c0 1.3.77 2.12 1.93 2.12zm3.9325-6.83h1.05v1.08h-1.05zm.07 1.9h.91v5.6h-.91zm4.5833 5.76c-1.52 0-2.52-1.22-2.52-2.95 0-1.74 1-2.97 2.52-2.97.91 0 1.54.44 1.9 1.14v-2.88h.9v7.5h-.9v-.96c-.34.67-.96 1.12-1.9 1.12zm.1-.83c1.2 0 1.8-.89 1.8-2.12 0-1.24-.6-2.14-1.8-2.14-1.02 0-1.69.82-1.69 2.14 0 1.3.67 2.12 1.69 2.12zm10.1586-2.12v-2.81h.9v5.6h-.9v-.96c-.25.57-.81 1.12-1.88 1.12-1.08 0-1.9-.6-1.9-2.31v-3.45h.9v3.32c0 1.03.3 1.65 1.21 1.65.9 0 1.67-.83 1.67-2.16zm2.9353 1.02c.06.75.7 1.16 1.52 1.16.8 0 1.33-.31 1.33-.96 0-1.3-3.66-.23-3.66-2.47 0-.9.88-1.72 2.25-1.72 1.21 0 2.22.78 2.22 1.92h-.83c-.05-.76-.66-1.15-1.43-1.15-.87 0-1.32.4-1.32.95 0 1.42 3.67.26 3.67 2.47 0 1.06-.87 1.73-2.28 1.73-1.32 0-2.31-.83-2.35-1.93zm4.8676-5.73h1.05v1.08h-1.05zm.07 1.9h.91v5.6h-.91zm2.3026 0h.9v.95c.25-.57.81-1.11 1.89-1.11s1.89.6 1.89 2.31v3.45h-.9v-3.32c0-1.04-.3-1.65-1.21-1.65-.9 0-1.67.82-1.67 2.15v2.82h-.9zm8.3061 5.56c-1.52 0-2.52-1.12-2.52-2.85 0-1.74 1-2.87 2.52-2.87.91 0 1.54.38 1.9 1.06v-.9h.9v5.3c0 1.58-.98 2.46-2.43 2.46-1.78 0-2.44-.97-2.6-1.92h.94c.13.72.7 1.09 1.66 1.09.98 0 1.53-.51 1.53-1.63v-.77c-.35.63-.96 1.03-1.9 1.03zm.1-.83c1.2 0 1.8-.79 1.8-2.02 0-1.24-.6-2.04-1.8-2.04-1.02 0-1.69.72-1.69 2.04 0 1.3.67 2.02 1.69 2.02zm11.6591-1.48c-.08 1.45-1.05 2.51-2.63 2.51-1.73 0-2.86-1.22-2.86-2.95 0-1.74 1.13-2.97 2.86-2.97 1.52 0 2.53 1.13 2.61 2.36h-.95c-.07-.76-.57-1.53-1.66-1.53-1.26 0-1.93.9-1.93 2.14 0 1.23.67 2.11 1.93 2.11 1.17 0 1.63-.81 1.7-1.67zm3.7176 2.51c-1.73 0-2.86-1.22-2.86-2.95 0-1.74 1.13-2.97 2.86-2.97s2.86 1.23 2.86 2.97c0 1.73-1.13 2.95-2.86 2.95zm0-.83c1.16 0 1.92-.82 1.92-2.12 0-1.32-.76-2.14-1.92-2.14s-1.93.82-1.93 2.14c0 1.3.77 2.12 1.93 2.12zm3.9716-6.83h.9v7.5h-.9zm4.8663 7.66c-1.73 0-2.86-1.22-2.86-2.95 0-1.74 1.13-2.97 2.86-2.97s2.86 1.23 2.86 2.97c0 1.73-1.13 2.95-2.86 2.95zm0-.83c1.16 0 1.92-.82 1.92-2.12 0-1.32-.76-2.14-1.92-2.14s-1.93.82-1.93 2.14c0 1.3.77 2.12 1.93 2.12zm4.8706-2.37v3.04h-.9v-5.6h.9v.97c.22-.58.75-1.13 1.92-1.13v.93c-1.19 0-1.92.46-1.92 1.79zm5.168 3.2c-1.73 0-2.86-1.22-2.86-2.95 0-1.74 1.13-2.97 2.86-2.97 1.52 0 2.74 1.2 2.56 3.27h-4.47c.1 1.07.76 1.82 1.91 1.82.9 0 1.39-.48 1.59-1.1h.96c-.28 1.15-1.19 1.93-2.55 1.93zm0-5.09c-1.09 0-1.73.67-1.89 1.65h3.57c-.1-.96-.7-1.65-1.68-1.65zm5.969 5.09c-1.52 0-2.52-1.22-2.52-2.95 0-1.74 1-2.97 2.52-2.97.91 0 1.54.44 1.9 1.14v-2.88h.9v7.5h-.9v-.96c-.34.67-.96 1.12-1.9 1.12zm.1-.83c1.2 0 1.8-.89 1.8-2.12 0-1.24-.6-2.14-1.8-2.14-1.02 0-1.69.82-1.69 2.14 0 1.3.67 2.12 1.69 2.12zm6.149-4.93h.94v-1.4h.9v1.4h1.11v.77h-1.11v3.41c0 .46.22.65.62.65h.65v.77h-.66c-1.01 0-1.51-.57-1.51-1.42v-3.41h-.94zm6.581 5.76c-1.73 0-2.86-1.22-2.86-2.95 0-1.74 1.13-2.97 2.86-2.97 1.52 0 2.74 1.2 2.56 3.27h-4.47c.1 1.07.76 1.82 1.91 1.82.9 0 1.39-.48 1.59-1.1h.96c-.28 1.15-1.19 1.93-2.55 1.93zm0-5.09c-1.09 0-1.73.67-1.89 1.65h3.57c-.1-.96-.7-1.65-1.68-1.65zm3.087-.67h1.04l1.25 1.96 1.25-1.96h1.04l-1.77 2.78 1.8 2.82h-1.04l-1.28-2.01-1.28 2.01h-1.04l1.8-2.82zm5.4 0h.94v-1.4h.9v1.4h1.11v.77h-1.11v3.41c0 .46.22.65.62.65h.65v.77h-.66c-1.01 0-1.51-.57-1.51-1.42v-3.41h-.94z" fill="#201c1d"/><path d="m116.758 599.691h242.232v52.494h-242.232z" fill="#f00"/><path d="m116.758 560.322h219.535v52.494h-219.535z" fill="#f00"/><path d="m130.552 571.852h3.443v14.631l11.6-14.631h4.228l-9.13 11.487 9.804 14.706h-4.416l-7.521-12.011-4.565 5.725v6.286h-3.443zm22.468 5.238h3.368v3.555c.935-2.133 3.031-4.153 7.072-4.153s7.072 2.245 7.072 8.643v12.91h-3.367v-12.423c0-3.892-1.123-6.174-4.528-6.174-3.368 0-6.249 3.068-6.249 8.045v10.552h-3.368zm31.11 21.554c-6.473 0-10.701-4.565-10.701-11.039 0-6.511 4.228-11.113 10.701-11.113 6.474 0 10.702 4.602 10.702 11.113 0 6.474-4.228 11.039-10.702 11.039zm0-3.106c4.341 0 7.185-3.068 7.185-7.933 0-4.939-2.844-8.007-7.185-8.007-4.34 0-7.221 3.068-7.221 8.007 0 4.865 2.881 7.933 7.221 7.933zm11.912-18.448h3.629l3.817 17.063 4.041-17.063h3.78l4.003 17.063 3.817-17.063h3.667l-5.426 20.955h-4.265l-3.705-15.716-3.704 15.716h-4.228zm29.552-7.109h3.367v28.064h-3.367zm17.113 28.663c-6.474 0-10.702-4.565-10.702-11.039 0-6.511 4.228-11.113 10.702-11.113 5.687 0 10.252 4.49 9.579 12.236h-16.726c.374 4.003 2.844 6.81 7.147 6.81 3.367 0 5.201-1.796 5.949-4.116h3.592c-1.047 4.303-4.452 7.222-9.541 7.222zm0-19.046c-4.079 0-6.474 2.507-7.072 6.174h13.358c-.374-3.593-2.619-6.174-6.286-6.174zm21.201 19.046c-5.688 0-9.43-4.565-9.43-11.039 0-6.511 3.742-11.113 9.43-11.113 3.405 0 5.762 1.646 7.109 4.266v-10.777h3.368v28.064h-3.368v-3.592c-1.272 2.507-3.592 4.191-7.109 4.191zm.374-3.106c4.49 0 6.735-3.33 6.735-7.933 0-4.64-2.245-8.007-6.735-8.007-3.817 0-6.324 3.068-6.324 8.007 0 4.865 2.507 7.933 6.324 7.933zm22.61 2.357c-5.687 0-9.429-4.191-9.429-10.664 0-6.511 3.742-10.739 9.429-10.739 3.405 0 5.763 1.422 7.11 3.966v-3.368h3.368v19.832c0 5.913-3.668 9.205-9.093 9.205-6.661 0-9.13-3.629-9.729-7.184h3.517c.487 2.694 2.62 4.079 6.212 4.079 3.667 0 5.725-1.909 5.725-6.1v-2.881c-1.31 2.358-3.592 3.854-7.11 3.854zm.374-3.106c4.491 0 6.736-2.956 6.736-7.558 0-4.64-2.245-7.633-6.736-7.633-3.816 0-6.323 2.694-6.323 7.633 0 4.864 2.507 7.558 6.323 7.558zm23.847 3.855c-6.474 0-10.702-4.565-10.702-11.039 0-6.511 4.228-11.113 10.702-11.113 5.687 0 10.252 4.49 9.579 12.236h-16.726c.374 4.003 2.844 6.81 7.147 6.81 3.367 0 5.201-1.796 5.949-4.116h3.592c-1.047 4.303-4.452 7.222-9.541 7.222zm0-19.046c-4.079 0-6.474 2.507-7.072 6.174h13.358c-.374-3.593-2.619-6.174-6.286-6.174zm-172.141 58.046c-5.688 0-9.43-4.565-9.43-11.039 0-6.511 3.742-11.113 9.43-11.113 3.405 0 5.762 1.646 7.109 4.266v-10.777h3.368v28.064h-3.368v-3.592c-1.272 2.507-3.592 4.191-7.109 4.191zm.374-3.106c4.49 0 6.735-3.33 6.735-7.933 0-4.64-2.245-8.007-6.735-8.007-3.817 0-6.324 3.068-6.324 8.007 0 4.865 2.507 7.933 6.324 7.933zm23.846 3.106c-6.473 0-10.702-4.565-10.702-11.039 0-6.511 4.229-11.113 10.702-11.113s10.702 4.602 10.702 11.113c0 6.474-4.229 11.039-10.702 11.039zm0-3.106c4.341 0 7.184-3.068 7.184-7.933 0-4.939-2.843-8.007-7.184-8.007-4.34 0-7.222 3.068-7.222 8.007 0 4.865 2.882 7.933 7.222 7.933zm23.569 3.106c-6.473 0-10.701-4.565-10.701-11.039 0-6.511 4.228-11.113 10.701-11.113 5.688 0 10.253 4.49 9.58 12.236h-16.727c.375 4.003 2.844 6.81 7.147 6.81 3.368 0 5.202-1.796 5.95-4.116h3.592c-1.048 4.303-4.453 7.222-9.542 7.222zm0-19.046c-4.078 0-6.473 2.507-7.072 6.174h13.359c-.374-3.593-2.62-6.174-6.287-6.174zm15.394 11.824c.224 2.806 2.619 4.34 5.687 4.34 2.994 0 4.977-1.16 4.977-3.592 0-4.864-13.695-.86-13.695-9.242 0-3.368 3.292-6.436 8.419-6.436 4.527 0 8.307 2.918 8.307 7.184h-3.106c-.187-2.844-2.47-4.303-5.351-4.303-3.255 0-4.939 1.497-4.939 3.555 0 5.313 13.733.973 13.733 9.242 0 3.967-3.256 6.474-8.532 6.474-4.939 0-8.644-3.106-8.793-7.222zm17.298-14.332h3.368v3.555c.935-2.133 3.031-4.153 7.072-4.153s7.072 2.245 7.072 8.643v12.91h-3.368v-12.423c0-3.892-1.122-6.174-4.527-6.174-3.368 0-6.249 3.068-6.249 8.045v10.552h-3.368zm17.855-7.109h4.079v4.041c0 2.021-1.235 3.068-3.144 3.068v-1.796c.861 0 1.16-.449 1.16-1.272h-2.095zm5.254 7.109h3.517v-5.238h3.368v5.238h4.153v2.882h-4.153v12.759c0 1.722.823 2.433 2.32 2.433h2.432v2.881h-2.469c-3.78 0-5.651-2.133-5.651-5.314v-12.759h-3.517zm22.497-7.109h3.367v28.064h-3.367zm17.113 28.663c-6.474 0-10.702-4.565-10.702-11.039 0-6.511 4.228-11.113 10.702-11.113 6.473 0 10.701 4.602 10.701 11.113 0 6.474-4.228 11.039-10.701 11.039zm0-3.106c4.34 0 7.184-3.068 7.184-7.933 0-4.939-2.844-8.007-7.184-8.007-4.341 0-7.222 3.068-7.222 8.007 0 4.865 2.881 7.933 7.222 7.933zm23.569 3.106c-6.473 0-10.702-4.565-10.702-11.039 0-6.511 4.229-11.113 10.702-11.113s10.702 4.602 10.702 11.113c0 6.474-4.229 11.039-10.702 11.039zm0-3.106c4.341 0 7.184-3.068 7.184-7.933 0-4.939-2.843-8.007-7.184-8.007s-7.222 3.068-7.222 8.007c0 4.865 2.881 7.933 7.222 7.933zm13.728 9.991v-28.439h3.368v3.668c1.347-2.62 3.704-4.266 7.11-4.266 5.687 0 9.429 4.602 9.429 11.113 0 6.474-3.742 11.039-9.429 11.039-3.518 0-5.838-1.684-7.11-4.191v11.076zm10.103-9.991c3.817 0 6.324-3.068 6.324-7.933 0-4.939-2.507-8.007-6.324-8.007-4.452 0-6.735 3.367-6.735 8.007 0 4.603 2.283 7.933 6.735 7.933zm11.112-1.534h3.929v4.041h-3.929z" fill="#fff"/><path d="m116.758 652.186h174.623v52.4934h-174.623z" fill="#df0"/><path d="m130.552 663.717h3.443v26.193h-3.443zm6.587 5.239h3.518v-5.239h3.367v5.239h4.154v2.881h-4.154v12.76c0 1.721.824 2.432 2.32 2.432h2.433v2.881h-2.47c-3.779 0-5.65-2.133-5.65-5.313v-12.76h-3.518zm24.929 14.331c.225 2.806 2.62 4.341 5.688 4.341 2.993 0 4.977-1.16 4.977-3.593 0-4.864-13.696-.86-13.696-9.242 0-3.368 3.293-6.436 8.42-6.436 4.527 0 8.307 2.919 8.307 7.184h-3.106c-.187-2.843-2.47-4.303-5.351-4.303-3.255 0-4.939 1.497-4.939 3.555 0 5.313 13.732.973 13.732 9.242 0 3.967-3.255 6.474-8.531 6.474-4.939 0-8.644-3.106-8.794-7.222zm15.596-14.331h3.517v-5.239h3.368v5.239h4.154v2.881h-4.154v12.76c0 1.721.823 2.432 2.32 2.432h2.432v2.881h-2.469c-3.78 0-5.651-2.133-5.651-5.313v-12.76h-3.517zm22.404-.599c5.612 0 8.494 3.704 8.494 9.579v11.974h-3.406v-3.031c-1.122 2.245-3.105 3.63-6.323 3.63-4.116 0-7.334-2.358-7.334-6.548 0-6.586 7.296-7.372 13.62-6.96-.224-3.48-1.759-5.576-5.051-5.576-3.518 0-5.389 2.171-5.389 4.902h-3.592c0-4.116 3.143-7.97 8.981-7.97zm-5.015 15.416c0 2.508 1.572 3.817 4.566 3.817 3.442 0 5.537-2.544 5.537-5.949v-2.096c-6.735-.524-10.103 1.385-10.103 4.228zm36.922-2.656c-.299 5.425-3.929 9.392-9.841 9.392-6.474 0-10.702-4.565-10.702-11.039 0-6.51 4.228-11.113 10.702-11.113 5.687 0 9.467 4.228 9.766 8.831h-3.555c-.262-2.844-2.133-5.725-6.211-5.725-4.715 0-7.222 3.367-7.222 8.007 0 4.603 2.507 7.896 7.222 7.896 4.378 0 6.099-3.031 6.361-6.249zm18.762-12.161-6.959 8.269 8.007 12.685h-3.966l-6.249-10.103-3.181 3.779v6.324h-3.367v-28.064h3.367v16.839l8.195-9.729zm4.878 14.331c.224 2.806 2.619 4.341 5.688 4.341 2.993 0 4.976-1.16 4.976-3.593 0-4.864-13.695-.86-13.695-9.242 0-3.368 3.293-6.436 8.419-6.436 4.528 0 8.307 2.919 8.307 7.184h-3.106c-.187-2.843-2.469-4.303-5.35-4.303-3.256 0-4.94 1.497-4.94 3.555 0 5.313 13.733.973 13.733 9.242 0 3.967-3.255 6.474-8.531 6.474-4.94 0-8.644-3.106-8.794-7.222zm15.969 2.582h3.929v4.041h-3.929z" fill="#201c1d"/><path d="m0 0h478v245h-478z" fill="#e5e5e5" transform="translate(488 510)"/><path d="m0 0h15.4643v17.5332h-15.4643z" fill="#ff1e1e" transform="translate(488 510)"/><path d="m493.965 522.767h-1.08l2.3-3.52-2.27-3.48h1.08l1.73 2.65 1.74-2.65h1.08l-2.28 3.48 2.31 3.52h-1.08l-1.77-2.7z" fill="#fff"/><path d="m0 0h102.464v17.5332h-102.464z" fill="#eee" transform="translate(503.465 510)"/><path d="m510.417 515.767h1.23l2.41 7h-.99l-.56-1.7h-2.9l-.54 1.7h-.98zm-.55 4.49h2.38l-1.21-3.65zm4.177-3.09h.98l1.51 4.85 1.52-4.85h.98l-1.85 5.6h-1.29zm8.379 5.76c-1.73 0-2.86-1.22-2.86-2.95 0-1.74 1.13-2.97 2.86-2.97s2.86 1.23 2.86 2.97c0 1.73-1.13 2.95-2.86 2.95zm0-.83c1.16 0 1.92-.82 1.92-2.12 0-1.32-.76-2.14-1.92-2.14s-1.93.82-1.93 2.14c0 1.3.77 2.12 1.93 2.12zm3.932-6.83h1.05v1.08h-1.05zm.07 1.9h.91v5.6h-.91zm4.584 5.76c-1.52 0-2.52-1.22-2.52-2.95 0-1.74 1-2.97 2.52-2.97.91 0 1.54.44 1.9 1.14v-2.88h.9v7.5h-.9v-.96c-.34.67-.96 1.12-1.9 1.12zm.1-.83c1.2 0 1.8-.89 1.8-2.12 0-1.24-.6-2.14-1.8-2.14-1.02 0-1.69.82-1.69 2.14 0 1.3.67 2.12 1.69 2.12zm10.158-2.12v-2.81h.9v5.6h-.9v-.96c-.25.57-.81 1.12-1.88 1.12-1.08 0-1.9-.6-1.9-2.31v-3.45h.9v3.32c0 1.03.3 1.65 1.21 1.65.9 0 1.67-.83 1.67-2.16zm2.936 1.02c.06.75.7 1.16 1.52 1.16.8 0 1.33-.31 1.33-.96 0-1.3-3.66-.23-3.66-2.47 0-.9.88-1.72 2.25-1.72 1.21 0 2.22.78 2.22 1.92h-.83c-.05-.76-.66-1.15-1.43-1.15-.87 0-1.32.4-1.32.95 0 1.42 3.67.26 3.67 2.47 0 1.06-.87 1.73-2.28 1.73-1.32 0-2.31-.83-2.35-1.93zm4.867-5.73h1.05v1.08h-1.05zm.07 1.9h.91v5.6h-.91zm2.303 0h.9v.95c.25-.57.81-1.11 1.89-1.11s1.89.6 1.89 2.31v3.45h-.9v-3.32c0-1.04-.3-1.65-1.21-1.65-.9 0-1.67.82-1.67 2.15v2.82h-.9zm8.306 5.56c-1.52 0-2.52-1.12-2.52-2.85 0-1.74 1-2.87 2.52-2.87.91 0 1.54.38 1.9 1.06v-.9h.9v5.3c0 1.58-.98 2.46-2.43 2.46-1.78 0-2.44-.97-2.6-1.92h.94c.13.72.7 1.09 1.66 1.09.98 0 1.53-.51 1.53-1.63v-.77c-.35.63-.96 1.03-1.9 1.03zm.1-.83c1.2 0 1.8-.79 1.8-2.02 0-1.24-.6-2.04-1.8-2.04-1.02 0-1.69.72-1.69 2.04 0 1.3.67 2.02 1.69 2.02zm9.029 1.03c-1.73 0-2.86-1.22-2.86-2.95 0-1.74 1.13-2.97 2.86-2.97 1.52 0 2.74 1.2 2.56 3.27h-4.47c.1 1.07.76 1.82 1.91 1.82.9 0 1.39-.48 1.59-1.1h.96c-.28 1.15-1.19 1.93-2.55 1.93zm0-5.09c-1.09 0-1.73.67-1.89 1.65h3.57c-.1-.96-.7-1.65-1.68-1.65zm3.96 4.93v-4.83h-.64v-.77h.64v-.63c0-.7.42-1.27 1.43-1.27h1.04v.77h-1.03c-.36 0-.54.17-.54.5v.63h1.38v.77h-1.38v4.83zm3.994 0v-4.83h-.64v-.77h.64v-.63c0-.7.42-1.27 1.43-1.27h1.04v.77h-1.03c-.36 0-.54.17-.54.5v.63h1.38v.77h-1.38v4.83zm5.767.16c-1.73 0-2.86-1.22-2.86-2.95 0-1.74 1.13-2.97 2.86-2.97 1.52 0 2.74 1.2 2.56 3.27h-4.47c.1 1.07.76 1.82 1.91 1.82.9 0 1.39-.48 1.59-1.1h.96c-.28 1.15-1.19 1.93-2.55 1.93zm0-5.09c-1.09 0-1.73.67-1.89 1.65h3.57c-.1-.96-.7-1.65-1.68-1.65zm8.938 2.58c-.08 1.45-1.05 2.51-2.63 2.51-1.73 0-2.86-1.22-2.86-2.95 0-1.74 1.13-2.97 2.86-2.97 1.52 0 2.53 1.13 2.61 2.36h-.95c-.07-.76-.57-1.53-1.66-1.53-1.26 0-1.93.9-1.93 2.14 0 1.23.67 2.11 1.93 2.11 1.17 0 1.63-.81 1.7-1.67zm.613-3.25h.94v-1.4h.9v1.4h1.11v.77h-1.11v3.41c0 .46.22.65.62.65h.65v.77h-.66c-1.01 0-1.51-.57-1.51-1.42v-3.41h-.94zm4.777 3.83c.06.75.7 1.16 1.52 1.16.8 0 1.33-.31 1.33-.96 0-1.3-3.66-.23-3.66-2.47 0-.9.88-1.72 2.25-1.72 1.21 0 2.22.78 2.22 1.92h-.83c-.05-.76-.66-1.15-1.43-1.15-.87 0-1.32.4-1.32.95 0 1.42 3.67.26 3.67 2.47 0 1.06-.87 1.73-2.28 1.73-1.32 0-2.31-.83-2.35-1.93z" fill="#201c1d"/><g filter="url(#a)"><path d="m604.758 599.691h241.619v52.494h-241.619z" fill="#ff5e00"/><path d="m604.758 560.322h218.351v52.494h-218.351z" fill="#ff5e00"/><path d="m618.552 571.852h3.443v14.631l11.6-14.631h4.228l-9.13 11.487 9.804 14.706h-4.416l-7.521-12.011-4.565 5.725v6.286h-3.443zm22.468 5.238h3.368v3.555c.935-2.133 3.031-4.153 7.072-4.153s7.072 2.245 7.072 8.643v12.91h-3.367v-12.423c0-3.892-1.123-6.174-4.528-6.174-3.368 0-6.249 3.068-6.249 8.045v10.552h-3.368zm31.11 21.554c-6.473 0-10.701-4.565-10.701-11.039 0-6.511 4.228-11.113 10.701-11.113 6.474 0 10.702 4.602 10.702 11.113 0 6.474-4.228 11.039-10.702 11.039zm0-3.106c4.341 0 7.185-3.068 7.185-7.933 0-4.939-2.844-8.007-7.185-8.007-4.34 0-7.221 3.068-7.221 8.007 0 4.865 2.881 7.933 7.221 7.933zm11.912-18.448h3.629l3.817 17.063 4.041-17.063h3.78l4.003 17.063 3.817-17.063h3.667l-5.426 20.955h-4.265l-3.705-15.716-3.704 15.716h-4.228zm29.552-7.109h3.367v28.064h-3.367zm17.113 28.663c-6.474 0-10.702-4.565-10.702-11.039 0-6.511 4.228-11.113 10.702-11.113 5.687 0 10.252 4.49 9.579 12.236h-16.726c.374 4.003 2.844 6.81 7.147 6.81 3.367 0 5.201-1.796 5.949-4.116h3.592c-1.047 4.303-4.452 7.222-9.541 7.222zm0-19.046c-4.079 0-6.474 2.507-7.072 6.174h13.358c-.374-3.593-2.619-6.174-6.286-6.174zm21.201 19.046c-5.688 0-9.43-4.565-9.43-11.039 0-6.511 3.742-11.113 9.43-11.113 3.405 0 5.762 1.646 7.109 4.266v-10.777h3.368v28.064h-3.368v-3.592c-1.272 2.507-3.592 4.191-7.109 4.191zm.374-3.106c4.49 0 6.735-3.33 6.735-7.933 0-4.64-2.245-8.007-6.735-8.007-3.817 0-6.324 3.068-6.324 8.007 0 4.865 2.507 7.933 6.324 7.933zm22.61 2.357c-5.687 0-9.429-4.191-9.429-10.664 0-6.511 3.742-10.739 9.429-10.739 3.405 0 5.763 1.422 7.11 3.966v-3.368h3.368v19.832c0 5.913-3.668 9.205-9.093 9.205-6.661 0-9.13-3.629-9.729-7.184h3.517c.487 2.694 2.62 4.079 6.212 4.079 3.667 0 5.725-1.909 5.725-6.1v-2.881c-1.31 2.358-3.592 3.854-7.11 3.854zm.374-3.106c4.491 0 6.736-2.956 6.736-7.558 0-4.64-2.245-7.633-6.736-7.633-3.816 0-6.323 2.694-6.323 7.633 0 4.864 2.507 7.558 6.323 7.558zm23.847 3.855c-6.474 0-10.702-4.565-10.702-11.039 0-6.511 4.228-11.113 10.702-11.113 5.687 0 10.252 4.49 9.579 12.236h-16.726c.374 4.003 2.844 6.81 7.147 6.81 3.367 0 5.201-1.796 5.949-4.116h3.592c-1.047 4.303-4.452 7.222-9.541 7.222zm0-19.046c-4.079 0-6.474 2.507-7.072 6.174h13.358c-.374-3.593-2.619-6.174-6.286-6.174zm-172.141 58.046c-5.688 0-9.43-4.565-9.43-11.039 0-6.511 3.742-11.113 9.43-11.113 3.405 0 5.762 1.646 7.109 4.266v-10.777h3.368v28.064h-3.368v-3.592c-1.272 2.507-3.592 4.191-7.109 4.191zm.374-3.106c4.49 0 6.735-3.33 6.735-7.933 0-4.64-2.245-8.007-6.735-8.007-3.817 0-6.324 3.068-6.324 8.007 0 4.865 2.507 7.933 6.324 7.933zm23.846 3.106c-6.473 0-10.702-4.565-10.702-11.039 0-6.511 4.229-11.113 10.702-11.113s10.702 4.602 10.702 11.113c0 6.474-4.229 11.039-10.702 11.039zm0-3.106c4.341 0 7.184-3.068 7.184-7.933 0-4.939-2.843-8.007-7.184-8.007-4.34 0-7.222 3.068-7.222 8.007 0 4.865 2.882 7.933 7.222 7.933zm23.569 3.106c-6.473 0-10.701-4.565-10.701-11.039 0-6.511 4.228-11.113 10.701-11.113 5.688 0 10.253 4.49 9.58 12.236h-16.727c.375 4.003 2.844 6.81 7.147 6.81 3.368 0 5.202-1.796 5.95-4.116h3.592c-1.048 4.303-4.453 7.222-9.542 7.222zm0-19.046c-4.078 0-6.473 2.507-7.072 6.174h13.359c-.374-3.593-2.62-6.174-6.287-6.174zm15.394 11.824c.224 2.806 2.619 4.34 5.687 4.34 2.994 0 4.977-1.16 4.977-3.592 0-4.864-13.695-.86-13.695-9.242 0-3.368 3.292-6.436 8.419-6.436 4.527 0 8.307 2.918 8.307 7.184h-3.106c-.187-2.844-2.47-4.303-5.351-4.303-3.255 0-4.939 1.497-4.939 3.555 0 5.313 13.733.973 13.733 9.242 0 3.967-3.256 6.474-8.532 6.474-4.939 0-8.644-3.106-8.793-7.222zm17.298-14.332h3.368v3.555c.935-2.133 3.031-4.153 7.072-4.153s7.072 2.245 7.072 8.643v12.91h-3.368v-12.423c0-3.892-1.122-6.174-4.527-6.174-3.368 0-6.249 3.068-6.249 8.045v10.552h-3.368zm17.855-7.109h4.079v4.041c0 2.021-1.235 3.068-3.144 3.068v-1.796c.861 0 1.16-.449 1.16-1.272h-2.095zm5.254 7.109h3.517v-5.238h3.368v5.238h4.153v2.882h-4.153v12.759c0 1.722.823 2.433 2.32 2.433h2.432v2.881h-2.469c-3.78 0-5.651-2.133-5.651-5.314v-12.759h-3.517zm22.497-7.109h3.367v28.064h-3.367zm17.113 28.663c-6.474 0-10.702-4.565-10.702-11.039 0-6.511 4.228-11.113 10.702-11.113 6.473 0 10.701 4.602 10.701 11.113 0 6.474-4.228 11.039-10.701 11.039zm0-3.106c4.34 0 7.184-3.068 7.184-7.933 0-4.939-2.844-8.007-7.184-8.007-4.341 0-7.222 3.068-7.222 8.007 0 4.865 2.881 7.933 7.222 7.933zm23.569 3.106c-6.473 0-10.702-4.565-10.702-11.039 0-6.511 4.229-11.113 10.702-11.113s10.702 4.602 10.702 11.113c0 6.474-4.229 11.039-10.702 11.039zm0-3.106c4.341 0 7.184-3.068 7.184-7.933 0-4.939-2.843-8.007-7.184-8.007s-7.222 3.068-7.222 8.007c0 4.865 2.881 7.933 7.222 7.933zm13.728 9.991v-28.439h3.368v3.668c1.347-2.62 3.704-4.266 7.11-4.266 5.687 0 9.429 4.602 9.429 11.113 0 6.474-3.742 11.039-9.429 11.039-3.518 0-5.838-1.684-7.11-4.191v11.076zm10.103-9.991c3.817 0 6.324-3.068 6.324-7.933 0-4.939-2.507-8.007-6.324-8.007-4.452 0-6.735 3.367-6.735 8.007 0 4.603 2.283 7.933 6.735 7.933zm11.112-1.534h3.929v4.041h-3.929z" fill="#201c1d"/><path d="m604.758 652.186h173.431v52.4934h-173.431z" fill="#fc0"/><path d="m618.552 663.717h3.443v26.193h-3.443zm6.587 5.239h3.518v-5.239h3.367v5.239h4.154v2.881h-4.154v12.76c0 1.721.824 2.432 2.32 2.432h2.433v2.881h-2.47c-3.779 0-5.65-2.133-5.65-5.313v-12.76h-3.518zm24.929 14.331c.225 2.806 2.62 4.341 5.688 4.341 2.993 0 4.977-1.16 4.977-3.593 0-4.864-13.696-.86-13.696-9.242 0-3.368 3.293-6.436 8.42-6.436 4.527 0 8.307 2.919 8.307 7.184h-3.106c-.187-2.843-2.47-4.303-5.351-4.303-3.255 0-4.939 1.497-4.939 3.555 0 5.313 13.732.973 13.732 9.242 0 3.967-3.255 6.474-8.531 6.474-4.939 0-8.644-3.106-8.794-7.222zm15.596-14.331h3.517v-5.239h3.368v5.239h4.154v2.881h-4.154v12.76c0 1.721.823 2.432 2.32 2.432h2.432v2.881h-2.469c-3.78 0-5.651-2.133-5.651-5.313v-12.76h-3.517zm22.404-.599c5.612 0 8.494 3.704 8.494 9.579v11.974h-3.406v-3.031c-1.122 2.245-3.105 3.63-6.323 3.63-4.116 0-7.334-2.358-7.334-6.548 0-6.586 7.296-7.372 13.62-6.96-.224-3.48-1.759-5.576-5.051-5.576-3.518 0-5.389 2.171-5.389 4.902h-3.592c0-4.116 3.143-7.97 8.981-7.97zm-5.015 15.416c0 2.508 1.572 3.817 4.566 3.817 3.442 0 5.537-2.544 5.537-5.949v-2.096c-6.735-.524-10.103 1.385-10.103 4.228zm36.922-2.656c-.299 5.425-3.929 9.392-9.841 9.392-6.474 0-10.702-4.565-10.702-11.039 0-6.51 4.228-11.113 10.702-11.113 5.687 0 9.467 4.228 9.766 8.831h-3.555c-.262-2.844-2.133-5.725-6.211-5.725-4.715 0-7.222 3.367-7.222 8.007 0 4.603 2.507 7.896 7.222 7.896 4.378 0 6.099-3.031 6.361-6.249zm18.762-12.161-6.959 8.269 8.007 12.685h-3.966l-6.249-10.103-3.181 3.779v6.324h-3.367v-28.064h3.367v16.839l8.195-9.729zm4.878 14.331c.224 2.806 2.619 4.341 5.688 4.341 2.993 0 4.976-1.16 4.976-3.593 0-4.864-13.695-.86-13.695-9.242 0-3.368 3.293-6.436 8.419-6.436 4.528 0 8.307 2.919 8.307 7.184h-3.106c-.187-2.843-2.469-4.303-5.35-4.303-3.256 0-4.94 1.497-4.94 3.555 0 5.313 13.733.973 13.733 9.242 0 3.967-3.255 6.474-8.531 6.474-4.94 0-8.644-3.106-8.794-7.222zm15.969 2.582h3.929v4.041h-3.929z" fill="#201c1d"/></g></g></svg>