<svg fill="none" height="215" viewBox="0 0 300 215" width="300" xmlns="http://www.w3.org/2000/svg"><g fill="#201c1d"><path d="m57.3116 71.9717h59.1064v8.9321h-24.4805v68.2592h-10.1452v-68.2592h-24.4807zm77.4104 46.0943v31.097h-9.925v-82.705h9.925v31.5382c2.757-6.2856 8.932-12.3506 20.842-12.3506 11.909 0 20.841 6.6164 20.841 25.4734v38.044h-9.924v-36.611c0-11.468-3.309-18.1948-13.344-18.1948-9.924 0-18.415 9.0428-18.415 23.7088zm109.872 11.579c-3.088 12.681-13.123 21.282-28.12 21.282-19.077 0-31.538-13.453-31.538-32.53 0-19.1878 12.461-32.7514 31.538-32.7514 16.762 0 30.215 13.2328 28.23 36.0594h-49.292c1.103 11.799 8.381 20.07 21.062 20.07 9.925 0 15.328-5.293 17.534-12.13zm-28.12-34.8467c-12.02 0-19.077 7.3887-20.842 18.1947h39.368c-1.213-10.696-7.719-18.1947-18.526-18.1947z" opacity=".4"/><path d="m268.663 149.163c0-.736-.597-1.333-1.333-1.333s-1.333.597-1.333 1.333.597 1.333 1.333 1.333 1.333-.597 1.333-1.333zm-235.3295 0c0-.736-.597-1.333-1.3333-1.333-.7364 0-1.3334.597-1.3334 1.333s.597 1.333 1.3334 1.333c.7363 0 1.3333-.597 1.3333-1.333zm233.9965 0v-.25h-.997v.25.25h.997zm-2.991 0v-.25h-1.995v.25.25h1.995zm-3.989 0v-.25h-1.994v.25.25h1.994zm-3.989 0v-.25h-1.994v.25.25h1.994zm-3.988 0v-.25h-1.995v.25.25h1.995zm-3.989 0v-.25h-1.994v.25.25h1.994zm-3.989 0v-.25h-1.994v.25.25h1.994zm-3.988 0v-.25h-1.995v.25.25h1.995zm-3.989 0v-.25h-1.994v.25.25h1.994zm-3.989 0v-.25h-1.994v.25.25h1.994zm-3.988 0v-.25h-1.995v.25.25h1.995zm-3.989 0v-.25h-1.994v.25.25h1.994zm-3.988 0v-.25h-1.995v.25.25h1.995zm-3.989 0v-.25h-1.994v.25.25h1.994zm-3.989 0v-.25h-1.994v.25.25h1.994zm-3.988 0v-.25h-1.995v.25.25h1.995zm-3.989 0v-.25h-1.994v.25.25h1.994zm-3.989 0v-.25h-1.994v.25.25h1.994zm-3.988 0v-.25h-1.995v.25.25h1.995zm-3.989 0v-.25h-1.994v.25.25h1.994zm-3.989 0v-.25h-1.994v.25.25h1.994zm-3.988 0v-.25h-1.995v.25.25h1.995zm-3.989 0v-.25h-1.994v.25.25h1.994zm-3.989 0v-.25h-1.994v.25.25h1.994zm-3.988 0v-.25h-1.995v.25.25h1.995zm-3.989 0v-.25h-1.994v.25.25h1.994zm-3.988 0v-.25h-1.995v.25.25h1.995zm-3.989 0v-.25h-1.994v.25.25h1.994zm-3.989 0v-.25h-1.994v.25.25h1.994zm-3.988 0v-.25h-1.995v.25.25h1.995zm-3.989 0v-.25h-1.994v.25.25h1.994zm-3.989 0v-.25h-1.994v.25.25h1.994zm-3.988 0v-.25h-1.995v.25.25h1.995zm-3.989 0v-.25h-1.994v.25.25h1.994zm-3.989 0v-.25h-1.994v.25.25h1.994zm-3.988 0v-.25h-1.995v.25.25h1.995zm-3.989 0v-.25h-1.994v.25.25h1.994zm-3.989 0v-.25h-1.994v.25.25h1.994zm-3.988 0v-.25h-1.995v.25.25h1.995zm-3.989 0v-.25h-1.994v.25.25h1.994zm-3.989 0v-.25h-1.994v.25.25h1.994zm-3.988 0v-.25h-1.995v.25.25h1.995zm-3.989 0v-.25h-1.9942v.25.25h1.9942zm-3.9885 0v-.25h-1.9943v.25.25h1.9943zm-3.9886 0v-.25h-1.9944v.25.25h1.9944zm-3.9887 0v-.25h-1.9943v.25.25h1.9943zm-3.9886 0v-.25h-1.9944v.25.25h1.9944zm-3.9887 0v-.25h-1.9943v.25.25h1.9943zm-3.9886 0v-.25h-1.9944v.25.25h1.9944zm-3.9887 0v-.25h-1.9943v.25.25h1.9943zm-3.9886 0v-.25h-1.9944v.25.25h1.9944zm-3.9887 0v-.25h-1.9943v.25.25h1.9943zm-3.9886 0v-.25h-1.9943v.25.25h1.9943zm-3.9887 0v-.25h-1.9943v.25.25h1.9943zm-3.9886 0v-.25h-1.9943v.25.25h1.9943zm-3.9887 0v-.25h-1.9943v.25.25h1.9943zm-3.9886 0v-.25h-1.9943v.25.25h1.9943zm-3.9887 0v-.25h-1.9943v.25.25h1.9943zm-3.9886 0v-.25h-1.9943v.25.25h1.9943zm-3.9887 0v-.25h-.9969v.25.25h.9969z"/><path d="m30.6667 71.6631c0 .7364.5969 1.3333 1.3333 1.3333s1.3333-.5969 1.3333-1.3333-.5969-1.3333-1.3333-1.3333-1.3333.5969-1.3333 1.3333zm235.3303 0c0 .7364.597 1.3334 1.333 1.3334s1.333-.597 1.333-1.3334-.597-1.3333-1.333-1.3333-1.333.5969-1.333 1.3333zm-233.997 0v.25h.9972v-.25-.25h-.9972zm2.9915 0v.25h1.9943v-.25-.25h-1.9943zm3.9886 0v.25h1.9943v-.25-.25h-1.9943zm3.9887 0v.25h1.9943v-.25-.25h-1.9943zm3.9886 0v.25h1.9943v-.25-.25h-1.9943zm3.9887 0v.25h1.9943v-.25-.25h-1.9943zm3.9886 0v.25h1.9943v-.25-.25h-1.9943zm3.9886 0v.25h1.9944v-.25-.25h-1.9944zm3.9887 0v.25h1.9943v-.25-.25h-1.9943zm3.9886 0v.25h1.9943v-.25-.25h-1.9943zm3.9887 0v.25h1.9943v-.25-.25h-1.9943zm3.9886 0v.25h1.9943v-.25-.25h-1.9943zm3.9886 0v.25h1.9944v-.25-.25h-1.9944zm3.9887 0v.25h1.9943v-.25-.25h-1.9943zm3.9886 0v.25h1.9943v-.25-.25h-1.9943zm3.9887 0v.25h1.9943v-.25-.25h-1.9943zm3.9886 0v.25h1.9943v-.25-.25h-1.9943zm3.9886 0v.25h1.9943v-.25-.25h-1.9943zm3.9883 0v.25h1.995v-.25-.25h-1.995zm3.989 0v.25h1.994v-.25-.25h-1.994zm3.989 0v.25h1.994v-.25-.25h-1.994zm3.988 0v.25h1.995v-.25-.25h-1.995zm3.989 0v.25h1.994v-.25-.25h-1.994zm3.989 0v.25h1.994v-.25-.25h-1.994zm3.988 0v.25h1.995v-.25-.25h-1.995zm3.989 0v.25h1.994v-.25-.25h-1.994zm3.989 0v.25h1.994v-.25-.25h-1.994zm3.988 0v.25h1.995v-.25-.25h-1.995zm3.989 0v.25h1.994v-.25-.25h-1.994zm3.989 0v.25h1.994v-.25-.25h-1.994zm3.988 0v.25h1.994v-.25-.25h-1.994zm3.989 0v.25h1.994v-.25-.25h-1.994zm3.988 0v.25h1.995v-.25-.25h-1.995zm3.989 0v.25h1.994v-.25-.25h-1.994zm3.989 0v.25h1.994v-.25-.25h-1.994zm3.988 0v.25h1.995v-.25-.25h-1.995zm3.989 0v.25h1.994v-.25-.25h-1.994zm3.989 0v.25h1.994v-.25-.25h-1.994zm3.988 0v.25h1.995v-.25-.25h-1.995zm3.989 0v.25h1.994v-.25-.25h-1.994zm3.989 0v.25h1.994v-.25-.25h-1.994zm3.988 0v.25h1.995v-.25-.25h-1.995zm3.989 0v.25h1.994v-.25-.25h-1.994zm3.989 0v.25h1.994v-.25-.25h-1.994zm3.988 0v.25h1.995v-.25-.25h-1.995zm3.989 0v.25h1.994v-.25-.25h-1.994zm3.989 0v.25h1.994v-.25-.25h-1.994zm3.988 0v.25h1.994v-.25-.25h-1.994zm3.989 0v.25h1.994v-.25-.25h-1.994zm3.988 0v.25h1.995v-.25-.25h-1.995zm3.989 0v.25h1.994v-.25-.25h-1.994zm3.989 0v.25h1.994v-.25-.25h-1.994zm3.988 0v.25h1.995v-.25-.25h-1.995zm3.989 0v.25h1.994v-.25-.25h-1.994zm3.989 0v.25h1.994v-.25-.25h-1.994zm3.988 0v.25h1.995v-.25-.25h-1.995zm3.989 0v.25h1.994v-.25-.25h-1.994zm3.989 0v.25h1.994v-.25-.25h-1.994zm3.988 0v.25h1.995v-.25-.25h-1.995zm3.989 0v.25h.997v-.25-.25h-.997z"/><path d="m30.6667 66c0 .7364.5969 1.3333 1.3333 1.3333s1.3333-.5969 1.3333-1.3333-.5969-1.3333-1.3333-1.3333-1.3333.5969-1.3333 1.3333zm235.3303 0c0 .7364.597 1.3334 1.333 1.3334s1.333-.597 1.333-1.3334c0-.7363-.597-1.3333-1.333-1.3333s-1.333.597-1.333 1.3333zm-233.997 0v.25h.9972v-.25-.25h-.9972zm2.9915 0v.25h1.9943v-.25-.25h-1.9943zm3.9886 0v.25h1.9943v-.25-.25h-1.9943zm3.9887 0v.25h1.9943v-.25-.25h-1.9943zm3.9886 0v.25h1.9943v-.25-.25h-1.9943zm3.9887 0v.25h1.9943v-.25-.25h-1.9943zm3.9886 0v.25h1.9943v-.25-.25h-1.9943zm3.9886 0v.25h1.9944v-.25-.25h-1.9944zm3.9887 0v.25h1.9943v-.25-.25h-1.9943zm3.9886 0v.25h1.9943v-.25-.25h-1.9943zm3.9887 0v.25h1.9943v-.25-.25h-1.9943zm3.9886 0v.25h1.9943v-.25-.25h-1.9943zm3.9886 0v.25h1.9944v-.25-.25h-1.9944zm3.9887 0v.25h1.9943v-.25-.25h-1.9943zm3.9886 0v.25h1.9943v-.25-.25h-1.9943zm3.9887 0v.25h1.9943v-.25-.25h-1.9943zm3.9886 0v.25h1.9943v-.25-.25h-1.9943zm3.9886 0v.25h1.9943v-.25-.25h-1.9943zm3.9883 0v.25h1.995v-.25-.25h-1.995zm3.989 0v.25h1.994v-.25-.25h-1.994zm3.989 0v.25h1.994v-.25-.25h-1.994zm3.988 0v.25h1.995v-.25-.25h-1.995zm3.989 0v.25h1.994v-.25-.25h-1.994zm3.989 0v.25h1.994v-.25-.25h-1.994zm3.988 0v.25h1.995v-.25-.25h-1.995zm3.989 0v.25h1.994v-.25-.25h-1.994zm3.989 0v.25h1.994v-.25-.25h-1.994zm3.988 0v.25h1.995v-.25-.25h-1.995zm3.989 0v.25h1.994v-.25-.25h-1.994zm3.989 0v.25h1.994v-.25-.25h-1.994zm3.988 0v.25h1.994v-.25-.25h-1.994zm3.989 0v.25h1.994v-.25-.25h-1.994zm3.988 0v.25h1.995v-.25-.25h-1.995zm3.989 0v.25h1.994v-.25-.25h-1.994zm3.989 0v.25h1.994v-.25-.25h-1.994zm3.988 0v.25h1.995v-.25-.25h-1.995zm3.989 0v.25h1.994v-.25-.25h-1.994zm3.989 0v.25h1.994v-.25-.25h-1.994zm3.988 0v.25h1.995v-.25-.25h-1.995zm3.989 0v.25h1.994v-.25-.25h-1.994zm3.989 0v.25h1.994v-.25-.25h-1.994zm3.988 0v.25h1.995v-.25-.25h-1.995zm3.989 0v.25h1.994v-.25-.25h-1.994zm3.989 0v.25h1.994v-.25-.25h-1.994zm3.988 0v.25h1.995v-.25-.25h-1.995zm3.989 0v.25h1.994v-.25-.25h-1.994zm3.989 0v.25h1.994v-.25-.25h-1.994zm3.988 0v.25h1.994v-.25-.25h-1.994zm3.989 0v.25h1.994v-.25-.25h-1.994zm3.988 0v.25h1.995v-.25-.25h-1.995zm3.989 0v.25h1.994v-.25-.25h-1.994zm3.989 0v.25h1.994v-.25-.25h-1.994zm3.988 0v.25h1.995v-.25-.25h-1.995zm3.989 0v.25h1.994v-.25-.25h-1.994zm3.989 0v.25h1.994v-.25-.25h-1.994zm3.988 0v.25h1.995v-.25-.25h-1.995zm3.989 0v.25h1.994v-.25-.25h-1.994zm3.989 0v.25h1.994v-.25-.25h-1.994zm3.988 0v.25h1.995v-.25-.25h-1.995zm3.989 0v.25h.997v-.25-.25h-.997z"/><path d="m30.6667 87.084c0 .7364.5969 1.3333 1.3333 1.3333s1.3333-.5969 1.3333-1.3333-.5969-1.3333-1.3333-1.3333-1.3333.5969-1.3333 1.3333zm235.3303 0c0 .7364.597 1.3334 1.333 1.3334s1.333-.597 1.333-1.3334-.597-1.3333-1.333-1.3333-1.333.5969-1.333 1.3333zm-233.997 0v.25h.9972v-.25-.25h-.9972zm2.9915 0v.25h1.9943v-.25-.25h-1.9943zm3.9886 0v.25h1.9943v-.25-.25h-1.9943zm3.9887 0v.25h1.9943v-.25-.25h-1.9943zm3.9886 0v.25h1.9943v-.25-.25h-1.9943zm3.9887 0v.25h1.9943v-.25-.25h-1.9943zm3.9886 0v.25h1.9943v-.25-.25h-1.9943zm3.9886 0v.25h1.9944v-.25-.25h-1.9944zm3.9887 0v.25h1.9943v-.25-.25h-1.9943zm3.9886 0v.25h1.9943v-.25-.25h-1.9943zm3.9887 0v.25h1.9943v-.25-.25h-1.9943zm3.9886 0v.25h1.9943v-.25-.25h-1.9943zm3.9886 0v.25h1.9944v-.25-.25h-1.9944zm3.9887 0v.25h1.9943v-.25-.25h-1.9943zm3.9886 0v.25h1.9943v-.25-.25h-1.9943zm3.9887 0v.25h1.9943v-.25-.25h-1.9943zm3.9886 0v.25h1.9943v-.25-.25h-1.9943zm3.9886 0v.25h1.9943v-.25-.25h-1.9943zm3.9883 0v.25h1.995v-.25-.25h-1.995zm3.989 0v.25h1.994v-.25-.25h-1.994zm3.989 0v.25h1.994v-.25-.25h-1.994zm3.988 0v.25h1.995v-.25-.25h-1.995zm3.989 0v.25h1.994v-.25-.25h-1.994zm3.989 0v.25h1.994v-.25-.25h-1.994zm3.988 0v.25h1.995v-.25-.25h-1.995zm3.989 0v.25h1.994v-.25-.25h-1.994zm3.989 0v.25h1.994v-.25-.25h-1.994zm3.988 0v.25h1.995v-.25-.25h-1.995zm3.989 0v.25h1.994v-.25-.25h-1.994zm3.989 0v.25h1.994v-.25-.25h-1.994zm3.988 0v.25h1.994v-.25-.25h-1.994zm3.989 0v.25h1.994v-.25-.25h-1.994zm3.988 0v.25h1.995v-.25-.25h-1.995zm3.989 0v.25h1.994v-.25-.25h-1.994zm3.989 0v.25h1.994v-.25-.25h-1.994zm3.988 0v.25h1.995v-.25-.25h-1.995zm3.989 0v.25h1.994v-.25-.25h-1.994zm3.989 0v.25h1.994v-.25-.25h-1.994zm3.988 0v.25h1.995v-.25-.25h-1.995zm3.989 0v.25h1.994v-.25-.25h-1.994zm3.989 0v.25h1.994v-.25-.25h-1.994zm3.988 0v.25h1.995v-.25-.25h-1.995zm3.989 0v.25h1.994v-.25-.25h-1.994zm3.989 0v.25h1.994v-.25-.25h-1.994zm3.988 0v.25h1.995v-.25-.25h-1.995zm3.989 0v.25h1.994v-.25-.25h-1.994zm3.989 0v.25h1.994v-.25-.25h-1.994zm3.988 0v.25h1.994v-.25-.25h-1.994zm3.989 0v.25h1.994v-.25-.25h-1.994zm3.988 0v.25h1.995v-.25-.25h-1.995zm3.989 0v.25h1.994v-.25-.25h-1.994zm3.989 0v.25h1.994v-.25-.25h-1.994zm3.988 0v.25h1.995v-.25-.25h-1.995zm3.989 0v.25h1.994v-.25-.25h-1.994zm3.989 0v.25h1.994v-.25-.25h-1.994zm3.988 0v.25h1.995v-.25-.25h-1.995zm3.989 0v.25h1.994v-.25-.25h-1.994zm3.989 0v.25h1.994v-.25-.25h-1.994zm3.988 0v.25h1.995v-.25-.25h-1.995zm3.989 0v.25h.997v-.25-.25h-.997z"/></g></svg>