<svg fill="none" height="540" viewBox="0 0 1030 540" width="1030" xmlns="http://www.w3.org/2000/svg" xmlns:xlink="http://www.w3.org/1999/xlink"><clipPath id="a"><path d="m0 0h1030v540h-1030z"/></clipPath><g clip-path="url(#a)"><path d="m0 0h1030v540h-1030z" fill="#f39fff"/><path d="m990.811-12.4961 40.809 23.5631-40.809 23.563-40.812-23.563z" fill="#fc0"/><path d="m827.559-12.4961 40.812 23.5631-40.812 23.563-40.812-23.563z" fill="#fc0"/><path d="m990.813-12.4965 40.817-23.5631v47.1261l-40.817 23.5631z" fill="#fc0"/><path d="m949.999-36.0596 40.812 23.5631v47.1261l-40.812-23.5631z" fill="#5074ef"/><path d="m827.562-12.4965 40.812-23.5631v47.1261l-40.812 23.5631z" fill="#fc0"/><path d="m786.747-36.0596 40.812 23.5631v47.1261l-40.812-23.5631z" fill="#5074ef"/><path d="m909.189 34.6289 40.813 23.5631-40.813 23.563-40.812-23.563z" fill="#fc0"/><path d="m745.937 34.6289 40.813 23.5631-40.813 23.563-40.812-23.563z" fill="#fc0"/><path d="m909.183 34.6309 40.813-23.563v47.1261l-40.813 23.563z" fill="#fc0"/><path d="m909.189-12.4961 40.813 23.5631-40.813 23.563-40.812-23.563z" fill="#ff5e00"/><path d="m745.932 34.6309 40.812-23.563v47.1261l-40.812 23.563z" fill="#fc0"/><path d="m745.937-12.4961 40.813 23.5631-40.813 23.563-40.812-23.563z" fill="#ff5e00"/><path d="m868.377 11.0679 40.812 23.563v47.1261l-40.812-23.563z" fill="#5074ef"/><path d="m705.125 11.0679 40.812 23.563v47.1261l-40.812-23.563z" fill="#5074ef"/><path d="m990.811 81.7563 40.809 23.5627-40.809 23.563-40.812-23.563z" fill="#fc0"/><path d="m827.559 81.7563 40.812 23.5627-40.812 23.563-40.812-23.563z" fill="#fc0"/><path d="m664.307 81.7563 40.812 23.5627-40.812 23.563-40.812-23.563z" fill="#fc0"/><path d="m664.31 34.6289 40.812 23.5631v47.126l-40.812-23.563z" fill="#ff5e00"/><path d="m990.813 81.7554 40.817-23.563v47.1256l-40.817 23.564z" fill="#fc0"/><path d="m949.999 58.1924 40.812 23.563v47.1266l-40.812-23.564z" fill="#5074ef"/><path d="m827.562 81.7554 40.812-23.563v47.1256l-40.812 23.564z" fill="#fc0"/><path d="m786.747 58.1924 40.812 23.563v47.1266l-40.812-23.564z" fill="#5074ef"/><path d="m623.495 58.1924 40.812 23.563v47.1266l-40.812-23.564z" fill="#5074ef"/><path d="m990.811 34.6289 40.809 23.5631-40.809 23.563-40.812-23.563z" fill="#ff5e00"/><path d="m827.559 34.6289 40.812 23.5631-40.812 23.563-40.812-23.563z" fill="#ff5e00"/><path d="m664.31 81.7554 40.812-23.563v47.1256l-40.812 23.564z" fill="#fc0"/><path d="m664.307 34.6289 40.812 23.5631-40.812 23.563-40.812-23.563z" fill="#ff5e00"/><path d="m745.932 81.7563 40.812 23.5627v47.127l-40.812-23.564z" fill="#ff5e00"/><path d="m582.685 128.881 40.813 23.563-40.813 23.563-40.812-23.563z" fill="#fc0"/><path d="m582.688 81.7563 40.813 23.5627v47.127l-40.813-23.564z" fill="#ff5e00"/><path d="m909.189 81.7563 40.813 23.5627-40.813 23.563-40.812-23.563z" fill="#ff5e00"/><path d="m745.937 81.7563 40.813 23.5627-40.813 23.563-40.812-23.563z" fill="#ff5e00"/><path d="m909.183 128.883 40.813-23.563v47.126l-40.813 23.563z" fill="#fc0"/><path d="m868.377 105.32 40.812 23.563v47.126l-40.812-23.563z" fill="#5074ef"/><path d="m745.932 128.883 40.812-23.563v47.126l-40.812 23.563z" fill="#fc0"/><path d="m705.125 105.32 40.812 23.563v47.126l-40.812-23.563z" fill="#5074ef"/><path d="m582.688 128.883 40.813-23.563v47.126l-40.813 23.563z" fill="#fc0"/><path d="m582.685 81.7563 40.813 23.5627-40.813 23.563-40.812-23.563z" fill="#ff5e00"/><path d="m541.873 105.32 40.812 23.563v47.126l-40.812-23.563z" fill="#5074ef"/><g fill="#ff5e00"><path d="m664.31 128.881 40.812 23.563v47.126l-40.812-23.563z"/><path d="m501.058 128.881 40.813 23.563v47.126l-40.813-23.563z"/><path d="m990.811 128.881 40.809 23.563-40.809 23.563-40.812-23.563z"/><path d="m827.559 128.881 40.812 23.563-40.812 23.563-40.812-23.563z"/><path d="m664.307 128.881 40.812 23.563-40.812 23.563-40.812-23.563z"/><path d="m501.064 128.881 40.813 23.563-40.813 23.563-40.812-23.563z"/></g><path d="m990.813 176.008 40.817-23.563v47.126l-40.817 23.563z" fill="#fc0"/><path d="m949.999 152.445 40.812 23.563v47.126l-40.812-23.563z" fill="#5074ef"/><path d="m827.562 176.008 40.812-23.563v47.126l-40.812 23.563z" fill="#fc0"/><path d="m786.747 152.445 40.812 23.563v47.126l-40.812-23.563z" fill="#5074ef"/><path d="m664.31 176.008 40.812-23.563v47.126l-40.812 23.563z" fill="#fc0"/><path d="m623.495 152.445 40.812 23.563v47.126l-40.812-23.563z" fill="#5074ef"/><path d="m501.058 176.008 40.813-23.563v47.126l-40.813 23.563z" fill="#fc0"/><path d="m460.252 152.445 40.812 23.563v47.126l-40.812-23.563z" fill="#5074ef"/><path d="m745.932 176.008 40.812 23.563v47.126l-40.812-23.563z" fill="#ff5e00"/><path d="m582.688 176.008 40.813 23.563v47.126l-40.813-23.563z" fill="#ff5e00"/><path d="m419.437 176.008 40.812 23.563v47.126l-40.812-23.563z" fill="#ff5e00"/><path d="m909.183 223.135 40.813-23.563v47.126l-40.813 23.563z" fill="#fc0"/><path d="m868.377 199.571 40.812-23.563 40.813 23.563-40.813 23.563z" fill="#ff5e00"/><path d="m745.932 223.135 40.812-23.563v47.126l-40.812 23.563z" fill="#fc0"/><path d="m705.125 199.571 40.812-23.563 40.813 23.563-40.813 23.563z" fill="#ff5e00"/><path d="m582.688 223.135 40.813-23.563v47.126l-40.813 23.563z" fill="#fc0"/><path d="m582.685 176.008 40.813 23.563-40.813 23.563-40.812-23.563z" fill="#ff5e00"/><path d="m419.437 223.135 40.812-23.563v47.126l-40.812 23.563z" fill="#fc0"/><path d="m419.434 176.008 40.812 23.563-40.812 23.563-40.813-23.563z" fill="#ff5e00"/><g fill="#5074ef"><path d="m868.377 199.572 40.812 23.563v47.126l-40.812-23.563z"/><path d="m705.125 199.572 40.812 23.563v47.126l-40.812-23.563z"/><path d="m541.873 199.572 40.812 23.563v47.126l-40.812-23.563z"/><path d="m378.621 199.572 40.813 23.563v47.126l-40.813-23.563z"/></g><path d="m827.562 223.133 40.812 23.563v47.126l-40.812-23.563z" fill="#ff5e00"/><path d="m664.31 223.133 40.812 23.563v47.126l-40.812-23.563z" fill="#ff5e00"/><path d="m501.058 223.133 40.813 23.563v47.126l-40.813-23.563z" fill="#ff5e00"/><path d="m337.815 223.133 40.813 23.563v47.126l-40.813-23.563z" fill="#ff5e00"/><path d="m990.813 270.26 40.817-23.563v47.126l-40.817 23.563z" fill="#fc0"/><path d="m990.811 223.133 40.809 23.563-40.809 23.563-40.812-23.563z" fill="#ff5e00"/><path d="m949.999 246.697 40.812 23.563v47.126l-40.812-23.563z" fill="#5074ef"/><path d="m827.562 270.26 40.812-23.563v47.126l-40.812 23.563z" fill="#fc0"/><path d="m827.559 223.133 40.812 23.563-40.812 23.563-40.812-23.563z" fill="#ff5e00"/><path d="m786.747 246.697 40.812 23.563v47.126l-40.812-23.563z" fill="#5074ef"/><path d="m664.31 270.26 40.812-23.563v47.126l-40.812 23.563z" fill="#fc0"/><path d="m664.307 223.133 40.812 23.563-40.812 23.563-40.812-23.563z" fill="#ff5e00"/><path d="m623.495 246.697 40.812 23.563v47.126l-40.812-23.563z" fill="#5074ef"/><path d="m501.058 270.26 40.813-23.563v47.126l-40.813 23.563z" fill="#fc0"/><path d="m501.064 223.133 40.813 23.563-40.813 23.563-40.812-23.563z" fill="#ff5e00"/><path d="m460.252 246.697 40.812 23.563v47.126l-40.812-23.563z" fill="#5074ef"/><path d="m337.815 270.26 40.813-23.563v47.126l-40.813 23.563z" fill="#fc0"/><path d="m337.812 223.133 40.813 23.563-40.813 23.563-40.812-23.563z" fill="#ff5e00"/><path d="m297 246.697 40.812 23.563v47.126l-40.812-23.563z" fill="#5074ef"/><path d="m745.932 270.26 40.812 23.563v47.126l-40.812-23.563z" fill="#ff5e00"/><path d="m582.688 270.26 40.813 23.563v47.126l-40.813-23.563z" fill="#ff5e00"/><path d="m419.437 270.26 40.812 23.563v47.126l-40.812-23.563z" fill="#ff5e00"/><path d="m909.183 317.387 40.813-23.563v47.126l-40.813 23.563z" fill="#fc0"/><path d="m909.189 270.26 40.813 23.563-40.813 23.563-40.812-23.563z" fill="#ff5e00"/><path d="m868.377 293.824 40.812 23.563v47.126l-40.812-23.563z" fill="#5074ef"/><path d="m745.932 317.387 40.812-23.563v47.126l-40.812 23.563z" fill="#fc0"/><path d="m705.125 293.824 40.812 23.563v47.126l-40.812-23.563z" fill="#5074ef"/><path d="m745.937 270.26 40.813 23.563-40.813 23.563-40.812-23.563z" fill="#ff5e00"/><path d="m582.685 270.26 40.813 23.563-40.813 23.563-40.812-23.563z" fill="#ff5e00"/><path d="m419.434 270.26 40.812 23.563-40.812 23.563-40.813-23.563z" fill="#ff5e00"/><path d="m582.688 317.387 40.813-23.563v47.126l-40.813 23.563z" fill="#fc0"/><path d="m541.873 293.824 40.812 23.563v47.126l-40.812-23.563z" fill="#5074ef"/><path d="m419.437 317.387 40.812-23.563v47.126l-40.812 23.563z" fill="#fc0"/><path d="m378.621 293.824 40.813 23.563v47.126l-40.813-23.563z" fill="#5074ef"/><path d="m827.562 317.386 40.812 23.563v47.126l-40.812-23.563z" fill="#ff5e00"/><path d="m664.31 317.386 40.812 23.563v47.126l-40.812-23.563z" fill="#ff5e00"/><path d="m501.058 317.386 40.813 23.563v47.126l-40.813-23.563z" fill="#ff5e00"/><path d="m990.813 364.513 40.817-23.563v47.126l-40.817 23.563z" fill="#fc0"/><path d="m990.811 317.386 40.809 23.563-40.809 23.563-40.812-23.563z" fill="#ff5e00"/><path d="m949.999 340.95 40.812 23.563v47.126l-40.812-23.563z" fill="#5074ef"/><path d="m827.562 364.513 40.812-23.563v47.126l-40.812 23.563z" fill="#fc0"/><path d="m827.559 317.386 40.812 23.563-40.812 23.563-40.812-23.563z" fill="#ff5e00"/><path d="m786.747 340.95 40.812 23.563v47.126l-40.812-23.563z" fill="#5074ef"/><path d="m664.31 364.513 40.812-23.563v47.126l-40.812 23.563z" fill="#fc0"/><path d="m664.307 317.386 40.812 23.563-40.812 23.563-40.812-23.563z" fill="#ff5e00"/><path d="m623.495 340.95 40.812 23.563v47.126l-40.812-23.563z" fill="#5074ef"/><path d="m501.058 364.513 40.813-23.563v47.126l-40.813 23.563z" fill="#fc0"/><path d="m501.064 317.386 40.813 23.563-40.813 23.563-40.812-23.563z" fill="#ff5e00"/><path d="m460.252 340.95 40.812 23.563v47.126l-40.812-23.563z" fill="#5074ef"/><path d="m909.183 364.512 40.813 23.563v47.126l-40.813-23.563z" fill="#ff5e00"/><path d="m745.932 364.512 40.812 23.563v47.126l-40.812-23.563z" fill="#ff5e00"/><path d="m582.688 364.512 40.813 23.563v47.126l-40.813-23.563z" fill="#ff5e00"/><path d="m909.183 411.639 40.813-23.563v47.126l-40.813 23.563z" fill="#fc0"/><path d="m909.189 364.512 40.813 23.563-40.813 23.563-40.812-23.563z" fill="#ff5e00"/><path d="m868.377 388.076 40.812 23.563v47.126l-40.812-23.563z" fill="#5074ef"/><path d="m745.932 411.639 40.812-23.563v47.126l-40.812 23.563z" fill="#fc0"/><path d="m745.937 364.512 40.813 23.563-40.813 23.563-40.812-23.563z" fill="#ff5e00"/><path d="m705.125 388.076 40.812 23.563v47.126l-40.812-23.563z" fill="#5074ef"/><path d="m582.688 411.639 40.813-23.563v47.126l-40.813 23.563z" fill="#fc0"/><path d="m582.685 364.512 40.813 23.563-40.813 23.563-40.812-23.563z" fill="#ff5e00"/><path d="m541.873 388.076 40.812 23.563v47.126l-40.812-23.563z" fill="#5074ef"/><path d="m990.813 411.638 40.817 23.563v47.126l-40.817-23.563z" fill="#ff5e00"/><path d="m827.562 411.638 40.812 23.563v47.126l-40.812-23.563z" fill="#ff5e00"/><path d="m664.31 411.638 40.812 23.563v47.126l-40.812-23.563z" fill="#ff5e00"/><path d="m990.813 458.765 40.817-23.563v47.126l-40.817 23.563z" fill="#fc0"/><path d="m990.811 411.638 40.809 23.563-40.809 23.563-40.812-23.563z" fill="#ff5e00"/><path d="m949.999 435.202 40.812 23.563v47.126l-40.812-23.563z" fill="#5074ef"/><path d="m827.562 458.765 40.812-23.563v47.126l-40.812 23.563z" fill="#fc0"/><path d="m827.559 411.638 40.812 23.563-40.812 23.563-40.812-23.563z" fill="#ff5e00"/><path d="m786.747 435.202 40.812 23.563v47.126l-40.812-23.563z" fill="#5074ef"/><path d="m664.31 458.765 40.812-23.563v47.126l-40.812 23.563z" fill="#fc0"/><path d="m623.495 435.201 40.812-23.563 40.812 23.563-40.812 23.563z" fill="#ff5e00"/><path d="m623.495 435.202 40.812 23.563v47.126l-40.812-23.563z" fill="#5074ef"/><path d="m909.183 458.765 40.813 23.563v47.126l-40.813-23.563z" fill="#ff5e00"/><path d="m745.932 458.765 40.812 23.563v47.126l-40.812-23.563z" fill="#ff5e00"/><path d="m909.183 505.891 40.813-23.563v47.126l-40.813 23.563z" fill="#fc0"/><path d="m909.189 458.765 40.813 23.563-40.813 23.563-40.812-23.563z" fill="#ff5e00"/><path d="m868.377 482.328 40.812 23.563v47.126l-40.812-23.563z" fill="#5074ef"/><path d="m745.932 505.891 40.812-23.563v47.126l-40.812 23.563z" fill="#fc0"/><path d="m745.937 458.765 40.813 23.563-40.813 23.563-40.812-23.563z" fill="#ff5e00"/><path d="m705.125 482.328 40.812 23.563v47.126l-40.812-23.563z" fill="#5074ef"/><path d="m990.813 505.891 40.817 23.563v47.126l-40.817-23.563z" fill="#ff5e00"/><path d="m827.562 505.891 40.812 23.563v47.126l-40.812-23.563z" fill="#ff5e00"/><path d="m990.813 553.017 40.817-23.563v47.126l-40.817 23.563z" fill="#fc0"/><path d="m990.811 505.891 40.809 23.563-40.809 23.563-40.812-23.563z" fill="#ff5e00"/><path d="m949.999 529.454 40.812 23.563v47.126l-40.812-23.563z" fill="#5074ef"/><path d="m827.562 553.017 40.812-23.563v47.126l-40.812 23.563z" fill="#fc0"/><path d="m827.559 505.891 40.812 23.563-40.812 23.563-40.812-23.563z" fill="#ff5e00"/><path d="m786.747 529.454 40.812 23.563v47.126l-40.812-23.563z" fill="#5074ef"/><path d="m0 0h701.76v100.38h-701.76z" fill="#201c1d" transform="translate(31 408.595)"/><path d="m74.1373 485.971c-3.8055 0-7.1168-.914-9.9339-2.743-2.8171-1.878-4.9917-4.472-6.5238-7.784-1.4826-3.311-2.224-7.092-2.224-11.342 0-4.3.7414-8.105 2.224-11.417 1.5321-3.311 3.7067-5.906 6.5238-7.784s6.1284-2.817 9.9339-2.817c3.163 0 5.8318.667 8.0064 2.002 2.224 1.334 4.0032 3.188 5.3376 5.56v-20.461h8.0065v55.6h-8.0065v-6.301c-1.2355 2.273-2.9653 4.102-5.1893 5.486-2.1746 1.334-4.8928 2.001-8.1547 2.001zm1.112-7.265c2.7182 0 4.9669-.618 6.7462-1.853 1.8286-1.285 3.1877-3.04 4.0773-5.264.939-2.224 1.4085-4.719 1.4085-7.487 0-2.817-.4695-5.338-1.4085-7.562-.8896-2.224-2.2487-3.978-4.0773-5.263-1.7793-1.285-4.028-1.928-6.7462-1.928-3.6078 0-6.4496 1.359-8.5254 4.078-2.0263 2.718-3.0394 6.276-3.0394 10.675 0 4.349 1.0131 7.883 3.0394 10.601 2.0758 2.669 4.9176 4.003 8.5254 4.003zm34.4117-12.009v-4.893h-8.451c.346-4.102 1.458-7.611 3.336-10.527 1.927-2.966 4.423-5.239 7.487-6.821 3.065-1.581 6.5-2.372 10.305-2.372 3.756 0 7.166.964 10.23 2.891 3.065 1.928 5.412 4.745 7.043 8.452 1.681 3.657 2.249 8.08 1.705 13.27zm12.677-17.348c-3.311 0-6.104.939-8.377 2.817s-3.657 4.473-4.152 7.784h23.649c-.296-2.965-1.384-5.461-3.262-7.487-1.878-2.076-4.497-3.114-7.858-3.114zm0 36.622c-4.003 0-7.512-.815-10.527-2.446s-5.436-3.88-7.265-6.746c-1.829-2.916-2.916-6.277-3.262-10.082h8.377c.346 3.558 1.557 6.449 3.633 8.673 2.125 2.224 5.14 3.336 9.044 3.336 2.916 0 5.214-.667 6.894-2.001 1.73-1.384 2.941-3.089 3.633-5.116h8.451c-.988 4.3-3.138 7.784-6.449 10.453-3.312 2.62-7.488 3.929-12.529 3.929zm31.978-14.307c.247 2.52 1.334 4.398 3.262 5.634 1.927 1.235 4.225 1.853 6.894 1.853 2.57 0 4.67-.494 6.301-1.483 1.631-.988 2.447-2.545 2.447-4.67 0-1.236-.494-2.199-1.483-2.891-.939-.692-2.199-1.211-3.781-1.557-1.532-.395-3.237-.741-5.115-1.038s-3.756-.667-5.634-1.112c-1.829-.494-3.534-1.161-5.115-2.002-1.532-.889-2.768-2.075-3.707-3.558s-1.409-3.41-1.409-5.782c0-2.224.692-4.325 2.076-6.302s3.336-3.583 5.857-4.818c2.57-1.236 5.56-1.854 8.97-1.854 2.965 0 5.708.618 8.229 1.854 2.52 1.186 4.547 2.841 6.079 4.966 1.532 2.126 2.298 4.597 2.298 7.414h-7.636c-.198-2.521-1.186-4.374-2.965-5.56-1.73-1.236-3.831-1.854-6.302-1.854-2.866 0-5.041.594-6.523 1.78-1.434 1.136-2.15 2.594-2.15 4.374-.05 1.383.395 2.446 1.334 3.187.989.742 2.249 1.31 3.781 1.705 1.581.396 3.311.742 5.189 1.038 1.878.297 3.732.667 5.56 1.112 1.878.396 3.583 1.013 5.116 1.854 1.581.79 2.841 1.927 3.78 3.41.989 1.433 1.483 3.311 1.483 5.634 0 3.904-1.557 7.043-4.67 9.415-3.065 2.372-7.191 3.558-12.381 3.558-3.262 0-6.227-.617-8.896-1.853-2.619-1.285-4.72-2.99-6.301-5.115-1.532-2.175-2.348-4.621-2.446-7.339zm71.79-4.3c-.148 3.558-1.038 6.746-2.669 9.563-1.581 2.817-3.805 5.041-6.672 6.672-2.866 1.582-6.252 2.372-10.156 2.372-4.3 0-8.056-.914-11.268-2.743-3.164-1.878-5.61-4.472-7.34-7.784-1.729-3.311-2.594-7.092-2.594-11.342 0-4.3.865-8.105 2.594-11.417 1.73-3.311 4.176-5.906 7.34-7.784 3.212-1.878 6.968-2.817 11.268-2.817 3.756 0 7.043.84 9.86 2.521 2.866 1.631 5.115 3.781 6.746 6.449 1.68 2.62 2.594 5.462 2.743 8.526h-8.452c-.098-1.681-.568-3.287-1.408-4.819-.791-1.581-1.977-2.866-3.558-3.855-1.533-.988-3.509-1.483-5.931-1.483-2.916 0-5.338.643-7.265 1.928-1.928 1.235-3.361 2.965-4.3 5.189s-1.409 4.745-1.409 7.562c0 4.201 1.063 7.685 3.188 10.453 2.125 2.718 5.387 4.077 9.786 4.077 2.57 0 4.646-.519 6.227-1.557 1.631-1.087 2.842-2.496 3.633-4.225.79-1.73 1.235-3.559 1.334-5.486zm13.605-4.374v21.795h-8.007v-41.515h8.007v6.969c.494-1.433 1.285-2.768 2.372-4.003 1.087-1.236 2.545-2.224 4.374-2.966 1.878-.79 4.25-1.186 7.117-1.186v8.007c-2.966 0-5.486.395-7.562 1.186s-3.657 2.125-4.745 4.003c-1.037 1.829-1.556 4.399-1.556 7.71zm17.408-34.176 8.896-2.001 2.001 9.044-8.896 2.002zm2.372 14.456h8.006v41.515h-8.006zm16.016 56.342v-56.342h8.007v6.376c1.285-2.372 3.015-4.226 5.189-5.56 2.224-1.335 4.942-2.002 8.155-2.002 3.805 0 7.092.939 9.86 2.817 2.817 1.878 4.991 4.473 6.523 7.784 1.532 3.312 2.298 7.117 2.298 11.417 0 4.25-.766 8.031-2.298 11.342-1.532 3.312-3.706 5.906-6.523 7.784-2.768 1.829-6.055 2.743-9.86 2.743-3.311 0-6.079-.667-8.303-2.001-2.175-1.384-3.855-3.213-5.041-5.486v21.128zm20.239-20.906c3.558 0 6.375-1.334 8.451-4.003 2.076-2.718 3.114-6.252 3.114-10.601 0-4.399-1.038-7.957-3.114-10.675-2.076-2.719-4.893-4.078-8.451-4.078-2.768 0-5.066.643-6.895 1.928-1.779 1.285-3.113 3.039-4.003 5.263-.889 2.224-1.334 4.745-1.334 7.562 0 2.768.445 5.263 1.334 7.487.89 2.224 2.224 3.979 4.003 5.264 1.829 1.235 4.127 1.853 6.895 1.853zm28.728 6.079v-34.694h-6.227v-6.821h6.227v-10.378h8.006v10.378h8.377v6.821h-8.377v27.874h9.563v6.82zm21.62-55.971 8.896-2.001 2.001 9.044-8.896 2.002zm2.372 14.456h8.006v41.515h-8.006zm13.503 0h8.599l10.305 34.621 10.304-34.621h8.6l-13.344 41.515h-11.12zm47.774 23.427v-4.893h-8.451c.346-4.102 1.458-7.611 3.336-10.527 1.927-2.966 4.423-5.239 7.487-6.821 3.065-1.581 6.499-2.372 10.305-2.372 3.756 0 7.166.964 10.23 2.891 3.065 1.928 5.412 4.745 7.043 8.452 1.68 3.657 2.249 8.08 1.705 13.27zm12.677-17.348c-3.311 0-6.104.939-8.377 2.817-2.274 1.878-3.657 4.473-4.152 7.784h23.649c-.297-2.965-1.384-5.461-3.262-7.487-1.878-2.076-4.497-3.114-7.858-3.114zm0 36.622c-4.003 0-7.512-.815-10.527-2.446s-5.437-3.88-7.265-6.746c-1.829-2.916-2.916-6.277-3.262-10.082h8.377c.346 3.558 1.557 6.449 3.633 8.673 2.125 2.224 5.14 3.336 9.044 3.336 2.916 0 5.214-.667 6.894-2.001 1.73-1.384 2.941-3.089 3.633-5.116h8.451c-.988 4.3-3.138 7.784-6.45 10.453-3.311 2.62-7.487 3.929-12.528 3.929zm46.312-14.307c.247 2.52 1.334 4.398 3.262 5.634 1.927 1.235 4.225 1.853 6.894 1.853 2.57 0 4.671-.494 6.302-1.483 1.631-.988 2.446-2.545 2.446-4.67 0-1.236-.494-2.199-1.483-2.891-.939-.692-2.199-1.211-3.78-1.557-1.533-.395-3.238-.741-5.116-1.038s-3.756-.667-5.634-1.112c-1.828-.494-3.534-1.161-5.115-2.002-1.532-.889-2.768-2.075-3.707-3.558s-1.408-3.41-1.408-5.782c0-2.224.692-4.325 2.075-6.302 1.384-1.977 3.336-3.583 5.857-4.818 2.57-1.236 5.56-1.854 8.97-1.854 2.966 0 5.708.618 8.229 1.854 2.521 1.186 4.547 2.841 6.079 4.966 1.532 2.126 2.298 4.597 2.298 7.414h-7.636c-.197-2.521-1.186-4.374-2.965-5.56-1.73-1.236-3.83-1.854-6.301-1.854-2.867 0-5.041.594-6.524 1.78-1.433 1.136-2.15 2.594-2.15 4.374-.049 1.383.395 2.446 1.334 3.187.989.742 2.249 1.31 3.781 1.705 1.582.396 3.312.742 5.19 1.038 1.878.297 3.731.667 5.56 1.112 1.878.396 3.583 1.013 5.115 1.854 1.581.79 2.842 1.927 3.781 3.41.988 1.433 1.482 3.311 1.482 5.634 0 3.904-1.557 7.043-4.67 9.415-3.064 2.372-7.191 3.558-12.38 3.558-3.262 0-6.228-.617-8.896-1.853-2.62-1.285-4.72-2.99-6.302-5.115-1.532-2.175-2.347-4.621-2.446-7.339zm42.178 13.121-13.344-41.515h8.6l10.305 34.621 10.304-34.621h8.6l-12.232 37.957h.074l-5.931 18.385h-15.865v-6.82h10.083l2.668-8.007zm34.634-13.121c.247 2.52 1.335 4.398 3.262 5.634 1.928 1.235 4.226 1.853 6.894 1.853 2.57 0 4.671-.494 6.302-1.483 1.631-.988 2.446-2.545 2.446-4.67 0-1.236-.494-2.199-1.482-2.891-.939-.692-2.2-1.211-3.781-1.557-1.532-.395-3.237-.741-5.115-1.038s-3.757-.667-5.635-1.112c-1.828-.494-3.533-1.161-5.115-2.002-1.532-.889-2.767-2.075-3.706-3.558-.94-1.483-1.409-3.41-1.409-5.782 0-2.224.692-4.325 2.076-6.302s3.336-3.583 5.856-4.818c2.57-1.236 5.56-1.854 8.97-1.854 2.966 0 5.709.618 8.229 1.854 2.521 1.186 4.547 2.841 6.079 4.966 1.532 2.126 2.298 4.597 2.298 7.414h-7.635c-.198-2.521-1.187-4.374-2.966-5.56-1.73-1.236-3.83-1.854-6.301-1.854-2.867 0-5.041.594-6.524 1.78-1.433 1.136-2.15 2.594-2.15 4.374-.049 1.383.396 2.446 1.335 3.187.988.742 2.248 1.31 3.78 1.705 1.582.396 3.312.742 5.19 1.038 1.878.297 3.731.667 5.56 1.112 1.878.396 3.583 1.013 5.115 1.854 1.582.79 2.842 1.927 3.781 3.41.988 1.433 1.483 3.311 1.483 5.634 0 3.904-1.557 7.043-4.671 9.415-3.064 2.372-7.191 3.558-12.38 3.558-3.262 0-6.227-.617-8.896-1.853-2.62-1.285-4.72-2.99-6.302-5.115-1.532-2.175-2.347-4.621-2.446-7.339zm36.37 13.121v-34.694h-6.227v-6.821h6.227v-10.378h8.007v10.378h8.377v6.821h-8.377v27.874h9.563v6.82zm28.366-18.088v-4.893h-8.451c.346-4.102 1.458-7.611 3.336-10.527 1.927-2.966 4.423-5.239 7.487-6.821 3.065-1.581 6.5-2.372 10.305-2.372 3.756 0 7.166.964 10.23 2.891 3.065 1.928 5.412 4.745 7.043 8.452 1.681 3.657 2.249 8.08 1.705 13.27zm12.677-17.348c-3.311 0-6.104.939-8.377 2.817s-3.657 4.473-4.152 7.784h23.649c-.296-2.965-1.384-5.461-3.262-7.487-1.878-2.076-4.497-3.114-7.858-3.114zm0 36.622c-4.003 0-7.512-.815-10.527-2.446s-5.436-3.88-7.265-6.746c-1.829-2.916-2.916-6.277-3.262-10.082h8.377c.346 3.558 1.557 6.449 3.633 8.673 2.125 2.224 5.14 3.336 9.044 3.336 2.916 0 5.214-.667 6.894-2.001 1.73-1.384 2.941-3.089 3.633-5.116h8.451c-.988 4.3-3.138 7.784-6.449 10.453-3.312 2.62-7.488 3.929-12.529 3.929zm33.031-21.869v20.683h-8.006v-41.515h8.006v6.746c.791-2.026 2.15-3.854 4.078-5.485 1.927-1.631 4.621-2.447 8.08-2.447 2.817 0 5.264.692 7.339 2.076 2.076 1.334 3.583 3.583 4.523 6.746.593-1.433 1.433-2.817 2.52-4.151 1.137-1.384 2.57-2.496 4.3-3.336 1.779-.89 3.904-1.335 6.375-1.335 2.57 0 4.819.544 6.746 1.631 1.928 1.087 3.435 2.891 4.523 5.412 1.087 2.471 1.631 5.832 1.631 10.082v25.576h-8.007v-24.612c0-2.274-.173-4.226-.519-5.857-.296-1.68-.939-2.965-1.927-3.855-.989-.939-2.471-1.408-4.448-1.408-1.73 0-3.386.568-4.967 1.705-1.532 1.137-2.793 2.817-3.781 5.041-.939 2.224-1.409 4.992-1.409 8.303v20.683h-8.006v-24.612c0-2.274-.173-4.226-.519-5.857-.297-1.68-.939-2.965-1.927-3.855-.989-.939-2.472-1.408-4.448-1.408-1.73 0-3.386.568-4.967 1.705-1.533 1.137-2.793 2.817-3.781 5.041-.939 2.224-1.409 4.992-1.409 8.303z" fill="#fff"/><path d="m0 0h376.76v100.38h-376.76z" fill="#201c1d" transform="translate(31 325)"/><path d="m71.8392 349.296h11.12l17.1248 51.894h-8.5253l-3.855-12.01h-20.4608l-3.6326 12.01h-8.5253zm-2.3723 32.767h16.0128l-8.0805-25.65zm58.9671-33.953h5.635c-1.681 3.658-3.089 7.216-4.226 10.676-1.087 3.459-1.903 6.993-2.447 10.601-.543 3.607-.815 7.487-.815 11.639 0 4.151.272 8.031.815 11.639.544 3.607 1.36 7.141 2.447 10.601 1.137 3.459 2.545 7.018 4.226 10.675h-5.635c-1.779-3.163-3.36-6.4-4.744-9.712-1.384-3.261-2.471-6.77-3.262-10.527-.791-3.805-1.186-8.031-1.186-12.676 0-4.646.395-8.847 1.186-12.603.791-3.806 1.878-7.339 3.262-10.601 1.384-3.312 2.965-6.549 4.744-9.712zm16.655 32.397v20.683h-8.006v-41.515h8.006v6.746c.791-2.026 2.15-3.855 4.077-5.486 1.928-1.631 4.621-2.446 8.081-2.446 2.817 0 5.263.692 7.339 2.076 2.076 1.334 3.583 3.583 4.522 6.746.593-1.433 1.433-2.817 2.521-4.152 1.136-1.383 2.57-2.495 4.3-3.336 1.779-.889 3.904-1.334 6.375-1.334 2.57 0 4.819.544 6.746 1.631 1.928 1.087 3.435 2.891 4.522 5.412 1.088 2.471 1.631 5.832 1.631 10.082v25.576h-8.006v-24.612c0-2.274-.173-4.226-.519-5.857-.297-1.68-.939-2.965-1.928-3.855-.988-.939-2.471-1.408-4.448-1.408-1.729 0-3.385.568-4.967 1.705-1.532 1.136-2.792 2.817-3.78 5.041-.939 2.224-1.409 4.991-1.409 8.303v20.683h-8.006v-24.612c0-2.274-.173-4.226-.519-5.857-.297-1.68-.939-2.965-1.928-3.855-.988-.939-2.471-1.408-4.448-1.408-1.73 0-3.385.568-4.967 1.705-1.532 1.136-2.792 2.817-3.781 5.041-.939 2.224-1.408 4.991-1.408 8.303zm76.795 21.869c-4.299 0-8.055-.914-11.268-2.743-3.163-1.878-5.609-4.473-7.339-7.784s-2.595-7.092-2.595-11.342c0-4.3.865-8.106 2.595-11.417s4.176-5.906 7.339-7.784c3.213-1.878 6.969-2.817 11.268-2.817 4.251 0 7.957.939 11.12 2.817 3.213 1.878 5.684 4.473 7.414 7.784 1.779 3.311 2.669 7.117 2.669 11.417 0 4.25-.89 8.031-2.669 11.342-1.73 3.311-4.201 5.906-7.414 7.784-3.163 1.829-6.869 2.743-11.12 2.743zm0-7.265c4.053 0 7.216-1.334 9.49-4.003 2.322-2.718 3.484-6.252 3.484-10.601 0-4.399-1.162-7.957-3.484-10.676-2.274-2.718-5.437-4.077-9.49-4.077-4.102 0-7.289 1.359-9.563 4.077-2.273 2.719-3.41 6.277-3.41 10.676 0 4.349 1.137 7.883 3.41 10.601 2.274 2.669 5.461 4.003 9.563 4.003zm33.424-7.043c.247 2.521 1.335 4.399 3.262 5.634 1.928 1.236 4.226 1.854 6.895 1.854 2.57 0 4.67-.494 6.301-1.483 1.631-.988 2.446-2.545 2.446-4.67 0-1.236-.494-2.2-1.482-2.892-.939-.691-2.2-1.21-3.781-1.556-1.532-.396-3.237-.742-5.115-1.038-1.878-.297-3.756-.667-5.635-1.112-1.828-.494-3.533-1.162-5.115-2.002-1.532-.889-2.767-2.076-3.706-3.558-.939-1.483-1.409-3.41-1.409-5.783 0-2.224.692-4.324 2.076-6.301s3.336-3.583 5.856-4.819c2.57-1.235 5.56-1.853 8.97-1.853 2.966 0 5.709.618 8.229 1.853 2.521 1.186 4.547 2.842 6.079 4.967s2.298 4.597 2.298 7.414h-7.635c-.198-2.521-1.186-4.374-2.966-5.56-1.729-1.236-3.83-1.854-6.301-1.854-2.867 0-5.041.593-6.524 1.779-1.433 1.137-2.15 2.595-2.15 4.374-.049 1.384.396 2.447 1.335 3.188.988.741 2.248 1.31 3.781 1.705 1.581.396 3.311.742 5.189 1.038 1.878.297 3.731.667 5.56 1.112 1.878.395 3.583 1.013 5.115 1.853 1.582.791 2.842 1.928 3.781 3.411.988 1.433 1.483 3.311 1.483 5.634 0 3.904-1.557 7.042-4.671 9.415-3.064 2.372-7.191 3.558-12.38 3.558-3.262 0-6.227-.618-8.896-1.853-2.62-1.285-4.72-2.99-6.302-5.115-1.532-2.175-2.347-4.621-2.446-7.34zm36.37 13.122v-34.695h-6.227v-6.82h6.227v-10.379h8.007v10.379h8.377v6.82h-8.377v27.875h9.563v6.82zm23.502-55.6h8.007v55.6h-8.007zm26.686 55.6-13.344-41.515h8.599l10.305 34.621 10.304-34.621h8.6l-12.232 37.957h.074l-5.931 18.385h-15.864v-6.821h10.082l2.668-8.006zm31.315-53.08c1.729 3.163 3.286 6.4 4.67 9.712 1.384 3.262 2.471 6.795 3.262 10.601.84 3.756 1.26 7.957 1.26 12.603 0 4.645-.42 8.871-1.26 12.676-.791 3.757-1.878 7.266-3.262 10.527-1.384 3.312-2.941 6.549-4.67 9.712h-5.634c1.63-3.657 2.99-7.216 4.077-10.675 1.137-3.46 1.977-6.994 2.52-10.601.593-3.608.89-7.488.89-11.639 0-4.152-.297-8.032-.89-11.639-.543-3.608-1.383-7.142-2.52-10.601-1.087-3.46-2.447-7.018-4.077-10.676z" fill="#fff"/></g></svg>