<svg fill="none" height="540" viewBox="0 0 1030 540" width="1030" xmlns="http://www.w3.org/2000/svg"><path d="m0 0h1030v540h-1030z" fill="#390a91"/><path d="m121 305h765v84h-765z" fill="#fcf8ea"/><path d="m164.729 477.754-10.407-40.245h6.325l8.221 33.691 8.279-33.691h7.302l8.221 33.691 8.279-33.691h6.324l-10.406 40.245h-8.336l-7.762-29.838-7.704 29.838zm51.534-16.903v16.903h-6.209v-32.196h6.209v5.405c.383-1.112.996-2.147 1.84-3.105.843-.958 1.974-1.725 3.392-2.3 1.456-.613 3.296-.92 5.519-.92v6.21c-2.3 0-4.254.306-5.864.92-1.61.613-2.837 1.648-3.68 3.104-.805 1.418-1.207 3.411-1.207 5.979zm14.736-26.216h6.956v7.071h-6.956zm.345 10.923h6.209v32.196h-6.209zm10.96 0h4.829v-8.049h6.209v8.049h5.922v5.29h-5.922v18.167c0 2.3 1.131 3.45 3.392 3.45h3.45v5.289h-3.507c-3.22 0-5.615-.766-7.187-2.299-1.571-1.572-2.357-3.718-2.357-6.44v-18.167h-4.829zm36.099 33.116c-3.335 0-6.248-.709-8.739-2.127-2.453-1.456-4.35-3.469-5.692-6.037-1.341-2.568-2.012-5.5-2.012-8.796 0-3.335.671-6.286 2.012-8.854 1.342-2.568 3.239-4.58 5.692-6.037 2.491-1.456 5.404-2.185 8.739-2.185 2.913 0 5.557.748 7.934 2.243 2.376 1.495 4.197 3.679 5.462 6.554 1.264 2.836 1.686 6.267 1.264 10.291h-24.606c.306 2.76 1.284 5.002 2.932 6.727s3.986 2.587 7.014 2.587c2.223 0 3.986-.517 5.289-1.552 1.342-1.074 2.281-2.396 2.817-3.967h6.554c-.766 3.334-2.433 6.036-5.001 8.106-2.53 2.032-5.75 3.047-9.659 3.047zm0-28.401c-2.837 0-5.06.766-6.669 2.3-1.61 1.533-2.645 3.507-3.105 5.921h18.34c-.23-2.299-1.073-4.235-2.529-5.807-1.419-1.609-3.431-2.414-6.037-2.414zm31.087-15.638h6.209v43.119h-6.209zm25.522 10.003c4.369 0 7.685 1.323 9.946 3.967 2.261 2.645 3.392 6.229 3.392 10.752v18.397h-6.209v-4.369c-.882 1.648-2.089 2.951-3.622 3.909-1.533.92-3.431 1.38-5.692 1.38-2.108 0-4.005-.383-5.692-1.15-1.686-.804-3.009-1.954-3.967-3.449s-1.437-3.316-1.437-5.462c0-2.53.594-4.523 1.782-5.979 1.227-1.495 2.836-2.607 4.83-3.335 2.031-.728 4.235-1.188 6.611-1.38 2.415-.191 4.791-.23 7.129-.115-.191-2.338-.824-4.197-1.897-5.576-1.073-1.38-2.798-2.07-5.174-2.07-2.492 0-4.37.671-5.635 2.012-1.264 1.303-1.897 2.875-1.897 4.714h-6.554c0-2.146.537-4.139 1.61-5.979 1.073-1.878 2.664-3.392 4.772-4.542s4.676-1.725 7.704-1.725zm-6.842 23.63c0 1.61.518 2.836 1.552 3.68 1.074.843 2.568 1.264 4.485 1.264 2.223 0 4.101-.709 5.634-2.127s2.3-3.43 2.3-6.037v-2.874c-4.753-.23-8.279.249-10.579 1.437-2.261 1.188-3.392 2.741-3.392 4.657zm25.619 9.486v-43.119h6.209v15.81c.996-1.84 2.338-3.258 4.024-4.254 1.725-1.035 3.833-1.553 6.325-1.553 2.951 0 5.5.729 7.646 2.185 2.185 1.457 3.871 3.469 5.059 6.037 1.189 2.568 1.783 5.519 1.783 8.854 0 3.296-.594 6.228-1.783 8.796-1.188 2.568-2.874 4.581-5.059 6.037-2.146 1.418-4.695 2.127-7.646 2.127-2.569 0-4.696-.498-6.382-1.495-1.687-1.034-3.009-2.414-3.967-4.139v4.714zm15.695-4.714c2.76 0 4.945-1.035 6.554-3.105 1.61-2.108 2.415-4.848 2.415-8.221 0-3.411-.805-6.171-2.415-8.279-1.609-2.108-3.794-3.162-6.554-3.162-2.146 0-3.929.498-5.347 1.495-1.38.996-2.414 2.357-3.104 4.082-.69 1.724-1.035 3.679-1.035 5.864 0 2.146.345 4.082 1.035 5.807.69 1.724 1.724 3.085 3.104 4.082 1.418.958 3.201 1.437 5.347 1.437zm34.965 5.634c-3.334 0-6.247-.709-8.739-2.127-2.453-1.456-4.35-3.469-5.691-6.037-1.342-2.568-2.013-5.5-2.013-8.796 0-3.335.671-6.286 2.013-8.854 1.341-2.568 3.238-4.58 5.691-6.037 2.492-1.456 5.405-2.185 8.739-2.185 2.913 0 5.558.748 7.934 2.243 2.377 1.495 4.197 3.679 5.462 6.554 1.265 2.836 1.687 6.267 1.265 10.291h-24.607c.307 2.76 1.284 5.002 2.932 6.727s3.986 2.587 7.014 2.587c2.223 0 3.986-.517 5.29-1.552 1.341-1.074 2.28-2.396 2.817-3.967h6.554c-.767 3.334-2.434 6.036-5.002 8.106-2.53 2.032-5.749 3.047-9.659 3.047zm0-28.401c-2.836 0-5.059.766-6.669 2.3-1.61 1.533-2.645 3.507-3.105 5.921h18.341c-.23-2.299-1.074-4.235-2.53-5.807-1.418-1.609-3.43-2.414-6.037-2.414zm19.353-15.638h6.209v43.119h-6.209zm17.124 32.943c.191 1.955 1.035 3.411 2.529 4.37 1.495.958 3.278 1.437 5.347 1.437 1.993 0 3.622-.383 4.887-1.15 1.265-.766 1.897-1.974 1.897-3.622 0-.958-.383-1.706-1.149-2.242-.729-.537-1.706-.939-2.933-1.208-1.188-.306-2.51-.574-3.967-.804-1.456-.23-2.913-.518-4.369-.863-1.418-.383-2.74-.901-3.967-1.552-1.188-.69-2.146-1.61-2.875-2.76-.728-1.15-1.092-2.644-1.092-4.484 0-1.725.537-3.354 1.61-4.887s2.587-2.779 4.542-3.737c1.993-.958 4.312-1.438 6.956-1.438 2.3 0 4.427.48 6.382 1.438 1.955.92 3.526 2.204 4.715 3.852 1.188 1.648 1.782 3.564 1.782 5.749h-5.922c-.153-1.955-.92-3.392-2.3-4.312-1.341-.958-2.97-1.437-4.887-1.437-2.223 0-3.909.46-5.059 1.38-1.112.881-1.667 2.012-1.667 3.392-.039 1.073.306 1.897 1.035 2.472.766.575 1.744 1.016 2.932 1.322 1.226.307 2.568.575 4.024.805 1.457.23 2.894.518 4.312.863 1.457.306 2.779.785 3.967 1.437 1.227.613 2.204 1.495 2.932 2.645.767 1.111 1.15 2.568 1.15 4.369 0 3.028-1.207 5.462-3.622 7.302-2.376 1.839-5.577 2.759-9.601 2.759-2.53 0-4.83-.479-6.899-1.437-2.032-.997-3.661-2.319-4.887-3.967-1.188-1.687-1.821-3.584-1.897-5.692zm37.112-32.943h6.957v7.071h-6.957zm.345 10.923h6.21v32.196h-6.21zm12.285 0h6.21v5.29c.651-1.61 1.801-3.047 3.449-4.312 1.687-1.265 4.063-1.898 7.129-1.898 2.07 0 3.91.422 5.52 1.265 1.648.844 2.951 2.243 3.909 4.197.958 1.917 1.437 4.523 1.437 7.819v19.835h-6.209v-19.087c0-2.607-.421-4.696-1.265-6.267-.843-1.571-2.491-2.357-4.944-2.357-1.533 0-2.99.441-4.369 1.322-1.38.882-2.511 2.185-3.393 3.91-.843 1.724-1.264 3.871-1.264 6.439v16.04h-6.21zm43.479 0h4.83v-8.049h6.209v8.049h5.922v5.29h-5.922v18.167c0 2.3 1.131 3.45 3.392 3.45h3.45v5.289h-3.507c-3.22 0-5.616-.766-7.187-2.299-1.571-1.572-2.357-3.718-2.357-6.44v-18.167h-4.83zm28.704 16.156v16.04h-6.209v-43.119h6.209v16.27c.422-1.073 1.073-2.089 1.955-3.047.881-.958 2.012-1.725 3.392-2.3 1.418-.613 3.162-.92 5.232-.92s3.909.422 5.519 1.265c1.648.844 2.951 2.243 3.91 4.197.958 1.917 1.437 4.523 1.437 7.819v19.835h-6.209v-19.087c0-2.607-.422-4.696-1.265-6.267s-2.491-2.357-4.944-2.357c-1.534 0-2.99.441-4.37 1.322-1.38.882-2.51 2.185-3.392 3.91-.843 1.724-1.265 3.871-1.265 6.439zm42.15 16.96c-3.335 0-6.248-.709-8.739-2.127-2.453-1.456-4.351-3.469-5.692-6.037-1.342-2.568-2.012-5.5-2.012-8.796 0-3.335.67-6.286 2.012-8.854 1.341-2.568 3.239-4.58 5.692-6.037 2.491-1.456 5.404-2.185 8.739-2.185 2.913 0 5.557.748 7.934 2.243 2.376 1.495 4.197 3.679 5.461 6.554 1.265 2.836 1.687 6.267 1.265 10.291h-24.607c.307 2.76 1.284 5.002 2.932 6.727 1.649 1.725 3.987 2.587 7.015 2.587 2.223 0 3.986-.517 5.289-1.552 1.341-1.074 2.281-2.396 2.817-3.967h6.554c-.766 3.334-2.434 6.036-5.002 8.106-2.529 2.032-5.749 3.047-9.658 3.047zm0-28.401c-2.837 0-5.06.766-6.67 2.3-1.609 1.533-2.644 3.507-3.104 5.921h18.34c-.23-2.299-1.073-4.235-2.53-5.807-1.418-1.609-3.43-2.414-6.036-2.414zm44.425-5.635c4.369 0 7.685 1.323 9.946 3.967 2.262 2.645 3.392 6.229 3.392 10.752v18.397h-6.209v-4.369c-.881 1.648-2.089 2.951-3.622 3.909-1.533.92-3.43 1.38-5.692 1.38-2.108 0-4.005-.383-5.692-1.15-1.686-.804-3.008-1.954-3.967-3.449-.958-1.495-1.437-3.316-1.437-5.462 0-2.53.594-4.523 1.782-5.979 1.227-1.495 2.837-2.607 4.83-3.335 2.031-.728 4.235-1.188 6.612-1.38 2.414-.191 4.791-.23 7.129-.115-.192-2.338-.824-4.197-1.898-5.576-1.073-1.38-2.798-2.07-5.174-2.07-2.491 0-4.369.671-5.634 2.012-1.265 1.303-1.898 2.875-1.898 4.714h-6.554c0-2.146.537-4.139 1.61-5.979 1.073-1.878 2.664-3.392 4.772-4.542s4.676-1.725 7.704-1.725zm-6.842 23.63c0 1.61.518 2.836 1.553 3.68 1.073.843 2.568 1.264 4.484 1.264 2.223 0 4.101-.709 5.634-2.127 1.534-1.418 2.3-3.43 2.3-6.037v-2.874c-4.753-.23-8.279.249-10.579 1.437-2.261 1.188-3.392 2.741-3.392 4.657zm27.239 9.486v-26.906h-3.679v-5.29h3.679v-2.759c0-2.453.729-4.427 2.185-5.922 1.495-1.495 3.852-2.242 7.072-2.242h4.944v5.289h-4.887c-2.069 0-3.104.958-3.104 2.875v2.759h7.186v5.29h-7.186v26.906zm21.055 0v-26.906h-3.68v-5.29h3.68v-2.759c0-2.453.728-4.427 2.185-5.922 1.494-1.495 3.852-2.242 7.071-2.242h4.945v5.289h-4.887c-2.07 0-3.105.958-3.105 2.875v2.759h7.187v5.29h-7.187v26.906zm18.423-43.119h6.957v7.071h-6.957zm.345 10.923h6.209v32.196h-6.209zm18.495 15.293v16.903h-6.21v-32.196h6.21v5.405c.383-1.112.996-2.147 1.839-3.105.844-.958 1.974-1.725 3.392-2.3 1.457-.613 3.297-.92 5.52-.92v6.21c-2.3 0-4.255.306-5.865.92-1.609.613-2.836 1.648-3.679 3.104-.805 1.418-1.207 3.411-1.207 5.979zm20.998.863v16.04h-6.209v-32.196h6.209v5.232c.613-1.571 1.667-2.989 3.162-4.254s3.584-1.898 6.267-1.898c2.184 0 4.082.537 5.692 1.61 1.609 1.035 2.778 2.779 3.507 5.232.46-1.111 1.111-2.185 1.954-3.219.882-1.074 1.993-1.936 3.335-2.588 1.38-.69 3.028-1.035 4.944-1.035 1.993 0 3.737.422 5.232 1.265 1.495.844 2.664 2.243 3.507 4.197.844 1.917 1.265 4.523 1.265 7.819v19.835h-6.209v-19.087c0-1.763-.134-3.277-.403-4.542-.23-1.303-.728-2.3-1.494-2.99-.767-.728-1.917-1.092-3.45-1.092-1.341 0-2.625.441-3.852 1.322-1.188.882-2.166 2.185-2.932 3.91-.728 1.724-1.092 3.871-1.092 6.439v16.04h-6.21v-19.087c0-1.763-.134-3.277-.402-4.542-.23-1.303-.728-2.3-1.495-2.99-.767-.728-1.916-1.092-3.45-1.092-1.341 0-2.625.441-3.852 1.322-1.188.882-2.165 2.185-2.932 3.91-.728 1.724-1.092 3.871-1.092 6.439zm57.775-17.076c4.369 0 7.685 1.323 9.946 3.967 2.262 2.645 3.392 6.229 3.392 10.752v18.397h-6.209v-4.369c-.882 1.648-2.089 2.951-3.622 3.909-1.533.92-3.43 1.38-5.692 1.38-2.108 0-4.005-.383-5.692-1.15-1.686-.804-3.008-1.954-3.967-3.449-.958-1.495-1.437-3.316-1.437-5.462 0-2.53.594-4.523 1.782-5.979 1.227-1.495 2.837-2.607 4.83-3.335 2.031-.728 4.235-1.188 6.611-1.38 2.415-.191 4.791-.23 7.129-.115-.191-2.338-.824-4.197-1.897-5.576-1.073-1.38-2.798-2.07-5.174-2.07-2.491 0-4.37.671-5.634 2.012-1.265 1.303-1.898 2.875-1.898 4.714h-6.554c0-2.146.537-4.139 1.61-5.979 1.073-1.878 2.664-3.392 4.772-4.542s4.676-1.725 7.704-1.725zm-6.842 23.63c0 1.61.518 2.836 1.553 3.68 1.073.843 2.568 1.264 4.484 1.264 2.223 0 4.101-.709 5.634-2.127s2.3-3.43 2.3-6.037v-2.874c-4.753-.23-8.279.249-10.579 1.437-2.261 1.188-3.392 2.741-3.392 4.657zm23.112-22.71h4.829v-8.049h6.21v8.049h5.921v5.29h-5.921v18.167c0 2.3 1.13 3.45 3.392 3.45h3.449v5.289h-3.507c-3.219 0-5.615-.766-7.186-2.299-1.572-1.572-2.358-3.718-2.358-6.44v-18.167h-4.829zm22.27-10.923h6.957v7.071h-6.957zm.345 10.923h6.209v32.196h-6.209zm10.451 0h6.669l7.991 26.85 7.992-26.85h6.669l-10.349 32.196h-8.624zm47.051 33.116c-3.334 0-6.247-.709-8.739-2.127-2.453-1.456-4.35-3.469-5.692-6.037-1.341-2.568-2.012-5.5-2.012-8.796 0-3.335.671-6.286 2.012-8.854 1.342-2.568 3.239-4.58 5.692-6.037 2.492-1.456 5.405-2.185 8.739-2.185 2.913 0 5.558.748 7.934 2.243 2.377 1.495 4.197 3.679 5.462 6.554 1.265 2.836 1.686 6.267 1.265 10.291h-24.607c.307 2.76 1.284 5.002 2.932 6.727s3.986 2.587 7.014 2.587c2.223 0 3.986-.517 5.29-1.552 1.341-1.074 2.28-2.396 2.817-3.967h6.554c-.767 3.334-2.434 6.036-5.002 8.106-2.53 2.032-5.749 3.047-9.659 3.047zm0-28.401c-2.836 0-5.059.766-6.669 2.3-1.61 1.533-2.645 3.507-3.105 5.921h18.341c-.23-2.299-1.074-4.235-2.53-5.807-1.418-1.609-3.43-2.414-6.037-2.414z" fill="#eee"/><path d="m154.15 325.755h33.403v7.244h-12.533v33.001h-8.337v-33.001h-12.533zm45.54 24.492v15.753h-8.222v-43.12h8.222v15.868c.651-1.533 1.744-2.893 3.277-4.082 1.571-1.188 3.871-1.782 6.899-1.782 2.07 0 3.909.422 5.519 1.265s2.875 2.242 3.795 4.197c.92 1.916 1.38 4.523 1.38 7.819v19.835h-8.222v-19.088c0-1.264-.096-2.414-.287-3.449-.192-1.073-.633-1.917-1.323-2.53-.651-.613-1.705-.92-3.162-.92-1.15 0-2.338.326-3.564.978-1.227.651-2.262 1.724-3.105 3.219-.805 1.457-1.207 3.469-1.207 6.037zm41.26 16.673c-3.296 0-6.19-.709-8.682-2.127-2.453-1.457-4.369-3.469-5.749-6.037-1.341-2.568-2.012-5.5-2.012-8.797 0-3.334.671-6.285 2.012-8.853 1.38-2.568 3.296-4.581 5.749-6.037 2.492-1.457 5.386-2.185 8.682-2.185 2.184 0 4.254.441 6.209 1.322 1.955.882 3.641 2.166 5.059 3.852 1.419 1.687 2.453 3.757 3.105 6.21s.747 5.251.287 8.394h-22.479c.306 1.993 1.073 3.641 2.299 4.944 1.227 1.303 3.067 1.955 5.52 1.955 1.571 0 2.874-.364 3.909-1.093 1.035-.728 1.763-1.629 2.185-2.702h8.681c-.46 2.223-1.36 4.178-2.702 5.865-1.341 1.648-3.047 2.951-5.117 3.909-2.031.92-4.35 1.38-6.956 1.38zm0-26.677c-2.185 0-3.891.537-5.117 1.61-1.188 1.073-2.012 2.453-2.472 4.139h14.085c-.115-1.456-.689-2.778-1.724-3.967-1.035-1.188-2.626-1.782-4.772-1.782zm45.702 26.677c-3.296 0-6.19-.709-8.681-2.127-2.453-1.457-4.37-3.469-5.75-6.037-1.341-2.568-2.012-5.5-2.012-8.797 0-3.334.671-6.285 2.012-8.853 1.38-2.568 3.297-4.581 5.75-6.037 2.491-1.457 5.385-2.185 8.681-2.185 2.185 0 4.255.441 6.209 1.322 1.955.882 3.642 2.166 5.06 3.852 1.418 1.687 2.453 3.757 3.104 6.21.652 2.453.748 5.251.288 8.394h-22.48c.307 1.993 1.073 3.641 2.3 4.944 1.226 1.303 3.066 1.955 5.519 1.955 1.572 0 2.875-.364 3.91-1.093 1.035-.728 1.763-1.629 2.184-2.702h8.682c-.46 2.223-1.361 4.178-2.702 5.865-1.342 1.648-3.047 2.951-5.117 3.909-2.032.92-4.351 1.38-6.957 1.38zm0-26.677c-2.185 0-3.89.537-5.117 1.61-1.188 1.073-2.012 2.453-2.472 4.139h14.086c-.115-1.456-.69-2.778-1.725-3.967-1.035-1.188-2.625-1.782-4.772-1.782zm27.347 10.004v15.753h-8.221v-32.196h8.221v4.887c.383-.997.958-1.936 1.725-2.817.805-.92 1.878-1.648 3.219-2.185 1.38-.537 3.124-.805 5.232-.805v8.049c-2.261 0-4.158.249-5.692.748-1.494.498-2.625 1.418-3.392 2.759-.728 1.303-1.092 3.239-1.092 5.807zm22.177 0v15.753h-8.221v-32.196h8.221v4.887c.384-.997.959-1.936 1.725-2.817.805-.92 1.878-1.648 3.22-2.185 1.38-.537 3.124-.805 5.232-.805v8.049c-2.262 0-4.159.249-5.692.748-1.495.498-2.626 1.418-3.392 2.759-.728 1.303-1.093 3.239-1.093 5.807zm27.564 16.673c-3.296 0-6.19-.709-8.682-2.127-2.453-1.457-4.369-3.469-5.749-6.037-1.341-2.568-2.012-5.5-2.012-8.797 0-3.334.671-6.285 2.012-8.853 1.38-2.568 3.296-4.581 5.749-6.037 2.492-1.457 5.386-2.185 8.682-2.185 3.334 0 6.228.728 8.681 2.185 2.453 1.456 4.35 3.469 5.692 6.037 1.38 2.568 2.07 5.519 2.07 8.853 0 3.297-.69 6.229-2.07 8.797-1.342 2.568-3.239 4.58-5.692 6.037-2.453 1.418-5.347 2.127-8.681 2.127zm0-7.359c1.878 0 3.392-.422 4.542-1.265 1.188-.882 2.069-2.051 2.644-3.507.575-1.457.863-3.066.863-4.83 0-1.801-.288-3.43-.863-4.886-.575-1.495-1.456-2.664-2.644-3.507-1.15-.882-2.664-1.323-4.542-1.323-1.84 0-3.354.441-4.542 1.323-1.188.843-2.07 2.012-2.645 3.507-.575 1.456-.862 3.085-.862 4.886 0 1.764.287 3.373.862 4.83.575 1.456 1.457 2.625 2.645 3.507 1.188.843 2.702 1.265 4.542 1.265zm28.75-9.314v15.753h-8.221v-32.196h8.221v4.887c.384-.997.958-1.936 1.725-2.817.805-.92 1.878-1.648 3.22-2.185 1.379-.537 3.123-.805 5.232-.805v8.049c-2.262 0-4.159.249-5.692.748-1.495.498-2.626 1.418-3.392 2.759-.729 1.303-1.093 3.239-1.093 5.807zm6.916 6.957h8.797v8.796h-8.797zm25.187-31.449h6.325v17.248h19.49v-17.248h6.324v40.245h-6.324v-17.478h-19.49v17.478h-6.325zm53.294 41.165c-3.334 0-6.247-.709-8.738-2.127-2.454-1.457-4.351-3.469-5.692-6.037-1.342-2.568-2.013-5.5-2.013-8.797 0-3.334.671-6.285 2.013-8.853 1.341-2.568 3.238-4.581 5.692-6.037 2.491-1.457 5.404-2.185 8.738-2.185 3.297 0 6.171.728 8.624 2.185 2.492 1.456 4.408 3.469 5.75 6.037 1.379 2.568 2.069 5.519 2.069 8.853 0 3.297-.69 6.229-2.069 8.797-1.342 2.568-3.258 4.58-5.75 6.037-2.453 1.418-5.327 2.127-8.624 2.127zm0-5.634c3.143 0 5.596-1.035 7.36-3.105 1.801-2.108 2.702-4.849 2.702-8.222 0-3.411-.901-6.17-2.702-8.278-1.764-2.109-4.217-3.163-7.36-3.163-3.181 0-5.653 1.054-7.416 3.163-1.763 2.108-2.645 4.867-2.645 8.278 0 3.373.882 6.114 2.645 8.222 1.763 2.07 4.235 3.105 7.416 3.105zm18.246-27.482h6.669l5.232 25.239 5.807-25.239h6.841l5.75 25.239 5.289-25.239h6.669l-8.049 32.196h-8.049l-5.059-22.02-5.002 22.02h-8.049zm56.598 0h4.83v-8.049h6.209v8.049h5.922v5.289h-5.922v18.168c0 2.3 1.131 3.45 3.392 3.45h3.45v5.289h-3.507c-3.22 0-5.615-.767-7.187-2.3-1.571-1.571-2.357-3.718-2.357-6.439v-18.168h-4.83zm36.1 33.116c-3.335 0-6.248-.709-8.739-2.127-2.453-1.457-4.35-3.469-5.692-6.037-1.341-2.568-2.012-5.5-2.012-8.797 0-3.334.671-6.285 2.012-8.853 1.342-2.568 3.239-4.581 5.692-6.037 2.491-1.457 5.404-2.185 8.739-2.185 3.296 0 6.171.728 8.624 2.185 2.491 1.456 4.407 3.469 5.749 6.037 1.38 2.568 2.07 5.519 2.07 8.853 0 3.297-.69 6.229-2.07 8.797-1.342 2.568-3.258 4.58-5.749 6.037-2.453 1.418-5.328 2.127-8.624 2.127zm0-5.634c3.143 0 5.596-1.035 7.359-3.105 1.801-2.108 2.702-4.849 2.702-8.222 0-3.411-.901-6.17-2.702-8.278-1.763-2.109-4.216-3.163-7.359-3.163-3.182 0-5.654 1.054-7.417 3.163-1.763 2.108-2.645 4.867-2.645 8.278 0 3.373.882 6.114 2.645 8.222 1.763 2.07 4.235 3.105 7.417 3.105zm34.785 4.714v-26.907h-3.68v-5.289h3.68v-2.76c0-2.453.728-4.427 2.184-5.921 1.495-1.495 3.852-2.243 7.072-2.243h4.944v5.29h-4.886c-2.07 0-3.105.958-3.105 2.874v2.76h7.187v5.289h-7.187v26.907zm18.423-43.12h6.957v7.072h-6.957zm.345 10.924h6.209v32.196h-6.209zm10.682 0h7.187l6.554 10.349 6.612-10.349h7.186l-10.176 15.983 10.349 16.213h-7.187l-6.784-10.579-6.727 10.579h-7.186l10.348-16.213zm43.715-10.924h6.956v7.072h-6.956zm.345 10.924h6.209v32.196h-6.209zm10.96 0h4.829v-8.049h6.209v8.049h5.922v5.289h-5.922v18.168c0 2.3 1.131 3.45 3.393 3.45h3.449v5.289h-3.507c-3.22 0-5.615-.767-7.187-2.3-1.571-1.571-2.357-3.718-2.357-6.439v-18.168h-4.829zm21.067 25.124h6.956v7.072h-6.956zm23.722-33.173h6.325v34.726h17.88v5.519h-24.205zm27.619-2.875h6.956v7.072h-6.956zm.345 10.924h6.209v32.196h-6.209zm12.285 0h6.209v5.289c.651-1.609 1.801-3.047 3.449-4.312 1.687-1.264 4.063-1.897 7.13-1.897 2.069 0 3.909.422 5.519 1.265 1.648.843 2.951 2.242 3.909 4.197.959 1.916 1.438 4.523 1.438 7.819v19.835h-6.209v-19.088c0-2.606-.422-4.695-1.265-6.266-.844-1.572-2.492-2.358-4.945-2.358-1.533 0-2.989.441-4.369 1.323-1.38.881-2.511 2.184-3.392 3.909-.843 1.725-1.265 3.871-1.265 6.439v16.041h-6.209zm58.422 0-10.636 12.821 11.959 19.375h-7.072l-8.739-14.718-4.484 5.462v9.256h-6.21v-43.12h6.21v24.837l11.498-13.913z" fill="#201c1d"/><path d="m749.713 373.187h104.421v2.874h-104.421z" fill="#201c1d"/><path d="m123 500h-84v-84h84zm-24.7266-58.947-25.9404 25.94-8.6074-8.607-2.6514-2.653-5.3037 5.304 2.6524 2.651 11.2587 11.259 2.6514 2.653 2.6524-2.653 28.5906-28.592 2.653-2.651-5.304-5.304z" fill="#eee"/><path d="m39 305h84v84h-84z" fill="#f5e39e"/><path d="m80.9996 323.005c.7902 0 1.5222.415 1.9287 1.093l26.2597 43.764c.417.695.428 1.562.028 2.267-.399.705-1.147 1.142-1.958 1.142h-52.5182c-.8105-.001-1.5586-.437-1.958-1.142-.3993-.705-.3885-1.572.0284-2.267l26.2597-43.764.0801-.124c.4184-.604 1.1087-.969 1.8496-.969zm-22.2861 43.766h44.5715l-22.2864-37.144zm25.2871-3.195h-6v-6h6zm0-8.898h-6v-16.5h6z" fill="#201c1d"/></svg>