<svg width="1030" height="540" viewBox="0 0 1030 540" fill="none" xmlns="http://www.w3.org/2000/svg">
<g clip-path="url(#clip0_1_41)">
<rect width="1030" height="540" fill="black"/>
<path d="M12.9086 71.755L66.6425 498.731L110.848 468.229L12.9086 71.755Z" fill="#FF5E00"/>
<path d="M57.114 41.2528L12.9086 71.755L110.848 468.229L57.114 41.2528Z" fill="#FF5E00"/>
<path d="M-60.2751 71.755L-6.54149 498.731L66.6419 498.731L-60.2751 71.755Z" fill="#5773E7"/>
<path d="M57.1139 41.2528L-16.0695 41.2528L12.9085 71.755L57.1139 41.2528Z" fill="#5773E7"/>
<path d="M-16.0696 41.2528L-60.2748 71.755L12.9084 71.755L-16.0696 41.2528Z" fill="#5773E7"/>
<path d="M12.9081 71.755L-60.2751 71.755L66.6419 498.731L12.9081 71.755Z" fill="#5773E7"/>
<path d="M95.9944 101.556L188.226 490.783L228.523 438.428L95.9944 101.556Z" fill="#FF5E00"/>
<path d="M22.8106 101.556L115.043 490.783L188.226 490.783L22.8106 101.556Z" fill="#5773E7"/>
<path d="M136.291 49.2008L95.9944 101.557L228.523 438.428L136.291 49.2008Z" fill="#FF5E00"/>
<path d="M95.994 101.556L22.8106 101.556L188.226 490.783L95.994 101.556Z" fill="#5773E7"/>
<path d="M136.291 49.2008L63.1075 49.2008L95.994 101.557L136.291 49.2008Z" fill="#5773E7"/>
<path d="M63.1076 49.2008L22.8107 101.557L95.9941 101.557L63.1076 49.2008Z" fill="#5773E7"/>
<path d="M187.274 139.477L313.558 472.193L348.004 400.507L187.274 139.477Z" fill="#FF5E00"/>
<path d="M221.72 67.7915L187.274 139.477L348.004 400.507L221.72 67.7915Z" fill="#FF5E00"/>
<path d="M221.72 67.7915L148.537 67.7915L187.274 139.477L221.72 67.7915Z" fill="#5773E7"/>
<path d="M148.537 67.7915L114.091 139.477L187.274 139.477L148.537 67.7915Z" fill="#5773E7"/>
<path d="M114.091 139.477L240.375 472.193L313.558 472.193L114.091 139.477Z" fill="#5773E7"/>
<path d="M187.274 139.477L114.091 139.477L313.558 472.193L187.274 139.477Z" fill="#5773E7"/>
<path d="M282.428 183.689L436.676 443.854L463.612 356.295L282.428 183.689Z" fill="#FF5E00"/>
<path d="M309.363 96.1295L282.428 183.689L463.611 356.294L309.363 96.1295Z" fill="#FF5E00"/>
<path d="M309.363 96.1295L236.179 96.1295L282.428 183.689L309.363 96.1295Z" fill="#5773E7"/>
<path d="M236.179 96.1295L209.244 183.689L282.427 183.689L236.179 96.1295Z" fill="#5773E7"/>
<path d="M209.244 183.689L363.493 443.854L436.677 443.854L209.244 183.689Z" fill="#5773E7"/>
<path d="M282.428 183.689L209.244 183.689L436.677 443.854L282.428 183.689Z" fill="#5773E7"/>
<path d="M308.765 232.062L483.543 407.135L556.726 407.135L308.765 232.062Z" fill="#5773E7"/>
<path d="M381.949 232.062L556.727 407.135L574.852 307.922L381.949 232.062Z" fill="#FF5E00"/>
<path d="M400.074 132.849L381.949 232.062L574.852 307.922L400.074 132.849Z" fill="#FF5E00"/>
<path d="M381.949 232.062L308.765 232.062L556.726 407.135L381.949 232.062Z" fill="#5773E7"/>
<path d="M400.074 132.849L326.89 132.849L381.948 232.062L400.074 132.849Z" fill="#5773E7"/>
<path d="M326.891 132.849L308.765 232.062L381.949 232.062L326.891 132.849Z" fill="#5773E7"/>
<path d="M412.936 282.263L599.817 363.805L673.001 363.805L412.936 282.263Z" fill="#5773E7"/>
<path d="M486.119 282.263L673.001 363.805L681.443 257.721L486.119 282.263Z" fill="#FF5E00"/>
<path d="M494.561 176.179L486.119 282.263L681.443 257.721L494.561 176.179Z" fill="#FF5E00"/>
<path d="M486.119 282.263L412.936 282.263L673.001 363.805L486.119 282.263Z" fill="#5773E7"/>
<path d="M421.378 176.179L412.935 282.263L486.119 282.263L421.378 176.179Z" fill="#5773E7"/>
<path d="M494.561 176.179L421.378 176.179L486.119 282.263L494.561 176.179Z" fill="#5773E7"/>
<path d="M598.997 331.872L788.974 315.953L787.326 208.112L598.997 331.872Z" fill="#FF5E00"/>
<path d="M714.143 208.112L524.166 224.031L597.349 224.031L714.143 208.112Z" fill="#C8D1DF"/>
<path d="M597.349 224.031L598.997 331.872L787.326 208.112L597.349 224.031Z" fill="#FF5E00"/>
<path d="M524.165 224.031L525.814 331.872L598.997 331.872L524.165 224.031Z" fill="#5773E7"/>
<path d="M597.349 224.031L524.165 224.031L598.997 331.872L597.349 224.031Z" fill="#5773E7"/>
<path d="M787.326 208.112L714.142 208.112L597.349 224.031L787.326 208.112Z" fill="#C8D1DF"/>
<path d="M708.414 378.499L892.328 265.885L880.67 161.486L708.414 378.499Z" fill="#FF5E00"/>
<path d="M807.486 161.486L623.572 274.1L696.755 274.1L807.486 161.486Z" fill="#C8D1DF"/>
<path d="M696.755 274.1L708.414 378.499L880.67 161.486L696.755 274.1Z" fill="#FF5E00"/>
<path d="M623.572 274.1L635.231 378.499L708.414 378.499L623.572 274.1Z" fill="#5773E7"/>
<path d="M696.755 274.1L623.572 274.1L708.414 378.499L696.755 274.1Z" fill="#5773E7"/>
<path d="M880.67 161.486L807.486 161.486L696.755 274.1L880.67 161.486Z" fill="#C8D1DF"/>
<path d="M825.983 419.895L994.969 216.015L973.862 120.089L825.983 419.895Z" fill="#FF5E00"/>
<path d="M900.678 120.089L731.692 323.969L804.876 323.969L900.678 120.089Z" fill="#C8D1DF"/>
<path d="M804.875 323.969L825.983 419.895L973.862 120.089L804.875 323.969Z" fill="#FF5E00"/>
<path d="M731.692 323.969L752.8 419.895L825.983 419.895L731.692 323.969Z" fill="#5773E7"/>
<path d="M804.876 323.969L731.692 323.969L825.983 419.895L804.876 323.969Z" fill="#5773E7"/>
<path d="M973.862 120.089L900.678 120.089L804.875 323.969L973.862 120.089Z" fill="#C8D1DF"/>
<path d="M947.117 454.065L1093.03 168.747L1063.49 85.9198L947.117 454.065Z" fill="#FF5E00"/>
<path d="M990.306 85.9198L844.394 371.238L917.577 371.238L990.306 85.9198Z" fill="#C8D1DF"/>
<path d="M917.577 371.238L947.116 454.065L1063.49 85.9198L917.577 371.238Z" fill="#FF5E00"/>
<path d="M844.394 371.237L873.933 454.065L947.117 454.065L844.394 371.237Z" fill="#5773E7"/>
<path d="M917.577 371.237L844.394 371.237L947.117 454.065L917.577 371.237Z" fill="#5773E7"/>
<path d="M1063.49 85.9198L990.306 85.9198L917.577 371.238L1063.49 85.9198Z" fill="#C8D1DF"/>
<path d="M1077.13 60.623L961.325 413.625L1034.51 413.625L1077.13 60.623Z" fill="#C8D1DF"/>
<path d="M961.325 413.625L997.872 479.361L1071.05 479.361L961.325 413.625Z" fill="#5773E7"/>
<path d="M1034.51 413.625L961.325 413.625L1071.05 479.361L1034.51 413.625Z" fill="#5773E7"/>
</g>
<defs>
<clipPath id="clip0_1_41">
<rect width="1030" height="540" fill="white"/>
</clipPath>
</defs>
</svg>
