<svg fill="none" height="540" viewBox="0 0 1030 540" width="1030" xmlns="http://www.w3.org/2000/svg"><path d="m0 0h1030v540h-1030z" fill="#c6d1e1"/><path d="m31 114h477.76v100h-477.76z" fill="#201c1d"/><path d="m65.6119 164.72h9.0443c2.9654 0 5.4859-.271 7.5617-.815 2.1251-.544 3.7313-1.532 4.8186-2.965 1.1368-1.434 1.7051-3.435 1.7051-6.005 0-2.62-.5683-4.621-1.7051-6.005-1.0873-1.384-2.6935-2.348-4.8186-2.891-2.0758-.544-4.5963-.816-7.5617-.816h-9.0443zm0-21.721v-4.893h9.0443c4.5963 0 8.5748.544 11.9355 1.631 3.4102 1.088 6.0296 2.867 7.8582 5.338 1.8781 2.471 2.8171 5.758 2.8171 9.86s-.939 7.388-2.8171 9.86c-1.8286 2.471-4.448 4.275-7.8582 5.411-3.3607 1.088-7.3392 1.631-11.9355 1.631h-9.0443v18.163h-8.1547v-47.001zm56.4381 48.187c-4.3 0-8.056-.914-11.268-2.743-3.163-1.878-5.61-4.473-7.339-7.784-1.73-3.311-2.595-7.092-2.595-11.342 0-4.3.865-8.106 2.595-11.417 1.729-3.311 4.176-5.906 7.339-7.784 3.212-1.878 6.968-2.817 11.268-2.817 4.251 0 7.957.939 11.12 2.817 3.213 1.878 5.684 4.473 7.414 7.784 1.779 3.311 2.668 7.117 2.668 11.417 0 4.25-.889 8.031-2.668 11.342-1.73 3.311-4.201 5.906-7.414 7.784-3.163 1.829-6.869 2.743-11.12 2.743zm0-7.265c4.053 0 7.216-1.334 9.489-4.003 2.323-2.718 3.485-6.252 3.485-10.601 0-4.399-1.162-7.957-3.485-10.676-2.273-2.718-5.436-4.077-9.489-4.077-4.102 0-7.29 1.359-9.563 4.077-2.273 2.719-3.41 6.277-3.41 10.676 0 4.349 1.137 7.883 3.41 10.601 2.273 2.669 5.461 4.003 9.563 4.003zm33.424-7.043c.247 2.521 1.334 4.399 3.262 5.635 1.927 1.235 4.226 1.853 6.894 1.853 2.57 0 4.671-.494 6.302-1.483 1.631-.988 2.446-2.545 2.446-4.67 0-1.236-.494-2.2-1.483-2.891-.939-.692-2.199-1.211-3.78-1.557-1.532-.396-3.238-.742-5.116-1.038-1.878-.297-3.756-.667-5.634-1.112-1.828-.494-3.533-1.162-5.115-2.002-1.532-.889-2.768-2.075-3.707-3.558s-1.408-3.41-1.408-5.783c0-2.224.692-4.324 2.076-6.301 1.383-1.977 3.336-3.583 5.856-4.819 2.57-1.235 5.56-1.853 8.97-1.853 2.966 0 5.709.618 8.229 1.853 2.521 1.187 4.547 2.842 6.079 4.967s2.298 4.597 2.298 7.414h-7.636c-.197-2.521-1.186-4.374-2.965-5.56-1.73-1.236-3.83-1.854-6.301-1.854-2.867 0-5.041.593-6.524 1.78-1.433 1.136-2.15 2.594-2.15 4.373-.049 1.384.395 2.447 1.334 3.188.989.742 2.249 1.31 3.781 1.705 1.582.396 3.312.742 5.19 1.038 1.878.297 3.731.667 5.56 1.112 1.878.395 3.583 1.013 5.115 1.853 1.581.791 2.842 1.928 3.781 3.411.988 1.433 1.482 3.311 1.482 5.634 0 3.904-1.556 7.042-4.67 9.415-3.064 2.372-7.191 3.558-12.38 3.558-3.262 0-6.228-.618-8.896-1.853-2.62-1.285-4.72-2.99-6.302-5.115-1.532-2.175-2.347-4.621-2.446-7.34zm38.804 0c.247 2.521 1.335 4.399 3.262 5.635 1.928 1.235 4.226 1.853 6.895 1.853 2.57 0 4.67-.494 6.301-1.483 1.631-.988 2.446-2.545 2.446-4.67 0-1.236-.494-2.2-1.482-2.891-.939-.692-2.2-1.211-3.781-1.557-1.532-.396-3.237-.742-5.115-1.038-1.878-.297-3.756-.667-5.634-1.112-1.829-.494-3.534-1.162-5.116-2.002-1.532-.889-2.767-2.075-3.706-3.558s-1.409-3.41-1.409-5.783c0-2.224.692-4.324 2.076-6.301s3.336-3.583 5.856-4.819c2.57-1.235 5.56-1.853 8.971-1.853 2.965 0 5.708.618 8.228 1.853 2.521 1.187 4.547 2.842 6.079 4.967s2.298 4.597 2.298 7.414h-7.635c-.198-2.521-1.186-4.374-2.966-5.56-1.729-1.236-3.83-1.854-6.301-1.854-2.866 0-5.041.593-6.524 1.78-1.433 1.136-2.15 2.594-2.15 4.373-.049 1.384.396 2.447 1.335 3.188.988.742 2.249 1.31 3.781 1.705 1.581.396 3.311.742 5.189 1.038 1.878.297 3.731.667 5.56 1.112 1.878.395 3.583 1.013 5.115 1.853 1.582.791 2.842 1.928 3.781 3.411.988 1.433 1.483 3.311 1.483 5.634 0 3.904-1.557 7.042-4.671 9.415-3.064 2.372-7.191 3.558-12.38 3.558-3.262 0-6.227-.618-8.896-1.853-2.619-1.285-4.72-2.99-6.301-5.115-1.533-2.175-2.348-4.621-2.447-7.34zm39.253-4.967v-4.892h-8.451c.346-4.102 1.458-7.611 3.336-10.527 1.927-2.966 4.423-5.239 7.487-6.821 3.064-1.581 6.499-2.372 10.305-2.372 3.756 0 7.166.964 10.23 2.891 3.064 1.928 5.412 4.745 7.043 8.451 1.68 3.658 2.249 8.081 1.705 13.27zm12.677-17.347c-3.312 0-6.104.939-8.377 2.817-2.274 1.878-3.658 4.473-4.152 7.784h23.649c-.297-2.965-1.384-5.461-3.262-7.487-1.878-2.076-4.498-3.114-7.858-3.114zm0 36.622c-4.003 0-7.512-.815-10.527-2.446s-5.437-3.88-7.265-6.746c-1.829-2.916-2.916-6.277-3.262-10.083h8.377c.346 3.559 1.557 6.45 3.632 8.674 2.126 2.224 5.14 3.336 9.045 3.336 2.916 0 5.214-.667 6.894-2.002 1.73-1.383 2.941-3.088 3.633-5.115h8.451c-.988 4.3-3.138 7.784-6.45 10.453-3.311 2.619-7.487 3.929-12.528 3.929zm31.977-14.308c.248 2.521 1.335 4.399 3.262 5.635 1.928 1.235 4.226 1.853 6.895 1.853 2.57 0 4.67-.494 6.301-1.483 1.631-.988 2.446-2.545 2.446-4.67 0-1.236-.494-2.2-1.482-2.891-.939-.692-2.199-1.211-3.781-1.557-1.532-.396-3.237-.742-5.115-1.038-1.878-.297-3.756-.667-5.634-1.112-1.829-.494-3.534-1.162-5.116-2.002-1.532-.889-2.767-2.075-3.706-3.558s-1.409-3.41-1.409-5.783c0-2.224.692-4.324 2.076-6.301s3.336-3.583 5.856-4.819c2.57-1.235 5.56-1.853 8.971-1.853 2.965 0 5.708.618 8.228 1.853 2.521 1.187 4.547 2.842 6.079 4.967 1.533 2.125 2.299 4.597 2.299 7.414h-7.636c-.198-2.521-1.186-4.374-2.966-5.56-1.729-1.236-3.83-1.854-6.301-1.854-2.866 0-5.041.593-6.524 1.78-1.433 1.136-2.15 2.594-2.15 4.373-.049 1.384.396 2.447 1.335 3.188.988.742 2.249 1.31 3.781 1.705 1.581.396 3.311.742 5.189 1.038 1.878.297 3.731.667 5.56 1.112 1.878.395 3.583 1.013 5.115 1.853 1.582.791 2.842 1.928 3.781 3.411.989 1.433 1.483 3.311 1.483 5.634 0 3.904-1.557 7.042-4.671 9.415-3.064 2.372-7.191 3.558-12.38 3.558-3.262 0-6.227-.618-8.896-1.853-2.619-1.285-4.72-2.99-6.301-5.115-1.532-2.175-2.348-4.621-2.447-7.34zm38.805 0c.247 2.521 1.334 4.399 3.262 5.635 1.927 1.235 4.225 1.853 6.894 1.853 2.57 0 4.67-.494 6.301-1.483 1.631-.988 2.447-2.545 2.447-4.67 0-1.236-.494-2.2-1.483-2.891-.939-.692-2.199-1.211-3.781-1.557-1.532-.396-3.237-.742-5.115-1.038-1.878-.297-3.756-.667-5.634-1.112-1.829-.494-3.534-1.162-5.115-2.002-1.532-.889-2.768-2.075-3.707-3.558s-1.409-3.41-1.409-5.783c0-2.224.692-4.324 2.076-6.301s3.336-3.583 5.857-4.819c2.57-1.235 5.56-1.853 8.97-1.853 2.965 0 5.708.618 8.229 1.853 2.52 1.187 4.547 2.842 6.079 4.967s2.298 4.597 2.298 7.414h-7.636c-.198-2.521-1.186-4.374-2.965-5.56-1.73-1.236-3.83-1.854-6.302-1.854-2.866 0-5.041.593-6.523 1.78-1.434 1.136-2.15 2.594-2.15 4.373-.05 1.384.395 2.447 1.334 3.188.989.742 2.249 1.31 3.781 1.705 1.582.396 3.311.742 5.189 1.038 1.878.297 3.732.667 5.56 1.112 1.878.395 3.584 1.013 5.116 1.853 1.581.791 2.841 1.928 3.78 3.411.989 1.433 1.483 3.311 1.483 5.634 0 3.904-1.557 7.042-4.67 9.415-3.065 2.372-7.191 3.558-12.381 3.558-3.262 0-6.227-.618-8.896-1.853-2.619-1.285-4.72-2.99-6.301-5.115-1.532-2.175-2.348-4.621-2.446-7.34zm31.637-42.849 8.896-2.001 2.002 9.044-8.896 2.001zm2.373 14.456h8.006v41.515h-8.006zm13.502 0h8.6l10.304 34.621 10.305-34.621h8.6l-13.344 41.515h-11.121zm47.775 23.426v-4.892h-8.451c.346-4.102 1.458-7.611 3.336-10.527 1.927-2.966 4.423-5.239 7.487-6.821 3.064-1.581 6.499-2.372 10.305-2.372 3.756 0 7.166.964 10.23 2.891 3.064 1.928 5.412 4.745 7.043 8.451 1.68 3.658 2.249 8.081 1.705 13.27zm12.677-17.347c-3.312 0-6.104.939-8.377 2.817-2.274 1.878-3.658 4.473-4.152 7.784h23.649c-.297-2.965-1.384-5.461-3.262-7.487-1.878-2.076-4.498-3.114-7.858-3.114zm0 36.622c-4.003 0-7.512-.815-10.527-2.446s-5.437-3.88-7.265-6.746c-1.829-2.916-2.916-6.277-3.262-10.083h8.377c.346 3.559 1.557 6.45 3.632 8.674 2.126 2.224 5.14 3.336 9.045 3.336 2.916 0 5.214-.667 6.894-2.002 1.73-1.383 2.941-3.088 3.633-5.115h8.451c-.989 4.3-3.138 7.784-6.45 10.453-3.311 2.619-7.487 3.929-12.528 3.929zm31.977-14.308c.247 2.521 1.335 4.399 3.262 5.635 1.928 1.235 4.226 1.853 6.895 1.853 2.57 0 4.67-.494 6.301-1.483 1.631-.988 2.446-2.545 2.446-4.67 0-1.236-.494-2.2-1.482-2.891-.939-.692-2.2-1.211-3.781-1.557-1.532-.396-3.237-.742-5.115-1.038-1.878-.297-3.756-.667-5.634-1.112-1.829-.494-3.534-1.162-5.116-2.002-1.532-.889-2.767-2.075-3.706-3.558s-1.409-3.41-1.409-5.783c0-2.224.692-4.324 2.076-6.301s3.336-3.583 5.856-4.819c2.57-1.235 5.56-1.853 8.971-1.853 2.965 0 5.708.618 8.228 1.853 2.521 1.187 4.547 2.842 6.079 4.967s2.299 4.597 2.299 7.414h-7.636c-.198-2.521-1.186-4.374-2.966-5.56-1.729-1.236-3.83-1.854-6.301-1.854-2.866 0-5.041.593-6.524 1.78-1.433 1.136-2.15 2.594-2.15 4.373-.049 1.384.396 2.447 1.335 3.188.988.742 2.249 1.31 3.781 1.705 1.581.396 3.311.742 5.189 1.038 1.878.297 3.731.667 5.56 1.112 1.878.395 3.583 1.013 5.115 1.853 1.582.791 2.842 1.928 3.781 3.411.989 1.433 1.483 3.311 1.483 5.634 0 3.904-1.557 7.042-4.671 9.415-3.064 2.372-7.191 3.558-12.38 3.558-3.262 0-6.227-.618-8.896-1.853-2.619-1.285-4.72-2.99-6.301-5.115-1.532-2.175-2.348-4.621-2.447-7.34z" fill="#fff"/><path d="m302 214h511.76v100h-511.76z" fill="#5074ef"/><path d="m376.051 268.872c-.346 4.448-1.483 8.352-3.41 11.713-1.878 3.361-4.522 5.98-7.932 7.858-3.411 1.829-7.537 2.743-12.381 2.743-5.535 0-10.205-1.211-14.011-3.632-3.806-2.472-6.697-5.758-8.674-9.86s-2.965-8.674-2.965-13.715c0-3.707.544-7.191 1.631-10.453 1.137-3.311 2.792-6.202 4.967-8.673s4.843-4.399 8.006-5.783c3.213-1.433 6.895-2.15 11.046-2.15 6.969 0 12.405 1.854 16.31 5.56 3.953 3.658 6.326 8.6 7.116 14.827h-8.673c-.346-2.224-1.038-4.3-2.076-6.227-1.038-1.977-2.595-3.559-4.67-4.745-2.027-1.235-4.695-1.853-8.007-1.853-3.904 0-7.141.914-9.711 2.743-2.521 1.829-4.399 4.226-5.634 7.191-1.236 2.965-1.854 6.153-1.854 9.563 0 3.46.618 6.697 1.854 9.712 1.235 2.965 3.113 5.362 5.634 7.191 2.57 1.828 5.807 2.743 9.711 2.743 3.608 0 6.475-.692 8.6-2.076 2.174-1.433 3.756-3.262 4.744-5.486 1.038-2.274 1.656-4.671 1.854-7.191zm4.212-5.041c0-2.817.692-5.486 2.076-8.007 1.384-2.52 3.435-4.571 6.153-6.153 2.718-1.581 6.03-2.372 9.934-2.372 5.338 0 9.415 1.532 12.232 4.596 2.867 3.015 4.498 7.117 4.893 12.307h-7.932c-.198-2.966-1.014-5.289-2.447-6.969-1.384-1.73-3.632-2.595-6.746-2.595-2.372 0-4.275.42-5.708 1.261-1.434.84-2.471 1.976-3.114 3.41-.593 1.384-.889 2.891-.889 4.522zm15.346 27.355c-2.718 0-5.165-.494-7.339-1.483-2.175-1.037-3.88-2.52-5.115-4.448-1.236-1.927-1.854-4.275-1.854-7.042 0-3.262.791-5.832 2.372-7.71 1.582-1.878 3.658-3.262 6.228-4.152 2.619-.889 5.461-1.458 8.525-1.705 3.114-.296 6.178-.444 9.193-.444v4.448h8.006v21.35h-8.006v-4.596c-1.236 1.828-2.867 3.262-4.893 4.299-2.027.989-4.399 1.483-7.117 1.483zm1.779-7.043c2.867 0 5.288-.914 7.265-2.742 1.977-1.829 2.966-4.424 2.966-7.785v-2.742c-6.178-.198-10.725.321-13.641 1.556-2.916 1.186-4.374 3.015-4.374 5.486 0 2.076.667 3.633 2.002 4.671 1.384 1.038 3.311 1.556 5.782 1.556zm25.25 20.684v-56.342h8.006v6.376c1.285-2.373 3.015-4.226 5.189-5.56 2.224-1.335 4.943-2.002 8.155-2.002 3.806 0 7.092.939 9.86 2.817 2.817 1.878 4.992 4.473 6.524 7.784s2.298 7.117 2.298 11.417c0 4.25-.766 8.031-2.298 11.342s-3.707 5.906-6.524 7.784c-2.768 1.829-6.054 2.743-9.86 2.743-3.311 0-6.079-.667-8.303-2.001-2.174-1.384-3.855-3.213-5.041-5.486v21.128zm20.238-20.906c3.558 0 6.376-1.334 8.451-4.003 2.076-2.718 3.114-6.252 3.114-10.601 0-4.399-1.038-7.957-3.114-10.676-2.075-2.718-4.893-4.077-8.451-4.077-2.768 0-5.066.643-6.894 1.928-1.78 1.285-3.114 3.039-4.004 5.263-.889 2.224-1.334 4.745-1.334 7.562 0 2.767.445 5.263 1.334 7.487.89 2.224 2.224 3.979 4.004 5.264 1.828 1.235 4.126 1.853 6.894 1.853zm24.285-49.892 8.896-2.001 2.002 9.044-8.896 2.001zm2.372 14.456h8.007v41.515h-8.007zm20.242 41.515v-34.695h-6.227v-6.82h6.227v-10.379h8.007v10.379h8.377v6.82h-8.377v27.875h9.563v6.82zm21.308-26.169c0-2.817.692-5.486 2.076-8.007 1.384-2.52 3.435-4.571 6.153-6.153 2.718-1.581 6.029-2.372 9.934-2.372 5.337 0 9.415 1.532 12.232 4.596 2.866 3.015 4.497 7.117 4.893 12.307h-7.933c-.197-2.966-1.013-5.289-2.446-6.969-1.384-1.73-3.633-2.595-6.746-2.595-2.372 0-4.275.42-5.709 1.261-1.433.84-2.471 1.976-3.113 3.41-.593 1.384-.89 2.891-.89 4.522zm15.346 27.355c-2.719 0-5.165-.494-7.34-1.483-2.174-1.037-3.879-2.52-5.115-4.448-1.235-1.927-1.853-4.275-1.853-7.042 0-3.262.791-5.832 2.372-7.71 1.582-1.878 3.657-3.262 6.227-4.152 2.62-.889 5.462-1.458 8.526-1.705 3.113-.296 6.178-.444 9.192-.444v4.448h8.007v21.35h-8.007v-4.596c-1.235 1.828-2.866 3.262-4.892 4.299-2.027.989-4.399 1.483-7.117 1.483zm1.779-7.043c2.866 0 5.288-.914 7.265-2.742 1.977-1.829 2.965-4.424 2.965-7.785v-2.742c-6.177-.198-10.724.321-13.64 1.556-2.916 1.186-4.374 3.015-4.374 5.486 0 2.076.667 3.633 2.001 4.671 1.384 1.038 3.312 1.556 5.783 1.556zm25.249-49.743h8.007v55.6h-8.007zm14.407-.371 8.896-2.001 2.002 9.044-8.896 2.001zm2.372 14.456h8.007v41.515h-8.007zm46.569 41.515h-32.693v-5.263l22.166-29.432h-21.573v-6.82h31.877v5.264l-22.24 29.431h22.463zm3.596-26.169c0-2.817.692-5.486 2.076-8.007 1.384-2.52 3.435-4.571 6.153-6.153 2.718-1.581 6.03-2.372 9.934-2.372 5.338 0 9.415 1.532 12.232 4.596 2.866 3.015 4.497 7.117 4.893 12.307h-7.933c-.197-2.966-1.013-5.289-2.446-6.969-1.384-1.73-3.633-2.595-6.746-2.595-2.372 0-4.275.42-5.708 1.261-1.434.84-2.472 1.976-3.114 3.41-.593 1.384-.89 2.891-.89 4.522zm15.346 27.355c-2.718 0-5.165-.494-7.339-1.483-2.175-1.037-3.88-2.52-5.116-4.448-1.235-1.927-1.853-4.275-1.853-7.042 0-3.262.791-5.832 2.372-7.71 1.582-1.878 3.658-3.262 6.228-4.152 2.619-.889 5.461-1.458 8.525-1.705 3.113-.296 6.178-.444 9.192-.444v4.448h8.007v21.35h-8.007v-4.596c-1.235 1.828-2.866 3.262-4.892 4.299-2.027.989-4.399 1.483-7.117 1.483zm1.779-7.043c2.867 0 5.288-.914 7.265-2.742 1.977-1.829 2.965-4.424 2.965-7.785v-2.742c-6.177-.198-10.724.321-13.64 1.556-2.916 1.186-4.374 3.015-4.374 5.486 0 2.076.667 3.633 2.002 4.671 1.383 1.038 3.311 1.556 5.782 1.556zm28.317 5.857v-34.695h-6.227v-6.82h6.227v-10.379h8.006v10.379h8.377v6.82h-8.377v27.875h9.563v6.82zm21.62-55.971 8.896-2.001 2.001 9.044-8.896 2.001zm2.372 14.456h8.006v41.515h-8.006zm35.296 42.701c-4.3 0-8.056-.914-11.268-2.743-3.163-1.878-5.61-4.473-7.339-7.784-1.73-3.311-2.595-7.092-2.595-11.342 0-4.3.865-8.106 2.595-11.417 1.729-3.311 4.176-5.906 7.339-7.784 3.212-1.878 6.968-2.817 11.268-2.817 4.25 0 7.957.939 11.12 2.817 3.213 1.878 5.684 4.473 7.414 7.784 1.779 3.311 2.668 7.117 2.668 11.417 0 4.25-.889 8.031-2.668 11.342-1.73 3.311-4.201 5.906-7.414 7.784-3.163 1.829-6.87 2.743-11.12 2.743zm0-7.265c4.053 0 7.216-1.334 9.489-4.003 2.323-2.718 3.484-6.252 3.484-10.601 0-4.399-1.161-7.957-3.484-10.676-2.273-2.718-5.436-4.077-9.489-4.077-4.102 0-7.29 1.359-9.563 4.077-2.274 2.719-3.41 6.277-3.41 10.676 0 4.349 1.136 7.883 3.41 10.601 2.273 2.669 5.461 4.003 9.563 4.003zm26.833-35.436h8.006v6.82c.841-2.075 2.323-3.929 4.448-5.56 2.175-1.63 5.239-2.446 9.193-2.446 2.669 0 5.041.544 7.117 1.631 2.125 1.087 3.805 2.891 5.041 5.412 1.235 2.471 1.853 5.832 1.853 10.082v25.576h-8.006v-24.612c0-3.361-.544-6.055-1.631-8.081s-3.213-3.039-6.376-3.039c-1.976 0-3.855.568-5.634 1.705-1.779 1.136-3.237 2.817-4.374 5.041-1.087 2.224-1.631 4.991-1.631 8.303v20.683h-8.006z" fill="#201c1d"/><path d="m31 214h271v100h-271z" fill="#86af25"/><path d="m65.732 264.72h9.0443c2.9654 0 5.4859-.271 7.5617-.815 2.1251-.544 3.7314-1.532 4.8187-2.965 1.1367-1.434 1.705-3.435 1.705-6.005 0-2.62-.5683-4.621-1.705-6.005-1.0873-1.384-2.6936-2.348-4.8187-2.891-2.0758-.544-4.5963-.816-7.5617-.816h-9.0443zm0-21.721v-4.893h9.0443c4.5963 0 8.5748.544 11.9356 1.631 3.4101 1.088 6.0295 2.867 7.8581 5.338 1.8781 2.471 2.8171 5.758 2.8171 9.86s-.939 7.388-2.8171 9.86c-1.8286 2.471-4.448 4.275-7.8581 5.411-3.3608 1.088-7.3393 1.631-11.9356 1.631h-9.0443v18.163h-8.1547v-47.001zm37.303-8.599h8.007v55.6h-8.007zm42.776 34.768v-20.683h8.006v41.515h-8.006v-6.894c-.593 1.383-1.458 2.693-2.595 3.929-1.137 1.235-2.619 2.224-4.448 2.965-1.779.791-4.003 1.186-6.672 1.186s-5.066-.544-7.191-1.631c-2.076-1.087-3.731-2.891-4.967-5.412-1.186-2.52-1.779-5.881-1.779-10.082v-25.576h7.932v24.613c0 3.36.544 6.054 1.631 8.08 1.088 2.026 3.237 3.04 6.45 3.04 1.977 0 3.83-.569 5.56-1.705 1.779-1.137 3.237-2.818 4.374-5.042 1.136-2.273 1.705-5.041 1.705-8.303zm23.361-.963v21.795h-8.006v-41.515h8.006v6.969c.494-1.434 1.285-2.768 2.372-4.003 1.088-1.236 2.546-2.224 4.374-2.966 1.878-.791 4.251-1.186 7.117-1.186v8.006c-2.965 0-5.486.396-7.561 1.187-2.076.79-3.658 2.125-4.745 4.003-1.038 1.828-1.557 4.398-1.557 7.71zm16.589-4.374c0-2.817.692-5.486 2.076-8.007 1.384-2.52 3.435-4.571 6.153-6.153 2.718-1.581 6.03-2.372 9.934-2.372 5.338 0 9.415 1.532 12.232 4.596 2.867 3.015 4.498 7.117 4.893 12.307h-7.932c-.198-2.966-1.014-5.289-2.447-6.969-1.384-1.73-3.632-2.595-6.746-2.595-2.372 0-4.275.42-5.708 1.261-1.433.84-2.471 1.976-3.114 3.41-.593 1.384-.889 2.891-.889 4.522zm15.346 27.355c-2.718 0-5.165-.494-7.339-1.483-2.175-1.037-3.88-2.52-5.115-4.448-1.236-1.927-1.854-4.275-1.854-7.042 0-3.262.791-5.832 2.372-7.71 1.582-1.878 3.658-3.262 6.228-4.152 2.619-.889 5.461-1.458 8.525-1.705 3.114-.296 6.178-.444 9.193-.444v4.448h8.006v21.35h-8.006v-4.596c-1.236 1.828-2.867 3.262-4.893 4.299-2.027.989-4.399 1.483-7.117 1.483zm1.779-7.043c2.867 0 5.288-.914 7.265-2.742 1.977-1.829 2.966-4.424 2.966-7.785v-2.742c-6.178-.198-10.725.321-13.641 1.556-2.916 1.186-4.374 3.015-4.374 5.486 0 2.076.667 3.633 2.002 4.671 1.384 1.038 3.311 1.556 5.782 1.556zm25.25-49.743h8.006v55.6h-8.006zm22.08 42.478c.247 2.521 1.334 4.399 3.262 5.635 1.927 1.235 4.225 1.853 6.894 1.853 2.57 0 4.671-.494 6.302-1.483 1.63-.988 2.446-2.545 2.446-4.67 0-1.236-.494-2.2-1.483-2.891-.939-.692-2.199-1.211-3.781-1.557-1.532-.396-3.237-.742-5.115-1.038-1.878-.297-3.756-.667-5.634-1.112-1.829-.494-3.534-1.162-5.115-2.002-1.532-.889-2.768-2.075-3.707-3.558s-1.408-3.41-1.408-5.783c0-2.224.692-4.324 2.075-6.301 1.384-1.977 3.336-3.583 5.857-4.819 2.57-1.235 5.56-1.853 8.97-1.853 2.965 0 5.708.618 8.229 1.853 2.52 1.187 4.547 2.842 6.079 4.967s2.298 4.597 2.298 7.414h-7.636c-.197-2.521-1.186-4.374-2.965-5.56-1.73-1.236-3.83-1.854-6.301-1.854-2.867 0-5.042.593-6.524 1.78-1.433 1.136-2.15 2.594-2.15 4.373-.05 1.384.395 2.447 1.334 3.188.989.742 2.249 1.31 3.781 1.705 1.582.396 3.311.742 5.189 1.038 1.879.297 3.732.667 5.561 1.112 1.878.395 3.583 1.013 5.115 1.853 1.581.791 2.842 1.928 3.781 3.411.988 1.433 1.482 3.311 1.482 5.634 0 3.904-1.557 7.042-4.67 9.415-3.064 2.372-7.191 3.558-12.381 3.558-3.261 0-6.227-.618-8.896-1.853-2.619-1.285-4.719-2.99-6.301-5.115-1.532-2.175-2.347-4.621-2.446-7.34z" fill="#201c1d"/><path d="m31 314h770.76v100h-770.76z" fill="#998b7a"/><path d="m65.6119 364.72h9.0443c2.9654 0 5.4859-.271 7.5617-.815 2.1251-.544 3.7313-1.532 4.8186-2.965 1.1368-1.434 1.7051-3.435 1.7051-6.005 0-2.62-.5683-4.621-1.7051-6.005-1.0873-1.384-2.6935-2.348-4.8186-2.891-2.0758-.544-4.5963-.816-7.5617-.816h-9.0443zm0-21.721v-4.893h9.0443c4.5963 0 8.5748.544 11.9355 1.631 3.4102 1.088 6.0296 2.867 7.8582 5.338 1.8781 2.471 2.8171 5.758 2.8171 9.86s-.939 7.388-2.8171 9.86c-1.8286 2.471-4.448 4.275-7.8582 5.411-3.3607 1.088-7.3392 1.631-11.9355 1.631h-9.0443v18.163h-8.1547v-47.001zm37.3031-8.599h8.006v55.6h-8.006zm14.746 29.431c0-2.817.692-5.486 2.076-8.007 1.384-2.52 3.435-4.571 6.153-6.153 2.718-1.581 6.03-2.372 9.934-2.372 5.338 0 9.415 1.532 12.232 4.596 2.867 3.015 4.497 7.117 4.893 12.307h-7.932c-.198-2.966-1.014-5.289-2.447-6.969-1.384-1.73-3.632-2.595-6.746-2.595-2.372 0-4.275.42-5.708 1.261-1.434.84-2.471 1.976-3.114 3.41-.593 1.384-.89 2.891-.89 4.522zm15.346 27.355c-2.718 0-5.165-.494-7.339-1.483-2.175-1.037-3.88-2.52-5.116-4.448-1.235-1.927-1.853-4.275-1.853-7.042 0-3.262.791-5.832 2.372-7.71 1.582-1.878 3.658-3.262 6.228-4.152 2.619-.889 5.461-1.458 8.525-1.705 3.114-.296 6.178-.444 9.193-.444v4.448h8.006v21.35h-8.006v-4.596c-1.236 1.828-2.867 3.262-4.893 4.299-2.027.989-4.399 1.483-7.117 1.483zm1.779-7.043c2.867 0 5.288-.914 7.265-2.742 1.977-1.829 2.966-4.424 2.966-7.785v-2.742c-6.178-.198-10.725.321-13.641 1.556-2.916 1.186-4.374 3.015-4.374 5.486 0 2.076.667 3.633 2.002 4.671 1.384 1.038 3.311 1.556 5.782 1.556zm28.317 5.857v-34.695h-6.227v-6.82h6.227v-10.379h8.006v10.379h8.377v6.82h-8.377v27.875h9.564v6.82zm21.788-41.515h4.745v-14.085h18.459v6.82h-10.453v7.265h9.563v6.82h-9.563v34.695h-8.006v-34.695h-4.745zm45.753 42.701c-4.299 0-8.056-.914-11.268-2.743-3.163-1.878-5.609-4.473-7.339-7.784s-2.595-7.092-2.595-11.342c0-4.3.865-8.106 2.595-11.417s4.176-5.906 7.339-7.784c3.212-1.878 6.969-2.817 11.268-2.817 4.251 0 7.957.939 11.12 2.817 3.213 1.878 5.684 4.473 7.414 7.784 1.779 3.311 2.669 7.117 2.669 11.417 0 4.25-.89 8.031-2.669 11.342-1.73 3.311-4.201 5.906-7.414 7.784-3.163 1.829-6.869 2.743-11.12 2.743zm0-7.265c4.053 0 7.216-1.334 9.489-4.003 2.323-2.718 3.485-6.252 3.485-10.601 0-4.399-1.162-7.957-3.485-10.676-2.273-2.718-5.436-4.077-9.489-4.077-4.102 0-7.289 1.359-9.563 4.077-2.273 2.719-3.41 6.277-3.41 10.676 0 4.349 1.137 7.883 3.41 10.601 2.274 2.669 5.461 4.003 9.563 4.003zm34.912-15.716v21.795h-8.006v-41.515h8.006v6.969c.494-1.434 1.285-2.768 2.372-4.003 1.088-1.236 2.546-2.224 4.374-2.966 1.878-.791 4.251-1.186 7.117-1.186v8.006c-2.965 0-5.486.396-7.562 1.187-2.075.79-3.657 2.125-4.744 4.003-1.038 1.828-1.557 4.398-1.557 7.71zm27.076 1.112v20.683h-8.006v-41.515h8.006v6.746c.791-2.026 2.15-3.855 4.078-5.486 1.927-1.63 4.621-2.446 8.08-2.446 2.817 0 5.264.692 7.339 2.076 2.076 1.334 3.583 3.583 4.522 6.746.594-1.433 1.434-2.817 2.521-4.152 1.137-1.383 2.57-2.495 4.3-3.336 1.779-.889 3.904-1.334 6.375-1.334 2.57 0 4.819.544 6.746 1.631 1.928 1.087 3.435 2.891 4.523 5.412 1.087 2.471 1.631 5.832 1.631 10.082v25.576h-8.007v-24.612c0-2.274-.173-4.226-.519-5.857-.296-1.68-.939-2.965-1.927-3.855-.989-.939-2.471-1.408-4.448-1.408-1.73 0-3.386.568-4.967 1.705-1.532 1.136-2.793 2.817-3.781 5.041-.939 2.224-1.409 4.991-1.409 8.303v20.683h-8.006v-24.612c0-2.274-.173-4.226-.519-5.857-.297-1.68-.939-2.965-1.927-3.855-.989-.939-2.472-1.408-4.448-1.408-1.73 0-3.386.568-4.967 1.705-1.533 1.136-2.793 2.817-3.781 5.041-.939 2.224-1.409 4.991-1.409 8.303zm76.727 20.683v-34.695h-6.227v-6.82h6.227v-10.379h8.007v10.379h8.377v6.82h-8.377v27.875h9.563v6.82zm28.366-18.089v-4.892h-8.451c.346-4.102 1.458-7.611 3.336-10.527 1.928-2.966 4.423-5.239 7.488-6.821 3.064-1.581 6.499-2.372 10.304-2.372 3.756 0 7.166.964 10.231 2.891 3.064 1.928 5.411 4.745 7.042 8.451 1.681 3.658 2.249 8.081 1.705 13.27zm12.677-17.347c-3.311 0-6.104.939-8.377 2.817s-3.657 4.473-4.151 7.784h23.648c-.296-2.965-1.384-5.461-3.262-7.487-1.878-2.076-4.497-3.114-7.858-3.114zm0 36.622c-4.003 0-7.512-.815-10.527-2.446s-5.436-3.88-7.265-6.746c-1.829-2.916-2.916-6.277-3.262-10.083h8.377c.346 3.559 1.557 6.45 3.633 8.674 2.125 2.224 5.14 3.336 9.044 3.336 2.916 0 5.214-.667 6.895-2.002 1.729-1.383 2.94-3.088 3.632-5.115h8.451c-.988 4.3-3.138 7.784-6.449 10.453-3.312 2.619-7.488 3.929-12.529 3.929zm33.031-22.981v21.795h-8.006v-41.515h8.006v6.969c.494-1.434 1.285-2.768 2.373-4.003 1.087-1.236 2.545-2.224 4.373-2.966 1.878-.791 4.251-1.186 7.117-1.186v8.006c-2.965 0-5.486.396-7.561 1.187-2.076.79-3.658 2.125-4.745 4.003-1.038 1.828-1.557 4.398-1.557 7.71zm27.076 1.112v20.683h-8.006v-41.515h8.006v6.746c.791-2.026 2.15-3.855 4.078-5.486 1.927-1.63 4.621-2.446 8.08-2.446 2.817 0 5.264.692 7.34 2.076 2.075 1.334 3.583 3.583 4.522 6.746.593-1.433 1.433-2.817 2.52-4.152 1.137-1.383 2.57-2.495 4.3-3.336 1.779-.889 3.904-1.334 6.375-1.334 2.57 0 4.819.544 6.747 1.631 1.927 1.087 3.434 2.891 4.522 5.412 1.087 2.471 1.631 5.832 1.631 10.082v25.576h-8.007v-24.612c0-2.274-.173-4.226-.519-5.857-.296-1.68-.939-2.965-1.927-3.855-.989-.939-2.471-1.408-4.448-1.408-1.73 0-3.386.568-4.967 1.705-1.532 1.136-2.792 2.817-3.781 5.041-.939 2.224-1.408 4.991-1.408 8.303v20.683h-8.007v-24.612c0-2.274-.173-4.226-.519-5.857-.296-1.68-.939-2.965-1.927-3.855-.989-.939-2.471-1.408-4.448-1.408-1.73 0-3.386.568-4.967 1.705-1.532 1.136-2.793 2.817-3.781 5.041-.939 2.224-1.409 4.991-1.409 8.303zm55.634-35.288 8.896-2.001 2.001 9.044-8.896 2.001zm2.372 14.456h8.006v41.515h-8.006zm15.868 0h8.006v6.82c.841-2.075 2.323-3.929 4.448-5.56 2.175-1.63 5.239-2.446 9.193-2.446 2.669 0 5.041.544 7.117 1.631 2.125 1.087 3.805 2.891 5.041 5.412 1.235 2.471 1.853 5.832 1.853 10.082v25.576h-8.006v-24.612c0-3.361-.544-6.055-1.631-8.081s-3.213-3.039-6.376-3.039c-1.977 0-3.855.568-5.634 1.705-1.779 1.136-3.237 2.817-4.374 5.041-1.087 2.224-1.631 4.991-1.631 8.303v20.683h-8.006zm62.359 42.701c-4.3 0-8.056-.914-11.268-2.743-3.163-1.878-5.61-4.473-7.339-7.784-1.73-3.311-2.595-7.092-2.595-11.342 0-4.3.865-8.106 2.595-11.417 1.729-3.311 4.176-5.906 7.339-7.784 3.212-1.878 6.968-2.817 11.268-2.817 4.25 0 7.957.939 11.12 2.817 3.213 1.878 5.684 4.473 7.413 7.784 1.78 3.311 2.669 7.117 2.669 11.417 0 4.25-.889 8.031-2.669 11.342-1.729 3.311-4.2 5.906-7.413 7.784-3.163 1.829-6.87 2.743-11.12 2.743zm0-7.265c4.053 0 7.216-1.334 9.489-4.003 2.323-2.718 3.484-6.252 3.484-10.601 0-4.399-1.161-7.957-3.484-10.676-2.273-2.718-5.436-4.077-9.489-4.077-4.102 0-7.29 1.359-9.563 4.077-2.274 2.719-3.41 6.277-3.41 10.676 0 4.349 1.136 7.883 3.41 10.601 2.273 2.669 5.461 4.003 9.563 4.003zm26.909-49.521h8.006v55.6h-8.006zm34.917 56.786c-4.299 0-8.055-.914-11.268-2.743-3.163-1.878-5.609-4.473-7.339-7.784s-2.595-7.092-2.595-11.342c0-4.3.865-8.106 2.595-11.417s4.176-5.906 7.339-7.784c3.213-1.878 6.969-2.817 11.268-2.817 4.251 0 7.957.939 11.12 2.817 3.213 1.878 5.684 4.473 7.414 7.784 1.779 3.311 2.669 7.117 2.669 11.417 0 4.25-.89 8.031-2.669 11.342-1.73 3.311-4.201 5.906-7.414 7.784-3.163 1.829-6.869 2.743-11.12 2.743zm0-7.265c4.053 0 7.216-1.334 9.489-4.003 2.323-2.718 3.485-6.252 3.485-10.601 0-4.399-1.162-7.957-3.485-10.676-2.273-2.718-5.436-4.077-9.489-4.077-4.102 0-7.289 1.359-9.563 4.077-2.273 2.719-3.41 6.277-3.41 10.676 0 4.349 1.137 7.883 3.41 10.601 2.274 2.669 5.461 4.003 9.563 4.003zm43.958 5.782c-3.805 0-7.117-.864-9.934-2.594s-4.991-4.176-6.524-7.339c-1.482-3.213-2.224-6.944-2.224-11.195 0-4.299.742-8.031 2.224-11.194 1.533-3.212 3.707-5.683 6.524-7.413 2.817-1.779 6.129-2.669 9.934-2.669 3.163 0 5.832.593 8.007 1.779 2.224 1.186 4.003 2.916 5.337 5.19v-5.783h8.007v39.291c0 3.904-.791 7.216-2.373 9.934-1.581 2.718-3.756 4.769-6.523 6.153-2.768 1.433-5.931 2.15-9.49 2.15-4.398 0-7.981-.692-10.749-2.076-2.718-1.384-4.769-3.188-6.153-5.412-1.334-2.174-2.199-4.423-2.595-6.746h8.303c.445 2.422 1.631 4.176 3.559 5.264 1.977 1.136 4.522 1.705 7.635 1.705 3.114 0 5.61-.865 7.488-2.595 1.927-1.68 2.891-4.473 2.891-8.377v-4.819c-1.285 2.076-3.015 3.732-5.189 4.967-2.175 1.186-4.893 1.779-8.155 1.779zm1.112-7.265c4.053 0 7.092-1.26 9.119-3.78 2.075-2.521 3.113-5.882 3.113-10.083 0-4.25-1.038-7.635-3.113-10.156-2.027-2.57-5.066-3.855-9.119-3.855-3.608 0-6.45 1.236-8.525 3.707-2.027 2.471-3.04 5.906-3.04 10.304 0 4.35 1.013 7.76 3.04 10.231 2.075 2.422 4.917 3.632 8.525 3.632zm38.931 7.562-13.344-41.515h8.599l10.305 34.621 10.304-34.621h8.6l-12.232 37.957h.074l-5.931 18.385h-15.864v-6.821h10.082l2.669-8.006z" fill="#201c1d"/><path d="m31 414h366v100h-366z" fill="#f39fff"/><path d="m81.4484 491.186c-5.5353 0-10.2058-1.211-14.0113-3.632-3.8055-2.472-6.6967-5.758-8.6736-9.86s-2.9654-8.674-2.9654-13.715c0-3.707.5437-7.191 1.631-10.453 1.1367-3.311 2.7923-6.202 4.9669-8.673s4.8434-4.399 8.0065-5.783c3.2124-1.433 6.8944-2.15 11.0459-2.15 6.9685 0 12.405 1.854 16.3094 5.56 3.9542 3.658 6.3262 8.6 7.1172 14.827h-8.674c-.346-2.224-1.0379-4.3-2.0758-6.227-1.0379-1.977-2.5947-3.559-4.6704-4.745-2.0263-1.235-4.6951-1.853-8.0064-1.853-3.9044 0-7.1416.914-9.7115 2.743-2.5206 1.829-4.3986 4.226-5.6342 7.191-1.2355 2.965-1.8533 6.153-1.8533 9.563 0 3.46.6178 6.697 1.8533 9.712 1.2356 2.965 3.1136 5.362 5.6342 7.191 2.5699 1.828 5.8071 2.743 9.7115 2.743 3.4595 0 6.3013-.643 8.5253-1.928s3.8797-2.99 4.967-5.115 1.6803-4.498 1.7792-7.117h-15.2715v-7.117h23.6486c.395 6.524-.346 11.911-2.224 16.161-1.829 4.251-4.5716 7.438-8.2288 9.564-3.6573 2.075-8.0559 3.113-13.1958 3.113zm38.5666-22.981v21.795h-8.006v-41.515h8.006v6.969c.494-1.434 1.285-2.768 2.372-4.003 1.088-1.236 2.546-2.224 4.374-2.966 1.878-.791 4.251-1.186 7.117-1.186v8.006c-2.965 0-5.486.396-7.561 1.187-2.076.79-3.658 2.125-4.745 4.003-1.038 1.828-1.557 4.398-1.557 7.71zm16.589-4.374c0-2.817.692-5.486 2.076-8.007 1.384-2.52 3.435-4.571 6.153-6.153 2.718-1.581 6.03-2.372 9.934-2.372 5.338 0 9.415 1.532 12.232 4.596 2.867 3.015 4.498 7.117 4.893 12.307h-7.932c-.198-2.966-1.014-5.289-2.447-6.969-1.384-1.73-3.632-2.595-6.746-2.595-2.372 0-4.275.42-5.708 1.261-1.433.84-2.471 1.976-3.114 3.41-.593 1.384-.889 2.891-.889 4.522zm15.346 27.355c-2.718 0-5.165-.494-7.339-1.483-2.175-1.037-3.88-2.52-5.115-4.448-1.236-1.927-1.854-4.275-1.854-7.042 0-3.262.791-5.832 2.373-7.71 1.581-1.878 3.657-3.262 6.227-4.152 2.619-.889 5.461-1.458 8.525-1.705 3.114-.296 6.178-.444 9.193-.444v4.448h8.006v21.35h-8.006v-4.596c-1.236 1.828-2.867 3.262-4.893 4.299-2.026.989-4.399 1.483-7.117 1.483zm1.779-7.043c2.867 0 5.288-.914 7.265-2.742 1.977-1.829 2.966-4.424 2.966-7.785v-2.742c-6.178-.198-10.725.321-13.641 1.556-2.916 1.186-4.374 3.015-4.374 5.486 0 2.076.667 3.633 2.002 4.671 1.384 1.038 3.311 1.556 5.782 1.556zm33.253-14.826v20.683h-8.007v-41.515h8.007v6.746c.79-2.026 2.149-3.855 4.077-5.486 1.927-1.63 4.621-2.446 8.081-2.446 2.817 0 5.263.692 7.339 2.076 2.075 1.334 3.583 3.583 4.522 6.746.593-1.433 1.433-2.817 2.52-4.152 1.137-1.383 2.57-2.495 4.3-3.336 1.779-.889 3.905-1.334 6.376-1.334 2.57 0 4.818.544 6.746 1.631 1.927 1.087 3.435 2.891 4.522 5.412 1.087 2.471 1.631 5.832 1.631 10.082v25.576h-8.006v-24.612c0-2.274-.173-4.226-.519-5.857-.297-1.68-.939-2.965-1.928-3.855-.988-.939-2.471-1.408-4.448-1.408-1.73 0-3.385.568-4.967 1.705-1.532 1.136-2.792 2.817-3.781 5.041-.939 2.224-1.408 4.991-1.408 8.303v20.683h-8.007v-24.612c0-2.274-.173-4.226-.519-5.857-.296-1.68-.939-2.965-1.927-3.855-.989-.939-2.471-1.408-4.448-1.408-1.73 0-3.386.568-4.967 1.705-1.532 1.136-2.792 2.817-3.781 5.041-.939 2.224-1.408 4.991-1.408 8.303zm65.156 0v20.683h-8.006v-41.515h8.006v6.746c.791-2.026 2.15-3.855 4.077-5.486 1.928-1.63 4.621-2.446 8.081-2.446 2.817 0 5.264.692 7.339 2.076 2.076 1.334 3.583 3.583 4.522 6.746.593-1.433 1.434-2.817 2.521-4.152 1.137-1.383 2.57-2.495 4.3-3.336 1.779-.889 3.904-1.334 6.375-1.334 2.57 0 4.819.544 6.746 1.631 1.928 1.087 3.435 2.891 4.522 5.412 1.088 2.471 1.631 5.832 1.631 10.082v25.576h-8.006v-24.612c0-2.274-.173-4.226-.519-5.857-.296-1.68-.939-2.965-1.927-3.855-.989-.939-2.472-1.408-4.448-1.408-1.73 0-3.386.568-4.967 1.705-1.532 1.136-2.793 2.817-3.781 5.041-.939 2.224-1.409 4.991-1.409 8.303v20.683h-8.006v-24.612c0-2.274-.173-4.226-.519-5.857-.297-1.68-.939-2.965-1.928-3.855-.988-.939-2.471-1.408-4.448-1.408-1.729 0-3.385.568-4.967 1.705-1.532 1.136-2.792 2.817-3.78 5.041-.939 2.224-1.409 4.991-1.409 8.303zm56.335-5.486c0-2.817.692-5.486 2.075-8.007 1.384-2.52 3.435-4.571 6.154-6.153 2.718-1.581 6.029-2.372 9.933-2.372 5.338 0 9.415 1.532 12.232 4.596 2.867 3.015 4.498 7.117 4.893 12.307h-7.932c-.198-2.966-1.013-5.289-2.446-6.969-1.384-1.73-3.633-2.595-6.747-2.595-2.372 0-4.275.42-5.708 1.261-1.433.84-2.471 1.976-3.113 3.41-.594 1.384-.89 2.891-.89 4.522zm15.345 27.355c-2.718 0-5.164-.494-7.339-1.483-2.174-1.037-3.88-2.52-5.115-4.448-1.236-1.927-1.853-4.275-1.853-7.042 0-3.262.79-5.832 2.372-7.71 1.581-1.878 3.657-3.262 6.227-4.152 2.619-.889 5.461-1.458 8.525-1.705 3.114-.296 6.178-.444 9.193-.444v4.448h8.006v21.35h-8.006v-4.596c-1.236 1.828-2.867 3.262-4.893 4.299-2.026.989-4.398 1.483-7.117 1.483zm1.78-7.043c2.866 0 5.288-.914 7.265-2.742 1.977-1.829 2.965-4.424 2.965-7.785v-2.742c-6.178-.198-10.725.321-13.641 1.556-2.916 1.186-4.373 3.015-4.373 5.486 0 2.076.667 3.633 2.001 4.671 1.384 1.038 3.311 1.556 5.783 1.556zm33.252-15.938v21.795h-8.006v-41.515h8.006v6.969c.494-1.434 1.285-2.768 2.372-4.003 1.088-1.236 2.545-2.224 4.374-2.966 1.878-.791 4.25-1.186 7.117-1.186v8.006c-2.965 0-5.486.396-7.562 1.187-2.075.79-3.657 2.125-4.744 4.003-1.038 1.828-1.557 4.398-1.557 7.71z" fill="#201c1d"/><path d="m397 414h463.76v100h-463.76z" fill="#390a91"/><path d="m431.612 464.72h9.044c2.966 0 5.486-.271 7.562-.815 2.125-.544 3.731-1.532 4.819-2.965 1.136-1.434 1.705-3.435 1.705-6.005 0-2.62-.569-4.621-1.705-6.005-1.088-1.384-2.694-2.348-4.819-2.891-2.076-.544-4.596-.816-7.562-.816h-9.044zm0-21.721v-4.893h9.044c4.597 0 8.575.544 11.936 1.631 3.41 1.088 6.029 2.867 7.858 5.338 1.878 2.471 2.817 5.758 2.817 9.86s-.939 7.388-2.817 9.86c-1.829 2.471-4.448 4.275-7.858 5.411-3.361 1.088-7.339 1.631-11.936 1.631h-9.044v18.163h-8.155v-47.001zm64.586 26.169v-20.683h8.006v41.515h-8.006v-6.894c-.593 1.383-1.458 2.693-2.595 3.929-1.136 1.235-2.619 2.224-4.448 2.965-1.779.791-4.003 1.186-6.672 1.186s-5.066-.544-7.191-1.631c-2.075-1.087-3.731-2.891-4.967-5.412-1.186-2.52-1.779-5.881-1.779-10.082v-25.576h7.932v24.613c0 3.36.544 6.054 1.631 8.08 1.088 2.026 3.238 3.04 6.45 3.04 1.977 0 3.83-.569 5.56-1.705 1.779-1.137 3.237-2.818 4.374-5.042 1.137-2.273 1.705-5.041 1.705-8.303zm15.355-20.683h8.006v6.82c.84-2.075 2.323-3.929 4.448-5.56 2.175-1.63 5.239-2.446 9.193-2.446 2.669 0 5.041.544 7.117 1.631 2.125 1.087 3.805 2.891 5.041 5.412 1.235 2.471 1.853 5.832 1.853 10.082v25.576h-8.006v-24.612c0-3.361-.544-6.055-1.631-8.081-1.088-2.026-3.213-3.039-6.376-3.039-1.977 0-3.855.568-5.634 1.705-1.779 1.136-3.237 2.817-4.374 5.041-1.087 2.224-1.631 4.991-1.631 8.303v20.683h-8.006zm81.856 24.094c-.148 3.558-1.038 6.746-2.669 9.563-1.581 2.817-3.805 5.041-6.672 6.672-2.866 1.581-6.252 2.372-10.156 2.372-4.3 0-8.056-.914-11.268-2.743-3.163-1.878-5.61-4.473-7.34-7.784-1.729-3.311-2.594-7.092-2.594-11.342 0-4.3.865-8.106 2.594-11.417 1.73-3.311 4.177-5.906 7.34-7.784 3.212-1.878 6.968-2.817 11.268-2.817 3.756 0 7.043.84 9.86 2.521 2.866 1.631 5.115 3.78 6.746 6.449 1.68 2.62 2.595 5.461 2.743 8.526h-8.451c-.099-1.681-.569-3.287-1.409-4.819-.791-1.582-1.977-2.867-3.558-3.855-1.532-.989-3.509-1.483-5.931-1.483-2.916 0-5.338.643-7.265 1.928-1.928 1.235-3.361 2.965-4.3 5.189s-1.408 4.745-1.408 7.562c0 4.201 1.062 7.685 3.187 10.453 2.125 2.718 5.387 4.077 9.786 4.077 2.57 0 4.646-.519 6.227-1.557 1.631-1.087 2.842-2.496 3.633-4.226.79-1.729 1.235-3.558 1.334-5.485zm8.959 17.421v-34.695h-6.228v-6.82h6.228v-10.379h8.006v10.379h8.377v6.82h-8.377v27.875h9.563v6.82zm50.35-20.832v-20.683h8.007v41.515h-8.007v-6.894c-.593 1.383-1.458 2.693-2.594 3.929-1.137 1.235-2.62 2.224-4.448 2.965-1.78.791-4.004 1.186-6.672 1.186-2.669 0-5.066-.544-7.191-1.631-2.076-1.087-3.732-2.891-4.967-5.412-1.186-2.52-1.78-5.881-1.78-10.082v-25.576h7.933v24.613c0 3.36.543 6.054 1.631 8.08 1.087 2.026 3.237 3.04 6.449 3.04 1.977 0 3.831-.569 5.56-1.705 1.78-1.137 3.238-2.818 4.374-5.042 1.137-2.273 1.705-5.041 1.705-8.303zm14.685-5.337c0-2.817.691-5.486 2.075-8.007 1.384-2.52 3.435-4.571 6.153-6.153 2.719-1.581 6.03-2.372 9.934-2.372 5.338 0 9.415 1.532 12.232 4.596 2.867 3.015 4.498 7.117 4.893 12.307h-7.932c-.198-2.966-1.013-5.289-2.447-6.969-1.383-1.73-3.632-2.595-6.746-2.595-2.372 0-4.275.42-5.708 1.261-1.433.84-2.471 1.976-3.114 3.41-.593 1.384-.889 2.891-.889 4.522zm15.345 27.355c-2.718 0-5.164-.494-7.339-1.483-2.175-1.037-3.88-2.52-5.115-4.448-1.236-1.927-1.854-4.275-1.854-7.042 0-3.262.791-5.832 2.373-7.71 1.581-1.878 3.657-3.262 6.227-4.152 2.619-.889 5.461-1.458 8.525-1.705 3.114-.296 6.178-.444 9.193-.444v4.448h8.006v21.35h-8.006v-4.596c-1.236 1.828-2.867 3.262-4.893 4.299-2.026.989-4.399 1.483-7.117 1.483zm1.779-7.043c2.867 0 5.289-.914 7.266-2.742 1.976-1.829 2.965-4.424 2.965-7.785v-2.742c-6.178-.198-10.725.321-13.641 1.556-2.916 1.186-4.374 3.015-4.374 5.486 0 2.076.668 3.633 2.002 4.671 1.384 1.038 3.311 1.556 5.782 1.556zm28.317 5.857v-34.695h-6.227v-6.82h6.227v-10.379h8.007v10.379h8.377v6.82h-8.377v27.875h9.563v6.82zm21.62-55.971 8.896-2.001 2.002 9.044-8.896 2.001zm2.372 14.456h8.007v41.515h-8.007zm35.296 42.701c-4.299 0-8.055-.914-11.268-2.743-3.163-1.878-5.609-4.473-7.339-7.784s-2.595-7.092-2.595-11.342c0-4.3.865-8.106 2.595-11.417s4.176-5.906 7.339-7.784c3.213-1.878 6.969-2.817 11.268-2.817 4.251 0 7.957.939 11.121 2.817 3.212 1.878 5.683 4.473 7.413 7.784 1.779 3.311 2.669 7.117 2.669 11.417 0 4.25-.89 8.031-2.669 11.342-1.73 3.311-4.201 5.906-7.413 7.784-3.164 1.829-6.87 2.743-11.121 2.743zm0-7.265c4.053 0 7.216-1.334 9.49-4.003 2.322-2.718 3.484-6.252 3.484-10.601 0-4.399-1.162-7.957-3.484-10.676-2.274-2.718-5.437-4.077-9.49-4.077-4.102 0-7.289 1.359-9.563 4.077-2.273 2.719-3.41 6.277-3.41 10.676 0 4.349 1.137 7.883 3.41 10.601 2.274 2.669 5.461 4.003 9.563 4.003zm26.833-35.436h8.007v6.82c.84-2.075 2.323-3.929 4.448-5.56 2.174-1.63 5.239-2.446 9.192-2.446 2.669 0 5.041.544 7.117 1.631 2.125 1.087 3.806 2.891 5.041 5.412 1.236 2.471 1.854 5.832 1.854 10.082v25.576h-8.007v-24.612c0-3.361-.543-6.055-1.631-8.081-1.087-2.026-3.212-3.039-6.375-3.039-1.977 0-3.855.568-5.634 1.705-1.78 1.136-3.238 2.817-4.374 5.041-1.088 2.224-1.631 4.991-1.631 8.303v20.683h-8.007z" fill="#fff"/><path d="m0 0h438.76v100.38h-438.76z" fill="#fc0" transform="matrix(.95048482 .31077099 -.31077099 .95048482 511.195 9)"/><path d="m522.65 85.3388 8.949 2.9259c3.711 1.2134 7.026 1.4131 9.944.5993 2.933-.8608 5.401-2.4457 7.404-4.7547 2.065-2.3406 3.635-5.155 4.71-8.4433 1.06-3.2413 1.441-6.3927 1.142-9.4543-.237-3.0932-1.292-5.83-3.166-8.2105-1.873-2.3804-4.665-4.1773-8.376-5.3907l-8.949-2.9259zm6.142-45.0234 16.699 5.4602c5.215 1.7048 9.277 4.229 12.188 7.5725 2.925 3.2966 4.721 7.1075 5.387 11.4329.681 4.2785.246 8.7899-1.305 13.5344-1.567 4.7915-3.897 8.7356-6.989 11.8323s-6.8 5.1341-11.124 6.1123c-4.308.9313-9.069.5445-14.284-1.1604l-8.948-2.9259 1.543-4.721-7.751-2.5343zm37.737 39.4031c.875-2.6776 2.362-4.9993 4.461-6.965 2.098-1.9656 4.685-3.2777 7.76-3.9362 3.076-.6584 6.469-.381 10.18.8324 5.073 1.6588 8.472 4.3821 10.198 8.1701 1.787 3.7563 2.063 8.1621.826 13.2173l-7.54-2.4651c.734-2.8799.681-5.3412-.159-7.3838-.778-2.0742-2.647-3.5951-5.606-4.5627-2.255-.7372-4.194-.9293-5.817-.5761-1.624.3532-2.964 1.1111-4.02 2.2737-.993 1.131-1.744 2.4716-2.251 4.0218zm6.084 30.7695c-2.583-.845-4.755-2.075-6.515-3.69-1.744-1.662-2.904-3.601-3.479-5.817-.576-2.2163-.433-4.6396.427-7.2702 1.013-3.1004 2.564-5.2973 4.651-6.5909 2.086-1.2936 4.489-1.9638 7.209-2.0107 2.766-.0315 5.643.3114 8.633 1.0288 3.051.6858 6.01 1.4971 8.875 2.434l-1.382 4.2278 7.61 2.4881-6.635 20.2931-7.61-2.488 1.428-4.369c-1.742 1.354-3.738 2.21-5.986 2.567-2.234.309-4.642.042-7.226-.803zm3.88-6.141c2.725.891 5.311.775 7.758-.349s4.193-3.283 5.237-6.4772l.853-2.6071c-5.811-2.1078-10.294-3.0276-13.449-2.7594-3.14.2212-5.094 1.5062-5.862 3.855-.645 1.9729-.495 3.66.451 5.0607.993 1.417 2.663 2.509 5.012 3.277zm25.095 14.367 10.782-32.9768-5.919-1.9353 2.119-6.4826 5.919 1.9353 3.226-9.8648 7.61 2.4881-3.226 9.8648 7.963 2.6034-2.12 6.4826-7.962-2.6034-8.663 26.4937 9.09 2.972-2.12 6.483zm32.582-8.378 1.521-4.65-8.033-2.627c1.604-3.7912 3.751-6.7809 6.443-8.9688 2.753-2.2195 5.832-3.6047 9.236-4.1557 3.404-.5509 6.914-.2351 10.531.9476 3.571 1.1673 6.512 3.143 8.826 5.9273 2.313 2.7843 3.669 6.1916 4.067 10.2216.461 3.998-.373 8.379-2.503 13.143zm17.441-12.5486c-3.148-1.029-6.094-1.0043-8.838.0743-2.745 1.0785-4.866 3.1143-6.365 6.1083l22.478 7.349c.639-2.91.381-5.62-.774-8.13-1.14-2.557-3.307-4.3572-6.501-5.4016zm-11.381 34.8086c-3.805-1.244-6.887-3.11-9.246-5.597s-3.961-5.377-4.809-8.67c-.832-3.339-.821-6.872.033-10.596l7.962 2.603c-.777 3.49-.524 6.614.758 9.373 1.328 2.775 3.848 4.768 7.559 5.982 2.772.906 5.164.986 7.175.24 2.075-.778 3.755-2.022 5.043-3.733l8.033 2.626c-2.276 3.78-5.402 6.423-9.379 7.931-3.962 1.461-8.338 1.408-13.129-.159zm85.852-12.409-2.35 7.187 6.271 2.05-2.212 6.765-6.271-2.051-7.027 21.491-17.615-5.759c-3.57-1.167-6.697-2.658-9.38-4.471-2.636-1.798-4.493-3.991-5.57-6.579-1.063-2.635-.995-5.785.203-9.449.906-2.771 2.473-4.859 4.7-6.263 2.242-1.451 4.715-2.176 7.419-2.176-1.666-1.584-2.685-3.477-3.057-5.679-.325-2.186-.181-4.219.434-6.098 1.198-3.664 2.996-6.222 5.395-7.673 2.413-1.499 5.207-2.1715 8.381-2.0178 3.236.1221 6.639.7668 10.209 1.9338l7.257 2.373-2.211 6.765-7.258-2.373c-3.758-1.229-6.769-1.642-9.033-1.238-2.201.372-3.755 1.944-4.661 4.716-.922 2.818-.557 5.043 1.093 6.675 1.666 1.584 4.237 2.945 7.713 4.082l7.469 2.442 2.35-7.188zm-27.108 23.271 9.865 3.225 4.93-15.079-9.935-3.248c-3.476-1.137-6.401-1.495-8.774-1.075-2.326.435-3.935 2.015-4.826 4.74-.952 2.912-.626 5.255.979 7.027 1.651 1.788 4.238 3.258 7.761 4.41zm45.397 21.94 10.782-32.976-5.919-1.935 2.12-6.483 5.919 1.935 3.225-9.865 7.61 2.489-3.225 9.864 7.962 2.604-2.119 6.482-7.963-2.603-8.662 26.494 9.09 2.972-2.12 6.483zm37.944-46.48 9.077.862-.908 9.218-9.077-.862zm-2.238 14.477 7.61 2.488-12.902 39.46-7.61-2.489zm16.219 27.22-6.428 19.659-7.61-2.488 12.901-39.459 7.61 2.488-2.096 6.412c1.381-1.68 3.241-2.996 5.58-3.947s5.153-.89 8.441.186c2.677.875 4.788 2.293 6.331 4.253 1.558 1.914 2.292 4.52 2.201 7.818 1.009-1.178 2.238-2.232 3.686-3.163 1.511-.962 3.219-1.573 5.124-1.834 1.967-.293 4.126-.055 6.474.713 2.443.798 4.411 2.014 5.906 3.646 1.494 1.633 2.366 3.816 2.616 6.549.266 2.687-.262 6.05-1.583 10.09l-7.948 24.31-7.61-2.488 7.648-23.394c.707-2.161 1.149-4.07 1.327-5.728.241-1.689.029-3.11-.634-4.263-.647-1.199-1.911-2.107-3.79-2.721-1.644-.537-3.394-.512-5.251.077-1.809.604-3.529 1.81-5.16 3.617-1.584 1.822-2.89 4.306-3.919 7.454l-6.428 19.659-7.61-2.488 7.649-23.394c.707-2.161 1.149-4.07 1.327-5.728.24-1.689.029-3.11-.634-4.263-.648-1.2-1.911-2.107-3.79-2.721-1.644-.537-3.395-.512-5.251.077-1.81.604-3.53 1.81-5.16 3.617-1.584 1.822-2.89 4.306-3.919 7.454zm60.066 22.369 1.521-4.65-8.033-2.627c1.604-3.791 3.751-6.781 6.443-8.969 2.753-2.219 5.832-3.605 9.236-4.155 3.404-.551 6.914-.236 10.531.947 3.571 1.167 6.512 3.143 8.826 5.927 2.313 2.785 3.669 6.192 4.067 10.222.461 3.998-.373 8.379-2.503 13.143zm17.441-12.549c-3.148-1.029-6.094-1.004-8.838.075-2.745 1.078-4.866 3.114-6.365 6.108l22.478 7.349c.639-2.91.381-5.62-.774-8.13-1.14-2.557-3.307-4.357-6.501-5.402zm-11.381 34.809c-3.805-1.244-6.887-3.11-9.246-5.597-2.358-2.487-3.961-5.377-4.809-8.67-.832-3.339-.821-6.872.033-10.596l7.962 2.603c-.777 3.49-.524 6.614.758 9.373 1.328 2.775 3.848 4.768 7.559 5.982 2.772.906 5.164.986 7.175.24 2.075-.778 3.755-2.022 5.043-3.733l8.033 2.626c-2.276 3.78-5.402 6.423-9.379 7.931-3.962 1.461-8.338 1.408-13.129-.159z" fill="#201c1d"/></svg>