<svg width="1030" height="540" viewBox="0 0 1030 540" fill="none" xmlns="http://www.w3.org/2000/svg">
<g clip-path="url(#clip0_0_8)">
<rect width="1030" height="540" fill="black"/>
<path d="M643.959 101.478L-174 573.74L1496 593.418L643.959 101.478Z" fill="#FF5E00"/>
<path d="M646.8 57.2039L-34.8331 450.755L1356.83 467.153L646.8 57.2039Z" fill="#FF5E00"/>
<path d="M649.64 12.9293L104.333 327.771L1217.67 340.889L649.64 12.9293Z" fill="#FF5E00"/>
<path d="M652.48 -31.3452L243.5 204.786L1078.5 214.624L652.48 -31.3452Z" fill="#FF5E00"/>
<path d="M-34.8331 450.755V575.38L675.201 860.705L-34.8331 450.755Z" fill="#F39FFF"/>
<path d="M655.32 -75.6197L382.667 81.8008L939.333 88.36L655.32 -75.6197Z" fill="#FF5E00"/>
<path d="M-34.8331 450.755L675.201 860.705L1356.83 467.153L-34.8331 450.755Z" fill="#FF5E00"/>
<path d="M104.333 327.77V452.395L672.361 655.73L104.333 327.77Z" fill="#F39FFF"/>
<path d="M104.333 327.77L672.361 655.73L1217.67 340.889L104.333 327.77Z" fill="#FF5E00"/>
<path d="M243.5 204.786V329.41L669.52 450.755L243.5 204.786Z" fill="#F39FFF"/>
<path d="M243.5 204.786L669.52 450.755L1078.5 214.624L243.5 204.786Z" fill="#FF5E00"/>
<path d="M382.667 81.8008V206.425L666.68 245.781L382.667 81.8008Z" fill="#F39FFF"/>
<path d="M104.333 452.395L672.361 780.355V655.73L104.333 452.395Z" fill="#F39FFF"/>
<path d="M382.667 81.8008L666.68 245.781L939.333 88.36L382.667 81.8008Z" fill="#FF5E00"/>
<path d="M243.5 329.41L669.52 575.38V450.755L243.5 329.41Z" fill="#F39FFF"/>
<path d="M382.667 206.425L666.68 370.405V245.781L382.667 206.425Z" fill="#F39FFF"/>
<path d="M521.833 -41.184V83.4406L663.84 40.8059L521.833 -41.184Z" fill="#F39FFF"/>
<path d="M521.833 83.4406L663.84 165.43V40.8059L521.833 83.4406Z" fill="#F39FFF"/>
<path d="M521.833 -41.184L663.84 40.8059L800.167 -37.9044L521.833 -41.184Z" fill="#FF5E00"/>
<path d="M663.84 165.431L800.167 86.7202V-37.9044L663.84 165.431Z" fill="#FFCC00"/>
<path d="M663.84 40.8059V165.431L800.167 -37.9044L663.84 40.8059Z" fill="#FFCC00"/>
<path d="M666.68 370.405L939.333 212.985V88.36L666.68 370.405Z" fill="#FFCC00"/>
<path d="M666.68 245.781V370.405L939.333 88.36L666.68 245.781Z" fill="#FFCC00"/>
<path d="M669.521 575.38L1078.5 339.249V214.624L669.521 575.38Z" fill="#FFCC00"/>
<path d="M669.521 450.755V575.38L1078.5 214.624L669.521 450.755Z" fill="#FFCC00"/>
<path d="M672.361 780.355L1217.67 465.513V340.889L672.361 780.355Z" fill="#FFCC00"/>
<path d="M672.361 655.73V780.355L1217.67 340.889L672.361 655.73Z" fill="#FFCC00"/>
<path d="M675.201 985.329L1356.83 591.778V467.153L675.201 985.329Z" fill="#FFCC00"/>
<path d="M675.201 860.705V985.329L1356.83 467.153L675.201 860.705Z" fill="#FFCC00"/>
</g>
<defs>
<clipPath id="clip0_0_8">
<rect width="1030" height="540" fill="white"/>
</clipPath>
</defs>
</svg>
