<svg width="966" height="500" viewBox="0 0 966 500" fill="none" xmlns="http://www.w3.org/2000/svg">
<g clip-path="url(#clip0_3536_6465)">
<rect width="478" height="245" fill="#E5E5E5"/>
<rect width="15.4643" height="17.5332" fill="#FF1E1E"/>
<path d="M9.49512 12.7666L7.73512 10.0666L5.96512 12.7666H4.88512L7.19512 9.2466L4.91512 5.7666H5.99512L7.73512 8.4166L9.46512 5.7666H10.5451L8.27512 9.2466L10.5751 12.7666H9.49512Z" fill="white"/>
<rect width="146.464" height="17.5332" transform="translate(15.4648)" fill="#EEEEEE"/>
<path d="M22.4173 5.7666H23.6473L26.0573 12.7666H25.0673L24.5073 11.0666H21.6073L21.0673 12.7666H20.0873L22.4173 5.7666ZM21.8673 10.2566H24.2373L23.0373 6.6166L21.8673 10.2566ZM26.0438 7.1666H27.0238L28.5438 12.0166L30.0538 7.1666H31.0338L29.1838 12.7666H27.8938L26.0438 7.1666ZM34.423 12.9266C32.693 12.9266 31.563 11.7066 31.563 9.9766C31.563 8.2366 32.693 7.0066 34.423 7.0066C36.153 7.0066 37.283 8.2366 37.283 9.9766C37.283 11.7066 36.153 12.9266 34.423 12.9266ZM34.423 12.0966C35.583 12.0966 36.343 11.2766 36.343 9.9766C36.343 8.6566 35.583 7.8366 34.423 7.8366C33.263 7.8366 32.493 8.6566 32.493 9.9766C32.493 11.2766 33.263 12.0966 34.423 12.0966ZM38.4255 7.1666H39.3355V12.7666H38.4255V7.1666ZM38.3555 5.2666H39.4055V6.3466H38.3555V5.2666ZM43.0088 12.9266C41.4888 12.9266 40.4888 11.7066 40.4888 9.9766C40.4888 8.2366 41.4888 7.0066 43.0088 7.0066C43.9188 7.0066 44.5488 7.4466 44.9088 8.1466V5.2666H45.8088V12.7666H44.9088V11.8066C44.5688 12.4766 43.9488 12.9266 43.0088 12.9266ZM43.1088 12.0966C44.3088 12.0966 44.9088 11.2066 44.9088 9.9766C44.9088 8.7366 44.3088 7.8366 43.1088 7.8366C42.0888 7.8366 41.4188 8.6566 41.4188 9.9766C41.4188 11.2766 42.0888 12.0966 43.1088 12.0966ZM54.1674 12.7666H53.2674V11.8066C53.0174 12.3766 52.4574 12.9266 51.3874 12.9266C50.3074 12.9266 49.4874 12.3266 49.4874 10.6166V7.1666H50.3874V10.4866C50.3874 11.5166 50.6874 12.1366 51.5974 12.1366C52.4974 12.1366 53.2674 11.3066 53.2674 9.9766V7.1666H54.1674V12.7666ZM56.2028 10.9966C56.2628 11.7466 56.9028 12.1566 57.7228 12.1566C58.5228 12.1566 59.0528 11.8466 59.0528 11.1966C59.0528 9.8966 55.3928 10.9666 55.3928 8.7266C55.3928 7.8266 56.2728 7.0066 57.6428 7.0066C58.8528 7.0066 59.8628 7.7866 59.8628 8.9266H59.0328C58.9828 8.1666 58.3728 7.7766 57.6028 7.7766C56.7328 7.7766 56.2828 8.1766 56.2828 8.7266C56.2828 10.1466 59.9528 8.9866 59.9528 11.1966C59.9528 12.2566 59.0828 12.9266 57.6728 12.9266C56.3528 12.9266 55.3628 12.0966 55.3228 10.9966H56.2028ZM61.1404 7.1666H62.0504V12.7666H61.1404V7.1666ZM61.0704 5.2666H62.1204V6.3466H61.0704V5.2666ZM63.443 7.1666H64.343V8.1166C64.593 7.5466 65.153 7.0066 66.233 7.0066C67.313 7.0066 68.123 7.6066 68.123 9.3166V12.7666H67.223V9.4466C67.223 8.4066 66.923 7.7966 66.013 7.7966C65.113 7.7966 64.343 8.6166 64.343 9.9466V12.7666H63.443V7.1666ZM71.7491 12.7266C70.2291 12.7266 69.2291 11.6066 69.2291 9.8766C69.2291 8.1366 70.2291 7.0066 71.7491 7.0066C72.6591 7.0066 73.2891 7.3866 73.6491 8.0566V7.1666H74.5491V12.4666C74.5491 14.0466 73.5691 14.9266 72.1191 14.9266C70.3391 14.9266 69.6791 13.9566 69.5191 13.0066H70.4591C70.5891 13.7266 71.1591 14.0966 72.1191 14.0966C73.0991 14.0966 73.6491 13.5866 73.6491 12.4666V11.6866C73.3091 12.3266 72.6891 12.7266 71.7491 12.7266ZM71.8491 11.8966C73.0491 11.8966 73.6491 11.1066 73.6491 9.8766C73.6491 8.6366 73.0491 7.8366 71.8491 7.8366C70.8291 7.8366 70.1591 8.5566 70.1591 9.8766C70.1591 11.1766 70.8291 11.8966 71.8491 11.8966ZM80.8781 12.9266C79.1481 12.9266 78.0181 11.7066 78.0181 9.9766C78.0181 8.2366 79.1481 7.0066 80.8781 7.0066C82.6081 7.0066 83.7381 8.2366 83.7381 9.9766C83.7381 11.7066 82.6081 12.9266 80.8781 12.9266ZM80.8781 12.0966C82.0381 12.0966 82.7981 11.2766 82.7981 9.9766C82.7981 8.6566 82.0381 7.8366 80.8781 7.8366C79.7181 7.8366 78.9481 8.6566 78.9481 9.9766C78.9481 11.2766 79.7181 12.0966 80.8781 12.0966ZM85.1023 6.5366C85.1023 5.8366 85.5223 5.2666 86.5323 5.2666H87.5723V6.0366H86.5423C86.1823 6.0366 86.0023 6.2066 86.0023 6.5366V7.1666H87.3823V7.9366H86.0023V12.7666H85.1023V7.9366H84.4623V7.1666H85.1023V6.5366ZM89.0964 6.5366C89.0964 5.8366 89.5164 5.2666 90.5264 5.2666H91.5664V6.0366H90.5364C90.1764 6.0366 89.9964 6.2066 89.9964 6.5366V7.1666H91.3764V7.9366H89.9964V12.7666H89.0964V7.9366H88.4564V7.1666H89.0964V6.5366ZM92.182 9.1766H95.332V9.9466H92.182V9.1766ZM99.3196 12.9266C98.3796 12.9266 97.7596 12.4866 97.4196 11.8166V12.7666H96.5196V5.2666H97.4196V8.1266C97.7796 7.4266 98.4096 7.0066 99.3196 7.0066C100.84 7.0066 101.84 8.2366 101.84 9.9766C101.84 11.7066 100.84 12.9266 99.3196 12.9266ZM99.2196 12.0966C100.24 12.0966 100.91 11.2766 100.91 9.9766C100.91 8.6566 100.24 7.8366 99.2196 7.8366C98.0296 7.8366 97.4196 8.7366 97.4196 9.9766C97.4196 11.2066 98.0296 12.0966 99.2196 12.0966ZM102.945 7.1666H103.845V8.1366C104.065 7.5566 104.595 7.0066 105.765 7.0066V7.9366C104.575 7.9366 103.845 8.3966 103.845 9.7266V12.7666H102.945V7.1666ZM108.78 7.0066C110.28 7.0066 111.05 7.9966 111.05 9.5666V12.7666H110.14V11.9566C109.84 12.5566 109.31 12.9266 108.45 12.9266C107.35 12.9266 106.49 12.2966 106.49 11.1766C106.49 9.4166 108.43 9.2066 110.13 9.3066C110.07 8.3766 109.66 7.8266 108.78 7.8266C107.84 7.8266 107.34 8.4066 107.34 9.1366H106.38C106.38 8.0366 107.22 7.0066 108.78 7.0066ZM107.44 11.1266C107.44 11.7966 107.86 12.1466 108.66 12.1466C109.58 12.1466 110.14 11.4666 110.14 10.5566V9.9866C108.34 9.8566 107.44 10.3766 107.44 11.1266ZM112.33 7.1666H113.23V8.1166C113.48 7.5466 114.04 7.0066 115.12 7.0066C116.2 7.0066 117.01 7.6066 117.01 9.3166V12.7666H116.11V9.4466C116.11 8.4066 115.81 7.7966 114.9 7.7966C114 7.7966 113.23 8.6166 113.23 9.9466V12.7666H112.33V7.1666ZM120.616 12.9266C119.096 12.9266 118.096 11.7066 118.096 9.9766C118.096 8.2366 119.096 7.0066 120.616 7.0066C121.526 7.0066 122.156 7.4466 122.516 8.1466V5.2666H123.416V12.7666H122.516V11.8066C122.176 12.4766 121.556 12.9266 120.616 12.9266ZM120.716 12.0966C121.916 12.0966 122.516 11.2066 122.516 9.9766C122.516 8.7366 121.916 7.8366 120.716 7.8366C119.696 7.8366 119.026 8.6566 119.026 9.9766C119.026 11.2766 119.696 12.0966 120.716 12.0966ZM132.395 10.4166C132.315 11.8666 131.345 12.9266 129.765 12.9266C128.035 12.9266 126.905 11.7066 126.905 9.9766C126.905 8.2366 128.035 7.0066 129.765 7.0066C131.285 7.0066 132.295 8.1366 132.375 9.3666H131.425C131.355 8.6066 130.855 7.8366 129.765 7.8366C128.505 7.8366 127.835 8.7366 127.835 9.9766C127.835 11.2066 128.505 12.0866 129.765 12.0866C130.935 12.0866 131.395 11.2766 131.465 10.4166H132.395ZM136.113 12.9266C134.383 12.9266 133.253 11.7066 133.253 9.9766C133.253 8.2366 134.383 7.0066 136.113 7.0066C137.843 7.0066 138.973 8.2366 138.973 9.9766C138.973 11.7066 137.843 12.9266 136.113 12.9266ZM136.113 12.0966C137.273 12.0966 138.033 11.2766 138.033 9.9766C138.033 8.6566 137.273 7.8366 136.113 7.8366C134.953 7.8366 134.183 8.6566 134.183 9.9766C134.183 11.2766 134.953 12.0966 136.113 12.0966ZM140.074 5.2666H140.974V12.7666H140.074V5.2666ZM144.931 12.9266C143.201 12.9266 142.071 11.7066 142.071 9.9766C142.071 8.2366 143.201 7.0066 144.931 7.0066C146.661 7.0066 147.791 8.2366 147.791 9.9766C147.791 11.7066 146.661 12.9266 144.931 12.9266ZM144.931 12.0966C146.091 12.0966 146.851 11.2766 146.851 9.9766C146.851 8.6566 146.091 7.8366 144.931 7.8366C143.771 7.8366 143.001 8.6566 143.001 9.9766C143.001 11.2766 143.771 12.0966 144.931 12.0966ZM148.902 7.1666H149.802V8.1366C150.022 7.5566 150.552 7.0066 151.722 7.0066V7.9366C150.532 7.9366 149.802 8.3966 149.802 9.7266V12.7666H148.902V7.1666ZM153.185 10.9966C153.245 11.7466 153.885 12.1566 154.705 12.1566C155.505 12.1566 156.035 11.8466 156.035 11.1966C156.035 9.8966 152.375 10.9666 152.375 8.7266C152.375 7.8266 153.255 7.0066 154.625 7.0066C155.835 7.0066 156.845 7.7866 156.845 8.9266H156.015C155.965 8.1666 155.355 7.7766 154.585 7.7766C153.715 7.7766 153.265 8.1766 153.265 8.7266C153.265 10.1466 156.935 8.9866 156.935 11.1966C156.935 12.2566 156.065 12.9266 154.655 12.9266C153.335 12.9266 152.345 12.0966 152.305 10.9966H153.185Z" fill="#201C1D"/>
<path d="M333.551 98.2383L236.424 141.567L145.125 94.7439L241.928 51.0156C272.506 66.588 303.619 81.4098 333.551 98.2383Z" fill="#DCA382"/>
<path d="M333.535 98.2383C333.586 104.052 333.465 109.896 333.535 115.71C333.589 120.191 334.057 149.559 332.907 151.022C300.66 165.033 268.844 180.926 236.408 193.982V141.567L333.535 98.2383Z" fill="#F906AC"/>
<path d="M236.416 141.564V193.978L233.392 193.404L145.109 148.21C143.922 146.613 144.421 120.04 144.468 115.706C144.507 112.195 143.852 96.4589 145.116 94.7402L236.415 141.564L236.416 141.564Z" fill="#1AE37B"/>
<rect width="478" height="245" transform="translate(488)" fill="#E5E5E5"/>
<rect width="15.4643" height="17.5332" transform="translate(488)" fill="#FF1E1E"/>
<path d="M497.495 12.7666L495.735 10.0666L493.965 12.7666H492.885L495.195 9.2466L492.915 5.7666H493.995L495.735 8.4166L497.465 5.7666H498.545L496.275 9.2466L498.575 12.7666H497.495Z" fill="white"/>
<rect width="112.464" height="17.5332" transform="translate(503.465)" fill="#EEEEEE"/>
<path d="M510.417 5.7666H511.647L514.057 12.7666H513.067L512.507 11.0666H509.607L509.067 12.7666H508.087L510.417 5.7666ZM509.867 10.2566H512.237L511.037 6.6166L509.867 10.2566ZM514.044 7.1666H515.024L516.544 12.0166L518.054 7.1666H519.034L517.184 12.7666H515.894L514.044 7.1666ZM522.423 12.9266C520.693 12.9266 519.563 11.7066 519.563 9.9766C519.563 8.2366 520.693 7.0066 522.423 7.0066C524.153 7.0066 525.283 8.2366 525.283 9.9766C525.283 11.7066 524.153 12.9266 522.423 12.9266ZM522.423 12.0966C523.583 12.0966 524.343 11.2766 524.343 9.9766C524.343 8.6566 523.583 7.8366 522.423 7.8366C521.263 7.8366 520.493 8.6566 520.493 9.9766C520.493 11.2766 521.263 12.0966 522.423 12.0966ZM526.426 7.1666H527.336V12.7666H526.426V7.1666ZM526.356 5.2666H527.406V6.3466H526.356V5.2666ZM531.009 12.9266C529.489 12.9266 528.489 11.7066 528.489 9.9766C528.489 8.2366 529.489 7.0066 531.009 7.0066C531.919 7.0066 532.549 7.4466 532.909 8.1466V5.2666H533.809V12.7666H532.909V11.8066C532.569 12.4766 531.949 12.9266 531.009 12.9266ZM531.109 12.0966C532.309 12.0966 532.909 11.2066 532.909 9.9766C532.909 8.7366 532.309 7.8366 531.109 7.8366C530.089 7.8366 529.419 8.6566 529.419 9.9766C529.419 11.2766 530.089 12.0966 531.109 12.0966ZM542.167 12.7666H541.267V11.8066C541.017 12.3766 540.457 12.9266 539.387 12.9266C538.307 12.9266 537.487 12.3266 537.487 10.6166V7.1666H538.387V10.4866C538.387 11.5166 538.687 12.1366 539.597 12.1366C540.497 12.1366 541.267 11.3066 541.267 9.9766V7.1666H542.167V12.7666ZM544.203 10.9966C544.263 11.7466 544.903 12.1566 545.723 12.1566C546.523 12.1566 547.053 11.8466 547.053 11.1966C547.053 9.8966 543.393 10.9666 543.393 8.7266C543.393 7.8266 544.273 7.0066 545.643 7.0066C546.853 7.0066 547.863 7.7866 547.863 8.9266H547.033C546.983 8.1666 546.373 7.7766 545.603 7.7766C544.733 7.7766 544.283 8.1766 544.283 8.7266C544.283 10.1466 547.953 8.9866 547.953 11.1966C547.953 12.2566 547.083 12.9266 545.673 12.9266C544.353 12.9266 543.363 12.0966 543.323 10.9966H544.203ZM549.14 7.1666H550.05V12.7666H549.14V7.1666ZM549.07 5.2666H550.12V6.3466H549.07V5.2666ZM551.443 7.1666H552.343V8.1166C552.593 7.5466 553.153 7.0066 554.233 7.0066C555.313 7.0066 556.123 7.6066 556.123 9.3166V12.7666H555.223V9.4466C555.223 8.4066 554.923 7.7966 554.013 7.7966C553.113 7.7966 552.343 8.6166 552.343 9.9466V12.7666H551.443V7.1666ZM559.749 12.7266C558.229 12.7266 557.229 11.6066 557.229 9.8766C557.229 8.1366 558.229 7.0066 559.749 7.0066C560.659 7.0066 561.289 7.3866 561.649 8.0566V7.1666H562.549V12.4666C562.549 14.0466 561.569 14.9266 560.119 14.9266C558.339 14.9266 557.679 13.9566 557.519 13.0066H558.459C558.589 13.7266 559.159 14.0966 560.119 14.0966C561.099 14.0966 561.649 13.5866 561.649 12.4666V11.6866C561.309 12.3266 560.689 12.7266 559.749 12.7266ZM559.849 11.8966C561.049 11.8966 561.649 11.1066 561.649 9.8766C561.649 8.6366 561.049 7.8366 559.849 7.8366C558.829 7.8366 558.159 8.5566 558.159 9.8766C558.159 11.1766 558.829 11.8966 559.849 11.8966ZM568.538 12.7266C567.018 12.7266 566.018 11.6066 566.018 9.8766C566.018 8.1366 567.018 7.0066 568.538 7.0066C569.448 7.0066 570.078 7.3866 570.438 8.0566V7.1666H571.338V12.4666C571.338 14.0466 570.358 14.9266 568.908 14.9266C567.128 14.9266 566.468 13.9566 566.308 13.0066H567.248C567.378 13.7266 567.948 14.0966 568.908 14.0966C569.888 14.0966 570.438 13.5866 570.438 12.4666V11.6866C570.098 12.3266 569.478 12.7266 568.538 12.7266ZM568.638 11.8966C569.838 11.8966 570.438 11.1066 570.438 9.8766C570.438 8.6366 569.838 7.8366 568.638 7.8366C567.618 7.8366 566.948 8.5566 566.948 9.8766C566.948 11.1766 567.618 11.8966 568.638 11.8966ZM572.654 7.1666H573.554V8.1366C573.774 7.5566 574.304 7.0066 575.474 7.0066V7.9366C574.284 7.9366 573.554 8.3966 573.554 9.7266V12.7666H572.654V7.1666ZM578.489 7.0066C579.989 7.0066 580.759 7.9966 580.759 9.5666V12.7666H579.849V11.9566C579.549 12.5566 579.019 12.9266 578.159 12.9266C577.059 12.9266 576.199 12.2966 576.199 11.1766C576.199 9.4166 578.139 9.2066 579.839 9.3066C579.779 8.3766 579.369 7.8266 578.489 7.8266C577.549 7.8266 577.049 8.4066 577.049 9.1366H576.089C576.089 8.0366 576.929 7.0066 578.489 7.0066ZM577.149 11.1266C577.149 11.7966 577.569 12.1466 578.369 12.1466C579.289 12.1466 579.849 11.4666 579.849 10.5566V9.9866C578.049 9.8566 577.149 10.3766 577.149 11.1266ZM584.349 12.9266C582.829 12.9266 581.829 11.7066 581.829 9.9766C581.829 8.2366 582.829 7.0066 584.349 7.0066C585.259 7.0066 585.889 7.4466 586.249 8.1466V5.2666H587.149V12.7666H586.249V11.8066C585.909 12.4766 585.289 12.9266 584.349 12.9266ZM584.449 12.0966C585.649 12.0966 586.249 11.2066 586.249 9.9766C586.249 8.7366 585.649 7.8366 584.449 7.8366C583.429 7.8366 582.759 8.6566 582.759 9.9766C582.759 11.2766 583.429 12.0966 584.449 12.0966ZM588.554 7.1666H589.464V12.7666H588.554V7.1666ZM588.484 5.2666H589.534V6.3466H588.484V5.2666ZM596.018 10.9966C595.738 12.1466 594.828 12.9266 593.468 12.9266C591.738 12.9266 590.608 11.7066 590.608 9.9766C590.608 8.2366 591.738 7.0066 593.468 7.0066C594.988 7.0066 596.208 8.2066 596.028 10.2766H591.548C591.658 11.3466 592.308 12.0966 593.468 12.0966C594.368 12.0966 594.858 11.6166 595.058 10.9966H596.018ZM591.578 9.4866H595.148C595.038 8.5066 594.448 7.8366 593.468 7.8366C592.378 7.8366 591.738 8.5066 591.578 9.4866ZM597.146 7.1666H598.046V8.1166C598.296 7.5466 598.856 7.0066 599.936 7.0066C601.016 7.0066 601.826 7.6066 601.826 9.3166V12.7666H600.926V9.4466C600.926 8.4066 600.626 7.7966 599.716 7.7966C598.816 7.7966 598.046 8.6166 598.046 9.9466V12.7666H597.146V7.1666ZM602.677 7.1666H603.617V5.7666H604.517V7.1666H605.627V7.9366H604.517V11.3466C604.517 11.8066 604.737 11.9966 605.137 11.9966H605.787V12.7666H605.127C604.117 12.7666 603.617 12.1966 603.617 11.3466V7.9366H602.677V7.1666ZM607.455 10.9966C607.515 11.7466 608.155 12.1566 608.975 12.1566C609.775 12.1566 610.305 11.8466 610.305 11.1966C610.305 9.8966 606.645 10.9666 606.645 8.7266C606.645 7.8266 607.525 7.0066 608.895 7.0066C610.105 7.0066 611.115 7.7866 611.115 8.9266H610.285C610.235 8.1666 609.625 7.7766 608.855 7.7766C607.985 7.7766 607.535 8.1766 607.535 8.7266C607.535 10.1466 611.205 8.9866 611.205 11.1966C611.205 12.2566 610.335 12.9266 608.925 12.9266C607.605 12.9266 606.615 12.0966 606.575 10.9966H607.455Z" fill="#201C1D"/>
<path d="M821.551 98.2383L724.424 141.567L633.125 94.7439L729.928 51.0156C760.506 66.588 791.619 81.4098 821.551 98.2383Z" fill="url(#paint0_linear_3536_6465)"/>
<path d="M821.535 98.2383C821.586 104.052 821.465 109.896 821.535 115.71C821.589 120.191 822.057 149.559 820.907 151.022C788.66 165.033 756.844 180.926 724.408 193.982V141.567L821.535 98.2383Z" fill="url(#paint1_linear_3536_6465)"/>
<path d="M724.416 141.564V193.978L721.392 193.404L633.109 148.21C631.922 146.613 632.421 120.04 632.468 115.706C632.507 112.195 631.852 96.4589 633.116 94.7402L724.415 141.564L724.416 141.564Z" fill="url(#paint2_linear_3536_6465)"/>
<rect width="478" height="245" transform="translate(0 255)" fill="#E5E5E5"/>
<rect width="15.4643" height="17.5332" transform="translate(0 255)" fill="#FF1E1E"/>
<path d="M9.49512 267.767L7.73512 265.067L5.96512 267.767H4.88512L7.19512 264.247L4.91512 260.767H5.99512L7.73512 263.417L9.46512 260.767H10.5451L8.27512 264.247L10.5751 267.767H9.49512Z" fill="white"/>
<rect width="175.464" height="17.5332" transform="translate(15.4648 255)" fill="#EEEEEE"/>
<path d="M22.4173 260.767H23.6473L26.0573 267.767H25.0673L24.5073 266.067H21.6073L21.0673 267.767H20.0873L22.4173 260.767ZM21.8673 265.257H24.2373L23.0373 261.617L21.8673 265.257ZM26.0438 262.167H27.0238L28.5438 267.017L30.0538 262.167H31.0338L29.1838 267.767H27.8938L26.0438 262.167ZM34.423 267.927C32.693 267.927 31.563 266.707 31.563 264.977C31.563 263.237 32.693 262.007 34.423 262.007C36.153 262.007 37.283 263.237 37.283 264.977C37.283 266.707 36.153 267.927 34.423 267.927ZM34.423 267.097C35.583 267.097 36.343 266.277 36.343 264.977C36.343 263.657 35.583 262.837 34.423 262.837C33.263 262.837 32.493 263.657 32.493 264.977C32.493 266.277 33.263 267.097 34.423 267.097ZM38.4255 262.167H39.3355V267.767H38.4255V262.167ZM38.3555 260.267H39.4055V261.347H38.3555V260.267ZM43.0088 267.927C41.4888 267.927 40.4888 266.707 40.4888 264.977C40.4888 263.237 41.4888 262.007 43.0088 262.007C43.9188 262.007 44.5488 262.447 44.9088 263.147V260.267H45.8088V267.767H44.9088V266.807C44.5688 267.477 43.9488 267.927 43.0088 267.927ZM43.1088 267.097C44.3088 267.097 44.9088 266.207 44.9088 264.977C44.9088 263.737 44.3088 262.837 43.1088 262.837C42.0888 262.837 41.4188 263.657 41.4188 264.977C41.4188 266.277 42.0888 267.097 43.1088 267.097ZM54.7874 265.417C54.7074 266.867 53.7374 267.927 52.1574 267.927C50.4274 267.927 49.2974 266.707 49.2974 264.977C49.2974 263.237 50.4274 262.007 52.1574 262.007C53.6774 262.007 54.6874 263.137 54.7674 264.367H53.8174C53.7474 263.607 53.2474 262.837 52.1574 262.837C50.8974 262.837 50.2274 263.737 50.2274 264.977C50.2274 266.207 50.8974 267.087 52.1574 267.087C53.3274 267.087 53.7874 266.277 53.8574 265.417H54.7874ZM55.8946 260.267H56.7946V267.767H55.8946V260.267ZM60.4107 262.007C61.9107 262.007 62.6807 262.997 62.6807 264.567V267.767H61.7707V266.957C61.4707 267.557 60.9407 267.927 60.0807 267.927C58.9807 267.927 58.1207 267.297 58.1207 266.177C58.1207 264.417 60.0607 264.207 61.7607 264.307C61.7007 263.377 61.2907 262.827 60.4107 262.827C59.4707 262.827 58.9707 263.407 58.9707 264.137H58.0107C58.0107 263.037 58.8507 262.007 60.4107 262.007ZM59.0707 266.127C59.0707 266.797 59.4907 267.147 60.2907 267.147C61.2107 267.147 61.7707 266.467 61.7707 265.557V264.987C59.9707 264.857 59.0707 265.377 59.0707 266.127ZM64.6305 265.997C64.6905 266.747 65.3305 267.157 66.1505 267.157C66.9505 267.157 67.4805 266.847 67.4805 266.197C67.4805 264.897 63.8205 265.967 63.8205 263.727C63.8205 262.827 64.7005 262.007 66.0705 262.007C67.2805 262.007 68.2905 262.787 68.2905 263.927H67.4605C67.4105 263.167 66.8005 262.777 66.0305 262.777C65.1605 262.777 64.7105 263.177 64.7105 263.727C64.7105 265.147 68.3805 263.987 68.3805 266.197C68.3805 267.257 67.5105 267.927 66.1005 267.927C64.7805 267.927 63.7905 267.097 63.7505 265.997H64.6305ZM69.547 260.267H70.447V263.127C70.697 262.557 71.257 262.007 72.337 262.007C73.417 262.007 74.227 262.607 74.227 264.317V267.767H73.327V264.447C73.327 263.407 73.027 262.797 72.117 262.797C71.217 262.797 70.447 263.617 70.447 264.947V267.767H69.547V260.267ZM75.5349 262.167H76.4449V267.767H75.5349V262.167ZM75.4649 260.267H76.5149V261.347H75.4649V260.267ZM77.8375 262.167H78.7375V263.117C78.9875 262.547 79.5475 262.007 80.6275 262.007C81.7075 262.007 82.5175 262.607 82.5175 264.317V267.767H81.6175V264.447C81.6175 263.407 81.3175 262.797 80.4075 262.797C79.5075 262.797 78.7375 263.617 78.7375 264.947V267.767H77.8375V262.167ZM86.1436 267.727C84.6236 267.727 83.6236 266.607 83.6236 264.877C83.6236 263.137 84.6236 262.007 86.1436 262.007C87.0536 262.007 87.6836 262.387 88.0436 263.057V262.167H88.9436V267.467C88.9436 269.047 87.9636 269.927 86.5136 269.927C84.7336 269.927 84.0736 268.957 83.9136 268.007H84.8536C84.9836 268.727 85.5536 269.097 86.5136 269.097C87.4936 269.097 88.0436 268.587 88.0436 267.467V266.687C87.7036 267.327 87.0836 267.727 86.1436 267.727ZM86.2436 266.897C87.4436 266.897 88.0436 266.107 88.0436 264.877C88.0436 263.637 87.4436 262.837 86.2436 262.837C85.2236 262.837 84.5536 263.557 84.5536 264.877C84.5536 266.177 85.2236 266.897 86.2436 266.897ZM97.9027 265.417C97.8227 266.867 96.8527 267.927 95.2727 267.927C93.5427 267.927 92.4127 266.707 92.4127 264.977C92.4127 263.237 93.5427 262.007 95.2727 262.007C96.7927 262.007 97.8027 263.137 97.8827 264.367H96.9327C96.8627 263.607 96.3627 262.837 95.2727 262.837C94.0127 262.837 93.3427 263.737 93.3427 264.977C93.3427 266.207 94.0127 267.087 95.2727 267.087C96.4427 267.087 96.9027 266.277 96.9727 265.417H97.9027ZM101.62 267.927C99.8903 267.927 98.7603 266.707 98.7603 264.977C98.7603 263.237 99.8903 262.007 101.62 262.007C103.35 262.007 104.48 263.237 104.48 264.977C104.48 266.707 103.35 267.927 101.62 267.927ZM101.62 267.097C102.78 267.097 103.54 266.277 103.54 264.977C103.54 263.657 102.78 262.837 101.62 262.837C100.46 262.837 99.6903 263.657 99.6903 264.977C99.6903 266.277 100.46 267.097 101.62 267.097ZM105.582 260.267H106.482V267.767H105.582V260.267ZM110.439 267.927C108.709 267.927 107.579 266.707 107.579 264.977C107.579 263.237 108.709 262.007 110.439 262.007C112.169 262.007 113.299 263.237 113.299 264.977C113.299 266.707 112.169 267.927 110.439 267.927ZM110.439 267.097C111.599 267.097 112.359 266.277 112.359 264.977C112.359 263.657 111.599 262.837 110.439 262.837C109.279 262.837 108.509 263.657 108.509 264.977C108.509 266.277 109.279 267.097 110.439 267.097ZM114.41 262.167H115.31V263.137C115.53 262.557 116.06 262.007 117.23 262.007V262.937C116.04 262.937 115.31 263.397 115.31 264.727V267.767H114.41V262.167ZM125.862 265.417C125.782 266.867 124.812 267.927 123.232 267.927C121.502 267.927 120.372 266.707 120.372 264.977C120.372 263.237 121.502 262.007 123.232 262.007C124.752 262.007 125.762 263.137 125.842 264.367H124.892C124.822 263.607 124.322 262.837 123.232 262.837C121.972 262.837 121.302 263.737 121.302 264.977C121.302 266.207 121.972 267.087 123.232 267.087C124.402 267.087 124.862 266.277 124.932 265.417H125.862ZM129.579 267.927C127.849 267.927 126.719 266.707 126.719 264.977C126.719 263.237 127.849 262.007 129.579 262.007C131.309 262.007 132.439 263.237 132.439 264.977C132.439 266.707 131.309 267.927 129.579 267.927ZM129.579 267.097C130.739 267.097 131.499 266.277 131.499 264.977C131.499 263.657 130.739 262.837 129.579 262.837C128.419 262.837 127.649 263.657 127.649 264.977C127.649 266.277 128.419 267.097 129.579 267.097ZM133.55 262.167H134.45V263.097C134.68 262.537 135.18 262.007 136.11 262.007C136.92 262.007 137.51 262.357 137.75 263.267C137.96 262.657 138.49 262.007 139.52 262.007C140.57 262.007 141.26 262.607 141.26 264.317V267.767H140.36V264.447C140.36 263.407 140.19 262.797 139.3 262.797C138.5 262.797 137.86 263.617 137.86 264.947V267.767H136.95V264.447C136.95 263.407 136.78 262.797 135.9 262.797C135.1 262.797 134.45 263.617 134.45 264.947V267.767H133.55V262.167ZM145.365 267.927C144.425 267.927 143.805 267.487 143.465 266.817V267.767H142.565V260.267H143.465V263.127C143.825 262.427 144.455 262.007 145.365 262.007C146.885 262.007 147.885 263.237 147.885 264.977C147.885 266.707 146.885 267.927 145.365 267.927ZM145.265 267.097C146.285 267.097 146.955 266.277 146.955 264.977C146.955 263.657 146.285 262.837 145.265 262.837C144.075 262.837 143.465 263.737 143.465 264.977C143.465 266.207 144.075 267.097 145.265 267.097ZM149.031 262.167H149.941V267.767H149.031V262.167ZM148.961 260.267H150.011V261.347H148.961V260.267ZM151.334 262.167H152.234V263.117C152.484 262.547 153.044 262.007 154.124 262.007C155.204 262.007 156.014 262.607 156.014 264.317V267.767H155.114V264.447C155.114 263.407 154.814 262.797 153.904 262.797C153.004 262.797 152.234 263.617 152.234 264.947V267.767H151.334V262.167ZM159.581 262.007C161.081 262.007 161.851 262.997 161.851 264.567V267.767H160.941V266.957C160.641 267.557 160.111 267.927 159.251 267.927C158.151 267.927 157.291 267.297 157.291 266.177C157.291 264.417 159.231 264.207 160.931 264.307C160.871 263.377 160.461 262.827 159.581 262.827C158.641 262.827 158.141 263.407 158.141 264.137H157.181C157.181 263.037 158.021 262.007 159.581 262.007ZM158.241 266.127C158.241 266.797 158.661 267.147 159.461 267.147C160.381 267.147 160.941 266.467 160.941 265.557V264.987C159.141 264.857 158.241 265.377 158.241 266.127ZM162.636 262.167H163.576V260.767H164.476V262.167H165.586V262.937H164.476V266.347C164.476 266.807 164.696 266.997 165.096 266.997H165.746V267.767H165.086C164.076 267.767 163.576 267.197 163.576 266.347V262.937H162.636V262.167ZM166.912 262.167H167.822V267.767H166.912V262.167ZM166.842 260.267H167.892V261.347H166.842V260.267ZM171.825 267.927C170.095 267.927 168.965 266.707 168.965 264.977C168.965 263.237 170.095 262.007 171.825 262.007C173.555 262.007 174.685 263.237 174.685 264.977C174.685 266.707 173.555 267.927 171.825 267.927ZM171.825 267.097C172.985 267.097 173.745 266.277 173.745 264.977C173.745 263.657 172.985 262.837 171.825 262.837C170.665 262.837 169.895 263.657 169.895 264.977C169.895 266.277 170.665 267.097 171.825 267.097ZM175.777 262.167H176.677V263.117C176.927 262.547 177.487 262.007 178.567 262.007C179.647 262.007 180.457 262.607 180.457 264.317V267.767H179.557V264.447C179.557 263.407 179.257 262.797 178.347 262.797C177.447 262.797 176.677 263.617 176.677 264.947V267.767H175.777V262.167ZM182.424 265.997C182.484 266.747 183.124 267.157 183.944 267.157C184.744 267.157 185.274 266.847 185.274 266.197C185.274 264.897 181.614 265.967 181.614 263.727C181.614 262.827 182.494 262.007 183.864 262.007C185.074 262.007 186.084 262.787 186.084 263.927H185.254C185.204 263.167 184.594 262.777 183.824 262.777C182.954 262.777 182.504 263.177 182.504 263.727C182.504 265.147 186.174 263.987 186.174 266.197C186.174 267.257 185.304 267.927 183.894 267.927C182.574 267.927 181.584 267.097 181.544 265.997H182.424Z" fill="#201C1D"/>
<path d="M333.551 353.238L236.424 396.567L145.125 349.744L241.928 306.016C272.506 321.588 303.619 336.41 333.551 353.238Z" fill="#390A91"/>
<path d="M333.535 353.238C333.586 359.052 333.465 364.896 333.535 370.71C333.589 375.191 334.057 404.559 332.907 406.022C300.66 420.033 268.844 435.926 236.408 448.982V396.567L333.535 353.238Z" fill="#263603"/>
<path d="M236.416 396.564V448.978L233.392 448.404L145.109 403.21C143.922 401.613 144.421 375.04 144.468 370.706C144.507 367.195 143.852 351.459 145.116 349.74L236.415 396.564L236.416 396.564Z" fill="#6E1527"/>
<rect width="478" height="245" transform="translate(488 255)" fill="#86AF25"/>
<rect width="15.4643" height="17.5332" transform="translate(488 255)" fill="#FF1E1E"/>
<path d="M497.495 267.767L495.735 265.067L493.965 267.767H492.885L495.195 264.247L492.915 260.767H493.995L495.735 263.417L497.465 260.767H498.545L496.275 264.247L498.575 267.767H497.495Z" fill="white"/>
<rect width="181.464" height="17.5332" transform="translate(503.465 255)" fill="#EEEEEE"/>
<path d="M510.417 260.767H511.647L514.057 267.767H513.067L512.507 266.067H509.607L509.067 267.767H508.087L510.417 260.767ZM509.867 265.257H512.237L511.037 261.617L509.867 265.257ZM514.044 262.167H515.024L516.544 267.017L518.054 262.167H519.034L517.184 267.767H515.894L514.044 262.167ZM522.423 267.927C520.693 267.927 519.563 266.707 519.563 264.977C519.563 263.237 520.693 262.007 522.423 262.007C524.153 262.007 525.283 263.237 525.283 264.977C525.283 266.707 524.153 267.927 522.423 267.927ZM522.423 267.097C523.583 267.097 524.343 266.277 524.343 264.977C524.343 263.657 523.583 262.837 522.423 262.837C521.263 262.837 520.493 263.657 520.493 264.977C520.493 266.277 521.263 267.097 522.423 267.097ZM526.426 262.167H527.336V267.767H526.426V262.167ZM526.356 260.267H527.406V261.347H526.356V260.267ZM531.009 267.927C529.489 267.927 528.489 266.707 528.489 264.977C528.489 263.237 529.489 262.007 531.009 262.007C531.919 262.007 532.549 262.447 532.909 263.147V260.267H533.809V267.767H532.909V266.807C532.569 267.477 531.949 267.927 531.009 267.927ZM531.109 267.097C532.309 267.097 532.909 266.207 532.909 264.977C532.909 263.737 532.309 262.837 531.109 262.837C530.089 262.837 529.419 263.657 529.419 264.977C529.419 266.277 530.089 267.097 531.109 267.097ZM540.327 267.927C539.387 267.927 538.767 267.487 538.427 266.817V267.767H537.527V260.267H538.427V263.127C538.787 262.427 539.417 262.007 540.327 262.007C541.847 262.007 542.847 263.237 542.847 264.977C542.847 266.707 541.847 267.927 540.327 267.927ZM540.227 267.097C541.247 267.097 541.917 266.277 541.917 264.977C541.917 263.657 541.247 262.837 540.227 262.837C539.037 262.837 538.427 263.737 538.427 264.977C538.427 266.207 539.037 267.097 540.227 267.097ZM543.953 262.167H544.853V263.137C545.073 262.557 545.603 262.007 546.773 262.007V262.937C545.583 262.937 544.853 263.397 544.853 264.727V267.767H543.953V262.167ZM547.783 262.167H548.693V267.767H547.783V262.167ZM547.713 260.267H548.763V261.347H547.713V260.267ZM552.356 267.727C550.836 267.727 549.836 266.607 549.836 264.877C549.836 263.137 550.836 262.007 552.356 262.007C553.266 262.007 553.896 262.387 554.256 263.057V262.167H555.156V267.467C555.156 269.047 554.176 269.927 552.726 269.927C550.946 269.927 550.286 268.957 550.126 268.007H551.066C551.196 268.727 551.766 269.097 552.726 269.097C553.706 269.097 554.256 268.587 554.256 267.467V266.687C553.916 267.327 553.296 267.727 552.356 267.727ZM552.456 266.897C553.656 266.897 554.256 266.107 554.256 264.877C554.256 263.637 553.656 262.837 552.456 262.837C551.436 262.837 550.766 263.557 550.766 264.877C550.766 266.177 551.436 266.897 552.456 266.897ZM556.473 260.267H557.373V263.127C557.623 262.557 558.183 262.007 559.263 262.007C560.343 262.007 561.153 262.607 561.153 264.317V267.767H560.253V264.447C560.253 263.407 559.953 262.797 559.043 262.797C558.143 262.797 557.373 263.617 557.373 264.947V267.767H556.473V260.267ZM562.004 262.167H562.944V260.767H563.844V262.167H564.954V262.937H563.844V266.347C563.844 266.807 564.064 266.997 564.464 266.997H565.114V267.767H564.454C563.444 267.767 562.944 267.197 562.944 266.347V262.937H562.004V262.167ZM566.268 260.267H567.168V267.767H566.268V260.267ZM568.644 269.767V268.997H569.314C570.074 268.997 570.214 268.457 570.454 267.767H570.064L568.214 262.167H569.194L570.704 266.987L572.224 262.167H573.204L571.354 267.767C570.914 269.147 570.544 269.767 569.324 269.767H568.644ZM581.889 265.417C581.809 266.867 580.839 267.927 579.259 267.927C577.529 267.927 576.399 266.707 576.399 264.977C576.399 263.237 577.529 262.007 579.259 262.007C580.779 262.007 581.789 263.137 581.869 264.367H580.919C580.849 263.607 580.349 262.837 579.259 262.837C577.999 262.837 577.329 263.737 577.329 264.977C577.329 266.207 577.999 267.087 579.259 267.087C580.429 267.087 580.889 266.277 580.959 265.417H581.889ZM585.607 267.927C583.877 267.927 582.747 266.707 582.747 264.977C582.747 263.237 583.877 262.007 585.607 262.007C587.337 262.007 588.467 263.237 588.467 264.977C588.467 266.707 587.337 267.927 585.607 267.927ZM585.607 267.097C586.767 267.097 587.527 266.277 587.527 264.977C587.527 263.657 586.767 262.837 585.607 262.837C584.447 262.837 583.677 263.657 583.677 264.977C583.677 266.277 584.447 267.097 585.607 267.097ZM589.568 260.267H590.468V267.767H589.568V260.267ZM594.425 267.927C592.695 267.927 591.565 266.707 591.565 264.977C591.565 263.237 592.695 262.007 594.425 262.007C596.155 262.007 597.285 263.237 597.285 264.977C597.285 266.707 596.155 267.927 594.425 267.927ZM594.425 267.097C595.585 267.097 596.345 266.277 596.345 264.977C596.345 263.657 595.585 262.837 594.425 262.837C593.265 262.837 592.495 263.657 592.495 264.977C592.495 266.277 593.265 267.097 594.425 267.097ZM598.396 262.167H599.296V263.137C599.516 262.557 600.046 262.007 601.216 262.007V262.937C600.026 262.937 599.296 263.397 599.296 264.727V267.767H598.396V262.167ZM607.014 265.997C606.734 267.147 605.824 267.927 604.464 267.927C602.734 267.927 601.604 266.707 601.604 264.977C601.604 263.237 602.734 262.007 604.464 262.007C605.984 262.007 607.204 263.207 607.024 265.277H602.544C602.654 266.347 603.304 267.097 604.464 267.097C605.364 267.097 605.854 266.617 606.054 265.997H607.014ZM602.574 264.487H606.144C606.034 263.507 605.444 262.837 604.464 262.837C603.374 262.837 602.734 263.507 602.574 264.487ZM610.433 267.927C608.913 267.927 607.913 266.707 607.913 264.977C607.913 263.237 608.913 262.007 610.433 262.007C611.343 262.007 611.973 262.447 612.333 263.147V260.267H613.233V267.767H612.333V266.807C611.993 267.477 611.373 267.927 610.433 267.927ZM610.533 267.097C611.733 267.097 612.333 266.207 612.333 264.977C612.333 263.737 611.733 262.837 610.533 262.837C609.513 262.837 608.843 263.657 608.843 264.977C608.843 266.277 609.513 267.097 610.533 267.097ZM619.751 267.927C618.811 267.927 618.191 267.487 617.851 266.817V267.767H616.951V260.267H617.851V263.127C618.211 262.427 618.841 262.007 619.751 262.007C621.271 262.007 622.271 263.237 622.271 264.977C622.271 266.707 621.271 267.927 619.751 267.927ZM619.651 267.097C620.671 267.097 621.341 266.277 621.341 264.977C621.341 263.657 620.671 262.837 619.651 262.837C618.461 262.837 617.851 263.737 617.851 264.977C617.851 266.207 618.461 267.097 619.651 267.097ZM625.657 262.007C627.157 262.007 627.927 262.997 627.927 264.567V267.767H627.017V266.957C626.717 267.557 626.187 267.927 625.327 267.927C624.227 267.927 623.367 267.297 623.367 266.177C623.367 264.417 625.307 264.207 627.007 264.307C626.947 263.377 626.537 262.827 625.657 262.827C624.717 262.827 624.217 263.407 624.217 264.137H623.257C623.257 263.037 624.097 262.007 625.657 262.007ZM624.317 266.127C624.317 266.797 624.737 267.147 625.537 267.147C626.457 267.147 627.017 266.467 627.017 265.557V264.987C625.217 264.857 624.317 265.377 624.317 266.127ZM634.487 265.417C634.407 266.867 633.437 267.927 631.857 267.927C630.127 267.927 628.997 266.707 628.997 264.977C628.997 263.237 630.127 262.007 631.857 262.007C633.377 262.007 634.387 263.137 634.467 264.367H633.517C633.447 263.607 632.947 262.837 631.857 262.837C630.597 262.837 629.927 263.737 629.927 264.977C629.927 266.207 630.597 267.087 631.857 267.087C633.027 267.087 633.487 266.277 633.557 265.417H634.487ZM635.594 260.267H636.494V264.767L638.684 262.167H639.794L637.934 264.377L640.074 267.767H639.014L637.354 265.067L636.494 266.077V267.767H635.594V260.267ZM642.923 267.727C641.403 267.727 640.403 266.607 640.403 264.877C640.403 263.137 641.403 262.007 642.923 262.007C643.833 262.007 644.463 262.387 644.823 263.057V262.167H645.723V267.467C645.723 269.047 644.743 269.927 643.293 269.927C641.513 269.927 640.853 268.957 640.693 268.007H641.633C641.763 268.727 642.333 269.097 643.293 269.097C644.273 269.097 644.823 268.587 644.823 267.467V266.687C644.483 267.327 643.863 267.727 642.923 267.727ZM643.023 266.897C644.223 266.897 644.823 266.107 644.823 264.877C644.823 263.637 644.223 262.837 643.023 262.837C642.003 262.837 641.333 263.557 641.333 264.877C641.333 266.177 642.003 266.897 643.023 266.897ZM647.039 262.167H647.939V263.137C648.159 262.557 648.689 262.007 649.859 262.007V262.937C648.669 262.937 647.939 263.397 647.939 264.727V267.767H647.039V262.167ZM653.107 267.927C651.377 267.927 650.247 266.707 650.247 264.977C650.247 263.237 651.377 262.007 653.107 262.007C654.837 262.007 655.967 263.237 655.967 264.977C655.967 266.707 654.837 267.927 653.107 267.927ZM653.107 267.097C654.267 267.097 655.027 266.277 655.027 264.977C655.027 263.657 654.267 262.837 653.107 262.837C651.947 262.837 651.177 263.657 651.177 264.977C651.177 266.277 651.947 267.097 653.107 267.097ZM661.718 267.767H660.818V266.807C660.568 267.377 660.008 267.927 658.938 267.927C657.858 267.927 657.038 267.327 657.038 265.617V262.167H657.938V265.487C657.938 266.517 658.238 267.137 659.148 267.137C660.048 267.137 660.818 266.307 660.818 264.977V262.167H661.718V267.767ZM663.035 262.167H663.935V263.117C664.185 262.547 664.745 262.007 665.825 262.007C666.905 262.007 667.715 262.607 667.715 264.317V267.767H666.815V264.447C666.815 263.407 666.515 262.797 665.605 262.797C664.705 262.797 663.935 263.617 663.935 264.947V267.767H663.035V262.167ZM671.321 267.927C669.801 267.927 668.801 266.707 668.801 264.977C668.801 263.237 669.801 262.007 671.321 262.007C672.231 262.007 672.861 262.447 673.221 263.147V260.267H674.121V267.767H673.221V266.807C672.881 267.477 672.261 267.927 671.321 267.927ZM671.421 267.097C672.621 267.097 673.221 266.207 673.221 264.977C673.221 263.737 672.621 262.837 671.421 262.837C670.401 262.837 669.731 263.657 669.731 264.977C669.731 266.277 670.401 267.097 671.421 267.097ZM676.156 265.997C676.216 266.747 676.856 267.157 677.676 267.157C678.476 267.157 679.006 266.847 679.006 266.197C679.006 264.897 675.346 265.967 675.346 263.727C675.346 262.827 676.226 262.007 677.596 262.007C678.806 262.007 679.816 262.787 679.816 263.927H678.986C678.936 263.167 678.326 262.777 677.556 262.777C676.686 262.777 676.236 263.177 676.236 263.727C676.236 265.147 679.906 263.987 679.906 266.197C679.906 267.257 679.036 267.927 677.626 267.927C676.306 267.927 675.316 267.097 675.276 265.997H676.156Z" fill="#201C1D"/>
<path d="M821.551 353.238L724.424 396.567L633.125 349.744L729.928 306.016C760.506 321.588 791.619 336.41 821.551 353.238Z" fill="#FF5E00"/>
<path d="M821.535 353.238C821.586 359.052 821.465 364.896 821.535 370.71C821.589 375.191 822.057 404.559 820.907 406.022C788.66 420.033 756.844 435.926 724.408 448.982V396.567L821.535 353.238Z" fill="#FFCC00"/>
<path d="M724.416 396.564V448.978L721.392 448.404L633.109 403.21C631.922 401.613 632.421 375.04 632.468 370.706C632.507 367.195 631.852 351.459 633.116 349.74L724.415 396.564L724.416 396.564Z" fill="#F39FFF"/>
</g>
<defs>
<linearGradient id="paint0_linear_3536_6465" x1="727.338" y1="51.0156" x2="727.338" y2="141.567" gradientUnits="userSpaceOnUse">
<stop stop-color="#FF5F00"/>
<stop offset="1" stop-color="#993900"/>
</linearGradient>
<linearGradient id="paint1_linear_3536_6465" x1="773.041" y1="98.2383" x2="773.041" y2="193.982" gradientUnits="userSpaceOnUse">
<stop stop-color="#FF5F00"/>
<stop offset="1" stop-color="#993900"/>
</linearGradient>
<linearGradient id="paint2_linear_3536_6465" x1="709.546" y1="118.713" x2="658.748" y2="165.78" gradientUnits="userSpaceOnUse">
<stop stop-color="#FF5F00"/>
<stop offset="1" stop-color="#993900"/>
</linearGradient>
<clipPath id="clip0_3536_6465">
<rect width="966" height="500" fill="white"/>
</clipPath>
</defs>
</svg>
