<svg width="966" height="500" viewBox="0 0 966 500" fill="none" xmlns="http://www.w3.org/2000/svg">
<g clip-path="url(#clip0_3536_6335)">
<rect width="966" height="500" fill="#E5E5E5"/>
<rect width="966" height="500" transform="translate(0 -0.161133)" fill="#E5E5E5"/>
<g clip-path="url(#clip1_3536_6335)">
<rect width="235.851" height="264.942" transform="translate(94 117.368)" fill="#6E1527"/>
<path d="M119.339 361.995L119.367 362.01L119.36 362.017L119.339 361.997C118.719 362.807 118.199 363.698 117.799 364.651C117.793 364.666 117.787 364.679 117.781 364.694C117.395 365.624 117.12 366.612 116.977 367.644C116.975 367.65 116.975 367.658 116.975 367.663C116.898 368.211 116.859 368.77 116.859 369.339C116.859 369.822 116.888 370.299 116.943 370.768H105.428V367.644H115.427C115.446 367.516 115.468 367.39 115.491 367.262L105.858 364.659L106.659 361.641L116.412 364.277C116.457 364.176 116.503 364.076 116.55 363.976L107.798 358.881L109.346 356.176L118.228 361.347C118.298 361.262 118.369 361.177 118.443 361.093L111.165 353.756L113.356 351.546L120.751 359.004L121.532 359.792C120.71 360.427 119.972 361.168 119.339 361.995Z" fill="#EEEEEE"/>
<g clip-path="url(#clip2_3536_6335)">
<path d="M160.659 270.836C160.61 272.368 160.47 282.707 160.924 283.196L309.665 353.455L311.621 354.025L471.02 287.379C471.572 287.178 471.55 286.886 471.635 286.4C472.115 283.65 471.672 277.167 471.619 274.026L510.423 292.364L310.558 376.085C248.092 347.182 186.403 316.509 123.805 287.89C123.34 287.677 122.278 287.463 122.387 286.783L160.659 270.836Z" fill="#FF5E00"/>
<path d="M510.422 292.365L510.255 312.327L310.822 396.019L310.557 376.085L510.422 292.365Z" fill="#FFCC00"/>
<path d="M122.387 286.784C122.279 287.463 123.341 287.678 123.806 287.89C186.403 316.51 248.093 347.182 310.558 376.085L310.824 396.019L310.307 396.183L121.989 306.982C121.813 306.699 121.883 306.374 121.839 306.069C121.43 303.179 121.42 290.565 121.842 287.699C121.905 287.273 121.875 286.925 122.387 286.784Z" fill="#F39FFF"/>
<path d="M199.207 246.917L199.905 259.172L312.695 312.299L432.126 262.296C432.697 262.029 432.741 261.707 432.839 261.149C433.324 258.394 432.874 251.927 432.827 248.778L471.364 267.116L311.632 334.093L161.201 262.864L199.207 246.917Z" fill="#FF5E00"/>
<path d="M471.627 274.027C471.68 277.168 472.123 283.651 471.643 286.401C471.558 286.887 471.58 287.178 471.028 287.38L311.629 354.026V334.092L471.362 267.116C471.903 267.946 471.605 272.666 471.627 274.027Z" fill="#FFCC00"/>
<path d="M311.63 334.092V354.025L309.675 353.455L160.933 283.196C160.48 282.708 160.62 272.368 160.668 270.837C160.703 269.756 160.958 263.188 161.2 262.863L311.63 334.092Z" fill="#F39FFF"/>
<path d="M238.542 222.73C238.52 224.315 238.331 234.576 238.807 235.089L314.023 270.304L393.598 237.114C393.838 232.605 393.824 228.044 393.756 223.527L432.826 242.132L313.752 291.973L312.694 292.098C275.112 274.356 237.328 256.886 200.004 238.677L238.542 222.73H238.542Z" fill="#FF5E00"/>
<path d="M432.827 242.132C432.852 244.343 432.794 246.566 432.827 248.776C432.875 251.926 433.325 258.392 432.84 261.148C432.742 261.706 432.698 262.028 432.126 262.295L312.695 312.297V292.098L313.754 291.973L432.827 242.132Z" fill="#FFCC00"/>
<path d="M312.694 292.098V312.297L199.905 259.17L199.207 246.916L199.757 246.254L200.004 238.677C237.328 256.886 275.112 274.356 312.694 292.098V292.098Z" fill="#F39FFF"/>
<path d="M277.338 198.544C277.319 200.193 277.114 210.298 277.601 210.906L313.838 228.093L315.079 228.312C328.393 223.347 341.452 217.302 354.688 211.974C355.16 211.417 354.968 200.249 354.946 198.545L393.749 216.883L314.016 250.371L238.801 214.757L277.339 198.545L277.338 198.544Z" fill="#FF5E00"/>
<path d="M393.751 223.528C393.819 228.044 393.833 232.605 393.593 237.114L314.018 270.305V250.371L393.751 216.883C393.776 219.094 393.718 221.317 393.751 223.528Z" fill="#FFCC00"/>
<path d="M314.015 250.372V270.305L238.799 235.09C238.323 234.577 238.512 224.315 238.534 222.731C238.554 221.306 238.262 215.54 238.8 214.757L314.015 250.372Z" fill="#F39FFF"/>
<path d="M354.945 191.901L315.078 208.379L277.604 190.572L317.337 173.942C329.888 179.864 342.659 185.501 354.945 191.901Z" fill="#FF5E00"/>
<path d="M354.939 191.901C354.96 194.112 354.91 196.335 354.939 198.546C354.961 200.25 355.153 211.419 354.681 211.975C341.445 217.304 328.386 223.348 315.072 228.313V208.38L354.939 191.901Z" fill="#FFCC00"/>
<path d="M315.075 208.378V228.311L313.834 228.093L277.598 210.906C277.11 210.298 277.315 200.192 277.335 198.544C277.35 197.209 277.081 191.224 277.6 190.571L315.075 208.378L315.075 208.378Z" fill="#F39FFF"/>
</g>
<rect x="104" y="155.095" width="77.392" height="36.9692" fill="#EEEEEE"/>
<rect x="104" y="127.368" width="102.039" height="36.9692" fill="#EEEEEE"/>
<rect x="104" y="182.621" width="112.177" height="36.9692" fill="#EEEEEE"/>
<path d="M113.692 153.255V136.544H119.306C123.312 136.544 126.554 137.704 126.554 141.815C126.554 143.212 125.816 144.794 124.34 145.505C126.159 146.112 127.503 147.614 127.503 149.696C127.503 153.808 124.261 154.994 120.255 154.994H116.591V153.255H113.692ZM119.306 139.074H116.591V144.425H119.359C121.968 144.425 123.523 143.871 123.523 141.763C123.523 139.68 122.1 139.074 119.306 139.074ZM120.308 146.955H116.591V152.464H120.255C122.891 152.464 124.498 151.884 124.498 149.696C124.498 147.64 122.891 146.955 120.308 146.955ZM139.528 147.588V140.234H142.375V154.994H139.528V152.543C138.896 154.019 137.473 155.416 134.652 155.416C131.806 155.416 129.697 153.834 129.697 149.327V140.234H132.517V148.985C132.517 151.383 133.124 152.938 135.39 152.938C137.499 152.938 139.528 151.093 139.528 147.588ZM144.5 135.094L147.663 134.383L148.374 137.598L145.212 138.31L144.5 135.094ZM145.343 140.234H148.19V154.994H145.343V140.234ZM151.038 135.226H153.884V154.994H151.038V135.226ZM162.659 155.416C158.6 155.416 156.017 152.2 156.017 147.64C156.017 143.054 158.6 139.812 162.659 139.812C164.926 139.812 166.481 140.814 167.404 142.501V135.226H170.25V154.994H167.404V152.754C166.534 154.362 165.005 155.416 162.659 155.416ZM163.055 152.833C165.954 152.833 167.404 150.619 167.404 147.64C167.404 144.636 165.954 142.395 163.055 142.395C160.498 142.395 158.943 144.504 158.943 147.64C158.943 150.751 160.498 152.833 163.055 152.833ZM178.322 135.094L181.485 134.383L182.196 137.598L179.034 138.31L178.322 135.094ZM179.165 140.234H182.012V154.994H179.165V140.234ZM186.362 154.994V142.659H184.148V140.234H186.362V136.544H189.209V140.234H192.187V142.659H189.209V152.569H192.609V154.994H186.362ZM194.064 151.752H197.253V154.994H194.064V151.752ZM116.591 172.952H125.21V175.509H116.591V182.994H113.692V166.31H116.591V164.544H126.264V167.101H116.591V172.952ZM128.001 163.094L131.164 162.383L131.875 165.598L128.712 166.31L128.001 163.094ZM128.844 168.234H131.691V182.994H128.844V168.234ZM133.751 168.234H137.046L140.05 172.978L143.082 168.234H146.376L141.711 175.561L146.455 182.994H143.161L140.05 178.144L136.967 182.994H133.672L138.416 175.561L133.751 168.234ZM153.792 163.094L156.955 162.383L157.666 165.598L154.504 166.31L153.792 163.094ZM154.635 168.234H157.482V182.994H154.635V168.234ZM161.832 182.994V170.659H159.618V168.234H161.832V164.544H164.679V168.234H167.657V170.659H164.679V180.569H168.079V182.994H161.832ZM169.534 179.752H172.723V182.994H169.534V179.752ZM113.692 209.255V192.544H119.306C123.312 192.544 126.554 193.704 126.554 197.815C126.554 199.212 125.816 200.794 124.34 201.505C126.159 202.112 127.503 203.614 127.503 205.696C127.503 209.808 124.261 210.994 120.255 210.994H116.591V209.255H113.692ZM119.306 195.074H116.591V200.425H119.359C121.968 200.425 123.523 199.871 123.523 197.763C123.523 195.68 122.1 195.074 119.306 195.074ZM120.308 202.955H116.591V208.464H120.255C122.891 208.464 124.498 207.884 124.498 205.696C124.498 203.64 122.891 202.955 120.308 202.955ZM132.596 203.245V210.994H129.75V196.234H132.596V198.712C133.15 197.209 134.494 195.812 137.525 195.812V198.659C134.389 198.659 132.596 199.739 132.596 203.245ZM140.953 204.563V202.823H137.948C138.317 198.448 141.401 195.812 145.46 195.812C149.466 195.812 152.787 199.001 152.207 204.563H140.953ZM145.46 198.395C143.087 198.395 141.374 199.792 141.005 202.164H149.413C149.176 200.003 147.832 198.395 145.46 198.395ZM145.46 211.416C141.216 211.416 138.369 208.622 137.974 204.563H140.953C141.216 207.067 142.692 208.833 145.46 208.833C147.516 208.833 148.702 207.726 149.202 206.303H152.207C151.496 209.334 149.044 211.416 145.46 211.416ZM153.99 201.69C153.99 198.685 156.283 195.812 160.447 195.812C164.243 195.812 166.272 198.105 166.536 201.822H163.716C163.584 199.687 162.661 198.422 160.447 198.422C157.917 198.422 156.995 199.95 156.995 201.69H153.99ZM159.446 211.416C156.546 211.416 154.359 209.755 154.359 206.803C154.359 202.191 159.446 201.822 163.716 201.822V203.403H166.562V210.994H163.716V209.36C162.846 210.651 161.37 211.416 159.446 211.416ZM160.078 208.912C162.134 208.912 163.716 207.568 163.716 205.169V204.194C159.34 204.062 157.311 204.932 157.311 206.698C157.311 208.174 158.339 208.912 160.078 208.912ZM180.6 196.234L175.724 202.112L181.206 210.994H177.964L173.958 204.247L171.902 206.751V210.994H169.056V191.226H171.902V202.612L177.174 196.234H180.6ZM188.541 191.094L191.703 190.383L192.415 193.598L189.252 194.31L188.541 191.094ZM189.384 196.234H192.231V210.994H189.384V196.234ZM196.581 210.994V198.659H194.367V196.234H196.581V192.544H199.427V196.234H202.406V198.659H199.427V208.569H202.828V210.994H196.581ZM204.282 207.752H207.471V210.994H204.282V207.752Z" fill="#201C1D"/>
</g>
<rect width="94.8722" height="27.166" transform="translate(348.49 355.206)" fill="#C6D1E1"/>
<path d="M355.32 370.503H356.2V375.335H358.688V376.103H355.32V370.503ZM359.445 371.623H360.309V376.103H359.445V371.623ZM359.397 370.103H360.365V371.087H359.397V370.103ZM363.214 376.071C361.982 376.071 361.198 375.175 361.198 373.791C361.198 372.399 361.982 371.495 363.214 371.495C363.894 371.495 364.366 371.759 364.654 372.247V371.623H365.518V375.863C365.518 377.127 364.694 377.831 363.534 377.831C362.11 377.831 361.558 377.055 361.43 376.295H362.326C362.43 376.815 362.862 377.047 363.534 377.047C364.214 377.047 364.654 376.703 364.654 375.863V375.335C364.382 375.799 363.918 376.071 363.214 376.071ZM363.334 375.287C364.214 375.287 364.654 374.695 364.654 373.791C364.654 372.879 364.214 372.279 363.334 372.279C362.558 372.279 362.086 372.839 362.086 373.791C362.086 374.735 362.558 375.287 363.334 375.287ZM366.553 370.103H367.417V372.367C367.609 371.919 368.033 371.495 368.889 371.495C369.753 371.495 370.401 371.975 370.401 373.343V376.103H369.537V373.447C369.537 372.719 369.361 372.247 368.673 372.247C368.033 372.247 367.417 372.807 367.417 373.871V376.103H366.553V370.103ZM371.103 371.623H371.775V370.503H372.639V371.623H373.463V372.359H372.639V374.887C372.639 375.215 372.799 375.367 373.111 375.367H373.591V376.103H373.103C372.215 376.103 371.775 375.647 371.775 374.887V372.359H371.103V371.623ZM376.437 370.503H378.141C379.357 370.503 380.341 370.855 380.341 372.103C380.341 372.527 380.125 372.999 379.677 373.223C380.221 373.407 380.629 373.863 380.629 374.495C380.629 375.743 379.645 376.103 378.429 376.103H376.437V370.503ZM378.157 372.895C378.949 372.895 379.421 372.727 379.421 372.087C379.421 371.455 378.989 371.271 378.141 371.271H377.317V372.895H378.157ZM377.317 375.335H378.429C379.229 375.335 379.717 375.159 379.717 374.495C379.717 373.871 379.229 373.663 378.445 373.663H377.317V375.335ZM381.553 370.103H382.417V376.103H381.553V370.103ZM387.276 376.103H386.412V375.359C386.22 375.807 385.788 376.231 384.932 376.231C384.068 376.231 383.428 375.751 383.428 374.383V371.623H384.284V374.279C384.284 375.007 384.468 375.479 385.156 375.479C385.796 375.479 386.412 374.919 386.412 373.855V371.623H387.276V376.103ZM392.463 374.679C392.255 375.599 391.511 376.231 390.423 376.231C389.039 376.231 388.135 375.255 388.135 373.871C388.135 372.479 389.039 371.495 390.423 371.495C391.639 371.495 392.647 372.463 392.463 374.151H389.039C389.127 374.911 389.583 375.447 390.423 375.447C391.047 375.447 391.407 375.111 391.551 374.679H392.463ZM389.063 373.423H391.623C391.551 372.767 391.143 372.279 390.423 372.279C389.639 372.279 389.191 372.743 389.063 373.423Z" fill="#201C1D"/>
<path d="M422.715 370.503V375.335H424.059V376.103H420.491V375.335H421.835V371.271H420.491V370.503H422.715ZM426.991 372.343C428.343 372.343 429.039 373.159 429.039 374.287C429.039 375.383 428.263 376.231 426.903 376.231C425.735 376.231 424.743 375.455 424.743 374.327H425.639C425.687 374.935 426.111 375.415 426.943 375.415C427.727 375.415 428.119 374.887 428.119 374.263C428.119 373.583 427.711 373.143 426.935 373.143C426.343 373.143 425.879 373.407 425.679 373.807H424.783L425.383 370.503H428.543V371.271H426.111L425.823 372.775C426.119 372.527 426.503 372.343 426.991 372.343ZM434.32 370.503H435.264L432.144 376.103H431.2L434.32 370.503ZM431.16 373.887C430.184 373.887 429.736 373.103 429.736 372.127C429.736 371.159 430.184 370.375 431.16 370.375C432.128 370.375 432.576 371.159 432.576 372.127C432.576 373.103 432.128 373.887 431.16 373.887ZM431.16 373.127C431.56 373.127 431.784 372.711 431.784 372.127C431.784 371.551 431.56 371.135 431.16 371.135C430.76 371.135 430.536 371.551 430.536 372.127C430.536 372.711 430.76 373.127 431.16 373.127ZM435.28 376.231C434.304 376.231 433.856 375.447 433.856 374.471C433.856 373.503 434.304 372.719 435.28 372.719C436.248 372.719 436.696 373.503 436.696 374.471C436.696 375.447 436.248 376.231 435.28 376.231ZM435.28 375.471C435.68 375.471 435.904 375.055 435.904 374.471C435.904 373.895 435.68 373.479 435.28 373.479C434.88 373.479 434.656 373.895 434.656 374.471C434.656 375.055 434.88 375.471 435.28 375.471Z" fill="#201C1D"/>
<rect width="94.8722" height="27.166" transform="translate(348.49 328.04)" fill="#201C1D"/>
<path d="M357.896 349.065C356.112 349.065 355.128 347.753 355.128 346.129C355.128 344.521 356.112 343.209 357.896 343.209C359.672 343.209 360.656 344.521 360.656 346.129C360.656 347.753 359.672 349.065 357.896 349.065ZM357.896 348.249C359.144 348.249 359.736 347.249 359.736 346.129C359.736 345.025 359.144 344.025 357.896 344.025C356.64 344.025 356.04 345.025 356.04 346.129C356.04 347.249 356.64 348.249 357.896 348.249ZM361.865 344.073C361.865 343.393 362.265 342.937 363.153 342.937H363.841V343.673H363.161C362.873 343.673 362.729 343.809 362.729 344.073V344.457H363.729V345.193H362.729V348.937H361.865V345.193H361.353V344.457H361.865V344.073ZM365.037 344.073C365.037 343.393 365.437 342.937 366.325 342.937H367.013V343.673H366.333C366.045 343.673 365.901 343.809 365.901 344.073V344.457H366.901V345.193H365.901V348.937H365.037V345.193H364.525V344.457H365.037V344.073ZM367.583 346.009H370.103V346.745H367.583V346.009ZM371.078 343.337H372.782C373.998 343.337 374.982 343.689 374.982 344.937C374.982 345.361 374.766 345.833 374.318 346.057C374.862 346.241 375.27 346.697 375.27 347.329C375.27 348.577 374.286 348.937 373.07 348.937H371.078V343.337ZM372.798 345.729C373.59 345.729 374.062 345.561 374.062 344.921C374.062 344.289 373.63 344.105 372.782 344.105H371.958V345.729H372.798ZM371.958 348.169H373.07C373.87 348.169 374.358 347.993 374.358 347.329C374.358 346.705 373.87 346.497 373.086 346.497H371.958V348.169ZM376.194 342.937H377.058V348.937H376.194V342.937ZM379.988 344.329C381.212 344.329 381.844 345.121 381.844 346.377V348.937H380.98V348.321C380.74 348.777 380.324 349.065 379.684 349.065C378.804 349.065 378.14 348.561 378.14 347.665C378.14 346.265 379.676 346.113 380.972 346.161C380.924 345.513 380.652 345.097 379.988 345.097C379.3 345.097 378.94 345.521 378.94 346.033H378.028C378.028 345.145 378.724 344.329 379.988 344.329ZM379.036 347.617C379.036 348.065 379.348 348.305 379.876 348.305C380.5 348.305 380.98 347.897 380.98 347.169V346.769C379.66 346.705 379.036 347.081 379.036 347.617ZM387.058 347.057C387.018 348.217 386.218 349.065 384.954 349.065C383.57 349.065 382.666 348.089 382.666 346.705C382.666 345.313 383.57 344.329 384.954 344.329C386.17 344.329 387.002 345.233 387.042 346.217H386.13C386.09 345.673 385.746 345.121 384.954 345.121C384.01 345.121 383.554 345.793 383.554 346.705C383.554 347.609 384.01 348.273 384.954 348.273C385.794 348.273 386.122 347.689 386.162 347.057H387.058ZM387.921 342.937H388.785V346.393L390.385 344.457H391.425L389.953 346.241L391.609 348.937H390.625L389.417 346.881L388.785 347.649V348.937H387.921V342.937Z" fill="#EEEEEE"/>
<path d="M422.716 343.337V348.169H424.06V348.937H420.492V348.169H421.836V344.105H420.492V343.337H422.716ZM426.991 345.177C428.343 345.177 429.039 345.993 429.039 347.121C429.039 348.217 428.263 349.065 426.903 349.065C425.735 349.065 424.743 348.289 424.743 347.161H425.639C425.687 347.769 426.111 348.249 426.943 348.249C427.727 348.249 428.119 347.721 428.119 347.097C428.119 346.417 427.711 345.977 426.935 345.977C426.343 345.977 425.879 346.241 425.679 346.641H424.783L425.383 343.337H428.543V344.105H426.111L425.823 345.609C426.119 345.361 426.503 345.177 426.991 345.177ZM434.32 343.337H435.264L432.144 348.937H431.2L434.32 343.337ZM431.16 346.721C430.184 346.721 429.736 345.937 429.736 344.961C429.736 343.993 430.184 343.209 431.16 343.209C432.128 343.209 432.576 343.993 432.576 344.961C432.576 345.937 432.128 346.721 431.16 346.721ZM431.16 345.961C431.56 345.961 431.784 345.545 431.784 344.961C431.784 344.385 431.56 343.969 431.16 343.969C430.76 343.969 430.536 344.385 430.536 344.961C430.536 345.545 430.76 345.961 431.16 345.961ZM435.28 349.065C434.304 349.065 433.856 348.281 433.856 347.305C433.856 346.337 434.304 345.553 435.28 345.553C436.248 345.553 436.696 346.337 436.696 347.305C436.696 348.281 436.248 349.065 435.28 349.065ZM435.28 348.305C435.68 348.305 435.904 347.889 435.904 347.305C435.904 346.729 435.68 346.313 435.28 346.313C434.88 346.313 434.656 346.729 434.656 347.305C434.656 347.889 434.88 348.305 435.28 348.305Z" fill="#EEEEEE"/>
<rect width="94.8722" height="27.166" transform="translate(348.49 274.126)" fill="#F39FFF"/>
<path d="M355.32 289.423H357.176C358.672 289.423 359.616 289.911 359.616 291.239C359.616 292.567 358.672 293.063 357.176 293.063H356.2V295.023H355.32V289.423ZM357.176 292.295C358.144 292.295 358.696 292.079 358.696 291.239C358.696 290.399 358.144 290.191 357.176 290.191H356.2V292.295H357.176ZM360.476 290.543H361.34V295.023H360.476V290.543ZM360.428 289.023H361.396V290.007H360.428V289.023ZM362.428 290.543H363.292V291.279C363.476 290.831 363.916 290.415 364.764 290.415C365.628 290.415 366.276 290.895 366.276 292.263V295.023H365.412V292.367C365.412 291.639 365.236 291.167 364.548 291.167C363.908 291.167 363.292 291.727 363.292 292.791V295.023H362.428V290.543ZM367.296 289.023H368.16V292.479L369.76 290.543H370.8L369.328 292.327L370.984 295.023H370L368.792 292.967L368.16 293.735V295.023H367.296V289.023Z" fill="#201C1D"/>
<path d="M422.715 289.423V294.255H424.059V295.023H420.491V294.255H421.835V290.191H420.491V289.423H422.715ZM426.991 291.263C428.343 291.263 429.039 292.079 429.039 293.207C429.039 294.303 428.263 295.151 426.903 295.151C425.735 295.151 424.743 294.375 424.743 293.247H425.639C425.687 293.855 426.111 294.335 426.943 294.335C427.727 294.335 428.119 293.807 428.119 293.183C428.119 292.503 427.711 292.063 426.935 292.063C426.343 292.063 425.879 292.327 425.679 292.727H424.783L425.383 289.423H428.543V290.191H426.111L425.823 291.695C426.119 291.447 426.503 291.263 426.991 291.263ZM434.32 289.423H435.264L432.144 295.023H431.2L434.32 289.423ZM431.16 292.807C430.184 292.807 429.736 292.023 429.736 291.047C429.736 290.079 430.184 289.295 431.16 289.295C432.128 289.295 432.576 290.079 432.576 291.047C432.576 292.023 432.128 292.807 431.16 292.807ZM431.16 292.047C431.56 292.047 431.784 291.631 431.784 291.047C431.784 290.471 431.56 290.055 431.16 290.055C430.76 290.055 430.536 290.471 430.536 291.047C430.536 291.631 430.76 292.047 431.16 292.047ZM435.28 295.151C434.304 295.151 433.856 294.367 433.856 293.391C433.856 292.423 434.304 291.639 435.28 291.639C436.248 291.639 436.696 292.423 436.696 293.391C436.696 294.367 436.248 295.151 435.28 295.151ZM435.28 294.391C435.68 294.391 435.904 293.975 435.904 293.391C435.904 292.815 435.68 292.399 435.28 292.399C434.88 292.399 434.656 292.815 434.656 293.391C434.656 293.975 434.88 294.391 435.28 294.391Z" fill="#201C1D"/>
<rect width="94.8722" height="26.7481" transform="translate(348.49 301.292)" fill="#FFCC00"/>
<path d="M355.064 316.171H356.008L357.296 318.947L358.576 316.171H359.52L357.728 319.851V321.771H356.848V319.835L355.064 316.171ZM363.822 320.347C363.614 321.267 362.87 321.899 361.782 321.899C360.398 321.899 359.494 320.923 359.494 319.539C359.494 318.147 360.398 317.163 361.782 317.163C362.998 317.163 364.006 318.131 363.822 319.819H360.398C360.486 320.579 360.942 321.115 361.782 321.115C362.406 321.115 362.766 320.779 362.91 320.347H363.822ZM360.422 319.091H362.982C362.91 318.435 362.502 317.947 361.782 317.947C360.998 317.947 360.55 318.411 360.422 319.091ZM364.717 315.771H365.581V321.771H364.717V315.771ZM366.632 315.771H367.496V321.771H366.632V315.771ZM370.642 321.899C369.258 321.899 368.354 320.923 368.354 319.539C368.354 318.147 369.258 317.163 370.642 317.163C372.026 317.163 372.93 318.147 372.93 319.539C372.93 320.923 372.026 321.899 370.642 321.899ZM370.642 321.115C371.514 321.115 372.042 320.483 372.042 319.539C372.042 318.587 371.514 317.947 370.642 317.947C369.762 317.947 369.242 318.587 369.242 319.539C369.242 320.483 369.762 321.115 370.642 321.115ZM373.415 317.291H374.343L375.079 320.803L375.879 317.291H376.831L377.631 320.803L378.367 317.291H379.295L378.175 321.771H377.055L376.359 318.707L375.655 321.771H374.535L373.415 317.291Z" fill="#201C1D"/>
<path d="M422.715 316.171V321.003H424.059V321.771H420.491V321.003H421.835V316.939H420.491V316.171H422.715ZM426.991 318.011C428.343 318.011 429.039 318.827 429.039 319.955C429.039 321.051 428.263 321.899 426.903 321.899C425.735 321.899 424.743 321.123 424.743 319.995H425.639C425.687 320.603 426.111 321.083 426.943 321.083C427.727 321.083 428.119 320.555 428.119 319.931C428.119 319.251 427.711 318.811 426.935 318.811C426.343 318.811 425.879 319.075 425.679 319.475H424.783L425.383 316.171H428.543V316.939H426.111L425.823 318.443C426.119 318.195 426.503 318.011 426.991 318.011ZM434.32 316.171H435.264L432.144 321.771H431.2L434.32 316.171ZM431.16 319.555C430.184 319.555 429.736 318.771 429.736 317.795C429.736 316.827 430.184 316.043 431.16 316.043C432.128 316.043 432.576 316.827 432.576 317.795C432.576 318.771 432.128 319.555 431.16 319.555ZM431.16 318.795C431.56 318.795 431.784 318.379 431.784 317.795C431.784 317.219 431.56 316.803 431.16 316.803C430.76 316.803 430.536 317.219 430.536 317.795C430.536 318.379 430.76 318.795 431.16 318.795ZM435.28 321.899C434.304 321.899 433.856 321.115 433.856 320.139C433.856 319.171 434.304 318.387 435.28 318.387C436.248 318.387 436.696 319.171 436.696 320.139C436.696 321.115 436.248 321.899 435.28 321.899ZM435.28 321.139C435.68 321.139 435.904 320.723 435.904 320.139C435.904 319.563 435.68 319.147 435.28 319.147C434.88 319.147 434.656 319.563 434.656 320.139C434.656 320.723 434.88 321.139 435.28 321.139Z" fill="#201C1D"/>
<rect width="94.8722" height="101.977" transform="translate(348.49 117.399)" fill="#6E1527"/>
<path d="M355.32 213.107V207.507H357.216C358.992 207.507 359.976 208.691 359.976 210.299C359.976 211.923 358.992 213.107 357.216 213.107H355.32ZM357.216 212.331C358.48 212.331 359.056 211.419 359.056 210.299C359.056 209.195 358.48 208.283 357.216 208.283H356.2V212.331H357.216ZM362.714 208.499C363.938 208.499 364.57 209.291 364.57 210.547V213.107H363.706V212.491C363.466 212.947 363.05 213.235 362.41 213.235C361.53 213.235 360.866 212.731 360.866 211.835C360.866 210.435 362.402 210.283 363.698 210.331C363.65 209.683 363.378 209.267 362.714 209.267C362.026 209.267 361.666 209.691 361.666 210.203H360.754C360.754 209.315 361.45 208.499 362.714 208.499ZM361.762 211.787C361.762 212.235 362.074 212.475 362.602 212.475C363.226 212.475 363.706 212.067 363.706 211.339V210.939C362.386 210.875 361.762 211.251 361.762 211.787ZM365.569 208.627H366.433V209.379C366.609 208.923 367.009 208.499 367.929 208.499V209.363C366.977 209.363 366.433 209.691 366.433 210.755V213.107H365.569V208.627ZM368.757 207.107H369.621V210.563L371.221 208.627H372.261L370.789 210.411L372.445 213.107H371.461L370.253 211.051L369.621 211.819V213.107H368.757V207.107ZM377.638 213.235C375.854 213.235 374.87 211.923 374.87 210.299C374.87 208.691 375.854 207.379 377.638 207.379C379.414 207.379 380.398 208.691 380.398 210.299C380.398 211.923 379.414 213.235 377.638 213.235ZM377.638 212.419C378.886 212.419 379.478 211.419 379.478 210.299C379.478 209.195 378.886 208.195 377.638 208.195C376.382 208.195 375.782 209.195 375.782 210.299C375.782 211.419 376.382 212.419 377.638 212.419ZM381.295 208.627H382.159V209.379C382.335 208.923 382.735 208.499 383.655 208.499V209.363C382.703 209.363 382.159 209.691 382.159 210.755V213.107H381.295V208.627ZM386.12 208.499C387.344 208.499 387.976 209.291 387.976 210.547V213.107H387.112V212.491C386.872 212.947 386.456 213.235 385.816 213.235C384.936 213.235 384.272 212.731 384.272 211.835C384.272 210.435 385.808 210.283 387.104 210.331C387.056 209.683 386.784 209.267 386.12 209.267C385.432 209.267 385.072 209.691 385.072 210.203H384.16C384.16 209.315 384.856 208.499 386.12 208.499ZM385.168 211.787C385.168 212.235 385.48 212.475 386.008 212.475C386.632 212.475 387.112 212.067 387.112 211.339V210.939C385.792 210.875 385.168 211.251 385.168 211.787ZM388.975 208.627H389.839V209.363C390.023 208.915 390.463 208.499 391.311 208.499C392.175 208.499 392.823 208.979 392.823 210.347V213.107H391.959V210.451C391.959 209.723 391.783 209.251 391.095 209.251C390.455 209.251 389.839 209.811 389.839 210.875V213.107H388.975V208.627ZM395.698 213.075C394.466 213.075 393.682 212.179 393.682 210.795C393.682 209.403 394.466 208.499 395.698 208.499C396.378 208.499 396.85 208.763 397.138 209.251V208.627H398.002V212.867C398.002 214.131 397.178 214.835 396.018 214.835C394.594 214.835 394.042 214.059 393.914 213.299H394.81C394.914 213.819 395.346 214.051 396.018 214.051C396.698 214.051 397.138 213.707 397.138 212.867V212.339C396.866 212.803 396.402 213.075 395.698 213.075ZM395.818 212.291C396.698 212.291 397.138 211.699 397.138 210.795C397.138 209.883 396.698 209.283 395.818 209.283C395.042 209.283 394.57 209.843 394.57 210.795C394.57 211.739 395.042 212.291 395.818 212.291ZM403.19 211.683C402.982 212.603 402.238 213.235 401.15 213.235C399.766 213.235 398.862 212.259 398.862 210.875C398.862 209.483 399.766 208.499 401.15 208.499C402.366 208.499 403.374 209.467 403.19 211.155H399.766C399.854 211.915 400.31 212.451 401.15 212.451C401.774 212.451 402.134 212.115 402.278 211.683H403.19ZM399.79 210.427H402.35C402.278 209.771 401.87 209.283 401.15 209.283C400.366 209.283 399.918 209.747 399.79 210.427Z" fill="#EEEEEE"/>
<path d="M421.317 209.867C422.221 209.867 422.565 209.587 422.565 209.027C422.565 208.579 422.181 208.195 421.421 208.195C420.669 208.195 420.149 208.611 420.101 209.283H419.189C419.189 208.155 420.221 207.379 421.389 207.379C422.717 207.379 423.485 208.131 423.485 209.027C423.485 209.547 423.205 210.027 422.581 210.267C423.221 210.483 423.525 210.971 423.525 211.555C423.525 212.483 422.733 213.235 421.389 213.235C420.173 213.235 419.189 212.459 419.189 211.331H420.101C420.149 211.979 420.661 212.419 421.413 212.419C422.197 212.419 422.605 212.011 422.605 211.507C422.605 210.955 422.173 210.667 421.317 210.667H420.853V209.867H421.317ZM426.619 213.235C424.995 213.235 424.251 211.923 424.251 210.299C424.251 208.691 424.995 207.379 426.619 207.379C428.235 207.379 428.979 208.691 428.979 210.299C428.979 211.923 428.235 213.235 426.619 213.235ZM426.619 212.419C427.587 212.419 428.059 211.459 428.059 210.299C428.059 209.155 427.587 208.195 426.619 208.195C425.643 208.195 425.163 209.155 425.163 210.299C425.163 211.459 425.643 212.419 426.619 212.419ZM434.32 207.507H435.264L432.144 213.107H431.2L434.32 207.507ZM431.16 210.891C430.184 210.891 429.736 210.107 429.736 209.131C429.736 208.163 430.184 207.379 431.16 207.379C432.128 207.379 432.576 208.163 432.576 209.131C432.576 210.107 432.128 210.891 431.16 210.891ZM431.16 210.131C431.56 210.131 431.784 209.715 431.784 209.131C431.784 208.555 431.56 208.139 431.16 208.139C430.76 208.139 430.536 208.555 430.536 209.131C430.536 209.715 430.76 210.131 431.16 210.131ZM435.28 213.235C434.304 213.235 433.856 212.451 433.856 211.475C433.856 210.507 434.304 209.723 435.28 209.723C436.248 209.723 436.696 210.507 436.696 211.475C436.696 212.451 436.248 213.235 435.28 213.235ZM435.28 212.475C435.68 212.475 435.904 212.059 435.904 211.475C435.904 210.899 435.68 210.483 435.28 210.483C434.88 210.483 434.656 210.899 434.656 211.475C434.656 212.059 434.88 212.475 435.28 212.475Z" fill="#EEEEEE"/>
<rect width="94.8722" height="54.75" transform="translate(348.49 219.376)" fill="#FF5E00"/>
<path d="M356.128 266.073C356.184 266.761 356.768 267.169 357.536 267.169C358.28 267.169 358.792 266.873 358.792 266.345C358.792 265.081 355.248 266.049 355.248 263.777C355.248 262.849 356.136 262.129 357.456 262.129C358.672 262.129 359.624 262.921 359.624 264.033H358.688C358.64 263.345 358.248 262.945 357.416 262.945C356.592 262.945 356.16 263.281 356.16 263.777C356.16 265.137 359.712 264.097 359.712 266.345C359.712 267.385 358.888 267.985 357.488 267.985C356.192 267.985 355.224 267.169 355.184 266.073H356.128ZM360.423 263.377H361.095V262.257H361.959V263.377H362.783V264.113H361.959V266.641C361.959 266.969 362.119 267.121 362.431 267.121H362.911V267.857H362.423C361.535 267.857 361.095 267.401 361.095 266.641V264.113H360.423V263.377ZM365.558 263.249C366.782 263.249 367.414 264.041 367.414 265.297V267.857H366.55V267.241C366.31 267.697 365.894 267.985 365.254 267.985C364.374 267.985 363.71 267.481 363.71 266.585C363.71 265.185 365.246 265.033 366.542 265.081C366.494 264.433 366.222 264.017 365.558 264.017C364.87 264.017 364.51 264.441 364.51 264.953H363.598C363.598 264.065 364.294 263.249 365.558 263.249ZM364.606 266.537C364.606 266.985 364.918 267.225 365.446 267.225C366.07 267.225 366.55 266.817 366.55 266.089V265.689C365.23 265.625 364.606 266.001 364.606 266.537ZM372.629 265.977C372.589 267.137 371.789 267.985 370.525 267.985C369.141 267.985 368.237 267.009 368.237 265.625C368.237 264.233 369.141 263.249 370.525 263.249C371.741 263.249 372.573 264.153 372.613 265.137H371.701C371.661 264.593 371.317 264.041 370.525 264.041C369.581 264.041 369.125 264.713 369.125 265.625C369.125 266.529 369.581 267.193 370.525 267.193C371.365 267.193 371.693 266.609 371.733 265.977H372.629ZM373.491 261.857H374.355V265.313L375.955 263.377H376.995L375.523 265.161L377.179 267.857H376.195L374.987 265.801L374.355 266.569V267.857H373.491V261.857ZM382.372 267.985C380.588 267.985 379.604 266.673 379.604 265.049C379.604 263.441 380.588 262.129 382.372 262.129C384.148 262.129 385.132 263.441 385.132 265.049C385.132 266.673 384.148 267.985 382.372 267.985ZM382.372 267.169C383.62 267.169 384.212 266.169 384.212 265.049C384.212 263.945 383.62 262.945 382.372 262.945C381.116 262.945 380.516 263.945 380.516 265.049C380.516 266.169 381.116 267.169 382.372 267.169ZM386.03 263.377H386.894V264.129C387.07 263.673 387.47 263.249 388.39 263.249V264.113C387.438 264.113 386.894 264.441 386.894 265.505V267.857H386.03V263.377ZM390.855 263.249C392.079 263.249 392.711 264.041 392.711 265.297V267.857H391.847V267.241C391.607 267.697 391.191 267.985 390.551 267.985C389.671 267.985 389.007 267.481 389.007 266.585C389.007 265.185 390.543 265.033 391.839 265.081C391.791 264.433 391.519 264.017 390.855 264.017C390.167 264.017 389.807 264.441 389.807 264.953H388.895C388.895 264.065 389.591 263.249 390.855 263.249ZM389.903 266.537C389.903 266.985 390.215 267.225 390.743 267.225C391.367 267.225 391.847 266.817 391.847 266.089V265.689C390.527 265.625 389.903 266.001 389.903 266.537ZM393.709 263.377H394.573V264.113C394.757 263.665 395.197 263.249 396.045 263.249C396.909 263.249 397.557 263.729 397.557 265.097V267.857H396.693V265.201C396.693 264.473 396.517 264.001 395.829 264.001C395.189 264.001 394.573 264.561 394.573 265.625V267.857H393.709V263.377ZM400.432 267.825C399.2 267.825 398.416 266.929 398.416 265.545C398.416 264.153 399.2 263.249 400.432 263.249C401.112 263.249 401.584 263.513 401.872 264.001V263.377H402.736V267.617C402.736 268.881 401.912 269.585 400.752 269.585C399.328 269.585 398.776 268.809 398.648 268.049H399.544C399.648 268.569 400.08 268.801 400.752 268.801C401.432 268.801 401.872 268.457 401.872 267.617V267.089C401.6 267.553 401.136 267.825 400.432 267.825ZM400.552 267.041C401.432 267.041 401.872 266.449 401.872 265.545C401.872 264.633 401.432 264.033 400.552 264.033C399.776 264.033 399.304 264.593 399.304 265.545C399.304 266.489 399.776 267.041 400.552 267.041ZM407.924 266.433C407.716 267.353 406.972 267.985 405.884 267.985C404.5 267.985 403.596 267.009 403.596 265.625C403.596 264.233 404.5 263.249 405.884 263.249C407.1 263.249 408.108 264.217 407.924 265.905H404.5C404.588 266.665 405.044 267.201 405.884 267.201C406.508 267.201 406.868 266.865 407.012 266.433H407.924ZM404.524 265.177H407.084C407.012 264.521 406.604 264.033 405.884 264.033C405.1 264.033 404.652 264.497 404.524 265.177Z" fill="#201C1D"/>
<path d="M419.242 267.857C419.282 265.057 422.554 265.353 422.554 263.913C422.554 263.313 422.122 262.945 421.442 262.945C420.626 262.945 420.266 263.385 420.218 264.033H419.298C419.298 262.905 420.202 262.129 421.402 262.129C422.762 262.129 423.466 262.953 423.466 263.897C423.466 265.737 421.026 265.521 420.426 267.081H423.482V267.857H419.242ZM426.619 267.985C424.995 267.985 424.251 266.673 424.251 265.049C424.251 263.441 424.995 262.129 426.619 262.129C428.235 262.129 428.979 263.441 428.979 265.049C428.979 266.673 428.235 267.985 426.619 267.985ZM426.619 267.169C427.587 267.169 428.059 266.209 428.059 265.049C428.059 263.905 427.587 262.945 426.619 262.945C425.643 262.945 425.163 263.905 425.163 265.049C425.163 266.209 425.643 267.169 426.619 267.169ZM434.32 262.257H435.264L432.144 267.857H431.2L434.32 262.257ZM431.16 265.641C430.184 265.641 429.736 264.857 429.736 263.881C429.736 262.913 430.184 262.129 431.16 262.129C432.128 262.129 432.576 262.913 432.576 263.881C432.576 264.857 432.128 265.641 431.16 265.641ZM431.16 264.881C431.56 264.881 431.784 264.465 431.784 263.881C431.784 263.305 431.56 262.889 431.16 262.889C430.76 262.889 430.536 263.305 430.536 263.881C430.536 264.465 430.76 264.881 431.16 264.881ZM435.28 267.985C434.304 267.985 433.856 267.201 433.856 266.225C433.856 265.257 434.304 264.473 435.28 264.473C436.248 264.473 436.696 265.257 436.696 266.225C436.696 267.201 436.248 267.985 435.28 267.985ZM435.28 267.225C435.68 267.225 435.904 266.809 435.904 266.225C435.904 265.649 435.68 265.233 435.28 265.233C434.88 265.233 434.656 265.649 434.656 266.225C434.656 266.809 434.88 267.225 435.28 267.225Z" fill="#201C1D"/>
<rect width="94.8717" height="27.1659" transform="translate(777.129 355.206)" fill="#C6D1E1"/>
<path d="M783.958 370.503H784.838V375.335H787.326V376.103H783.958V370.503ZM788.084 371.623H788.948V376.103H788.084V371.623ZM788.036 370.103H789.004V371.087H788.036V370.103ZM791.852 376.071C790.62 376.071 789.836 375.175 789.836 373.791C789.836 372.399 790.62 371.495 791.852 371.495C792.532 371.495 793.004 371.759 793.292 372.247V371.623H794.156V375.863C794.156 377.127 793.332 377.831 792.172 377.831C790.748 377.831 790.196 377.055 790.068 376.295H790.964C791.068 376.815 791.5 377.047 792.172 377.047C792.852 377.047 793.292 376.703 793.292 375.863V375.335C793.02 375.799 792.556 376.071 791.852 376.071ZM791.972 375.287C792.852 375.287 793.292 374.695 793.292 373.791C793.292 372.879 792.852 372.279 791.972 372.279C791.196 372.279 790.724 372.839 790.724 373.791C790.724 374.735 791.196 375.287 791.972 375.287ZM795.192 370.103H796.056V372.367C796.248 371.919 796.672 371.495 797.528 371.495C798.392 371.495 799.04 371.975 799.04 373.343V376.103H798.176V373.447C798.176 372.719 798 372.247 797.312 372.247C796.672 372.247 796.056 372.807 796.056 373.871V376.103H795.192V370.103ZM799.742 371.623H800.414V370.503H801.278V371.623H802.102V372.359H801.278V374.887C801.278 375.215 801.438 375.367 801.75 375.367H802.23V376.103H801.742C800.854 376.103 800.414 375.647 800.414 374.887V372.359H799.742V371.623ZM805.076 370.503H806.78C807.996 370.503 808.98 370.855 808.98 372.103C808.98 372.527 808.764 372.999 808.316 373.223C808.86 373.407 809.268 373.863 809.268 374.495C809.268 375.743 808.284 376.103 807.068 376.103H805.076V370.503ZM806.796 372.895C807.588 372.895 808.06 372.727 808.06 372.087C808.06 371.455 807.628 371.271 806.78 371.271H805.956V372.895H806.796ZM805.956 375.335H807.068C807.868 375.335 808.356 375.159 808.356 374.495C808.356 373.871 807.868 373.663 807.084 373.663H805.956V375.335ZM810.192 370.103H811.056V376.103H810.192V370.103ZM815.914 376.103H815.05V375.359C814.858 375.807 814.426 376.231 813.57 376.231C812.706 376.231 812.066 375.751 812.066 374.383V371.623H812.922V374.279C812.922 375.007 813.106 375.479 813.794 375.479C814.434 375.479 815.05 374.919 815.05 373.855V371.623H815.914V376.103ZM821.102 374.679C820.894 375.599 820.15 376.231 819.062 376.231C817.678 376.231 816.774 375.255 816.774 373.871C816.774 372.479 817.678 371.495 819.062 371.495C820.278 371.495 821.286 372.463 821.102 374.151H817.678C817.766 374.911 818.222 375.447 819.062 375.447C819.686 375.447 820.046 375.111 820.19 374.679H821.102ZM817.702 373.423H820.262C820.19 372.767 819.782 372.279 819.062 372.279C818.278 372.279 817.83 372.743 817.702 373.423Z" fill="#201C1D"/>
<path d="M851.354 370.503V375.335H852.698V376.103H849.13V375.335H850.474V371.271H849.13V370.503H851.354ZM855.63 372.343C856.982 372.343 857.678 373.159 857.678 374.287C857.678 375.383 856.902 376.231 855.542 376.231C854.374 376.231 853.382 375.455 853.382 374.327H854.278C854.326 374.935 854.75 375.415 855.582 375.415C856.366 375.415 856.758 374.887 856.758 374.263C856.758 373.583 856.35 373.143 855.574 373.143C854.982 373.143 854.518 373.407 854.318 373.807H853.422L854.022 370.503H857.182V371.271H854.75L854.462 372.775C854.758 372.527 855.142 372.343 855.63 372.343ZM862.958 370.503H863.902L860.782 376.103H859.838L862.958 370.503ZM859.798 373.887C858.822 373.887 858.374 373.103 858.374 372.127C858.374 371.159 858.822 370.375 859.798 370.375C860.766 370.375 861.214 371.159 861.214 372.127C861.214 373.103 860.766 373.887 859.798 373.887ZM859.798 373.127C860.198 373.127 860.422 372.711 860.422 372.127C860.422 371.551 860.198 371.135 859.798 371.135C859.398 371.135 859.174 371.551 859.174 372.127C859.174 372.711 859.398 373.127 859.798 373.127ZM863.918 376.231C862.942 376.231 862.494 375.447 862.494 374.471C862.494 373.503 862.942 372.719 863.918 372.719C864.886 372.719 865.334 373.503 865.334 374.471C865.334 375.447 864.886 376.231 863.918 376.231ZM863.918 375.471C864.318 375.471 864.542 375.055 864.542 374.471C864.542 373.895 864.318 373.479 863.918 373.479C863.518 373.479 863.294 373.895 863.294 374.471C863.294 375.055 863.518 375.471 863.918 375.471Z" fill="#201C1D"/>
<rect width="94.8717" height="27.1659" transform="translate(777.129 328.04)" fill="#201C1D"/>
<path d="M786.534 349.065C784.75 349.065 783.766 347.753 783.766 346.129C783.766 344.521 784.75 343.209 786.534 343.209C788.31 343.209 789.294 344.521 789.294 346.129C789.294 347.753 788.31 349.065 786.534 349.065ZM786.534 348.249C787.782 348.249 788.374 347.249 788.374 346.129C788.374 345.025 787.782 344.025 786.534 344.025C785.278 344.025 784.678 345.025 784.678 346.129C784.678 347.249 785.278 348.249 786.534 348.249ZM790.504 344.073C790.504 343.393 790.904 342.937 791.792 342.937H792.48V343.673H791.799C791.512 343.673 791.368 343.809 791.368 344.073V344.457H792.368V345.193H791.368V348.937H790.504V345.193H789.992V344.457H790.504V344.073ZM793.675 344.073C793.675 343.393 794.075 342.937 794.963 342.937H795.651V343.673H794.971C794.683 343.673 794.539 343.809 794.539 344.073V344.457H795.539V345.193H794.539V348.937H793.675V345.193H793.163V344.457H793.675V344.073ZM796.222 346.009H798.742V346.745H796.222V346.009ZM799.716 343.337H801.42C802.636 343.337 803.62 343.689 803.62 344.937C803.62 345.361 803.404 345.833 802.956 346.057C803.5 346.241 803.908 346.697 803.908 347.329C803.908 348.577 802.924 348.937 801.708 348.937H799.716V343.337ZM801.436 345.729C802.228 345.729 802.7 345.561 802.7 344.921C802.7 344.289 802.268 344.105 801.42 344.105H800.596V345.729H801.436ZM800.596 348.169H801.708C802.508 348.169 802.996 347.993 802.996 347.329C802.996 346.705 802.508 346.497 801.724 346.497H800.596V348.169ZM804.833 342.937H805.697V348.937H804.833V342.937ZM808.626 344.329C809.85 344.329 810.482 345.121 810.482 346.377V348.937H809.618V348.321C809.378 348.777 808.962 349.065 808.322 349.065C807.442 349.065 806.778 348.561 806.778 347.665C806.778 346.265 808.314 346.113 809.61 346.161C809.562 345.513 809.29 345.097 808.626 345.097C807.938 345.097 807.578 345.521 807.578 346.033H806.666C806.666 345.145 807.362 344.329 808.626 344.329ZM807.674 347.617C807.674 348.065 807.986 348.305 808.514 348.305C809.138 348.305 809.618 347.897 809.618 347.169V346.769C808.298 346.705 807.674 347.081 807.674 347.617ZM815.697 347.057C815.657 348.217 814.857 349.065 813.593 349.065C812.209 349.065 811.305 348.089 811.305 346.705C811.305 345.313 812.209 344.329 813.593 344.329C814.809 344.329 815.641 345.233 815.681 346.217H814.769C814.729 345.673 814.385 345.121 813.593 345.121C812.649 345.121 812.193 345.793 812.193 346.705C812.193 347.609 812.649 348.273 813.593 348.273C814.433 348.273 814.761 347.689 814.801 347.057H815.697ZM816.559 342.937H817.423V346.393L819.023 344.457H820.063L818.591 346.241L820.247 348.937H819.263L818.055 346.881L817.423 347.649V348.937H816.559V342.937Z" fill="#EEEEEE"/>
<path d="M851.354 343.337V348.169H852.698V348.937H849.13V348.169H850.474V344.105H849.13V343.337H851.354ZM855.63 345.177C856.982 345.177 857.678 345.993 857.678 347.121C857.678 348.217 856.902 349.065 855.542 349.065C854.374 349.065 853.382 348.289 853.382 347.161H854.278C854.326 347.769 854.75 348.249 855.582 348.249C856.366 348.249 856.758 347.721 856.758 347.097C856.758 346.417 856.35 345.977 855.574 345.977C854.982 345.977 854.518 346.241 854.318 346.641H853.422L854.022 343.337H857.182V344.105H854.75L854.462 345.609C854.758 345.361 855.142 345.177 855.63 345.177ZM862.958 343.337H863.902L860.782 348.937H859.838L862.958 343.337ZM859.798 346.721C858.822 346.721 858.374 345.937 858.374 344.961C858.374 343.993 858.822 343.209 859.798 343.209C860.766 343.209 861.214 343.993 861.214 344.961C861.214 345.937 860.766 346.721 859.798 346.721ZM859.798 345.961C860.198 345.961 860.422 345.545 860.422 344.961C860.422 344.385 860.198 343.969 859.798 343.969C859.398 343.969 859.174 344.385 859.174 344.961C859.174 345.545 859.398 345.961 859.798 345.961ZM863.918 349.065C862.942 349.065 862.494 348.281 862.494 347.305C862.494 346.337 862.942 345.553 863.918 345.553C864.886 345.553 865.334 346.337 865.334 347.305C865.334 348.281 864.886 349.065 863.918 349.065ZM863.918 348.305C864.318 348.305 864.542 347.889 864.542 347.305C864.542 346.729 864.318 346.313 863.918 346.313C863.518 346.313 863.294 346.729 863.294 347.305C863.294 347.889 863.518 348.305 863.918 348.305Z" fill="#EEEEEE"/>
<rect width="94.8717" height="27.1659" transform="translate(777.129 274.126)" fill="#86AF25"/>
<path d="M789.086 292.039C789.214 294.143 788.198 295.151 786.534 295.151C784.75 295.151 783.766 293.839 783.766 292.215C783.766 290.607 784.75 289.295 786.534 289.295C788.038 289.295 788.894 290.151 789.062 291.495H788.126C788.014 290.775 787.614 290.111 786.534 290.111C785.278 290.111 784.678 291.111 784.678 292.215C784.678 293.335 785.278 294.335 786.534 294.335C787.654 294.335 788.158 293.655 788.182 292.807H786.534V292.039H789.086ZM790.075 290.543H790.939V291.295C791.115 290.839 791.515 290.415 792.435 290.415V291.279C791.483 291.279 790.939 291.607 790.939 292.671V295.023H790.075V290.543ZM797.094 293.599C796.886 294.519 796.142 295.151 795.054 295.151C793.67 295.151 792.766 294.175 792.766 292.791C792.766 291.399 793.67 290.415 795.054 290.415C796.27 290.415 797.278 291.383 797.094 293.071H793.67C793.758 293.831 794.214 294.367 795.054 294.367C795.678 294.367 796.038 294.031 796.182 293.599H797.094ZM793.694 292.343H796.254C796.182 291.687 795.774 291.199 795.054 291.199C794.27 291.199 793.822 291.663 793.694 292.343ZM802.125 293.599C801.917 294.519 801.173 295.151 800.085 295.151C798.701 295.151 797.797 294.175 797.797 292.791C797.797 291.399 798.701 290.415 800.085 290.415C801.301 290.415 802.309 291.383 802.125 293.071H798.701C798.789 293.831 799.245 294.367 800.085 294.367C800.709 294.367 801.069 294.031 801.213 293.599H802.125ZM798.725 292.343H801.285C801.213 291.687 800.805 291.199 800.085 291.199C799.301 291.199 798.853 291.663 798.725 292.343ZM803.02 290.543H803.884V291.279C804.068 290.831 804.508 290.415 805.356 290.415C806.22 290.415 806.868 290.895 806.868 292.263V295.023H806.004V292.367C806.004 291.639 805.828 291.167 805.14 291.167C804.5 291.167 803.884 291.727 803.884 292.791V295.023H803.02V290.543Z" fill="#201C1D"/>
<path d="M851.354 289.423V294.255H852.698V295.023H849.13V294.255H850.474V290.191H849.13V289.423H851.354ZM855.63 291.263C856.982 291.263 857.678 292.079 857.678 293.207C857.678 294.303 856.902 295.151 855.542 295.151C854.374 295.151 853.382 294.375 853.382 293.247H854.278C854.326 293.855 854.75 294.335 855.582 294.335C856.366 294.335 856.758 293.807 856.758 293.183C856.758 292.503 856.35 292.063 855.574 292.063C854.982 292.063 854.518 292.327 854.318 292.727H853.422L854.022 289.423H857.182V290.191H854.75L854.462 291.695C854.758 291.447 855.142 291.263 855.63 291.263ZM862.958 289.423H863.902L860.782 295.023H859.838L862.958 289.423ZM859.798 292.807C858.822 292.807 858.374 292.023 858.374 291.047C858.374 290.079 858.822 289.295 859.798 289.295C860.766 289.295 861.214 290.079 861.214 291.047C861.214 292.023 860.766 292.807 859.798 292.807ZM859.798 292.047C860.198 292.047 860.422 291.631 860.422 291.047C860.422 290.471 860.198 290.055 859.798 290.055C859.398 290.055 859.174 290.471 859.174 291.047C859.174 291.631 859.398 292.047 859.798 292.047ZM863.918 295.151C862.942 295.151 862.494 294.367 862.494 293.391C862.494 292.423 862.942 291.639 863.918 291.639C864.886 291.639 865.334 292.423 865.334 293.391C865.334 294.367 864.886 295.151 863.918 295.151ZM863.918 294.391C864.318 294.391 864.542 293.975 864.542 293.391C864.542 292.815 864.318 292.399 863.918 292.399C863.518 292.399 863.294 292.815 863.294 293.391C863.294 293.975 863.518 294.391 863.918 294.391Z" fill="#201C1D"/>
<rect width="94.8717" height="26.748" transform="translate(777.129 301.292)" fill="#FFCC00"/>
<path d="M783.702 316.171H784.646L785.934 318.947L787.214 316.171H788.158L786.366 319.851V321.771H785.486V319.835L783.702 316.171ZM792.461 320.347C792.253 321.267 791.509 321.899 790.421 321.899C789.037 321.899 788.133 320.923 788.133 319.539C788.133 318.147 789.037 317.163 790.421 317.163C791.637 317.163 792.645 318.131 792.461 319.819H789.037C789.125 320.579 789.581 321.115 790.421 321.115C791.045 321.115 791.405 320.779 791.549 320.347H792.461ZM789.061 319.091H791.621C791.549 318.435 791.141 317.947 790.421 317.947C789.637 317.947 789.189 318.411 789.061 319.091ZM793.356 315.771H794.22V321.771H793.356V315.771ZM795.27 315.771H796.134V321.771H795.27V315.771ZM799.28 321.899C797.896 321.899 796.992 320.923 796.992 319.539C796.992 318.147 797.896 317.163 799.28 317.163C800.664 317.163 801.568 318.147 801.568 319.539C801.568 320.923 800.664 321.899 799.28 321.899ZM799.28 321.115C800.152 321.115 800.68 320.483 800.68 319.539C800.68 318.587 800.152 317.947 799.28 317.947C798.4 317.947 797.88 318.587 797.88 319.539C797.88 320.483 798.4 321.115 799.28 321.115ZM802.054 317.291H802.982L803.718 320.803L804.518 317.291H805.47L806.27 320.803L807.006 317.291H807.934L806.814 321.771H805.694L804.998 318.707L804.294 321.771H803.174L802.054 317.291Z" fill="#201C1D"/>
<path d="M851.354 316.171V321.003H852.698V321.771H849.13V321.003H850.474V316.939H849.13V316.171H851.354ZM855.63 318.011C856.982 318.011 857.678 318.827 857.678 319.955C857.678 321.051 856.902 321.899 855.542 321.899C854.374 321.899 853.382 321.123 853.382 319.995H854.278C854.326 320.603 854.75 321.083 855.582 321.083C856.366 321.083 856.758 320.555 856.758 319.931C856.758 319.251 856.35 318.811 855.574 318.811C854.982 318.811 854.518 319.075 854.318 319.475H853.422L854.022 316.171H857.182V316.939H854.75L854.462 318.443C854.758 318.195 855.142 318.011 855.63 318.011ZM862.959 316.171H863.903L860.783 321.771H859.839L862.959 316.171ZM859.799 319.555C858.823 319.555 858.375 318.771 858.375 317.795C858.375 316.827 858.823 316.043 859.799 316.043C860.767 316.043 861.215 316.827 861.215 317.795C861.215 318.771 860.767 319.555 859.799 319.555ZM859.799 318.795C860.199 318.795 860.423 318.379 860.423 317.795C860.423 317.219 860.199 316.803 859.799 316.803C859.399 316.803 859.175 317.219 859.175 317.795C859.175 318.379 859.399 318.795 859.799 318.795ZM863.919 321.899C862.943 321.899 862.495 321.115 862.495 320.139C862.495 319.171 862.943 318.387 863.919 318.387C864.887 318.387 865.335 319.171 865.335 320.139C865.335 321.115 864.887 321.899 863.919 321.899ZM863.919 321.139C864.319 321.139 864.543 320.723 864.543 320.139C864.543 319.563 864.319 319.147 863.919 319.147C863.519 319.147 863.295 319.563 863.295 320.139C863.295 320.723 863.519 321.139 863.919 321.139Z" fill="#201C1D"/>
<rect width="94.8717" height="101.977" transform="translate(777.129 117.399)" fill="#998B7A"/>
<path d="M783.958 207.507H784.838V212.339H787.326V213.107H783.958V207.507ZM788.084 208.627H788.948V213.107H788.084V208.627ZM788.036 207.107H789.004V208.091H788.036V207.107ZM791.852 213.075C790.62 213.075 789.836 212.179 789.836 210.795C789.836 209.403 790.62 208.499 791.852 208.499C792.532 208.499 793.004 208.763 793.292 209.251V208.627H794.156V212.867C794.156 214.131 793.332 214.835 792.172 214.835C790.748 214.835 790.196 214.059 790.068 213.299H790.964C791.068 213.819 791.5 214.051 792.172 214.051C792.852 214.051 793.292 213.707 793.292 212.867V212.339C793.02 212.803 792.556 213.075 791.852 213.075ZM791.972 212.291C792.852 212.291 793.292 211.699 793.292 210.795C793.292 209.883 792.852 209.283 791.972 209.283C791.196 209.283 790.724 209.843 790.724 210.795C790.724 211.739 791.196 212.291 791.972 212.291ZM795.192 207.107H796.056V209.371C796.248 208.923 796.672 208.499 797.528 208.499C798.392 208.499 799.04 208.979 799.04 210.347V213.107H798.176V210.451C798.176 209.723 798 209.251 797.312 209.251C796.672 209.251 796.056 209.811 796.056 210.875V213.107H795.192V207.107ZM799.742 208.627H800.414V207.507H801.278V208.627H802.102V209.363H801.278V211.891C801.278 212.219 801.438 212.371 801.75 212.371H802.23V213.107H801.742C800.854 213.107 800.414 212.651 800.414 211.891V209.363H799.742V208.627ZM805.076 207.507H806.78C807.996 207.507 808.98 207.859 808.98 209.107C808.98 209.531 808.764 210.003 808.316 210.227C808.86 210.411 809.268 210.867 809.268 211.499C809.268 212.747 808.284 213.107 807.068 213.107H805.076V207.507ZM806.796 209.899C807.588 209.899 808.06 209.731 808.06 209.091C808.06 208.459 807.628 208.275 806.78 208.275H805.956V209.899H806.796ZM805.956 212.339H807.068C807.868 212.339 808.356 212.163 808.356 211.499C808.356 210.875 807.868 210.667 807.084 210.667H805.956V212.339ZM810.184 208.627H811.048V209.379C811.224 208.923 811.624 208.499 812.544 208.499V209.363C811.592 209.363 811.048 209.691 811.048 210.755V213.107H810.184V208.627ZM815.163 213.235C813.779 213.235 812.875 212.259 812.875 210.875C812.875 209.483 813.779 208.499 815.163 208.499C816.547 208.499 817.451 209.483 817.451 210.875C817.451 212.259 816.547 213.235 815.163 213.235ZM815.163 212.451C816.035 212.451 816.563 211.819 816.563 210.875C816.563 209.923 816.035 209.283 815.163 209.283C814.283 209.283 813.763 209.923 813.763 210.875C813.763 211.819 814.283 212.451 815.163 212.451ZM817.936 208.627H818.864L819.6 212.139L820.4 208.627H821.352L822.152 212.139L822.888 208.627H823.816L822.696 213.107H821.576L820.88 210.043L820.176 213.107H819.056L817.936 208.627ZM824.629 208.627H825.493V209.363C825.677 208.915 826.117 208.499 826.965 208.499C827.829 208.499 828.477 208.979 828.477 210.347V213.107H827.613V210.451C827.613 209.723 827.437 209.251 826.749 209.251C826.109 209.251 825.493 209.811 825.493 210.875V213.107H824.629V208.627Z" fill="#201C1D"/>
<path d="M849.955 209.867C850.859 209.867 851.203 209.587 851.203 209.027C851.203 208.579 850.819 208.195 850.059 208.195C849.307 208.195 848.787 208.611 848.739 209.283H847.827C847.827 208.155 848.859 207.379 850.027 207.379C851.355 207.379 852.123 208.131 852.123 209.027C852.123 209.547 851.843 210.027 851.219 210.267C851.859 210.483 852.163 210.971 852.163 211.555C852.163 212.483 851.371 213.235 850.027 213.235C848.811 213.235 847.827 212.459 847.827 211.331H848.739C848.787 211.979 849.299 212.419 850.051 212.419C850.835 212.419 851.243 212.011 851.243 211.507C851.243 210.955 850.811 210.667 849.955 210.667H849.491V209.867H849.955ZM855.257 213.235C853.633 213.235 852.889 211.923 852.889 210.299C852.889 208.691 853.633 207.379 855.257 207.379C856.873 207.379 857.617 208.691 857.617 210.299C857.617 211.923 856.873 213.235 855.257 213.235ZM855.257 212.419C856.225 212.419 856.697 211.459 856.697 210.299C856.697 209.155 856.225 208.195 855.257 208.195C854.281 208.195 853.801 209.155 853.801 210.299C853.801 211.459 854.281 212.419 855.257 212.419ZM862.959 207.507H863.903L860.783 213.107H859.839L862.959 207.507ZM859.799 210.891C858.823 210.891 858.375 210.107 858.375 209.131C858.375 208.163 858.823 207.379 859.799 207.379C860.767 207.379 861.215 208.163 861.215 209.131C861.215 210.107 860.767 210.891 859.799 210.891ZM859.799 210.131C860.199 210.131 860.423 209.715 860.423 209.131C860.423 208.555 860.199 208.139 859.799 208.139C859.399 208.139 859.175 208.555 859.175 209.131C859.175 209.715 859.399 210.131 859.799 210.131ZM863.919 213.235C862.943 213.235 862.495 212.451 862.495 211.475C862.495 210.507 862.943 209.723 863.919 209.723C864.887 209.723 865.335 210.507 865.335 211.475C865.335 212.451 864.887 213.235 863.919 213.235ZM863.919 212.475C864.319 212.475 864.543 212.059 864.543 211.475C864.543 210.899 864.319 210.483 863.919 210.483C863.519 210.483 863.295 210.899 863.295 211.475C863.295 212.059 863.519 212.475 863.919 212.475Z" fill="#201C1D"/>
<rect width="94.8717" height="54.7497" transform="translate(777.129 219.377)" fill="#FF5E00"/>
<path d="M784.766 266.073C784.822 266.761 785.406 267.169 786.174 267.169C786.918 267.169 787.43 266.873 787.43 266.345C787.43 265.081 783.886 266.049 783.886 263.777C783.886 262.849 784.774 262.129 786.094 262.129C787.31 262.129 788.262 262.921 788.262 264.033H787.326C787.278 263.345 786.886 262.945 786.054 262.945C785.23 262.945 784.798 263.281 784.798 263.777C784.798 265.137 788.35 264.097 788.35 266.345C788.35 267.385 787.526 267.985 786.126 267.985C784.83 267.985 783.862 267.169 783.822 266.073H784.766ZM789.062 263.377H789.734V262.257H790.598V263.377H791.422V264.113H790.598V266.641C790.598 266.969 790.758 267.121 791.07 267.121H791.55V267.857H791.062C790.174 267.857 789.734 267.401 789.734 266.641V264.113H789.062V263.377ZM794.197 263.249C795.421 263.249 796.053 264.041 796.053 265.297V267.857H795.189V267.241C794.949 267.697 794.533 267.985 793.893 267.985C793.013 267.985 792.349 267.481 792.349 266.585C792.349 265.185 793.885 265.033 795.181 265.081C795.133 264.433 794.861 264.017 794.197 264.017C793.509 264.017 793.149 264.441 793.149 264.953H792.237C792.237 264.065 792.933 263.249 794.197 263.249ZM793.245 266.537C793.245 266.985 793.557 267.225 794.085 267.225C794.709 267.225 795.189 266.817 795.189 266.089V265.689C793.868 265.625 793.245 266.001 793.245 266.537ZM801.267 265.977C801.227 267.137 800.427 267.985 799.163 267.985C797.779 267.985 796.875 267.009 796.875 265.625C796.875 264.233 797.779 263.249 799.163 263.249C800.379 263.249 801.211 264.153 801.251 265.137H800.339C800.299 264.593 799.955 264.041 799.163 264.041C798.219 264.041 797.763 264.713 797.763 265.625C797.763 266.529 798.219 267.193 799.163 267.193C800.003 267.193 800.331 266.609 800.371 265.977H801.267ZM802.13 261.857H802.994V265.313L804.594 263.377H805.634L804.162 265.161L805.818 267.857H804.834L803.626 265.801L802.994 266.569V267.857H802.13V261.857ZM811.011 267.985C809.227 267.985 808.243 266.673 808.243 265.049C808.243 263.441 809.227 262.129 811.011 262.129C812.787 262.129 813.771 263.441 813.771 265.049C813.771 266.673 812.787 267.985 811.011 267.985ZM811.011 267.169C812.259 267.169 812.851 266.169 812.851 265.049C812.851 263.945 812.259 262.945 811.011 262.945C809.755 262.945 809.155 263.945 809.155 265.049C809.155 266.169 809.755 267.169 811.011 267.169ZM814.668 263.377H815.532V264.129C815.708 263.673 816.108 263.249 817.028 263.249V264.113C816.076 264.113 815.532 264.441 815.532 265.505V267.857H814.668V263.377ZM819.493 263.249C820.717 263.249 821.349 264.041 821.349 265.297V267.857H820.485V267.241C820.245 267.697 819.829 267.985 819.189 267.985C818.309 267.985 817.645 267.481 817.645 266.585C817.645 265.185 819.181 265.033 820.477 265.081C820.429 264.433 820.157 264.017 819.493 264.017C818.805 264.017 818.445 264.441 818.445 264.953H817.533C817.533 264.065 818.229 263.249 819.493 263.249ZM818.541 266.537C818.541 266.985 818.853 267.225 819.381 267.225C820.005 267.225 820.485 266.817 820.485 266.089V265.689C819.165 265.625 818.541 266.001 818.541 266.537ZM822.348 263.377H823.212V264.113C823.396 263.665 823.836 263.249 824.684 263.249C825.548 263.249 826.196 263.729 826.196 265.097V267.857H825.332V265.201C825.332 264.473 825.156 264.001 824.468 264.001C823.828 264.001 823.212 264.561 823.212 265.625V267.857H822.348V263.377ZM829.071 267.825C827.839 267.825 827.055 266.929 827.055 265.545C827.055 264.153 827.839 263.249 829.071 263.249C829.751 263.249 830.223 263.513 830.511 264.001V263.377H831.375V267.617C831.375 268.881 830.551 269.585 829.391 269.585C827.967 269.585 827.415 268.809 827.287 268.049H828.183C828.287 268.569 828.719 268.801 829.391 268.801C830.071 268.801 830.511 268.457 830.511 267.617V267.089C830.239 267.553 829.775 267.825 829.071 267.825ZM829.191 267.041C830.071 267.041 830.511 266.449 830.511 265.545C830.511 264.633 830.071 264.033 829.191 264.033C828.415 264.033 827.943 264.593 827.943 265.545C827.943 266.489 828.415 267.041 829.191 267.041ZM836.563 266.433C836.355 267.353 835.611 267.985 834.523 267.985C833.139 267.985 832.235 267.009 832.235 265.625C832.235 264.233 833.139 263.249 834.523 263.249C835.739 263.249 836.747 264.217 836.563 265.905H833.139C833.227 266.665 833.683 267.201 834.523 267.201C835.147 267.201 835.507 266.865 835.651 266.433H836.563ZM833.163 265.177H835.723C835.651 264.521 835.243 264.033 834.523 264.033C833.739 264.033 833.291 264.497 833.163 265.177Z" fill="#201C1D"/>
<path d="M847.88 267.857C847.92 265.057 851.192 265.353 851.192 263.913C851.192 263.313 850.76 262.945 850.08 262.945C849.264 262.945 848.904 263.385 848.856 264.033H847.936C847.936 262.905 848.84 262.129 850.04 262.129C851.4 262.129 852.104 262.953 852.104 263.897C852.104 265.737 849.664 265.521 849.064 267.081H852.12V267.857H847.88ZM855.257 267.985C853.633 267.985 852.889 266.673 852.889 265.049C852.889 263.441 853.633 262.129 855.257 262.129C856.873 262.129 857.617 263.441 857.617 265.049C857.617 266.673 856.873 267.985 855.257 267.985ZM855.257 267.169C856.225 267.169 856.697 266.209 856.697 265.049C856.697 263.905 856.225 262.945 855.257 262.945C854.281 262.945 853.801 263.905 853.801 265.049C853.801 266.209 854.281 267.169 855.257 267.169ZM862.958 262.257H863.902L860.782 267.857H859.838L862.958 262.257ZM859.798 265.641C858.822 265.641 858.374 264.857 858.374 263.881C858.374 262.913 858.822 262.129 859.798 262.129C860.766 262.129 861.214 262.913 861.214 263.881C861.214 264.857 860.766 265.641 859.798 265.641ZM859.798 264.881C860.198 264.881 860.422 264.465 860.422 263.881C860.422 263.305 860.198 262.889 859.798 262.889C859.398 262.889 859.174 263.305 859.174 263.881C859.174 264.465 859.398 264.881 859.798 264.881ZM863.918 267.985C862.942 267.985 862.494 267.201 862.494 266.225C862.494 265.257 862.942 264.473 863.918 264.473C864.886 264.473 865.334 265.257 865.334 266.225C865.334 267.201 864.886 267.985 863.918 267.985ZM863.918 267.225C864.318 267.225 864.542 266.809 864.542 266.225C864.542 265.649 864.318 265.233 863.918 265.233C863.518 265.233 863.294 265.649 863.294 266.225C863.294 266.809 863.518 267.225 863.918 267.225Z" fill="#201C1D"/>
<g clip-path="url(#clip3_3536_6335)">
<rect width="259.381" height="264.942" transform="translate(502 117.399)" fill="#998B7A"/>
<g clip-path="url(#clip4_3536_6335)">
<path d="M756.736 290.788C756.208 296.262 757.129 302.55 756.737 308.112C754.69 308.092 752.636 307.979 750.592 307.882C703.83 305.672 656.983 302.787 610.288 300.375C610.176 296.298 610.093 292.146 610.188 288.053C610.225 286.463 610.161 284.858 610.188 283.267L756.736 290.788Z" fill="#86AF25"/>
<path d="M741.49 321.557L741.492 338.88L738.987 338.651L600.402 320.191C600.604 318.598 600.238 316.946 600.176 315.403C600.058 312.445 599.76 305.465 600.404 302.868L741.49 321.557Z" fill="#86AF25"/>
<path d="M724.879 351.187V368.281L724.392 368.467L593.135 339.097L592.895 337.74L593.122 321.786L724.879 351.187Z" fill="#86AF25"/>
<path d="M707.129 379.449V396.543L706.685 396.684L590.347 357.956C589.913 357.837 589.219 357.685 588.799 357.797L589.026 340.247L707.129 379.449V379.449Z" fill="#86AF25"/>
<path d="M796.332 361.445L796.302 378.738L689.151 423.667L688.924 406.345L796.332 361.445Z" fill="#FFCC00"/>
<path d="M688.924 406.344L689.151 423.666L587.885 375.919L587.649 359.264C587.529 358.729 587.99 358.652 588.115 358.481L688.924 406.344Z" fill="#86AF25"/>
<path d="M779.947 353.466L796.332 361.444L688.924 406.344L588.115 358.481C588.173 358.402 588.751 357.809 588.798 357.797C589.218 357.684 589.912 357.837 590.346 357.956L706.684 396.684L707.129 396.543C731.327 382.09 755.796 367.885 779.947 353.466Z" fill="#FF5E00"/>
<path d="M778.582 321.102L795.194 327.028L707.128 379.449L589.025 340.247L592.894 337.74L593.134 339.097L724.391 368.467L724.878 368.281C742.699 352.473 760.745 336.869 778.582 321.102Z" fill="#FF5E00"/>
<path d="M795.194 327.028L795.081 344.123C789.997 347.157 785.026 350.435 779.948 353.467C755.797 367.886 731.327 382.09 707.129 396.544V379.45L795.194 327.028V327.028Z" fill="#FFCC00"/>
<path d="M622.703 278.709C622.734 279.161 622.678 279.625 622.702 280.078C668.579 278.613 714.497 277.858 760.376 276.43C759.711 281.003 757.168 286.298 756.735 290.789L610.188 283.267L618.835 250.675C620.077 260.018 621.327 269.385 622.703 278.709H622.703Z" fill="#FF5E00"/>
<path d="M750.593 307.883L741.491 321.558L600.404 302.869C600.468 302.61 600.406 302.301 600.614 302.064L610.189 288.054C610.094 292.147 610.177 296.299 610.289 300.376C656.985 302.788 703.831 305.673 750.593 307.883Z" fill="#FF5E00"/>
<path d="M600.175 315.404C600.237 316.947 600.603 318.598 600.401 320.191L738.986 338.652L724.878 351.187L593.121 321.786L593.188 321.402L600.175 315.404Z" fill="#FF5E00"/>
<path d="M622.703 262.754L769.933 258.88V276.202C768.252 276.027 766.582 276.367 764.927 276.43C763.417 276.487 761.887 276.383 760.376 276.43C714.496 277.858 668.579 278.613 622.702 280.078C622.678 279.625 622.734 279.161 622.703 278.709C622.348 273.533 622.967 267.971 622.703 262.754Z" fill="#86AF25"/>
<path d="M775.393 288.964C775.372 288.995 774.959 289.003 774.741 289.326C765.124 303.577 755.494 317.834 746.149 332.263L790.867 292.61C791.361 298.239 791.013 304.07 791.046 309.769C786.908 313.557 782.779 317.388 778.579 321.1C760.741 336.867 742.695 352.471 724.875 368.279V351.185L738.984 338.65L741.488 338.879L741.487 321.556L750.589 307.881C752.633 307.977 754.687 308.09 756.734 308.11C757.126 302.549 756.205 296.261 756.733 290.787C757.166 286.296 759.709 281.001 760.374 276.428C761.885 276.381 763.415 276.485 764.925 276.428L760.942 292.609L783.813 258.878L783.756 276.257C780.78 280.361 778.227 284.773 775.393 288.964Z" fill="#FFCC00"/>
<path d="M775.393 288.965L790.867 292.612L746.148 332.264C755.493 317.836 765.124 303.579 774.741 289.328C774.959 289.005 775.372 288.996 775.393 288.965L775.393 288.965Z" fill="#FF5E00"/>
<path d="M796.104 123.953L688.924 168.853C655.307 152.949 621.51 137.296 588.115 120.99L695.176 76.0742C728.857 91.9355 762.662 107.672 796.104 123.953Z" fill="#FF5E00"/>
<path d="M796.102 123.955L796.289 141.237C790.714 143.467 785.251 146.02 779.718 148.342C749.549 160.999 719.118 173.437 688.922 186.176V168.855L796.102 123.955Z" fill="#86AF25"/>
<path d="M688.923 168.855V186.177L591.074 140.14L670.946 194.382V211.704L602.223 165.211L653.424 218.313V235.407L611.556 192.331L637.267 241.105V258.199L617.472 221.278L622.704 262.758C622.968 267.975 622.349 273.537 622.704 278.712C621.327 269.388 620.078 260.021 618.835 250.678C617.26 238.831 615.753 226.967 614.175 215.118L603.465 195.075L603.241 183.904L595.218 175.53L595.124 160.581L589.933 156.838L589.943 139.61C589.069 138.912 587.881 139.057 587.649 137.755C587.317 135.896 587.339 123.707 587.648 121.776C587.706 121.412 587.678 121.116 588.115 120.992C621.509 137.298 655.307 152.951 688.923 168.855Z" fill="#FFCC00"/>
<path d="M788.823 192.331L789.037 209.868L774.032 213.071L773.334 212.719L653.969 235.646L653.426 235.407V218.313L788.823 192.331Z" fill="#86AF25"/>
<path d="M794.057 158.372C794.562 164.043 794.179 169.92 794.253 175.661C788.738 177.299 783.194 178.866 777.672 180.48C742.097 190.879 706.491 201.201 670.947 211.705V194.383L794.057 158.372Z" fill="#86AF25"/>
<path d="M688.923 186.177C719.119 173.437 749.55 161 779.719 148.343L794.055 158.371L670.946 194.382L591.074 140.14L688.923 186.177Z" fill="#FF5E00"/>
<path d="M670.945 211.705C706.489 201.201 742.095 190.879 777.67 180.48L788.821 192.332L653.423 218.314L602.223 165.212L670.945 211.705Z" fill="#FF5E00"/>
<path d="M780.628 226.061C781.693 230.926 780.331 238.085 780.823 243.236C780.75 243.542 780.539 243.551 780.287 243.611C778.759 243.975 775.344 244.12 773.573 244.295C772.096 244.44 770.368 244.588 768.795 244.75C725.279 249.234 681.757 253.652 638.272 258.431L637.266 258.198V241.104L780.628 226.061Z" fill="#86AF25"/>
<path d="M637.266 258.198L638.272 258.431C681.756 253.653 725.279 249.234 768.795 244.751C767.696 248.95 769.421 253.691 769.708 257.968C769.793 257.711 770.346 256.956 770.387 256.831L783.813 258.882L760.943 292.613L764.926 276.431C766.581 276.369 768.251 276.029 769.932 276.204V258.882L622.702 262.756L617.471 221.276L637.266 258.198Z" fill="#FF5E00"/>
<path d="M653.423 235.406L653.966 235.644L773.332 212.717L774.029 213.07C775.347 217.004 779.786 222.214 780.628 226.061L637.266 241.104L611.555 192.329L653.423 235.406Z" fill="#FF5E00"/>
</g>
<path d="M528.856 141.021L528.884 141.036L528.877 141.043L528.856 141.022C528.211 141.856 527.671 142.775 527.254 143.757C527.248 143.772 527.242 143.786 527.236 143.801C526.835 144.759 526.55 145.777 526.4 146.84C526.399 146.846 526.399 146.854 526.399 146.86C526.319 147.424 526.278 148 526.278 148.586C526.278 149.083 526.308 149.575 526.366 150.058H514.398V146.84H524.79C524.81 146.708 524.832 146.578 524.857 146.447L514.845 143.764L515.678 140.655L525.813 143.371C525.86 143.267 525.908 143.164 525.957 143.062L516.861 137.812L518.47 135.026L527.701 140.352C527.774 140.265 527.848 140.177 527.925 140.091L520.361 132.532L522.638 130.256L530.322 137.939L531.134 138.75C530.28 139.405 529.514 140.168 528.856 141.021Z" fill="#201C1D"/>
<rect x="512" y="307.847" width="116.473" height="36.9692" fill="#C6D1E1"/>
<rect x="512" y="280.12" width="145.661" height="36.9692" fill="#C6D1E1"/>
<rect x="512" y="335.372" width="201.563" height="36.9692" fill="#C6D1E1"/>
<path d="M530.179 307.794C524.301 307.794 521.059 303.471 521.059 298.121C521.059 292.823 524.301 288.5 530.179 288.5C536.03 288.5 539.272 292.823 539.272 298.121C539.272 303.471 536.03 307.794 530.179 307.794ZM530.179 305.105C534.291 305.105 536.241 301.811 536.241 298.121C536.241 294.483 534.291 291.189 530.179 291.189C526.041 291.189 524.064 294.483 524.064 298.121C524.064 301.811 526.041 305.105 530.179 305.105ZM541.431 292.612H544.277V295.037C544.883 293.561 546.333 292.19 549.127 292.19C551.974 292.19 554.109 293.772 554.109 298.279V307.372H551.262V298.621C551.262 296.223 550.682 294.668 548.415 294.668C546.307 294.668 544.277 296.513 544.277 300.018V307.372H541.431V292.612ZM559.068 300.941V299.201H556.063C556.432 294.826 559.516 292.19 563.575 292.19C567.582 292.19 570.903 295.379 570.323 300.941H559.068ZM563.575 294.773C561.203 294.773 559.49 296.17 559.121 298.542H567.529C567.292 296.381 565.948 294.773 563.575 294.773ZM563.575 307.794C559.332 307.794 556.485 305 556.09 300.941H559.068C559.332 303.445 560.808 305.211 563.575 305.211C565.631 305.211 566.817 304.104 567.318 302.68H570.323C569.611 305.712 567.16 307.794 563.575 307.794ZM577.854 312.644V292.612H580.7V294.879C581.623 293.192 583.178 292.19 585.444 292.19C589.504 292.19 592.087 295.432 592.087 300.018C592.087 304.578 589.504 307.794 585.444 307.794C583.099 307.794 581.57 306.739 580.7 305.132V312.644H577.854ZM585.049 305.211C587.606 305.211 589.161 303.129 589.161 300.018C589.161 296.882 587.606 294.773 585.049 294.773C582.123 294.773 580.7 297.014 580.7 300.018C580.7 302.997 582.123 305.211 585.049 305.211ZM594.147 287.604H596.993V307.372H594.147V287.604ZM599.39 298.068C599.39 295.063 601.683 292.19 605.847 292.19C609.643 292.19 611.672 294.483 611.936 298.2H609.116C608.984 296.065 608.061 294.8 605.847 294.8C603.317 294.8 602.394 296.328 602.394 298.068H599.39ZM604.846 307.794C601.946 307.794 599.759 306.133 599.759 303.181C599.759 298.569 604.846 298.2 609.116 298.2V299.781H611.962V307.372H609.116V305.738C608.246 307.029 606.77 307.794 604.846 307.794ZM605.478 305.29C607.534 305.29 609.116 303.946 609.116 301.547V300.572C604.74 300.44 602.711 301.31 602.711 303.076C602.711 304.552 603.739 305.29 605.478 305.29ZM628.32 301.178C628.188 305 625.552 307.794 621.387 307.794C616.828 307.794 613.849 304.578 613.849 300.018C613.849 295.432 616.828 292.19 621.387 292.19C625.394 292.19 628.135 295.169 628.267 298.411H625.262C625.13 296.618 623.997 294.8 621.387 294.8C618.277 294.8 616.775 297.014 616.775 300.018C616.775 302.997 618.277 305.184 621.387 305.184C624.155 305.184 625.236 303.26 625.367 301.178H628.32ZM632.735 300.941V299.201H629.731C630.1 294.826 633.184 292.19 637.243 292.19C641.249 292.19 644.57 295.379 643.99 300.941H632.735ZM637.243 294.773C634.87 294.773 633.157 296.17 632.788 298.542H641.196C640.959 296.381 639.615 294.773 637.243 294.773ZM637.243 307.794C632.999 307.794 630.152 305 629.757 300.941H632.735C632.999 303.445 634.475 305.211 637.243 305.211C639.298 305.211 640.485 304.104 640.985 302.68H643.99C643.278 305.712 640.827 307.794 637.243 307.794ZM645.126 304.13H648.315V307.372H645.126V304.13ZM526.805 316.922H530.759L536.847 335.372H533.816L532.446 331.102H525.171L523.88 335.372H520.848L526.805 316.922ZM525.962 328.572H531.655L528.782 319.452L525.962 328.572ZM546.98 328.018V335.372H544.133V320.612H546.98V323.01C547.56 321.561 548.851 320.19 551.302 320.19C553.332 320.19 554.861 321.06 555.52 323.327C556.126 321.772 557.576 320.19 560.211 320.19C562.952 320.19 564.798 321.772 564.798 326.279V335.372H561.951V326.621C561.951 324.223 561.635 322.668 559.5 322.668C557.655 322.668 555.889 324.513 555.889 328.018V335.372H553.042V326.621C553.042 324.223 552.726 322.668 550.591 322.668C548.746 322.668 546.98 324.513 546.98 328.018ZM566.76 315.472L569.923 314.76L570.634 317.976L567.471 318.688L566.76 315.472ZM567.603 320.612H570.45V335.372H567.603V320.612ZM573.298 315.604H576.144V335.372H573.298V315.604ZM578.806 315.604H581.653V335.372H578.806V315.604ZM583.928 315.472L587.091 314.76L587.803 317.976L584.64 318.688L583.928 315.472ZM584.772 320.612H587.618V335.372H584.772V320.612ZM597.321 335.794C592.761 335.794 589.783 332.578 589.783 328.018C589.783 323.432 592.761 320.19 597.321 320.19C601.881 320.19 604.859 323.432 604.859 328.018C604.859 332.578 601.881 335.794 597.321 335.794ZM597.321 333.211C600.194 333.211 601.933 331.129 601.933 328.018C601.933 324.882 600.194 322.773 597.321 322.773C594.421 322.773 592.708 324.882 592.708 328.018C592.708 331.129 594.421 333.211 597.321 333.211ZM606.861 320.612H609.708V323.037C610.314 321.561 611.763 320.19 614.557 320.19C617.404 320.19 619.539 321.772 619.539 326.279V335.372H616.692V326.621C616.692 324.223 616.112 322.668 613.846 322.668C611.737 322.668 609.708 324.513 609.708 328.018V335.372H606.861V320.612ZM521.586 363.372V343.604H524.433V350.852C525.356 349.165 526.911 348.19 529.177 348.19C533.236 348.19 535.819 351.432 535.819 356.018C535.819 360.578 533.236 363.794 529.177 363.794C526.832 363.794 525.329 362.792 524.433 361.211V363.372H521.586ZM528.782 361.211C531.339 361.211 532.894 359.129 532.894 356.018C532.894 352.882 531.339 350.773 528.782 350.773C525.856 350.773 524.433 353.014 524.433 356.018C524.433 358.997 525.856 361.211 528.782 361.211ZM540.725 355.623V363.372H537.878V348.612H540.725V351.089C541.279 349.587 542.623 348.19 545.654 348.19V351.037C542.517 351.037 540.725 352.117 540.725 355.623ZM549.081 356.941V355.201H546.076C546.445 350.826 549.529 348.19 553.588 348.19C557.595 348.19 560.916 351.379 560.336 356.941H549.081ZM553.588 350.773C551.216 350.773 549.503 352.17 549.134 354.542H557.542C557.305 352.381 555.961 350.773 553.588 350.773ZM553.588 363.794C549.345 363.794 546.498 361 546.103 356.941H549.081C549.345 359.445 550.821 361.211 553.588 361.211C555.644 361.211 556.83 360.104 557.331 358.68H560.336C559.624 361.712 557.173 363.794 553.588 363.794ZM562.119 354.068C562.119 351.063 564.412 348.19 568.576 348.19C572.372 348.19 574.401 350.483 574.665 354.2H571.844C571.713 352.065 570.79 350.8 568.576 350.8C566.046 350.8 565.123 352.328 565.123 354.068H562.119ZM567.575 363.794C564.675 363.794 562.488 362.133 562.488 359.181C562.488 354.569 567.575 354.2 571.844 354.2V355.781H574.691V363.372H571.844V361.738C570.975 363.029 569.499 363.794 567.575 363.794ZM568.207 361.29C570.263 361.29 571.844 359.946 571.844 357.547V356.572C567.469 356.44 565.44 357.31 565.44 359.076C565.44 360.552 566.467 361.29 568.207 361.29ZM588.729 348.612L583.853 354.49L589.335 363.372H586.093L582.087 356.625L580.031 359.129V363.372H577.184V343.604H580.031V354.99L585.302 348.612H588.729ZM592.535 363.372V351.037H590.321V348.612H592.535V344.922H595.381V348.612H598.36V351.037H595.381V360.947H598.781V363.372H592.535ZM603.737 356.018V363.372H600.891V343.604H603.737V351.063C604.343 349.587 605.767 348.19 608.587 348.19C611.434 348.19 613.569 349.772 613.569 354.279V363.372H610.722V354.621C610.722 352.223 610.142 350.668 607.875 350.668C605.767 350.668 603.737 352.513 603.737 356.018ZM618.922 355.623V363.372H616.076V348.612H618.922V351.089C619.476 349.587 620.82 348.19 623.851 348.19V351.037C620.715 351.037 618.922 352.117 618.922 355.623ZM631.786 363.794C627.227 363.794 624.248 360.578 624.248 356.018C624.248 351.432 627.227 348.19 631.786 348.19C636.346 348.19 639.325 351.432 639.325 356.018C639.325 360.578 636.346 363.794 631.786 363.794ZM631.786 361.211C634.659 361.211 636.399 359.129 636.399 356.018C636.399 352.882 634.659 350.773 631.786 350.773C628.887 350.773 627.174 352.882 627.174 356.018C627.174 359.129 628.887 361.211 631.786 361.211ZM651.105 355.966V348.612H653.952V363.372H651.105V360.921C650.473 362.397 649.049 363.794 646.229 363.794C643.382 363.794 641.274 362.212 641.274 357.705V348.612H644.094V357.363C644.094 359.761 644.7 361.316 646.967 361.316C649.076 361.316 651.105 359.471 651.105 355.966ZM662.653 363.267C658.594 363.267 656.011 360.315 656.011 355.755C656.011 351.169 658.594 348.19 662.653 348.19C664.893 348.19 666.449 349.06 667.397 350.668V348.612H670.244V362.581C670.244 366.746 667.529 369.065 663.707 369.065C659.016 369.065 657.197 366.509 656.775 364.005H659.727C660.07 365.718 661.493 366.482 663.707 366.482C665.948 366.482 667.397 365.349 667.397 362.581V360.868C666.475 362.37 664.973 363.267 662.653 363.267ZM663.048 360.684C665.948 360.684 667.397 358.733 667.397 355.755C667.397 352.75 665.948 350.773 663.048 350.773C660.492 350.773 658.937 352.618 658.937 355.755C658.937 358.865 660.492 360.684 663.048 360.684ZM675.706 356.018V363.372H672.859V343.604H675.706V351.063C676.312 349.587 677.735 348.19 680.555 348.19C683.402 348.19 685.537 349.772 685.537 354.279V363.372H682.69V354.621C682.69 352.223 682.11 350.668 679.844 350.668C677.735 350.668 675.706 352.513 675.706 356.018ZM690.31 358.601C690.468 360.394 692.024 361.263 693.921 361.263C695.766 361.263 697.031 360.578 697.031 359.076C697.031 355.966 687.701 358.707 687.701 352.803C687.701 350.431 690.099 348.19 693.71 348.19C696.9 348.19 699.615 350.246 699.615 353.251H696.9C696.768 351.458 695.371 350.615 693.605 350.615C691.575 350.615 690.521 351.538 690.521 352.803C690.521 356.203 699.852 353.251 699.852 359.076C699.852 361.87 697.506 363.688 693.79 363.688C690.31 363.688 687.622 361.501 687.516 358.601H690.31ZM701.162 360.13H704.351V363.372H701.162V360.13Z" fill="#201C1D"/>
</g>
</g>
<defs>
<clipPath id="clip0_3536_6335">
<rect width="966" height="500" fill="white"/>
</clipPath>
<clipPath id="clip1_3536_6335">
<rect width="235.851" height="264.942" fill="white" transform="translate(94 117.368)"/>
</clipPath>
<clipPath id="clip2_3536_6335">
<rect width="388.894" height="222.241" fill="white" transform="translate(121.533 173.942)"/>
</clipPath>
<clipPath id="clip3_3536_6335">
<rect width="259.381" height="264.942" fill="white" transform="translate(502 117.399)"/>
</clipPath>
<clipPath id="clip4_3536_6335">
<rect width="208.923" height="347.592" fill="white" transform="translate(587.406 76.0742)"/>
</clipPath>
</defs>
</svg>
