<svg width="31" height="31" viewBox="0 0 31 31" fill="none" xmlns="http://www.w3.org/2000/svg">
<path d="M0 0V31H31V0" fill="#C9CBCF"/>
<path d="M20 19C22.2968 20.0861 24.2548 21.7767 25.6641 23.8906C27.0734 26.0046 27.8809 28.4622 28 31H3C3.12981 28.4649 3.94158 26.0119 5.34964 23.8998C6.75771 21.7877 8.70983 20.0949 11 19V18.5C10.0585 17.7958 9.29579 16.88 8.7734 15.8267C8.25101 14.7734 7.98358 13.612 7.99269 12.4362C8.0018 11.2605 8.28721 10.1034 8.82587 9.05832C9.36453 8.01322 10.1414 7.10942 11.0936 6.41983C12.0459 5.73024 13.147 5.27418 14.308 5.0885C15.469 4.90282 16.6574 4.99271 17.7773 5.35089C18.8971 5.70907 19.9171 6.32552 20.7548 7.15048C21.5926 7.97545 22.2246 8.98581 22.6 10.1C23.1059 11.5956 23.127 13.2128 22.6602 14.721C22.1933 16.2293 21.2624 17.5518 20 18.5V19Z" fill="white"/>
</svg>
