<svg width="48" height="49" fill="none" xmlns="http://www.w3.org/2000/svg"><path d="M24 49a24 24 0 1 0 0-48 24 24 0 0 0 0 48z" fill="#F4F2F7"/><path d="M12.6 30.3l-2 2 5.4 5.4 2-2-5.4-5.4z" fill="#E2D3ED"/><path d="M12.2 27.4c2-3 17.4-26.4 34.3-26.9-.4 17-23.7 32.4-26.8 34.4l-7.5-7.5z" fill="#fff"/><path d="M46 1c-.9 16-22.2 30.6-26.2 33.3l-7-7C15.6 23.4 30 2 46 1zm1-1C28.3 0 11.6 27.5 11.6 27.5l8 8S47.1 18.8 47 0z" fill="#27348B"/><path d="M40.4 3.4a5.2 5.2 0 0 0 5.7 5.4c.7-2.1 1-4.3 1-6.6-2.2 0-4.5.4-6.7 1.2z" fill="#E2D3ED"/><path d="M40.4 16.1L29.1 41.5h-6.6v-5M31 6.7L5.5 18.4v6.1h5.3M18.3 34.2l-2 2-5.4-5.3 2-2M45.2 6.7a4.8 4.8 0 0 1-4.9-4.8" stroke="#27348B" stroke-linecap="round" stroke-linejoin="round"/><path d="M3.1 44l5.5-5.4M9.9 37.3l2.6-2.6M5.8 38.8l4-4M9.5 40.2l2.7-2.6" stroke="#27348B" stroke-miterlimit="10" stroke-linecap="round"/><path d="M46 1c-.9 16-22.2 30.6-26.2 33.3l-7-7C15.6 23.4 30 2 46 1zm1-1C28.3 0 11.6 27.5 11.6 27.5l8 8S47.1 18.8 47 0z" fill="#27348B"/><circle cx="36.5" cy="12.5" r="2.5" fill="#FFB935"/><circle cx="36.5" cy="10.5" r="2" stroke="#F48024"/><circle cx="30.5" cy="18.5" r="2.5" fill="#FFB935"/><circle cx="30.5" cy="16.5" r="2" stroke="#F48024"/><circle cx="24.5" cy="24.5" r="2.5" fill="#FFB935"/><circle cx="24.5" cy="22.5" r="2" stroke="#F48024"/></svg>