<svg height="490" viewBox="0 0 720 490" width="720" xmlns="http://www.w3.org/2000/svg" xmlns:xlink="http://www.w3.org/1999/xlink"><defs><rect id="a" height="730" rx="3" width="400" x="1"/><filter id="b" height="104.5%" width="108.2%" x="-4.1%" y="-2%"><feMorphology in="SourceAlpha" operator="dilate" radius="0.5" result="shadowSpreadOuter1"/><feOffset dx="0" dy="2" in="shadowSpreadOuter1" result="shadowOffsetOuter1"/><feGaussianBlur in="shadowOffsetOuter1" result="shadowBlurOuter1" stdDeviation="5"/><feComposite in="shadowBlurOuter1" in2="SourceAlpha" operator="out" result="shadowBlurOuter1"/><feColorMatrix in="shadowBlurOuter1" type="matrix" values="0 0 0 0 0   0 0 0 0 0   0 0 0 0 0  0 0 0 0.09 0"/></filter><rect id="c" height="53" rx="5" width="370"/><filter id="d" height="143.4%" width="106.2%" x="-3.1%" y="-17.9%"><feOffset dx="0" dy="2" in="SourceAlpha" result="shadowOffsetOuter1"/><feGaussianBlur in="shadowOffsetOuter1" result="shadowBlurOuter1" stdDeviation="3.5"/><feColorMatrix in="shadowBlurOuter1" type="matrix" values="0 0 0 0 0   0 0 0 0 0   0 0 0 0 0  0 0 0 0.2 0"/></filter></defs><g fill="none" fill-rule="evenodd"><g transform="translate(309 10)"><use fill="#000" filter="url(#b)" xlink:href="#a"/><use fill="#fff" fill-rule="evenodd" stroke="#d6d8db" xlink:href="#a"/><g transform="translate(18 400)"><circle cx="23" cy="24" fill="#bbbfc3" r="23"/><g fill="#6c737a" font-family="SanFranciscoDisplay-Regular, San Francisco Display"><text font-size="19" letter-spacing="-.5"><tspan x="63" y="18">Namey McNamerson</tspan></text><text font-size="16"><tspan x="63" y="66">Hi y’all, TL;DR the Stacks team just rel…</tspan></text><text font-size="16"><tspan x="63" y="43">Stacks 0.29.1 Released</tspan></text><text font-size="14"><tspan x="350.796875" y="16">Fri</tspan></text></g><path d="m364 58.244-7.191-.617-2.809-6.627-2.809 6.627-7.191.617 5.455 4.727-1.635 7.029 6.18-3.728 6.18 3.728-1.635-7.029zm-10 6.152-3.763 2.27.996-4.281-3.323-2.878 4.38-.376 1.71-4.036 1.71 4.036 4.38.376-3.322 2.878.996 4.281z" fill="#979da3" fill-rule="nonzero"/></g><g transform="translate(18 310)"><circle cx="23" cy="24" fill="#bbbfc3" r="23"/><g fill="#6c737a" font-family="SanFranciscoDisplay-Regular, San Francisco Display"><text font-size="19" letter-spacing="-.5"><tspan x="63" y="18">Company Name</tspan></text><text font-size="16"><tspan x="63" y="66">View in browser. Logo. Introducing ne…</tspan></text><text font-size="16"><tspan x="63" y="43">What’s new’s and product updates</tspan></text><text font-size="14"><tspan x="339.804688" y="16">Mon</tspan></text></g><path d="m364 58.244-7.191-.617-2.809-6.627-2.809 6.627-7.191.617 5.455 4.727-1.635 7.029 6.18-3.728 6.18 3.728-1.635-7.029zm-10 6.152-3.763 2.27.996-4.281-3.323-2.878 4.38-.376 1.71-4.036 1.71 4.036 4.38.376-3.322 2.878.996 4.281z" fill="#979da3" fill-rule="nonzero"/></g><g transform="translate(18 220)"><circle cx="23" cy="24" fill="#bbbfc3" r="23"/><g fill="#6c737a" font-family="SanFranciscoDisplay-Regular, San Francisco Display"><text font-size="19" letter-spacing="-.5"><tspan x="63" y="18">Stack Overflo</tspan> <tspan x="164.655273" y="18">w</tspan></text><text font-size="16"><tspan x="63" y="66">Get to know our new private Q&amp;A pro…</tspan></text><text font-size="16"><tspan x="63" y="43">The wait is over - Stack Overflow for T…</tspan></text><text font-size="14"><tspan x="344.808594" y="16">Tue</tspan></text></g><path d="m364 58.244-7.191-.617-2.809-6.627-2.809 6.627-7.191.617 5.455 4.727-1.635 7.029 6.18-3.728 6.18 3.728-1.635-7.029zm-10 6.152-3.763 2.27.996-4.281-3.323-2.878 4.38-.376 1.71-4.036 1.71 4.036 4.38.376-3.322 2.878.996 4.281z" fill="#979da3" fill-rule="nonzero"/></g><g transform="translate(18 130)"><circle cx="23" cy="24" fill="#bbbfc3" r="23"/><g fill="#6c737a" font-family="SanFranciscoDisplay-Regular, San Francisco Display"><text font-size="19" letter-spacing="-.5"><tspan x="63" y="18">Stack Overflo</tspan> <tspan x="164.655273" y="18">w</tspan></text><text font-size="16"><tspan x="63" y="66">Guidelines for anyone posting to Q&amp;A…</tspan></text><text font-size="16"><tspan x="63" y="43">Our new Code of Conduct is here</tspan></text><text font-size="14"><tspan x="320.226562" y="16">8:21 AM</tspan></text></g><path d="m364 58.244-7.191-.617-2.809-6.627-2.809 6.627-7.191.617 5.455 4.727-1.635 7.029 6.18-3.728 6.18 3.728-1.635-7.029zm-10 6.152-3.763 2.27.996-4.281-3.323-2.878 4.38-.376 1.71-4.036 1.71 4.036 4.38.376-3.322 2.878.996 4.281z" fill="#979da3" fill-rule="nonzero"/></g><text fill="#54595f" font-family="SanFranciscoText-Medium, San Francisco Text" font-size="15" font-weight="400"><tspan x="22" y="102">INBOX</tspan></text><g transform="translate(16 17)"><use fill="#000" filter="url(#d)" xlink:href="#c"/><use fill="#fff" fill-rule="evenodd" xlink:href="#c"/><circle cx="332.5" cy="26.5" fill="#bbbfc3" r="17.5"/><text fill="#6c737a" font-family="SanFranciscoText-Regular, San Francisco Text" font-size="18"><tspan x="66" y="33">Search mail</tspan></text><path d="m24 25h20v2h-20zm0-6h20v2h-20zm0 12h20v2h-20z" fill="#54595f"/></g></g><g fill="#e64320" transform="translate(0 117)"><g font-family="Menlo-Regular, Menlo" font-size="15"><text><tspan x="79" y="14">From/Sender name</tspan></text><text><tspan x="115" y="65">Subject line</tspan></text><text><tspan x="115" y="116">Preview text</tspan></text><text><tspan x="0" y="225">When preview text is not </tspan><tspan x="0" y="246">included, email clients </tspan><tspan x="0" y="267">populate this area using </tspan><tspan x="0" y="288">HTML content it finds at </tspan><tspan x="0" y="309">the top of an email.</tspan></text></g><path d="m371.570889 60.5h-135.801358-1v-2h1 135.801358c.48523-3.3922941 3.402639-6 6.929111-6 3.865993 0 7 3.1340068 7 7s-3.134007 7-7 7c-3.526472 0-6.443881-2.6077059-6.929111-6z" fill-rule="nonzero"/><path d="m371.570889 264.5h-135.801358-1v-2h1 135.801358c.48523-3.392294 3.402639-6 6.929111-6 3.865993 0 7 3.134007 7 7s-3.134007 7-7 7c-3.526472 0-6.443881-2.607706-6.929111-6z" fill-rule="nonzero"/><path d="m371.502266 34.2895335-135.905264-23.804529-.985004-.1725288.345058-1.97000895.985004.17252877 135.905263 23.80452898c1.063222-3.2577088 4.386788-5.3229737 7.860378-4.7145559 3.808021.6669951 6.354325 4.2947121 5.68733 8.1027328-.666995 3.8080206-4.294712 6.354325-8.102732 5.68733-3.473591-.6084179-5.897348-3.6803569-5.790033-7.1054979z" fill-rule="nonzero"/><path d="m371.502266 109.289533-135.905264-23.8045285-.985004-.1725288.345058-1.9700089.985004.1725287 135.905263 23.8045295c1.063222-3.257709 4.386788-5.322974 7.860378-4.714556 3.808021.666995 6.354325 4.294712 5.68733 8.102732-.666995 3.808021-4.294712 6.354325-8.102732 5.68733-3.473591-.608418-5.897348-3.680357-5.790033-7.105498z" fill-rule="nonzero"/></g></g></svg>