<svg xmlns="http://www.w3.org/2000/svg" viewBox="0 0 539 422" width="539" height="422">
  <g fill-opacity=".1">
    <path d="M292.23 174.896l-22.903 13.223-22.902-13.23 22.902-13.22 22.902 13.22zm-22.903-12.645l-21.902 12.65 21.902 12.65 21.903-12.65-21.906-12.64zM157.565 226.2v26.734l-23.15-13.366 23.15-13.368zm-22.152 13.368l21.652 12.5v-25.002l-21.652 12.502zm-22.402 64.668l-22.9 13.224-22.9-13.224 22.9-13.222 22.9 13.222zm-22.9-12.646l-21.9 12.645 21.91 12.647 21.9-12.647-21.9-12.645zm179.72 103.183l-22.9 13.223-22.9-13.223 22.91-13.223 22.9 13.223zm-22.9-12.646l-21.9 12.646 21.91 12.646 21.9-12.65-21.9-12.65z"/>
    <path d="M112.386 278.152l-22.402 12.934.25.433 22.402-12.94z"/>
    <path d="M90.36 213.554l21.9 12.646v-25.29l-21.9-12.646v25.29zm22.4-12.934v26.444l-22.9-13.22v-26.447l22.9 13.223zm0 77.315l21.653-12.5-21.652-12.502v25.002zm22.653-12.5L112.26 278.8v-26.734l23.152 13.367z"/>
    <path d="M135.163 265l21.652-12.5-21.652-12.5v25zm22.652-12.5l-23.152 13.366v-26.733l23.152 13.367zm44.555 25.435v26.733l-23.152-13.366 23.152-13.367zm-22.152 13.367l21.652 12.5v-25l-21.652 12.5z"/>
    <path d="M179.968 316.737l21.652-12.5-21.652-12.502v25.002zm22.652-12.5l-23.152 13.366V290.87l23.152 13.366zm-89.61-25.87l21.653 12.5v-25l-21.652 12.5zm22.153 13.367L112.01 278.37 135.164 265v26.734zm67.207-39.667l21.652-12.5-21.652-12.502v25.002zm22.652-12.5l-23.152 13.366V226.2l23.152 13.367z"/>
    <path d="M202.62 252.5l21.653 12.5v-25l-21.652 12.5zm22.153 13.366L201.62 252.5l23.153-13.367v26.733zm44.803 25.003l21.652-12.5-21.652-12.51v25zm22.652-12.5l-23.152 13.36V265l23.152 13.37z"/>
    <path d="M291.604 278.585l22.402 12.934.25-.44-22.402-12.94zM224.774 265l21.65-12.5-21.65-12.5v25zm22.65-12.5l-23.152 13.366v-26.733l23.153 13.367z"/>
    <path d="M225.023 265.434l21.652 12.5v-25l-21.652 12.5zm22.152 13.367l-23.152-13.36 23.152-13.36v26.73z"/>
    <path d="M247.175 277.935l21.65-12.5-21.65-12.502v25.002zm22.65-12.5l-23.15 13.366v-26.73l23.15 13.37z"/>
    <path d="M247.425 278.368l21.65 12.5v-25l-21.65 12.5zm22.15 13.367l-23.15-13.366 23.15-13.37v26.73z"/>
    <path d="M247.175 303.802l21.65-12.5-21.65-12.5v25zm22.65-12.5l-23.15 13.366v-26.733l23.15 13.367z"/>
    <path d="M247.425 304.236l21.65 12.5v-25l-21.65 12.5zm22.15 13.367l-23.15-13.367 23.15-13.367v26.73zm67.208-13.8l21.652-12.5-21.652-12.502v25.01zm22.652-12.5l-23.152 13.365v-26.733l23.152 13.367z"/>
    <path d="M314.38 290.87l21.653-12.5-21.652-12.503v25.002zm22.653-12.5l-23.152 13.364V265l23.16 13.37z"/>
    <path d="M314.63 291.302l21.653 12.5v-25l-21.652 12.5zm22.153 13.366l-23.152-13.366 23.16-13.367v26.733z"/>
    <path d="M359.186 290.87v26.733l-23.152-13.367 23.152-13.367zm-22.152 13.366l21.652 12.5v-25l-21.652 12.5z"/>
    <path d="M336.283 303.802l23.152 13.368-23.152 13.366v-26.734zm.5 25.868l21.652-12.5-21.652-12.502v25.002zM269.576 265l21.652-12.5-21.652-12.5v25zm22.652-12.5l-23.152 13.366v-26.733l23.152 13.367z"/>
    <path d="M247.425 252.5l21.65 12.5v-25l-21.65 12.5zm22.15 13.366l-23.15-13.366 23.15-13.367v26.733zm67.208-39.667l21.652-12.5-21.652-12.51v25.01zm22.652-12.5l-23.152 13.36v-26.73l23.152 13.36z"/>
    <path d="M314.63 213.698l21.653 12.5v-25l-21.652 12.5zm22.153 13.367l-23.152-13.367 23.16-13.367v26.74zm-44.554-.433L269.07 240v-26.735l23.152 13.367zm-22.66-12.5v25.002l21.65-12.502-21.66-12.5z"/>
    <path d="M291.98 226.2v26.733l-23.153-13.366L291.98 226.2zm-22.153 13.367l21.652 12.5v-25.002l-21.66 12.502zm-89.61 0l-23.15 13.366v-26.735l23.15 13.368zm-22.65-12.503v25.003l21.65-12.5-21.65-12.503zm45.053 51.304l-23.152 13.367V265l23.152 13.368zm-22.652-12.502v25.003l21.652-12.5-21.652-12.51z"/>
    <path d="M156.816 304.235l23.15-13.367v26.735l-23.15-13.368zm22.65 12.502v-25.003l-21.65 12.5 21.652 12.503zm.75 26.3l-23.15 13.368V329.67l23.152 13.367zm-22.65-12.5v25.002l21.652-12.51-21.652-12.5zm.25 51.302l-23.153 13.36v-26.73l23.152 13.36zm-22.653-12.51v25l21.653-12.5-21.653-12.51zm112.262 38.37l-23.152 13.36v-26.73l23.152 13.36zm-22.652-12.5v25l21.652-12.5-21.652-12.51z"/>
    <path d="M156.816 330.103l23.15-13.367v26.734l-23.15-13.367zm22.65 12.5v-25l-21.65 12.5 21.652 12.5z"/>
    <path d="M134.413 343.037l23.152-13.367v26.735l-23.152-13.368zm22.652 12.502v-25.01l-21.652 12.5 21.652 12.5z"/>
    <path d="M134.413 368.905l23.152-13.367v26.734l-23.152-13.367zm22.652 12.5v-25l-21.652 12.5 21.652 12.5zm.75-154.773L134.665 240v-13.513l11.45-6.61 11.7 6.755zm-11.7-6.18l-10.952 6.324v12.358l21.653-12.502-10.702-6.18z"/>
    <path d="M134.663 239.134v-12.358l-10.95-6.323-10.702 6.18 21.66 12.5zm-10.95-19.258l11.45 6.61V240l-23.152-13.368 11.7-6.756z"/>
    <path d="M146.364 206.798v13.512l-11.7 6.754v-13.51l11.7-6.756zm-11.2 7.045v12.355l10.7-6.177v-12.35l-10.7 6.18z"/>
    <path d="M123.212 207.23l11.7-6.754 11.702 6.755-11.7 6.76-11.702-6.75zm11.7 6.18l10.702-6.18-10.7-6.177-10.702 6.178 10.7 6.18z"/>
    <path d="M123.962 220.02l10.7 6.178v-12.355l-10.7-6.18v12.358zm11.2-6.466v13.51l-11.7-6.754v-13.512l11.7 6.756z"/>
    <path d="M112.01 200.764l23.153-13.367v13.51l-11.45 6.613-11.702-6.756zm11.702 6.178l10.95-6.322v-12.357l-21.65 12.5 10.7 6.18z"/>
    <path d="M135.163 188.263v12.357l10.95 6.322 10.703-6.178-21.653-12.5zm10.95 19.257l-11.45-6.612v-13.51l23.152 13.366-11.7 6.756zm-33.852-7.19l11.7 6.757v13.222l-11.7 6.75v-26.73zm.5 25.87l10.7-6.18v-12.645l-10.7-6.178V226.2z"/>
    <path d="M146.364 207.375v12.646l10.7 6.18v-25l-10.7 6.18zm11.2 19.69l-11.7-6.756v-13.23l11.7-6.76v26.73zM90.36 174.463v13.512l-11.7 6.755v-13.51l11.7-6.757zm-11.2 7.045v12.356l10.7-6.178V175.33l-10.7 6.18z"/>
    <path d="M67.207 174.896l11.7-6.755 11.7 6.76-11.7 6.76-11.7-6.75zm11.7 6.18l10.7-6.18-10.7-6.178-10.7 6.178 10.7 6.18zm157.067-64.815v13.52l-11.7 6.76v-13.52l11.7-6.75zm-11.2 7.05v12.36l10.7-6.18v-12.36l-10.7 6.18z"/>
    <path d="M212.82 116.694l11.702-6.756 11.7 6.756-11.7 6.755-11.7-6.76zm11.702 6.178l10.7-6.178-10.7-6.18-10.7 6.18 10.7 6.178zm78.658-97.15v13.513l-11.7 6.755V32.48l11.7-6.756zm-11.2 7.046v12.356l10.7-6.178V26.59l-10.7 6.178z"/>
    <path d="M246.425 6.755L258.125 0l45.305 26.156-11.7 6.756-45.305-26.157zm45.304 25.58l10.7-6.18L258.12.578l-10.7 6.178 44.304 25.58zm133.91 90.825l11.7-6.754 11.7 6.756-11.7 6.756-11.7-6.755zm11.7 6.18l10.7-6.18-10.7-6.177-10.7 6.18 10.7 6.177zM180.21 291.3l-23.152 13.367v-13.513l11.45-6.61 11.703 6.755zm-11.7-6.18l-10.952 6.324V303.8l21.653-12.5-10.7-6.18z"/>
    <path d="M157.065 303.803v-12.357l-10.95-6.323-10.702 6.18 21.652 12.5zm-10.95-19.257l11.45 6.61v13.513l-23.152-13.37 11.7-6.76z"/>
    <path d="M168.767 271.468v13.512l-11.7 6.754v-13.51l11.7-6.756zm-11.2 7.045v12.355l10.7-6.177v-12.35l-10.7 6.18zm-23.154-13.08l23.152-13.367v13.512l-11.45 6.612-11.702-6.757zm11.7 6.18l10.952-6.324v-12.36l-21.652 12.5 10.7 6.18z"/>
    <path d="M134.663 265l11.7 6.757v13.222l-11.7 6.75V265zm.5 25.868l10.7-6.178v-12.644l-10.7-6.18v25.002zm33.604-18.822v12.644l10.7 6.178v-25l-10.7 6.178zm11.2 19.69l-11.7-6.757v-13.23l11.7-6.76v26.73zM112.76 174.462v26.734L89.61 187.83l23.15-13.367zM90.61 187.83l21.65 12.5v-25l-21.65 12.5z"/>
    <path d="M135.413 187.83l-23.152 13.368v-26.735l23.16 13.368zm-22.652-12.5v25l21.66-12.5-21.65-12.5zm156.82-13.512l21.9 12.646v-25.29l-21.9-12.646v25.29zm22.4-12.934v26.446l-22.9-13.223v-26.445l22.9 13.222zm45.06 26.012l-23.15 13.367v-13.51l11.45-6.612 11.7 6.76zm-11.7-6.178l-10.95 6.323v12.36l21.66-12.5-10.7-6.18z"/>
    <path d="M313.88 187.397V175.04l-10.95-6.322-10.7 6.178 21.65 12.5zm-10.95-19.256l11.45 6.62v13.51l-23.15-13.37 11.7-6.75z"/>
    <path d="M325.582 155.062v13.512l-11.7 6.756v-13.512l11.7-6.756zm-11.2 7.045v12.356l10.7-6.178V155.93l-10.7 6.178z"/>
    <path d="M302.43 155.495l11.7-6.755 11.702 6.755-11.7 6.756-11.702-6.75zm11.7 6.18l10.702-6.18-10.7-6.178-10.702 6.178 10.7 6.18z"/>
    <path d="M303.18 168.285l10.7 6.178v-12.356l-10.7-6.178v12.35zm11.2-6.467v13.512l-11.7-6.756v-13.512l11.7 6.756z"/>
    <path d="M291.23 149.03l23.15-13.368v13.51l-11.45 6.612-11.7-6.755zm11.7 6.177l10.95-6.323v-12.356l-21.65 12.5 10.7 6.18z"/>
    <path d="M314.38 136.528v12.356l10.952 6.323 10.7-6.178-21.65-12.51zm10.952 19.256l-11.45-6.61V135.66l23.15 13.367-11.7 6.754zm-33.853-7.188l11.7 6.755v13.23l-11.7 6.76V148.6zm.5 25.868l10.7-6.18V155.64l-10.7-6.178v25.002z"/>
    <path d="M325.582 155.64v12.645l10.7 6.18V149.46l-10.7 6.178zm11.2 19.69l-11.7-6.756V155.35l11.7-6.754v26.734zm-44.803-52.602v26.734l-23.16-13.367 23.15-13.367zm-22.16 13.367l21.65 12.5v-25l-21.66 12.5z"/>
    <path d="M314.63 136.095l-23.15 13.367v-26.734l23.15 13.367zm-22.65-12.5v25l21.65-12.5-21.65-12.5zM156.815 355.97l23.15-13.368v13.512l-11.45 6.61-11.7-6.754zm11.7 6.178l10.952-6.323V343.47l-21.653 12.502 10.702 6.178z"/>
    <path d="M179.968 343.47v12.357l10.95 6.323 10.702-6.178-21.652-12.502zm10.95 19.257l-11.45-6.61v-13.513l23.152 13.368-11.7 6.755z"/>
    <path d="M168.267 375.805v-13.51l11.7-6.756v13.51l-11.7 6.75zm11.2-7.044v-12.35l-10.7 6.18v12.36l10.7-6.18z"/>
    <path d="M190.67 362.582l-10.702-6.177v12.356l10.7 6.18v-12.36zm-11.202 6.467v-13.51l11.7 6.75v13.51l-11.7-6.76zm-11.2 6.17v-12.64l-10.703-6.18v25l10.702-6.18zm-11.203-19.69l11.702 6.75v13.22l-11.702 6.75v-26.73zm90.36 26.3l-23.152 13.37v-13.51l11.45-6.61 11.702 6.75zm-11.7-6.18l-10.952 6.32v12.36l21.652-12.5-10.7-6.18z"/>
    <path d="M224.272 394.34v-12.357l-10.95-6.323-10.702 6.18 21.652 12.5zm-10.95-19.257l11.45 6.61v13.514L201.62 381.84l11.7-6.757z"/>
    <path d="M235.974 362.005v13.512l-11.7 6.754v-13.51l11.7-6.75zm-11.2 7.045v12.355l10.7-6.177V362.87l-10.7 6.18z"/>
    <path d="M212.82 362.438l11.702-6.755 11.7 6.755-11.7 6.756-11.7-6.756zm11.702 6.18l10.7-6.18-10.7-6.178-10.7 6.178 10.7 6.18z"/>
    <path d="M213.57 375.228l10.702 6.177V369.05l-10.7-6.18v12.358zm11.202-6.467v13.51l-11.7-6.75v-13.51l11.7 6.76z"/>
    <path d="M201.62 355.972l23.152-13.368v13.512l-11.45 6.61-11.702-6.754zm11.7 6.178l10.952-6.323V343.47l-21.652 12.502 10.7 6.178z"/>
    <path d="M224.773 343.47v12.357l10.95 6.323 10.702-6.178-21.652-12.502zm10.95 19.257l-11.45-6.61v-13.513l23.152 13.368-11.7 6.755zm-33.853-7.188l11.7 6.75v13.22l-11.7 6.75v-26.73zm.5 25.86l10.7-6.18v-12.64l-10.7-6.18v25z"/>
    <path d="M235.974 362.583v12.644l10.7 6.18v-25.002l-10.7 6.178zm11.2 19.69l-11.7-6.757v-13.222l11.7-6.755v26.73zm.25-78.038l-23.15 13.368V304.09l11.45-6.61 11.7 6.755zm-11.7-6.178l-10.95 6.323v12.357l21.65-12.502-10.7-6.178z"/>
    <path d="M224.272 316.737V304.38l-10.95-6.323-10.702 6.178 21.652 12.502zm-10.95-19.257l11.45 6.61v13.513l-23.152-13.368 11.7-6.755z"/>
    <path d="M235.974 284.402v13.51l-11.7 6.756v-13.51l11.7-6.756zm-11.2 7.044v12.356l10.7-6.177v-12.357l-10.7 6.178z"/>
    <path d="M212.82 284.835l11.702-6.756 11.7 6.75-11.7 6.75-11.7-6.76zm11.702 6.178l10.7-6.178-10.7-6.178-10.7 6.178 10.7 6.178z"/>
    <path d="M213.57 297.625l10.702 6.177v-12.356l-10.7-6.178v12.357zm11.202-6.467v13.51l-11.7-6.755v-13.51l11.7 6.755z"/>
    <path d="M201.62 278.368L224.772 265v13.512l-11.45 6.612-11.702-6.756zm11.7 6.178l10.952-6.322v-12.358l-21.652 12.502 10.7 6.178z"/>
    <path d="M224.773 265.866v12.358l10.95 6.322 10.702-6.178-21.652-12.502zm10.95 19.258l-11.45-6.612V265l23.152 13.368-11.7 6.756zm-33.853-7.19l11.7 6.757v13.23l-11.7 6.76v-26.74zm.5 25.868l10.7-6.178V284.98l-10.7-6.18v25.002z"/>
    <path d="M235.974 284.98v12.644l10.7 6.178v-25l-10.7 6.177zm11.2 19.688l-11.7-6.756v-13.22l11.7-6.757v26.733zm-67.33-64.885l22.4-12.935-.25-.433-22.4 12.935z"/>
    <path d="M247.175 329.67l21.65-12.5-21.65-12.502v25.002zm22.65-12.5l-23.15 13.366v-26.734l23.15 13.368z"/>
    <path d="M225.023 317.17l21.652 12.5v-25.002l-21.652 12.502zm22.152 13.366l-23.152-13.366 23.152-13.368v26.734zm.25 25.436l21.65 12.5V343.47l-21.65 12.502zm22.15 13.366l-23.15-13.366 23.15-13.368v26.734z"/>
    <path d="M247.175 381.406l21.65-12.5-21.65-12.5v25zm22.65-12.5l-23.15 13.366V355.54l23.15 13.366z"/>
    <path d="M247.175 355.538l21.65-12.5-21.65-12.502v25.002zm22.65-12.5l-23.15 13.366V329.67l23.15 13.367z"/>
    <path d="M225.023 343.037l21.652 12.5v-25l-21.652 12.5zm22.152 13.367l-23.152-13.367 23.152-13.367v26.734zM157.19 265.65l11.2 6.468.252-.433-11.2-6.468zm-66.83 89.89v26.732l-23.152-13.366 23.15-13.367zm-22.153 13.366l21.652 12.5v-25l-21.66 12.5z"/>
    <path d="M67.957 394.34l21.65-12.5-21.65-12.502v25.002zm22.65-12.5l-23.15 13.366v-26.734l23.15 13.367z"/>
    <path d="M90.608 355.972l-23.15 13.367V342.6l23.15 13.368zm-22.65-12.502v25.003l21.65-12.5-21.65-12.503z"/>
    <path d="M44.805 381.84l23.152-13.368v26.735L44.805 381.84zm22.652 12.5v-25l-21.652 12.5 21.652 12.503z"/>
    <path d="M68.207 368.905l-23.152 13.367v-13.51l11.45-6.612 11.702 6.755zm-11.7-6.178l-10.952 6.323v12.356l21.652-12.5-10.7-6.18z"/>
    <path d="M45.054 381.406V369.05l-10.95-6.323-10.702 6.178 21.652 12.5zm-10.95-19.256l11.45 6.61v13.512l-23.152-13.367 11.7-6.755z"/>
    <path d="M56.756 349.072v13.51l-11.7 6.756v-13.51l11.7-6.756zm-11.2 7.044v12.356l10.7-6.178v-12.356l-10.7 6.178zM22.4 343.036l23.152-13.366v13.51l-11.45 6.614-11.702-6.757zm11.7 6.18l10.952-6.323v-12.357l-21.652 12.5 10.7 6.18z"/>
    <path d="M22.652 342.604l11.7 6.757v13.23l-11.7 6.76v-26.74zm.5 25.868l10.7-6.178V349.65l-10.7-6.18v25.002zm33.604-18.823v12.64l10.7 6.18v-25l-10.7 6.18zm11.2 19.68l-11.7-6.76v-13.22l11.7-6.76v26.73z"/>
    <path d="M45.18 343.253l11.2 6.468.25-.43-11.2-6.47zm45.18 38.153l21.9-12.646v-64.092l-21.9 12.646v64.092zm22.4-77.604v65.247l-22.9 13.22v-65.25l22.9-13.23zm-89.608 38.802l21.652-12.5-21.652-12.5v25zm22.652-12.5L22.652 343.47v-26.733l23.152 13.367z"/>
    <path d="M23.402 343.037L.25 356.405V329.67l23.152 13.367zm-1 0L.75 330.537v25.002l21.652-12.51z"/>
    <path d="M0 355.972l23.152-13.368v26.735L0 355.97zm1 0l21.652 12.5v-25L1 355.97zm380.838-155.208l-23.152 13.367V187.4l23.152 13.367zm-22.652-12.5v25l21.652-12.5-21.652-12.5zm.25 51.302l-23.152 13.367v-26.735l23.152 13.368zm-22.652-12.502v25.003l21.652-12.5-21.652-12.503z"/>
    <path d="M358.436 187.83l23.152-13.367v26.735l-23.152-13.368zm22.652 12.5v-25l-21.652 12.5 21.652 12.5z"/>
    <path d="M336.033 200.764l23.152-13.367v26.734l-23.152-13.36zm22.652 12.5v-25l-21.652 12.5 21.652 12.5z"/>
    <path d="M336.033 226.632l23.152-13.367V240l-23.152-13.368zm1 0l21.652 12.502V214.13l-21.652 12.5z"/>
    <path d="M358.436 213.698l23.152-13.367v13.52l-11.45 6.61-11.702-6.75zm11.7 6.18l10.952-6.324v-12.357l-21.652 12.5 10.7 6.18z"/>
    <path d="M381.588 201.197v12.357l10.95 6.323 10.702-6.18-21.652-12.5zm10.95 19.257l-11.45-6.61V200.33l23.152 13.367-11.7 6.756z"/>
    <path d="M369.887 233.532V220.02l11.7-6.754v13.51l-11.7 6.756zm11.2-7.045v-12.355l-10.7 6.177v12.35l10.7-6.18z"/>
    <path d="M392.29 220.31l-10.702-6.178v12.355l10.7 6.18V220.31zm-11.202 6.466v-13.51l11.7 6.754v13.512l-11.7-6.756zm-11.2 6.178V220.31l-10.702-6.18v25.003l10.7-6.18zm-11.202-19.69l11.7 6.757v13.23l-11.7 6.76v-26.74zm44.554-25.433l23.152-13.36v26.73l-23.152-13.37zm22.652 12.5v-25l-21.652 12.5 21.652 12.5zm-66.456-12.5l-23.152 13.37v-26.73l23.152 13.37zm-22.652-12.5v25l21.652-12.5-21.652-12.5z"/>
    <path d="M337.033 200.764L313.88 214.13v-26.733l23.153 13.367zm-22.652-12.5v25l21.66-12.5-21.65-12.5z"/>
    <path d="M313.63 187.83l23.153-13.367v26.735L313.63 187.83zm22.653 12.5v-25l-21.652 12.5 21.66 12.5zm-22.277 13.152l-22.402 12.934.25.433 22.402-12.94zm45.18 77.388l21.652-12.5-21.652-12.503v25.002zm22.652-12.5l-23.152 13.364V265l23.152 13.37z"/>
    <path d="M336.783 277.935l21.652-12.5-21.652-12.502v25.002zm22.652-12.5L336.283 278.8v-26.734l23.152 13.367z"/>
    <path d="M337.034 278.368l21.652 12.5v-25l-21.652 12.5zm22.152 13.366l-23.152-13.365L359.186 265v26.734z"/>
    <path d="M336.783 252.067V278.8l-23.152-13.367 23.16-13.367zm-22.152 13.367l21.66 12.5v-25l-21.65 12.5zm-67.45-65.104l21.65-12.5-21.65-12.5v25zm22.65-12.5l-23.15 13.37v-26.734l23.15 13.367z"/>
    <path d="M225.023 187.83l21.652 12.5v-25l-21.652 12.5zm22.152 13.367l-23.152-13.367 23.152-13.367v26.734zm45.054-26.3l-23.16 13.366V161.53l23.15 13.367zm-22.66-12.502v25.002l21.65-12.5-21.66-12.502z"/>
    <path d="M292.23 200.764l-23.153 13.367V187.4l23.152 13.367zm-22.653-12.5v25l21.652-12.5-21.66-12.5z"/>
    <path d="M246.425 174.896l23.15-13.367v26.73l-23.15-13.37zm22.65 12.5v-25l-21.65 12.5 21.65 12.5z"/>
    <path d="M246.425 200.764l23.15-13.367v26.734l-23.15-13.36zm22.65 12.5v-25l-21.65 12.5 21.65 12.5zm.75-51.302l-23.15 13.367v-26.74l23.15 13.36zm-22.65-12.5v25l21.65-12.5-21.65-12.5z"/>
    <path d="M247.425 174.896l-23.152 13.367V161.53l23.152 13.367zm-22.652-12.5v25l21.652-12.5-21.652-12.5z"/>
    <path d="M224.023 161.962l23.15-13.367v26.734l-23.15-13.37zm22.65 12.5v-25l-21.65 12.5 21.652 12.5zm.75 26.302l-23.15 13.367V187.4l23.152 13.367zm-22.65-12.5v25l21.652-12.5-21.652-12.5z"/>
    <path d="M201.62 200.764l23.152-13.367v26.734l-23.152-13.36zm22.652 12.5v-25l-21.652 12.5 21.652 12.5z"/>
    <path d="M201.62 226.632l23.152-13.367V240l-23.152-13.368zm22.652 12.502V214.13l-21.652 12.5 21.652 12.503zm-89.86-51.303l23.153-13.36v26.73l-23.152-13.37zm22.653 12.5v-25l-21.652 12.5 21.652 12.5zm112.51-64.67l21.653-12.5-21.652-12.5v25zm22.653-12.5l-23.152 13.37V109.8l23.152 13.367z"/>
    <path d="M247.175 122.728l21.65-12.5-21.65-12.502v25.002zm22.65-12.5l-23.15 13.366V96.86l23.15 13.367z"/>
    <path d="M247.425 123.16l21.65 12.5v-25l-21.65 12.5zm22.15 13.368l-23.15-13.367 23.15-13.36v26.74z"/>
    <path d="M247.175 96.86v26.734l-23.152-13.367 23.152-13.367zm-22.152 13.367l21.652 12.5v-25l-21.652 12.5zm156.815 38.802l-22.902 13.22-22.903-13.22 22.903-13.23 22.902 13.22zm-22.902-12.65l-21.903 12.64 21.903 12.64 21.902-12.65-21.902-12.65z"/>
    <path d="M359.186 135.95l21.902 12.645v-25.29l-21.902-12.645v25.29zm22.402-12.934v26.446l-22.902-13.223v-26.45l22.902 13.22zm45.055 26.013l-23.153 13.36v-13.51l11.45-6.61 11.707 6.75zm-11.7-6.18l-10.952 6.32v12.35l21.66-12.5-10.7-6.18z"/>
    <path d="M403.49 161.53v-12.357l-10.95-6.323-10.702 6.18 21.652 12.5zm-10.95-19.257l11.45 6.61v13.513l-23.152-13.367 11.7-6.76z"/>
    <path d="M415.192 129.195v13.51l-11.702 6.757V135.95l11.702-6.756zm-11.202 7.044v12.35l10.702-6.18v-12.35l-10.702 6.17z"/>
    <path d="M392.04 129.628l11.7-6.756 11.7 6.756-11.7 6.756-11.7-6.756zm11.7 6.178l10.7-6.178-10.7-6.178-10.7 6.178 10.7 6.178z"/>
    <path d="M392.79 142.418l10.7 6.178V136.24l-10.7-6.18v12.358zm11.2-6.467v13.51l-11.7-6.75V129.2l11.7 6.754z"/>
    <path d="M380.838 123.16l23.152-13.366v13.51l-11.45 6.612-11.702-6.755zm11.7 6.18l10.952-6.324V110.66l-21.652 12.5 10.7 6.18z"/>
    <path d="M403.99 110.66v12.356l10.952 6.323 10.7-6.18-21.65-12.5zm10.952 19.256l-11.45-6.61v-13.512l23.15 13.367-11.7 6.76zm-33.854-7.188l11.7 6.755v13.223l-11.7 6.756v-26.734zm.5 25.868l10.7-6.18v-12.644l-10.7-6.178v25.002z"/>
    <path d="M415.192 129.772v12.645l10.7 6.18v-25.003l-10.7 6.178zm11.2 19.69l-11.7-6.756v-13.223l11.7-6.755v26.734zM381.59 96.86v26.734l-23.153-13.367L381.59 96.86zm-22.153 13.367l21.652 12.5v-25l-21.66 12.5z"/>
    <path d="M404.24 110.227l-23.152 13.367V96.86l23.152 13.367zm-22.652-12.5v25l21.652-12.5-21.652-12.5zm67.206 64.09l21.902 12.647v-25.29l-21.902-12.646v25.29zm22.402-12.933v26.446l-22.902-13.223v-26.445l22.902 13.222zm10.7 19.98V155.35l11.703-6.755v13.51l-11.71 6.757zm11.203-7.046v-12.356l-10.71 6.178v12.357l10.7-6.18z"/>
    <path d="M504.3 155.64l-10.7-6.178v12.356l10.7 6.18V155.64zm-11.2 6.467v-13.51l11.7 6.754v13.52l-11.7-6.75z"/>
    <path d="M470.446 149.03l23.152-13.368v13.51l-11.45 6.612-11.702-6.755zm11.7 6.177l10.952-6.323v-12.356l-21.652 12.5 10.7 6.18z"/>
    <path d="M493.6 136.528v12.356l10.95 6.323 10.7-6.178-21.65-12.51zm10.95 19.256l-11.45-6.61V135.66l23.15 13.367-11.7 6.754zm-33.854-7.188l11.7 6.755v13.23l-11.7 6.76V148.6zm.5 25.868l10.7-6.18V155.64l-10.7-6.178v25.002z"/>
    <path d="M471.196 122.728v26.734l-23.152-13.367 23.152-13.367zm-22.152 13.367l21.652 12.5v-25l-21.652 12.5z"/>
    <path d="M493.6 109.793v26.735l-23.153-13.367L493.6 109.8zm-22.153 13.367l21.652 12.5v-25l-21.66 12.5z"/>
    <path d="M493.85 136.095l-23.153 13.367v-26.734l23.152 13.367zm-22.653-12.5v25l21.652-12.5-21.66-12.5zm-134.414-78.47v26.733L313.63 58.49l23.153-13.366zM314.63 58.49l21.653 12.502V45.99l-21.652 12.5zm134.414 129.34l-23.15 13.368v-26.735l23.15 13.368zm-22.65-12.5v25l21.65-12.5-21.65-12.5z"/>
    <path d="M425.643 174.896l23.15-13.367v26.73l-23.15-13.37zm22.65 12.5v-25l-21.65 12.5 21.65 12.5z"/>
    <path d="M471.446 174.896l-23.152 13.367V161.53l23.152 13.367zm-22.652-12.5v25l21.652-12.5-21.652-12.5zm-22.15 12.5l-23.153 13.367V161.53l23.16 13.367zm-22.653-12.5v25l21.66-12.5-21.65-12.5z"/>
    <path d="M403.24 161.962l23.152-13.367v26.734l-23.152-13.37zm22.652 12.5v-25l-21.652 12.5 21.652 12.5zm-44.054-25.433l-23.152 13.36v-26.73l23.152 13.36zm-22.652-12.51v25l21.652-12.5-21.652-12.51zm-89.61-52.32l21.902 12.64V71.57l-21.902-12.646v25.29zm22.402-12.94v26.45L269.076 84.5V58.058l22.902 13.223zm45.055 26.01l-23.153 13.37v-13.5l11.452-6.613 11.7 6.756zm-11.7-6.18l-10.953 6.33v12.357l21.658-12.5-10.7-6.18z"/>
    <path d="M313.88 109.794V97.437l-10.95-6.322-10.7 6.178 21.65 12.5zm-10.95-19.257l11.45 6.612v13.51l-23.15-13.37 11.7-6.76z"/>
    <path d="M325.582 77.46v13.51l-11.7 6.756v-13.51l11.7-6.757zm-11.2 7.043V96.86l10.7-6.178V78.325l-10.7 6.178z"/>
    <path d="M302.43 77.892l11.7-6.756 11.702 6.756-11.7 6.756-11.702-6.756zm11.7 6.178l10.702-6.178-10.7-6.178-10.702 6.178 10.7 6.178z"/>
    <path d="M303.18 90.682l10.7 6.178V84.503l-10.7-6.178v12.357zm11.2-6.467v13.51l-11.7-6.755V77.46l11.7 6.756z"/>
    <path d="M291.23 71.425l23.15-13.367v13.51l-11.45 6.612-11.7-6.755zm11.7 6.178l10.95-6.323V58.924l-21.65 12.5 10.7 6.18z"/>
    <path d="M314.38 58.924V71.28l10.952 6.323 10.7-6.178-21.65-12.5zm10.952 19.256l-11.45-6.61V58.057l23.15 13.367-11.7 6.755zm-33.853-7.188l11.7 6.755V90.97l-11.7 6.756V70.992zm.5 25.868l10.7-6.18V78.037l-10.7-6.178v25z"/>
    <path d="M325.582 78.036V90.68l10.7 6.18V71.858l-10.7 6.178zm11.2 19.69l-11.7-6.756V77.747l11.7-6.755v26.734zM291.98 45.124v26.734L268.828 58.49l23.152-13.366zM269.828 58.49l21.652 12.502V45.99l-21.652 12.5z"/>
    <path d="M314.63 58.49l-23.15 13.37V45.124l23.152 13.367zm-22.65-12.5v25.002l21.65-12.5-21.65-12.502zm45.053 77.17l-23.153 13.37v-26.734l23.153 13.367zm-22.652-12.5v25.002l21.66-12.5-21.65-12.502z"/>
    <path d="M359.436 110.227l-23.152 13.367V96.86l23.152 13.367zm-22.652-12.5v25l21.652-12.5-21.652-12.5z"/>
    <path d="M359.436 84.36l-23.152 13.366V70.992l23.152 13.367zm-22.652-12.502V96.86l21.652-12.5-21.652-12.502z"/>
    <path d="M359.436 58.49l-23.152 13.37V45.124l23.152 13.367zm-22.652-12.5v25.002l21.652-12.5-21.652-12.502zm22.652 115.972l-23.152 13.367v-26.74l23.152 13.36zm-22.652-12.5v25l21.652-12.5-21.652-12.5zm-23.153-39.235l23.16-13.367v26.73l-23.15-13.368zm22.66 12.5v-25l-21.65 12.5 21.66 12.5zm-156.07 13.368l-23.15 13.367V135.95l11.45-6.61 11.7 6.755zm-11.7-6.18l-10.95 6.324v12.35l21.65-12.5-10.7-6.18z"/>
    <path d="M157.065 148.596V136.24l-10.95-6.324-10.702 6.18 21.652 12.5zm-10.95-19.257l11.45 6.61v13.51l-23.152-13.37 11.7-6.76z"/>
    <path d="M168.767 116.26v13.512l-11.7 6.756v-13.512l11.7-6.755zm-11.2 7.045v12.357l10.7-6.18v-12.355l-10.7 6.178z"/>
    <path d="M145.614 116.694l11.7-6.756 11.702 6.756-11.7 6.755-11.702-6.76zm11.7 6.178l10.702-6.178-10.7-6.18-10.702 6.18 10.7 6.178z"/>
    <path d="M146.364 129.483l10.7 6.18v-12.358l-10.7-6.178v12.356zm11.2-6.467v13.512l-11.7-6.756v-13.51l11.7 6.754z"/>
    <path d="M134.413 110.227l23.152-13.368v13.51l-11.45 6.61-11.702-6.76zm11.7 6.178l10.952-6.323V97.726l-21.652 12.5 10.7 6.18z"/>
    <path d="M157.566 97.726v12.356l10.95 6.323 10.702-6.178-21.652-12.5zm10.95 19.256l-11.45-6.61V96.858l23.152 13.367-11.7 6.755zm-33.853-7.19l11.7 6.757v13.22l-11.7 6.75v-26.73zm.5 25.87l10.7-6.18V116.84l-10.7-6.178v25z"/>
    <path d="M168.767 116.838v12.645l10.7 6.178v-25l-10.7 6.18zm11.2 19.69l-11.7-6.756V116.55l11.7-6.757v26.735zm-44.804-52.602v26.734L112.01 97.293l23.153-13.367zM113.01 97.293l21.653 12.5v-25l-21.652 12.5z"/>
    <path d="M157.565 70.992v26.734l-23.15-13.367 23.15-13.37zM135.413 84.36l21.652 12.5v-25l-21.652 12.5z"/>
    <path d="M157.815 97.293l-23.15 13.367V83.926l23.15 13.367zm-22.65-12.5v25l21.65-12.5-21.652-12.5zm21.65 64.236l23.152-13.37v26.73l-23.15-13.37zm22.652 12.5v-25.01l-21.652 12.5 21.653 12.5z"/>
    <path d="M157.815 149.03l-22.9 13.22-22.905-13.22 22.904-13.224 22.9 13.223zm-22.902-12.647L113.01 149.03l21.903 12.644 21.903-12.645-21.903-12.65z"/>
    <path d="M157.815 149.03l-23.15 13.366v-26.734l23.15 13.367zm-22.65-12.502v25.002l21.65-12.5-21.652-12.502zm67.455-39.235l-22.902 13.223-22.653-13.08V70.993l45.555 26.3zm-45.055-25.435v25.29l22.153 12.79 21.902-12.645-44.055-25.435z"/>
    <path d="M202.62 123.16l-23.152 13.368v-26.734l23.152 13.367zm-22.652-12.5v25.002l21.652-12.5-21.652-12.502zm-44.805-.867v26.735L112.01 123.16l23.153-13.367zM113.01 123.16l21.653 12.5v-25l-21.652 12.5zm111.763 38.658v26.445l-45.556-26.3 22.904-13.223 22.66 13.078zm-22.653-12.5l-21.902 12.644 44.055 25.435v-25.29l-22.153-12.79zm291.73 64.38l-22.903 13.223-22.903-13.22 22.903-13.22 22.903 13.22zm-22.903-12.645l-21.903 12.645 21.903 12.646 21.902-12.646-21.91-12.645z"/>
    <path d="M448.794 239.133l21.652-12.5-21.652-12.502v25.01zm22.652-12.5L448.294 240v-26.735l23.152 13.367z"/>
    <path d="M426.643 226.632l21.65 12.5v-25l-21.65 12.5zM448.793 240l-23.15-13.367 23.15-13.367V240z"/>
    <path d="M448.044 213.698l23.152-13.367v26.74l-23.152-13.37zm22.652 12.5v-25l-21.652 12.5 21.652 12.5z"/>
    <path d="M471.446 200.764l-23.152 13.367V187.4l23.152 13.367zm-22.652-12.5v25l21.652-12.5-21.652-12.5z"/>
    <path d="M449.044 213.698l-23.15 13.367V200.33l23.15 13.368zm-22.65-12.5v25l21.65-12.5-21.65-12.5z"/>
    <path d="M425.643 200.764l23.15-13.367v26.734l-23.15-13.36zm22.65 12.5v-25l-21.65 12.5 21.65 12.5zm-21.9 64.67l21.65-12.5-21.65-12.5v25zm22.65-12.5l-23.15 13.367v-26.73l23.15 13.37z"/>
    <path d="M404.24 265.434l21.653 12.5v-25l-21.652 12.5zm22.153 13.367l-23.153-13.36 23.157-13.36v26.73zm22.65-39.23l21.653 12.5v-25l-21.652 12.51zm22.153 13.37l-23.152-13.36 23.152-13.37v26.74z"/>
    <path d="M425.643 252.5l22.9-13.223 22.904 13.223-22.903 13.223-22.9-13.223zm22.9 12.645l21.904-12.645-21.903-12.645-21.9 12.645 21.9 12.645z"/>
    <path d="M449.044 239.566l-23.15 13.367v-26.735l23.15 13.368zm-22.65-12.502v25.003l21.65-12.5-21.65-12.503z"/>
    <path d="M426.643 252.5l-23.152 13.367v-26.734l23.16 13.367zM403.99 240v25l21.653-12.5-21.652-12.502z"/>
    <path d="M403.24 239.566l23.152-13.368v26.735l-23.152-13.367zm22.652 12.5v-25.002l-21.652 12.502 21.652 12.5zm90.36 78.037L493.1 343.47v-13.51l11.45-6.612 11.7 6.755zm-11.702-6.178l-10.95 6.323v12.356l21.65-12.5-10.7-6.18z"/>
    <path d="M493.098 342.604v-12.356l-10.95-6.323-10.702 6.178 21.652 12.5zm-10.95-19.256l11.45 6.61v13.512l-23.152-13.367 11.7-6.755z"/>
    <path d="M504.8 310.27v13.51l-11.7 6.756v-13.51l11.7-6.756zm-11.2 7.044v12.356l10.7-6.177v-12.357l-10.7 6.178z"/>
    <path d="M481.648 310.703l11.7-6.757 11.7 6.757-11.7 6.756-11.7-6.76zm11.7 6.178l10.702-6.17-10.702-6.18-10.7 6.18 10.7 6.18z"/>
    <path d="M482.397 323.493l10.702 6.177v-12.356l-10.71-6.178v12.357zm11.202-6.467v13.51l-11.71-6.755v-13.51l11.7 6.76z"/>
    <path d="M470.446 304.235l23.152-13.367v13.512l-11.45 6.612-11.702-6.757zm11.7 6.18l10.952-6.324v-12.35l-21.652 12.5 10.7 6.18z"/>
    <path d="M493.6 291.734v12.357l10.95 6.33 10.7-6.18-21.65-12.5zm10.95 19.258l-11.45-6.612v-13.512l23.15 13.367-11.7 6.757zm-33.854-7.19l11.7 6.757v13.22l-11.7 6.75V303.8zm.5 25.868l10.7-6.178v-12.644l-10.7-6.18v25.002z"/>
    <path d="M504.8 310.848v12.644l10.7 6.178v-25.002l-10.7 6.18zm11.2 19.688l-11.7-6.755v-13.22l11.7-6.76v26.74zm-44.804-52.6v26.732l-23.152-13.366 23.152-13.367zm-22.152 13.366l21.652 12.5v-25l-21.652 12.5z"/>
    <path d="M493.85 291.302l-23.153 13.367v-26.74l23.153 13.37zM471.196 278.8v25.002l21.652-12.5-21.653-12.502zm67.456 64.236L515.5 356.404V329.67l23.153 13.367zM516 330.536v25.002l21.653-12.502-21.652-12.5z"/>
    <path d="M516.25 355.972L493.1 369.34v-26.736l23.15 13.368zM493.6 343.47v25.003l21.65-12.5-21.65-12.503z"/>
    <path d="M492.85 343.037L516 329.67v26.735l-23.152-13.368zm22.65 12.502v-25.01l-21.65 12.5 21.65 12.5zm23.153-193.58L515.5 175.33v-26.735l23.153 13.367zM516 149.46v25l21.653-12.5L516 149.46zM492.85 291.3L516 277.935v26.734l-23.152-13.37zm22.65 12.5v-25l-21.65 12.5 21.65 12.5z"/>
    <path d="M538.653 317.17L515.5 330.537v-26.735l23.153 13.368zM516 304.668v25.003l21.653-12.5L516 304.67zm21.903-246.61V33.056l-21.652 12.5 21.66 12.502zm.5-25.868v26.734L515.25 45.557l23.153-13.367zm-112.76 323.782l23.15-13.368v26.735l-23.15-13.37zm22.65 12.5V343.47l-21.65 12.502 21.65 12.5z"/>
    <path d="M403.24 343.037l23.152-13.367v26.735l-23.152-13.368zm22.652 12.502v-25.01l-21.652 12.5 21.652 12.5zm45.554-25.44l-23.152 13.36v-26.73l23.152 13.36zm-22.652-12.5v25l21.652-12.5-21.652-12.5zm0-26.74l21.652-12.5-21.652-12.51v25zm22.652-12.5l-23.152 13.36V265l23.152 13.37z"/>
    <path d="M426.643 278.368l21.65 12.5v-25l-21.65 12.5zm22.15 13.367l-23.15-13.366 23.15-13.37v26.73z"/>
    <path d="M471.446 304.235l-23.152 13.368v-26.735l23.152 13.367zm-22.652-12.5v25.002l21.652-12.502-21.652-12.5zm.25 51.302l-23.15 13.368V329.67l23.15 13.367zm-22.65-12.5v25.002l21.65-12.51-21.65-12.5zm-23.154 64.236l23.152-13.368v26.735l-23.152-13.367zm22.652 12.5V382.27l-21.652 12.504 21.652 12.5z"/>
    <path d="M449.044 394.773l-23.15 13.367v-26.735l23.15 13.368zm-22.65-12.502v25.01l21.65-12.5-21.65-12.5zm22.65-90.97l-23.15 13.37v-26.73l23.15 13.37zm-22.65-12.5v25.01l21.65-12.5-21.65-12.5z"/>
    <path d="M449.044 317.17l-23.15 13.367v-26.735l23.15 13.368zm-22.65-12.502v25.003l21.65-12.5-21.65-12.5zm.25 77.17l-23.153 13.37v-13.514l11.45-6.61 11.71 6.755zm-11.702-6.178l-10.95 6.323v12.358l21.65-12.5-10.7-6.18z"/>
    <path d="M403.49 394.34v-12.357l-10.95-6.323-10.702 6.18 21.652 12.5zm-10.95-19.257l11.45 6.61v13.514l-23.152-13.368 11.7-6.76z"/>
    <path d="M415.192 362.005v13.512l-11.702 6.754v-13.51l11.702-6.75zm-11.202 7.045v12.355l10.702-6.177V362.87l-10.702 6.18z"/>
    <path d="M392.04 362.438l11.7-6.755 11.7 6.755-11.7 6.756-11.7-6.756zm11.7 6.18l10.7-6.18-10.7-6.178-10.7 6.178 10.7 6.18z"/>
    <path d="M392.79 375.228l10.7 6.177V369.05l-10.7-6.18v12.358zm11.2-6.467v13.51l-11.7-6.75v-13.51l11.7 6.76z"/>
    <path d="M380.838 355.972l23.152-13.368v13.512l-11.45 6.61-11.702-6.754zm11.7 6.178l10.952-6.323V343.47l-21.652 12.502 10.7 6.178z"/>
    <path d="M403.99 343.47v12.357l10.952 6.323 10.7-6.178-21.65-12.502zm10.952 19.257l-11.45-6.61v-13.513l23.15 13.368-11.7 6.755zm-33.854-7.188l11.7 6.75v13.22l-11.7 6.75v-26.73zm.5 25.86l10.7-6.18v-12.64l-10.7-6.18v25z"/>
    <path d="M415.192 362.583v12.644l10.7 6.18v-25.002l-10.7 6.178zm11.2 19.69l-11.7-6.757v-13.222l11.7-6.755v26.73zm-44.804-52.603v26.734l-23.152-13.367 23.152-13.367zm-22.152 13.367l21.652 12.5v-25l-21.652 12.5z"/>
    <path d="M404.24 343.037l-23.152 13.368V329.67l23.152 13.367zm-22.652-12.5v25.002l21.652-12.51-21.652-12.5zm67.456 38.37l-23.15 13.365v-26.734l23.15 13.367zm-22.65-12.503v25.002l21.65-12.5-21.65-12.502z"/>
    <path d="M381.838 355.972l-23.152 13.367V342.6l23.152 13.368zm-22.652-12.502v25.003l21.652-12.5-21.652-12.503zm179.217-181.94v26.733l-23.152-13.367 23.16-13.367zm-22.152 13.366l21.66 12.5v-25l-21.65 12.5zm22.41-38.8L515.5 149.46v-26.734l23.153 13.367zM516 123.593v25.002l21.653-12.5L516 123.593zm0 180.497l21.903 12.647v-25.29L516 278.8v25.29zm22.403-12.932v26.445L515.5 304.38v-26.445l22.903 13.223zm-179.967.144l23.152-13.367v26.734l-23.152-13.37zm22.652 12.5v-25l-21.652 12.5 21.652 12.5zM516 226.2l21.652-12.5L516 201.198V226.2zm22.652-12.5L515.5 227.066v-26.734l23.152 13.367z"/>
    <path d="M493.85 213.698l21.65 12.5v-25l-21.65 12.5zM516 227.065l-23.15-13.367L516 200.33v26.735z"/>
    <path d="M515.25 200.764l23.153-13.367v26.734l-23.153-13.36zm22.653 12.5v-25l-21.652 12.5 21.66 12.5z"/>
    <path d="M515.25 226.632l23.153-13.367V240l-23.152-13.368zm22.653 12.502V214.13l-21.652 12.5 21.66 12.503zM515.25 149.03l23.153-13.368v26.734L515.25 149.03zm22.653 12.5v-25.002l-21.652 12.5 21.66 12.502zm.75 26.3L515.5 201.2v-26.735l23.153 13.368zM516 175.33v25l21.653-12.5L516 175.33z"/>
    <path d="M516.25 200.764L493.1 214.13v-26.733l23.15 13.367zm-22.65-12.5v25l21.65-12.5-21.65-12.5z"/>
    <path d="M492.85 187.83L516 174.464V201.2l-23.152-13.37zm22.65 12.5v-25l-21.65 12.5 21.65 12.5zm-21.9 142.563v26.445l-45.556-26.3 22.903-13.224 22.652 13.08zm-22.653-12.5l-21.903 12.644 44.055 25.435v-25.29l-22.16-12.79zm-66.957-90.97v26.443l-45.555-26.3 22.903-13.223 22.652 13.08zm-22.652-12.503l-21.903 12.646L403.49 265v-25.29l-22.152-12.79zM538.653 58.49L515.5 71.86V45.124l23.153 13.367zM516 45.99v25.002l21.653-12.5L516 45.99z"/>
    <path d="M493.6 187.686v26.446l-45.556-26.302 22.903-13.222 22.652 13.078zm-22.653-12.5l-21.903 12.645 44.056 25.44v-25.29l-22.156-12.79zm-179.343 77.53l22.402 12.934.25-.433-22.402-12.934zm23.026 64.454l-22.9 13.222-22.904-13.222 22.903-13.224 22.9 13.224zm-22.9-12.647l-21.904 12.647 21.903 12.645 21.9-12.645-21.9-12.647zm112.26-.72v13.512l-11.7 6.754v-13.51l11.7-6.76zm-11.2 7.045v12.355l10.7-6.177v-12.358l-10.7 6.18z"/>
    <path d="M380.838 304.235l11.7-6.755 11.702 6.755-11.7 6.757-11.702-6.757zm11.7 6.18l10.702-6.18-10.7-6.178-10.702 6.178 10.7 6.18zM493.6 135.95l21.903 12.645v-25.29l-21.9-12.645v25.29zm22.4-12.934v26.446l-22.902-13.223v-26.45L516 123.01zm22.652-38.657L515.5 97.72V70.99l23.152 13.366zM516 71.85v25.01l21.652-12.5L516 71.857z"/>
    <path d="M516.25 97.293L493.1 110.66V83.926l23.15 13.367zm-22.65-12.5v25l21.65-12.5-21.65-12.5z"/>
    <path d="M492.85 84.36L516 70.99v26.734L492.848 84.36zm22.65 12.5v-25l-21.65 12.5 21.65 12.5z"/>
    <path d="M493.6 84.214v26.446l-45.556-26.3 22.903-13.224L493.6 84.214zm-22.653-12.5L449.044 84.36l44.055 25.434v-25.29l-22.16-12.79z"/>
    <path d="M448.794 58.347l21.902 12.645v-25.29l-21.902-12.646v25.29zm22.402-12.934v26.445l-22.902-13.223V32.19l22.902 13.223zm45.055 26.012L493.1 84.792V71.28l11.45-6.61 11.7 6.755zm-11.7-6.18L493.6 71.57v12.356l21.65-12.5-10.7-6.18z"/>
    <path d="M493.098 83.926V71.57l-10.95-6.324-10.702 6.18 21.652 12.5zm-10.95-19.257l11.45 6.61v13.51l-23.152-13.37 11.7-6.76z"/>
    <path d="M504.8 51.59v13.512l-11.7 6.756v-13.51l11.7-6.757zm-11.2 7.045v12.357l10.7-6.178V52.457l-10.7 6.178z"/>
    <path d="M481.648 52.024l11.7-6.756 11.7 6.756-11.7 6.756-11.7-6.756zm11.7 6.178l10.702-6.178-10.702-6.178-10.7 6.178 10.7 6.178z"/>
    <path d="M482.397 64.814l10.702 6.178V58.635l-10.71-6.178v12.357zm11.202-6.467v13.51l-11.71-6.755v-13.51l11.7 6.755z"/>
    <path d="M470.446 45.557l23.152-13.367V45.7l-11.45 6.613-11.702-6.756zm11.7 6.178l10.952-6.322V33.056l-21.652 12.5 10.7 6.18z"/>
    <path d="M493.6 33.056v12.357l10.95 6.322 10.7-6.178-21.65-12.5zm10.95 19.257L493.1 45.7V32.19l23.15 13.366-11.7 6.756zm-33.854-7.19l11.7 6.757v13.222l-11.7 6.756V45.124zm.5 25.87l10.7-6.18V52.17l-10.7-6.178v25.002z"/>
    <path d="M504.8 52.168v12.646l10.7 6.178V45.99l-10.7 6.178zm11.2 19.69l-11.7-6.756V51.88l11.7-6.756v26.734zm-22.15-39.235L470.696 45.99V19.256l23.152 13.367zm-22.653-12.5v25l21.652-12.5-21.66-12.5z"/>
    <path d="M516 19.256V45.99l-23.15-13.367L516 19.256zm-22.15 13.367l21.65 12.5v-25l-21.65 12.5z"/>
    <path d="M538.653 32.623L515.5 45.99V19.256l23.153 13.367zM516 20.123v25l21.653-12.5L516 20.123zM68.208 252.5l-22.902 13.223L22.402 252.5l22.903-13.223L68.207 252.5zm-22.902-12.645L23.402 252.5l21.903 12.645L67.207 252.5l-21.902-12.645zm-.126 51.663l22.402 12.934.25-.433-22.402-12.94z"/>
    <path d="M23.152 265.29l5.6 3.233v12.935l16.302 9.41v-25.29l-21.902-12.645v12.357zm-.5.288v-13.51l22.902 13.222v26.445l-17.3-9.99V268.81l-5.602-3.23z"/>
    <path d="M29.003 281.6l-11.7 6.757L5.6 281.6l11.702-6.754 11.7 6.755zm-1 0l-10.7-6.177L6.6 281.6l10.702 6.18 10.7-6.178zm280.777 64.815l-17.3 9.99V329.96l22.9-13.223v13.51l-5.6 3.234v12.94zm-.375-.36l-.125.216v-.14l.125-.07zm-16.426-15.807v25.29l16.3-9.412v-12.934l5.6-3.233V317.6l-21.9 12.645zm189.66-97.15l11.7-6.755 11.7 6.756-11.7 6.75-11.7-6.76zm11.7 6.18l10.7-6.18-10.71-6.178-10.7 6.18 10.7 6.178z"/>
    <path d="M470.446 226.632l23.152-13.367v13.51l-11.45 6.612-11.702-6.755zm11.7 6.178l10.952-6.323V214.13l-21.652 12.5 10.7 6.18z"/>
    <path d="M493.6 214.13v12.357l10.95 6.323 10.7-6.178-21.65-12.5zm10.95 19.257l-11.45-6.61v-13.512l23.15 13.367-11.7 6.755zm-33.854-7.188l11.7 6.75v13.22l-11.7 6.75V226.2zm.5 25.86l10.7-6.18v-12.64l-10.7-6.18v25zm-246.174 90.97l-22.9 13.22-22.655-13.08v-26.44l45.555 26.3zm-45.054-25.43v25.29l22.152 12.79 21.903-12.65-44.055-25.44z"/>
  </g>
</svg>
