<svg height="28" viewBox="0 0 27 28" width="27" xmlns="http://www.w3.org/2000/svg"><g fill="#0072c6"><path d="m16.7915518 6.33566418v5.14702382l1.7986913 1.1325826c.047438.013836.1502202.0148249.1976583 0l7.7412889-5.21916923c0-.61768252-.5761744-1.06043719-.901321-1.06043719z"/><path d="m16.7915518 13.4029391 1.6415527 1.127641c.2312604.1699862.5099587 0 .5099587 0-.27771.1699862 7.5871159-5.05412439 7.5871159-5.05412439v9.45992939c0 1.0298002-.6591906 1.4616835-1.4004089 1.4616835h-8.3392067v-6.9951295z"/><g transform="translate(.069 .2)"><path d="m8.22357635 10.8297019c-.55937318 0-1.00509279.2628856-1.33419397.7876686s-.49414592 1.2195521-.49414592 2.0843075c0 .8776031.16504474 1.571384.49414592 2.0813426.32910118.5109469.76098471.7649379 1.2946623.7649379.55047855 0 .98730354-.2480613 1.30948668-.7441838s.484263-1.1849619.484263-2.0655299c0-.9181231-.15615011-1.6326581-.46943862-2.143605-.31328851-.5099586-.74121888-.7649379-1.28477939-.7649379z"/><path d="m.4358367 3.52128381v20.13644609l15.3185234 3.2119485v-26.3132701zm10.2505629 13.47239429c-.6473311.8519076-1.49133237 1.2788496-2.53299197 1.2788496-1.01497571 0-1.84118768-.413106-2.4806125-1.2383296-.63843653-.826212-.95864308-1.9014735-.95864308-3.2277612 0-1.4004095.32415972-2.5329919.97346746-3.3977473.64930773-.86475536 1.50912163-1.29762718 2.57944168-1.29762718 1.01102255 0 1.82932821.41310599 2.45294031 1.24129458.6246005.8281885.9369007 1.9192627.9369007 3.2742108.0009883 1.3925032-.3231714 2.5152027-.9705026 3.3671103z"/></g></g></svg>