<svg height="28" viewBox="0 0 24 28" width="24" xmlns="http://www.w3.org/2000/svg"><path d="m33.0906601 27.820501c-.4234439.978242-.9246634 1.8787087-1.5053866 2.7065849-.791581 1.1286078-1.4397095 1.9098188-1.9392006 2.3436328-.7742976.7120773-1.6039021 1.0767576-2.4922704 1.0974977-.6377585 0-1.406871-.181476-2.3021526-.549613-.8982198-.3664087-1.7236763-.5478847-2.4784436-.5478847-.791581 0-1.640543.181476-2.5486143.5478847-.909454.368137-1.6420986.5599831-2.2022545.5789949-.8519002.0362952-1.701035-.3387552-2.5486143-1.1268796-.5409713-.4718376-1.2176175-1.280702-2.0282103-2.4265933-.8697021-1.2236667-1.5847175-2.6426362-2.1448735-4.2603651-.5999077-1.7473545-.9006394-3.4394022-.9006394-5.0775255 0-1.8764618.4054692-3.494882 1.2176175-4.8511126.638277-1.0893745 1.4874119-1.9487066 2.5501699-2.5795517s2.2110689-.9523169 3.4476982-.9728842c.6766462 0 1.5639774.2093023 2.6666602.6206479 1.0995717.4127283 1.8055997.6220306 2.1151459.6220306.2314251 0 1.0157471-.2447333 2.3453612-.7326445 1.2573694-.4524802 2.3185719-.6398325 3.1879284-.5660323 2.3557312.1901177 4.1255543 1.1187563 5.3025558 2.7917922-2.1068499 1.276554-3.1490407 3.0645246-3.1283005 5.3582084.0190117 1.786588.6671403 3.2733085 1.9409289 4.4537666.5772665.5478847 1.2219384.9713287 1.9392007 1.2720603-.1555509.4510975-.3197434.8831832-.4943061 1.2979855zm-5.4027996-21.26034509c0 1.40032064-.5115895 2.7077947-1.5313118 3.91798039-1.2305801 1.4386725-2.7190289 2.2700054-4.3331283 2.1388242-.0205672-.1679949-.0324928-.3448044-.0324928-.5306012 0-1.3443051.5852169-2.78297766 1.6244694-3.95928778.5188485-.59558694 1.1787298-1.09080901 1.9789525-1.48585633.7984944-.38915367 1.5537802-.60436692 2.2641291-.64121519.0207402.18719681.0293819.37441091.0293819.56013863z" fill="#858c93" transform="translate(-10 -6)"/></svg>