<svg height="64" viewBox="0 0 64 64" width="64" xmlns="http://www.w3.org/2000/svg"><g fill="none" fill-rule="evenodd" transform="translate(0 7)"><path d="m58.0001352 50v-45h-17.400178c.9136907 1.24503094 1.4499777 2.80479421 1.4499777 4.49995517 0 4.13994083-3.2479857 7.50022413-7.2498887 7.50022413s-7.2498887-3.3602833-7.2498887-7.50022413c0-1.69516096.536287-3.25492423 1.4499777-4.49995517h-17.0001352v17c-1.2034192-.9450937-3.11174152-2-4.74997605-2-4.00190298 0-7.24988874 3.359835-7.24988874 7.4997758 0 4.1399409 3.24798576 7.5002242 7.24988874 7.5002242 1.63823453 0 3.54655685-.0549063 4.74997605-1v16h17.0001352c-.9136907-1.2450309-1.4499777-2.8052426-1.4499777-4.4999552 0-4.1399408 3.2479857-7.5002241 7.2498887-7.5002241s7.2498887 3.3602833 7.2498887 7.5002241c0 1.6947126-.536287 3.2549243-1.4499777 4.4999552z" fill="#ffb935"/><path d="m63.5465607 45.550654h.4534393v-45.10130799c0-.11997539-.0471577-.23276123-.1328577-.31768763-.0857001-.0849264-.1990599-.13165838-.3205816-.13165838h-17.7281178c-.1704932 0-.3278367.0957107-.4049213.2471403-.0766313.15098026-.0612143.33296539.0408095.46911723.8728707 1.17144504 1.3875244 2.64035714 1.3879778 4.24317434-.0004534 1.95510447-.7790088 3.72148362-2.0354892 5.0007717-1.2582941 1.27928813-2.9863514 2.06654233-4.8975983 2.06699163-1.9112468-.0004493-3.6397575-.7877035-4.8975982-2.06699163-1.2564804-1.27928808-2.0354892-3.04566723-2.0359427-5.0007717.0004535-1.6028172.5155606-3.0717293 1.3888847-4.24317434.101117-.13615184.1165339-.31813697.0399027-.46911723-.0766313-.15098025-.2339747-.2471403-.4044679-.2471403h-17.7281178c-.1192545 0-.2362419.04763068-.3205816.13165838-.0562265.05571891-.1005124 5.6740418-.1328577 16.85496872h.4534393l.2788652-.354534c-1.3027312-1.0069844-2.9391938-1.5987731-4.7107813-1.5983238-2.16653311-.0004493-4.13128576.895996-5.54737681 2.3383966-1.41699793 1.441502-2.29258929 3.4339022-2.29258929 5.6276094 0 2.1941566.87559136 4.1865568 2.29258929 5.6280588 1.41609105 1.4419513 3.3808437 2.3383966 5.54737681 2.3383966 1.7715875 0 3.4080501-.5913394 4.7107813-1.5983238l-.2788652-.354534h-.4534393v16.5372811c0 .1199754.0471577.2327612.1328577.3176876s.1995133.1316584.3205816.1316584h17.7281178c.1704932 0 .3278366-.09616.4044679-.2471403.0766312-.1509803.0612143-.3334147-.0399027-.4695666-.8733241-1.1709957-1.3884312-2.6399078-1.3888847-4.242725.0004535-1.9555538.7794623-3.7214836 2.0359427-5.001221 1.2578407-1.2788388 2.9863514-2.066093 4.8975982-2.0665423 1.9112469.0004493 3.6393042.7877035 4.8975983 2.0665423 1.2564804 1.2797374 2.0350358 3.0456672 2.0354892 5.001221-.0004534 1.6028172-.5151071 3.0717293-1.3879778 4.242725-.1020238.1361519-.1174408.3185863-.0408095.4695666.0770846.1509803.2344281.2471403.4049213.2471403h17.7281178c.1215217 0 .2348815-.046732.3205816-.1316584.0857-.0849264.1328577-.1977122.1328577-.3176876h-.4534393v-.449346h-17.7281178v.449346l.3645652.2669115c.9884978-1.3242227 1.5661795-2.9827588 1.565726-4.7769974.0004535-2.1941565-.8755913-4.1865567-2.2925892-5.6280587-1.4160911-1.4419513-3.3808437-2.338846-5.5469235-2.3383966-2.1660797-.0004494-4.1312858.8964453-5.5473768 2.3383966-1.4169979 1.441502-2.2930427 3.4339022-2.2925893 5.6280587-.0004534 1.7942386.5776817 3.4527747 1.5661795 4.7769974l.3645652-.2669115v-.449346h-17.2751319l.0004535-16.0879351c0-.1720995-.0983964-.3280226-.2543795-.4035127s-.3409864-.0566176-.4779251.0489787c-1.1494687.8879077-2.5859645 1.4082504-4.1530509 1.4086998-1.9117002-.0004494-3.63975752-.7877036-4.89759824-2.0669917-1.25693384-1.279288-2.03548919-3.0452179-2.03548919-5.0007717 0-1.9551044.77855535-3.7214836 2.03548919-5.0007717 1.25784072-1.2788387 2.98589804-2.0665423 4.89759824-2.0665423 1.5670864 0 3.0035822.5207921 4.1530509 1.4082504.1369387.1060457.321942.1249182.4779251.0494281.1555297-.0754901.2543795-.2318626.2543795-.4035127v-16.08838443l17.2746784.00044934v-.449346l-.3645652-.26736088c-.9884978 1.32422268-1.5666329 2.98275879-1.5661795 4.77744674-.0004534 2.19415655.8755914 4.18610739 2.2925893 5.62760943 1.416091 1.4424006 3.3812971 2.3388459 5.5473768 2.3388459 2.1660798 0 4.1308324-.8964453 5.5469235-2.3388459 1.4169979-1.44150204 2.2930427-3.43345288 2.2925892-5.62760943.0004535-1.79468795-.5772282-3.45322406-1.565726-4.77744674l-.3645652.26736088v.449346h17.2746784v44.65196199h.4534394v-.449346z" fill="#f48024"/></g></svg>