<svg height="28" viewBox="0 0 24 28" width="24" xmlns="http://www.w3.org/2000/svg"><path d="m15.3840784 2.50792157.3003138-.44964706.2948235-.44360784.6637647-.99537255c.0812549-.12243137.0483137-.28713726-.0730196-.36894118-.1235294-.08180392-.2882353-.04886274-.3700392.07411765l-.7109804 1.06729412-.2992157.44854902-.3036079.45458823c-.9618823-.37278431-2.0341176-.58196078-3.1667451-.58196078-1.1315294 0-2.20376466.20917647-3.16564701.58196078l-.30196078-.45458823-.29921569-.44854902-.71207843-1.06784314c-.0812549-.12243137-.24650981-.15537255-.3694902-.07411765-.12188235.0812549-.15482353.24650981-.07356863.36894118l.66321569.99537255.29592157.44360784.30031373.44964706c-2.25921569 1.05192157-3.78713726 3.04486274-3.78713726 5.32603921h14.90149021c0-2.28062745-1.5279216-4.27356862-3.7871373-5.32549019zm-6.85670585 3.19694118c-.44196079 0-.79882353-.35741177-.79882353-.79827451 0-.44086275.35686274-.79772549.79882353-.79772549.44086274 0 .79772549.35686274.79772549.79772549 0 .44086274-.35686275.79827451-.79772549.79827451zm6.38564705 0c-.4408627 0-.7977255-.35741177-.7977255-.79827451 0-.44086275.3568628-.79772549.7977255-.79772549.4419608 0 .7988235.35686274.7988235.79772549 0 .44086274-.3568627.79827451-.7988235.79827451zm-10.52854901 3.19364705h-.1147451v1.3275294 1.0832157 9.2981961c0 .9294902.75545098 1.6854902 1.68494118 1.6854902h1.21662745c-.04062745.140549-.06368628.2893333-.06368628.4430588v.0889412.532 2.7505882c0 .8811765.71537255 1.596549 1.59709804 1.596549s1.59654902-.7153725 1.59654902-1.596549v-2.7505882-.532-.0889412c0-.1531765-.0236078-.3025098-.0631373-.4430588h2.9647059c-.0406274.140549-.0631372.2893333-.0631372.4430588v.0889412.532 2.7505882c0 .8811765.7153725 1.596549 1.596549 1.596549s1.596549-.7153725 1.596549-1.596549v-2.7505882-.532-.0889412c0-.1531765-.0225098-.3025098-.0631372-.4430588h1.2160784c.9294902 0 1.6854902-.756 1.6854902-1.6854902v-9.2981961-1.0832157-1.3275294h-.1147451zm-2.77639216 0c-.88172549 0-1.59654902.71427451-1.59654902 1.597098v6.8292549c0 .8811765.71482353 1.5965491 1.59654902 1.5965491.88117647 0 1.59654902-.7153726 1.59654902-1.5965491v-6.8298039c0-.88227449-.71482353-1.596549-1.59654902-1.596549zm20.22478427 0c-.8822745 0-1.596549.71427451-1.596549 1.597098v6.8292549c0 .8811765.7142745 1.5965491 1.596549 1.5965491.8811765 0 1.595451-.7153726 1.595451-1.5965491v-6.8298039c0-.88227449-.7142745-1.596549-1.595451-1.596549z" fill="#a4c639"/></svg>