<svg height="64" viewBox="0 0 64 64" width="64" xmlns="http://www.w3.org/2000/svg"><g fill="none" fill-rule="evenodd"><path d="m11.441 11.441h43.369v43.369h-43.369z" fill="#ffb935" fill-rule="nonzero" transform="matrix(.70710678 .70710678 -.70710678 .70710678 33.126 -13.721238)"/><path d="m15.8978151 46.2843697 4.797311-4.7973109s.5969747 2.2964706 2.6890756 2.7966387c.9947284.2751646 2.058804.1298822 2.9433611-.4018688.884557-.5317509 1.5120173-1.4033343 1.7356305-2.4109043.4333806-2.0227502-.8274725-4.0214888-2.8396639-4.5015126l5.7492437-5.7761345 5.6578151-5.652437s-1.0756302-.1505882-1.2746218-.2205042c-.4108789-.1519059-.7941881-.3699017-1.1347899-.6453781-.6806815-.567303-1.1411749-1.3550894-1.3015126-2.2265546-.3946239-2.022669.9247104-3.9824102 2.9472269-4.3778152 2.0134654-.4041223 3.9866066.8543191 4.4692437 2.8504202.0599084.2774868.0905521.560491.0914285.8443698l5.9697479-5.9805043" stroke="#f48024" stroke-width="2"/><path d="m15.8978151 16.0430252 4.8403362 4.8403361s-.887395.3226891-1.0003362.3872269c-1.0124306.572668-1.703295 1.5811713-1.8715966 2.7321009-.3231431 1.9536106.9581045 3.8124893 2.8988235 4.2057143 2.0097219.4240096 3.9922808-.8270041 4.4746219-2.8235295l5.7331092 5.7331093 5.722353 5.7223529s.3442016-.925042.4141176-1.0433613c.1947004-.3362339.4415877-.639397.7314286-.8981513.605769-.5483521 1.3747436-.882771 2.1889075-.9519327 1.9502629-.2040925 3.718616 1.1552699 4.0228572 3.0924369.3118449 1.9586159-.9298029 3.8292717-2.8557983 4.302521l4.7273949 4.727395" stroke="#f48024" stroke-width="2"/><g fill-rule="nonzero"><circle cx="30.973" cy="55.282" fill="#fff" r="1.076"/><circle cx="32.048" cy="7.745" fill="#fff" r="1.076"/><circle cx="7.519" cy="32.054" fill="#fff" r="1.076"/><circle cx="55.508" cy="30.978" fill="#fff" r="1.076"/><path d="m30.9727731 1.83394958 29.1495798 29.14420172-29.1495798 29.1442016-29.14420167-29.1442016zm0-1.52201681-30.65546218 30.65546223 30.65546218 30.6554621 30.6554622-30.6554621z" fill="#f48024"/></g></g></svg>