<svg height="24" viewBox="0 0 24 24" width="24" xmlns="http://www.w3.org/2000/svg"><path d="m26.1448075 20.6226072c-.1364352 2.6534222-2.1062455 4.2491439-4.4846598 4.2491439h-.0899573c-2.7448787 0-4.267231-2.1586887-4.267231-4.6108553 0-2.7452615 1.8417327-4.479811 4.2567679-4.479811 2.6924036 0 4.4628404 1.9722984 4.5910774 4.3056064zm-4.5610278 6.6234431c1.8342363 0 3.5589288-.8105729 4.8248389-2.0800877v-.0048488c0 .6093174.4100714 1.0688972.9796735 1.0688972l.1438999.0007337c.8904499 0 1.073395-.8422175 1.073395-1.1092504l.004466-9.4752498c-.0629064-.620546.6400049-.9407877 1.0299157-.5426468 1.5215867 1.5634392 3.3414999 8.0378466-.9459237 11.7890671-3.9959235 3.4973941-9.3574758 2.9211887-12.2088679.9554935-3.0311153-2.0904232-4.9708759-6.7177707-3.0865571-11.0639855 2.0538024-4.7403364 7.9310781-6.1540381 11.4239744-4.7432074 1.7689374.7133744 2.5858584-1.6774808.748783-2.45851455-2.775662-1.18217325-10.5012737-1.06293194-14.1104126 5.18843235-2.43822637 4.2213591-2.30861764 11.6483891 4.1585485 15.496553 4.9470787 2.9442522 11.4697186 2.1295642 15.4027358-1.978168 4.1112093-4.2945053 3.8713231-12.3356057-.1388278-15.4613995-1.816787-1.4201773-4.5151878-.0382478-4.4981215 2.0314725l-.0186932.6766258c-1.2652721-1.2554151-2.9485906-1.9878655-4.7828269-1.9878655-3.6241318 0-6.8127362 3.188094-6.8127362 6.8120983 0 3.6599872 3.1886044 6.8858505 6.8127362 6.8858505z" fill="#f89c0e" fill-rule="evenodd" transform="translate(-10 -9)"/></svg>