<svg height="28" viewBox="0 0 26 28" width="26" xmlns="http://www.w3.org/2000/svg"><g fill="#7b1fa2"><circle cx="19.441" cy="24.5" r="1.75"/><path d="m25.0387812 2.25553125c-.3185-.3255-.749-.50575-1.20925-.50575-.88375 0-1.63275.65975-1.73775 1.5645l-2.64075 16.67400005c-.07175.46025.2275.89775.68425.99225.06125.01225.12075.01925.18025.01925.39025 0 .742-.259.84525-.64925l4.33125-16.29425005c.00875-.0315.01575-.05775.01925-.08925.035-.091.0525-.18725.05425-.28525.01225-.56175-.175-1.0675-.52675-1.42625zm-9.835-2.0685c-.41125.01575-.8155-.0385-1.19525-.1505-.434-.12425-.88375.08925-1.057.50225l-4.87374995 11.74075005-4.9-11.74075005c-.17325-.413-.62825-.63-1.057-.50225-.3815.11375-.777.154-1.19.1505-.308-.01225-.5845.13475-.7525.38325-.168.2485-.19775.56525-.07875.84l6.216 14.30100005v11.4135c0 .483.392.875.875.875h1.75c.483 0 .875-.392.875-.875l.0105-11.438 6.20549995-14.27650005c.11725-.27475.08925-.5915-.07875-.83825-.16625-.2485-.455-.3745-.749-.385z"/></g></svg>