<svg height="64" viewBox="0 0 64 64" width="64" xmlns="http://www.w3.org/2000/svg"><g fill="none" fill-rule="evenodd"><path d="m31.958 63.292-31.334-31.334 31.334-31.333 31.334 31.333z" fill="#fff"/><path d="m31.9584662.00004414-31.95851034 31.95851036 31.95851034 31.9580689.3116138-.3120551 31.6464552-31.6460138zm-30.70984827 31.95851036 30.70984827-30.70984829 30.7094069 30.70984829-30.7094069 30.7098483z" fill="#f48024"/><g transform="translate(5.738 3.889)"><path d="m26.2154152.38448552 16.0172138 16.07812418-4.9959724 4.9964137c-.4802207.470069-1.2738207.3133794-1.5284966-.3036689-.7053241-1.6750345-2.5370483-2.7528828-4.5356138-2.2925242-1.4203586.3235311-2.5666207 1.4693518-2.8897103 2.8901518-.4608 1.9981241.6170482 3.8302896 2.2920827 4.5356138.607338.2546758.773738 1.0482758.2939586 1.5280551l-4.653462 4.6534621-4.9765518-4.9765517c-.4506482-.4506483-1.1656827-.3230897-1.4989241.2056827-.8425931 1.3422345-2.4783448 2.1261242-4.2416552 1.724469-1.4208-.323531-2.5666207-1.4697931-2.8901517-2.8901517-.4016552-1.7633104.3822345-3.3995035 1.724469-4.2420966.5287724-.3328.6558896-1.0478345.2052414-1.4984827l-4.3299311-4.3303724z" fill="#ffb935"/><g fill="#f48024"><path d="m10.7723034 44.3767172 5.2550621-5.255062c.1721379-.172138.1721379-.4515311 0-.6241104-.1721379-.1721379-.451531-.1725793-.6241103-.0004414-.0670897.0670897-.1129931.1491863-.137269.2246621-.0247172.0754759-.0317793.1443311-.0322207.2056828.0013242.1257931.0273655.2255448.0591448.3230896.1138759.3319173.3319173.6722207.5446621.9842759.105931.1531586.2100966.2944.2983724.4082759.0896.1156413.1553655.1968551.2118621.2573241h.0004414c.5393655.5702621 1.2305655.9842759 1.9884138 1.1899586.3950345.1072552.7909517.1584552 1.1793655.1584552 1.9659034.0039724 3.7217103-1.334731 4.1489655-3.3686069.0631172-.2988138.0935724-.5989517.0935724-.8955586-.0004414-.9811862-.3319172-1.9217655-.9127724-2.6760828-.5799724-.7543172-1.4159448-1.3241379-2.415669-1.5479172l-.0962207.4303448.3120552.3116138 5.8818207-5.8910897 5.7851586-5.7851586c.1725793-.1725793.1725793-.451531.0004414-.6241103s-.451531-.1725793-.6241103-.0004414l.2025931.2030345-.0701793-.2824828c-.0172138.0048552-.0679725.0172138-.1324138.0794483l.2025931.2030345-.0701793-.2824828.0194206.0776828-.0079448-.0798897-.0114758.0022069.0194206.0776828-.0079448-.0798897-.0158896.0004414c-.0781242.0030897-.3080828-.0414897-.5071449-.0993103-.2030344-.056938-.3919448-.1222621-.464331-.1483035l.0008828.0004414c-.3716414-.1332966-.7207725-.3332414-1.0248828-.585269-.6126345-.5071448-1.0381241-1.2305655-1.1802483-2.0113655-.0388414-.2100966-.0573793-.4201931-.0573793-.6280828-.0004414-.7984551.2758621-1.5638069.7534345-2.1618758.4784552-.5985104 1.1511172-1.0288552 1.9588414-1.1727448.2149517-.0379587.4290207-.0564966.6404414-.056938.7927172 0 1.552331.2595311 2.1561379.7185655.6046896.4594759 1.0535724 1.1122759 1.2376276 1.9177931.0573793.2493794.0856276.5067035.0856276.7640276 0 .1783173.1076965.3394207.272331.4078345.1650759.0684138.3544276.0304552.4811034-.0957793l6.1228138-6.1131034-.6236689-.6245518-6.1232552 6.1131035.3120552.3124965h.4413793c0-.3222069-.0357517-.6452965-.1076966-.9604414-.2304-1.0125241-.8046345-1.8489379-1.5646896-2.4249379-.7596138-.5764414-1.7046069-.8973241-2.6897655-.8973241-.2635035-.0004414-.5296552.0229517-.7949242.0701793-1.0279724.1822896-1.8935172.7366621-2.4942345 1.4914207-.6020413.7547586-.9458758 1.7107862-.9463172 2.7122758 0 .2604138.0233931.5239173.0715034.7874207.1818483.9891311.7128276 1.8899862 1.4852414 2.5313104.3831173.3177931.8209655.5680551 1.2901517.736662l.0008828.0004414c.0843035.0295724.2882207.1006345.5225931.1668414.2383448.0644414.4894897.1288828.7454897.1319724.0662069 0 .1355034-.0044138.2167172-.0242758.0794483-.0203035.1805241-.0564966.2789517-.1527173.0834207-.0829793.1293242-.1937655.1293242-.3120552 0-.1178482-.0454621-.2286344-.1288828-.3120551s-.1942069-.1293242-.3120552-.1293242c-.1178482-.0004413-.2290758.0459035-.3124965.1288828l-5.7851586 5.7856-.0004414.0004414-5.8818207 5.891531c-.1134345.1134345-.1562483.2807172-.111669.4347586.0450207.1540414.1708138.2723311.3275035.3076414.7891862.1774345 1.4450758.623669 1.9094069 1.225269.4634483.6016.7291586 1.3568.7291586 2.1376 0 .2361379-.0242759.4749241-.0745931.7132689-.3456 1.6242759-1.7160828 2.6641656-3.2851862 2.668138-.3102897 0-.6280828-.0410483-.9480828-.1275587-.5989517-.1619862-1.152-.493462-1.5783724-.9445517-.0048552-.0048552-.0322207-.0361931-.0653241-.0772414-.1204966-.1474206-.3416276-.4418206-.5217104-.7269517-.0900413-.1425655-.1703724-.2838069-.2224551-.3959172-.0260414-.0556138-.0445794-.1041655-.0542897-.1368276l-.0088276-.0339862-.0004414-.0035311-.054731.0079449h.054731v-.0079449l-.054731.0079449h.054731-.2268689l.2145103.0706207.0123586-.0706207h-.2268689l.2145103.0706207-.2992552-.098869.2220138.2228966c.0401656-.0392828.0657656-.0878345.0772414-.1240276l-.2992552-.098869.2220138.2228966c.0834207-.0834207.1297656-.1942069.1297656-.3120552s-.0459035-.2286345-.1293242-.3124966c-.0834207-.0829793-.1942069-.1293241-.3120552-.1293241-.1178482 0-.2286344.0459034-.3120551.1293241l-5.2550621 5.2546207z"/><path d="m10.2356745 12.8562317 5.2162207 5.2162207c.1721379.1725793.451531.1725793.6236689.0004414.1725793-.1721379.1730207-.451531.0008828-.6241104-.0710621-.071062-.1505103-.1068137-.2123035-.1244689-.0626758-.0180966-.1125517-.0211862-.1553655-.0216276-.0869517.0008828-.1474207.0145655-.2074482.029131-.1999449.0534069-.3981242.146538-.5848276.236138-.1831724.0896-.3358897.173462-.3910621.2043586l.0008828-.0004414c-.3694345.208331-.7062069.4713931-.9979587.7777103-.6095448.6413242-1.0089931 1.4618483-1.1347862 2.3384276-.0313379.2176-.0467862.4343173-.0467862.6479449 0 .9944275.3319173 1.9266207.9193931 2.6619586.5870345.7348965 1.4313931 1.2724965 2.4359724 1.4821517.2952828.0613517.5910069.0909241.8827587.0909241.9772138-.0004413 1.9129379-.3310344 2.6641655-.9092413.7512276-.5773242 1.3192827-1.4075587 1.5474758-2.3997793l-.4299034-.098869-.3120552.3120552 5.8491586 5.8491586 5.8491587 5.8491586c.1721379.1721379.4506482.1725793.6236689 0 .1725793-.1721379.1730207-.4506483.0013242-.623669l-.274538.2727725.3729656-.1063725c-.0123587-.0423724-.0392828-.1063724-.0984276-.1664l-.274538.2727725.3729656-.1063725-.3032276.0865104h.3160276c-.0004414-.0163311-.0008828-.0428138-.0128-.0865104l-.3032276.0865104h.3160276-.1478621l.1465379.0233931.0013242-.0233931h-.1478621l.1465379.0233931c-.0008827-.0022069.0180966-.0719448.0503173-.1496276.096662-.2405517.2952827-.6011586.3301517-.6589793l.0004414-.0008828c.1765517-.3032276.4012138-.579531.6620689-.8147862.5446621-.4912551 1.2486621-.797131 1.9795862-.8593655.1059311-.009269.210538-.0136828.3138207-.0136828.8342069.0004414 1.5955862.2868966 2.1839448.7790345.5883587.4930207 1.0036966 1.1886345 1.1405242 2.0263724.0295724.1814069.0436965.3628138.0436965.5428966.0017656 1.5549793-1.0769655 3.0040276-2.6244413 3.3566897-.1562483.0357517-.2807173.1540413-.3252966.3080827-.0441379.1544828-.0013241.3204414.1125517.4338759l5.2259311 5.225931.6241103-.6241103-5.225931-5.2259311-.3120552.3120552.098869.4299034c1.9738482-.4585931 3.3076965-2.2611862 3.3090207-4.2164965 0-.226869-.0180966-.4559448-.0551725-.6845793-.3376551-2.0961104-2.1181793-3.5513379-4.1957517-3.5464828-.1293241 0-.2590896.005738-.3892965.0167724-.9246897.0794483-1.8056828.4625656-2.4951173 1.0835862-.3288276.2966069-.6108689.6430897-.8342069 1.0262069l.0004414-.0008827c-.0388414.0662069-.1496276.265269-.259531.4916965-.0547311.1129931-.1085793.2317242-.1522759.3478069-.022069.0587035-.0414896.1165242-.0573793.1778759-.0154483.0617931-.0295724.124469-.0304552.2136276 0 .0428138.0030897.0926896.0211862.1562483.0172138.0617931.0529656.1416827.124469.2136275.0829793.0834207.1942069.1297656.3120552.1297656.1178483.0004413.2290758-.0454621.3124965-.1288828.0834207-.0829793.1297655-.1937655.1297655-.3120552 0-.1178482-.0459034-.2290758-.1293241-.3124965l-5.8491586-5.8491586-5.8491586-5.8491587c-.1138759-.1134344-.2798345-.1562482-.4338759-.1121103-.1544828.0445793-.272331.1686069-.3085241.3252965-.1809656.7838897-.6263173 1.4366897-1.2257104 1.8983725-.5989517.4616827-1.3488552.7265103-2.1256827.7260689-.2326069 0-.4674207-.0233931-.7022345-.0723862-.8068414-.1694896-1.4644966-.5914483-1.9266207-1.1692138-.4616828-.5777655-.726069-1.3122207-.7265104-2.1106758 0-.1716966.0123587-.3460414.0375173-.5230345.098869-.6916414.4179862-1.3479724.9004138-1.8542345.2321655-.2432.5005241-.4528552.7927172-.617931l.0008828-.0004414c.0410483-.0233931.2268689-.1249104.4135724-.2131862.093131-.044138.188469-.086069.2612965-.1125517l.0843035-.0273656.0132414-.0030896-.0247173-.1553655v.1566896l.0247173-.0013241-.0247173-.1553655v.1566896-.3239724l-.0900413.310731c.0441379.0123587.0723862.0132414.0900413.0132414v-.3239724l-.0900413.310731.1085793-.3756138-.2758621.2754207c.0600276.0600276.124469.0878345.1672828.1001931l.1085793-.3756138-.2758621.2754207c.0829793.0834207.1937655.1297656.3116138.1297656.1182896 0 .2290758-.0454621.3124965-.1288828s.1297656-.1942069.1297656-.3124966c0-.1174069-.0459035-.2286344-.1293242-.3120551l-5.2162207-5.2162207z"/><path d="m27.1488 27.8374841c0 .5128828-.4157793.9286621-.9286621.9286621-.5124413 0-.9282207-.4157793-.9282207-.9286621 0-.5128827.4157794-.928662.9282207-.928662.5128828 0 .9286621.4157793.9286621.928662"/><path d="m27.1488 28.3017269c0 .5128828-.4157793.9282207-.9286621.9282207-.5124413 0-.9282207-.4153379-.9282207-.9282207s.4157794-.9286621.9282207-.9286621c.5128828 0 .9286621.4157793.9286621.9286621m-.9284414 23.674571c.5128828 0 .9286621.415338.9286621.9286621 0 .5124414-.4157793.9282207-.9286621.9282207-.5128827 0-.928662-.4157793-.928662-.9282207 0-.5133241.4157793-.9286621.928662-.9286621m0-49.67026756c.5128828 0 .9286621.41577932.9286621.92866207 0 .51244138-.4157793.92822069-.9286621.92822069-.5128827 0-.928662-.41577931-.928662-.92822069 0-.51288275.4157793-.92866207.928662-.92866207m-24.4107917 25.10711176c.36281379.3623724.36281379.9502896 0 1.3131034-.36237242.3623724-.95028966.3623724-1.31310345 0-.36237242-.3628138-.36237242-.950731 0-1.3131034.36281379-.3628138.95073103-.3628138 1.31310345 0m50.1345103 0c.3623725.3623724.3623725.9502896 0 1.3131034-.3623724.3623724-.9502896.3623724-1.3131034 0-.3623724-.3628138-.3623724-.950731 0-1.3131034.3628138-.3628138.950731-.3628138 1.3131034 0"/></g></g></g></svg>