<svg height="22" viewBox="0 0 28 22" width="28" xmlns="http://www.w3.org/2000/svg" xmlns:xlink="http://www.w3.org/1999/xlink"><linearGradient id="a" x1=".004%" x2="100.032%" y1="49.998%" y2="49.998%"><stop offset="0" stop-opacity=".1"/><stop offset="1" stop-opacity=".2"/></linearGradient><g fill="none"><path d="m26.1224603 21.1744539h-24.35559254c-.94440052 0-1.73968518-.770432-1.73968518-1.7396852v-17.59567294c0-.94440052.77043201-1.73968518 1.73968518-1.73968518h24.35559254c.9444005 0 1.7396852.77043201 1.7396852 1.73968518v17.59567294c0 .9692532-.770432 1.7396852-1.7396852 1.7396852z" fill="#e3e3e3"/><path d="m3.507 21.174 10.413-8.375.074-.447-10.736-7.729-.025 16.179z" fill="#231f20" opacity=".1"/><path d="m1.76686776 21.1744539c-.96925317 0-1.73968518-.770432-1.73968518-1.7396852v-17.62052559c0-.96925316.77043201-1.14322168 1.73968518-1.14322168s1.73968518.19882116 1.73968518 1.14322168v19.36021079z" fill="#d54b3d"/><path d="m1.76686776.91954788c1.24263228 0 1.49115873.37278968 1.49115873.89469523v19.11168429h-1.49115873c-.8201373 0-1.49115872-.6710214-1.49115872-1.4911587v-17.62052559c0-.5467582.24852645-.89469523 1.49115872-.89469523zm0-.24852645c-.96925317 0-1.73968518.19882116-1.73968518 1.14322168v17.62052559c0 .9692532.77043201 1.7396852 1.73968518 1.7396852h1.73968518v-19.36021079c0-.96925316-.77043201-1.14322168-1.73968518-1.14322168z" fill="#d72b27"/><path d="m26.1224603 21.1744539h-1.7396851v-19.40991607c0-.96925318.7704319-1.0935164 1.7396851-1.0935164s1.7396852.12426322 1.7396852 1.0935164v17.69508347c0 .9444006-.770432 1.7148326-1.7396852 1.7148326z" fill="#d54b3d"/><path d="m26.1224603.91954788c1.118369 0 1.4911587.22367381 1.4911587.84498995v17.69508347c0 .8201374-.6710214 1.4911589-1.4911587 1.4911589h-1.4911587v-19.18624237c0-.64616879.3727896-.84498995 1.4911587-.84498995zm0-.24852645c-.9692532 0-1.7396851.12426322-1.7396851 1.0935164v19.43476867h1.7396851c.9692532 0 1.7396852-.7704319 1.7396852-1.7396852v-17.69508347c0-.96925318-.770432-1.0935164-1.7396852-1.0935164z" fill="#d72b27"/><path d="m18.6666667 21.1744539-18.49387618-18.63752764.97276111.39568591 12.87367037 9.27003673 13.8429239-10.15072325-.0000004 17.40769565c0 .9444006-.770432 1.7148326-1.7396852 1.7148326z" fill="url(#a)"/><path d="m13.9198114 12.7991124-13.14704946-9.54341585c-.770432-.57161084-.99410581-1.66512724-.42249497-2.43555925.57161085-.77043201 1.68997989-.94440053 2.48526455-.37278968l11.10913248 8.07710977 11.1836905-8.17652035c.770432-.57161085 1.8639484-.39764233 2.4355593.39764232.5716108.77043201.3976423 1.86394841-.3976423 2.43555925z" fill="#d54b3d"/><path d="m26.1224603.24852646c.4722002 0 .9195479.2236738 1.2177796.62131613.4722002.67102143.3230844 1.59056931-.3230844 2.08762221l-13.0973441 9.5434159-12.99793358-9.44400531c-.67102143-.4970529-.84498995-1.44145343-.37278968-2.08762222.2733791-.37278968.74557936-.62131613 1.24263226-.62131613.3230844 0 .64616879.09941058.89469525.29823174l11.08427985 8.05225712.1491159.09941059.1491159-.09941059 11.1588378-8.17652034c.2733791-.17396852.5716108-.2733791.8946952-.2733791zm0-.24852646c-.3479371 0-.7207268.09941058-1.0189585.32308439l-11.1836904 8.17652035-11.10913253-8.07710977c-.29823175-.22367381-.67102143-.32308439-1.04381111-.32308439-.5467582 0-1.0935164.24852646-1.44145343.72072672-.5467582.77043201-.32308439 1.86394841.44734761 2.43555925l13.14704946 9.56826845 13.2216073-9.64282639c.770432-.57161084.9444006-1.64027459.3976423-2.43555925-.3479369-.4970529-.8698425-.74557936-1.4166007-.74557936z" fill="#d72b27"/></g></svg>