<svg height="64" viewBox="0 0 64 64" width="64" xmlns="http://www.w3.org/2000/svg"><g fill="none"><path d="m2.87438596 32.954386 11.86245614-11.8568421c.00094.5670665.0668673 1.1321571.1964912 1.6842105.9495124 3.9327248 4.8261511 6.4214923 8.797193 5.6477193 4.0073314-.7830753 6.621264-4.6662732 5.8385965-8.6736842-.3199134-1.7238803-1.2336522-3.281209-2.5824561-4.4014035-.6678391-.5548294-1.4279194-.9880752-2.2456141-1.28-.3817544-.1403509-2.2119298-.7747369-2.5375438-.4491228l11.1719298-11.17192987 11.3908772 11.47508777c.949342-3.96144453 4.8774795-6.44918204 8.8645614-5.61403514 3.8388054.7837338 6.3738778 4.45872154 5.7431579 8.32561404-.2215829 1.5269048-.91213 2.9472346-1.9761404 4.0645614-.5073107.5352307-1.0920674.991303-1.7347368 1.3529825-.2245614.1291228-1.7740351.971228-1.9761404.7691228l10.1052632 10.1052631-30.4561403 30.5066667z" fill="#ffb935"/><path d="m30.7480702 1.65052632 10.5431579 10.62736838 1.437193 1.4428071.4547368-1.9817544c.7030803-2.86429006 3.2710324-4.87832475 6.2203509-4.87859652.4376414-.00021407.8741262.04493953 1.3024561.13473684 3.2782227.63567177 5.4447227 3.77809518 4.8729825 7.06807018-.2781828 1.931275-1.4349153 3.6249139-3.1326316 4.5866667-.1908772.0898245-1.0891228.4322807-1.8301754.7017543l-1.6505264.6007018 1.2463158 1.2463158 9.2968421 9.3136842-28.8505263 28.8729825-28.86736841-28.8673685 9.48771931-9.4764912c1.0885491 3.7057533 4.5084464 6.2356974 8.3705263 6.1922807.5327151.0006586 1.0644224-.046312 1.5887719-.1403509 2.167111-.3860992 4.088545-1.6259298 5.3333334-3.4414035 1.3161679-1.9079744 1.8228424-4.2596711 1.4091228-6.5403509-.5516794-3.0053037-2.6535211-5.4937646-5.5242105-6.5403508l-.5108772-.1740351zm0-1.5831579-11.2280702 11.12140348c.1046029-.0684909.2290763-.1001032.3536842-.0898245.743362.0847374 1.4732249.2620168 2.1726316.5277193 2.5014742.9089744 4.3371137 3.071187 4.8280702 5.6870175.7793834 4.0067454-1.8331178 7.8878169-5.8385965 8.6736842-.4594807.0826146-.9254323.123949-1.3922807.1235088-3.5173539.0504229-6.597893-2.3486636-7.4105263-5.7712281-.1258458-.5525947-.1898648-1.117468-.1908772-1.6842105l-11.84000004 11.8568421 30.45614034 30.4617544 30.4617544-30.4617544-10.1052632-10.1052632s1.757193-.64 1.9761404-.7578947c2.0080816-1.1338725 3.3767124-3.1349766 3.7052632-5.4175439.63736-3.8708402-1.8992881-7.55307124-5.7431579-8.33684206-3.9721772-.81401621-7.8781507 1.65447974-8.8477193 5.59157896l-11.351579-11.41894738z" fill="#f48024"/><g fill="#fff"><circle cx="9.617" cy="31.197" r="1.005"/><circle cx="30.686" cy="53.951" r="1.005"/><circle cx="32.46" cy="8.354" r="1.005"/><circle cx="53.53" cy="31.107" r="1.005"/></g></g></svg>