<svg xmlns="http://www.w3.org/2000/svg" viewBox="0 0 128 128"><defs><style>.cls-1{fill:#eff0f1;}.cls-2{fill:none;stroke:#9ea3a9;stroke-miterlimit:10;}.cls-3{fill:#9ea3a9;}</style></defs><path class="cls-1" d="M85.3,62.74h21A44.08,44.08,0,0,0,65,21.47v21A23.12,23.12,0,0,1,85.3,62.74Z"/><path class="cls-2" d="M87.07,61.15h21A44.09,44.09,0,0,0,66.79,19.88v21A23.16,23.16,0,0,1,87.07,61.15Z"/><path class="cls-1" d="M43.8,79.47a23.09,23.09,0,0,1,15.66-37v-21A44,44,0,0,0,29,94.32Z"/><path class="cls-2" d="M45.8,77.88a23.08,23.08,0,0,1,15.65-37v-21A44,44,0,0,0,30.94,92.73Z"/><path class="cls-2" d="M87.07,66.5A23.08,23.08,0,0,1,49.52,81.72L34.69,96.55a44,44,0,0,0,73.38-30Z"/><polyline class="cls-2" points="38.77 38.52 24.87 24.61 6.51 24.61"/><polyline class="cls-2" points="56.42 100.65 42.52 114.55 21.16 114.55"/><polyline class="cls-2" points="77.81 32.63 96.69 13.75 118.05 13.75"/><line class="cls-2" x1="100.84" y1="18.47" x2="114.96" y2="18.47"/><line class="cls-2" x1="100.84" y1="23.19" x2="105.93" y2="23.19"/><line class="cls-2" x1="108.87" y1="23.19" x2="118.05" y2="23.19"/><circle class="cls-3" cx="96.97" cy="53.92" r="0.97"/><circle class="cls-3" cx="92.93" cy="53.92" r="0.97"/><circle class="cls-3" cx="89.07" cy="53.92" r="0.97"/><circle class="cls-3" cx="102.9" cy="57.27" r="0.97"/><circle class="cls-3" cx="98.86" cy="57.27" r="0.97"/><circle class="cls-3" cx="94.83" cy="57.27" r="0.97"/><circle class="cls-3" cx="90.97" cy="57.27" r="0.97"/><line class="cls-2" x1="6.51" y1="29" x2="15.21" y2="29"/><line class="cls-2" x1="6.51" y1="33.5" x2="20.58" y2="33.5"/><line class="cls-2" x1="21.16" y1="109.25" x2="30.71" y2="109.25"/></svg>