<svg xmlns="http://www.w3.org/2000/svg" width="128" height="128" viewBox="0 0 128 128">
  <g fill="none" fill-rule="evenodd">
    <polygon fill="#EFF0F1" fill-rule="nonzero" points="16 16 118 16 118 44 16 44"/>
    <path fill="#A0A5AB" fill-rule="nonzero" d="M14,14 L14,41 L115,41 L115,14 L14,14 Z M116,13 L116,42 L13,42 L13,13 L116,13 Z"/>
    <polygon fill="#EFF0F1" fill-rule="nonzero" points="16 53 118 53 118 81 16 81"/>
    <path fill="#A0A5AB" fill-rule="nonzero" d="M14,51 L14,78 L115,78 L115,51 L14,51 Z M116,50 L116,79 L13,79 L13,50 L116,50 Z"/>
    <path fill="#A0A5AB" fill-rule="nonzero" d="M30 67C31.6568542 67 33 65.6568542 33 64 33 62.3431458 31.6568542 61 30 61 28.3431458 61 27 62.3431458 27 64 27 65.6568542 28.3431458 67 30 67zM30 68C27.790861 68 26 66.209139 26 64 26 61.790861 27.790861 60 30 60 32.209139 60 34 61.790861 34 64 34 66.209139 32.209139 68 30 68zM30 30C31.6568542 30 33 28.6568542 33 27 33 25.3431458 31.6568542 24 30 24 28.3431458 24 27 25.3431458 27 27 27 28.6568542 28.3431458 30 30 30zM30 31C27.790861 31 26 29.209139 26 27 26 24.790861 27.790861 23 30 23 32.209139 23 34 24.790861 34 27 34 29.209139 32.209139 31 30 31z"/>
    <rect width="60" height="1" x="40" y="24" fill="#A0A5AB"/>
    <rect width="15" height="1" x="40" y="29" fill="#A0A5AB"/>
    <rect width="24" height="1" x="63" y="29" fill="#A0A5AB"/>
    <rect width="60" height="1" x="40" y="61" fill="#A0A5AB"/>
    <rect width="15" height="1" x="40" y="66" fill="#A0A5AB"/>
    <rect width="24" height="1" x="63" y="66" fill="#A0A5AB"/>
    <rect width="2" height="2" x="110" y="105" fill="#A0A5AB"/>
    <rect width="2" height="2" x="110" y="109" fill="#A0A5AB"/>
    <rect width="2" height="2" x="106" y="109" fill="#A0A5AB"/>
    <path fill="#A0A5AB" fill-rule="nonzero" d="M14,87 L14,114 L115,114 L115,87 L14,87 Z M116,86 L116,115 L13,115 L13,86 L116,86 Z"/>
  </g>
</svg>
