<svg xmlns="http://www.w3.org/2000/svg" width="128" height="128" viewBox="0 0 128 128">
  <g fill="none" fill-rule="evenodd">
    <polygon fill="#FFB935" fill-rule="nonzero" points="16 16 118 16 118 44 16 44"/>
    <path fill="#F48024" fill-rule="nonzero" d="M14,14 L14,41 L115,41 L115,14 L14,14 Z M116,13 L116,42 L13,42 L13,13 L116,13 Z"/>
    <polygon fill="#CCEAFF" fill-rule="nonzero" points="16 53 118 53 118 81 16 81"/>
    <path fill="#1060E1" fill-rule="nonzero" d="M14,51 L14,78 L115,78 L115,51 L14,51 Z M116,50 L116,79 L13,79 L13,50 L116,50 Z"/>
    <circle cx="30" cy="27" r="4" fill="#FFFFFF" fill-rule="nonzero"/>
    <path fill="#1060E1" fill-rule="nonzero" d="M30,67 C31.6568542,67 33,65.6568542 33,64 C33,62.3431458 31.6568542,61 30,61 C28.3431458,61 27,62.3431458 27,64 C27,65.6568542 28.3431458,67 30,67 Z M30,68 C27.790861,68 26,66.209139 26,64 C26,61.790861 27.790861,60 30,60 C32.209139,60 34,61.790861 34,64 C34,66.209139 32.209139,68 30,68 Z"/>
    <rect width="60" height="1" x="40" y="24" fill="#FFFFFF"/>
    <rect width="15" height="1" x="40" y="29" fill="#FFFFFF"/>
    <rect width="24" height="1" x="63" y="29" fill="#FFFFFF"/>
    <rect width="60" height="1" x="40" y="61" fill="#1060E1"/>
    <rect width="15" height="1" x="40" y="66" fill="#1060E1"/>
    <rect width="24" height="1" x="63" y="66" fill="#1060E1"/>
    <rect width="2" height="2" x="109" y="105" fill="#1060E1"/>
    <rect width="2" height="2" x="109" y="109" fill="#1060E1"/>
    <rect width="2" height="2" x="105" y="109" fill="#1060E1"/>
    <rect width="1" height="4" x="115" y="92" fill="#1060E1"/>
    <rect width="1" height="4" x="115" y="98" fill="#1060E1"/>
    <rect width="1" height="4" x="115" y="105" fill="#1060E1"/>
    <rect width="1" height="3" x="115" y="112" fill="#1060E1"/>
    <rect width="2" height="1" x="113" y="114" fill="#1060E1"/>
    <rect width="1" height="3" x="115" y="86" fill="#1060E1"/>
    <rect width="2" height="1" x="113" y="86" fill="#1060E1"/>
    <rect width="4" height="1" x="106" y="86" fill="#1060E1"/>
    <rect width="4" height="1" x="106" y="114" fill="#1060E1"/>
    <rect width="4" height="1" x="98" y="114" fill="#1060E1"/>
    <rect width="4" height="1" x="90" y="114" fill="#1060E1"/>
    <rect width="4" height="1" x="82" y="114" fill="#1060E1"/>
    <rect width="4" height="1" x="74" y="114" fill="#1060E1"/>
    <rect width="4" height="1" x="66" y="114" fill="#1060E1"/>
    <rect width="4" height="1" x="58" y="114" fill="#1060E1"/>
    <rect width="4" height="1" x="50" y="114" fill="#1060E1"/>
    <rect width="4" height="1" x="42" y="114" fill="#1060E1"/>
    <rect width="4" height="1" x="35" y="114" fill="#1060E1"/>
    <rect width="4" height="1" x="27" y="114" fill="#1060E1"/>
    <rect width="4" height="1" x="19" y="114" fill="#1060E1"/>
    <rect width="3" height="1" x="13" y="114" fill="#1060E1"/>
    <rect width="1" height="2" x="13" y="112" fill="#1060E1"/>
    <rect width="1" height="4" x="13" y="105" fill="#1060E1"/>
    <rect width="1" height="4" x="13" y="98" fill="#1060E1"/>
    <rect width="1" height="4" x="13" y="92" fill="#1060E1"/>
    <rect width="1" height="3" x="13" y="86" fill="#1060E1"/>
    <rect width="1" height="1" x="14" y="86" fill="#1060E1"/>
    <rect width="4" height="1" x="19" y="86" fill="#1060E1"/>
    <rect width="4" height="1" x="27" y="86" fill="#1060E1"/>
    <rect width="4" height="1" x="35" y="86" fill="#1060E1"/>
    <rect width="4" height="1" x="43" y="86" fill="#1060E1"/>
    <rect width="4" height="1" x="50" y="86" fill="#1060E1"/>
    <rect width="4" height="1" x="58" y="86" fill="#1060E1"/>
    <rect width="4" height="1" x="66" y="86" fill="#1060E1"/>
    <rect width="4" height="1" x="74" y="86" fill="#1060E1"/>
    <rect width="4" height="1" x="82" y="86" fill="#1060E1"/>
    <rect width="4" height="1" x="90" y="86" fill="#1060E1"/>
    <rect width="4" height="1" x="98" y="86" fill="#1060E1"/>
  </g>
</svg>
