<svg xmlns="http://www.w3.org/2000/svg" xmlns:xlink="http://www.w3.org/1999/xlink" width="716" height="519"><defs><linearGradient id="a" x1="418.32" y1="182.63" x2="449.68" y2="127.1" gradientUnits="userSpaceOnUse"><stop offset="0" stop-color="#d14a11" stop-opacity="0"/><stop offset="1" stop-color="#d14a11"/></linearGradient><linearGradient id="b" x1="498.51" y1="283.99" x2="529.87" y2="228.46" xlink:href="#a"/><linearGradient id="c" x1="385.83" y1="285.73" x2="417.19" y2="230.2" xlink:href="#a"/><linearGradient id="d" x1="239.99" y1="349.24" x2="288.29" y2="263.71" xlink:href="#a"/></defs><path d="M243.19 29.63l.4.24.41.23-90.92 52.84-.4-.24a9.52 9.52 0 0 0-.42-.23z" fill="#d14a11"/><g style="isolation:isolate" fill="#d14a11"><path d="M104.29 60.98l37.15 21.46a8.63 8.63 0 0 0-.95.54l-37.15-21.45z"/><path d="M152.68 82.7l.4.24c2.7 1.8 2.74 4.47.1 6.27a5.88 5.88 0 0 1-.95.55 13.18 13.18 0 0 1-10.82-.03l-.42-.23-.4-.24c-2.7-1.8-2.74-4.47-.1-6.27l.46-.29c.16-.09.32-.18.5-.26a13.19 13.19 0 0 1 10.82.03l.41.23z"/><path d="M140.59 89.25l.4.25.41.23-90.93 52.84a5.97 5.97 0 0 0-.82-.47zM153.17 89.21l92.5 53.4a10.87 10.87 0 0 0-.95.55l-92.5-53.4.5-.26.45-.29z"/></g><path d="M1.69 120.61l37.15 21.45-.5.27-.46.28L.73 121.16z" fill="#d14a11"/><path d="M50.08 142.32l.4.25c2.7 1.79 2.74 4.46.1 6.26l-.46.3-.5.26a13.18 13.18 0 0 1-10.82-.04q-.22-.1-.42-.23a11.8 11.8 0 0 1-.4-.24c-2.7-1.8-2.74-4.46-.1-6.27l.45-.29q.24-.15.5-.26a13.18 13.18 0 0 1 10.82.04q.22.1.43.22zM50.18 261.43l91.22-53.01a6.29 6.29 0 0 0 .69.55l-90.95 52.86a9.62 9.62 0 0 0-.96-.4z" fill="#d14a11"/><path d="M51.71 262.13c3.1 1.79 3.27 4.63.5 6.52l-.45.28q-.23.14-.5.27a13.06 13.06 0 0 1-11.25-.27c-.19-.1-.36-.22-.52-.33a6.06 6.06 0 0 1-.7-.55c-1.85-1.75-1.61-4.03.73-5.63l.46-.29q.24-.14.49-.26a13.35 13.35 0 0 1 9.71-.44 9.62 9.62 0 0 1 .96.4l.57.3zM410.6 51.98l.82.47-52.47 30.5a9.86 9.86 0 0 0-.96-.4zM255.39 142.18l91.22-53.01a6.16 6.16 0 0 0 .68.55l-90.94 52.86a9.88 9.88 0 0 0-.96-.4zM152.78 201.8l91.22-53a6.2 6.2 0 0 0 .7.55l-90.96 52.85a9.64 9.64 0 0 0-.96-.4zM513.88 111.6l.82.48-52.46 30.48a9.63 9.63 0 0 0-.2-.12q-.31-.18-.64-.33zM449.75 148.87a7.35 7.35 0 0 0 .8.49l-90.91 52.83a7.56 7.56 0 0 0-.2-.12q-.31-.18-.64-.34z" fill="#d14a11"/><path d="M256.92 142.88c3.1 1.78 3.26 4.62.5 6.51l-.46.3q-.24.14-.48.25a13.06 13.06 0 0 1-11.26-.26q-.28-.16-.52-.33a6.08 6.08 0 0 1-.69-.56c-1.86-1.74-1.62-4.03.72-5.62l.45-.29c.16-.1.33-.18.5-.26a13.35 13.35 0 0 1 9.72-.44 9.88 9.88 0 0 1 .96.4c.18.09.38.19.56.3z" fill="#d14a11"/><path d="M257.42 149.4l90.77 52.4a10.87 10.87 0 0 0-.95.55l-90.77-52.4.49-.27.46-.29z" fill="#d14a11"/><g style="isolation:isolate" fill="#d14a11"><path d="M359.44 202.07l.2.12c2.9 1.79 3 4.54.29 6.39l-.46.29q-.24.14-.49.26a13.12 13.12 0 0 1-11.04-.15l-.2-.11q-.31-.18-.59-.37c-2.52-1.8-2.5-4.39.1-6.15q.2-.14.44-.28c.16-.1.33-.18.5-.27a13.24 13.24 0 0 1 10.61-.07q.33.16.64.34z"/><path d="M347.15 208.5q.28.2.59.37l.2.12-90.9 52.83a11.75 11.75 0 0 0-.85-.46z"/></g><g style="isolation:isolate" fill="#d14a11"><path d="M154.23 321.32l.2.12c2.9 1.79 3 4.55.29 6.4a6.06 6.06 0 0 1-.95.54 13.13 13.13 0 0 1-11.04-.14 8.46 8.46 0 0 1-.79-.5c-2.52-1.78-2.5-4.37.09-6.14a7.9 7.9 0 0 1 .94-.55 13.23 13.23 0 0 1 10.61-.07c.23.1.44.22.65.34z"/><path d="M141.95 327.75a7.17 7.17 0 0 0 .79.49l-62.95 36.58-.82-.47z"/></g><path d="M244.55 268.12q.27.2.58.37l.21.12-90.9 52.83-.2-.12a8.7 8.7 0 0 0-.65-.34zM617.15 171.23l.82.47-52.5 30.51a10.22 10.22 0 0 0-.98-.37zM461.89 261.46l91.32-53.07a5.59 5.59 0 0 0 .65.57l-91 52.88a10.43 10.43 0 0 0-.97-.38zM463.18 380.83l.4.24c2.7 1.8 2.73 4.47.1 6.27l-.46.29-.5.26a13.18 13.18 0 0 1-10.82-.04 7.73 7.73 0 0 1-.82-.47c-2.7-1.8-2.74-4.46-.1-6.27q.21-.15.45-.29l.5-.26a13.19 13.19 0 0 1 10.83.04l.42.23zM143.07 202.24l-.5.27q-.25.14-.45.28l-92.5-53.4a9.92 9.92 0 0 0 .95-.55z" fill="#d14a11"/><g style="isolation:isolate" fill="#d14a11"><path d="M245.59 261.43q-.26.12-.5.26t-.46.29l-90.77-52.4a10.87 10.87 0 0 0 .96-.56z"/><path d="M154.31 202.5c3.1 1.8 3.27 4.63.5 6.52q-.21.15-.45.29l-.5.26a13.06 13.06 0 0 1-11.25-.27c-.19-.1-.36-.21-.52-.33a6.29 6.29 0 0 1-.7-.55c-1.85-1.75-1.61-4.03.73-5.63l.45-.28.5-.27a13.34 13.34 0 0 1 9.7-.43 9.64 9.64 0 0 1 .97.4c.2.09.39.19.57.3z"/></g><path d="M256.83 261.7l.2.12c2.9 1.79 3 4.54.3 6.39l-.46.29c-.16.1-.33.18-.5.26a13.13 13.13 0 0 1-11.03-.15l-.21-.11q-.31-.18-.58-.37c-2.52-1.8-2.5-4.38.08-6.15l.45-.28.5-.27a13.24 13.24 0 0 1 10.6-.07c.23.1.44.21.65.34z" fill="#d14a11"/><g style="isolation:isolate" fill="#d14a11"><path d="M257.33 268.2l92.5 53.4-.5.27-.46.29-92.5-53.4c.17-.09.34-.17.5-.27l.46-.29zM451.93 380.56a10.87 10.87 0 0 0-.96.55l-90.36-52.17a10.87 10.87 0 0 0 .95-.56z"/><path d="M361.07 321.88c3.09 1.78 3.25 4.62.5 6.5l-.46.3-.5.26a13.06 13.06 0 0 1-11.24-.27 7.05 7.05 0 0 1-.72-.46 5.59 5.59 0 0 1-.65-.57c-1.7-1.73-1.41-3.93.86-5.48l.46-.29q.24-.14.5-.26a13.36 13.36 0 0 1 9.46-.52 10.43 10.43 0 0 1 .98.38 8.74 8.74 0 0 1 .8.4z"/><path d="M256.68 380.71L348 327.64a5.68 5.68 0 0 0 .65.57l-91 52.88a10.32 10.32 0 0 0-.98-.38z"/></g><path d="M359.28 321.09L450.6 268a5.57 5.57 0 0 0 .65.57l-91 52.89a10.43 10.43 0 0 0-.98-.38zM258.47 381.5c3.09 1.78 3.25 4.63.49 6.51l-.46.29q-.24.14-.5.26a13.06 13.06 0 0 1-11.24-.26 7.23 7.23 0 0 1-.71-.47 5.68 5.68 0 0 1-.66-.56c-1.7-1.73-1.4-3.93.87-5.49q.22-.15.46-.28t.49-.27a13.35 13.35 0 0 1 9.46-.52 10.32 10.32 0 0 1 .98.38 8.5 8.5 0 0 1 .82.41z" fill="#d14a11"/><path d="M182.24 423.97l63.16-36.7a5.68 5.68 0 0 0 .65.57l-62.99 36.6zM359.93 208.58l92.5 53.4a10.87 10.87 0 0 0-.95.55l-92.5-53.4.5-.26q.24-.13.45-.29z" fill="#d14a11"/><path d="M463.68 262.25c3.08 1.78 3.25 4.62.48 6.51q-.21.15-.45.29t-.5.26a13.05 13.05 0 0 1-11.24-.26 7.07 7.07 0 0 1-.71-.47 5.57 5.57 0 0 1-.65-.57c-1.7-1.72-1.41-3.92.87-5.48l.45-.28c.16-.1.32-.18.5-.27a13.36 13.36 0 0 1 9.46-.52 10.43 10.43 0 0 1 .98.38 8.74 8.74 0 0 1 .8.4zM566.77 209.13l90.37 52.18a9.57 9.57 0 0 0-.96.55l-90.37-52.18a9.94 9.94 0 0 0 .96-.55z" fill="#d14a11"/><path d="M668.38 261.57l.4.25c2.7 1.79 2.74 4.46.1 6.27a8.86 8.86 0 0 1-.96.55 13.18 13.18 0 0 1-10.82-.04 8.55 8.55 0 0 1-.82-.47c-2.7-1.8-2.74-4.46-.1-6.27l.46-.29c.16-.1.33-.18.5-.26a13.18 13.18 0 0 1 10.82.04q.22.1.42.22z" fill="#d14a11"/><path d="M668.88 268.08l46.8 27.02-.5.27-.46.29-46.8-27.02.5-.27.46-.29z" fill="#d14a11"/><g style="isolation:isolate" fill="#d14a11"><path d="M713.98 354.08a7.79 7.79 0 0 0 .82.47l-45.35 26.52a7.4 7.4 0 0 0-.82-.47zM566.27 327.71l131.69 76.49-.5.27q-.24.13-.46.28l-131.68-76.5.5-.25q.24-.13.45-.29z"/><path d="M669.06 380.82l.4.25c2.7 1.8 2.73 4.46.08 6.27a7.89 7.89 0 0 1-.94.55 13.17 13.17 0 0 1-10.82-.04 8.55 8.55 0 0 1-.82-.47c-2.7-1.79-2.74-4.46-.1-6.27a6.17 6.17 0 0 1 .95-.55 13.18 13.18 0 0 1 10.82.04q.22.1.43.22z"/><path d="M656.96 387.38a7.79 7.79 0 0 0 .82.47l-90.94 52.85c-.12-.08-.25-.17-.4-.24l-.42-.23z"/></g><g style="isolation:isolate" fill="#d14a11"><path d="M464.16 268.76l90.37 52.17-.5.27q-.25.14-.45.28l-90.36-52.17.49-.26q.24-.13.45-.29z"/><path d="M565.78 321.2l.4.24c2.7 1.8 2.74 4.47.1 6.27l-.46.3q-.24.14-.5.25a13.18 13.18 0 0 1-10.82-.03 8.55 8.55 0 0 1-.81-.47c-2.71-1.8-2.75-4.47-.1-6.28l.45-.28.5-.27a13.18 13.18 0 0 1 10.83.04l.41.23z"/><path d="M553.69 327.76a7.79 7.79 0 0 0 .81.47l-90.93 52.84a7.79 7.79 0 0 0-.81-.47z"/></g><path d="M656.29 268.13a7.79 7.79 0 0 0 .82.47l-90.93 52.84-.4-.24-.42-.23zM348.48 447.01l.4.25.42.22-62.96 36.59-.81-.47zM464.34 506.6l20.59 12.2-.95.56-20.59-12.22a9.97 9.97 0 0 0 .95-.55z" fill="#d14a11"/><path d="M463.85 500.08l.4.24c2.7 1.8 2.73 4.47.1 6.27l-.46.29c-.16.09-.32.18-.5.26a13.17 13.17 0 0 1-10.82-.03l-.42-.23-.4-.25c-2.7-1.79-2.74-4.46-.1-6.26l.46-.3q.24-.14.49-.25a13.18 13.18 0 0 1 10.82.03l.43.23z" fill="#d14a11"/><path d="M452.6 499.82q-.25.12-.49.26t-.45.29l-91.54-52.85a9.55 9.55 0 0 0 .95-.55z" fill="#d14a11"/><path d="M360.58 440.45l.4.25c2.7 1.79 2.73 4.46.09 6.27a6.42 6.42 0 0 1-.95.55 13.18 13.18 0 0 1-10.83-.04q-.22-.1-.42-.23a11.2 11.2 0 0 1-.4-.24c-2.71-1.8-2.75-4.47-.1-6.27l.46-.29.48-.26a13.19 13.19 0 0 1 10.83.04l.44.22z" fill="#d14a11"/><path d="M451.09 387.38a7.82 7.82 0 0 0 .81.47l-90.93 52.85a7.79 7.79 0 0 0-.82-.47zM566.45 440.45l.4.25c2.7 1.79 2.74 4.46.1 6.26l-.46.29c-.16.1-.32.18-.5.27a13.17 13.17 0 0 1-10.81-.04 7.73 7.73 0 0 1-.83-.47c-2.7-1.8-2.74-4.47-.1-6.27l.46-.29q.24-.14.5-.26a13.19 13.19 0 0 1 10.82.03l.42.23z" fill="#d14a11"/><path d="M554.36 447c.12.09.25.17.4.25l.42.23-90.93 52.84a7.79 7.79 0 0 0-.82-.47zM349.32 440.19q-.25.12-.48.26t-.46.29L258 388.56q.26-.12.5-.26t.45-.29zM247.21 381.24q-.25.12-.48.26t-.46.29l-92.5-53.4.5-.27.45-.28zM142.98 321.06a8.38 8.38 0 0 0-.95.54l-90.77-52.4.5-.27.45-.28zM463.67 387.34l151.24 87.32-.5.27-.46.28-151.23-87.32a9.97 9.97 0 0 0 .95-.55zM566.27 202.62c3.1 1.79 3.26 4.62.5 6.51q-.21.15-.45.29c-.16.1-.33.18-.5.27a13.05 13.05 0 0 1-11.25-.27 7.17 7.17 0 0 1-.7-.46 5.59 5.59 0 0 1-.66-.57c-1.7-1.73-1.41-3.93.87-5.48a7.87 7.87 0 0 1 .95-.56 13.36 13.36 0 0 1 9.46-.52 10.22 10.22 0 0 1 .98.38 8.73 8.73 0 0 1 .8.41zM360.02 89.77l90.77 52.4a9.97 9.97 0 0 0-.95.56l-90.77-52.41a9.94 9.94 0 0 0 .95-.55z" fill="#d14a11"/><g style="isolation:isolate" fill="#d14a11"><path d="M462.04 142.44l.2.12c2.9 1.79 3 4.55.3 6.4l-.46.28c-.16.1-.33.18-.5.26a13.12 13.12 0 0 1-11.04-.14 10.3 10.3 0 0 1-.79-.49c-2.52-1.79-2.5-4.38.1-6.14q.2-.15.45-.3l.5-.26a13.24 13.24 0 0 1 10.6-.06q.33.15.64.33z"/><path d="M462.53 148.95l92.5 53.4a10.87 10.87 0 0 0-.95.55l-92.5-53.4a8.63 8.63 0 0 0 .95-.55z"/></g><g style="isolation:isolate" fill="#d14a11"><path d="M255.28 23.07l.4.25c2.7 1.79 2.74 4.46.1 6.26a5.88 5.88 0 0 1-.96.55A13.18 13.18 0 0 1 244 30.1a8.1 8.1 0 0 1-.82-.47c-2.7-1.8-2.74-4.46-.1-6.27l.46-.29c.16-.1.33-.18.5-.26a13.18 13.18 0 0 1 10.82.03l.42.23z"/><path d="M255.78 29.58l92.5 53.4-.5.27-.46.29-92.5-53.4.5-.27.46-.29z"/></g><path d="M206.9 1.36l37.14 21.45a8.05 8.05 0 0 0-.95.55L205.94 1.9zM359.52 83.25c3.1 1.79 3.26 4.63.5 6.52l-.45.28c-.16.1-.33.19-.5.27a13.06 13.06 0 0 1-11.26-.27c-.18-.1-.36-.21-.52-.33a6.16 6.16 0 0 1-.69-.55c-1.86-1.75-1.62-4.03.72-5.63a5.86 5.86 0 0 1 .96-.55 13.35 13.35 0 0 1 9.7-.44 9.86 9.86 0 0 1 .97.4l.57.3z" fill="#d14a11"/><path fill="url(#a)" d="M326.52 137.15l52.35-29.78 150.41 86.83-52.35 29.77-150.41-86.82z"/><g style="isolation:isolate" fill="#ffb936" stroke="#d14a11" stroke-linejoin="round" stroke-width="2"><path d="M525.74 158.67l-.1 36.68-149.76-86.46.1-36.68 149.76 86.46z"/><path d="M525.74 158.67l28.83-16.76-.1 36.69-28.84 16.75.1-36.68z"/><path d="M375.99 72.2l28.83-16.75 149.75 86.46-28.83 16.76L375.99 72.2z"/></g><path fill="url(#b)" d="M406.7 238.5l52.36-29.77 150.41 86.82-52.35 29.78L406.7 238.5z"/><g style="isolation:isolate" fill="#ffb936" stroke="#d14a11" stroke-linejoin="round" stroke-width="2"><path d="M606.92 260.02l-.1 36.69-149.75-86.46.1-36.69 149.75 86.46z"/><path d="M606.92 260.02l28.84-16.75-.1 36.68-28.84 16.76.1-36.69z"/><path d="M457.17 173.56L486 156.81l149.76 86.46-28.84 16.75-149.75-86.45z"/></g><path fill="url(#c)" d="M294.02 240.25l52.36-29.77 150.4 86.82-52.35 29.77-150.4-86.82z"/><g style="isolation:isolate" fill="#ffb936" stroke="#d14a11" stroke-linejoin="round" stroke-width="2"><path d="M496.24 260.77l-.1 36.68L346.38 211l.1-36.68 149.76 86.46z"/><path d="M496.24 260.77L525.07 244l-.1 36.69-28.83 16.75.1-36.68z"/><path d="M346.49 174.31l28.83-16.76 149.75 86.46-28.83 16.76L346.5 174.3z"/></g><path fill="url(#d)" d="M89.8 273.85l78.35-46.78 251.53 145.32-77.47 47.28L89.8 273.85z"/><g style="isolation:isolate"><path fill="#ffb936" d="M169.76 98.9l43.36-25.2 26.93 15.55-43.36 25.2-26.93-15.56z"/><path d="M213.12 74.27l25.93 14.98-42.36 24.61-25.93-14.97 42.36-24.62m0-1.15l-44.36 25.77 27.94 16.13 44.35-25.78-27.93-16.12z" fill="#d14a11"/><path fill="#ffb936" d="M197.2 115.3l43.34-25.19-.26 95.16-43.35 25.2.26-95.16z"/><path d="M240.04 90.98l-.26 94-42.35 24.62.26-94 42.35-24.61m1-1.74l-44.34 25.77-.27 96.32 44.35-25.78.27-96.32z" fill="#d14a11"/><path fill="#ffb936" d="M198.02 209.51l42.75-23.38 194.39 112.24-42.9 23.06L198.02 209.5z"/><path d="M240.76 186.7l193.37 111.65-41.86 22.5-193.23-111.33 41.72-22.81m.02-1.15L197 209.5 392.25 322l43.94-23.62-195.41-112.82z" fill="#d14a11"/><path fill="#ffb936" d="M168.9 227.03l.36-127.27 26.93 15.55-.27 93.31 196.41 113.4.27-93.31 26.95 15.55-.36 127.27-250.29-144.5z"/><path d="M169.76 100.62l25.93 14.98-.27 92.74v.58l.5.29 195.41 112.82 1.5.86v-1.73l.27-91.59 25.94 14.98-.35 126.12L169.4 226.74l.36-126.12m-1-1.73l-.36 128.42L419.68 372.4l.37-128.42-27.94-16.13-.28 93.31-195.4-112.81.27-93.32-27.94-16.13z" fill="#d14a11"/><path fill="#ffb936" d="M420.55 244.26l43.35-25.2-.36 127.27-43.35 25.2.36-127.27z"/><path d="M463.4 219.94l-.36 126.1-42.35 24.6.36-126.1 42.35-24.6m1-1.74l-44.35 25.77-.37 128.42 44.36-25.77.36-128.42z" fill="#d14a11"/><path fill="#ffb936" d="M393.1 227.84l43.36-25.2 26.94 15.56-43.35 25.2-26.95-15.56z"/><path d="M436.46 203.22l25.94 14.98-42.36 24.62-25.94-14.98 42.36-24.62m0-1.16l-44.35 25.78 27.94 16.13 44.35-25.77-27.94-16.13z" fill="#d14a11"/></g></svg>