<svg xmlns="http://www.w3.org/2000/svg" viewBox="0 0 128 128"><defs><style>.cls-1{fill:#1060e1;}.cls-2{fill:#ffb935;}.cls-10,.cls-3,.cls-5,.cls-6,.cls-7,.cls-9{fill:none;}.cls-3{stroke:#f48024;}.cls-3,.cls-5,.cls-6,.cls-7,.cls-9{stroke-linecap:round;stroke-linejoin:round;}.cls-4{fill:#cceaff;}.cls-10,.cls-5,.cls-6,.cls-7{stroke:#1060e1;}.cls-6{stroke-dasharray:3.91 3.91;}.cls-7{stroke-dasharray:3.42 3.42;}.cls-8{fill:#fff;}.cls-9{stroke:#fff;}.cls-10{stroke-miterlimit:10;}</style></defs><circle class="cls-1" cx="106.27" cy="110.18" r="0.97"/><circle class="cls-1" cx="109.96" cy="106.31" r="0.97"/><circle class="cls-1" cx="109.96" cy="110.18" r="0.97"/><rect class="cls-2" x="16.18" y="16.56" width="101.64" height="27.94"/><rect class="cls-3" x="13.18" y="13.75" width="101.64" height="27.94"/><rect class="cls-4" x="16.18" y="52.9" width="101.64" height="27.94"/><rect class="cls-5" x="13.18" y="50.09" width="101.64" height="27.94"/><polyline class="cls-5" points="114.82 112.37 114.82 114.37 112.82 114.37"/><line class="cls-6" x1="108.91" y1="114.37" x2="17.13" y2="114.37"/><polyline class="cls-5" points="15.18 114.37 13.18 114.37 13.18 112.37"/><line class="cls-7" x1="13.18" y1="108.95" x2="13.18" y2="90.14"/><polyline class="cls-5" points="13.18 88.43 13.18 86.43 15.18 86.43"/><line class="cls-6" x1="19.08" y1="86.43" x2="110.87" y2="86.43"/><polyline class="cls-5" points="112.82 86.43 114.82 86.43 114.82 88.43"/><line class="cls-7" x1="114.82" y1="91.85" x2="114.82" y2="110.66"/><circle class="cls-8" cx="29.6" cy="27.72" r="4.01"/><line class="cls-9" x1="40.62" y1="25.88" x2="99.73" y2="25.88"/><line class="cls-9" x1="40.62" y1="30.53" x2="54.65" y2="30.53"/><line class="cls-9" x1="63.16" y1="30.53" x2="86.04" y2="30.53"/><circle class="cls-10" cx="29.6" cy="64.06" r="4.01"/><line class="cls-5" x1="40.62" y1="62.23" x2="99.73" y2="62.23"/><line class="cls-5" x1="40.62" y1="66.87" x2="54.65" y2="66.87"/><line class="cls-5" x1="63.16" y1="66.87" x2="86.04" y2="66.87"/></svg>