<?xml version="1.0" encoding="UTF-8"?>
<svg width="189px" height="48px" viewBox="0 0 189 48" version="1.1" xmlns="http://www.w3.org/2000/svg" xmlns:xlink="http://www.w3.org/1999/xlink">
    <!-- Generator: Sketch 52.4 (67378) - http://www.bohemiancoding.com/sketch -->
    <title>stackoverflow-br</title>
    <desc>Created with Sketch.</desc>
    <g id="stackoverflow-br" stroke="none" stroke-width="1" fill="none" fill-rule="evenodd">
        <path d="M39.239595,39.3135164 C39.0233763,38.8020437 38.5406825,38.4520887 37.8955325,38.4520887 C37.2503825,38.4520887 36.7536638,38.8020437 36.537445,39.3135164 C36.4042075,39.6225068 36.3773263,39.8249891 36.36447,40.2416579 L39.4277638,40.2416579 C39.4137388,39.8249891 39.3740013,39.6225068 39.239595,39.3135164 Z M36.36447,41.1978894 C36.36447,42.3683074 36.9827388,43.1080116 38.0965575,43.1080116 C38.8632575,43.1080116 39.2653075,42.8926547 39.7503388,42.4081016 L40.623395,43.229735 C39.9244825,43.9284746 39.2653075,44.2924746 38.070845,44.2924746 C36.36447,44.2924746 35.0075513,43.3900823 35.0075513,40.7929248 C35.0075513,38.5866868 36.1482513,37.3085904 37.8955325,37.3085904 C39.7234575,37.3085904 40.7846825,38.6534006 40.7846825,40.5916129 L40.7846825,41.1978894 L36.36447,41.1978894 Z" id="Fill-11" fill="#BBBBBB"></path>
        <path d="M50.0950619,44.2112476 L50.0950619,40.0539228 C50.0950619,38.9900129 49.4908181,38.5323794 48.7241181,38.5323794 C47.9854681,38.5323794 47.3134369,39.0040579 47.3134369,39.9860386 L47.3134369,44.2112476 L45.9436619,44.2112476 L45.9436619,40.0539228 C45.9436619,38.9900129 45.3394181,38.5323794 44.5727181,38.5323794 C43.8060181,38.5323794 43.1620369,39.0040579 43.1620369,40.0539228 L43.1620369,44.2112476 L41.7922619,44.2112476 L41.7922619,37.388881 L43.1351556,37.388881 L43.1351556,38.0759164 C43.5933056,37.5773183 44.2629994,37.3081222 44.9490556,37.3081222 C45.7952306,37.3081222 46.4532369,37.6452026 46.8833369,38.3041479 C47.4361556,37.632328 48.1210431,37.3081222 49.0209806,37.3081222 C49.7187244,37.3081222 50.3369931,37.5375241 50.7402119,37.9272733 C51.2638119,38.438746 51.4660056,39.0836463 51.4660056,39.8514405 L51.4660056,44.2112476 L50.0950619,44.2112476 Z" id="Fill-12" fill="#BBBBBB"></path>
        <path d="M58.85496,35.9360412 L56.7593913,35.9360412 L56.7593913,39.1242598 L58.85496,39.1242598 C59.8624225,39.1242598 60.54731,38.5460733 60.54731,37.537173 C60.54731,36.5282727 59.8624225,35.9360412 58.85496,35.9360412 M58.934435,40.4444913 L56.7593913,40.4444913 L56.7593913,44.2120669 L55.3078038,44.2120669 L55.3078038,34.6310251 L58.934435,34.6310251 C60.8032663,34.6310251 61.9977288,35.8693273 61.9977288,37.537173 C61.9977288,39.2050186 60.8032663,40.4444913 58.934435,40.4444913" id="Fill-13" fill="#BBBBBB"></path>
        <path d="M66.0557456,38.923182 C65.7997894,38.6668605 65.4515019,38.5322624 65.0494519,38.5322624 C64.6450644,38.5322624 64.3084644,38.6668605 64.0536769,38.923182 C63.6376019,39.3398508 63.5850081,40.0538058 63.5850081,40.79351 C63.5850081,41.5332141 63.6376019,42.2471691 64.0536769,42.6638379 C64.3084644,42.9189891 64.6450644,43.0676322 65.0494519,43.0676322 C65.4515019,43.0676322 65.7997894,42.9189891 66.0557456,42.6638379 C66.4718206,42.2471691 66.5255831,41.5332141 66.5255831,40.79351 C66.5255831,40.0538058 66.4718206,39.3398508 66.0557456,38.923182 M67.0912581,43.484301 C66.6471331,43.9419344 65.9762706,44.2918894 65.0494519,44.2918894 C64.1226331,44.2918894 63.4622894,43.9419344 63.0193331,43.484301 C62.3753519,42.8113106 62.2128956,41.9510534 62.2128956,40.79351 C62.2128956,39.6500116 62.3753519,38.7885839 63.0193331,38.1155936 C63.4622894,37.6579601 64.1226331,37.3091756 65.0494519,37.3091756 C65.9762706,37.3091756 66.6471331,37.6579601 67.0912581,38.1155936 C67.7352394,38.7885839 67.8965269,39.6500116 67.8965269,40.79351 C67.8965269,41.9510534 67.7352394,42.8113106 67.0912581,43.484301" id="Fill-14" fill="#BBBBBB"></path>
        <path d="M72.7441512,38.9901299 C72.4356012,38.6811395 72.19367,38.5324965 71.7226637,38.5324965 C70.9840137,38.5324965 70.365745,39.124728 70.365745,40.0669145 L70.365745,44.2113646 L68.99597,44.2113646 L68.99597,37.3889981 L70.3388637,37.3889981 L70.3388637,38.1287023 C70.68832,37.6441492 71.3872325,37.3082392 72.1527637,37.3082392 C72.81077,37.3082392 73.3086575,37.4826315 73.778495,37.95431 L72.7441512,38.9901299 Z" id="Fill-15" fill="#BBBBBB"></path>
        <path d="M76.510565,44.2112476 C75.23429,44.2112476 74.6417338,43.2959807 74.6417338,42.314 L74.6417338,38.559299 L74.6417338,37.5094341 L74.6417338,35.4389646 L76.0126775,35.4389646 L76.0126775,37.388881 L77.60919,37.388881 L76.7700275,38.438746 L76.0126775,38.438746 L76.0126775,42.2461158 C76.0126775,42.7447138 76.25344,43.0408296 76.7665213,43.0408296 L77.3298588,43.0408296 L77.3298588,44.2112476 L76.510565,44.2112476 Z" id="Fill-16" fill="#BBBBBB"></path>
        <path d="M82.6613456,44.2112476 L82.6613456,43.5253826 C82.1926769,44.0356849 81.5323331,44.2920064 80.8474456,44.2920064 C80.1497019,44.2920064 79.5711706,44.0637749 79.1691206,43.6728553 C78.6443519,43.1613826 78.4818956,42.5164823 78.4818956,41.7486881 L78.4818956,37.388881 L79.8551769,37.388881 L79.8551769,41.5473762 C79.8551769,42.6101158 80.4582519,43.0677492 81.2249519,43.0677492 C81.9893144,43.0677492 82.6356331,42.5972412 82.6356331,41.5473762 L82.6356331,37.388881 L84.0054081,37.388881 L84.0054081,44.2112476 L82.6613456,44.2112476 Z" id="Fill-17" fill="#BBBBBB"></path>
        <path d="M87.8853075,38.5328476 C86.6499388,38.5328476 86.4886513,39.5955871 86.4886513,40.6723717 C86.4886513,41.7479859 86.6499388,42.8118958 87.8853075,42.8118958 C89.1206763,42.8118958 89.2691075,41.7479859 89.2691075,40.6723717 C89.2691075,39.5955871 89.1206763,38.5328476 87.8853075,38.5328476 M87.72402,47.0499794 C86.690845,47.0499794 86.03167,46.8088733 85.3187325,46.1487576 L86.1929575,45.2732849 C86.6218887,45.6782495 86.9982263,45.8795614 87.6702575,45.8795614 C88.8261513,45.8795614 89.2691075,45.0590984 89.2691075,44.1438315 L89.2691075,43.2695293 C88.7723888,43.8605904 88.2078825,44.0501981 87.50897,44.0501981 C86.8240825,44.0501981 86.2595762,43.8207961 85.8832388,43.4439215 C85.2264012,42.7849762 85.1165388,41.8299151 85.1165388,40.6723717 C85.1165388,39.5148283 85.2264012,38.5597672 85.8832388,37.9008219 C86.2595762,37.5239473 86.8381075,37.3085904 87.522995,37.3085904 C88.2487888,37.3085904 88.79927,37.4970277 89.3100138,38.1150084 L89.3100138,37.3893492 L90.6400513,37.3893492 L90.6400513,44.1707511 C90.6400513,45.8397672 89.53792,47.0499794 87.72402,47.0499794" id="Fill-18" fill="#BBBBBB"></path>
        <path d="M96.1191513,44.2112476 L96.1191513,43.5253826 C95.6493138,44.0356849 94.9901388,44.2920064 94.3052512,44.2920064 C93.6063387,44.2920064 93.0278075,44.0637749 92.6257575,43.6728553 C92.1009887,43.1613826 91.94087,42.5164823 91.94087,41.7486881 L91.94087,37.388881 L93.3118137,37.388881 L93.3118137,41.5473762 C93.3118137,42.6101158 93.9160575,43.0677492 94.6815888,43.0677492 C95.44712,43.0677492 96.09227,42.5972412 96.09227,41.5473762 L96.09227,37.388881 L97.4632138,37.388881 L97.4632138,44.2112476 L96.1191513,44.2112476 Z" id="Fill-19" fill="#BBBBBB"></path>
        <path d="M103.023191,39.3135164 C102.806972,38.8020437 102.32311,38.4520887 101.679129,38.4520887 C101.033979,38.4520887 100.536091,38.8020437 100.321041,39.3135164 C100.186635,39.6225068 100.160922,39.8249891 100.148066,40.2416579 L103.210191,40.2416579 C103.197335,39.8249891 103.156429,39.6225068 103.023191,39.3135164 Z M102.888785,36.1510469 L101.720035,34.8460309 L100.551285,36.1510469 L99.4070787,36.1510469 L101.141504,33.9857736 L102.297397,33.9857736 L104.029485,36.1510469 L102.888785,36.1510469 Z M100.148066,41.1978894 C100.148066,42.3683074 100.765166,43.1080116 101.880154,43.1080116 C102.646854,43.1080116 103.048904,42.8926547 103.533935,42.4081016 L104.406991,43.229735 C103.708079,43.9284746 103.048904,44.2924746 101.854441,44.2924746 C100.148066,44.2924746 98.7911475,43.3900823 98.7911475,40.7929248 C98.7911475,38.5866868 99.9318475,37.3085904 101.679129,37.3085904 C103.505885,37.3085904 104.56711,38.6534006 104.56711,40.5916129 L104.56711,41.1978894 L100.148066,41.1978894 Z" id="Fill-20" fill="#BBBBBB"></path>
        <path d="M108.222025,44.2917723 C107.107037,44.2917723 106.165025,44.103335 105.359756,43.3097916 L106.258525,42.4073994 C106.811344,42.9738817 107.549994,43.1213543 108.222025,43.1213543 C109.055344,43.1213543 109.712181,42.8252386 109.712181,42.1791678 C109.712181,41.7215344 109.458562,41.4254186 108.799387,41.3715794 L107.711281,41.277946 C106.435006,41.1702675 105.696356,40.5909106 105.696356,39.393573 C105.696356,38.0616373 106.837056,37.3078881 108.260594,37.3078881 C109.282081,37.3078881 110.155137,37.523245 110.787431,38.0756823 L109.9284,38.9499846 C109.4983,38.587155 108.892887,38.4513865 108.247737,38.4513865 C107.428444,38.4513865 107.012369,38.8153865 107.012369,39.3256887 C107.012369,39.7306534 107.227419,40.0396437 107.953212,40.1063576 L109.027294,40.2011614 C110.303569,40.3088399 111.057412,40.913946 111.057412,42.1253286 C111.057412,43.5520682 109.847756,44.2917723 108.222025,44.2917723" id="Fill-21" fill="#BBBBBB"></path>
        <path d="M42,23.004195 L39.8,22.804195 C38.1,22.704195 37.5,22.004195 37.5,20.804195 C37.5,19.404195 38.5,18.604195 40.5,18.604195 C41.8,18.504195 43.1,18.904195 44.1,19.704195 L45.4,18.404195 C44,17.404195 42.3,16.904195 40.6,17.004195 C37.7,17.004195 35.7,18.504195 35.7,20.904195 C35.7,23.104195 37.1,24.304195 39.7,24.504195 L41.9,24.704195 C43.5,24.804195 44.1,25.504195 44.1,26.704195 C44.1,28.304195 42.7,29.104195 40.5,29.104195 C38.9,29.204195 37.4,28.604195 36.3,27.504195 L35,28.804195 C36.5,30.204195 38.5,30.804195 40.5,30.704195 C43.7,30.704195 46,29.204195 46,26.604195 C46,24.004195 44.4,23.204195 42,23.004195 L42,23.004195 Z M58.8,16.904195 C56.6,16.904195 55.3,17.304195 54.1,18.804195 L55.4,20.104195 C56.2,19.004195 57.5,18.404195 58.8,18.604195 C61.3,18.604195 62.2,19.604195 62.2,21.504195 L62.2,22.804195 L58.2,22.804195 C55.2,22.804195 53.6,24.304195 53.6,26.704195 C53.6,27.704195 53.9,28.704195 54.6,29.404195 C55.4,30.304195 56.5,30.604195 58.4,30.604195 C59.8,30.704195 61.3,30.204195 62.3,29.204195 L62.3,30.504195 L64.3,30.504195 L64.3,21.404195 C64.2,18.504195 62.4,16.904195 58.8,16.904195 L58.8,16.904195 Z M62.2,25.804195 C62.3,26.604195 62.1,27.504195 61.5,28.104195 C60.7,28.804195 59.6,29.104195 58.5,29.004195 C56.4,29.004195 55.4,28.304195 55.4,26.704195 C55.4,25.104195 56.4,24.304195 58.4,24.304195 L62.2,24.304195 L62.2,25.804195 L62.2,25.804195 Z M71.9,18.704195 C73.1,18.704195 74.3,19.204195 75,20.204195 L76.3,18.904195 C75.2,17.604195 73.6,16.804195 71.9,16.904195 C68.5,16.904195 66,19.204195 66,23.804195 C66,28.404195 68.6,30.704195 71.9,30.704195 C73.6,30.804195 75.2,30.004195 76.3,28.704195 L75,27.404195 C74.3,28.404195 73.1,28.904195 71.9,28.904195 C70.7,29.004195 69.5,28.404195 68.8,27.404195 C68.1,26.304195 67.8,25.104195 67.9,23.804195 C67.8,22.504195 68.1,21.304195 68.8,20.204195 C69.5,19.204195 70.7,18.604195 71.9,18.704195 Z M88.7,17.104195 L86.3,17.104195 L80.2,23.004195 L80.2,11.104195 L78.2,11.104195 L78.2,30.504195 L80.2,30.504195 L80.2,25.604195 L82.6,23.204195 L87.1,30.504195 L89.5,30.504195 L83.9,21.904195 L88.7,17.104195 L88.7,17.104195 Z M97.9,16.9417926 C96.3,16.8417926 94.7,17.4417926 93.6,18.6417926 C92.3,19.9417926 92,21.5417926 92,24.0417926 C92,26.5417926 92.3,28.1417926 93.6,29.4417926 C94.7,30.5417926 96.3,31.1417926 97.9,31.1417926 C99.5,31.2417926 101.1,30.6417926 102.2,29.4417926 C103.5,28.1417926 103.8,26.5417926 103.8,24.0417926 C103.8,21.5417926 103.5,19.9417926 102.2,18.6417926 C101.1,17.4417926 99.5,16.8417926 97.9,16.9417926 Z M99.6,27.4417926 C98.7,28.2417926 97.3,28.2417926 96.4,27.4417926 C95.7,26.7417926 95.6,25.4417926 95.6,24.0417926 C95.6,22.6417926 95.7,21.3417926 96.4,20.6417926 C97.3,19.8417926 98.7,19.8417926 99.6,20.6417926 C100.3,21.3417926 100.4,22.5417926 100.4,24.0417926 C100.4,25.5417926 100.3,26.7417926 99.6,27.4417926 Z M113.2,17.0417926 L110.4,25.6417926 L107.6,17.0417926 L103.9,17.0417926 L109.1,31.0417926 L111.8,31.0417926 L116.9,17.0417926 L113.2,17.0417926 Z M122.8,16.9417926 C119.2,16.9417926 116.7,19.5417926 116.7,24.0417926 C116.7,29.7417926 119.9,31.2417926 123.2,31.2417926 C125.2,31.3417926 127.2,30.5417926 128.5,29.0417926 L126.4,26.9417926 C125.6,27.8417926 124.4,28.3417926 123.2,28.2417926 C121.6,28.3417926 120.2,27.1417926 120.1,25.5417926 L120.1,25.1417926 L128.8,25.1417926 L128.8,23.5417926 C128.9,19.7417926 126.7,16.9417926 122.8,16.9417926 L122.8,16.9417926 Z M120.1,22.7417926 C120.1,22.2417926 120.2,21.7417926 120.4,21.2417926 C120.8,20.3417926 121.7,19.8417926 122.7,19.8417926 C123.7,19.7417926 124.6,20.3417926 125,21.2417926 C125.2,21.7417926 125.3,22.2417926 125.3,22.7417926 L120.1,22.7417926 L120.1,22.7417926 Z M134,18.4417926 L134,17.1417926 L130.6,17.1417926 L130.6,31.1417926 L134.1,31.1417926 L134.1,22.7417926 C134,21.4417926 134.9,20.3417926 136.2,20.1417926 L136.4,20.1417926 C137.1,20.1417926 137.8,20.4417926 138.2,20.9417926 L140.8,18.3417926 C140,17.4417926 138.7,16.9417926 137.5,17.0417926 C136.2,16.9417926 134.9,17.4417926 134,18.4417926 L134,18.4417926 Z M141.9,15.6417926 L141.9,31.0417926 L145.4,31.0417926 L145.4,20.0417926 L148,20.0417926 L148,17.3417926 L145.4,17.3417926 L145.4,15.8417926 C145.3,15.2417926 145.7,14.6417926 146.3,14.5417926 L147.9,14.5417926 L147.9,11.5417926 L145.9,11.5417926 C143.8,11.4417926 142,13.1417926 141.9,15.3417926 L141.9,15.6417926 L141.9,15.6417926 Z M162.3,16.9417926 C160.7,16.8417926 159.1,17.4417926 158,18.6417926 C156.7,19.9417926 156.4,21.5417926 156.4,24.0417926 C156.4,26.5417926 156.7,28.1417926 158,29.4417926 C159.1,30.5417926 160.7,31.1417926 162.3,31.1417926 C163.9,31.2417926 165.5,30.6417926 166.6,29.4417926 C167.9,28.1417926 168.2,26.5417926 168.2,24.0417926 C168.2,21.5417926 167.9,19.9417926 166.6,18.6417926 C165.5,17.4417926 163.9,16.8417926 162.3,16.9417926 L162.3,16.9417926 Z M164,27.4417926 C163.1,28.2417926 161.7,28.2417926 160.8,27.4417926 C160.1,26.7417926 160,25.4417926 160,24.0417926 C160,22.6417926 160.1,21.3417926 160.8,20.6417926 C161.7,19.8417926 163.1,19.8417926 164,20.6417926 C164.7,21.3417926 164.8,22.5417926 164.8,24.0417926 C164.8,25.5417926 164.7,26.7417926 164,27.4417926 Z M184.7,17.0417926 L182.4,25.6417926 L179.5,17.0417926 L177,17.0417926 L174.2,25.7417926 L171.9,17.1417926 L168.2,17.1417926 L172.5,31.1417926 L175.4,31.1417926 L178.3,22.3417926 L181.2,31.1417926 L184.2,31.1417926 L188.5,17.1417926 L184.7,17.0417926 L184.7,17.0417926 Z M153.1,26.8417926 L153.1,11.6417926 L149.6,11.6417926 L149.6,27.0417926 C149.5,29.1417926 151.1,30.9417926 153.2,31.0417926 L155.7,31.0417926 L155.7,28.0417926 L154.4,28.0417926 C153.8,28.1417926 153.3,27.8417926 153.1,27.2417926 L153.1,26.8417926 L153.1,26.8417926 Z M53.2,17.404195 L49.5,17.404195 L49.5,13.004195 L47.5,13.004195 L47.5,26.904195 C47.5,28.904195 48.6,30.504195 50.9,30.504195 L52.3,30.504195 L52.3,28.804195 L51.3,28.804195 C50,28.804195 49.5,28.104195 49.5,26.804195 L49.5,19.104195 L51.4,19.104195 L53.2,17.404195 L53.2,17.404195 Z" id="Shape" fill="#222426" fill-rule="nonzero"></path>
        <polygon id="Shape" fill="#BCBBBB" fill-rule="nonzero" points="26 33 26 24 30 24 30 37 0 37 0 24 4 24 4 33"></polygon>
        <path d="M23.0908203,25.9902344 L23.7844238,23.0410156 L7.67993164,19.6870117 L7,23 L23.0908203,25.9902344 Z M9.1,15.2 L24.1,22.2 L25.5,19.2 L10.5,12.2 L9.1,15.2 Z M13.3,7.8 L26,18.4 L28.1,15.9 L15.4,5.3 L13.3,7.8 L13.3,7.8 Z M21.5,0 L18.8,2 L28.7,15.3 L31.4,13.3 L21.5,0 Z M7,30 L23,30 L23,27 L7,27 L7,30 Z" id="Shape" fill="#F48024" fill-rule="nonzero"></path>
    </g>
</svg>