<?xml version="1.0" encoding="UTF-8"?>
<svg width="189px" height="48px" viewBox="0 0 189 48" version="1.1" xmlns="http://www.w3.org/2000/svg" xmlns:xlink="http://www.w3.org/1999/xlink">
    <!-- Generator: Sketch 52.4 (67378) - http://www.bohemiancoding.com/sketch -->
    <title>stackoverflow-ru</title>
    <desc>Created with Sketch.</desc>
    <g id="stackoverflow-ru" stroke="none" stroke-width="1" fill="none" fill-rule="evenodd">
        <path d="M108.377876,35.2815504 L105.76642,40.5095887 L103.156126,35.2815504 L101.661541,35.2815504 L101.661541,44.0046463 L103.243291,44.0046463 L103.243291,38.8115237 L105.253891,42.6278054 L106.407953,42.6278054 L108.290711,38.8569141 L108.290711,44.0046463 L109.997978,44.0046463 L109.997978,35.2815504 L108.377876,35.2815504 Z M97.9773776,41.8608247 C97.6066369,42.2332584 97.1557046,42.421803 96.6373649,42.421803 C96.1190251,42.421803 95.6680928,42.2332584 95.2985143,41.8608247 C94.8708259,41.432526 94.7394976,40.8855139 94.7394976,39.5179839 C94.7394976,38.2016635 94.8859344,37.5871479 95.2985143,37.1739792 C95.6250915,36.8469359 96.0690507,36.732878 96.6606088,36.6153287 C97.1673265,36.6188202 97.6112857,36.8085286 97.9773776,37.1739792 C98.3887953,37.5871479 98.5352321,38.2016635 98.5352321,39.5179839 C98.5352321,40.8855139 98.4062282,41.432526 97.9773776,41.8608247 Z M96.6373649,35.2815504 C95.5344402,35.2815504 94.7511196,35.5725143 94.1002895,36.2254371 C93.3216177,37.0040563 93.0322307,37.9293214 93.0322307,39.6425164 C93.0322307,41.3568754 93.3216177,42.2833042 94.1002895,43.0619235 C94.7511196,43.7136825 95.5344402,44.0046463 96.6373649,44.0046463 C97.7414517,44.0046463 98.5236101,43.7136825 99.1756024,43.0619235 C99.9333547,42.3019259 100.243661,41.3126489 100.243661,39.6425164 C100.243661,37.9293214 99.9542742,37.0040563 99.1558451,36.2079793 C98.4306344,35.6283793 97.4915794,35.2815504 96.6373649,35.2815504 Z M93.0496636,35.2815504 L90.9112217,35.2815504 L87.6117453,38.8138514 L87.6117453,35.2815504 L85.9033161,35.2815504 L85.9033161,44.0046463 L87.6117453,44.0046463 L87.6117453,40.1068947 L91.1599318,44.0046463 L93.2797786,44.0046463 L89.0726265,39.396943 L93.0496636,35.2815504 Z M83.3685651,41.714179 C83.1709917,41.8643163 83.0280415,41.9946681 82.907173,42.1052344 C82.7281947,42.2716657 82.6189483,42.3705934 82.4027797,42.4439163 C82.2017196,42.5463355 81.9867132,42.5463355 81.6287567,42.5463355 C80.100468,42.5463355 79.3554999,41.5977934 79.3554999,39.6425164 C79.3554999,38.318049 79.7506468,36.741025 81.6287567,36.741025 C81.8577094,36.741025 82.2017196,36.741025 82.4027797,36.8422804 C82.6445166,36.9621576 82.8560364,37.0669045 83.1988844,37.5266274 L83.3453212,37.7209912 L84.5737631,36.6653744 L84.4342995,36.4942877 C83.9031756,35.8285624 83.6207618,35.6877359 83.1082331,35.4305239 L83.0617452,35.4130661 C82.8165217,35.3525456 82.5991909,35.2908613 82.3853467,35.2268492 C82.1610428,35.164001 81.9402254,35.1023167 81.6845421,35.0371408 L81.6287567,35.0301577 C79.2509022,35.0301577 77.7749124,36.7503359 77.7749124,39.5179839 C77.7749124,42.2867958 79.2509022,44.0046463 81.6287567,44.0046463 C82.1784757,44.0046463 82.7212216,43.8614921 83.0768538,43.7439427 C83.3615919,43.6485066 83.5789227,43.4948777 83.9055,43.258615 C84.0670453,43.1433933 84.25997,43.0060584 84.5086801,42.8396271 L84.7597146,42.6720319 L83.5150019,41.6059404 L83.3685651,41.714179 Z M75.739906,41.714179 C75.5411703,41.8643163 75.4005445,41.9946681 75.2796761,42.1040705 C75.0972112,42.2716657 74.9891269,42.3705934 74.7752827,42.4439163 C74.5718983,42.5463355 74.3568919,42.5463355 74.0012597,42.5463355 C72.4706467,42.5463355 71.7268408,41.5977934 71.7268408,39.6425164 C71.7268408,38.318049 72.1231498,36.741025 74.0012597,36.741025 C74.2278881,36.741025 74.5718983,36.741025 74.7752827,36.8422804 C75.0146952,36.9609937 75.2204041,37.0645768 75.4365726,37.3904563 L75.5795228,37.6046057 L76.8195867,36.5420058 L76.6812853,36.3697552 C76.1489992,35.7028661 75.8654232,35.5608757 75.3238396,35.293189 C74.9670452,35.172148 74.4242993,35.0301577 73.8757425,35.0301577 C71.497888,35.0301577 70.020736,36.7503359 70.020736,39.5179839 C70.020736,42.2867958 71.497888,44.0046463 73.8757425,44.0046463 C74.4242993,44.0046463 74.9670452,43.8614921 75.3075688,43.7474343 C75.722473,43.645015 75.9769941,43.4646174 76.4011959,43.1678343 C76.5383351,43.0723982 76.6917451,42.9653235 76.8788587,42.8396271 L77.1298932,42.6720319 L75.887505,41.6059404 L75.739906,41.714179 Z M65.872856,41.3126489 L63.7843885,35.155854 L62.0410935,35.155854 L65.1267257,43.4006054 L64.5409786,44.9264197 C64.1783732,45.6549932 63.9807998,45.8028028 63.3694843,45.8028028 L62.7674664,45.8028028 L62.7674664,47.38681 L63.4961637,47.38681 C64.6060616,47.38681 65.43587,46.8002269 65.8368279,45.7341354 L69.7011319,35.155854 L67.9601613,35.155854 L65.872856,41.3126489 Z M58.2418725,42.5463355 C57.0715404,42.5463355 56.3440052,42.059844 56.3440052,39.6425164 C56.3440052,37.0692322 57.2923578,36.741025 58.1186796,36.741025 C59.2901739,36.741025 60.0153846,37.2263527 60.0153846,39.6425164 C60.0153846,42.1936874 59.1634944,42.5463355 58.2418725,42.5463355 Z M58.2418725,35.2815504 C57.5817447,35.2815504 57.1819491,35.4142299 56.7635583,35.5562203 C56.6008507,35.6376902 56.4276834,35.7249793 56.2196502,35.9135239 L56.2196502,35.2815504 L54.5112211,35.2815504 L54.5112211,47.6370389 L56.2196502,47.6370389 L56.2196502,43.2621066 C56.2405697,43.283056 56.2603271,43.3005138 56.2812466,43.3179716 C56.4753335,43.4972054 56.6403654,43.6496704 56.9355634,43.7474343 L57.1784625,43.8091186 C57.5794203,43.9161933 57.9234306,44.0046463 58.3685519,44.0046463 C60.602294,44.0046463 61.5982965,42.6976367 61.5982965,39.7682128 C61.5982965,36.749172 60.5011828,35.2815504 58.2418725,35.2815504 Z M48.2632516,40.7702923 C48.2632516,42.0319115 47.7146947,42.5463355 46.3665466,42.5463355 C44.8882324,42.5463355 44.5918722,42.1063982 44.5918722,41.3976103 C44.5918722,40.8494344 44.7638773,40.1220248 46.2398671,40.1220248 L48.2632516,40.1220248 L48.2632516,40.7702923 Z M46.4909016,35.155854 C45.642498,35.155854 45.0881302,35.2664203 44.4861123,35.5690227 L44.3489731,35.6598034 C44.0456398,35.8588227 43.7818211,36.0322371 43.4296755,36.500107 L43.3029961,36.6711937 L44.5349246,37.7303021 L44.6778748,37.5161527 C44.8963677,37.1902732 45.1020766,37.0878539 45.3101098,36.9796154 C45.6785261,36.8562467 46.0260229,36.741025 46.4909016,36.741025 C47.8739157,36.741025 48.3887688,37.1530298 48.3887688,38.2645117 L48.3887688,38.7882466 L46.1155121,38.7882466 C44.1990497,38.7882466 43.0101225,39.7868345 43.0101225,41.3976103 C43.0101225,43.0549403 44.1421021,44.0046463 46.1155121,44.0046463 C46.646636,44.0046463 47.1603269,43.9196849 47.7193435,43.7311403 C47.8843755,43.6461788 48.0575428,43.5612174 48.2632516,43.4040969 L48.2632516,44.0046463 L50.0960358,44.0046463 L50.0960358,38.1399792 C50.0960358,36.1602612 48.8827024,35.155854 46.4909016,35.155854 Z M40.1348479,38.7882466 L36.5878235,38.7882466 L36.5878235,35.2815504 L35.0060738,35.2815504 L35.0060738,43.8801138 L36.5878235,43.8801138 L36.5878235,40.1220248 L40.1348479,40.1220248 L40.1348479,44.0046463 L41.8421148,44.0046463 L41.8421148,35.2815504 L40.1348479,35.2815504 L40.1348479,38.7882466 Z" id="Fill-25" fill="#BBBBBB"></path>
        <path d="M42,23.004195 L39.8,22.804195 C38.1,22.704195 37.5,22.004195 37.5,20.804195 C37.5,19.404195 38.5,18.604195 40.5,18.604195 C41.8,18.504195 43.1,18.904195 44.1,19.704195 L45.4,18.404195 C44,17.404195 42.3,16.904195 40.6,17.004195 C37.7,17.004195 35.7,18.504195 35.7,20.904195 C35.7,23.104195 37.1,24.304195 39.7,24.504195 L41.9,24.704195 C43.5,24.804195 44.1,25.504195 44.1,26.704195 C44.1,28.304195 42.7,29.104195 40.5,29.104195 C38.9,29.204195 37.4,28.604195 36.3,27.504195 L35,28.804195 C36.5,30.204195 38.5,30.804195 40.5,30.704195 C43.7,30.704195 46,29.204195 46,26.604195 C46,24.004195 44.4,23.204195 42,23.004195 L42,23.004195 Z M58.8,16.904195 C56.6,16.904195 55.3,17.304195 54.1,18.804195 L55.4,20.104195 C56.2,19.004195 57.5,18.404195 58.8,18.604195 C61.3,18.604195 62.2,19.604195 62.2,21.504195 L62.2,22.804195 L58.2,22.804195 C55.2,22.804195 53.6,24.304195 53.6,26.704195 C53.6,27.704195 53.9,28.704195 54.6,29.404195 C55.4,30.304195 56.5,30.604195 58.4,30.604195 C59.8,30.704195 61.3,30.204195 62.3,29.204195 L62.3,30.504195 L64.3,30.504195 L64.3,21.404195 C64.2,18.504195 62.4,16.904195 58.8,16.904195 L58.8,16.904195 Z M62.2,25.804195 C62.3,26.604195 62.1,27.504195 61.5,28.104195 C60.7,28.804195 59.6,29.104195 58.5,29.004195 C56.4,29.004195 55.4,28.304195 55.4,26.704195 C55.4,25.104195 56.4,24.304195 58.4,24.304195 L62.2,24.304195 L62.2,25.804195 L62.2,25.804195 Z M71.9,18.704195 C73.1,18.704195 74.3,19.204195 75,20.204195 L76.3,18.904195 C75.2,17.604195 73.6,16.804195 71.9,16.904195 C68.5,16.904195 66,19.204195 66,23.804195 C66,28.404195 68.6,30.704195 71.9,30.704195 C73.6,30.804195 75.2,30.004195 76.3,28.704195 L75,27.404195 C74.3,28.404195 73.1,28.904195 71.9,28.904195 C70.7,29.004195 69.5,28.404195 68.8,27.404195 C68.1,26.304195 67.8,25.104195 67.9,23.804195 C67.8,22.504195 68.1,21.304195 68.8,20.204195 C69.5,19.204195 70.7,18.604195 71.9,18.704195 Z M88.7,17.104195 L86.3,17.104195 L80.2,23.004195 L80.2,11.104195 L78.2,11.104195 L78.2,30.504195 L80.2,30.504195 L80.2,25.604195 L82.6,23.204195 L87.1,30.504195 L89.5,30.504195 L83.9,21.904195 L88.7,17.104195 L88.7,17.104195 Z M97.9,16.9417926 C96.3,16.8417926 94.7,17.4417926 93.6,18.6417926 C92.3,19.9417926 92,21.5417926 92,24.0417926 C92,26.5417926 92.3,28.1417926 93.6,29.4417926 C94.7,30.5417926 96.3,31.1417926 97.9,31.1417926 C99.5,31.2417926 101.1,30.6417926 102.2,29.4417926 C103.5,28.1417926 103.8,26.5417926 103.8,24.0417926 C103.8,21.5417926 103.5,19.9417926 102.2,18.6417926 C101.1,17.4417926 99.5,16.8417926 97.9,16.9417926 Z M99.6,27.4417926 C98.7,28.2417926 97.3,28.2417926 96.4,27.4417926 C95.7,26.7417926 95.6,25.4417926 95.6,24.0417926 C95.6,22.6417926 95.7,21.3417926 96.4,20.6417926 C97.3,19.8417926 98.7,19.8417926 99.6,20.6417926 C100.3,21.3417926 100.4,22.5417926 100.4,24.0417926 C100.4,25.5417926 100.3,26.7417926 99.6,27.4417926 Z M113.2,17.0417926 L110.4,25.6417926 L107.6,17.0417926 L103.9,17.0417926 L109.1,31.0417926 L111.8,31.0417926 L116.9,17.0417926 L113.2,17.0417926 Z M122.8,16.9417926 C119.2,16.9417926 116.7,19.5417926 116.7,24.0417926 C116.7,29.7417926 119.9,31.2417926 123.2,31.2417926 C125.2,31.3417926 127.2,30.5417926 128.5,29.0417926 L126.4,26.9417926 C125.6,27.8417926 124.4,28.3417926 123.2,28.2417926 C121.6,28.3417926 120.2,27.1417926 120.1,25.5417926 L120.1,25.1417926 L128.8,25.1417926 L128.8,23.5417926 C128.9,19.7417926 126.7,16.9417926 122.8,16.9417926 L122.8,16.9417926 Z M120.1,22.7417926 C120.1,22.2417926 120.2,21.7417926 120.4,21.2417926 C120.8,20.3417926 121.7,19.8417926 122.7,19.8417926 C123.7,19.7417926 124.6,20.3417926 125,21.2417926 C125.2,21.7417926 125.3,22.2417926 125.3,22.7417926 L120.1,22.7417926 L120.1,22.7417926 Z M134,18.4417926 L134,17.1417926 L130.6,17.1417926 L130.6,31.1417926 L134.1,31.1417926 L134.1,22.7417926 C134,21.4417926 134.9,20.3417926 136.2,20.1417926 L136.4,20.1417926 C137.1,20.1417926 137.8,20.4417926 138.2,20.9417926 L140.8,18.3417926 C140,17.4417926 138.7,16.9417926 137.5,17.0417926 C136.2,16.9417926 134.9,17.4417926 134,18.4417926 L134,18.4417926 Z M141.9,15.6417926 L141.9,31.0417926 L145.4,31.0417926 L145.4,20.0417926 L148,20.0417926 L148,17.3417926 L145.4,17.3417926 L145.4,15.8417926 C145.3,15.2417926 145.7,14.6417926 146.3,14.5417926 L147.9,14.5417926 L147.9,11.5417926 L145.9,11.5417926 C143.8,11.4417926 142,13.1417926 141.9,15.3417926 L141.9,15.6417926 L141.9,15.6417926 Z M162.3,16.9417926 C160.7,16.8417926 159.1,17.4417926 158,18.6417926 C156.7,19.9417926 156.4,21.5417926 156.4,24.0417926 C156.4,26.5417926 156.7,28.1417926 158,29.4417926 C159.1,30.5417926 160.7,31.1417926 162.3,31.1417926 C163.9,31.2417926 165.5,30.6417926 166.6,29.4417926 C167.9,28.1417926 168.2,26.5417926 168.2,24.0417926 C168.2,21.5417926 167.9,19.9417926 166.6,18.6417926 C165.5,17.4417926 163.9,16.8417926 162.3,16.9417926 L162.3,16.9417926 Z M164,27.4417926 C163.1,28.2417926 161.7,28.2417926 160.8,27.4417926 C160.1,26.7417926 160,25.4417926 160,24.0417926 C160,22.6417926 160.1,21.3417926 160.8,20.6417926 C161.7,19.8417926 163.1,19.8417926 164,20.6417926 C164.7,21.3417926 164.8,22.5417926 164.8,24.0417926 C164.8,25.5417926 164.7,26.7417926 164,27.4417926 Z M184.7,17.0417926 L182.4,25.6417926 L179.5,17.0417926 L177,17.0417926 L174.2,25.7417926 L171.9,17.1417926 L168.2,17.1417926 L172.5,31.1417926 L175.4,31.1417926 L178.3,22.3417926 L181.2,31.1417926 L184.2,31.1417926 L188.5,17.1417926 L184.7,17.0417926 L184.7,17.0417926 Z M153.1,26.8417926 L153.1,11.6417926 L149.6,11.6417926 L149.6,27.0417926 C149.5,29.1417926 151.1,30.9417926 153.2,31.0417926 L155.7,31.0417926 L155.7,28.0417926 L154.4,28.0417926 C153.8,28.1417926 153.3,27.8417926 153.1,27.2417926 L153.1,26.8417926 L153.1,26.8417926 Z M53.2,17.404195 L49.5,17.404195 L49.5,13.004195 L47.5,13.004195 L47.5,26.904195 C47.5,28.904195 48.6,30.504195 50.9,30.504195 L52.3,30.504195 L52.3,28.804195 L51.3,28.804195 C50,28.804195 49.5,28.104195 49.5,26.804195 L49.5,19.104195 L51.4,19.104195 L53.2,17.404195 L53.2,17.404195 Z" id="Shape" fill="#222426" fill-rule="nonzero"></path>
        <polygon id="Shape" fill="#BCBBBB" fill-rule="nonzero" points="26 33 26 24 30 24 30 37 -4.06575815e-20 37 -4.06575815e-20 24 4 24 4 33"></polygon>
        <path d="M23.0908203,25.9902344 L23.7844238,23.0410156 L7.67993164,19.6870117 L7,23 L23.0908203,25.9902344 Z M9.1,15.2 L24.1,22.2 L25.5,19.2 L10.5,12.2 L9.1,15.2 Z M13.3,7.8 L26,18.4 L28.1,15.9 L15.4,5.3 L13.3,7.8 L13.3,7.8 Z M21.5,0 L18.8,2 L28.7,15.3 L31.4,13.3 L21.5,0 Z M7,30 L23,30 L23,27 L7,27 L7,30 Z" id="Shape" fill="#F48024" fill-rule="nonzero"></path>
    </g>
</svg>