<?xml version="1.0" encoding="UTF-8"?>
<svg width="189px" height="46px" viewBox="0 0 189 46" version="1.1" xmlns="http://www.w3.org/2000/svg" xmlns:xlink="http://www.w3.org/1999/xlink">
    <!-- Generator: Sketch 52.4 (67378) - http://www.bohemiancoding.com/sketch -->
    <title>stackoverflow-jp</title>
    <desc>Created with Sketch.</desc>
    <g id="stackoverflow-jp" stroke="none" stroke-width="1" fill="none" fill-rule="evenodd">
        <path d="M140.192731,39.4885788 L140.282725,40.8357299 L140.470894,40.8064695 C140.631012,40.7818907 140.775937,40.7081543 140.874113,40.6039871 L149.535719,40.6039871 L149.535719,39.4885788 L140.192731,39.4885788 Z M131.69475,42.546881 L137.270856,42.546881 L137.270856,37.9108553 L131.69475,37.9108553 L131.69475,42.546881 Z M130.59145,44.3188939 L131.69475,44.3188939 L131.69475,43.6189839 L137.269688,43.6189839 L137.269688,44.2978264 L138.394025,44.2978264 L138.394025,36.8387524 L130.59145,36.8387524 L130.59145,44.3188939 Z M127.521144,36.5051833 L120.083219,36.5051833 L120.083219,37.5772862 L127.077019,37.5772862 C126.385119,40.7467781 124.360844,42.961209 121.215738,43.988836 L120.955106,44.0731061 L121.140938,44.274418 C121.27885,44.4242315 121.509094,44.7074727 121.616619,44.8748424 L121.691419,44.9918842 L121.822319,44.9462379 C125.440769,43.6728232 127.531663,41.1938778 128.393031,37.1535949 C128.446794,37.1173119 128.492375,37.0681543 128.529775,37.0072926 L128.625613,36.8457749 L127.71165,36.3822894 L127.521144,36.5051833 Z M109.739781,40.8357299 L109.92795,40.8064695 C110.088069,40.7818907 110.234163,40.7081543 110.331169,40.6039871 L118.992775,40.6039871 L118.992775,39.4885788 L109.649788,39.4885788 L109.739781,40.8357299 Z M101.145963,36.9710096 C100.795338,39.721492 99.8311188,42.3958971 98.6904188,43.7851833 L98.5384813,43.9689389 L98.7582063,44.0590611 C98.9253375,44.1269453 99.236225,44.2673955 99.4384188,44.4230611 L99.5751625,44.5295691 L99.6826875,44.3938006 C100.819881,42.9530161 101.786438,40.3944823 102.27965,37.5328103 C102.465481,37.4813119 102.540281,37.358418 102.570669,37.2811704 L102.641963,37.0892219 L101.170506,36.7825723 L101.145963,36.9710096 Z M107.79615,34.8712797 L107.687456,34.7706238 L106.993219,35.3008232 L107.151,35.4424437 C107.568244,35.8216592 108.118725,36.4852862 108.430781,36.9885659 L108.532463,37.1500836 L109.233713,36.6280772 L109.148394,36.4911383 C108.832831,35.9843473 108.290531,35.3335949 107.79615,34.8712797 Z M105.805769,36.8609904 L105.723956,36.7217106 L104.711819,37.2050932 L104.801812,37.3689518 C105.880569,39.3083344 107.129963,42.3385466 107.647719,44.2662251 L107.697975,44.4570032 L108.812962,44.0134148 L108.769719,43.86009 C108.173656,41.7381222 106.899719,38.7301479 105.805769,36.8609904 Z M107.011919,37.5491961 L107.110094,37.7095434 L107.800825,37.2004116 L107.719013,37.0646431 C107.449031,36.6152026 106.913744,35.9117814 106.372613,35.4283987 L106.266256,35.3347653 L105.572019,35.8485788 L105.730969,35.9925402 C106.1973,36.4150611 106.7396,37.109119 107.011919,37.5491961 Z M88.4451563,40.8357299 L88.6344938,40.8064695 C88.7934438,40.7818907 88.9395375,40.7081543 89.0377125,40.6039871 L97.6993188,40.6039871 L97.6993188,39.4885788 L88.3563313,39.4885788 L88.4451563,40.8357299 Z M84.0646813,35.9223151 C84.2820687,35.8403859 84.3241437,35.6741865 84.3299875,35.5969389 L84.3475188,35.4143537 L82.948525,35.3558328 L82.9683937,37.6896463 L78.2489812,37.6896463 L78.2489812,38.772283 L82.3711625,38.772283 C81.27955,40.3113826 79.563825,41.8539936 77.9193938,42.7634084 L77.6961625,42.8863023 L77.8925125,43.0513312 C78.0713313,43.2011447 78.2653437,43.4153312 78.385725,43.5955756 L78.4768875,43.7336849 L78.6206437,43.6494148 C80.2288438,42.7002058 81.8650937,41.2219678 82.9964437,39.7086174 L83.0350125,43.8308296 C83.042025,43.9490418 82.9602125,44.0274598 82.8141187,44.0461865 C82.7182812,44.0567203 82.4144063,44.0637428 81.9819687,44.0637428 C81.6967937,44.0637428 81.377725,44.0590611 81.0832,44.0555498 L80.8155562,44.0508682 L80.9184063,44.2978264 C80.99905,44.4850932 81.069175,44.7718457 81.1007312,44.9591125 L81.125275,45.1042444 L81.2713687,45.1054148 C81.4759,45.1077556 81.6664062,45.1100965 81.845225,45.1100965 C82.920475,45.1100965 83.5305625,45.0480643 83.864825,44.7051318 C84.0588375,44.5073312 84.145325,44.2276013 84.1371437,43.8308296 L84.0950687,38.772283 L87.3103,38.772283 L87.3103,37.6896463 L84.0822125,37.6896463 L84.0646813,35.9223151 Z M74.9180437,38.9490161 C74.21095,38.9490161 73.6347563,39.5260322 73.6347563,40.234135 C73.6347563,40.9422379 74.21095,41.519254 74.9180437,41.519254 C75.6251375,41.519254 76.2013313,40.9422379 76.2013313,40.234135 C76.2013313,39.5260322 75.6251375,38.9490161 74.9180437,38.9490161 Z M70.8975438,37.109119 L67.4509,37.109119 C67.6215375,36.7966174 67.7886687,36.4618778 67.9569688,36.0943666 C68.1813688,36.0651061 68.2772063,35.9504051 68.315775,35.8509196 L68.3882375,35.6706752 L67.025475,35.2832669 L66.9682063,35.43191 C66.26345,37.2601029 65.0643125,38.8940064 63.5928562,40.0316527 L63.397675,40.1814662 L63.6057125,40.3172347 C63.79505,40.4401286 64.0346438,40.634418 64.1900875,40.7889132 L64.29995,40.9001029 L64.4215,40.8029582 C65.3366313,40.0831511 66.1629375,39.1772476 66.8174375,38.1812219 L70.3225188,38.1812219 C69.3921938,40.970328 67.6601063,42.9483344 65.033925,44.2229196 L64.7744625,44.3493248 L65.0047062,44.5225466 C65.164825,44.6419293 65.3565,44.8502637 65.51545,45.0749839 L65.6019375,45.1990482 L65.7375125,45.1299936 C68.680425,43.6353698 70.5118562,41.3869968 71.6689188,37.8441415 C71.7226812,37.800836 71.7717688,37.7516785 71.81735,37.694328 L71.943575,37.537492 L71.0751938,37.0189968 L70.8975438,37.109119 Z M58.2575125,40.4881158 L58.273875,40.6788939 L59.2579625,40.4951383 L59.2404313,40.3336206 C59.15745,39.5845531 58.9424,38.542881 58.72735,37.8558457 L58.6794313,37.7025209 L57.7011875,37.9178778 L57.759625,38.1016334 C57.9887,38.8226109 58.1932313,39.8034212 58.2575125,40.4881158 Z M56.9251375,40.7058135 C56.7907313,40.0550611 56.422575,38.9958328 56.104675,38.3474212 L56.0380563,38.2128232 L55.122925,38.500746 L55.207075,38.6821608 C55.5203,39.3504695 55.852225,40.3195756 55.9796188,40.9375563 L56.0181875,41.1189711 L56.9590312,40.8685016 L56.9251375,40.7058135 Z M61.3582063,38.2104823 C60.5985188,41.3191125 59.1866688,43.0735691 56.6352875,44.0789582 L56.3629688,44.1866367 L56.5862,44.3762444 C56.70775,44.4780707 56.8889063,44.7074727 56.9730562,44.8338778 L57.0537,44.9532605 L57.1857688,44.9005916 C59.7967563,43.8401929 61.4178125,41.8926174 62.2780125,38.7769646 C62.4135875,38.7512154 62.5105937,38.6646045 62.5386438,38.5381994 L62.574875,38.3790225 L61.4026188,38.0325788 L61.3582063,38.2104823 Z M52.3424688,36.9358971 L49.0793188,36.9358971 C49.2312563,36.6280772 49.3937125,36.2816334 49.512925,36.003074 C49.7361563,35.9796656 49.821475,35.8368746 49.8530313,35.7490932 L49.9208188,35.5641672 L48.5533813,35.2458135 L48.5007875,35.3944566 C47.86265,37.2179678 46.5244313,39.1374534 45.1710188,40.1709325 L44.9735,40.3219164 L45.1827063,40.4576849 C45.3498375,40.5641929 45.6268313,40.7889132 45.772925,40.9235113 L45.8839562,41.026508 L46.002,40.9305338 C46.8984313,40.1966817 47.773825,39.1608617 48.475075,38.008 L51.7861438,38.008 C51.5185,38.8553826 51.1480063,39.6606302 50.6594688,40.4553441 C49.858875,40.0363344 49.0863313,39.6934019 48.3593688,39.4347395 L48.231975,39.3879228 L47.6218875,40.2879743 L47.829925,40.3663923 C48.5253313,40.6297363 49.2382688,40.9609646 50.0038,41.376463 C49.0021813,42.6428553 47.7866813,43.6143023 46.3876875,44.2662251 L46.090825,44.4043344 L46.3701563,44.574045 C46.5513125,44.6852347 46.8072688,44.9263408 46.9054438,45.0796656 L46.9895938,45.209582 L47.128675,45.1440386 C48.6866188,44.389119 49.9488688,43.3404244 50.980875,41.9452862 C51.5126562,42.2788553 51.9275625,42.560926 52.2162438,42.7856463 L52.3681812,42.9038585 L53.009825,41.8914469 L52.8777563,41.7943023 C52.5446625,41.5508553 52.0970313,41.2594212 51.6318688,40.9832026 C52.21975,40.0339936 52.729325,38.8705981 53.1138438,37.6030354 C53.196825,37.551537 53.2517562,37.4778006 53.2692875,37.3923601 L53.295,37.2612733 L52.5341438,36.879717 L52.3424688,36.9358971 Z M40.4983562,40.4424695 C41.3305062,39.3340836 41.9826688,38.2022894 42.5413312,36.8984437 C42.6196375,36.8539678 42.6792438,36.7895949 42.7096313,36.7123473 L42.7657313,36.5707267 L41.9382563,36.0990482 L41.7512562,36.1704437 L35.908675,36.1704437 L35.908675,37.2542508 L41.097925,37.2542508 C40.0998125,39.4956013 37.8663313,42.3701479 34.9771813,43.9584051 L34.7504438,44.0836399 L34.9503,44.2474984 C35.1209375,44.389119 35.3687125,44.6454405 35.4797437,44.7987653 L35.5709063,44.924 L35.70765,44.8467524 C37.292475,43.9373376 38.8656125,42.4111125 39.7854188,41.3191125 C40.826775,42.1770289 42.4758813,43.7313441 43.4050375,44.8081286 L43.5184062,44.9427267 L44.4428875,44.1374791 L44.3225063,44.0052219 C43.3349125,42.9097106 41.640225,41.3670997 40.4983562,40.4424695 Z" id="Fill-1" fill="#BBBBBB"></path>
        <path d="M42,23.004195 L39.8,22.804195 C38.1,22.704195 37.5,22.004195 37.5,20.804195 C37.5,19.404195 38.5,18.604195 40.5,18.604195 C41.8,18.504195 43.1,18.904195 44.1,19.704195 L45.4,18.404195 C44,17.404195 42.3,16.904195 40.6,17.004195 C37.7,17.004195 35.7,18.504195 35.7,20.904195 C35.7,23.104195 37.1,24.304195 39.7,24.504195 L41.9,24.704195 C43.5,24.804195 44.1,25.504195 44.1,26.704195 C44.1,28.304195 42.7,29.104195 40.5,29.104195 C38.9,29.204195 37.4,28.604195 36.3,27.504195 L35,28.804195 C36.5,30.204195 38.5,30.804195 40.5,30.704195 C43.7,30.704195 46,29.204195 46,26.604195 C46,24.004195 44.4,23.204195 42,23.004195 L42,23.004195 Z M58.8,16.904195 C56.6,16.904195 55.3,17.304195 54.1,18.804195 L55.4,20.104195 C56.2,19.004195 57.5,18.404195 58.8,18.604195 C61.3,18.604195 62.2,19.604195 62.2,21.504195 L62.2,22.804195 L58.2,22.804195 C55.2,22.804195 53.6,24.304195 53.6,26.704195 C53.6,27.704195 53.9,28.704195 54.6,29.404195 C55.4,30.304195 56.5,30.604195 58.4,30.604195 C59.8,30.704195 61.3,30.204195 62.3,29.204195 L62.3,30.504195 L64.3,30.504195 L64.3,21.404195 C64.2,18.504195 62.4,16.904195 58.8,16.904195 L58.8,16.904195 Z M62.2,25.804195 C62.3,26.604195 62.1,27.504195 61.5,28.104195 C60.7,28.804195 59.6,29.104195 58.5,29.004195 C56.4,29.004195 55.4,28.304195 55.4,26.704195 C55.4,25.104195 56.4,24.304195 58.4,24.304195 L62.2,24.304195 L62.2,25.804195 L62.2,25.804195 Z M71.9,18.704195 C73.1,18.704195 74.3,19.204195 75,20.204195 L76.3,18.904195 C75.2,17.604195 73.6,16.804195 71.9,16.904195 C68.5,16.904195 66,19.204195 66,23.804195 C66,28.404195 68.6,30.704195 71.9,30.704195 C73.6,30.804195 75.2,30.004195 76.3,28.704195 L75,27.404195 C74.3,28.404195 73.1,28.904195 71.9,28.904195 C70.7,29.004195 69.5,28.404195 68.8,27.404195 C68.1,26.304195 67.8,25.104195 67.9,23.804195 C67.8,22.504195 68.1,21.304195 68.8,20.204195 C69.5,19.204195 70.7,18.604195 71.9,18.704195 Z M88.7,17.104195 L86.3,17.104195 L80.2,23.004195 L80.2,11.104195 L78.2,11.104195 L78.2,30.504195 L80.2,30.504195 L80.2,25.604195 L82.6,23.204195 L87.1,30.504195 L89.5,30.504195 L83.9,21.904195 L88.7,17.104195 L88.7,17.104195 Z M97.9,16.9417926 C96.3,16.8417926 94.7,17.4417926 93.6,18.6417926 C92.3,19.9417926 92,21.5417926 92,24.0417926 C92,26.5417926 92.3,28.1417926 93.6,29.4417926 C94.7,30.5417926 96.3,31.1417926 97.9,31.1417926 C99.5,31.2417926 101.1,30.6417926 102.2,29.4417926 C103.5,28.1417926 103.8,26.5417926 103.8,24.0417926 C103.8,21.5417926 103.5,19.9417926 102.2,18.6417926 C101.1,17.4417926 99.5,16.8417926 97.9,16.9417926 Z M99.6,27.4417926 C98.7,28.2417926 97.3,28.2417926 96.4,27.4417926 C95.7,26.7417926 95.6,25.4417926 95.6,24.0417926 C95.6,22.6417926 95.7,21.3417926 96.4,20.6417926 C97.3,19.8417926 98.7,19.8417926 99.6,20.6417926 C100.3,21.3417926 100.4,22.5417926 100.4,24.0417926 C100.4,25.5417926 100.3,26.7417926 99.6,27.4417926 Z M113.2,17.0417926 L110.4,25.6417926 L107.6,17.0417926 L103.9,17.0417926 L109.1,31.0417926 L111.8,31.0417926 L116.9,17.0417926 L113.2,17.0417926 Z M122.8,16.9417926 C119.2,16.9417926 116.7,19.5417926 116.7,24.0417926 C116.7,29.7417926 119.9,31.2417926 123.2,31.2417926 C125.2,31.3417926 127.2,30.5417926 128.5,29.0417926 L126.4,26.9417926 C125.6,27.8417926 124.4,28.3417926 123.2,28.2417926 C121.6,28.3417926 120.2,27.1417926 120.1,25.5417926 L120.1,25.1417926 L128.8,25.1417926 L128.8,23.5417926 C128.9,19.7417926 126.7,16.9417926 122.8,16.9417926 L122.8,16.9417926 Z M120.1,22.7417926 C120.1,22.2417926 120.2,21.7417926 120.4,21.2417926 C120.8,20.3417926 121.7,19.8417926 122.7,19.8417926 C123.7,19.7417926 124.6,20.3417926 125,21.2417926 C125.2,21.7417926 125.3,22.2417926 125.3,22.7417926 L120.1,22.7417926 L120.1,22.7417926 Z M134,18.4417926 L134,17.1417926 L130.6,17.1417926 L130.6,31.1417926 L134.1,31.1417926 L134.1,22.7417926 C134,21.4417926 134.9,20.3417926 136.2,20.1417926 L136.4,20.1417926 C137.1,20.1417926 137.8,20.4417926 138.2,20.9417926 L140.8,18.3417926 C140,17.4417926 138.7,16.9417926 137.5,17.0417926 C136.2,16.9417926 134.9,17.4417926 134,18.4417926 L134,18.4417926 Z M141.9,15.6417926 L141.9,31.0417926 L145.4,31.0417926 L145.4,20.0417926 L148,20.0417926 L148,17.3417926 L145.4,17.3417926 L145.4,15.8417926 C145.3,15.2417926 145.7,14.6417926 146.3,14.5417926 L147.9,14.5417926 L147.9,11.5417926 L145.9,11.5417926 C143.8,11.4417926 142,13.1417926 141.9,15.3417926 L141.9,15.6417926 L141.9,15.6417926 Z M162.3,16.9417926 C160.7,16.8417926 159.1,17.4417926 158,18.6417926 C156.7,19.9417926 156.4,21.5417926 156.4,24.0417926 C156.4,26.5417926 156.7,28.1417926 158,29.4417926 C159.1,30.5417926 160.7,31.1417926 162.3,31.1417926 C163.9,31.2417926 165.5,30.6417926 166.6,29.4417926 C167.9,28.1417926 168.2,26.5417926 168.2,24.0417926 C168.2,21.5417926 167.9,19.9417926 166.6,18.6417926 C165.5,17.4417926 163.9,16.8417926 162.3,16.9417926 L162.3,16.9417926 Z M164,27.4417926 C163.1,28.2417926 161.7,28.2417926 160.8,27.4417926 C160.1,26.7417926 160,25.4417926 160,24.0417926 C160,22.6417926 160.1,21.3417926 160.8,20.6417926 C161.7,19.8417926 163.1,19.8417926 164,20.6417926 C164.7,21.3417926 164.8,22.5417926 164.8,24.0417926 C164.8,25.5417926 164.7,26.7417926 164,27.4417926 Z M184.7,17.0417926 L182.4,25.6417926 L179.5,17.0417926 L177,17.0417926 L174.2,25.7417926 L171.9,17.1417926 L168.2,17.1417926 L172.5,31.1417926 L175.4,31.1417926 L178.3,22.3417926 L181.2,31.1417926 L184.2,31.1417926 L188.5,17.1417926 L184.7,17.0417926 L184.7,17.0417926 Z M153.1,26.8417926 L153.1,11.6417926 L149.6,11.6417926 L149.6,27.0417926 C149.5,29.1417926 151.1,30.9417926 153.2,31.0417926 L155.7,31.0417926 L155.7,28.0417926 L154.4,28.0417926 C153.8,28.1417926 153.3,27.8417926 153.1,27.2417926 L153.1,26.8417926 L153.1,26.8417926 Z M53.2,17.404195 L49.5,17.404195 L49.5,13.004195 L47.5,13.004195 L47.5,26.904195 C47.5,28.904195 48.6,30.504195 50.9,30.504195 L52.3,30.504195 L52.3,28.804195 L51.3,28.804195 C50,28.804195 49.5,28.104195 49.5,26.804195 L49.5,19.104195 L51.4,19.104195 L53.2,17.404195 L53.2,17.404195 Z" id="Shape" fill="#222426" fill-rule="nonzero"></path>
        <polygon id="Shape" fill="#BCBBBB" fill-rule="nonzero" points="26 33 26 24 30 24 30 37 0 37 0 24 4 24 4 33"></polygon>
        <path d="M23.0908203,25.9902344 L23.7844238,23.0410156 L7.67993164,19.6870117 L7,23 L23.0908203,25.9902344 Z M9.1,15.2 L24.1,22.2 L25.5,19.2 L10.5,12.2 L9.1,15.2 Z M13.3,7.8 L26,18.4 L28.1,15.9 L15.4,5.3 L13.3,7.8 L13.3,7.8 Z M21.5,0 L18.8,2 L28.7,15.3 L31.4,13.3 L21.5,0 Z M7,30 L23,30 L23,27 L7,27 L7,30 Z" id="Shape" fill="#F48024" fill-rule="nonzero"></path>
    </g>
</svg>