<svg enable-background="new 0 0 116 42.64" height="42.64" viewBox="0 0 116 42.64" width="116" xmlns="http://www.w3.org/2000/svg"><path d="m16.734 28.785-7.394 10.177c3.252 2.214 7.148 3.552 11.35 3.676v-12.578c-1.444-.104-2.791-.556-3.956-1.275z" fill="#48555c"/><path d="m20.656 12.583v-12.579c-4.2.13-8.094 1.474-11.343 3.693l7.393 10.175c1.163-.722 2.507-1.179 3.95-1.289z" fill="#b2ad4b"/><path d="m33.314 3.678c-3.252-2.214-7.148-3.552-11.348-3.676v12.578c1.443.104 2.789.555 3.955 1.274z" fill="#e4b33a"/><path d="m13.222 24.66-11.965 3.888c1.387 3.849 3.849 7.185 7.024 9.644l7.393-10.176c-1.065-.9-1.912-2.049-2.452-3.356z" fill="#4e5c5a"/><path d="m15.649 14.646-7.395-10.177c-3.171 2.464-5.628 5.803-7.009 9.655l11.965 3.887c.535-1.31 1.378-2.461 2.439-3.365z" fill="#9f9540"/><path d="m12.562 21.32c0-.71.087-1.401.246-2.062l-11.966-3.888c-.548 1.889-.842 3.885-.842 5.95 0 2.077.298 4.084.851 5.982l11.965-3.888c-.164-.671-.254-1.372-.254-2.094z" fill="#6a7b54"/><path d="m27.007 27.994 7.394 10.177c3.172-2.464 5.628-5.804 7.008-9.655l-11.964-3.887c-.535 1.31-1.377 2.461-2.438 3.365z" fill="#d55641"/><path d="m21.999 30.058v12.579c4.2-.13 8.094-1.474 11.343-3.694l-7.393-10.175c-1.162.722-2.507 1.18-3.95 1.29z" fill="#993428"/><path d="m41.803 15.338-11.965 3.888c.166.671.254 1.372.254 2.094 0 .71-.086 1.4-.246 2.061l11.966 3.888c.547-1.889.842-3.885.842-5.95.001-2.076-.296-4.083-.851-5.981z" fill="#e8703e"/><path d="m29.432 17.98 11.966-3.888c-1.386-3.85-3.849-7.184-7.024-9.644l-7.393 10.176c1.064.9 1.912 2.048 2.451 3.356z" fill="#f2a838"/><g fill="#272524"><path d="m55.686 30.622c-2.545 0-3.647-1.705-3.647-3.673v-15.01h2.677v14.852c0 1.023.367 1.548 1.442 1.548h1.181v2.283z"/><path d="m58.93 14.694v-2.834h2.834v2.834zm.079 15.928v-13.304h2.676v13.303h-2.676z"/><path d="m68.489 30.622c-2.492 0-3.647-1.784-3.647-3.7v-7.321h-1.522v-2.047h1.522v-4.04h2.677v4.04h2.571v2.047h-2.571v7.19c0 .971.472 1.548 1.469 1.548h1.102v2.283z"/><path d="m88.308 30.622v-8.108c0-2.073-1.181-2.966-2.676-2.966-1.443 0-2.755.919-2.755 2.835v8.239h-2.677v-8.108c0-2.073-1.181-2.966-2.676-2.966-1.496 0-2.756.919-2.756 2.966v8.108h-2.677v-13.304h2.624v1.338c.892-.971 2.204-1.495 3.542-1.495 1.653 0 2.938.656 3.778 1.942 1.076-1.312 2.413-1.942 4.172-1.942 1.365 0 2.572.446 3.359 1.208 1.023.996 1.417 2.256 1.417 3.751v8.502z"/><path d="m101.116 30.622v-1.338c-.918.997-2.204 1.496-3.541 1.496-1.364 0-2.493-.446-3.28-1.207-1.024-.997-1.339-2.256-1.339-3.752v-8.502h2.677v8.108c0 2.073 1.18 2.965 2.676 2.965s2.755-.918 2.755-2.965v-8.108h2.677v13.303z"/><path d="m110.463 30.78c-2.178 0-4.015-.368-5.589-1.915l1.758-1.759c1.076 1.103 2.519 1.392 3.831 1.392 1.627 0 2.912-.578 2.912-1.837 0-.892-.499-1.469-1.784-1.574l-2.125-.184c-2.493-.21-3.936-1.338-3.936-3.673 0-2.598 2.23-4.067 5.012-4.067 1.994 0 3.699.42 4.933 1.495l-1.678 1.706c-.84-.708-2.021-.971-3.281-.971-1.601 0-2.414.708-2.414 1.705 0 .787.419 1.391 1.836 1.523l2.099.183c2.493.21 3.963 1.391 3.963 3.752 0 2.78-2.362 4.224-5.537 4.224z"/></g></svg>