<svg xmlns="http://www.w3.org/2000/svg" width="242" height="62" viewBox="0 0 242 62">
  <g fill="none" fill-rule="evenodd">
    <path fill="#222426" fill-rule="nonzero" d="M42,23.004195 L39.8,22.804195 C38.1,22.704195 37.5,22.004195 37.5,20.804195 C37.5,19.404195 38.5,18.604195 40.5,18.604195 C41.8,18.504195 43.1,18.904195 44.1,19.704195 L45.4,18.404195 C44,17.404195 42.3,16.904195 40.6,17.004195 C37.7,17.004195 35.7,18.504195 35.7,20.904195 C35.7,23.104195 37.1,24.304195 39.7,24.504195 L41.9,24.704195 C43.5,24.804195 44.1,25.504195 44.1,26.704195 C44.1,28.304195 42.7,29.104195 40.5,29.104195 C38.9,29.204195 37.4,28.604195 36.3,27.504195 L35,28.804195 C36.5,30.204195 38.5,30.804195 40.5,30.704195 C43.7,30.704195 46,29.204195 46,26.604195 C46,24.004195 44.4,23.204195 42,23.004195 L42,23.004195 Z M58.8,16.904195 C56.6,16.904195 55.3,17.304195 54.1,18.804195 L55.4,20.104195 C56.2,19.004195 57.5,18.404195 58.8,18.604195 C61.3,18.604195 62.2,19.604195 62.2,21.504195 L62.2,22.804195 L58.2,22.804195 C55.2,22.804195 53.6,24.304195 53.6,26.704195 C53.6,27.704195 53.9,28.704195 54.6,29.404195 C55.4,30.304195 56.5,30.604195 58.4,30.604195 C59.8,30.704195 61.3,30.204195 62.3,29.204195 L62.3,30.504195 L64.3,30.504195 L64.3,21.404195 C64.2,18.504195 62.4,16.904195 58.8,16.904195 L58.8,16.904195 Z M62.2,25.804195 C62.3,26.604195 62.1,27.504195 61.5,28.104195 C60.7,28.804195 59.6,29.104195 58.5,29.004195 C56.4,29.004195 55.4,28.304195 55.4,26.704195 C55.4,25.104195 56.4,24.304195 58.4,24.304195 L62.2,24.304195 L62.2,25.804195 L62.2,25.804195 Z M71.9,18.704195 C73.1,18.704195 74.3,19.204195 75,20.204195 L76.3,18.904195 C75.2,17.604195 73.6,16.804195 71.9,16.904195 C68.5,16.904195 66,19.204195 66,23.804195 C66,28.404195 68.6,30.704195 71.9,30.704195 C73.6,30.804195 75.2,30.004195 76.3,28.704195 L75,27.404195 C74.3,28.404195 73.1,28.904195 71.9,28.904195 C70.7,29.004195 69.5,28.404195 68.8,27.404195 C68.1,26.304195 67.8,25.104195 67.9,23.804195 C67.8,22.504195 68.1,21.304195 68.8,20.204195 C69.5,19.204195 70.7,18.604195 71.9,18.704195 Z M88.7,17.104195 L86.3,17.104195 L80.2,23.004195 L80.2,11.104195 L78.2,11.104195 L78.2,30.504195 L80.2,30.504195 L80.2,25.604195 L82.6,23.204195 L87.1,30.504195 L89.5,30.504195 L83.9,21.904195 L88.7,17.104195 L88.7,17.104195 Z M97.9,16.9417926 C96.3,16.8417926 94.7,17.4417926 93.6,18.6417926 C92.3,19.9417926 92,21.5417926 92,24.0417926 C92,26.5417926 92.3,28.1417926 93.6,29.4417926 C94.7,30.5417926 96.3,31.1417926 97.9,31.1417926 C99.5,31.2417926 101.1,30.6417926 102.2,29.4417926 C103.5,28.1417926 103.8,26.5417926 103.8,24.0417926 C103.8,21.5417926 103.5,19.9417926 102.2,18.6417926 C101.1,17.4417926 99.5,16.8417926 97.9,16.9417926 Z M99.6,27.4417926 C98.7,28.2417926 97.3,28.2417926 96.4,27.4417926 C95.7,26.7417926 95.6,25.4417926 95.6,24.0417926 C95.6,22.6417926 95.7,21.3417926 96.4,20.6417926 C97.3,19.8417926 98.7,19.8417926 99.6,20.6417926 C100.3,21.3417926 100.4,22.5417926 100.4,24.0417926 C100.4,25.5417926 100.3,26.7417926 99.6,27.4417926 Z M113.2,17.0417926 L110.4,25.6417926 L107.6,17.0417926 L103.9,17.0417926 L109.1,31.0417926 L111.8,31.0417926 L116.9,17.0417926 L113.2,17.0417926 Z M122.8,16.9417926 C119.2,16.9417926 116.7,19.5417926 116.7,24.0417926 C116.7,29.7417926 119.9,31.2417926 123.2,31.2417926 C125.2,31.3417926 127.2,30.5417926 128.5,29.0417926 L126.4,26.9417926 C125.6,27.8417926 124.4,28.3417926 123.2,28.2417926 C121.6,28.3417926 120.2,27.1417926 120.1,25.5417926 L120.1,25.1417926 L128.8,25.1417926 L128.8,23.5417926 C128.9,19.7417926 126.7,16.9417926 122.8,16.9417926 L122.8,16.9417926 Z M120.1,22.7417926 C120.1,22.2417926 120.2,21.7417926 120.4,21.2417926 C120.8,20.3417926 121.7,19.8417926 122.7,19.8417926 C123.7,19.7417926 124.6,20.3417926 125,21.2417926 C125.2,21.7417926 125.3,22.2417926 125.3,22.7417926 L120.1,22.7417926 L120.1,22.7417926 Z M134,18.4417926 L134,17.1417926 L130.6,17.1417926 L130.6,31.1417926 L134.1,31.1417926 L134.1,22.7417926 C134,21.4417926 134.9,20.3417926 136.2,20.1417926 L136.4,20.1417926 C137.1,20.1417926 137.8,20.4417926 138.2,20.9417926 L140.8,18.3417926 C140,17.4417926 138.7,16.9417926 137.5,17.0417926 C136.2,16.9417926 134.9,17.4417926 134,18.4417926 L134,18.4417926 Z M141.9,15.6417926 L141.9,31.0417926 L145.4,31.0417926 L145.4,20.0417926 L148,20.0417926 L148,17.3417926 L145.4,17.3417926 L145.4,15.8417926 C145.3,15.2417926 145.7,14.6417926 146.3,14.5417926 L147.9,14.5417926 L147.9,11.5417926 L145.9,11.5417926 C143.8,11.4417926 142,13.1417926 141.9,15.3417926 L141.9,15.6417926 L141.9,15.6417926 Z M162.3,16.9417926 C160.7,16.8417926 159.1,17.4417926 158,18.6417926 C156.7,19.9417926 156.4,21.5417926 156.4,24.0417926 C156.4,26.5417926 156.7,28.1417926 158,29.4417926 C159.1,30.5417926 160.7,31.1417926 162.3,31.1417926 C163.9,31.2417926 165.5,30.6417926 166.6,29.4417926 C167.9,28.1417926 168.2,26.5417926 168.2,24.0417926 C168.2,21.5417926 167.9,19.9417926 166.6,18.6417926 C165.5,17.4417926 163.9,16.8417926 162.3,16.9417926 L162.3,16.9417926 Z M164,27.4417926 C163.1,28.2417926 161.7,28.2417926 160.8,27.4417926 C160.1,26.7417926 160,25.4417926 160,24.0417926 C160,22.6417926 160.1,21.3417926 160.8,20.6417926 C161.7,19.8417926 163.1,19.8417926 164,20.6417926 C164.7,21.3417926 164.8,22.5417926 164.8,24.0417926 C164.8,25.5417926 164.7,26.7417926 164,27.4417926 Z M184.7,17.0417926 L182.4,25.6417926 L179.5,17.0417926 L177,17.0417926 L174.2,25.7417926 L171.9,17.1417926 L168.2,17.1417926 L172.5,31.1417926 L175.4,31.1417926 L178.3,22.3417926 L181.2,31.1417926 L184.2,31.1417926 L188.5,17.1417926 L184.7,17.0417926 L184.7,17.0417926 Z M153.1,26.8417926 L153.1,11.6417926 L149.6,11.6417926 L149.6,27.0417926 C149.5,29.1417926 151.1,30.9417926 153.2,31.0417926 L155.7,31.0417926 L155.7,28.0417926 L154.4,28.0417926 C153.8,28.1417926 153.3,27.8417926 153.1,27.2417926 L153.1,26.8417926 L153.1,26.8417926 Z M53.2,17.404195 L49.5,17.404195 L49.5,13.004195 L47.5,13.004195 L47.5,26.904195 C47.5,28.904195 48.6,30.504195 50.9,30.504195 L52.3,30.504195 L52.3,28.804195 L51.3,28.804195 C50,28.804195 49.5,28.104195 49.5,26.804195 L49.5,19.104195 L51.4,19.104195 L53.2,17.404195 L53.2,17.404195 Z"/>
    <polygon fill="#BCBBBB" fill-rule="nonzero" points="26 33 26 24 30 24 30 37 0 37 0 24 4 24 4 33"/>
    <path fill="#F48024" fill-rule="nonzero" d="M23.0908203,25.9902344 L23.7844238,23.0410156 L7.67993164,19.6870117 L7,23 L23.0908203,25.9902344 Z M9.1,15.2 L24.1,22.2 L25.5,19.2 L10.5,12.2 L9.1,15.2 Z M13.3,7.8 L26,18.4 L28.1,15.9 L15.4,5.3 L13.3,7.8 L13.3,7.8 Z M21.5,0 L18.8,2 L28.7,15.3 L31.4,13.3 L21.5,0 Z M7,30 L23,30 L23,27 L7,27 L7,30 Z"/>
    <polygon fill="#E64320" fill-rule="nonzero" points="0 42 1 42 1 46 187 46 187 42 188 42 188 47 0 47"/>
    <path fill="#E64320" d="M86.5595703,53.8515625 L86.5595703,61 L85.65625,61 L85.65625,54.9794922 L83.8349609,55.6435547 L83.8349609,54.828125 L86.4179688,53.8515625 L86.5595703,53.8515625 Z M89.3232422,60.5214844 C89.3232422,60.3684888 89.371256,60.2390956 89.4672852,60.1333008 C89.5633143,60.027506 89.702473,59.9746094 89.8847656,59.9746094 C90.0670582,59.9746094 90.206217,60.027506 90.3022461,60.1333008 C90.3982752,60.2390956 90.4462891,60.3684888 90.4462891,60.5214844 C90.4462891,60.6712247 90.3982752,60.7981766 90.3022461,60.9023438 C90.206217,61.0065109 90.0670582,61.0585938 89.8847656,61.0585938 C89.702473,61.0585938 89.5633143,61.0065109 89.4672852,60.9023438 C89.371256,60.7981766 89.3232422,60.6712247 89.3232422,60.5214844 Z M92.9902344,57.6162109 L92.2675781,57.4306641 L92.6240234,53.890625 L96.2714844,53.890625 L96.2714844,54.7255859 L93.390625,54.7255859 L93.1757812,56.6591797 C93.3059902,56.5843095 93.4711904,56.5143232 93.6713867,56.4492188 C93.871583,56.3841143 94.1018867,56.3515625 94.3623047,56.3515625 C95.0166048,56.3515625 95.533364,56.5672179 95.9125977,56.9985352 C96.2918313,57.4298524 96.4814453,58.0084599 96.4814453,58.734375 C96.4814453,59.4147169 96.2959003,59.9786761 95.9248047,60.4262695 C95.5537091,60.8738629 94.9889361,61.0976562 94.2304688,61.0976562 C93.654294,61.0976562 93.1562521,60.9357113 92.7363281,60.6118164 C92.3164042,60.2879216 92.0738936,59.7939486 92.0087891,59.1298828 L92.8681641,59.1298828 C92.9820969,59.9469442 93.4361939,60.3554688 94.2304688,60.3554688 C94.6569032,60.3554688 94.9873035,60.2106134 95.2216797,59.9208984 C95.4560559,59.6311834 95.5732422,59.2389348 95.5732422,58.7441406 C95.5732422,58.2981749 95.4503593,57.9230158 95.2045898,57.6186523 C94.9588204,57.3142888 94.6080752,57.1621094 94.1523438,57.1621094 C93.8496079,57.1621094 93.620118,57.2027991 93.4638672,57.2841797 C93.3076164,57.3655603 93.1497404,57.4762363 92.9902344,57.6162109 Z M97.5703125,54.3154297 C97.5703125,54.1689446 97.6150712,54.0452479 97.7045898,53.9443359 C97.7941085,53.843424 97.9267569,53.7929688 98.1025391,53.7929688 C98.275066,53.7929688 98.4077144,53.843424 98.5004883,53.9443359 C98.5932622,54.0452479 98.6396484,54.1689446 98.6396484,54.3154297 C98.6396484,54.4554043 98.5932622,54.5750321 98.5004883,54.6743164 C98.4077144,54.7736008 98.275066,54.8232422 98.1025391,54.8232422 C97.9267569,54.8232422 97.7941085,54.7736008 97.7045898,54.6743164 C97.6150712,54.5750321 97.5703125,54.4554043 97.5703125,54.3154297 Z M98.546875,55.7167969 L98.546875,61 L97.6386719,61 L97.6386719,55.7167969 L98.546875,55.7167969 Z M102.189453,56.3808594 C101.899738,56.3808594 101.644207,56.4589836 101.422852,56.6152344 C101.201496,56.7714852 101.027344,56.9749336 100.900391,57.2255859 L100.900391,61 L99.9970703,61 L99.9970703,55.7167969 L100.851562,55.7167969 L100.880859,56.3759766 C101.281252,55.8714167 101.806963,55.6191406 102.458008,55.6191406 C102.978844,55.6191406 103.391437,55.7656235 103.695801,56.0585938 C104.000164,56.351564 104.152344,56.8447231 104.152344,57.5380859 L104.152344,61 L103.244141,61 L103.244141,57.5283203 C103.244141,57.1149068 103.153809,56.8203134 102.973145,56.6445312 C102.79248,56.4687491 102.531252,56.3808594 102.189453,56.3808594 Z"/>
    <polygon fill="#BCBBBB" fill-rule="nonzero" points="236 33 236 24 240 24 240 37 210 37 210 24 214 24 214 33"/>
    <path fill="#F48024" fill-rule="nonzero" d="M233.09082,25.9902344 L233.784424,23.0410156 L217.679932,19.6870117 L217,23 L233.09082,25.9902344 Z M219.1,15.2 L234.1,22.2 L235.5,19.2 L220.5,12.2 L219.1,15.2 Z M223.3,7.8 L236,18.4 L238.1,15.9 L225.4,5.3 L223.3,7.8 L223.3,7.8 Z M231.5,0 L228.8,2 L238.7,15.3 L241.4,13.3 L231.5,0 Z M217,30 L233,30 L233,27 L217,27 L217,30 Z"/>
    <polygon fill="#E64320" fill-rule="nonzero" points="210 42 211 42 211 46 239 46 239 42 240 42 240 47 210 47"/>
    <path fill="#E64320" d="M214.703125,60.5214844 C214.703125,60.3684888 214.751139,60.2390956 214.847168,60.1333008 C214.943197,60.027506 215.082356,59.9746094 215.264648,59.9746094 C215.446941,59.9746094 215.5861,60.027506 215.682129,60.1333008 C215.778158,60.2390956 215.826172,60.3684888 215.826172,60.5214844 C215.826172,60.6712247 215.778158,60.7981766 215.682129,60.9023438 C215.5861,61.0065109 215.446941,61.0585938 215.264648,61.0585938 C215.082356,61.0585938 214.943197,61.0065109 214.847168,60.9023438 C214.751139,60.7981766 214.703125,60.6712247 214.703125,60.5214844 Z M221.885742,60.2578125 L221.885742,61 L217.232422,61 L217.232422,60.3505859 L219.561523,57.7578125 C219.991213,57.2792945 220.280924,56.9025079 220.430664,56.6274414 C220.580404,56.3523749 220.655273,56.0764988 220.655273,55.7998047 C220.655273,55.4514957 220.547039,55.1536471 220.330566,54.90625 C220.114094,54.6588529 219.808921,54.5351562 219.415039,54.5351562 C218.939776,54.5351562 218.584962,54.670246 218.350586,54.9404297 C218.11621,55.2106133 217.999023,55.5572896 217.999023,55.9804688 L217.095703,55.9804688 C217.095703,55.3815074 217.292641,54.8671896 217.686523,54.4375 C218.080406,54.0078104 218.656572,53.7929688 219.415039,53.7929688 C220.085615,53.7929688 220.610512,53.9671207 220.989746,54.3154297 C221.36898,54.6637387 221.558594,55.1227185 221.558594,55.6923828 C221.558594,56.1123068 221.427573,56.5354796 221.165527,56.9619141 C220.903482,57.3883485 220.590171,57.7985006 220.225586,58.1923828 L218.321289,60.2578125 L221.885742,60.2578125 Z M223.990234,57.6162109 L223.267578,57.4306641 L223.624023,53.890625 L227.271484,53.890625 L227.271484,54.7255859 L224.390625,54.7255859 L224.175781,56.6591797 C224.30599,56.5843095 224.47119,56.5143232 224.671387,56.4492188 C224.871583,56.3841143 225.101887,56.3515625 225.362305,56.3515625 C226.016605,56.3515625 226.533364,56.5672179 226.912598,56.9985352 C227.291831,57.4298524 227.481445,58.0084599 227.481445,58.734375 C227.481445,59.4147169 227.2959,59.9786761 226.924805,60.4262695 C226.553709,60.8738629 225.988936,61.0976562 225.230469,61.0976562 C224.654294,61.0976562 224.156252,60.9357113 223.736328,60.6118164 C223.316404,60.2879216 223.073894,59.7939486 223.008789,59.1298828 L223.868164,59.1298828 C223.982097,59.9469442 224.436194,60.3554688 225.230469,60.3554688 C225.656903,60.3554688 225.987304,60.2106134 226.22168,59.9208984 C226.456056,59.6311834 226.573242,59.2389348 226.573242,58.7441406 C226.573242,58.2981749 226.450359,57.9230158 226.20459,57.6186523 C225.95882,57.3142888 225.608075,57.1621094 225.152344,57.1621094 C224.849608,57.1621094 224.620118,57.2027991 224.463867,57.2841797 C224.307616,57.3655603 224.14974,57.4762363 223.990234,57.6162109 Z M228.570312,54.3154297 C228.570312,54.1689446 228.615071,54.0452479 228.70459,53.9443359 C228.794109,53.843424 228.926757,53.7929688 229.102539,53.7929688 C229.275066,53.7929688 229.407714,53.843424 229.500488,53.9443359 C229.593262,54.0452479 229.639648,54.1689446 229.639648,54.3154297 C229.639648,54.4554043 229.593262,54.5750321 229.500488,54.6743164 C229.407714,54.7736008 229.275066,54.8232422 229.102539,54.8232422 C228.926757,54.8232422 228.794109,54.7736008 228.70459,54.6743164 C228.615071,54.5750321 228.570312,54.4554043 228.570312,54.3154297 Z M229.546875,55.7167969 L229.546875,61 L228.638672,61 L228.638672,55.7167969 L229.546875,55.7167969 Z M233.189453,56.3808594 C232.899738,56.3808594 232.644207,56.4589836 232.422852,56.6152344 C232.201496,56.7714852 232.027344,56.9749336 231.900391,57.2255859 L231.900391,61 L230.99707,61 L230.99707,55.7167969 L231.851562,55.7167969 L231.880859,56.3759766 C232.281252,55.8714167 232.806963,55.6191406 233.458008,55.6191406 C233.978844,55.6191406 234.391437,55.7656235 234.695801,56.0585938 C235.000164,56.351564 235.152344,56.8447231 235.152344,57.5380859 L235.152344,61 L234.244141,61 L234.244141,57.5283203 C234.244141,57.1149068 234.153809,56.8203134 233.973145,56.6445312 C233.79248,56.4687491 233.531252,56.3808594 233.189453,56.3808594 Z"/>
  </g>
</svg>
