<svg xmlns="http://www.w3.org/2000/svg" viewBox="0 0 652.5 652.5"><defs><style>.b{fill:#f8b884}.c{fill:#f38022}.d{fill:#f69c55}.e{fill:#fbd4b6}</style></defs><g opacity=".2"><path class="b" d="M32.6 619.9v32.6l32.6-32.6H32.6z"/><path class="b" d="M65.3 619.9l-32.7 32.6h32.6v-32.6z"/><path class="b" d="M32.6 587.2V620h32.6l-32.6-32.7zM163.1 587.2V620l32.6-32.7h-32.6zM456.7 619.9v32.6h32.7l-32.7-32.6zM391.5 489.4h-32.6V522l32.6-32.6zM456.7 619.9l-32.6 32.6h32.6v-32.6z"/><path class="b" d="M456.7 587.2h-32.6l32.6 32.7v-32.7zM489.4 587.2h-32.7V620l32.7-32.7zM554.6 489.4H522V522l32.6-32.6zM619.9 587.2h-32.7L620 620v-32.7zM130.5 424.1H97.9l32.6 32.6v-32.6zM163.1 424.1h-32.6v32.6l32.6-32.6zM261 358.9h-32.6v32.6l32.6-32.6zM228.4 358.9h-32.7l32.7 32.6v-32.6z"/><path class="b" d="M228.4 358.9v-32.7L195.7 359h32.7zM293.6 456.7L261 489.4h32.6v-32.7zM489.4 326.2h-32.7l32.7 32.7v-32.7zM391.5 456.7l-32.6 32.7h32.6v-32.7zM326.2 326.2V359H359l-32.7-32.7z"/><path class="b" d="M326.2 358.9v32.6l32.7-32.6h-32.7zM489.4 424.1h-32.7v32.6l32.7-32.6zM554.6 456.7L522 489.4h32.6v-32.7zM489.4 391.5V424H522l-32.6-32.6zM587.2 456.7v32.7l32.7-32.7h-32.7zM130.5 261H97.9l32.6 32.6V261z"/><path class="b" d="M97.9 261v32.6h32.6L97.9 261z"/><path class="b" d="M97.9 293.6H65.2L98 326.2v-32.6zM293.6 195.7v32.7l32.6-32.7h-32.6zM293.6 195.7H261l32.6 32.7v-32.7zM228.4 228.4L195.7 261h32.7v-32.6zM228.4 261h-32.7l32.7 32.6V261zM391.5 195.7h-32.6l32.6 32.7v-32.7zM489.4 293.6V261l-32.7 32.6h32.7zM489.4 261v32.6L522 261h-32.6zM619.9 261v-32.6L587.2 261H620zM32.6 32.6v32.6h32.6L32.6 32.6zM0 130.5v32.6h32.6L0 130.5z"/><path class="b" d="M32.6 130.5H0l32.6 32.6v-32.6zM130.5 97.9H97.9l32.6 32.6V97.9zM293.6 32.6v32.6l32.6-32.6h-32.6zM163.1 97.9v32.6l32.6-32.6h-32.6zM195.7 32.6l-32.6 32.6h32.6V32.6zM424.1 0v32.6L456.7 0h-32.6z"/><path class="b" d="M424.1 0h-32.6L424 32.6V0zM652.5 0h-32.6l32.6 32.6V0zM522 65.3v32.6l32.6-32.7H522zM554.6 32.6H522l32.6 32.6V32.6z"/><path class="c" d="M619.9 456.7v32.7h32.6l-32.6-32.7zM163.1 619.9h-32.6l32.6 32.6v-32.6zM97.9 489.4V522l32.6-32.6H97.9zM130.5 489.4L97.9 522h32.6v-32.6zM32.6 554.6v32.6l32.6-32.6H32.6zM32.6 554.6H0l32.6 32.6v-32.6z"/><path class="c" d="M97.9 489.4H65.2L98 522v-32.6zM163.1 619.9v32.6h32.6l-32.6-32.6zM326.2 587.2l-32.6-32.6v32.6h32.6z"/><path class="c" d="M326.2 554.6h-32.6l32.6 32.6v-32.6zM358.9 554.6h-32.7l32.7 32.6v-32.6zM619.9 489.4L587.2 522H620v-32.6zM522 587.2V620h32.6L522 587.2zM522 587.2L489.4 620H522v-32.7zM489.4 554.6v32.6H522l-32.6-32.6z"/><path class="c" d="M522 554.6h-32.6l32.6 32.6v-32.6zM163.1 358.9l-32.6-32.7V359h32.6z"/><path class="c" d="M163.1 326.2h-32.6l32.6 32.7v-32.7zM32.6 358.9L0 391.5h32.6v-32.6zM65.3 391.5V424h32.6l-32.7-32.6zM195.7 456.7h-32.6l32.6 32.7v-32.7zM326.2 391.5h-32.6l32.6 32.6v-32.6zM326.2 358.9l-32.6 32.6h32.6v-32.6zM391.5 358.9h-32.6l32.6 32.6v-32.6zM424.1 358.9l-32.6-32.7V359H424zM619.9 424.1h-32.7l32.7 32.6v-32.6zM32.6 261v32.6h32.6L32.6 261zM163.1 228.4h-32.6l32.6 32.6v-32.6zM163.1 228.4V261h32.6l-32.6-32.6z"/><path class="c" d="M195.7 228.4h-32.6l32.6 32.6v-32.6zM391.5 261h-32.6l32.6 32.6V261zM358.9 293.6v32.6l32.6-32.6h-32.6z"/><path class="c" d="M358.9 261v32.6h32.6L358.9 261zM358.9 163.1h-32.7l32.7 32.6v-32.6zM391.5 163.1h-32.6v32.6l32.6-32.6zM554.6 293.6L522 326.2h32.6v-32.6zM619.9 293.6l-32.7 32.6H620v-32.6zM554.6 228.4V261h32.6l-32.6-32.6z"/><path class="c" d="M587.2 293.6h-32.6l32.6 32.6v-32.6zM130.5 130.5v32.6h32.6l-32.6-32.6zM65.3 65.3L32.5 97.8h32.6V65.2z"/><path class="c" d="M32.6 65.3v32.6l32.6-32.7H32.6zM32.6 130.5v32.6l32.6-32.6H32.6zM130.5 130.5l-32.6 32.6h32.6v-32.6zM65.3 65.3v32.6h32.6L65.2 65.2zM261 32.6h-32.6v32.6L261 32.6zM261 32.6L228.4 0v32.6H261zM261 130.5v32.6l32.6-32.6H261zM391.5 32.6V0l-32.6 32.6h32.6zM489.4 97.9l-32.7-32.7V98h32.7z"/><path class="c" d="M456.7 97.9V65.2L424.1 98h32.6zM587.2 65.3V32.5l-32.6 32.6h32.6z"/><path class="c" d="M587.2 32.6h-32.6v32.6l32.6-32.6zM587.2 65.3h-32.6l32.6 32.6V65.2z"/><path class="d" d="M32.6 619.9H0l32.6 32.6v-32.6zM65.3 587.2V620l32.6-32.7H65.2zM293.6 619.9v32.6h32.6l-32.6-32.6zM261 554.6V522l-32.6 32.6H261z"/><path class="d" d="M261 522h-32.6v32.6L261 522zM228.4 522h-32.7l32.7 32.6V522zM326.2 619.9v-32.7L293.6 620h32.6zM261 619.9v32.6l32.6-32.6H261zM456.7 554.6L424.1 522v32.6h32.6zM587.2 554.6h-32.6l32.6 32.6v-32.6zM130.5 358.9v32.6l32.6-32.6h-32.6zM130.5 326.2L97.9 359h32.6v-32.7z"/><path class="d" d="M130.5 358.9H97.9l32.6 32.6v-32.6zM65.3 424.1v32.6l32.6-32.6H65.2zM228.4 391.5V424H261l-32.6-32.6zM228.4 424.1v32.6l32.6-32.6h-32.6zM391.5 391.5L358.9 424h32.6v-32.6zM391.5 424.1h-32.6l32.6 32.6v-32.6zM652.5 358.9l-32.6-32.7V359h32.6zM554.6 358.9H522l32.6 32.6v-32.6zM489.4 456.7v32.7H522l-32.6-32.7z"/><path class="d" d="M489.4 424.1v32.6l32.6-32.6h-32.6zM65.3 195.7H32.5l32.6 32.7v-32.7zM65.3 195.7v-32.6l-32.7 32.6h32.6zM163.1 195.7l-32.6 32.7h32.6v-32.7zM228.4 195.7h-32.7l32.7 32.7v-32.7zM195.7 293.6v32.6l32.7-32.6h-32.7zM228.4 293.6l-32.7 32.6h32.7v-32.6zM195.7 293.6h-32.6l32.6 32.6v-32.6zM326.2 293.6V261l-32.6 32.6h32.6zM424.1 261l-32.6 32.6H424V261zM522 195.7v32.7h32.6L522 195.7zM522 195.7l-32.6 32.7H522v-32.7zM554.6 163.1H522v32.6l32.6-32.6zM163.1 0v32.6h32.6L163.1 0zM228.4 32.6V0l-32.7 32.6h32.7zM228.4 97.9v32.6L261 97.9h-32.6zM326.2 130.5v32.6H359l-32.7-32.6zM456.7 130.5l-32.6 32.6h32.6v-32.6zM522 32.6v32.6h32.6L522 32.6zM652.5 65.3h-32.6l32.6 32.6V65.2z"/><path class="e" d="M130.5 522H97.9l32.6 32.6V522z"/><path class="e" d="M130.5 554.6L97.9 522v32.6h32.6zM32.6 522L0 554.6h32.6V522zM326.2 489.4h-32.6l32.6 32.6v-32.6zM228.4 587.2h-32.7l32.7 32.7v-32.7zM195.7 587.2V620h32.7l-32.7-32.7zM195.7 489.4h-32.6l32.6 32.6v-32.6zM228.4 587.2V620l32.6-32.7h-32.6zM489.4 522l-32.7-32.6V522h32.7zM326.2 587.2V620l32.7-32.7h-32.7zM522 554.6v32.6l32.6-32.6H522zM587.2 619.9v32.6l32.7-32.6h-32.7zM587.2 619.9h-32.6l32.6 32.6v-32.6zM65.3 358.9H32.5l32.6 32.6v-32.6z"/><path class="e" d="M65.3 326.2H32.5V359l32.6-32.7zM65.3 358.9v-32.7L32.5 359h32.6zM163.1 391.5h-32.6l32.6 32.6v-32.6zM195.7 358.9v32.6h32.7l-32.7-32.6zM163.1 391.5V424h32.6l-32.6-32.6zM293.6 424.1H261l32.6 32.6v-32.6zM424.1 424.1v32.6h32.6l-32.6-32.6zM456.7 391.5h-32.6V424l32.6-32.6z"/><path class="e" d="M424.1 391.5h-32.6L424 424v-32.6zM619.9 391.5h-32.7V424l32.7-32.6zM619.9 424.1v-32.6L587.2 424H620zM130.5 228.4l-32.6-32.7v32.7h32.6zM97.9 163.1H65.2L98 195.7v-32.6zM261 163.1h-32.6l32.6 32.6v-32.6zM293.6 261H261l32.6 32.6V261z"/><path class="e" d="M326.2 261h-32.6v32.6l32.6-32.6zM456.7 293.6v32.6h32.7l-32.7-32.6zM456.7 293.6l-32.6 32.6h32.6v-32.6zM652.5 293.6V261l-32.6 32.6h32.6zM652.5 195.7l-32.6 32.7h32.6v-32.7zM163.1 32.6L130.5 0v32.6h32.6zM130.5 32.6H97.9l32.6 32.6V32.6zM32.6 32.6L0 65.2h32.6V32.6zM65.3 130.5v32.6h32.6l-32.7-32.6zM65.3 97.9v32.6l32.6-32.6H65.2zM326.2 130.5V97.9l-32.6 32.6h32.6zM228.4 130.5v32.6H261l-32.6-32.6zM456.7 65.3l-32.6-32.7v32.6h32.6zM326.2 97.9v32.6L359 97.9h-32.7z"/><path class="e" d="M456.7 65.3h-32.6v32.6l32.6-32.7zM522 130.5v32.6l32.6-32.6H522zM554.6 130.5L522 163.1h32.6v-32.6zM522 130.5h-32.6l32.6 32.6v-32.6zM587.2 0h-32.6l32.6 32.6V0z"/></g></svg>