<svg width="655" height="655" xmlns="http://www.w3.org/2000/svg"><g fill-rule="nonzero" fill="none" opacity=".1"><path fill="#F8B884" d="M67 622v33H34v-66zM164 589v33l33-33zM490 655h-66l33-33zM360 492l33-33v33l-33 33zM424 589h66l-33 33zM523 491l33-33v33l-33 33zM622 589h-33l33 33zM99 425h66l-33 33zM230 362h33l-33 33-33-33 33-33zM296 460l-33 33h33zM491 327h-33l33 33zM361 360l-33 33v-66zM491 425h-33v33zM490 392v33h33zM588 458v33l33-33zM132 295H99v-33h33zM99 295v33l-33-33zM295 230l-33-33h66zM230 230v66l-33-33zM393 198h-33l33 33zM491 294v-33l-33 33zM491 261v33l33-33zM622 262v-33l-33 33zM33 33v33h33zM0 132h33v33H0zM132 99H99l33 33zM295 34v33l33-33zM164 99v33l33-33zM197 34l-33 33h33zM425 33L392 0h66zM655 0h-33l33 33zM523 66v33l33-33zM556 33h-33l33 33z"/><path fill="#F69C55" d="M34 622H1l33 33zM67 589v33l33-33zM295 622v33h33zM197 523h66v33h-33zM328 622v-33l-33 33zM262 622v33l33-33zM458 556l-33-33v33zM589 556h-33l33 33zM132 393l-33-33 33-33v33h33zM66 425v33l33-33zM263 428l-33 33v-66zM393 393v66l-33-33zM655 361l-33-33v33zM556 360h-33l33 33zM490 458v33h33zM490 425v33l33-33zM33 197l33-33v66zM164 198l-33 33h33zM230 198h-33l33 33zM164 296h66v33h-33zM328 295v-33l-33 33zM426 263l-33 33h33zM556 229h-66l33-33zM556 163h-33v33zM164 1v33h33zM230 34V1l-33 33zM229 99v33l33-33zM327 132v33h33zM458 132l-33 33h33zM523 33v33h33zM655 65h-33l33 33z"/><path d="M132 556H99v-33h33v33zM34 523L1 556h33zM329 493h-33l33 33zM230 622h-33v-33h66l-33 33zM197 490h-33l33 33zM491 523l-33-33v33zM328 589v33l33-33zM523 556v33l33-33zM589 655l-33-33h66l-33 33zM34 360v-33h33v66l-33-33zM165 392l33 33h-33l-33-33h33zM197 362v33h33zM296 427h-33l33 33zM425 425v33h33zM425 425l-33-33h66l-33 33zM621 392v33h-33v-33h33zM132 231l-33-33v33zM66 165v-33l33 33v33zM229 165v-33l33 33v33zM262 262h66l-33 33zM491 327h-66l33-33zM655 295v-33l-33 33zM655 196l-33 33h33zM165 34L132 1v33zM132 34H99l33 33zM33 33L0 66h33zM66 99v33l33-33zM328 132V99l-33 33zM458 66l-33 33V33zM328 99v33l33-33zM490 130h66v33h-33zM589 0h-33l33 33z" fill="#FBD4B6"/></g></svg>