<svg height="150" viewBox="0 0 230 150" width="230" xmlns="http://www.w3.org/2000/svg"><g fill="none" fill-rule="evenodd"><path d="m0 0h230v150h-230z" fill="#eff0f1"/><rect fill="#fff" height="120" rx="3" width="220" x="5" y="25"/><rect fill="#0095ff" height="14" rx="2" width="50" x="13" y="125"/><rect fill="#99d4ff" height="2" rx="1" width="40" x="18" y="131"/><path d="m13 118h3v1h-3z" fill="#fff"/><rect fill="#c9cbcf" height="4" rx="2" width="27" x="21" y="108"/><rect fill="#c9cbcf" height="4" rx="2" width="14" x="52" y="108"/><rect fill="#6c737a" height="4" rx="2" width="4" x="13" y="108"/><g fill="#c9cbcf"><rect height="4" rx="2" width="32" x="35" y="98"/><rect height="4" rx="2" width="30" x="71" y="98"/><rect height="4" rx="2" width="10" x="21" y="98"/></g><rect fill="#6c737a" height="4" rx="2" width="4" x="13" y="98"/><path d="m13 91h3v1h-3z" fill="#fff"/><g fill="#c9cbcf"><rect height="4" rx="2" width="27" x="71" y="81"/><rect height="4" rx="2" width="30" x="120" y="81"/><rect height="4" rx="2" width="10" x="154" y="81"/><rect height="4" rx="2" width="32" x="35" y="81"/><rect height="4" rx="2" width="14" x="102" y="81"/><rect height="4" rx="2" width="18" x="13" y="81"/></g><g fill="#c9cbcf"><rect height="4" rx="2" width="27" x="57" y="71"/><rect height="4" rx="2" width="18" x="35" y="71"/><rect height="4" rx="2" width="30" x="172" y="71"/><rect height="4" rx="2" width="12" x="156" y="71"/><rect height="4" rx="2" width="10" x="142" y="71"/><rect height="4" rx="2" width="32" x="106" y="71"/><rect height="4" rx="2" width="14" x="88" y="71"/><rect height="4" rx="2" width="18" x="13" y="71"/></g><g fill="#c9cbcf"><rect height="4" rx="2" width="27" x="161" y="61"/><rect height="4" rx="2" width="18" x="139" y="61"/><rect height="4" rx="2" width="10" x="125" y="61"/><rect height="4" rx="2" width="32" x="89" y="61"/><rect height="4" rx="2" width="14" x="71" y="61"/><rect height="4" rx="2" width="54" x="13" y="61"/></g><rect fill="#858c93" fill-rule="nonzero" height="8" rx="2.5" width="94" x="14" y="44"/><circle cx="17" cy="48" fill="#0c0d0e" r="4"/><circle cx="105" cy="48" fill="#0c0d0e" r="4"/><rect fill="#ea4f4f" height="9" rx="2" width="9" x="13" y="31"/><rect fill="#858c93" fill-rule="nonzero" height="3" rx="1.5" width="30" x="26" y="34"/><circle cx="26.5" cy="35.5" fill="#0c0d0e" r="1.5"/><circle cx="54.5" cy="35.5" fill="#0c0d0e" r="1.5"/><g transform="translate(13 5)"><rect fill="#858c93" fill-rule="nonzero" height="5" rx="2.5" width="52" x="14" y="5"/><circle cx="15.5" cy="7.5" fill="#0c0d0e" r="2.5"/><circle cx="64.5" cy="7.5" fill="#0c0d0e" r="2.5"/><g fill-rule="nonzero"><path d="m9.455 11.545v-3.545h1.181v4.727h-10.636v-4.727h1.182v3.545z" fill="#c1bebc"/><path d="m2.36363636 10.6363636h5.90909091v-1.18181815h-5.90909091zm5.15495424-10.6363636-.93071875.69225 3.46124995 4.6531875.9307188-.69225zm-2.87665622 2.74340625 4.45615622 3.7115.742625-.8913125-4.45656247-3.7115zm-1.45478125 2.57928125 5.25728122 2.44846875.48953125-1.05178125-5.25728122-2.4480625zm-.75075 2.71740625 5.85421299.98706689.07754239-.98648348-5.69328663-1.13564591z" fill="#f48024"/></g></g></g></svg>