<svg width="279" height="182" xmlns="http://www.w3.org/2000/svg"><g fill="none" fill-rule="evenodd"><path fill="#F3F3F5" fill-rule="nonzero" d="M0 0h279v181.96H0z"/><rect fill="#858C93" fill-rule="nonzero" x="32" y="12" width="63" height="6" rx="2.5"/><path fill="#BCBBBB" fill-rule="nonzero" d="M24 20v-5h2v7H12v-7h2v5z"/><path d="M15 19v-2h8v2h-8zm7.09-14.28l4.5 6.06-1.2.9-4.51-6.06 1.21-.9zM18.34 8.3l.97-1.16 5.8 4.83-.96 1.16-5.8-4.83zm-1.9 3.36l.64-1.37 6.85 3.19-.63 1.37-6.85-3.2zm-1.04 3.73l.38-1.67 7.42 1.48-.22 1.46-7.58-1.27z" fill="#F48024"/><path d="M9 29h261a3 3 0 0 1 3 3v140a3 3 0 0 1-3 3H9a3 3 0 0 1-3-3V32a3 3 0 0 1 3-3z" fill="#FFF" fill-rule="nonzero"/><rect fill="#E1ECF4" fill-rule="nonzero" x="76" y="158" width="36" height="12" rx="2"/><rect fill="#E1ECF4" fill-rule="nonzero" x="35" y="158" width="36" height="12" rx="2"/><path d="M190.5 149h29a2.5 2.5 0 1 1 0 5h-29a2.5 2.5 0 1 1 0-5zM173.5 149h7a2.5 2.5 0 1 1 0 5h-7a2.5 2.5 0 1 1 0-5zM129.5 149h34a2.5 2.5 0 1 1 0 5h-34a2.5 2.5 0 1 1 0-5zM108.5 149h12a2.5 2.5 0 1 1 0 5h-12a2.5 2.5 0 1 1 0-5zM37.5 149h61a2.5 2.5 0 1 1 0 5h-61a2.5 2.5 0 1 1 0-5z" fill="#C9CBCF" fill-rule="nonzero"/><path d="M40 135h104a5 5 0 1 1 0 10H40a5 5 0 1 1 0-10z" fill="#0095FF" fill-rule="nonzero"/><g fill-rule="nonzero"><path fill="#C1BEBC" d="M27.24 148.87v-4.3h1.43v5.73h-12.9v-5.73h1.43v4.3z"/><path d="M18.64 147.76h7.16v-1.43h-7.16v1.43zm6.25-12.9l-1.13.84 4.2 5.65 1.13-.84-4.2-5.65zm-3.49 3.33l5.4 4.5.9-1.08-5.4-4.5-.9 1.08zm-1.76 3.13l6.37 2.97.6-1.28-6.38-2.97-.6 1.28zm-.91 3.3l7.1 1.2.1-1.2-6.92-1.38-.28 1.37z" fill="#F48024"/></g><path fill="#EFF0F1" fill-rule="nonzero" d="M6 122h267v7H6z"/><rect fill="#0095FF" fill-rule="nonzero" x="16" y="96" width="61" height="17" rx="2"/><rect fill="#C9CBCF" fill-rule="nonzero" x="69" y="83" width="33" height="5" rx="2.5"/><rect fill="#C9CBCF" fill-rule="nonzero" x="42" y="83" width="22" height="5" rx="2"/><rect fill="#C9CBCF" fill-rule="nonzero" x="172" y="83" width="12" height="5" rx="2.5"/><rect fill="#C9CBCF" fill-rule="nonzero" x="129" y="83" width="39" height="5" rx="2.5"/><rect fill="#C9CBCF" fill-rule="nonzero" x="107" y="83" width="17" height="5" rx="2.5"/><rect fill="#C9CBCF" fill-rule="nonzero" x="16" y="83" width="22" height="5" rx="2.5"/><path d="M171.5 71h29a2.5 2.5 0 1 1 0 5h-29a2.5 2.5 0 1 1 0-5zM154.5 71h7a2.5 2.5 0 1 1 0 5h-7a2.5 2.5 0 1 1 0-5zM110.5 71h34a2.5 2.5 0 1 1 0 5h-34a2.5 2.5 0 1 1 0-5zM88.5 71h12a2.5 2.5 0 1 1 0 5h-12a2.5 2.5 0 1 1 0-5zM18.5 71h61a2.5 2.5 0 1 1 0 5h-61a2.5 2.5 0 1 1 0-5z" fill="#C9CBCF" fill-rule="nonzero"/><path fill="#FFF" fill-rule="nonzero" d="M224.57 78.37h25.51V52.93h-25.5z"/><path d="M249.92 52.78h-25.51v25.74H250.24V52.78h-.32zm-25.19.31h25.2v25.12h-25.2V53.09z" fill="#1060E1" fill-rule="nonzero"/><path fill="#FFB935" fill-rule="nonzero" d="M228.02 61.77h19.8v-5.4h-19.8z"/><path stroke="#F48024" d="M227.28 60.99h19.8v-5.4h-19.8zM229.62 65.86h15.56m-15.56 1.24h15.56m-12.7 1.44h9.81m-12.67 3.92h15.56m-15.56 1.24h15.56m-12.7 1.45h9.81m-11.77-11.03l14.12-.6"/><path fill="#FFF" fill-rule="nonzero" d="M250.69 77.33l-.16-.15v-1.75l.16-.16h4.74l.15.16v1.75l-.15.15z"/><path d="M255.43 75.11h-4.74l-.32.32v1.75l.32.31h4.74l.31-.31v-1.75l-.31-.32zm-4.74 2.07h4.74v-1.75h-4.74v1.75z" fill="#1060E1" fill-rule="nonzero"/><path d="M251.3 43.88l-.31.32v31.07l.31.31h3.52l.31-.31V44.2l-.32-.32h-3.5zm0 .32h3.51v31.07h-3.5V44.2z" fill="#1060E1" fill-rule="nonzero"/><g stroke-linejoin="bevel" stroke="#1060E1"><path stroke-linecap="square" d="M258.32 49.05V47.3h-20.85v1.84h20.85"/><path d="M258.32 47.45l-3.4-3.4m-3.62 0l-13.83 3.4" stroke-linecap="round"/></g><path d="M240.95 49.24v11.78" stroke="#1060E1" stroke-linecap="square" stroke-linejoin="bevel"/><path fill="#FFF" fill-rule="nonzero" d="M240.51 62.7l-.15-.11-.22-.88.15-.2h1.31l.16.2-.22.88-.15.12z"/><path d="M241.6 62zm0-.64h-1.3l-.32.4.22.87.31.24h.88l.3-.25.22-.87-.3-.4zm0 .31l-.21.88h-.88l-.22-.88h1.31zm0 0z" fill="#1060E1" fill-rule="nonzero"/><path d="M240.95 63.64l-.19.12a.3.3 0 0 1-.47-.25c0-.17.14-.3.3-.3h.14c.12 0 .22-.1.22-.23v-.43" stroke="#1060E1" stroke-linecap="square" stroke-linejoin="bevel"/><path d="M249.1 78.36l-.15-.16v-.45c0-.32.26-.58.57-.58h7.07c.32 0 .57.26.57.58v.45l-.16.16h-7.9z" fill="#FFF" fill-rule="nonzero"/><g fill="#1060E1" fill-rule="nonzero"><path d="M256.59 77.01h-7.07c-.4 0-.73.33-.73.74v.45l.32.32h7.9l.31-.32v-.45c0-.4-.33-.74-.73-.74zm0 .32c.23 0 .41.19.41.42v.45h-7.9v-.45c0-.23.2-.42.42-.42h7.07zm-3.71-5.64l-1.73 1.73v.45l1.72 1.72h.45l1.72-1.72v-.45l-1.71-1.73h-.45zm.22.23l1.72 1.72-1.73 1.73-1.72-1.73 1.73-1.72z"/><path d="M252.88 68.25l-1.73 1.72v.45l1.72 1.72h.45l1.72-1.72v-.45l-1.71-1.72h-.45zm.22.22l1.72 1.73-1.73 1.72-1.72-1.72 1.73-1.73z"/><path d="M252.87 64.8l-1.72 1.72v.45l1.71 1.73h.45l1.73-1.73v-.45l-1.72-1.72h-.45zm.23.23l1.72 1.72-1.73 1.72-1.72-1.72 1.73-1.72z"/><path d="M252.87 61.35l-1.72 1.73v.45l1.72 1.72h.45l1.72-1.72v-.45l-1.72-1.73h-.45zm.23.23l1.72 1.72-1.73 1.72-1.72-1.72 1.73-1.72z"/><path d="M252.87 57.9l-1.72 1.73v.45l1.72 1.72h.44l1.73-1.72v-.45l-1.72-1.72h-.45zm.23.23l1.72 1.72-1.73 1.73-1.72-1.73 1.73-1.72z"/><path d="M252.87 54.46l-1.72 1.72v.45l1.71 1.73h.45l1.73-1.73v-.45l-1.72-1.72h-.45zm.23.22l1.72 1.73-1.73 1.72-1.72-1.72 1.73-1.73z"/><path d="M252.87 51l-1.72 1.73v.45l1.72 1.73h.45l1.72-1.73v-.45l-1.72-1.72h-.45zm.23.23l1.72 1.73-1.73 1.72-1.72-1.72 1.73-1.73z"/><path d="M252.88 47.56l-1.73 1.73v.44l1.72 1.73h.45l1.72-1.73v-.44l-1.71-1.73h-.45zm.22.23l1.72 1.72-1.73 1.72-1.72-1.72 1.73-1.72z"/><path d="M253.1 44.05a.32.32 0 0 0-.23.1l-1.72 1.72a.32.32 0 0 0 0 .45l1.71 1.72a.32.32 0 0 0 .45 0l1.73-1.72a.32.32 0 0 0 0-.45l-1.72-1.72a.32.32 0 0 0-.22-.1zm0 .32l1.72 1.73-1.73 1.72-1.72-1.72 1.73-1.73z"/></g><path stroke="#1060E1" stroke-linecap="square" stroke-linejoin="bevel" d="M251.25 49.03l-1.72-1.72-1.72 1.72"/><path stroke="#1060E1" stroke-linecap="round" stroke-linejoin="bevel" d="M258.32 49.15l-1.75-1.84-1.72 1.72"/><path stroke="#1060E1" stroke-linecap="square" stroke-linejoin="bevel" d="M247.81 49.03l-1.72-1.72-1.72 1.72M244.37 49.03l-1.72-1.72-1.73 1.72"/><path stroke="#1060E1" stroke-linecap="round" stroke-linejoin="bevel" d="M240.92 49.03l-1.71-1.72-1.73 1.72M240.98 49.15a1.76 1.76 0 0 1-3.51 0"/><path d="M21 52h104a5 5 0 1 1 0 10H21a5 5 0 0 1 0-10z" fill="#858C93" fill-rule="nonzero"/><path d="M18 37h7a2 2 0 0 1 2 2v7a2 2 0 0 1-2 2h-7a2 2 0 0 1-2-2v-7c0-1.1.9-2 2-2z" fill="#EA4F4F" fill-rule="nonzero"/><rect fill="#858C93" fill-rule="nonzero" x="32" y="40" width="36" height="5" rx="2.5"/></g></svg>