<svg width="279" height="182" xmlns="http://www.w3.org/2000/svg"><g fill="none" fill-rule="evenodd"><path fill="#F3F3F5" fill-rule="nonzero" d="M0 0h279v181.96H0z"/><path d="M9 30h261a3 3 0 0 1 3 3v140a3 3 0 0 1-3 3H9a3 3 0 0 1-3-3V33a3 3 0 0 1 3-3z" fill="#FFF" fill-rule="nonzero"/><rect fill="#0095FF" fill-rule="nonzero" x="16" y="150" width="61" height="17" rx="2"/><path fill="#FFF" fill-rule="nonzero" d="M15.77 143.14h3.64v1.21h-3.64z"/><rect fill="#C9CBCF" fill-rule="nonzero" x="25" y="131" width="33" height="5" rx="2.5"/><rect fill="#C9CBCF" fill-rule="nonzero" x="63" y="131" width="17" height="5" rx="2.5"/><rect fill="#C9CBCF" fill-rule="nonzero" x="42" y="119" width="39" height="5" rx="2.5"/><rect fill="#C9CBCF" fill-rule="nonzero" x="86" y="119" width="36" height="5" rx="2.5"/><rect fill="#C9CBCF" fill-rule="nonzero" x="25" y="119" width="12" height="5" rx="2.5"/><circle fill="#6C737A" cx="18.5" cy="121.5" r="2.5"/><circle fill="#6C737A" cx="18.5" cy="133.5" r="2.5"/><path fill="#FFF" fill-rule="nonzero" d="M15.77 110.39h3.64v1.21h-3.64z"/><rect fill="#C9CBCF" fill-rule="nonzero" x="86" y="98" width="33" height="5" rx="2.5"/><rect fill="#C9CBCF" fill-rule="nonzero" x="146" y="98" width="36" height="5" rx="2.5"/><rect fill="#C9CBCF" fill-rule="nonzero" x="187" y="98" width="12" height="5" rx="2.5"/><rect fill="#C9CBCF" fill-rule="nonzero" x="43" y="98" width="39" height="5" rx="2.5"/><rect fill="#C9CBCF" fill-rule="nonzero" x="124" y="98" width="17" height="5" rx="2.5"/><rect fill="#C9CBCF" fill-rule="nonzero" x="16" y="98" width="22" height="5" rx="2.5"/><rect fill="#C9CBCF" fill-rule="nonzero" x="69" y="86" width="33" height="5" rx="2.5"/><rect fill="#C9CBCF" fill-rule="nonzero" x="43" y="86" width="22" height="5" rx="2.5"/><rect fill="#C9CBCF" fill-rule="nonzero" x="209" y="86" width="36" height="5" rx="2.5"/><rect fill="#C9CBCF" fill-rule="nonzero" x="189" y="86" width="15" height="5" rx="2.5"/><rect fill="#C9CBCF" fill-rule="nonzero" x="172" y="86" width="12" height="5" rx="2.5"/><rect fill="#C9CBCF" fill-rule="nonzero" x="129" y="86" width="39" height="5" rx="2.5"/><rect fill="#C9CBCF" fill-rule="nonzero" x="107" y="86" width="17" height="5" rx="2.5"/><rect fill="#C9CBCF" fill-rule="nonzero" x="16" y="86" width="22" height="5" rx="2.5"/><rect fill="#C9CBCF" fill-rule="nonzero" x="195" y="74" width="33" height="5" rx="2.5"/><rect fill="#C9CBCF" fill-rule="nonzero" x="169" y="74" width="22" height="5" rx="2.5"/><rect fill="#C9CBCF" fill-rule="nonzero" x="152" y="74" width="12" height="5" rx="2.5"/><rect fill="#C9CBCF" fill-rule="nonzero" x="108" y="74" width="39" height="5" rx="2.5"/><rect fill="#C9CBCF" fill-rule="nonzero" x="86" y="74" width="17" height="5" rx="2.5"/><rect fill="#C9CBCF" fill-rule="nonzero" x="16" y="74" width="65" height="5" rx="2.5"/><path d="M21 54h104a5 5 0 1 1 0 10H21a5 5 0 0 1 0-10z" fill="#858C93" fill-rule="nonzero"/><path d="M18 38h7a2 2 0 0 1 2 2v7a2 2 0 0 1-2 2h-7a2 2 0 0 1-2-2v-7c0-1.1.9-2 2-2z" fill="#EA4F4F" fill-rule="nonzero"/><rect fill="#858C93" fill-rule="nonzero" x="32" y="41" width="36" height="5" rx="2.5"/><rect fill="#858C93" fill-rule="nonzero" x="32" y="12" width="63" height="6" rx="2.5"/><path fill="#BCBBBB" fill-rule="nonzero" d="M24 20v-5h2v7H12v-7h2v5z"/><path d="M15 19v-2h8v2h-8zm7.09-14.28l4.5 6.06-1.2.9-4.51-6.06 1.21-.9zM18.34 8.3l.97-1.16 5.8 4.83-.96 1.16-5.8-4.83zm-1.9 3.36l.64-1.37 6.85 3.19-.63 1.37-6.85-3.2zm-1.04 3.73l.38-1.67 7.42 1.48-.22 1.46-7.58-1.27z" fill="#F48024"/></g></svg>