<svg height="150" viewBox="0 0 230 150" width="230" xmlns="http://www.w3.org/2000/svg"><g fill="none" fill-rule="evenodd"><path d="m0 0h230v150h-230z" fill="#f3f3f5"/><path d="m5 25h220v120h-220z" fill="#fff"/><g transform="translate(13 103)"><path d="m.131 28.427h21.03v-20.965h-21.03z" fill="#fff"/><path d="m21.0304598 7.33081869h-20.76893457-.26142056v.26168224 20.70403737.2616823h.26142056 1.85454206 18.91439251.2616823v-.2616823-20.70403737-.26168224zm-20.76893457.26168224h20.76893457v20.70403737h-18.91439251-1.85454206z" fill="#1060e1"/><path d="m2.971 14.748h16.318v-4.45h-16.318z" fill="#ffb935"/><path d="m2.363 14.102h16.318v-4.45h-16.318z" stroke="#f48024"/><path d="m4.29051589 18.1149533h12.82975701m-12.82975701 1.0214504h12.82975701m-10.46899066 1.1914916h8.08571966m-10.44648601 3.2343402h12.82975701m-12.82975701 1.0214505h12.82975701m-10.46899066 1.1916224h8.08571966m-9.70131966-9.0892934 11.64250466-.5" stroke="#f48024"/><path d="m21.659 27.577-.131-.131v-1.438l.131-.131h3.907l.131.131v1.438l-.131.131z" fill="#fff"/><path d="m25.5657271 25.7465495h-3.9069159l-.2616822.2616823v1.4379439l.2616822.2616822h3.9069159l.2616822-.2616822v-1.4379439zm-3.9069159 1.6996262h3.9069159v-1.4379439h-3.9069159z" fill="#1060e1"/><path d="m22.168228-.00002617-.2616822.26168225v25.61005602l.2616822.261944h2.8955141l.2614205-.261944-.0015701-25.61005602-.2616822-.26168225zm0 .26168225h2.8936823l.0018318 25.61005602h-2.8955141z" fill="#1060e1"/><g stroke="#1060e1" stroke-linejoin="bevel" transform="translate(10.729 .035)"><path d="m17.227 4.223v-1.432h-.964-.964-15.265v1.517h17.193" stroke-linecap="square"/><path d="m17.2270393 2.90705421-2.8088972-2.80863552m-2.9789122-.00010467-11.40515887 2.80863551" stroke-linecap="round"/></g><path d="m13.6301907 4.41319252v9.71809348" stroke="#1060e1" stroke-linecap="square" stroke-linejoin="bevel"/><path d="m13.272 15.518-.127-.099-.181-.721.127-.163h1.079l.127.163-.178.72-.127.1z" fill="#fff"/><path d="m14.1697794 14.9280037h.0013085zm.0013085-.5233644h-.0013085-1.0791775l-.2538318.3255327.1810841.7206729.2538318.1978317h.7206729l.2538318-.1991402.1776822-.7206728-.252785-.3226543zm-.0013085.2616822-.1774205.7206729h-.7206729l-.1810841-.7206729zm0 0h.0013085z" fill="#1060e1"/><g transform="translate(10.729 .035)"><path d="m2.90121869 16.2503103-.15020561.0991776c-.11383177.0771962-.26900934.0476261-.3462056-.0664673-.02852337-.0418692-.04343926-.0913271-.04317757-.1418318 0-.1376449.11173831-.2493832.24938317-.2493832h.10938318c.09970094 0 .18082243-.0811215.18082243-.1810841v-.3585047" stroke="#1060e1" stroke-linecap="square" stroke-linejoin="bevel"/><path d="m9.62854579 28.3901682-.13084112-.1308411v-.3789159c0-.2606355.21196262-.4723364.47233645-.4723364h5.82635518c.2606355 0 .4723364.2117009.4723364.4723364v.3789159l-.1308411.1308411z" fill="#fff"/><g fill="#1060e1"><path d="m15.7964748 27.2771028h-5.82635517c-.33259813 0-.60317757.2705794-.60317757.6031776v.3789159l.26168224.2616822h6.5093458l.2616822-.2616822v-.3789159c0-.3325982-.2705794-.6031776-.6031775-.6031776m0 .2616822c.1886729 0 .3414953.1528225.3414953.3414954v.3789159h-6.5093458v-.3789159c0-.1886729.15282243-.3414954.34149533-.3414954zm-3.0609757-4.6466392-1.4240748 1.4206729-.0005234.3700187 1.4172711 1.4206729.3702803.0002617 1.4206729-1.4206729.0005234-.3694954-1.4138692-1.4209345zm.1847476.185271 1.4138692 1.4206729-1.4206729 1.4206729-1.417271-1.4206729z"/><path d="m12.7354991 20.0505645-1.4240748 1.4206729-.0005234.3700187 1.4172711 1.4209346.3702803.0002616 1.4206729-1.4209345.0005234-.3694954-1.4138692-1.4209345zm.1847476.185271 1.4138692 1.4206729-1.4206729 1.4206729-1.417271-1.4206729z"/><path d="m12.7318093 17.2092449-1.4206729 1.4209345-.0005233.3694954 1.4138691 1.4206729.3702804.000785 1.4243365-1.4206729.0005233-.3702804-1.4175327-1.4206729zm.1850094.1850093 1.4175327 1.4209346-1.4243364 1.4206729-1.4138692-1.4206729z"/><path d="m12.7318093 14.3677944-1.4206729 1.4206729-.0002616.3700187 1.417271 1.4206729.3702804.0002617 1.4209345-1.4209346.0002617-.369757-1.4175327-1.4206729zm.1850094.1850093 1.4175327 1.4206729-1.4209346 1.4206729-1.417271-1.4206729z"/><path d="m12.7337196 11.5260822-1.4240747 1.4206729-.0005234.3700187 1.417271 1.4206729.3702804.0005234 1.4240748-1.4206729.0005233-.3700187-1.4175327-1.4209346zm.1850094.1852711 1.417271 1.4206729-1.4243364 1.4206729-1.4172711-1.4206729z"/><path d="m12.7318093 8.68476262-1.4206729 1.42067288-.0005233.369757 1.4138691 1.4206729.3702804.0005234 1.4243365-1.4206729.0005233-.3700187-1.4175327-1.4206729zm.1850094.18500934 1.4175327 1.42067294-1.4243364 1.4209345-1.4138692-1.4209345z"/><path d="m12.7318093 5.83988411-1.4206729 1.4206729-.0005233.36975701 1.417271 1.42407477.3708038.00026168 1.4209345-1.42407477v-.36975701l-1.4175327-1.4206729zm.1850094.18500935 1.4175327 1.4206729-1.4209346 1.42433644-1.417271-1.42433644z"/><path d="m12.7354991 2.99817196-1.4240748 1.4206729-.0005234.37001869 1.4172711 1.4206729.3702803.00026168 1.4206729-1.4206729.0005234-.36949532-1.4138692-1.42093458zm.1847476.18527103 1.4138692 1.4206729-1.4206729 1.4206729-1.417271-1.4206729z"/><path d="m12.9168187.10700187c-.0693458 0-.1360748.02747664-.1850094.0766729l-1.4206729 1.42067289c-.102056.10205608-.1023177.26743926-.0005233.36949533l1.4138691 1.42093458c.0491963.04919626.1156636.07693458.1850094.07693458h.0005234c.0693457 0 .135813-.02747664.1847476-.07641122l1.4243365-1.42067289c.1023177-.10205608.1023177-.26770094.0005233-.37001869l-1.4175327-1.42093458c-.0489346-.04893458-.1156635-.0766729-.1850093-.0766729zm0 .26168224 1.4175327 1.4206729-1.4243364 1.4206729-1.4138692-1.4206729z"/></g><path d="m11.398 4.212-1.418-1.421-1.42 1.421" stroke="#1060e1" stroke-linecap="square" stroke-linejoin="bevel"/><path d="m17.227 4.308-1.448-1.517-1.42 1.421" stroke="#1060e1" stroke-linecap="round" stroke-linejoin="bevel"/><path d="m8.56 4.212-1.418-1.421-1.421 1.421" stroke="#1060e1" stroke-linecap="square" stroke-linejoin="bevel"/><path d="m5.721 4.212-1.417-1.421-1.421 1.421" stroke="#1060e1" stroke-linecap="square" stroke-linejoin="bevel"/><path d="m2.883 4.212-1.417-1.421-1.424 1.421" stroke="#1060e1" stroke-linecap="round" stroke-linejoin="bevel"/><path d="m2.92780561 4.30836262c0 .79917757-.64792524 1.44684112-1.44684112 1.44684112-.79917757 0-1.44710281-.64766355-1.44710281-1.44684112" stroke="#1060e1" stroke-linecap="round" stroke-linejoin="bevel"/></g></g><text font-family="Arial-BoldMT, Arial" font-size="9" font-weight="bold"><tspan fill="#54595f" x="50" y="111">Here’s a subheading</tspan> <tspan fill="#54595f" font-family="ArialMT, Arial" font-size="6" font-weight="normal" x="55.651" y="123.092">A starting point for more simple transactional emails with a </tspan><tspan fill="#54595f" font-family="ArialMT, Arial" font-size="6" font-weight="normal" x="55.651" y="131.092">single message. It can </tspan><tspan fill="#54595f" font-size="6" x="117.017" y="131.092">contain links</tspan> <tspan fill="#54595f" font-family="ArialMT, Arial" font-size="6" font-weight="normal" x="153.69" y="131.092">or rich text.</tspan> <tspan fill="#07c" font-family="ArialMT, Arial" font-size="6" font-weight="normal" x="55.651" y="141.092">Read this.</tspan></text><path d="m5 25h220v68h-220z" fill="#362858"/><g fill-rule="nonzero" transform="translate(118 30)"><path d="m75.9183673 3.8058463v3.40870947c0 .0661915.1530564.13238301.3061176.13238301s.3061273-.06619151.3061273-.13238301v-3.40870947c0-.06618859-.1530661-.13237691-.3061273-.13237691-.2295918.03309416-.3061176.06618832-.3061176.13237691z" fill="#ca7929"/><path d="m75.8977299 5.93957171-1.0456319-1.01775881c-.0550332-.03180495-.1100664-.03180495-.137583 0-.0275166.06361-.0275166.12721975 0 .15902463l1.0456319 1.01775856c.0550332.03180385.1100664.03180385.137583 0 .0275166-.03180386.0275166-.12722052 0-.15902438zm-.0530204 1.08535874-.9514825-.87070784c-.0704802-.04837252-.1409604-.04837233-.1762006.04837264-.0352401.09674521-.0352434.19349002.0352368.24186282l.9514859.87070528c.0704802.04837473.1409604.04837473.1762005-.04837086.0704803-.09674559.0352401-.19349118-.0352401-.24186204z" fill="#ca7929"/><path d="m76.1202324 7.31516335.9634978-.87070528c.0713704-.0483728.0713732-.14511761.035688-.24186282-.0356851-.09674497-.1070555-.09674516-.1784258-.04837264l-.9634987.87070784c-.0713702.04837086-.0713724.14511645-.0356872.24186204s.1427408.09674559.1784259.04837086zm-.0288387-1.21631911 1.0115343-1.00717144c.0532389-.03147424.0532389-.12589646 0-.15737045-.0532388-.03147407-.1064777-.06294823-.1330971 0l-1.0115344 1.00716943c-.0532389.0314755-.0532389.12589696 0 .15737246.0532389.03147298.0798583.03147298.1330972 0zm-3.7922864.29524067 3.4117129 2.1598028c.0766675.0423476.153335 0 .1916688-.04235099.0383337-.0423476 0-.16939379-.0383338-.21174478l-3.4117095-2.15980144c-.0766675-.04234905-.153335.00000014-.1916687.0423493-.0383337.04234895-.0000035.16939615.0383303.21174511z" fill="#ca7929"/><path d="m74.4528308 6.14264589-2.1009931.82371636c-.0894041.05148479-.1341047.15445024-.0894027.25741569.0447021.10296133.1341061.15444612.2235101.10296545l2.1009916-.82372114c.089404-.05148231.134106-.15444735.089404-.25741198-.044702-.10296496-.1341059-.15444682-.2235099-.10296438zm.0615462 1.22634384-.9653545.78692628c-.0665765.05620698-.0998636.16862545-.0665754.28104391.0332882.11241847.0998646.16862545.166441.11241847l.9653561-.78692566c.0665764-.05620923.099862-.16862679.0665738-.28104481-.0332882-.11241774-.0998646-.16862711-.166441-.11241819z" fill="#ca7929"/><path d="m75.2890378 7.21480109-.1284586-.99118884c0-.06194943-.1284585-.12389913-.2569212-.09292447-.1284626 0-.2569273.06194988-.192696.12389906l.1284606.99119033c0 .06194719.128459.12389687.2569217.09292327.1284622 0 .2569248-.06194967.1926935-.12389935zm-1.2074051-.04279042-.344384-2.14285602c0-.08746371-.076534-.13119547-.1530644-.13119547-.0765303 0-.1147965.08746379-.1147965.17492749l.3443887 2.14285778c0 .08746405.0765304.13119433.1530607.13119433s.1147955-.08746406.1147955-.17492811zm-1.6209772 2.60643855 3.3945183-2.1507766c.0762814-.04217235.0762814-.12651637.0381407-.21086073-.0381407-.08434419-.1144221-.08434436-.1907035-.04217224l-3.3945216 2.15077886c-.0762814.04217066-.076278.12651536-.0381373.21086005.0381406.04217066.114422.0843447.1907034.04217066z" fill="#ca7929"/><path d="m73.8137767 8.70262345-.3443889 2.14285655c0 .0874641.0382668.1749282.1147979.1749282.0765312 0 .1530599-.0437303.1530599-.1311944l.3443871-2.14285832c0-.08746336-.0382595-.17492691-.1147906-.17492691-.0382656 0-.1147998.04373152-.1530654.13119488zm1.0161537-.03700315-.1360528 1.00470875c0 .06279466.0680297.12558932.2040846.12558932.1360548 0 .2721054-.03139859.2721054-.09419325l.1360548-1.00470749c0-.06279416-.0680317-.12558906-.2040866-.12558906s-.2721054.03139757-.2721054.09419173zm-.2156862-.50970423-.9653561-.78692634c-.0665764-.05620891-.1331528.0000004-.166441.11241836-.0332882.11241754-.0000011.22483554.0665754.28104432l.9653545.78692598c.0665764.05620697.1331528 0 .166441-.11241845s.0000026-.22483689-.0665738-.28104387z" fill="#ca7929"/><path d="m74.5869367 8.19085691-2.1009917-.82372138c-.089404-.05148247-.178808.00000041-.22351.10296526-.044702.1029651-.0000013.20592979.0894026.25741255l2.1009931.82371668c.089404.05148482.178808.00000412.22351-.10296139s0-.20593103-.089404-.25741172zm1.9436755 2.69716829v-3.40870901c0-.06618831-.1530557-.13237741-.3061164-.13237741s-.3061285.0661891-.3061285.13237741v3.40870901c0 .0661915.1530678.132383.3061285.132383s.3061164-.0661915.3061164-.132383z" fill="#ca7929"/><path d="m75.9498545 9.97879649 1.0362076 1.01775691c.0545374.0318064.1090748.0318064.1363435 0 .0272687-.0318038.0272687-.1272203 0-.1590241l-1.0362075-1.01775726c-.0545375-.0318049-.1090749-.0318049-.1363436 0-.0272686.0318049-.0545374.0954148 0 .15902445zm.0276392-1.08535883.9634987.87070528c.0713703.04837474.1427407.04837474.1784258-.04837086.0356852-.09674559.0356824-.19349118-.035688-.24186204l-.9634978-.87070784c-.0713703-.04837252-.1427407-.04837233-.1784259.04837264-.0356852.09674521-.035683.19349002.0356872.24186282z" fill="#ca7929"/><path d="m75.7165018 8.62327543-.9635013.85605232c-.0713702.04756069-.0713669.14267825-.0356818.23779581.0356852.09511375.1070555.09511375.1784257.04755687l.9634979-.85605384c.0713702-.0475584.0713702-.14267558.0356851-.23779238-.0356851-.0951171-.1070553-.14267596-.1784256-.04755878zm.02884 1.19604082-1.0115352.99831035c-.0532387.0311961-.0532387.1247894 0 .1559855.0266193.0623947.1064772.0623947.1330965 0l1.0115353-.99830987c.0532386-.03119735.0532386-.12478867 0-.15598598-.0266193-.03119718-.1064773-.03119718-.1330966 0zm3.7831419-.29503454-3.4030938-2.15980142c-.0764739-.04234906-.1529478.00000017-.1911848.04234934-.0382369.04234896.0000023.16939618.0382392.21174514l3.4030917 2.15980273c.0764739.0423476.1529477 0 .1911846-.04235099.038237-.04234761.038237-.16939381-.0382369-.2117448z" fill="#ca7929"/><path d="m77.3839034 8.55123002 2.1009869-.82371668c.0894038-.05148276.1341128-.15444745.0894109-.25741255-.0447018-.10296485-.1341056-.15444773-.2235094-.10296526l-2.1009954.82372138c-.0894036.05148069-.1341041.15444621-.0894022.25741172.0447017.10296551.1341055.15444621.2235092.10296139z" fill="#ca7929"/><path d="m77.3223565 8.54937839.9653509-.78692598c.0665761-.05620878.0998695-.16862678.0665814-.28104432-.033288-.11241796-.0998641-.16862727-.1664402-.11241836l-.9653572.78692634c-.066576.05620698-.0998631.16862542-.066575.28104387 0 .11241845.0998641.16862542.1664401.11241845zm-.1794994.15418804.1321563.99119033c0 .0619472.1321438.12389687.2642918.09292327.132148 0 .2642961-.06194967.1982221-.12389935l-.1321438-.99118884c0-.06194943-.1321544-.12389913-.2643024-.09292447-.066074 0-.198224.06194988-.198224.12389906z" fill="#ca7929"/><path d="m77.1428571 8.74635548.3443914 2.14285832c0 .0874641.0765274.1311944.1530578.1311944.0765305 0 .1147957-.0874641.1147957-.1749282l-.3443895-2.14285655c0-.08746336-.076528-.13119488-.1530585-.13119488s-.1147969.08746355-.1147969.17492691zm2.2332233-2.5963209-3.3945181 2.14182907c-.0762813.04199517-.0762836.12598888-.0381429.20998259s.1144221.08399371.1907035.04199518l3.3945203-2.14182685c.0762814-.04199686.0762814-.12598989.0381407-.20998327-.0381407-.08399317-.1144221-.08399334-.1907035-.04199672zm-1.9653679 1.06570986.3443895-2.14285827c0-.08746371-.0382652-.17492699-.1147957-.17492699-.0765304 0-.1530578.04373195-.1530578.13119531l-.3443914 2.14285617c0 .08746406.0382664.17492812.1147969.17492812s.1530585-.04373028.1530585-.13119434z" fill="#ca7929"/><path d="m77.6190497 7.24508939.1360523-.99790247c0-.06236909-.0680169-.12473794-.2040736-.12473794-.1360556 0-.2721178.03118418-.2721178.09355327l-.1360535.99790372c0 .06236934.06803.12473868.2040857.12473868.1360556.03118342.2040791-.03118592.2721069-.09355526z" fill="#ca7929"/><path d="m77.1991371 7.76245273.9850482.78692566c.0679345.05620698.1358689 0 .1698361-.11241847.0339673-.11241846 0-.22483693-.0679344-.28104391l-.951083-.78692628c-.0679344-.05620892-.1358688.00000045-.1698361.11241819-.0339672.05620879-.0339652.22483558.0339692.28104481zm.0506593-1.25943048 2.1009954.82372114c.0894038.05148067.1788076-.00000412.2235094-.10296545.0447019-.10296545-.0000071-.2059309-.0894109-.25741569l-2.1009869-.82371636c-.0894037-.05148244-.1788075-.00000058-.2235092.10296438-.0447019.10296463-.0000014.20592967.0894022.25741198zm-7.9078148 36.47111335c-.525034 1.1439204-1.1813265 2.2531772-1.9688769 3.2931107-.0437528.0693317-.0437475.1733015.0875109.2426331.0875057.0346659.2187628.0346659.3062674-.0693316.7875511-1.0745799 1.4438401-2.183834 2.012627-3.3624183.0437528-.1039928.000007-.1733234-.1312515-.2079877-.1750114-.0346643-.3062769.0000011-.3062769.1039938zm-37.524105 3.2947923c-.773996-1.062036-1.4569337-2.1594691-2.0032838-3.2923055-.0455292-.1062032-.1821171-.1416054-.2731755-.1062043-.1365876.0354012-.1821182.1416065-.136589.2124088.546352 1.1682371 1.229286 2.30107 2.0488113 3.3631146.0455291.0708054.1821167.1061798.3187042.0707771.0455292-.0353744.091062-.1769852.0455328-.2477907zm4.8949485-.0122971c-.8044659-1.0160443-1.4992319-2.099811-2.0477314-3.2851834-.0365666-.1016032-.1462686-.1354721-.2559685-.1016043-.1096998.0338678-.1462648.1354725-.1096982.2370759.5484999 1.1853727 1.2432659 2.336878 2.0842984 3.3529006.0731333.0677387.1828303.101608.2559635.0338693.1096999-.0677386.1097029-.1693466.0731362-.2370581zm27.8193643-3.3011698c-.5288225 1.1798044-1.2339135 2.294063-2.044775 3.3100052-.0705096.0655477-.0352581.1638693.0352515.229417s.1762733.0327738.2467818-.0327739c.846116-1.0487213 1.5512127-2.1629825 2.11529-3.375561.0352549-.0983171.0000057-.1638606-.1057588-.2294054-.1057645 0-.2115347.0327733-.2467895.0983181zm-24.1793878 1.9812734c-2.0060789-2.2515668-3.2240554-5.241966-3.2240554-8.4785863 0-3.5532908 1.4687364-6.7899111 3.8330437-9.1118711 2.3643073-2.3219262 5.6600084-3.7643464 9.2781151-3.7643464s6.9138078 1.4424202 9.2781151 3.7643464c2.3643074 2.32196 3.8330437 5.5585803 3.8330437 9.1118711 0 3.2718028-1.2537993 6.262202-3.2957011 8.5489513-.0716457.070365-.0716457.1759125 0 .2462493.0716457.070365.1791142.070365.2507599 0 2.1135474-2.3219318 3.3673468-5.4178503 3.3673468-8.7600181 0-7.3176485-6.0182369-13.2280245-13.4693872-13.2280245-7.4511504 0-13.4693883 5.910376-13.4693883 13.2280245 0 3.3421678 1.2538004 6.3677213 3.331525 8.6896813.0716457.0703368.1791142.0703368.2507599 0 .1074685-.070365.1074685-.1759125.0358228-.2462775z" fill="#ca7929"/><path d="m58.604 50.027v-.177h-19.077v-5.414h18.905v5.591h.172v-.177.177h.172v-5.945h-19.592v6.122h19.592v-.177z" fill="#ca7929"/><path d="m59.2653061 50.4837495 1.3994169 3.0365432h-22.1457726l1.4693878-3.0365432c.0349854-.0714485 0-.1786254-.0699709-.2500739-.0699708-.0714483-.1749271.0000043-.2448979.0714528l-1.7142857 3.5724226h23.2653061l-1.6443149-3.5367017c-.0349854-.0714485-.1399417-.1428957-.2448979-.0714473-.0699709 0-.1049563.1071749-.0699709.2143475z" fill="#ca7929"/><path d="m58.604 48.801v-.178h-19.077v-2.96h18.905v3.138h.172v-.178.178h.172v-3.495h-19.592v3.674h19.592v-.179z" fill="#ca7929"/><path d="m40.4081633 45.4916517v3.3024322c0 .1113226.1224489.1855079.3061224.1855079s.3061225-.0741853.3061225-.1855079v-3.3024322c0-.1113176-.122449-.1855293-.3061225-.1855293s-.3061224.0742117-.3061224.1855293zm2.4489796 0v3.3024322c0 .1113226.1224494.1855079.3061234.1855079.1836721 0 .3061215-.0741853.3061215-.1855079v-3.3024322c0-.1113176-.1224494-.1855293-.3061215-.1855293-.183674 0-.3061234.0742117-.3061234.1855293zm1.2244898 0v3.3024322c0 .1113226.1224487.1855079.3061219.1855079s.306123-.0741853.306123-.1855079v-3.3024322c0-.1113176-.1224498-.1855293-.306123-.1855293-.1224488 0-.3061219.0742117-.3061219.1855293zm3.6734693-.0122525v3.326908c0 .1039708.1224486.1732846.3061215.1732846s.3061234-.0693138.3061234-.1732846v-3.326908c0-.1039661-.1224505-.1732768-.3061234-.1732768s-.3061215.0693107-.3061215.1732768zm1.2244898 0v3.326908c0 .1039708.1224486.1732846.3061215.1732846s.3061234-.0693138.3061234-.1732846v-3.326908c0-.1039661-.1224505-.1732768-.3061234-.1732768-.1224486 0-.3061215.0693107-.3061215.1732768zm2.4489796 0v3.326908c0 .1039708.1224495.1732846.3061235.1732846.1836721 0 .3061214-.0693138.3061214-.1732846v-3.326908c0-.1039661-.1224493-.1732768-.3061214-.1732768-.1224494 0-.3061235.0693107-.3061235.1732768zm2.4489796.0122525v3.3024322c0 .1113226.1224495.1855079.3061235.1855079.1836721 0 .3061214-.0741853.3061214-.1855079v-3.3024322c0-.1113176-.1224493-.1855293-.3061214-.1855293-.1224494 0-.3061235.0742117-.3061235.1855293zm2.4489796 0v3.3024322c0 .1113226.1224485.1855079.3061214.1855079s.3061235-.0741853.3061235-.1855079v-3.3024322c0-.1113176-.1224506-.1855293-.3061235-.1855293s-.3061214.0742117-.3061214.1855293zm1.2244898 0v3.3024322c0 .1113226.122449.1855079.3061225.1855079.1836734 0 .3061224-.0741853.3061224-.1855079v-3.3024322c0-.1113176-.122449-.1855293-.3061224-.1855293-.122449 0-.3061225.0742117-.3061225.1855293zm-34.0398168-3.8589986 3.260234-.6843631c.11784 0 .1964-.1579296.15712-.3158592s-.11784-.2632167-.23568-.2105735l-3.2602359.684361c-.11784 0-.1963975.1579325-.1571175.3158609.03928.1579283.1571194.2105739.2356794.2105739zm-.0780924-9.2857118 3.269327.7142832c.1181687 0 .1969478-.0510188.2363373-.2040792 0-.1530604-.0393895-.2551061-.1575582-.3061249l-3.2693282-.7142857c-.1181687 0-.1969472.0510172-.2363366.2040788-.0393896.1530617.0393901.2551049.1575587.3061278zm1.1963781-5.1193715 3.2699076.9241428c.1241734.0308061.2069556.0000024.2483467-.0924136.0413912-.0924135 0-.1540233-.1241733-.1848295l-3.2699063-.9241423c-.1241733-.0308048-.2069549.0000009-.2483461.0924151-.0413911.0924142-.0000019.1540238.1241714.1848275zm4.811835-8.5078722 2.1338485 2.0543723c.0646621.0775239.1616526.0387604.2263147-.0387635s.0323336-.1938082-.0323284-.271332l-2.1338491-2.0543708c-.0646621-.0775236-.1616568-.0387609-.2263189.0387625-.032331.1162853-.032329.232568.0323332.2713315zm3.6611338-2.5455605 2.0803107 2.1378635c.0756477.0668086.1891191.0668086.2647667.0334056.0756477-.0668086.0756477-.1670202.0378238-.2338288l-2.0803098-2.1378645c-.0756473-.0668083-.1891176-.0668079-.2647652-.0334037s-.1134739.1336155-.0378262.2338279zm7.314158-4.88986.9215748 3.269931c.0317786.1241465.1271168.1655397.1906739.1241465s.1271142-.1655397.0953356-.2483261l-.9215805-3.269925c-.0317785-.1241739-.1271126-.1655649-.1906697-.1241735s-.1271127.1241731-.0953341.2483471zm4.9036503-1.2424621.6524699 3.2602281c0 .1178448.1631184.1964079.3262368.1571264.1631184 0 .2718683-.1178448.2174955-.2356895l-.6524735-3.26022408c0-.11783939-.1631184-.19639955-.3262367-.15711977-.1631184.03927976-.2718648.11783945-.217492.23567885zm9.2715727-.07809312-.7142881 3.26931892c0 .1181735.051025.1969558.2040855.236347.1530606 0 .2550976-.0393912.3061178-.1575647l.7142865-3.2693227c0-.1181681-.0510242-.19694631-.2040848-.23633567-.1530605-.03938936-.2550967.03938904-.3061169.15755715zm3.9019656 1.18138642-.9315161 3.2837686c-.0300489.1247062.0000009.2078437.0901474.2494124s.1502454 0 .1802943-.1247062l.9315116-3.2837746c.0300488-.1247005 0-.2078336-.0901465-.2494003-.0600977 0-.1502418.0415664-.1802907.1247001zm8.5007791 4.8275433-2.0543665 2.1296326c-.0775235.0655276-.0387654.1638176.038758.2293451.0775235.0655275.1938078.0327624.27133-.0327651l2.0543756-2.1296318c.0775235-.065527.0387648-.1638168-.0387587-.229344-.0775235-.0327636-.1938149-.0327641-.2713384.0327632zm2.5455631 3.6716602-2.137861 2.0705962c-.0668083.0752948-.0668104.1882356-.0334062.2635304.0668082.0752949.1670195.0752979.2338277.037649l2.1378669-2.0705977c.0668082-.0752933.0668056-.1882353.0334014-.2635295-.0334041-.1129418-.1336165-.1129427-.2338288-.0376484zm4.8928023 7.3036019-3.2744014.8932649c-.1227899.0343551-.163721.1374229-.1227911.2061358.0409299.1030678.1637223.1374228.2455822.1030678l3.2744001-.8932612c.1227898-.0343578.1637198-.1374251.1227898-.2061376 0-.0687126-.1227898-.1374259-.2455796-.1030697zm1.2395203 4.888821-3.260236.7066275c-.11784 0-.1963974.1514187-.1571174.3028374.03928.1514228.1178365.2523699.2356762.2018943l3.2602372-.706626c.11784 0 .1964-.1514195.15712-.3028394s-.11784-.2018938-.23568-.2018938zm.0798738 9.2393349-3.2736134-.6679063c-.1169148 0-.1948605.111318-.2338319.2226346 0 .1669755.0779468.2782931.1558899.3339497l3.2736123.6679055c.1169147 0 .1948579-.1113176.2338295-.2226352.0389716-.1669741-.0389716-.3339483-.1558864-.3339483zm-26.7727515-34.77667099v5.76854179c0 .1061745.1224486.1769576.3061215.1769576s.3061234-.0707831.3061234-.1769576v-5.76854179c0-.10616973-.1224505-.17694963-.3061234-.17694963-.1224486 0-.3061215.0707799-.3061215.17694963zm-14.6699951 4.95955359 3.2745236 4.5822139c.0399331.0645413.1597322.096812.2795313.0645413.0798661-.0322707.1197992-.1290568.0798661-.2258689l-3.2745227-4.5822324c-.0399331-.0645384-.1597313-.0968078-.2795304-.0645386-.1197991.0645383-.1198009.1613462-.0798679.2258847zm-9.7110268 9.9398016 4.5443062 3.2672113c.0644582.0398458.1611454.0398458.2256036-.0796916.032229-.0796916.032229-.1992289-.0644582-.2789205l-4.5765348-3.2671968c-.0644581-.039844-.1611469-.0398437-.225605.0796882-.0322291.0796878.0000009.2390636.0966882.2789094zm-4.8308008 14.9236952h5.7705842c.1055594 0 .1759324-.122448.1759324-.306122 0-.1836734-.070373-.3061229-.1759324-.3061229h-5.7705842c-.1055594 0-.1759324.1224495-.1759324.3061229 0 .183674.070373.306122.1759324.306122zm44.747765-25.0044748-3.2672142 4.5565705c-.039844.0641801-.0398452.1604503.0796868.2246304.0796875.03209.1992184.03209.2789075-.0641801l3.2672153-4.556579c.0398439-.064176.0398439-.1604421-.0796879-.2246191-.1195318-.0641773-.2390636-.0320884-.2789075.0641773zm9.9397997 9.7140534-4.5822186 3.2818464c-.0645383.0400245-.0968065.1600979-.0645373.2801712.0322691.0800489.1290757.1200734.2258833.0800489l4.5822186-3.2818611c.0645384-.0400245.0968076-.160092.0645384-.28016-.0645384-.0800452-.161346-.1200681-.2258844-.0800454zm3.7350637 14.6781765-5.7685501.2040813c-.1061697 0-.1769494.0816327-.1769494.2040826 0 .1224479.0707797.204081.1769494.204081l5.7685501-.204081c.1061697 0 .1769494-.0816337.1769494-.2040826s-.0707797-.2040813-.1769494-.2040813zm-16.8893774-11.8112244c.2551014.2551009.4591857.4591833.7142871.7142884.1020406.1020371.2551014.1020371.357142 0 .1020405-.1020412.1020405-.2551051 0-.3571463-.2551014-.2551009-.4591784-.5102039-.7142798-.7142851-.1020414-.1020408-.2551088-.1020408-.3571493 0-.1020404.1020404-.1020404.2551038 0 .357143zm4.2663866 16.8045214c-.2163878.3336808-.4327735.6435283-.6491614.9772075-.054097.0715044.0000016.1191715.1622926.1430069.1622909.0238336.270481 0 .3245779-.0715044.2704849-.333681.4868727-.6435266.7032606-1.001042.054097-.0715031-.0540926-.1191715-.2163835-.1430058-.108194 0-.2704892.047669-.3245862.0953378zm1.1391213-4.8188023c0 1.1167668-.1892203 2.2335345-.567671 3.2804926-.0630751.1047017.0630711.1745028.2522964.2094034.1892254.0349006.3153796-.0349006.3784547-.1396022.3784507-1.0818615.6307461-2.1986264.567671-3.3502938 0-.1046966-.1261503-.1744947-.3153756-.1744947-.1261502 0-.3153755.0697981-.3153755.1744947zm-4.2135554-9.6922606c1.8305234 2.5792413 3.029822 5.812381 3.3138688 9.3361208 0 .1089871.0946823.1816451.1578038.1816451.0946823 0 .1578038-.1089871.1578038-.1816451-.2840468-3.5963978-1.483348-6.9021868-3.3769934-9.5540844-.0631223-.0726548-.1578035-.0726543-.220925-.0363269-.0946824.0363272-.0946795.1453084-.031558.2542905zm-23.0040361-3.1267668c2.8562553-2.5375116 6.5235498-4.036957 10.5082062-4.075403 4.1609687 0 8.0045754 1.6532325 10.9313585 4.4214445.0705249.0768981.1763122.0768981.2468371-.0384491.0705249-.0768981.0705249-.1922453-.0352625-.2691434-2.9973079-2.8066457-6.876177-4.5367735-11.1429331-4.5367735-4.0551813 0-7.7930006 1.5378918-10.755043 4.1523137-.0705251.0768981-.0705272.1922453-.0352647.2691126.1057873.1537963.2115758.1537963.2821015.0768982zm-4.9713589 3.9635965c.2898873-.7300572.6280891-1.42361.9662909-2.0441596.0483146-.0730049.0241573-.1825122-.0241572-.2555179-.0483146-.0730057-.1207864-.0365033-.1691009.0365021-.3623592.6570519-.700561 1.3506046-.990448 2.1171634-.0241573.073006-.024158.1825136.0483139.2555196.0483145 0 .1207873-.0365015.1691013-.1095076zm-1.1804493 14.5784824c-.6893703-1.728825-1.0948823-3.5987549-1.0948823-5.5392232 0-2.6814174.7299216-5.2217017 2.0275599-7.4444474.0405512-.0705634 0-.1764102-.0811024-.2469735-.0811024-.0352817-.202756.0000016-.2838584.070565-1.2976383 2.29331-2.0681104 4.8688719-2.0681104 7.6208559 0 1.9757516.4055113 3.8809648 1.0948817 5.6450448.0405512.1058499.1622048.1411332.2433072.1058499.1216535 0 .1622047-.1058499.1622047-.2116715zm-3.961863 1.1761689c-.5540576-1.963417-.865715-4.0749934-.865715-6.2236526 0-.6297742.0346286-1.2595483.0692572-1.8893245 0-.1111365-.0692572-.1852278-.173143-.1852278s-.173143.0740913-.173143.1852278c-.0346287.6297762-.0692562 1.2595503-.0692562 1.9263688 0 2.2227271.3116564 4.3343332.865714 6.3347974.0346286.1111418.1385144.1481891.2077716.1111418.1385144-.0370473.173143-.1481891.1385144-.2593309zm41.2535074-4.4667583c-.1566542 1.1374377-.4308022 2.2432793-.8224375 3.3175314-.0391635.0947908.0391646.1579593.1174917.1895563.1174907.0315969.1958196-.031597.2349832-.0947655.3916355-1.0742573.7049439-2.2116932.8615981-3.380727 0-.0947865-.078324-.157977-.1566511-.1895724-.1174906 0-.1958209.063191-.2349844.1579772zm-.8219681-7.2464797c.5021829 1.7352028.7951189 3.5442421.7951189 5.4271203 0 .4799423.0000033.9968352-.0418452 1.4767776 0 .1107627.083697.1846046.2092424.1846046s.2092423-.0738419.2092423-.1846046c.0418485-.4799424.0418452-.9968353.0418452-1.5136986 0-1.9197991-.292936-3.7288354-.7951176-5.5009582-.0418485-.1107577-.1255491-.1476774-.2510945-.1476774-.1255454.0369191-.20924.1476786-.1673915.2584363zm-10.9059561-13.400883c4.9763626 2.4366752 8.8386092 6.6834678 10.5469106 11.800469.037137.1044337.148548.1392449.2228219.1044337.111411-.0348113.148548-.139245.111411-.2088674-1.7454384-5.1866237-5.644822-9.5030249-10.7325979-12.0093204-.074274-.0348097-.1856837.0000002-.2599577.0696195-.037137.104429.0000011.2088571.1114121.2436656zm-15.8473598-1.180294c2.1187123-.7579224 4.3470174-1.1967208 6.7214347-1.1967208 3.1050072 0 6.0638964.7180331 8.7305496 2.034425.1095885.0398893.1826475 0 .2557065-.0797786.0365295-.1196744 0-.1994562-.073059-.279238-2.7031827-1.3562812-5.7351309-2.0743142-8.8766676-2.0743142-2.3744173 0-4.6757814.4387983-6.831022 1.1967207-.1095885.0398893-.1461192.1595604-.1095897.2393422 0 .1196744.1095885.1994562.1826475.1595637zm-13.3259515 15.4000046c1.0533246-6.9805892 5.6064049-12.7516958 11.7904394-15.4126072.1019346-.034559.1359128-.1382297.1019346-.2419021-.0339782-.1036722-.1359128-.1382307-.2378474-.1036733-6.2859692 2.6954806-10.9409841 8.6047983-11.9943087 15.6890646 0 .103677.0339788.1727951.1359134.2073541s.2038687-.034559.2038687-.1382361z" fill="#ca7929"/><path d="m41.837 30-.088.117.496.495.612-.612-.612-.612-.612.612.116.117.088-.117.116.117.292-.321.204.204-.204.204-.292-.291-.116.087.116.117z" fill="#ca7929"/><path d="m48.9795923 51.4285714c2.0288139 0 3.6734689-1.6446711 3.6734689-3.6734556 0-2.028811-1.644655-3.6734831-3.6734689-3.6734831-2.0288006 0-3.6734699 1.6446721-3.6734699 3.6734831 0 2.0287845 1.6446693 3.6734556 3.6734699 3.6734556z" fill="#362858"/><g fill="#ca7929"><path d="m53.692822 48.3673327h-.1847291c0 1.0714469-.4433497 2.0689693-1.14532 2.7709416-.7019704.7019723-1.6995072 1.1453123-2.7709356 1.1453123s-2.0689652-.44334-2.7709356-1.1453123c-.7019703-.7019723-1.14532-1.6994947-1.14532-2.7709416 0-1.0714173.4433497-2.0689516 1.14532-2.7709209.7019704-.7019693 1.6995072-1.1453211 2.7709356-1.1453211s2.0689652.4433518 2.7709356 1.1453211c.7019703.7019693 1.14532 1.6995036 1.14532 2.7709209h.1847291.184729c0-2.3645165-1.921182-4.2857-4.2857137-4.2857s-4.2857149 1.9211835-4.2857149 4.2857c0 2.3645491 1.9211832 4.2857285 4.2857149 4.2857285s4.2857137-1.9211794 4.2857137-4.2857285z"/><path d="m51.02 47.755v.925h-2.857v-.925h-.408v1.225h3.674v-1.225z"/><path d="m48.9795918 48.9795918h1.642608v-.3961482h-1.642608zm.0298628-.9363696 1.6127452.3961569.0597312-.3961569-1.6127413-.3961598zm.2090636-.9003593 1.4932808.8283271.1493281-.3601437-1.4932808-.82833zm.4181163-.9003622 1.2543558 1.2605059.209057-.2881173-1.2543535-1.2605059zm.8063716-.9363783-.2687905.2521001.9855677 1.5846404.2687881-.2521069z"/><path d="m16.214 15.918-.127.127 1.056 1.098 1.224-1.225-1.224-1.224-1.225 1.224.169.127.127-.127.169.127.76-.76.633.633-.633.634-.76-.803-.169.169.169.127z"/><path d="m27.234 13.469-.126.169 1.055 1.056 1.225-1.225-1.225-1.224-1.224 1.224.169.169.126-.169.169.169.76-.802.634.633-.634.634-.76-.76-.169.126.169.169z"/><path d="m82.336 22.041-.126.169 1.055 1.055 1.225-1.224-1.225-1.225-1.224 1.225.169.169.126-.169.169.169.76-.803.634.634-.634.633-.76-.76-.169.127.169.169z"/><path d="m78.605 27.551-.136.136.511.476.612-.612-.612-.612-.613.612.102.136.136-.136.102.136.273-.272.136.136-.136.136-.273-.272-.102.136.102.136z"/><path d="m90.85 9.184-.102.102.476.51.613-.612-.613-.613-.612.613.136.102.102-.102.136.102.238-.238.137.136-.137.136-.238-.272-.136.136.136.102z"/><path d="m18.663 26.939-.169.169 1.098 1.055 1.224-1.224-1.224-1.225-1.225 1.225.127.169.169-.169.127.169.802-.803.591.634-.591.633-.802-.76-.127.127.127.169z"/><path d="m44.082 6.122h-1.225v1.225h1.225z" transform="matrix(.70710678 -.70710678 .70710678 .70710678 7.969704 32.710568)"/><path d="m59.071 7.347-.127.169 1.056 1.055 1.224-1.224-1.224-1.225-1.224 1.225.168.169.127-.169.169.169.76-.802.633.633-.633.633-.76-.76-.169.127.169.169z"/><path d="m49.275 1.224-.127.169 1.056 1.056 1.225-1.225-1.225-1.224-1.224 1.224.168.169.127-.169.169.169.76-.802.633.633-.633.634-.76-.802-.169.168.169.169z"/><path d="m14.694 40.408v1.225h.612v-1.225"/><path d="m15.306 36.108-.176.074 1.518 5.077h-2.684l1.519-5.077-.177-.074-.176.074.176-.074-.176-.038-1.661 5.563h3.674l-1.837-6.123-.176.56z"/><path d="m14.694 38.064.768 3.569.456-2.099-.24-.105-.216 1.049-.552-2.519z"/><path d="m14.694 39.569.456 2.064.768-3.569-.24-.105-.528 2.519-.24-1.014z"/><path d="m4.898 40.408v1.225h.612v-1.225"/><path d="m6.141 33.642-.182.068 2.141 6.356h-3.955l2.177-6.356-.181-.068-.182.068.182-.068-.182-.034-2.286 6.8h4.898l-2.43-7.347-.182.547z"/><path d="m4.898 36.844 1.558 4.789.891-2.758-.371-.109-.52 1.633-1.187-3.664z"/><path d="m3.673 38.912.905 2.721 1.544-4.789-.376-.109-1.168 3.664-.565-1.596z"/><path d="m11.02 40.408v1.225h.613v-1.225"/><path d="m11.039 31.454-.182.037 2.141 9.776h-3.955l2.177-9.776-.181-.037-.182.037.182-.037-.182-.036-2.286 10.215h4.898l-2.43-11.021-.182.806z"/><path d="m9.796 35.627 1.558 6.006.891-3.315-.318-.117-.573 2.184-1.272-4.875z"/><path d="m8.571 38.201.891 3.432 1.558-6.006-.318-.117-1.24 4.836-.604-2.262z"/><path d="m.18215551 43.4693878h21.67650529c.1092933 0 .1821555-.122448.1821555-.306122 0-.1836735-.0728622-.3061229-.1821555-.3061229h-21.67650529c-.10929331 0-.18215551.1224494-.18215551.3061229 0 .183674.0728622.306122.18215551.306122z"/><path d="m33.81 3.344h-.612v.613h.612z" transform="matrix(.70710678 -.70710678 .70710678 .70710678 7.104698 25.066259)"/><path d="m88.912 22.936h-.612v.612h.612z" transform="matrix(.70690929 -.70730422 .70730422 .70690929 9.402974 69.789825)"/><path d="m77.892 16.814h-.613v.612h.613z" transform="matrix(.70710678 -.70710678 .70710678 .70710678 10.491996 60.181919)"/><path d="m16.673 9.469h-.612v.613h.612z" transform="matrix(.70730422 -.70690929 .70690929 .70730422 -2.252233 14.73448)"/><path d="m24.014 15.589h-.612v.613h.612z" transform="matrix(.70710678 -.70710678 .70710678 .70710678 -4.423006 21.725918)"/><path d="m16.667 22.936h-.612v.612h.612z" transform="matrix(.70690929 -.70730422 .70730422 .70690929 -11.771364 18.690632)"/><path d="m22.79 46.202h-.613v.612h.613z" transform="matrix(.70690929 -.70730422 .70730422 .70690929 -26.432202 29.840211)"/><path d="m75.448 44.98h-.612v.612h.612z" transform="matrix(.70730422 -.70690929 .70690929 .70730422 -10.151802 66.6777)"/><path d="m79.116 48.651h-.612v.612h.612z" transform="matrix(.70710678 -.70710678 .70710678 .70710678 -11.661661 70.372259)"/><path d="m66.871 8.242h-.612v.613h.612z" transform="matrix(.70710678 -.70710678 .70710678 .70710678 13.324632 49.878507)"/><path d="m88.912 14.365h-.612v.612h.612z" transform="matrix(.70710678 -.70710678 .70710678 .70710678 15.451384 67.25694)"/><path d="m19.8979587 11.6326531c.1690665 0 .3061229-.1370549.3061229-.306122s-.1370564-.3061229-.3061229-.3061229-.306122.1370558-.306122.3061229.1370555.306122.306122.306122zm-2.4489796 8.5714285c.1690665 0 .3061229-.1370533.3061229-.3061209 0-.1690672-.1370564-.306124-.3061229-.306124s-.306122.1370568-.306122.306124c0 .1690676.1370555.3061209.306122.3061209zm41.6326532-15.91836731c.1690664 0 .3061228-.13705435.3061228-.30612147 0-.16906713-.1370564-.30612343-.3061228-.30612343-.1690665 0-.3061221.1370563-.3061221.30612343 0 .16906712.1370556.30612147.3061221.30612147zm-15.918367-2.4489796c.1690668 0 .3061225-.13705434.3061225-.30612195 0-.16906713-.1370557-.30612294-.3061225-.30612294s-.3061224.13705581-.3061224.30612294c0 .16906761.1370556.30612195.3061224.30612195zm-4.8979602 6.12244898c.1690663 0 .3061235-.13705434.3061235-.30612196 0-.16906712-.1370572-.30612293-.3061235-.30612293s-.3061214.13705581-.3061214.30612293c0 .16906762.1370551.30612196.3061214.30612196zm45.3061235 1.2244898c.1690667 0 .3061224-.13705484.3061224-.30612196s-.1370557-.30612294-.3061224-.30612294c-.1690668 0-.3061225.13705582-.3061225.30612294s.1370557.30612196.3061225.30612196zm-2.4489796 6.12244893c.1690668 0 .3061224-.1370533.3061224-.3061209 0-.1690672-.1370556-.3061239-.3061224-.3061239s-.3061225.1370567-.3061225.3061239c0 .1690676.1370557.3061209.3061225.3061209zm-2.4489786 4.8979592c.1690673 0 .3061214-.1370543.3061214-.3061219 0-.1690672-.1370541-.306123-.3061214-.306123s-.3061235.1370558-.3061235.306123c0 .1690676.1370562.3061219.3061235.3061219zm13.4693863 3.6734694c.1690665 0 .3061229-.1370543.3061229-.3061219 0-.1690672-.1370564-.306123-.3061229-.306123-.1690664 0-.306122.1370558-.306122.306123 0 .1690676.1370556.3061219.306122.3061219zm-18.3673475 26.9387755c.1690662 0 .3061235-.1370571.3061235-.3061234 0-.1690662-.1370573-.3061215-.3061235-.3061215-.1690663 0-.3061214.1370553-.3061214.3061215 0 .1690663.1370551.3061234.3061214.3061234zm-57.5510194-4.8979592c.1690668 0 .3061224-.1370555.3061224-.3061223s-.1370556-.3061226-.3061224-.3061226-.3061225.1370558-.3061225.3061226.1370557.3061223.3061225.3061223zm69.7959173-17.1428571c.1690663 0 .3061235-.1370534.3061235-.306121 0-.1690671-.1370572-.3061239-.3061235-.3061239-.1690662 0-.3061214.1370568-.3061214.3061239 0 .1690676.1370552.306121.3061214.306121zm-78.36734588 1.2244898c.16906678 0 .30612245-.1370534.30612245-.306121 0-.1690671-.13705567-.3061239-.30612245-.3061239-.16906677 0-.30612244.1370568-.30612244.3061239 0 .1690676.13705567.306121.30612244.306121zm4.89795918-2.4489796c.1690668 0 .3061225-.1370534.3061225-.306121 0-.1690671-.1370557-.3061239-.3061225-.3061239s-.3061224.1370568-.3061224.3061239c0 .1690676.1370556.306121.3061224.306121zm-6.12244897-8.5714286c.16906677 0 .30612245-.1370553.30612245-.3061224 0-.1690676-.13705568-.3061225-.30612245-.3061225-.16906678 0-.30612245.1370549-.30612245.3061225 0 .1690671.13705567.3061224.30612245.3061224zm12.24489747 31.8367347c.1690668 0 .3061229-.1370571.3061229-.3061234 0-.1690662-.1370561-.3061215-.3061229-.3061215s-.306122.1370553-.306122.3061215c0 .1690663.1370552.3061234.306122.3061234zm6.122449-31.8367347c.1690665 0 .3061229-.1370538.3061229-.3061214 0-.1690672-.1370564-.3061235-.3061229-.3061235-.1690666 0-.306122.1370563-.306122.3061235 0 .1690676.1370554.3061214.306122.3061214zm1.2244898-13.46938772c.1690665 0 .3061229-.13705483.3061229-.30612196 0-.16906712-.1370564-.30612294-.3061229-.30612294-.1690666 0-.306122.13705582-.306122.30612294 0 .16906713.1370554.30612196.306122.30612196zm-9.7959174 1.2244898c.1690668 0 .3061219-.13705386.3061219-.30612147 0-.16906713-.1370551-.30612343-.3061219-.30612343s-.306123.1370563-.306123.30612343c0 .16906761.1370562.30612147.306123.30612147zm52.6530597 0c.1690663 0 .3061235-.13705484.3061235-.30612196 0-.16906762-.1370572-.30612294-.3061235-.30612294s-.3061214.13705532-.3061214.30612294c0 .16906712.1370551.30612196.3061214.30612196zm-57.2448969 15.30612242c.3381355 0 .6122449-.2741116.6122449-.6122449 0-.3381332-.2741094-.6122449-.6122449-.6122449-.3381336 0-.6122449.2741117-.6122449.6122449 0 .3381333.2741113.6122449.6122449.6122449zm44.0816332-17.14285712c.3381303 0 .6122443-.27411053.6122443-.61224735 0-.33813142-.274114-.61224244-.6122443-.61224244-.3381342 0-.6122455.27411102-.6122455.61224244 0 .33813682.2741113.61224735.6122455.61224735zm15.9183658 8.57142862c.3381361 0 .6122459-.2741117.6122459-.6122449 0-.3381338-.2741098-.6122449-.6122459-.6122449-.3381321 0-.6122439.2741111-.6122439.6122449 0 .3381332.2741118.6122449.6122439.6122449z"/><path d="m53.878 29.388h-1.225v1.224h1.225z" transform="matrix(.70710678 -.70710678 .70710678 .70710678 -5.612246 46.450839)"/><path d="m91.8367347 27.0452534v1.011536c0 .053239.1530525.1064759.3061095.1064759s.3061354-.0532369.3061354-.1064759v-1.011536c0-.0532387-.1530784-.1064779-.3061354-.1064779-.2295855 0-.3061095.0532392-.3061095.1064779z"/><path d="m92.3817235 27.2678982-.269028-.2760052c-.0448374-.0460012-.1793496-.0920021-.224187 0-.0448375.0460009-.0896748.1840038 0 .2300047l.2690273.2760056c.0448381.0459994.1793503.0920025.2241877 0 .0896748-.0460031.0896748-.1380019 0-.2300051z"/><path d="m93.015086 27.7921876-.7997268-.7837931c-.0615179-.0602919-.2460717-.1205836-.3075897 0-.061518.1205831-.1230359.2411667 0 .3014582l.7997268.7837926c.061518.0602945.2460718.1205841.3075897 0 .061518-.1205841.061518-.1808737 0-.3014577z"/><path d="m92.2078152 28.0743391.7837899-.7706897c.0602922-.0592837.1205844-.2371351 0-.2964187-.0602922-.059284-.2411688-.1185678-.301461 0l-.7837899.7706902c-.0602924.0592865-.1205844.2371365 0 .2964182.0602922.1185683.1808766.1185683.301461 0zm-.0879605-.5589.276008-.2846642c.0460006-.0474432.0920012-.1897732 0-.2372165-.0460006-.0474434-.1840024-.0948868-.2300049 0l-.2760061.2846628c-.0460008.0474436-.0920012.1897724 0 .2372179.0460006.0474417.1840024.0474417.230003 0zm-1.4582141.9405803 1.0136733.9128287c.059628.0456437.119256.0000037.14907-.0456399.0298139-.04564.0000071-.1825635-.0298069-.2282071l-1.0136776-.9128303c-.059628-.0456415-.119256-.0000007-.14907.0456408-.029814.0456417-.0298167.182566.0298112.2282078z"/><path d="m91.0331619 28.1632653-.306119.122447c-.0765312.0612242-.114798.1836726-.114798.3061214.0382656.1224494.1147968.1836765.1913279.1836765l.3061264-.1224533c.0765311-.0612242.1147906-.1836725.1147906-.3061214s-.1147967-.1836702-.1913279-.1836702z"/><path d="m91.6012549 28.1755408-.8477205.230757c-.094192.0461513-.1412895.1384524-.1412895.2307556 0 .0923033.141288.1384568.2354799.1384568l.8477295-.2307563c.094192-.046152.1412804-.1384546.1412804-.2307575s-.1412879-.184607-.2354798-.1384556zm-.3939322-.2477566-.228877-.8477205c-.0457758-.0941913-.1373274-.1412882-.228879-.1412882-.0915515.0470954-.1373218.1412867-.1373218.2354781l.2288789.8477223c.0457758.0941917.1373273.1412894.2288789.1412894.1373274-.0470977.1830958-.1412894.13732-.2354811z"/><path d="m91.208626 27.3596945-.1192736-.3061219c-.0596382-.0765307-.1789147-.1147971-.2981911-.1147971s-.1789164.1147959-.1789164.1913266l.1192839.3061233c.0596382.076531.1789147.114795.2981911.114795.1192774 0 .2385443-.114798.1789061-.1913259zm-.4326815 2.0086069 1.0128478-.8923818c.0578768-.0469672.0578699-.1409021.0289315-.2348366-.0289384-.0939348-.0868152-.0939341-.144692-.0469667l-1.012839.8923793c-.0578769.0469695-.0578787.1409048-.0289403.2348363 0 .0469695.0868152.0939352.144692.0469695zm-.0319663.1404072-.1162711.2962689c-.058132.0740683.0581335.1481367.1743975.1851723.116264.0370327.232528-.0370327.2906581-.111101l.116264-.2962734c.058132-.074068-.0581227-.1481358-.1743886-.1851699-.1162639-.0370339-.2325279.037035-.2906599.1111031z"/><path d="m90.8505032 29.5384867-.2262234.8307259c-.0452446.0923036.0452393.1846071.1357286.2307571.0904894.0461499.1809787-.04615.226223-.1384535l.2262233-.8307278c.0452447-.0923032-.0452374-.1846064-.1357268-.2307577-.0904893-.0461516-.2262247.0461528-.2262247.138456z"/><path d="m91.6860107 29.6260106-.8307321-.2262213c-.0923033-.0452442-.1846066.0452455-.2307581.1357341-.0461517.0904886.0461529.1809768.1384563.2262224l.8307232.2262206c.0923033.0452427.1846067-.0452463.2307583-.1357352.0461517-.1357324-.0461442-.2262206-.1384476-.2262206z"/><path d="m91.1115764 29.5194796-.3011209-.116262c-.0752796-.0581319-.1505593.0581294-.188199.1743929-.0376398.1162639.037641.2325274.1129206.2906591l.3011136.1162691c.0752797.0581299.1505593-.0581345.1881991-.1743999 0-.1162635-.0376338-.2325274-.1129134-.2906592zm1.3373938.9862893v-1.011536c0-.0532386-.1530563-.1064778-.3061175-.1064778s-.306118.0532392-.306118.1064778v1.011536c0 .0532391.1530568.106476.306118.106476s.3061175-.0266163.3061175-.106476z"/><path d="m91.9039908 30.8953671.2690276.2760056c.0448375.0459994.1793499.0920025.2241873 0 .0448375-.0460031.089675-.184005 0-.2300051l-.2690276-.2760052c-.0448375-.0460012-.1793499-.0920021-.2241873 0-.0896748.0460008-.0896748.1380026 0 .2300047zm.0216685-1.1365335.7706949.7837911c.0592832.0602946.2371328.1205844.296416 0 .0592831-.0602898.1185663-.2411689 0-.3014587l-.7706949-.783792c-.0592832-.0602917-.2371328-.1205835-.296416 0-.1185662.0602922-.1185662.2411679 0 .3014596z"/><path d="m92.6901445 29.4766809-.7837905.7706904c-.060292.0592818-.1205842.2371322 0 .2964188.0602922.0592819.2411685.1185685.3014607 0l.7837904-.7706895c.0602922-.0592842.1205843-.2371355 0-.2964197-.0602921-.1185677-.2411685-.1185677-.3014606 0zm-.5242855 1.2028208-.2760073.2690257c-.0460006.0448388-.0920014.1793511 0 .2241873.0460007.0448399.1840029.0896761.2300036 0l.2760072-.2690242c.0460008-.0448377.0920015-.1793511 0-.2241888-.0460007-.0896757-.1840028-.0896757-.2300035 0zm.8336998-1.5845018-1.0030907-.9128291c-.0590054-.0456415-.1180107-.0000007-.1475134.0456408-.0295027.0912831.0000019.1825659.0295045.2282077l1.0030889.9128312c.0590054.0456399.1180107 0 .1475134-.0456436.0590054-.0912798.0295027-.1825634-.0295027-.228207zm.2529914.9050001.3061298-.122446c.0765304-.0612245.1147894-.183674.1147894-.306123-.0382652-.1224494-.1147955-.1836759-.1913258-.1836759l-.3061167.1224475c-.0765303.0612245-.1148024.183674-.1148024.306123.038265.122447.1147954.1836744.1913257.1836744z"/><path d="m93.2967026 29.982835.8477135-.2288765c.0941913-.0457751.1412982-.1373258.1412982-.2288761-.0470956-.0915507-.1412869-.1373273-.2354781-.1373273l-.8477305.2288765c-.0941912.0457751-.1412812.1373254-.1412812.228875.0470956.1373284.1412868.1831021.2354781.1373284z"/><path d="m93.0612245 29.6232341.2354817.8477246c.0470963.0941921.141289.1412862.2354817.1412862s.1412815-.1412862.1412815-.2354782l-.2354798-.8477228c-.0470964-.0941917-.1412891-.1412888-.2354817-.1412888-.0941927 0-.1412834.1412873-.1412834.235479z"/><path d="m93.0833548 29.5790812.1180295.3061241c.0590113.0765277.1770337.1147947.2950561.1147947.1180225-.0382639.177029-.1147947.177029-.1913256l-.1180319-.3061225c-.0590112-.0765305-.1770337-.1147968-.2950561-.1147968-.1770338.0382651-.2360378.1147956-.1770266.1913261zm-.1858296-1.3863685-1.0128427.8966111c-.0578768.0448326-.0578785.1344943-.0289402.2241561.0289383.0896581.0868151.0896581.1446918.044829l1.0128423-.8966133c.0578767-.0448305.057879-.1344918.0289407-.2241528-.0289384-.0896614-.0868152-.0896607-.1446919-.0448301zm.6442085-.75461.116273-.301118c.0581318-.0752791-.0581272-.150558-.1743891-.1881977-.1162637-.0376395-.2325274.0376406-.2906592.1129198l-.116271.3011134c-.0581319.0752795.0581247.150559.1743884.1882002.1162637 0 .2325274-.0376382.2906579-.1129177z"/><path d="m93.4352106 28.0234066.2262237-.8391379c.0452447-.0932375-.0452375-.1864746-.135727-.2330934-.0904894-.0466186-.1809796.0466199-.2262243.1398574l-.2262235.8391361c-.0452448.0932378.0452391.1864757.1357286.2330965.0904894 0 .1809789-.0466208.2262225-.1398587z"/><path d="m93.2010751 28.5372557.8391466.2262209c.0932374.0452427.1864749-.0452463.2330936-.1357354.0466188-.0904891-.0466299-.180976-.1398674-.2262201l-.8391297-.2262215c-.0932375-.0452443-.186475.0452455-.2330937.1357342 0 .0904883.0466131.1809771.1398506.2262219z"/><path d="m93.1741383 28.6437798.3011231.1162691c.0752789.0581299.1505578-.0581345.1881972-.1743999.0376395-.1162635-.0376485-.2325274-.1129274-.2906591l-.3011095-.1162621c-.0752789-.0581319-.1505578.0581294-.1881972.1743929 0 .1162639.0376349.2325274.1129138.2906591zm-.7251485-.2845954v-.1959191c-.3571461 0-.6122551.2448966-.6122551.5877536h.204079-.204079c0 .1469376.0510144.2938792.1530556.4408168.1020412.0979597.2551172.1959194.4591995.1959194.357144 0 .6122347-.2449012.6122347-.5877583h-.1020289.1020289-.1020289.1020289c0-.1469376-.0510124-.2938736-.1530536-.4408124l-.0510246-.0489826.0510246.0489826c-.1020411-.0979593-.2550988-.1959191-.4591811-.1959191v.1959191-.1959191.1959191.1959155c.0510206 0 .102033.0489814.1530536.0489814.0510205.0489818.0510246.0979597.0510246.1469376h.1020289-.1020289.1020289-.1020289.2040783-.2040783c0 .1469376-.1020411.2448973-.2551029.2448973v.1959195-.1959195c-.0510205 0-.1020534-.0489779-.1530719-.0489779-.0510206-.0489818-.0510083-.0979597-.0510083-.1469415h-.1020473.1020473-.1020473.1020473c0-.1469376.1020432-.2448969.2551049-.2448969v-.1959155.1959155zm-69.4063183-22.8489782h-.2226347c0 .11131809-.1113173.1669749-.166976.1669749-.1113173 0-.1669778-.11131808-.1669778-.1669749 0-.11131808.1113191-.16697757.1669778-.16697757.1113173 0 .166976.1113163.166976.16697757h.2226347.2226346c0-.3339538-.2782933-.61224702-.6122453-.61224702s-.6122445.27829322-.6122445.61224702c0 .3339498.2782925.61224278.6122445.61224278s.6122453-.27829298.6122453-.61224278z"/><path d="m23.265 4.898v2.449h.613v-2.449"/><path d="m21.574344 6.35568478-.1166181.17492808c.0583091.05830889.1166181.11661825.1166181.17492528v.11661872c-.058309.0583117-.1166181.11661872-.1749271.11661872h-.1166185c-.0583091-.05830702-.1166186-.11661872-.1166186-.17492574v-.11661873c.0583091-.05830982.116619-.11661825.1749281-.11661825h.116618l.1166181-.17492808.1166181-.17492668c-.1166181-.0583089-.2332362-.05830912-.2915452-.05830912-.2332361 0-.4081642.11661801-.5247823.29154516-.058309.11661825-.0583081.23323697-.0583081.291544 0 .23323744.1166181.40816319.2915452.58309361.1166181.05830703.2332362.05830703.2915452.05830703.2332362 0 .4081633-.11661873.5830904-.29154447.058309-.11661873.058309-.23323745.058309-.29154447 0-.23323745-.116618-.4081646-.2915452-.58309174zm3.7317784 0-.116618.17492808c.058309.05830889.116618.11661825.116618.17492528v.11661872c-.058309.0583117-.116618.11661872-.1749271.11661872h-.116618c-.0583091-.05830702-.11662-.11661872-.11662-.17492574v-.11661873c.0583091-.05830982.11662-.11661825.174929-.11661825h.1166181l.116618-.17492808.1166181-.17492668c-.1166181-.0583089-.2332361-.05830912-.2915452-.05830912-.233237 0-.4081642.11661801-.5830913.29154516-.058309.11661825-.0583081.23323697-.0583081.291544 0 .23323744.1166181.40816319.2915452.58309361.1166181.05830703.2332362.05830703.2915452.05830703.2332361 0 .4081633-.11661873.5830904-.29154447.058309-.11661873.058309-.23323745.058309-.29154447 0-.23323745-.1166181-.40816413-.2915452-.52478238z"/><path d="m20.816 6.354 2.271.993.178-.232-2.271-.993"/><path d="m22.629 7.309-.098-.536.538.344.196-.229-1.224-.766.245 1.225z"/><path d="m21.2244883 8.80466548.1166191.17492665h.1166181c.0583091 0 .1166182.05830935.1749273.1166187v.1166187c0 .05830702-.0583091.1166187-.1166182.17492572h-.1166182c-.058309 0-.116619-.05830702-.1749281-.1166187v-.1166187c0-.05830702.0583095-.11661683.1166191-.17492572l-.1166191-.17492665-.1166163-.17492758c-.2332363.11661777-.2915455.34985423-.2915455.58309163 0 .1166187-.0000009.23323274.0583082.29154442.1166182.2332374.3498545.29154442.5830908.29154442.1166182 0 .2332363 0 .2915454-.05830702.2332363-.1166187.2915454-.3498561.2915454-.5830935 0-.1166173 0-.23323507-.0583091-.29154395-.1166181-.23323647-.3498544-.29154533-.5830908-.29154533-.1166181 0-.2332353.00000022-.2915444.05830933z"/><path d="m20.994 8.571 2.271-1.02-.178-.204-2.271.986"/><path d="m22.041 8.214-.459-.255.459-.255-.077-.357-1.148.612 1.148.612z"/><path d="m22.2634519 10.4081656h.2226311c0-.111318.1113191-.1669771.1669778-.1669771.1113173 0 .166976.1113158.166976.1669771 0 .111318-.1113173.1669748-.166976.1669748-.1113173 0-.1669778-.111318-.1669778-.1669748h-.2226311-.2226356c0 .3339497.2782925.6122426.6122445.6122426s.6122453-.2782929.6122453-.6122426c0-.3339537-.2782933-.61224723-.6122453-.61224723s-.6122445.27829353-.6122445.61224723z"/><path d="m23.878 9.796v-2.449h-.613v2.449"/><path d="m23.069 7.584-.538.316.098-.514-.343-.039-.245 1.224 1.224-.79z"/><path d="m24.8979573 9.55101947.11662-.18367171c-.0583091-.06122718-.11662-.12244945-.11662-.18367662v-.122447c.0583091-.06122423.11662-.12244896.174929-.12244896h.1166181c.058309.06122424.116618.12244798.116618.18367368v.12244945c-.058309.06122227-.116618.12244945-.1749271.12244945h-.116618l-.11662.18367171-.1166162.18367172c.1166181.06122228.2332362.06122718.2915452.06122718.2332361 0 .4081633-.12244945.5830904-.30612607.058309-.12244454.058309-.24489399.058309-.30612116 0-.24489645-.1166181-.42856915-.2915452-.5510181-.1166181-.06122424-.2332361-.06122447-.2915452-.06122447-.233237 0-.4081642.1224487-.5830913.30612189-.058309.12244896-.0583081.2448984-.0583081.30612068 0 .24489889.1166181.42857061.2915452.61224723z"/><path d="m25.714 8.333-2.271-.986-.178.204 2.316 1.02"/><path d="m23.902 7.386.098.514-.49-.316-.245.197 1.225.79-.196-1.224z"/><path d="m25.581 6.122-2.316.987.178.238 2.271-1.02"/><path d="m24.294 7.347.196-1.225-1.225.766.245.229.49-.344-.098.536z"/><path d="m23.265 7.704.446.255-.446.255.112.357 1.113-.612-1.113-.612z"/><path d="m83.265 40.408v2.449h.613v-2.449"/><path d="m83.246 34.913-.196-.073-2.234 6.793h4.898l-2.468-7.347-.196.554.196.073-.196.037 2.155 6.313h-3.879l2.116-6.313-.196-.037-.196.037z"/><path d="m84.128 36.735-1.204 3.605-.482-1.568-.401.118.883 2.743 1.566-4.781z"/><path d="m84.088 38.772-.481 1.568-1.165-3.605-.401.117 1.566 4.781.883-2.704z"/><path d="m93.061 40.408v2.449h.612v-2.449"/><path d="m93.022 34.913-.194-.073-2.216 6.793h4.898l-2.488-7.347-.194.554.194.073-.194.037 2.138 6.313h-3.848l2.099-6.313-.195-.037-.194.037z"/><path d="m93.924 36.735-1.204 3.605-.482-1.568-.401.118.883 2.743 1.566-4.781z"/><path d="m93.918 38.772-.53 1.568-1.184-3.605-.367.117 1.551 4.781.898-2.704z"/><path d="m88.163 40.408v2.449h.613v-2.449"/><path d="m88.146 30.175-.169-.034-2.263 10.267h4.898l-2.466-11.02-.169.753.169.034-.169.034 2.196 9.857h-4.02l2.162-9.857-.169-.034-.169.034z"/><path d="m89.093 34.286-1.299 4.963-.56-2.21-.295.109.855 3.26 1.594-6.014z"/><path d="m89.093 36.858-.59 2.355-1.269-4.927-.295.108 1.564 6.014.885-3.441z"/><path d="m77.3250126 43.4693878h21.6765054c.1092933 0 .1821555-.122448.1821555-.306122 0-.1836735-.0728622-.3061229-.1821555-.3061229h-21.6765054c-.1092933 0-.1821555.1224494-.1821555.3061229 0 .183674.0728622.306122.1821555.306122z"/><path d="m24.014 53.549h-.612v.612h.612z" transform="matrix(.70710678 -.70710678 .70710678 .70710678 -31.263366 32.843559)"/><path d="m22.79 53.549h-.613v.612h.613z" transform="matrix(.70710678 -.70710678 .70710678 .70710678 -31.621867 31.97806)"/><path d="m22.79 53.549h-.613v.612h.613z" transform="matrix(.70710678 -.70710678 .70710678 .70710678 -31.621867 31.97806)"/><path d="m27.688 53.549h-.613v.612h.613z" transform="matrix(.70710678 -.70710678 .70710678 .70710678 -30.187276 35.441469)"/><path d="m26.469 53.551h-.613v.612h.613z" transform="matrix(.70730422 -.70690929 .70690929 .70730422 -30.546961 34.561979)"/><path d="m25.244 53.551h-.612v.612h.612z" transform="matrix(.70730422 -.70690929 .70690929 .70730422 -30.905221 33.696722)"/><path d="m31.367 53.551h-.613v.612h.613z" transform="matrix(.70730422 -.70690929 .70690929 .70730422 -29.113337 38.02442)"/><path d="m30.137 53.549h-.613v.612h.613z" transform="matrix(.70710678 -.70710678 .70710678 .70710678 -29.46998 37.173174)"/><path d="m28.912 53.549h-.612v.612h.612z" transform="matrix(.70710678 -.70710678 .70710678 .70710678 -29.828775 36.306968)"/><path d="m31.367 53.551h-.613v.612h.613z" transform="matrix(.70730422 -.70690929 .70690929 .70730422 -29.113337 38.02442)"/><path d="m47.28 58.446h-.613v.613h.613z" transform="matrix(.70690929 -.70730422 .70730422 .70690929 -27.915351 50.750987)"/><path d="m46.055 58.447h-.612v.612h.612z" transform="matrix(.70710678 -.70710678 .70710678 .70710678 -28.271822 49.863783)"/><path d="m44.83 58.447h-.612v.612h.612z" transform="matrix(.70710678 -.70710678 .70710678 .70710678 -28.630616 48.997578)"/><path d="m50.953 58.447h-.612v.612h.612z" transform="matrix(.70710678 -.70710678 .70710678 .70710678 -26.837231 53.327192)"/><path d="m49.728 58.447h-.612v.612h.612z" transform="matrix(.70710678 -.70710678 .70710678 .70710678 -27.196025 52.460987)"/><path d="m48.504 58.446h-.612v.613h.612z" transform="matrix(.70690929 -.70730422 .70730422 .70690929 -27.556608 51.616728)"/><path d="m53.402 58.446h-.612v.613h.612z" transform="matrix(.70690929 -.70730422 .70730422 .70690929 -26.12105 55.081104)"/><path d="m52.177 58.446h-.612v.613h.612z" transform="matrix(.70690929 -.70730422 .70730422 .70690929 -26.480086 54.214656)"/><path d="m52.177 58.447h-.612v.612h.612z" transform="matrix(.70710678 -.70710678 .70710678 .70710678 -26.47873 54.192691)"/><path d="m54.626 58.446h-.612v.613h.612z" transform="matrix(.70690929 -.70730422 .70730422 .70690929 -25.762307 55.946844)"/><path d="m70.55 53.551h-.612v.612h.612z" transform="matrix(.70730422 -.70690929 .70690929 .70730422 -17.644345 65.723954)"/><path d="m70.55 53.551h-.612v.612h.612z" transform="matrix(.70730422 -.70690929 .70690929 .70730422 -17.644345 65.723954)"/><path d="m69.326 53.551h-.612v.612h.612z" transform="matrix(.70730422 -.70690929 .70690929 .70730422 -18.002898 64.85799)"/><path d="m74.224 53.551h-.612v.612h.612z" transform="matrix(.70730422 -.70690929 .70690929 .70730422 -16.569274 68.320432)"/><path d="m72.994 53.549h-.613v.612h.613z" transform="matrix(.70710678 -.70710678 .70710678 .70710678 -16.917456 67.477649)"/><path d="m71.769 53.549h-.612v.612h.612z" transform="matrix(.70710678 -.70710678 .70710678 .70710678 -17.275957 66.61215)"/><path d="m77.892 53.549h-.613v.612h.613z" transform="matrix(.70710678 -.70710678 .70710678 .70710678 -15.482865 70.941058)"/><path d="m76.673 53.551h-.612v.612h.612z" transform="matrix(.70730422 -.70690929 .70690929 .70730422 -15.852462 70.051653)"/><path d="m75.448 53.551h-.612v.612h.612z" transform="matrix(.70730422 -.70690929 .70690929 .70730422 -16.210721 69.186396)"/><path d="m68.101 53.551h-.612v.612h.612z" transform="matrix(.70730422 -.70690929 .70690929 .70730422 -18.361157 63.992733)"/><path d="m55.2226913 26.0539335c1.8253308 1.1060758 3.3332221 2.6466823 4.4046117 4.4638046.0396811.079009.1587244.1185135.2777677.079009.0793622-.0395045.1190433-.1580181.0793622-.2765316-1.1110707-1.8961187-2.6983242-3.4762297-4.5633358-4.5823047-.0793625-.0395027-.1984049-.0395009-.2777671.0790073-.0793622.0395026-.0396821.1975128.0793613.2370154zm-2.4874406-1.1040044c.3271454.1986343.6542933.4469253.9562741.7448769.0503302.0496566.1258234-.000004.1761535-.0993212.0251651-.1489738.000002-.248291-.0503281-.3476042-.3271459-.2979515-.6542918-.5462429-1.0066035-.7448761-.0754952-.0496583-.125827.0496562-.150992.1489726-.025165.148975.0251658.297952.075496.297952z"/><path d="m45.592 28.163-.123.123 1.062 1.102 1.224-1.225-1.224-1.224-1.225 1.224.163.123.123-.123.163.123.776-.776.653.653-.653.653-.776-.816-.163.163.163.123z"/><path d="m61.1725583 41.334866-11.7365155-11.9471109-11.4249277 11.5266659c-.0692419.0700742-.0692419.1751854 0 .2452596.069242.0700741.1731066.0700741.2423481 0l11.1825796-11.2814283 11.4941686 11.7018451c.069242.0700742.1731049.0700742.2423469 0 .069242-.035037.069242-.1751853 0-.2452314z"/><path d="m56.6153276 37.0865543 1.0781667-1.0509001 4.4281847 4.3162083c.0770119.0750677.1925298.0750677.2695417 0 .0770119-.0750678.0770119-.1876694 0-.2627371l-4.6592235-4.5789213-1.3477077 1.3136252c-.0770118.0750647-.0770118.1876603 0 .262725.0385059.0750648.1925322.0750648.2310381 0zm-19.5954786.8247643 4.6295779-4.4033751 2.1470506 1.9783327c.0670953.0638175.1677383.0638175.2348337 0 .0670953-.0638175.0670953-.1595451 0-.2233626l-2.3818843-2.2016891-4.8644115 4.6267494c-.0670954.0638201-.0670954.1595247 0 .2233447.0670953.0638201.1677372.0638201.2348336 0zm14.117585-6.0221058-4.5554446 4.548112c-.0685029.0699741-.0685029.1749353 0 .2449095.068503.0699461.1712563.0699461.2397603 0l4.5554445-4.5481235c.068503-.0699716.068503-.1749269 0-.244898-.0685029-.0699708-.1712573-.0699708-.2397602 0zm-1.2251701-1.2249848-3.3301544 3.3269224c-.068663.0693141-.068663.1732851 0 .2425992.068663.0692863.1716564.0692863.2403194 0l3.3301555-3.326935c.068663-.0693104.068663-.1732756 0-.2425866-.068663-.0693108-.1716575-.0693108-.2403205 0zm2.4496598 2.4494744-4.5554444 4.5480924c-.068503.0699738-.068503.1749346 0 .2449085.0685029.0699738.1712562.0699738.2397592 0l4.5554455-4.5481049c.068503-.0699703.068503-.1749252 0-.244896-.0685029-.0699706-.1712573-.0699706-.2397603 0z"/><path d="m39.4810491 37.9327547 3.3236156-3.3475231c.0699709-.0704752.0699709-.1761879 0-.2466617-.0699708-.0704741-.1749271-.0704741-.244898 0l-3.3236151 3.3475146c-.0699709.0704772-.0699709.176193 0 .2466702.0699709.0352386.1749261.0352386.2448975 0zm18.3177826-.0194896.9329468-.9183647c.0583089-.0612256.0583089-.1530638 0-.2142881-.0583088-.0612246-.1457768-.0612246-.2040857 0l-.9329408.9183672c-.0583088.0612248-.0583088.1530632 0 .2142856.0583089.0612248.1457713.0612248.2040797 0zm-9.9915002-7.0036461 6.9987425 6.9970842c.0696393.069974.1740981.069974.2437374 0 .0696392-.0699739.0696392-.1749348 0-.2449087l-6.9987437-6.9970716c-.0696392-.0699707-.1740969-.0699707-.2437362 0-.0696393.0699708-.0696393.1749258 0 .2448961zm-1.2234806 1.2288018 6.9920142 6.9920116c.0709849.0709881.1774623.0709881.2484472 0 .0709849-.070988.0709849-.1774701 0-.2484582l-6.9920142-6.9920008c-.070986-.0709849-.1774623-.0709849-.2484472 0-.0709849.0709846-.0709849.1774636 0 .2484474zm1.2202306 3.6493335 2.1224444 2.1224495c.065306.0653065.1632702.0653065.2285762 0s.065306-.1632649 0-.2285714l-2.1224449-2.1224488c-.0653066-.065306-.1632697-.065306-.2285757 0-.0653059.0653063-.0653059.1632644 0 .2285707z"/><path d="m40.4578047 34.5670188 2.1180364 2.1180333c.0661887.066189.1654716.066189.2316603 0 .0661886-.0661864.0661886-.1654686 0-.2316577l-2.1180364-2.1180385c-.0661897-.0661888-.1654716-.0661888-.2316603 0-.0661886.0661885-.0661886.1654731 0 .2316629zm1.1245269 3.1070094-2.1135025-2.1135027c-.0670943-.0670952-.1677388-.0670952-.2348342 0-.0670953.0670955-.0670953.1677375 0 .2348329l2.1135031 2.1135035c.0670953.0670957.1677383.0670957.2348336 0 .0670953-.0670931.0670953-.167738 0-.2348337z"/></g></g><g transform="translate(13 69)"><rect fill="#fff" height="18" rx="2" width="56"/><text fill="#07c" font-family="ArialMT, Arial" font-size="8"><tspan x="7.447" y="12">It’s A Button</tspan></text></g><text fill="#fff" font-family="ArialMT, Arial" font-size="7"><tspan x="13" y="52">The excerpt or slogan of the </tspan><tspan x="13" y="60">email announcement goes here.</tspan></text><text fill="#fff" font-family="Arial-BoldMT, Arial" font-size="11" font-weight="bold"><tspan x="13" y="42">Announcement</tspan></text><g fill-rule="nonzero" transform="translate(13 5)"><path d="m9.455 11.818v-3.545h1.181v4.727h-10.636v-4.727h1.182v3.545z" fill="#c1bebc"/><path d="m2.36363636 10.6363636h5.90909091v-1.18181815h-5.90909091zm5.15495424-10.6363636-.93071875.69225 3.46124995 4.6531875.9307188-.69225zm-2.87665623 2.74340625 4.45615623 3.7115.742625-.8913125-4.45656247-3.7115zm-1.45478124 2.57928125 5.25728122 2.44846875.48953125-1.05178125-5.25728122-2.4480625zm-.75075 2.71740625 5.85421299.98706689.07754239-.98648348-5.69328663-1.13564591z" fill="#f48024"/><path d="m18.4704415 6.80528748.6147238-.61472383h-1.258945v-1.49453016h-.6650659v4.71917555c0 .67450506.3881845 1.21922196 1.163767 1.21922196h.4711703v-.572641h-.3508213c-.4251545 0-.6190501-.24935058-.6190501-.66506594v-2.59143658zm34.6975804 2.40344043v-5.15416248h-1.1810721v5.22692249c0 .67253856.408636 1.35412298 1.3808671 1.35412298h.6721453v-.99976202h-.4542585c-.2996926 0-.4176818-.14512674-.4176818-.42712097zm10.6524385-3.30723788-.7633906 2.9257394-.9722311-2.9257394h-.8632876l-.9631856 2.9257394-.7629969-2.9257394h-1.2538322l1.4536272 4.73412087h.9722312l.9903229-2.97136189.9903228 2.97136189h.9722312l1.4445816-4.73412087zm-7.0341242 3.51647209c-.1364742.1360809-.3181776.20884092-.5545494.20884092-.2359784 0-.408636-.07276002-.5451102-.20884092-.2454175-.24541758-.2725551-.66349271-.2725551-1.15393457 0-.49083516.0271376-.89947116.2725551-1.14488874.1364742-.1360809.3091318-.20884092.5451102-.20884092.2363718 0 .4180752.07276002.5545494.20884092.2450243.24541758.2725551.65405358.2725551 1.14488874 0 .49044186-.0275308.90851699-.2725551 1.15393457zm-.5545494-3.57074713c-.699676 0-1.1720262.27255512-1.462673.58129358-.427121.44521266-.5360644.98127702-.5360644 1.83551898 0 .86328779.1089434 1.39935215.5360644 1.84456485.2906468.3087384.762997.5812935 1.462673.5812935.6996761 0 1.1810721-.2725551 1.4721122-.5812935.427121-.4452127.5360643-.98127706.5360643-1.84456485 0-.85424196-.1089433-1.39030632-.5360643-1.83551898-.2910401-.30873846-.7724361-.58129358-1.4721122-.58129358zm-7.1598308-.4389199v5.22220291h1.1814653v-3.73239233h.8723337v-.89947118h-.8723337v-.51757938c0-.2729484.1360809-.42712098.4176819-.42712098h.4546518v-.9993687h-.6725386c-.9631853 0-1.3812604.6811911-1.3812604 1.35372966zm-2.4307263.94745346v-.45425852h-1.1539346v4.73412087h1.1810721v-2.85297937c0-.59977854.3999835-.87233364.7633903-.87233364.2906468 0 .4412797.09635786.6233764.27806126l.893965-.89593148c-.3272235-.32722346-.6544469-.44521268-1.1177513-.44521268-.5085335 0-.9631853.23597847-1.1901179.50853356zm-4.7042302 1.47211218c.0086525-.20923422.0361833-.33626928.1089434-.50892684.127035-.28160094.3905443-.49044186.7905277-.49044186.3995902 0 .6630995.20884092.7905278.49044186.0723667.17265756.0998976.29969262.1089434.50892684zm.8994711-1.98064574c-1.2266946 0-2.0628448.87233366-2.0628448 2.41681256 0 1.91732485 1.0721287 2.42585835 2.1898799 2.42585835.854242 0 1.3175463-.2635092 1.7989423-.74490526l-.7177677-.69967608c-.2996927.29969262-.5541561.44521266-1.0721288.44521266-.6630994 0-1.035552-.44521266-1.035552-1.05403703h2.9619227v-.52701852c0-1.29906132-.7452986-2.26224668-2.0624516-2.26224668zm-3.254536.05427504-.9537462 2.9257394-.9631853-2.9257394h-1.2447863l1.7446673 4.73412087h.9266087l1.7352281-4.73412087zm-4.5988265 3.51647209c-.1364742.1360809-.3181776.20884092-.554156.20884092-.2363718 0-.4090293-.07276002-.5451102-.20884092-.2454176-.24541758-.2729484-.66349271-.2729484-1.15393457 0-.49083516.0275308-.89947116.2729484-1.14488874.1360809-.1360809.3087384-.20884092.5451102-.20884092.2359784 0 .4176818.07276002.554156.20884092.2454176.24541758.2725551.65405358.2725551 1.14488874 0 .49044186-.0271375.90851699-.2725551 1.15393457zm-.554156-3.57074713c-.6996761 0-1.1720263.27255512-1.4630664.58129358-.4267276.44521266-.5360643.98127702-.5360643 1.83551898 0 .86328779.1093367 1.39935215.5360643 1.84456485.2910401.3087384.7633903.5812935 1.4630664.5812935.6992828 0 1.1810721-.2725551 1.4717189-.5812935.4271209-.4452127.5360643-.98127706.5360643-1.84456485 0-.85424196-.1089434-1.39030632-.5360643-1.83551898-.2906468-.30873846-.7724361-.58129358-1.4717189-.58129358zm-3.1243546.23637176h-.8290709l-2.0604851 2.00621005.0031464-4.0312984h-.6646726v6.5759326h.6646726l-.0031464-1.65853516.806653-.80940605 1.5240274 2.46794121h.8219916l-1.8854678-2.92849247zm-5.6953396.54275042c.433807 0 .7020358.12900154 1.043418.50774694 0 0 .4452126-.43262714.4416729-.43656011-.4664507-.49870111-.8621079-.66231283-1.4850909-.66231283-1.1452821 0-2.0136827.77558248-2.0136827 2.32714073s.8684006 2.327534 2.0136827 2.327534c.6280959 0 1.024933-.1663648 1.4961033-.6741117l-.4526853-.43420036c-.3413822.3787454-.609611.51718606-1.043418.51718606-.4436395 0-.8129458-.17541062-1.0528572-.51718606-.2127739-.29536635-.2957596-.64658093-.2957596-1.21922194 0-.57224772.0829857-.9234623.2957596-1.21882865.2399114-.34216874.6092177-.51718608 1.0528572-.51718608zm-3.2694813 2.40108063c0 .3787454-.07394.63753509-.2308656.78502162-.2863205.27727468-.628096.30480548-1.0162805.30480548-.7201275 0-1.043418-.24935055-1.043418-.77597577 0-.52623192.3323363-.80311329 1.0158872-.80311329h1.2746769zm-1.1547212-2.99220663c-.7287801 0-1.1881515.14355355-1.5904947.65326699-.0055062.00668605.4361668.43656011.4361668.43656011.2678355-.3787454.5632019-.51718608 1.145282-.51718608.8310375 0 1.1637671.3323363 1.1637671.99740221v.43380703h-1.3671018c-1.0158872 0-1.5700432.51757938-1.5700432 1.31164684 0 .36026042.1199557.70203583.3417754.92385563.2863205.2953663.6556268.415322 1.2837227.415322.609611 0 .9419473-.1199557 1.3116469-.4892619v.433807h.6646726v-3.08463153c0-.98835637-.6001719-1.5145883-1.8193938-1.5145883zm-5.6866871 2.04082022-.7295667-.06450077c-.572641-.0460158-.7940675-.27688138-.7940675-.66506591 0-.46173115.3508213-.74805166 1.0158872-.74805166.4711703 0 .8864924.11090987 1.2097828.36026042l.4342003-.43420033c-.4062762-.3323363-.9883563-.48926197-1.6349373-.48926197-.969478 0-1.6715139.49870111-1.6715139 1.32973852 0 .74805165.4711703 1.14528203 1.3576626 1.21922194l.7480517.06450078c.5266252.04640909.7574908.26783553.7574908.6650659 0 .53567106-.4617312.80350659-1.2101761.80350659-.5632019 0-1.0528572-.14787982-1.4131176-.52623192l-.4432462.44324622c.4987011.4802161 1.0992663.6556267 1.8658029.6556267 1.0988729 0 1.8473179-.5077469 1.8473179-1.38519343 0-.84991568-.5451102-1.15472117-1.3395709-1.22866108z" fill="#000"/></g></g></svg>