<svg height="150" viewBox="0 0 230 150" width="230" xmlns="http://www.w3.org/2000/svg"><g fill="none" fill-rule="evenodd"><path d="m0 0h230v150h-230z" fill="#f3f3f5"/><path d="m5 25h220v120h-220z" fill="#fff"/><g transform="translate(13 119)"><rect fill="#0095ff" height="17" rx="2" stroke="#07c" width="55" x=".5" y=".5"/><text fill="#fff" font-family="ArialMT, Arial" font-size="8"><tspan x="7.447" y="12">It’s A Button</tspan></text></g><text font-family="ArialMT, Arial" font-size="6"><tspan fill="#54595f" x="13" y="64">A starting point for more simple transactional emails with a single message. </tspan><tspan fill="#54595f" x="13" y="72">It can </tspan><tspan fill="#54595f" font-family="Arial-BoldMT, Arial" font-weight="bold" x="29.342" y="72">contain links</tspan> <tspan fill="#54595f" x="66.016" y="72">or rich text. </tspan><tspan fill="#07c" x="99.024" y="72">Read this first.</tspan></text><text fill="#54595f" font-family="ArialMT, Arial" font-size="6"><tspan x="13" y="86">• Forgot password</tspan> <tspan x="13" y="97">• You’ve been removed from a Team</tspan> <tspan x="13" y="108">• Cart abandonment</tspan></text><text fill="#0c0d0e" font-family="Arial-BoldMT, Arial" font-size="11" font-weight="bold"><tspan x="13" y="53">Email Headline</tspan></text><g transform="translate(13 32)"><rect fill="#ea4f4f" height="9" rx="2" width="9"/><g font-size="7"><text fill="#fff" font-family="Arial-BoldMT, Arial" font-weight="bold"><tspan x="2" y="7">T</tspan></text><text fill="#242629" font-family="ArialMT, Arial"><tspan x="11" y="7">Team Name</tspan></text></g></g><g fill-rule="nonzero" transform="translate(13 5)"><path d="m9.455 11.818v-3.545h1.181v4.727h-10.636v-4.727h1.182v3.545z" fill="#c1bebc"/><path d="m2.36363636 10.6363636h5.90909091v-1.18181815h-5.90909091zm5.15495424-10.6363636-.93071875.69225 3.46124995 4.6531875.9307188-.69225zm-2.87665622 2.74340625 4.45615622 3.7115.742625-.8913125-4.45656247-3.7115zm-1.45478125 2.57928125 5.25728122 2.44846875.48953125-1.05178125-5.25728122-2.4480625zm-.75075 2.71740625 5.85421299.98706689.07754239-.98648348-5.69328663-1.13564591z" fill="#f48024"/><path d="m18.4704415 6.80528748.6147238-.61472383h-1.258945v-1.49453016h-.6650659v4.71917555c0 .67450506.3881845 1.21922196 1.163767 1.21922196h.4711703v-.572641h-.3508213c-.4251545 0-.6190501-.24935058-.6190501-.66506594v-2.59143658zm34.6975804 2.40344043v-5.15416248h-1.1810721v5.22692249c0 .67253856.408636 1.35412298 1.3808671 1.35412298h.6721453v-.99976202h-.4542585c-.2996926 0-.4176818-.14512674-.4176818-.42712097zm10.6524385-3.30723788-.7633906 2.9257394-.9722311-2.9257394h-.8632876l-.9631856 2.9257394-.7629969-2.9257394h-1.2538322l1.4536272 4.73412087h.9722312l.9903229-2.97136189.9903228 2.97136189h.9722312l1.4445816-4.73412087zm-7.0341242 3.51647209c-.1364742.1360809-.3181776.20884092-.5545494.20884092-.2359784 0-.408636-.07276002-.5451102-.20884092-.2454175-.24541758-.2725551-.66349271-.2725551-1.15393457 0-.49083516.0271376-.89947116.2725551-1.14488874.1364742-.1360809.3091318-.20884092.5451102-.20884092.2363718 0 .4180752.07276002.5545494.20884092.2450243.24541758.2725551.65405358.2725551 1.14488874 0 .49044186-.0275308.90851699-.2725551 1.15393457zm-.5545494-3.57074713c-.699676 0-1.1720262.27255512-1.462673.58129358-.427121.44521266-.5360644.98127702-.5360644 1.83551898 0 .86328779.1089434 1.39935215.5360644 1.84456485.2906468.3087384.762997.5812935 1.462673.5812935.6996761 0 1.1810721-.2725551 1.4721122-.5812935.427121-.4452127.5360643-.98127706.5360643-1.84456485 0-.85424196-.1089433-1.39030632-.5360643-1.83551898-.2910401-.30873846-.7724361-.58129358-1.4721122-.58129358zm-7.1598308-.4389199v5.22220291h1.1814653v-3.73239233h.8723337v-.89947118h-.8723337v-.51757938c0-.2729484.1360809-.42712098.4176819-.42712098h.4546518v-.9993687h-.6725386c-.9631853 0-1.3812604.6811911-1.3812604 1.35372966zm-2.4307263.94745346v-.45425852h-1.1539346v4.73412087h1.1810721v-2.85297937c0-.59977854.3999835-.87233364.7633903-.87233364.2906468 0 .4412797.09635786.6233764.27806126l.893965-.89593148c-.3272235-.32722346-.6544469-.44521268-1.1177513-.44521268-.5085335 0-.9631853.23597847-1.1901179.50853356zm-4.7042302 1.47211218c.0086525-.20923422.0361833-.33626928.1089434-.50892684.127035-.28160094.3905443-.49044186.7905277-.49044186.3995902 0 .6630995.20884092.7905278.49044186.0723667.17265756.0998976.29969262.1089434.50892684zm.8994711-1.98064574c-1.2266946 0-2.0628448.87233366-2.0628448 2.41681256 0 1.91732485 1.0721287 2.42585835 2.1898799 2.42585835.854242 0 1.3175463-.2635092 1.7989423-.74490526l-.7177677-.69967608c-.2996927.29969262-.5541561.44521266-1.0721288.44521266-.6630994 0-1.035552-.44521266-1.035552-1.05403703h2.9619227v-.52701852c0-1.29906132-.7452986-2.26224668-2.0624516-2.26224668zm-3.254536.05427504-.9537462 2.9257394-.9631853-2.9257394h-1.2447863l1.7446673 4.73412087h.9266087l1.7352281-4.73412087zm-4.5988265 3.51647209c-.1364742.1360809-.3181776.20884092-.554156.20884092-.2363718 0-.4090293-.07276002-.5451102-.20884092-.2454176-.24541758-.2729484-.66349271-.2729484-1.15393457 0-.49083516.0275308-.89947116.2729484-1.14488874.1360809-.1360809.3087384-.20884092.5451102-.20884092.2359784 0 .4176818.07276002.554156.20884092.2454176.24541758.2725551.65405358.2725551 1.14488874 0 .49044186-.0271375.90851699-.2725551 1.15393457zm-.554156-3.57074713c-.6996761 0-1.1720263.27255512-1.4630664.58129358-.4267276.44521266-.5360643.98127702-.5360643 1.83551898 0 .86328779.1093367 1.39935215.5360643 1.84456485.2910401.3087384.7633903.5812935 1.4630664.5812935.6992828 0 1.1810721-.2725551 1.4717189-.5812935.4271209-.4452127.5360643-.98127706.5360643-1.84456485 0-.85424196-.1089434-1.39030632-.5360643-1.83551898-.2906468-.30873846-.7724361-.58129358-1.4717189-.58129358zm-3.1243546.23637176h-.8290709l-2.0604851 2.00621005.0031464-4.0312984h-.6646726v6.5759326h.6646726l-.0031464-1.65853516.806653-.80940605 1.5240274 2.46794121h.8219916l-1.8854678-2.92849247zm-5.6953396.54275042c.433807 0 .7020358.12900154 1.043418.50774694 0 0 .4452126-.43262714.4416729-.43656011-.4664507-.49870111-.8621079-.66231283-1.4850909-.66231283-1.1452821 0-2.0136827.77558248-2.0136827 2.32714073s.8684006 2.327534 2.0136827 2.327534c.6280959 0 1.024933-.1663648 1.4961033-.6741117l-.4526853-.43420036c-.3413822.3787454-.609611.51718606-1.043418.51718606-.4436395 0-.8129458-.17541062-1.0528572-.51718606-.2127739-.29536635-.2957596-.64658093-.2957596-1.21922194 0-.57224772.0829857-.9234623.2957596-1.21882865.2399114-.34216874.6092177-.51718608 1.0528572-.51718608zm-3.2694813 2.40108063c0 .3787454-.07394.63753509-.2308656.78502162-.2863205.27727468-.628096.30480548-1.0162805.30480548-.7201275 0-1.043418-.24935055-1.043418-.77597577 0-.52623192.3323363-.80311329 1.0158872-.80311329h1.2746769zm-1.1547212-2.99220663c-.7287801 0-1.1881515.14355355-1.5904947.65326699-.0055062.00668605.4361668.43656011.4361668.43656011.2678355-.3787454.5632019-.51718608 1.145282-.51718608.8310375 0 1.1637671.3323363 1.1637671.99740221v.43380703h-1.3671018c-1.0158872 0-1.5700432.51757938-1.5700432 1.31164684 0 .36026042.1199557.70203583.3417754.92385563.2863205.2953663.6556268.415322 1.2837227.415322.609611 0 .9419473-.1199557 1.3116469-.4892619v.433807h.6646726v-3.08463153c0-.98835637-.6001719-1.5145883-1.8193938-1.5145883zm-5.6866871 2.04082022-.7295667-.06450077c-.572641-.0460158-.7940675-.27688138-.7940675-.66506591 0-.46173115.3508213-.74805166 1.0158872-.74805166.4711703 0 .8864924.11090987 1.2097828.36026042l.4342003-.43420033c-.4062762-.3323363-.9883563-.48926197-1.6349373-.48926197-.969478 0-1.6715139.49870111-1.6715139 1.32973852 0 .74805165.4711703 1.14528203 1.3576626 1.21922194l.7480517.06450078c.5266252.04640909.7574908.26783553.7574908.6650659 0 .53567106-.4617312.80350659-1.2101761.80350659-.5632019 0-1.0528572-.14787982-1.4131176-.52623192l-.4432462.44324622c.4987011.4802161 1.0992663.6556267 1.8658029.6556267 1.0988729 0 1.8473179-.5077469 1.8473179-1.38519343 0-.84991568-.5451102-1.15472117-1.3395709-1.22866108z" fill="#000"/></g></g></svg>