<svg height="150" viewBox="0 0 230 150" width="230" xmlns="http://www.w3.org/2000/svg"><g fill="none" fill-rule="evenodd"><path d="m0 0h230v150h-230z" fill="#f3f3f5"/><rect fill="#fff" height="120" rx="3" width="220" x="5" y="25"/><rect fill="#e1ecf4" height="10" rx="2" width="30" x="63" y="132"/><rect fill="#71a5cb" height="2" rx="1" width="20" x="68" y="136"/><rect fill="#e1ecf4" height="10" rx="2" width="30" x="29" y="132"/><rect fill="#71a5cb" height="2" rx="1" width="20" x="34" y="136"/><g fill="#c9cbcf"><rect height="4" rx="2" width="28" x="155" y="124"/><rect height="4" rx="2" width="10" x="141" y="124"/><rect height="4" rx="2" width="32" x="105" y="124"/><rect height="4" rx="2" width="14" x="87" y="124"/><rect height="4" rx="2" width="54" x="29" y="124"/></g><rect fill="#0095ff" fill-rule="nonzero" height="8" rx="2.5" width="94" x="30" y="112"/><circle cx="33" cy="116" fill="#005999" r="4"/><circle cx="121" cy="116" fill="#005999" r="4"/><g fill-rule="nonzero" transform="translate(13 112)"><path d="m9.455 11.545v-3.545h1.181v4.727h-10.636v-4.727h1.182v3.545z" fill="#c1bebc"/><path d="m2.36363636 10.6363636h5.90909091v-1.18181815h-5.90909091zm5.15495424-10.6363636-.93071875.69225 3.46124995 4.6531875.9307188-.69225zm-2.87665622 2.74340625 4.45615622 3.7115.742625-.8913125-4.45656247-3.7115zm-1.45478125 2.57928125 5.25728122 2.44846875.48953125-1.05178125-5.25728122-2.4480625zm-.75075 2.71740625 5.85421299.98706689.07754239-.98648348-5.69328663-1.13564591z" fill="#f48024"/></g><path d="m5 102h220v6h-220z" fill="#eff0f1"/><rect fill="#0095ff" height="14" rx="2" width="50" x="13" y="81"/><rect fill="#99d4ff" height="2" rx="1" width="40" x="18" y="87"/><g fill="#c9cbcf"><rect height="4" rx="2" width="27" x="57" y="71"/><rect height="4" rx="2" width="18" x="35" y="71"/><rect height="4" rx="2" width="10" x="142" y="71"/><rect height="4" rx="2" width="32" x="106" y="71"/><rect height="4" rx="2" width="14" x="88" y="71"/><rect height="4" rx="2" width="18" x="13" y="71"/></g><g fill="#c9cbcf"><rect height="4" rx="2" width="28" x="139" y="61"/><rect height="4" rx="2" width="10" x="125" y="61"/><rect height="4" rx="2" width="32" x="89" y="61"/><rect height="4" rx="2" width="14" x="71" y="61"/><rect height="4" rx="2" width="54" x="13" y="61"/></g><g transform="translate(185 37)"><path d="m.131 28.427h21.03v-20.965h-21.03z" fill="#fff"/><path d="m21.0304598 7.33081869h-20.76893457-.26142056v.26168224 20.70403737.2616823h.26142056 1.85454206 18.91439251.2616823v-.2616823-20.70403737-.26168224zm-20.76893457.26168224h20.76893457v20.70403737h-18.91439251-1.85454206z" fill="#1060e1"/><path d="m2.971 14.748h16.318v-4.45h-16.318z" fill="#ffb935"/><path d="m2.363 14.102h16.318v-4.45h-16.318z" stroke="#f48024"/><path d="m4.29051589 18.1149533h12.82975701m-12.82975701 1.0214504h12.82975701m-10.46899066 1.1914916h8.08571966m-10.44648601 3.2343402h12.82975701m-12.82975701 1.0214505h12.82975701m-10.46899066 1.1916224h8.08571966m-9.70131966-9.0892934 11.64250466-.5" stroke="#f48024"/><path d="m21.659 27.577-.131-.131v-1.438l.131-.131h3.907l.131.131v1.438l-.131.131z" fill="#fff"/><path d="m25.5657271 25.7465495h-3.9069159l-.2616822.2616823v1.4379439l.2616822.2616822h3.9069159l.2616822-.2616822v-1.4379439zm-3.9069159 1.6996262h3.9069159v-1.4379439h-3.9069159z" fill="#1060e1"/><path d="m22.168228-.00002617-.2616822.26168225v25.61005602l.2616822.261944h2.8955141l.2614205-.261944-.0015701-25.61005602-.2616822-.26168225zm0 .26168225h2.8936823l.0018318 25.61005602h-2.8955141z" fill="#1060e1"/><g stroke="#1060e1" stroke-linejoin="bevel" transform="translate(10.729 .035)"><path d="m17.227 4.223v-1.432h-.964-.964-15.265v1.517h17.193" stroke-linecap="square"/><path d="m17.2270393 2.90705421-2.8088972-2.80863552m-2.9789122-.00010467-11.40515887 2.80863551" stroke-linecap="round"/></g><path d="m13.6301907 4.41319252v9.71809348" stroke="#1060e1" stroke-linecap="square" stroke-linejoin="bevel"/><path d="m13.272 15.518-.127-.099-.181-.721.127-.163h1.079l.127.163-.178.72-.127.1z" fill="#fff"/><path d="m14.1697794 14.9280037h.0013085zm.0013085-.5233644h-.0013085-1.0791775l-.2538318.3255327.1810841.7206729.2538318.1978317h.7206729l.2538318-.1991402.1776822-.7206728-.252785-.3226543zm-.0013085.2616822-.1774205.7206729h-.7206729l-.1810841-.7206729zm0 0h.0013085z" fill="#1060e1"/><g transform="translate(10.729 .035)"><path d="m2.90121869 16.2503103-.15020561.0991776c-.11383177.0771962-.26900934.0476261-.3462056-.0664673-.02852337-.0418692-.04343926-.0913271-.04317757-.1418318 0-.1376449.11173831-.2493832.24938317-.2493832h.10938318c.09970094 0 .18082243-.0811215.18082243-.1810841v-.3585047" stroke="#1060e1" stroke-linecap="square" stroke-linejoin="bevel"/><path d="m9.62854579 28.3901682-.13084112-.1308411v-.3789159c0-.2606355.21196262-.4723364.47233645-.4723364h5.82635518c.2606355 0 .4723364.2117009.4723364.4723364v.3789159l-.1308411.1308411z" fill="#fff"/><g fill="#1060e1"><path d="m15.7964748 27.2771028h-5.82635517c-.33259813 0-.60317757.2705794-.60317757.6031776v.3789159l.26168224.2616822h6.5093458l.2616822-.2616822v-.3789159c0-.3325982-.2705794-.6031776-.6031775-.6031776m0 .2616822c.1886729 0 .3414953.1528225.3414953.3414954v.3789159h-6.5093458v-.3789159c0-.1886729.15282243-.3414954.34149533-.3414954zm-3.0609757-4.6466392-1.4240748 1.4206729-.0005234.3700187 1.4172711 1.4206729.3702803.0002617 1.4206729-1.4206729.0005234-.3694954-1.4138692-1.4209345zm.1847476.185271 1.4138692 1.4206729-1.4206729 1.4206729-1.417271-1.4206729z"/><path d="m12.7354991 20.0505645-1.4240748 1.4206729-.0005234.3700187 1.4172711 1.4209346.3702803.0002616 1.4206729-1.4209345.0005234-.3694954-1.4138692-1.4209345zm.1847476.185271 1.4138692 1.4206729-1.4206729 1.4206729-1.417271-1.4206729z"/><path d="m12.7318093 17.2092449-1.4206729 1.4209345-.0005233.3694954 1.4138691 1.4206729.3702804.000785 1.4243365-1.4206729.0005233-.3702804-1.4175327-1.4206729zm.1850094.1850093 1.4175327 1.4209346-1.4243364 1.4206729-1.4138692-1.4206729z"/><path d="m12.7318093 14.3677944-1.4206729 1.4206729-.0002616.3700187 1.417271 1.4206729.3702804.0002617 1.4209345-1.4209346.0002617-.369757-1.4175327-1.4206729zm.1850094.1850093 1.4175327 1.4206729-1.4209346 1.4206729-1.417271-1.4206729z"/><path d="m12.7337196 11.5260822-1.4240747 1.4206729-.0005234.3700187 1.417271 1.4206729.3702804.0005234 1.4240748-1.4206729.0005233-.3700187-1.4175327-1.4209346zm.1850094.1852711 1.417271 1.4206729-1.4243364 1.4206729-1.4172711-1.4206729z"/><path d="m12.7318093 8.68476262-1.4206729 1.42067288-.0005233.369757 1.4138691 1.4206729.3702804.0005234 1.4243365-1.4206729.0005233-.3700187-1.4175327-1.4206729zm.1850094.18500934 1.4175327 1.42067294-1.4243364 1.4209345-1.4138692-1.4209345z"/><path d="m12.7318093 5.83988411-1.4206729 1.4206729-.0005233.36975701 1.417271 1.42407477.3708038.00026168 1.4209345-1.42407477v-.36975701l-1.4175327-1.4206729zm.1850094.18500935 1.4175327 1.4206729-1.4209346 1.42433644-1.417271-1.42433644z"/><path d="m12.7354991 2.99817196-1.4240748 1.4206729-.0005234.37001869 1.4172711 1.4206729.3702803.00026168 1.4206729-1.4206729.0005234-.36949532-1.4138692-1.42093458zm.1847476.18527103 1.4138692 1.4206729-1.4206729 1.4206729-1.417271-1.4206729z"/><path d="m12.9168187.10700187c-.0693458 0-.1360748.02747664-.1850094.0766729l-1.4206729 1.42067289c-.102056.10205608-.1023177.26743926-.0005233.36949533l1.4138691 1.42093458c.0491963.04919626.1156636.07693458.1850094.07693458h.0005234c.0693457 0 .135813-.02747664.1847476-.07641122l1.4243365-1.42067289c.1023177-.10205608.1023177-.26770094.0005233-.37001869l-1.4175327-1.42093458c-.0489346-.04893458-.1156635-.0766729-.1850093-.0766729zm0 .26168224 1.4175327 1.4206729-1.4243364 1.4206729-1.4138692-1.4206729z"/></g><path d="m11.398 4.212-1.418-1.421-1.42 1.421" stroke="#1060e1" stroke-linecap="square" stroke-linejoin="bevel"/><path d="m17.227 4.308-1.448-1.517-1.42 1.421" stroke="#1060e1" stroke-linecap="round" stroke-linejoin="bevel"/><path d="m8.56 4.212-1.418-1.421-1.421 1.421" stroke="#1060e1" stroke-linecap="square" stroke-linejoin="bevel"/><path d="m5.721 4.212-1.417-1.421-1.421 1.421" stroke="#1060e1" stroke-linecap="square" stroke-linejoin="bevel"/><path d="m2.883 4.212-1.417-1.421-1.424 1.421" stroke="#1060e1" stroke-linecap="round" stroke-linejoin="bevel"/><path d="m2.92780561 4.30836262c0 .79917757-.64792524 1.44684112-1.44684112 1.44684112-.79917757 0-1.44710281-.64766355-1.44710281-1.44684112" stroke="#1060e1" stroke-linecap="round" stroke-linejoin="bevel"/></g></g><rect fill="#858c93" fill-rule="nonzero" height="8" rx="2.5" width="94" x="14" y="44"/><circle cx="17" cy="48" fill="#0c0d0e" r="4"/><circle cx="105" cy="48" fill="#0c0d0e" r="4"/><rect fill="#ea4f4f" height="9" rx="2" width="9" x="13" y="31"/><rect fill="#858c93" fill-rule="nonzero" height="3" rx="1.5" width="30" x="26" y="34"/><circle cx="26.5" cy="35.5" fill="#0c0d0e" r="1.5"/><circle cx="55.5" cy="35.5" fill="#0c0d0e" r="1.5"/><g transform="translate(13 5)"><rect fill="#858c93" fill-rule="nonzero" height="5" rx="2.5" width="52" x="14" y="5"/><circle cx="15.5" cy="7.5" fill="#0c0d0e" r="2.5"/><circle cx="64.5" cy="7.5" fill="#0c0d0e" r="2.5"/><g fill-rule="nonzero"><path d="m9.455 11.545v-3.545h1.181v4.727h-10.636v-4.727h1.182v3.545z" fill="#c1bebc"/><path d="m2.36363636 10.6363636h5.90909091v-1.18181815h-5.90909091zm5.15495424-10.6363636-.93071875.69225 3.46124995 4.6531875.9307188-.69225zm-2.87665622 2.74340625 4.45615622 3.7115.742625-.8913125-4.45656247-3.7115zm-1.45478125 2.57928125 5.25728122 2.44846875.48953125-1.05178125-5.25728122-2.4480625zm-.75075 2.71740625 5.85421299.98706689.07754239-.98648348-5.69328663-1.13564591z" fill="#f48024"/></g></g></g></svg>