<svg fill="none" height="24" viewBox="0 0 24 24" width="24"><path d="m23 17.1699-10.5 6.0625-.5.2881-.5-.2881-10.5-6.0635v-2.3085l10.999 6.3505 11.001-6.3505zm0-4.5879-10.5 6.0625-.5.2891-.5-.2891-10.5-6.0625v-2.3095l10.999 6.3505 11.001-6.3505zm-10.4785-11.43552 9 5.5 1.3965.85352-1.3965.85352-.4649.2832-2.7343-1.60059-6.3223-3.86425-7.08203 4.32812 7.08203 4.3271 5.1602-3.15425 1.9599 1.14746-6.5986 4.03319-.5215.3184-.5215-.3184-8.99998-5.49998-1.39649-.85352 1.39649-.85352 8.99998-5.5.5215-.318355z" fill="currentColor"/></svg>
