<svg width="24" height="24" viewBox="0 0 24 24" fill="none">
<path d="M21 21H19V23H6.5C5.57174 23 4.68177 22.631 4.02539 21.9746C3.36901 21.3182 3 20.4283 3 19.5V4.5C3 3.57174 3.36901 2.68177 4.02539 2.02539C4.68177 1.36901 5.57174 1 6.5 1H21V21ZM6.5 18C6.10218 18 5.72076 18.1581 5.43945 18.4395C5.15815 18.7208 5 19.1022 5 19.5C5 19.8978 5.15815 20.2792 5.43945 20.5605C5.72076 20.8419 6.10218 21 6.5 21H19V18H6.5ZM6.5 3C6.10218 3 5.72076 3.15815 5.43945 3.43945C5.15815 3.72076 5 4.10218 5 4.5V16.3379C5.46445 16.1176 5.97614 16 6.5 16H19V3H6.5ZM16.2832 8.4707L16.6553 8.83789C16.2646 9.13368 15.9133 9.47821 15.6123 9.86328L15.626 9.87012L15.6221 9.87402L15.6123 9.86426C15.3176 10.2411 15.0704 10.656 14.8799 11.0996C14.8771 11.1064 14.8748 11.1133 14.8721 11.1201C14.6885 11.5528 14.5576 12.0128 14.4893 12.4932C14.4886 12.4959 14.4893 12.4993 14.4893 12.502C14.4527 12.7567 14.4336 13.0169 14.4336 13.2812C14.4336 13.506 14.4474 13.7283 14.4736 13.9463H9V12.4932H13.7529C13.7619 12.4333 13.7722 12.3746 13.7832 12.3154L9.2041 11.1035L9.58496 9.69824L14.2207 10.9258C14.2421 10.8788 14.265 10.8324 14.2871 10.7861L10.127 8.41406L10.8623 7.15527L15.085 9.56152C15.118 9.52208 15.1514 9.48212 15.1865 9.44336L11.7275 6.02832L12.7686 5L16.2832 8.4707Z" fill="currentColor"/>
</svg>
