<svg fill="none" height="340" viewBox="0 0 966 340" width="966" xmlns="http://www.w3.org/2000/svg" xmlns:xlink="http://www.w3.org/1999/xlink"><clipPath id="a"><path d="m0 0h966v340h-966z"/></clipPath><clipPath id="b"><path d="m56.2533 87.7261h165.885v146.544h-165.885z"/></clipPath><clipPath id="c"><path d="m381.254 87.7256h165.885v146.544h-165.885z"/></clipPath><clipPath id="d"><path d="m706.253 87.7256h165.885v146.544h-165.885z"/></clipPath><g clip-path="url(#a)"><path d="m0 0h315.333v340h-315.333z" fill="#e5e5e5"/><g opacity=".2"><g clip-path="url(#b)"><path d="m157.27 145.725c9.88 11.441 19.633 23.025 29.604 34.4.131.15.097.237.048.405-.063.218-2.255 3.202-2.613 3.721-1.792 2.596-3.686 5.131-5.571 7.659l-7.95-9.05c-.213-.054-.429 1.051-.487 1.251-.346 1.193-.544 2.424-.846 3.622-.742 2.945-1.47 5.908-2.394 8.803l-26.849-.68v12.649l-61.5037 25.761v-13.229l60.1087-25.242.06-.172-29.533-.812 3.597-13.809 57.21 1.509.231-.173-29.59-34.176 8.471-11.605c2.643 3.075 5.357 6.099 8.007 9.168z" fill="#9d9cff"/><path d="m109.345 194.812 29.533.812-.06.172-60.1087 25.242-22.3966-10.56 45.2573-19.147c2.56 1.173 5.211 2.27 7.775 3.481z" fill="#6e1527"/><path d="m78.7094 221.037v13.229l-22.4547-10.56.0582-13.229z" fill="#ff5e00"/><path d="m146.712 171.835h1.164l22.276 10.676-57.209-1.509-22.2809-10.56c.4953-.214 1.4646-.127 2.0351-.12 17.9988.215 36.0078 1.389 54.0148 1.513z" fill="#6e1527"/><path d="m90.6613 170.444 22.2807 10.56-3.598 13.809c-2.563-1.211-5.215-2.308-7.775-3.481-4.9313-2.261-9.7485-4.809-14.7277-6.976l3.587-13.831c.0401-.136.1828-.06.2331-.081z" fill="#ff5e00"/><path d="m178.738 191.913-9.283-4.178c.301-1.198.499-2.428.845-3.621.058-.201.274-1.305.487-1.251z" fill="#f39fff"/><path d="m140.79 148.163 29.59 34.177-.231.172-21.965-10.47-1.476-.206 1.16-.057-29.475-34.06z" fill="#f39fff"/><path d="m149.261 136.558-8.471 11.605-22.397-10.444 8.411-11.732z" fill="#ff5e00"/><path d="m169.105 124.487 21.004 62.316-5.803-2.553c.359-.52 2.551-3.504 2.614-3.722.049-.168.083-.255-.048-.405-9.972-11.375-19.724-22.959-29.604-34.4l-10.56-31.796z" fill="#f39fff"/><path d="m172.702 112.652c2.132 1.046 4.247 2.203 6.382 3.249l-9.979 8.588-22.397-10.56 10.047-8.702c5.295 2.505 10.69 4.846 15.947 7.425z" fill="#ff5e00"/><path d="m204.501 104.298c.248.341.398 2.804.462 3.425 2.339 22.667 3.676 45.452 6.033 68.118l-.055.985c-.129.283-.985.507-1.257.691-.109.074-.067.231-.077.237-2.773 1.789-6.166 3.218-9.052 4.874l-.464-4.409c-.968.675-1.909 1.473-2.785 2.262-.231.207-.421.6-.464.639-2.187 1.947-4.477 3.815-6.731 5.686l-21.004-62.316 9.98-8.587 20.887 61.503-5.917-67.305z" fill="#9d9cff"/><path d="m194.057 110.101 5.917 67.305-20.887-61.503c-2.136-1.046-4.25-2.203-6.382-3.249l-1.045-13.113z" fill="#f39fff"/><path d="m188.951 96.7553c.372.1776.886.5742 1.351.7957 4.73 2.2528 9.524 4.382 14.199 6.747l-10.444 5.802-22.397-10.5596 10.52-5.8929c2.267 1.0068 4.533 2.0398 6.771 3.1078z" fill="#ff5e00"/><path d="m211.579 178.45-.116-75.661 10.676-4.4096v75.4866c-.02.267-.247.288-.421.392-1.069.639-9.097 4.022-10.139 4.192z" fill="#9d9cff"/><path d="m211.464 102.79.116 75.661c-.749.123-1.228-.546-1.973-.696.011-.007-.032-.164.078-.237.271-.184 1.127-.408 1.257-.691l.055-.985c-2.357-22.666-3.695-45.452-6.033-68.118-.065-.622-.215-3.084-.463-3.425-4.675-2.365-9.468-4.4943-14.199-6.7472-.465-.2214-.979-.618-1.351-.7956l.116-4.5257z" fill="#f39fff"/><path d="m222.139 98.38-10.676 4.41-22.397-10.5603 10.706-4.5056z" fill="#ff5e00"/><path d="m196.84 181.121c.043-.039.233-.432.464-.639.875-.789 1.817-1.587 2.784-2.262l.465 4.409-.225.071z" fill="#f39fff"/></g><path d="m87.4939 124.172h12.36v54.96h15.1201v7.92h-15.1201v21.12h-8.76v-21.12h-40.44v-6.48zm-26.16 54.96h29.76v-46.56zm96.7121 30.96c-24.36 0-35.52-19.68-35.52-44.04 0-24.12 11.16-43.8 35.52-43.8 24.24 0 35.4 19.68 35.4 43.8 0 24.36-11.16 44.04-35.4 44.04zm0-8.64c16.32 0 26.04-15 26.04-35.4 0-20.16-9.72-35.16-26.04-35.16-16.44 0-26.16 15-26.16 35.16 0 20.4 9.72 35.4 26.16 35.4zm78.628-77.28h12.36v54.96h15.12v7.92h-15.12v21.12h-8.76v-21.12h-40.44v-6.48zm-26.16 54.96h29.76v-46.56z" fill="#000"/></g><path d="m140.211 195.861 26.849.68 3.091-14.025-57.21-1.509-3.598 13.81 29.533.811-.06.172-60.1082 25.243v13.229l61.5032-25.762z" fill="#9d9cff"/><path d="m109.344 194.815 29.533.811-.06.173-60.1084 25.242-22.3965-10.56 45.2569-19.148c2.56 1.174 5.212 2.271 7.775 3.482z" fill="#6e1527"/><path d="m78.7087 221.041v13.229l-22.4547-10.559.0582-13.23z" fill="#ff5e00"/><path d="m146.711 171.84h1.164l22.277 10.676-57.21-1.509-22.2808-10.56c.4952-.214 1.4645-.127 2.0351-.12 17.9987.215 36.0077 1.389 54.0147 1.513z" fill="#6e1527"/><path d="m90.6604 170.448 22.2806 10.56-3.598 13.809c-2.563-1.21-5.214-2.307-7.774-3.481-4.9323-2.261-9.7495-4.809-14.7287-6.976l3.5871-13.831c.04-.136.1827-.059.233-.081z" fill="#ff5e00"/><path d="m140.79 148.166 29.59 34.177-.231.172-21.965-10.47-1.476-.206 1.16-.057-29.475-34.06z" fill="#f39fff"/><path d="m149.261 136.563-8.471 11.604-22.397-10.444 8.411-11.732z" fill="#ff5e00"/><path d="m121.759 302.9h6.201v1.261h-4.771v2.886h4.251v1.261h-4.251v3.692h-1.43zm10.756 9.308c-2.249 0-3.718-1.586-3.718-3.835 0-2.262 1.469-3.861 3.718-3.861s3.718 1.599 3.718 3.861c0 2.249-1.469 3.835-3.718 3.835zm0-1.274c1.417 0 2.275-1.027 2.275-2.561 0-1.547-.858-2.587-2.275-2.587-1.43 0-2.275 1.04-2.275 2.587 0 1.534.845 2.561 2.275 2.561zm6.515-2.756v3.822h-1.404v-7.28h1.404v1.222c.273-.741.936-1.43 2.431-1.43v1.404c-1.547 0-2.431.533-2.431 2.262zm6.688 4.03c-2.249 0-3.718-1.586-3.718-3.835 0-2.262 1.469-3.861 3.718-3.861 1.976 0 3.614 1.573 3.315 4.316h-5.564c.143 1.235.871 2.106 2.249 2.106 1.014 0 1.599-.546 1.833-1.248h1.482c-.338 1.495-1.547 2.522-3.315 2.522zm0-6.422c-1.274 0-2.002.754-2.21 1.859h4.147c-.091-1.04-.767-1.859-1.937-1.859zm7.734 6.162c-2.002 0-3.276-1.456-3.276-3.705 0-2.262 1.274-3.731 3.276-3.731 1.105 0 1.872.429 2.34 1.222v-1.014h1.404v6.89c0 2.054-1.339 3.198-3.224 3.198-2.314 0-3.211-1.261-3.419-2.496h1.456c.169.845.871 1.222 1.963 1.222 1.105 0 1.82-.559 1.82-1.924v-.845c-.455.741-1.196 1.183-2.34 1.183zm.195-1.274c1.43 0 2.145-.962 2.145-2.431 0-1.482-.715-2.457-2.145-2.457-1.261 0-2.028.91-2.028 2.457 0 1.534.767 2.431 2.028 2.431zm6.635-2.496v3.822h-1.404v-7.28h1.404v1.222c.273-.741.936-1.43 2.431-1.43v1.404c-1.547 0-2.431.533-2.431 2.262zm6.688 4.03c-2.249 0-3.718-1.586-3.718-3.835 0-2.262 1.469-3.861 3.718-3.861s3.718 1.599 3.718 3.861c0 2.249-1.469 3.835-3.718 3.835zm0-1.274c1.417 0 2.275-1.027 2.275-2.561 0-1.547-.858-2.587-2.275-2.587-1.43 0-2.275 1.04-2.275 2.587 0 1.534.845 2.561 2.275 2.561zm9.922-2.587v-3.627h1.404v7.28h-1.404v-1.209c-.312.728-1.014 1.417-2.405 1.417-1.404 0-2.444-.78-2.444-3.003v-4.485h1.391v4.316c0 1.183.299 1.95 1.417 1.95 1.04 0 2.041-.91 2.041-2.639zm3.086-3.627h1.404v1.196c.299-.728 1.014-1.404 2.392-1.404 1.404 0 2.457.78 2.457 3.003v4.485h-1.404v-4.316c0-1.183-.286-1.95-1.404-1.95-1.04 0-2.041.91-2.041 2.639v3.627h-1.404zm10.912 7.488c-2.002 0-3.276-1.586-3.276-3.835 0-2.262 1.274-3.861 3.276-3.861 1.118 0 1.885.494 2.34 1.326v-3.588h1.404v9.75h-1.404v-1.105c-.429.793-1.183 1.313-2.34 1.313zm.195-1.274c1.43 0 2.145-1.092 2.145-2.561 0-1.482-.715-2.587-2.145-2.587-1.261 0-2.028 1.04-2.028 2.587 0 1.534.767 2.561 2.028 2.561z" fill="#201c1d"/><path d="m0 0h315.333v340h-315.333z" fill="#e5e5e5" transform="translate(325.333)"/><g clip-path="url(#c)" opacity=".2"><path d="m482.271 145.724c9.88 11.441 19.632 23.026 29.604 34.4.131.15.097.237.048.405-.063.219-2.255 3.202-2.614 3.722-1.792 2.595-3.685 5.13-5.57 7.659l-7.951-9.051c-.213-.053-.429 1.051-.487 1.251-.346 1.194-.544 2.424-.845 3.622-.742 2.946-1.471 5.908-2.395 8.804l-26.849-.681v12.649l-61.503 25.762v-13.229l60.108-25.242.06-.172-29.532-.812 3.597-13.809 57.21 1.508.231-.172-29.59-34.177 8.471-11.604c2.643 3.075 5.357 6.098 8.007 9.167z" fill="#9d9cff"/><path d="m434.346 194.811 29.532.812-.06.172-60.108 25.242-22.397-10.56 45.258-19.147c2.56 1.174 5.211 2.271 7.775 3.481z" fill="#6e1527"/><path d="m403.71 221.037v13.229l-22.455-10.56.059-13.229z" fill="#ff5e00"/><path d="m471.712 171.834h1.165l22.276 10.677-57.21-1.509-22.28-10.56c.495-.215 1.464-.127 2.035-.12 17.999.215 36.008 1.388 54.014 1.512z" fill="#6e1527"/><path d="m415.662 170.443 22.281 10.56-3.598 13.809c-2.564-1.21-5.215-2.307-7.775-3.481-4.932-2.261-9.749-4.809-14.728-6.975l3.587-13.832c.04-.136.183-.059.233-.081z" fill="#ff5e00"/><path d="m503.739 191.913-9.284-4.178c.302-1.198.5-2.428.846-3.622.058-.2.274-1.305.487-1.251z" fill="#f39fff"/><path d="m465.79 148.163 29.59 34.177-.231.172-21.964-10.47-1.476-.206 1.159-.058-29.474-34.059z" fill="#f39fff"/><path d="m474.262 136.558-8.472 11.604-22.396-10.444 8.411-11.732z" fill="#ff5e00"/><path d="m494.105 124.486 21.004 62.316-5.802-2.553c.359-.52 2.551-3.503 2.614-3.722.049-.168.082-.255-.048-.404-9.972-11.375-19.724-22.96-29.604-34.401l-10.56-31.796z" fill="#f39fff"/><path d="m497.703 112.652c2.132 1.046 4.246 2.202 6.382 3.249l-9.98 8.587-22.396-10.56 10.046-8.701c5.296 2.505 10.69 4.845 15.948 7.425z" fill="#ff5e00"/><path d="m529.502 104.298c.248.341.398 2.803.462 3.425 2.339 22.666 3.676 45.452 6.033 68.118l-.055.985c-.13.283-.985.507-1.257.69-.109.074-.067.231-.077.238-2.773 1.789-6.167 3.218-9.052 4.874l-.465-4.409c-.967.675-1.909 1.473-2.785 2.261-.23.208-.42.601-.463.639-2.187 1.948-4.477 3.815-6.731 5.686l-21.004-62.315 9.98-8.588 20.886 61.503-5.917-67.305 10.444-5.802z" fill="#9d9cff"/><path d="m519.057 110.101 5.917 67.305-20.886-61.503c-2.136-1.047-4.25-2.203-6.383-3.249l-1.044-13.1135z" fill="#f39fff"/><path d="m513.951 96.7548c.373.1776.887.5742 1.352.7957 4.73 2.2528 9.524 4.3825 14.198 6.7475l-10.444 5.802-22.396-10.5601 10.519-5.8929c2.267 1.0068 4.534 2.0398 6.771 3.1078z" fill="#ff5e00"/><path d="m536.58 178.449-.116-75.66 10.676-4.4101v75.4871c-.021.266-.248.287-.421.391-1.069.639-9.098 4.022-10.139 4.192z" fill="#9d9cff"/><path d="m536.464 102.79.117 75.661c-.749.122-1.228-.547-1.973-.696.01-.007-.032-.164.077-.238.272-.183 1.128-.408 1.257-.691l.055-.984c-2.357-22.667-3.694-45.452-6.033-68.118-.064-.622-.214-3.085-.462-3.425-4.675-2.366-9.468-4.4948-14.199-6.7477-.465-.2214-.979-.618-1.351-.7956l.116-4.5257z" fill="#f39fff"/><path d="m547.14 98.3795-10.676 4.4095-22.397-10.5598 10.706-4.5056z" fill="#ff5e00"/><path d="m521.84 181.12c.043-.038.234-.431.464-.639.876-.788 1.818-1.586 2.785-2.261l.465 4.409-.225.07-3.488-1.579z" fill="#f39fff"/></g><path d="m412.494 124.172h12.36v54.96h15.12v7.92h-15.12v21.12h-8.76v-21.12h-40.44v-6.48zm-26.16 54.96h29.76v-46.56zm96.713 30.96c-24.36 0-35.52-19.68-35.52-44.04 0-24.12 11.16-43.8 35.52-43.8 24.24 0 35.4 19.68 35.4 43.8 0 24.36-11.16 44.04-35.4 44.04zm0-8.64c16.32 0 26.04-15 26.04-35.4 0-20.16-9.72-35.16-26.04-35.16-16.44 0-26.16 15-26.16 35.16 0 20.4 9.72 35.4 26.16 35.4zm78.627-77.28h12.36v54.96h15.12v7.92h-15.12v21.12h-8.76v-21.12h-40.44v-6.48zm-26.16 54.96h29.76v-46.56z" fill="#000"/><g fill="#e5e5e5" opacity=".8"><path d="m465.212 195.861 26.848.68 3.091-14.025-57.21-1.509-3.597 13.81 29.533.811-.06.172-60.109 25.243v13.229l61.504-25.762z"/><path d="m434.345 194.815 29.532.811-.06.173-60.108 25.242-22.397-10.56 45.258-19.148c2.56 1.174 5.211 2.271 7.775 3.482z"/><path d="m403.709 221.041v13.229l-22.455-10.559.059-13.23z"/><path d="m471.711 171.84h1.165l22.276 10.676-57.21-1.509-22.28-10.56c.495-.214 1.464-.127 2.035-.12 17.999.215 36.008 1.389 54.014 1.513z"/><path d="m415.661 170.448 22.28 10.56-3.597 13.809c-2.564-1.21-5.215-2.307-7.775-3.481-4.932-2.261-9.749-4.809-14.728-6.976l3.587-13.831c.04-.136.182-.059.233-.081z"/><path d="m465.79 148.166 29.59 34.177-.231.172-21.964-10.47-1.477-.206 1.16-.057-29.474-34.06z"/><path d="m474.261 136.563-8.471 11.604-22.396-10.444 8.41-11.732z"/></g><g opacity=".2"><path d="m465.212 195.861 26.848.68 3.091-14.025-57.21-1.509-3.597 13.81 29.533.811-.06.172-60.109 25.243v13.229l61.504-25.762z" fill="#9d9cff"/><path d="m434.345 194.815 29.532.811-.06.173-60.108 25.242-22.397-10.56 45.258-19.148c2.56 1.174 5.211 2.271 7.775 3.482z" fill="#6e1527"/><path d="m403.709 221.041v13.229l-22.455-10.559.059-13.23z" fill="#ff5e00"/><path d="m471.711 171.84h1.165l22.276 10.676-57.21-1.509-22.28-10.56c.495-.214 1.464-.127 2.035-.12 17.999.215 36.008 1.389 54.014 1.513z" fill="#6e1527"/><path d="m415.661 170.448 22.28 10.56-3.597 13.809c-2.564-1.21-5.215-2.307-7.775-3.481-4.932-2.261-9.749-4.809-14.728-6.976l3.587-13.831c.04-.136.182-.059.233-.081z" fill="#ff5e00"/><path d="m465.79 148.166 29.59 34.177-.231.172-21.964-10.47-1.477-.206 1.16-.057-29.474-34.06z" fill="#f39fff"/><path d="m474.261 136.563-8.471 11.604-22.396-10.444 8.41-11.732z" fill="#ff5e00"/></g><path d="m453.373 312-2.106-7.15v7.15h-1.365v-9.1h2.262l2.21 7.839 2.223-7.839h2.262v9.1h-1.365v-7.15l-2.106 7.15zm7.242-9.75h1.573v1.599h-1.573zm.078 2.47h1.404v7.28h-1.404zm6.149 7.488c-2.002 0-3.276-1.586-3.276-3.835 0-2.262 1.274-3.861 3.276-3.861 1.118 0 1.885.494 2.34 1.326v-3.588h1.404v9.75h-1.404v-1.105c-.429.793-1.183 1.313-2.34 1.313zm.195-1.274c1.43 0 2.145-1.092 2.145-2.561 0-1.482-.715-2.587-2.145-2.587-1.261 0-2.028 1.04-2.028 2.587 0 1.534.767 2.561 2.028 2.561zm8.273 1.014c-2.002 0-3.276-1.456-3.276-3.705 0-2.262 1.274-3.731 3.276-3.731 1.105 0 1.872.429 2.34 1.222v-1.014h1.404v6.89c0 2.054-1.339 3.198-3.224 3.198-2.314 0-3.211-1.261-3.419-2.496h1.456c.169.845.871 1.222 1.963 1.222 1.105 0 1.82-.559 1.82-1.924v-.845c-.455.741-1.196 1.183-2.34 1.183zm.195-1.274c1.43 0 2.145-.962 2.145-2.431 0-1.482-.715-2.457-2.145-2.457-1.261 0-2.028.91-2.028 2.457 0 1.534.767 2.431 2.028 2.431zm6.636-2.496v3.822h-1.404v-7.28h1.404v1.222c.273-.741.936-1.43 2.431-1.43v1.404c-1.547 0-2.431.533-2.431 2.262zm6.687 4.03c-2.249 0-3.718-1.586-3.718-3.835 0-2.262 1.469-3.861 3.718-3.861s3.718 1.599 3.718 3.861c0 2.249-1.469 3.835-3.718 3.835zm0-1.274c1.417 0 2.275-1.027 2.275-2.561 0-1.547-.858-2.587-2.275-2.587-1.43 0-2.275 1.04-2.275 2.587 0 1.534.845 2.561 2.275 2.561zm9.922-2.587v-3.627h1.404v7.28h-1.404v-1.209c-.312.728-1.014 1.417-2.405 1.417-1.404 0-2.444-.78-2.444-3.003v-4.485h1.391v4.316c0 1.183.299 1.95 1.417 1.95 1.04 0 2.041-.91 2.041-2.639zm3.086-3.627h1.404v1.196c.299-.728 1.014-1.404 2.392-1.404 1.404 0 2.457.78 2.457 3.003v4.485h-1.404v-4.316c0-1.183-.286-1.95-1.404-1.95-1.04 0-2.041.91-2.041 2.639v3.627h-1.404zm10.912 7.488c-2.002 0-3.276-1.586-3.276-3.835 0-2.262 1.274-3.861 3.276-3.861 1.118 0 1.885.494 2.34 1.326v-3.588h1.404v9.75h-1.404v-1.105c-.429.793-1.183 1.313-2.34 1.313zm.195-1.274c1.43 0 2.145-1.092 2.145-2.561 0-1.482-.715-2.587-2.145-2.587-1.261 0-2.028 1.04-2.028 2.587 0 1.534.767 2.561 2.028 2.561z" fill="#201c1d"/><path d="m0 0h315.333v340h-315.333z" fill="#e5e5e5" transform="translate(650.667)"/><g clip-path="url(#d)"><path d="m836.874 180.124c-9.971-11.374-19.724-22.959-29.604-34.4-2.65-3.069-5.364-6.092-8.007-9.167l-8.471 11.604 29.59 34.177 8.356 9.572.15-.201c1.835-2.462 3.676-4.932 5.421-7.458.358-.52 2.55-3.503 2.613-3.722.049-.168.083-.255-.048-.405z" fill="#9d9cff"/><path d="m819.105 124.486 21.004 62.316-5.803-2.553c.359-.52 2.551-3.503 2.614-3.722.049-.168.083-.255-.048-.404-9.972-11.375-19.724-22.96-29.604-34.401l-10.56-31.796z" fill="#f39fff"/><path d="m822.702 112.652c2.132 1.046 4.246 2.202 6.382 3.249l-9.979 8.587-22.397-10.56 10.047-8.701c5.295 2.505 10.69 4.845 15.947 7.425z" fill="#ff5e00"/><path d="m854.501 104.298c.248.341.398 2.803.462 3.425 2.339 22.666 3.676 45.452 6.033 68.118l-.055.985c-.129.283-.985.507-1.257.69-.109.074-.067.231-.077.238-2.773 1.789-6.166 3.218-9.052 4.874l-.465-4.409c-.967.675-1.909 1.473-2.784 2.261-.231.208-.421.601-.464.639-2.187 1.948-4.477 3.815-6.731 5.686l-21.004-62.315 9.98-8.588 20.887 61.503-5.917-67.305z" fill="#9d9cff"/><path d="m844.057 110.101 5.917 67.305-20.887-61.503c-2.136-1.047-4.25-2.203-6.382-3.249l-1.045-13.1135z" fill="#f39fff"/><path d="m838.951 96.7548c.372.1776.886.5742 1.351.7957 4.73 2.2528 9.524 4.3825 14.199 6.7475l-10.444 5.802-22.397-10.5601 10.52-5.8929c2.267 1.0068 4.533 2.0398 6.771 3.1078z" fill="#ff5e00"/><path d="m861.579 178.449-.116-75.66 10.676-4.4101v75.4871c-.02.266-.247.287-.421.391-1.069.639-9.097 4.022-10.139 4.192z" fill="#9d9cff"/><path d="m861.464 102.79.116 75.661c-.749.122-1.228-.547-1.973-.696.011-.007-.032-.164.077-.238.272-.183 1.128-.408 1.258-.691l.055-.984c-2.357-22.667-3.695-45.452-6.034-68.118-.064-.622-.214-3.085-.462-3.425-4.675-2.366-9.468-4.4948-14.199-6.7477-.465-.2214-.979-.618-1.351-.7956l.116-4.5257z" fill="#f39fff"/><path d="m872.139 98.3795-10.676 4.4095-22.397-10.5598 10.706-4.5056z" fill="#ff5e00"/><path d="m846.84 181.12c.043-.038.233-.431.464-.639.875-.788 1.817-1.586 2.784-2.261l.465 4.409-.225.07z" fill="#f39fff"/></g><path d="m737.494 124.172h12.36v54.96h15.12v7.92h-15.12v21.12h-8.76v-21.12h-40.44v-6.48zm-26.16 54.96h29.76v-46.56zm96.712 30.96c-24.36 0-35.52-19.68-35.52-44.04 0-24.12 11.16-43.8 35.52-43.8 24.24 0 35.4 19.68 35.4 43.8 0 24.36-11.16 44.04-35.4 44.04zm0-8.64c16.32 0 26.04-15 26.04-35.4 0-20.16-9.72-35.16-26.04-35.16-16.44 0-26.16 15-26.16 35.16 0 20.4 9.72 35.4 26.16 35.4zm78.627-77.28h12.36v54.96h15.12v7.92h-15.12v21.12h-8.76v-21.12h-40.44v-6.48zm-26.16 54.96h29.76v-46.56z" fill="#e5e5e5"/><path d="m737.494 124.172h12.36v54.96h15.12v7.92h-15.12v21.12h-8.76v-21.12h-40.44v-6.48zm-26.16 54.96h29.76v-46.56zm96.712 30.96c-24.36 0-35.52-19.68-35.52-44.04 0-24.12 11.16-43.8 35.52-43.8 24.24 0 35.4 19.68 35.4 43.8 0 24.36-11.16 44.04-35.4 44.04zm0-8.64c16.32 0 26.04-15 26.04-35.4 0-20.16-9.72-35.16-26.04-35.16-16.44 0-26.16 15-26.16 35.16 0 20.4 9.72 35.4 26.16 35.4zm78.627-77.28h12.36v54.96h15.12v7.92h-15.12v21.12h-8.76v-21.12h-40.44v-6.48zm-26.16 54.96h29.76v-46.56z" fill="#000" opacity=".2"/><g fill="#e5e5e5" opacity=".8"><path d="m790.211 195.861 26.849.68 3.09-14.025-57.21-1.509-3.597 13.81 29.533.811-.06.172-60.109 25.243v13.229l61.504-25.762z"/><path d="m759.344 194.815 29.533.811-.06.173-60.109 25.242-22.396-10.56 45.257-19.148c2.56 1.174 5.211 2.271 7.775 3.482z"/><path d="m728.708 221.041v13.229l-22.454-10.559.058-13.23z"/><path d="m796.71 171.84h1.165l22.276 10.676-57.21-1.509-22.28-10.56c.495-.214 1.464-.127 2.035-.12 17.999.215 36.008 1.389 54.014 1.513z"/><path d="m740.66 170.448 22.28 10.56-3.597 13.809c-2.564-1.21-5.215-2.307-7.775-3.481-4.932-2.261-9.749-4.809-14.728-6.976l3.587-13.831c.04-.136.183-.059.233-.081z"/><path d="m790.789 148.166 29.591 34.177-.231.172-21.965-10.47-1.476-.206 1.16-.057-29.475-34.06z"/><path d="m799.261 136.563-8.472 11.604-22.396-10.444 8.411-11.732z"/></g><g opacity=".2"><path d="m790.211 195.861 26.849.68 3.09-14.025-57.21-1.509-3.597 13.81 29.533.811-.06.172-60.109 25.243v13.229l61.504-25.762z" fill="#9d9cff"/><path d="m759.344 194.815 29.533.811-.06.173-60.109 25.242-22.396-10.56 45.257-19.148c2.56 1.174 5.211 2.271 7.775 3.482z" fill="#6e1527"/><path d="m728.708 221.041v13.229l-22.454-10.559.058-13.23z" fill="#ff5e00"/><path d="m796.71 171.84h1.165l22.276 10.676-57.21-1.509-22.28-10.56c.495-.214 1.464-.127 2.035-.12 17.999.215 36.008 1.389 54.014 1.513z" fill="#6e1527"/><path d="m740.66 170.448 22.28 10.56-3.597 13.809c-2.564-1.21-5.215-2.307-7.775-3.481-4.932-2.261-9.749-4.809-14.728-6.976l3.587-13.831c.04-.136.183-.059.233-.081z" fill="#ff5e00"/><path d="m790.789 148.166 29.591 34.177-.231.172-21.965-10.47-1.476-.206 1.16-.057-29.475-34.06z" fill="#f39fff"/><path d="m799.261 136.563-8.472 11.604-22.396-10.444 8.411-11.732z" fill="#ff5e00"/></g><path d="m770.711 302.9h2.769c1.976 0 3.575.572 3.575 2.6 0 .689-.364 1.469-1.092 1.82.897.299 1.56 1.04 1.56 2.067 0 2.028-1.599 2.613-3.575 2.613h-3.237zm2.769 1.248h-1.339v2.639h1.365c1.287 0 2.054-.273 2.054-1.313 0-1.027-.702-1.326-2.08-1.326zm.494 3.887h-1.833v2.717h1.807c1.3 0 2.093-.286 2.093-1.365 0-1.014-.793-1.352-2.067-1.352zm7.941-3.523c1.989 0 3.016 1.287 3.016 3.328v4.16h-1.404v-.988c-.39.741-1.079 1.196-2.106 1.196-1.43 0-2.509-.819-2.509-2.275 0-2.275 2.496-2.522 4.602-2.444-.078-1.053-.533-1.729-1.599-1.729-1.118 0-1.703.689-1.703 1.521h-1.482c0-1.443 1.131-2.769 3.185-2.769zm-1.547 5.343c0 .728.507 1.118 1.365 1.118 1.014 0 1.794-.663 1.794-1.846v-.65c-2.145-.104-3.159.507-3.159 1.378zm13.049-.91c-.065 1.885-1.365 3.263-3.419 3.263-2.249 0-3.718-1.586-3.718-3.835 0-2.262 1.469-3.861 3.718-3.861 1.976 0 3.328 1.469 3.393 3.068h-1.482c-.065-.884-.624-1.781-1.911-1.781-1.534 0-2.275 1.092-2.275 2.574 0 1.469.741 2.548 2.275 2.548 1.365 0 1.898-.949 1.963-1.976zm1.402-6.695h1.404v5.616l2.6-3.146h1.69l-2.405 2.899 2.704 4.381h-1.599l-1.976-3.328-1.014 1.235v2.093h-1.404zm9.68 9.698c-2.002 0-3.276-1.456-3.276-3.705 0-2.262 1.274-3.731 3.276-3.731 1.105 0 1.872.429 2.34 1.222v-1.014h1.404v6.89c0 2.054-1.339 3.198-3.224 3.198-2.314 0-3.211-1.261-3.419-2.496h1.456c.169.845.871 1.222 1.963 1.222 1.105 0 1.82-.559 1.82-1.924v-.845c-.455.741-1.196 1.183-2.34 1.183zm.195-1.274c1.43 0 2.145-.962 2.145-2.431 0-1.482-.715-2.457-2.145-2.457-1.261 0-2.028.91-2.028 2.457 0 1.534.767 2.431 2.028 2.431zm6.635-2.496v3.822h-1.404v-7.28h1.404v1.222c.273-.741.936-1.43 2.431-1.43v1.404c-1.547 0-2.431.533-2.431 2.262zm6.688 4.03c-2.249 0-3.718-1.586-3.718-3.835 0-2.262 1.469-3.861 3.718-3.861s3.718 1.599 3.718 3.861c0 2.249-1.469 3.835-3.718 3.835zm0-1.274c1.417 0 2.275-1.027 2.275-2.561 0-1.547-.858-2.587-2.275-2.587-1.43 0-2.275 1.04-2.275 2.587 0 1.534.845 2.561 2.275 2.561zm9.922-2.587v-3.627h1.404v7.28h-1.404v-1.209c-.312.728-1.014 1.417-2.405 1.417-1.404 0-2.444-.78-2.444-3.003v-4.485h1.391v4.316c0 1.183.299 1.95 1.417 1.95 1.04 0 2.041-.91 2.041-2.639zm3.086-3.627h1.404v1.196c.299-.728 1.014-1.404 2.392-1.404 1.404 0 2.457.78 2.457 3.003v4.485h-1.404v-4.316c0-1.183-.286-1.95-1.404-1.95-1.04 0-2.041.91-2.041 2.639v3.627h-1.404zm10.912 7.488c-2.002 0-3.276-1.586-3.276-3.835 0-2.262 1.274-3.861 3.276-3.861 1.118 0 1.885.494 2.34 1.326v-3.588h1.404v9.75h-1.404v-1.105c-.429.793-1.183 1.313-2.34 1.313zm.195-1.274c1.43 0 2.145-1.092 2.145-2.561 0-1.482-.715-2.587-2.145-2.587-1.261 0-2.028 1.04-2.028 2.587 0 1.534.767 2.561 2.028 2.561z" fill="#201c1d"/></g></svg>