<svg width="260" height="260" viewBox="0 0 260 260" fill="none" xmlns="http://www.w3.org/2000/svg">
<path d="M238.885 249.51H21.6208V11.002H238.885V249.51Z" fill="white"/>
<rect x="58.6821" y="11.252" width="143.142" height="237.797" stroke="#FF5E00" stroke-width="0.5" stroke-dasharray="1.1 1.1"/>
<rect x="11.5" y="11.5" width="237.506" height="237.51" rx="27.5" stroke="#FF5E00"/>
<rect x="21.8706" y="183.396" width="216.765" height="26.7266" stroke="#FF5E00" stroke-width="0.5" stroke-dasharray="1.1 1.1"/>
<rect x="21.8706" y="42.7402" width="216.765" height="167.383" stroke="#FF5E00" stroke-width="0.5" stroke-dasharray="1.1 1.1"/>
<rect x="21.6206" y="210.373" width="36.8115" height="38.9258" fill="#FF5E00" fill-opacity="0.14"/>
<rect x="21.6206" y="11" width="36.8115" height="31.4902" fill="#FF5E00" fill-opacity="0.14"/>
<rect x="202.074" y="11" width="36.8118" height="31.4902" fill="#FF5E00" fill-opacity="0.14"/>
<rect x="202.074" y="210.373" width="36.874" height="38.9258" fill="#FF5E00" fill-opacity="0.14"/>
<path d="M38.6997 194.612H39.2799L40.2308 196.101L41.1746 194.612H41.7549L40.5174 196.556L41.7758 198.527H41.1956L40.2308 197.01L39.259 198.527H38.6787L39.9371 196.556L38.6997 194.612Z" fill="#FF5E00"/>
<path d="M34.8744 230.708H36.049V226.737H34.8744V226.276H36.5733V230.708H37.7479V231.17H34.8744V230.708ZM38.0637 230.52H38.6859V231.17H38.0637V230.52ZM39.1766 229.163L39.7009 226.276H42.3226V226.737H40.1344L39.8128 228.429C40.0784 228.136 40.4839 227.884 41.0432 227.884C42.1828 227.884 42.7911 228.625 42.7911 229.583C42.7911 230.541 42.1339 231.282 40.9453 231.282C39.9526 231.282 39.1066 230.604 39.1066 229.618H39.617C39.6589 230.219 40.0784 230.778 40.9803 230.778C41.8053 230.778 42.2457 230.247 42.2457 229.562C42.2457 228.828 41.7703 228.373 40.9523 228.373C40.3301 228.373 39.8827 228.674 39.7149 229.163H39.1766ZM43.0911 227.255H43.6714L44.6222 228.744L45.566 227.255H46.1463L44.9088 229.198L46.1672 231.17H45.587L44.6222 229.653L43.6504 231.17H43.0701L44.3285 229.198L43.0911 227.255Z" fill="#FF5E00"/>
<path d="M38.3679 23.8306H38.9482L39.899 25.3197L40.8428 23.8306H41.4231L40.1856 25.7742L41.444 27.7457H40.8638L39.899 26.2286L38.9272 27.7457H38.3469L39.6053 25.7742L38.3679 23.8306Z" fill="#FF5E00"/>
<path d="M182.516 133.754L182.762 133.882L182.698 133.946L182.516 133.767C176.986 140.84 172.349 148.628 168.774 156.954C168.722 157.082 168.67 157.197 168.618 157.325C165.173 165.446 162.725 174.078 161.443 183.095C161.43 183.146 161.43 183.21 161.43 183.261C160.743 188.044 160.394 192.93 160.394 197.892C160.394 202.112 160.653 206.281 161.145 210.374L58.4327 210.374L58.4327 183.095L147.623 183.095C147.791 181.969 147.985 180.87 148.192 179.757L62.2666 157.018L69.4163 130.659L156.404 153.68C156.806 152.797 157.22 151.928 157.635 151.058L79.5709 106.552L93.3781 82.9304L172.608 128.089C173.229 127.347 173.864 126.605 174.525 125.876L109.607 61.79L129.153 42.4912L195.106 107.626L202.074 114.507C194.743 120.057 188.163 126.529 182.516 133.754Z" fill="#1D1A1B"/>
</svg>
