<svg fill="none" height="141" width="596" xmlns="http://www.w3.org/2000/svg"><path d="m136.027 107h-20.026c-.6 0-1.001.401-1.001 1.003v31.392c0 .602.401 1.003 1.001 1.003h4.806c.601 0 1.002-.401 1.002-1.003v-12.236h12.015c.601 0 1.001-.401 1.001-1.003v-4.312c0-.602-.4-1.003-1.001-1.003h-12.015v-7.522h14.318c.601 0 1.001-.402 1.001-1.003v-4.313c-.1-.502-.6-1.003-1.101-1.003zm52.467 19.157c1.502-.602 2.804-1.605 3.905-2.909 1.302-1.604 1.902-3.61 1.902-6.017 0-1.906-.4-3.711-1.301-5.216-.901-1.504-2.203-2.808-3.805-3.61-1.602-.903-3.505-1.304-5.607-1.304h-12.216c-.601 0-1.001.401-1.001 1.003v31.392c0 .602.4 1.003 1.001 1.003h4.806c.601 0 1.002-.401 1.002-1.003v-12.236h4.305l6.308 12.637c.2.301.501.602.901.602h5.507c.301 0 .701-.2.901-.501a.91.91 0 0 0 0-1.003zm-11.314-12.838h6.007c1.402 0 2.403.301 3.204 1.103.801.702 1.102 1.605 1.102 2.909 0 1.203-.401 2.106-1.102 2.808-.801.702-1.802 1.103-3.204 1.103h-6.007zm55.571-6.318h-22.029c-.6 0-1.001.401-1.001 1.003v4.312c0 .602.401 1.003 1.001 1.003h7.61v26.077c0 .602.401 1.003 1.001 1.003h4.706c.601 0 1.002-.401 1.002-1.003v-26.077h7.609c.601 0 1.002-.401 1.002-1.003v-4.312c.1-.502-.401-1.003-.901-1.003zm26.433 0h-20.025c-.601 0-1.001.401-1.001 1.003v31.392c0 .602.4 1.003 1.001 1.003h20.025c.601 0 1.002-.401 1.002-1.003v-4.313c0-.602-.401-1.003-1.002-1.003h-14.318v-7.422h12.016c.6 0 1.001-.401 1.001-1.003v-4.212c0-.602-.401-1.003-1.001-1.003h-12.016v-7.121h14.318c.601 0 1.002-.401 1.002-1.003v-4.312c0-.502-.501-1.003-1.002-1.003zm21.428.702a.961.961 0 0 0 -.901-.702h-3.805a.96.96 0 0 0 -.901.702l-11.515 31.392c-.1.301-.1.602.1.903s.501.401.801.401h5.107c.4 0 .801-.301.901-.702l1.902-5.617h10.914l1.903 5.617c.1.401.5.702.901.702h5.106c.301 0 .601-.201.801-.401.201-.301.201-.602.1-.903zm.601 20.36h-6.809l3.504-9.829zm43.555-21.062h-4.806c-.4 0-.701.2-.901.601l-8.01 17.552-8.211-17.552c-.2-.401-.5-.601-.901-.601h-4.806c-.601 0-1.001.401-1.001 1.003v31.392c0 .602.4 1.003 1.001 1.003h4.806c.601 0 1.001-.401 1.001-1.003v-16.549l5.507 11.334c.201.3.501.601.902.601h3.504c.401 0 .701-.2.901-.601l5.307-11.233v16.548c0 .602.401 1.003 1.001 1.003h4.807c.6 0 1.001-.401 1.001-1.003v-31.392c-.1-.602-.501-1.103-1.102-1.103zm26.935 16.348c-.701-.702-1.602-1.204-2.604-1.605-1.001-.401-2.202-.702-3.704-.903l-3.605-.501c-.601-.1-1.201-.201-1.802-.502-.501-.2-1.001-.501-1.202-.702-.6-.501-.801-1.203-.801-2.206 0-.803.2-1.404.501-2.006.4-.602.901-1.003 1.502-1.304.701-.301 1.602-.501 2.603-.501.901 0 1.702.1 2.403.2s1.402.401 2.003.702a6.785 6.785 0 0 1 1.802 1.304.967.967 0 0 0 1.402 0l3.104-3.009c.2-.2.3-.501.3-.702 0-.301-.1-.501-.3-.702-1.402-1.304-3.004-2.307-4.606-2.908-1.602-.602-3.605-.903-5.807-.903-2.303 0-4.306.401-6.008 1.203a9.366 9.366 0 0 0 -4.005 3.611c-.901 1.504-1.402 3.31-1.402 5.316 0 2.808.901 5.115 2.603 6.719 1.602 1.505 3.705 2.408 6.509 2.809l3.704.501c.801.1 1.502.301 1.903.401.4.101.701.301 1.001.702.601.502.901 1.405.901 2.508 0 1.203-.4 2.106-1.301 2.708-1.002.702-2.404 1.103-4.206 1.103-1.001 0-2.002-.1-2.803-.301-.801-.2-1.602-.501-2.404-.903a9.782 9.782 0 0 1 -2.102-1.604c-.2-.201-.401-.301-.701-.301s-.501.1-.701.301l-3.204 3.109c-.2.2-.3.401-.3.702s.1.501.3.702c1.602 1.605 3.304 2.708 5.207 3.41 1.902.702 4.105 1.003 6.608 1.003 1.702 0 3.404-.201 4.806-.702a10.315 10.315 0 0 0 3.905-2.006c1.102-.903 2.003-2.006 2.603-3.31.601-1.304.902-2.708.902-4.212-.1-3.21-1.102-5.617-3.004-7.221zm-198.302-16.645a12.197 12.197 0 0 0 -9.086 3.706c-3.315 3.34-3.315 7.53-3.315 12.83v.92c0 5.3 0 9.521 3.315 12.83a12.234 12.234 0 0 0 4.159 2.809c1.563.638 3.241.943 4.927.896a12.104 12.104 0 0 0 4.904-.9 12.19 12.19 0 0 0 4.135-2.805c3.362-3.388 3.362-7.45 3.362-13.06v-.444c0-5.618 0-9.672-3.362-13.06a12.174 12.174 0 0 0 -4.134-2.813 12.11 12.11 0 0 0 -4.905-.909zm-3.63 8.284a4.772 4.772 0 0 1 3.63-1.523 4.586 4.586 0 0 1 1.954.365c.617.263 1.17.658 1.621 1.158 1.094 1.222 1.433 2.579 1.433 8.728s-.339 7.466-1.449 8.728c-.449.502-1.002.9-1.619 1.164a4.563 4.563 0 0 1 -1.956.367 4.744 4.744 0 0 1 -3.637-1.539c-1.055-1.183-1.386-2.539-1.386-8.688 0-6.15.346-7.522 1.409-8.76z" fill="#f48024"/><path d="m84.021 75.995v31h-73.021v-31h-11v42h95v-42z" fill="#bcbbbb"/><path d="m21.057 96.995h52.943v-10h-52.943zm1.058-23.915 51.428 10.794 2.117-10.265-51.43-10.794zm6.773-24.656 47.618 22.222 4.445-9.524-47.621-22.222-4.444 9.524zm13.227-23.386 40.423 33.65 6.773-8.042-40.53-33.65zm26.032-24.868-8.467 6.243 31.323 42.223 8.465-6.244z" fill="#f48024"/><path d="m135.965 73.416-6.753-.614c-5.321-.41-7.367-2.592-7.367-6.14 0-4.297 3.274-6.958 9.414-6.958 4.365 0 8.185 1.024 11.187 3.343l4.025-4.025c-3.752-3.07-9.141-4.502-15.144-4.502-9.005 0-15.485 4.639-15.485 12.347 0 6.958 4.366 10.642 12.551 11.324l6.958.614c4.844.41 7.027 2.456 7.027 6.14 0 4.979-4.298 7.435-11.188 7.435-5.252 0-9.754-1.365-13.097-4.844l-4.093 4.094c4.639 4.434 10.164 6.072 17.259 6.072 10.164 0 17.122-4.707 17.122-12.825 0-7.913-5.048-10.778-12.416-11.46zm52.663-18.896c-6.753 0-10.983 1.364-14.735 6.071-.068.068 4.025 4.025 4.025 4.025 2.456-3.479 5.253-4.775 10.642-4.775 7.708 0 10.778 3.07 10.778 9.209v4.025h-12.688c-9.414 0-14.53 4.775-14.53 12.142 0 3.343 1.091 6.48 3.138 8.527 2.66 2.729 6.071 3.82 11.869 3.82 5.662 0 8.732-1.091 12.143-4.502v4.025h6.139v-28.583c.068-9.072-5.457-13.984-16.781-13.984zm10.71 27.696c0 3.479-.682 5.934-2.115 7.299-2.66 2.592-5.798 2.796-9.414 2.796-6.685 0-9.686-2.319-9.686-7.162 0-4.844 3.069-7.436 9.413-7.436h11.802zm30.287-22.239c4.025 0 6.481 1.228 9.687 4.707l4.093-4.025c-4.298-4.638-7.981-6.139-13.78-6.139-10.641 0-18.622 7.163-18.622 21.556 0 14.394 8.049 21.556 18.622 21.556 5.799 0 9.482-1.569 13.848-6.276l-4.161-4.024c-3.138 3.479-5.662 4.775-9.687 4.775-4.092 0-7.503-1.637-9.754-4.775-1.979-2.729-2.729-6.003-2.729-11.324 0-5.32.75-8.527 2.729-11.324 2.251-3.07 5.662-4.707 9.754-4.707zm52.731-4.98h-7.708l-19.101 18.555v-37.314h-6.139v60.917h6.139v-15.349l7.504-7.503 14.121 22.852h7.64l-17.463-27.15 15.007-15.007zm28.992-2.182c-6.481 0-10.847 2.524-13.575 5.389-3.957 4.093-4.98 9.072-4.98 16.985 0 7.982 1.023 12.961 4.98 17.054 2.66 2.865 7.094 5.39 13.575 5.39 6.48 0 10.914-2.525 13.643-5.39 3.956-4.093 4.98-9.072 4.98-17.054 0-7.913-1.024-12.892-4.98-16.985-2.729-2.865-7.163-5.39-13.643-5.39zm5.116 33.016c-1.296 1.296-2.933 1.91-5.116 1.91s-3.82-.682-5.048-1.91c-2.251-2.251-2.524-6.14-2.524-10.71s.273-8.322 2.524-10.573c1.296-1.296 2.865-1.91 5.048-1.91s3.888.682 5.116 1.91c2.251 2.25 2.524 6.07 2.524 10.573 0 4.57-.273 8.459-2.524 10.71zm42.566-32.539-8.868 27.082-8.936-27.082h-11.46l16.167 43.863h8.595l16.099-43.863zm30.152-.477c-11.392 0-19.101 8.05-19.101 22.374 0 17.736 9.96 22.443 20.26 22.443 7.913 0 12.211-2.456 16.645-6.89l-6.617-6.48c-2.797 2.797-5.116 4.093-9.959 4.093-6.14 0-9.619-4.093-9.619-9.755h27.423v-4.91c.068-12.006-6.822-20.874-19.032-20.874zm-8.323 18.281c.069-1.91.342-3.138 1.024-4.706 1.159-2.593 3.615-4.57 7.299-4.57 3.683 0 6.139 1.91 7.299 4.57.682 1.569.955 2.796 1.023 4.706zm43.59-13.575v-4.229h-10.71v43.863h10.915v-26.4c0-5.525 3.683-8.05 7.094-8.05 2.661 0 4.093.888 5.799 2.593l8.254-8.322c-3.002-3.002-6.072-4.093-10.369-4.093-4.639-.068-8.868 2.114-10.983 4.639zm24.762-8.8v48.366h10.915v-34.587h8.118v-8.32h-8.05v-4.775c0-2.524 1.296-3.957 3.888-3.957h4.23v-9.278h-6.208c-9.004 0-12.893 6.344-12.893 12.552zm64.055 4.094c-6.481 0-10.846 2.524-13.575 5.389-3.957 4.093-4.98 9.072-4.98 16.985 0 7.982 1.023 12.961 4.98 17.054 2.66 2.865 7.094 5.39 13.575 5.39 6.48 0 10.914-2.525 13.643-5.39 3.957-4.093 4.98-9.072 4.98-17.054 0-7.913-1.023-12.892-4.98-16.985-2.66-2.865-7.163-5.39-13.643-5.39zm5.184 33.016c-1.296 1.296-2.933 1.91-5.116 1.91s-3.82-.682-5.048-1.91c-2.251-2.251-2.524-6.14-2.524-10.71s.273-8.322 2.524-10.573c1.296-1.296 2.865-1.91 5.048-1.91s3.888.682 5.116 1.91c2.251 2.25 2.524 6.07 2.524 10.573 0 4.57-.273 8.459-2.524 10.71zm65.146-32.539-7.094 27.082-9.005-27.082h-7.981l-8.936 27.082-7.095-27.082h-11.596l13.438 43.863h9.005l9.141-27.491 9.14 27.49h9.005l13.507-43.862zm-99.185 30.629v-47.751h-10.915v48.433c0 6.208 3.82 12.552 12.825 12.552h6.207v-9.278h-4.229c-2.797 0-3.888-1.364-3.888-3.956zm-318.976-22.238 5.661-5.662h-11.664v-13.916h-6.14v43.725c0 6.276 3.616 11.324 10.778 11.324h4.366v-5.321h-3.274c-3.957 0-5.73-2.32-5.73-6.14v-24.009h6.003z" fill="#222426"/></svg>