<svg width="470" height="118" fill="none" xmlns="http://www.w3.org/2000/svg"><path fill="#D6D9DC" d="M150.054 41.83H153.27V96.506H150.054z"/><path d="M84.021 75.825v31H11v-31H0v42h95v-42H84.021z" fill="#BCBBBB"/><path d="M21.057 96.825H74v-10H21.057v10zm1.058-23.915l51.429 10.794 2.116-10.265-51.428-10.794-2.117 10.265zm6.773-24.656l47.619 22.222 4.444-9.524L33.332 38.73l-4.444 9.524zm13.227-23.386l40.423 33.65 6.773-8.042-40.53-33.65-6.666 8.042zM68.147 0L59.68 6.243l31.323 42.222 8.465-6.243L68.147 0z" fill="#F48024"/><path d="M245.7 51.973v-6.979c0-1.163-.831-1.994-1.994-1.994h-35.713c-1.162 0-1.993.83-1.993 1.994v6.979c0 1.163.831 1.994 1.993 1.994h11.96V95.84c0 1.163.831 1.994 1.993 1.994h7.641c1.163 0 1.994-.831 1.994-1.994V53.967h11.959c1.329 0 2.16-.831 2.16-1.994zm24.916-7.477c-.332-.831-.997-1.33-1.827-1.33h-6.146c-.831 0-1.495.499-1.827 1.33L242.212 95.34c-.167.665-.167 1.33.166 1.828.332.499.996.831 1.661.831h8.139c.831 0 1.661-.499 1.827-1.33l2.99-8.806h17.275l2.99 8.807c.332.83.997 1.329 1.827 1.329h8.14c.664 0 1.329-.332 1.661-.83.332-.5.498-1.164.166-1.829l-18.438-50.845zm-9.967 32.734l5.15-14.457 4.983 14.457h-10.133zm68.437 9.803h-22.591V45.16c0-1.163-.83-1.994-1.993-1.994h-7.641c-1.163 0-1.993.831-1.993 1.994v50.846c0 1.163.83 1.994 1.993 1.994h32.225c1.163 0 1.993-.83 1.993-1.994v-6.979c0-.997-.83-1.994-1.993-1.994zm42.69-43.867h-32.558c-1.162 0-1.993.831-1.993 1.994v50.846c0 1.163.831 1.994 1.993 1.994h32.558c1.162 0 1.993-.83 1.993-1.994v-6.979c0-1.163-.831-1.994-1.993-1.994h-22.757V75.734h19.102c1.163 0 1.994-.83 1.994-1.994v-6.813c0-1.163-.831-1.994-1.994-1.994h-19.102V53.967h22.757c1.162 0 1.993-.831 1.993-1.994v-6.979c0-.997-.831-1.828-1.993-1.828zm49.5 0h-7.641c-1.163 0-1.994.831-1.994 1.994V74.24l-19.932-30.242c-.333-.498-.997-.83-1.662-.83h-7.142c-1.163 0-1.994.83-1.994 1.993v50.846c0 1.163.831 1.994 1.994 1.994h7.641c1.163 0 1.993-.83 1.993-1.994V66.927l19.933 30.242c.332.499.997.831 1.661.831h7.143c1.162 0 1.993-.83 1.993-1.994V45.16c0-1.163-.831-1.994-1.993-1.994zm46.012 0h-35.714c-1.162 0-1.993.831-1.993 1.994v6.979c0 1.163.831 1.994 1.993 1.994h11.96v41.873c0 1.163.831 1.994 1.993 1.994h7.641c1.163 0 1.994-.83 1.994-1.994V54.133h11.959c1.163 0 1.994-.83 1.994-1.994V45.16c.166-1.163-.665-1.994-1.827-1.994z" fill="#2F3337"/></svg>