<svg fill="none" height="118" viewBox="0 0 700 118" width="700" xmlns="http://www.w3.org/2000/svg"><path d="m84.0211 75.8252v30.9998h-73.0211v-30.9998h-11v41.9998h95v-41.9998z" fill="#bcbbbb"/><path d="m21.0566 96.8252h52.9432v-10h-52.9432zm1.0582-23.9153 51.4286 10.7936 2.1164-10.2645-51.4286-10.7936zm6.7725-24.656 47.619 22.2222 4.4445-9.5238-47.619-22.2222zm13.2275-23.3862 40.4233 33.6507 6.7724-8.0423-40.529-33.6507zm26.0317-24.8677-8.4656 6.24337 31.3228 42.22213 8.4656-6.2434z" fill="#f48024"/><path d="m150.054 41.8301h3.216v54.6757h-3.216z" fill="#d6d9dc"/><path d="m699.25 42.3125v-16.0125h-3.562l-4.575 8.55-4.575-8.55h-3.563v16.0125h3.563v-9.45l3 5.8875h3.15l3-5.8875v9.45zm-18.75-12.825v-3.1875h-11.812v3.1875h4.124v12.825h3.563v-12.825z" fill="#858585" opacity=".3"/><g fill="#2f3337"><path d="m245.564 77.4674h-7.673c-.799 0-1.439.4793-1.598 1.2781-.32 1.4379-.96 2.8758-1.759 3.9941-.799 1.1184-1.758 1.9172-2.877 2.5562-1.119.6391-2.557.9586-3.996.9586-1.279 0-2.398-.1598-3.517-.6391-1.119-.4792-2.078-1.1183-2.717-1.7573-.639-.6391-.959-1.4379-1.279-1.9172-.319-.6391-.479-1.4379-.799-2.5562-.16-1.1184-.32-2.5562-.48-3.9941 0-1.4379-.159-3.5148-.159-6.2308 0-2.7159 0-4.7929.159-6.2307 0-1.4379.16-2.716.48-3.9941.16-1.1184.48-1.9172.799-2.5562.32-.6391.64-1.2781 1.279-1.9172.799-.7988 1.598-1.4379 2.717-1.7574 1.119-.4793 2.238-.639 3.517-.639 2.238 0 4.156.639 5.594 1.9171 1.439 1.2781 2.398 3.0355 3.038 5.432.159.7988.799 1.2781 1.598 1.2781h7.832c.48 0 .959-.1598 1.279-.6391.32-.3195.48-.7988.32-1.2781-.959-5.2722-3.197-9.426-6.554-12.3018-3.516-2.8757-7.832-4.3136-12.787-4.3136-2.718 0-5.435.4793-7.833 1.4379-2.717.7988-4.955 2.2367-6.873 4.1538-1.279 1.4379-2.238 2.8758-3.037 4.3137-.64 1.2781-1.279 2.8757-1.599 4.4733-.319 1.5977-.479 3.3551-.639 5.1125v7.3491c0 3.994.16 7.0296.32 9.2662.16 2.2367.639 4.3136 1.438 6.3906.8 2.0769 2.078 3.8343 3.677 5.7514 1.119 1.1184 2.557 2.2367 4.156 3.1953 1.598.9586 3.197 1.5976 4.795 2.0769s3.517.6391 5.275.6391c2.398 0 4.795-.3195 6.873-1.1184 2.238-.7988 4.156-1.7573 5.914-3.1952 1.759-1.4379 3.197-3.1953 4.316-5.2722s1.918-4.4734 2.398-7.1894c0-.4792 0-.9585-.32-1.2781-.479-.639-.959-.7988-1.278-.7988z"/><path d="m291.599 53.503c-.799-2.077-1.918-3.9941-3.677-5.7515-3.996-3.8343-8.791-5.7515-14.386-5.7515-5.594 0-10.39 1.9172-14.226 5.7515-1.279 1.2781-2.397 2.716-3.037 4.1538-.639 1.4379-1.279 3.0355-1.598 4.6332-.32 1.5976-.48 3.355-.64 5.1124s-.16 4.3136-.16 7.3491c0 3.9941.16 7.0296.32 9.2663s.64 4.3136 1.439 6.3905 2.078 3.8343 3.676 5.7515c3.836 3.8343 8.632 5.7515 14.226 5.7515 5.595 0 10.39-1.9172 14.386-5.9113 1.599-1.7574 2.878-3.6745 3.677-5.7515.799-1.9171 1.119-4.1538 1.279-6.3905.159-2.0769.159-5.2722.159-9.2663 0-3.994 0-7.0296-.159-9.2662-.16-2.077-.64-4.1539-1.279-6.071zm-9.271 15.497c0 3.1953 0 5.7515-.16 7.6686-.16 1.7574-.32 3.1953-.799 4.1539-.32.9586-.799 1.7574-1.599 2.5562-1.598 1.7574-3.676 2.5562-6.234 2.5562-1.278 0-2.397-.1598-3.516-.639-1.119-.4793-2.078-1.1184-2.718-1.7574-.639-.6391-1.118-1.2781-1.278-1.9172-.16-.3195-.48-1.1183-.64-2.3965-.16-1.1183-.319-2.3964-.479-3.994 0-1.5977-.16-3.6746-.16-6.2308 0-4.7929.16-8.3077.479-10.2249.32-1.7573.96-3.1952 1.919-4.3136.639-.7988 1.598-1.4378 2.717-1.9171s2.398-.6391 3.517-.6391c1.278 0 2.397.3196 3.516.6391 1.119.4793 2.078 1.1183 2.717 1.9171.96 1.1184 1.599 2.3965 1.919 4.1539.639 2.0769.799 5.5917.799 10.3846z"/><path d="m335.396 85.6154h-22.538v-41.5385c0-.9585-.639-1.5976-1.598-1.5976h-7.673c-.959 0-1.598.6391-1.598 1.5976v50.006c0 .9585.639 1.5976 1.598 1.5976h31.809c.959 0 1.599-.6391 1.599-1.5976v-6.8699c0-.7988-.64-1.5976-1.599-1.5976z"/><path d="m377.435 85.6154h-22.538v-41.5385c0-.9585-.639-1.5976-1.598-1.5976h-7.673c-.959 0-1.598.6391-1.598 1.5976v50.006c0 .9585.639 1.5976 1.598 1.5976h31.809c.959 0 1.599-.6391 1.599-1.5976v-6.8699c0-.7988-.799-1.5976-1.599-1.5976z"/><path d="m419.634 42.4793h-31.969c-.959 0-1.598.6391-1.598 1.5976v50.006c0 .9585.639 1.5976 1.598 1.5976h31.969c.959 0 1.599-.6391 1.599-1.5976v-6.8699c0-.9585-.64-1.5976-1.599-1.5976h-22.858v-11.8225h19.182c.959 0 1.598-.639 1.598-1.5976v-6.7101c0-.9586-.639-1.5976-1.598-1.5976h-19.182v-11.503h22.858c.959 0 1.599-.639 1.599-1.5976v-6.7101c0-.9585-.799-1.5976-1.599-1.5976z"/><path d="m464.391 77.4675h-7.673c-.799 0-1.438.4792-1.598 1.2781-.32 1.4378-.959 2.8757-1.758 3.994-.8 1.1184-1.759 1.9172-2.878 2.5563-1.118.639-2.557.9585-3.996.9585-1.278 0-2.397-.1597-3.516-.639s-2.078-1.1184-2.718-1.7574c-.639-.6391-.959-1.4379-1.278-1.9172-.32-.639-.48-1.4378-.8-2.5562-.159-1.1183-.319-2.5562-.479-3.9941 0-1.4378-.16-3.5148-.16-6.2307 0-2.716 0-4.7929.16-6.2308 0-1.4379.16-2.716.479-3.9941.16-1.1183.48-1.9172.8-2.5562.319-.6391.799-1.2781 1.278-1.7574.8-.7988 1.599-1.4379 2.718-1.7574 1.119-.4793 2.238-.6391 3.516-.6391 2.238 0 4.156.6391 5.595 1.9172s2.398 3.0355 3.037 5.432c.16.7988.799 1.2781 1.598 1.2781h7.833c.479 0 .959-.1598 1.279-.6391.319-.3195.479-.7988.319-1.2781-.959-5.2722-3.197-9.426-6.553-12.3018-3.517-2.8757-7.833-4.3136-12.788-4.3136-2.717 0-5.435.4793-7.832 1.4379-2.398.9586-4.636 2.3964-6.554 4.3136-1.279 1.2781-2.398 2.716-3.037 4.1538-.639 1.4379-1.279 3.0356-1.598 4.6332-.32 1.5976-.48 3.355-.64 5.1124s-.16 4.3136-.16 7.3491c0 3.9941.16 7.0296.32 9.2663s.639 4.3136 1.439 6.3905c.799 2.077 2.078 3.8343 3.676 5.7515 1.119 1.1184 2.558 2.2367 4.156 3.1953s3.197 1.5976 4.795 2.0769c1.599.4793 3.517.6391 5.275.6391 2.398 0 4.796-.3196 6.874-1.1184 2.237-.7988 4.156-1.7574 5.914-3.1953 1.758-1.4378 3.197-3.1952 4.316-5.2721 1.119-2.077 1.918-4.4734 2.397-7.1894 0-.4793 0-.9586-.319-1.2781-.48-.9586-.959-1.1183-1.439-1.1183z"/><path d="m507.069 42.4793h-35.165c-.959 0-1.599.6391-1.599 1.5976v6.8699c0 .9585.64 1.5976 1.599 1.5976h12.148v41.5385c0 .9585.639 1.5976 1.598 1.5976h7.513c.959 0 1.598-.6391 1.598-1.5976v-41.5385h12.149c.959 0 1.598-.6391 1.598-1.5976v-6.8699c.16-.9585-.639-1.5976-1.439-1.5976z"/><path d="m524.812 42.4793h-7.673c-.959 0-1.598.6391-1.598 1.5976v50.006c0 .9585.639 1.5976 1.598 1.5976h7.673c.959 0 1.598-.6391 1.598-1.5976v-50.006c0-.9585-.639-1.5976-1.598-1.5976z"/><path d="m573.245 42.4793h-7.992c-.639 0-1.279.4793-1.598 1.1184l-10.071 31.6331-9.91-31.6331c-.16-.6391-.799-1.1184-1.598-1.1184h-7.833c-.479 0-.959.3195-1.278.6391-.32.3195-.32.9585-.16 1.4378l16.464 50.006c.16.639.799 1.1183 1.598 1.1183h5.914c.64 0 1.279-.4793 1.439-1.1183l16.624-50.006c.16-.4793 0-.9585-.16-1.4378-.48-.4793-.959-.6391-1.439-.6391z"/><path d="m614.645 42.4793h-31.969c-.959 0-1.598.6391-1.598 1.5976v50.006c0 .9585.639 1.5976 1.598 1.5976h31.969c.959 0 1.598-.6391 1.598-1.5976v-6.8699c0-.9585-.639-1.5976-1.598-1.5976h-22.858v-11.8225h19.182c.959 0 1.598-.639 1.598-1.5976v-6.7101c0-.9586-.639-1.5976-1.598-1.5976h-19.182v-11.503h22.858c.959 0 1.598-.639 1.598-1.5976v-6.7101c0-.9585-.639-1.5976-1.598-1.5976z"/><path d="m656.364 68.361c-1.119-1.1184-2.557-1.9172-4.156-2.5562-1.598-.6391-3.516-1.1184-5.914-1.4379l-5.754-.7988c-.959-.1598-1.918-.3196-2.878-.7989-.799-.3195-1.598-.7988-1.918-1.1183-.959-.7988-1.278-1.9172-1.278-3.5148 0-1.2781.319-2.2367.799-3.1953.639-.9585 1.438-1.5976 2.397-2.0769 1.119-.4793 2.558-.7988 4.156-.7988 1.439 0 2.718.1598 3.837.3195 1.119.1598 2.078.6391 3.197 1.1184.959.4793 1.918 1.1183 2.877 2.0769.639.6391 1.598.6391 2.238 0l4.955-4.7929c.32-.3195.479-.7988.479-1.1183 0-.4793-.159-.7989-.479-1.1184-2.238-2.0769-4.796-3.6745-7.353-4.6331-2.558-.9586-5.754-1.4379-9.271-1.4379-3.676 0-6.873.6391-9.591 1.9172-2.717 1.2781-4.955 3.355-6.393 5.7514-1.439 2.3965-2.238 5.2722-2.238 8.4675 0 4.4734 1.438 8.1479 4.156 10.7041 2.557 2.3965 5.914 3.8344 10.39 4.4734l5.914.7988c1.279.1598 2.397.4793 3.037.6391.639.1598 1.119.4793 1.598 1.1183.959.7988 1.439 2.2367 1.439 3.9941 0 1.9172-.639 3.355-2.078 4.3136-1.599 1.1184-3.836 1.7574-6.714 1.7574-1.598 0-3.196-.1597-4.475-.4793-1.279-.3195-2.558-.7988-3.836-1.4378-1.119-.6391-2.238-1.4379-3.357-2.5563-.32-.3195-.64-.4792-1.119-.4792-.48 0-.799.1597-1.119.4792l-5.115 4.9527c-.32.3195-.48.6391-.48 1.1184 0 .4792.16.7988.48 1.1183 2.557 2.5562 5.275 4.3136 8.312 5.432 3.037 1.1183 6.553 1.5976 10.55 1.5976 2.717 0 5.434-.3195 7.672-1.1184 2.398-.639 4.476-1.7574 6.234-3.1952 1.758-1.4379 3.197-3.1953 4.156-5.2722s1.439-4.3136 1.439-6.7101c-.16-4.9526-1.759-8.787-4.796-11.5029z"/></g></svg>