<svg xmlns="http://www.w3.org/2000/svg" xmlns:xlink="http://www.w3.org/1999/xlink" viewBox="0 0 504 144"><style>.Arched_x0020_Green{fill:url(#SVGID_1_);stroke:#fff;stroke-width:.25;stroke-miterlimit:1}.st0{clip-path:url(#SVGID_3_)}.st1{fill:#121210}.st2{fill:#2eace3}</style><linearGradient id="SVGID_1_" gradientUnits="userSpaceOnUse" y1="144" x2=".71" y2="143.29"><stop offset="0" stop-color="#20ac4b"/><stop offset=".98" stop-color="#19361a"/></linearGradient><defs><path id="SVGID_2_" d="M29.3 34.8h442.2v97.4H29.3z"/></defs><clipPath id="SVGID_3_"><use xlink:href="#SVGID_2_" overflow="visible"/></clipPath><g id="g2466" class="st0"><g id="g2472" transform="translate(11.886 11.523)"><path id="path2474" class="st1" d="M36.8 101.9H18.5c-.7 0-1.1-.2-1.1-.8V24.2c0-.6.4-.9 1.1-.9h18.2c.7 0 1.2.3 1.2.9V29c0 .7-.4.9-1.1.9h-8.2c-1 0-1.4.4-1.4 1v63.6c0 .7.4.9 1.2.9h8.2c.7 0 1.2.3 1.2.8v4.8c.1.6-.3.9-1 .9"/></g><g id="g2476" transform="translate(37.549 30.591)"><path id="path2478" class="st2" d="M53 51.7c-4.8 1.4-8.2 4.2-8.2 8.9V74c0 10-9.5 8.9-21.4 8.9h-1.9c-.7 0-1.2-.3-1.2-.9v-4.6c0-.7.4-.9 1.1-.9H23c7 0 12 1.5 12-4.1V59.6c0-4 2.7-9.4 8.3-11.4.4-.1.5-.3.5-.5s-.1-.5-.5-.7c-5.1-2.3-8.3-6-8.3-10.6V21.9c0-5.6-4.9-11.2-12-11.2h-1.5c-.7 0-1.1-.3-1.1-.9V5.2c0-.7.5-.9 1.2-.9h1.9C35.4 4.2 45 12.7 45 22.7v12.2c0 4.6 3.3 7.3 8.3 9 1.9.6 2.8.7 2.8 2.1v3.9c0 .8-.9 1.2-3.1 1.8"/></g><g id="g2480" transform="translate(23.003 38.914)"><path id="path2482" class="st1" d="M43.8 29.8c0 1.1-1 2-2.2 2h-4.8c-1.2 0-2.2-.9-2.2-2v-4.4c0-1.1 1-2 2.2-2h4.8c1.2 0 2.2.9 2.2 2v4.4z"/></g><g id="g2484" transform="translate(57.26 11.456)"><path id="path2486" class="st1" d="M65.5 102.1c-7 0-12.4-1.7-17-6.2l4-4.2c3.3 3.6 7.7 5 12.9 5 6.8 0 11-2.5 11-7.6 0-3.8-2.1-5.9-6.9-6.3l-6.8-.6c-8.1-.7-12.4-4.5-12.4-11.5 0-7.9 6.4-12.6 15.2-12.6 5.9 0 11.2 1.5 14.9 4.6l-4 4.1c-2.9-2.4-6.7-3.4-11-3.4-6.1 0-9.3 2.7-9.3 7.1 0 3.7 2 5.9 7.2 6.3l6.6.6c7.4.7 12.4 3.6 12.4 11.6 0 8.3-6.8 13.1-16.8 13.1"/></g><g id="g2488" transform="translate(88.28 11.777)"><path id="path2490" class="st1" d="M85.1 101.3v-4.8c-2.9 3.5-7.1 5.3-11.7 5.3-4.5 0-8.2-1.4-10.7-4-2.9-3-4.2-7.1-4.2-12.1V58.3h6.1v26.5c0 7.6 3.9 11.4 10.1 11.4 6.2 0 10.3-3.9 10.3-11.4V58.3h6v43h-5.9z"/></g><g id="g2492" transform="translate(108.736 35.006)"><path id="path2494" class="st1" d="M98 40.1c-9 0-10.4 8-10.4 16.4C87.6 64.9 89 73 98 73s10.3-8 10.3-16.4c0-8.4-1.3-16.5-10.3-16.5m11.3 34.7c-2.2 2.3-5.9 3.8-10.1 3.8-4.5 0-8.3-1.1-11.7-5.6v24.3h-6.1V35.1h6.1v5.1c3.4-4.5 7.1-5.6 11.7-5.6 4.2 0 7.9 1.5 10.1 3.8 4.2 4.4 5 11.5 5 18.3.1 6.6-.8 13.7-5 18.1"/></g><g id="g2496" transform="translate(139.088 31.207)"><path id="path2498" class="st1" d="M117.2 50.1c-1.6-3.9-5.3-6.5-9.7-6.5-4.4 0-8.1 2.5-9.7 6.5-.9 2.4-1.1 3.7-1.3 7.2h21.9c-.1-3.5-.3-4.8-1.2-7.2M96.6 62c0 9.4 4.3 14.8 12.2 14.8 4.8 0 7.6-1.5 10.8-4.9l4.1 3.8c-4.2 4.4-8.1 6.6-15.1 6.6-10.9 0-18.1-6.8-18.1-22 0-13.9 6.5-22 17-22 10.7 0 17 8 17 20.8V62H96.6z"/></g><g id="g2500" transform="translate(163.05 33.081)"><path id="path2502" class="st1" d="M132.3 45.2c-2.3-2.4-4-3.1-7.1-3.1-6.1 0-9.9 5-9.9 11.5V80h-6V37h6v5.2c2.3-3.6 6.8-5.8 11.6-5.8 4 0 7 1 9.9 4l-4.5 4.8z"/></g><g id="g2504" transform="translate(185.264 11.339)"><path id="path2506" class="st1" d="M146.3 102.4v-4c-2.9 3-6.9 4.5-10.9 4.5-4.4 0-7.9-1.4-10.3-3.9-3.5-3.5-4.5-7.7-4.5-12.4v-28h10.9v26.5c0 6 3.8 8 7.2 8 3.5 0 7.3-2 7.3-8V58.6h11v43.8h-10.7z"/></g><g id="g2508" transform="translate(207.709 11.029)"><path id="path2510" class="st1" d="M160.5 103.2c-6.9 0-13.1-.8-18.7-6.3l7.1-7.1c3.6 3.6 8.3 4.1 11.7 4.1 3.8 0 7.7-1.3 7.7-4.5 0-2.2-1.2-3.7-4.6-4l-6.9-.7c-7.9-.8-12.8-4.2-12.8-12.3 0-9.1 8-14 16.9-14 6.8 0 12.5 1.2 16.7 5.1l-6.7 6.8c-2.5-2.3-6.4-2.9-10.2-2.9-4.4 0-6.2 2-6.2 4.2 0 1.6.7 3.4 4.5 3.8l6.9.7c8.7.8 13 5.5 13 12.9.2 9.6-8 14.2-18.4 14.2"/></g><g id="g2512" transform="translate(239.307 30.148)"><path id="path2514" class="st1" d="M180.5 52.9c-1.2-2.6-3.6-4.5-7.3-4.5-3.7 0-6.1 1.9-7.3 4.5-.7 1.6-.9 2.8-1 4.7h16.7c-.2-1.9-.4-3.1-1.1-4.7m-15.7 12.2c0 5.6 3.5 9.8 9.6 9.8 4.8 0 7.1-1.3 9.9-4.1l6.6 6.5c-4.5 4.5-8.7 6.9-16.7 6.9-10.3 0-20.3-4.7-20.3-22.5 0-14.3 7.7-22.4 19.1-22.4 12.2 0 19.1 8.9 19.1 20.9v4.9h-27.3z"/></g><g id="g2516" transform="translate(265.96 30.868)"><path id="path2518" class="st1" d="M197.3 51c-1.7-1.7-3.1-2.6-5.8-2.6-3.4 0-7.1 2.5-7.1 8.1v26.4h-10.9V39.1h10.7v4.2c2.1-2.5 6.3-4.7 11-4.7 4.3 0 7.3 1.1 10.3 4.1l-8.2 8.3z"/></g></g></svg>